<?xml version="1.0" encoding="UTF-8"?>
<svg id="Musthave" xmlns="http://www.w3.org/2000/svg" viewBox="0 0 800 800">
  <defs>
    <style>
      .cls-1 {
        fill: #206289;
      }

      .cls-1, .cls-2 {
        stroke-width: 0px;
      }

      .cls-2 {
        fill: #73bbe7;
      }
    </style>
  </defs>
  <g id="_0002_THK_Datentyp:_Audiodateien" data-name="0002_THK_Datentyp: Audiodateien">
    <g id="Audio">
      <g id="Kopfhörer">
        <path class="cls-2" d="M698.12,429.09v98.53c0,1.41-1.15,2.55-2.56,2.55h-7.37v10.11h-17.92v7.78c0,4.88-3.97,8.84-8.85,8.84h-74.45v-157.09h21.8v-34.77h-.01c0-115.49-93.62-209.11-209.11-209.11s-209.12,93.62-209.12,209.11v34.76h22.5v157.09h-74.46c-4.88,0-8.84-3.95-8.84-8.83v-7.79h-17.93v-10.11h-7.38c-1.41,0-2.55-1.14-2.55-2.55v-98.52c0-1.42,1.14-2.56,2.55-2.56h7.38v-10.1h17.93v-7.79c0-4.88,3.96-8.84,8.84-8.84h20.54v-34.76c0-132.84,107.69-240.54,240.54-240.54s240.54,107.7,240.54,240.54v34.77h21.23c4.88,0,8.85,3.95,8.85,8.83v7.8h17.92v10.1h7.37c1.41,0,2.56,1.14,2.56,2.55Z"/>
      </g>
      <g id="Ton">
        <rect class="cls-1" x="393" y="355.47" width="13.3" height="245.75"/>
        <rect class="cls-1" x="321.75" y="419.52" width="13.3" height="117.66"/>
        <rect class="cls-1" x="298.01" y="400.38" width="13.3" height="155.94"/>
        <rect class="cls-1" x="274.26" y="400.56" width="13.3" height="155.58"/>
        <rect class="cls-1" x="250.51" y="432.97" width="13.3" height="90.76"/>
        <rect class="cls-1" x="369.25" y="381.62" width="13.3" height="193.45"/>
        <rect class="cls-1" x="345.5" y="406.4" width="13.3" height="143.89"/>
        <rect class="cls-1" x="464.25" y="419.52" width="13.3" height="117.66" transform="translate(941.79 956.7) rotate(180)"/>
        <rect class="cls-1" x="487.99" y="400.38" width="13.3" height="155.94" transform="translate(989.29 956.7) rotate(180)"/>
        <rect class="cls-1" x="511.74" y="400.56" width="13.3" height="155.58" transform="translate(1036.79 956.7) rotate(180)"/>
        <rect class="cls-1" x="535.49" y="432.97" width="13.3" height="90.76" transform="translate(1084.28 956.7) rotate(180)"/>
        <rect class="cls-1" x="416.75" y="381.62" width="13.3" height="193.45" transform="translate(846.8 956.7) rotate(180)"/>
        <rect class="cls-1" x="440.5" y="406.4" width="13.3" height="143.89" transform="translate(894.3 956.7) rotate(180)"/>
      </g>
    </g>
  </g>
</svg>