<?xml version="1.0" encoding="UTF-8"?>
<svg id="Musthave" xmlns="http://www.w3.org/2000/svg" viewBox="0 0 800 800">
  <defs>
    <style>
      .cls-1 {
        fill: #308fc9;
      }

      .cls-1, .cls-2, .cls-3, .cls-4, .cls-5 {
        stroke-width: 0px;
      }

      .cls-2 {
        fill: #206289;
      }

      .cls-3 {
        fill: #dddddc;
      }

      .cls-4 {
        fill: #73bbe7;
      }

      .cls-5 {
        fill: #b9ddf3;
      }
    </style>
  </defs>
  <g id="_0005_THK_Metadaten" data-name="0005_THK_Metadaten">
    <g id="Daten">
      <g id="Blatt">
        <rect class="cls-1" x="250.74" y="100.4" width="401.21" height="569.08"/>
        <polygon class="cls-5" points="548.4 237.56 548.4 699.57 147.19 699.57 147.19 130.49 441.33 130.49 548.4 237.56"/>
        <polygon class="cls-4" points="548.4 237.56 441.33 237.56 441.33 130.49 548.4 237.56"/>
      </g>
      <g>
        <path class="cls-4" d="M172.44,274.58l1.85-8.75c8.45-3.69,14.99-7.99,19.62-12.89h5.98l-10.56,50.42h-9.88l7.28-34.73c-2.05,1.32-4.42,2.53-7.09,3.62-2.68,1.09-5.08,1.87-7.19,2.32Z"/>
        <path class="cls-4" d="M214.58,287.06c0-5.04.85-10.14,2.56-15.31,2.1-6.31,4.79-11.01,8.07-14.08s6.93-4.61,10.94-4.61,7.39,1.47,10,4.41c2.61,2.94,3.91,7.21,3.91,12.82,0,5.13-.95,10.54-2.85,16.25-1.9,5.71-4.47,10.08-7.71,13.12-3.24,3.04-6.88,4.56-10.94,4.56s-7.4-1.47-10.03-4.41-3.95-7.19-3.95-12.75ZM224.22,289.04c0,2.69.43,4.58,1.3,5.67.87,1.09,1.98,1.64,3.35,1.64,1.82,0,3.44-.84,4.85-2.53,1.89-2.26,3.57-6.7,5.02-13.33,1.16-5.26,1.74-9.43,1.74-12.51,0-2.51-.44-4.31-1.32-5.42-.88-1.1-2-1.66-3.37-1.66-1.73,0-3.27.83-4.61,2.5-1.98,2.42-3.69,6.67-5.13,12.75-1.23,5.26-1.85,9.56-1.85,12.89Z"/>
        <path class="cls-4" d="M260.51,287.06c0-5.04.85-10.14,2.56-15.31,2.1-6.31,4.79-11.01,8.07-14.08s6.93-4.61,10.94-4.61,7.39,1.47,10,4.41c2.61,2.94,3.91,7.21,3.91,12.82,0,5.13-.95,10.54-2.85,16.25-1.9,5.71-4.47,10.08-7.71,13.12-3.24,3.04-6.88,4.56-10.94,4.56s-7.4-1.47-10.03-4.41-3.95-7.19-3.95-12.75ZM270.15,289.04c0,2.69.43,4.58,1.3,5.67.87,1.09,1.98,1.64,3.35,1.64,1.82,0,3.44-.84,4.85-2.53,1.89-2.26,3.57-6.7,5.02-13.33,1.16-5.26,1.74-9.43,1.74-12.51,0-2.51-.44-4.31-1.32-5.42-.88-1.1-2-1.66-3.37-1.66-1.73,0-3.27.83-4.61,2.5-1.98,2.42-3.69,6.67-5.13,12.75-1.23,5.26-1.85,9.56-1.85,12.89Z"/>
        <path class="cls-4" d="M310.23,274.58l1.85-8.75c8.45-3.69,14.99-7.99,19.62-12.89h5.98l-10.56,50.42h-9.88l7.28-34.73c-2.05,1.32-4.42,2.53-7.09,3.62-2.68,1.09-5.08,1.87-7.19,2.32Z"/>
        <path class="cls-4" d="M352.37,287.06c0-5.04.85-10.14,2.56-15.31,2.1-6.31,4.79-11.01,8.07-14.08s6.93-4.61,10.94-4.61,7.39,1.47,10,4.41c2.61,2.94,3.91,7.21,3.91,12.82,0,5.13-.95,10.54-2.85,16.25-1.9,5.71-4.47,10.08-7.71,13.12-3.24,3.04-6.88,4.56-10.94,4.56s-7.4-1.47-10.03-4.41-3.95-7.19-3.95-12.75ZM362.01,289.04c0,2.69.43,4.58,1.3,5.67.87,1.09,1.98,1.64,3.35,1.64,1.82,0,3.44-.84,4.85-2.53,1.89-2.26,3.57-6.7,5.02-13.33,1.16-5.26,1.74-9.43,1.74-12.51,0-2.51-.44-4.31-1.32-5.42-.88-1.1-2-1.66-3.37-1.66-1.73,0-3.27.83-4.61,2.5-1.98,2.42-3.69,6.67-5.13,12.75-1.23,5.26-1.85,9.56-1.85,12.89Z"/>
        <path class="cls-4" d="M402.1,274.58l1.85-8.75c8.45-3.69,14.99-7.99,19.62-12.89h5.98l-10.56,50.42h-9.88l7.28-34.73c-2.05,1.32-4.42,2.53-7.09,3.62-2.68,1.09-5.08,1.87-7.19,2.32Z"/>
        <path class="cls-4" d="M442.83,274.58l1.85-8.75c8.45-3.69,14.99-7.99,19.62-12.89h5.98l-10.56,50.42h-9.88l7.28-34.73c-2.05,1.32-4.42,2.53-7.09,3.62-2.68,1.09-5.08,1.87-7.2,2.32Z"/>
        <path class="cls-4" d="M484.97,287.06c0-5.04.85-10.14,2.56-15.31,2.1-6.31,4.79-11.01,8.07-14.08s6.93-4.61,10.94-4.61,7.39,1.47,10,4.41c2.61,2.94,3.91,7.21,3.91,12.82,0,5.13-.95,10.54-2.85,16.25-1.9,5.71-4.47,10.08-7.71,13.12s-6.88,4.56-10.94,4.56-7.4-1.47-10.03-4.41-3.95-7.19-3.95-12.75ZM494.61,289.04c0,2.69.43,4.58,1.3,5.67s1.98,1.64,3.35,1.64c1.82,0,3.44-.84,4.85-2.53,1.89-2.26,3.57-6.7,5.02-13.33,1.16-5.26,1.74-9.43,1.74-12.51,0-2.51-.44-4.31-1.32-5.42-.88-1.1-2-1.66-3.37-1.66-1.73,0-3.27.83-4.61,2.5-1.98,2.42-3.69,6.67-5.13,12.75-1.23,5.26-1.85,9.56-1.85,12.89Z"/>
        <path class="cls-4" d="M168.65,357.06c0-5.04.85-10.14,2.56-15.31,2.1-6.31,4.79-11.01,8.07-14.08s6.93-4.61,10.94-4.61,7.39,1.47,10,4.41c2.61,2.94,3.91,7.21,3.91,12.82,0,5.13-.95,10.54-2.85,16.25-1.9,5.71-4.47,10.08-7.71,13.12-3.24,3.04-6.88,4.56-10.94,4.56s-7.4-1.47-10.03-4.41-3.95-7.19-3.95-12.75ZM178.29,359.04c0,2.69.43,4.58,1.3,5.67.87,1.09,1.98,1.64,3.35,1.64,1.82,0,3.44-.84,4.85-2.53,1.89-2.26,3.57-6.7,5.02-13.33,1.16-5.26,1.74-9.43,1.74-12.51,0-2.51-.44-4.31-1.32-5.42-.88-1.1-2-1.66-3.37-1.66-1.73,0-3.27.83-4.61,2.5-1.98,2.42-3.69,6.67-5.13,12.75-1.23,5.26-1.85,9.56-1.85,12.89Z"/>
        <path class="cls-4" d="M218.37,344.58l1.85-8.75c8.45-3.69,14.99-7.99,19.62-12.89h5.98l-10.56,50.42h-9.88l7.28-34.73c-2.05,1.32-4.42,2.53-7.09,3.62-2.68,1.09-5.08,1.87-7.19,2.32Z"/>
        <path class="cls-4" d="M260.51,357.06c0-5.04.85-10.14,2.56-15.31,2.1-6.31,4.79-11.01,8.07-14.08s6.93-4.61,10.94-4.61,7.39,1.47,10,4.41c2.61,2.94,3.91,7.21,3.91,12.82,0,5.13-.95,10.54-2.85,16.25-1.9,5.71-4.47,10.08-7.71,13.12-3.24,3.04-6.88,4.56-10.94,4.56s-7.4-1.47-10.03-4.41-3.95-7.19-3.95-12.75ZM270.15,359.04c0,2.69.43,4.58,1.3,5.67.87,1.09,1.98,1.64,3.35,1.64,1.82,0,3.44-.84,4.85-2.53,1.89-2.26,3.57-6.7,5.02-13.33,1.16-5.26,1.74-9.43,1.74-12.51,0-2.51-.44-4.31-1.32-5.42-.88-1.1-2-1.66-3.37-1.66-1.73,0-3.27.83-4.61,2.5-1.98,2.42-3.69,6.67-5.13,12.75-1.23,5.26-1.85,9.56-1.85,12.89Z"/>
        <path class="cls-4" d="M306.44,357.06c0-5.04.85-10.14,2.56-15.31,2.1-6.31,4.79-11.01,8.07-14.08s6.93-4.61,10.94-4.61,7.39,1.47,10,4.41c2.61,2.94,3.91,7.21,3.91,12.82,0,5.13-.95,10.54-2.85,16.25-1.9,5.71-4.47,10.08-7.71,13.12-3.24,3.04-6.88,4.56-10.94,4.56s-7.4-1.47-10.03-4.41-3.95-7.19-3.95-12.75ZM316.08,359.04c0,2.69.43,4.58,1.3,5.67.87,1.09,1.98,1.64,3.35,1.64,1.82,0,3.44-.84,4.85-2.53,1.89-2.26,3.57-6.7,5.02-13.33,1.16-5.26,1.74-9.43,1.74-12.51,0-2.51-.44-4.31-1.32-5.42-.88-1.1-2-1.66-3.37-1.66-1.73,0-3.27.83-4.61,2.5-1.98,2.42-3.69,6.67-5.13,12.75-1.23,5.26-1.85,9.56-1.85,12.89Z"/>
        <path class="cls-4" d="M356.16,344.58l1.85-8.75c8.45-3.69,14.99-7.99,19.62-12.89h5.98l-10.56,50.42h-9.88l7.28-34.73c-2.05,1.32-4.42,2.53-7.09,3.62-2.68,1.09-5.08,1.87-7.19,2.32Z"/>
        <path class="cls-4" d="M396.9,344.58l1.85-8.75c8.45-3.69,14.99-7.99,19.62-12.89h5.98l-10.56,50.42h-9.88l7.28-34.73c-2.05,1.32-4.42,2.53-7.09,3.62-2.68,1.09-5.08,1.87-7.19,2.32Z"/>
        <path class="cls-4" d="M439.04,357.06c0-5.04.85-10.14,2.56-15.31,2.1-6.31,4.79-11.01,8.07-14.08s6.93-4.61,10.94-4.61,7.39,1.47,10,4.41c2.61,2.94,3.91,7.21,3.91,12.82,0,5.13-.95,10.54-2.85,16.25-1.9,5.71-4.47,10.08-7.71,13.12s-6.88,4.56-10.94,4.56-7.4-1.47-10.03-4.41-3.95-7.19-3.95-12.75ZM448.68,359.04c0,2.69.43,4.58,1.3,5.67s1.98,1.64,3.35,1.64c1.82,0,3.44-.84,4.85-2.53,1.89-2.26,3.57-6.7,5.02-13.33,1.16-5.26,1.74-9.43,1.74-12.51,0-2.51-.44-4.31-1.32-5.42-.88-1.1-2-1.66-3.37-1.66-1.73,0-3.27.83-4.61,2.5-1.98,2.42-3.69,6.67-5.13,12.75-1.23,5.26-1.85,9.56-1.85,12.89Z"/>
        <path class="cls-4" d="M484.97,357.06c0-5.04.85-10.14,2.56-15.31,2.1-6.31,4.79-11.01,8.07-14.08s6.93-4.61,10.94-4.61,7.39,1.47,10,4.41c2.61,2.94,3.91,7.21,3.91,12.82,0,5.13-.95,10.54-2.85,16.25-1.9,5.71-4.47,10.08-7.71,13.12s-6.88,4.56-10.94,4.56-7.4-1.47-10.03-4.41-3.95-7.19-3.95-12.75ZM494.61,359.04c0,2.69.43,4.58,1.3,5.67s1.98,1.64,3.35,1.64c1.82,0,3.44-.84,4.85-2.53,1.89-2.26,3.57-6.7,5.02-13.33,1.16-5.26,1.74-9.43,1.74-12.51,0-2.51-.44-4.31-1.32-5.42-.88-1.1-2-1.66-3.37-1.66-1.73,0-3.27.83-4.61,2.5-1.98,2.42-3.69,6.67-5.13,12.75-1.23,5.26-1.85,9.56-1.85,12.89Z"/>
        <path class="cls-4" d="M172.44,414.58l1.85-8.75c8.45-3.69,14.99-7.99,19.62-12.89h5.98l-10.56,50.42h-9.88l7.28-34.73c-2.05,1.32-4.42,2.53-7.09,3.62-2.68,1.09-5.08,1.87-7.19,2.32Z"/>
        <path class="cls-4" d="M214.58,427.06c0-5.04.85-10.14,2.56-15.31,2.1-6.31,4.79-11.01,8.07-14.08s6.93-4.61,10.94-4.61,7.39,1.47,10,4.41c2.61,2.94,3.91,7.21,3.91,12.82,0,5.13-.95,10.54-2.85,16.25-1.9,5.71-4.47,10.08-7.71,13.12-3.24,3.04-6.88,4.56-10.94,4.56s-7.4-1.47-10.03-4.41-3.95-7.19-3.95-12.75ZM224.22,429.04c0,2.69.43,4.58,1.3,5.67.87,1.09,1.98,1.64,3.35,1.64,1.82,0,3.44-.84,4.85-2.53,1.89-2.26,3.57-6.7,5.02-13.33,1.16-5.26,1.74-9.43,1.74-12.51,0-2.51-.44-4.31-1.32-5.42-.88-1.1-2-1.66-3.37-1.66-1.73,0-3.27.83-4.61,2.5-1.98,2.42-3.69,6.67-5.13,12.75-1.23,5.26-1.85,9.56-1.85,12.89Z"/>
        <path class="cls-4" d="M264.3,414.58l1.85-8.75c8.45-3.69,14.99-7.99,19.62-12.89h5.98l-10.56,50.42h-9.88l7.28-34.73c-2.05,1.32-4.42,2.53-7.09,3.62-2.68,1.09-5.08,1.87-7.19,2.32Z"/>
        <path class="cls-4" d="M306.44,427.06c0-5.04.85-10.14,2.56-15.31,2.1-6.31,4.79-11.01,8.07-14.08s6.93-4.61,10.94-4.61,7.39,1.47,10,4.41c2.61,2.94,3.91,7.21,3.91,12.82,0,5.13-.95,10.54-2.85,16.25-1.9,5.71-4.47,10.08-7.71,13.12-3.24,3.04-6.88,4.56-10.94,4.56s-7.4-1.47-10.03-4.41-3.95-7.19-3.95-12.75ZM316.08,429.04c0,2.69.43,4.58,1.3,5.67.87,1.09,1.98,1.64,3.35,1.64,1.82,0,3.44-.84,4.85-2.53,1.89-2.26,3.57-6.7,5.02-13.33,1.16-5.26,1.74-9.43,1.74-12.51,0-2.51-.44-4.31-1.32-5.42-.88-1.1-2-1.66-3.37-1.66-1.73,0-3.27.83-4.61,2.5-1.98,2.42-3.69,6.67-5.13,12.75-1.23,5.26-1.85,9.56-1.85,12.89Z"/>
        <path class="cls-4" d="M352.37,427.06c0-5.04.85-10.14,2.56-15.31,2.1-6.31,4.79-11.01,8.07-14.08s6.93-4.61,10.94-4.61,7.39,1.47,10,4.41c2.61,2.94,3.91,7.21,3.91,12.82,0,5.13-.95,10.54-2.85,16.25-1.9,5.71-4.47,10.08-7.71,13.12-3.24,3.04-6.88,4.56-10.94,4.56s-7.4-1.47-10.03-4.41-3.95-7.19-3.95-12.75ZM362.01,429.04c0,2.69.43,4.58,1.3,5.67.87,1.09,1.98,1.64,3.35,1.64,1.82,0,3.44-.84,4.85-2.53,1.89-2.26,3.57-6.7,5.02-13.33,1.16-5.26,1.74-9.43,1.74-12.51,0-2.51-.44-4.31-1.32-5.42-.88-1.1-2-1.66-3.37-1.66-1.73,0-3.27.83-4.61,2.5-1.98,2.42-3.69,6.67-5.13,12.75-1.23,5.26-1.85,9.56-1.85,12.89Z"/>
        <path class="cls-4" d="M402.1,414.58l1.85-8.75c8.45-3.69,14.99-7.99,19.62-12.89h5.98l-10.56,50.42h-9.88l7.28-34.73c-2.05,1.32-4.42,2.53-7.09,3.62-2.68,1.09-5.08,1.87-7.19,2.32Z"/>
        <path class="cls-4" d="M444.23,427.06c0-5.04.85-10.14,2.56-15.31,2.1-6.31,4.79-11.01,8.07-14.08s6.93-4.61,10.94-4.61,7.39,1.47,10,4.41c2.61,2.94,3.91,7.21,3.91,12.82,0,5.13-.95,10.54-2.85,16.25-1.9,5.71-4.47,10.08-7.71,13.12s-6.88,4.56-10.94,4.56-7.4-1.47-10.03-4.41-3.95-7.19-3.95-12.75ZM453.87,429.04c0,2.69.43,4.58,1.3,5.67s1.98,1.64,3.35,1.64c1.82,0,3.44-.84,4.85-2.53,1.89-2.26,3.57-6.7,5.02-13.33,1.16-5.26,1.74-9.43,1.74-12.51,0-2.51-.44-4.31-1.32-5.42-.88-1.1-2-1.66-3.37-1.66-1.73,0-3.27.83-4.61,2.5-1.98,2.42-3.69,6.67-5.13,12.75-1.23,5.26-1.85,9.56-1.85,12.89Z"/>
        <path class="cls-4" d="M493.96,414.58l1.85-8.75c8.45-3.69,14.99-7.99,19.62-12.89h5.98l-10.56,50.42h-9.88l7.28-34.73c-2.05,1.32-4.42,2.53-7.09,3.62-2.68,1.09-5.08,1.87-7.2,2.32Z"/>
        <path class="cls-4" d="M172.44,484.58l1.85-8.75c8.45-3.69,14.99-7.99,19.62-12.89h5.98l-10.56,50.42h-9.88l7.28-34.73c-2.05,1.32-4.42,2.53-7.09,3.62-2.68,1.09-5.08,1.87-7.19,2.32Z"/>
        <path class="cls-4" d="M214.58,497.06c0-5.04.85-10.14,2.56-15.31,2.1-6.31,4.79-11.01,8.07-14.08s6.93-4.61,10.94-4.61,7.39,1.47,10,4.41c2.61,2.94,3.91,7.21,3.91,12.82,0,5.13-.95,10.54-2.85,16.25-1.9,5.71-4.47,10.08-7.71,13.12-3.24,3.04-6.88,4.56-10.94,4.56s-7.4-1.47-10.03-4.41-3.95-7.19-3.95-12.75ZM224.22,499.04c0,2.69.43,4.58,1.3,5.67.87,1.09,1.98,1.64,3.35,1.64,1.82,0,3.44-.84,4.85-2.53,1.89-2.26,3.57-6.7,5.02-13.33,1.16-5.26,1.74-9.43,1.74-12.51,0-2.51-.44-4.31-1.32-5.42-.88-1.1-2-1.66-3.37-1.66-1.73,0-3.27.83-4.61,2.5-1.98,2.42-3.69,6.67-5.13,12.75-1.23,5.26-1.85,9.56-1.85,12.89Z"/>
        <path class="cls-4" d="M264.3,484.58l1.85-8.75c8.45-3.69,14.99-7.99,19.62-12.89h5.98l-10.56,50.42h-9.88l7.28-34.73c-2.05,1.32-4.42,2.53-7.09,3.62-2.68,1.09-5.08,1.87-7.19,2.32Z"/>
        <path class="cls-4" d="M338,467.45c-2.61-2.94-5.94-4.41-9.99-4.41s-7.66,1.54-10.94,4.62c-3.28,3.07-5.97,7.77-8.07,14.08-1.71,5.17-2.56,10.28-2.56,15.31,0,1.58.11,3.06.33,4.42h9.46c-.1-.72-.15-1.53-.15-2.43,0-3.33.61-7.63,1.84-12.89,1.44-6.08,3.15-10.33,5.13-12.75,1.34-1.66,2.88-2.49,4.61-2.49,1.37,0,2.49.55,3.37,1.65.88,1.11,1.32,2.91,1.32,5.42,0,3.08-.58,7.25-1.75,12.51-1.06,4.81-2.23,8.47-3.51,10.98h10c.72-1.52,1.38-3.17,1.97-4.95,1.91-5.71,2.86-11.12,2.86-16.25,0-5.61-1.31-9.88-3.92-12.82Z"/>
        <path class="cls-4" d="M383.93,467.45c-2.61-2.94-5.94-4.41-9.99-4.41s-7.66,1.54-10.94,4.62c-3.28,3.07-5.97,7.77-8.07,14.08-1.71,5.17-2.56,10.28-2.56,15.31,0,1.58.11,3.06.32,4.42h9.47c-.1-.72-.15-1.53-.15-2.43,0-3.33.61-7.63,1.84-12.89,1.44-6.08,3.15-10.33,5.13-12.75,1.34-1.66,2.88-2.49,4.61-2.49,1.37,0,2.49.55,3.37,1.65.88,1.11,1.32,2.91,1.32,5.42,0,3.08-.58,7.25-1.75,12.51-1.05,4.81-2.23,8.47-3.51,10.98h10c.72-1.52,1.38-3.17,1.97-4.95,1.91-5.71,2.86-11.12,2.86-16.25,0-5.61-1.31-9.88-3.92-12.82Z"/>
        <path class="cls-4" d="M423.56,462.94c-4.63,4.9-11.17,9.2-19.62,12.89l-1.85,8.75c2.12-.46,4.52-1.23,7.2-2.33,2.68-1.09,5.04-2.3,7.09-3.62l-4.79,22.84h9.88l8.07-38.53h-5.98Z"/>
        <path class="cls-4" d="M464.29,462.94c-4.62,4.9-11.16,9.2-19.62,12.89l-1.84,8.75c2.12-.46,4.52-1.23,7.19-2.33,2.68-1.09,5.05-2.3,7.1-3.62l-4.79,22.84h9.87l8.08-38.53h-5.99Z"/>
        <path class="cls-4" d="M516.53,467.45c-2.61-2.94-5.94-4.41-10-4.41s-7.65,1.54-10.93,4.62c-3.29,3.07-5.97,7.77-8.07,14.08-1.71,5.17-2.56,10.28-2.56,15.31,0,1.58.11,3.06.32,4.42h9.46c-.1-.72-.15-1.53-.15-2.43,0-3.33.62-7.63,1.85-12.89,1.44-6.08,3.14-10.33,5.13-12.75,1.34-1.66,2.88-2.49,4.61-2.49,1.37,0,2.49.55,3.37,1.65.88,1.11,1.31,2.91,1.31,5.42,0,3.08-.58,7.25-1.74,12.51-1.06,4.81-2.23,8.47-3.51,10.98h1.68v10.22c.89-.57,1.75-1.26,2.58-2.04,3.24-3.04,5.81-7.42,7.71-13.13,1.9-5.71,2.85-11.12,2.85-16.25,0-5.61-1.3-9.88-3.91-12.82Z"/>
        <path class="cls-4" d="M181.52,573.48l-2.07,9.88h9.87l2.07-9.88h-9.87ZM193.9,532.94c-4.62,4.9-11.16,9.2-19.61,12.89l-1.85,8.75c2.12-.46,4.52-1.23,7.19-2.33,2.68-1.09,5.05-2.3,7.1-3.62l-2.75,13.1h9.87l6.04-28.79h-5.99Z"/>
        <path class="cls-4" d="M234.89,575.35c-.49-.43-.93-.88-1.32-1.37-1.37,1.58-2.94,2.37-4.71,2.37-1.36,0-2.48-.55-3.35-1.64-.26-.33-.49-.74-.66-1.23h-9.55c.65,2.53,1.72,4.64,3.22,6.32,2.64,2.94,5.98,4.41,10.04,4.41s7.7-1.52,10.93-4.56c.05-.05.1-.1.15-.15l-4.75-4.15ZM246.14,537.45c-2.61-2.94-5.94-4.41-10-4.41s-7.65,1.54-10.93,4.62c-3.28,3.07-5.97,7.77-8.07,14.08-1.11,3.36-1.86,6.69-2.24,9.99h10.03c.29-1.72.67-3.58,1.13-5.58,1.44-6.08,3.15-10.33,5.13-12.75,1.34-1.66,2.88-2.49,4.61-2.49,1.37,0,2.49.55,3.37,1.65.88,1.11,1.32,2.91,1.32,5.42,0,1.85-.21,4.1-.64,6.75l9.92-8.67h0c-.51-3.59-1.72-6.46-3.63-8.61Z"/>
        <path class="cls-4" d="M521.73,537.45c-2.61-2.94-5.95-4.41-10-4.41-1.53,0-3,.22-4.43.67v9.09c1.22-1.26,2.58-1.89,4.09-1.89,1.36,0,2.49.55,3.36,1.65.88,1.11,1.32,2.91,1.32,5.42,0,3.08-.58,7.25-1.74,12.51-1.46,6.63-3.14,11.07-5.03,13.33-.63.75-1.29,1.33-2,1.74v8.32c2.81-.59,5.4-2,7.78-4.23,3.23-3.04,5.8-7.42,7.71-13.13,1.9-5.71,2.85-11.12,2.85-16.25,0-5.61-1.31-9.88-3.91-12.82Z"/>
      </g>
      <g id="Schild">
        <g>
          <g>
            <path class="cls-3" d="M233.19,573.48c.12.17.25.34.38.5.06-.05.1-.11.15-.16.09-.11.18-.22.26-.34h-.79ZM263.23,557c-3.63,0-6.82,1.88-8.65,4.73h8.88c3.02,0,5.47,2.45,5.47,5.48v.8c0,3.01-2.45,5.47-5.47,5.47h-8.43c1.88,2.48,4.86,4.08,8.2,4.08,5.68,0,10.28-4.6,10.28-10.28s-4.6-10.28-10.28-10.28Z"/>
            <polygon class="cls-2" points="350.66 605.26 345.76 610.17 302.94 567.35 345.65 524.64 350.55 529.54 312.75 567.35 350.66 605.26"/>
            <path class="cls-3" d="M304.09,501.47c-2.13,0-4.18.77-5.78,2.17l-48.54,42.41h0s-9.92,8.68-9.92,8.68l-4.97,4.34c-.9.79-1.64,1.69-2.21,2.66h21.91c1.83-2.85,5.02-4.73,8.65-4.73,5.68,0,10.28,4.6,10.28,10.28s-4.6,10.28-10.28,10.28c-3.34,0-6.32-1.6-8.2-4.08h-21.05c-.08.12-.17.23-.26.34-.05.05-.09.11-.15.16.39.49.83.94,1.32,1.37l4.75,4.15,58.67,51.2c1.6,1.4,3.65,2.17,5.78,2.17h203.21v-131.4h-203.21ZM345.76,610.17l-42.82-42.82,42.71-42.71,4.9,4.9-37.8,37.81,37.91,37.91-4.9,4.91ZM368.85,610.39l-5.65-3.64,53.27-82.56,5.64,3.65-53.26,82.55ZM439.41,610.17l-4.9-4.91,37.91-37.91-37.8-37.81,4.9-4.9,42.71,42.71-42.82,42.82Z"/>
          </g>
          <g>
            <polygon class="cls-2" points="422.11 527.84 368.85 610.39 363.2 606.75 416.47 524.19 422.11 527.84"/>
            <polygon class="cls-2" points="482.23 567.35 439.41 610.17 434.51 605.26 472.42 567.35 434.62 529.54 439.52 524.64 482.23 567.35"/>
          </g>
        </g>
        <path class="cls-1" d="M273.51,567.28c0,5.68-4.6,10.28-10.28,10.28-3.34,0-6.32-1.6-8.2-4.08h8.43c3.02,0,5.47-2.46,5.47-5.47v-.8c0-3.03-2.45-5.48-5.47-5.48h-8.88c1.83-2.85,5.02-4.73,8.65-4.73,5.68,0,10.28,4.6,10.28,10.28Z"/>
        <path class="cls-2" d="M268.93,567.21v.8c0,3.01-2.45,5.47-5.47,5.47h-96.35c-7.3,0-14.36-1.57-20.98-4.65-19.05-8.85-31.37-28.83-31.37-50.9,0-23.36,10.81-42.31,28.9-50.72l3.56-1.65v12.88l-1.3.71c-12.59,6.92-19.81,21.05-19.81,38.78,0,16.49,8.54,31.42,22.28,38.97,5.83,3.2,12.12,4.83,18.72,4.83h96.35c3.02,0,5.47,2.45,5.47,5.48Z"/>
      </g>
    </g>
  </g>
</svg>