<?xml version="1.0" encoding="UTF-8"?>
<svg id="Musthave" xmlns="http://www.w3.org/2000/svg" viewBox="0 0 800 800">
  <defs>
    <style>
      .cls-1 {
        fill: #308fc9;
      }

      .cls-1, .cls-2, .cls-3, .cls-4, .cls-5, .cls-6 {
        stroke-width: 0px;
      }

      .cls-2 {
        fill: #206289;
      }

      .cls-3 {
        fill: #73bbe7;
      }

      .cls-4 {
        fill: #b47d49;
      }

      .cls-5 {
        fill: #b9ddf3;
      }

      .cls-6 {
        fill: #f9dbc2;
      }
    </style>
  </defs>
  <g id="_0007_THK_Leitlinien" data-name="0007_THK_Leitlinien">
    <g id="Leitlinien">
      <g id="Blatt">
        <rect class="cls-1" x="206.26" y="101.08" width="400.3" height="567.78"/>
        <g id="hell">
          <polygon class="cls-5" points="504.11 238.21 504.11 698.92 103.81 698.92 103.81 131.14 397.04 131.14 504.11 238.21"/>
          <polygon class="cls-3" points="397.04 238.21 397.04 131.14 504.11 238.21 397.04 238.21"/>
        </g>
      </g>
      <g id="Textlinien">
        <g>
          <rect class="cls-2" x="137.98" y="351.25" width="333.04" height="5"/>
          <rect class="cls-2" x="137.98" y="386.1" width="333.04" height="5"/>
        </g>
        <g>
          <rect class="cls-2" x="137.98" y="425.97" width="333.04" height="5"/>
          <rect class="cls-2" x="137.98" y="460.82" width="333.04" height="5"/>
        </g>
        <g>
          <rect class="cls-2" x="137.98" y="500.69" width="333.04" height="5"/>
          <rect class="cls-2" x="137.98" y="535.54" width="333.04" height="5"/>
        </g>
        <g>
          <rect class="cls-2" x="137.98" y="575.41" width="333.04" height="5"/>
          <rect class="cls-2" x="137.98" y="610.25" width="333.04" height="5"/>
        </g>
      </g>
      <g id="Hand">
        <g id="Hand-2" data-name="Hand">
          <path class="cls-6" d="M250.5,248.45l-.04,59.68c-5.48,1.33-9.86,3.07-13.24,4.69-2.95,1.41-8.18,3.33-11.39,3.84-12.76,2.03-13.76,1.62-20.22,1.71-9.5-.06-19.01-.12-28.51-.18h-19.54c-4.53,0-8.21-3.67-8.21-8.21v-2.37c0-4.53,3.68-8.2,8.21-8.2h19.54v-.45h-24.9c-4.56,0-8.26-3.69-8.26-8.25v-2.28c0-4.55,3.7-8.25,8.26-8.25h24.9v-.45h-30.84c-.3,0-2.8.03-4.56-2.51-1.9-2.76-1.88-6.87-1.88-6.87v-.38c.02-1.2.17-4.02,1.88-6.5,1.79-2.59,4.09-2.52,4.56-2.52h30.84v-.44h-28.6c-.09,0-2.94-.02-4.61-2.52-1.99-2.98-1.91-7.09-1.9-7.67,0-2.37.85-4.52,2.09-6.08,1.24-1.55,2.86-2.51,4.42-2.51h28.6s.05,0,.07.01c-4.14-8.61-6.22-16.17-7.36-21.65-.52-2.53-3.89-19.46,1.12-23.07,2.99-2.16,6.13-1.65,6.13-1.65,2.73.48,4.93,2.39,6.09,4.93h0c3.52,5.99,4.25,11.67,9.05,19.6,2.43,4.01,4.93,5.81,7.45,8.22,3.73,3.57,8.51,8.85,14.46,17l36.39,3.33Z"/>
        </g>
        <g id="Schatten">
          <rect class="cls-4" x="147.89" y="260.5" width="29.2" height=".44"/>
          <rect class="cls-4" x="151.13" y="279.73" width="25.96" height=".45" transform="translate(328.23 559.91) rotate(180)"/>
          <rect class="cls-4" x="156.43" y="298.96" width="20.66" height=".45" transform="translate(333.53 598.36) rotate(180)"/>
        </g>
        <g id="Shirt">
          <polygon class="cls-2" points="277.88 243.15 277.88 251.33 277.84 305.54 277.84 314.68 250.46 314.67 250.46 308.13 250.5 248.45 250.5 243.13 277.88 243.15"/>
        </g>
      </g>
      <g id="Leitpfeile">
        <path class="cls-2" d="M695.47,362.39l-30.17,28.39c-.57.54-1.33.84-2.11.84h-110.4v307.3h-27v-223.89h-110.41c-.78,0-1.53-.3-2.1-.84l-30.18-28.39c-.95-.9-.97-2.42-.02-3.34l30.19-29.35c.57-.56,1.34-.87,2.14-.87h110.38v-83.41h137.37c.8,0,1.57.31,2.14.87l30.2,29.35c.94.92.93,2.44-.03,3.34Z"/>
      </g>
    </g>
  </g>
</svg>