<?xml version="1.0" encoding="UTF-8"?>
<svg id="Musthave" xmlns="http://www.w3.org/2000/svg" viewBox="0 0 800 800">
  <defs>
    <style>
      .cls-1 {
        fill: #206289;
      }

      .cls-1, .cls-2, .cls-3, .cls-4 {
        stroke-width: 0px;
      }

      .cls-2 {
        fill: #dddddc;
      }

      .cls-3 {
        fill: #64abd6;
      }

      .cls-4 {
        fill: #73bbe7;
      }
    </style>
  </defs>
  <g id="_0009_THK_Veroeffentlichen" data-name="0009_THK_Veroeffentlichen">
    <g id="Veröffentlichen">
      <g id="Internet">
        <g>
          <path class="cls-3" d="M523.3,236.64h-.01c.13.22.26.44.38.67-.12-.22-.24-.45-.37-.67ZM554.47,287.04h0c-.3-1.17-.61-2.31-.94-3.47-2.7,4.66-4.93,9.61-6.63,14.81,0,0-.01,0,0,.02.1.45.2.9.29,1.35.23,1.06.45,2.12.65,3.19.05.22.09.43.13.65h0c.17.87.33,1.73.49,2.6.17.98.34,1.96.5,2.94.06.31.11.62.16.93,1.18-6.83,3.32-13.33,6.26-19.37-.28-1.22-.59-2.44-.91-3.65ZM471.68,515.65c-2.77,2.29-5.59,4.51-8.47,6.66l9.38,5.41c2.82-2.18,5.59-4.43,8.3-6.75l-9.21-5.32ZM559.59,362.05c-.91-1.4-1.76-2.83-2.56-4.29-.8-1.46-1.55-2.94-2.25-4.46-.44-.93-.85-1.88-1.24-2.84-.57-1.37-1.1-2.77-1.58-4.19,0,1.39-.01,2.79-.05,4.18-.01.77-.04,1.54-.06,2.3v.13c-.03.72-.06,1.43-.09,2.15-.02.46-.04.91-.06,1.36-.01.29-.03.59-.05.89-.01.3-.03.6-.05.89h0c-.01.17-.01.34-.03.5-.02.33-.04.67-.06,1-.03.56-.07,1.13-.12,1.7-.05.74-.1,1.49-.17,2.23-.08,1.07-.18,2.13-.29,3.19,0,.09-.01.19-.02.28l4.35-2.52c1.59,2.5,3.33,4.91,5.21,7.21.14-1.19.26-2.37.38-3.56h0c.12-1.25.24-2.5.34-3.74h0c-.55-.8-1.09-1.6-1.6-2.41Z"/>
          <path class="cls-3" d="M388.55,536.06h-.01c.6-.1,1.2-.22,1.79-.34-.59.12-1.18.23-1.78.34ZM444.66,428.41c.03.06.06.11.09.17.32.63.63,1.26.94,1.89.01.01.01.03.02.04.26.54.51,1.09.75,1.64h.01c.39-1.8.77-3.61,1.12-5.43l-2.93,1.69ZM332.88,565.98c1.18-.01,2.36-.02,3.54-.05v-.14c-1.18.1-2.36.16-3.54.19ZM326.42,124.98v.14c1.19-.1,2.37-.16,3.56-.19-1.19.01-2.38.03-3.56.05ZM331.42,114.91c-.52,0-1.05.01-1.57.02,1.01-.02,2.08-.02,3.14,0-.52,0-1.05-.02-1.57-.02ZM332.93,124.93c1.16.03,2.33.09,3.49.19v-.14c-1.16-.03-2.33-.04-3.49-.05ZM438.9,419c-.07.44-.15.88-.23,1.32l.83-.49c-.19-.28-.39-.56-.6-.83Z"/>
          <g>
            <path class="cls-3" d="M329.98,124.93c-1.19.03-2.37.09-3.56.19v-.14c1.18-.02,2.37-.04,3.56-.05Z"/>
            <path class="cls-3" d="M336.42,124.98v.14c-1.16-.1-2.33-.16-3.49-.19,1.16.01,2.33.02,3.49.05Z"/>
            <path class="cls-3" d="M336.42,565.79v.14c-1.18.03-2.36.04-3.54.05,1.18-.03,2.36-.09,3.54-.19Z"/>
          </g>
          <g>
            <path class="cls-3" d="M452.64,453.67c.06.41.11.81.16,1.22.11.89.2,1.79.28,2.68.05.62.1,1.24.13,1.87.01.06.01.12.01.17.04.64.07,1.29.09,1.94.01.12.01.23.01.34.02.59.03,1.18.03,1.78h64.28c1.58-2.47,3.1-4.97,4.58-7.51.48-.83.96-1.66,1.42-2.49h-70.99ZM529.38,463.67h.03l1.44-2.48c-.48.83-.97,1.66-1.47,2.48ZM559.59,362.05c-.91-1.4-1.76-2.83-2.56-4.29-.8-1.46-1.55-2.94-2.25-4.46-.44-.93-.85-1.88-1.24-2.84-.57-1.37-1.1-2.77-1.58-4.19,0,1.39-.01,2.79-.05,4.18-.01.77-.04,1.54-.06,2.3v.13c-.03.72-.06,1.43-.09,2.15-.02.46-.04.91-.06,1.36-.01.29-.03.59-.05.89-.01.29-.03.59-.06.88h0c0,.18-.01.34-.02.51-.02.33-.04.67-.06,1-.03.56-.07,1.13-.12,1.7-.05.74-.1,1.49-.17,2.23-.08,1.07-.18,2.13-.29,3.19,0,.1-.01.19-.03.28-.1,1.09-.21,2.17-.33,3.24.12-1.08.24-2.16.34-3.24l4.35-2.52c1.59,2.5,3.33,4.91,5.21,7.21.14-1.19.26-2.37.38-3.56h0c.12-1.25.24-2.5.34-3.74h0c-.55-.8-1.09-1.6-1.6-2.41ZM551.91,340.45c0-.18-.01-.36-.02-.54.01.18.01.36.01.54.02.44.03.89.04,1.34-.01-.45-.02-.9-.03-1.34ZM131.99,461.19l1.44,2.48h.03c-.5-.82-.99-1.65-1.47-2.48ZM133.8,226.64l-1.45,2.48c.49-.83.98-1.66,1.48-2.48h-.03ZM529.05,226.64h-.03c.5.82.99,1.65,1.48,2.48l-1.45-2.48ZM554.47,287.04h0c-.3-1.17-.61-2.31-.94-3.47-2.7,4.66-4.93,9.61-6.63,14.81,0,0-.01,0,0,.02.1.45.2.9.29,1.35.23,1.06.45,2.12.65,3.19.05.22.09.43.13.65h0c.17.87.33,1.73.49,2.6.17.98.34,1.96.5,2.94.06.31.11.62.16.93,1.18-6.83,3.32-13.33,6.26-19.37-.28-1.22-.59-2.44-.91-3.65Z"/>
            <path class="cls-3" d="M560.47,371.76c-3.61,31.5-13.67,62-29.62,89.43-.48.83-.97,1.66-1.47,2.48-12.93,21.64-29.37,41.01-48.49,57.3l-9.21-5.32c17.91-14.77,33.46-32.33,45.95-51.98,1.58-2.47,3.1-4.97,4.58-7.51.48-.83.96-1.66,1.42-2.49.59-1.03,1.16-2.06,1.71-3.1.57-1.03,1.12-2.07,1.67-3.12.46-.86.9-1.73,1.34-2.61.4-.8.8-1.61,1.2-2.42.31-.62.61-1.25.91-1.88.41-.86.82-1.73,1.22-2.6.38-.8.75-1.61,1.1-2.42.23-.5.45-1,.67-1.5.4-.92.79-1.84,1.19-2.76.35-.85.7-1.7,1.05-2.55.12-.29.23-.58.36-.87.32-.82.65-1.64.96-2.46.12-.29.23-.59.34-.89.22-.56.44-1.12.65-1.69.25-.67.5-1.34.74-2.02.26-.69.51-1.39.74-2.09.09-.23.17-.47.25-.71.26-.71.5-1.43.74-2.15.18-.53.36-1.06.52-1.59.26-.75.5-1.5.73-2.26.08-.24.16-.48.23-.73.25-.78.49-1.56.72-2.35.22-.71.43-1.42.63-2.14.06-.2.12-.41.18-.62.27-.95.54-1.9.79-2.86.07-.25.14-.49.2-.74.28-1.01.54-2.03.8-3.05.01-.06.03-.13.04-.19.3-1.15.57-2.3.84-3.45.21-.89.42-1.79.61-2.68.13-.58.26-1.15.37-1.73.05-.22.1-.43.14-.65.22-1.02.43-2.05.62-3.07.22-1.12.43-2.24.63-3.36.03-.15.05-.29.08-.44.18-1.03.36-2.06.52-3.1.17-1.01.33-2.03.47-3.05.1-.6.18-1.19.26-1.79.1-.7.2-1.41.29-2.11.01-.11.03-.22.04-.32.13-1.08.27-2.16.39-3.24.12-1.08.24-2.16.34-3.24l4.35-2.52c1.59,2.5,3.33,4.91,5.21,7.21Z"/>
            <path class="cls-3" d="M439.5,419.83l10.45-6.03c3.36-20.34,5.21-41.66,5.45-63.48l92.77.13c-1.26-3.26-2.28-6.61-3.06-10.01l-89.72-.12c-.42-36.76-5.41-72.1-14.48-103.68h82.39c.13.22.25.45.37.67.04.05.07.1.09.16.55.96,1.08,1.93,1.6,2.9.76,1.38,1.49,2.77,2.2,4.17.43.82.85,1.64,1.25,2.46.55,1.08,1.08,2.17,1.6,3.27.47.97.93,1.94,1.37,2.91.2.43.4.86.59,1.3.27.59.53,1.17.79,1.76.27.6.53,1.2.78,1.8.21.47.42.95.61,1.43.26.58.5,1.17.73,1.76.34.79.66,1.58.97,2.37.43,1.05.84,2.11,1.24,3.18.33.85.65,1.7.96,2.56.22.58.43,1.16.64,1.75.32.9.64,1.81.95,2.73.39,1.12.77,2.25,1.13,3.38.02.06.04.12.06.19.27.8.52,1.62.77,2.43.18.57.36,1.14.53,1.72.25.83.5,1.66.73,2.49.04.09.06.19.09.29.3,1.02.59,2.05.86,3.09.06.18.11.37.15.56.3,1.09.59,2.18.86,3.28.23.88.45,1.77.66,2.66.12.5.24.99.35,1.49.14.58.27,1.17.39,1.75.1.4.19.82.28,1.23,1.7-5.2,3.93-10.15,6.63-14.81-5.28-19.02-13.01-37.34-23.03-54.45-.49-.83-.98-1.66-1.48-2.48-19.77-32.82-47.59-60.39-80.59-79.87-34.85-20.56-74.77-31.58-115.42-31.84h-.02c-1.06-.02-2.13-.02-3.14,0h-.02c-40.66.26-80.58,11.28-115.42,31.84-33,19.48-60.82,47.05-80.58,79.87-.5.82-.99,1.65-1.48,2.48-20.59,35.14-31.48,75.37-31.48,116.34s10.76,80.73,31.12,115.73c.48.83.97,1.66,1.47,2.48,19.73,32.98,47.56,60.7,80.64,80.29,34.93,20.68,74.95,31.75,115.69,32.02.54,0,1.09.02,1.63.02s1.05-.01,1.58-.02c40.79-.27,80.82-11.34,115.74-32.02,8.29-4.91,16.26-10.34,23.85-16.24l-9.38-5.41c-6.27,4.69-12.81,9.05-19.57,13.05-21.27,12.6-44.52,21.47-68.7,26.3,8.68-5.98,16.97-13.76,24.73-23.26-5.36,1.76-10.92,2.93-16.6,3.49-14.41,14.31-30.26,22.51-46.65,23.9v.14c-1.18.03-2.36.04-3.54.05,1.18-.03,2.36-.09,3.54-.19v-33.89c-2.75-1.59-5.42-3.35-8-5.29-.68-.51-1.34-1.03-2-1.56v40.74c-27.99-2.37-54.37-24.59-74.73-63.18-6.29-11.93-11.78-24.99-16.41-38.94h62c.02-3.39.26-6.73.71-10h-65.84c-9.24-31.39-14.32-66.77-14.7-103.66l108.97.14v53.3c3.14-2.54,6.48-4.83,10-6.86v-46.42l108.98.14c-.26,23.75-2.47,46.87-6.5,68.69.21.27.41.55.6.83ZM219.49,155.39c21.2-12.51,44.36-21.33,68.43-26.14-16.83,11.57-32.18,29.95-45.07,54.39-6.92,13.13-12.91,27.56-17.88,43h-79.37c18.66-29.13,44.06-53.65,73.89-71.25ZM242.85,507.27c12.89,24.43,28.24,42.82,45.06,54.39-24.17-4.83-47.43-13.7-68.71-26.3-29.93-17.72-55.35-42.39-73.99-71.69h79.56c5.02,15.67,11.06,30.3,18.08,43.6ZM221.75,453.67h-82.54c-.59-1.03-1.16-2.06-1.71-3.1-.57-1.03-1.12-2.07-1.67-3.12-.46-.86-.9-1.73-1.34-2.61-.4-.8-.8-1.61-1.2-2.42-.31-.62-.61-1.25-.91-1.88-.41-.86-.82-1.73-1.22-2.6-.38-.8-.75-1.61-1.1-2.42-.23-.5-.45-1-.67-1.5-.4-.92-.79-1.84-1.19-2.76-.35-.85-.7-1.7-1.05-2.55-.12-.29-.23-.58-.36-.87-.32-.82-.65-1.64-.96-2.46-.12-.29-.23-.59-.34-.89-.22-.56-.44-1.12-.65-1.69-.25-.67-.5-1.34-.74-2.02-.26-.69-.51-1.39-.74-2.09-.09-.23-.17-.47-.25-.71-.26-.71-.5-1.43-.73-2.15-.19-.53-.37-1.06-.53-1.59-.26-.75-.5-1.5-.73-2.26-.08-.24-.16-.48-.23-.73-.25-.78-.49-1.56-.72-2.35-.22-.71-.43-1.42-.63-2.14-.06-.2-.12-.41-.18-.62-.27-.95-.54-1.9-.79-2.86-.07-.25-.14-.49-.2-.74-.28-1.01-.54-2.03-.8-3.05-.01-.06-.03-.13-.04-.19-.3-1.15-.57-2.3-.84-3.45-.21-.89-.42-1.79-.61-2.68-.13-.58-.26-1.15-.37-1.73-.05-.22-.1-.43-.14-.65-.22-1.02-.43-2.05-.62-3.07-.22-1.12-.43-2.24-.63-3.36-.03-.15-.05-.29-.08-.44-.18-1.03-.36-2.06-.52-3.1-.17-1.01-.33-2.03-.47-3.05-.1-.6-.18-1.19-.26-1.79-.1-.7-.2-1.41-.29-2.11-.01-.11-.03-.22-.04-.32-.29-2.25-.54-4.5-.75-6.76-.11-1.06-.21-2.12-.29-3.19-.07-.74-.12-1.49-.17-2.23-.21-2.87-.36-5.74-.46-8.62-.03-.9-.05-1.81-.07-2.71v-.17l96.53.13c.37,36.73,5.31,72.06,14.3,103.67ZM207.46,340l-96.51-.13c0-.53.02-1.05.04-1.57.03-1.19.08-2.38.14-3.57.03-.51.05-1.01.09-1.52.03-.81.08-1.61.14-2.41.08-1.21.17-2.43.27-3.64.28-3.45.65-6.89,1.1-10.32.15-1.13.3-2.26.47-3.39.12-.82.24-1.63.38-2.45.09-.62.19-1.25.3-1.87.16-.98.33-1.96.5-2.94.2-1.09.4-2.17.62-3.25.2-1.07.42-2.13.65-3.19.03-.18.07-.35.11-.52.14-.7.3-1.39.46-2.08.12-.58.25-1.17.39-1.75.11-.5.23-.99.35-1.49.21-.89.43-1.78.66-2.66.27-1.1.56-2.19.86-3.28.04-.19.09-.38.15-.56.27-1.04.56-2.07.86-3.09.03-.1.06-.2.09-.29.23-.83.48-1.66.73-2.49.17-.58.35-1.15.53-1.72.2-.66.41-1.31.62-1.96.15-.47.3-.93.46-1.39.17-.57.36-1.14.57-1.71.22-.69.45-1.37.7-2.05.1-.32.22-.65.34-.97.29-.85.59-1.69.91-2.53.13-.35.26-.71.39-1.06.24-.64.48-1.28.73-1.92.25-.66.5-1.32.77-1.97.14-.37.29-.74.44-1.1.22-.57.45-1.13.69-1.7.34-.85.7-1.69,1.06-2.53.39-.94.8-1.87,1.21-2.8.19-.42.37-.84.57-1.26.35-.79.71-1.57,1.08-2.36.03-.09.08-.18.12-.27.38-.82.77-1.63,1.16-2.45.28-.58.56-1.16.85-1.73.29-.6.59-1.2.89-1.8.08-.17.16-.33.26-.49.48-.97.97-1.93,1.48-2.88.54-1.05,1.1-2.09,1.67-3.12.01-.03.03-.07.05-.1.53-.98,1.07-1.95,1.63-2.92.02-.04.04-.07.06-.11h82.38c-9.03,31.49-14.02,66.72-14.47,103.36ZM326.42,340.15l-108.96-.14c.46-36.81,5.59-72.09,14.87-103.37h94.09v103.51ZM326.42,125.12v101.52h-90.94c4.59-13.72,10.01-26.57,16.21-38.33,20.36-38.59,46.74-60.82,74.73-63.19v-.14c1.18-.02,2.37-.04,3.56-.05-1.19.03-2.37.09-3.56.19ZM443.35,155.39c29.83,17.6,55.23,42.12,73.89,71.25h-79.37c-4.97-15.44-10.96-29.87-17.88-43-12.9-24.44-28.25-42.83-45.08-54.4,24.07,4.81,47.24,13.63,68.44,26.15ZM332.93,124.93c1.16.01,2.33.02,3.49.05v.14c27.99,2.37,54.37,24.6,74.73,63.19,6.2,11.76,11.62,24.61,16.21,38.33h-90.94v-101.52c-1.16-.1-2.33-.16-3.49-.19ZM336.42,340.17v-103.53h94.09c9.31,31.36,14.45,66.75,14.88,103.67l-108.97-.14Z"/>
          </g>
          <path class="cls-3" d="M553.54,350.46h-1.63s-3.74-.01-3.74-.01c-1.26-3.26-2.28-6.61-3.06-10.01h2.57s4.23,0,4.23,0c0,.44.02.89.03,1.34.02,1.22.03,2.45.03,3.67,0,.27,0,.53-.01.8h0c.48,1.43,1.01,2.83,1.58,4.2Z"/>
        </g>
      </g>
      <g id="Personen">
        <g>
          <path class="cls-1" d="M551.59,358.16h0c0,.18-.01.34-.02.51-.02.33-.04.67-.06,1-.03.56-.07,1.13-.12,1.7-.05.74-.1,1.49-.17,2.23-.08,1.07-.18,2.13-.29,3.19,0,.1-.01.19-.03.28l-103.31,59.65-2.93,1.69c-.78-1.51-1.61-2.99-2.49-4.45-.85-1.4-1.74-2.78-2.67-4.13l10.45-6.03,100.47-58c.38.79.76,1.58,1.17,2.36Z"/>
          <path class="cls-1" d="M559.59,362.05s-.04.03-.06.04l-2.1,1.21-2.17,1.25-4.35,2.52h-.01c.02-.09.03-.18.03-.28.11-1.06.21-2.12.29-3.19.07-.74.12-1.49.17-2.23.05-.57.09-1.14.12-1.7.02-.33.04-.67.06-1,.01-.17.02-.33.02-.5h0c-.41-.79-.79-1.58-1.17-2.37l1.34-.77.84-.49,1.93-1.11c.08-.05.17-.09.25-.13.7,1.52,1.45,3,2.25,4.46.8,1.46,1.65,2.89,2.56,4.29Z"/>
          <path class="cls-1" d="M560.16,566.74c-.92,1.39-1.8,2.81-2.62,4.26-.82,1.45-1.6,2.92-2.32,4.43-.06-.03-.12-.07-.18-.1l-1.99-1.15-2.17-1.25-78.29-45.21-9.38-5.41-23.71-13.69c.93-1.34,1.82-2.72,2.67-4.12.88-1.46,1.71-2.94,2.49-4.45l27.02,15.6,9.21,5.32,74.93,43.27,2.17,1.25,2.05,1.18s.08.05.12.07Z"/>
        </g>
        <g id="Person_mitte" data-name="Person mitte">
          <g>
            <g>
              <path class="cls-4" d="M355.1,534.43c-1.24-.35-2.46-.74-3.67-1.16,1.21.41,2.43.8,3.67,1.16Z"/>
              <path class="cls-4" d="M384.43,536.7c-2.98.38-6.03.57-9.12.57s-6.12-.19-9.11-.57c2.98.37,6.02.56,9.11.56s6.14-.19,9.12-.56Z"/>
              <path class="cls-4" d="M390.33,535.72c-.59.12-1.19.24-1.79.35-.43.08-.86.16-1.3.22.44-.07.87-.15,1.31-.23.6-.11,1.19-.22,1.78-.34Z"/>
            </g>
            <g>
              <path class="cls-1" d="M388.55,536.06c-.44.08-.87.16-1.31.23.44-.06.87-.14,1.3-.22.6-.11,1.2-.23,1.79-.35-.59.12-1.18.23-1.78.34ZM453.32,461.89c.02.59.03,1.18.03,1.78,0,.18,0,.37,0,.55v-.55c0-.59-.02-1.19-.04-1.78ZM452.65,453.67c-.05-.33-.1-.67-.15-1.01.05.34.1.68.14,1.01.06.41.11.81.16,1.22-.05-.41-.1-.81-.15-1.22ZM445.71,430.51c.26.54.51,1.09.75,1.64h.01c-.25-.56-.5-1.1-.76-1.64ZM438.9,419c-.07.44-.15.88-.23,1.32l.83-.49c-.19-.28-.39-.56-.6-.83ZM375.31,537.26c-3.09,0-6.13-.19-9.11-.56,2.99.38,6.03.57,9.11.57s6.14-.19,9.12-.57c-2.98.37-6.03.56-9.12.56ZM351.43,533.27c1.21.42,2.43.81,3.67,1.16-1.24-.36-2.46-.75-3.67-1.16Z"/>
              <path class="cls-1" d="M453.35,463.67c0-.6-.01-1.19-.03-1.78,0-.11,0-.22-.01-.34-.02-.65-.05-1.3-.09-1.94,0-.05,0-.11-.01-.17-.03-.63-.08-1.25-.13-1.87-.08-.89-.17-1.79-.28-2.68-.05-.41-.1-.81-.16-1.22-.04-.33-.09-.67-.14-1.01-.01-.11-.03-.22-.05-.35-.1-.62-.2-1.24-.31-1.86-.04-.24-.09-.49-.14-.74-.1-.57-.22-1.13-.34-1.7-.15-.71-.31-1.42-.48-2.13-.03-.13-.06-.27-.1-.41-.15-.61-.31-1.23-.48-1.83-.03-.12-.06-.23-.09-.35-.19-.67-.38-1.34-.59-2.01-.23-.74-.46-1.47-.71-2.2-.24-.69-.48-1.37-.73-2.05-.04-.12-.09-.24-.13-.35-.25-.65-.5-1.3-.77-1.95-.29-.71-.59-1.42-.91-2.13-.06-.15-.13-.3-.2-.45h-.01c-.24-.55-.49-1.1-.75-1.64-.01,0-.01-.03-.02-.04-.31-.63-.62-1.26-.94-1.89-.03-.06-.06-.11-.09-.17-.78-1.51-1.61-2.99-2.49-4.45-.85-1.4-1.74-2.78-2.67-4.13l-.83.49c.08-.44.16-.88.23-1.32-6.49-9.12-14.91-16.8-24.63-22.41-11.8-6.81-25.27-10.4-38.96-10.4s-27.44,3.79-38.89,10.4c-3.52,2.03-6.86,4.32-10,6.86-15.18,12.22-25.7,30-28.43,50.22-.45,3.27-.69,6.61-.71,10-.01.18-.01.37-.01.55,0,12.47,2.85,24.39,8.48,35.42,4.99,9.77,12.1,18.51,20.67,25.41.66.53,1.32,1.05,2,1.56,2.58,1.94,5.25,3.7,8,5.29,11.78,6.8,25.05,10.36,38.89,10.36,2.61,0,5.2-.13,7.76-.37,5.68-.56,11.24-1.73,16.6-3.49,8.04-2.63,15.63-6.59,22.55-11.8,6.73-5.06,12.52-11.1,17.28-17.98.93-1.34,1.82-2.72,2.67-4.12.88-1.46,1.71-2.94,2.49-4.45.03-.06.06-.12.09-.18.29-.55.56-1.1.83-1.66.39-.8.77-1.61,1.12-2.43.31-.68.6-1.37.88-2.06.25-.61.49-1.23.73-1.85.6-1.59,1.15-3.2,1.64-4.82.2-.63.38-1.27.56-1.9.05-.2.11-.39.16-.59.14-.51.27-1.03.4-1.55.04-.15.08-.3.11-.45.17-.71.33-1.42.48-2.13.12-.57.24-1.13.34-1.7.05-.25.1-.5.14-.74.11-.62.21-1.24.31-1.86.02-.12.04-.24.05-.35.11-.74.21-1.49.3-2.23.11-.89.2-1.79.28-2.68.05-.62.1-1.24.13-1.87.01-.06.01-.12.01-.17.04-.64.07-1.29.09-1.94.01-.12.01-.23.01-.34.03-.77.04-1.55.04-2.33,0-.18,0-.37,0-.55ZM448.36,464.22c0,13.79-3.83,26.69-10.47,37.69-.86,1.43-1.78,2.84-2.73,4.2-4.42,6.3-9.81,11.87-15.95,16.5-.49.37-.98.73-1.48,1.08-.6.43-1.2.85-1.81,1.26-.47.32-.95.63-1.43.93-.06.04-.12.08-.18.11-.52.34-1.05.66-1.58.97-.4.25-.81.49-1.22.72-.24.14-.49.28-.73.41-.66.37-1.33.73-2,1.07-.43.22-.86.44-1.29.66-.07.03-.13.06-.2.1-.55.26-1.11.52-1.67.78-.03.01-.05.03-.07.03-.54.25-1.09.49-1.64.72-.46.2-.92.39-1.38.57-.65.27-1.31.52-1.97.76-.56.21-1.13.41-1.7.6-.57.2-1.15.39-1.74.57-.5.16-1.01.31-1.51.46-.67.19-1.35.38-2.03.55-.6.15-1.2.3-1.8.44-.48.11-.96.22-1.45.32-.59.12-1.19.24-1.79.35-.43.08-.86.16-1.3.22-.93.16-1.87.3-2.81.41-2.98.38-6.03.57-9.12.57s-6.12-.19-9.11-.57c-1.31-.16-2.61-.36-3.9-.59l-.93-.18c-1.27-.24-2.53-.52-3.78-.83-.42-.11-.83-.22-1.25-.33-.42-.1-.83-.22-1.24-.34-1.24-.35-2.46-.74-3.67-1.16-.4-.14-.81-.28-1.21-.43-.4-.14-.8-.29-1.19-.45-.91-.34-1.81-.71-2.69-1.1-.78-.33-1.55-.68-2.31-1.05-.33-.16-.66-.32-.98-.47-.65-.32-1.29-.65-1.93-.99-1.6-.85-3.17-1.76-4.7-2.73-.43-.27-.86-.54-1.28-.82-.24-.16-.48-.32-.72-.48-1.02-.69-2.02-1.4-3-2.14-1.73-1.3-3.4-2.68-5-4.13-14.83-13.36-24.15-32.72-24.15-54.26,0-.18,0-.37.01-.55.02-3.39.27-6.73.75-10,2.5-17.26,11.03-32.56,23.39-43.7,3.1-2.8,6.45-5.34,10-7.57,11.26-7.1,24.6-11.21,38.89-11.21,24.77,0,46.65,12.32,59.84,31.16.85,1.19,1.65,2.41,2.4,3.65.12.18.23.36.34.54,2.69,4.45,4.91,9.21,6.6,14.21,1.42,4.15,2.47,8.47,3.11,12.92.48,3.27.73,6.6.76,10v.55Z"/>
              <path class="cls-4" d="M448.36,463.67v.55c0,13.79-3.83,26.69-10.47,37.69-.86,1.43-1.78,2.84-2.73,4.2-4.42,6.3-9.81,11.87-15.95,16.5v-31.03c0-1.63-.16-3.24-.46-4.81-1.86-9.69-9.27-18.02-19.72-23.1-3.9-1.9-8.22-3.35-12.84-4.24,2.37-1.49,4.49-3.44,6.28-5.76,3.71-4.81,5.97-11.19,5.97-18.18,0-12.19-6.85-22.5-16.29-25.92-.77-.28-1.55-.51-2.36-.69-1.45-.34-2.95-.51-4.48-.51-12.77,0-23.13,12.14-23.13,27.12,0,6.99,2.26,13.37,5.98,18.18.63.82,1.31,1.6,2.02,2.32.23.24.47.47.72.7.3.28.61.55.92.82.27.23.54.45.82.66.29.23.59.45.89.65.15.1.3.21.45.31.15.1.31.2.46.3-.58.11-1.15.23-1.72.36-.54.12-1.07.25-1.6.39-.1.02-.21.05-.31.08-.4.1-.8.21-1.2.33-.19.05-.37.11-.56.17-.41.12-.81.24-1.21.38-.05.01-.1.03-.15.05-.39.13-.78.26-1.16.4-.6.21-1.18.43-1.76.67-.57.23-1.14.47-1.7.72-.5.22-.99.45-1.48.69-6.39,3.1-11.64,7.42-15.17,12.53-3.19,4.6-5,9.83-5,15.38v31.03c-1.73-1.3-3.4-2.68-5-4.13-14.83-13.36-24.15-32.72-24.15-54.26,0-.18,0-.37.01-.55.02-3.39.27-6.73.75-10,2.5-17.26,11.03-32.56,23.39-43.7,3.1-2.8,6.45-5.34,10-7.57,11.26-7.1,24.6-11.21,38.89-11.21,24.77,0,46.65,12.32,59.84,31.16.85,1.19,1.65,2.41,2.4,3.65.12.18.23.36.34.54,2.69,4.45,4.91,9.21,6.6,14.21,1.42,4.15,2.47,8.47,3.11,12.92.48,3.27.73,6.6.76,10Z"/>
            </g>
          </g>
          <g>
            <path class="cls-2" d="M419.21,491.58v31.03c-.49.37-.98.73-1.48,1.08-.6.43-1.2.85-1.81,1.26-.47.32-.95.63-1.43.93-.06.04-.12.08-.18.11-.52.34-1.05.66-1.58.97-.4.25-.81.49-1.22.72-.24.14-.49.28-.73.41-.66.37-1.33.73-2,1.07-.43.22-.86.44-1.29.66-.07.03-.13.06-.2.1-.55.26-1.11.52-1.67.78-.03.01-.05.03-.07.03-.54.25-1.09.49-1.64.72-.46.2-.92.39-1.38.57-.65.27-1.31.52-1.97.76-.56.21-1.13.41-1.7.6-.57.2-1.15.39-1.74.57-.5.16-1.01.31-1.51.46-.67.19-1.35.38-2.03.55-.6.15-1.2.3-1.8.44-.48.11-.96.22-1.45.32-.59.12-1.18.23-1.78.34-.44.08-.87.16-1.31.23-.93.16-1.87.3-2.81.41-2.98.37-6.03.56-9.12.56s-6.13-.19-9.11-.56c-1.31-.16-2.61-.36-3.9-.59l-.93-.18c-1.27-.24-2.53-.52-3.78-.83-.42-.11-.83-.22-1.25-.33-.41-.11-.83-.22-1.24-.34-1.24-.36-2.46-.75-3.67-1.16-.4-.14-.81-.28-1.21-.43-.4-.14-.8-.29-1.19-.45-.9-.35-1.8-.72-2.69-1.1-.78-.33-1.55-.68-2.31-1.05-.33-.16-.66-.32-.98-.47-.65-.32-1.29-.65-1.93-.99-1.6-.85-3.17-1.76-4.7-2.73-.43-.27-.86-.54-1.28-.82-.24-.16-.48-.32-.72-.48-1.02-.69-2.02-1.4-3-2.14v-31.03c0-5.55,1.81-10.78,5-15.38,3.53-5.11,8.78-9.43,15.17-12.53.49-.24.98-.47,1.48-.69.56-.25,1.13-.49,1.7-.72.58-.24,1.16-.46,1.76-.67.38-.14.77-.27,1.16-.4.05-.02.1-.04.15-.05.4-.14.8-.26,1.21-.38.19-.06.37-.12.56-.17.4-.12.8-.23,1.2-.33.1-.03.21-.06.31-.08.53-.14,1.06-.27,1.6-.39.57-.13,1.14-.25,1.72-.36-.15-.1-.31-.2-.46-.3-.15-.1-.3-.21-.45-.31-.3-.2-.6-.42-.89-.65-.28-.21-.55-.43-.82-.66-.31-.27-.62-.54-.92-.82-.25-.23-.49-.46-.72-.7-.71-.72-1.39-1.5-2.02-2.32-3.72-4.81-5.98-11.19-5.98-18.18,0-14.98,10.36-27.12,23.13-27.12,1.53,0,3.03.17,4.48.51.81.18,1.59.41,2.36.69,9.44,3.42,16.29,13.73,16.29,25.92,0,6.99-2.26,13.37-5.97,18.18-1.79,2.32-3.91,4.27-6.28,5.76,4.62.89,8.94,2.34,12.84,4.24,10.45,5.08,17.86,13.41,19.72,23.1.3,1.57.46,3.18.46,4.81Z"/>
            <path class="cls-2" d="M355.1,534.43c-1.24-.35-2.46-.74-3.67-1.16,1.21.41,2.43.8,3.67,1.16Z"/>
            <path class="cls-2" d="M384.43,536.7c-2.98.38-6.03.57-9.12.57s-6.12-.19-9.11-.57c2.98.37,6.02.56,9.11.56s6.14-.19,9.12-.56Z"/>
            <path class="cls-2" d="M390.33,535.72c-.59.12-1.19.24-1.79.35-.43.08-.86.16-1.3.22.44-.07.87-.15,1.31-.23.6-.11,1.19-.22,1.78-.34Z"/>
          </g>
        </g>
        <g id="Person_oben" data-name="Person oben">
          <g>
            <path class="cls-4" d="M551.94,341.79c-.01-.45-.02-.9-.03-1.34,0-.18-.01-.36-.02-.54.01.18.01.36.01.54h-1.66c.49,1.97,1.06,3.91,1.72,5.81.01-.27.01-.53.01-.8,0-1.22-.01-2.45-.03-3.67ZM621.08,247.09c-28.79,0-53.87,16.19-66.61,39.94h0c-2.79,5.2-4.99,10.74-6.5,16.56h0c-1.59,6.09-2.43,12.47-2.43,19.04,0,6.02.73,12.01,2.14,17.82.82,3.41,1.88,6.75,3.16,10,.32.82.66,1.63,1.01,2.43.24.56.49,1.11.75,1.66.7,1.5,1.44,2.97,2.24,4.42.81,1.47,1.67,2.92,2.59,4.34,1.07,1.67,2.21,3.31,3.42,4.89h0c4.24,5.61,9.26,10.63,14.84,14.83,13.17,9.91,28.87,15.15,45.39,15.15s32.23-5.24,45.4-15.16c19.16-14.42,30.15-36.43,30.15-60.38,0-41.65-33.89-75.54-75.55-75.54ZM664.98,381.01c-1.15.86-2.32,1.69-3.51,2.49-1.2.79-2.42,1.55-3.67,2.28-1.24.73-2.51,1.42-3.8,2.07-.43.22-.86.43-1.3.64-1.3.63-2.63,1.22-3.98,1.77-.89.36-1.8.71-2.71,1.05-2.29.83-4.63,1.55-7.02,2.15-1.34.33-2.69.63-4.06.89-.19.04-.37.08-.55.11-1.81.33-3.64.6-5.5.8-2.56.27-5.16.41-7.79.41s-5.12-.13-7.63-.39c-.93-.1-1.86-.21-2.78-.35-.75-.1-1.49-.22-2.23-.35-.92-.16-1.83-.34-2.74-.53-.84-.18-1.68-.38-2.52-.59h-.01c-1.19-.3-2.37-.63-3.54-.99s-2.33-.75-3.47-1.16c-6.86-2.49-13.24-5.98-18.97-10.29h-.01c-6.17-4.64-11.57-10.23-16-16.56h0c-.55-.8-1.09-1.6-1.6-2.41-.91-1.4-1.76-2.83-2.56-4.29-.8-1.46-1.55-2.94-2.25-4.46-.44-.93-.85-1.88-1.24-2.84-.57-1.37-1.1-2.77-1.58-4.19h0c.01-.28.01-.54.01-.81,0-1.22-.01-2.45-.03-3.67-.01-.45-.02-.9-.03-1.34,0-.18-.01-.36-.02-.54.01.18.01.36.01.54h-1.66c-1.44-5.7-2.2-11.67-2.2-17.82,0-4.28.37-8.47,1.08-12.55v-.02c1.18-6.83,3.32-13.33,6.26-19.37,11.85-24.33,36.82-41.1,65.7-41.1,40.34,0,73.05,32.7,73.05,73.04,0,23.86-11.45,45.06-29.15,58.38ZM551.94,341.79c-.01-.45-.02-.9-.03-1.34,0-.18-.01-.36-.02-.54.01.18.01.36.01.54h-1.66c.49,1.97,1.06,3.91,1.72,5.81.01-.27.01-.53.01-.8,0-1.22-.01-2.45-.03-3.67Z"/>
            <g>
              <path class="cls-1" d="M621.08,244.59c-28.81,0-54.03,15.7-67.55,38.98-2.7,4.66-4.93,9.61-6.63,14.81,0,0-.01,0,0,.02-2.51,7.63-3.86,15.78-3.86,24.23,0,6.02.7,11.99,2.07,17.81.78,3.4,1.8,6.75,3.06,10.01.68,1.81,1.43,3.59,2.25,5.35.38.79.76,1.58,1.17,2.36h0s.01.01.01.01h0c.34.68.69,1.34,1.05,2,.82,1.49,1.69,2.95,2.61,4.38,1.59,2.5,3.33,4.91,5.21,7.21,4.01,4.96,8.64,9.43,13.72,13.25,13.61,10.25,29.82,15.66,46.89,15.66s33.3-5.42,46.91-15.67c9.45-7.11,17.29-16.44,22.65-26.96,5.63-11.03,8.49-22.95,8.49-35.41,0-43.03-35.01-78.04-78.05-78.04ZM661.47,383.5c-1.2.8-2.42,1.56-3.67,2.28-1.24.73-2.51,1.42-3.8,2.07-.43.22-.86.43-1.3.64-1.3.63-2.63,1.22-3.98,1.77-.89.36-1.8.71-2.71,1.05-2.29.83-4.63,1.55-7.02,2.15-1.34.34-2.69.64-4.06.89-.19.04-.37.08-.55.11-1.81.33-3.64.6-5.5.8-2.56.27-5.16.41-7.79.41s-5.12-.13-7.63-.39c-.93-.1-1.86-.21-2.78-.35-.75-.1-1.49-.22-2.23-.35-.92-.16-1.83-.34-2.74-.53-.84-.18-1.68-.38-2.52-.59h-.01c-1.19-.3-2.37-.63-3.54-.99s-2.33-.75-3.47-1.16c-6.86-2.49-13.24-5.98-18.97-10.29h-.01c-6.17-4.64-11.57-10.23-16-16.56h0c-.55-.8-1.09-1.6-1.6-2.41-.91-1.4-1.76-2.83-2.56-4.29-.8-1.46-1.55-2.94-2.25-4.46-.44-.93-.85-1.88-1.24-2.84-.57-1.37-1.1-2.77-1.58-4.19h0c-.66-1.91-1.23-3.85-1.72-5.82-1.44-5.7-2.2-11.67-2.2-17.82,0-4.28.37-8.47,1.08-12.55v-.02c1.18-6.83,3.32-13.33,6.26-19.37,11.85-24.33,36.82-41.1,65.7-41.1,40.34,0,73.05,32.7,73.05,73.04,0,23.86-11.45,45.06-29.15,58.38-1.15.86-2.32,1.69-3.51,2.49Z"/>
              <path class="cls-4" d="M694.13,322.63c0,23.86-11.45,45.06-29.15,58.38v-31.02c0-15.49-14.03-28.5-33.02-32.16,7.29-4.57,12.26-13.57,12.26-23.94,0-12.19-6.86-22.49-16.29-25.92-.77-.27-1.56-.51-2.36-.69-1.45-.34-2.95-.51-4.48-.51-12.78,0-23.13,12.14-23.13,27.12,0,10.37,4.96,19.38,12.25,23.94-18.98,3.65-33.01,16.67-33.01,32.16v31.03h-.01c-6.17-4.64-11.57-10.23-16-16.56h0c-.55-.8-1.09-1.6-1.6-2.41-.91-1.4-1.76-2.83-2.56-4.29-.8-1.46-1.55-2.94-2.25-4.46-.44-.93-.85-1.88-1.24-2.84-.57-1.37-1.1-2.77-1.58-4.19h0c.01-.28.01-.54.01-.81,0-1.22-.01-2.45-.03-3.67-.01-.45-.02-.9-.03-1.34,0-.18-.01-.36-.02-.54.01.18.01.36.01.54h-1.66c-1.44-5.7-2.2-11.67-2.2-17.82,0-4.28.37-8.47,1.08-12.55v-.02c1.18-6.83,3.32-13.33,6.26-19.37,11.85-24.33,36.82-41.1,65.7-41.1,40.34,0,73.05,32.7,73.05,73.04Z"/>
            </g>
          </g>
          <path class="cls-2" d="M664.98,349.99v31.02c-1.15.86-2.32,1.69-3.51,2.49-1.2.79-2.42,1.55-3.67,2.28-1.24.73-2.51,1.42-3.8,2.07-.43.22-.86.43-1.3.64-1.3.63-2.63,1.22-3.98,1.77-.89.36-1.8.71-2.71,1.05-2.29.83-4.63,1.55-7.02,2.15-1.34.33-2.69.63-4.06.89-.19.04-.37.08-.55.11-1.81.33-3.64.6-5.5.8-2.56.27-5.16.41-7.79.41s-5.12-.13-7.63-.39c-.93-.1-1.86-.21-2.78-.35-.75-.1-1.49-.22-2.23-.35-.92-.16-1.83-.34-2.74-.53-.84-.18-1.68-.38-2.52-.59h-.01c-1.19-.3-2.37-.64-3.54-.99-1.17-.36-2.33-.75-3.47-1.16-6.86-2.49-13.24-5.98-18.97-10.29v-31.03c0-15.49,14.03-28.51,33.01-32.16-7.29-4.56-12.25-13.57-12.25-23.94,0-14.98,10.35-27.12,23.13-27.12,1.53,0,3.03.17,4.48.51.8.18,1.59.42,2.36.69,9.43,3.43,16.29,13.73,16.29,25.92,0,10.37-4.97,19.37-12.26,23.94,18.99,3.66,33.02,16.67,33.02,32.16Z"/>
        </g>
        <g id="Person_unten" data-name="Person unten">
          <g>
            <path class="cls-4" d="M621.08,531.5c-25.45,0-49.18,12.9-63.09,33.99-.92,1.39-1.79,2.82-2.62,4.28-.82,1.44-1.6,2.91-2.32,4.41-4.92,10.19-7.51,21.44-7.51,32.86,0,23.95,10.99,45.96,30.15,60.39,13.17,9.91,28.87,15.15,45.39,15.15s32.23-5.24,45.4-15.16c19.16-14.42,30.15-36.43,30.15-60.38,0-41.66-33.89-75.54-75.55-75.54ZM664.98,665.42c-3.05,2.3-6.3,4.36-9.7,6.17-1.27.68-2.57,1.32-3.89,1.92-.44.2-.88.4-1.33.59-.88.38-1.78.75-2.69,1.1-.9.35-1.82.68-2.74,1-7.39,2.52-15.31,3.88-23.55,3.88s-16.15-1.36-23.53-3.88c-.92-.32-1.84-.65-2.75-1-.91-.35-1.8-.71-2.69-1.1-1.34-.58-2.65-1.19-3.94-1.84-1.93-.98-3.82-2.04-5.65-3.18-1.83-1.14-3.61-2.36-5.33-3.65-17.7-13.33-29.15-34.52-29.15-58.4,0-11.32,2.58-22.04,7.18-31.6.72-1.51,1.5-2.98,2.32-4.43.82-1.45,1.7-2.87,2.62-4.26,13.07-19.73,35.47-32.74,60.92-32.74,40.34,0,73.05,32.7,73.05,73.03,0,23.87-11.45,45.07-29.15,58.39Z"/>
            <g>
              <path class="cls-1" d="M621.08,529c-26.34,0-50.91,13.38-65.26,35.24-.92,1.39-1.8,2.83-2.63,4.29-.82,1.44-1.59,2.91-2.31,4.4-5.14,10.57-7.84,22.26-7.84,34.1,0,12.48,2.85,24.39,8.48,35.43,5.37,10.51,13.21,19.84,22.67,26.96,13.61,10.24,29.82,15.66,46.89,15.66s33.3-5.42,46.91-15.67c9.45-7.11,17.29-16.44,22.65-26.96,5.63-11.03,8.49-22.95,8.49-35.42,0-43.02-35.01-78.03-78.05-78.03ZM655.28,671.59c-1.27.68-2.57,1.32-3.89,1.92-.44.2-.88.4-1.33.59-.88.39-1.78.76-2.69,1.1-.9.35-1.82.69-2.74,1-7.39,2.52-15.31,3.88-23.55,3.88s-16.15-1.36-23.53-3.88c-.92-.32-1.84-.65-2.75-1-.91-.35-1.8-.71-2.69-1.1-1.34-.58-2.65-1.19-3.94-1.84-1.93-.98-3.82-2.04-5.65-3.18-1.83-1.14-3.61-2.36-5.33-3.65-17.7-13.33-29.15-34.52-29.15-58.4,0-11.32,2.58-22.04,7.18-31.6.72-1.51,1.5-2.98,2.32-4.43.82-1.45,1.7-2.87,2.62-4.26,13.07-19.73,35.47-32.74,60.92-32.74,40.34,0,73.05,32.7,73.05,73.03,0,23.87-11.45,45.07-29.15,58.39-3.05,2.3-6.3,4.36-9.7,6.17Z"/>
              <path class="cls-4" d="M694.13,607.03c0,23.87-11.45,45.07-29.15,58.39v-31.03c0-15.48-14.04-28.49-33.02-32.15,7.29-4.57,12.25-13.58,12.25-23.94,0-12.19-6.85-22.5-16.29-25.92-.76-.28-1.55-.51-2.35-.69-1.45-.34-2.95-.51-4.49-.51-12.77,0-23.12,12.14-23.12,27.12,0,10.36,4.96,19.37,12.25,23.94-18.99,3.65-33.02,16.67-33.02,32.15v31.03c1.72,1.3,3.5,2.52,5.33,3.66-1.83-1.14-3.61-2.36-5.33-3.65-17.7-13.33-29.15-34.52-29.15-58.4,0-11.32,2.58-22.04,7.18-31.6.72-1.51,1.5-2.98,2.32-4.43.82-1.45,1.7-2.87,2.62-4.26,13.07-19.73,35.47-32.74,60.92-32.74,40.34,0,73.05,32.7,73.05,73.03Z"/>
            </g>
          </g>
          <path class="cls-2" d="M664.98,634.39v31.03c-3.05,2.3-6.3,4.36-9.7,6.17-1.27.68-2.57,1.32-3.89,1.92-.44.2-.88.4-1.33.59-.88.38-1.78.75-2.69,1.1-.9.35-1.82.68-2.74,1-7.39,2.52-15.31,3.88-23.55,3.88s-16.15-1.36-23.53-3.88c-.92-.32-1.84-.65-2.75-1-.91-.35-1.8-.71-2.69-1.1-1.34-.58-2.65-1.19-3.94-1.84-1.93-.98-3.82-2.04-5.65-3.18-1.83-1.14-3.61-2.36-5.33-3.66v-31.03c0-15.48,14.03-28.5,33.02-32.15-7.29-4.57-12.25-13.58-12.25-23.94,0-14.98,10.35-27.12,23.12-27.12,1.54,0,3.04.17,4.49.51.8.18,1.59.41,2.35.69,9.44,3.42,16.29,13.73,16.29,25.92,0,10.36-4.96,19.37-12.25,23.94,18.98,3.66,33.02,16.67,33.02,32.15Z"/>
        </g>
      </g>
    </g>
  </g>
</svg>