<?xml version="1.0" encoding="UTF-8"?>
<svg id="Musthave" xmlns="http://www.w3.org/2000/svg" viewBox="0 0 800 800">
  <defs>
    <style>
      .cls-1 {
        fill: #308fc9;
      }

      .cls-1, .cls-2, .cls-3, .cls-4, .cls-5, .cls-6 {
        stroke-width: 0px;
      }

      .cls-2 {
        fill: #206289;
      }

      .cls-3 {
        fill: #dddddc;
      }

      .cls-4 {
        fill: #64abd6;
      }

      .cls-5 {
        fill: #73bbe7;
      }

      .cls-6 {
        fill: #b9ddf3;
      }
    </style>
  </defs>
  <g id="_0010_THK_DMP_Dokumentation" data-name="0010_THK_DMP_Dokumentation">
    <g>
      <g id="Klemmbrett">
        <polygon class="cls-6" points="602.97 120.54 602.97 696.31 197.03 696.31 197.03 120.54 282.5 120.54 282.5 145.18 519.53 145.18 519.53 120.54 602.97 120.54"/>
        <rect class="cls-1" x="282.5" y="102.56" width="237.03" height="42.62"/>
      </g>
      <g id="Textlinien">
        <g>
          <rect class="cls-2" x="240.92" y="209.84" width="318.91" height="5"/>
          <rect class="cls-2" x="240.92" y="242.57" width="318.91" height="5"/>
        </g>
        <g>
          <rect class="cls-2" x="314.44" y="277.02" width="245.38" height="5"/>
          <rect class="cls-2" x="314.44" y="309.75" width="245.38" height="5"/>
        </g>
      </g>
      <g id="Häkchen_box" data-name="Häkchen box">
        <rect class="cls-1" x="240.58" y="271.77" width="44.56" height="43.03"/>
        <polygon class="cls-3" points="282.31 282.57 260.87 304.01 256.86 308.02 243.41 294.56 247.41 290.56 256.86 300 278.3 278.56 282.31 282.57"/>
      </g>
      <g id="Pfeil_Kreis" data-name="Pfeil Kreis">
        <path class="cls-3" d="M424.32,628.93l31.34,4.83h0l36.83,5.68-11.57-20.04c34.99-25.1,57.79-66.13,57.79-112.48,0-14.25-2.16-28-6.16-40.94l-4.35,28.22-11.13-4.33-23.51-9.14c2.34,8.33,3.59,17.11,3.59,26.18,0,30.96-14.53,58.52-37.15,76.24l-10.7-18.52-12.41,31.94h0l-9.8,25.23-2.77,7.13Z"/>
        <path class="cls-5" d="M263.36,591.18l19.48-11.25c24.42,39.22,67.93,65.32,117.53,65.32,19.66,0,38.36-4.1,55.29-11.5l-31.34-4.83,2.77-7.13,9.8-25.23c-11.27,4.6-23.6,7.13-36.52,7.13-34.22,0-64.29-17.76-81.5-44.56l19.3-11.14-30.03-11.67-23.99-9.32-10.28-4-4.42,28.71-6.08,39.47Z"/>
        <path class="cls-2" d="M262.02,506.91c0,15.68,2.61,30.75,7.42,44.8l4.42-28.71,10.28,4,23.99,9.32c-2.96-9.28-4.55-19.16-4.55-29.41,0-33.12,16.64-62.35,42.01-79.8l11.15,19.31,12.06-31.03,9.46-24.34,3.47-8.93-30.26-4.66-37.92-5.84,11.21,19.42c-37.78,24.7-62.74,67.37-62.74,115.88Z"/>
        <path class="cls-4" d="M378.26,391.06l-9.46,24.34c9.89-3.41,20.52-5.27,31.57-5.27,35.5,0,66.54,19.11,83.38,47.62l-19.84,11.45,29.66,11.53,23.51,9.14,11.13,4.33,4.35-28.22h0s6.16-39.96,6.16-39.96l-18.97,10.95c-24.03-40.92-68.5-68.39-119.38-68.39-17.22,0-33.7,3.15-48.9,8.89l30.26,4.66-3.47,8.93Z"/>
      </g>
    </g>
  </g>
</svg>