<?xml version="1.0" encoding="UTF-8"?>
<svg id="Nachbau" xmlns="http://www.w3.org/2000/svg" viewBox="0 0 800 800">
  <defs>
    <style>
      .cls-1 {
        fill: #308fc9;
      }

      .cls-1, .cls-2 {
        stroke-width: 0px;
      }

      .cls-2 {
        fill: #73bbe7;
      }
    </style>
  </defs>
  <g id="_0011_THK_Speicher_Cloud" data-name="0011_THK_Speicher_Cloud">
    <g id="Wolke">
      <g id="große_Wolke" data-name="große Wolke">
        <path class="cls-2" d="M682.16,445.41v101.35H117.84v-78.69c0-18.56,8.5-39.24,21.22-56.88,15.24-21.16,36.54-37.95,56.54-41.53-2.01-8.45-3.06-17.27-3.06-26.33,0-62.99,51.07-114.05,114.07-114.05,39.75,0,74.75,20.32,95.15,51.16,14.29-12.02,32.76-19.28,52.89-19.28,40.3,0,73.81,29.01,80.83,67.29,7.86-6.36,15.89-9.83,26.08-10.56,42.42-2.93,95.27,44.18,113.8,93.3,4.34,11.5,6.8,23.12,6.8,34.22Z"/>
      </g>
      <g id="kleine_Wolke" data-name="kleine Wolke">
        <path class="cls-1" d="M244.79,505.06v65.66h365.59v-50.98c0-12.02-5.51-25.42-13.75-36.85-9.87-13.71-23.67-24.59-36.63-26.9,1.3-5.47,1.98-11.19,1.98-17.06,0-40.81-33.09-73.89-73.9-73.89-25.75,0-48.43,13.16-61.64,33.14-9.26-7.79-21.22-12.49-34.26-12.49-26.11,0-47.82,18.79-52.37,43.59-5.09-4.12-10.29-6.37-16.9-6.84-27.48-1.9-61.72,28.62-73.72,60.44-2.81,7.45-4.41,14.98-4.41,22.17Z"/>
      </g>
    </g>
  </g>
</svg>