<?xml version="1.0" encoding="UTF-8"?>
<svg id="Nachbau" xmlns="http://www.w3.org/2000/svg" viewBox="0 0 800 800">
  <defs>
    <style>
      .cls-1 {
        fill: #308fc9;
      }

      .cls-1, .cls-2, .cls-3, .cls-4, .cls-5, .cls-6 {
        stroke-width: 0px;
      }

      .cls-2 {
        fill: #206289;
      }

      .cls-3 {
        fill: #dddddc;
      }

      .cls-4 {
        fill: #64abd6;
      }

      .cls-5 {
        fill: #73bbe7;
      }

      .cls-6 {
        fill: #b9ddf3;
      }
    </style>
  </defs>
  <g id="_0013_THK_Speicher_Festplatte" data-name="0013_THK_Speicher_Festplatte">
    <g id="Festplatte">
      <g id="Form">
        <rect class="cls-1" x="191.38" y="100.29" width="417.24" height="564.73"/>
        <path class="cls-3" d="M474.06,465.45c20.47,24.09,40.94,48.18,61.4,72.27v53.47c-6.23,6.79-12.46,13.57-18.69,20.36h-233.54c-6.23-6.79-12.46-13.57-18.7-20.36v-53.47c20.61-24.02,41.21-48.04,61.82-72.06-55.07-27.19-92.94-83.9-92.94-149.46,0-92.01,74.58-166.59,166.59-166.59s166.58,74.58,166.58,166.59c0,65.39-37.68,121.99-92.52,149.25Z"/>
        <circle class="cls-6" cx="566.59" cy="625.41" r="13.85"/>
        <circle class="cls-6" cx="566.59" cy="143.93" r="13.85"/>
        <circle class="cls-6" cx="234.41" cy="143.93" r="13.85"/>
        <circle class="cls-6" cx="233.41" cy="625.41" r="13.85"/>
      </g>
      <g id="CD">
        <path class="cls-5" d="M541.3,302.26l-98.86,7.77c-3.2-22.19-23.14-38.38-45.81-36.6-11.87.94-22.23,6.62-29.36,15.05-2.61,3.07-4.78,6.51-6.44,10.23l-93.43-33.4c5.8-15.07,14.11-28.96,24.45-41.11,23.6-27.76,57.82-46.47,97.02-49.56,77.24-6.07,144.9,50.86,152.43,127.62Z"/>
        <path class="cls-5" d="M532.66,366.91c-5.83,15.22-14.22,29.24-24.68,41.49-23.6,27.64-57.76,46.28-96.86,49.35-76.98,6.05-144.45-50.48-152.35-126.88l98.9-7.77c3.53,21.81,23.27,37.62,45.68,35.86,11.78-.92,22.07-6.53,29.2-14.84,2.73-3.18,4.99-6.75,6.7-10.61l93.41,33.4Z"/>
        <path class="cls-4" d="M358.59,304.97l-97.38-18.94c1.08-5,2.43-9.92,4.04-14.72.68-2.02,1.39-4.02,2.15-6l93.42,33.4c-.86,1.93-1.59,3.94-2.16,6-.02.09-.05.17-.07.26Z"/>
        <path class="cls-4" d="M442.75,312.84c-.07-.95-.18-1.88-.31-2.81-3.2-22.19-23.14-38.38-45.81-36.6-11.87.94-22.23,6.62-29.36,15.05-2.61,3.07-4.78,6.51-6.44,10.23-.87,1.93-1.59,3.94-2.17,6l1.71.61-1.78-.35c-.55,2.04-.95,4.13-1.2,6.26-.21,1.81-.3,3.65-.28,5.51.02.93.06,1.87.13,2.82.1,1.19.24,2.38.43,3.54,3.53,21.81,23.27,37.62,45.68,35.86,11.78-.92,22.07-6.53,29.2-14.84,2.73-3.18,4.99-6.75,6.7-10.61.84-1.91,1.55-3.9,2.11-5.94.01-.02.01-.05.02-.07.55-2.01.96-4.08,1.21-6.19.19-1.61.29-3.25.29-4.91,0-1.17-.03-2.37-.13-3.56ZM433.62,319.57c-.16,1.65-.44,3.28-.84,4.86-.12.47-.25.93-.39,1.39-.46,1.6-1.05,3.14-1.75,4.62-1.31,2.82-3,5.43-5.01,7.78-5.62,6.53-13.72,10.94-22.99,11.67-17.4,1.37-32.76-10.71-35.86-27.5-.22-1.16-.37-2.34-.47-3.54-.07-.95-.11-1.89-.1-2.82,0-1.03.05-2.05.15-3.05.16-1.77.47-3.51.9-5.2.09-.35.19-.72.3-1.07.49-1.7,1.12-3.35,1.87-4.93,1.26-2.67,2.87-5.16,4.77-7.4,5.62-6.65,13.79-11.14,23.15-11.87,17.66-1.39,33.21,11.06,36,28.24.15.92.26,1.85.33,2.8.1,1.2.13,2.39.1,3.57-.02.82-.08,1.64-.16,2.45Z"/>
        <path class="cls-6" d="M357.67,323.1l-98.9,7.77c-.13-1.18-.23-2.36-.33-3.55-.07-.94-.14-1.88-.19-2.81-.66-11-.03-21.79,1.75-32.22.35-2.1.76-4.19,1.21-6.26l97.38,18.94c-.55,2.04-.95,4.13-1.2,6.26-.21,1.81-.31,3.64-.28,5.51.01.93.06,1.87.13,2.82.09,1.2.24,2.38.43,3.54Z"/>
        <path class="cls-4" d="M532.66,366.91l-93.41-33.4c.84-1.92,1.55-3.9,2.12-5.94l.44.08,96.95,18.86c-1.06,4.89-2.39,9.69-3.95,14.39-.67,2.02-1.39,4.02-2.15,6.01Z"/>
        <path class="cls-6" d="M538.76,346.52l-96.95-18.86-.42-.15c.55-2.01.95-4.08,1.2-6.19.19-1.61.3-3.25.3-4.91,0-1.18-.04-2.37-.13-3.57-.07-.95-.18-1.88-.31-2.8l98.86-7.77c.09.93.18,1.87.25,2.81.09,1.19.17,2.37.23,3.56.59,10.79-.06,21.38-1.82,31.62-.35,2.1-.76,4.19-1.21,6.26Z"/>
      </g>
      <g id="Zeiger">
        <path class="cls-2" d="M414.62,395.22h0c2.5,1.46,3.5,4.57,2.33,7.22-24.87,56.06-49.74,112.13-74.62,168.19-.25.56-.5,1.11-.78,1.65-.23.46-.48.91-.74,1.36-7.39,12.62-23.61,16.87-36.23,9.47-12.63-7.4-16.86-23.62-9.47-36.24.26-.45.54-.89.82-1.31.34-.51.7-1,1.06-1.49,36.73-49.12,73.46-98.23,110.19-147.35,1.74-2.32,4.94-2.97,7.44-1.5Z"/>
        <circle class="cls-6" cx="317.95" cy="560.26" r="13.85"/>
      </g>
    </g>
  </g>
</svg>