<?xml version="1.0" encoding="UTF-8"?>
<svg id="Musthave" xmlns="http://www.w3.org/2000/svg" viewBox="0 0 800 800">
  <defs>
    <style>
      .cls-1 {
        fill: #206289;
      }

      .cls-1, .cls-2 {
        stroke-width: 0px;
      }

      .cls-2 {
        fill: #73bbe7;
      }
    </style>
  </defs>
  <g id="_0014_THK_Open_Science" data-name="0014_THK_Open_Science">
    <g id="Open">
      <g>
        <path class="cls-2" d="M635.86,366.99c0,46.46-13.49,91.41-39.02,129.99-22.91,34.61-54.26,62.42-91.12,80.91l-48.89-135.23c10.39-7.81,19.14-17.75,25.57-29.08,8.01-14.14,12.24-30.25,12.24-46.59,0-52.19-42.45-94.66-94.64-94.66s-94.65,42.47-94.65,94.66c0,16.34,4.24,32.45,12.25,46.59,6.43,11.33,15.18,21.27,25.57,29.08l-48.89,135.23c-36.86-18.49-68.21-46.3-91.12-80.91-25.53-38.58-39.02-83.53-39.02-129.99,0-31.85,6.23-62.74,18.53-91.81,11.88-28.08,28.89-53.31,50.55-74.97,21.66-21.67,46.89-38.67,74.97-50.55,29.08-12.3,59.96-18.53,91.81-18.53s62.73,6.23,91.8,18.53c28.09,11.88,53.31,28.88,74.98,50.55,21.66,21.66,38.67,46.89,50.55,74.97,12.29,29.07,18.53,59.96,18.53,91.81Z"/>
        <path class="cls-1" d="M400,121.13c-135.78,0-245.86,110.07-245.86,245.86,0,100.15,59.89,186.32,145.81,224.64l55.25-152.83c-23.93-14.94-39.85-41.52-39.85-71.81,0-46.75,37.9-84.66,84.65-84.66s84.64,37.91,84.64,84.66c0,30.29-15.91,56.87-39.84,71.81l55.26,152.83c85.91-38.32,145.8-124.49,145.8-224.64,0-135.79-110.07-245.86-245.86-245.86ZM505.72,577.89l-48.89-135.23c10.39-7.81,19.14-17.75,25.57-29.08,8.01-14.14,12.24-30.25,12.24-46.59,0-52.19-42.45-94.66-94.64-94.66s-94.65,42.47-94.65,94.66c0,16.34,4.24,32.45,12.25,46.59,6.43,11.33,15.18,21.27,25.57,29.08l-48.89,135.23c-36.86-18.49-68.21-46.3-91.12-80.91-25.53-38.58-39.02-83.53-39.02-129.99,0-31.85,6.23-62.74,18.53-91.81,11.88-28.08,28.89-53.31,50.55-74.97,21.66-21.67,46.89-38.67,74.97-50.55,29.08-12.3,59.96-18.53,91.81-18.53s62.73,6.23,91.8,18.53c28.09,11.88,53.31,28.88,74.98,50.55,21.66,21.66,38.67,46.89,50.55,74.97,12.29,29.07,18.53,59.96,18.53,91.81,0,46.46-13.49,91.41-39.02,129.99-22.91,34.61-54.26,62.42-91.12,80.91Z"/>
      </g>
      <g>
        <path class="cls-1" d="M142.44,649.82c0-3.39.51-6.95,1.52-10.7,1.33-5.03,3.35-9.39,6.07-13.09,2.72-3.7,6.15-6.62,10.29-8.77s8.85-3.22,14.14-3.22c7.08,0,12.81,2.2,17.17,6.6,4.36,4.4,6.54,10.23,6.54,17.5,0,6.04-1.42,11.89-4.26,17.54-2.84,5.65-6.69,10-11.56,13.05-4.87,3.05-10.38,4.57-16.52,4.57-5.34,0-9.82-1.21-13.44-3.63-3.62-2.42-6.19-5.42-7.7-9-1.51-3.58-2.27-7.19-2.27-10.84ZM154.08,649.59c0,3.93,1.2,7.23,3.59,9.88,2.4,2.66,5.55,3.98,9.45,3.98,3.18,0,6.23-1.05,9.16-3.14,2.93-2.1,5.35-5.27,7.27-9.53s2.87-8.4,2.87-12.44c0-4.5-1.21-8.04-3.63-10.61-2.42-2.56-5.51-3.85-9.26-3.85-5.76,0-10.44,2.68-14.04,8.05-3.61,5.36-5.41,11.25-5.41,17.66Z"/>
        <path class="cls-1" d="M209.2,630.8h10.62l-.9,4.26c2.27-1.88,4.39-3.22,6.37-4.02,1.98-.81,4.1-1.21,6.37-1.21,4.35,0,7.84,1.5,10.49,4.49,2.64,3,3.96,7.46,3.96,13.4,0,7.47-2.28,13.79-6.84,18.95-3.91,4.4-8.53,6.6-13.87,6.6s-9.65-2.23-12.46-6.68l-4.49,21.52h-11.21l11.95-57.3ZM215.96,654.59c0,3.23.79,5.74,2.36,7.52,1.58,1.78,3.43,2.68,5.57,2.68,1.85,0,3.63-.67,5.35-2.01,1.72-1.34,3.14-3.57,4.28-6.68,1.13-3.11,1.7-6,1.7-8.65,0-3.1-.74-5.47-2.23-7.13-1.48-1.65-3.37-2.48-5.66-2.48-2.14,0-4.08.76-5.84,2.29s-3.12,3.76-4.08,6.72c-.96,2.96-1.45,5.54-1.45,7.75Z"/>
        <path class="cls-1" d="M290.14,655.02h-28.12c-.03.44-.04.78-.04,1.02,0,2.76.79,4.99,2.36,6.68,1.58,1.69,3.5,2.54,5.76,2.54,3.72,0,6.63-1.93,8.71-5.78l10.04,1.68c-1.95,4.04-4.56,7.06-7.83,9.08-3.27,2.02-6.93,3.03-11,3.03-5.57,0-10.1-1.76-13.59-5.29-3.49-3.53-5.23-8.2-5.23-14s1.58-10.73,4.73-15.16c4.3-5.99,10.43-8.98,18.4-8.98,5.08,0,9.11,1.57,12.11,4.71,2.99,3.14,4.49,7.53,4.49,13.18,0,2.71-.26,5.14-.78,7.3ZM280.68,648.18c.03-.49.04-.87.04-1.13,0-3.07-.69-5.38-2.07-6.91-1.38-1.54-3.23-2.3-5.55-2.3s-4.39.87-6.23,2.62c-1.84,1.75-3.08,4.32-3.73,7.73h17.54Z"/>
        <path class="cls-1" d="M303.07,630.8h10.62l-1.09,5.39c2.66-2.29,5.14-3.93,7.44-4.9s4.73-1.46,7.29-1.46c3.41,0,6.1.98,8.07,2.93,1.97,1.95,2.95,4.54,2.95,7.77,0,1.46-.43,4.22-1.29,8.28l-4.88,23.48h-11.21l4.92-23.55c.73-3.52,1.09-5.61,1.09-6.29,0-1.43-.42-2.56-1.27-3.38-.85-.82-2.03-1.23-3.54-1.23-1.64,0-3.46.69-5.47,2.07-2.01,1.38-3.58,3.2-4.73,5.47-.83,1.61-1.77,4.91-2.81,9.88l-3.55,17.03h-11.21l8.67-41.48Z"/>
        <path class="cls-1" d="M367.21,653.73l11.21-.59c.16,3.57.77,5.98,1.84,7.23,1.72,2.03,4.9,3.05,9.53,3.05,3.85,0,6.64-.69,8.36-2.07,1.72-1.38,2.58-3.05,2.58-5,0-1.69-.7-3.12-2.11-4.3-.99-.86-3.71-2.25-8.14-4.18-4.44-1.93-7.68-3.54-9.73-4.82-2.04-1.29-3.65-2.96-4.82-5.02-1.17-2.06-1.76-4.47-1.76-7.23,0-4.82,1.74-8.81,5.23-11.99,3.49-3.18,8.54-4.77,15.16-4.77s11.92,1.58,15.61,4.73c3.68,3.15,5.71,7.34,6.07,12.58l-11.29.51c-.29-2.73-1.28-4.83-2.97-6.29-1.69-1.46-4.19-2.19-7.5-2.19s-5.58.57-6.97,1.72c-1.39,1.15-2.09,2.59-2.09,4.34,0,1.64.64,3,1.91,4.06,1.28,1.09,4.1,2.59,8.48,4.49,6.59,2.84,10.78,5.14,12.58,6.91,2.68,2.6,4.02,5.95,4.02,10.04,0,5.05-2,9.37-6,12.95-4,3.58-9.56,5.37-16.7,5.37-4.92,0-9.19-.83-12.79-2.48-3.61-1.65-6.15-3.95-7.64-6.89-1.48-2.94-2.17-6.33-2.07-10.16Z"/>
        <path class="cls-1" d="M446.82,656.66l10.9,1.76c-1.8,4.84-4.45,8.53-7.97,11.05-3.52,2.53-7.59,3.79-12.23,3.79-5.29,0-9.48-1.58-12.58-4.73-3.1-3.15-4.65-7.49-4.65-13.01,0-4.5.94-8.76,2.81-12.77,1.88-4.01,4.7-7.17,8.48-9.47,3.78-2.3,7.92-3.46,12.42-3.46,4.9,0,8.8,1.28,11.72,3.83,2.92,2.55,4.56,5.91,4.92,10.08l-10.66,1.13c-.26-2.32-.97-4.02-2.13-5.12-1.16-1.09-2.68-1.64-4.55-1.64-2.16,0-4.18.81-6.05,2.42-1.88,1.61-3.31,4.03-4.32,7.25-1,3.22-1.5,6.23-1.5,9.04,0,2.45.6,4.34,1.8,5.66,1.2,1.33,2.7,1.99,4.49,1.99s3.53-.65,5.2-1.95c1.67-1.3,2.97-3.25,3.91-5.86Z"/>
        <path class="cls-1" d="M471.86,630.8h11.21l-8.67,41.48h-11.21l8.67-41.48ZM475.14,615.02h11.21l-2.11,10.16h-11.21l2.11-10.16Z"/>
        <path class="cls-1" d="M525.8,655.02h-28.12c-.03.44-.04.78-.04,1.02,0,2.76.79,4.99,2.36,6.68,1.58,1.69,3.5,2.54,5.76,2.54,3.72,0,6.63-1.93,8.71-5.78l10.04,1.68c-1.95,4.04-4.56,7.06-7.83,9.08-3.27,2.02-6.93,3.03-11,3.03-5.57,0-10.1-1.76-13.59-5.29-3.49-3.53-5.23-8.2-5.23-14s1.58-10.73,4.73-15.16c4.3-5.99,10.43-8.98,18.4-8.98,5.08,0,9.11,1.57,12.11,4.71,2.99,3.14,4.49,7.53,4.49,13.18,0,2.71-.26,5.14-.78,7.3ZM516.35,648.18c.03-.49.04-.87.04-1.13,0-3.07-.69-5.38-2.07-6.91-1.38-1.54-3.23-2.3-5.55-2.3s-4.39.87-6.23,2.62c-1.84,1.75-3.08,4.32-3.73,7.73h17.54Z"/>
        <path class="cls-1" d="M538.73,630.8h10.62l-1.09,5.39c2.66-2.29,5.14-3.93,7.44-4.9s4.73-1.46,7.29-1.46c3.41,0,6.1.98,8.07,2.93,1.97,1.95,2.95,4.54,2.95,7.77,0,1.46-.43,4.22-1.29,8.28l-4.88,23.48h-11.21l4.92-23.55c.73-3.52,1.09-5.61,1.09-6.29,0-1.43-.42-2.56-1.27-3.38-.85-.82-2.03-1.23-3.54-1.23-1.64,0-3.46.69-5.47,2.07-2.01,1.38-3.58,3.2-4.73,5.47-.83,1.61-1.77,4.91-2.81,9.88l-3.55,17.03h-11.21l8.67-41.48Z"/>
        <path class="cls-1" d="M606.89,656.66l10.9,1.76c-1.8,4.84-4.45,8.53-7.97,11.05-3.52,2.53-7.59,3.79-12.23,3.79-5.29,0-9.48-1.58-12.58-4.73-3.1-3.15-4.65-7.49-4.65-13.01,0-4.5.94-8.76,2.81-12.77,1.88-4.01,4.7-7.17,8.48-9.47,3.78-2.3,7.92-3.46,12.42-3.46,4.9,0,8.8,1.28,11.72,3.83,2.92,2.55,4.56,5.91,4.92,10.08l-10.66,1.13c-.26-2.32-.97-4.02-2.13-5.12-1.16-1.09-2.68-1.64-4.55-1.64-2.16,0-4.18.81-6.05,2.42-1.88,1.61-3.31,4.03-4.32,7.25-1,3.22-1.5,6.23-1.5,9.04,0,2.45.6,4.34,1.8,5.66,1.2,1.33,2.7,1.99,4.49,1.99s3.53-.65,5.2-1.95c1.67-1.3,2.97-3.25,3.91-5.86Z"/>
        <path class="cls-1" d="M663.65,655.02h-28.12c-.03.44-.04.78-.04,1.02,0,2.76.79,4.99,2.36,6.68,1.58,1.69,3.5,2.54,5.76,2.54,3.72,0,6.63-1.93,8.71-5.78l10.04,1.68c-1.95,4.04-4.56,7.06-7.83,9.08-3.27,2.02-6.93,3.03-11,3.03-5.57,0-10.1-1.76-13.59-5.29-3.49-3.53-5.23-8.2-5.23-14s1.58-10.73,4.73-15.16c4.3-5.99,10.43-8.98,18.4-8.98,5.08,0,9.11,1.57,12.11,4.71,2.99,3.14,4.49,7.53,4.49,13.18,0,2.71-.26,5.14-.78,7.3ZM654.2,648.18c.03-.49.04-.87.04-1.13,0-3.07-.69-5.38-2.07-6.91-1.38-1.54-3.23-2.3-5.55-2.3s-4.39.87-6.23,2.62c-1.84,1.75-3.08,4.32-3.73,7.73h17.54Z"/>
      </g>
    </g>
  </g>
</svg>