<?xml version="1.0" encoding="UTF-8"?>
<svg id="Musthave" xmlns="http://www.w3.org/2000/svg" viewBox="0 0 800 800">
  <defs>
    <style>
      .cls-1 {
        fill: #308fc9;
      }

      .cls-1, .cls-2, .cls-3, .cls-4, .cls-5 {
        stroke-width: 0px;
      }

      .cls-2 {
        fill: #206289;
      }

      .cls-3 {
        fill: #64abd6;
      }

      .cls-4 {
        fill: #73bbe7;
      }

      .cls-5 {
        fill: #b9ddf3;
      }

      .cls-6 {
        opacity: .86;
      }
    </style>
  </defs>
  <g id="_0016_THK_gesetzliche_Vorschriften" data-name="0016_THK_gesetzliche_Vorschriften">
    <g id="Vorschriften">
      <g id="Buch">
        <path class="cls-1" d="M203.91,576.83c-5.37,1.25-9.37,6.06-9.37,11.81v.37h-105.92V185.93h22.34v384.35c2.07,0,4.14.03,6.22.05,1.57.01,3.15.02,4.73.05,4.32.05,8.67.11,13.05.19,2.6.05,5.21.1,7.84.16,2.81.07,5.64.14,8.48.22,2.42.06,4.85.13,7.29.21,1.2.04,2.41.08,3.62.12,1.89.06,3.78.13,5.67.2,2.78.1,5.57.2,8.38.32,1.93.07,3.87.16,5.82.25.23.01.46.02.69.03.16,0,.33.01.49.02.38.02.77.03,1.15.05.46.02.91.04,1.37.06,5.3.24,10.63.51,15.99.8.67.04,1.34.07,2.01.11v3.71h.15Z"/>
        <g>
          <polygon class="cls-2" points="695.57 615.81 671.15 638.16 626.17 589.01 610.86 572.29 445.42 391.53 448.66 388.57 433.81 372.34 451.76 355.91 466.61 372.13 469.85 369.17 654.34 570.76 671.04 589.01 695.57 615.81"/>
          <path class="cls-1" d="M626.17,589.01h-192.05c37.39-5.35,77.02-9.85,118.71-13.1,6.14-.48,12.24-.92,18.29-1.33,2.7-.19,5.39-.37,8.07-.54h.07c1.86-.12,3.72-.24,5.57-.35,1.53-.09,3.06-.19,4.58-.27,1.8-.1,3.6-.21,5.4-.31,1.42-.08,2.84-.15,4.26-.23h.04c3.94-.21,7.85-.41,11.75-.59l15.31,16.72Z"/>
          <path class="cls-1" d="M710.87,185.93v403.08h-39.83l-16.7-18.25c3-.07,6-.13,8.98-.19,5.33-.1,10.61-.17,15.86-.23,2.72-.02,5.44-.04,8.14-.06V185.93h23.55Z"/>
        </g>
        <path class="cls-4" d="M401.86,401.58v192.32c-.82.14-1.63.27-2.45.4h-.53c-.65-.11-1.3-.21-1.96-.32v-187.88l2.2-2.01h0s.28-.26.28-.26l2.46-2.25Z"/>
        <path class="cls-5" d="M396.92,236.95l-100.41,91.9,4.56,4.98,75.07,82.03,4.61,5.04,16.17-14.8v187.88c-10.72-1.72-21.64-3.39-32.77-4.97v-.37c0-5.75-4-10.56-9.37-11.81h.14v-7.03h-151.16v3.32c-.67-.04-1.34-.07-2.01-.11-5.36-.29-10.69-.56-15.99-.8-.46-.02-.91-.04-1.37-.06-.38-.02-.77-.03-1.15-.05-.16-.01-.33-.02-.49-.02-.23,0-.46-.02-.69-.03-1.95-.09-3.89-.18-5.82-.25-2.81-.12-5.6-.22-8.38-.32-1.89-.07-3.78-.14-5.67-.2-1.21-.04-2.42-.08-3.62-.12-2.44-.08-4.87-.15-7.29-.21-2.84-.08-5.67-.15-8.48-.22-2.63-.06-5.24-.11-7.84-.16-4.38-.08-8.73-.14-13.05-.19-1.58-.03-3.16-.04-4.73-.05-2.08-.02-4.15-.04-6.22-.05V161.91c43,.19,89.03,1.91,137.69,5.79,52.99,4.22,102.54,10.49,148.27,17.91v51.34Z"/>
        <g>
          <path class="cls-5" d="M610.86,572.29c-3.9.18-7.81.38-11.75.59h-.04c-1.42.08-2.84.15-4.26.23-1.8.1-3.6.21-5.4.31-1.52.08-3.05.18-4.58.27-1.85.11-3.71.23-5.57.35h-.07c-2.68.17-5.37.35-8.07.54-6.05.41-12.15.85-18.29,1.33-41.69,3.25-81.32,7.75-118.71,13.1-10.95,1.56-21.71,3.2-32.26,4.89v-192.32l31.95-29.24,14.85,16.23-3.24,2.96,165.44,180.76Z"/>
          <path class="cls-5" d="M687.33,161.91v408.37h-.01c-2.7.02-5.42.04-8.14.06-5.25.06-10.53.13-15.86.23-2.98.06-5.98.12-8.98.19l-184.49-201.59-3.24,2.96-14.85-16.22,53.05-48.56-4.58-5.01-75.07-82.02-4.59-5.01-18.71,17.12v-46.9c45.6-7.38,94.98-13.63,147.77-17.83,48.66-3.88,94.7-5.6,137.7-5.79Z"/>
        </g>
      </g>
      <g id="Brett">
        <g class="cls-6">
          <path class="cls-2" d="M279.33,600.56c0,.18-.01.34-.04.5h.11c-.02-.18-.05-.34-.07-.5Z"/>
        </g>
        <g>
          <path class="cls-2" d="M354.78,576.83h.14v-7.03h-151.16v7.03h.15c-5.37,1.25-9.37,6.06-9.37,11.81v19.59h169.61v-19.59c0-5.75-4-10.56-9.37-11.81ZM279.29,601.06c.03-.16.04-.32.04-.5.02.16.05.32.07.49h-.11Z"/>
          <path class="cls-2" d="M279.4,601.05h-.11c.03-.15.04-.31.04-.49.02.16.05.32.07.49Z"/>
        </g>
      </g>
      <g id="Hammer">
        <rect class="cls-3" x="259.39" y="378.58" width="124.77" height="23.34" transform="translate(392.41 -110.59) rotate(47.53)"/>
        <rect class="cls-2" x="328.92" y="323.01" width="11.14" height="111.2" transform="translate(-167.86 325.05) rotate(-42.45)"/>
        <g>
          <polygon class="cls-4" points="504.81 307.35 451.76 355.91 433.81 372.34 401.86 401.58 399.4 403.83 399.12 404.08 396.92 406.1 380.75 420.9 376.14 415.86 301.07 333.83 296.51 328.85 396.92 236.95 399.33 234.75 399.39 234.69 401.86 232.43 420.57 215.31 425.16 220.32 500.23 302.34 504.81 307.35"/>
          <polygon class="cls-3" points="399.12 404.08 399.12 404.09 396.92 406.1 399.12 404.08"/>
        </g>
        <rect class="cls-3" x="417.13" y="234.27" width="124.77" height="23.34" transform="translate(337.19 -273.84) rotate(47.53)"/>
        <rect class="cls-2" x="461.23" y="201.98" width="11.14" height="111.19" transform="translate(-51.47 382.63) rotate(-42.45)"/>
      </g>
      <g id="Paragraf">
        <path class="cls-4" d="M234.78,413.77c-2.89-5.48-6.89-9.66-11.98-12.53-5.08-2.87-14.06-6.56-26.95-11.08-8.89-3.19-14.24-5.22-16.06-6.1-3.18-1.69-5.5-3.81-6.99-6.37-1.47-2.48-2.22-5.26-2.22-8.36,0-4.86,1.78-9.1,5.36-12.73,3.58-3.62,9.54-5.44,17.9-5.44,7.07,0,12.54,2.04,16.42,6.11,3.88,4.07,6.23,9.72,7.04,16.98l17.79-3.2c-1.15-9.1-3.24-16.37-6.28-21.8-3.02-5.44-7.72-9.76-14.09-12.93-6.37-3.21-13.78-4.78-22.2-4.78-5.59,0-10.83.95-15.72,2.85-4.9,1.91-8.74,4.22-11.58,6.96-3.77,3.54-6.76,7.98-8.95,13.33-2.18,5.35-3.28,11.17-3.28,17.45,0,6.9,1.33,13.19,3.99,18.9,2.15,4.61,5.11,8.4,8.9,11.38-4.42,3.48-7.97,7.85-10.61,13.11-2.86,5.69-4.58,11.69-5.11,17.97-.03.32-.07.62-.07.93-.11,1.17-.14,2.37-.14,3.58,0,8.15,1.46,14.96,4.36,20.43,2.89,5.49,6.88,9.66,11.97,12.55,5.09,2.85,14.08,6.56,26.94,11.07,8.9,3.18,14.27,5.21,16.08,6.1,3.17,1.67,5.51,3.8,6.98,6.36,1.49,2.47,2.23,5.26,2.23,8.37,0,4.86-1.79,9.09-5.37,12.72-3.56,3.63-9.53,5.44-17.88,5.44-7.09,0-12.57-2.04-16.44-6.11-3.88-4.05-6.22-9.72-7.02-16.97l-17.8,3.18c1.14,9.11,3.23,16.39,6.27,21.83,3.04,5.44,7.74,9.74,14.11,12.93,6.37,3.18,13.75,4.77,22.18,4.77,5.59,0,10.84-.96,15.72-2.86,4.9-1.9,8.76-4.21,11.58-6.96,3.77-3.53,6.75-7.97,8.95-13.32,2.19-5.35,3.28-11.16,3.28-17.44,0-6.9-1.31-13.2-3.98-18.9-2.16-4.6-5.13-8.41-8.9-11.39,4.42-3.48,7.95-7.85,10.62-13.13,2.86-5.67,4.56-11.67,5.09-17.96.05-.31.06-.62.06-.93.11-1.18.15-2.37.15-3.59,0-8.14-1.44-14.95-4.35-20.42ZM220.4,437.44c-.13,5.7-2.16,10.7-6.03,14.99-3.3,3.64-8.04,5.8-14.22,6.47-2.34-.82-4.85-1.68-7.52-2.58-9.92-3.28-16.11-5.98-18.6-8.1-.18-.17-.35-.32-.53-.48-3.22-3.05-4.84-7.14-4.84-12.25,0-.29,0-.59.01-.89.2-5.65,2.22-10.59,6.06-14.83,3.28-3.63,8.02-5.8,14.16-6.48,2.35.85,4.88,1.7,7.58,2.6,9.89,3.26,16.11,5.97,18.6,8.09.18.16.35.32.53.48,3.21,3.05,4.82,7.13,4.82,12.26,0,.25,0,.47-.02.72Z"/>
      </g>
    </g>
    <path class="cls-4" d="M401.86,185.53v46.9l-2.47,2.26-.06.06-2.41,2.2v-51.34c.66.11,1.31.21,1.96.32h.53c.81-.13,1.63-.27,2.45-.4Z"/>
  </g>
</svg>