<?xml version="1.0" encoding="UTF-8"?>
<svg id="Nachbau" xmlns="http://www.w3.org/2000/svg" viewBox="0 0 800 800">
  <defs>
    <style>
      .cls-1 {
        fill: #308fc9;
      }

      .cls-1, .cls-2, .cls-3, .cls-4, .cls-5 {
        stroke-width: 0px;
      }

      .cls-2 {
        fill: #206289;
      }

      .cls-3 {
        fill: #dddddc;
      }

      .cls-4 {
        fill: #64abd6;
      }

      .cls-5 {
        fill: #73bbe7;
      }
    </style>
  </defs>
  <g id="_0017_THK_Tools" data-name="0017_THK_Tools">
    <g id="Werkzeug">
      <g id="Gabelschlüssel">
        <path class="cls-2" d="M413,444.69l-98.73,98.73c10.98,32.4,3.56,69.65-22.27,95.48-23.34,23.35-56.02,31.65-86.02,24.92l53.99-53.99-70.16-70.16-53.99,53.99c-6.72-29.99,1.59-62.67,24.93-86.01,25.83-25.83,63.08-33.25,95.46-22.27l98.74-98.74,58.05,58.05Z"/>
        <path class="cls-2" d="M639.26,291.64c-25.83,25.83-63.08,33.25-95.48,22.27l-98.74,98.74-58.05-58.05,98.75-98.75c-10.98-32.38-3.56-69.63,22.27-95.46,23.34-23.34,56.01-31.64,86-24.92l-55.46,55.46,70.16,70.16,55.47-55.47c6.73,30-1.58,62.68-24.92,86.02Z"/>
        <rect class="cls-1" x="254.72" y="442.22" width="139.85" height="26.02" transform="translate(-226.81 362.9) rotate(-45)"/>
        <rect class="cls-1" x="385.71" y="311.45" width="139.38" height="26.02" transform="translate(-96.04 417.05) rotate(-45)"/>
      </g>
      <g id="Schraubenzieher">
        <path class="cls-4" d="M646.31,645.96c-23.97,23.97-62.84,23.97-86.81,0l-155.59-155.59,27.39-27.38h0s32.04-32.04,32.04-32.04h0s27.38-27.39,27.38-27.39l155.59,155.59c23.97,23.97,23.97,62.84,0,86.81Z"/>
        <path class="cls-3" d="M463.34,430.94h0s-32.04,32.04-32.04,32.04l-18.3-18.29-58.05-58.05-155.13-155.14-10.43,10.44c-17.89-24.91-35.78-49.81-53.68-74.72l31.87-31.86c24.91,17.89,49.81,35.78,74.71,53.67l-10.43,10.43,155.13,155.14,58.05,58.05,18.3,18.29Z"/>
        <polygon class="cls-3" points="463.34 430.95 431.3 462.99 431.3 462.98 463.34 430.95"/>
        <rect class="cls-5" x="544.26" y="405.03" width="26.03" height="205.49" transform="translate(1310.38 472.78) rotate(135)"/>
      </g>
    </g>
  </g>
</svg>