<?xml version="1.0" encoding="UTF-8"?>
<svg id="Musthave" xmlns="http://www.w3.org/2000/svg" viewBox="0 0 800 800">
  <defs>
    <style>
      .cls-1 {
        fill: #308fc9;
      }

      .cls-1, .cls-2, .cls-3, .cls-4, .cls-5 {
        stroke-width: 0px;
      }

      .cls-2, .cls-6 {
        fill: #206289;
      }

      .cls-6 {
        stroke: #64abd6;
        stroke-miterlimit: 10;
        stroke-width: .25px;
      }

      .cls-3 {
        fill: #dddddc;
      }

      .cls-4 {
        fill: #64abd6;
      }

      .cls-5 {
        fill: #73bbe7;
      }
    </style>
  </defs>
  <g id="_0018_THK_Urheberrecht" data-name="0018_THK_Urheberrecht">
    <g id="Birne_Person" data-name="Birne + Person">
      <g id="Person">
        <path class="cls-5" d="M636.31,577.06l-1.39,119.1H163.69l1.39-119.1c0-83.13,75.34-152.99,177.23-172.63,18.67-3.59,38.23-5.5,58.37-5.5,8.13,0,16.16.31,24.06.93,4.25.32,8.48.73,12.66,1.22,7.34.87,14.56,1.99,21.66,3.36,101.89,19.65,177.23,89.49,177.23,172.63Z"/>
        <path class="cls-5" d="M524.84,275.93c0,55.65-26.63,104-65.77,128.49-6.85,4.3-14.11,7.86-21.66,10.6-4.13,1.5-8.35,2.75-12.66,3.73-7.78,1.8-15.83,2.74-24.06,2.74-21.1,0-40.98-6.18-58.37-17.07-39.14-24.48-65.77-72.85-65.77-128.49,0-80.4,55.58-145.58,124.14-145.58,8.23,0,16.28.94,24.06,2.74,4.31.98,8.54,2.23,12.66,3.73,50.65,18.36,87.43,73.7,87.43,139.11Z"/>
      </g>
      <g id="Birne">
        <g id="Birne-2" data-name="Birne">
          <path class="cls-3" d="M469.25,228.25c-.15,23.93-10.84,30.18-33.8,71.47-3.17,5.69-4.28,20.02-4.82,30.26h-61.25c-.54-10.24-1.65-24.57-4.82-30.26-22.96-41.29-33.65-47.54-33.8-71.47-.26-42.41,25.78-71.85,69.24-71.97,43.47.12,69.51,29.56,69.25,71.97Z"/>
          <path class="cls-1" d="M442.02,353.98c0,2.38-.97,4.54-2.53,6.11-1.56,1.56-3.72,2.53-6.11,2.53h-2.68v12.26h-61.39v-12.26h-2.68c-4.77,0-8.64-3.87-8.64-8.64,0-2.38.97-4.54,2.53-6.1.64-.63,1.37-1.17,2.18-1.58-2.8-1.43-4.71-4.34-4.71-7.68,0-2.38.97-4.54,2.53-6.11,1.57-1.56,3.73-2.53,6.11-2.53h66.75c4.77,0,8.64,3.87,8.64,8.64,0,2.38-.97,4.54-2.53,6.1-.63.63-1.36,1.17-2.17,1.58,2.79,1.43,4.7,4.33,4.7,7.68Z"/>
        </g>
        <g id="Urheberecht">
          <path class="cls-6" d="M425.43,200.7c-6.48-6.57-15.49-10.66-25.44-10.66-19.71,0-35.74,16.03-35.74,35.74s16.03,35.74,35.74,35.74c9.95,0,18.95-4.09,25.44-10.66,6.37-6.45,10.3-15.32,10.3-25.08s-3.93-18.63-10.3-25.08ZM400,257.04c-17.23,0-31.27-14.03-31.27-31.27s14.03-31.27,31.27-31.27c10.47,0,19.75,5.17,25.44,13.1,3.67,5.12,5.83,11.4,5.83,18.17s-2.16,13.03-5.83,18.16c-5.67,7.92-14.97,13.11-25.44,13.11Z"/>
          <g>
            <path class="cls-2" d="M412,231.56c-.7,3.26-2.05,5.72-4.04,7.38-1.99,1.65-4.42,2.48-7.29,2.48-2.37,0-4.55-.6-6.58-1.83-2.03-1.21-3.52-3.05-4.48-5.5-.97-2.46-1.45-5.35-1.45-8.64,0-2.55.41-5.03,1.22-7.44.82-2.41,2.21-4.31,4.22-5.76,2-1.42,4.48-2.14,7.46-2.14,2.6,0,4.74.65,6.45,1.93,1.71,1.28,3.02,3.34,3.91,6.16l5.05-1.19c-1.04-3.58-2.88-6.36-5.52-8.33-2.64-1.97-5.91-2.95-9.78-2.95-3.42,0-6.57.77-9.41,2.33-2.85,1.56-5.04,3.84-6.57,6.84-1.55,3.01-2.32,6.52-2.32,10.56,0,3.71.69,7.16,2.05,10.39,1.37,3.23,3.36,5.69,5.98,7.39,2.61,1.69,6.02,2.55,10.18,2.55s7.46-1.11,10.25-3.31c2.79-2.22,4.73-5.43,5.8-9.64l-5.13-1.3Z"/>
            <path class="cls-4" d="M401.08,245.93c-4.18,0-7.63-.86-10.25-2.57-2.63-1.71-4.65-4.22-6.02-7.45-1.37-3.23-2.06-6.74-2.06-10.44,0-4.02.79-7.6,2.34-10.62,1.54-3.01,3.77-5.34,6.62-6.9,2.83-1.56,6.02-2.35,9.47-2.35,3.89,0,7.2,1,9.86,2.97,2.65,1.98,4.52,4.81,5.56,8.4l.04.13-5.29,1.24-.04-.11c-.88-2.79-2.19-4.84-3.87-6.09-1.68-1.27-3.83-1.91-6.38-1.91-2.93,0-5.42.71-7.39,2.11-1.99,1.43-3.36,3.29-4.18,5.69-.8,2.39-1.21,4.88-1.21,7.4,0,3.26.48,6.15,1.44,8.59.95,2.42,2.44,4.25,4.43,5.44,2.01,1.22,4.14,1.81,6.52,1.81,2.83,0,5.26-.82,7.21-2.45,1.97-1.63,3.31-4.09,4-7.31l.03-.13,5.38,1.36-.03.12c-1.07,4.21-3.04,7.47-5.85,9.7-2.8,2.21-6.28,3.33-10.33,3.33ZM401.17,205.87c-3.41,0-6.55.78-9.35,2.32-2.81,1.54-5.01,3.82-6.52,6.79-1.53,2.99-2.31,6.52-2.31,10.5,0,3.66.69,7.14,2.04,10.34,1.35,3.18,3.34,5.65,5.93,7.34,2.58,1.68,5.99,2.53,10.12,2.53s7.41-1.1,10.17-3.28c2.74-2.18,4.67-5.35,5.73-9.45l-4.89-1.24c-.71,3.21-2.07,5.68-4.06,7.32-2,1.67-4.48,2.51-7.38,2.51-2.39,0-4.62-.62-6.65-1.84-2.04-1.22-3.56-3.09-4.53-5.56-.97-2.47-1.46-5.39-1.46-8.68,0-2.55.41-5.06,1.23-7.48.84-2.46,2.23-4.36,4.27-5.82,2.01-1.43,4.54-2.16,7.53-2.16,2.6,0,4.8.66,6.53,1.96,1.7,1.27,3.02,3.33,3.92,6.11l4.81-1.13c-1.03-3.48-2.86-6.22-5.44-8.14-2.61-1.94-5.88-2.92-9.71-2.92Z"/>
          </g>
        </g>
      </g>
    </g>
  </g>
</svg>