<?xml version="1.0" encoding="UTF-8"?>
<svg id="Musthave" xmlns="http://www.w3.org/2000/svg" viewBox="0 0 800 800">
  <defs>
    <style>
      .cls-1 {
        fill: #308fc9;
      }

      .cls-1, .cls-2, .cls-3, .cls-4, .cls-5 {
        stroke-width: 0px;
      }

      .cls-2 {
        fill: #206289;
      }

      .cls-3 {
        fill: #dddddc;
      }

      .cls-4 {
        fill: #73bbe7;
      }

      .cls-5 {
        fill: #b9ddf3;
      }
    </style>
  </defs>
  <g id="_0019_THK_Zugriffsrechte" data-name="0019_THK_Zugriffsrechte">
    <g id="Zugriff">
      <g id="Ordner">
        <g id="Dunkel">
          <g>
            <rect class="cls-2" x="367.84" y="433.05" width="213.27" height="71.1"/>
            <path class="cls-2" d="M698.27,222.64v293.45h-59.19V239.42h-236.46c-10.89-5.6-21.78-11.19-32.66-16.78h328.31Z"/>
          </g>
          <path class="cls-1" d="M698.27,188.48v34.16h-328.31c-7.99-4.1-15.97-8.2-23.95-12.3h-150.55v-50.94h209.74c18.87,9.7,37.74,19.39,56.6,29.08h236.47Z"/>
        </g>
        <g id="Hell">
          <g>
            <path class="cls-4" d="M235.07,467.47v52.06h-98.8v-40.37h12.26v-11.69c0-23.86,19.41-43.27,43.27-43.27,1.23,0,2.46.05,3.66.16,22.16,1.86,39.61,20.48,39.61,43.11Z"/>
            <path class="cls-4" d="M136.27,273.58v154.99c12.29-17.48,32.6-28.92,55.53-28.92,1.23,0,2.45.03,3.66.1,35.7,1.9,64.17,31.56,64.17,67.72v52.06h23.11v47.5h356.34v-293.45H136.27ZM581.11,504.15h-213.27v-71.1h213.27v71.1Z"/>
            <rect class="cls-4" x="367.84" y="433.05" width="213.27" height="71.1"/>
          </g>
          <path class="cls-5" d="M639.08,239.42v34.16H136.27v-63.24h209.74c7.98,4.1,15.96,8.2,23.95,12.3,10.88,5.59,21.77,11.18,32.66,16.78h236.46Z"/>
          <rect class="cls-1" x="367.84" y="433.05" width="213.27" height="71.1"/>
        </g>
      </g>
      <g id="Schloss">
        <g>
          <path class="cls-1" d="M259.63,519.53v-52.06c0-36.16-28.47-65.82-64.17-67.72-1.21-.07-2.43-.1-3.66-.1-22.93,0-43.24,11.44-55.53,28.92-7.74,11.02-12.29,24.44-12.29,38.9v11.69h24.55v-11.69c0-23.86,19.41-43.27,43.27-43.27,1.23,0,2.46.05,3.66.16,22.16,1.86,39.61,20.48,39.61,43.11v52.06H100.87v146.48h181.87v-146.48h-23.11ZM204.98,588.42c-1.42,6.58-3.83,8.65-3.5,13.54.13,1.91.44,1.66.44,2.98,0,5.59-4.53,10.12-10.12,10.12s-10.12-4.53-10.12-10.12c0-1.33.32-1.07.45-2.99.33-4.9-2.09-6.96-3.51-13.54-.44-2.06-.62-3.09-.62-4.13,0-7.62,6.18-13.8,13.8-13.8s13.81,6.18,13.81,13.8c0,1.04-.19,2.07-.63,4.14Z"/>
          <path class="cls-2" d="M204.98,588.42c-1.42,6.58-3.83,8.65-3.5,13.54.13,1.91.44,1.66.44,2.98,0,5.59-4.53,10.12-10.12,10.12s-10.12-4.53-10.12-10.12c0-1.33.32-1.07.45-2.99.33-4.9-2.09-6.96-3.51-13.54-.44-2.06-.62-3.09-.62-4.13,0-7.62,6.18-13.8,13.8-13.8s13.81,6.18,13.81,13.8c0,1.04-.19,2.07-.63,4.14Z"/>
        </g>
        <path class="cls-3" d="M204.98,588.42c-1.42,6.58-3.83,8.65-3.5,13.54.13,1.91.44,1.66.44,2.98,0,5.59-4.53,10.12-10.12,10.12s-10.12-4.53-10.12-10.12c0-1.33.32-1.07.45-2.99.33-4.9-2.09-6.96-3.51-13.54-.44-2.06-.62-3.09-.62-4.13,0-7.62,6.18-13.8,13.8-13.8s13.81,6.18,13.81,13.8c0,1.04-.19,2.07-.63,4.14Z"/>
      </g>
    </g>
  </g>
</svg>