<?xml version="1.0" encoding="UTF-8"?>
<svg id="Nachbau" xmlns="http://www.w3.org/2000/svg" viewBox="0 0 800 800">
  <defs>
    <style>
      .cls-1 {
        fill: #308fc9;
      }

      .cls-1, .cls-2, .cls-3, .cls-4 {
        stroke-width: 0px;
      }

      .cls-2 {
        fill: #64abd6;
      }

      .cls-3 {
        fill: #73bbe7;
      }

      .cls-4 {
        fill: #b9ddf3;
      }
    </style>
  </defs>
  <g id="_0020_THK_Idee" data-name="0020_THK_Idee">
    <g id="Birne">
      <path class="cls-1" d="M487.2,638.45c0,4.95-2.01,9.43-5.25,12.68-3.24,3.24-7.72,5.25-12.67,5.25h-5.57v25.44h-127.43v-25.44h-5.56c-9.9,0-17.92-8.03-17.92-17.93,0-4.95,2.01-9.43,5.25-12.67,1.31-1.31,2.83-2.42,4.5-3.27-5.79-2.97-9.75-9-9.75-15.95,0-4.95,2.01-9.43,5.25-12.67,3.24-3.25,7.72-5.25,12.67-5.25h138.56c9.9,0,17.92,8.02,17.92,17.92,0,4.95-2.01,9.43-5.25,12.67-1.31,1.32-2.83,2.43-4.5,3.28,5.79,2.96,9.75,8.99,9.75,15.94Z"/>
      <path class="cls-3" d="M543.73,377.47c-.3,49.66-22.49,62.64-70.16,148.35-6.58,11.83-8.89,41.58-10,62.82h-127.14c-1.11-21.24-3.42-50.99-10-62.82-47.67-85.71-69.86-98.69-70.17-148.35-.54-88.04,53.52-149.15,143.74-149.4,90.22.25,144.27,61.36,143.73,149.4Z"/>
      <rect class="cls-3" x="395" y="118.17" width="10" height="62.71"/>
      <rect class="cls-3" x="600.28" y="381.95" width="62.71" height="10"/>
      <rect class="cls-3" x="137.01" y="381.95" width="62.71" height="10"/>
      <rect class="cls-3" x="223.75" y="188.5" width="10" height="62.71" transform="translate(-88.46 226.15) rotate(-45)"/>
      <rect class="cls-3" x="539.9" y="223.08" width="62.71" height="10" transform="translate(6.03 470.72) rotate(-45)"/>
      <g>
        <path class="cls-4" d="M410.61,267.29c-4.41-.57-8.92-.86-13.49-.86-58.38,0-105.71,47.33-105.71,105.71,0,13.94,2.69,27.25,7.6,39.43,0,.01.02.02.03.02h20.9s.04-.02.03-.05c-6.25-12.21-9.68-26.12-9.44-40.84.8-49.29,43.22-88.24,92.41-84.97,2.58.18,5.14.46,7.66.85.02.01.04-.01.04-.03v-19.23s-.02-.03-.03-.03Z"/>
        <path class="cls-2" d="M319.94,411.72h-20.9c-.06,0-.13-.04-.15-.11-5.05-12.52-7.61-25.8-7.61-39.47,0-28.27,11.01-54.85,31-74.84,19.99-19.99,46.57-31,74.84-31,4.54,0,9.08.29,13.5.86.07,0,.14.07.14.15v19.23c0,.05-.03.11-.08.14l-.06.04-.05-.02c-2.46-.38-5.03-.67-7.64-.85-12-.8-23.8.87-35.06,4.97-10.85,3.95-20.69,9.94-29.25,17.82-8.54,7.86-15.31,17.15-20.13,27.61-5,10.86-7.64,22.45-7.83,34.45-.23,14.18,3.03,28.28,9.43,40.78.03.09,0,.14-.01.17l-.04.05h-.09ZM299.1,411.47h20.69c-6.37-12.49-9.62-26.59-9.39-40.77.2-12.04,2.84-23.66,7.86-34.55,4.83-10.49,11.62-19.8,20.19-27.69,8.58-7.9,18.45-13.91,29.33-17.87,11.29-4.11,23.13-5.79,35.16-4.99,2.59.18,5.13.46,7.57.83v-19.04c-4.39-.56-8.89-.85-13.4-.85-28.2,0-54.72,10.98-74.66,30.93s-30.93,46.46-30.93,74.66c0,13.62,2.55,26.85,7.57,39.33Z"/>
      </g>
    </g>
  </g>
</svg>