<?xml version="1.0" encoding="UTF-8"?>
<svg id="Musthave" xmlns="http://www.w3.org/2000/svg" viewBox="0 0 800 800">
  <defs>
    <style>
      .cls-1 {
        fill: #308fc9;
      }

      .cls-1, .cls-2, .cls-3, .cls-4, .cls-5 {
        stroke-width: 0px;
      }

      .cls-2 {
        fill: #206289;
      }

      .cls-3 {
        fill: #dddddc;
      }

      .cls-4 {
        fill: #73bbe7;
      }

      .cls-5 {
        fill: #b9ddf3;
      }
    </style>
  </defs>
  <g id="_0021_THK_PID" data-name="0021_THK_PID">
    <g id="PID">
      <g id="Blatt_dunkel" data-name="Blatt dunkel">
        <path class="cls-1" d="M651.37,95.15v567.79h-77.96c2.13-6.26,3.28-12.96,3.28-19.94,0-21.56-11.04-40.54-27.77-51.61-9.76-6.46-21.47-10.22-34.06-10.22-34.15,0-61.83,27.69-61.83,61.83,0,6.98,1.15,13.68,3.28,19.94h-205.24V95.15h400.3Z"/>
      </g>
      <g id="Blatt_hell" data-name="Blatt hell">
        <g>
          <polygon class="cls-5" points="488.6 662.94 514.41 662.94 510.44 666.91 501.5 675.84 488.6 662.94"/>
          <path class="cls-5" d="M548.93,232.28v359.11c-9.76-6.46-21.47-10.22-34.06-10.22-34.15,0-61.83,27.69-61.83,61.83,0,6.98,1.15,13.68,3.28,19.94,4.14,12.16,11.97,22.62,22.15,30.05H148.62V125.21h293.23l107.07,107.07Z"/>
        </g>
        <polygon class="cls-4" points="441.85 232.28 441.85 125.21 548.92 232.28 441.85 232.28"/>
      </g>
      <g id="Fingerabdruck">
        <path class="cls-2" d="M360.1,427.58c-.16-.6-.36-1.17-.6-1.74-.12-.28-.24-.55-.38-.82-.2-.4-.43-.8-.69-1.17-.07-.13-.15-.26-.25-.38-.17-.24-.35-.47-.54-.72-.27-.3-.53-.59-.82-.88-2.26-2.27-5.38-3.66-8.82-3.66h-.99c-6.88,0-12.48,5.6-12.48,12.49v13.09c0,6.87,5.6,12.48,12.48,12.48h.99c3.44,0,6.56-1.4,8.82-3.65.29-.29.55-.58.82-.91.19-.23.37-.46.54-.71.09-.13.18-.23.25-.37.25-.36.49-.76.69-1.17.14-.28.26-.55.38-.83.24-.55.44-1.13.6-1.72.25-1,.38-2.06.38-3.12v-13.09c0-1.08-.13-2.12-.38-3.12ZM355.87,443.79c0,4.33-3.52,7.85-7.86,7.85h-.99c-4.33,0-7.86-3.52-7.86-7.85v-13.09c0-4.33,3.53-7.87,7.86-7.87h.99c4.34,0,7.86,3.54,7.86,7.87v13.09Z"/>
        <path class="cls-2" d="M447.79,381.71v111.06c0,26.67-10.45,51.82-29.46,70.81-18.98,19-44.13,29.46-70.81,29.46-13.5,0-26.63-2.67-39.03-7.96-1.01-.42-2.02-.87-3.01-1.33l1.67-1.79.57-.59c.35-.37.7-.75,1.04-1.12,1.53.62,3.06,1.21,4.59,1.83.04.01.08.02.13.04.05.01.1.04.16.06.38.15.75.29,1.12.42.37.13.73.27,1.09.4.03,0,.05.02.08.04.75.25,1.48.5,2.23.75.41.12.83.27,1.25.38.27.1.55.18.84.26.13.04.27.09.41.13.58.17,1.17.33,1.75.5.5.13,1.01.27,1.51.4.04,0,.1.02.15.04.7.17,1.4.34,2.12.52.76.16,1.55.33,2.32.5.31.06.63.11.95.18.03.01.06.01.1.01l.55.12c.36.06.71.12,1.07.19.28.04.56.1.84.14.4.06.78.13,1.17.18.05.01.1.01.15.03.51.07,1.03.15,1.55.21.56.08,1.12.15,1.68.21.36.04.71.09,1.07.13.73.06,1.46.14,2.2.2.36.02.73.05,1.09.07.31.03.62.04.93.06.28.02.57.04.85.04.4.04.8.04,1.2.05.1.01.2.01.3.03.5,0,1,.02,1.51.04h1.8c25.44,0,49.43-9.97,67.56-28.08,18.12-18.14,28.09-42.12,28.09-67.56v-111.06c0-25.44-9.97-49.44-28.09-67.55-18.13-18.12-42.12-28.1-67.56-28.1s-49.43,9.98-67.55,28.1c-18.12,18.11-28.09,42.11-28.09,67.55v107.1c.06-.06.13-.13.2-.19.07-.08.14-.14.21-.2.03-.03.06-.07.09-.09.18-.17.34-.33.5-.5.2-.2.39-.4.58-.61.18-.18.35-.38.52-.58.2-.22.39-.45.57-.68.17-.21.35-.42.51-.63,1.15-1.52,2.14-3.13,2.94-4.83.06-.12.12-.23.16-.36.09-.17.16-.33.24-.52.1-.23.2-.46.29-.69.01-.04.03-.08.04-.12.1-.23.19-.48.27-.73.1-.25.19-.52.27-.77.1-.33.21-.65.29-.97.06-.18.11-.38.15-.57.37-1.39.62-2.81.75-4.25.02-.23.04-.46.05-.69.01-.04.01-.08.01-.13.01-.16.02-.33.02-.48,0-.14.02-.31.02-.45.01-.23.01-.46.01-.71v-83.72c0-4.75.41-9.53,1.22-14.22,1.11-6.33,2.97-12.54,5.53-18.46,2.52-5.85,5.74-11.44,9.57-16.58,3.52-4.77,7.57-9.17,12.03-13.1,4.84-4.23,10.15-7.92,15.78-10.92,11.93-6.38,25.38-9.73,38.9-9.73h7.84c22.09,0,42.91,8.64,58.64,24.37,15.73,15.72,24.38,36.55,24.38,58.64v103.79c0,22.09-8.65,42.91-24.38,58.64-15.73,15.73-36.55,24.39-58.64,24.39h-7.84c-1.42,0-2.84-.03-4.26-.1-.47-.04-.94-.06-1.41-.1-.33-.02-.65-.04-.97-.05-.26-.04-.51-.04-.78-.08-.83-.08-1.66-.16-2.49-.27-.46-.04-.93-.11-1.4-.18-.71-.09-1.4-.2-2.1-.3-.7-.12-1.39-.25-2.09-.39-.46-.07-.92-.17-1.38-.27-1.29-.26-2.57-.55-3.83-.9-1.58-.4-3.17-.8-4.74-1.19.6-.89,1.18-1.79,1.74-2.7l.47-.75c.07-.11.15-.25.22-.36l.23-.36,1.67.47c.21.05.41.12.62.16.77.23,1.54.41,2.33.6,1.17.29,2.35.54,3.54.77.44.09.88.17,1.31.23.51.09,1.02.19,1.53.25.37.06.74.13,1.12.17,1.4.19,2.82.35,4.24.46.36.04.72.06,1.07.1.44.02.88.04,1.33.07h.03c.36.02.71.03,1.07.04.53.04,1.06.04,1.59.06h9.18c20.86,0,40.51-8.17,55.37-23.04,14.86-14.84,23.03-34.52,23.03-55.37v-103.79c0-20.86-8.17-40.51-23.03-55.38-14.86-14.84-34.51-23.02-55.37-23.02h-7.84c-12.76,0-25.47,3.18-36.72,9.19-5.33,2.85-10.33,6.32-14.91,10.33-4.21,3.7-8.04,7.87-11.37,12.37-3.62,4.86-6.65,10.13-9.04,15.67-2.42,5.58-4.16,11.44-5.21,17.41-.77,4.42-1.15,8.93-1.15,13.43v83.72c0,.64-.03,1.28-.07,1.91-.07,1.28-.23,2.53-.45,3.76-.05.22-.08.43-.13.64-.05.26-.11.54-.17.81-.05.19-.09.36-.13.52-.03.13-.06.24-.09.36-.06.25-.13.48-.21.73-.07.27-.15.52-.23.79-.13.42-.28.84-.44,1.27-.06.17-.12.35-.2.52-.04.11-.07.22-.12.32-.1.24-.19.49-.29.73,0,0-.02.02-.03.04-.09.22-.19.45-.29.66-.09.19-.18.36-.26.55-.13.28-.27.55-.41.83-.13.25-.26.5-.4.73-.05.1-.09.18-.13.27-.11.18-.23.37-.34.56-.05.08-.09.15-.14.23-.13.21-.25.41-.39.62-.16.26-.34.52-.5.78-.18.26-.36.51-.54.76-.25.34-.5.67-.76,1.01-.13.16-.24.31-.38.47-.2.24-.4.48-.6.71-.41.48-.84.94-1.27,1.4-1.32,1.33-2.77,2.58-4.34,3.68-.34.25-.7.49-1.06.73l-3.46,2.25c-.02-.35-.03-.68-.04-1.04,0-.04,0-.08,0-.1v-.22s-.06-2.63-.06-2.63v-.17c0-.23,0-.5,0-.77v-111.06c0-26.67,10.46-51.83,29.46-70.82,18.98-18.98,44.14-29.46,70.81-29.46s51.82,10.48,70.82,29.45c19,19,29.45,44.16,29.45,70.83Z"/>
        <path class="cls-2" d="M421.06,393.57v87.35c0,38.73-31.51,70.24-70.24,70.24h-6.6c-.63,0-1.26,0-1.89-.03-.44,0-.87-.02-1.31-.05-.35-.01-.7-.03-1.05-.06-.06,0-.12,0-.17-.01-.41-.02-.82-.05-1.23-.09-.17-.01-.33-.02-.49-.04-.29-.02-.58-.05-.87-.08-.5-.05-.99-.1-1.48-.17-.55-.06-1.1-.14-1.65-.22-.06-.01-.12-.02-.18-.03-1.07-.16-2.14-.35-3.19-.55l-.36-.07-2.26-.45.9-2.52.67-1.88,1.96.39c.1.02.2.04.3.06.76.15,1.53.28,2.31.4h0c.38.06.76.12,1.14.17.09.01.17.02.25.03.32.05.64.09.96.12.04,0,.08.01.12.01.77.09,1.55.17,2.32.23.06.01.12.02.18.02.34.03.68.05,1.01.07.13.01.27.02.4.02.25.02.51.03.77.04.29.01.58.02.87.03.2,0,.4.01.59.01.46.01.92.02,1.39.02h6.6c36.18,0,65.62-29.44,65.62-65.62v-87.35c0-36.18-29.44-65.62-65.62-65.62h-6.6c-8.2,0-16.21,1.51-23.81,4.49-5.13,2.02-10.01,4.69-14.51,7.95-4.22,3.05-8.09,6.61-11.5,10.59-3.81,4.44-7,9.36-9.49,14.6-2.76,5.8-4.64,11.95-5.59,18.28-.48,3.18-.72,6.45-.72,9.7v83.72c0,11.37-4.34,22.19-12.23,30.47-.98,1.03-2.05,2.05-3.18,3.02-.25.22-.51.43-.76.64-.29.24-.57.47-.85.69-.28.22-.57.43-.85.65-.29.21-.56.42-.84.61-.02.02-.05.03-.08.05-.25.18-.6.42-.86.6l-.08.06c-.28.18-.55.37-.84.55-.24.16-.52.33-.8.5-.17.12-.35.21-.52.32-.27.16-.55.32-.82.47-.27.16-.58.32-.9.49-.04.02-.08.05-.13.06-.55.3-1.13.59-1.7.85l-2.54,1.2c-.12-.46-.24-.92-.35-1.37-.12-.46-.23-.92-.34-1.38-.1-.44-.21-.88-.31-1.33-.03-.17-.07-.34-.11-.5h0s1.68-.79,1.68-.79c.54-.25,1.09-.53,1.63-.83.29-.14.54-.29.8-.43.05-.03.1-.06.16-.08.08-.05.14-.09.21-.13.12-.07.23-.13.34-.2l.05-.03c.12-.07.23-.13.34-.21l.13-.08c.23-.13.46-.28.69-.43.28-.17.5-.32.73-.48l.25-.16c.18-.12.4-.28.62-.43l.08-.06c.25-.17.5-.36.75-.54.25-.18.51-.39.76-.58.25-.2.51-.4.76-.61.23-.18.46-.39.7-.59,1.01-.87,1.96-1.77,2.84-2.7,7.06-7.42,10.96-17.1,10.96-27.28v-83.72c0-3.48.26-6.97.77-10.38,1.02-6.79,3.03-13.38,5.99-19.59,2.66-5.61,6.08-10.87,10.15-15.62,3.65-4.26,7.79-8.07,12.29-11.33,4.82-3.49,10.05-6.35,15.54-8.5,8.14-3.2,16.72-4.82,25.5-4.82h6.6c38.73,0,70.24,31.51,70.24,70.24Z"/>
        <path class="cls-2" d="M409.15,400.87v72.75c0,32.46-26.42,58.88-58.89,58.88h-5.49c-.36,0-.72,0-1.09-.01-.25,0-.5-.01-.75-.02-.29,0-.57-.02-.86-.03-.3-.01-.6-.03-.9-.05-.39-.02-.77-.05-1.16-.08-.4-.03-.8-.07-1.2-.11-.29-.03-.58-.06-.88-.1-.87-.1-1.74-.23-2.61-.36l-2.25-.37.35-2.26.35-2.31,2.25.36h0s.05.01.05.01c.74.12,1.48.23,2.24.32.33.04.66.08.99.11.36.04.72.07,1.09.1.26.02.53.05.79.06.19.02.39.03.58.03.27.02.54.03.81.04.35.02.7.03,1.05.03.38,0,.76.01,1.14.01h5.49c29.92,0,54.27-24.34,54.27-54.26v-72.75c0-29.92-24.34-54.27-54.27-54.27h-5.49c-5.27,0-10.48.76-15.49,2.27-4.64,1.39-9.08,3.41-13.19,6l-.53.34c-4.14,2.66-7.9,5.86-11.19,9.54-3.95,4.41-7.13,9.38-9.45,14.77-2.92,6.77-4.41,13.95-4.41,21.35v83.72c0,8.76-2.12,17.51-6.12,25.3-3.05,5.92-7.1,11.21-12.03,15.72-.35.32-.7.64-1.06.94-.42.38-.85.73-1.29,1.09-.24.2-.47.39-.71.57-.34.28-.69.55-1.05.81-.43.32-.86.64-1.3.95-.03.03-.07.05-.1.08-.9.64-1.83,1.25-2.77,1.83,0,0,0,0-.01.01-.48.29-.97.58-1.46.87,0,0-.01,0-.02,0-.5.29-1,.57-1.51.84h0c-.66.36-1.33.7-2.02,1.03l-2.12,1.03c-.34-.72-.67-1.44-1-2.16h0c-.06-.13-.11-.25-.17-.38-.1-.23-.2-.46-.31-.7-.14-.32-.28-.65-.42-.98l1.99-.97c.73-.35,1.44-.72,2.15-1.11.01,0,.03-.01.04-.02.02-.01.04-.02.06-.03.03-.02.07-.03.1-.06.03-.01.07-.03.1-.05.34-.18.66-.37.99-.56.05-.03.1-.06.15-.09.33-.19.65-.39.97-.59.17-.1.34-.2.5-.31.29-.18.58-.37.86-.56.41-.27.81-.54,1.21-.83.17-.11.33-.23.49-.35.29-.2.57-.41.85-.63.09-.06.18-.13.27-.2.29-.21.57-.44.85-.67.16-.12.31-.24.46-.38.36-.28.71-.58,1.06-.89.36-.31.72-.62,1.07-.95,4.53-4.14,8.24-8.99,11.04-14.42,3.73-7.24,5.62-15.04,5.62-23.18v-83.72c0-8.04,1.61-15.83,4.79-23.18,2.51-5.84,5.96-11.24,10.25-16.02,3.28-3.67,7-6.91,11.07-9.65h0s1.06-.7,1.06-.7c4.63-2.98,9.64-5.29,14.89-6.87,5.44-1.63,11.1-2.47,16.82-2.47h5.49c32.47,0,58.89,26.42,58.89,58.89Z"/>
        <path class="cls-2" d="M384.65,415.89v42.7c0,19.59-15.93,35.52-35.52,35.52h-3.23c-.38,0-.76,0-1.14-.02-.06,0-.12,0-.17,0-.36,0-.74-.02-1.1-.06-.05,0-.09,0-.13,0-.34-.02-.66-.05-1.01-.09-.13,0-.26-.02-.39-.04-.27-.02-.54-.06-.81-.1-.51-.06-1.01-.14-1.52-.24-.15-.03-.32-.06-.47-.09-.77-.15-1.54-.32-2.31-.53-.21-.06-.43-.12-.63-.17l-1.68-.48v-4.81l2.31.66.64.18c.55.16,1.12.3,1.67.43h0c.13.03.26.06.39.09.32.07.65.13.98.19.04,0,.08.02.12.02.33.06.66.12,1,.16.35.06.7.09,1.05.13.35.04.69.06,1.04.09.02,0,.05,0,.07,0,.26.02.53.04.79.05.13,0,.24.02.36.02.32,0,.62.02.94.02h3.23c17.03,0,30.89-13.87,30.89-30.9v-42.7c0-17.03-13.86-30.9-30.89-30.9h-3.23c-2.86,0-5.7.4-8.45,1.19-4.25,1.21-8.27,3.39-11.66,6.3-6.85,5.91-10.79,14.44-10.79,23.41v83.72c0,6.56-.81,13.08-2.42,19.37-1.54,6.05-3.81,11.94-6.77,17.49-3.16,5.96-7.1,11.53-11.7,16.51-.38.42-.77.83-1.16,1.23-.54.57-1.08,1.12-1.64,1.66-.38.37-.75.74-1.14,1.1-.02.02-.03.03-.05.04-.43.4-.85.81-1.3,1.19-.55.51-1.12,1-1.7,1.5-.42.36-.85.7-1.27,1.05-.47.39-.94.77-1.42,1.14-.03.02-.06.03-.08.06-.5.39-.99.77-1.5,1.13t0,0c-.76.57-1.53,1.12-2.31,1.65l-1.54,1.06c-.4-.36-.79-.74-1.18-1.12-.06-.06-.13-.13-.2-.19h0c-.29-.29-.58-.58-.86-.85-.29-.28-.57-.57-.85-.86-.1-.09-.19-.18-.28-.28l2.29-1.57c.52-.36,1.04-.73,1.56-1.1h0c.06-.05.11-.09.17-.13.44-.32.89-.66,1.34-1,.39-.29.78-.59,1.15-.9,0,0,.02-.02.03-.02.19-.15.39-.3.58-.47.36-.28.71-.58,1.07-.88.02-.02.06-.06.1-.09.48-.4.96-.81,1.42-1.23.02-.02.05-.05.08-.07.37-.33.74-.66,1.1-1,.16-.14.31-.29.46-.43.36-.34.73-.69,1.08-1.04.02-.02.04-.03.06-.06.39-.37.76-.75,1.13-1.13.09-.09.2-.2.29-.3.4-.41.78-.82,1.16-1.23,4.33-4.71,8.04-9.94,11.02-15.55,2.78-5.23,4.93-10.77,6.38-16.46,1.51-5.93,2.28-12.06,2.28-18.23v-83.72c0-10.32,4.52-20.12,12.4-26.9,3.88-3.35,8.52-5.85,13.4-7.26,3.16-.89,6.42-1.35,9.72-1.35h3.23c19.59,0,35.52,15.93,35.52,35.52Z"/>
        <path class="cls-2" d="M397.09,408.26v57.96c0,26.13-21.26,47.39-47.39,47.39h-4.38c-.43,0-.85,0-1.28-.02-.18,0-.36-.01-.55-.02-.21,0-.42-.02-.64-.03-.3-.02-.61-.03-.9-.06-.38-.03-.75-.06-1.12-.09-.37-.03-.75-.08-1.12-.12-.96-.12-1.92-.26-2.88-.43-.14-.02-.29-.05-.44-.08l-1.87-.36v-4.71l2.31.44.44.09c.62.12,1.24.23,1.87.32.27.04.54.08.81.11.16.02.33.05.49.06,1.61.19,3.24.28,4.86.28h4.38c23.58,0,42.76-19.18,42.76-42.77v-57.96c0-23.58-19.18-42.76-42.76-42.76h-4.38c-3.5,0-6.97.43-10.31,1.27-4.5,1.12-8.76,2.96-12.67,5.48-4.07,2.61-7.66,5.87-10.65,9.68-5.98,7.61-9.14,16.71-9.14,26.34v83.72c0,4.99-.56,9.97-1.66,14.8-1.45,6.41-3.85,12.57-7.13,18.31-3.25,5.68-7.31,10.87-12.07,15.41-.4.38-.8.76-1.22,1.13-.35.32-.69.62-1.05.94-2.04,1.78-4.21,3.44-6.45,4.96-.39.27-.79.53-1.18.79-.46.3-.92.59-1.39.88h0c-.73.45-1.47.88-2.21,1.31l-1.81,1.02c-.37-.51-.73-1.02-1.09-1.54,0,0-.01-.02-.02-.02-.03-.05-.08-.1-.11-.16-.49-.69-.96-1.39-1.42-2.1l2.19-1.23c.62-.35,1.22-.7,1.83-1.07,1.01-.61,2-1.25,2.97-1.93.42-.28.84-.58,1.26-.88.46-.34.91-.67,1.36-1.02.45-.35.9-.69,1.33-1.05.4-.33.81-.66,1.21-1.01.5-.43.99-.86,1.48-1.31.38-.35.76-.69,1.13-1.05,4.44-4.23,8.22-9.06,11.25-14.36,3.06-5.34,5.29-11.08,6.64-17.04,1.03-4.5,1.55-9.13,1.55-13.78v-83.72c0-10.67,3.5-20.76,10.13-29.19,3.31-4.22,7.28-7.83,11.79-10.72,4.33-2.78,9.06-4.82,14.04-6.07,3.71-.94,7.56-1.41,11.44-1.41h4.38c26.13,0,47.39,21.26,47.39,47.39Z"/>
        <path class="cls-2" d="M373,423.04v28.41c0,11.76-8.36,21.61-19.46,23.9-1.6.33-3.25.51-4.94.51h-2.15c-1.77,0-3.51-.19-5.21-.56-.44-.09-.88-.21-1.3-.32-.04,0-.08-.02-.12-.03-.22-.06-.44-.13-.66-.2h0c-1.74-.51-3.28-1.11-4.62-1.72v-5.37l3.32,1.61c2.69,1.31,5.58,1.98,8.58,1.98h2.15c10.91,0,19.78-8.88,19.78-19.78v-28.41c0-10.92-8.88-19.79-19.78-19.79h-2.15c-3,0-5.89.66-8.58,1.98-6.8,3.3-11.2,10.3-11.2,17.81v83.72c0,6.49-.7,12.96-2.08,19.25-1.34,6.1-3.35,12.1-5.96,17.85-2.91,6.38-6.57,12.44-10.9,18-1.08,1.39-2.22,2.77-3.38,4.09-.35.4-.7.8-1.05,1.19l-.05.04c-.85.94-1.75,1.9-2.67,2.84-.17.16-.81.81-1.69,1.66-.84.8-5.2,4.53-5.8,5.08-1.32-.88-2.65-1.76-3.98-2.65,1.2-1.05,5.81-5.03,6.57-5.76.81-.78,1.42-1.38,1.61-1.58.89-.9,1.74-1.8,2.54-2.68l.03-.04c.34-.37.68-.75,1.01-1.13,1.1-1.27,2.18-2.57,3.2-3.88,4.11-5.28,7.59-11.03,10.35-17.09,2.48-5.44,4.38-11.14,5.65-16.93,1.31-5.96,1.98-12.1,1.98-18.26v-83.72c0-9.27,5.42-17.9,13.8-21.98,3.31-1.62,6.89-2.44,10.6-2.44h2.15c1.63,0,10.27.17,17.25,7.16,6.98,6.98,7.15,15.62,7.15,17.25Z"/>
      </g>
      <g id="Check">
        <g>
          <path class="cls-2" d="M488.6,662.94l12.9,12.9,8.94-8.93,3.97-3.97h-25.81Z"/>
          <path class="cls-2" d="M548.93,591.39c-9.76-6.46-21.47-10.22-34.06-10.22-34.15,0-61.83,27.69-61.83,61.83,0,6.98,1.15,13.68,3.28,19.94,4.14,12.16,11.97,22.62,22.15,30.05,10.21,7.45,22.79,11.85,36.4,11.85,27.18,0,50.25-17.54,58.55-41.9,2.13-6.26,3.28-12.96,3.28-19.94,0-21.56-11.04-40.54-27.77-51.61ZM471.5,645.85l8.94-8.94,21.06,21.06,47.43-47.44.37-.37,8.94,8.95-43.83,43.83-3.97,3.97-8.94,8.93-12.9-12.9-17.1-17.09Z"/>
        </g>
        <g>
          <polygon class="cls-3" points="558.24 619.11 514.41 662.94 488.6 662.94 471.5 645.85 480.44 636.91 501.5 657.97 548.93 610.53 549.29 610.16 558.24 619.11"/>
          <polygon class="cls-3" points="514.41 662.94 510.44 666.91 501.5 675.84 488.6 662.94 514.41 662.94"/>
        </g>
      </g>
    </g>
  </g>
</svg>