<?xml version="1.0" encoding="UTF-8"?>
<svg id="Musthave" xmlns="http://www.w3.org/2000/svg" viewBox="0 0 800 800">
  <defs>
    <style>
      .cls-1 {
        fill: #42210b;
      }

      .cls-1, .cls-2, .cls-3, .cls-4, .cls-5 {
        stroke-width: 0px;
      }

      .cls-2 {
        fill: #000;
      }

      .cls-3 {
        fill: #42210b;
      }

      .cls-4 {
        fill: #b47d49;
      }

      .cls-5 {
        fill: #fff;
      }
    </style>
  </defs>
  <g id="_0022_THK_fröhliche_Person" data-name="0022_THK_fröhliche_Person">
    <g id="Fröhliches_Gesicht" data-name="Fröhliches Gesicht">
      <g id="Haare_hinten" data-name="Haare hinten">
        <path class="cls-1" d="M480.08,599.3c1.98,2.15,12.67,13.36,29.83,13.77,21.82.53,34.53-16.9,35.56-18.36,25.07.83,44.56-16.8,45.75-36.01.82-13.3-7.18-26.56-19.83-34.6,25.59-1.81,46.41-21.45,49.63-46.39,3.36-25.96-13.21-51.07-38.93-58.34,21.67-4.04,37.38-23.27,37.01-45.14-.36-21.5-16.18-39.99-37.54-43.71,10.23-20.07,8.84-43.88-3.76-61.34-15.16-21.02-44.06-29.37-70-19.42-.19-2.61-3.5-39.83-36.35-57.76-24.62-13.44-55.69-10.51-78.6,7.54-12.01-13.22-30.43-18.45-47.13-13.38-18.35,5.57-31.4,22.59-32.22,42.31-3.67-.56-46.61-6.36-76.75,26.19-25.06,27.06-22.68,60.59-22.2,66.07-20.83,10.48-34.55,31.27-35.89,54.44-1.38,23.85,10.59,46.66,31.04,59.25-17.12,8.65-28.03,26.03-28.14,44.87-.11,20.51,12.61,39.3,32.04,47.2-14.9,10.37-19.72,29.74-12.12,44.42,6.36,12.29,20.49,19.5,35.22,17.72,3.55,12.58,13.84,22.11,26.47,24.49,13.62,2.57,27.65-3.59,35.23-15.53,4.81,6.04,12.11,13.21,20.47,12.68,8.11-.52,11.53-7.93,16.94-12.39,26.13-21.53,87.9,34.98,129.68,13.49,4-2.06,9.32-5.6,14.58-12.08Z"/>
      </g>
      <g id="Gesicht">
        <g id="Kopf">
          <path class="cls-4" d="M561.4,446.15l-.33-12.01c-.37-13.01-8.53-24.04-19.87-28.74,16.94-75.49-28.97-152.23-104.36-172.43-12.49-3.34-25.05-4.94-37.43-4.94-64.25,0-123.45,43.03-140.82,107.87l-9,33.59c-13.99,1.58-25.83,12.37-28.1,26.89l-1.85,11.88c-1.93,12.42,3.63,24.35,13.29,31.16-5.53,62.82,34.85,122.89,97.74,139.74,80.47,21.56,163.82-23.54,190.74-101.07,2.83.72,5.8,1.07,8.85.99,17.62-.49,31.63-15.31,31.14-32.93ZM538.94,443.56c-1.59,6-6.24,12.12-8.19,11.38-.92-.34-1.34-2.22-1.39-4.87h0c-.18-8.22,3.14-23.81,6.1-23.86.09,0,.18.01.28.04,2.25.64,5.35,9.27,3.2,17.31Z"/>
        </g>
        <g id="Ohr_rechts" data-name="Ohr rechts">
          <path class="cls-3" d="M538.94,443.56c-1.59,6-6.24,12.12-8.19,11.38-.92-.34-1.34-2.22-1.39-4.87h0c-.18-8.22,3.14-23.81,6.1-23.86.09,0,.18.01.28.04,2.25.64,5.35,9.27,3.2,17.31Z"/>
        </g>
        <g id="Gesicht-2" data-name="Gesicht">
          <g id="Auchenbraue_links" data-name="Auchenbraue links">
            <path class="cls-1" d="M287.44,332.45c4.24-1.3,12.03-3.08,21.63-1.64,12.04,1.8,20.21,7.67,23.76,10.56,7.47-2.11,9.56-4.61,9.92-6.66,1.26-7.12-16.21-18.51-33.65-20.21-11.77-1.15-27.11,1.75-28.32,8.03-.63,3.25,2.64,6.83,6.66,9.92Z"/>
          </g>
          <g id="Augenbraue_rechts" data-name="Augenbraue rechts">
            <path class="cls-1" d="M411.93,344.24c4.4-.54,12.39-.93,21.58,2.15,11.54,3.88,18.57,11.07,21.56,14.54,7.72-.78,10.22-2.88,10.93-4.83,2.48-6.79-12.74-21.05-29.61-25.77-11.39-3.18-27-3-29.29,2.97-1.19,3.09,1.41,7.19,4.83,10.93Z"/>
          </g>
          <g id="auge_links" data-name="auge links">
            <rect class="cls-2" x="296.05" y="353.87" width="23.23" height="27.29" rx="11.61" ry="11.61" transform="translate(575.97 764.67) rotate(-174.11)"/>
          </g>
          <g id="Auge_rechts" data-name="Auge rechts">
            <rect class="cls-2" x="413.49" y="365.99" width="23.23" height="27.29" rx="11.61" ry="11.61" transform="translate(808.98 800.9) rotate(-174.11)"/>
          </g>
          <g id="Nase">
            <path class="cls-2" d="M353.91,461.9c-2.97,0-5.8-.59-8.32-1.76-3.17-1.48-5.43-3.79-6.21-6.36-1.75-5.77.72-11.18,7.36-16.09l.75-.56c2.79-2.08,7.01-5.22,9.43-10.75.81-1.86,1.38-4.94,1.75-6.97l.16-.88c.26-2.53.52-4.67.78-6.73.25-2.07.52-4.2.78-6.73.08-.82.82-1.42,1.65-1.34.82.08,1.42.82,1.34,1.65-.26,2.56-.53,4.71-.79,6.79-.25,2.07-.52,4.2-.78,6.73l-.02.13-.17.92c-.4,2.17-1,5.45-1.95,7.63-2.74,6.26-7.52,9.82-10.38,11.95l-.75.56c-5.6,4.14-7.65,8.33-6.29,12.82.53,1.75,2.21,3.39,4.61,4.51,4.48,2.09,10.46,1.93,15.99-.43.76-.33,1.64.03,1.97.79.33.76-.03,1.64-.79,1.97-3.36,1.44-6.82,2.16-10.11,2.16Z"/>
          </g>
          <g id="Mund">
            <path class="cls-5" d="M335.66,518.1c6.36,2.81,19.47,7.56,36.17,5.89,24.63-2.45,40.17-17.15,44.66-21.73-13.54,4.29-29,8.32-46.21,11.38-12.32,2.19-23.91,3.6-34.62,4.45Z"/>
          </g>
        </g>
      </g>
      <g id="Haare_vorne" data-name="Haare vorne">
        <path class="cls-1" d="M563.19,393.31c-1.6,2.17-6.16,7.72-14.3,10.45-10,3.36-18.52.15-20.75-.77-1.92,2.42-7.18,8.37-16.25,11.21-11.32,3.54-20.83-.19-23.38-1.29-9.65-4.49-15.78-14.03-15.59-24.21.24-13.05,10.72-20.39,11.74-21.08-4.4-.48-23.88-3.12-38.84-20.32-14.61-16.8-14.82-35.91-14.75-40.45-15.09,16.17-37.12,22.4-55.99,15.83-17.63-6.13-25.88-21.13-27.94-25.17-20.85,23.08-47.5,32.41-65.49,23.88-1.51-.72-20.2-9.91-20.85-26.66-.27-6.99,2.71-12.6,4.75-15.7-.11-1.37-.94-13.6,8.78-22.3,10.51-9.41,23.8-6.15,24.81-5.88,7.93-7.03,21.4-17.2,40.51-24.15,23.11-8.4,43.36-8.06,54.61-7.04,12.5-.5,30.96.24,52.07,6.65,26.27,7.98,44.78,21.12,55.32,29.91,10.47,6.35,33.1,22,49.11,51.49,15.49,28.53,16.68,55.08,16.47,67.32-1.34,6.09-2.69,12.18-4.03,18.27Z"/>
      </g>
    </g>
  </g>
</svg>