<?xml version="1.0" encoding="UTF-8"?>
<svg id="Musthave" xmlns="http://www.w3.org/2000/svg" viewBox="0 0 800 800">
  <defs>
    <style>
      .cls-1 {
        fill: #42210b;
      }

      .cls-1, .cls-2, .cls-3, .cls-4 {
        stroke-width: 0px;
      }

      .cls-2 {
        fill: #000;
      }

      .cls-3 {
        fill: #42210b;
      }

      .cls-4 {
        fill: #b47d49;
      }
    </style>
  </defs>
  <g id="_0023_THK_nachdenkende_Person" data-name="0023_THK_nachdenkende_Person">
    <g id="Nachdenkliches_Gesicht" data-name="Nachdenkliches Gesicht">
      <g id="Haare_hinten" data-name="Haare hinten">
        <path class="cls-1" d="M582.08,419.39c21.67-4.05,37.38-23.28,37.01-45.14-.37-21.5-16.18-39.99-37.54-43.71,10.23-20.07,8.84-43.87-3.76-61.33-15.16-21.02-44.05-29.37-70-19.42-.19-2.61-3.5-39.83-36.35-57.77-24.62-13.44-55.69-10.5-78.6,7.54-12.01-13.21-30.43-18.44-47.13-13.38-18.35,5.57-31.39,22.59-32.21,42.31-3.67-.56-46.62-6.36-76.75,26.19-25.06,27.06-22.68,60.58-22.2,66.07-20.83,10.48-34.55,31.27-35.89,54.44-1.37,23.85,10.59,46.66,31.05,59.24-17.12,8.66-28.04,26.03-28.14,44.87-.11,20.51,12.61,39.31,32.04,47.2-14.9,10.37-19.72,29.74-12.12,44.42,6.37,12.29,20.49,19.5,35.23,17.72,3.55,12.58,13.83,22.1,26.47,24.49,13.62,2.57,27.65-3.59,35.23-15.53,4.81,6.04,12.11,13.21,20.47,12.68,8.11-.51,11.53-7.93,16.94-12.39,26.13-21.53,87.9,34.98,129.67,13.49,4.01-2.06,9.32-5.61,14.58-12.08,1.98,2.15,12.68,13.36,29.83,13.77,21.82.53,34.53-16.9,35.56-18.36,25.07.84,44.56-16.79,45.74-36,.83-13.3-7.17-26.56-19.83-34.6,25.59-1.81,46.41-21.45,49.64-46.39,3.35-25.95-13.21-51.07-38.94-58.33ZM530.27,479.08h-.01c-3.05.08-6.02-.27-8.84-.99-26.93,77.53-110.28,122.63-190.74,101.07-62.9-16.85-103.28-76.93-97.75-139.75-9.66-6.8-15.22-18.74-13.28-31.15l1.85-11.88c2.27-14.52,14.11-25.3,28.09-26.89l9-33.59c17.37-64.84,76.57-107.87,140.83-107.87,12.38,0,24.94,1.6,37.43,4.94,75.38,20.2,121.29,96.94,104.35,172.43,11.34,4.7,19.51,15.73,19.87,28.74l.34,12.01c.49,17.62-13.53,32.44-31.14,32.93Z"/>
      </g>
      <g id="Gesicht">
        <g id="Gesicht-2" data-name="Gesicht">
          <path class="cls-4" d="M530.27,479.08h-.01c-3.05.08-6.02-.27-8.84-.99-26.93,77.53-110.28,122.63-190.74,101.07-62.9-16.85-103.28-76.93-97.75-139.75-9.66-6.8-15.22-18.74-13.28-31.15l1.85-11.88c2.27-14.52,14.11-25.3,28.09-26.89l9-33.59c17.37-64.84,76.57-107.87,140.83-107.87,12.38,0,24.94,1.6,37.43,4.94,75.38,20.2,121.29,96.94,104.35,172.43,11.34,4.7,19.51,15.73,19.87,28.74l.34,12.01c.49,17.62-13.53,32.44-31.14,32.93Z"/>
        </g>
        <g id="Ohr_rechts" data-name="Ohr rechts">
          <path class="cls-3" d="M535.46,426.2c2.26-.04,5.72,8.99,3.49,17.36-1.6,6-6.24,12.11-8.2,11.38-3.75-1.41.81-28.67,4.71-28.74Z"/>
        </g>
      </g>
      <g id="Ausdruck">
        <path class="cls-1" d="M335.88,303.54c-3.97,2.61-11.44,6.77-21.73,8.17-12.92,1.76-23.07-1.82-27.59-3.73-7.04,4.41-8.44,7.61-8.2,9.82.84,7.69,22.21,14.16,40.64,10.68,12.44-2.34,27.33-9.93,26.7-16.75-.33-3.53-4.76-6.23-9.82-8.2Z"/>
        <path class="cls-1" d="M414.81,345.46c4.39-1.8,12.53-4.46,22.9-3.86,13.01.75,22.3,6.2,26.36,8.94,7.76-2.98,9.74-5.85,9.93-8.07.64-7.71-19.09-18.15-37.84-18.27-12.66-.08-28.73,4.51-29.41,11.32-.35,3.53,3.48,7.03,8.07,9.93Z"/>
        <rect class="cls-2" x="298.24" y="350.55" width="24.87" height="29.21" rx="12.43" ry="12.43" transform="translate(582.22 760.27) rotate(-174.11)"/>
        <rect class="cls-2" x="423.96" y="363.52" width="24.87" height="29.21" rx="12.43" ry="12.43" transform="translate(831.67 799.06) rotate(-174.11)"/>
        <path class="cls-2" d="M360.18,466.1c-3.16,0-6.18-.62-8.87-1.87-3.37-1.57-5.77-4.03-6.6-6.74-1.86-6.13.77-11.89,7.84-17.11l.8-.6c3-2.23,7.53-5.61,10.13-11.55.88-2,1.48-5.3,1.88-7.48l.18-.95c.28-2.71.56-5,.83-7.21.27-2.21.55-4.5.83-7.21.08-.82.83-1.42,1.65-1.34.82.09,1.42.82,1.34,1.65-.28,2.74-.57,5.04-.84,7.27-.27,2.21-.55,4.5-.83,7.21l-.02.13-.18.99c-.42,2.32-1.06,5.82-2.08,8.14-2.92,6.67-8.03,10.48-11.08,12.75l-.8.6c-6.03,4.46-8.24,8.99-6.77,13.84.58,1.9,2.4,3.68,4.99,4.89,4.82,2.25,11.25,2.07,17.2-.46.76-.32,1.64.03,1.97.79.33.76-.03,1.64-.79,1.97-3.59,1.53-7.27,2.3-10.78,2.3Z"/>
        <path class="cls-2" d="M365.06,529.35c-.63,0-1.21-.4-1.42-1.02-2.66-7.96-8.39-14.43-17.03-19.22-8.12-4.51-18.51-7.35-30.86-8.46-.82-.07-1.43-.8-1.36-1.63.07-.83.79-1.43,1.63-1.36,12.77,1.15,23.55,4.12,32.04,8.83,9.32,5.17,15.51,12.19,18.42,20.89.26.79-.16,1.64-.95,1.9-.16.05-.32.08-.48.08Z"/>
      </g>
      <g id="Haare_vorne" data-name="Haare vorne">
        <path class="cls-1" d="M563.19,393.31c-1.6,2.17-6.16,7.72-14.3,10.45-10,3.36-18.52.15-20.75-.77-1.92,2.42-7.18,8.37-16.25,11.21-11.32,3.54-20.83-.19-23.38-1.29-9.65-4.49-15.78-14.03-15.59-24.21.24-13.05,10.72-20.39,11.74-21.08-4.4-.48-23.88-3.12-38.84-20.32-14.61-16.8-14.82-35.91-14.75-40.45-15.09,16.17-37.12,22.4-55.99,15.83-17.63-6.13-25.88-21.13-27.94-25.17-20.85,23.08-47.5,32.41-65.49,23.88-1.51-.72-20.2-9.91-20.85-26.66-.27-6.99,2.71-12.6,4.75-15.7-.11-1.37-.94-13.6,8.78-22.3,10.51-9.41,23.8-6.15,24.81-5.88,7.93-7.03,21.4-17.2,40.51-24.15,23.11-8.4,43.36-8.06,54.61-7.04,12.5-.5,30.96.24,52.07,6.65,26.27,7.98,44.78,21.12,55.32,29.91,10.47,6.35,33.1,22,49.11,51.49,15.49,28.53,16.68,55.08,16.47,67.32-1.34,6.09-2.69,12.18-4.03,18.27Z"/>
      </g>
    </g>
  </g>
</svg>