<?xml version="1.0" encoding="UTF-8"?>
<svg id="Musthave" xmlns="http://www.w3.org/2000/svg" viewBox="0 0 800 800">
  <defs>
    <style>
      .cls-1 {
        fill: #308fc9;
      }

      .cls-1, .cls-2, .cls-3, .cls-4, .cls-5 {
        stroke-width: 0px;
      }

      .cls-2 {
        fill: #206289;
      }

      .cls-3 {
        fill: #dddddc;
      }

      .cls-4 {
        fill: #95c11f;
      }

      .cls-5 {
        fill: #b9ddf3;
      }

      .cls-6 {
        opacity: .8;
      }
    </style>
  </defs>
  <g id="_0024_THK_Qualitätskontrolle" data-name="0024_THK_Qualitätskontrolle">
    <g id="Qualität">
      <g id="Klemmbrett">
        <g>
          <rect class="cls-5" x="120.37" y="119.59" width="405.94" height="575.78"/>
          <rect class="cls-1" x="205.85" y="101.61" width="237.03" height="42.62"/>
        </g>
      </g>
      <g id="Lupe_Zoom" data-name="Lupe + Zoom">
        <g id="Zoom">
          <path class="cls-2" d="M478.14,436.68v15h-135.44c.21-1.2.46-2.39.73-3.57.88-3.88,2.06-7.7,3.55-11.43h131.16Z"/>
          <path class="cls-2" d="M478.14,480.83v15h-130.79c-1.7-4.16-3.04-8.44-4.01-12.79-.17-.73-.32-1.47-.46-2.21h135.26Z"/>
        </g>
        <g id="Lupe">
          <g class="cls-6">
            <path class="cls-2" d="M529.27,545.12l-3.62,3.95-22.2-20.29-5.51-5.04c1.78-2.38,3.43-4.83,4.95-7.32.31-.5.61-1.01.91-1.53,5.37-9.09,9.1-18.84,11.23-28.86,4.99-23.45,1.17-48.31-11.23-69.36-1.75-2.98-3.67-5.88-5.77-8.7-3.61-4.86-7.74-9.45-12.38-13.7-32.19-29.43-78.85-33.06-114.56-12.01-1.12.66-2.23,1.34-3.33,2.05-1.46.94-2.89,1.92-4.31,2.95-2.73,1.97-5.37,4.11-7.92,6.4-2.35,2.12-4.63,4.36-6.8,6.75-6.73,7.35-12.1,15.46-16.14,24.01-1.64,3.47-3.05,7.01-4.25,10.61-1.17,3.48-2.13,7.01-2.88,10.58-.18.83-.35,1.67-.5,2.5-.15.83-.29,1.66-.42,2.5-.11.69-.21,1.39-.31,2.09-.62,4.48-.91,8.98-.89,13.49,0,3.62.23,7.24.65,10.84.13,1.17.29,2.35.48,3.51.12.84.26,1.67.41,2.5.15.83.31,1.67.48,2.5,1.6,7.71,4.13,15.23,7.61,22.42,1.68,3.5,3.6,6.92,5.73,10.23,4.43,6.89,9.82,13.34,16.15,19.13,2.58,2.36,5.25,4.55,8,6.57,2.45,1.8,4.95,3.47,7.52,5,.47.29.94.57,1.41.84,5.69,3.3,11.64,5.97,17.75,7.99,22.71,7.6,47.59,6.49,69.54-3.12,9.26-4.03,18-9.57,25.83-16.6l19.77,18.06,7.95,7.27-3.62,3.96,143.4,131.1,20.26-22.17-143.39-131.1ZM478.42,518.98c-29.38,32.12-79.23,34.36-111.35,4.99-2.36-2.15-4.55-4.4-6.57-6.76-2.54-2.95-4.82-6.04-6.86-9.25-2.47-3.89-4.56-7.95-6.29-12.13-1.7-4.16-3.04-8.44-4.01-12.79-.17-.73-.32-1.47-.46-2.21-.3-1.53-.56-3.06-.76-4.61-.27-2.06-.46-4.13-.58-6.21-.07-1.28-.1-2.54-.11-3.82-.02-4.85.39-9.71,1.27-14.51.21-1.2.46-2.39.73-3.57.88-3.88,2.06-7.7,3.55-11.43.34-.85.69-1.7,1.06-2.54,1.46-3.33,3.16-6.57,5.11-9.72,2.55-4.13,5.53-8.09,8.92-11.8,8.69-9.5,19.16-16.39,30.43-20.62,15.6-5.85,32.74-6.62,48.79-2.18,11.6,3.21,22.65,9.12,32.14,17.81,18.11,16.56,26.73,39.61,25.53,62.34-.92,17.59-7.72,34.99-20.54,49.01Z"/>
            <path class="cls-3" d="M498.96,469.97c-.92,17.59-7.72,34.99-20.54,49.01-29.38,32.12-79.23,34.36-111.35,4.99-2.36-2.15-4.55-4.4-6.57-6.76-2.54-2.95-4.82-6.04-6.86-9.25-2.47-3.89-4.56-7.95-6.29-12.13-1.7-4.16-3.04-8.44-4.01-12.79-.17-.73-.32-1.47-.46-2.21-.3-1.53-.56-3.06-.76-4.61-.27-2.06-.46-4.13-.58-6.21-.07-1.28-.1-2.54-.11-3.82-.02-4.85.39-9.71,1.27-14.51.21-1.2.46-2.39.73-3.57.88-3.88,2.06-7.7,3.55-11.43.34-.85.69-1.7,1.06-2.54,1.46-3.33,3.16-6.57,5.11-9.72,2.55-4.13,5.53-8.09,8.92-11.8,8.69-9.5,19.16-16.39,30.43-20.62,15.6-5.85,32.74-6.62,48.79-2.18,11.6,3.21,22.65,9.12,32.14,17.81,18.11,16.56,26.73,39.61,25.53,62.34Z"/>
          </g>
        </g>
      </g>
      <g id="Textlinien">
        <g id="_4" data-name="4">
          <g>
            <path class="cls-2" d="M370.37,548.89h-97.63v-5h90.11c2.45,1.8,4.95,3.47,7.52,5Z"/>
            <rect class="cls-2" x="272.74" y="578.83" width="189.58" height="5"/>
          </g>
        </g>
        <g id="_3" data-name="3">
          <g>
            <path class="cls-2" d="M325.46,445.61c-.18.83-.35,1.67-.5,2.5-.15.83-.29,1.66-.42,2.5h-51.8v-5h52.72Z"/>
            <path class="cls-2" d="M325.36,485.54h-52.62v-5h51.73c.12.84.26,1.67.41,2.5.15.83.31,1.67.48,2.5Z"/>
          </g>
        </g>
        <g id="_2" data-name="2">
          <g>
            <rect class="cls-2" x="272.74" y="347.33" width="189.58" height="5"/>
            <path class="cls-2" d="M371.09,382.26c-1.12.66-2.23,1.34-3.33,2.05-1.46.94-2.89,1.92-4.31,2.95h-90.71v-5h98.35Z"/>
          </g>
        </g>
        <g id="_1" data-name="1">
          <g>
            <rect class="cls-2" x="272.74" y="249.05" width="189.58" height="5"/>
            <rect class="cls-2" x="272.74" y="283.98" width="189.58" height="5"/>
          </g>
        </g>
      </g>
      <g id="Checkboxen">
        <g id="Check_1" data-name="Check 1">
          <g>
            <polygon class="cls-3" points="241.96 231.25 241.96 236.01 206.75 271.22 191.04 255.5 184.37 262.17 184.37 231.25 241.96 231.25"/>
            <polygon class="cls-3" points="241.96 249.35 241.96 288.84 184.37 288.84 184.37 262.17 206.75 284.56 213.42 277.89 241.96 249.35"/>
          </g>
          <polygon class="cls-4" points="249.1 242.21 241.96 249.35 213.42 277.89 206.75 284.56 184.37 262.17 191.04 255.5 206.75 271.22 241.96 236.01 242.43 235.54 249.1 242.21"/>
        </g>
        <g id="Check_2" data-name="Check 2">
          <g>
            <polygon class="cls-3" points="241.96 329.53 241.96 334.29 206.75 369.5 191.04 353.78 184.37 360.45 184.37 329.53 241.96 329.53"/>
            <polygon class="cls-3" points="241.96 347.63 241.96 387.12 184.37 387.12 184.37 360.45 206.75 382.84 213.42 376.17 241.96 347.63"/>
          </g>
          <polygon class="cls-4" points="249.1 340.49 241.96 347.63 213.42 376.17 206.75 382.84 184.37 360.45 191.04 353.78 206.75 369.5 242.43 333.82 249.1 340.49"/>
        </g>
        <g id="Check_3" data-name="Check 3">
          <g>
            <polygon class="cls-3" points="241.96 427.82 241.96 432.57 206.75 467.78 191.04 452.06 184.37 458.73 184.37 427.82 241.96 427.82"/>
            <polygon class="cls-3" points="241.96 445.92 241.96 485.41 184.37 485.41 184.37 458.73 206.75 481.12 213.42 474.45 241.96 445.92"/>
          </g>
          <polygon class="cls-4" points="249.1 438.78 241.96 445.92 213.42 474.45 206.75 481.12 184.37 458.73 191.04 452.06 206.75 467.78 242.43 432.1 249.1 438.78"/>
        </g>
        <g id="Check_4" data-name="Check 4">
          <g>
            <polygon class="cls-3" points="241.96 526.1 241.96 530.85 206.75 566.06 191.04 550.35 184.37 557.02 184.37 526.1 241.96 526.1"/>
            <polygon class="cls-3" points="241.96 544.2 241.96 583.69 184.37 583.69 184.37 557.02 206.75 579.4 213.42 572.73 241.96 544.2"/>
          </g>
          <polygon class="cls-4" points="249.1 537.06 241.96 544.2 213.42 572.73 206.75 579.4 184.37 557.02 191.04 550.35 206.75 566.06 241.96 530.85 242.43 530.38 249.1 537.06"/>
        </g>
      </g>
    </g>
  </g>
</svg>