<?xml version="1.0" encoding="UTF-8"?>
<svg id="Nachbau" xmlns="http://www.w3.org/2000/svg" viewBox="0 0 800 800">
  <defs>
    <style>
      .cls-1 {
        fill: #206289;
      }

      .cls-1, .cls-2 {
        stroke-width: 0px;
      }

      .cls-2 {
        fill: #64abd6;
      }
    </style>
  </defs>
  <g id="_0025_THK_Fragezeichen" data-name="0025_THK_Fragezeichen">
    <g id="Fragezeichen">
      <rect class="cls-1" x="350.67" y="572.76" width="93.35" height="93.33" rx="46.66" ry="46.66"/>
      <path class="cls-2" d="M570.62,281.17c0,23.8-5.67,46.07-16.86,66.21-11.01,19.8-31.51,42.86-62.68,70.46-24.09,21.36-33.79,32.19-37.66,37.5-5.3,7.26-9.3,15.77-11.87,25.28-2.71,9.97-4.3,26.99-4.73,50.56l-.21,11.38h-81.86l-.32-11.28c-.23-8.21-.34-14.54-.34-18.8,0-25.51,3.71-47.99,11.04-66.82,5.42-14.27,14.24-28.85,26.19-43.25,8.71-10.4,23.6-24.85,45.55-44.23,20.29-17.88,33.45-32.03,39.18-42.05,5.42-9.47,8.06-19.57,8.06-30.85,0-20.87-8.03-38.81-24.55-54.81-16.61-16.11-36.47-23.94-60.7-23.94s-42.3,7.05-57.77,21.52c-15.56,14.54-26,38.2-31.03,70.31l-1.73,11.04-85.94-10.22,1.39-11.54c6.03-49.46,24.42-88.05,54.67-114.74,30.22-26.67,70.38-40.2,119.39-40.2,51.79,0,93.92,14.49,125.18,43.07,31.58,28.85,47.58,64.32,47.58,105.39Z"/>
    </g>
  </g>
</svg>