<?xml version="1.0" encoding="UTF-8"?>
<svg id="Musthave" xmlns="http://www.w3.org/2000/svg" viewBox="0 0 800 800">
  <defs>
    <style>
      .cls-1 {
        fill: #308fc9;
      }

      .cls-1, .cls-2, .cls-3, .cls-4, .cls-5 {
        stroke-width: 0px;
      }

      .cls-2 {
        fill: #206289;
      }

      .cls-3 {
        fill: #dddddc;
      }

      .cls-4 {
        fill: #73bbe7;
      }

      .cls-5 {
        fill: #b9ddf3;
      }
    </style>
  </defs>
  <g id="_0029_THK_Dateibenennung" data-name="0029_THK_Dateibenennung">
    <g>
      <g id="Ordner">
        <g id="dunkel">
          <g>
            <rect class="cls-2" x="350.47" y="418.75" width="213.71" height="71.23"/>
            <path class="cls-2" d="M681.57,207.91v294.05h-59.31V224.72h-236.94c-10.91-5.6-21.81-11.2-32.72-16.81h328.97Z"/>
          </g>
          <path class="cls-1" d="M681.57,173.68v34.23h-328.97c-8-4.1-16-8.21-24.01-12.32h-150.85v-51.05h210.16c18.92,9.72,37.82,19.43,56.73,29.14h236.94Z"/>
        </g>
        <g id="hell">
          <g>
            <g>
              <path class="cls-5" d="M118.43,258.95v294.05h503.83v-294.05H118.43ZM350.47,418.75h213.71v71.23h-213.71v-71.23Z"/>
              <rect class="cls-4" x="350.47" y="418.75" width="213.71" height="71.23"/>
            </g>
            <path class="cls-4" d="M622.26,224.72v34.23H118.43v-63.36h210.16c8.01,4.11,16.01,8.22,24.01,12.32,10.91,5.61,21.81,11.21,32.72,16.81h236.94Z"/>
          </g>
          <rect class="cls-3" x="350.47" y="418.75" width="213.71" height="71.23"/>
        </g>
      </g>
      <g id="Benennung">
        <rect class="cls-3" x="191.2" y="583.71" width="412.46" height="71.75" rx="19.73" ry="19.73"/>
        <path class="cls-2" d="M404.9,633.11h-9.96c-.03-1.43-.04-2.3-.04-2.62,0-3.23.53-5.89,1.6-7.97,1.07-2.08,3.2-4.43,6.41-7.03,3.2-2.6,5.12-4.31,5.74-5.12.96-1.28,1.45-2.68,1.45-4.22,0-2.14-.85-3.96-2.56-5.49-1.71-1.52-4-2.29-6.89-2.29s-5.12.79-6.99,2.38c-1.88,1.59-3.16,4.01-3.87,7.27l-10.08-1.25c.29-4.66,2.27-8.62,5.96-11.88,3.68-3.25,8.52-4.88,14.51-4.88,6.3,0,11.31,1.65,15.04,4.94,3.72,3.29,5.59,7.13,5.59,11.5,0,2.42-.68,4.71-2.05,6.88-1.37,2.16-4.29,5.1-8.77,8.83-2.32,1.93-3.76,3.48-4.32,4.65-.56,1.17-.81,3.27-.76,6.29ZM394.94,647.88v-10.98h10.98v10.98h-10.98Z"/>
      </g>
    </g>
  </g>
</svg>