<?xml version="1.0" encoding="UTF-8"?>
<svg id="Nachbau" xmlns="http://www.w3.org/2000/svg" viewBox="0 0 800 800">
  <defs>
    <style>
      .cls-1 {
        fill: #eee;
      }

      .cls-1, .cls-2, .cls-3, .cls-4, .cls-5, .cls-6, .cls-7 {
        stroke-width: 0px;
      }

      .cls-2 {
        fill: #308fc9;
      }

      .cls-3 {
        fill: #206289;
      }

      .cls-4 {
        fill: #dddddc;
      }

      .cls-5 {
        fill: #73bbe7;
      }

      .cls-6 {
        fill: #236289;
      }

      .cls-7 {
        fill: #b9ddf3;
      }
    </style>
  </defs>
  <g id="_0030_THK_Versionierung" data-name="0030_THK_Versionierung">
    <g id="Versionierung">
      <g id="Blatt_1" data-name="Blatt 1">
        <polygon class="cls-5" points="373.87 194.15 373.87 229.59 280.27 229.59 280.27 473.95 133.64 473.95 133.64 133.21 312.94 133.21 373.87 194.15"/>
        <g id="Textlinien">
          <polygon class="cls-2" points="373.86 194.15 312.93 194.15 312.93 133.22 373.86 194.15"/>
          <rect class="cls-6" x="230.34" y="178.37" width="82.59" height="5"/>
          <rect class="cls-6" x="230.34" y="210.68" width="126.08" height="5"/>
          <rect class="cls-6" x="230.34" y="240.51" width="49.93" height="5"/>
          <rect class="cls-6" x="230.34" y="270.33" width="49.93" height="5"/>
          <rect class="cls-6" x="150.95" y="300.16" width="129.32" height="5"/>
          <rect class="cls-6" x="150.95" y="362.3" width="129.32" height="5"/>
          <rect class="cls-6" x="150.95" y="331.23" width="129.32" height="5"/>
          <rect class="cls-6" x="150.95" y="393.36" width="129.32" height="5"/>
          <rect class="cls-6" x="150.95" y="423.79" width="129.32" height="5"/>
        </g>
        <path class="cls-3" d="M156.11,227.8l3.05-14.46c13.97-6.1,24.78-13.2,32.43-21.3h9.89l-17.46,83.33h-16.33l12.03-57.4c-3.39,2.18-7.3,4.18-11.72,5.99-4.43,1.81-8.39,3.09-11.89,3.84Z"/>
      </g>
      <g id="Blatt_2" data-name="Blatt 2">
        <g>
          <path class="cls-7" d="M459.57,290.52v-10.77h-82.6v-5h82.6v-45.16h-179.3v340.74h145.87v-45.16h-128.56v-5h128.56v-25.43h-128.56v-5h128.56v-26.07h-128.56v-5h128.56v-26.07h-128.56v-5h128.56v-26.06h-128.56v-5h128.56v-24.83h-49.17v-5h49.17v-24.83h-49.17v-5h49.17v-11.53h94.36v-34.83h-60.93ZM503.05,312.06h-126.08v-5h126.08v5Z"/>
          <rect class="cls-7" x="297.58" y="489.74" width="128.56" height="5"/>
          <rect class="cls-7" x="297.58" y="520.17" width="128.56" height="5"/>
          <rect class="cls-7" x="376.97" y="336.88" width="49.17" height="5"/>
          <rect class="cls-7" x="376.97" y="366.71" width="49.17" height="5"/>
          <rect class="cls-7" x="376.97" y="307.06" width="126.08" height="5"/>
          <polygon class="cls-7" points="459.57 290.52 459.57 279.75 376.97 279.75 376.97 274.75 459.57 274.75 459.57 229.59 520.5 290.52 459.57 290.52"/>
        </g>
        <polygon class="cls-5" points="520.5 290.52 459.57 290.52 459.57 229.59 520.5 290.52"/>
        <g id="Textlinien-2" data-name="Textlinien">
          <rect class="cls-6" x="376.97" y="274.75" width="82.6" height="5"/>
          <rect class="cls-6" x="376.97" y="307.06" width="126.08" height="5"/>
          <rect class="cls-6" x="376.97" y="336.88" width="49.17" height="5"/>
          <rect class="cls-6" x="376.97" y="366.71" width="49.17" height="5"/>
          <rect class="cls-3" x="297.58" y="396.54" width="128.56" height="5"/>
          <rect class="cls-3" x="297.58" y="458.67" width="128.56" height="5"/>
          <rect class="cls-3" x="297.58" y="427.6" width="128.56" height="5"/>
          <rect class="cls-6" x="297.58" y="489.74" width="128.56" height="5"/>
          <rect class="cls-6" x="297.58" y="520.17" width="128.56" height="5"/>
        </g>
        <path class="cls-3" d="M330.77,351.45c-1.64,1.72-3.21,3.54-4.71,5.46h28.69l-1.63,7.89-1.03,5-.39,1.91h-50.33c.08-.64.18-1.28.31-1.91.3-1.7.73-3.37,1.3-5,.53-1.6,1.19-3.17,1.97-4.7,1.87-3.67,4.19-7.09,6.98-10.26,2.2-2.49,5.84-6.19,10.92-11.11,1.36-1.31,2.82-2.71,4.39-4.2.28-.27.56-.53.83-.8,5.1-4.89,8.34-8.11,9.74-9.65,2.63-2.94,4.44-5.48,5.42-7.62.98-2.15,1.47-4.09,1.47-5.82,0-1.07-.12-2.06-.37-2.98-.38-1.47-1.08-2.73-2.09-3.8-.44-.46-.9-.86-1.4-1.2-1.38-.93-2.99-1.4-4.84-1.4s-3.4.47-4.87,1.4c-.64.41-1.26.92-1.85,1.51-.86.86-1.61,2.02-2.27,3.49-.85,1.85-1.54,4.2-2.08,7.04l-15.88-2.37c.27-1.64.62-3.2,1.06-4.67.51-1.79,1.15-3.46,1.9-5,1.52-3.17,3.52-5.83,5.99-7.98,4.69-4.09,10.56-6.13,17.6-6.13,7.72,0,13.79,2.09,18.19,6.27,4.41,4.18,6.61,9.49,6.61,15.93,0,3.28-.67,6.56-2.03,9.86-1.36,3.29-3.58,6.75-6.67,10.36-.7.82-1.55,1.73-2.53,2.76-1.4,1.45-3.09,3.12-5.06,5-1.02.98-2.13,2.02-3.31,3.12-5.05,4.69-8.39,7.89-10.03,9.6Z"/>
      </g>
      <g id="Blatt_3" data-name="Blatt 3">
        <g>
          <path class="cls-4" d="M605.44,386.28v-10.78h-82.6v-5h82.6v-45.15h-179.3v340.73h240.23v-279.8h-60.93ZM445.55,444.39l15.38-1.84c.64,4.41,1.8,7.46,3.48,9.15,1.67,1.7,3.9,2.55,6.69,2.55,3.69,0,6.75-1.25,9.18-3.73,2.43-2.49,3.64-5.67,3.64-9.55,0-.12,0-.23-.01-.34.01,0,.01-.02,0-.03-.05-2.8-.8-5.1-2.23-6.91-.22-.26-.45-.52-.69-.77-1.96-1.98-4.6-2.97-7.91-2.97-.83,0-1.7.08-2.6.23l.23-1.12.08-.37,2.51-12.01c.57.07,1.11.11,1.64.11,4.33,0,7.63-1.1,9.89-3.31,2.26-2.2,3.39-5.18,3.39-8.95,0-.11,0-.22-.01-.33-.01-.55-.05-1.07-.13-1.57-.29-1.79-1.01-3.27-2.15-4.43-.2-.21-.42-.4-.64-.57-1.43-1.16-3.22-1.74-5.38-1.74-1.92,0-3.67.58-5.26,1.74-.34.25-.68.53-1.01.83-1.06.99-2,2.38-2.81,4.17-.59,1.32-1.12,2.86-1.59,4.61l-14.81-2.94c.11-.34.22-.68.33-1.02.07-.22.14-.44.22-.65.62-1.8,1.32-3.47,2.08-5,1.48-2.97,3.22-5.43,5.23-7.39,5.08-4.9,11.33-7.35,18.75-7.35s13.39,2.12,17.35,6.36c3.85,4.13,5.83,9.06,5.92,14.78.01.05.01.1,0,.15.01.1.01.19.01.29,0,4.3-1.26,8.18-3.79,11.64-2.3,3.17-5.38,5.56-9.25,7.18-.37.16-.75.31-1.14.45,2.57,1.35,4.65,3.01,6.22,4.95.57.7,1.08,1.45,1.52,2.22.51.91.95,1.84,1.29,2.78.73,1.9,1.12,3.85,1.18,5.86.01.19.01.38.01.57,0,6.1-2.16,11.71-6.49,16.84-.85,1.01-1.74,1.94-2.66,2.8-2.24,2.1-4.69,3.77-7.35,5-3.85,1.8-8.14,2.7-12.87,2.7s-8.83-.9-12.41-2.7c-1.77-.88-3.41-1.99-4.91-3.31-.6-.53-1.18-1.1-1.72-1.69-3.52-3.86-5.71-8.98-6.55-15.35l.15-.02ZM443.45,585.5h205.33v5h-205.33v-5ZM648.92,620.93h-205.47v-5h205.47v5ZM648.92,559.43h-205.47v-5h205.47v5ZM648.92,528.36h-205.47v-5h205.47v5ZM648.92,497.29h-205.47v-5h205.47v5ZM648.92,467.46h-126.08v-5h126.08v5ZM648.92,437.64h-126.08v-5h126.08v5ZM648.92,407.81h-126.08v-5h126.08v5Z"/>
          <rect class="cls-1" x="443.45" y="585.5" width="205.33" height="5"/>
          <rect class="cls-1" x="522.84" y="402.81" width="126.08" height="5"/>
          <rect class="cls-1" x="522.84" y="432.64" width="126.08" height="5"/>
          <rect class="cls-1" x="522.84" y="462.46" width="126.08" height="5"/>
          <rect class="cls-1" x="443.45" y="615.93" width="205.47" height="5"/>
          <polygon class="cls-1" points="605.44 386.28 605.44 375.5 522.84 375.5 522.84 370.5 605.44 370.5 605.44 325.35 666.37 386.28 605.44 386.28"/>
        </g>
        <polygon class="cls-7" points="666.37 386.28 605.44 386.28 605.44 325.35 666.37 386.28"/>
        <g id="Textlinien-3" data-name="Textlinien">
          <rect class="cls-6" x="522.84" y="370.5" width="82.6" height="5"/>
          <rect class="cls-6" x="522.84" y="402.81" width="126.08" height="5"/>
          <rect class="cls-6" x="522.84" y="432.64" width="126.08" height="5"/>
          <rect class="cls-6" x="522.84" y="462.46" width="126.08" height="5"/>
          <rect class="cls-3" x="443.45" y="492.29" width="205.47" height="5"/>
          <rect class="cls-3" x="443.45" y="554.43" width="205.47" height="5"/>
          <rect class="cls-3" x="443.45" y="523.36" width="205.47" height="5"/>
          <rect class="cls-6" x="443.45" y="585.5" width="205.33" height="5"/>
          <rect class="cls-6" x="443.45" y="615.93" width="205.47" height="5"/>
        </g>
        <path class="cls-3" d="M491.28,423.29c-.37.16-.75.31-1.14.45,2.57,1.35,4.65,3.01,6.22,4.95.57.7,1.08,1.45,1.52,2.22.51.91.95,1.84,1.29,2.78.73,1.9,1.12,3.85,1.18,5.86.01.19.01.38.01.57,0,6.1-2.16,11.71-6.49,16.84-.85,1.01-1.74,1.94-2.66,2.8-2.24,2.1-4.69,3.77-7.35,5-3.85,1.8-8.14,2.7-12.87,2.7s-8.83-.9-12.41-2.7c-1.77-.88-3.41-1.99-4.91-3.31-.6-.53-1.18-1.1-1.72-1.69-3.52-3.86-5.71-8.98-6.55-15.35l.15-.02,15.38-1.84c.64,4.41,1.8,7.46,3.48,9.15,1.67,1.7,3.9,2.55,6.69,2.55,3.69,0,6.75-1.25,9.18-3.73,2.43-2.49,3.64-5.67,3.64-9.55,0-.12,0-.23-.01-.34.01,0,.01-.02,0-.03-.05-2.8-.8-5.1-2.23-6.91-.22-.26-.45-.52-.69-.77-1.96-1.98-4.6-2.97-7.91-2.97-.83,0-1.7.08-2.6.23l.23-1.12.08-.37,2.51-12.01c.57.07,1.11.11,1.64.11,4.33,0,7.63-1.1,9.89-3.31,2.26-2.2,3.39-5.18,3.39-8.95,0-.11,0-.22-.01-.33-.01-.55-.05-1.07-.13-1.57-.29-1.79-1.01-3.27-2.15-4.43-.2-.21-.42-.4-.64-.57-1.43-1.16-3.22-1.74-5.38-1.74-1.92,0-3.67.58-5.26,1.74-.34.25-.68.53-1.01.83-1.06.99-2,2.38-2.81,4.17-.59,1.32-1.12,2.86-1.59,4.61l-14.81-2.94c.11-.34.22-.68.33-1.02.07-.22.14-.44.22-.65.62-1.8,1.32-3.47,2.08-5,1.48-2.97,3.22-5.43,5.23-7.39,5.08-4.9,11.33-7.35,18.75-7.35s13.39,2.12,17.35,6.36c3.85,4.13,5.83,9.06,5.92,14.78.01.05.01.1,0,.15.01.1.01.19.01.29,0,4.3-1.26,8.18-3.79,11.64-2.3,3.17-5.38,5.56-9.25,7.18Z"/>
      </g>
    </g>
  </g>
</svg>