<?xml version="1.0" encoding="UTF-8"?>
<svg id="Musthave" xmlns="http://www.w3.org/2000/svg" viewBox="0 0 800 800">
  <defs>
    <style>
      .cls-1 {
        fill: #206289;
      }

      .cls-1, .cls-2, .cls-3 {
        stroke-width: 0px;
      }

      .cls-2 {
        fill: #b9ddf3;
      }

      .cls-3 {
        fill: #00638d;
      }
    </style>
  </defs>
  <g id="_0031_THK_DSGVO" data-name="0031_THK_DSGVO">
    <g id="DSGVO">
      <g id="Schild">
        <g>
          <path class="cls-2" d="M471.91,299.79c0,71.85-34.52,109.91-71.48,143.84-.11.09-.22.2-.32.3-.04-.04-.08-.07-.11-.1-.03.03-.07.06-.1.1-.11-.1-.22-.21-.33-.3-36.96-33.93-71.48-71.99-71.48-143.84,17.7-.06,20.89-15.2,20.89-33.35h102.05c0,18.15,3.18,33.29,20.88,33.35Z"/>
          <path class="cls-3" d="M471.94,289.79c-4.86-.02-10.91-.04-10.91-23.35v-10h-122.05v10c0,23.31-6.06,23.33-10.92,23.35l-9.97.03v9.97c0,34.51,7.6,64.34,23.24,91.17,14.07,24.15,33.06,43.12,51.48,60.03l.1.1.15.13,2.17,2.04,4.55,4.68.22-.21.22.21,4.55-4.68,2.17-2.04.15-.13.1-.1c18.43-16.91,37.41-35.88,51.48-60.03,15.64-26.83,23.24-56.66,23.24-91.17v-9.97l-9.97-.03ZM400.11,443.93s-.08-.07-.11-.1c-.03.03-.07.06-.1.1-.11-.1-.22-.21-.33-.3-36.96-33.93-71.48-71.99-71.48-143.84,17.7-.06,20.89-15.2,20.89-33.35h102.05c0,18.15,3.18,33.29,20.88,33.35,0,71.85-34.52,109.91-71.48,143.84-.11.09-.22.2-.32.3Z"/>
        </g>
      </g>
      <g id="Sterne">
        <polygon class="cls-3" points="418.22 156.87 429.48 191.53 400 170.11 370.52 191.53 381.78 156.87 352.3 135.45 388.74 135.45 400 100.79 411.26 135.45 447.71 135.45 418.22 156.87"/>
        <polygon class="cls-3" points="422.41 663.94 433.67 698.6 404.19 677.18 374.71 698.6 385.97 663.94 356.49 642.52 392.93 642.52 404.19 607.86 415.45 642.52 451.9 642.52 422.41 663.94"/>
        <polygon class="cls-3" points="163.2 411.89 174.46 446.55 144.98 425.12 115.5 446.55 126.76 411.89 97.28 390.47 133.72 390.47 144.98 355.81 156.24 390.47 192.69 390.47 163.2 411.89"/>
        <polygon class="cls-3" points="673.24 411.89 684.5 446.55 655.02 425.12 625.54 446.55 636.8 411.89 607.32 390.47 643.76 390.47 655.02 355.81 666.28 390.47 702.73 390.47 673.24 411.89"/>
        <polygon class="cls-3" points="295 191.4 306.26 226.06 276.78 204.63 247.29 226.06 258.56 191.4 229.07 169.98 265.52 169.98 276.78 135.32 288.04 169.98 324.48 169.98 295 191.4"/>
        <polygon class="cls-3" points="547.78 633.36 559.04 668.02 529.56 646.6 500.08 668.02 511.34 633.36 481.86 611.94 518.3 611.94 529.56 577.28 540.82 611.94 577.26 611.94 547.78 633.36"/>
        <polygon class="cls-3" points="201.65 539.76 212.92 574.42 183.43 553 153.95 574.42 165.21 539.76 135.73 518.34 172.17 518.34 183.43 483.68 194.69 518.34 231.14 518.34 201.65 539.76"/>
        <polygon class="cls-3" points="642.61 287.56 653.87 322.22 624.38 300.8 594.9 322.22 606.16 287.56 576.68 266.14 613.12 266.14 624.38 231.48 635.65 266.14 672.09 266.14 642.61 287.56"/>
        <polygon class="cls-3" points="202 278.41 213.27 313.07 183.78 291.65 154.3 313.07 165.56 278.41 136.08 256.99 172.52 256.99 183.78 222.33 195.04 256.99 231.49 256.99 202 278.41"/>
        <polygon class="cls-3" points="641.73 531.77 652.99 566.43 623.51 545.01 594.02 566.43 605.29 531.77 575.8 510.35 612.25 510.35 623.51 475.69 634.77 510.35 671.21 510.35 641.73 531.77"/>
        <polygon class="cls-3" points="295.93 626.59 307.19 661.25 277.71 639.83 248.23 661.25 259.49 626.59 230.01 605.17 266.45 605.17 277.71 570.51 288.97 605.17 325.41 605.17 295.93 626.59"/>
        <polygon class="cls-3" points="550.95 184.89 562.21 219.55 532.73 198.13 503.25 219.55 514.51 184.89 485.02 163.47 521.47 163.47 532.73 128.81 543.99 163.47 580.43 163.47 550.95 184.89"/>
      </g>
      <g>
        <path class="cls-1" d="M294.07,532.87l8.99-42.95h11.57c3.22,0,5.28.05,6.18.15,1.78.18,3.36.54,4.76,1.08,1.4.55,2.67,1.31,3.81,2.3,1.14.99,2.13,2.17,2.96,3.56.83,1.39,1.47,2.98,1.92,4.79.45,1.81.67,3.78.67,5.93,0,4.63-.88,8.74-2.65,12.32-1.77,3.58-3.99,6.43-6.67,8.54-2.05,1.64-4.7,2.85-7.94,3.63-1.84.43-4.66.64-8.47.64h-15.15ZM304.35,525.95h4.48c3.24,0,5.59-.2,7.05-.6,1.45-.4,2.79-1.15,4-2.24,1.74-1.58,3.2-3.69,4.39-6.33,1.19-2.64,1.79-5.74,1.79-9.32,0-3.05-.49-5.34-1.48-6.87-.99-1.53-2.2-2.55-3.65-3.06-1.02-.35-2.82-.53-5.42-.53h-5.13l-6.04,28.95Z"/>
        <path class="cls-1" d="M338.6,518.95l8.41-.44c.12,2.68.58,4.48,1.38,5.42,1.29,1.52,3.67,2.29,7.15,2.29,2.89,0,4.98-.52,6.27-1.55,1.29-1.03,1.93-2.29,1.93-3.75,0-1.27-.53-2.34-1.58-3.22-.74-.64-2.78-1.69-6.11-3.13-3.33-1.45-5.76-2.65-7.29-3.62-1.53-.97-2.74-2.22-3.62-3.76-.88-1.54-1.32-3.35-1.32-5.42,0-3.61,1.31-6.61,3.93-8.99,2.62-2.38,6.41-3.57,11.37-3.57s8.94,1.18,11.7,3.54c2.76,2.36,4.28,5.51,4.56,9.43l-8.47.38c-.22-2.05-.96-3.62-2.23-4.72-1.27-1.09-3.14-1.64-5.62-1.64s-4.18.43-5.23,1.29c-1.05.86-1.57,1.94-1.57,3.25,0,1.23.48,2.25,1.44,3.05.96.82,3.08,1.94,6.36,3.37,4.94,2.13,8.09,3.86,9.43,5.19,2.01,1.95,3.02,4.46,3.02,7.53,0,3.79-1.5,7.03-4.5,9.71-3,2.69-7.17,4.03-12.52,4.03-3.69,0-6.89-.62-9.59-1.86-2.71-1.24-4.61-2.96-5.73-5.17-1.11-2.21-1.63-4.75-1.55-7.62Z"/>
        <path class="cls-1" d="M401.18,509.93h19.22l-3.87,18.43c-2.27,1.46-5.04,2.71-8.33,3.72-3.29,1.02-6.65,1.52-10.06,1.52-5.31,0-9.39-1.2-12.22-3.6-3.87-3.28-5.8-8.04-5.8-14.27,0-4.18.83-8.18,2.49-12.01,1.99-4.61,4.82-8.18,8.5-10.72,3.67-2.54,7.99-3.81,12.95-3.81s8.94,1.15,11.94,3.46c3,2.3,4.99,5.66,5.96,10.08l-8.23.94c-.72-2.42-1.89-4.25-3.5-5.48s-3.64-1.85-6.08-1.85c-2.85,0-5.47.74-7.85,2.23-2.38,1.48-4.25,3.78-5.6,6.88s-2.02,6.49-2.02,10.17.82,6.28,2.46,8.01,4.04,2.59,7.21,2.59c1.89,0,3.84-.27,5.83-.81,1.99-.54,3.71-1.18,5.16-1.92l1.32-6.39h-10.96l1.49-7.18Z"/>
        <path class="cls-1" d="M445.42,532.87h-9.43l-7.71-42.95h8.82l5.45,32.49,17.78-32.49h8.76l-23.67,42.95Z"/>
        <path class="cls-1" d="M466.74,516.02c0-2.54.38-5.21,1.14-8.03,1-3.77,2.51-7.04,4.56-9.81,2.04-2.77,4.61-4.97,7.72-6.58s6.64-2.42,10.61-2.42c5.31,0,9.6,1.65,12.88,4.95,3.27,3.3,4.91,7.68,4.91,13.12,0,4.53-1.06,8.92-3.19,13.15-2.13,4.24-5.02,7.5-8.67,9.79-3.65,2.29-7.78,3.43-12.39,3.43-4,0-7.36-.91-10.08-2.72-2.71-1.82-4.64-4.07-5.77-6.75-1.13-2.69-1.7-5.4-1.7-8.13ZM475.47,515.85c0,2.95.9,5.42,2.7,7.41,1.8,1.99,4.16,2.99,7.09,2.99,2.38,0,4.67-.79,6.87-2.36,2.2-1.57,4.01-3.96,5.45-7.15s2.15-6.3,2.15-9.33c0-3.38-.91-6.03-2.72-7.95-1.82-1.92-4.13-2.89-6.94-2.89-4.32,0-7.83,2.01-10.53,6.04-2.71,4.02-4.06,8.44-4.06,13.24Z"/>
      </g>
    </g>
  </g>
</svg>