<?xml version="1.0" encoding="UTF-8"?>
<svg id="Musthave" xmlns="http://www.w3.org/2000/svg" viewBox="0 0 800 800">
  <defs>
    <style>
      .cls-1 {
        fill: #308fc9;
      }

      .cls-1, .cls-2, .cls-3, .cls-4, .cls-5 {
        stroke-width: 0px;
      }

      .cls-2 {
        fill: #206289;
      }

      .cls-3 {
        fill: #73bbe7;
      }

      .cls-4 {
        fill: #96cced;
      }

      .cls-5 {
        fill: #b9ddf3;
      }
    </style>
  </defs>
  <g id="_0032_THK_Datensatz" data-name="0032_THK_Datensatz">
    <g id="Datensatz">
      <g id="Repositorium">
        <g>
          <path class="cls-2" d="M673.98,282.61v.04c-.05,2.06-4.37,4.03-12.23,5.85v-11.77c7.91,1.83,12.23,3.81,12.23,5.88Z"/>
          <path class="cls-2" d="M304.33,276.73v11.77c-7.85-1.82-12.17-3.79-12.23-5.85v-.04c0-2.07,4.32-4.05,12.23-5.88Z"/>
        </g>
        <path class="cls-2" d="M304.33,428.45v11.77c-7.85-1.82-12.17-3.79-12.23-5.85v-.04c0-2.07,4.32-4.05,12.23-5.88Z"/>
        <path class="cls-2" d="M673.98,434.33v.04c-.05,2.06-4.37,4.03-12.23,5.85v-11.77c7.91,1.83,12.23,3.81,12.23,5.88Z"/>
        <g>
          <path class="cls-4" d="M661.75,244.19v44.31c-27.24,6.31-96.98,10.79-178.71,10.79s-151.47-4.48-178.71-10.79v-44.31c27.24,6.31,96.98,10.79,178.71,10.79s151.47-4.48,178.71-10.79Z"/>
          <path class="cls-4" d="M661.75,395.91v44.31c-27.24,6.31-96.98,10.79-178.71,10.79s-151.47-4.48-178.71-10.79v-44.31c.26.06.52.12.79.18,5.67,1.27,13.07,2.46,21.95,3.56,11.99,1.48,26.69,2.78,43.45,3.85,18.59,1.18,39.74,2.08,62.58,2.62,15.92.38,32.66.58,49.94.58,81.73,0,151.47-4.48,178.71-10.79Z"/>
        </g>
        <path class="cls-5" d="M673.99,434.37v107.38c0,9.21-88.94,25.22-194.4,25.22s-187.5-16.01-187.5-25.22v-107.38h.01c.06,2.06,4.38,4.03,12.23,5.85,27.24,6.31,96.97,10.79,178.71,10.79s151.47-4.48,178.71-10.79c7.86-1.82,12.18-3.79,12.23-5.85h0Z"/>
        <path class="cls-5" d="M673.99,130.93v107.38c0,2.07-4.33,4.05-12.24,5.88-27.24,6.31-96.98,10.79-178.71,10.79s-151.47-4.48-178.71-10.79c-7.91-1.83-12.24-3.81-12.24-5.88v-107.38h.01c.26,9.2,85.64,16.63,190.94,16.63s190.69-7.43,190.94-16.63h0Z"/>
        <path class="cls-5" d="M673.99,282.65v107.38c0,2.07-4.33,4.05-12.24,5.88-27.24,6.31-96.98,10.79-178.71,10.79-17.28,0-34.02-.2-49.94-.58-22.84-.54-43.99-1.44-62.58-2.62-16.76-1.07-31.46-2.37-43.45-3.85-8.88-1.1-16.28-2.29-21.95-3.56-.27-.06-.53-.12-.79-.18-7.91-1.83-12.24-3.81-12.24-5.88v-107.38h.01c.06,2.06,4.38,4.03,12.23,5.85,27.24,6.31,96.97,10.79,178.71,10.79s151.47-4.48,178.71-10.79c7.86-1.82,12.18-3.79,12.23-5.85h0Z"/>
        <path class="cls-2" d="M673.98,130.89v.04c-.25,9.2-85.65,16.63-190.94,16.63s-190.68-7.43-190.94-16.63v-.04c0-9.21,85.65-11.95,191.1-11.95s190.78,2.74,190.78,11.95Z"/>
      </g>
      <g id="Blätter">
        <rect class="cls-1" x="188.59" y="315.89" width="244.52" height="346.82"/>
        <g>
          <polygon class="cls-5" points="370.52 399.65 370.52 681.07 126 681.07 126 334.25 305.12 334.25 370.52 399.65"/>
          <polygon class="cls-3" points="305.12 399.65 305.12 334.25 370.52 399.65 305.12 399.65"/>
        </g>
      </g>
      <g id="Tabelle">
        <path class="cls-2" d="M144.82,423.59v223.62h206.89v-223.62h-206.89ZM148.98,427.57h24.99v.05h.04v9.6h-25.03v-9.65ZM148.98,440.86h25.03v17.77h-25.03v-17.77ZM148.98,462.26h25.03v17.38h-25.03v-17.38ZM148.98,483.27h25.03v17.39h-25.03v-17.39ZM174,643.57h-25.03v-17.63h25.03v17.63ZM174,622.3h-25.03v-17.39h25.03v17.39ZM174,601.28h-25.03v-15.92h25.03v15.92ZM174,581.73h-25.03v-15.88h25.03v15.88ZM174,562.22h-25.03v-15.88h25.03v15.88ZM174,542.7h-25.03v-17.39h25.03v17.39ZM148.98,521.68v-17.39h25.03v17.39h-25.03ZM257.38,643.57h-79.78v-17.63h79.78v17.63ZM257.38,622.3h-79.78v-17.39h79.78v17.39ZM257.38,601.28h-79.78v-15.92h79.78v15.92ZM257.38,581.73h-79.78v-15.88h79.78v15.88ZM257.38,562.22h-79.78v-15.88h79.78v15.88ZM257.38,542.7h-79.78v-17.39h79.78v17.39ZM257.38,521.68h-79.78v-17.39h79.78v17.39ZM257.38,500.66h-79.78v-17.39h79.78v17.39ZM257.38,479.64h-79.78v-17.38h79.78v17.38ZM257.38,458.63h-79.78v-17.77h79.78v17.77ZM257.38,437.22h-79.74v-9.6h79.74v9.6ZM348.07,643.57h-87.06v-17.63h87.06v17.63ZM348.07,622.3h-87.06v-17.39h87.06v17.39ZM348.07,601.28h-87.06v-15.92h87.06v15.92ZM348.07,581.73h-87.06v-15.88h87.06v15.88ZM348.07,562.22h-87.06v-15.88h87.06v15.88ZM348.07,542.7h-87.06v-17.39h87.06v17.39ZM348.07,521.68h-87.06v-17.39h87.06v17.39ZM348.07,500.66h-87.06v-17.39h87.06v17.39ZM348.07,479.64h-87.06v-17.38h87.06v17.38ZM348.07,458.63h-87.06v-17.77h87.06v17.77ZM348.07,437.22h-87.06v-9.6h87.06v9.6Z"/>
        <g>
          <rect class="cls-3" x="148.98" y="625.94" width="25.03" height="17.63"/>
          <polygon class="cls-3" points="174 427.62 174 437.22 148.98 437.22 148.98 427.57 173.97 427.57 173.97 427.62 174 427.62"/>
          <rect class="cls-3" x="148.98" y="440.86" width="25.03" height="17.77"/>
          <rect class="cls-3" x="148.98" y="462.26" width="25.03" height="17.38"/>
          <rect class="cls-3" x="261.01" y="427.62" width="87.06" height="9.6"/>
          <rect class="cls-3" x="177.64" y="427.62" width="79.74" height="9.6"/>
          <rect class="cls-3" x="148.98" y="604.92" width="25.03" height="17.39"/>
          <rect class="cls-3" x="148.98" y="585.37" width="25.03" height="15.92"/>
          <rect class="cls-3" x="148.98" y="565.85" width="25.03" height="15.88"/>
          <rect class="cls-3" x="148.98" y="546.34" width="25.03" height="15.88"/>
          <rect class="cls-3" x="148.98" y="525.31" width="25.03" height="17.39"/>
          <rect class="cls-3" x="148.98" y="483.27" width="25.03" height="17.39"/>
          <rect class="cls-3" x="148.98" y="504.29" width="25.03" height="17.39"/>
        </g>
      </g>
    </g>
  </g>
</svg>