<?xml version="1.0" encoding="UTF-8"?>
<svg id="Nachbau" xmlns="http://www.w3.org/2000/svg" viewBox="0 0 800 800">
  <defs>
    <style>
      .cls-1 {
        fill: #308fc9;
      }

      .cls-1, .cls-2 {
        stroke-width: 0px;
      }

      .cls-2 {
        fill: #206289;
      }
    </style>
  </defs>
  <g id="_0033_THK_Infotext" data-name="0033_THK_Infotext">
    <g id="Infotext">
      <g id="i">
        <polygon class="cls-2" points="472.38 548.98 472.38 617.39 327.62 617.39 327.62 548.98 365.79 548.98 365.79 382.49 327.62 382.49 327.62 314.07 434.21 314.07 434.21 548.98 472.38 548.98"/>
        <rect class="cls-2" x="346.71" y="182.61" width="93.39" height="93.39" rx="46.69" ry="46.69"/>
      </g>
      <path class="cls-1" d="M399.3,100.28c-165.53,0-299.72,134.19-299.72,299.72s134.19,299.71,299.72,299.71,299.71-134.18,299.71-299.71S564.83,100.28,399.3,100.28ZM399.3,670c-149.12,0-270.01-120.89-270.01-270S250.18,129.99,399.3,129.99s270,120.89,270,270.01-120.89,270-270,270Z"/>
    </g>
  </g>
</svg>