<?xml version="1.0" encoding="UTF-8"?>
<svg id="Musthave" xmlns="http://www.w3.org/2000/svg" viewBox="0 0 800 800">
  <defs>
    <style>
      .cls-1 {
        fill: #308fc9;
      }

      .cls-1, .cls-2, .cls-3, .cls-4, .cls-5 {
        stroke-width: 0px;
      }

      .cls-2 {
        fill: #206289;
      }

      .cls-3 {
        fill: #dddddc;
      }

      .cls-4 {
        fill: #73bbe7;
      }

      .cls-5 {
        fill: #b9ddf3;
      }
    </style>
  </defs>
  <g id="_0034_THK_Aufgabe" data-name="0034_THK_Aufgabe">
    <g id="Aufgaben">
      <g id="Blatt">
        <polygon class="cls-1" points="651.95 99.82 651.95 668.9 250.74 668.9 250.74 394.93 273.84 371.83 267.17 365.16 266.7 365.63 250.74 381.59 250.74 296.64 266.7 280.69 273.84 273.55 267.17 266.88 250.74 283.31 250.74 99.82 651.95 99.82"/>
        <g>
          <path class="cls-5" d="M441.95,129.94H148.05v569.08h401.21V237.26l-107.31-107.32ZM215.77,286.84l15.72,15.72,35.68-35.68,6.67,6.67-7.14,7.14-15.96,15.95-19.25,19.25-22.39-22.38,6.67-6.67ZM215.77,385.12l15.72,15.72,19.25-19.25,15.96-15.96.47-.47,6.67,6.67-23.1,23.1-12.58,12.58-6.67,6.67-22.39-22.39,6.67-6.67Z"/>
          <polygon class="cls-4" points="441.95 237.25 441.95 129.94 549.26 237.25 441.95 237.25"/>
        </g>
      </g>
      <g id="Checkboxen_Textlinien" data-name="Checkboxen + Textlinien">
        <g id="Textlinien">
          <rect class="cls-2" x="297.48" y="280.38" width="189.58" height="5"/>
          <rect class="cls-2" x="297.48" y="315.31" width="189.58" height="5"/>
          <rect class="cls-2" x="297.48" y="378.66" width="189.58" height="5"/>
          <rect class="cls-2" x="297.48" y="413.59" width="189.58" height="5"/>
          <rect class="cls-2" x="297.48" y="476.95" width="189.58" height="5"/>
          <rect class="cls-2" x="297.48" y="511.87" width="189.58" height="5"/>
          <rect class="cls-2" x="297.48" y="575.23" width="189.58" height="5"/>
          <rect class="cls-2" x="297.48" y="610.16" width="189.58" height="5"/>
        </g>
        <g id="Checkbox_4" data-name="Checkbox 4">
          <rect class="cls-3" x="209.1" y="557.43" width="57.59" height="57.59"/>
        </g>
        <g id="Checkbox_3" data-name="Checkbox 3">
          <rect class="cls-3" x="209.1" y="459.15" width="57.59" height="57.59"/>
        </g>
        <g id="Checkbox_2" data-name="Checkbox 2">
          <g>
            <polygon class="cls-3" points="215.77 385.12 209.1 391.79 209.1 360.87 266.7 360.87 266.7 365.63 250.74 381.59 231.49 400.84 215.77 385.12"/>
            <polygon class="cls-3" points="209.1 418.46 209.1 391.79 231.49 414.18 238.16 407.51 250.74 394.93 266.7 378.97 266.7 418.46 209.1 418.46"/>
          </g>
          <polygon class="cls-4" points="273.84 371.83 250.74 394.93 238.16 407.51 231.49 414.18 209.1 391.79 215.77 385.12 231.49 400.84 250.74 381.59 266.7 365.63 267.17 365.16 273.84 371.83"/>
        </g>
        <g id="Checkbox_1" data-name="Checkbox 1">
          <g>
            <polygon class="cls-3" points="215.77 286.84 209.1 293.51 209.1 262.59 266.7 262.59 266.7 267.35 231.49 302.56 215.77 286.84"/>
            <polygon class="cls-3" points="209.1 320.18 209.1 293.51 231.49 315.89 250.74 296.64 266.7 280.69 266.7 320.18 209.1 320.18"/>
          </g>
          <polygon class="cls-4" points="273.84 273.55 266.7 280.69 250.74 296.64 231.49 315.89 209.1 293.51 215.77 286.84 231.49 302.56 267.17 266.88 273.84 273.55"/>
        </g>
      </g>
      <g id="Stift">
        <path class="cls-1" d="M535.28,344.03l-13.25,1.77-3.05-22.93c-.48-3.64,2.1-7.02,5.75-7.51.29-.04.58-.06.87-.06,3.3,0,6.19,2.45,6.64,5.81l3.04,22.92Z"/>
        <g>
          <path class="cls-4" d="M567.36,445.01l-49.92,6.64c-2.29-20.77-4.58-41.55-6.87-62.32l-.44-3.31c-.64-4.78,2.66-9.18,7.39-9.93l-3.81-28.69c-.04-.27.15-.52.41-.55l7.91-1.05,13.25-1.77,7.91-1.05c.27-.03.51.16.55.42l3.81,28.7c4.77-.52,9.09,2.87,9.73,7.65l.44,3.31c3.21,20.65,6.43,41.3,9.64,61.95Z"/>
          <path class="cls-4" d="M580.05,715.63l-4.17.55c-15.57,2.07-29.88-8.88-31.95-24.45-2.36-21.41-4.72-42.82-7.09-64.23l57.73-7.68c3.31,21.29,6.63,42.57,9.94,63.86,2.07,15.57-8.88,29.88-24.46,31.95Z"/>
        </g>
        <polygon class="cls-2" points="599.57 619.16 594.57 619.82 536.84 627.5 531.84 628.16 508.54 452.83 517.44 451.65 567.36 445.01 576.27 443.83 599.57 619.16"/>
      </g>
    </g>
  </g>
</svg>