<?xml version="1.0" encoding="UTF-8"?>
<svg id="Nachbau" xmlns="http://www.w3.org/2000/svg" viewBox="0 0 800 800">
  <defs>
    <style>
      .cls-1 {
        fill: #206289;
      }

      .cls-1, .cls-2, .cls-3, .cls-4 {
        stroke-width: 0px;
      }

      .cls-2 {
        fill: #dddddc;
      }

      .cls-3 {
        fill: #73bbe7;
      }

      .cls-4 {
        fill: #b9ddf3;
      }

      .cls-5 {
        opacity: .5;
      }
    </style>
  </defs>
  <g id="_0035_THK_Suchmaschine" data-name="0035_THK_Suchmaschine">
    <g id="Suchmaschine">
      <g id="Kugel">
        <g id="Internet">
          <g>
            <path class="cls-2" d="M459.69,329.14c-1.58-1.71-3.23-3.38-4.96-5-.32-.31-.65-.61-.98-.91-1.56-1.42-3.15-2.79-4.77-4.09-1.5-1.22-3.02-2.38-4.57-3.49-.72-.52-1.44-1.02-2.17-1.52-3.56-2.42-7.24-4.59-11.01-6.5-1.68-.85-3.38-1.65-5.09-2.4-1.68-.75-3.39-1.44-5.1-2.08-1.69-.63-3.38-1.22-5.09-1.75-1.15-.37-2.31-.72-3.48-1.04-1.61-.44-3.22-.85-4.84-1.21-19.19-4.29-39.33-2.91-57.81,4.01-7.29,2.74-14.32,6.35-20.93,10.82-.74.49-1.47,1-2.19,1.52h-.01c-1.55,1.11-3.07,2.26-4.57,3.47-1.97,1.57-3.88,3.24-5.75,4.99-1.76,1.64-3.47,3.36-5.12,5.15-.18.18-.34.35-.5.53-1.57,1.72-3.07,3.48-4.5,5.27-1.78,2.23-3.45,4.52-5,6.85-.68,1-1.33,2.01-1.96,3.03-2.49,4.03-4.67,8.19-6.54,12.44-.01.01-.01.03-.02.04-5.75,13.11-8.57,27.16-8.49,41.16.01,1.64.06,3.27.15,4.91.15,2.67.39,5.32.74,7.98.56,4.21,1.39,8.39,2.48,12.51.13.5.27,1,.41,1.5.33,1.17.67,2.34,1.05,3.5.53,1.68,1.11,3.35,1.74,5,.6,1.6,1.25,3.18,1.94,4.74.04.09.08.17.12.26,2,4.55,4.36,8.97,7.06,13.24.43.68.87,1.35,1.32,2.02,1.55,2.34,3.22,4.63,5,6.86.8,1.01,1.63,2.01,2.48,3,.82.95,1.65,1.89,2.52,2.82,1.59,1.72,3.26,3.39,5,5.01.3.29.6.57.91.85,12.13,11.09,26.23,18.67,41.05,22.8,3.16.88,6.36,1.6,9.58,2.17,1.86.33,3.73.61,5.61.83,1.92.23,3.85.4,5.78.52,1.99.12,3.97.18,5.96.19,11.93.04,23.84-2.04,35.15-6.18t.02-.01c14.77-5.39,28.5-14.33,39.84-26.73,7.62-8.33,13.59-17.6,17.91-27.39.74-1.65,1.42-3.32,2.06-5,.62-1.65,1.21-3.32,1.74-5,.53-1.66,1.02-3.33,1.46-5,.23-.89.45-1.77.66-2.66,1.39-5.89,2.24-11.88,2.55-17.88,1.39-26.58-7.65-53.5-26.84-74.15ZM459.69,329.14c-1.58-1.71-3.23-3.38-4.96-5-.32-.31-.65-.61-.98-.91-1.56-1.42-3.15-2.79-4.77-4.09-1.5-1.22-3.02-2.38-4.57-3.49-.72-.52-1.44-1.02-2.17-1.52-3.56-2.42-7.24-4.59-11.01-6.5-1.68-.85-3.38-1.65-5.09-2.4-1.68-.75-3.39-1.44-5.1-2.08-1.69-.63-3.38-1.22-5.09-1.75-1.15-.37-2.31-.72-3.48-1.04-1.61-.44-3.22-.85-4.84-1.21-19.19-4.29-39.33-2.91-57.81,4.01-7.29,2.74-14.32,6.35-20.93,10.82-.74.49-1.47,1-2.19,1.52h-.01c-1.55,1.11-3.07,2.26-4.57,3.47-1.97,1.57-3.88,3.24-5.75,4.99-1.76,1.64-3.47,3.36-5.12,5.15-.18.18-.34.35-.5.53-1.57,1.72-3.07,3.48-4.5,5.27-1.78,2.23-3.45,4.52-5,6.85-.68,1-1.33,2.01-1.96,3.03-2.49,4.03-4.67,8.19-6.54,12.44-.01.01-.01.03-.02.04-5.75,13.11-8.57,27.16-8.49,41.16.01,1.64.06,3.27.15,4.91.15,2.67.39,5.32.74,7.98.56,4.21,1.39,8.39,2.48,12.51.13.5.27,1,.41,1.5.33,1.17.67,2.34,1.05,3.5.53,1.68,1.11,3.35,1.74,5,.6,1.6,1.25,3.18,1.94,4.74.04.09.08.17.12.26,2,4.55,4.36,8.97,7.06,13.24.43.68.87,1.35,1.32,2.02,1.55,2.34,3.22,4.63,5,6.86.8,1.01,1.63,2.01,2.48,3,.82.95,1.65,1.89,2.52,2.82,1.59,1.72,3.26,3.39,5,5.01.3.29.6.57.91.85,12.13,11.09,26.23,18.67,41.05,22.8,3.16.88,6.36,1.6,9.58,2.17,1.86.33,3.73.61,5.61.83,1.92.23,3.85.4,5.78.52,1.99.12,3.97.18,5.96.19,11.93.04,23.84-2.04,35.15-6.18t.02-.01c14.77-5.39,28.5-14.33,39.84-26.73,7.62-8.33,13.59-17.6,17.91-27.39.74-1.65,1.42-3.32,2.06-5,.62-1.65,1.21-3.32,1.74-5,.53-1.66,1.02-3.33,1.46-5,.23-.89.45-1.77.66-2.66,1.39-5.89,2.24-11.88,2.55-17.88,1.39-26.58-7.65-53.5-26.84-74.15ZM367.22,521.04c-1.07-.16-2.15-.33-3.22-.52l-1.36,1.25c-3.61,3.34-7.29,6.33-11.03,8.96,10.17-2.08,20.16-4.89,29.9-8.41-4.78-.15-9.55-.58-14.29-1.28ZM346,515.97c-1.71-.57-3.41-1.18-5.1-1.83-6.05-2.3-11.97-5.12-17.69-8.43-3.22-1.85-6.38-3.88-9.46-6.06v35.19c13.23-1.15,26.09-6.87,38.26-17.04-2.02-.55-4.02-1.16-6.01-1.83ZM301.48,489.78c-3.08-2.82-5.99-5.77-8.73-8.82-4.47-4.98-8.48-10.26-12.02-15.75-2.73-4.25-5.19-8.64-7.35-13.14-2.48-5.12-4.58-10.38-6.31-15.74h-51.16c9.5,28.63,22.5,52.75,37.71,69.89,7.64,8.6,15.77,15.37,24.2,20.18,8.42,4.8,17.14,7.66,25.93,8.43v-43.02c-.76-.67-1.52-1.34-2.27-2.03ZM222.87,478.46c-6.73-12.76-12.61-26.92-17.48-42.13h-76.61c18.01,28.23,42.56,52.01,71.42,69.1,20.37,12.06,42.61,20.59,65.73,25.31-16.07-11.24-30.73-28.9-43.06-52.28ZM487.51,326.69c1.87,2.66,3.61,5.37,5.24,8.15,5.63,9.56,9.88,19.73,12.74,30.22h0c2.51,9.21,3.95,18.65,4.31,28.13.03-.08.05-.15.08-.23.15-.41.29-.81.42-1.21.18-.51.36-1.02.53-1.54.37-1.08.73-2.17,1.07-3.25.32-.99.63-1.98.93-2.97.59-1.92,1.15-3.85,1.67-5.79.17-.61.34-1.21.49-1.82.46-1.69.88-3.38,1.28-5.08.4-1.64.77-3.29,1.12-4.95.44-2.04.84-4.09,1.22-6.15.21-1.15.41-2.3.6-3.45.38-2.31.72-4.62,1.03-6.94.16-1.15.3-2.32.43-3.48.14-1.15.26-2.3.38-3.46v-.07c.12-1.15.22-2.3.31-3.46.06-.68.11-1.37.16-2.06.09-1.14.16-2.27.22-3.41.05-.81.09-1.61.12-2.41.06-1.17.1-2.34.13-3.51.02-.41.03-.81.03-1.21l-34.51-.05ZM522,315.92c-.02-.84-.05-1.69-.08-2.53-.04-1.27-.1-2.54-.18-3.8-.07-1.27-.16-2.53-.25-3.79-.08-1.12-.17-2.24-.28-3.36-.09-1.09-.2-2.17-.32-3.26-.01-.06-.01-.12-.02-.19-.11-1.09-.23-2.18-.37-3.26-.13-1.11-.28-2.22-.44-3.33-.14-1.11-.31-2.22-.49-3.33-.68-4.44-1.5-8.84-2.46-13.22-.48-2.19-.99-4.36-1.54-6.53s-1.13-4.33-1.75-6.48c-.3-1.07-.61-2.15-.95-3.22-.32-1.07-.66-2.13-1-3.2-.33-1.07-.68-2.12-1.05-3.18-.35-1.06-.72-2.11-1.1-3.17-.28-.84-.59-1.67-.9-2.5l-.42-1.11c-.21-.6-.44-1.19-.68-1.78-.18-.47-.36-.94-.55-1.41-.27-.71-.55-1.41-.85-2.11-.1-.27-.21-.53-.32-.79-.28-.71-.58-1.42-.89-2.13-.16-.39-.33-.78-.49-1.16-.36-.83-.72-1.65-1.09-2.47-.03-.08-.06-.15-.09-.21-.35-.78-.7-1.55-1.06-2.32-.26-.56-.52-1.12-.79-1.68-.35-.76-.71-1.51-1.08-2.25-.44-.91-.89-1.81-1.35-2.71,0-.01,0-.02-.01-.03-.5-.98-1-1.96-1.52-2.94-.39-.75-.79-1.49-1.19-2.23-.37-.69-.75-1.38-1.14-2.07-.29-.54-.6-1.07-.9-1.61h-79.45c2.68,9.32,4.98,18.95,6.9,28.85,2.14,11.04,3.81,22.41,4.98,34.02l.12,1.14c15.29,5.38,29.77,13.88,42.49,25.51,3.35,3.07,6.5,6.28,9.43,9.62.28.32.57.64.85.97l42.3.06c0-.27-.01-.54-.02-.81ZM417.02,137.87c-20.29-11.97-42.44-20.44-65.46-25.15,16.08,11.24,30.73,28.91,43.07,52.29,6.66,12.63,12.48,26.59,17.29,41.55h76.43c-18.04-28.07-42.55-51.7-71.33-68.69ZM404.54,216.56h-90.79v79.64c1.41-1.01,2.85-1.97,4.3-2.91,26.32-16.99,57.81-23.13,87.92-18.12,3.55.58,7.08,1.33,10.58,2.23-2.36-21.39-6.4-41.84-12.01-60.84ZM363.73,137.08c-15.24-17.11-32.46-26.9-49.98-28.44v97.92h87.65c-9.5-28.47-22.5-52.44-37.67-69.48ZM212.97,216.56c-8.97,30.35-13.92,64.74-14.38,99.74l92.83.13c.28-.33.56-.66.85-.98.16-.18.32-.36.48-.53.28-.32.57-.64.86-.96,2.8-3.06,5.72-5.95,8.75-8.66.46-.41.92-.83,1.39-1.23v-87.51h-90.78ZM216.11,206.56h87.64v-97.92c-35.65,3.1-68.11,39.37-87.64,97.92ZM198.58,326.3c.38,35.08,5.29,69.56,14.21,100.03h51.5c-.08-.33-.16-.67-.23-1-.96-4.29-1.7-8.62-2.21-12.97-.54-4.62-.82-9.27-.83-13.93-.03-5.78.35-11.57,1.13-17.32,1.04-7.68,2.8-15.28,5.28-22.7,1.54-4.61,3.36-9.16,5.47-13.62,2.99-6.33,6.55-12.49,10.69-18.37l-85.01-.12ZM200.48,137.87c-28.77,16.99-53.29,40.62-71.33,68.69h76.43c4.84-15,10.66-28.97,17.29-41.55,12.33-23.38,26.99-41.04,43.06-52.28-23.02,4.7-45.16,13.17-65.45,25.14ZM123.1,216.56c-.84,1.48-1.66,2.98-2.47,4.48-.4.74-.8,1.49-1.18,2.24-.04.08-.08.15-.12.23-.45.86-.89,1.73-1.33,2.6-.41.83-.83,1.67-1.24,2.51-.35.71-.69,1.42-1.01,2.13-.19.4-.37.79-.56,1.19-.39.83-.77,1.66-1.13,2.49-.46,1.01-.9,2.03-1.34,3.05-.66,1.54-1.3,3.08-1.92,4.63-.31.77-.61,1.55-.92,2.32-3.91,10.11-7.06,20.51-9.41,31.11-.48,2.17-.93,4.35-1.34,6.54-.41,2.19-.79,4.37-1.14,6.57.01.01,0,.03,0,.04-.18,1.09-.35,2.19-.49,3.29-.16,1.1-.31,2.21-.44,3.32-.15,1.1-.28,2.21-.38,3.32-.14,1.11-.25,2.22-.34,3.33-.21,2.23-.38,4.46-.52,6.69-.08,1.11-.14,2.23-.18,3.35-.06,1.39-.11,2.78-.14,4.17l93.1.13c.43-34.91,5.24-69.27,13.94-99.73h-79.44ZM188.58,326.29l-93.11-.12v.25c0,.08.01.16.01.25,0,.24.01.49.01.73.03.92.06,1.85.09,2.77.01.09.02.19.02.29.08,2.21.2,4.41.37,6.61.08,1.12.17,2.24.27,3.36.18,2.24.42,4.47.69,6.7.26,2.23.56,4.45.9,6.66.32,2.14.68,4.28,1.07,6.41.04.16.07.33.09.5.39,2.11.81,4.21,1.27,6.3.01.02.01.04.01.06.47,2.17.98,4.32,1.51,6.47.27,1.09.55,2.17.84,3.25.29,1.08.58,2.16.89,3.23.3,1.08.61,2.15.94,3.22.28.96.58,1.91.88,2.86.05.16.1.33.15.49.28.89.57,1.77.86,2.65.07.18.13.36.19.55.25.75.51,1.51.77,2.26.33.92.65,1.85,1,2.78.21.6.43,1.21.66,1.81.34.91.69,1.81,1.04,2.72.27.7.55,1.41.84,2.11.2.53.42,1.05.63,1.57.6,1.45,1.21,2.9,1.84,4.33.33.75.66,1.5,1,2.24.82,1.83,1.67,3.64,2.55,5.44.35.73.7,1.44,1.06,2.16.4.81.81,1.61,1.23,2.4.32.63.65,1.26.99,1.89.33.64.66,1.27,1.01,1.9.44.82.89,1.64,1.35,2.45.09.16.18.33.27.49h79.6c-8.67-30.58-13.42-65.04-13.79-100.04ZM459.69,329.14c-1.58-1.71-3.23-3.38-4.96-5-.32-.31-.65-.61-.98-.91-1.56-1.42-3.15-2.79-4.77-4.09-1.5-1.22-3.02-2.38-4.57-3.49-.72-.52-1.44-1.02-2.17-1.52-3.56-2.42-7.24-4.59-11.01-6.5-1.68-.85-3.38-1.65-5.09-2.4-1.68-.75-3.39-1.44-5.1-2.08-1.69-.63-3.38-1.22-5.09-1.75-1.15-.37-2.31-.72-3.48-1.04-1.61-.44-3.22-.85-4.84-1.21-19.19-4.29-39.33-2.91-57.81,4.01-7.29,2.74-14.32,6.35-20.93,10.82-.74.49-1.47,1-2.19,1.52h-.01c-1.55,1.11-3.07,2.26-4.57,3.47-1.97,1.57-3.88,3.24-5.75,4.99-1.76,1.64-3.47,3.36-5.12,5.15-.18.18-.34.35-.5.53-1.57,1.72-3.07,3.48-4.5,5.27-1.78,2.23-3.45,4.52-5,6.85-.68,1-1.33,2.01-1.96,3.03-2.49,4.03-4.67,8.19-6.54,12.44-.01.01-.01.03-.02.04-5.75,13.11-8.57,27.16-8.49,41.16.01,1.64.06,3.27.15,4.91.15,2.67.39,5.32.74,7.98.56,4.21,1.39,8.39,2.48,12.51.13.5.27,1,.41,1.5.33,1.17.67,2.34,1.05,3.5.53,1.68,1.11,3.35,1.74,5,.6,1.6,1.25,3.18,1.94,4.74.04.09.08.17.12.26,2,4.55,4.36,8.97,7.06,13.24.43.68.87,1.35,1.32,2.02,1.55,2.34,3.22,4.63,5,6.86.8,1.01,1.63,2.01,2.48,3,.82.95,1.65,1.89,2.52,2.82,1.59,1.72,3.26,3.39,5,5.01.3.29.6.57.91.85,12.13,11.09,26.23,18.67,41.05,22.8,3.16.88,6.36,1.6,9.58,2.17,1.86.33,3.73.61,5.61.83,1.92.23,3.85.4,5.78.52,1.99.12,3.97.18,5.96.19,11.93.04,23.84-2.04,35.15-6.18t.02-.01c14.77-5.39,28.5-14.33,39.84-26.73,7.62-8.33,13.59-17.6,17.91-27.39.74-1.65,1.42-3.32,2.06-5,.62-1.65,1.21-3.32,1.74-5,.53-1.66,1.02-3.33,1.46-5,.23-.89.45-1.77.66-2.66,1.39-5.89,2.24-11.88,2.55-17.88,1.39-26.58-7.65-53.5-26.84-74.15ZM459.69,329.14c-1.58-1.71-3.23-3.38-4.96-5-.32-.31-.65-.61-.98-.91-1.56-1.42-3.15-2.79-4.77-4.09-1.5-1.22-3.02-2.38-4.57-3.49-.72-.52-1.44-1.02-2.17-1.52-3.56-2.42-7.24-4.59-11.01-6.5-1.68-.85-3.38-1.65-5.09-2.4-1.68-.75-3.39-1.44-5.1-2.08-1.69-.63-3.38-1.22-5.09-1.75-1.15-.37-2.31-.72-3.48-1.04-1.61-.44-3.22-.85-4.84-1.21-19.19-4.29-39.33-2.91-57.81,4.01-7.29,2.74-14.32,6.35-20.93,10.82-.74.49-1.47,1-2.19,1.52h-.01c-1.55,1.11-3.07,2.26-4.57,3.47-1.97,1.57-3.88,3.24-5.75,4.99-1.76,1.64-3.47,3.36-5.12,5.15-.18.18-.34.35-.5.53-1.57,1.72-3.07,3.48-4.5,5.27-1.78,2.23-3.45,4.52-5,6.85-.68,1-1.33,2.01-1.96,3.03-2.49,4.03-4.67,8.19-6.54,12.44-.01.01-.01.03-.02.04-5.75,13.11-8.57,27.16-8.49,41.16.01,1.64.06,3.27.15,4.91.15,2.67.39,5.32.74,7.98.56,4.21,1.39,8.39,2.48,12.51.13.5.27,1,.41,1.5.33,1.17.67,2.34,1.05,3.5.53,1.68,1.11,3.35,1.74,5,.6,1.6,1.25,3.18,1.94,4.74.04.09.08.17.12.26,2,4.55,4.36,8.97,7.06,13.24.43.68.87,1.35,1.32,2.02,1.55,2.34,3.22,4.63,5,6.86.8,1.01,1.63,2.01,2.48,3,.82.95,1.65,1.89,2.52,2.82,1.59,1.72,3.26,3.39,5,5.01.3.29.6.57.91.85,12.13,11.09,26.23,18.67,41.05,22.8,3.16.88,6.36,1.6,9.58,2.17,1.86.33,3.73.61,5.61.83,1.92.23,3.85.4,5.78.52,1.99.12,3.97.18,5.96.19,11.93.04,23.84-2.04,35.15-6.18t.02-.01c14.77-5.39,28.5-14.33,39.84-26.73,7.62-8.33,13.59-17.6,17.91-27.39.74-1.65,1.42-3.32,2.06-5,.62-1.65,1.21-3.32,1.74-5,.53-1.66,1.02-3.33,1.46-5,.23-.89.45-1.77.66-2.66,1.39-5.89,2.24-11.88,2.55-17.88,1.39-26.58-7.65-53.5-26.84-74.15ZM459.69,329.14c-1.58-1.71-3.23-3.38-4.96-5-.32-.31-.65-.61-.98-.91-1.56-1.42-3.15-2.79-4.77-4.09-1.5-1.22-3.02-2.38-4.57-3.49-.72-.52-1.44-1.02-2.17-1.52-3.56-2.42-7.24-4.59-11.01-6.5-1.68-.85-3.38-1.65-5.09-2.4-1.68-.75-3.39-1.44-5.1-2.08-1.69-.63-3.38-1.22-5.09-1.75-1.15-.37-2.31-.72-3.48-1.04-1.61-.44-3.22-.85-4.84-1.21-19.19-4.29-39.33-2.91-57.81,4.01-7.29,2.74-14.32,6.35-20.93,10.82-.74.49-1.47,1-2.19,1.52h-.01c-1.55,1.11-3.07,2.26-4.57,3.47-1.97,1.57-3.88,3.24-5.75,4.99-1.76,1.64-3.47,3.36-5.12,5.15-.18.18-.34.35-.5.53-1.57,1.72-3.07,3.48-4.5,5.27-1.78,2.23-3.45,4.52-5,6.85-.68,1-1.33,2.01-1.96,3.03-2.49,4.03-4.67,8.19-6.54,12.44-.01.01-.01.03-.02.04-5.75,13.11-8.57,27.16-8.49,41.16.01,1.64.06,3.27.15,4.91.15,2.67.39,5.32.74,7.98.56,4.21,1.39,8.39,2.48,12.51.13.5.27,1,.41,1.5.33,1.17.67,2.34,1.05,3.5.53,1.68,1.11,3.35,1.74,5,.6,1.6,1.25,3.18,1.94,4.74.04.09.08.17.12.26,2,4.55,4.36,8.97,7.06,13.24.43.68.87,1.35,1.32,2.02,1.55,2.34,3.22,4.63,5,6.86.8,1.01,1.63,2.01,2.48,3,.82.95,1.65,1.89,2.52,2.82,1.59,1.72,3.26,3.39,5,5.01.3.29.6.57.91.85,12.13,11.09,26.23,18.67,41.05,22.8,3.16.88,6.36,1.6,9.58,2.17,1.86.33,3.73.61,5.61.83,1.92.23,3.85.4,5.78.52,1.99.12,3.97.18,5.96.19,11.93.04,23.84-2.04,35.15-6.18t.02-.01c14.77-5.39,28.5-14.33,39.84-26.73,7.62-8.33,13.59-17.6,17.91-27.39.74-1.65,1.42-3.32,2.06-5,.62-1.65,1.21-3.32,1.74-5,.53-1.66,1.02-3.33,1.46-5,.23-.89.45-1.77.66-2.66,1.39-5.89,2.24-11.88,2.55-17.88,1.39-26.58-7.65-53.5-26.84-74.15Z"/>
            <path class="cls-3" d="M518.8,245.71c-3.21-8.86-6.97-17.52-11.29-25.92-1.86-3.65-3.84-7.24-5.91-10.78l-1.46-2.45h-.01c-19.15-31.75-46.08-58.44-78.03-77.3-33.76-19.92-72.42-30.59-111.77-30.84h-.11c-.5-.02-.98-.02-1.47-.02s-1.01.01-1.52.01c-39.4.26-78.07,10.93-111.83,30.85-31.95,18.86-58.88,45.55-78.02,77.3h-.03l-.72,1.23-.73,1.24c-19.95,34.06-30.49,73.03-30.49,112.71,0,14.79,1.47,29.48,4.34,43.86.43,2.13.88,4.25,1.37,6.36.12.55.25,1.11.39,1.67,1.25,5.27,2.7,10.5,4.35,15.67,1.21,3.86,2.54,7.68,3.97,11.47.86,2.28,1.76,4.54,2.69,6.8.94,2.25,1.92,4.49,2.93,6.72,1.14,2.51,2.33,4.99,3.56,7.45.82,1.63,1.66,3.26,2.52,4.88h0c.64,1.22,1.3,2.43,1.97,3.64.52.94,1.05,1.88,1.59,2.81.15.26.3.52.45.78.19.32.38.65.58.97l.44.76.22.38.21.37h.02c19.11,31.91,46.06,58.74,78.08,77.7,33.83,20.04,72.61,30.76,112.13,31.03.51,0,1.01,0,1.52,0s1.02,0,1.53,0c35.9-.25,71.19-9.12,102.71-25.77-2.95.68-5.92,1.24-8.91,1.69-2.69.41-5.4.73-8.11.95-2.49.22-4.98.35-7.48.41h-.01c-2.32.06-4.65.05-6.97-.02-9.74,3.52-19.73,6.33-29.9,8.41,3.74-2.63,7.42-5.62,11.03-8.96l1.36-1.25c-1.02-.18-2.04-.37-3.06-.58-2.01-.4-4-.85-5.98-1.36-.99-.25-1.97-.5-2.95-.78-12.17,10.17-25.03,15.89-38.26,17.04v-35.19c-.84-.59-1.67-1.19-2.5-1.81-1.69-1.25-3.36-2.56-5-3.93-.84-.69-1.67-1.39-2.5-2.1v43.02c-8.79-.77-17.51-3.63-25.93-8.43-8.43-4.81-16.56-11.58-24.2-20.18-15.21-17.14-28.21-41.26-37.71-69.89h51.16c-.27-.83-.53-1.66-.78-2.5-.5-1.66-.96-3.32-1.39-5-.21-.83-.42-1.66-.61-2.5h-51.5c-8.92-30.47-13.83-64.95-14.21-100.03l85.01.12c.59-.84,1.19-1.67,1.81-2.5,1.25-1.69,2.55-3.36,3.9-5,.69-.84,1.4-1.67,2.12-2.49l-92.83-.13c.46-35,5.41-69.39,14.38-99.74h90.78v87.51c.83-.73,1.66-1.44,2.5-2.14,1.64-1.36,3.31-2.67,5-3.92.83-.62,1.66-1.22,2.5-1.81v-79.64h90.79c5.61,19,9.65,39.45,12.01,60.84.87.22,1.73.46,2.6.7,1.74.48,3.47,1.01,5.19,1.58.87.29,1.74.58,2.61.89l-.12-1.14c-1.17-11.61-2.84-22.98-4.98-34.02-1.92-9.9-4.22-19.53-6.9-28.85h79.45c.3.54.61,1.07.9,1.61.39.69.77,1.38,1.14,2.07.4.74.8,1.48,1.19,2.23.52.98,1.02,1.96,1.52,2.94.01.01.01.02.01.03.46.9.91,1.8,1.35,2.71.37.74.73,1.49,1.08,2.25.27.56.53,1.12.79,1.68.36.77.71,1.54,1.06,2.32.03.06.06.13.09.21.37.82.73,1.64,1.09,2.47.16.38.33.77.49,1.16.31.71.61,1.42.89,2.13.11.26.22.52.32.79.3.7.58,1.4.85,2.11.19.47.37.94.55,1.41.24.59.47,1.18.68,1.78l.42,1.11c.31.83.62,1.66.9,2.5.38,1.06.75,2.11,1.1,3.17.37,1.06.72,2.11,1.05,3.18.34,1.07.68,2.13,1,3.2.34,1.07.65,2.15.95,3.22.62,2.15,1.2,4.31,1.75,6.48s1.06,4.34,1.54,6.53c.96,4.38,1.78,8.78,2.46,13.22.18,1.11.35,2.22.49,3.33.16,1.11.31,2.22.44,3.33.14,1.08.26,2.17.37,3.26.01.07.01.13.02.19.12,1.09.23,2.17.32,3.26.11,1.12.2,2.24.28,3.36.09,1.26.18,2.52.25,3.79.08,1.26.14,2.53.18,3.8.03.84.06,1.69.08,2.53.01.27.02.54.02.81l-42.3-.06c.72.83,1.42,1.66,2.11,2.51,1.21,1.47,2.38,2.97,3.51,4.49.13.17.26.35.38.52.61.83,1.21,1.66,1.79,2.5l34.51.05c0,.4-.01.8-.03,1.21-.03,1.17-.07,2.34-.13,3.51-.03.8-.07,1.6-.12,2.41-.06,1.14-.13,2.27-.22,3.41-.05.69-.1,1.38-.16,2.06-.09,1.16-.19,2.31-.31,3.46v.07c-.12,1.16-.24,2.31-.38,3.46-.13,1.16-.27,2.33-.43,3.48-.31,2.32-.65,4.63-1.03,6.94-.19,1.15-.39,2.3-.6,3.45-.38,2.06-.78,4.11-1.22,6.15-.35,1.66-.72,3.31-1.12,4.95-.4,1.7-.82,3.39-1.28,5.08-.15.61-.32,1.21-.49,1.82-.52,1.94-1.08,3.87-1.67,5.79-.3.99-.61,1.98-.93,2.97-.34,1.08-.7,2.17-1.07,3.25-.17.52-.35,1.03-.53,1.54-.13.4-.27.8-.42,1.21-.03.08-.05.15-.08.23.09,2.32.11,4.65.07,6.98-.04,2.51-.16,5.02-.36,7.53-.21,2.68-.51,5.37-.89,8.04-.39,2.74-.88,5.47-1.46,8.18-.11.5-.21,1-.33,1.49l3.15-6.69.9-1.92c.43-.92.86-1.85,1.28-2.77.84-1.86,1.66-3.73,2.45-5.61.4-.94.78-1.88,1.17-2.83,1.36-3.38,2.65-6.79,3.85-10.23.3-.86.59-1.72.88-2.59,4.06-12.08,7.06-24.51,8.98-37.14.14-.91.27-1.81.4-2.71.17-1.21.33-2.41.48-3.62.13-1.02.25-2.03.36-3.05.16-1.43.31-2.87.44-4.31.13-1.44.25-2.88.35-4.32.09-1.26.17-2.51.24-3.77.04-.81.08-1.63.12-2.44.01-.31.02-.63.04-.94.03-.86.06-1.73.08-2.59.06-2.05.09-4.1.09-6.14,0-26.05-4.54-51.79-13.29-76.03ZM222.87,478.46c12.33,23.38,26.99,41.04,43.06,52.28-23.12-4.72-45.36-13.25-65.73-25.31-28.86-17.09-53.41-40.87-71.42-69.1h76.61c4.87,15.21,10.75,29.37,17.48,42.13ZM202.37,426.33h-79.6c-.09-.16-.18-.33-.27-.49-.46-.81-.91-1.63-1.35-2.45-.35-.63-.69-1.26-1.01-1.9-.34-.63-.67-1.26-.99-1.89-.42-.79-.83-1.59-1.23-2.4-.36-.72-.71-1.43-1.06-2.16-.88-1.8-1.73-3.61-2.55-5.44-.34-.74-.68-1.49-1-2.24-.63-1.43-1.24-2.88-1.84-4.33-.21-.52-.43-1.04-.63-1.57-.29-.7-.57-1.41-.84-2.11-.35-.91-.7-1.81-1.04-2.72-.23-.6-.45-1.21-.66-1.81-.35-.93-.67-1.86-1-2.78-.26-.75-.52-1.51-.77-2.26-.06-.19-.12-.37-.19-.55-.29-.88-.58-1.76-.86-2.65-.05-.16-.1-.33-.15-.49-.3-.95-.6-1.9-.88-2.86-.33-1.07-.65-2.14-.94-3.22-.31-1.07-.61-2.15-.89-3.23-.3-1.08-.58-2.17-.84-3.25-.53-2.15-1.04-4.3-1.51-6.47,0-.02,0-.04-.01-.06-.46-2.09-.88-4.19-1.27-6.3-.02-.17-.05-.34-.09-.5-.39-2.13-.75-4.27-1.07-6.41-.34-2.21-.64-4.43-.9-6.66-.27-2.23-.51-4.46-.69-6.7-.11-1.12-.2-2.24-.27-3.36-.17-2.2-.29-4.4-.37-6.61,0-.1,0-.2-.02-.29-.03-.92-.06-1.85-.09-2.77,0-.24-.01-.49-.01-.73,0-.09-.01-.17-.01-.25v-.25l93.11.12c.37,35,5.12,69.46,13.79,100.04ZM188.6,316.29l-93.1-.13c.03-1.39.08-2.78.14-4.17.04-1.12.1-2.24.18-3.35.14-2.23.31-4.46.52-6.69.09-1.11.2-2.22.34-3.33.1-1.11.23-2.22.38-3.32.13-1.11.28-2.22.44-3.32.14-1.1.31-2.2.49-3.29,0,0,.01-.03,0-.04.35-2.2.73-4.38,1.14-6.57.41-2.19.86-4.37,1.34-6.54,2.35-10.6,5.5-21,9.41-31.11.31-.77.61-1.55.92-2.32.62-1.55,1.26-3.09,1.92-4.63.44-1.02.88-2.04,1.34-3.05.36-.83.74-1.66,1.13-2.49.19-.4.37-.79.56-1.19.32-.71.66-1.42,1.01-2.13.41-.84.83-1.68,1.24-2.51.44-.87.88-1.74,1.33-2.6.04-.08.08-.15.12-.23.38-.75.78-1.5,1.18-2.24.81-1.5,1.63-3,2.47-4.48h79.44c-8.7,30.46-13.51,64.82-13.94,99.73ZM205.58,206.56h-76.43c18.04-28.07,42.56-51.7,71.33-68.69,20.29-11.97,42.43-20.44,65.45-25.14-16.07,11.24-30.73,28.9-43.06,52.28-6.63,12.58-12.45,26.55-17.29,41.55ZM303.75,206.56h-87.64c19.53-58.55,51.99-94.82,87.64-97.92v97.92ZM313.75,206.56v-97.92c17.52,1.54,34.74,11.33,49.98,28.44,15.17,17.04,28.17,41.01,37.67,69.48h-87.65ZM411.92,206.56c-4.81-14.96-10.63-28.92-17.29-41.55-12.34-23.38-26.99-41.05-43.07-52.29,23.02,4.71,45.17,13.18,65.46,25.15,28.78,16.99,53.29,40.62,71.33,68.69h-76.43Z"/>
          </g>
        </g>
        <g id="Zoom">
          <path class="cls-3" d="M418.43,423.83c7.95-29.18,12.39-61.68,12.96-94.71l28.3.02c-1.58-1.71-3.23-3.38-4.96-5-.32-.31-.65-.61-.98-.91-1.56-1.42-3.15-2.79-4.77-4.09-1.5-1.22-3.02-2.38-4.57-3.49-.72-.52-1.44-1.02-2.17-1.52h-10.85c-.04-2.18-.09-4.35-.16-6.5-1.68-.85-3.38-1.65-5.09-2.4-1.68-.75-3.39-1.44-5.1-2.08-1.69-.63-3.38-1.22-5.09-1.75l.09,1.98c.17,3.57.28,7.16.35,10.71l-87.5-.11c-.74.49-1.47,1-2.19,1.52h-.01c-1.55,1.11-3.07,2.26-4.57,3.47-1.97,1.57-3.88,3.24-5.75,4.99-1.76,1.64-3.47,3.36-5.12,5.15-.18.18-.34.35-.5.53-1.57,1.72-3.07,3.48-4.5,5.27-1.78,2.23-3.45,4.52-5,6.85v82.07h-13.64c.13.5.27,1,.41,1.5.33,1.17.67,2.34,1.05,3.5.53,1.68,1.11,3.35,1.74,5,.6,1.6,1.25,3.18,1.94,4.74.04.09.08.17.12.26h8.38v15.26c1.55,2.34,3.22,4.63,5,6.86.8,1.01,1.63,2.01,2.48,3,.82.95,1.65,1.89,2.52,2.82,1.59,1.72,3.26,3.39,5,5.01v-32.95h81.86c-7.63,22.05-17.49,41.52-28.72,56.62l-1.6,2.15c1.86.33,3.73.61,5.61.83,1.92.23,3.85.4,5.78.52,1.99.12,3.97.18,5.96.19,4.12-6.03,8.04-12.57,11.7-19.51,6.53-12.36,12.27-26.07,17.09-40.8h64.13c.74-1.65,1.42-3.32,2.06-5,.62-1.65,1.21-3.32,1.74-5,.53-1.66,1.02-3.33,1.46-5h-64.89ZM402.83,423.83h-86.58v-94.87l100.14.13c-.59,33.16-5.25,65.73-13.56,94.74Z"/>
          <g class="cls-5">
            <path class="cls-4" d="M486.53,403.29c-.31,6-1.16,11.99-2.55,17.88-.21.89-.43,1.77-.66,2.66-.44,1.67-.93,3.34-1.46,5-.53,1.68-1.12,3.35-1.74,5-.64,1.68-1.32,3.35-2.06,5-4.32,9.79-10.29,19.06-17.91,27.39-11.34,12.4-25.07,21.34-39.84,26.73t-.02.01c-11.31,4.14-23.22,6.22-35.15,6.18-1.99-.01-3.97-.07-5.96-.19-1.93-.12-3.86-.29-5.78-.52-1.88-.22-3.75-.5-5.61-.83-3.22-.57-6.42-1.29-9.58-2.17-14.82-4.13-28.92-11.71-41.05-22.8-.31-.28-.61-.56-.91-.85-1.74-1.62-3.41-3.29-5-5.01-.87-.93-1.7-1.87-2.52-2.82-.85-.99-1.68-1.99-2.48-3-1.78-2.23-3.45-4.52-5-6.86-.45-.67-.89-1.34-1.32-2.02-2.7-4.27-5.06-8.69-7.06-13.24-.04-.09-.08-.17-.12-.26-.69-1.56-1.34-3.14-1.94-4.74-.63-1.65-1.21-3.32-1.74-5-.38-1.16-.72-2.33-1.05-3.5-.14-.5-.28-1-.41-1.5-1.09-4.12-1.92-8.3-2.48-12.51-.35-2.66-.59-5.31-.74-7.98-.09-1.64-.14-3.27-.15-4.91-.08-14,2.74-28.05,8.49-41.16.01-.01.01-.03.02-.04,1.87-4.25,4.05-8.41,6.54-12.44.63-1.02,1.28-2.03,1.96-3.03,1.55-2.33,3.22-4.62,5-6.85,1.43-1.79,2.93-3.55,4.5-5.27.16-.18.32-.35.5-.53,1.65-1.79,3.36-3.51,5.12-5.15,1.87-1.75,3.78-3.42,5.75-4.99,1.5-1.21,3.02-2.36,4.57-3.47h.01c.72-.52,1.45-1.03,2.19-1.52,6.61-4.47,13.64-8.08,20.93-10.82,18.48-6.92,38.62-8.3,57.81-4.01,1.62.36,3.23.77,4.84,1.21,1.17.32,2.33.67,3.48,1.04,1.71.53,3.4,1.12,5.09,1.75,1.71.64,3.42,1.33,5.1,2.08,1.71.75,3.41,1.55,5.09,2.4,3.77,1.91,7.45,4.08,11.01,6.5.73.5,1.45,1,2.17,1.52,1.55,1.11,3.07,2.27,4.57,3.49,1.62,1.3,3.21,2.67,4.77,4.09.33.3.66.6.98.91,1.73,1.62,3.38,3.29,4.96,5,19.19,20.65,28.23,47.57,26.84,74.15Z"/>
          </g>
        </g>
        <g id="Lupe">
          <path class="cls-1" d="M525.45,499.79l-4.64,5.08h-.01s-28.51-26.06-28.51-26.06l-7.08-6.48c2.29-3.05,4.42-6.19,6.36-9.39.41-.65.79-1.31,1.18-1.96,6.61-11.23,11.3-23.24,14.08-35.57.12-.49.22-.99.33-1.49.58-2.71,1.07-5.44,1.46-8.18.38-2.67.68-5.36.89-8.04.2-2.51.32-5.02.36-7.53.04-2.33.02-4.66-.07-6.98-.36-9.48-1.8-18.92-4.31-28.12h0c-2.86-10.5-7.11-20.67-12.74-30.23-1.63-2.78-3.37-5.49-5.24-8.15-.58-.84-1.18-1.67-1.79-2.5-.12-.17-.25-.35-.38-.52-1.13-1.52-2.3-3.02-3.51-4.49-.69-.85-1.39-1.68-2.11-2.51-.28-.33-.57-.65-.85-.97-2.93-3.34-6.08-6.55-9.43-9.62-12.72-11.63-27.2-20.13-42.49-25.51-.87-.31-1.74-.6-2.61-.89-1.72-.57-3.45-1.1-5.19-1.58-.87-.24-1.73-.48-2.6-.7-3.5-.9-7.03-1.65-10.58-2.23-30.11-5.01-61.6,1.13-87.92,18.12-1.45.94-2.89,1.9-4.3,2.91-.84.59-1.67,1.19-2.5,1.81-1.69,1.25-3.36,2.56-5,3.92-.84.7-1.67,1.41-2.5,2.14-.47.4-.93.82-1.39,1.23-3.03,2.71-5.95,5.6-8.75,8.66-.29.32-.58.64-.86.96-.16.17-.32.35-.48.53-.29.32-.57.65-.85.98-.72.82-1.43,1.65-2.12,2.49-1.35,1.64-2.65,3.31-3.9,5-.62.83-1.22,1.66-1.81,2.5-4.14,5.88-7.7,12.04-10.69,18.37-2.11,4.46-3.93,9.01-5.47,13.62-2.48,7.42-4.24,15.02-5.28,22.7-.78,5.75-1.16,11.54-1.13,17.32.01,4.66.29,9.31.83,13.93.51,4.35,1.25,8.68,2.21,12.97.07.33.15.67.23,1,.19.84.4,1.67.61,2.5.43,1.68.89,3.34,1.39,5,.25.84.51,1.67.78,2.5,1.73,5.36,3.83,10.62,6.31,15.74,2.16,4.5,4.62,8.89,7.35,13.14,3.54,5.49,7.55,10.77,12.02,15.75,2.74,3.05,5.65,6,8.73,8.82.75.69,1.51,1.36,2.27,2.03.83.71,1.66,1.41,2.5,2.1,1.64,1.37,3.31,2.68,5,3.93.83.62,1.66,1.22,2.5,1.81,3.08,2.18,6.24,4.21,9.46,6.06,5.72,3.31,11.64,6.13,17.69,8.43,1.69.65,3.39,1.26,5.1,1.83,1.99.67,3.99,1.28,6.01,1.83.98.28,1.96.53,2.95.78,1.98.51,3.97.96,5.98,1.36,1.02.21,2.04.4,3.06.58,1.07.19,2.15.36,3.22.52,4.74.7,9.51,1.13,14.29,1.28,2.32.07,4.65.08,6.97.02h.01c2.5-.06,4.99-.19,7.48-.41,2.71-.22,5.42-.54,8.11-.95,2.99-.45,5.96-1.01,8.91-1.69,7.61-1.71,15.08-4.16,22.31-7.32,11.9-5.18,23.1-12.3,33.17-21.33h.01l25.38,23.2,10.21,9.33-4.65,5.08,184.14,168.35,26.02-28.47-184.13-168.34ZM420.31,492.95s-.01.01-.02.01c-11.31,4.14-23.22,6.22-35.15,6.18-1.99-.01-3.97-.07-5.96-.19-1.93-.12-3.86-.29-5.78-.52-1.88-.22-3.75-.5-5.61-.83-3.22-.57-6.42-1.29-9.58-2.17-14.82-4.13-28.92-11.71-41.05-22.8-.31-.28-.61-.56-.91-.85-1.74-1.62-3.41-3.29-5-5.01-.87-.93-1.7-1.87-2.52-2.82-.85-.99-1.68-1.99-2.48-3-1.78-2.23-3.45-4.52-5-6.86-.45-.67-.89-1.34-1.32-2.02-2.7-4.27-5.06-8.69-7.06-13.24-.04-.09-.08-.17-.12-.26-.69-1.56-1.34-3.14-1.94-4.74-.63-1.65-1.21-3.32-1.74-5-.38-1.16-.72-2.33-1.05-3.5-.14-.5-.28-1-.41-1.5-1.09-4.12-1.92-8.3-2.48-12.51-.35-2.66-.59-5.31-.74-7.98-.09-1.64-.14-3.27-.15-4.91-.08-14,2.74-28.05,8.49-41.16.01-.01.01-.03.02-.04,1.87-4.25,4.05-8.41,6.54-12.44.63-1.02,1.28-2.03,1.96-3.03,1.55-2.33,3.22-4.62,5-6.85,1.43-1.79,2.93-3.55,4.5-5.27.16-.18.32-.35.5-.53,1.65-1.79,3.36-3.51,5.12-5.15,1.87-1.75,3.78-3.42,5.75-4.99,1.5-1.21,3.02-2.36,4.57-3.47h.01c.72-.52,1.45-1.03,2.19-1.52,6.61-4.47,13.64-8.08,20.93-10.82,18.48-6.92,38.62-8.3,57.81-4.01,1.62.36,3.23.77,4.84,1.21,1.17.32,2.33.67,3.48,1.04,1.71.53,3.4,1.12,5.09,1.75,1.71.64,3.42,1.33,5.1,2.08,1.71.75,3.41,1.55,5.09,2.4,3.77,1.91,7.45,4.08,11.01,6.5.73.5,1.45,1,2.17,1.52,1.55,1.11,3.07,2.27,4.57,3.49,1.62,1.3,3.21,2.67,4.77,4.09.33.3.66.6.98.91,1.73,1.62,3.38,3.29,4.96,5,19.19,20.65,28.23,47.57,26.84,74.15-.31,6-1.16,11.99-2.55,17.88-.21.89-.43,1.77-.66,2.66-.44,1.67-.93,3.34-1.46,5-.53,1.68-1.12,3.35-1.74,5-.64,1.68-1.32,3.35-2.06,5-4.32,9.79-10.29,19.06-17.91,27.39-11.34,12.4-25.07,21.34-39.84,26.73Z"/>
        </g>
      </g>
    </g>
  </g>
</svg>