<?xml version="1.0" encoding="UTF-8"?>
<svg id="Musthave" xmlns="http://www.w3.org/2000/svg" viewBox="0 0 800 800">
  <defs>
    <style>
      .cls-1 {
        fill: #42210b;
      }

      .cls-1, .cls-2, .cls-3, .cls-4, .cls-5, .cls-6 {
        stroke-width: 0px;
      }

      .cls-2 {
        fill: #206289;
      }

      .cls-3 {
        fill: #73bbe7;
      }

      .cls-4 {
        fill: #b47d49;
      }

      .cls-5 {
        fill: #b9ddf3;
      }

      .cls-6 {
        fill: #603813;
      }
    </style>
  </defs>
  <g id="_0036_THK_AnonyPseudonym" data-name="0036_THK_AnonyPseudonym">
    <g id="Anonym">
      <g id="Haare_hinten" data-name="Haare hinten">
        <path class="cls-1" d="M581.61,522.56c14.68,9.62,19.86,28.21,12.91,42.6-5.82,12.05-19.28,19.39-33.56,18.07-2.87,19.89-19.53,32.77-34.86,30.98-10.64-1.23-20-9.46-24.53-20.65-10.61,6-22.77,7.48-32,3.56,34.14-19.93,59.25-53.82,67.36-93.68,4.61,2.74,9.99,4.31,15.71,4.31h0c17.03,0,30.98-13.94,30.98-30.98v-11.62c0-17.04-13.95-30.98-30.98-30.98h0c-4.6,0-8.97,1.01-12.9,2.83v-28.01c-8.38,5.53-19.56,2.15-24.71-6.82-4.85-8.45-3.43-20.24,3.94-26.59-12.05,9.54-28.15,9.36-39.98-.15-14-11.26-15.08-30.06-15.17-32-1.59-.87-19.54-11.11-25.54-33.82-4.52.74-9.58.67-14.85-.49,6.7,16.51,1.34,35.55-12.86,46-14.55,10.72-34.91,9.86-48.67-2.16,1.32,18.92-8.93,29.32-17.61,32.48-16.57,6.02-29.97-3.01-35.5-3.01-1.29,0,4.95,18.72-9.9,32.27-7.78,7.11-25.82,12.26-37.86,7.53-.81-.35-1.72-.75-2.71-1.23v14.57c-2.91-.91-6-1.4-9.19-1.4-17.04,0-30.98,13.94-30.98,30.98v11.62c0,17.04,13.94,30.98,30.98,30.98,4.67,0,9.11-1.05,13.09-2.92,4.63,20.55,14.82,47.36,37.43,70.05,3.35,3.36,6.76,6.42,10.15,9.19,3.59,12.28-2.06,25.25-12.19,30.14-12.43,6-29.92-.98-34.85-16.78-26.14,1.41-45.14-16.52-45.18-33.56-.05-16.85,18.45-27.88,19.36-28.4-27.82-2.46-49-24.2-50.35-49.05-1.07-19.86,10.65-39.22,29.7-49.06-2.23-2.24-20.3-21.08-16.79-49.05,3.4-27.09,24.28-40.81,27.11-42.6-14.1-18.42-15.55-43.31-3.87-61.97,13.48-21.53,41.9-30.73,67.13-20.65.11-2.53,2.3-38.58,33.56-56.8,23.43-13.65,53.54-11.66,76.16,5.16,11.25-13.09,28.91-18.64,45.18-14.2,17.65,4.82,30.59,20.55,32.21,39.24.03.26.05.52.07.78.49-.09,1.71-.3,3.53-.5,11.27-1.3,45.51-2.64,71.34,23.74,24.94,25.48,23.55,57.93,23.24,63.25,20.41,9.57,34.23,29.28,36.14,51.64,1.97,23.01-8.97,45.38-28.4,58.09,16.78,7.9,27.79,24.39,28.4,42.6.66,19.82-11.12,38.32-29.69,46.47Z"/>
        <path class="cls-1" d="M583.63,465.15v11.62c0,17.04-13.95,30.98-30.98,30.98h0c-5.72,0-11.1-1.57-15.71-4.31-8.11,39.86-33.22,73.75-67.36,93.68-1.46-.62-2.85-1.38-4.14-2.27-14-9.63-17.88-35.64-1.29-55.51-56.37,1.29-112.74,2.58-169.11,3.88l12.91,36.14c.78,1.55,1.4,3.12,1.86,4.71-3.39-2.77-6.8-5.83-10.15-9.19-22.61-22.69-32.8-49.5-37.43-70.05-3.98,1.87-8.42,2.92-13.09,2.92-17.04,0-30.98-13.94-30.98-30.98v-11.62c0-17.04,13.94-30.98,30.98-30.98,3.19,0,6.28.49,9.19,1.4v-14.57c.99.48,1.9.88,2.71,1.23,12.04,4.73,30.08-.42,37.86-7.53,14.85-13.55,8.61-32.27,9.9-32.27,5.53,0,18.93,9.03,35.5,3.01,8.68-3.16,18.93-13.56,17.61-32.48,13.76,12.02,34.12,12.88,48.67,2.16,14.2-10.45,19.56-29.49,12.86-46,5.27,1.16,10.33,1.23,14.85.49,6,22.71,23.95,32.95,25.54,33.82.09,1.94,1.17,20.74,15.17,32,11.83,9.51,27.93,9.69,39.98.15-7.37,6.35-8.79,18.14-3.94,26.59,5.15,8.97,16.33,12.35,24.71,6.82v28.01c3.93-1.82,8.3-2.83,12.9-2.83h0c17.03,0,30.98,13.94,30.98,30.98Z"/>
      </g>
      <g id="Gesicht">
        <g id="Gesicht-2" data-name="Gesicht">
          <path class="cls-4" d="M583.63,465.15v11.62c0,17.04-13.95,30.98-30.98,30.98h0c-5.72,0-11.1-1.57-15.71-4.31-8.11,39.86-33.22,73.75-67.36,93.68-20.77,12.13-44.88,19.09-70.54,19.09-11.44-.01-29.55-1.41-50.03-9.24-5.18-1.97-21.89-8.72-39.2-22.9-3.39-2.77-6.8-5.83-10.15-9.19-22.61-22.69-32.8-49.5-37.43-70.05-3.98,1.87-8.42,2.92-13.09,2.92-17.04,0-30.98-13.94-30.98-30.98v-11.62c0-17.04,13.94-30.98,30.98-30.98,3.19,0,6.28.49,9.19,1.4v-14.57c.99.48,1.9.88,2.71,1.23,12.04,4.73,30.08-.42,37.86-7.53,14.85-13.55,8.61-32.27,9.9-32.27,5.53,0,18.93,9.03,35.5,3.01,8.68-3.16,18.93-13.56,17.61-32.48,13.76,12.02,34.12,12.88,48.67,2.16,14.2-10.45,19.56-29.49,12.86-46,5.27,1.16,10.33,1.23,14.85.49,6,22.71,23.95,32.95,25.54,33.82.09,1.94,1.17,20.74,15.17,32,11.83,9.51,27.93,9.69,39.98.15-7.37,6.35-8.79,18.14-3.94,26.59,5.15,8.97,16.33,12.35,24.71,6.82v28.01c3.93-1.82,8.3-2.83,12.9-2.83h0c17.03,0,30.98,13.94,30.98,30.98Z"/>
        </g>
        <g id="Ohr_rechts" data-name="Ohr rechts">
          <path class="cls-6" d="M557.16,456.79c2.18.02,5.28,8.84,2.9,16.87-1.71,5.75-6.36,11.54-8.23,10.78-3.59-1.46,1.55-27.68,5.33-27.64Z"/>
        </g>
        <g id="Ohr_links" data-name="Ohr links">
          <path class="cls-6" d="M242.68,456.79c-2.18.02-5.28,8.84-2.9,16.87,1.71,5.75,6.36,11.54,8.23,10.78,3.59-1.46-1.55-27.68-5.33-27.64Z"/>
        </g>
      </g>
      <g id="Haare_vorne" data-name="Haare vorne">
        <path class="cls-1" d="M480.58,236.77c-1.82.2-3.04.41-3.53.5-.02-.26-.04-.52-.07-.78,1.19,0,2.39.1,3.6.28Z"/>
      </g>
      <g id="Blatt">
        <polygon class="cls-5" points="530.46 320.49 530.46 620.21 272.45 620.21 272.45 250.84 461.45 250.84 530.46 320.49"/>
        <polygon class="cls-3" points="461.45 320.49 461.45 250.84 530.46 320.49 461.45 320.49"/>
      </g>
      <g id="Fragezeichen">
        <path class="cls-2" d="M424.48,553.78h0c0,12.61-10.13,22.83-22.62,22.83h0c-12.49,0-22.62-10.22-22.62-22.83h0c0-12.61,10.13-22.83,22.62-22.83h0c12.49,0,22.62,10.22,22.62,22.83Z"/>
        <path class="cls-2" d="M485.84,388.32c0,11.64-2.75,22.54-8.17,32.39-5.34,9.69-15.27,20.96-30.38,34.47-11.67,10.45-16.38,15.75-18.25,18.35-2.57,3.55-4.51,7.72-5.75,12.37-1.31,4.88-2.08,13.21-2.29,24.74l-.1,5.57h-39.67l-.16-5.52c-.11-4.01-.16-7.11-.16-9.2,0-12.48,1.8-23.48,5.35-32.69,2.63-6.98,6.9-14.11,12.69-21.16,4.22-5.09,11.44-12.16,22.08-21.64,9.83-8.75,16.21-15.67,18.99-20.57,2.63-4.63,3.91-9.57,3.91-15.09,0-10.21-3.89-18.98-11.9-26.81-8.05-7.88-17.67-11.71-29.42-11.71s-20.5,3.45-28,10.53c-7.54,7.11-12.6,18.69-15.04,34.4l-.84,5.4-41.65-5,.67-5.65c2.92-24.19,11.84-43.07,26.5-56.13,14.65-13.05,34.11-19.66,57.87-19.66,25.1,0,45.52,7.09,60.67,21.07,15.31,14.11,23.06,31.46,23.06,51.56Z"/>
      </g>
    </g>
  </g>
</svg>