<?xml version="1.0" encoding="UTF-8"?>
<svg id="Musthave" xmlns="http://www.w3.org/2000/svg" viewBox="0 0 800 800">
  <defs>
    <style>
      .cls-1 {
        fill: #308fc9;
      }

      .cls-1, .cls-2, .cls-3, .cls-4, .cls-5, .cls-6, .cls-7 {
        stroke-width: 0px;
      }

      .cls-2 {
        fill: #206289;
      }

      .cls-3 {
        fill: #dddddc;
      }

      .cls-4 {
        fill: #cae08f;
      }

      .cls-5 {
        fill: #73bbe7;
      }

      .cls-6 {
        fill: #b9ddf3;
      }

      .cls-7 {
        fill: #b0d157;
      }
    </style>
  </defs>
  <g id="_0038_THK_Datensicherheit" data-name="0038_THK_Datensicherheit">
    <g id="Datensicherheit">
      <g id="Repositorium">
        <g>
          <path class="cls-2" d="M682.42,129.35v.04c-.21,7.44-69.36,13.47-154.63,13.47s-154.41-6.03-154.62-13.47v-.04c0-7.45,69.36-9.68,154.76-9.68s154.49,2.23,154.49,9.68Z"/>
          <g>
            <path class="cls-2" d="M383.08,247.45v9.53c-6.36-1.47-9.86-3.07-9.91-4.73v-.03c0-1.68,3.51-3.29,9.91-4.77Z"/>
            <path class="cls-2" d="M682.42,252.22v.03c-.04,1.67-3.54,3.26-9.91,4.73v-9.53c6.4,1.48,9.91,3.09,9.91,4.77Z"/>
          </g>
          <g>
            <path class="cls-2" d="M682.42,375.08v.04c-.04,1.67-3.54,3.26-9.91,4.73v-9.54c6.4,1.48,9.91,3.09,9.91,4.77Z"/>
            <path class="cls-2" d="M383.08,370.31v9.54c-6.36-1.47-9.86-3.07-9.91-4.73v-.04c0-1.68,3.51-3.29,9.91-4.77Z"/>
          </g>
          <g>
            <path class="cls-5" d="M672.51,343.97v35.88c-22.06,5.1-78.54,8.73-144.72,8.73-42.63,0-81.23-1.51-109.2-3.94-15.46-1.34-27.66-2.97-35.51-4.79v-35.88c22.07,5.11,78.53,8.74,144.71,8.74s122.65-3.63,144.72-8.74Z"/>
            <path class="cls-5" d="M672.51,221.11v35.87c-22.06,5.11-78.54,8.74-144.72,8.74-42.63,0-81.23-1.51-109.2-3.94-15.46-1.35-27.66-2.98-35.51-4.8v-35.87c22.07,5.1,78.53,8.73,144.71,8.73s122.65-3.63,144.72-8.73Z"/>
          </g>
          <path class="cls-6" d="M682.43,375.12v86.95c0,7.46-72.03,20.42-157.43,20.42s-151.83-12.96-151.83-20.42v-86.95c.05,1.66,3.55,3.26,9.91,4.73,7.85,1.82,20.05,3.45,35.51,4.79,27.97,2.43,66.57,3.94,109.2,3.94,66.18,0,122.66-3.63,144.72-8.73,6.37-1.47,9.87-3.06,9.91-4.73h.01Z"/>
          <path class="cls-6" d="M682.43,129.39v86.95c0,1.68-3.51,3.29-9.92,4.77-22.07,5.1-78.54,8.73-144.72,8.73s-122.64-3.63-144.71-8.73c-6.4-1.48-9.91-3.09-9.91-4.77v-86.95c.21,7.44,69.36,13.47,154.62,13.47s154.42-6.03,154.63-13.47h.01Z"/>
          <path class="cls-6" d="M682.43,252.25v86.95c0,1.68-3.51,3.29-9.92,4.77-22.07,5.11-78.54,8.74-144.72,8.74s-122.64-3.63-144.71-8.74c-6.4-1.48-9.91-3.09-9.91-4.77v-86.95c.05,1.66,3.55,3.26,9.91,4.73,7.85,1.82,20.05,3.45,35.51,4.8,27.97,2.43,66.57,3.94,109.2,3.94,66.18,0,122.66-3.63,144.72-8.74,6.37-1.47,9.87-3.06,9.91-4.73h.01Z"/>
        </g>
      </g>
      <g id="Schild">
        <g>
          <path class="cls-4" d="M504.81,292.24c0,193.47-92.95,295.94-192.46,387.28-.29.27-.59.54-.88.81-.09-.09-.19-.16-.28-.26-.09.1-.19.17-.28.26-.29-.27-.59-.54-.88-.81-99.52-91.34-192.46-193.81-192.46-387.28,47.67-.14,56.24-40.92,56.24-89.79h274.76c0,48.87,8.57,89.65,56.24,89.79Z"/>
          <path class="cls-7" d="M504.84,282.24c-18.18-.06-29.96-6.75-37.07-21.07-6.28-12.64-9.2-31.3-9.2-58.72v-10H163.81v10c0,27.42-2.93,46.08-9.2,58.72-7.11,14.32-18.89,21.01-37.07,21.07l-9.97.03v9.97c0,89.86,19.71,167.38,60.27,236.97,36.75,63.06,86.81,113.05,135.43,157.68l.05.05.05.05c.24.21.47.43.71.65l5.91,5.53,1.14,1.18.06-.06.06.06,1.14-1.18,5.91-5.53c.24-.22.47-.44.71-.65l.05-.05.05-.05c48.62-44.63,98.68-94.62,135.43-157.68,40.56-69.59,60.27-147.11,60.27-236.97v-9.97l-9.97-.03ZM311.47,680.33c-.09-.09-.19-.16-.28-.26-.09.1-.19.17-.28.26-.29-.27-.59-.54-.88-.81-99.52-91.34-192.46-193.81-192.46-387.28,47.67-.14,56.24-40.92,56.24-89.79h274.76c0,48.87,8.57,89.65,56.24,89.79,0,193.47-92.95,295.94-192.46,387.28-.29.27-.59.54-.88.81Z"/>
        </g>
      </g>
      <g id="Siegel">
        <g id="Schleife">
          <path class="cls-1" d="M393.71,565.71l-33.16-18.31-19.14,32.32c-6.76-25.23-13.52-50.47-20.29-75.7h0l-13.16-49.09-6.72,25.09-3.11,11.61-17.17,64.09-19.56-32.43-32.74,18.42c5.72-21.37,11.44-42.73,17.17-64.09l3.11-11.62,31.72-118.37,52.3,14.01-3.56,13.28,12.3-3.29,31.72,118.37,3.11,11.62,17.17,64.09Z"/>
          <path class="cls-5" d="M414.49,356.53c-.6,4.84-2.64,9.55-6.15,13.42l-10.26,11.36-2.5,15.11c-.85,5.11-3.22,9.6-6.59,13.08-3.14,3.78-7.42,6.66-12.49,8.03l-14.79,4.01-10.26,11.35c-3.5,3.87-7.97,6.38-12.73,7.47-4.64,1.45-9.76,1.54-14.72-.03l-14.59-4.62-14.79,4.01c-5.07,1.38-10.22,1.05-14.84-.62-4.65-1.31-8.97-3.97-12.29-7.97l-9.78-11.78-14.59-4.61c-4.97-1.57-9.1-4.59-12.06-8.45-3.27-3.64-5.49-8.25-6.13-13.44l-1.86-15.2-9.78-11.77c-3.34-4.02-5.18-8.8-5.59-13.67v-.05c-.76-4.79-.12-9.85,2.13-14.53l6.64-13.78-1.86-15.2c-.64-5.21.41-10.26,2.72-14.59,1.95-4.43,5.21-8.33,9.63-11.04l13.06-8.01,6.64-13.78c2.26-4.71,5.85-8.37,10.11-10.76.03-.02.06-.04.08-.05,4.04-2.67,8.89-4.18,14.07-4.07l15.3.32,13.06-8.01c4.45-2.73,9.45-3.87,14.33-3.58,4.87-.08,9.8,1.27,14.12,4.18l12.7,8.54,15.31.32c5.17.11,9.95,1.81,13.87,4.65,4.19,2.57,7.66,6.4,9.74,11.23l6.07,14.06,12.7,8.54c4.34,2.92,7.45,7,9.22,11.56,0,0,0,.03.02.04,2.08,4.39,2.88,9.41,2.04,14.54l-2.49,15.09,6.07,14.07c2.07,4.78,2.48,9.88,1.5,14.66Z"/>
          <path class="cls-2" d="M385.76,338.26c0,3.58-.25,7.09-.74,10.53-.15,1.09-.33,2.16-.53,3.23-2.47,13.23-8.43,25.23-16.88,35.01-.71.83-1.45,1.63-2.2,2.42-8.93,9.45-20.31,16.57-33.11,20.33-1.05.32-2.12.61-3.19.86-5.74,1.42-11.74,2.17-17.91,2.17-7.26,0-14.29-1.04-20.93-2.98-1.07-.31-2.12-.64-3.17-1-12.6-4.29-23.68-11.88-32.22-21.71-.71-.82-1.41-1.65-2.08-2.5-8.03-10.09-13.5-22.32-15.42-35.68-.16-1.08-.29-2.18-.4-3.28-.24-2.44-.37-4.92-.37-7.43,0-11.01,2.39-21.47,6.68-30.89.46-1.01.94-2.02,1.45-3.01,6-11.75,15.02-21.69,26.05-28.81.92-.59,1.86-1.17,2.81-1.73,11.02-6.44,23.84-10.14,37.52-10.15h.08c1.07,0,2.13.02,3.18.08,13.62.56,26.28,4.78,37.05,11.7.93.6,1.85,1.21,2.75,1.85,10.68,7.55,19.3,17.85,24.82,29.87.46,1.01.9,2.02,1.32,3.05,3.51,8.65,5.45,18.12,5.45,28.03Z"/>
          <path class="cls-3" d="M378.7,338.26c0,3.24-.23,6.42-.67,9.53-.14.99-.3,1.96-.48,2.93-2.24,11.98-7.63,22.84-15.28,31.69-.65.75-1.31,1.48-1.99,2.19-8.08,8.56-18.38,15-29.97,18.41-.95.29-1.92.55-2.89.78-5.2,1.28-10.62,1.96-16.21,1.96-6.57,0-12.94-.94-18.94-2.7-.97-.28-1.92-.58-2.87-.9-11.41-3.89-21.43-10.75-29.17-19.65-.65-.74-1.28-1.5-1.88-2.26-7.27-9.14-12.22-20.2-13.96-32.3-.14-.98-.26-1.97-.37-2.97-.22-2.21-.33-4.46-.33-6.73,0-9.97,2.16-19.44,6.05-27.96.42-.92.85-1.83,1.31-2.72,5.44-10.63,13.6-19.63,23.58-26.08.83-.54,1.68-1.05,2.54-1.56,9.98-5.83,21.58-9.18,33.96-9.19h.07c.97,0,1.93.02,2.88.07,12.32.51,23.79,4.33,33.54,10.59.84.54,1.68,1.1,2.49,1.68,9.67,6.84,17.47,16.16,22.46,27.04.42.91.82,1.83,1.19,2.76,3.18,7.83,4.93,16.4,4.93,25.37Z"/>
        </g>
        <g id="Sterne">
          <g>
            <polygon class="cls-1" points="311.19 277.44 313.27 283.83 319.99 283.83 314.55 287.78 316.63 294.17 311.19 290.22 305.76 294.17 307.83 287.78 302.4 283.83 309.12 283.83 311.19 277.44"/>
            <polygon class="cls-1" points="312.02 377.36 314.09 383.75 320.81 383.75 315.38 387.7 317.45 394.09 312.02 390.14 306.58 394.09 308.66 387.7 303.22 383.75 309.94 383.75 312.02 377.36"/>
            <polygon class="cls-1" points="260.94 327.69 263.01 334.08 269.73 334.08 264.3 338.03 266.37 344.42 260.94 340.47 255.5 344.42 257.58 338.03 252.15 334.08 258.86 334.08 260.94 327.69"/>
            <polygon class="cls-1" points="361.44 327.69 363.52 334.08 370.24 334.08 364.8 338.03 366.88 344.42 361.44 340.47 356.01 344.42 358.08 338.03 352.65 334.08 359.37 334.08 361.44 327.69"/>
            <polygon class="cls-1" points="286.91 284.25 288.99 290.63 295.7 290.63 290.27 294.58 292.34 300.97 286.91 297.02 281.47 300.97 283.55 294.58 278.12 290.63 284.83 290.63 286.91 284.25"/>
            <polygon class="cls-1" points="336.72 371.34 338.8 377.72 345.51 377.72 340.08 381.67 342.16 388.06 336.72 384.11 331.29 388.06 333.36 381.67 327.93 377.72 334.65 377.72 336.72 371.34"/>
            <polygon class="cls-1" points="268.52 352.89 270.59 359.28 277.31 359.28 271.87 363.23 273.95 369.62 268.52 365.67 263.08 369.62 265.16 363.23 259.72 359.28 266.44 359.28 268.52 352.89"/>
            <polygon class="cls-1" points="355.41 303.19 357.48 309.58 364.2 309.58 358.77 313.53 360.84 319.92 355.41 315.97 349.97 319.92 352.05 313.53 346.61 309.58 353.33 309.58 355.41 303.19"/>
            <polygon class="cls-1" points="268.58 301.39 270.66 307.78 277.38 307.78 271.94 311.73 274.02 318.12 268.58 314.17 263.15 318.12 265.23 311.73 259.79 307.78 266.51 307.78 268.58 301.39"/>
            <polygon class="cls-1" points="355.23 351.32 357.31 357.71 364.03 357.71 358.59 361.65 360.67 368.04 355.23 364.1 349.8 368.04 351.87 361.65 346.44 357.71 353.16 357.71 355.23 351.32"/>
            <polygon class="cls-1" points="287.09 370 289.17 376.39 295.89 376.39 290.45 380.34 292.53 386.73 287.09 382.78 281.66 386.73 283.73 380.34 278.3 376.39 285.02 376.39 287.09 370"/>
            <polygon class="cls-1" points="337.35 282.96 339.42 289.35 346.14 289.35 340.7 293.3 342.78 299.69 337.35 295.74 331.91 299.69 333.99 293.3 328.55 289.35 335.27 289.35 337.35 282.96"/>
          </g>
        </g>
      </g>
    </g>
  </g>
</svg>