<?xml version="1.0" encoding="UTF-8"?>
<svg id="Nachbau" xmlns="http://www.w3.org/2000/svg" viewBox="0 0 800 800">
  <defs>
    <style>
      .cls-1 {
        fill: #308fc9;
      }

      .cls-1, .cls-2, .cls-3, .cls-4 {
        stroke-width: 0px;
      }

      .cls-2 {
        fill: #206289;
      }

      .cls-3 {
        fill: #73bbe7;
      }

      .cls-4 {
        fill: #b9ddf3;
      }
    </style>
  </defs>
  <g id="_0038_THK_Buch" data-name="0038_THK_Buch">
    <g id="Buch">
      <g id="Buch-2" data-name="Buch">
        <path class="cls-1" d="M363.06,618.89H77.1V200.56h23.19v398.89c43.74.25,90.39,2,139.58,5.84,43.27,3.38,84.4,8.05,123.19,13.6Z"/>
        <path class="cls-1" d="M722.9,200.56v418.33h-287.22c38.8-5.55,79.93-10.22,123.2-13.6,49.19-3.84,95.84-5.59,139.58-5.84V200.56h24.44Z"/>
        <path class="cls-4" d="M399.63,200.56l-.51,418.33h-.02v5.49c-11.78-1.91-23.79-3.75-36.04-5.49-38.79-5.55-79.92-10.22-123.19-13.6-49.19-3.84-95.84-5.59-139.58-5.84V175.62c44.62.2,92.4,1.98,142.9,6.01,55.78,4.44,107.88,11.07,155.91,18.92h.53Z"/>
        <path class="cls-4" d="M698.46,175.62v423.82c-43.74.25-90.39,2-139.58,5.84-43.27,3.38-84.4,8.05-123.2,13.6-12.25,1.74-24.26,3.58-36.03,5.49v-5.49h-.53l.51-418.33h.02c48.03-7.85,100.13-14.48,155.91-18.92,50.5-4.03,98.28-5.81,142.9-6.01Z"/>
        <rect class="cls-3" x="397.33" y="200.56" width="5" height="423.82"/>
      </g>
      <g id="Textlinien">
        <g id="links">
          <path class="cls-2" d="M359.3,270.65c-25.59-5.23-51.59-9.47-77.27-12.62-22.82-2.8-45.97-4.8-68.8-5.95-21.87-1.1-44.04-1.45-65.89-1.05l-.09-5c21.96-.41,44.25-.05,66.23,1.06,22.95,1.16,46.22,3.17,69.16,5.98,25.82,3.16,51.95,7.43,77.67,12.68l-1,4.9Z"/>
          <path class="cls-2" d="M359.3,321.42c-25.59-5.23-51.59-9.47-77.27-12.62-22.83-2.8-45.97-4.8-68.8-5.95-21.86-1.1-44.03-1.46-65.89-1.05l-.09-5c21.97-.41,44.25-.05,66.23,1.06,22.95,1.16,46.22,3.17,69.16,5.98,25.81,3.16,51.94,7.43,77.67,12.68l-1,4.9Z"/>
          <path class="cls-2" d="M359.3,372.19c-25.59-5.23-51.59-9.47-77.27-12.62-22.82-2.8-45.96-4.8-68.8-5.95-21.87-1.1-44.04-1.45-65.89-1.05l-.09-5c21.96-.41,44.25-.05,66.23,1.06,22.96,1.16,46.23,3.17,69.16,5.98,25.81,3.16,51.94,7.43,77.67,12.68l-1,4.9Z"/>
          <path class="cls-2" d="M359.3,422.96c-25.59-5.23-51.58-9.47-77.27-12.62-22.83-2.8-45.97-4.8-68.8-5.95-21.87-1.1-44.04-1.46-65.89-1.05l-.09-5c21.96-.41,44.25-.05,66.23,1.06,22.95,1.16,46.22,3.17,69.16,5.98,25.82,3.16,51.95,7.43,77.67,12.68l-1,4.9Z"/>
          <path class="cls-2" d="M359.3,473.65c-25.59-5.23-51.58-9.47-77.27-12.62-22.83-2.8-45.97-4.8-68.8-5.95-21.87-1.1-44.04-1.46-65.89-1.05l-.09-5c21.96-.41,44.25-.05,66.23,1.06,22.95,1.16,46.22,3.17,69.16,5.98,25.82,3.16,51.95,7.43,77.67,12.68l-1,4.9Z"/>
          <path class="cls-2" d="M359.3,524.34c-25.59-5.23-51.58-9.47-77.27-12.62-22.83-2.8-45.97-4.8-68.8-5.95-21.87-1.1-44.04-1.46-65.89-1.05l-.09-5c21.96-.4,44.25-.05,66.23,1.06,22.95,1.16,46.22,3.17,69.16,5.98,25.82,3.16,51.95,7.43,77.67,12.68l-1,4.9Z"/>
        </g>
        <g id="Rechts">
          <path class="cls-2" d="M439.14,270.65l-1-4.9c25.72-5.25,51.85-9.52,77.67-12.68,22.94-2.81,46.21-4.82,69.16-5.98,21.99-1.11,44.27-1.47,66.23-1.06l-.09,5c-21.85-.4-44.02-.05-65.89,1.05-22.83,1.15-45.98,3.15-68.8,5.95-25.69,3.15-51.68,7.39-77.27,12.62Z"/>
          <path class="cls-2" d="M439.14,321.42l-1-4.9c25.72-5.25,51.85-9.52,77.67-12.68,22.94-2.81,46.21-4.82,69.16-5.98,21.98-1.11,44.27-1.46,66.23-1.06l-.09,5c-21.86-.4-44.03-.05-65.89,1.05-22.83,1.15-45.98,3.15-68.8,5.95-25.68,3.15-51.68,7.39-77.27,12.62Z"/>
          <path class="cls-2" d="M439.14,372.19l-1-4.9c25.72-5.25,51.85-9.52,77.67-12.68,22.93-2.81,46.2-4.82,69.16-5.98,21.99-1.11,44.27-1.47,66.23-1.06l-.09,5c-21.85-.4-44.02-.05-65.89,1.05-22.84,1.15-45.99,3.15-68.8,5.95-25.68,3.15-51.68,7.39-77.27,12.62Z"/>
          <path class="cls-2" d="M439.14,422.96l-1-4.9c25.71-5.25,51.85-9.52,77.67-12.68,22.94-2.81,46.21-4.82,69.16-5.98,21.99-1.11,44.27-1.46,66.23-1.06l-.09,5c-21.85-.4-44.02-.05-65.89,1.05-22.83,1.15-45.98,3.15-68.8,5.95-25.69,3.15-51.69,7.39-77.27,12.62Z"/>
          <path class="cls-2" d="M439.14,473.65l-1-4.9c25.71-5.25,51.85-9.52,77.67-12.68,22.94-2.81,46.21-4.82,69.16-5.98,21.99-1.11,44.27-1.46,66.23-1.06l-.09,5c-21.85-.4-44.02-.05-65.89,1.05-22.83,1.15-45.98,3.15-68.8,5.95-25.69,3.15-51.69,7.39-77.27,12.62Z"/>
          <path class="cls-2" d="M439.14,524.34l-1-4.9c25.71-5.25,51.85-9.52,77.67-12.68,22.94-2.81,46.21-4.82,69.16-5.98,21.99-1.11,44.27-1.46,66.23-1.06l-.09,5c-21.85-.4-44.02-.05-65.89,1.05-22.83,1.15-45.98,3.15-68.8,5.95-25.69,3.15-51.69,7.39-77.27,12.62Z"/>
        </g>
      </g>
    </g>
  </g>
</svg>