<?xml version="1.0" encoding="UTF-8"?>
<svg id="Nachbau" xmlns="http://www.w3.org/2000/svg" viewBox="0 0 800 800">
  <defs>
    <style>
      .cls-1 {
        fill: #308fc9;
      }

      .cls-1, .cls-2, .cls-3 {
        stroke-width: 0px;
      }

      .cls-4 {
        fill: none;
        stroke: #206289;
        stroke-miterlimit: 10;
        stroke-width: 5px;
      }

      .cls-2 {
        fill: #73bbe7;
      }

      .cls-3 {
        fill: #b9ddf3;
      }
    </style>
  </defs>
  <g id="G-0015_BUW__Icon_Planung" data-name="G-0015_BUW _Icon_Planung">
    <g id="Planung">
      <g id="Klemmbrett">
        <polygon class="cls-3" points="616.03 103.16 616.03 715.98 183.97 715.98 183.97 103.16 274.95 103.16 274.95 129.39 527.22 129.39 527.22 103.16 616.03 103.16"/>
        <rect class="cls-1" x="274.95" y="84.03" width="252.27" height="45.36"/>
      </g>
      <g id="Textlinien">
        <line class="cls-4" x1="348.02" y1="210.67" x2="546.81" y2="210.67"/>
        <line class="cls-4" x1="348.02" y1="247.3" x2="546.81" y2="247.3"/>
        <line class="cls-4" x1="348.02" y1="313.73" x2="546.81" y2="313.73"/>
        <line class="cls-4" x1="348.02" y1="350.35" x2="546.81" y2="350.35"/>
        <line class="cls-4" x1="348.02" y1="416.79" x2="546.81" y2="416.79"/>
        <line class="cls-4" x1="348.02" y1="453.41" x2="546.81" y2="453.41"/>
        <line class="cls-4" x1="348.02" y1="519.85" x2="546.81" y2="519.85"/>
        <line class="cls-4" x1="348.02" y1="556.47" x2="546.81" y2="556.47"/>
        <line class="cls-4" x1="349.78" y1="618.76" x2="548.56" y2="618.76"/>
        <line class="cls-4" x1="349.78" y1="655.38" x2="548.56" y2="655.38"/>
      </g>
      <g id="Checkbox_5" data-name="Checkbox 5">
        <polygon class="cls-2" points="257.11 654.91 260.07 657.87 257.11 657.87 257.11 654.91"/>
        <polygon class="cls-2" points="260.07 597.48 257.11 600.44 257.11 597.48 260.07 597.48"/>
        <polygon class="cls-2" points="279.71 627.68 257.11 650.27 257.11 605.08 279.71 627.68"/>
        <polygon class="cls-2" points="287.31 635.28 309.9 657.87 264.71 657.87 287.31 635.28"/>
        <polygon class="cls-2" points="287.31 620.08 264.71 597.48 309.9 597.48 287.31 620.08"/>
        <polygon class="cls-2" points="317.5 597.48 317.5 600.44 314.54 597.48 317.5 597.48"/>
        <polygon class="cls-2" points="294.91 627.68 317.5 605.08 317.5 650.27 294.91 627.68"/>
        <polygon class="cls-2" points="314.54 657.87 317.5 654.91 317.5 657.87 314.54 657.87"/>
        <polygon class="cls-1" points="317.5 605.08 294.91 627.68 317.5 650.27 317.5 654.91 314.54 657.87 309.9 657.87 287.31 635.28 264.71 657.87 260.07 657.87 257.11 654.91 257.11 650.27 279.71 627.68 257.11 605.08 257.11 600.44 260.07 597.48 264.71 597.48 287.31 620.08 309.9 597.48 314.54 597.48 317.5 600.44 317.5 605.08"/>
        <polygon class="cls-1" points="254.79 602.76 257.11 600.44 257.11 605.08 254.79 602.76"/>
        <polygon class="cls-1" points="254.79 652.59 257.11 650.27 257.11 654.91 254.79 652.59"/>
        <polygon class="cls-1" points="262.39 595.16 264.71 597.48 260.07 597.48 262.39 595.16"/>
        <polygon class="cls-1" points="260.07 657.87 264.71 657.87 262.39 660.19 260.07 657.87"/>
        <polygon class="cls-1" points="312.22 595.16 314.54 597.48 309.9 597.48 312.22 595.16"/>
        <polygon class="cls-1" points="309.9 657.87 314.54 657.87 312.22 660.19 309.9 657.87"/>
        <polygon class="cls-1" points="317.5 650.27 319.82 652.59 317.5 654.91 317.5 650.27"/>
        <polygon class="cls-1" points="319.82 602.76 317.5 605.08 317.5 600.44 319.82 602.76"/>
      </g>
      <g id="Checkbox_4" data-name="Checkbox 4">
        <polygon class="cls-2" points="262.35 524 255.35 530.99 255.35 498.57 315.74 498.57 315.74 503.56 278.83 540.48 262.35 524"/>
        <polygon class="cls-2" points="255.35 558.96 255.35 530.99 278.83 554.46 315.74 517.55 315.74 558.96 255.35 558.96"/>
        <polygon class="cls-1" points="323.23 510.06 278.83 554.46 255.35 530.99 262.35 524 278.83 540.48 315.74 503.56 316.24 503.06 323.23 510.06"/>
      </g>
      <g id="Checkbox_3" data-name="Checkbox 3">
        <polygon class="cls-2" points="262.35 420.94 255.35 427.93 255.35 395.51 315.74 395.51 315.74 400.5 278.83 437.42 262.35 420.94"/>
        <polygon class="cls-2" points="255.35 455.9 255.35 427.93 278.83 451.41 285.82 444.41 315.74 414.49 315.74 455.9 255.35 455.9"/>
        <polygon class="cls-1" points="323.23 407 285.82 444.41 278.83 451.41 255.35 427.93 262.35 420.94 278.83 437.42 315.74 400.5 316.24 400 323.23 407"/>
      </g>
      <g id="Checkbox_2" data-name="Checkbox 2">
        <polygon class="cls-2" points="262.35 317.88 255.35 324.87 255.35 292.45 315.74 292.45 315.74 297.45 278.83 334.36 262.35 317.88"/>
        <polygon class="cls-2" points="255.35 352.84 255.35 324.87 278.83 348.35 285.82 341.35 315.74 311.43 315.74 352.84 255.35 352.84"/>
        <polygon class="cls-1" points="323.23 303.94 285.82 341.35 278.83 348.35 255.35 324.87 262.35 317.88 278.83 334.36 316.24 296.95 323.23 303.94"/>
      </g>
      <g id="Checkbox_1" data-name="Checkbox 1">
        <polygon class="cls-2" points="262.35 214.82 255.35 221.81 255.35 189.39 315.74 189.39 315.74 194.39 278.83 231.3 262.35 214.82"/>
        <polygon class="cls-2" points="255.35 249.78 255.35 221.81 278.83 245.29 315.74 208.38 315.74 249.78 255.35 249.78"/>
        <polygon class="cls-1" points="323.23 200.89 278.83 245.29 255.35 221.81 262.35 214.82 278.83 231.3 316.24 193.89 323.23 200.89"/>
      </g>
    </g>
  </g>
</svg>