<?xml version="1.0" encoding="UTF-8"?>
<svg id="Nachbau" xmlns="http://www.w3.org/2000/svg" viewBox="0 0 800 800">
  <defs>
    <style>
      .cls-1 {
        fill: #308fc9;
      }

      .cls-1, .cls-2 {
        stroke-width: 0px;
      }

      .cls-2 {
        fill: #dddddc;
      }
    </style>
  </defs>
  <g id="G-0019_BUW_Icon_Zugang">
    <g id="Schloss">
      <path id="Schloss-2" data-name="Schloss" class="cls-1" d="M580.93,373.54v291.44H219.08v-291.44h267.01v-103.57c0-47.47-38.61-86.09-86.09-86.09s-86.08,38.62-86.08,86.09v23.25h-48.86v-23.25c0-74.4,60.54-134.94,134.94-134.94s134.95,60.54,134.95,134.94v103.57h45.98Z"/>
      <path id="Schlüsselloch" class="cls-2" d="M420.14,543.47c0,11.12-9.02,20.14-20.14,20.14s-20.14-9.02-20.14-20.14c0-2.65.64-2.14.89-5.95.66-9.73-4.17-13.84-6.98-26.94-.88-4.1-1.25-6.15-1.25-8.21,0-15.17,12.3-27.47,27.47-27.47s27.47,12.3,27.47,27.47c0,2.06-.37,4.12-1.26,8.24-2.81,13.09-7.62,17.2-6.96,26.94.26,3.8.89,3.29.89,5.92Z"/>
    </g>
  </g>
</svg>