<?xml version="1.0" encoding="UTF-8"?>
<svg id="Nachbau" xmlns="http://www.w3.org/2000/svg" viewBox="0 0 800 800">
  <defs>
    <style>
      .cls-1 {
        fill: #206289;
      }

      .cls-1, .cls-2, .cls-3, .cls-4 {
        stroke-width: 0px;
      }

      .cls-2 {
        fill: #dddddc;
      }

      .cls-3 {
        fill: #64abd6;
      }

      .cls-4 {
        fill: #73bbe7;
      }
    </style>
  </defs>
  <g id="G-0016_BUW_Icon_Erhebung">
    <g id="Diagramm">
      <g id="Linien">
        <polygon class="cls-1" points="699.01 705.61 95.29 705.61 95.29 100.29 105.29 100.29 105.29 695.61 699.01 695.61 699.01 705.61"/>
      </g>
      <g id="Balken">
        <rect class="cls-3" x="133.22" y="255.77" width="116.47" height="407.75"/>
        <rect class="cls-2" x="273.88" y="333.04" width="116.47" height="330.48"/>
        <rect class="cls-1" x="414.54" y="255.78" width="116.48" height="407.74"/>
        <rect class="cls-4" x="555.21" y="185.86" width="116.47" height="477.66"/>
      </g>
      <g id="Pfeil">
        <path class="cls-1" d="M497.81,113.86l8.39,10.21-97.09,76.37c-2.74-1.9-6.01-2.94-9.46-2.94-5.41,0-10.36,2.6-13.43,6.79l-119.89-40.99v-.28c0-9.18-7.46-16.64-16.64-16.64s-16.64,7.46-16.64,16.64c0,.76.05,1.5.15,2.24l-102.14,48.98,4.32,9.02,102.1-48.96c3.09,3.35,7.51,5.36,12.21,5.36,5.46,0,10.42-2.64,13.48-6.87l119.85,40.97h0c-.01.13-.01.25-.01.38,0,9.18,7.46,16.64,16.64,16.64s16.64-7.46,16.64-16.64c0-2.02-.35-3.98-1.04-5.81l97.3-76.53,8.42,10.25,8.69-30.75-31.85,2.56ZM255.99,165.1c-.9,2.73-3.43,4.56-6.3,4.56-2.56,0-4.92-1.5-6.02-3.85-.41-.87-.62-1.81-.62-2.79,0-3.66,2.98-6.64,6.64-6.64s6.64,2.98,6.64,6.64c0,.72-.11,1.41-.34,2.08ZM399.65,220.78c-3.66,0-6.64-2.98-6.64-6.64,0-.73.12-1.44.36-2.14.9-2.69,3.43-4.5,6.28-4.5,2.07,0,3.97.93,5.25,2.59.91,1.16,1.39,2.56,1.39,4.05,0,3.66-2.98,6.64-6.64,6.64Z"/>
      </g>
    </g>
  </g>
</svg>