<?xml version="1.0" encoding="UTF-8"?>
<svg id="Nachbau" xmlns="http://www.w3.org/2000/svg" viewBox="0 0 800 800">
  <defs>
    <style>
      .cls-1 {
        fill: #308fc9;
      }

      .cls-1, .cls-2, .cls-3, .cls-4, .cls-5 {
        stroke-width: 0px;
      }

      .cls-2 {
        fill: #206289;
      }

      .cls-3 {
        fill: #dddddc;
      }

      .cls-4 {
        fill: #73bbe7;
      }

      .cls-5 {
        fill: #b9ddf3;
      }
    </style>
  </defs>
  <g id="G-0053_BUW_Icon_Datentyp_Bild">
    <g id="Bild">
      <path id="Rahmen" class="cls-2" d="M105.03,188.94v422.13h589.93V188.94H105.03ZM677.4,595.58H122.61V204.43h554.79v391.15Z"/>
      <g id="Bild-2" data-name="Bild">
        <path class="cls-2" d="M263.79,296.02c0,28.36-22.98,51.34-51.33,51.34s-51.34-22.98-51.34-51.34,22.99-51.33,51.34-51.33,51.33,22.98,51.33,51.33Z"/>
        <path class="cls-5" d="M122.61,204.43v329.37l173.88-173.88,70.85,70.85,127.41-127.42,178.57,178.55,4.08,4.08V204.43H122.61ZM212.46,347.36c-28.35,0-51.34-22.98-51.34-51.34s22.99-51.33,51.34-51.33,51.33,22.98,51.33,51.33-22.98,51.34-51.33,51.34Z"/>
        <path class="cls-5" d="M263.79,296.02c0,28.36-22.98,51.34-51.33,51.34s-51.34-22.98-51.34-51.34,22.99-51.33,51.34-51.33,51.33,22.98,51.33,51.33Z"/>
        <polygon class="cls-1" points="677.4 485.98 677.4 595.58 532.15 595.58 367.34 430.77 494.75 303.35 673.32 481.9 677.4 485.98"/>
        <polygon class="cls-4" points="532.15 595.58 122.61 595.58 122.61 533.8 296.49 359.92 532.15 595.58"/>
        <path class="cls-3" d="M263.79,296.02c0,28.36-22.98,51.34-51.33,51.34s-51.34-22.98-51.34-51.34,22.99-51.33,51.34-51.33,51.33,22.98,51.33,51.33Z"/>
      </g>
    </g>
  </g>
</svg>