<?xml version="1.0" encoding="UTF-8"?>
<svg id="Musthave" xmlns="http://www.w3.org/2000/svg" viewBox="0 0 800 800">
  <defs>
    <style>
      .cls-1 {
        fill: #308fc9;
      }

      .cls-1, .cls-2, .cls-3, .cls-4, .cls-5, .cls-6 {
        stroke-width: 0px;
      }

      .cls-2 {
        fill: #206289;
      }

      .cls-3 {
        fill: #dddddc;
      }

      .cls-4 {
        fill: #64abd6;
      }

      .cls-5 {
        fill: #73bbe7;
      }

      .cls-6 {
        fill: #b9ddf3;
      }
    </style>
  </defs>
  <g id="G-0048_BUW_Icon_3-2-1_Regel" data-name="G-0048_BUW_Icon_3-2-1 Regel">
    <g id="Regel">
      <g id="Pfeile">
        <polygon class="cls-2" points="353.59 216.76 340.92 238.72 328.24 216.76 335.46 216.76 335.46 138.21 177.1 138.21 177.1 233.71 167.1 233.71 167.1 128.21 345.46 128.21 345.46 216.76 353.59 216.76"/>
        <g>
          <polygon class="cls-2" points="627.96 216.76 622.96 216.76 621.71 138.21 463.85 138.21 463.85 229.05 453.85 229.05 453.85 128.21 631.55 128.21 632.96 216.68 627.96 216.76"/>
          <polygon class="cls-2" points="640.27 216.76 627.59 238.72 614.91 216.76 622.96 216.76 622.96 216.84 627.96 216.76 640.27 216.76"/>
          <polygon class="cls-2" points="627.96 216.76 622.96 216.84 622.96 216.76 627.96 216.76"/>
        </g>
        <polygon class="cls-2" points="627.96 216.76 622.96 216.84 622.96 216.76 627.96 216.76"/>
      </g>
      <g id="Blatt_1" data-name="Blatt 1">
        <polygon class="cls-6" points="729.28 333.04 729.28 620.6 526.54 620.6 526.54 333.04 568.72 333.04 568.72 343.71 687.1 343.71 687.1 333.04 729.28 333.04"/>
        <polygon class="cls-5" points="687.1 322.43 687.1 343.71 568.72 343.71 568.72 322.43 617.43 322.43 616.01 329.22 630.12 329.22 631.54 322.43 687.1 322.43"/>
        <g id="Wolke">
          <path class="cls-4" d="M705.99,498.57c-3.23,14.25-22.95,22.2-44.36,26.16,0,0-.02,0-.02,0-1.39.26-2.79.5-4.2.72-10.97,1.51-32.9,2.41-54.2.63h0c-25.61-2.12-50.33-8.1-53.98-21.49-3.21-11.75,9.78-29.33,21.24-31.38-.56-2.36-.85-4.83-.85-7.36,0-17.6,14.27-31.87,31.88-31.87,11.11,0,20.89,5.68,26.59,14.3,3.99-3.36,9.16-5.39,14.78-5.39,11.26,0,20.63,8.11,22.59,18.8,2.2-1.78,4.44-2.75,7.29-2.95,15.91-1.1,37.07,22.98,33.25,39.82Z"/>
        </g>
      </g>
      <g id="Blatt_2" data-name="Blatt 2">
        <g>
          <rect class="cls-6" x="386.22" y="502.51" width="67.58" height="22.52"/>
          <path class="cls-6" d="M458.85,333.04v10.67h-118.39v-10.67h-42.02v287.56h202.74v-287.56h-42.33ZM472.17,544.96h-159.32v-113.02h66.46c4.49,2.3,8.97,4.61,13.45,6.91,1.5.77,2.99,1.53,4.48,2.3h74.93v103.81Z"/>
        </g>
        <path class="cls-5" d="M458.85,322.43v21.28h-118.39v-21.28h35.8c-.82,2.19-1.38,4.45-1.68,6.79h43.5l1.4-6.79h39.37Z"/>
        <g id="Ordner">
          <g>
            <g>
              <rect class="cls-3" x="386.22" y="502.51" width="67.58" height="22.52"/>
              <path class="cls-3" d="M487.16,438.85v92.98h-14.99v-90.68h-74.93c-1.49-.77-2.98-1.53-4.48-2.3h94.4Z"/>
            </g>
            <path class="cls-3" d="M487.16,428.02v10.83h-94.4c-4.48-2.3-8.96-4.61-13.45-6.91h-51.47v-13.13h66.46c5.98,3.07,11.95,6.14,17.93,9.21h74.93Z"/>
          </g>
          <g>
            <g>
              <path class="cls-5" d="M312.85,451.98v92.98h159.32v-92.98h-159.32ZM453.8,525.03h-67.58v-22.52h67.58v22.52Z"/>
              <rect class="cls-5" x="386.22" y="502.51" width="67.58" height="22.52"/>
            </g>
            <path class="cls-1" d="M472.17,441.15v10.83h-159.32v-20.04h66.46c4.49,2.3,8.97,4.61,13.45,6.91,1.5.77,2.99,1.53,4.48,2.3h74.93Z"/>
          </g>
          <rect class="cls-3" x="386.22" y="502.51" width="67.58" height="22.52"/>
        </g>
      </g>
      <g id="Blatt_3" data-name="Blatt 3">
        <polygon class="cls-6" points="273.47 333.04 273.47 620.6 70.73 620.6 70.73 333.04 112.91 333.04 112.91 342.45 231.29 342.45 231.29 333.04 273.47 333.04"/>
        <path class="cls-5" d="M231.29,321.17v21.28h-118.38v-21.28h38.74c.98,1.53,2.15,2.88,3.49,4.07,3.92,3.47,8.91,5.2,14.96,5.2,8.08,0,14.67-3.02,19.78-9.08.05-.06.11-.13.15-.19h41.26Z"/>
        <g id="Blatt">
          <g id="Blatt-2" data-name="Blatt">
            <polygon class="cls-5" points="232.17 426.53 232.17 564.89 111.96 564.89 111.96 394.38 200.02 394.38 232.17 426.53"/>
            <polygon class="cls-1" points="200.02 426.53 200.02 394.38 232.17 426.53 200.02 426.53"/>
          </g>
          <g id="Textlinien">
            <rect class="cls-2" x="131.53" y="441.74" width="81.08" height="5"/>
            <rect class="cls-2" x="131.53" y="454.49" width="81.08" height="5"/>
            <rect class="cls-2" x="131.53" y="466.26" width="81.08" height="5"/>
            <rect class="cls-2" x="131.53" y="478.03" width="81.08" height="5"/>
            <rect class="cls-2" x="131.53" y="489.8" width="81.08" height="5"/>
            <rect class="cls-2" x="131.53" y="514.32" width="81.08" height="5"/>
            <rect class="cls-2" x="131.53" y="502.06" width="81.08" height="5"/>
            <rect class="cls-2" x="131.53" y="526.58" width="81.03" height="5"/>
            <rect class="cls-2" x="131.53" y="538.58" width="81.08" height="5"/>
          </g>
        </g>
      </g>
      <g>
        <path class="cls-2" d="M186.66,292.65c3.02,1.6,5.25,3.66,6.69,6.2,1.43,2.54,2.14,5.19,2.14,7.96,0,5.2-1.82,9.98-5.46,14.36-.04.06-.1.13-.15.19-5.11,6.06-11.7,9.08-19.78,9.08-6.05,0-11.04-1.73-14.96-5.2-1.34-1.19-2.51-2.54-3.49-4.07-1.89-2.92-3.11-6.48-3.67-10.65l13.43-1.61c.56,3.81,1.56,6.45,3.01,7.91,1.44,1.47,3.37,2.2,5.78,2.2,3.19,0,5.84-1.08,7.94-3.23,2.1-2.14,3.15-4.89,3.15-8.25,0-2.93-.85-5.25-2.54-6.96-1.7-1.7-3.98-2.56-6.84-2.56-.72,0-1.46.07-2.25.2l2.45-11.67c.48.06.96.09,1.41.09,3.75,0,6.59-.95,8.55-2.85,1.95-1.91,2.93-4.49,2.93-7.74,0-2.31-.66-4.13-1.98-5.47-1.32-1.33-3.05-2-5.2-2-2.02,0-3.83.74-5.42,2.22-1.6,1.48-2.87,4.01-3.81,7.59l-12.79-2.54c1.62-5.27,3.89-9.32,6.78-12.15,4.4-4.24,9.8-6.35,16.22-6.35s11.57,1.83,14.99,5.49c3.41,3.66,5.12,8.05,5.12,13.16,0,3.71-1.09,7.06-3.27,10.06-2.18,2.99-5.17,5.19-8.98,6.59Z"/>
        <path class="cls-2" d="M399.99,311.72c-1.41,1.48-2.77,3.05-4.08,4.71h24.81l-1.24,6-1.4,6.79h-43.5c.3-2.34.86-4.6,1.68-6.79.41-1.1.88-2.18,1.42-3.24,1.61-3.18,3.62-6.13,6.03-8.86,2.41-2.74,6.82-7.15,13.23-13.24,4.82-4.62,7.86-7.63,9.13-9.03,2.28-2.54,3.84-4.74,4.69-6.59.84-1.86,1.27-3.53,1.27-5.03,0-2.41-.71-4.36-2.13-5.86-1.41-1.5-3.21-2.25-5.39-2.25s-4.15.84-5.81,2.52c-1.66,1.68-2.92,4.71-3.76,9.11l-13.72-2.06c1.1-6.64,3.68-11.72,7.74-15.25,4.05-3.54,9.12-5.3,15.21-5.3,6.67,0,11.91,1.8,15.72,5.42,3.81,3.61,5.71,8.2,5.71,13.77,0,2.83-.58,5.67-1.76,8.52-1.17,2.85-3.09,5.83-5.76,8.96-1.92,2.21-5.06,5.34-9.42,9.4-4.36,4.05-7.25,6.82-8.67,8.3Z"/>
        <path class="cls-2" d="M645.21,257.2l-13.67,65.23-1.42,6.79h-14.11l1.42-6.79,8.98-42.82c-2.93,1.89-6.3,3.62-10.13,5.18-3.82,1.56-7.25,2.67-10.28,3.32l2.64-12.5c12.08-5.27,21.42-11.41,28.03-18.41h8.54Z"/>
      </g>
    </g>
  </g>
</svg>