<?xml version="1.0" encoding="UTF-8"?>
<svg id="Musthave" xmlns="http://www.w3.org/2000/svg" viewBox="0 0 800 800">
  <defs>
    <style>
      .cls-1 {
        fill: #eee;
      }

      .cls-1, .cls-2, .cls-3, .cls-4, .cls-5 {
        stroke-width: 0px;
      }

      .cls-2 {
        fill: #308fc9;
      }

      .cls-3 {
        fill: #206289;
      }

      .cls-4 {
        fill: #73bbe7;
      }

      .cls-5 {
        fill: #b9ddf3;
      }
    </style>
  </defs>
  <g id="G-0098_BUW_b_Icon_Triptichon_Tabelle">
    <g id="Tablette">
      <g id="PC">
        <path class="cls-5" d="M91.26,165.55v445.95h617.48V165.55H91.26ZM689.69,534.05H110.31V185.46h579.38v348.59Z"/>
        <g>
          <path class="cls-3" d="M622.9,700.61H180.55c0-10.24,4.15-19.51,10.86-26.23,6.72-6.71,15.99-10.86,26.23-10.86h130.15v-52.02h103.04v52.02h134.98c20.49,0,37.09,16.61,37.09,37.09Z"/>
          <rect class="cls-2" x="347.79" y="611.32" width="103.04" height=".18"/>
        </g>
        <g>
          <polygon class="cls-1" points="298.46 213.9 298.46 227.11 264.03 227.11 264.03 213.83 298.41 213.83 298.41 213.9 298.46 213.9"/>
          <rect class="cls-1" x="264.03" y="232.11" width="34.43" height="24.45"/>
          <rect class="cls-1" x="264.03" y="261.56" width="34.43" height="23.91"/>
          <rect class="cls-1" x="264.03" y="290.47" width="34.43" height="23.92"/>
          <rect class="cls-1" x="264.03" y="348.31" width="34.43" height="23.92"/>
          <rect class="cls-1" x="264.03" y="377.23" width="34.43" height="21.85"/>
          <rect class="cls-1" x="264.03" y="404.08" width="34.43" height="21.85"/>
          <rect class="cls-1" x="264.03" y="430.93" width="34.43" height="21.9"/>
          <rect class="cls-1" x="264.03" y="457.83" width="34.43" height="23.92"/>
          <rect class="cls-1" x="264.03" y="486.75" width="34.43" height="24.26"/>
          <rect class="cls-1" x="418.17" y="232.11" width="119.78" height="24.45"/>
          <rect class="cls-1" x="303.41" y="261.56" width="109.76" height="23.91"/>
          <rect class="cls-1" x="418.17" y="261.56" width="119.78" height="23.91"/>
          <rect class="cls-1" x="303.41" y="290.47" width="109.76" height="23.92"/>
          <rect class="cls-1" x="264.03" y="319.39" width="149.14" height="23.92"/>
          <rect class="cls-1" x="418.17" y="290.47" width="119.78" height="23.92"/>
          <rect class="cls-1" x="418.17" y="319.39" width="119.78" height="23.92"/>
          <rect class="cls-1" x="303.41" y="348.31" width="109.76" height="23.92"/>
          <rect class="cls-1" x="418.17" y="348.31" width="119.78" height="23.92"/>
          <rect class="cls-1" x="303.41" y="377.23" width="109.76" height="21.85"/>
          <rect class="cls-1" x="418.17" y="377.23" width="119.78" height="21.85"/>
          <rect class="cls-1" x="303.41" y="404.08" width="109.76" height="21.85"/>
          <rect class="cls-1" x="418.17" y="404.08" width="119.78" height="21.85"/>
          <rect class="cls-1" x="303.41" y="430.93" width="109.76" height="21.9"/>
          <rect class="cls-1" x="303.41" y="457.83" width="109.76" height="23.92"/>
          <rect class="cls-1" x="418.17" y="430.93" width="119.78" height="21.9"/>
          <rect class="cls-1" x="303.41" y="486.75" width="109.76" height="24.26"/>
          <rect class="cls-1" x="418.17" y="457.83" width="119.78" height="23.92"/>
          <rect class="cls-1" x="418.17" y="486.75" width="119.78" height="24.26"/>
          <rect class="cls-1" x="303.46" y="213.9" width="109.71" height="13.21"/>
          <rect class="cls-1" x="303.41" y="232.11" width="109.76" height="24.45"/>
          <path class="cls-1" d="M110.31,185.46v348.59h579.38V185.46H110.31ZM542.95,516.01h-284.64V208.35h284.64v307.66Z"/>
        </g>
      </g>
      <g id="Tabelle">
        <path class="cls-3" d="M258.31,208.35v307.66h284.64V208.35h-284.64ZM264.03,213.83h34.38v.07h.05v13.21h-34.43v-13.28ZM264.03,232.11h34.43v24.45h-34.43v-24.45ZM264.03,261.56h34.43v23.91h-34.43v-23.91ZM264.03,290.47h34.43v23.92h-34.43v-23.92ZM298.46,511.01h-34.43v-24.26h34.43v24.26ZM298.46,481.75h-34.43v-23.92h34.43v23.92ZM298.46,452.83h-34.43v-21.9h34.43v21.9ZM298.46,425.93h-34.43v-21.85h34.43v21.85ZM298.46,399.08h-34.43v-21.85h34.43v21.85ZM298.46,372.23h-34.43v-23.92h34.43v23.92ZM264.03,343.31v-23.92h34.43v23.92h-34.43ZM413.17,511.01h-109.76v-24.26h109.76v24.26ZM413.17,481.75h-109.76v-23.92h109.76v23.92ZM413.17,452.83h-109.76v-21.9h109.76v21.9ZM413.17,425.93h-109.76v-21.85h109.76v21.85ZM413.17,399.08h-109.76v-21.85h109.76v21.85ZM413.17,372.23h-109.76v-23.92h109.76v23.92ZM413.17,343.31h-109.76v-23.92h109.76v23.92ZM413.17,314.39h-109.76v-23.92h109.76v23.92ZM413.17,285.47h-109.76v-23.91h109.76v23.91ZM413.17,256.56h-109.76v-24.45h109.76v24.45ZM413.17,227.11h-109.71v-13.21h109.71v13.21ZM537.95,511.01h-119.78v-24.26h119.78v24.26ZM537.95,481.75h-119.78v-23.92h119.78v23.92ZM537.95,452.83h-119.78v-21.9h119.78v21.9ZM537.95,425.93h-119.78v-21.85h119.78v21.85ZM537.95,399.08h-119.78v-21.85h119.78v21.85ZM537.95,372.23h-119.78v-23.92h119.78v23.92ZM537.95,343.31h-119.78v-23.92h119.78v23.92ZM537.95,314.39h-119.78v-23.92h119.78v23.92ZM537.95,285.47h-119.78v-23.91h119.78v23.91ZM537.95,256.56h-119.78v-24.45h119.78v24.45ZM537.95,227.11h-119.78v-13.21h119.78v13.21Z"/>
        <g>
          <rect class="cls-4" x="264.03" y="486.75" width="34.43" height="24.26"/>
          <polygon class="cls-4" points="298.46 213.9 298.46 227.11 264.03 227.11 264.03 213.83 298.41 213.83 298.41 213.9 298.46 213.9"/>
          <rect class="cls-4" x="264.03" y="232.11" width="34.43" height="24.45"/>
          <rect class="cls-4" x="264.03" y="261.56" width="34.43" height="23.91"/>
          <rect class="cls-4" x="418.17" y="213.9" width="119.78" height="13.21"/>
          <rect class="cls-4" x="303.46" y="213.9" width="109.71" height="13.21"/>
          <rect class="cls-4" x="264.03" y="457.83" width="34.43" height="23.92"/>
          <rect class="cls-4" x="264.03" y="430.93" width="34.43" height="21.9"/>
          <rect class="cls-4" x="264.03" y="404.08" width="34.43" height="21.85"/>
          <rect class="cls-4" x="264.03" y="377.23" width="34.43" height="21.85"/>
          <rect class="cls-4" x="264.03" y="348.31" width="34.43" height="23.92"/>
          <rect class="cls-4" x="264.03" y="290.47" width="34.43" height="23.92"/>
          <rect class="cls-4" x="264.03" y="319.39" width="34.43" height="23.92"/>
        </g>
      </g>
    </g>
  </g>
</svg>