<?xml version="1.0" encoding="UTF-8"?>
<svg id="Musthave" xmlns="http://www.w3.org/2000/svg" viewBox="0 0 800 800">
  <defs>
    <style>
      .cls-1 {
        fill: #206289;
      }

      .cls-1, .cls-2, .cls-3, .cls-4, .cls-5, .cls-6 {
        stroke-width: 0px;
      }

      .cls-2 {
        fill: #64abd6;
      }

      .cls-3 {
        fill: #73bbe7;
      }

      .cls-4 {
        fill: #b47d49;
      }

      .cls-5 {
        fill: #b9ddf3;
      }

      .cls-6 {
        fill: #f9dbc2;
      }
    </style>
  </defs>
  <g id="G-0093_BUW_Icon_Respekt">
    <g id="Respect">
      <g id="Hand">
        <path class="cls-6" d="M610.35,552.1c0,9.39-4.87,18.52-13.59,23.56l-164.89,95.24c-4.42,2.55-9.71,3.16-14.61,1.67-43.46-13.16-86.92-26.33-130.38-39.51l-12.57,6.59-.11.06-43.15-82.22.11-.06,92.18-48.38c2.22-1.16,4.81-1.41,7.21-.68l140.65,42.63c10.97,3.33,17.17,14.91,13.84,25.88-.04.13-.09.27-.13.4l-.18-.35-25.68,13.02-91.94-27.27-.28.96,90.92,26.97-9.34,4.74.45.89,36.33-18.42-.21-.4,84.6-48.84c13-7.51,29.62-3.05,37.12,9.95,2.48,4.28,3.65,8.96,3.65,13.57Z"/>
        <path class="cls-3" d="M274.31,639.65l-43.15-82.22-.06-.11-.11.06.06.11,43.15,82.22.06.12.11-.06-.06-.12Z"/>
        <polygon class="cls-1" points="281.48 653.59 235.4 677.77 178.46 569.26 224.54 545.08 230.99 557.38 231.05 557.49 274.2 639.71 274.26 639.83 281.48 653.59"/>
        <g>
          <path class="cls-4" d="M485.19,577.82l-36.33,18.42-.45-.89,9.34-4.74-90.92-26.97.28-.96,91.94,27.27,25.68-13.02.18.35c-.03.08-.05.15-.08.23l.15-.09.21.4Z"/>
          <path class="cls-4" d="M484.98,577.42l-.15.09c.03-.08.05-.15.08-.23l.07.14Z"/>
        </g>
      </g>
      <g id="Schild">
        <g>
          <path class="cls-5" d="M621.53,188.04c0,141.81-68.13,216.92-141.07,283.87-.21.19-.43.4-.64.6-.07-.07-.14-.13-.21-.2-.06.07-.14.13-.2.2-.22-.2-.43-.41-.65-.6-72.94-66.95-141.07-142.06-141.07-283.87,34.94-.1,41.22-29.99,41.22-65.81h201.4c0,35.82,6.28,65.71,41.22,65.81Z"/>
          <path class="cls-1" d="M621.56,178.04c-12.37-.03-20.01-4.34-24.79-13.96-5.79-11.67-6.46-29.47-6.46-41.85v-10h-221.4v10c0,12.38-.67,30.18-6.46,41.85-4.77,9.62-12.42,13.93-24.79,13.96l-9.97.03v9.97c0,146.52,71.29,224.22,144.31,291.24l.05.05.05.04c.16.14.32.29.47.44l4.3,4.02,2.61,2.69.13-.13.13.12,2.52-2.59,4.39-4.11c.16-.15.32-.3.47-.44l.05-.04.05-.05c73.02-67.02,144.31-144.72,144.31-291.24v-9.97l-9.97-.03ZM479.82,472.51c-.07-.07-.14-.13-.21-.2-.06.07-.14.13-.2.2-.22-.2-.43-.41-.65-.6-72.94-66.95-141.07-142.06-141.07-283.87,34.94-.1,41.22-29.99,41.22-65.81h201.4c0,35.82,6.28,65.71,41.22,65.81,0,141.81-68.13,216.92-141.07,283.87-.21.19-.43.4-.64.6Z"/>
        </g>
        <path class="cls-2" d="M436.84,268.77c5.51-1.71,16.41-5.89,26.54-15.96,10.28-10.22,14.52-21.29,16.24-26.82,2.06,5.8,6.58,16.11,16.24,25.89,10.01,10.14,20.69,14.81,26.54,16.89-5.61,1.79-15.88,5.89-25.61,15.22-10.83,10.39-15.34,21.85-17.17,27.56-2.04-5.88-6.76-16.97-17.35-27.19-9.61-9.27-19.67-13.6-25.43-15.59Z"/>
      </g>
    </g>
  </g>
</svg>