<?xml version="1.0" encoding="UTF-8"?>
<svg id="Nachbau" xmlns="http://www.w3.org/2000/svg" viewBox="0 0 800 800">
  <defs>
    <style>
      .cls-1 {
        fill: #206289;
      }

      .cls-1, .cls-2, .cls-3 {
        stroke-width: 0px;
      }

      .cls-2 {
        fill: #64abd6;
      }

      .cls-3 {
        fill: #73bbe7;
      }
    </style>
  </defs>
  <g id="G-0050_BUW_Icon_Datentypen_Sensor">
    <g id="Sensor">
      <g id="Schall">
        <path class="cls-3" d="M562.24,281.02l-23.24,23.24c-76.77-76.77-201.23-76.77-278,0l-23.24-23.24c89.61-89.61,234.88-89.61,324.49,0Z"/>
        <path class="cls-3" d="M605.66,237.61l-21.92,21.92c-101.48-101.48-265.99-101.48-367.47,0l-21.92-21.92c113.59-113.59,297.72-113.59,411.31,0Z"/>
        <path class="cls-3" d="M515.55,327.72l-22.31,22.31c-51.49-51.49-134.99-51.49-186.47,0l-22.31-22.31c63.82-63.82,167.28-63.82,231.1,0Z"/>
      </g>
      <g id="Base">
        <path class="cls-2" d="M467.96,496.29h-136.17c8.58-29.51,35.82-51.07,68.09-51.07s59.51,21.56,68.08,51.07Z"/>
        <path class="cls-1" d="M594.12,602.75v44.83H205.88v-44.83c0-13.16,9.16-24.18,21.45-27.04h-.32c0-21.94,8.89-41.79,23.26-56.16,14.37-14.37,34.23-23.26,56.16-23.26h187.15c43.86,0,79.42,35.55,79.42,79.42h-.33c12.29,2.86,21.45,13.88,21.45,27.04Z"/>
      </g>
    </g>
  </g>
</svg>