<?xml version="1.0" encoding="UTF-8"?>
<svg id="Nachbau" xmlns="http://www.w3.org/2000/svg" viewBox="0 0 800 800">
  <defs>
    <style>
      .cls-1 {
        fill: #206289;
        stroke-width: 0px;
      }
    </style>
  </defs>
  <g id="G-0042_BUW_Icon_Gesetztestext">
    <g id="Paragraf">
      <path class="cls-1" d="M500.47,344.17c-7.32-13.88-17.43-24.46-30.32-31.74-12.87-7.28-35.63-16.62-68.26-28.05-22.52-8.08-36.07-13.24-40.69-15.47-8.05-4.27-13.92-9.63-17.7-16.13-3.73-6.27-5.61-13.32-5.61-21.16,0-12.31,4.5-23.05,13.57-32.25,9.06-9.16,24.17-13.78,45.33-13.78,17.91,0,31.77,5.16,41.6,15.47,9.82,10.31,15.78,24.63,17.82,43.02l45.06-8.1c-2.92-23.06-8.22-41.46-15.9-55.23-7.65-13.78-19.57-24.71-35.7-32.75-16.12-8.11-34.89-12.09-56.22-12.09-14.16,0-27.43,2.39-39.82,7.2-12.4,4.84-22.13,10.7-29.33,17.63-9.55,8.97-17.12,20.23-22.66,33.78-5.51,13.55-8.31,28.28-8.31,44.18,0,17.47,3.38,33.41,10.12,47.87,5.43,11.69,12.93,21.28,22.54,28.83-11.2,8.8-20.19,19.88-26.89,33.2-7.24,14.4-11.59,29.6-12.93,45.52-.08.8-.19,1.55-.19,2.35-.26,2.97-.35,6-.35,9.07,0,20.63,3.69,37.87,11.04,51.73,7.32,13.9,17.44,24.48,30.33,31.78,12.89,7.24,35.66,16.62,68.23,28.05,22.54,8.04,36.13,13.2,40.71,15.45,8.04,4.22,13.96,9.61,17.69,16.1,3.78,6.25,5.65,13.33,5.65,21.2,0,12.3-4.53,23.02-13.61,32.22-9.01,9.2-24.13,13.77-45.29,13.77-17.94,0-31.82-5.15-41.64-15.46-9.81-10.27-15.73-24.63-17.77-42.98l-45.07,8.04c2.89,23.08,8.17,41.52,15.86,55.29,7.7,13.78,19.62,24.67,35.74,32.75,16.13,8.05,34.84,12.09,56.18,12.09,14.17,0,27.45-2.43,39.81-7.24,12.41-4.81,22.19-10.66,29.34-17.63,9.55-8.95,17.1-20.19,22.67-33.74,5.55-13.55,8.31-28.28,8.31-44.18,0-17.47-3.34-33.43-10.08-47.87-5.47-11.65-13-21.28-22.55-28.85,11.2-8.79,20.13-19.86,26.9-33.23,7.24-14.37,11.55-29.57,12.89-45.51.12-.77.16-1.57.16-2.35.27-2.99.37-6,.37-9.08,0-20.62-3.65-37.86-11.03-51.72ZM464.07,404.12c-.35,14.44-5.47,27.1-15.28,37.95-8.36,9.24-20.36,14.7-36.01,16.39-5.94-2.08-12.29-4.26-19.06-6.53-25.12-8.31-40.79-15.14-47.1-20.52-.46-.42-.89-.81-1.34-1.2-8.17-7.73-12.27-18.09-12.27-31.04,0-.74,0-1.5.04-2.25.49-14.31,5.61-26.81,15.34-37.55,8.31-9.2,20.32-14.69,35.87-16.42,5.96,2.15,12.35,4.31,19.2,6.58,25.05,8.27,40.79,15.12,47.1,20.5.45.39.89.81,1.34,1.2,8.13,7.73,12.21,18.08,12.21,31.06,0,.64,0,1.19-.04,1.83Z"/>
    </g>
  </g>
</svg>