<?xml version="1.0" encoding="UTF-8"?>
<svg id="Nachbau" xmlns="http://www.w3.org/2000/svg" viewBox="0 0 800 800">
  <defs>
    <style>
      .cls-1 {
        fill: #206289;
      }

      .cls-1, .cls-2, .cls-3 {
        stroke-width: 0px;
      }

      .cls-2 {
        fill: #dddddc;
      }

      .cls-3 {
        fill: #73bbe7;
      }
    </style>
  </defs>
  <g id="G-0094_BUW_a_Icon_Primaerdaten">
    <g id="eins">
      <g>
        <path class="cls-3" d="M648.79,444.03c-1.45,11.65-6.36,22.99-14.8,32.32l-24.71,27.36-6.02,36.39c-2.04,12.31-7.76,23.13-15.86,31.5-7.56,9.1-17.88,16.05-30.08,19.35l-35.62,9.66-24.71,27.34c-8.42,9.32-19.19,15.37-30.66,17.99-11.18,3.49-23.51,3.71-35.46-.07l-35.14-11.13-35.62,9.66c-12.22,3.33-24.62,2.53-35.73-1.49-11.2-3.15-21.61-9.57-29.6-19.19l-23.56-28.38-35.15-11.11c-11.97-3.78-21.91-11.04-29.06-20.34-7.88-8.76-13.22-19.87-14.76-32.36l-4.48-36.62-23.56-28.36c-8.03-9.69-12.47-21.2-13.46-32.93v-.11c-1.83-11.54-.3-23.72,5.14-34.99l16-33.2-4.48-36.62c-1.54-12.56,1-24.71,6.56-35.15,4.69-10.68,12.56-20.07,23.2-26.59l31.46-19.3,16-33.2c5.45-11.34,14.1-20.16,24.35-25.91.07-.05.14-.09.18-.11,9.73-6.43,21.41-10.07,33.88-9.8l36.84.77,31.46-19.3c10.73-6.56,22.77-9.32,34.51-8.62,11.72-.18,23.6,3.06,34.01,10.07l30.6,20.57,36.86.77c12.45.27,23.97,4.37,33.4,11.2,10.09,6.18,18.44,15.41,23.47,27.04l14.62,33.85,30.6,20.57c10.46,7.04,17.95,16.86,22.2,27.83.02.02.02.07.05.09,5,10.57,6.95,22.68,4.91,35.01l-6,36.34,14.62,33.88c4.98,11.52,5.97,23.81,3.62,35.3Z"/>
        <path class="cls-2" d="M579.61,400.01c0,8.62-.61,17.09-1.79,25.37-.36,2.63-.79,5.21-1.27,7.78-5.95,31.86-20.3,60.76-40.67,84.32-1.72,1.99-3.49,3.94-5.3,5.84-21.5,22.77-48.9,39.9-79.75,48.97-2.53.77-5.11,1.47-7.69,2.08-13.83,3.42-28.27,5.23-43.13,5.23-17.49,0-34.42-2.51-50.4-7.17-2.58-.75-5.12-1.54-7.63-2.4-30.35-10.34-57.03-28.61-77.6-52.28-1.72-1.97-3.39-3.98-5-6.02-19.35-24.3-32.52-53.75-37.14-85.93-.39-2.6-.7-5.25-.97-7.9-.59-5.88-.88-11.86-.88-17.9,0-26.52,5.75-51.71,16.09-74.39,1.11-2.44,2.26-4.87,3.49-7.24,14.46-28.29,36.19-52.23,62.73-69.39,2.22-1.43,4.48-2.81,6.77-4.16,26.55-15.5,57.41-24.42,90.36-24.44h.18c2.58,0,5.14.04,7.67.18,32.79,1.36,63.3,11.52,89.23,28.18,2.24,1.45,4.46,2.92,6.63,4.46,25.73,18.19,46.48,43,59.77,71.94,1.11,2.42,2.17,4.87,3.17,7.35,8.46,20.84,13.13,43.63,13.13,67.51Z"/>
      </g>
      <path class="cls-1" d="M336.6,388.37l7.39-35.05c33.87-14.79,60.06-31.99,78.6-51.62h23.96l-42.31,201.97h-39.57l29.17-139.12c-8.22,5.3-17.69,10.13-28.41,14.51-10.73,4.38-20.33,7.49-28.82,9.31Z"/>
    </g>
  </g>
</svg>