<?xml version="1.0" encoding="UTF-8"?>
<svg id="Nachbau" xmlns="http://www.w3.org/2000/svg" viewBox="0 0 800 800">
  <defs>
    <style>
      .cls-1 {
        fill: #308fc9;
      }

      .cls-1, .cls-2, .cls-3, .cls-4 {
        stroke-width: 0px;
      }

      .cls-2 {
        fill: #206289;
      }

      .cls-3 {
        fill: #dddddc;
      }

      .cls-4 {
        fill: #73bbe7;
      }
    </style>
  </defs>
  <g id="G-0054_BUW_Icon_Datentyp_AV">
    <g>
      <g id="Form">
        <rect class="cls-1" x="100.63" y="175.27" width="598.38" height="84.42"/>
        <rect class="cls-4" x="100.63" y="259.69" width="598.73" height="365.05"/>
        <polygon class="cls-3" points="296.31 552.72 515.27 441.51 296.31 330.3 296.31 552.72"/>
      </g>
      <g id="Details">
        <polygon class="cls-2" points="223.51 217.48 208.94 229.93 174.14 259.69 140.05 259.69 155.33 246.62 189.41 217.48 155.33 188.34 140.05 175.27 174.14 175.27 208.94 205.02 223.51 217.48"/>
        <polygon class="cls-2" points="311.2 217.48 296.04 230.44 261.83 259.69 227.75 259.69 243.02 246.63 277.11 217.48 243.02 188.33 227.75 175.27 261.83 175.27 296.04 204.52 311.2 217.48"/>
        <polygon class="cls-2" points="398.3 217.48 383.73 229.94 348.93 259.69 314.85 259.69 330.12 246.63 364.21 217.48 330.12 188.33 314.85 175.27 348.93 175.27 383.73 205.01 398.3 217.48"/>
        <polygon class="cls-2" points="486 217.48 469.99 231.17 436.63 259.69 402.54 259.69 417.82 246.63 451.91 217.48 417.82 188.34 402.54 175.27 436.63 175.27 469.99 203.79 486 217.48"/>
        <polygon class="cls-2" points="572.25 217.48 557.68 229.94 522.89 259.69 488.8 259.69 504.08 246.62 538.16 217.48 504.08 188.34 488.8 175.27 522.89 175.27 557.68 205.01 572.25 217.48"/>
        <polygon class="cls-2" points="659.95 217.48 610.58 259.69 576.48 259.69 591.77 246.63 625.86 217.48 591.77 188.34 576.48 175.27 610.58 175.27 659.95 217.48"/>
      </g>
    </g>
  </g>
</svg>