<?xml version="1.0" encoding="UTF-8"?>
<svg id="Musthave" xmlns="http://www.w3.org/2000/svg" viewBox="0 0 800 800">
  <defs>
    <style>
      .cls-1 {
        fill: #206289;
      }

      .cls-1, .cls-2, .cls-3 {
        stroke-width: 0px;
      }

      .cls-2 {
        fill: #b9ddf3;
      }

      .cls-3 {
        fill: #fff;
      }
    </style>
  </defs>
  <g id="G-0091_BUW_Icon_Reproduzierbarkeit">
    <g id="Reproduzierbar">
      <g id="Blatt_Rechts" data-name="Blatt Rechts">
        <g id="Rechteck_Rechts" data-name="Rechteck Rechts">
          <path class="cls-2" d="M722.7,279.94v225.79h-184.29V244.33h116.37c.02,15.74,8.43,29.52,21.01,37.09,3.75,2.25,7.86,3.96,12.24,5,3.23.77,6.6,1.18,10.07,1.18,9.14,0,17.61-2.83,24.6-7.66Z"/>
        </g>
        <g id="Textlinien">
          <path class="cls-1" d="M688.03,286.42h-133.47v-5h121.23c3.75,2.25,7.86,3.96,12.24,5Z"/>
          <rect class="cls-1" x="554.56" y="305.4" width="152.56" height="5"/>
          <rect class="cls-1" x="554.56" y="327.55" width="152.56" height="5"/>
          <rect class="cls-1" x="554.56" y="349.69" width="152.56" height="5"/>
          <rect class="cls-1" x="554.56" y="371.84" width="152.56" height="5"/>
          <rect class="cls-1" x="554.56" y="417.97" width="152.56" height="5"/>
          <rect class="cls-1" x="554.56" y="394.91" width="152.56" height="5"/>
          <rect class="cls-1" x="554.56" y="441.04" width="152.45" height="5"/>
          <rect class="cls-1" x="554.56" y="463.63" width="152.56" height="5"/>
        </g>
      </g>
      <g id="Verbindungspfeile">
        <polygon class="cls-1" points="338.21 592.08 330.54 592.08 330.54 670.96 145.73 670.96 145.73 524.45 155.73 524.45 155.73 660.96 320.54 660.96 320.54 592.08 312.86 592.08 325.54 570.12 338.21 592.08"/>
        <polygon class="cls-1" points="643.23 546.41 635.56 546.41 635.56 670.96 451.12 670.96 451.12 570.12 461.12 570.12 461.12 660.96 625.56 660.96 625.56 546.41 617.88 546.41 630.56 524.45 643.23 546.41"/>
      </g>
      <g id="Blatt_Mitte" data-name="Blatt Mitte">
        <g id="Rechteck_Mitte" data-name="Rechteck Mitte">
          <path class="cls-2" d="M518.23,235.05v316.35h-255.17V189.46h168.24c0,24.19,15.5,44.76,37.1,52.32,5.73,2.01,11.89,3.1,18.31,3.1,3.39,0,6.72-.3,9.94-.89,7.91-1.43,15.23-4.54,21.58-8.94Z"/>
        </g>
        <g id="Textlinien-2" data-name="Textlinien">
          <path class="cls-1" d="M496.65,243.99v2.79h-211.23v-5h182.98c5.73,2.01,11.89,3.1,18.31,3.1,3.39,0,6.72-.3,9.94-.89Z"/>
          <rect class="cls-1" x="285.42" y="274.99" width="211.23" height="5"/>
          <rect class="cls-1" x="285.42" y="305.65" width="211.23" height="5"/>
          <rect class="cls-1" x="285.41" y="336.31" width="211.23" height="5"/>
          <rect class="cls-1" x="285.41" y="366.98" width="211.23" height="5"/>
          <rect class="cls-1" x="285.41" y="430.86" width="211.23" height="5"/>
          <rect class="cls-1" x="285.41" y="398.92" width="211.23" height="5"/>
          <rect class="cls-1" x="285.41" y="462.8" width="211.09" height="5"/>
          <rect class="cls-1" x="285.42" y="494.08" width="211.23" height="5"/>
        </g>
      </g>
      <g id="Blatt_Links" data-name="Blatt Links">
        <g id="Rechteck_Links" data-name="Rechteck Links">
          <path class="cls-2" d="M242.88,274.46v226.67H58.59V239.73h113.4c0,.44-.02.89-.02,1.33,0,14.85,7.47,27.96,18.87,35.76,3,2.06,6.27,3.75,9.75,5,4.59,1.66,9.54,2.56,14.7,2.56,10.48,0,20.1-3.73,27.59-9.92Z"/>
        </g>
        <g id="Textlinien-3" data-name="Textlinien">
          <path class="cls-1" d="M200.59,281.82h-125.85v-5h116.1c3,2.06,6.27,3.75,9.75,5Z"/>
          <rect class="cls-1" x="74.73" y="300.81" width="152.56" height="5"/>
          <rect class="cls-1" x="74.73" y="322.95" width="152.56" height="5"/>
          <rect class="cls-1" x="74.73" y="345.09" width="152.56" height="5"/>
          <rect class="cls-1" x="74.73" y="367.24" width="152.56" height="5"/>
          <rect class="cls-1" x="74.73" y="413.38" width="152.56" height="5"/>
          <rect class="cls-1" x="74.73" y="390.31" width="152.56" height="5"/>
          <rect class="cls-1" x="74.73" y="436.44" width="152.45" height="5"/>
          <rect class="cls-1" x="74.73" y="459.04" width="152.56" height="5"/>
        </g>
      </g>
      <g id="v1-v3">
        <g id="Rechts">
          <path class="cls-1" d="M698.1,200.96c-23.92,0-43.32,19.4-43.32,43.32v.05c.02,15.74,8.43,29.52,21.01,37.09,3.75,2.25,7.86,3.96,12.24,5,3.23.77,6.6,1.18,10.07,1.18,9.14,0,17.61-2.83,24.6-7.66,11.31-7.82,18.72-20.88,18.72-35.66,0-23.92-19.4-43.32-43.32-43.32ZM692.63,244.33l-10.71,17.42h-6.63l-3.49-17.42-2.23-11.1h7.57l1.8,11.1.22,1.33c.55,3.37.88,5.61.99,6.72.14-.31.77-1.47,1.87-3.48,1.1-2.02,1.77-3.23,2.02-3.64l.55-.93,6.54-11.1h8.33l-6.83,11.1ZM725.05,238.01c-1.2,1.65-2.84,2.85-4.94,3.62,1.67.88,2.89,2.02,3.68,3.41.79,1.4,1.18,2.86,1.18,4.38,0,2.48-.76,4.8-2.27,6.94-.25.36-.52.71-.82,1.06-2.81,3.33-6.43,5-10.87,5-3.33,0-6.08-.95-8.23-2.86-2.16-1.91-3.47-4.61-3.94-8.1l7.39-.88c.3,2.09.85,3.54,1.65,4.35.8.8,1.86,1.21,3.18,1.21,1.76,0,3.21-.6,4.37-1.78,1.15-1.18,1.73-2.69,1.73-4.54,0-1.61-.47-2.88-1.4-3.82-.93-.94-2.18-1.41-3.76-1.41-.39,0-.8.03-1.23.1l.08-.36,1.26-6.05c.27.03.53.05.78.05,2.06,0,3.62-.52,4.7-1.57,1.07-1.05,1.61-2.47,1.61-4.26,0-1.27-.36-2.27-1.09-3.01-.72-.73-1.68-1.1-2.86-1.1-1.11,0-2.1.41-2.98,1.23-.88.81-1.58,2.2-2.09,4.17l-7.04-1.39c.89-2.91,2.14-5.13,3.73-6.69,2.42-2.33,5.39-3.49,8.92-3.49s6.36,1,8.24,3.02c1.88,2.01,2.82,4.43,2.82,7.24,0,2.04-.6,3.88-1.8,5.53Z"/>
          <g id="Text_v3" data-name="Text v3">
            <path class="cls-3" d="M699.46,233.23l-6.83,11.1-10.71,17.42h-6.63l-3.49-17.42-2.23-11.1h7.57l1.8,11.1.22,1.33c.55,3.37.88,5.61.99,6.72.14-.31.77-1.47,1.87-3.48,1.1-2.02,1.77-3.23,2.02-3.64l.55-.93,6.54-11.1h8.33Z"/>
            <path class="cls-3" d="M720.11,241.63c1.67.88,2.89,2.02,3.68,3.41.79,1.4,1.18,2.86,1.18,4.38,0,2.48-.76,4.8-2.27,6.94-.25.36-.52.71-.82,1.06-2.81,3.33-6.43,5-10.87,5-3.33,0-6.08-.95-8.23-2.86-2.16-1.91-3.47-4.61-3.94-8.1l7.39-.88c.3,2.09.85,3.54,1.65,4.35.8.8,1.86,1.21,3.18,1.21,1.76,0,3.21-.6,4.37-1.78,1.15-1.18,1.73-2.69,1.73-4.54,0-1.61-.47-2.88-1.4-3.82-.93-.94-2.18-1.41-3.76-1.41-.39,0-.8.03-1.23.1l.08-.36,1.26-6.05c.27.03.53.05.78.05,2.06,0,3.62-.52,4.7-1.57,1.07-1.05,1.61-2.47,1.61-4.26,0-1.27-.36-2.27-1.09-3.01-.72-.73-1.68-1.1-2.86-1.1-1.11,0-2.1.41-2.98,1.23-.88.81-1.58,2.2-2.09,4.17l-7.04-1.39c.89-2.91,2.14-5.13,3.73-6.69,2.42-2.33,5.39-3.49,8.92-3.49s6.36,1,8.24,3.02c1.88,2.01,2.82,4.43,2.82,7.24,0,2.04-.6,3.88-1.8,5.53-1.2,1.65-2.84,2.85-4.94,3.62Z"/>
          </g>
        </g>
        <g id="Links">
          <path class="cls-1" d="M215.29,197.74c-23.49,0-42.6,18.69-43.3,41.99,0,.44-.02.89-.02,1.33,0,14.85,7.47,27.96,18.87,35.76,3,2.06,6.27,3.75,9.75,5,4.59,1.66,9.54,2.56,14.7,2.56,10.48,0,20.1-3.73,27.59-9.92,9.61-7.95,15.73-19.96,15.73-33.4,0-23.92-19.4-43.32-43.32-43.32ZM213.89,239.73l-13.17,21.42h-6.63l-4.3-21.42-1.42-7.1h7.57l1.15,7.1.86,5.33c.56,3.37.89,5.61,1,6.72.14-.31.76-1.47,1.86-3.48,1.1-2.01,1.78-3.23,2.03-3.64l2.91-4.93,4.18-7.1h8.33l-4.37,7.1ZM239.13,239.73l-4.49,21.42h-7.76l4.49-21.42,1.23-5.86c-1.61,1.03-3.47,1.98-5.58,2.84-2.1.86-3.98,1.47-5.65,1.83l1.45-6.88c6.64-2.9,11.78-6.27,15.42-10.12h4.7l-3.81,18.19Z"/>
          <g id="Text_v1" data-name="Text v1">
            <path class="cls-3" d="M218.26,232.63l-4.37,7.1-13.17,21.42h-6.63l-4.3-21.42-1.42-7.1h7.57l1.15,7.1.86,5.33c.56,3.37.89,5.61,1,6.72.14-.31.76-1.47,1.86-3.48,1.1-2.01,1.78-3.23,2.03-3.64l2.91-4.93,4.18-7.1h8.33Z"/>
            <path class="cls-3" d="M242.94,221.54l-3.81,18.19-4.49,21.42h-7.76l4.49-21.42,1.23-5.86c-1.61,1.03-3.47,1.98-5.58,2.84-2.1.86-3.98,1.47-5.65,1.83l1.45-6.88c6.64-2.9,11.78-6.27,15.42-10.12h4.7Z"/>
          </g>
        </g>
        <g id="Mitte">
          <path class="cls-1" d="M486.71,134.05c-30.6,0-55.41,24.81-55.41,55.41,0,24.19,15.5,44.76,37.1,52.32,5.73,2.01,11.89,3.1,18.31,3.1,3.39,0,6.72-.3,9.94-.89,7.91-1.43,15.23-4.54,21.58-8.94,14.44-10,23.9-26.69,23.9-45.59,0-30.6-24.81-55.41-55.42-55.41ZM478.72,189.46l-13.78,22.41h-8.44l-4.49-22.41-2.79-13.89h9.64l2.25,13.89.31,1.93c.71,4.29,1.13,7.14,1.26,8.55.19-.39.98-1.86,2.38-4.43,1.4-2.56,2.26-4.1,2.58-4.63l.84-1.42,8.18-13.89h10.6l-8.54,13.89ZM521.64,180.95c-.82,2-2.16,4.09-4.03,6.27-.55.64-1.24,1.38-2.08,2.24-1.21,1.23-2.72,2.67-4.52,4.34-3.05,2.84-5.07,4.78-6.06,5.81-.99,1.04-1.95,2.14-2.86,3.3h17.37l-1.23,5.96-.62,3h-30.45c.32-2.46,1.04-4.81,2.17-7.03,1.13-2.22,2.53-4.29,4.22-6.2,1.67-1.9,4.73-4.96,9.18-9.18.03-.03.05-.05.08-.08,3.37-3.24,5.5-5.35,6.39-6.33,1.6-1.77,2.69-3.31,3.28-4.61.6-1.3.89-2.47.89-3.52,0-1.69-.49-3.05-1.48-4.1-1-1.05-2.25-1.58-3.78-1.58s-2.91.59-4.07,1.77c-1.16,1.17-2.04,3.29-2.63,6.37l-9.6-1.44c.77-4.64,2.58-8.2,5.41-10.68,2.84-2.47,6.39-3.71,10.65-3.71,4.67,0,8.34,1.27,11.01,3.8,2.66,2.53,3.99,5.74,3.99,9.64,0,1.98-.41,3.97-1.23,5.96Z"/>
          <g id="Text_v2" data-name="Text v2">
            <path class="cls-3" d="M487.26,175.57l-8.54,13.89-13.78,22.41h-8.44l-4.49-22.41-2.79-13.89h9.64l2.25,13.89.31,1.93c.71,4.29,1.13,7.14,1.26,8.55.19-.39.98-1.86,2.38-4.43,1.4-2.56,2.26-4.1,2.58-4.63l.84-1.42,8.18-13.89h10.6Z"/>
            <path class="cls-3" d="M504.95,199.61c-.99,1.04-1.95,2.14-2.86,3.3h17.37l-1.23,5.96-.62,3h-30.45c.32-2.46,1.04-4.81,2.17-7.03,1.13-2.22,2.53-4.29,4.22-6.2,1.67-1.9,4.73-4.96,9.18-9.18.03-.03.05-.05.08-.08,3.37-3.24,5.5-5.35,6.39-6.33,1.6-1.77,2.69-3.31,3.28-4.61.6-1.3.89-2.47.89-3.52,0-1.69-.49-3.05-1.48-4.1-1-1.05-2.25-1.58-3.78-1.58s-2.91.59-4.07,1.77c-1.16,1.17-2.04,3.29-2.63,6.37l-9.6-1.44c.77-4.64,2.58-8.2,5.41-10.68,2.84-2.47,6.39-3.71,10.65-3.71,4.67,0,8.34,1.27,11.01,3.8,2.66,2.53,3.99,5.74,3.99,9.64,0,1.98-.41,3.97-1.23,5.96-.82,2-2.16,4.09-4.03,6.27-.55.64-1.24,1.38-2.08,2.24-1.21,1.23-2.72,2.67-4.52,4.34-3.05,2.84-5.07,4.78-6.06,5.81Z"/>
          </g>
        </g>
      </g>
    </g>
  </g>
</svg>