<?xml version="1.0" encoding="UTF-8"?>
<svg id="Musthave" xmlns="http://www.w3.org/2000/svg" viewBox="0 0 800 800">
  <defs>
    <style>
      .cls-1 {
        fill: #308fc9;
      }

      .cls-1, .cls-2, .cls-3, .cls-4, .cls-5 {
        stroke-width: 0px;
      }

      .cls-2 {
        fill: #206289;
      }

      .cls-3 {
        fill: #dddddc;
      }

      .cls-4 {
        fill: #73bbe7;
      }

      .cls-5 {
        fill: #b9ddf3;
      }

      .cls-6 {
        opacity: .8;
      }
    </style>
  </defs>
  <g id="G-0087_BUW_Icon_Datenpraxis">
    <g>
      <g id="Blatt_dunkel" data-name="Blatt dunkel">
        <g>
          <path class="cls-1" d="M492.72,444.44c-.66,6.08-1.92,12.11-3.77,18-1.56,4.97-3.53,9.83-5.94,14.54-3.22,6.32-7.2,12.37-11.96,18-.82.99-1.67,1.96-2.55,2.92-1.02,1.11-2.07,2.21-3.14,3.27-3.86,3.85-7.98,7.29-12.31,10.34-3.74,2.63-7.64,4.97-11.67,7-7.92,4-16.32,6.84-24.91,8.47-11.77,2.26-23.91,2.27-35.72,0-.8-.16-1.6-.32-2.4-.5-.79-.17-1.59-.36-2.38-.55-.03,0-.05,0-.07-.02-2.02-.49-4.03-1.05-6.02-1.69-3.74-1.18-7.44-2.62-11.05-4.29-.98-.46-1.96-.93-2.93-1.42-1-.51-1.99-1.03-2.98-1.58-1.48-.82-2.95-1.68-4.4-2.58-1.45-.9-2.88-1.85-4.29-2.84-.01,0-.03-.02-.04-.03-.97-.68-1.93-1.39-2.88-2.11-.02-.01-.05-.03-.07-.05-2.23-1.7-4.41-3.52-6.52-5.46-2.83-2.58-5.47-5.29-7.89-8.12-.39-.47-.78-.93-1.17-1.39-2.24-2.71-4.32-5.51-6.21-8.4-.29-.43-.57-.87-.85-1.32-.52-.8-1.01-1.61-1.48-2.42-1.02-1.72-1.98-3.46-2.87-5.23h.05c-2.41-4.7-4.39-9.57-5.94-14.54-.07-.2-.13-.39-.19-.59-.85-2.78-1.57-5.58-2.15-8.41-.49-2.28-.88-4.59-1.18-6.89-.09-.7-.18-1.4-.26-2.11h-.07v-.03c-.36-3.29-.56-6.61-.58-9.94,0-1.73.03-3.47.11-5.19.03-.63.07-1.25.13-1.88h.07c.2-3.01.55-6.01,1.05-9h0c.51-3.03,1.16-6.03,1.95-9,1.23-4.54,2.79-9.01,4.7-13.38.26-.59.52-1.18.8-1.76.29-.64.6-1.27.91-1.9,1.09-2.22,2.27-4.41,3.54-6.56.29-.49.58-.97.88-1.46.2-.33.41-.66.63-.98,2.91-4.61,6.28-9.02,10.09-13.18,3.7-4.06,7.69-7.72,11.87-10.96.22-.17.43-.33.65-.49v-.08c.59-.46,1.19-.91,1.79-1.34,0-.01.03-.02.04-.03,4.84-3.52,9.95-6.52,15.25-9,2.25-1.05,4.54-2.02,6.87-2.89,18.73-7.03,39.3-7.95,58.58-2.63,1.29.36,2.58.74,3.86,1.16.63.2,1.26.41,1.89.63,3.13,1.08,6.21,2.33,9.24,3.76,1.29.61,2.58,1.25,3.85,1.93,1.46.76,2.9,1.57,4.32,2.43,1.16.69,2.31,1.4,3.44,2.15.04.02.08.05.12.08,1.18.77,2.34,1.58,3.49,2.41.86.61,1.71,1.25,2.56,1.91,2.03,1.55,3.99,3.21,5.9,4.96.97.9,1.93,1.8,2.85,2.74,2.4,2.38,4.65,4.87,6.74,7.44,4.59,5.62,8.44,11.67,11.53,18,2.7,5.49,4.84,11.2,6.4,17.04,1.59,5.9,2.6,11.93,3.02,18,.41,5.67.3,11.38-.33,17.04Z"/>
          <path class="cls-1" d="M200.94,86.68v569.08h401.22V86.68H200.94ZM476.28,520.72c-1.93,1.73-3.9,3.39-5.92,4.97-1.64,1.28-3.31,2.52-5,3.7-6.37,4.48-13.11,8.24-20.1,11.29-.81.36-1.63.7-2.45,1.04-.37.15-.75.3-1.12.44-.35.15-.7.28-1.05.42-.45.18-.9.34-1.35.51-1.76.66-3.53,1.27-5.32,1.84-.9.28-1.79.56-2.69.82-2.05.6-4.11,1.13-6.18,1.61-.91.22-1.82.42-2.73.61-.61.13-1.23.25-1.84.36-.1.03-.2.05-.3.05-.39.08-.8.16-1.19.23h-.03c-1.61.29-3.22.54-4.83.76-.09,0-.19.02-.28.04-.05,0-.1,0-.15.02-.17.02-.34.04-.51.06-.6.08-1.2.15-1.8.21-.16.02-.32.04-.48.05-.31.04-.62.07-.94.1-.25.02-.51.05-.76.07-.1,0-.2.02-.3.02-.02.01-.04.01-.06.01,0,0-.03,0-.05,0-.15,0-.3.03-.44.03-.51.05-1.02.09-1.53.12-.11.02-.22.02-.33.03-.31.02-.63.04-.94.05-.1.02-.19.02-.29.02-.36.03-.73.05-1.09.06-.08,0-.17,0-.26,0-.58.03-1.17.06-1.75.07-.09,0-.19,0-.28,0-.17,0-.35.01-.52.01-.18,0-.36,0-.54,0-.15,0-.31,0-.46,0-.6.02-1.2.02-1.8.02-.85,0-1.7-.01-2.55-.03-.22,0-.44,0-.65-.02-.45,0-.91-.02-1.36-.04-.14,0-.27,0-.41-.02-.2,0-.41-.02-.61-.03-.07,0-.15,0-.23-.01-.36,0-.72-.03-1.08-.05-.03,0-.07,0-.11,0-.1-.01-.2-.02-.31-.02-.26-.02-.53-.04-.81-.06-.09,0-.18-.01-.28-.02-.59-.04-1.2-.09-1.8-.14-.8-.07-1.61-.15-2.42-.24-.09,0-.18-.02-.28-.03-.79-.09-1.59-.19-2.38-.29-.84-.11-1.69-.24-2.53-.37-.86-.12-1.72-.26-2.58-.42-.68-.12-1.36-.25-2.04-.39-.9-.17-1.79-.35-2.69-.55-.39-.09-.78-.18-1.16-.27-1.03-.23-2.06-.49-3.08-.76-.46-.11-.91-.23-1.36-.36-2.06-.56-4.11-1.18-6.14-1.86-7.34-2.44-14.47-5.63-21.31-9.6-4.07-2.34-8.01-4.95-11.82-7.84-.55-.41-1.09-.83-1.63-1.25-.4-.31-.79-.62-1.18-.94-.03-.01-.06-.04-.09-.07-.34-.26-.67-.53-1-.81-.63-.52-1.26-1.04-1.88-1.59-.5-.43-1-.87-1.5-1.31-.41-.35-.82-.72-1.23-1.09-.14-.13-.29-.27-.43-.4-.36-.33-.71-.67-1.07-1.01-.49-.45-.96-.91-1.43-1.38-.38-.37-.76-.74-1.13-1.12-.02-.02-.03-.03-.05-.05-.71-.71-1.4-1.43-2.09-2.16-.07-.08-.14-.15-.21-.22-.55-.58-1.08-1.16-1.61-1.75-1.36-1.51-2.68-3.05-3.94-4.61-.24-.29-.47-.57-.69-.86-.4-.5-.79-1-1.18-1.51-.24-.31-.48-.62-.71-.94-.42-.54-.82-1.1-1.22-1.65-.24-.33-.48-.66-.71-1-1.02-1.42-1.99-2.86-2.92-4.32-.55-.84-1.08-1.7-1.6-2.56-1.18-1.94-2.3-3.9-3.35-5.9-.44-.83-.87-1.66-1.28-2.5-.23-.44-.44-.87-.65-1.32-.19-.39-.38-.78-.55-1.18-.02-.01-.03-.03-.02-.05-.36-.76-.71-1.53-1.05-2.3-.12-.25-.24-.5-.34-.76-.27-.63-.54-1.26-.8-1.89-.14-.33-.28-.66-.4-.99-.23-.55-.45-1.11-.66-1.66-.22-.56-.43-1.13-.63-1.7-.12-.29-.23-.59-.32-.88-.22-.58-.42-1.17-.61-1.76-.48-1.36-.91-2.74-1.32-4.12-.55-1.83-1.05-3.67-1.5-5.52-.23-.93-.45-1.87-.65-2.81-.02-.08-.04-.17-.06-.26-.2-.94-.4-1.89-.58-2.84-.16-.83-.31-1.66-.45-2.5-.14-.83-.27-1.66-.39-2.5h0c-.05-.33-.09-.64-.13-.96-.03-.16-.05-.33-.07-.5-.09-.65-.17-1.3-.25-1.95-.51-4.33-.77-8.67-.79-13.03,0-1.74.02-3.47.09-5.19.03-.7.06-1.41.11-2.11.03-.58.07-1.17.12-1.75,0-.27.03-.53.06-.8.03-.36.05-.74.09-1.11.05-.54.1-1.08.17-1.61.03-.34.07-.69.11-1.03.09-.84.2-1.67.31-2.5h0c.11-.84.23-1.67.36-2.5.67-4.29,1.58-8.55,2.74-12.76.13-.47.26-.94.4-1.41.14-.51.3-1.02.45-1.53.08-.27.17-.53.25-.8.24-.78.49-1.55.75-2.32.31-.95.64-1.89.97-2.82.9-2.48,1.89-4.93,2.97-7.36.15-.35.31-.69.47-1.04.22-.51.45-1.01.69-1.52.16-.33.32-.65.48-.98.4-.84.82-1.67,1.25-2.5.24-.47.49-.95.74-1.42.22-.41.43-.82.66-1.23.02-.04.05-.09.07-.13.19-.34.38-.68.57-1.01.79-1.42,1.61-2.81,2.47-4.2.37-.59.75-1.18,1.12-1.76.28-.45.58-.9.89-1.36.6-.9,1.21-1.8,1.84-2.69.49-.7.99-1.39,1.5-2.08.5-.67,1-1.34,1.51-2.01.04-.05.08-.1.12-.15.27-.34.53-.69.81-1.03.68-.86,1.38-1.72,2.09-2.57,1.05-1.25,2.14-2.49,3.25-3.71.64-.7,1.28-1.38,1.93-2.06.82-.85,1.66-1.69,2.5-2.51l.13-.13c.77-.77,1.57-1.52,2.37-2.26.09-.08.17-.16.26-.24.32-.3.66-.6.99-.9.6-.54,1.2-1.07,1.81-1.6.75-.64,1.5-1.28,2.26-1.89.52-.43,1.05-.86,1.57-1.27,0-.01.03-.02.04-.03.49-.39.98-.78,1.48-1.15,2.44-1.88,4.96-3.64,7.52-5.28,7.77-5.02,16.04-9.02,24.59-12.01.6-.21,1.21-.42,1.81-.61.58-.2,1.16-.38,1.75-.57.04-.01.08-.03.12-.04.59-.18,1.18-.36,1.77-.53,1.22-.37,2.45-.7,3.67-1.02.39-.1.78-.2,1.17-.3.34-.09.68-.17,1.02-.25.38-.09.77-.18,1.15-.27,2.03-.46,4.07-.87,6.11-1.22.82-.14,1.65-.28,2.47-.4.53-.08,1.05-.16,1.58-.22,3.61-.5,7.23-.83,10.86-.98.67-.03,1.34-.05,2-.06,4.25-.12,8.5,0,12.74.36.81.07,1.62.14,2.43.23,1.62.17,3.23.37,4.84.61.81.11,1.62.24,2.42.38,6.44,1.08,12.8,2.71,19.02,4.89,9.86,3.44,19.36,8.26,28.22,14.49,1.69,1.18,3.36,2.42,5,3.7,2.33,1.82,4.6,3.74,6.82,5.77,5.57,5.1,10.54,10.61,14.87,16.45,2.52,3.38,4.83,6.86,6.93,10.44.14.24.28.48.41.72v116.53c-.13.24-.27.47-.41.71-.36.61-.72,1.23-1.1,1.83-1.82,3-3.81,5.92-5.94,8.78l6.62,6.06.83.76v31.42l-23.11-21.12Z"/>
        </g>
      </g>
      <g id="Blatt_hell" data-name="Blatt hell">
        <g>
          <path class="cls-5" d="M492.72,444.44c-.66,6.08-1.92,12.11-3.77,18-1.56,4.97-3.53,9.83-5.94,14.54-3.22,6.32-7.2,12.37-11.96,18-.82.99-1.67,1.96-2.55,2.92-1.02,1.11-2.07,2.21-3.14,3.27-3.86,3.85-7.98,7.29-12.31,10.34-3.74,2.63-7.64,4.97-11.67,7-7.92,4-16.32,6.84-24.91,8.47-11.77,2.26-23.91,2.27-35.72,0-.8-.16-1.6-.32-2.4-.5-.79-.17-1.59-.36-2.38-.55-.03,0-.05,0-.07-.02-2.02-.49-4.03-1.05-6.02-1.69-3.74-1.18-7.44-2.62-11.05-4.29-.98-.46-1.96-.93-2.93-1.42-1-.51-1.99-1.03-2.98-1.58-1.48-.82-2.95-1.68-4.4-2.58-1.45-.9-2.88-1.85-4.29-2.84-.01,0-.03-.02-.04-.03-.97-.68-1.93-1.39-2.88-2.11-.02-.01-.05-.03-.07-.05-2.23-1.7-4.41-3.52-6.52-5.46-2.83-2.58-5.47-5.29-7.89-8.12-.39-.47-.78-.93-1.17-1.39-2.24-2.71-4.32-5.51-6.21-8.4-.29-.43-.57-.87-.85-1.32-.52-.8-1.01-1.61-1.48-2.42-1.02-1.72-1.98-3.46-2.87-5.23h.05c-2.41-4.7-4.39-9.57-5.94-14.54-.07-.2-.13-.39-.19-.59-.85-2.78-1.57-5.58-2.15-8.41-.49-2.28-.88-4.59-1.18-6.89-.09-.7-.18-1.4-.26-2.11h-.07v-.03c-.36-3.29-.56-6.61-.58-9.94,0-1.73.03-3.47.11-5.19.03-.63.07-1.25.13-1.88h.07c.2-3.01.55-6.01,1.05-9h0c.51-3.03,1.16-6.03,1.95-9,1.23-4.54,2.79-9.01,4.7-13.38.26-.59.52-1.18.8-1.76.29-.64.6-1.27.91-1.9,1.09-2.22,2.27-4.41,3.54-6.56.29-.49.58-.97.88-1.46.2-.33.41-.66.63-.98,2.91-4.61,6.28-9.02,10.09-13.18,3.7-4.06,7.69-7.72,11.87-10.96.22-.17.43-.33.65-.49v-.08c.59-.46,1.19-.91,1.79-1.34,0-.01.03-.02.04-.03,4.84-3.52,9.95-6.52,15.25-9,2.25-1.05,4.54-2.02,6.87-2.89,18.73-7.03,39.3-7.95,58.58-2.63,1.29.36,2.58.74,3.86,1.16.63.2,1.26.41,1.89.63,3.13,1.08,6.21,2.33,9.24,3.76,1.29.61,2.58,1.25,3.85,1.93,1.46.76,2.9,1.57,4.32,2.43,1.16.69,2.31,1.4,3.44,2.15.04.02.08.05.12.08,1.18.77,2.34,1.58,3.49,2.41.86.61,1.71,1.25,2.56,1.91,2.03,1.55,3.99,3.21,5.9,4.96.97.9,1.93,1.8,2.85,2.74,2.4,2.38,4.65,4.87,6.74,7.44,4.59,5.62,8.44,11.67,11.53,18,2.7,5.49,4.84,11.2,6.4,17.04,1.59,5.9,2.6,11.93,3.02,18,.41,5.67.3,11.38-.33,17.04Z"/>
          <path class="cls-5" d="M282.37,429.31c-.07,1.72-.1,3.45-.09,5.19.02,4.36.28,8.7.79,13.03.08.65.16,1.3.25,1.95.02.17.04.34.07.5.04.32.08.63.13.95h0c.12.85.25,1.68.39,2.51.14.84.29,1.67.45,2.5.18.95.38,1.9.58,2.84.02.09.04.18.06.26.2.94.42,1.88.65,2.81.45,1.85.95,3.69,1.5,5.52.41,1.38.84,2.76,1.32,4.12.19.59.39,1.18.61,1.76.09.29.2.59.32.88.2.57.41,1.14.63,1.7.21.55.43,1.11.66,1.66.12.33.26.66.4.99.26.63.53,1.26.8,1.89.1.26.22.51.34.76.34.77.69,1.54,1.05,2.3,0,.02,0,.04.02.05.17.4.36.79.55,1.18.21.45.42.88.65,1.32.41.84.84,1.67,1.28,2.5,1.05,2,2.17,3.96,3.35,5.9.52.86,1.05,1.72,1.6,2.56.93,1.46,1.9,2.9,2.92,4.32.23.34.47.67.71,1,.4.55.8,1.11,1.22,1.65.23.32.47.63.71.94.39.51.78,1.01,1.18,1.51.22.29.45.57.69.86,1.26,1.56,2.58,3.1,3.94,4.61.53.59,1.06,1.17,1.61,1.75.07.07.14.14.21.22.69.73,1.38,1.45,2.09,2.16.02.02.03.03.05.05.37.38.75.75,1.13,1.12.47.47.94.93,1.43,1.38.36.34.71.68,1.07,1.01.14.13.29.27.43.4.41.37.82.74,1.23,1.09.5.44,1,.88,1.5,1.31.62.55,1.25,1.07,1.88,1.59.33.28.66.55,1,.81.03.03.06.06.09.07.39.32.78.63,1.18.94.54.42,1.08.84,1.63,1.25,3.81,2.89,7.75,5.5,11.82,7.84,6.84,3.97,13.97,7.16,21.31,9.6,2.03.68,4.08,1.3,6.14,1.86.45.13.9.25,1.36.36,1.02.27,2.05.53,3.08.76.38.09.77.18,1.16.27.9.2,1.79.38,2.69.55.68.14,1.36.27,2.04.39.86.16,1.72.3,2.58.42.84.13,1.69.26,2.53.37.79.1,1.59.2,2.38.29.1.01.19.02.28.03.81.09,1.62.17,2.42.24.6.05,1.21.1,1.8.14.1,0,.19.02.28.02.28.02.55.04.81.06.11,0,.21.01.31.02.04,0,.08,0,.11,0,.36.02.72.04,1.08.05.08.01.16.01.23.01.2,0,.41.02.61.03.14.01.27.01.41.02.45.02.91.03,1.36.04.21.01.43.02.65.02.85.02,1.7.03,2.55.03.6,0,1.2,0,1.8-.02.15,0,.31,0,.46,0,.18,0,.36,0,.54,0,.17,0,.35-.01.52-.01.09,0,.19,0,.28,0,.58-.01,1.17-.04,1.75-.07.09,0,.18,0,.26,0,.36-.01.73-.03,1.09-.06.1,0,.19,0,.29-.02.31-.01.63-.03.94-.05.11,0,.22,0,.33-.03.51-.03,1.02-.07,1.53-.12.14,0,.29-.02.44-.03.02,0,.04,0,.05,0,.02,0,.04,0,.06-.01.1,0,.2-.01.3-.02.25-.02.51-.05.76-.07.32-.03.63-.06.94-.1.16-.01.32-.03.48-.05.6-.06,1.2-.13,1.8-.21.17-.02.34-.04.51-.06.05,0,.1-.02.15-.02.09-.02.19-.03.28-.04,1.61-.22,3.22-.47,4.83-.76h.03c.39-.07.8-.15,1.19-.23.1,0,.2-.02.3-.05.61-.11,1.23-.23,1.84-.36.91-.19,1.82-.39,2.73-.61,2.07-.48,4.13-1.01,6.18-1.61.9-.26,1.79-.54,2.69-.82,1.79-.57,3.56-1.18,5.32-1.84.45-.17.9-.33,1.35-.51.35-.14.7-.27,1.05-.42.37-.14.75-.29,1.12-.44.82-.34,1.64-.68,2.45-1.04,6.99-3.05,13.73-6.81,20.1-11.29,1.69-1.18,3.36-2.42,5-3.7,2.02-1.58,3.99-3.24,5.92-4.97l23.11,21.12v143.88H98.26V116.75h293.49l.57.57,106.51,106.5.56.56v151.37c-.13-.24-.27-.48-.41-.72-2.1-3.58-4.41-7.06-6.93-10.44-4.33-5.84-9.3-11.35-14.87-16.45-2.22-2.03-4.49-3.95-6.82-5.77-1.64-1.28-3.31-2.52-5-3.7-8.86-6.23-18.36-11.05-28.22-14.49-6.22-2.18-12.58-3.81-19.02-4.89-.8-.14-1.61-.27-2.42-.38-1.61-.24-3.22-.44-4.84-.61-.81-.09-1.62-.16-2.43-.23-4.24-.36-8.49-.48-12.74-.36-.66,0-1.33.03-2,.06-3.63.15-7.25.48-10.86.98-.53.06-1.05.14-1.58.22-.82.12-1.65.26-2.47.4-2.04.35-4.08.76-6.11,1.22-.38.09-.77.18-1.15.27-.34.08-.68.16-1.02.25-.39.1-.78.2-1.17.3-1.22.32-2.45.65-3.67,1.02-.59.17-1.18.35-1.77.53-.04,0-.08.03-.12.04-.59.19-1.17.37-1.75.57-.6.19-1.21.4-1.81.61-8.55,2.99-16.82,6.99-24.59,12.01-2.56,1.64-5.08,3.4-7.52,5.28-.5.37-.99.76-1.48,1.15,0,0-.03.02-.04.03-.52.41-1.05.84-1.57,1.27-.76.61-1.51,1.25-2.26,1.89-.61.53-1.21,1.06-1.81,1.6-.33.3-.67.6-.99.9-.09.08-.17.16-.26.24-.8.74-1.6,1.49-2.37,2.26l-.13.13c-.84.82-1.68,1.66-2.5,2.51-.65.68-1.29,1.36-1.93,2.06-1.11,1.22-2.2,2.46-3.25,3.71-.71.85-1.41,1.71-2.09,2.57-.28.34-.54.69-.81,1.03-.04.05-.08.1-.12.15-.51.67-1.01,1.34-1.51,2.01-.51.69-1.01,1.38-1.5,2.08-.63.89-1.24,1.79-1.84,2.69-.31.46-.61.91-.89,1.36-.37.58-.75,1.17-1.12,1.76-.86,1.39-1.68,2.78-2.47,4.2-.19.33-.38.67-.57,1.01-.02.04-.05.09-.07.13-.23.41-.44.82-.66,1.23-.25.47-.5.95-.74,1.42-.43.83-.85,1.66-1.25,2.5-.16.33-.32.65-.48.98-.24.51-.47,1.01-.69,1.52-.16.35-.32.69-.47,1.04-1.08,2.43-2.07,4.88-2.97,7.36-.33.93-.66,1.87-.97,2.82-.26.77-.51,1.54-.75,2.32-.08.27-.17.53-.25.8-.15.51-.31,1.02-.45,1.53-.14.47-.27.94-.4,1.41-1.16,4.21-2.07,8.47-2.74,12.76-.13.83-.25,1.66-.36,2.49h0c-.11.84-.22,1.67-.31,2.51-.04.34-.08.69-.11,1.03-.07.53-.12,1.07-.17,1.61-.04.37-.06.75-.09,1.11-.03.27-.05.53-.06.8-.05.58-.09,1.17-.12,1.75-.05.7-.08,1.41-.11,2.11Z"/>
          <path class="cls-5" d="M499.39,492.28v18.14l-.83-.76-6.62-6.06c2.13-2.86,4.12-5.78,5.94-8.78.38-.6.74-1.22,1.1-1.83.14-.24.28-.47.41-.71Z"/>
        </g>
        <polygon class="cls-4" points="499.39 223.81 499.39 223.82 392.32 223.82 392.32 116.75 392.35 116.78 499.39 223.81"/>
      </g>
      <g id="Tabelle_Lupe" data-name="Tabelle + Lupe">
        <g id="Tablelle">
          <rect class="cls-4" x="132.57" y="279" width="43.12" height="31.77"/>
          <rect class="cls-4" x="180.69" y="257.89" width="134" height="16.11"/>
          <rect class="cls-4" x="132.57" y="257.89" width="43.12" height="16.11"/>
          <rect class="cls-4" x="132.57" y="553.61" width="43.12" height="30.04"/>
          <rect class="cls-4" x="132.57" y="521.01" width="43.06" height="27.6"/>
          <rect class="cls-4" x="132.57" y="488.48" width="43.12" height="27.53"/>
          <rect class="cls-4" x="132.57" y="455.94" width="43.12" height="27.54"/>
          <rect class="cls-4" x="132.57" y="420.9" width="43.12" height="30.04"/>
          <rect class="cls-4" x="132.57" y="385.86" width="43.12" height="30.04"/>
          <rect class="cls-4" x="132.57" y="350.81" width="43.12" height="30.05"/>
          <rect class="cls-4" x="132.57" y="315.77" width="43.12" height="30.04"/>
          <rect class="cls-4" x="132.57" y="588.65" width="43.12" height="29.94"/>
          <rect class="cls-4" x="319.69" y="257.89" width="145.67" height="16.14"/>
          <path class="cls-2" d="M470.36,342.37v-89.48H127.57v370.7h342.79v-97.9c-1.64,1.28-3.31,2.52-5,3.7v19.22h-46.35c-1.61.29-3.22.54-4.83.76-.09,0-.19.02-.28.04-.05,0-.1,0-.15.02-.17.02-.34.04-.51.06-.6.08-1.2.15-1.8.21-.16.02-.32.04-.48.05-.31.04-.62.07-.94.1-.25.02-.51.05-.76.07-.11.02-.24.03-.36.03,0,0-.03,0-.05,0-.15,0-.3.03-.44.03-.51.05-1.02.09-1.53.12-.11.02-.22.02-.33.03-.15.01-.3.02-.45.03-.16,0-.33.02-.49.02-.1.02-.19.02-.29.02-.36.03-.73.05-1.09.06-.08,0-.17,0-.26,0-.58.03-1.17.06-1.75.07-.09,0-.19,0-.28,0-.17,0-.35.01-.52.01-.18,0-.36,0-.54,0-.15,0-.31,0-.46,0-.6.02-1.2.02-1.8.02-.85,0-1.7-.01-2.55-.03-.22,0-.44,0-.65-.02-.45,0-.91-.02-1.36-.04-.14,0-.27,0-.41-.02-.2,0-.41-.02-.61-.03-.07,0-.15,0-.23-.01-.36,0-.72-.03-1.08-.05-.03,0-.07,0-.11,0-.1-.01-.2-.02-.31-.02-.26-.02-.53-.04-.81-.06-.09,0-.18-.01-.28-.02-.59-.04-1.2-.09-1.8-.14-.8-.07-1.61-.15-2.42-.24-.09,0-.18-.02-.28-.03-.79-.08-1.58-.18-2.38-.29-.84-.11-1.69-.23-2.53-.37-.86-.12-1.72-.26-2.58-.42h-58.54v-27.6h1.66c-.41-.35-.82-.72-1.23-1.09-.14-.13-.29-.27-.43-.4-.36-.33-.71-.67-1.07-1.01-.49-.45-.96-.91-1.43-1.38-.38-.37-.76-.74-1.13-1.12h-135.43v-27.53h115.15c-.44-.83-.87-1.66-1.28-2.5-.23-.44-.44-.87-.65-1.32-.19-.39-.38-.78-.55-1.18h-112.67v-27.54h103.73c-.16-.83-.31-1.66-.45-2.5-.14-.83-.27-1.66-.39-2.5h-102.89v-30.04h102.4c.09-.84.2-1.67.31-2.5h0c.11-.84.23-1.67.36-2.5h-103.07v-30.04h112.07c.22-.51.45-1.01.69-1.52.16-.33.32-.65.48-.98.4-.84.82-1.67,1.25-2.5h-114.49v-30.05h134.06v2.64c.82-.85,1.66-1.69,2.5-2.51l.13-.13c.77-.77,1.57-1.52,2.37-2.26.09-.08.17-.16.26-.24.32-.3.66-.6.99-.9.6-.54,1.2-1.07,1.81-1.6h-3.06v-30.04h145.67v22.9c1.69,1.18,3.36,2.42,5,3.7ZM319.69,553.61h145.67v30.04h-145.67v-30.04ZM319.69,588.65h145.67v29.94h-145.67v-29.94ZM175.69,618.59h-43.12v-29.94h43.12v29.94ZM175.69,583.65h-43.12v-30.04h43.12v30.04ZM175.69,548.61h-43.12v-27.6h43.12v27.6ZM175.69,516.01h-43.12v-27.53h43.12v27.53ZM175.69,483.48h-43.12v-27.54h43.12v27.54ZM175.69,450.94h-43.12v-30.04h43.12v30.04ZM175.69,415.9h-43.12v-30.04h43.12v30.04ZM175.69,380.86h-43.12v-30.05h43.12v30.05ZM175.69,345.81h-43.12v-30.04h43.12v30.04ZM175.69,310.77h-43.12v-31.77h43.12v31.77ZM175.69,274h-43.12v-16.11h43.12v16.11ZM314.69,618.59h-134.06v-29.94h134.06v29.94ZM314.69,583.65h-134.06v-30.04h134.06v30.04ZM314.69,521.01v27.6h-134.06v-27.6h134.06ZM314.69,345.81h-134.06v-30.04h134.06v30.04ZM314.69,310.77h-134.06v-31.74h.06v-.03h134v31.77ZM314.69,274.03h-134v-16.14h134v16.14ZM319.69,257.89h145.67v16.14h-145.67v-16.14ZM319.69,310.77v-31.77h145.67v31.77h-145.67Z"/>
          <g>
            <path class="cls-2" d="M453.05,511.51c-3.74,2.63-7.64,4.97-11.67,7-7.92,4-16.32,6.84-24.91,8.47-11.77,2.26-23.91,2.27-35.72,0-.8-.16-1.6-.32-2.4-.5-.79-.17-1.59-.36-2.38-.55-.03,0-.05,0-.07-.02-2.02-.49-4.03-1.05-6.02-1.69-3.74-1.18-7.44-2.62-11.05-4.29-.98-.46-1.96-.93-2.93-1.42-1-.51-1.99-1.03-2.98-1.58-1.48-.82-2.95-1.68-4.4-2.58-1.45-.9-2.88-1.85-4.29-2.84h108.82Z"/>
            <path class="cls-2" d="M454.05,357.31h-110.95s.03-.02.04-.03c4.84-3.52,9.95-6.52,15.25-9,2.25-1.05,4.54-2.02,6.87-2.89,18.73-7.03,39.3-7.95,58.58-2.63,1.29.36,2.58.74,3.86,1.16.63.2,1.26.41,1.89.63,3.13,1.08,6.21,2.33,9.24,3.76,1.29.61,2.58,1.25,3.85,1.93,1.46.76,2.9,1.57,4.32,2.43,1.16.69,2.31,1.4,3.44,2.15.04.02.08.05.12.08,1.18.77,2.34,1.58,3.49,2.41Z"/>
            <path class="cls-2" d="M341.31,427.4v17.04h151.41c-.66,6.08-1.92,12.11-3.77,18h-147.64v14.54h141.7c-3.22,6.32-7.2,12.37-11.96,18h-129.74v14.39s-.05-.03-.07-.05c-2.23-1.7-4.41-3.52-6.52-5.46-2.83-2.58-5.47-5.29-7.89-8.12-.39-.47-.78-.93-1.17-1.39-2.24-2.71-4.32-5.51-6.21-8.4-.29-.43-.57-.87-.85-1.32-.52-.8-1.01-1.61-1.48-2.42-1.02-1.72-1.98-3.46-2.87-5.23h9.06v-14.54h-14.95c-.07-.2-.13-.39-.19-.59-.85-2.78-1.57-5.58-2.15-8.41-.49-2.28-.88-4.59-1.18-6.89-.09-.7-.18-1.4-.26-2.11h18.73v-17.04h-19.07c.2-3.01.55-6.01,1.05-9h0c.51-3.03,1.16-6.03,1.95-9h16.07v-17.04h-9.66c1.09-2.22,2.27-4.41,3.54-6.56.29-.49.58-.97.88-1.46.2-.33.41-.66.63-.98,2.91-4.61,6.28-9.02,10.09-13.18,3.7-4.06,7.69-7.72,11.87-10.96.22-.17.43-.33.65-.49v15.63h130.79c4.59,5.62,8.44,11.67,11.53,18h-142.32v17.04h148.72c1.59,5.9,2.6,11.93,3.02,18h-151.74Z"/>
          </g>
        </g>
        <g id="Lupe">
          <g class="cls-6">
            <path class="cls-3" d="M492.65,444.41v.03c-.66,6.07-1.92,12.09-3.77,17.97,0,0-.01.02-.01.03-1.56,4.96-3.52,9.81-5.93,14.51-.01,0-.01.02-.02.03-3.21,6.31-7.19,12.35-11.94,17.97-.01,0-.02.02-.03.03-.81.98-1.65,1.94-2.52,2.89-1.02,1.11-2.07,2.21-3.14,3.27-3.86,3.85-7.98,7.29-12.31,10.34-.01,0-.03.02-.04.03-3.73,2.62-7.61,4.95-11.63,6.97-7.92,4-16.32,6.84-24.91,8.47-11.77,2.26-23.91,2.27-35.72,0-.78-.15-1.56-.31-2.33-.47-.79-.17-1.59-.36-2.38-.55-.03,0-.05,0-.07-.02-2.02-.5-4.03-1.06-6.02-1.69-3.74-1.18-7.44-2.62-11.05-4.29-.98-.46-1.96-.93-2.93-1.42-1-.51-1.99-1.03-2.98-1.58-1.48-.82-2.95-1.68-4.4-2.58-1.45-.9-2.88-1.85-4.29-2.84-.01,0-.03-.02-.04-.03-.97-.68-1.93-1.39-2.88-2.11-.02-.01-.05-.03-.07-.05-2.23-1.7-4.41-3.52-6.52-5.46-2.83-2.58-5.47-5.29-7.89-8.12-.39-.47-.78-.93-1.17-1.39-2.24-2.71-4.32-5.51-6.21-8.4-.29-.43-.57-.87-.85-1.32-.52-.8-1.01-1.61-1.48-2.42-1.02-1.72-1.98-3.46-2.87-5.23h.05c-2.41-4.7-4.39-9.57-5.94-14.54-.07-.2-.13-.39-.19-.59-.85-2.78-1.57-5.58-2.15-8.41-.49-2.28-.88-4.59-1.18-6.89-.09-.7-.18-1.4-.26-2.11h-.07v-.03c-.36-3.29-.56-6.61-.58-9.94,0-1.73.03-3.47.11-5.19.03-.63.07-1.25.13-1.88h.07c.2-3.01.55-6.01,1.05-9h0c.51-3.03,1.16-6.03,1.95-9,1.23-4.54,2.79-9.01,4.7-13.38.26-.59.52-1.18.8-1.76.29-.64.6-1.27.91-1.9,1.09-2.22,2.27-4.41,3.54-6.56.29-.49.58-.97.88-1.46.2-.33.41-.66.63-.98,2.91-4.61,6.28-9.02,10.09-13.18,3.7-4.06,7.69-7.72,11.87-10.96.22-.17.43-.33.65-.49v-.08c.59-.46,1.19-.91,1.79-1.34,0-.01.03-.02.04-.03,4.84-3.52,9.95-6.52,15.25-9,2.25-1.05,4.54-2.02,6.87-2.89,18.73-7.03,39.3-7.95,58.58-2.63,1.29.36,2.58.74,3.86,1.16.63.2,1.26.41,1.89.63,3.13,1.08,6.21,2.33,9.24,3.76,1.29.61,2.58,1.25,3.85,1.93,1.46.76,2.9,1.57,4.32,2.43,1.16.69,2.3,1.41,3.44,2.15.04.02.08.05.12.08,1.15.77,2.29,1.56,3.42,2.38,0,.01.03.02.04.03.85.6,1.68,1.23,2.52,1.88,2.03,1.55,3.99,3.21,5.9,4.96.97.9,1.93,1.8,2.85,2.74,2.4,2.38,4.65,4.87,6.74,7.44.01,0,.02.02.02.03,4.58,5.61,8.43,11.65,11.51,17.97,0,0,0,.02,0,.03,2.7,5.48,4.83,11.18,6.39,17.01,0,0,0,.02,0,.03,1.58,5.89,2.59,11.91,3.01,17.97v.03c.41,5.66.3,11.36-.33,17.01Z"/>
          </g>
          <g>
            <path class="cls-2" d="M304.58,444.44c-.36-3.29-.56-6.61-.58-9.94-.01-1.73.03-3.47.11-5.19.03-.64.07-1.27.13-1.91h-.07c-.06.63-.1,1.25-.13,1.88-.08,1.72-.12,3.46-.11,5.19.02,3.33.22,6.65.58,9.94v.03h.07ZM344.26,511.51c-.99-.7-1.98-1.42-2.95-2.16-2.23-1.7-4.41-3.52-6.52-5.46-2.83-2.58-5.47-5.29-7.89-8.12-.39-.47-.78-.93-1.17-1.39-2.24-2.71-4.32-5.51-6.21-8.4-.29-.43-.57-.87-.85-1.32-.52-.8-1.01-1.61-1.48-2.42-1.03-1.73-1.99-3.48-2.89-5.26h-.05c.89,1.77,1.85,3.51,2.87,5.23.47.81.96,1.62,1.48,2.42.28.45.56.89.85,1.32,1.89,2.89,3.97,5.69,6.21,8.4.39.46.78.92,1.17,1.39,2.42,2.83,5.06,5.54,7.89,8.12,2.11,1.94,4.29,3.76,6.52,5.46.02.02.05.04.07.05.95.72,1.91,1.43,2.88,2.11,0,0,.03.02.04.03,1.41.99,2.84,1.94,4.29,2.84-1.44-.91-2.86-1.85-4.26-2.84ZM423.84,342.76c-19.28-5.32-39.85-4.4-58.58,2.63-2.33.87-4.62,1.84-6.87,2.89-5.3,2.48-10.41,5.48-15.25,9-.01.01-.03.02-.04.03-.6.43-1.2.88-1.79,1.34v.08c.63-.49,1.26-.96,1.9-1.42,4.84-3.52,9.95-6.52,15.25-9,2.25-1.05,4.54-2.02,6.87-2.89,18.73-7.03,39.3-7.95,58.58-2.63,1.27.35,2.53.73,3.79,1.13-1.28-.42-2.57-.8-3.86-1.16Z"/>
            <path class="cls-2" d="M499.39,375.75v116.53c20.97-36.15,20.7-80.8,0-116.53ZM602.16,595.65l-72.6-66.37-4.34,4.74-25.83-23.6v31.42l.64.58,9.54,8.72-4.35,4.76,96.94,88.62,75.25,68.8,24.34-26.62-99.59-91.05Z"/>
            <path class="cls-2" d="M498.98,492.99c.14-.24.28-.47.41-.71v-116.53c-.13-.24-.27-.48-.41-.72-2.1-3.58-4.41-7.06-6.93-10.44-4.33-5.84-9.3-11.35-14.87-16.45-2.22-2.03-4.49-3.95-6.82-5.77-1.64-1.28-3.31-2.52-5-3.7-8.86-6.23-18.36-11.05-28.22-14.49-6.22-2.18-12.58-3.81-19.02-4.89-.8-.14-1.61-.27-2.42-.38-1.61-.24-3.22-.44-4.84-.61-.81-.09-1.62-.16-2.43-.23-4.24-.36-8.49-.48-12.74-.36-.66,0-1.33.03-2,.06-3.63.15-7.25.48-10.86.98-.53.06-1.05.14-1.58.22-.82.12-1.65.26-2.47.4-2.04.35-4.08.76-6.11,1.22-.38.09-.77.18-1.15.27-.34.08-.68.16-1.02.25-.39.1-.78.2-1.17.3-1.22.32-2.45.65-3.67,1.02-.59.17-1.18.35-1.77.53-.04,0-.08.03-.12.04-.59.19-1.17.37-1.75.57-.6.19-1.21.4-1.81.61-8.55,2.99-16.82,6.99-24.59,12.01-2.56,1.64-5.08,3.4-7.52,5.28-.5.37-.99.76-1.48,1.15,0,0-.03.02-.04.03-.52.41-1.05.84-1.57,1.27-.76.61-1.51,1.25-2.26,1.89-.61.53-1.21,1.06-1.81,1.6-.33.3-.67.6-.99.9-.09.08-.17.16-.26.24-.8.74-1.6,1.49-2.37,2.26l-.13.13c-.84.82-1.68,1.66-2.5,2.51-.65.68-1.29,1.36-1.93,2.06-1.11,1.22-2.2,2.46-3.25,3.71-.71.85-1.41,1.71-2.09,2.57-.28.34-.54.69-.81,1.03-.04.05-.08.1-.12.15-.51.67-1.01,1.34-1.51,2.01-.51.69-1.01,1.38-1.5,2.08-.63.89-1.24,1.79-1.84,2.69-.31.46-.61.91-.89,1.36-.37.58-.75,1.17-1.12,1.76-.86,1.39-1.68,2.78-2.47,4.2-.19.33-.38.67-.57,1.01-.02.04-.05.09-.07.13-.23.41-.44.82-.66,1.23-.25.47-.5.95-.74,1.42-.43.83-.85,1.66-1.25,2.5-.16.33-.32.65-.48.98-.24.51-.47,1.01-.69,1.52-.16.35-.32.69-.47,1.04-1.08,2.43-2.07,4.88-2.97,7.36-.33.93-.66,1.87-.97,2.82-.26.77-.51,1.54-.75,2.32-.08.27-.17.53-.25.8-.15.51-.31,1.02-.45,1.53-.14.47-.27.94-.4,1.41-1.16,4.21-2.07,8.47-2.74,12.76-.13.83-.25,1.66-.36,2.49h0c-.11.84-.22,1.67-.31,2.51-.04.34-.08.69-.11,1.03-.07.53-.12,1.07-.17,1.61-.04.37-.06.75-.09,1.11-.03.27-.05.53-.06.8-.05.58-.09,1.17-.12,1.75-.05.7-.08,1.41-.11,2.11-.07,1.72-.1,3.45-.09,5.19.02,4.36.28,8.7.79,13.03.08.65.16,1.3.25,1.95.02.17.04.34.07.5.04.32.08.63.13.95h0c.12.85.25,1.68.39,2.51.14.84.29,1.67.45,2.5.18.95.38,1.9.58,2.84.02.09.04.18.06.26.2.94.42,1.88.65,2.81.45,1.85.95,3.69,1.5,5.52.41,1.38.84,2.76,1.32,4.12.19.59.39,1.18.61,1.76.09.29.2.59.32.88.2.57.41,1.14.63,1.7.21.55.43,1.11.66,1.66.12.33.26.66.4.99.26.63.53,1.26.8,1.89.1.26.22.51.34.76.34.77.69,1.54,1.05,2.3,0,.02,0,.04.02.05.17.4.36.79.55,1.18.21.45.42.88.65,1.32.41.84.84,1.67,1.28,2.5,1.05,2,2.17,3.96,3.35,5.9.52.86,1.05,1.72,1.6,2.56.93,1.46,1.9,2.9,2.92,4.32.23.34.47.67.71,1,.4.55.8,1.11,1.22,1.65.23.32.47.63.71.94.39.51.78,1.01,1.18,1.51.22.29.45.57.69.86,1.26,1.56,2.58,3.1,3.94,4.61.53.59,1.06,1.17,1.61,1.75.07.07.14.14.21.22.69.73,1.38,1.45,2.09,2.16.02.02.03.03.05.05.37.38.75.75,1.13,1.12.47.47.94.93,1.43,1.38.36.34.71.68,1.07,1.01.14.13.29.27.43.4.41.37.82.74,1.23,1.09.5.44,1,.88,1.5,1.31.62.55,1.25,1.07,1.88,1.59.33.28.66.55,1,.81.03.03.06.06.09.07.39.32.78.63,1.18.94.54.42,1.08.84,1.63,1.25,3.81,2.89,7.75,5.5,11.82,7.84,6.84,3.97,13.97,7.16,21.31,9.6,2.03.68,4.08,1.3,6.14,1.86.45.13.9.25,1.36.36,1.02.27,2.05.53,3.08.76.38.09.77.18,1.16.27.9.2,1.79.38,2.69.55.68.14,1.36.27,2.04.39.86.16,1.72.3,2.58.42.84.13,1.69.26,2.53.37.79.1,1.59.2,2.38.29.1.01.19.02.28.03.81.09,1.62.17,2.42.24.6.05,1.21.1,1.8.14.1,0,.19.02.28.02.28.02.55.04.81.06.11,0,.21.01.31.02.04,0,.08,0,.11,0,.36.02.72.04,1.08.05.08.01.16.01.23.01.2,0,.41.02.61.03.14.01.27.01.41.02.45.02.91.03,1.36.04.21.01.43.02.65.02.85.02,1.7.03,2.55.03.6,0,1.2,0,1.8-.02.15,0,.31,0,.46,0,.18,0,.36,0,.54,0,.17,0,.35-.01.52-.01.09,0,.19,0,.28,0,.58-.01,1.17-.04,1.75-.07.09,0,.18,0,.26,0,.36-.01.73-.03,1.09-.06.1,0,.19,0,.29-.02.31-.01.63-.03.94-.05.11,0,.22,0,.33-.03.51-.03,1.02-.07,1.53-.12.14,0,.29-.02.44-.03.02,0,.04,0,.05,0,.02,0,.04,0,.06-.01.1,0,.2-.01.3-.02.25-.02.51-.05.76-.07.32-.03.63-.06.94-.1.16-.01.32-.03.48-.05.6-.06,1.2-.13,1.8-.21.17-.02.34-.04.51-.06.05,0,.1-.02.15-.02.09-.02.19-.03.28-.04,1.61-.22,3.22-.47,4.83-.76h.03c.39-.07.8-.15,1.19-.23.1,0,.2-.02.3-.05.61-.11,1.23-.23,1.84-.36.91-.19,1.82-.39,2.73-.61,2.07-.48,4.13-1.01,6.18-1.61.9-.26,1.79-.54,2.69-.82,1.79-.57,3.56-1.18,5.32-1.84.45-.17.9-.33,1.35-.51.35-.14.7-.27,1.05-.42.37-.14.75-.29,1.12-.44.82-.34,1.64-.68,2.45-1.04,6.99-3.05,13.73-6.81,20.1-11.29,1.69-1.18,3.36-2.42,5-3.7,2.02-1.58,3.99-3.24,5.92-4.97l23.11,21.12v-31.42l-.83-.76-6.62-6.06c2.13-2.86,4.12-5.78,5.94-8.78.38-.6.74-1.22,1.1-1.83ZM492.72,444.44c-.66,6.08-1.92,12.11-3.77,18-1.56,4.97-3.53,9.83-5.94,14.54-3.22,6.32-7.2,12.37-11.96,18-.82.99-1.67,1.96-2.55,2.92-1.02,1.11-2.07,2.21-3.14,3.27-3.86,3.85-7.98,7.29-12.31,10.34-3.74,2.63-7.64,4.97-11.67,7-7.92,4-16.32,6.84-24.91,8.47-11.77,2.26-23.91,2.27-35.72,0-.8-.16-1.6-.32-2.4-.5-.79-.17-1.59-.36-2.38-.55-.03,0-.05,0-.07-.02-2.02-.49-4.03-1.05-6.02-1.69-3.74-1.18-7.44-2.62-11.05-4.29-.98-.46-1.96-.93-2.93-1.42-1-.51-1.99-1.03-2.98-1.58-1.48-.82-2.95-1.68-4.4-2.58-1.45-.9-2.88-1.85-4.29-2.84-.01,0-.03-.02-.04-.03-.97-.68-1.93-1.39-2.88-2.11-.02-.01-.05-.03-.07-.05-2.23-1.7-4.41-3.52-6.52-5.46-2.83-2.58-5.47-5.29-7.89-8.12-.39-.47-.78-.93-1.17-1.39-2.24-2.71-4.32-5.51-6.21-8.4-.29-.43-.57-.87-.85-1.32-.52-.8-1.01-1.61-1.48-2.42-1.02-1.72-1.98-3.46-2.87-5.23h.05c-2.41-4.7-4.39-9.57-5.94-14.54-.07-.2-.13-.39-.19-.59-.85-2.78-1.57-5.58-2.15-8.41-.49-2.28-.88-4.59-1.18-6.89-.09-.7-.18-1.4-.26-2.11h-.07v-.03c-.36-3.29-.56-6.61-.58-9.94,0-1.73.03-3.47.11-5.19.03-.63.07-1.25.13-1.88h.07c.2-3.01.55-6.01,1.05-9h0c.51-3.03,1.16-6.03,1.95-9,1.23-4.54,2.79-9.01,4.7-13.38.26-.59.52-1.18.8-1.76.29-.64.6-1.27.91-1.9,1.09-2.22,2.27-4.41,3.54-6.56.29-.49.58-.97.88-1.46.2-.33.41-.66.63-.98,2.91-4.61,6.28-9.02,10.09-13.18,3.7-4.06,7.69-7.72,11.87-10.96.22-.17.43-.33.65-.49v-.08c.59-.46,1.19-.91,1.79-1.34,0-.01.03-.02.04-.03,4.84-3.52,9.95-6.52,15.25-9,2.25-1.05,4.54-2.02,6.87-2.89,18.73-7.03,39.3-7.95,58.58-2.63,1.29.36,2.58.74,3.86,1.16.63.2,1.26.41,1.89.63,3.13,1.08,6.21,2.33,9.24,3.76,1.29.61,2.58,1.25,3.85,1.93,1.46.76,2.9,1.57,4.32,2.43,1.16.69,2.31,1.4,3.44,2.15.04.02.08.05.12.08,1.18.77,2.34,1.58,3.49,2.41.86.61,1.71,1.25,2.56,1.91,2.03,1.55,3.99,3.21,5.9,4.96.97.9,1.93,1.8,2.85,2.74,2.4,2.38,4.65,4.87,6.74,7.44,4.59,5.62,8.44,11.67,11.53,18,2.7,5.49,4.84,11.2,6.4,17.04,1.59,5.9,2.6,11.93,3.02,18,.41,5.67.3,11.38-.33,17.04Z"/>
          </g>
          <path class="cls-2" d="M491.94,503.6s-.01,0-.01,0c0,0,0,0,.01,0Z"/>
        </g>
      </g>
    </g>
  </g>
</svg>