<?xml version="1.0" encoding="UTF-8"?>
<svg id="Musthave" xmlns="http://www.w3.org/2000/svg" viewBox="0 0 800 800">
  <defs>
    <style>
      .cls-1 {
        fill: #206289;
      }

      .cls-1, .cls-2, .cls-3, .cls-4, .cls-5 {
        stroke-width: 0px;
      }

      .cls-2 {
        fill: #42210b;
      }

      .cls-3 {
        fill: #b47d49;
      }

      .cls-4 {
        fill: #b9ddf3;
      }

      .cls-5 {
        fill: #f9dbc2;
      }
    </style>
  </defs>
  <g id="G-0092_BUW_Icon_Zusammenarbeit">
    <g id="Zusammenarbeit">
      <g id="Puzzle">
        <path class="cls-4" d="M351.69,402.58c-3.1,13.58,5.39,27.1,18.97,30.2,5.79,1.32,11.57.54,16.54-1.85l-14.67,64.21-63.13-14.42c1.79,4.56,2.27,9.69,1.1,14.82-3.1,13.57-16.62,22.07-30.2,18.97-13.57-3.1-22.07-16.62-18.97-30.2,1.17-5.13,3.84-9.54,7.43-12.87l-63.13-14.42,14.57-63.8c3.41,4.03,8.11,7.04,13.65,8.31,13.57,3.1,27.1-5.39,30.2-18.97,3.1-13.57-5.39-27.1-18.97-30.2-5.55-1.27-11.09-.6-15.91,1.56l14.57-63.8,63.36,14.47c-1.92-4.65-2.46-9.92-1.25-15.2,3.1-13.58,16.62-22.07,30.2-18.97,13.58,3.1,22.07,16.62,18.97,30.21-1.21,5.28-3.98,9.79-7.73,13.15l63.36,14.47-14.67,64.21c-3.44-4.3-8.31-7.52-14.1-8.85-13.57-3.1-27.1,5.39-30.2,18.97Z"/>
        <path class="cls-1" d="M597.6,458.75c-3.1,13.58-16.62,22.07-30.2,18.97-5.43-1.24-10.05-4.15-13.44-8.07l-14.53,63.61-63.98-14.62c4.16-3.42,7.26-8.2,8.55-13.85,3.1-13.57-5.39-27.09-18.97-30.2-13.58-3.1-27.1,5.39-30.2,18.97-1.29,5.65-.57,11.3,1.69,16.19l-63.98-14.61,14.67-64.21c-4.97,2.38-10.75,3.17-16.54,1.85-13.57-3.1-22.07-16.62-18.97-30.2,3.1-13.57,16.62-22.07,30.2-18.97,5.79,1.32,10.66,4.54,14.1,8.85l14.67-64.21,64.16,14.66c-4.28,3.43-7.47,8.28-8.79,14.05-3.1,13.57,5.39,27.1,18.97,30.2,13.58,3.1,27.1-5.39,30.2-18.97,1.32-5.77.55-11.52-1.82-16.48l64.17,14.66-14.53,63.61c4.75-2.06,10.17-2.67,15.61-1.43,13.58,3.1,22.07,16.62,18.97,30.2Z"/>
      </g>
      <g id="Hand_unten" data-name="Hand unten">
        <path class="cls-5" d="M524.09,575.88c0,9.39-4.87,18.52-13.59,23.56l-164.89,95.24c-4.42,2.56-9.71,3.16-14.61,1.68-43.46-13.17-86.92-26.34-130.38-39.51l-12.57,6.59-.11.06-43.15-82.23.11-.06,92.18-48.37c2.22-1.17,4.81-1.42,7.21-.69l140.65,42.63c10.97,3.33,17.17,14.91,13.84,25.88-.04.13-.08.26-.13.39l-.17-.34-25.68,13.02-91.94-27.27-.29.96,90.94,26.97-9.36,4.75.45.89,36.33-18.43-.2-.4,84.59-48.84c13-7.5,29.62-3.04,37.13,9.96,2.47,4.28,3.64,8.95,3.64,13.56Z"/>
        <polygon class="cls-1" points="195.22 677.37 149.14 701.55 92.2 593.04 138.28 568.86 144.73 581.16 144.79 581.27 187.94 663.5 188 663.61 195.22 677.37"/>
        <g>
          <path class="cls-3" d="M398.93,601.6l-36.33,18.43-.45-.89,9.36-4.75-90.94-26.97.29-.96,91.94,27.27,25.68-13.02.17.34c-.02.08-.05.16-.08.24l.16-.09.2.4Z"/>
          <path class="cls-3" d="M398.73,601.2l-.16.09c.03-.08.06-.16.08-.24l.08.15Z"/>
        </g>
      </g>
      <g id="Hand_oben" data-name="Hand oben">
        <path class="cls-3" d="M655.21,218.73l-.11.06-92.17,48.37c-2.22,1.17-4.82,1.42-7.22.69l-140.65-42.63c-10.96-3.33-17.16-14.91-13.83-25.88.04-.13.08-.26.13-.39l.17.34,25.68-13.02,91.94,27.27.29-.96-90.94-26.97,9.36-4.75-.45-.89-36.33,18.43.2.4-84.59,48.84c-13,7.5-29.63,3.04-37.13-9.96-2.47-4.28-3.65-8.95-3.65-13.56,0-9.39,4.88-18.52,13.59-23.56l164.9-95.24c4.42-2.56,9.71-3.16,14.61-1.68l130.38,39.51,12.57-6.59.1-.06,43.15,82.23Z"/>
        <polygon class="cls-1" points="707.81 206.96 661.73 231.14 655.27 218.84 655.21 218.73 612.06 136.5 612 136.39 604.79 122.63 650.86 98.45 707.81 206.96"/>
        <g>
          <path class="cls-2" d="M519.44,212.58l-.29.96-91.94-27.27-25.68,13.02-.17-.34c.02-.08.05-.16.08-.24l-.16.09-.2-.4,36.33-18.43.45.89-9.36,4.75,90.94,26.97Z"/>
          <path class="cls-2" d="M401.44,198.71c-.03.08-.06.16-.08.24l-.08-.15.16-.09Z"/>
        </g>
      </g>
    </g>
  </g>
</svg>