<?xml version="1.0" encoding="UTF-8"?>
<svg id="Nachbau" xmlns="http://www.w3.org/2000/svg" viewBox="0 0 800 800">
  <defs>
    <style>
      .cls-1 {
        fill: #64abd6;
      }

      .cls-1, .cls-2 {
        stroke-width: 0px;
      }

      .cls-2 {
        fill: #b9ddf3;
      }
    </style>
  </defs>
  <g id="G-0020_BUW_Icon_Nachnutzung">
    <g>
      <g id="Pfeil_oben" data-name="Pfeil oben">
        <path class="cls-2" d="M399.87,221.5l-73.36,127.07-103.96-60.01,91.57-158.6c5.09-8.82,14.5-14.24,24.68-14.24l61.08,105.78Z"/>
        <path class="cls-1" d="M579.85,219.08l-17.38,43.99-29.15,73.78-73.12-10.86-52.13-7.74,35.75-20.64-43.94-76.12-61.08-105.78h122.08c10.22,0,19.65,5.45,24.76,14.29l62.12,107.59,32.09-18.53Z"/>
      </g>
      <g id="Pfeil_links" data-name="Pfeil links">
        <path class="cls-2" d="M372.57,525.1v120.03h-184.64c-10.1,0-19.44-5.39-24.49-14.14l61.13-105.89h147.99Z"/>
        <path class="cls-1" d="M303.49,466.64l-33.86-19.55-.08.13-44.97,77.89-61.13,105.89-61.07-105.78c-5.1-8.82-5.1-19.68,0-28.51l63.23-109.51.08-.13h0s-33.97-19.62-33.97-19.62l49.54-7.36,75.72-11.24,28.18,71.34,18.34,46.43Z"/>
      </g>
      <g id="Pfeil_rechts" data-name="Pfeil rechts">
        <path class="cls-2" d="M697.73,525.1h-122.57l-74.46-128.98,103.95-60.01,93.09,161.23c4.96,8.59,4.96,19.18,0,27.77Z"/>
        <path class="cls-1" d="M697.73,525.1l-61.08,105.78c-5.1,8.82-14.51,14.24-24.69,14.24h-125.64v39.15l-31.09-39.15-47.65-60.01,47.65-60.01,31.09-39.16v39.16h211.4Z"/>
      </g>
    </g>
  </g>
</svg>