<?xml version="1.0" encoding="UTF-8"?>
<svg id="Musthave" xmlns="http://www.w3.org/2000/svg" viewBox="0 0 800 800">
  <defs>
    <style>
      .cls-1 {
        fill: #eee;
      }

      .cls-1, .cls-2, .cls-3, .cls-4 {
        stroke-width: 0px;
      }

      .cls-2 {
        fill: #206289;
      }

      .cls-3 {
        fill: #73bbe7;
      }

      .cls-5 {
        opacity: .8;
      }

      .cls-4 {
        fill: #98c7e4;
      }
    </style>
  </defs>
  <g id="G-0086_BUW_Icon_Transparenz">
    <g>
      <g id="Person_Glas" data-name="Person + Glas">
        <g id="Person">
          <g>
            <polygon class="cls-3" points="426.68 499.59 429.64 502.56 375.99 556.21 375.99 556.2 429.63 502.56 426.68 499.59"/>
            <polygon class="cls-3" points="511.39 460.86 511.38 460.86 508.42 457.89 508.43 457.89 511.39 460.86"/>
            <path class="cls-3" d="M687.28,462.12v200.05h-311.29v-78.86h164.01V167.53c2.55.3,5.06.74,7.53,1.31,2.84.65,5.63,1.47,8.36,2.46,33.46,12.13,57.76,48.69,57.76,91.9,0,36.76-17.59,68.7-43.45,84.88,67.31,12.98,117.08,59.12,117.08,114.04Z"/>
          </g>
        </g>
        <g id="Glas">
          <g class="cls-5">
            <path class="cls-1" d="M329.97,146.24l-75.22,75.22-5.92-5.92,69.3-69.3h-28.19l-116.92,116.92-2.97-2.96-2.96-2.96,111.01-111h-131.8v167.01c1.65,2.74,3.83,5.69,6.7,8.54,6.91,6.87,14.35,9.72,18.11,10.89-3.92,1.36-10.79,4.32-17.35,10.64-3.21,3.1-5.64,6.32-7.46,9.3v222.33h199.1l30.59-30.59v-82.24c0-54.92,49.77-101.07,117.08-114.04-25.85-16.17-43.45-48.12-43.45-84.88,0-53.11,36.72-96.17,82.01-96.17h0v-20.79h-201.67ZM181.52,425.25c-5.1,4.92-7.37,10.27-8.36,13.1-.87-2.75-3.05-8.27-8.27-13.28-4.69-4.5-9.63-6.47-12.34-7.33,2.82-1.01,7.97-3.26,12.79-8.14,4.65-4.71,6.83-9.68,7.82-12.48.83,2.67,2.87,8,7.83,12.93,4.88,4.85,10.13,6.86,12.79,7.69-2.78.96-7.63,3.04-12.26,7.51ZM283.64,431.35c-9.82,9.47-14.2,19.76-16.09,25.21-1.69-5.29-5.87-15.92-15.92-25.56-9.02-8.65-18.54-12.45-23.74-14.11,5.42-1.93,15.32-6.26,24.6-15.66,8.96-9.07,13.15-18.63,15.06-24.01,1.59,5.13,5.52,15.39,15.06,24.87,9.39,9.34,19.5,13.22,24.61,14.8-5.33,1.85-14.67,5.87-23.58,14.46ZM508.42,457.89l2.96,2.97h0l-2.96-2.97h-.01ZM429.63,502.56l-53.64,53.64h0s53.65-53.64,53.65-53.64l-2.96-2.97,2.95,2.97ZM375.99,574.95v-18.74l-18.74,18.74h18.74Z"/>
            <path class="cls-3" d="M531.64,167.03v407.92h-134.35l114.09-114.09h0l-2.96-2.97h-.01l-2.95-2.96-120.02,120.02h-9.46v-18.74l53.65-53.65-2.96-2.97-2.96-2.95-47.73,47.72v-82.24c0-54.92,49.77-101.07,117.08-114.04-25.85-16.17-43.45-48.12-43.45-84.88,0-53.11,36.72-96.17,82.01-96.17h0Z"/>
          </g>
          <g>
            <path class="cls-2" d="M426.68,499.59l2.95,2.97-53.64,53.64h0s53.65-53.64,53.65-53.64l-2.96-2.97ZM508.43,457.89h-.01l2.96,2.97h0l-2.96-2.97Z"/>
            <path class="cls-2" d="M540,137.87v445.44H137.93v-230.41c2.12,3.65,3.32,6.88,3.99,8.98.77-2.23,2.11-5.55,4.38-9.26v222.33h199.1l30.59-30.59,47.73-47.72,2.96,2.95,2.95,2.97-53.64,53.64h0s-18.74,18.75-18.74,18.75h28.2l120.02-120.02,2.95,2.96,2.96,2.97-114.09,114.09h134.35V146.24h-201.67l-75.22,75.22-5.92-5.92,69.3-69.3h-28.19l-116.92,116.92-2.97-2.96-2.96-2.96,111.01-111h-131.8v167.01c-2.4-3.98-3.69-7.53-4.38-9.77-.76,2.12-1.99,5.12-3.99,8.48v-174.09h402.07Z"/>
          </g>
        </g>
      </g>
      <g id="Sterne">
        <path class="cls-4" d="M307.22,416.89c-5.33,1.85-14.67,5.87-23.58,14.46-9.82,9.47-14.2,19.76-16.09,25.21-1.69-5.29-5.87-15.92-15.92-25.56-9.02-8.65-18.54-12.45-23.74-14.11,5.42-1.93,15.32-6.26,24.6-15.66,8.96-9.07,13.15-18.63,15.06-24.01,1.59,5.13,5.52,15.39,15.06,24.87,9.39,9.34,19.5,13.22,24.61,14.8Z"/>
        <path class="cls-4" d="M193.78,417.74c-2.78.96-7.63,3.04-12.26,7.51-5.1,4.92-7.37,10.27-8.36,13.1-.87-2.75-3.05-8.27-8.27-13.28-4.69-4.5-9.63-6.47-12.34-7.33,2.82-1.01,7.97-3.26,12.79-8.14,4.65-4.71,6.83-9.68,7.82-12.48.83,2.67,2.87,8,7.83,12.93,4.88,4.85,10.13,6.86,12.79,7.69Z"/>
        <path class="cls-4" d="M171.11,332.68c-3.92,1.36-10.79,4.32-17.35,10.64-3.21,3.1-5.64,6.32-7.46,9.3-2.27,3.71-3.61,7.03-4.38,9.26-.67-2.1-1.87-5.33-3.99-8.98-1.82-3.13-4.31-6.55-7.73-9.83-6.64-6.37-13.65-9.17-17.48-10.39,3.99-1.42,11.28-4.61,18.11-11.53,3.07-3.09,5.37-6.27,7.1-9.19,2-3.36,3.23-6.36,3.99-8.48.69,2.24,1.98,5.79,4.38,9.77,1.65,2.74,3.83,5.69,6.7,8.54,6.91,6.87,14.35,9.72,18.11,10.89Z"/>
      </g>
    </g>
  </g>
</svg>