<?xml version="1.0" encoding="UTF-8"?>
<svg id="Musthave" xmlns="http://www.w3.org/2000/svg" viewBox="0 0 800 800">
  <defs>
    <style>
      .cls-1 {
        fill: #206289;
      }

      .cls-1, .cls-2, .cls-3, .cls-4, .cls-5 {
        stroke-width: 0px;
      }

      .cls-2 {
        fill: #dddddc;
      }

      .cls-3 {
        fill: #64abd6;
      }

      .cls-4 {
        fill: #73bbe7;
      }

      .cls-5 {
        fill: #b9ddf3;
      }
    </style>
  </defs>
  <g id="G-0090_BUW_Icon_Validität">
    <g id="Validität">
      <g id="Verbindungen">
        <polygon class="cls-1" points="594.21 671.05 405.64 671.23 405.66 698.94 395.66 698.95 395.64 671.23 206.77 671.41 206.77 602.6 216.77 602.6 216.77 661.4 395.63 661.23 395.32 317 405.32 317 405.63 661.23 584.21 661.06 584.21 602.6 594.21 602.6 594.21 671.05"/>
      </g>
      <g id="Diagramm">
        <rect class="cls-1" x="287.89" y="281.77" width="226.88" height="10"/>
        <rect class="cls-5" x="287.89" y="129.24" width="39.96" height="130.58"/>
        <rect class="cls-1" x="334.62" y="108.01" width="39.96" height="151.81"/>
        <rect class="cls-4" x="381.35" y="152.61" width="39.96" height="107.21"/>
        <rect class="cls-3" x="428.08" y="87.68" width="39.96" height="172.14"/>
        <rect class="cls-2" x="474.81" y="67.07" width="39.96" height="192.75"/>
      </g>
      <g id="Geodreieck">
        <path class="cls-2" d="M307,535.49h0s-7.65-17.31-7.65-17.31l-7.71-17.43-7.7-17.44h0s-7.78-17.58-7.78-17.58l-7.9-17.91-7.88-17.8-7.9-17.86-7.78-17.58-7.55-17.12-7.73-17.47h0s-17.81-40.29-17.81-40.29l-83.95,190.27,197.23,65.97-17.89-40.45ZM165.6,493.2l46.1-104.49,62.21,140.72-108.31-36.23Z"/>
        <g>
          <rect class="cls-1" x="257.98" y="447.49" width="10.73" height="5" transform="translate(-159.45 144.89) rotate(-23.85)"/>
          <rect class="cls-1" x="226.87" y="377.13" width="10.73" height="5" transform="translate(-133.66 126.31) rotate(-23.85)"/>
          <rect class="cls-1" x="289.08" y="517.85" width="10.73" height="5" transform="translate(-185.24 163.47) rotate(-23.85)"/>
          <rect class="cls-1" x="242.21" y="411.82" width="10.73" height="5" transform="translate(-146.38 135.47) rotate(-23.85)"/>
          <rect class="cls-1" x="273.66" y="482.97" width="10.73" height="5" transform="translate(-172.46 154.26) rotate(-23.85)"/>
          <rect class="cls-1" x="285.9" y="499.46" width="6" height="5" transform="translate(-178.29 159.68) rotate(-23.85)"/>
          <rect class="cls-1" x="270.42" y="464.44" width="6" height="5" transform="translate(-165.44 150.41) rotate(-23.85)"/>
          <rect class="cls-1" x="254.63" y="428.72" width="6" height="5" transform="translate(-152.35 140.98) rotate(-23.85)"/>
          <rect class="cls-1" x="238.96" y="393.29" width="6" height="5" transform="translate(-139.36 131.62) rotate(-23.85)"/>
          <rect class="cls-1" x="223.67" y="358.69" width="6" height="5" transform="translate(-126.69 122.5) rotate(-23.85)"/>
          <rect class="cls-1" x="301.26" y="534.19" width="6" height="5" transform="translate(-191.01 168.83) rotate(-23.85)"/>
        </g>
      </g>
      <g id="Zahnrad">
        <path class="cls-4" d="M552.63,352.44c-10.94,3.59-20.89,8.88-29.64,15.49l-26.28-13.47c-8.16,7.56-15.27,16.12-21.18,25.42l17.93,23.46c-5.02,9.94-8.43,20.72-10,31.9l-28.12,9.06c-.42,10.85.54,21.92,2.99,32.96l29.27,3.9c3.59,10.94,8.88,20.89,15.49,29.64l-13.47,26.28c7.56,8.16,16.12,15.27,25.42,21.19l23.46-17.93c9.94,5.02,20.72,8.44,31.91,10l9.06,28.11c10.85.42,21.92-.54,32.96-2.99l3.91-29.26c10.94-3.59,20.89-8.88,29.64-15.49l26.27,13.46c8.17-7.56,15.28-16.12,21.2-25.42l-17.93-23.45c5.03-9.95,8.45-20.72,10.01-31.91l28.11-9.05c.42-10.85-.54-21.92-2.99-32.96l-29.26-3.91c-3.59-10.94-8.88-20.89-15.49-29.63l13.47-26.28c-7.57-8.16-16.12-15.27-25.42-21.19l-23.45,17.93c-9.94-5.03-20.72-8.44-31.9-10l-9.06-28.12c-10.85-.42-21.92.54-32.95,3l-3.91,29.26ZM632.69,435.74c7.5,26.63-8,54.29-34.63,61.79-26.63,7.5-54.29-8.01-61.78-34.64-7.5-26.62,8.01-54.28,34.63-61.78,26.63-7.5,54.29,8.01,61.78,34.63Z"/>
      </g>
    </g>
  </g>
</svg>