<?xml version="1.0" encoding="UTF-8"?>
<svg id="Musthave" xmlns="http://www.w3.org/2000/svg" viewBox="0 0 800 800">
  <defs>
    <style>
      .cls-1 {
        fill: #eee;
      }

      .cls-1, .cls-2, .cls-3, .cls-4, .cls-5, .cls-6 {
        stroke-width: 0px;
      }

      .cls-2 {
        fill: #308fc9;
      }

      .cls-3 {
        fill: #206289;
      }

      .cls-4 {
        fill: #dddddc;
      }

      .cls-5 {
        fill: #73bbe7;
      }

      .cls-6 {
        fill: #b9ddf3;
      }
    </style>
  </defs>
  <g id="G-0098_BUW_a_Icon_Triptichon_Pflanze">
    <g id="Pflanze">
      <g id="Topf">
        <rect class="cls-4" x="156.05" y="490.8" width="301.32" height="45.9"/>
        <polygon class="cls-2" points="206.32 700.27 168.9 536.7 448.19 536.7 411.5 700.27 206.32 700.27"/>
      </g>
      <g id="Blätter">
        <path class="cls-5" d="M304.54,374.34c-.14,4.37-.27,8.73-.4,13.1,0,.04-.01.07-.01.11-.02.74-.04,1.49-.06,2.23-13.66,2.18-67.11,7.8-109.41-31.01-34.74-31.9-39.47-73.17-40.35-83.82-.01-.09-.01-.18-.02-.27h.05c7.34-1.43,66.18-11.45,111.94,30.54,25.28,23.21,34.68,51.39,38.26,69.12Z"/>
        <g>
          <path class="cls-5" d="M400.36,298.25v20.88h-.01v-20.87s.01,0,.01,0Z"/>
          <path class="cls-5" d="M431.81,372.58c-1.78,1.87-3.66,3.71-5.64,5.53-43.65,40.06-99.19,32.78-110.6,30.81-.04-1.57-.07-3.13-.1-4.7h0c-.01-.06-.01-.11-.01-.16-.04-1.71-.07-3.43-.11-5.14,2.72-16.96,11.25-48.7,39.21-74.36,6.53-5.99,13.32-10.92,20.19-14.97-.1,1.4-.15,2.8-.15,4.22,0,1.98.1,3.94.29,5.83,1.1,11.19,5.39,21.81,12.43,30.68.22.28.45.56.68.83.05.07.1.14.16.2,2.7,3.27,5.77,6.24,9.13,8.86,8.95,6.98,19.65,11.19,30.94,12.16.29.03.59.06.89.08h.09s.05,0,.05,0c.86.06,1.71.1,2.55.12Z"/>
          <path class="cls-5" d="M466.55,294.01h0c0,.05,0,.08-.01.12v.05l-.08.06v-.24s.03,0,.04,0h.05Z"/>
        </g>
        <path class="cls-5" d="M310.01,264.37c-.62-2.69-1.25-5.39-1.88-8.08-.09,3.1-.19,6.2-.28,9.3h0c0,.09,0,.16,0,.24-.04,1.39-.08,2.77-.13,4.16-9.52-1.92-65.73-15.14-92.02-69.75-20.44-42.49-9.55-82.55-6.41-92.8.02-.06.03-.11.05-.17.01-.03.02-.07.03-.1.02,0,.03,0,.05,0,7.34,1.4,65.71,13.9,92.64,69.86,17.77,36.95,11.87,72.07,7.96,87.33Z"/>
        <path class="cls-5" d="M367.74,266.65c-21.58,16.77-45.38,17.3-54.94,16.82-.06-2.64-.12-5.27-.18-7.91h0c-.01-.06-.02-.1-.03-.15-.51-2.19-1.02-4.37-1.53-6.56,2.31-14.65,9.34-37.13,30.36-53.47,19.67-15.29,41.82-16.9,52.41-16.8,2.4.02,5.11.18,5.11.18.06,0,.2.01.25.01v.11c.11,5.11.01,43.33-31.45,67.77Z"/>
        <g>
          <path class="cls-5" d="M317.38,490.8h-16.39c1.03-33.67,2.05-67.35,3.08-101.02.02-.74.04-1.49.06-2.23,0-.04.01-.07.01-.11.13-4.37.26-8.73.4-13.1,1.05-34.78,2.11-69.57,3.17-104.35.05-1.39.09-2.77.13-4.16v-.23s0-.01,0-.01c.09-3.1.19-6.2.28-9.3.63,2.69,1.26,5.39,1.88,8.08.35,1.49.7,2.99,1.05,4.48.51,2.19,1.02,4.37,1.53,6.56.01.05.02.09.03.14h0c.06,2.65.12,5.28.18,7.92.85,38.48,1.7,76.97,2.55,115.45.04,1.71.07,3.43.11,5.14,0,.05,0,.1.01.15h0c.03,1.58.06,3.14.1,4.71.6,27.29,1.21,54.59,1.81,81.88Z"/>
          <path class="cls-5" d="M312.62,275.55s-.02-.09-.03-.14c0,.05.02.09.03.14Z"/>
        </g>
        <path class="cls-2" d="M304.14,387.44s-.01.07-.01.11c-22.31-16.75-51.98-39.02-73.73-55.36-22.54-16.94-53.57-40.28-76.09-57.24-.01-.09-.01-.18-.02-.27,24.13,18.12,52.07,39.12,76.18,57.27,23.31,17.53,50.14,37.74,73.67,55.49Z"/>
        <g>
          <path class="cls-2" d="M388.16,351.35l-72.62,52.96-.07-.09h0c-.01-.06-.01-.11-.01-.16l72.54-52.91c.05.07.1.14.16.2Z"/>
          <polygon class="cls-2" points="466.62 294.12 466.54 294.18 466.46 294.24 466.46 293.92 466.47 293.91 466.54 294.01 466.55 294.02 466.62 294.12"/>
        </g>
        <path class="cls-2" d="M399.19,198.77v.11c-28.86,25.61-57.71,51.22-86.57,76.83,0-.05,0-.1,0-.15h0c-.01-.06-.02-.1-.03-.15l86.35-76.65h.15s.07.01.1.01Z"/>
        <path class="cls-2" d="M307.84,265.83c0,.07,0,.14,0,.2-32.85-52.86-65.7-105.73-98.55-158.59.02-.06.03-.11.05-.17.01-.03.02-.07.03-.1.02,0,.03,0,.05,0,32.81,52.8,65.63,105.61,98.44,158.41h0c0,.09,0,.16,0,.24Z"/>
      </g>
      <g id="Zoom">
        <g>
          <g>
            <rect class="cls-6" x="400.35" y="280.76" width=".01" height="38.37"/>
            <polygon class="cls-6" points="466.62 294.12 466.54 294.18 466.46 294.24 466.46 293.92 466.47 293.91 466.54 294.01 466.55 294.02 466.62 294.12"/>
          </g>
          <path class="cls-3" d="M492.21,313.81c0,1.98-.1,3.94-.29,5.81-1.53,15.58-9.42,30.15-21.66,40-.27.22-.52.43-.77.61-10.4,8.1-22.87,12.38-36.08,12.38-.53,0-1.06,0-1.6-.03-.84-.02-1.69-.06-2.55-.12h-.14c-.3-.03-.6-.06-.89-.09-11.29-.97-21.99-5.18-30.94-12.16-3.36-2.62-6.43-5.59-9.13-8.86-.06-.06-.11-.13-.16-.2-.23-.27-.46-.55-.68-.83-7.04-8.87-11.33-19.49-12.43-30.68-.19-1.89-.29-3.85-.29-5.83,0-1.42.05-2.82.15-4.22.81-11.65,5.01-22.6,12.26-31.9,1.68-2.16,3.52-4.21,5.46-6.1,11.03-10.69,25.57-16.58,40.94-16.58.34,0,.7,0,1,.01,11.18.19,21.85,3.48,31,9.45l-3.62,3.62c-7.99-4.97-17.39-7.9-27.46-8.07-.31-.01-.62-.01-.92-.01-14.57,0-27.77,5.78-37.46,15.17-1.79,1.74-3.46,3.6-4.99,5.58-5.73,7.34-9.6,16.2-10.88,25.88-.32,2.35-.48,4.74-.48,7.17,0,1.79.09,3.57.27,5.32,1.03,10.56,5.12,20.21,11.37,28.09.26.33.53.66.8.98.05.06.1.13.16.2,2.43,2.89,5.17,5.54,8.16,7.86,7.96,6.21,17.7,10.22,28.34,11.13.3.04.6.06.9.08,1.26.09,2.53.14,3.81.14,1,0,1.99-.03,2.98-.08,11.31-.62,21.68-4.73,30.07-11.28.21-.15.41-.32.62-.49,10.97-8.81,18.41-21.84,19.86-36.63.18-1.75.27-3.53.27-5.32,0-10.12-2.79-19.57-7.65-27.64l3.65-3.65c5.91,9.35,9,20.05,9,31.29Z"/>
        </g>
        <g>
          <path class="cls-5" d="M466.46,299.27v47.59h-36.86v20.61c-.3-.02-.6-.04-.9-.08-10.64-.91-20.38-4.92-28.34-11.13-2.99-2.32-5.73-4.97-8.16-7.86-.06-.07-.11-.14-.16-.2-.27-.32-.54-.65-.8-.98-6.25-7.88-10.34-17.53-11.37-28.09h20.49v-38.37h48.76l-1.71,1.71c-.26.26-.51.53-.73.81-.23.28-.45.57-.64.87-.1.15-.19.3-.28.45-.06.11-.12.21-.17.31-.08.13-.14.26-.21.39-.08.16-.16.32-.22.49-.11.23-.2.47-.28.71-.1.28-.19.57-.26.86-.03.08-.05.16-.06.24-.05.2-.09.41-.12.61-.03.15-.05.31-.07.47-.08.57-.11,1.16-.08,1.74-.01.12,0,.24.01.36.01.24.03.48.07.72.02.16.04.32.08.48.02.13.04.26.08.39.03.13.05.25.09.38.06.26.14.51.22.76.04.13.09.25.14.37.04.13.1.26.15.38.1.24.21.47.33.7.06.13.14.26.21.39.07.13.15.27.23.39.1.17.21.32.33.48.06.1.13.2.21.3.12.17.25.33.39.49.01.01.02.03.04.04.09.1.17.2.27.3.09.11.18.21.28.3l2.73,2.73c4.19,4.2,11,4.2,15.19,0l1.12-1.12Z"/>
          <rect class="cls-5" x="400.35" y="280.76" width=".01" height="38.37"/>
        </g>
        <polygon class="cls-6" points="466.62 294.12 466.54 294.18 466.46 294.24 466.46 293.92 466.47 293.91 466.54 294.01 466.55 294.02 466.62 294.12"/>
        <g>
          <path class="cls-6" d="M461.79,268.09l-12.67,12.67h-48.77v38.37h-20.48c-.18-1.75-.27-3.53-.27-5.32,0-2.43.16-4.82.48-7.17,1.28-9.68,5.15-18.54,10.88-25.88,1.53-1.98,3.2-3.84,4.99-5.58,9.69-9.39,22.89-15.17,37.46-15.17.3,0,.61,0,.92.01,10.07.17,19.47,3.1,27.46,8.07Z"/>
          <path class="cls-6" d="M487.21,313.81c0,1.79-.09,3.57-.27,5.32-1.45,14.79-8.89,27.82-19.86,36.63-.21.17-.41.34-.62.49-8.39,6.55-18.76,10.66-30.07,11.28-.99.05-1.98.08-2.98.08-1.28,0-2.55-.05-3.81-.14v-20.61h36.86v-47.59l13.1-13.1c4.86,8.07,7.65,17.52,7.65,27.64Z"/>
        </g>
        <rect class="cls-6" x="400.35" y="280.76" width=".01" height="38.37"/>
      </g>
      <g id="Pincette">
        <path class="cls-6" d="M675.6,108.05l-42.39,42.39,13.88,13.88-34.19,34.19-63.6-63.6,34.19-34.19,13.88,13.88,42.38-42.39c7.09-7.09,18.58-7.09,25.67,0l10.18,10.17c7.09,7.09,7.09,18.58,0,25.67Z"/>
        <g>
          <path class="cls-4" d="M466.54,294.01h.01s0,0,0,0h-.01Z"/>
          <path class="cls-1" d="M564.26,149.87l-91.42,91.42c-4.07,4.07-4.07,10.65-.01,14.71l.52.53-11.56,11.56-12.67,12.67-1.71,1.71c-.26.26-.51.53-.73.81-.23.28-.45.57-.64.87-.1.15-.19.3-.28.45-.06.11-.12.21-.17.31-.08.13-.14.26-.21.39-.08.16-.16.32-.22.49-.11.23-.2.47-.28.71-.1.28-.19.57-.26.86-.03.08-.05.16-.06.24-.05.2-.09.41-.12.61-.03.15-.05.31-.07.47-.08.57-.11,1.16-.08,1.74-.01.12,0,.24.01.36.02.24.04.48.07.72.02.16.05.32.08.48.03.13.05.26.08.39.03.13.05.25.09.38.06.26.14.51.22.76.04.13.09.25.14.37.04.13.1.26.15.38.1.24.21.47.33.7.06.13.14.26.21.39.07.13.15.27.23.39.1.17.21.32.33.48.06.1.13.2.21.3.12.17.25.33.39.49.01.01.02.03.04.04.09.1.17.2.27.3.09.11.18.21.28.3l2.73,2.73c4.19,4.2,11,4.2,15.19,0l25.94-25.94.52.52c4.06,4.06,10.65,4.07,14.72,0l91.42-91.42-33.68-33.68ZM466.54,294.18l-.08.06v-.32h.01s.07.09.07.09h.01s.07.11.07.11l-.08.06Z"/>
          <polygon class="cls-4" points="466.62 294.12 466.54 294.18 466.46 294.24 466.46 293.92 466.47 293.91 466.54 294.01 466.55 294.02 466.62 294.12"/>
        </g>
      </g>
    </g>
  </g>
</svg>