<?xml version="1.0" encoding="UTF-8"?>
<svg id="Nachbau" xmlns="http://www.w3.org/2000/svg" viewBox="0 0 800 800">
  <defs>
    <style>
      .cls-1 {
        fill: #eee;
      }

      .cls-1, .cls-2 {
        stroke-width: 0px;
      }

      .cls-2 {
        fill: #206289;
      }
    </style>
  </defs>
  <g id="G-0044_BUW_Icon_Findability">
    <g id="Lupa">
      <g id="Glas">
        <circle class="cls-1" cx="274.26" cy="292.92" r="138.64"/>
      </g>
      <g id="Lupe">
        <path class="cls-2" d="M450.56,418.57l-5.85,6.39-35.9-32.81-8.92-8.16c2.88-3.84,5.56-7.8,8.01-11.83.51-.81.99-1.64,1.48-2.47,8.67-14.71,14.71-30.48,18.15-46.67,8.08-37.93,1.89-78.13-18.15-112.18-2.83-4.82-5.94-9.51-9.33-14.06-5.84-7.87-12.53-15.29-20.03-22.16-53.69-49.08-132.27-53.78-190.65-16.1-6.91,4.44-13.52,9.48-19.77,15.12-3.81,3.42-7.49,7.05-11.01,10.91-10.87,11.89-19.56,25-26.09,38.83-2.65,5.61-4.94,11.33-6.88,17.15-3.13,9.33-5.34,18.91-6.65,28.58-.99,7.24-1.46,14.53-1.43,21.81.02,5.87.37,11.72,1.05,17.54,2.01,17.23,6.85,34.16,14.52,50.02,2.72,5.66,5.82,11.19,9.26,16.54,7.17,11.15,15.89,21.57,26.13,30.94,8.55,7.82,17.73,14.51,27.37,20.07,9.21,5.34,18.83,9.65,28.7,12.92,36.74,12.29,76.97,10.49,112.46-5.04,14.98-6.52,29.11-15.49,41.78-26.86l31.97,29.22,12.85,11.75-5.85,6.4,231.9,212.01,32.78-35.85-231.9-212.01ZM188.25,384.37c-3.81-3.48-7.36-7.12-10.62-10.94-4.11-4.77-7.8-9.76-11.09-14.95-10.01-15.78-16.24-33.33-18.63-51.33-.44-3.34-.75-6.68-.94-10.04h0c-.11-2.07-.17-4.12-.18-6.19-.1-17.63,3.45-35.32,10.69-51.83,2.37-5.37,5.11-10.62,8.26-15.71,4.13-6.68,8.94-13.08,14.43-19.08,14.05-15.37,30.99-26.51,49.21-33.35,25.23-9.46,52.94-10.7,78.9-3.53,18.77,5.19,36.64,14.76,51.98,28.81,29.29,26.77,43.22,64.05,41.29,100.81-1.49,28.45-12.49,56.59-33.22,79.26-47.51,51.95-128.13,55.57-180.08,8.07Z"/>
      </g>
    </g>
  </g>
</svg>