<?xml version="1.0" encoding="UTF-8"?>
<svg id="Nachbau" xmlns="http://www.w3.org/2000/svg" viewBox="0 0 800 800">
  <defs>
    <style>
      .cls-1 {
        fill: #dddddc;
      }

      .cls-1, .cls-2, .cls-3, .cls-4 {
        stroke-width: 0px;
      }

      .cls-2 {
        fill: #64abd6;
      }

      .cls-3 {
        fill: #73bbe7;
      }

      .cls-4 {
        fill: #b9ddf3;
      }
    </style>
  </defs>
  <g id="G-0037_BUW_Icon_CD">
    <g id="CD">
      <g id="CD-2" data-name="CD">
        <path class="cls-3" d="M666.43,400.01c0,144.9-115.68,262.8-259.74,266.34v-186.15c41.32-3.4,73.8-38,73.8-80.18,0-22.17-8.97-42.25-23.48-56.81-5.53-5.56-11.88-10.32-18.85-14.08l76.21-169.83c27.61,13.14,52.6,30.89,73.98,52.26,48.24,48.22,78.08,114.85,78.08,188.45Z"/>
        <path class="cls-3" d="M319.51,400.02c0,22.34,9.11,42.55,23.82,57.13,5.37,5.33,11.49,9.9,18.19,13.56l-76.21,169.85c-27.33-13.06-52.09-30.64-73.31-51.77-48.45-48.24-78.43-115.01-78.43-188.78,0-145.38,116.44-263.57,261.14-266.38v186.07c-41.99,2.73-75.2,37.64-75.2,80.32Z"/>
      </g>
      <path id="Mitte" class="cls-1" d="M457.01,343.21c-5.53-5.56-11.88-10.32-18.85-14.08-3.46-1.86-7.07-3.48-10.8-4.83-.05-.02-.09-.03-.13-.05-3.68-1.32-7.49-2.38-11.4-3.16-2.99-.6-6.04-1.03-9.14-1.28-2.2-.19-4.44-.28-6.69-.28-1.78,0-3.54.06-5.29.17-41.99,2.73-75.2,37.64-75.2,80.32,0,22.34,9.11,42.55,23.82,57.13,5.37,5.33,11.49,9.9,18.19,13.56,3.49,1.9,7.14,3.55,10.91,4.93l1.39-3.1-.91,3.27c3.73,1.33,7.58,2.39,11.54,3.16,3.35.66,6.77,1.11,10.26,1.34,1.75.11,3.51.17,5.29.17,2.25,0,4.49-.09,6.69-.28,41.32-3.4,73.8-38,73.8-80.18,0-22.17-8.97-42.25-23.48-56.81ZM406.69,463.06c-2.2.23-4.43.35-6.69.35-1.78,0-3.55-.07-5.29-.22-1.92-.16-3.82-.4-5.68-.73-3.29-.57-6.49-1.4-9.59-2.46-.65-.22-1.31-.46-1.95-.71-3.11-1.17-6.1-2.59-8.95-4.22-4.82-2.76-9.24-6.13-13.15-10.01-11.61-11.49-18.8-27.43-18.8-45.05,0-33.24,25.57-60.5,58.12-63.19,1.74-.15,3.51-.22,5.29-.22,2.26,0,4.49.12,6.69.35,1.54.16,3.06.38,4.56.65,3.07.55,6.07,1.32,8.97,2.29.86.29,1.71.6,2.55.93,2.91,1.11,5.71,2.44,8.38,3.95,5.08,2.87,9.72,6.42,13.81,10.52,11.4,11.47,18.45,27.27,18.45,44.72,0,32.75-24.84,59.71-56.72,63.05Z"/>
      <g id="Schmal">
        <path class="cls-2" d="M372.91,475.8l-49.75,179.38c-9.2-2.76-18.19-6.01-26.94-9.72-3.68-1.56-7.31-3.19-10.91-4.91l76.21-169.85c3.49,1.9,7.14,3.55,10.91,4.93.16.05.32.11.48.17Z"/>
        <path class="cls-2" d="M514.37,159.29l-76.21,169.83c-3.46-1.86-7.07-3.48-10.8-4.83l.22-.82,49.53-178.58c8.99,2.71,17.78,5.89,26.34,9.5,3.68,1.55,7.32,3.19,10.92,4.9Z"/>
      </g>
      <g id="Mittel">
        <path class="cls-4" d="M406.69,480.19v186.15c-2.23.06-4.45.09-6.69.09-1.77,0-3.53-.02-5.29-.06-20.67-.39-40.76-3.15-60.02-8.01-3.88-.97-7.72-2.03-11.53-3.18l49.75-179.38c3.73,1.33,7.58,2.39,11.54,3.16,3.35.66,6.77,1.11,10.26,1.34,1.75.11,3.51.17,5.29.17,2.25,0,4.49-.09,6.69-.28Z"/>
        <path class="cls-4" d="M477.11,144.9l-49.53,178.58-.35.77c-3.68-1.32-7.49-2.38-11.4-3.16-2.99-.6-6.04-1.03-9.14-1.28-2.2-.19-4.44-.28-6.69-.28-1.78,0-3.54.06-5.29.17v-186.07c1.76-.04,3.52-.06,5.29-.06,2.24,0,4.46.03,6.69.09,20.27.49,39.98,3.26,58.89,8.05,3.88.97,7.72,2.04,11.53,3.19Z"/>
      </g>
    </g>
  </g>
</svg>