<?xml version="1.0" encoding="UTF-8"?>
<svg id="Nachbau" xmlns="http://www.w3.org/2000/svg" viewBox="0 0 800 800">
  <defs>
    <style>
      .cls-1 {
        fill: #206289;
      }

      .cls-1, .cls-2, .cls-3, .cls-4 {
        stroke-width: 0px;
      }

      .cls-2 {
        fill: #dddddc;
      }

      .cls-3 {
        fill: #64abd6;
      }

      .cls-4 {
        fill: #73bbe7;
      }
    </style>
  </defs>
  <g id="G-0088_BUW_Icon__Plagiat" data-name="G-0088_BUW_Icon_ Plagiat">
    <g id="Plagiat">
      <g id="Mütze">
        <path class="cls-4" d="M637.41,339.96H162.59c10.54-93.43,112.81-166.74,237.41-166.74s226.86,73.31,237.41,166.74Z"/>
        <rect class="cls-3" x="133.57" y="339.96" width="532.86" height="62.53"/>
      </g>
      <g id="Maske">
        <path class="cls-1" d="M656.71,452.67c-13.57.24-33.06.96-56.42,3.21-67.79,6.51-91.72,14.14-142.37,18.77-49.78,4.55-91.23,2.25-115.86,0-50.65-4.63-74.57-12.26-142.36-18.77-23.37-2.25-42.86-2.97-56.41-3.21-3.73,54.77-6,87.85-9.73,142.63,68.1,33.2,168.79,39.63,205.03,21.69,24.96-11.6,28.39-65.44,61.41-76.89,33,11.45,36.45,65.29,61.4,76.89,36.24,17.94,136.92,11.51,205.03-21.69-3.74-54.78-5.99-87.86-9.72-142.63ZM279.63,569.82c-.58-.04-1.18-.08-1.78-.14-27.67-2.91-38.22-19.8-56.42-41.23,19.14-15.21,31.92-28.21,53.15-29.69,3.18-.22,6.55-.18,10.17.14,27.66,2.91,38.21,19.8,56.41,41.22-21.53,17.14-35.01,31.43-61.53,29.7ZM522.15,569.68c-.6.06-1.2.1-1.79.14-26.52,1.73-40.01-12.56-61.54-29.7,18.22-21.42,28.75-38.31,56.43-41.22,3.62-.32,6.98-.36,10.17-.14,21.22,1.48,34.01,14.48,53.15,29.69-18.21,21.43-28.76,38.32-56.42,41.23Z"/>
        <path class="cls-2" d="M341.17,540.12c-21.53,17.14-35.01,31.44-61.53,29.7-.59-.04-1.19-.08-1.79-.14-27.66-2.91-38.21-19.8-56.42-41.23,19.14-15.21,31.92-28.21,53.15-29.69,3.19-.22,6.55-.18,10.17.14,27.66,2.91,38.21,19.8,56.42,41.22Z"/>
        <path class="cls-2" d="M578.57,528.45c-18.21,21.43-28.75,38.32-56.42,41.23-.6.06-1.2.1-1.79.14-26.52,1.73-40.01-12.56-61.54-29.7,18.22-21.42,28.75-38.31,56.43-41.22,3.62-.32,6.99-.36,10.17-.14,21.22,1.48,34.01,14.47,53.15,29.69Z"/>
      </g>
    </g>
  </g>
</svg>