<?xml version="1.0" encoding="UTF-8"?>
<svg id="Musthave" xmlns="http://www.w3.org/2000/svg" viewBox="0 0 800 800">
  <defs>
    <style>
      .cls-1 {
        fill: #308fc9;
      }

      .cls-1, .cls-2 {
        stroke-width: 0px;
      }

      .cls-2 {
        fill: #206289;
      }
    </style>
  </defs>
  <g id="G-0095_BUW_Icon_Zahlenreihe">
    <g id="Reihe">
      <g>
        <path class="cls-2" d="M105.54,365.89l5.27-25c24.15-10.55,42.84-22.82,56.05-36.82h17.09l-30.18,144.04h-28.22l20.8-99.22c-5.86,3.78-12.61,7.23-20.26,10.35-7.65,3.12-14.5,5.34-20.56,6.64Z"/>
        <path class="cls-1" d="M195.3,421.07h28.22l-4.69,22.36c-2.67,12.89-6.95,22.02-12.84,27.39-5.89,5.37-13.53,8.15-22.9,8.35l2.73-12.99c4.69-1.04,8.32-2.91,10.89-5.62,2.57-2.7,4.48-6.85,5.71-12.45h-12.89l5.76-27.05Z"/>
        <path class="cls-2" d="M297.44,349.58l-27.44-4.1c2.21-13.28,7.37-23.45,15.48-30.52,8.11-7.06,18.25-10.6,30.42-10.6,13.35,0,23.83,3.61,31.45,10.84s11.43,16.41,11.43,27.54c0,5.66-1.17,11.34-3.52,17.04-2.34,5.7-6.19,11.67-11.52,17.92-3.84,4.43-10.12,10.69-18.85,18.8-8.73,8.11-14.5,13.64-17.33,16.6-2.83,2.96-5.55,6.1-8.15,9.42h49.61l-5.27,25.59h-87.01c.91-7.03,2.98-13.72,6.2-20.07s7.24-12.26,12.06-17.72c4.82-5.47,13.64-14.29,26.46-26.46,9.63-9.24,15.72-15.27,18.26-18.07,4.56-5.08,7.68-9.47,9.38-13.18,1.69-3.71,2.54-7.06,2.54-10.06,0-4.82-1.42-8.72-4.25-11.72-2.83-2.99-6.43-4.49-10.79-4.49s-8.3,1.68-11.62,5.03c-3.32,3.35-5.83,9.42-7.52,18.21Z"/>
        <path class="cls-1" d="M382.1,421.07h28.22l-4.69,22.36c-2.67,12.89-6.95,22.02-12.84,27.39-5.89,5.37-13.53,8.15-22.9,8.35l2.73-12.99c4.69-1.04,8.32-2.91,10.89-5.62,2.57-2.7,4.48-6.85,5.71-12.45h-12.89l5.76-27.05Z"/>
        <path class="cls-2" d="M437.56,410.72l26.86-3.22c1.11,7.62,3.11,12.89,6.01,15.82,2.9,2.93,6.75,4.39,11.57,4.39,6.38,0,11.67-2.15,15.87-6.45s6.3-9.8,6.3-16.5c0-5.86-1.69-10.5-5.08-13.92-3.39-3.42-7.94-5.13-13.67-5.13-1.43,0-2.93.13-4.49.39l4.88-23.34c.98.13,1.92.2,2.83.2,7.49,0,13.18-1.9,17.09-5.71s5.86-8.97,5.86-15.48c0-4.62-1.32-8.27-3.96-10.94-2.64-2.67-6.1-4-10.4-4-4.04,0-7.65,1.48-10.84,4.44-3.19,2.96-5.73,8.02-7.62,15.19l-25.59-5.08c3.25-10.55,7.78-18.65,13.57-24.32,8.79-8.46,19.6-12.7,32.42-12.7s23.14,3.66,29.98,10.99,10.25,16.1,10.25,26.32c0,7.42-2.18,14.13-6.54,20.12-4.36,5.99-10.35,10.39-17.97,13.18,6.05,3.19,10.51,7.32,13.38,12.4,2.86,5.08,4.3,10.39,4.3,15.92,0,10.55-3.74,20.25-11.23,29.1-10.22,12.11-23.41,18.16-39.55,18.16-12.11,0-22.09-3.47-29.93-10.4-7.85-6.93-12.61-16.75-14.31-29.44Z"/>
        <path class="cls-1" d="M556.9,421.07h28.22l-4.69,22.36c-2.67,12.89-6.95,22.02-12.84,27.39-5.89,5.37-13.53,8.15-22.9,8.35l2.73-12.99c4.69-1.04,8.32-2.91,10.89-5.62,2.57-2.7,4.48-6.85,5.71-12.45h-12.89l5.76-27.05Z"/>
        <path class="cls-2" d="M668.02,418.92h-56.35l4.88-23.44,77.44-90.53h24.22l-18.85,90.14h17.38l-4.98,23.83h-17.38l-6.15,29.2h-26.37l6.15-29.2ZM673,395.09l9.28-44.63-37.79,44.63h28.52Z"/>
      </g>
    </g>
  </g>
</svg>