<?xml version="1.0" encoding="UTF-8"?>
<svg id="Nachbau" xmlns="http://www.w3.org/2000/svg" viewBox="0 0 800 800">
  <defs>
    <style>
      .cls-1 {
        fill: #206289;
      }

      .cls-1, .cls-2, .cls-3 {
        stroke-width: 0px;
      }

      .cls-2 {
        fill: #dddddc;
      }

      .cls-3 {
        fill: #64abd6;
      }
    </style>
  </defs>
  <g id="G-0044_BUW_Icon_Findability-2" data-name="G-0044_BUW_Icon_Findability">
    <g id="Zahnräder">
      <path class="cls-3" d="M219.83,423.92c-12.66,4.16-24.18,10.28-34.31,17.93l-30.43-15.59c-9.44,8.76-17.67,18.66-24.53,29.43l20.76,27.16c-5.82,11.51-9.76,23.98-11.57,36.93l-32.55,10.49c-.48,12.57.62,25.38,3.47,38.16l33.89,4.52c4.16,12.66,10.28,24.18,17.93,34.31l-15.59,30.42c8.76,9.44,18.66,17.68,29.43,24.53l27.16-20.76c11.51,5.81,23.98,9.77,36.94,11.58l10.49,32.54c12.57.48,25.37-.62,38.15-3.46l4.52-33.88c12.66-4.16,24.18-10.28,34.31-17.93l30.41,15.59c9.45-8.75,17.69-18.66,24.54-29.43l-20.76-27.15c5.82-11.51,9.78-23.99,11.59-36.94l32.54-10.48c.48-12.57-.62-25.37-3.46-38.15l-33.88-4.52c-4.16-12.66-10.28-24.18-17.94-34.31l15.59-30.42c-8.76-9.45-18.66-17.68-29.43-24.53l-27.15,20.76c-11.51-5.82-23.98-9.77-36.93-11.58l-10.49-32.55c-12.57-.48-25.37.62-38.15,3.47l-4.52,33.88ZM312.5,520.35c8.68,30.83-9.27,62.85-40.09,71.53-30.83,8.68-62.85-9.28-71.53-40.1-8.68-30.82,9.27-62.85,40.09-71.53,30.82-8.68,62.85,9.28,71.53,40.09Z"/>
      <path class="cls-1" d="M529,366.14c-13.23,1.61-25.72,5.38-37.14,10.91l-26.81-21.21c-10.97,6.75-20.97,14.87-29.78,24.09l15.08,30.68c-7.94,10.15-14.24,21.62-18.54,33.97l-33.97,3.96c-2.92,12.23-4.33,25.02-4.03,38.11l32.36,11.03c1.61,13.23,5.38,25.72,10.91,37.14l-21.21,26.8c6.75,10.97,14.87,20.97,24.09,29.79l30.68-15.08c10.16,7.94,21.63,14.25,33.98,18.55l3.96,33.96c12.23,2.92,25.01,4.33,38.1,4.03l11.03-32.35c13.23-1.61,25.72-5.38,37.14-10.91l26.8,21.21c10.98-6.74,20.98-14.86,29.8-24.09l-15.08-30.68c7.95-10.16,14.26-21.63,18.55-33.98l33.96-3.95c2.92-12.23,4.33-25.01,4.03-38.1l-32.35-11.03c-1.61-13.23-5.38-25.72-10.92-37.14l21.21-26.8c-6.75-10.98-14.87-20.97-24.09-29.79l-30.68,15.08c-10.15-7.95-21.62-14.25-33.97-18.55l-3.96-33.97c-12.23-2.92-25.01-4.33-38.1-4.02l-11.03,32.35ZM601.14,478.77c2.52,31.92-21.32,59.85-53.25,62.37-31.92,2.52-59.84-21.33-62.36-53.25-2.52-31.92,21.32-59.84,53.25-62.36,31.92-2.52,59.84,21.33,62.36,53.25Z"/>
      <path class="cls-2" d="M298.33,160.33c-11.4,6.91-21.24,15.47-29.38,25.2l-33.16-8.33c-7.23,10.66-13.01,22.17-17.26,34.2l26.35,21.77c-3.07,12.52-4.1,25.57-2.95,38.59l-29.35,17.56c2.36,12.35,6.33,24.58,11.98,36.4l34.03-3.24c6.91,11.4,15.47,21.24,25.2,29.38l-8.33,33.15c10.66,7.23,22.17,13.02,34.2,17.26l21.77-26.35c12.53,3.07,25.57,4.11,38.6,2.95l17.56,29.34c12.35-2.36,24.58-6.33,36.39-11.98l-3.24-34.03c11.4-6.91,21.24-15.47,29.38-25.2l33.14,8.33c7.24-10.66,13.03-22.17,17.27-34.21l-26.35-21.77c3.07-12.53,4.12-25.57,2.96-38.6l29.34-17.55c-2.36-12.35-6.33-24.58-11.98-36.39l-34.03,3.24c-6.91-11.4-15.47-21.24-25.21-29.38l8.33-33.15c-10.66-7.23-22.17-13.02-34.2-17.26l-21.77,26.35c-12.52-3.08-25.57-4.11-38.59-2.95l-17.56-29.35c-12.35,2.36-24.58,6.33-36.39,11.99l3.24,34.03ZM410.37,233.38c15.41,28.07,5.15,63.32-22.92,78.73-28.07,15.41-63.32,5.14-78.73-22.94-15.41-28.07-5.14-63.32,22.93-78.73,28.07-15.41,63.32-5.14,78.73,22.93Z"/>
    </g>
  </g>
</svg>