<?xml version="1.0" encoding="UTF-8"?>
<svg id="Nachbau" xmlns="http://www.w3.org/2000/svg" viewBox="0 0 800 800">
  <defs>
    <style>
      .cls-1 {
        fill: #308fc9;
      }

      .cls-1, .cls-2, .cls-3, .cls-4, .cls-5 {
        stroke-width: 0px;
      }

      .cls-2 {
        fill: #206289;
      }

      .cls-3 {
        fill: #dddddc;
      }

      .cls-4 {
        fill: #73bbe7;
      }

      .cls-5 {
        fill: #b9ddf3;
      }
    </style>
  </defs>
  <g id="G-0049_BUW_Icon_Datentypen_Messung">
    <g id="Uhr">
      <g id="Stopper">
        <path class="cls-3" d="M477.79,141.71v17.59c0,4.61-3.74,8.35-8.35,8.35h-18.21v15.86c-16.52-3.53-33.66-5.39-51.23-5.39s-34.7,1.86-51.22,5.39v-15.86h-18.22c-4.6,0-8.34-3.74-8.34-8.35v-17.59c0-4.61,3.74-8.35,8.34-8.35h138.88c4.61,0,8.35,3.74,8.35,8.35Z"/>
      </g>
      <g id="Uhr-2" data-name="Uhr">
        <g id="Form">
          <path class="cls-5" d="M230.56,523.23l-19.43,11.22c-.98-1.64-1.93-3.28-2.87-4.95l19.44-11.22c.92,1.67,1.88,3.32,2.86,4.95Z"/>
          <path class="cls-5" d="M230.56,320.98c-.98,1.63-1.94,3.28-2.86,4.95l-19.44-11.22c.94-1.67,1.89-3.31,2.87-4.95l19.43,11.22Z"/>
          <path class="cls-5" d="M303.82,594.41l-11.21,19.43c-1.67-.93-3.32-1.88-4.95-2.86l11.22-19.43c1.63.98,3.28,1.93,4.94,2.86Z"/>
          <path class="cls-5" d="M303.82,249.8c-1.66.93-3.31,1.88-4.94,2.86l-11.22-19.43c1.63-.97,3.28-1.93,4.95-2.86l11.21,19.43Z"/>
          <path class="cls-5" d="M577.31,424.96h42.4c-.48,37.94-10.58,73.56-27.97,104.54l-19.43-11.22c-.93,1.67-1.88,3.32-2.86,4.95l19.43,11.22c-18.74,31.43-45.1,57.79-76.53,76.53l-11.22-19.43c-1.63.98-3.28,1.93-4.95,2.86l11.22,19.43c-30.98,17.39-66.6,27.49-104.54,27.98v-42.4c-.95.02-1.9.03-2.86.03s-1.91-.01-2.86-.03v42.4c-37.94-.49-73.55-10.59-104.53-27.98l11.21-19.43c-1.66-.93-3.31-1.88-4.94-2.86l-11.22,19.43c-31.43-18.74-57.8-45.1-76.53-76.53l19.43-11.22c-.98-1.63-1.94-3.28-2.86-4.95l-19.44,11.22c-17.38-30.98-27.48-66.6-27.97-104.54h42.4c-.02-.95-.03-1.9-.03-2.86s0-1.91.03-2.85h-42.4c.49-37.94,10.59-73.56,27.97-104.54l19.44,11.22c.92-1.67,1.88-3.32,2.86-4.95l-19.43-11.22c18.73-31.43,45.1-57.79,76.53-76.53l11.22,19.43c1.63-.98,3.28-1.93,4.94-2.86l-11.21-19.43c30.98-17.39,66.59-27.49,104.53-27.97v42.39c.95-.02,1.91-.03,2.86-.03s1.91.01,2.86.03v-42.39c37.94.48,73.56,10.58,104.54,27.97l-11.22,19.43c1.67.93,3.32,1.88,4.95,2.86l11.22-19.43c31.43,18.74,57.79,45.1,76.53,76.53l-19.43,11.22c.98,1.63,1.93,3.28,2.86,4.95l19.43-11.22c17.39,30.98,27.49,66.6,27.97,104.54h-42.4c.03.94.03,1.9.03,2.85s0,1.91-.03,2.86Z"/>
          <path class="cls-5" d="M512.35,610.98c-1.64.98-3.29,1.93-4.95,2.86l-11.22-19.43c1.67-.93,3.32-1.88,4.95-2.86l11.22,19.43Z"/>
          <path class="cls-5" d="M512.35,233.23l-11.22,19.43c-1.63-.98-3.28-1.93-4.95-2.86l11.22-19.43c1.66.93,3.31,1.89,4.95,2.86Z"/>
          <path class="cls-5" d="M591.74,529.5c-.93,1.67-1.88,3.31-2.86,4.95l-19.43-11.22c.98-1.63,1.93-3.28,2.86-4.95l19.43,11.22Z"/>
          <path class="cls-5" d="M591.74,314.71l-19.43,11.22c-.93-1.67-1.88-3.32-2.86-4.95l19.43-11.22c.98,1.64,1.93,3.28,2.86,4.95Z"/>
          <path class="cls-1" d="M619.71,419.25h-42.4c.03.94.03,1.9.03,2.85s0,1.91-.03,2.86h42.4c.02-.95.02-1.9.02-2.86s0-1.9-.02-2.85ZM591.74,314.71c-.93-1.67-1.88-3.31-2.86-4.95l-19.43,11.22c.98,1.63,1.93,3.28,2.86,4.95l19.43-11.22ZM569.45,523.23l19.43,11.22c.98-1.64,1.93-3.28,2.86-4.95l-19.43-11.22c-.93,1.67-1.88,3.32-2.86,4.95ZM496.18,249.8c1.67.93,3.32,1.88,4.95,2.86l11.22-19.43c-1.64-.97-3.29-1.93-4.95-2.86l-11.22,19.43ZM496.18,594.41l11.22,19.43c1.66-.93,3.31-1.88,4.95-2.86l-11.22-19.43c-1.63.98-3.28,1.93-4.95,2.86ZM397.14,599.42v42.4c.95.01,1.91.01,2.86.01s1.91,0,2.86-.01v-42.4c-.95.02-1.9.03-2.86.03s-1.91-.01-2.86-.03ZM397.14,202.4v42.39c.95-.02,1.91-.03,2.86-.03s1.91.01,2.86.03v-42.39c-.95-.01-1.9-.02-2.86-.02s-1.91,0-2.86.02ZM287.66,233.23l11.22,19.43c1.63-.98,3.28-1.93,4.94-2.86l-11.21-19.43c-1.67.93-3.32,1.89-4.95,2.86ZM287.66,610.98c1.63.98,3.28,1.93,4.95,2.86l11.21-19.43c-1.66-.93-3.31-1.88-4.94-2.86l-11.22,19.43ZM208.26,314.71l19.44,11.22c.92-1.67,1.88-3.32,2.86-4.95l-19.43-11.22c-.98,1.64-1.93,3.28-2.87,4.95ZM208.26,529.5c.94,1.67,1.89,3.31,2.87,4.95l19.43-11.22c-.98-1.63-1.94-3.28-2.86-4.95l-19.44,11.22ZM222.66,422.1c0-.95,0-1.91.03-2.85h-42.4c0,.95-.02,1.9-.02,2.85s.01,1.91.02,2.86h42.4c-.02-.95-.03-1.9-.03-2.86Z"/>
          <path class="cls-1" d="M451.23,183.51c-16.52-3.53-33.66-5.39-51.23-5.39s-34.7,1.86-51.22,5.39c-110.15,23.53-192.76,121.42-192.76,238.6,0,134.74,109.23,243.98,243.98,243.98s243.99-109.24,243.99-243.98c0-117.18-82.61-215.07-192.76-238.6ZM591.74,529.5c-.93,1.67-1.88,3.31-2.86,4.95-18.74,31.43-45.1,57.79-76.53,76.53-1.64.98-3.29,1.93-4.95,2.86-30.98,17.39-66.6,27.49-104.54,27.98-.95.01-1.9.01-2.86.01s-1.91,0-2.86-.01c-37.94-.49-73.55-10.59-104.53-27.98-1.67-.93-3.32-1.88-4.95-2.86-31.43-18.74-57.8-45.1-76.53-76.53-.98-1.64-1.93-3.28-2.87-4.95-17.38-30.98-27.48-66.6-27.97-104.54,0-.95-.02-1.9-.02-2.86s.01-1.9.02-2.85c.49-37.94,10.59-73.56,27.97-104.54.94-1.67,1.89-3.31,2.87-4.95,18.73-31.43,45.1-57.79,76.53-76.53,1.63-.97,3.28-1.93,4.95-2.86,30.98-17.39,66.59-27.49,104.53-27.97.95-.01,1.91-.02,2.86-.02s1.91,0,2.86.02c37.94.48,73.56,10.58,104.54,27.97,1.66.93,3.31,1.89,4.95,2.86,31.43,18.74,57.79,45.1,76.53,76.53.98,1.64,1.93,3.28,2.86,4.95,17.39,30.98,27.49,66.6,27.97,104.54.02.95.02,1.9.02,2.85s0,1.91-.02,2.86c-.48,37.94-10.58,73.56-27.97,104.54Z"/>
        </g>
        <g id="Ziffern">
          <path class="cls-2" d="M303.82,249.8c-1.66.93-3.31,1.88-4.94,2.86l-11.22-19.43c1.63-.97,3.28-1.93,4.95-2.86l11.21,19.43Z"/>
          <path class="cls-2" d="M512.35,610.98c-1.64.98-3.29,1.93-4.95,2.86l-11.22-19.43c1.67-.93,3.32-1.88,4.95-2.86l11.22,19.43Z"/>
          <path class="cls-2" d="M303.82,594.41l-11.21,19.43c-1.67-.93-3.32-1.88-4.95-2.86l11.22-19.43c1.63.98,3.28,1.93,4.94,2.86Z"/>
          <path class="cls-2" d="M512.35,233.23l-11.22,19.43c-1.63-.98-3.28-1.93-4.95-2.86l11.22-19.43c1.66.93,3.31,1.89,4.95,2.86Z"/>
          <path class="cls-2" d="M230.56,320.98c-.98,1.63-1.94,3.28-2.86,4.95l-19.44-11.22c.94-1.67,1.89-3.31,2.87-4.95l19.43,11.22Z"/>
          <path class="cls-2" d="M591.74,529.5c-.93,1.67-1.88,3.31-2.86,4.95l-19.43-11.22c.98-1.63,1.93-3.28,2.86-4.95l19.43,11.22Z"/>
          <path class="cls-2" d="M230.56,523.23l-19.43,11.22c-.98-1.64-1.93-3.28-2.87-4.95l19.44-11.22c.92,1.67,1.88,3.32,2.86,4.95Z"/>
          <path class="cls-2" d="M591.74,314.71l-19.43,11.22c-.93-1.67-1.88-3.32-2.86-4.95l19.43-11.22c.98,1.64,1.93,3.28,2.86,4.95Z"/>
          <path class="cls-2" d="M222.66,422.1c0,.96,0,1.91.03,2.86h-42.4c0-.95-.02-1.9-.02-2.86s.01-1.9.02-2.85h42.4c-.02.94-.03,1.9-.03,2.85Z"/>
          <path class="cls-2" d="M402.86,599.42v42.4c-.95.01-1.9.01-2.86.01s-1.91,0-2.86-.01v-42.4c.95.02,1.91.03,2.86.03s1.91-.01,2.86-.03Z"/>
          <path class="cls-2" d="M619.73,422.1c0,.96,0,1.91-.02,2.86h-42.4c.03-.95.03-1.9.03-2.86s0-1.91-.03-2.85h42.4c.02.95.02,1.9.02,2.85Z"/>
          <path class="cls-2" d="M402.86,202.4v42.39c-.95-.02-1.9-.03-2.86-.03s-1.91.01-2.86.03v-42.39c.95-.01,1.91-.02,2.86-.02s1.91,0,2.86.02Z"/>
        </g>
        <g id="Zeiger">
          <path class="cls-2" d="M504.3,330.92l-87.27,87.27c.3,1.26.45,2.57.45,3.92,0,9.65-7.82,17.48-17.48,17.48s-17.48-7.83-17.48-17.48,7.83-17.48,17.48-17.48c.79,0,1.58.05,2.34.16l87.91-87.91c3.6-3.61,9.44-3.61,13.05,0l1,1c3.6,3.6,3.6,9.44,0,13.04Z"/>
        </g>
      </g>
      <g id="Details">
        <rect class="cls-4" x="330.89" y="503.86" width="138.21" height="34.62" rx="5.41" ry="5.41"/>
        <rect class="cls-4" x="353.45" y="549.61" width="93.1" height="26.07" rx="5.41" ry="5.41"/>
      </g>
    </g>
  </g>
</svg>