<?xml version="1.0" encoding="UTF-8"?>
<svg id="Nachbau" xmlns="http://www.w3.org/2000/svg" viewBox="0 0 800 800">
  <defs>
    <style>
      .cls-1 {
        fill: #308fc9;
      }

      .cls-1, .cls-2, .cls-3, .cls-4, .cls-5 {
        stroke-width: 0px;
      }

      .cls-2 {
        fill: #206289;
      }

      .cls-3 {
        fill: #64abd6;
      }

      .cls-4 {
        fill: #73bbe7;
      }

      .cls-5 {
        fill: #b9ddf3;
      }
    </style>
  </defs>
  <g id="G-0052_BUW_Icon_Datentyp_Audio">
    <g id="Microphone">
      <g id="Ständer">
        <path class="cls-4" d="M546.45,285.9v71.74c0,69.88-55.67,129.25-128,137.99v88.27s-36.9,0-36.9,0v-88.27c-72.33-8.75-128.01-68.12-128.01-137.99v-71.74h40.22v24.17h-16.05v45.73c0,64.43,54.86,116.85,122.29,116.85s122.28-52.42,122.28-116.85v-45.73h-16.03v-24.17h40.2Z"/>
        <path class="cls-5" d="M458.18,626.8h-116.36c5.88-14.3,11.76-28.6,17.62-42.9h81.13c5.87,14.3,11.75,28.6,17.61,42.9Z"/>
        <rect class="cls-1" x="322.14" y="626.8" width="155.72" height="54.87"/>
      </g>
      <g id="Micro">
        <path class="cls-3" d="M506.25,224.59v125.19c0,58.44-47.81,106.25-106.24,106.25s-106.25-47.81-106.25-106.25v-125.19c0-58.44,47.81-106.25,106.25-106.25,29.21,0,55.77,11.95,75.02,31.21,19.26,19.25,31.22,45.81,31.22,75.04Z"/>
        <path class="cls-2" d="M506.25,226.85v12.96h-70.92c-3.58,0-6.48-2.9-6.48-6.48h0c0-3.58,2.9-6.48,6.48-6.48h70.92Z"/>
        <path class="cls-2" d="M506.25,261.53v12.96h-70.92c-3.58,0-6.48-2.9-6.48-6.48h0c0-3.58,2.9-6.48,6.48-6.48h70.92Z"/>
        <path class="cls-2" d="M506.25,296.23v12.95h-70.92c-3.58,0-6.48-2.9-6.48-6.48,0-1.78.73-3.4,1.9-4.57s2.79-1.9,4.58-1.9h70.92Z"/>
        <path class="cls-2" d="M506.25,330.91v12.96h-70.92c-3.58,0-6.48-2.9-6.48-6.48h0c0-3.58,2.9-6.48,6.48-6.48h70.92Z"/>
        <path class="cls-2" d="M371.15,233.32h0c0,3.58-2.9,6.48-6.48,6.48h-70.92v-12.96h70.92c3.58,0,6.48,2.9,6.48,6.48Z"/>
        <path class="cls-2" d="M371.15,268.01h0c0,3.58-2.9,6.48-6.48,6.48h-70.92v-12.96h70.92c3.58,0,6.48,2.9,6.48,6.48Z"/>
        <path class="cls-2" d="M371.15,302.7c0,3.58-2.9,6.48-6.48,6.48h-70.91v-12.95h70.91c3.58,0,6.48,2.9,6.48,6.47Z"/>
        <path class="cls-2" d="M371.15,337.39h0c0,3.58-2.9,6.48-6.48,6.48h-70.92v-12.96h70.92c3.58,0,6.48,2.9,6.48,6.48Z"/>
      </g>
    </g>
  </g>
</svg>