<?xml version="1.0" encoding="UTF-8"?>
<svg id="Nachbau" xmlns="http://www.w3.org/2000/svg" viewBox="0 0 800 800">
  <defs>
    <style>
      .cls-1 {
        fill: #206289;
      }

      .cls-1, .cls-2, .cls-3 {
        stroke-width: 0px;
      }

      .cls-2 {
        fill: #dddddc;
        opacity: .8;
      }

      .cls-3 {
        fill: #73bbe7;
      }
    </style>
  </defs>
  <g id="G-0017_BUW_Icon_Analyse">
    <g id="Analyse">
      <g id="Linien">
        <path class="cls-1" d="M481,334.09c-2.71,0-5.32.64-7.65,1.85l-18.83-19.28c-.36,2.13-.77,4.25-1.22,6.37-.38,1.81-.8,3.61-1.25,5.41l14.21,14.55c-1.24,2.36-1.9,5-1.9,7.74,0,9.17,7.47,16.64,16.64,16.64s16.63-7.47,16.63-16.64-7.46-16.64-16.63-16.64ZM481,357.37c-3.66,0-6.64-2.98-6.64-6.64,0-1.78.69-3.44,1.96-4.7,1.24-1.25,2.9-1.94,4.68-1.94,3.66,0,6.63,2.98,6.63,6.64s-2.97,6.64-6.63,6.64Z"/>
        <g>
          <path class="cls-1" d="M426.74,276.41l-46.69-53.04c1.17-2.56,1.78-5.36,1.78-8.26,0-11.09-9.02-20.11-20.1-20.11s-20.11,9.02-20.11,20.11c0,2.76.55,5.43,1.61,7.89l-111.5,111.5c-2.42-1.03-5.09-1.61-7.89-1.61s-5.29.54-7.65,1.51l-43.6-47.1c-.03,1.21-.04,2.42-.03,3.63,0,2.07.07,4.12.18,6.18h0c.19,3.37.5,6.71.94,10.05.18,1.35.38,2.7.61,4.05l31.15,33.67c-1.1,2.49-1.71,5.23-1.71,8.12,0,11.08,9.02,20.1,20.11,20.1s20.1-9.02,20.1-20.1c0-2.8-.58-5.46-1.61-7.89l111.51-111.51c2.46,1.06,5.13,1.61,7.89,1.61s5.15-.49,7.49-1.44l57.89,65.76.06-.05c.06-.81.11-1.62.15-2.43.36-6.89.17-13.79-.58-20.64ZM223.84,358.1c-2.82,0-5.11-2.29-5.11-5.1s2.29-5.11,5.11-5.11,5.1,2.29,5.1,5.11-2.29,5.1-5.1,5.1ZM365.34,218.72c-.97.96-2.25,1.49-3.61,1.49s-2.65-.53-3.61-1.49c-.97-.97-1.5-2.25-1.5-3.61,0-2.82,2.29-5.11,5.11-5.11s5.1,2.29,5.1,5.11c0,1.36-.53,2.64-1.49,3.61Z"/>
          <path class="cls-1" d="M118.4,235.68h0c1.06-2.19,1.65-4.63,1.65-7.2,0-9.18-7.47-16.64-16.64-16.64s-16.64,7.46-16.64,16.64,7.46,16.64,16.64,16.64c2.96,0,5.75-.78,8.16-2.14l32.48,32.05c.19-1.97.42-3.94.69-5.91.29-2.16.63-4.31,1.02-6.45l-27.36-26.99ZM103.41,235.12c-3.66,0-6.64-2.98-6.64-6.64s2.98-6.64,6.64-6.64,6.64,2.98,6.64,6.64-2.98,6.64-6.64,6.64Z"/>
        </g>
      </g>
      <g id="Lupe">
        <path class="cls-2" d="M427.32,297.05c-1.49,28.45-12.49,56.59-33.22,79.26-47.51,51.95-128.13,55.57-180.08,8.07-3.81-3.48-7.36-7.12-10.62-10.94-4.11-4.77-7.8-9.76-11.09-14.95-10.01-15.78-16.24-33.33-18.63-51.33-.44-3.34-.75-6.68-.94-10.04h0c-.11-2.07-.17-4.12-.18-6.19-.1-17.63,3.45-35.32,10.69-51.83,2.37-5.37,5.11-10.63,8.26-15.72,4.13-6.68,8.94-13.08,14.43-19.08,14.05-15.37,30.99-26.51,49.21-33.35,25.23-9.46,52.94-10.7,78.9-3.53,18.77,5.19,36.64,14.76,51.98,28.81,29.29,26.77,43.22,64.06,41.29,100.82Z"/>
        <path class="cls-3" d="M476.33,418.58l-5.85,6.39-35.9-32.81-8.92-8.16c2.88-3.84,5.56-7.8,8.01-11.83.51-.81.99-1.64,1.48-2.47,7.7-13.07,13.33-26.97,16.9-41.26.45-1.8.87-3.6,1.25-5.41.45-2.12.86-4.24,1.22-6.37,6.13-36.03-.45-73.66-19.37-105.82-2.83-4.82-5.94-9.51-9.33-14.06-5.84-7.87-12.53-15.29-20.03-22.16-53.69-49.08-132.27-53.78-190.65-16.1-6.91,4.44-13.52,9.48-19.77,15.12-3.81,3.42-7.49,7.05-11.01,10.91-10.87,11.89-19.56,25-26.09,38.83-2.65,5.61-4.94,11.34-6.88,17.15-2.43,7.26-4.31,14.66-5.63,22.14-.39,2.14-.73,4.29-1.02,6.45-.27,1.97-.5,3.94-.69,5.91-.52,5.29-.76,10.6-.74,15.9.02,5.87.37,11.72,1.05,17.54,2.01,17.23,6.85,34.16,14.52,50.02,2.72,5.66,5.82,11.19,9.26,16.54,7.17,11.15,15.89,21.57,26.13,30.94,8.55,7.82,17.73,14.51,27.37,20.07,9.21,5.34,18.83,9.65,28.7,12.92,36.74,12.29,76.97,10.49,112.46-5.04,14.98-6.52,29.11-15.49,41.78-26.86l31.97,29.22,12.85,11.74h0s-5.86,6.41-5.86,6.41l231.9,212.01,32.78-35.85-231.9-212.01ZM394.1,376.31c-47.51,51.95-128.13,55.57-180.08,8.07-3.81-3.48-7.36-7.12-10.62-10.94-4.11-4.77-7.8-9.76-11.09-14.95-9.26-14.59-15.28-30.7-18.02-47.28-.23-1.35-.43-2.7-.61-4.05-.44-3.34-.75-6.68-.94-10.04h0c-.11-2.07-.17-4.12-.18-6.19-.01-1.21,0-2.42.03-3.63.38-16.42,3.92-32.83,10.66-48.2,2.37-5.37,5.11-10.63,8.26-15.72,4.13-6.68,8.94-13.08,14.43-19.08,14.05-15.37,30.99-26.51,49.21-33.35,25.23-9.46,52.94-10.7,78.9-3.53,18.77,5.19,36.64,14.76,51.98,28.81,23.81,21.76,37.47,50.46,40.71,80.18.75,6.85.94,13.75.58,20.64-.04.81-.09,1.62-.15,2.43-1.97,27.62-12.93,54.8-33.07,76.83Z"/>
      </g>
    </g>
  </g>
</svg>