<?xml version="1.0" encoding="UTF-8"?>
<svg id="Nachbau" xmlns="http://www.w3.org/2000/svg" viewBox="0 0 800 800">
  <defs>
    <style>
      .cls-1 {
        fill: #206289;
      }

      .cls-1, .cls-2, .cls-3 {
        stroke-width: 0px;
      }

      .cls-2 {
        fill: #73bbe7;
      }

      .cls-3 {
        fill: #b9ddf3;
      }
    </style>
  </defs>
  <g id="G-0034_BUW_Icon_Repositorium">
    <g id="Repositorium_griff" data-name="Repositorium + griff">
      <g id="Repositorium">
        <path class="cls-1" d="M628.45,327.81v.05c-.07,2.46-5.24,4.82-14.64,7v-14.09c9.46,2.19,14.64,4.56,14.64,7.04Z"/>
        <path class="cls-2" d="M613.81,281.85v53.01c-32.61,7.54-116.04,12.9-213.82,12.9s-181.23-5.36-213.81-12.9v-53.01c32.6,7.54,116.03,12.9,213.81,12.9s181.22-5.36,213.82-12.9Z"/>
        <path class="cls-1" d="M628.45,509.34v.05c-.07,2.46-5.24,4.82-14.64,6.99v-14.08c9.46,2.19,14.64,4.56,14.64,7.04Z"/>
        <path class="cls-2" d="M613.81,463.38v53c-32.61,7.55-116.04,12.91-213.82,12.91s-181.23-5.36-213.81-12.91v-53c32.6,7.54,116.03,12.9,213.81,12.9s181.22-5.36,213.82-12.9Z"/>
        <path class="cls-1" d="M186.18,502.3v14.08c-9.4-2.17-14.57-4.53-14.64-6.99v-.05c0-2.48,5.18-4.85,14.64-7.04Z"/>
        <path class="cls-3" d="M628.45,509.39c-.07,2.46-5.24,4.82-14.64,6.99-32.61,7.55-116.04,12.91-213.82,12.91s-181.23-5.36-213.81-12.91c-9.4-2.17-14.57-4.53-14.64-6.99h-.01v128.47c0,11.02,98.17,30.17,224.34,30.17s232.59-19.15,232.59-30.17v-128.47h-.01ZM457.36,606.07h-114.73v-13.18h114.73v13.18Z"/>
        <rect class="cls-2" x="342.63" y="592.89" width="114.73" height="13.18"/>
        <path class="cls-3" d="M628.45,146.33c-.31,11-102.48,19.9-228.46,19.9s-228.14-8.9-228.45-19.9h-.01v128.47c0,2.48,5.18,4.85,14.65,7.05,32.6,7.54,116.03,12.9,213.81,12.9s181.22-5.36,213.82-12.9c9.47-2.2,14.65-4.57,14.65-7.05v-128.47h-.01ZM457.01,238.06h-114.73v-13.18h114.73v13.18Z"/>
        <rect class="cls-2" x="342.28" y="224.88" width="114.73" height="13.18"/>
        <path class="cls-1" d="M186.18,320.77v14.09c-9.4-2.18-14.57-4.54-14.64-7v-.05c0-2.48,5.18-4.85,14.64-7.04Z"/>
        <path class="cls-3" d="M628.45,327.86c-.07,2.46-5.24,4.82-14.64,7-32.61,7.54-116.04,12.9-213.82,12.9s-181.23-5.36-213.81-12.9c-9.4-2.18-14.57-4.54-14.64-7h-.01v128.47c0,2.48,5.18,4.85,14.65,7.05,32.6,7.54,116.03,12.9,213.81,12.9s181.22-5.36,213.82-12.9c9.47-2.2,14.65-4.57,14.65-7.05v-128.47h-.01ZM457.36,419.21h-114.73v-13.18h114.73v13.18Z"/>
        <path class="cls-1" d="M628.45,146.28v.05c-.31,11-102.48,19.9-228.46,19.9s-228.14-8.9-228.45-19.9v-.05c0-11.02,102.48-14.3,228.65-14.3s228.26,3.28,228.26,14.3Z"/>
      </g>
      <g id="Griffe">
        <rect class="cls-2" x="342.63" y="406.03" width="114.73" height="13.18"/>
      </g>
    </g>
  </g>
</svg>