<?xml version="1.0" encoding="UTF-8"?>
<svg id="Nachbau" xmlns="http://www.w3.org/2000/svg" viewBox="0 0 800 800">
  <defs>
    <style>
      .cls-1 {
        fill: #308fc9;
      }

      .cls-1, .cls-2, .cls-3, .cls-4, .cls-5, .cls-6 {
        stroke-width: 0px;
      }

      .cls-2 {
        fill: #dddddc;
      }

      .cls-3 {
        fill: #64abd6;
      }

      .cls-4 {
        fill: #8fb0c4;
      }

      .cls-5 {
        fill: #73bbe7;
      }

      .cls-6 {
        fill: #b9ddf3;
      }
    </style>
  </defs>
  <g id="G-0154_BUW_Icon_Ethikkommission">
    <g id="Waage">
      <g id="Schale_links" data-name="Schale links">
        <path class="cls-4" d="M342.8,218.25c-51.93-2.06-103.86-4.13-155.79-6.19l41.12,178.21h-10.26l-36.09-156.4-36.08,156.4h-10.27l41.25-178.75v-21.63c55.37-2.2,110.75-4.4,166.12-6.6v34.96Z"/>
        <path class="cls-5" d="M278.09,424.81c-5.84,17.75-11.68,35.49-17.52,53.24H106.16c-5.84-17.75-11.68-35.49-17.52-53.24h189.45Z"/>
        <rect class="cls-6" x="88.64" y="390.27" width="189.45" height="34.54"/>
      </g>
      <g id="Gestell">
        <rect class="cls-2" x="371.58" y="144.27" width="55.51" height="26.59"/>
        <rect class="cls-3" x="363.89" y="100.29" width="70.89" height="43.97"/>
        <path class="cls-1" d="M514.65,652.06v46.96h-229.31v-46.96h16.39c16.57-11.55,33.14-23.08,49.7-34.61,6.47-127.91,12.95-255.82,19.42-383.73h-28.05v-62.86h114.39v62.86h-29.37c6.47,127.91,12.94,255.82,19.41,383.73,16.99,11.53,33.98,23.06,50.97,34.61h16.45Z"/>
      </g>
      <g id="Schale_rechts" data-name="Schale rechts">
        <path class="cls-4" d="M666.73,390.27h-10.26l-36.25-157.1-36.26,157.1h-10.25l41.34-179.16c-52.62,2.09-105.24,4.19-157.86,6.28v-35.12c56.05,2.23,112.09,4.45,168.14,6.68v21.75h-.04l41.44,179.57Z"/>
        <path class="cls-5" d="M714.95,424.81c-5.84,17.75-11.69,35.49-17.53,53.24h-154.4c-5.85-17.75-11.69-35.49-17.53-53.24h189.46Z"/>
        <rect class="cls-6" x="525.49" y="390.27" width="189.46" height="34.54"/>
      </g>
    </g>
  </g>
</svg>