<?xml version="1.0" encoding="UTF-8"?>
<svg id="Nachbau" xmlns="http://www.w3.org/2000/svg" viewBox="0 0 800 800">
  <defs>
    <style>
      .cls-1 {
        fill: #206289;
      }

      .cls-1, .cls-2, .cls-3, .cls-4 {
        stroke-width: 0px;
      }

      .cls-2 {
        fill: #73bbe7;
      }

      .cls-3 {
        fill: #236289;
      }

      .cls-4 {
        fill: #b9ddf3;
      }
    </style>
  </defs>
  <g id="G-0163_BUW_Icon_Standard">
    <g id="ISO">
      <g id="Blatt">
        <polygon class="cls-4" points="611.06 207.7 611.06 699.36 188.94 699.36 188.94 100.64 503.99 100.64 611.06 207.7"/>
        <polygon class="cls-2" points="611.06 207.7 503.99 207.7 503.99 100.64 611.06 207.7"/>
      </g>
      <g id="Textlinien_Rahmen" data-name="Textlinien + Rahmen">
        <g id="Textlinien">
          <rect class="cls-3" x="219.36" y="181.87" width="284.63" height="5"/>
          <rect class="cls-3" x="219.36" y="238.65" width="361.05" height="5"/>
          <rect class="cls-3" x="219.36" y="291.06" width="361.05" height="5"/>
          <rect class="cls-3" x="219.35" y="505.06" width="361.05" height="5"/>
          <rect class="cls-3" x="219.35" y="450.47" width="361.05" height="5"/>
          <rect class="cls-3" x="219.35" y="559.66" width="360.81" height="5"/>
          <rect class="cls-3" x="219.36" y="613.13" width="361.05" height="5"/>
        </g>
        <g id="Rahmen">
          <path class="cls-3" d="M582.66,455.73H216.86v-164.67h365.8v164.67ZM221.86,450.73h355.8v-154.67H221.86v154.67Z"/>
        </g>
      </g>
      <g>
        <path class="cls-1" d="M272.63,420.72l19.49-93.06h19.11l-19.42,93.06h-19.17Z"/>
        <path class="cls-1" d="M332,390.57l18.22-.95c.25,5.8,1.25,9.71,2.98,11.74,2.79,3.3,7.96,4.95,15.49,4.95,6.26,0,10.79-1.12,13.58-3.36,2.79-2.24,4.19-4.95,4.19-8.12,0-2.75-1.14-5.08-3.43-6.98-1.61-1.4-6.02-3.66-13.23-6.79-7.22-3.13-12.48-5.74-15.81-7.84s-5.93-4.81-7.84-8.16c-1.9-3.34-2.86-7.26-2.86-11.74,0-7.83,2.83-14.32,8.51-19.49,5.67-5.16,13.88-7.74,24.63-7.74s19.37,2.56,25.36,7.68c5.99,5.12,9.28,11.93,9.87,20.44l-18.34.83c-.47-4.44-2.07-7.85-4.82-10.22-2.75-2.37-6.81-3.55-12.19-3.55s-9.07.93-11.33,2.79c-2.26,1.86-3.4,4.21-3.4,7.05,0,2.67,1.04,4.87,3.11,6.6,2.07,1.78,6.67,4.21,13.77,7.3,10.71,4.61,17.52,8.36,20.44,11.24,4.36,4.23,6.54,9.67,6.54,16.31,0,8.21-3.25,15.22-9.74,21.04-6.5,5.82-15.54,8.73-27.14,8.73-8,0-14.93-1.34-20.79-4.03s-10-6.42-12.41-11.2c-2.41-4.78-3.53-10.28-3.36-16.5Z"/>
        <path class="cls-1" d="M441.32,384.22c0-5.5.83-11.3,2.48-17.39,2.16-8.17,5.45-15.26,9.87-21.26,4.42-6.01,10-10.76,16.73-14.25s14.39-5.24,22.98-5.24c11.51,0,20.81,3.58,27.9,10.73,7.09,7.15,10.63,16.63,10.63,28.44,0,9.82-2.31,19.32-6.92,28.5-4.61,9.18-10.88,16.25-18.79,21.2-7.91,4.95-16.86,7.43-26.85,7.43-8.68,0-15.95-1.97-21.84-5.9-5.88-3.94-10.05-8.81-12.5-14.63-2.46-5.82-3.68-11.69-3.68-17.61ZM460.23,383.84c0,6.39,1.95,11.74,5.84,16.06,3.89,4.32,9.01,6.47,15.36,6.47,5.16,0,10.12-1.7,14.89-5.11,4.76-3.41,8.7-8.57,11.81-15.49,3.11-6.92,4.67-13.66,4.67-20.22,0-7.32-1.97-13.07-5.9-17.23-3.94-4.17-8.95-6.25-15.04-6.25-9.35,0-16.96,4.36-22.82,13.08-5.86,8.72-8.79,18.28-8.79,28.69Z"/>
      </g>
    </g>
  </g>
</svg>