<?xml version="1.0" encoding="UTF-8"?>
<svg id="Musthave" xmlns="http://www.w3.org/2000/svg" viewBox="0 0 800 800">
  <defs>
    <style>
      .cls-1 {
        fill: #308fc9;
      }

      .cls-1, .cls-2, .cls-3, .cls-4, .cls-5 {
        stroke-width: 0px;
      }

      .cls-2 {
        fill: #206289;
      }

      .cls-3 {
        fill: #dddddc;
      }

      .cls-4 {
        fill: #73bbe7;
      }

      .cls-5 {
        fill: #b9ddf3;
      }
    </style>
  </defs>
  <g id="G-0151_BUW_Icon_Repositorium_Blau">
    <g id="Blau">
      <g id="Haus">
        <g id="Haus_rechts" data-name="Haus rechts">
          <path class="cls-3" d="M325.15,454.9v26.02h-26.85v-43.09h16.37v11.48c0,1.96,3.68,3.84,10.48,5.59Z"/>
          <rect class="cls-3" x="299.17" y="522.67" width="15.5" height="43.1"/>
        </g>
        <g id="Haus_links" data-name="Haus links">
          <g>
            <path class="cls-1" d="M325.15,454.9v26.02h-26.85v-43.09h16.37v-35.81h-79.71v-92.03H85.33v288.32h76.99v.05h152.35v-32.59h-15.5v-43.1h15.5v-26.91h.01v-.05c0-2.17,4.53-4.25,12.81-6.16v-34.08c-.82-.18-1.6-.38-2.34-.57ZM119,342.76h26.85v43.1h-26.85v-43.1ZM119,436.48h26.85v43.1h-26.85v-43.1ZM198.26,598.21h-76.23v-61.45c0-16.05,13.02-29.07,29.08-29.07h18.07c16.06,0,29.08,13.02,29.08,29.07v61.45ZM201.29,480.25h-26.85v-43.1h26.85v43.1ZM201.29,386.53h-26.85v-43.09h26.85v43.09ZM239.84,437.49h26.85v43.1h-26.85v-43.1ZM267.56,565.43h-26.86v-43.09h26.86v43.09Z"/>
            <rect class="cls-3" x="240.7" y="522.34" width="26.86" height="43.09"/>
            <rect class="cls-3" x="239.84" y="437.49" width="26.85" height="43.1"/>
          </g>
          <g>
            <g>
              <rect class="cls-3" x="119" y="342.76" width="26.85" height="43.1"/>
              <rect class="cls-3" x="174.44" y="343.44" width="26.85" height="43.09"/>
              <rect class="cls-3" x="119" y="436.48" width="26.85" height="43.1"/>
              <rect class="cls-3" x="174.44" y="437.15" width="26.85" height="43.1"/>
            </g>
            <path class="cls-3" d="M198.26,536.76v61.45h-76.23v-61.45c0-16.05,13.02-29.07,29.08-29.07h18.07c16.06,0,29.08,13.02,29.08,29.07Z"/>
          </g>
        </g>
      </g>
      <g id="Repositorium">
        <g>
          <path class="cls-2" d="M327.49,330.64v12.33c-8.23-1.9-12.75-3.96-12.81-6.12v-.05c0-2.17,4.53-4.25,12.81-6.16Z"/>
          <path class="cls-2" d="M714.66,336.8v.05c-.06,2.16-4.58,4.22-12.81,6.12v-12.33c8.28,1.91,12.81,3.99,12.81,6.16Z"/>
        </g>
        <g>
          <path class="cls-2" d="M327.49,489.55v12.33c-8.23-1.91-12.75-3.97-12.81-6.12v-.05c0-2.17,4.53-4.25,12.81-6.16Z"/>
          <path class="cls-2" d="M714.66,495.71v.05c-.06,2.15-4.58,4.21-12.81,6.12v-12.33c8.28,1.91,12.81,3.99,12.81,6.16Z"/>
        </g>
        <g>
          <path class="cls-4" d="M701.85,296.57v46.4c-28.53,6.61-101.57,11.3-187.18,11.3s-158.66-4.69-187.18-11.3v-46.4c28.54,6.6,101.58,11.29,187.18,11.29s158.64-4.69,187.18-11.29Z"/>
          <path class="cls-4" d="M701.85,455.47v46.41c-28.53,6.61-101.57,11.3-187.18,11.3-37.09,0-71.82-.88-101.6-2.42-38.95-2.01-69.42-5.14-85.58-8.88v-46.41c6.54,1.52,15.42,2.93,26.25,4.21,7.95.94,16.95,1.81,26.85,2.59,9.96.79,20.84,1.49,32.48,2.08,29.78,1.54,64.51,2.42,101.6,2.42,85.6,0,158.64-4.69,187.18-11.3Z"/>
        </g>
        <path class="cls-5" d="M714.67,495.76v112.46c0,9.65-93.16,26.42-203.62,26.42s-196.38-16.77-196.38-26.42v-112.46h.01c.06,2.15,4.58,4.21,12.81,6.12,16.16,3.74,46.63,6.87,85.58,8.88,29.78,1.54,64.51,2.42,101.6,2.42,85.61,0,158.65-4.69,187.18-11.3,8.23-1.91,12.75-3.97,12.81-6.12h.01Z"/>
        <path class="cls-5" d="M714.67,177.94v112.46c0,2.17-4.53,4.25-12.82,6.17-28.54,6.6-101.58,11.29-187.18,11.29s-158.64-4.69-187.18-11.29c-8.29-1.92-12.82-4-12.82-6.17v-112.46h.01c.27,9.63,89.7,17.42,199.99,17.42s199.72-7.79,199.99-17.42h.01Z"/>
        <path class="cls-5" d="M714.67,336.85v112.46c0,2.17-4.53,4.25-12.82,6.16-28.54,6.61-101.58,11.3-187.18,11.3-37.09,0-71.82-.88-101.6-2.42-11.64-.59-22.52-1.29-32.48-2.08-9.9-.78-18.9-1.65-26.85-2.59-10.83-1.28-19.71-2.69-26.25-4.21-.82-.18-1.6-.38-2.34-.57-6.8-1.75-10.48-3.63-10.48-5.59v-112.46h.01c.06,2.16,4.58,4.22,12.81,6.12,28.52,6.61,101.57,11.3,187.18,11.3s158.65-4.69,187.18-11.3c8.23-1.9,12.75-3.96,12.81-6.12h.01Z"/>
        <path class="cls-2" d="M714.66,177.89v.05c-.27,9.63-89.71,17.42-199.99,17.42s-199.72-7.79-199.99-17.42v-.05c0-9.65,89.71-12.52,200.16-12.52s199.82,2.87,199.82,12.52Z"/>
      </g>
    </g>
  </g>
</svg>