<?xml version="1.0" encoding="UTF-8"?>
<svg id="Musthave" xmlns="http://www.w3.org/2000/svg" viewBox="0 0 800 800">
  <defs>
    <style>
      .cls-1 {
        fill: #206289;
      }

      .cls-1, .cls-2, .cls-3 {
        stroke-width: 0px;
      }

      .cls-2 {
        fill: #64abd6;
      }

      .cls-3 {
        fill: #dcdddc;
      }
    </style>
  </defs>
  <g id="G-0124_BUW_Icon_Float">
    <g id="Float">
      <g id="Hintergrund">
        <polygon class="cls-3" points="648.67 530.42 105.92 530.42 151.33 292.94 694.08 292.94 648.67 530.42"/>
      </g>
      <g>
        <path class="cls-1" d="M219.57,453.22h-56.35l4.88-23.44,77.44-90.53h24.22l-18.85,90.14h17.38l-4.98,23.83h-17.38l-6.15,29.2h-26.37l6.15-29.2ZM224.55,429.39l9.28-44.63-37.79,44.63h28.52Z"/>
        <path class="cls-1" d="M285.69,367.08l5.37-25.88h94.43l-4.2,19.92c-5.99,4.82-12.6,12.06-19.82,21.73s-13.92,20.48-20.07,32.42c-6.15,11.95-11.18,23.29-15.09,34.03-5.4,14.84-8.76,25.88-10.06,33.11h-26.66c1.17-7.16,3.94-16.99,8.3-29.49,5.34-15.36,12.01-30.21,20.02-44.53,8.01-14.32,17.68-28.09,29-41.31h-61.23Z"/>
        <path class="cls-1" d="M455.51,400.19l5.27-25c24.15-10.55,42.84-22.82,56.05-36.82h17.09l-30.18,144.04h-28.22l20.8-99.22c-5.86,3.78-12.61,7.23-20.26,10.35-7.65,3.12-14.5,5.34-20.56,6.64Z"/>
        <path class="cls-1" d="M554.74,400.19l5.27-25c24.15-10.55,42.84-22.82,56.05-36.82h17.09l-30.18,144.04h-28.22l20.8-99.22c-5.86,3.78-12.61,7.23-20.26,10.35-7.65,3.12-14.5,5.34-20.56,6.64Z"/>
      </g>
      <g id="Punkt">
        <circle class="cls-2" cx="400" cy="482.42" r="22.78"/>
      </g>
    </g>
  </g>
</svg>