<?xml version="1.0" encoding="UTF-8"?>
<svg id="Musthave" xmlns="http://www.w3.org/2000/svg" viewBox="0 0 800 800">
  <defs>
    <style>
      .cls-1 {
        fill: #206289;
      }

      .cls-1, .cls-2, .cls-3, .cls-4, .cls-5 {
        stroke-width: 0px;
      }

      .cls-2 {
        fill: #dddddc;
      }

      .cls-3 {
        fill: #73bbe7;
      }

      .cls-4 {
        fill: #b9ddf3;
      }

      .cls-5 {
        fill: #e4c769;
      }
    </style>
  </defs>
  <g id="G-0149_BUW_Icon_Repositorium_Gold">
    <g id="Krone">
      <g id="Repositorium">
        <path class="cls-1" d="M212.83,363.72v12.33c-8.23-1.9-12.76-3.97-12.82-6.12v-.05c0-2.17,4.53-4.25,12.82-6.16Z"/>
        <path class="cls-1" d="M599.99,369.88v.05c-.06,2.15-4.58,4.21-12.81,6.12v-12.33c8.28,1.91,12.81,3.99,12.81,6.16Z"/>
        <g>
          <path class="cls-1" d="M212.83,522.63v12.33c-8.23-1.9-12.76-3.96-12.82-6.12v-.05c0-2.17,4.53-4.25,12.82-6.16Z"/>
          <path class="cls-1" d="M599.99,528.79v.05c-.06,2.16-4.58,4.22-12.81,6.12v-12.33c8.28,1.91,12.81,3.99,12.81,6.16Z"/>
        </g>
        <g>
          <path class="cls-3" d="M587.18,488.56v46.4c-28.53,6.61-101.57,11.3-187.18,11.3s-158.64-4.69-187.17-11.3v-46.4c28.54,6.6,101.58,11.29,187.17,11.29s158.64-4.69,187.18-11.29Z"/>
          <path class="cls-3" d="M587.18,329.64v46.41c-28.53,6.61-101.57,11.3-187.18,11.3s-158.64-4.69-187.17-11.3v-46.41c28.54,6.6,101.58,11.3,187.17,11.3s158.64-4.7,187.18-11.3Z"/>
        </g>
        <path class="cls-4" d="M600,528.84v112.46c0,9.65-93.16,26.42-203.61,26.42s-196.39-16.77-196.39-26.42v-112.46h.01c.06,2.16,4.59,4.22,12.82,6.12,28.53,6.61,101.57,11.3,187.17,11.3s158.65-4.69,187.18-11.3c8.23-1.9,12.75-3.96,12.81-6.12h.01Z"/>
        <path class="cls-4" d="M600,211.01v112.47c0,2.17-4.53,4.25-12.82,6.16-28.54,6.6-101.58,11.3-187.18,11.3s-158.63-4.7-187.17-11.3c-8.29-1.91-12.83-3.99-12.83-6.16v-41.79l192.97-53.26c2.33.01,4.68.01,7.03.01,110.28,0,199.72-7.8,199.99-17.43h.01Z"/>
        <path class="cls-4" d="M600,369.93v112.46c0,2.17-4.53,4.25-12.82,6.17-28.54,6.6-101.58,11.29-187.18,11.29s-158.63-4.69-187.17-11.29c-8.29-1.92-12.83-4-12.83-6.17v-112.46h.01c.06,2.15,4.59,4.22,12.82,6.12,28.53,6.61,101.57,11.3,187.17,11.3s158.65-4.69,187.18-11.3c8.23-1.91,12.75-3.97,12.81-6.12h.01Z"/>
        <path class="cls-1" d="M599.99,210.97v.04c-.27,9.63-89.71,17.43-199.99,17.43-2.35,0-4.7,0-7.03-.01l17.31-4.78-3.49-12.64-3.46-12.56c108.99.06,196.66,2.96,196.66,12.52Z"/>
      </g>
      <g id="Krone-2" data-name="Krone">
        <path class="cls-5" d="M406.79,211.01l-3.46-12.56-37.14-134.55-38.66,72.12-70.16-42.09-38.65,72.12-70.17-42.08,44.09,159.75,7.36-2.03,192.97-53.26,17.31-4.78-3.49-12.64ZM238.14,221.23c-1.02.89-2.25,1.57-3.65,1.96-4,1.11-8.11-.58-10.26-3.88-.52-.79-.93-1.67-1.19-2.62-.54-1.95-.42-3.92.24-5.68.99-2.72,3.25-4.94,6.26-5.77,4.71-1.3,9.57,1.26,11.22,5.77.08.24.16.48.23.73.98,3.56-.24,7.21-2.85,9.49ZM295.72,199.65c-.18,3.9-2.84,7.42-6.82,8.52-4.96,1.37-10.09-1.54-11.45-6.5-.13-.47-.22-.94-.28-1.41-.52-4.48,2.29-8.8,6.77-10.04,4.96-1.37,10.09,1.54,11.46,6.5.27.98.37,1.97.32,2.93ZM343.22,193.18c-4.96,1.37-10.08-1.54-11.45-6.5-1.37-4.96,1.54-10.08,6.5-11.45,4.95-1.37,10.08,1.54,11.45,6.5,1.37,4.95-1.54,10.08-6.5,11.45Z"/>
        <path class="cls-2" d="M238.14,221.23c-1.02.89-2.25,1.57-3.65,1.96-4,1.11-8.11-.58-10.26-3.88-.52-.79-.93-1.67-1.19-2.62-.54-1.95-.42-3.92.24-5.68.99-2.72,3.25-4.94,6.26-5.77,4.71-1.3,9.57,1.26,11.22,5.77.08.24.16.48.23.73.98,3.56-.24,7.21-2.85,9.49Z"/>
        <path class="cls-2" d="M343.22,193.18c-4.96,1.37-10.08-1.54-11.45-6.5-1.37-4.96,1.54-10.08,6.5-11.45,4.95-1.37,10.08,1.54,11.45,6.5,1.37,4.95-1.54,10.08-6.5,11.45Z"/>
        <path class="cls-2" d="M295.72,199.65c-.18,3.9-2.84,7.42-6.82,8.52-4.96,1.37-10.09-1.54-11.45-6.5-.13-.47-.22-.94-.28-1.41-.52-4.48,2.29-8.8,6.77-10.04,4.96-1.37,10.09,1.54,11.46,6.5.27.98.37,1.97.32,2.93Z"/>
      </g>
    </g>
  </g>
</svg>