<?xml version="1.0" encoding="UTF-8"?>
<svg id="Musthave" xmlns="http://www.w3.org/2000/svg" viewBox="0 0 800 800">
  <defs>
    <style>
      .cls-1 {
        fill: #206289;
      }

      .cls-1, .cls-2, .cls-3, .cls-4 {
        stroke-width: 0px;
      }

      .cls-2 {
        fill: #dddddc;
      }

      .cls-3 {
        fill: #73bbe7;
      }

      .cls-4 {
        fill: #b9ddf3;
      }
    </style>
  </defs>
  <g id="G-0101_BUW_Icon_Boolean">
    <g id="Boolean">
      <g id="Rechteck_unten" data-name="Rechteck unten">
        <path class="cls-2" d="M500.72,516.15c0,26.19,8.74,50.34,23.47,69.69H67.76v-139.39h456.43c-14.73,19.35-23.47,43.5-23.47,69.7Z"/>
      </g>
      <g id="Rechteck_oben" data-name="Rechteck oben">
        <path class="cls-2" d="M732.24,214.17v139.39h-456.05c14.73-19.35,23.47-43.51,23.47-69.7s-8.74-50.34-23.47-69.69h456.05Z"/>
      </g>
      <g id="Haken">
        <path class="cls-3" d="M276.19,214.17c-21.03-27.69-54.32-45.56-91.78-45.56-63.65,0-115.25,51.6-115.25,115.25s51.6,115.25,115.25,115.25c37.46,0,70.74-17.87,91.78-45.55,14.73-19.35,23.47-43.51,23.47-69.7s-8.74-50.34-23.47-69.69ZM172.14,330.42l-16.65,16.65-55.91-55.91,16.65-16.65,39.26,39.25,83.43-83.45,5.66-5.66,16.66,16.67-22.32,22.32-66.78,66.78Z"/>
        <polygon class="cls-2" points="261.24 241.32 238.92 263.64 172.14 330.42 155.49 347.07 99.58 291.16 116.23 274.51 155.49 313.76 238.92 230.31 244.58 224.65 261.24 241.32"/>
      </g>
      <g id="Kreuz">
        <path class="cls-4" d="M615.97,400.9c-37.46,0-70.74,17.87-91.78,45.55-14.73,19.35-23.47,43.5-23.47,69.7s8.74,50.34,23.47,69.69c21.03,27.69,54.32,45.56,91.78,45.56,63.65,0,115.25-51.6,115.25-115.25s-51.6-115.25-115.25-115.25ZM687.12,572.95l-16.62,16.61-55.89-55.89-53.17,53.17-16.62-16.62,53.17-53.17-36.91-36.91-16.26-16.26,16.62-16.62,53.17,53.17,55.89-55.89,16.62,16.62-55.89,55.89,55.89,55.9Z"/>
        <polygon class="cls-1" points="631.23 517.05 687.12 572.95 670.5 589.56 614.61 533.67 561.44 586.84 544.82 570.22 597.99 517.05 561.08 480.14 544.82 463.88 561.44 447.26 614.61 500.43 670.5 444.54 687.12 461.16 631.23 517.05"/>
      </g>
    </g>
  </g>
</svg>