<?xml version="1.0" encoding="UTF-8"?>
<svg id="Musthave" xmlns="http://www.w3.org/2000/svg" viewBox="0 0 800 800">
  <defs>
    <style>
      .cls-1 {
        fill: #308fc9;
      }

      .cls-1, .cls-2, .cls-3, .cls-4, .cls-5, .cls-6 {
        stroke-width: 0px;
      }

      .cls-2 {
        fill: #206289;
      }

      .cls-3 {
        fill: #dddddc;
      }

      .cls-4 {
        fill: #73bbe7;
      }

      .cls-5 {
        fill: #b9ddf3;
      }

      .cls-6 {
        fill: #dcdddc;
      }
    </style>
  </defs>
  <g id="G-0132_BUW_Icon_Kostenefffizienz">
    <g id="Kosteneffizienz">
      <g id="Uhr">
        <path class="cls-5" d="M474.81,538.78l.11.19c.08-.05.15-.09.23-.14-.11-.02-.23-.04-.34-.05ZM473.2,538.63c.08,0,.16,0,.24,0-.23-.02-.46-.04-.69-.05.15.01.3.02.45.04ZM466.63,538.66c.17,0,.35-.03.52-.04-.08,0-.16,0-.24.01-.1,0-.19.02-.28.03ZM465.45,538.79c.39-.05.79-.09,1.18-.13-.23.02-.46.05-.69.07-.16.02-.33.04-.49.06ZM455.5,541.33c.38-.15.77-.3,1.16-.44.09-.03.18-.06.26-.09-.09.02-.17.05-.26.08-.39.15-.77.29-1.16.45ZM455.28,541.43s.02-.02.03-.02c-.04.02-.09.03-.14.05.04-.01.07-.02.11-.03ZM448.3,545.1c.22-.15.45-.3.68-.44l-.57.36s-.08.05-.11.08ZM444.09,548.32c.17-.15.34-.3.51-.44-.04.02-.08.06-.12.09-.13.12-.26.23-.39.35ZM462.08,516.74c-.58.35-1.16.69-1.75,1.03l1.94-.7-.19-.33ZM597.76,319.6c-.56-43.4-12.11-84.16-32.01-119.61-1.06-1.9-2.15-3.78-3.27-5.65-21.44-35.97-51.6-66.13-87.56-87.57-1.87-1.11-3.76-2.21-5.67-3.27-35.44-19.9-76.19-31.45-119.6-32.01-1.09,0-2.18-.02-3.27-.02s-2.19.01-3.27.02c-43.41.56-84.16,12.11-119.61,32.01-1.9,1.06-3.79,2.16-5.66,3.27-35.97,21.44-66.13,51.6-87.57,87.57-1.11,1.87-2.21,3.75-3.27,5.65-19.9,35.45-31.45,76.21-32.01,119.61,0,1.09-.02,2.18-.02,3.27s.01,2.18.02,3.27c.56,43.41,12.11,84.17,32.01,119.61,1.06,1.91,2.16,3.79,3.27,5.66,21.44,35.96,51.6,66.12,87.57,87.56,1.87,1.12,3.76,2.21,5.66,3.28,22.63,12.7,47.43,22,73.69,27.21h0l44.95-16.34.96-.35,4.65-1.68,1.89-.69,175.1-63.59,17.51-6.36h.01c7.39-9.17,14.15-18.87,20.21-29.04,1.12-1.87,2.21-3.75,3.27-5.66,19.9-35.44,31.45-76.2,32.01-119.61.01-1.09.02-2.18.02-3.27s0-2.18-.02-3.27ZM346.38,332.65c-1.86,0-3.59-.52-5.07-1.42l-149.62,86.39-4.1-7.11,149.13-86.1c-.08-.5-.12-1.02-.12-1.54,0-2.89,1.26-5.49,3.25-7.28v-101.38h13.05v101.38c2,1.79,3.25,4.39,3.25,7.28,0,5.4-4.37,9.78-9.77,9.78Z"/>
        <g>
          <path class="cls-2" d="M349.64,71.5v48.51c-1.09-.03-2.18-.03-3.27-.03s-2.18,0-3.27.03v-48.51c1.09-.01,2.18-.02,3.27-.02s2.18,0,3.27.02Z"/>
          <path class="cls-2" d="M143.47,322.87c0,1.09,0,2.18.03,3.27h-48.51c-.01-1.09-.02-2.18-.02-3.27s0-2.18.02-3.27h48.51c-.03,1.09-.03,2.18-.03,3.27Z"/>
          <path class="cls-2" d="M349.65,525.75v24.65l-1.89.69-4.65,1.68v-27.02c1.08.02,2.17.03,3.27.03s2.18,0,3.27-.03Z"/>
          <path class="cls-2" d="M597.78,322.87c0,1.09,0,2.18-.02,3.27h-48.51c.03-1.09.03-2.18.03-3.27s0-2.18-.03-3.27h48.51c.01,1.09.02,2.18.02,3.27Z"/>
          <path class="cls-2" d="M152.5,438.58l-22.23,12.83c-1.12-1.87-2.21-3.75-3.28-5.66l22.24-12.84c1.06,1.91,2.15,3.79,3.27,5.66Z"/>
          <path class="cls-2" d="M565.75,200l-22.24,12.84c-1.06-1.91-2.15-3.79-3.27-5.66l22.23-12.83c1.12,1.87,2.21,3.75,3.28,5.66Z"/>
          <path class="cls-2" d="M152.5,207.17c-1.12,1.87-2.21,3.75-3.27,5.66l-22.24-12.84c1.07-1.9,2.16-3.79,3.28-5.66l22.23,12.83Z"/>
          <path class="cls-2" d="M565.75,445.76c-1.07,1.9-2.16,3.79-3.28,5.66l-22.23-12.83c1.12-1.87,2.21-3.75,3.27-5.66l22.24,12.84Z"/>
          <path class="cls-2" d="M236.33,520.02l-12.83,22.23c-1.9-1.07-3.79-2.16-5.66-3.28l12.84-22.23c1.86,1.12,3.75,2.21,5.66,3.28Z"/>
          <path class="cls-2" d="M474.91,106.78l-12.84,22.23c-1.86-1.12-3.75-2.21-5.66-3.28l12.83-22.23c1.9,1.07,3.79,2.16,5.66,3.28Z"/>
          <path class="cls-2" d="M236.33,125.73c-1.9,1.07-3.79,2.15-5.66,3.28l-12.84-22.23c1.87-1.12,3.76-2.21,5.66-3.28l12.83,22.23Z"/>
          <g>
            <path class="cls-2" d="M462.27,517.07l-1.94.7c.59-.34,1.17-.68,1.75-1.03l.19.33Z"/>
            <path class="cls-2" d="M473.44,538.64c-.08,0-.16,0-.24,0-.15-.02-.3-.03-.45-.04.23.01.46.03.69.05Z"/>
          </g>
        </g>
        <g id="Zeiger">
          <path class="cls-4" d="M356.15,322.87c0,5.4-4.37,9.78-9.77,9.78-1.86,0-3.59-.52-5.07-1.42l-149.62,86.39-4.1-7.11,149.13-86.1c-.08-.5-.12-1.02-.12-1.54,0-2.89,1.26-5.49,3.25-7.28v-101.38h13.05v101.38c2,1.79,3.25,4.39,3.25,7.28Z"/>
        </g>
      </g>
      <g id="Schein_oben" data-name="Schein oben">
        <path class="cls-6" d="M366.25,615.77c-.03-.08-.06-.15-.09-.22-1.45-3.62-5.51-5.45-9.2-4.12-3.76,1.37-5.7,5.52-4.33,9.28,1.36,3.76,5.52,5.71,9.28,4.34,2.02-.73,3.51-2.27,4.25-4.11.64-1.6.72-3.43.09-5.17ZM420.23,583.4l3.02,8.33h0s-3.03-8.33-3.03-8.33ZM446.74,558.21s-.08.11-.12.16c.25-.3.51-.6.77-.89-.22.24-.43.49-.65.73ZM447.59,557.25s-.08.08-.11.13c.04-.04.08-.09.13-.14,0,0,0,0-.02.01ZM453.07,552.56c-.17.12-.35.24-.52.36.3-.21.6-.41.91-.61-.13.08-.26.16-.39.25ZM454.61,551.58c-.39.23-.78.47-1.15.73.59-.38,1.19-.75,1.82-1.1-.23.12-.45.25-.67.37ZM455.17,541.46s.07-.02.11-.03c.01,0,.02-.02.03-.02-.04.02-.09.03-.14.05ZM457.38,550.15c-.31.14-.62.29-.93.45.35-.17.7-.34,1.06-.5-.04,0-.09.03-.13.05ZM459,549.46c-.07.03-.14.06-.21.09.29-.12.59-.23.89-.34-.23.08-.45.17-.68.25ZM462.16,548.42c-.07.02-.14.04-.2.06.11-.03.23-.06.34-.09-.05.01-.09.02-.14.03ZM462.64,548.3h-.02s-.02,0-.03.01c-.09.03-.19.05-.29.08.42-.11.84-.21,1.26-.31-.3.07-.61.14-.92.22ZM464.48,547.89l-.87.18c.37-.08.73-.15,1.1-.22-.08,0-.15.03-.23.04ZM442.55,591.39h0s24.16-8.77,24.16-8.77l-24.16,8.77ZM471.71,547.39h-.16c.33.02.65.04.97.06-.26-.02-.53-.04-.81-.06ZM472.58,547.45h-.06s.05,0,.08.01c0-.01-.02-.01-.02-.01ZM472.75,538.59c.15.01.3.02.45.04.08,0,.16,0,.24,0-.23-.02-.46-.04-.69-.05ZM475.53,538.88c.12.02.24.04.36.06.08,0,.16.02.24.03-.2-.04-.4-.07-.6-.09ZM477.2,539.14h0l3.7,10.16-3.69-10.16ZM574.29,540.21c-1.37-3.76-5.53-5.7-9.29-4.34-3.76,1.37-5.7,5.53-4.33,9.29,1.36,3.76,5.52,5.7,9.28,4.33,3.76-1.36,5.7-5.52,4.34-9.28ZM462.08,516.74c-.58.35-1.16.69-1.75,1.03l1.94-.7-.19-.33Z"/>
        <g>
          <path class="cls-3" d="M366.25,615.77c-.03-.08-.06-.15-.09-.22-1.45-3.62-5.51-5.45-9.2-4.12-3.76,1.37-5.7,5.52-4.33,9.28,1.36,3.76,5.52,5.71,9.28,4.34,2.02-.73,3.51-2.27,4.25-4.11.64-1.6.72-3.43.09-5.17ZM420.23,583.4l3.02,8.33h0s-3.03-8.33-3.03-8.33ZM446.74,558.21s-.08.11-.12.16c.25-.3.51-.6.77-.89-.22.24-.43.49-.65.73ZM447.59,557.25s-.08.08-.11.13c.04-.04.08-.09.13-.14,0,0,0,0-.02.01ZM453.07,552.56c-.17.12-.35.24-.52.36.3-.21.6-.41.91-.61-.13.08-.26.16-.39.25ZM454.61,551.58c-.39.23-.78.47-1.15.73.59-.38,1.19-.75,1.82-1.1-.23.12-.45.25-.67.37ZM455.17,541.46s.07-.02.11-.03c.01,0,.02-.02.03-.02-.04.02-.09.03-.14.05ZM457.38,550.15c-.31.14-.62.29-.93.45.35-.17.7-.34,1.06-.5-.04,0-.09.03-.13.05ZM459,549.46c-.07.03-.14.06-.21.09.29-.12.59-.23.89-.34-.23.08-.45.17-.68.25ZM462.16,548.42c-.07.02-.14.04-.2.06.11-.03.23-.06.34-.09-.05.01-.09.02-.14.03ZM462.64,548.3h-.02s-.02,0-.03.01c-.09.03-.19.05-.29.08.42-.11.84-.21,1.26-.31-.3.07-.61.14-.92.22ZM464.48,547.89l-.87.18c.37-.08.73-.15,1.1-.22-.08,0-.15.03-.23.04ZM442.55,591.39h0s24.16-8.77,24.16-8.77l-24.16,8.77ZM471.71,547.39h-.16c.33.02.65.04.97.06-.26-.02-.53-.04-.81-.06ZM472.58,547.45h-.06s.05,0,.08.01c0-.01-.02-.01-.02-.01ZM472.75,538.59c.15.01.3.02.45.04.08,0,.16,0,.24,0-.23-.02-.46-.04-.69-.05ZM475.53,538.88c.12.02.24.04.36.06.08,0,.16.02.24.03-.2-.04-.4-.07-.6-.09ZM477.2,539.14h0l3.7,10.16-3.69-10.16ZM574.29,540.21c-1.37-3.76-5.53-5.7-9.29-4.34-3.76,1.37-5.7,5.53-4.33,9.29,1.36,3.76,5.52,5.7,9.28,4.33,3.76-1.36,5.7-5.52,4.34-9.28ZM462.08,516.74c-.58.35-1.16.69-1.75,1.03l1.94-.7-.19-.33Z"/>
          <path class="cls-3" d="M626.67,549.72l-18.3-50.42c-2.38.42-4.76.62-7.11.62-14.44,0-27.98-7.66-35.35-20.49l-33.02,11.99-70.62,25.65-1.94.7-110.68,40.19-6.54,2.38-19.83,7.2c.31,1.79.5,3.59.57,5.4,0,.11,0,.22,0,.33.1,2.99-.13,6.03-.71,9.01-2.21,11.59-9.45,21.78-19.56,27.67l18.33,50.48c2.32-.4,4.65-.6,6.96-.6,14.43,0,27.99,7.66,35.35,20.49l1.93-.7v-58.68c-.74,1.84-2.23,3.38-4.25,4.11-3.76,1.37-7.92-.58-9.28-4.34-1.37-3.76.57-7.91,4.33-9.28,3.69-1.33,7.75.5,9.2,4.12v-21.24h67.98c-.2-.45-.4-.91-.59-1.38-.19-.46-.37-.93-.55-1.41-.18-.5-.34-.99-.5-1.49s-.31-1-.45-1.5l-8.79,3.19h0s-3.02-8.32-3.02-8.32l10.43-3.79c-.02-.56-.03-1.12-.03-1.67,0-.41,0-.81.02-1.22,0-.07,0-.13.01-.2,0-.09,0-.17,0-.26,0-.29.02-.58.05-.87,0-.13.01-.25.02-.38.02-.23.04-.45.06-.68.01-.02.01-.04.01-.06,0-.2.03-.41.05-.62.02-.06.03-.14.03-.21.01-.1.02-.19.04-.29.05-.37.1-.74.16-1.11h0c.05-.36.11-.7.18-1.04.05-.35.12-.69.2-1.03.05-.29.11-.58.18-.87.01-.05.02-.1.04-.15.07-.33.16-.67.26-1.01t.01-.02c.04-.19.09-.38.15-.56.11-.42.24-.84.37-1.26,0-.03.02-.07.03-.1.09-.27.17-.52.27-.79.06-.18.12-.37.19-.55.02-.08.05-.16.08-.24.09-.25.19-.5.29-.75.3-.78.63-1.55.99-2.3,0-.03,0-.05.02-.06.09-.2.18-.39.28-.59.03-.05.05-.1.07-.15.11-.2.21-.4.31-.6.09-.19.19-.39.3-.57.05-.11.11-.22.17-.33.15-.27.3-.54.46-.81.1-.19.21-.36.31-.53,0,0,0-.01,0-.01.15-.26.31-.51.47-.76.06-.1.12-.2.19-.3.16-.26.34-.52.51-.78.13-.21.27-.41.42-.6t0,0c.26-.37.52-.74.79-1.09.2-.26.39-.51.59-.76.37-.47.75-.92,1.14-1.36.28-.33.58-.66.88-.98.15-.18.32-.35.49-.52.15-.17.31-.33.49-.5.09-.1.19-.19.29-.29.32-.31.65-.63.99-.94.19-.17.38-.34.58-.51.13-.12.26-.23.39-.35.04-.03.08-.07.12-.09.36-.31.74-.62,1.12-.92.83-.65,1.69-1.27,2.58-1.86.03-.03.07-.05.11-.08l.57-.36c.38-.25.77-.48,1.16-.71.14-.08.28-.16.42-.24.23-.13.46-.26.7-.39.15-.08.3-.16.45-.24.07-.04.15-.08.23-.12.12-.06.24-.13.37-.19.33-.17.66-.33,1-.49.06-.02.12-.05.18-.08.14-.07.27-.13.41-.19.01,0,.02,0,.03-.02.33-.14.66-.28,1-.43.08-.03.16-.06.24-.1.05-.02.1-.03.14-.05.06-.03.13-.05.19-.08.39-.16.77-.3,1.16-.45.09-.03.17-.06.26-.08.12-.05.24-.09.35-.12.27-.1.55-.19.82-.28.11-.03.22-.07.33-.1.41-.13.82-.25,1.24-.37.03,0,.06-.02.09-.02.19-.05.38-.1.57-.15.06-.02.13-.04.19-.05.39-.1.78-.2,1.18-.29h.02c.56-.12,1.13-.24,1.69-.33.31-.06.62-.11.93-.15.11-.02.23-.03.35-.05.05,0,.11-.02.16-.02.18-.03.36-.05.54-.07.03-.01.05-.01.07-.01.16-.02.33-.04.49-.06.23-.02.46-.05.69-.07.09,0,.18-.02.28-.03.08-.01.16-.01.24-.01.22-.02.44-.03.66-.04.14,0,.27-.02.41-.02.27-.02.54-.03.81-.03.37-.02.75-.03,1.12-.03.35,0,.7,0,1.05.02.52,0,1.04.04,1.55.07.23.01.46.03.69.05.18.02.35.03.52.05.29.03.57.06.85.09.11,0,.23.03.34.05.13.01.25.03.38.05.2.02.4.05.6.09.14.02.27.04.41.06.22.03.43.07.65.11h0l3.69,10.16c-1.65-.62-3.37-1.1-5.11-1.42-.14-.03-.27-.05-.41-.07-.3-.06-.6-.11-.9-.14-.15-.03-.3-.05-.46-.06-.29-.05-.58-.08-.88-.11,0,0,0,0,0,0-.17-.02-.34-.04-.52-.05-.03-.01-.05-.01-.08-.01-.32-.02-.64-.04-.97-.06-.89-.04-1.78-.04-2.69,0-.43.02-.87.04-1.31.08-.34.03-.67.07-1.01.11-.14.01-.28.03-.41.05-.47.06-.95.13-1.42.22-.37.07-.73.14-1.1.22-.02,0-.03,0-.05,0-.42.1-.84.2-1.26.31-.11.03-.23.06-.34.09-.07.02-.13.04-.2.06-.25.07-.51.15-.77.23h0c-.43.14-.86.28-1.29.44h-.01c-.3.11-.6.22-.89.34-.07.03-.14.06-.21.09-.16.06-.32.13-.48.2-.04.02-.08.04-.12.05-.16.07-.32.14-.47.21-.36.16-.71.33-1.06.5-.4.2-.79.4-1.17.61-.63.35-1.23.72-1.82,1.1-.31.2-.61.4-.91.61-.33.23-.65.46-.97.7-.26.2-.53.41-.79.62-.25.21-.51.42-.76.64-.86.75-1.67,1.54-2.42,2.36-.05.05-.09.1-.13.14-.03.04-.06.07-.09.1-.26.29-.52.59-.77.89-.43.51-.85,1.04-1.24,1.59-.28.38-.54.76-.8,1.15-.26.39-.51.78-.74,1.18-.14.22-.26.44-.39.66-.21.37-.41.75-.6,1.13-.15.28-.29.56-.42.85-.07.14-.14.29-.2.43-.07.14-.13.29-.19.43-.19.44-.37.88-.54,1.33-.09.2-.17.4-.24.61-.08.25-.17.5-.25.75-.07.2-.13.4-.19.61-.1.33-.2.67-.29,1.01-.09.34-.18.68-.26,1.03-.1.43-.19.86-.27,1.3-.25,1.3-.41,2.62-.48,3.96l6-2.17,16.02-5.82h0l3.02,8.32-24.16,8.78c.25,1,.56,2,.92,3,.36.99.77,1.96,1.22,2.89l24.16-8.77,3.02,8.32-9.27,3.37h35.67s.03-.05.05-.08c0,.02-.02.05-.04.08h104.95l5.78-2.1c-3.01-16.95,4.88-33.9,19.8-42.49ZM569.95,549.49c-3.76,1.37-7.92-.57-9.28-4.33-1.37-3.76.57-7.92,4.33-9.29,3.76-1.36,7.92.58,9.29,4.34,1.36,3.76-.58,7.92-4.34,9.28Z"/>
        </g>
        <path class="cls-6" d="M420.23,583.4l3.02,8.33h0s-3.03-8.33-3.03-8.33ZM446.74,558.21s-.08.11-.12.16c.25-.3.51-.6.77-.89-.22.24-.43.49-.65.73ZM447.59,557.25s-.08.08-.11.13c.04-.04.08-.09.13-.14,0,0,0,0-.02.01ZM453.07,552.56c-.17.12-.35.24-.52.36.3-.21.6-.41.91-.61-.13.08-.26.16-.39.25ZM454.61,551.58c-.39.23-.78.47-1.15.73.59-.38,1.19-.75,1.82-1.1-.23.12-.45.25-.67.37ZM455.17,541.46s.07-.02.11-.03c.01,0,.02-.02.03-.02-.04.02-.09.03-.14.05ZM457.38,550.15c-.31.14-.62.29-.93.45.35-.17.7-.34,1.06-.5-.04,0-.09.03-.13.05ZM459,549.46c-.07.03-.14.06-.21.09.29-.12.59-.23.89-.34-.23.08-.45.17-.68.25ZM462.16,548.42c-.07.02-.14.04-.2.06.11-.03.23-.06.34-.09-.05.01-.09.02-.14.03ZM462.64,548.3h-.02s-.02,0-.03.01c-.09.03-.19.05-.29.08.42-.11.84-.21,1.26-.31-.3.07-.61.14-.92.22ZM464.48,547.89l-.87.18c.37-.08.73-.15,1.1-.22-.08,0-.15.03-.23.04ZM442.55,591.39h0s24.16-8.77,24.16-8.77l-24.16,8.77ZM471.71,547.39h-.16c.33.02.65.04.97.06-.26-.02-.53-.04-.81-.06ZM472.58,547.45h-.06s.05,0,.08.01c0-.01-.02-.01-.02-.01ZM472.75,538.59c.15.01.3.02.45.04.08,0,.16,0,.24,0-.23-.02-.46-.04-.69-.05ZM475.53,538.88c.12.02.24.04.36.06.08,0,.16.02.24.03-.2-.04-.4-.07-.6-.09ZM477.2,539.14h0l3.7,10.16-3.69-10.16Z"/>
        <path class="cls-2" d="M647.31,585.08l-25.4,9.23h-20.82l5.78-2.1c-3.01-16.95,4.88-33.9,19.8-42.49l-18.3-50.42c-2.38.42-4.76.62-7.11.62-14.44,0-27.98-7.66-35.35-20.49l-33.02,11.99c1.18-1.3,2.34-2.61,3.49-3.93,2.01-2.31,3.97-4.66,5.88-7.04h.01l59.22-21.51,45.82,126.14Z"/>
        <path class="cls-2" d="M542.26,480.45c-1.91,2.38-3.87,4.73-5.88,7.04-1.15,1.32-2.31,2.63-3.49,3.93l-70.62,25.65-.19-.33c-.58.35-1.16.69-1.75,1.03l-110.68,40.19-6.54,2.38-19.83,7.2c.31,1.79.5,3.59.57,5.4,0,.11,0,.22,0,.33.1,2.99-.13,6.03-.71,9.01-2.21,11.59-9.45,21.78-19.56,27.67l18.33,50.48c2.32-.4,4.65-.6,6.96-.6,14.43,0,27.99,7.66,35.35,20.49l1.93-.7v7.57l-37.37,13.57-45.82-126.14.75-.27h.01l13.46-4.89h0l44.95-16.34.96-.35,4.65-1.68,1.89-.69,175.1-63.59,17.51-6.36Z"/>
        <path class="cls-4" d="M569.95,549.49c-3.76,1.37-7.92-.57-9.28-4.33-1.37-3.76.57-7.92,4.33-9.29,3.76-1.36,7.92.58,9.29,4.34,1.36,3.76-.58,7.92-4.34,9.28Z"/>
        <path class="cls-4" d="M366.16,620.94c-.74,1.84-2.23,3.38-4.25,4.11-3.76,1.37-7.92-.58-9.28-4.34-1.37-3.76.57-7.91,4.33-9.28,3.69-1.33,7.75.5,9.2,4.12.03.07.06.14.09.22.63,1.74.55,3.57-.09,5.17Z"/>
        <g>
          <path class="cls-1" d="M480.89,549.3c-1.65-.62-3.37-1.1-5.11-1.42-.14-.03-.27-.05-.41-.07-.3-.06-.6-.11-.9-.14-.15-.03-.3-.05-.46-.06-.29-.05-.58-.08-.88-.11-.18-.01-.35-.03-.53-.04,0-.01-.02-.01-.02-.01h-.06c-.26-.02-.53-.04-.81-.06h-.16c-.89-.04-1.78-.04-2.69,0-.43.02-.87.04-1.31.08-.34.03-.67.07-1.01.11-.14.01-.28.03-.41.05-.47.06-.95.13-1.42.22-.08,0-.15.03-.23.04l-.87.18s-.03,0-.05,0c-.3.07-.61.14-.92.22h-.02s-.02,0-.03.01c-.09.03-.19.05-.29.08-.05.01-.09.02-.14.03-.07.02-.14.04-.2.06-.07.02-.13.04-.2.06-.25.07-.51.15-.77.23h0c-.43.14-.86.28-1.29.44h-.01c-.23.08-.45.17-.68.25-.07.03-.14.06-.21.09-.07.03-.14.06-.21.09-.16.06-.32.13-.48.2-.04.02-.08.04-.12.05-.16.07-.32.14-.47.21-.04,0-.09.03-.13.05-.31.14-.62.29-.93.45-.4.2-.79.4-1.17.61-.23.12-.45.25-.67.37-.39.23-.78.47-1.15.73-.13.08-.26.16-.39.25-.17.12-.35.24-.52.36-.33.23-.65.46-.97.7-.26.2-.53.41-.79.62-.25.21-.51.42-.76.64-.86.75-1.67,1.54-2.42,2.36,0,0,0,0-.02.01-.04.04-.08.08-.11.13-.03.04-.06.07-.09.1-.22.24-.43.49-.65.73-.04.05-.08.11-.12.16-.43.51-.85,1.04-1.24,1.59-.28.38-.54.76-.8,1.15-.26.39-.51.78-.74,1.18-.14.22-.26.44-.39.66-.21.37-.41.75-.6,1.13-.15.28-.29.56-.42.85-.07.14-.14.29-.2.43-.07.14-.13.29-.19.43-.19.44-.38.88-.54,1.33-.09.2-.17.4-.24.61-.08.25-.17.5-.25.75-.07.2-.13.4-.19.61-.11.33-.2.67-.29,1.01-.1.34-.18.69-.26,1.03-.1.43-.19.86-.27,1.3-.25,1.3-.41,2.62-.48,3.96h0s6-2.17,6-2.17l16.02-5.82,3.03,8.32-24.16,8.78c.25,1,.56,2,.92,3,.36.99.77,1.96,1.22,2.89h0s24.16-8.77,24.16-8.77l3.02,8.32-9.27,3.37h-26.32c-.2-.45-.4-.91-.59-1.38-.19-.47-.37-.94-.54-1.41-.18-.5-.35-.99-.51-1.49s-.31-1-.45-1.5l-8.79,3.19-3.03-8.32,10.43-3.78h0c-.02-.57-.03-1.13-.03-1.68,0-.47,0-.95.03-1.42,0-.09,0-.17,0-.26,0-.29.03-.58.05-.87.02-.35.05-.71.08-1.06.01-.02.01-.04.01-.06.04-.37.08-.75.12-1.12.05-.37.1-.74.16-1.11h0c.05-.36.11-.7.18-1.04.06-.35.13-.69.2-1.03.07-.34.14-.68.22-1.02.09-.34.17-.67.26-1.01t.01-.02c.04-.19.09-.38.15-.56.11-.42.24-.84.37-1.26,0-.03.02-.07.03-.1.09-.27.17-.52.27-.79.06-.18.12-.37.19-.55.12-.33.24-.66.37-.99.3-.78.63-1.55.99-2.3.1-.22.2-.44.3-.65.03-.05.05-.1.07-.15.11-.2.21-.4.31-.6l.3-.57c.2-.39.41-.77.63-1.14.1-.19.21-.36.31-.53,0,0,0-.01,0-.01.15-.26.31-.51.47-.76.06-.1.12-.2.19-.3.16-.26.34-.52.51-.78.13-.21.27-.41.42-.6h0c.26-.38.52-.75.79-1.1.2-.26.39-.51.59-.76.37-.47.75-.92,1.14-1.36.28-.33.58-.66.88-.98.15-.18.32-.35.49-.52.16-.17.33-.34.49-.5.09-.1.19-.19.29-.29.32-.31.65-.63.99-.94.19-.17.38-.34.58-.51.17-.15.34-.3.51-.44.36-.31.74-.62,1.12-.92.83-.65,1.69-1.27,2.58-1.86.22-.15.45-.3.68-.44.38-.25.77-.48,1.16-.71.14-.08.28-.16.42-.24.23-.13.46-.26.7-.39.15-.08.3-.16.45-.24.07-.04.15-.08.23-.12.12-.06.24-.13.37-.19.33-.17.66-.33,1-.49.06-.02.12-.05.18-.08.14-.07.27-.13.41-.19.01,0,.02,0,.03-.02.33-.14.66-.28,1-.43.08-.03.16-.06.24-.1.04-.01.07-.02.11-.03.01,0,.02-.02.03-.02.06-.03.13-.05.19-.08.38-.15.77-.3,1.16-.44.09-.03.18-.06.26-.09.12-.05.24-.09.35-.12.27-.1.55-.19.82-.28.11-.03.22-.07.33-.1.41-.13.82-.25,1.24-.37.03,0,.06-.02.09-.02.19-.05.38-.1.57-.15.06-.02.13-.04.19-.05.39-.1.78-.2,1.18-.29h.02c.56-.12,1.12-.23,1.69-.33.31-.06.62-.11.93-.15.11-.02.23-.03.35-.05.05,0,.11-.02.16-.02.18-.03.36-.05.54-.07.03-.01.05-.01.07-.01.39-.05.79-.09,1.18-.13.17,0,.35-.03.52-.04.22-.02.44-.03.66-.04.14,0,.27-.02.41-.02.27-.02.54-.03.81-.03.37-.02.75-.03,1.12-.03.35,0,.7,0,1.05.02.52,0,1.04.04,1.55.07.15.01.3.02.45.04.08,0,.16,0,.24,0,.18.02.35.03.52.05.29.03.57.06.85.09l.11.19c.08-.05.15-.09.23-.14.13.01.25.03.38.05.12.02.24.04.36.06.08,0,.16.02.24.03.14.02.27.04.41.06.22.03.43.07.65.11l3.7,10.16Z"/>
          <polygon class="cls-1" points="420.23 583.4 423.26 591.72 423.25 591.73 420.23 583.4"/>
          <path class="cls-1" d="M447.39,557.48c-.26.29-.52.59-.77.89.04-.05.08-.11.12-.16.22-.24.43-.49.65-.73Z"/>
          <path class="cls-1" d="M447.61,557.24s-.09.1-.13.14c.03-.05.07-.09.11-.13.01-.01.02-.01.02-.01Z"/>
          <path class="cls-1" d="M453.46,552.31c-.31.2-.61.4-.91.61.17-.12.35-.24.52-.36.13-.09.26-.17.39-.25Z"/>
          <path class="cls-1" d="M455.28,551.21c-.63.35-1.23.72-1.82,1.1.37-.26.76-.5,1.15-.73.22-.12.44-.25.67-.37Z"/>
          <path class="cls-1" d="M455.28,541.43s-.07.02-.11.03c.05-.02.1-.03.14-.05-.01,0-.02.01-.03.02Z"/>
          <path class="cls-1" d="M457.51,550.1c-.36.16-.71.33-1.06.5.31-.16.62-.31.93-.45.04-.02.09-.04.13-.05Z"/>
          <path class="cls-1" d="M459.68,549.21c-.3.11-.6.22-.89.34.07-.03.14-.06.21-.09.23-.08.45-.17.68-.25Z"/>
          <path class="cls-1" d="M462.3,548.39c-.11.03-.23.06-.34.09.06-.02.13-.04.2-.06.05-.01.09-.02.14-.03Z"/>
          <path class="cls-1" d="M463.56,548.08c-.42.1-.84.2-1.26.31.1-.03.2-.05.29-.08.01-.01.02-.01.03-.01h.02c.31-.08.62-.15.92-.22Z"/>
          <path class="cls-1" d="M464.71,547.85c-.37.07-.73.14-1.1.22l.87-.18c.08,0,.15-.03.23-.04Z"/>
          <polygon class="cls-1" points="442.55 591.39 466.71 582.62 442.55 591.4 442.55 591.39"/>
          <path class="cls-1" d="M471.71,547.39c.28.02.55.04.81.06-.32-.02-.64-.04-.97-.06h.16Z"/>
          <path class="cls-1" d="M472.58,547.45s.02,0,.02.01c-.03-.01-.05-.01-.08-.01h.06Z"/>
          <path class="cls-1" d="M472.75,538.59c.23.01.46.03.69.05-.08,0-.16,0-.24,0-.15-.02-.3-.03-.45-.04Z"/>
          <path class="cls-1" d="M474.81,538.78c.11,0,.23.03.34.05-.08.05-.15.09-.23.14l-.11-.19Z"/>
          <path class="cls-1" d="M475.53,538.88c.2.02.4.05.6.09-.08,0-.16-.02-.24-.03-.12-.02-.24-.04-.36-.06Z"/>
          <polygon class="cls-1" points="480.89 549.3 477.19 539.14 477.2 539.14 480.89 549.3"/>
        </g>
      </g>
      <g id="Schein_unten" data-name="Schein unten">
        <path class="cls-6" d="M508.59,638.7s.05-.05.06-.07c.08-.12.16-.24.25-.36-.11.14-.22.29-.31.43ZM510.39,636.33s.01,0,.02,0c.07-.1.15-.2.24-.29-.09.1-.18.2-.26.3ZM514.56,631.99c.22-.2.44-.4.67-.59,0-.01,0-.02,0-.02-.23.2-.46.39-.68.61ZM519.44,628.25s.02-.01.03-.01c.02-.02.04-.04.06-.05-.03,0-.06.03-.09.06ZM533.32,622.64c-.16.03-.33.06-.49.1.48-.12.97-.21,1.46-.28-.32.05-.64.11-.97.18ZM535.74,622.23s0,0,.01,0c.26-.04.52-.07.78-.09.16-.02.33-.04.49-.06-.43.03-.86.08-1.28.14ZM537.1,622.08c.19-.02.37-.03.56-.04.27-.03.54-.05.81-.07-.46.02-.92.06-1.37.11ZM540.93,621.89c-.4,0-.8.01-1.2.02-.2,0-.39.01-.59.03.18-.01.37-.02.55-.02.23,0,.46-.01.69-.01.19,0,.37,0,.55,0h.33c-.11-.01-.22-.01-.33-.01ZM543.81,622c.28.02.56.05.84.08.08,0,.16.01.23.02.06,0,.13,0,.2,0-.42-.05-.84-.09-1.27-.11ZM545.3,622.13h0c-.07-.01-.14-.01-.21-.02.06,0,.12.02.19.03.34.03.67.08,1.01.12-.32-.06-.65-.1-.98-.13ZM546.8,622.33c.05.01.1.02.16.03.31.04.62.1.93.16.09,0,.19.02.29.04-.46-.09-.92-.17-1.38-.23ZM548.18,622.56c.09.02.18.04.28.06.19.03.38.08.57.11-.28-.07-.57-.12-.85-.17ZM644.47,654.17c-4,0-7.24,3.24-7.24,7.24s3.24,7.25,7.24,7.25,7.25-3.25,7.25-7.25-3.25-7.24-7.25-7.24Z"/>
        <path class="cls-3" d="M508.59,638.7s.05-.05.06-.07c.08-.12.16-.24.25-.36-.11.14-.22.29-.31.43ZM510.39,636.33s.01,0,.02,0c.07-.1.15-.2.24-.29-.09.1-.18.2-.26.3ZM514.56,631.99c.22-.2.44-.4.67-.59,0-.01,0-.02,0-.02-.23.2-.46.39-.68.61ZM519.44,628.25s.02-.01.03-.01c.02-.02.04-.04.06-.05-.03,0-.06.03-.09.06ZM533.32,622.64c-.16.03-.33.06-.49.1.48-.12.97-.21,1.46-.28-.32.05-.64.11-.97.18ZM535.74,622.23s0,0,.01,0c.26-.04.52-.07.78-.09.16-.02.33-.04.49-.06-.43.03-.86.08-1.28.14ZM537.1,622.08c.19-.02.37-.03.56-.04.27-.03.54-.05.81-.07-.46.02-.92.06-1.37.11ZM540.93,621.89c-.4,0-.8.01-1.2.02-.2,0-.39.01-.59.03.18-.01.37-.02.55-.02.23,0,.46-.01.69-.01.19,0,.37,0,.55,0h.33c-.11-.01-.22-.01-.33-.01ZM543.81,622c.28.02.56.05.84.08.08,0,.16.01.23.02.06,0,.13,0,.2,0-.42-.05-.84-.09-1.27-.11ZM545.3,622.13h0c-.07-.01-.14-.01-.21-.02.06,0,.12.02.19.03.34.03.67.08,1.01.12-.32-.06-.65-.1-.98-.13ZM546.8,622.33c.05.01.1.02.16.03.31.04.62.1.93.16.09,0,.19.02.29.04-.46-.09-.92-.17-1.38-.23ZM548.18,622.56c.09.02.18.04.28.06.19.03.38.08.57.11-.28-.07-.57-.12-.85-.17ZM644.47,654.17c-4,0-7.24,3.24-7.24,7.24s3.24,7.25,7.24,7.25,7.25-3.25,7.25-7.25-3.25-7.24-7.25-7.24Z"/>
        <path class="cls-6" d="M508.59,638.7s.05-.05.06-.07c.08-.12.16-.24.25-.36-.11.14-.22.29-.31.43ZM510.39,636.33s.01,0,.02,0c.07-.1.15-.2.24-.29-.09.1-.18.2-.26.3ZM514.56,631.99c.22-.2.44-.4.67-.59,0-.01,0-.02,0-.02-.23.2-.46.39-.68.61ZM519.44,628.25s.02-.01.03-.01c.02-.02.04-.04.06-.05-.03,0-.06.03-.09.06ZM520.15,683.95c.06.07.12.12.19.18.05.05.11.1.17.14-.12-.1-.24-.21-.36-.32ZM520.51,684.27s.02.03.03.04c.1.1.21.19.33.28-.13-.11-.25-.21-.36-.32ZM521.11,627.21c-.1.06-.2.12-.29.18.09-.06.19-.12.29-.17.04-.03.09-.05.13-.08-.04.02-.09.05-.13.07ZM533.32,622.64c-.16.03-.33.06-.49.1.48-.12.97-.21,1.46-.28-.32.05-.64.11-.97.18ZM535.74,622.23s0,0,.01,0c.26-.04.52-.07.78-.09.16-.02.33-.04.49-.06-.43.03-.86.08-1.28.14ZM537.1,622.08c.19-.02.37-.03.56-.04.27-.03.54-.05.81-.07-.46.02-.92.06-1.37.11ZM540.93,621.89c-.4,0-.8.01-1.2.02-.2,0-.39.01-.59.03.18-.01.37-.02.55-.02.23,0,.46-.01.69-.01.19,0,.37,0,.55,0h.33c-.11-.01-.22-.01-.33-.01ZM543.81,622c.28.02.56.05.84.08.08,0,.16.01.23.02.06,0,.13,0,.2,0-.42-.05-.84-.09-1.27-.11ZM545.3,622.13h0c-.07-.01-.14-.01-.21-.02.06,0,.12.02.19.03.34.03.67.08,1.01.12-.32-.06-.65-.1-.98-.13ZM546.8,622.33c.05.01.1.02.16.03.31.04.62.1.93.16.09,0,.19.02.29.04-.46-.09-.92-.17-1.38-.23ZM548.18,622.56c.09.02.18.04.28.06.19.03.38.08.57.11-.28-.07-.57-.12-.85-.17Z"/>
        <path class="cls-4" d="M651.72,661.41c0,4-3.25,7.25-7.25,7.25s-7.24-3.25-7.24-7.25,3.24-7.24,7.24-7.24,7.25,3.24,7.25,7.24Z"/>
        <g>
          <path class="cls-1" d="M508.9,638.27c-.09.12-.17.24-.25.36-.01.02-.03.04-.06.07.09-.14.2-.29.31-.43Z"/>
          <path class="cls-1" d="M510.65,636.03c-.09.09-.17.19-.24.29t-.02,0c.08-.1.17-.2.26-.3Z"/>
          <path class="cls-1" d="M512.42,634.06h0s-.01,0,0,0h0Z"/>
          <path class="cls-1" d="M515.24,631.38s0,0,0,.02c-.23.19-.45.39-.67.59.22-.22.45-.41.68-.61Z"/>
          <path class="cls-1" d="M519.53,628.19s-.04.03-.06.05c0,0-.02,0-.03.01.03-.03.06-.05.09-.06Z"/>
          <path class="cls-1" d="M521.24,627.14s-.09.05-.13.08h0s.09-.06.13-.08Z"/>
          <path class="cls-1" d="M537.02,622.09c-.16.02-.33.04-.49.06-.26.02-.52.05-.78.09-.01,0-.01,0-.01,0,.42-.06.85-.11,1.28-.14Z"/>
          <path class="cls-1" d="M538.47,621.97c-.27.02-.54.04-.81.07-.19.01-.37.02-.56.04.45-.05.91-.09,1.37-.11Z"/>
          <path class="cls-1" d="M541.26,621.9h-.33c-.18,0-.36,0-.55,0-.23,0-.46.01-.69.01-.18,0-.37,0-.55.02.2-.02.39-.03.59-.03.4,0,.8-.02,1.2-.02.11,0,.22,0,.33.01Z"/>
          <path class="cls-1" d="M545.08,622.11c-.07,0-.14,0-.2,0-.07-.01-.15-.02-.23-.02-.28-.03-.56-.06-.84-.08.43.02.85.06,1.27.11Z"/>
          <path class="cls-1" d="M546.28,622.26c-.34-.04-.67-.09-1.01-.12-.07,0-.13-.02-.19-.03.07,0,.14,0,.21.02h0c.33.03.66.07.98.13Z"/>
          <path class="cls-1" d="M548.18,622.56c-.1-.02-.2-.03-.29-.04-.31-.06-.62-.12-.93-.16-.06,0-.11-.02-.16-.03.46.06.92.14,1.38.23Z"/>
          <path class="cls-1" d="M549.03,622.73c-.19-.03-.38-.08-.57-.11-.1-.02-.19-.04-.28-.06.28.05.57.1.85.17Z"/>
        </g>
        <path class="cls-2" d="M496.13,594.31c-.04.07-.08.13-.13.2-.04.07-.09.14-.13.21.1-.13.19-.27.27-.41h0ZM496.13,594.31c-.04.07-.08.13-.13.2-.04.07-.09.14-.13.21.1-.13.19-.27.27-.41h0ZM496.13,594.31c-.04.07-.08.13-.13.2-.04.07-.09.14-.13.21.1-.13.19-.27.27-.41h0ZM366.25,615.77c-.03-.08-.06-.15-.09-.22v5.39c.64-1.6.72-3.43.09-5.17ZM496.13,594.31c-.04.07-.08.13-.13.2-.04.07-.09.14-.13.21.1-.13.19-.27.27-.41h0Z"/>
        <path class="cls-2" d="M496.14,594.31c-.08.14-.17.28-.27.41.04-.07.09-.14.13-.21.05-.07.09-.13.13-.2h-129.97v21.24c.03.07.06.14.09.22.63,1.74.55,3.57-.09,5.17v107.58h338.87v-134.21h-208.89ZM697.71,688.23c-16.96,2.99-30.17,16.22-33.12,33.17h-258.13c-2.95-16.9-16.1-30.11-32.98-33.14v-53.69c16.88-3.04,30.03-16.26,32.98-33.15h258.13c2.95,16.96,16.16,30.18,33.12,33.17v53.64Z"/>
        <path class="cls-3" d="M664.59,601.42h-258.13c-2.95,16.89-16.1,30.11-32.98,33.15v53.69c16.88,3.03,30.03,16.24,32.98,33.14h258.13c2.95-16.95,16.16-30.18,33.12-33.17v-53.64c-16.96-2.99-30.17-16.21-33.12-33.17ZM430.37,661.64c-.02.85-.19,1.66-.49,2.4-1.05,2.7-3.67,4.62-6.74,4.62-1.27,0-2.45-.32-3.48-.9h-.02c-.73-.41-1.38-.93-1.91-1.54-.58-.64-1.03-1.37-1.34-2.18-.31-.77-.48-1.6-.49-2.48-.01-.05-.01-.1-.01-.15,0-4,3.25-7.24,7.25-7.24,2.29,0,4.32,1.06,5.65,2.71.53.66.94,1.41,1.2,2.23h.01c.25.72.38,1.5.38,2.3,0,.08,0,.16,0,.23ZM560.83,638.08c-5.36-4.58-12.31-7.33-19.9-7.33-.34,0-.68,0-1.01.02-.16,0-.32,0-.48.02-.11,0-.21.01-.31.02-.06,0-.13,0-.19,0h-.08s-.1,0-.16,0c-.19.01-.38.03-.58.05-.13,0-.26.02-.4.04h-.02c-.26.03-.52.06-.78.1-.13,0-.27.03-.4.05-.18.02-.36.05-.53.08-.5.08-.99.17-1.47.28-.26.05-.51.11-.77.17-.74.17-1.47.38-2.18.61-.11.03-.22.06-.33.11-.46.14-.92.31-1.37.49-.08.03-.15.06-.23.09-.1.04-.2.08-.3.12-.24.09-.48.19-.71.3-.33.14-.65.29-.97.44-.38.18-.75.37-1.12.57-.11.06-.22.12-.33.18-.25.13-.48.27-.72.41-.21.11-.41.24-.61.37-.1.06-.2.12-.3.19-.26.15-.52.32-.77.49-.39.26-.77.53-1.14.81-.41.3-.81.61-1.2.94-.23.18-.45.37-.67.57-.44.37-.86.75-1.26,1.15-.32.32-.64.64-.95.97-.26.27-.51.55-.75.83-.07.07-.13.15-.19.22-.27.31-.53.62-.78.94-.19.24-.37.48-.55.72-.08.1-.16.21-.23.32-.03.03-.06.06-.07.1-.04.04-.06.08-.09.12-.03.04-.06.08-.09.12-.12.17-.24.34-.36.52-.16.23-.31.47-.46.71-.25.39-.49.79-.72,1.19-.19.33-.37.66-.54,1-.07.12-.13.24-.19.36-.12.23-.24.47-.35.71-.04.08-.08.16-.11.24-.15.3-.28.6-.41.91h23.43v8.85h-25.71c-.1,1.03-.16,2.08-.16,3.14s.06,2.1.16,3.14h25.71v8.85h-23.43c.13.31.26.61.41.91.03.08.07.16.11.24.11.24.23.48.35.71.06.12.12.24.19.36.17.34.35.67.54,1,.23.4.47.8.72,1.19.15.24.3.48.46.71.15.23.31.46.47.68.09.13.19.26.29.39.12.17.24.33.37.5.06.07.11.14.17.21.39.51.8,1,1.23,1.49.3.34.61.67.93.99.39.4.79.79,1.21,1.17.12.11.24.22.36.32.11.11.23.21.36.32.23.21.47.41.71.6.41.34.82.66,1.25.97.05.04.1.07.15.11.15.11.29.21.44.31.28.2.57.39.86.57.25.16.5.32.75.47.18.12.37.23.56.34.49.29.99.56,1.51.82.24.12.48.24.72.35.28.14.56.27.85.39.26.12.52.23.78.33,1.45.59,2.96,1.06,4.51,1.42.39.09.78.17,1.17.25.68.13,1.37.24,2.06.32.22.03.44.05.66.07.09.01.17.02.26.03.06,0,.12,0,.17,0,.34.03.68.05,1.02.07.21.02.42.03.63.03.33.01.66.02,1,.02,7.59,0,14.54-2.75,19.9-7.33v10.82c-2.92,1.7-6.08,3.05-9.42,3.96-.83.23-1.67.44-2.53.61-.32.06-.65.13-.97.18-.3.06-.6.11-.91.15-.35.06-.7.11-1.05.15-.65.09-1.32.15-1.99.2-.24.02-.48.04-.72.05-.38.03-.77.04-1.15.05-.39.01-.77.02-1.16.02-17.64,0-32.59-11.56-37.67-27.53h-11.09v-8.85h9.36c-.08-1.04-.12-2.08-.12-3.14s.04-2.1.12-3.14h-9.36v-8.85h11.09c.14-.42.28-.85.43-1.26.06-.17.12-.34.18-.5.05-.14.1-.28.16-.41.03-.11.07-.21.12-.31.02-.08.06-.16.1-.24.05-.15.11-.3.18-.45.13-.32.26-.64.41-.96.08-.18.16-.36.25-.54.16-.37.34-.74.52-1.1.41-.82.86-1.62,1.33-2.41,0-.03.03-.05.05-.07.15-.26.31-.53.48-.78.35-.58.73-1.14,1.12-1.69.09-.14.2-.29.31-.43.09-.15.2-.29.31-.43.04-.06.08-.11.13-.17.07-.1.14-.2.23-.3.11-.16.23-.32.37-.47.14-.19.29-.39.45-.57.08-.1.17-.2.26-.3.07-.1.16-.2.24-.29.46-.55.95-1.09,1.46-1.61,0-.02.02-.04.04-.05,0,0,0,0,.02,0t0,0h0c.04-.05.06-.08.11-.12.11-.13.23-.25.35-.37.28-.29.57-.57.86-.84.11-.11.23-.22.34-.31.11-.11.22-.21.33-.3.05-.05.1-.09.15-.13.22-.22.45-.41.68-.61.24-.21.49-.41.73-.6.17-.15.35-.3.53-.44.08-.05.16-.11.24-.17,0-.02.01-.01.01-.01,0,0,.02-.03.03-.03t.02-.01c.14-.12.28-.22.41-.32.02-.02.04-.03.05-.04.01,0,.03-.02.04-.02.13-.11.26-.2.39-.29.2-.15.4-.3.6-.42.19-.15.38-.28.57-.4.19-.14.39-.27.58-.38.03-.03.06-.05.09-.06.01-.01.02-.02.03-.02,0-.02.03-.03.05-.03.36-.24.73-.47,1.1-.68.04-.03.07-.06.11-.07.09-.06.19-.12.29-.18.04-.02.09-.05.13-.07.09-.06.18-.11.27-.15.26-.16.52-.3.78-.43.06-.04.12-.07.17-.09.15-.09.31-.17.46-.24.12-.07.25-.14.37-.19.03-.02.06-.03.08-.03.29-.16.58-.3.88-.43.52-.25,1.04-.48,1.57-.69.62-.26,1.24-.51,1.88-.72.2-.08.41-.15.62-.22.18-.07.37-.13.57-.18.02-.02.04-.02.06-.02.54-.18,1.09-.35,1.65-.49.21-.06.42-.12.64-.17.11-.03.22-.06.33-.08.02,0,.05-.02.08-.02.04,0,.09-.02.13-.03.04-.01.07-.02.11-.02.18-.06.37-.1.55-.12,0,0,.02,0,.03,0,.12-.03.24-.05.36-.07.48-.12.97-.21,1.46-.28.26-.05.52-.09.79-.13.22-.04.44-.07.66-.1.42-.06.85-.11,1.28-.14.02-.01.04-.01.06-.01t.02,0c.45-.05.91-.09,1.37-.11.22-.02.45-.03.67-.03.2-.02.39-.03.59-.03.4,0,.8-.02,1.2-.02.11,0,.22,0,.33.01.12,0,.23,0,.34,0,.23,0,.45,0,.68.01.23,0,.45.02.68.03.28.01.57.02.85.05.43.02.85.06,1.27.11.07,0,.14,0,.21.02h0c.33.03.66.07.98.13.03,0,.07,0,.1.01.14,0,.28.03.42.06.46.06.92.14,1.38.23.28.05.57.1.85.17.06,0,.12.02.18.04.32.06.63.13.94.21.39.09.77.18,1.13.28.04.01.09.02.13.04.66.18,1.3.37,1.94.59.4.13.79.26,1.18.41.07.02.15.05.22.08.22.08.44.16.66.25.39.15.78.31,1.16.48.53.23,1.05.46,1.57.72.23.11.47.23.7.35.37.18.74.38,1.1.58.3.16.59.32.89.5v10.82ZM644.47,668.66c-4,0-7.24-3.25-7.24-7.25s3.24-7.24,7.24-7.24,7.25,3.24,7.25,7.24-3.25,7.25-7.25,7.25Z"/>
        <path class="cls-1" d="M513.11,648.51c-.15.3-.28.6-.41.91h23.43v8.85h-25.71c-.1,1.03-.16,2.08-.16,3.14s.06,2.1.16,3.14h25.71v8.85h-23.43c.13.31.26.61.41.91.03.08.07.16.11.24.11.24.23.48.35.71.06.12.12.24.19.36.17.34.35.67.54,1,.23.4.47.8.72,1.19.15.24.3.48.46.71.15.23.31.46.47.68.09.13.19.26.29.39.12.17.24.33.37.5.06.07.11.14.17.21.39.51.8,1,1.23,1.49.3.34.61.67.93.99.39.4.79.79,1.21,1.17.06.07.12.12.19.18.06.06.13.12.2.18.1.1.21.19.33.28.23.21.47.41.71.6.41.34.82.66,1.25.97.05.04.1.07.15.11.15.11.29.21.44.31.28.2.56.39.86.57.24.17.49.33.75.47.18.12.37.23.56.34.49.29.99.56,1.51.82.24.12.48.24.72.35.28.14.56.27.85.39.26.12.52.23.78.33,1.45.59,2.96,1.06,4.51,1.42.39.1.78.18,1.17.25.68.13,1.37.24,2.06.32.22.03.44.05.66.07.09.01.17.02.26.03.06,0,.12,0,.17,0,.34.04.68.06,1.02.07.21.02.42.03.63.03.33.01.66.02,1,.02,7.59,0,14.54-2.75,19.9-7.33v10.82c-2.92,1.7-6.08,3.05-9.42,3.96-.83.23-1.68.43-2.53.61-.32.06-.65.13-.97.18-.3.06-.6.11-.91.15-.35.06-.7.11-1.05.15-.65.09-1.32.15-1.99.2-.24.02-.48.04-.72.05-.38.03-.77.04-1.15.05-.39.01-.77.02-1.16.02-17.64,0-32.59-11.56-37.67-27.53h-11.09v-8.85h9.36c-.08-1.04-.12-2.08-.12-3.14s.04-2.1.12-3.14h-9.36v-8.85h11.09c.14-.42.28-.85.43-1.26.06-.17.12-.34.18-.5.05-.14.1-.28.16-.41.03-.11.07-.21.12-.31.02-.08.06-.16.1-.24.05-.15.11-.3.18-.45.13-.32.26-.64.41-.96.08-.18.16-.36.25-.54.16-.37.34-.74.52-1.1.42-.82.86-1.62,1.33-2.41,0-.03.03-.05.05-.07.15-.26.31-.52.48-.78.35-.58.73-1.14,1.12-1.69.03-.03.05-.05.06-.07.08-.12.16-.24.25-.36.09-.15.2-.29.31-.43.04-.06.08-.11.13-.17.07-.1.14-.2.23-.3.12-.16.25-.31.37-.47.14-.19.29-.39.45-.57t.02,0c.07-.1.15-.2.24-.29.07-.1.16-.2.24-.29.46-.55.95-1.09,1.46-1.61,0-.02.02-.04.04-.05,0,0,0,0,.02,0h0c.04-.06.06-.09.11-.13.11-.13.23-.25.35-.37.28-.29.57-.57.86-.84.11-.11.23-.22.34-.31.11-.11.22-.21.33-.3.05-.05.1-.09.15-.13.22-.2.44-.4.67-.59,0-.01,0-.02,0-.02.24-.21.49-.41.73-.6.18-.15.37-.3.56-.44.07-.06.14-.12.21-.17,0-.02.01-.01.01-.01,0,0,.02-.03.03-.03t.02-.01c.14-.12.28-.22.41-.32.02-.02.04-.03.05-.04.01,0,.03-.02.04-.02.13-.11.26-.2.39-.29.2-.15.4-.3.6-.42.19-.15.38-.28.57-.4.19-.14.39-.27.58-.38,0-.01.02-.01.03-.01.02-.02.04-.04.06-.05.01-.01.02-.02.03-.02,0-.02.03-.03.05-.03.36-.24.73-.47,1.1-.68.04-.02.07-.05.11-.07.09-.06.19-.12.29-.17.04-.03.09-.05.13-.08.09-.06.18-.11.27-.15.26-.15.52-.3.78-.43.06-.04.12-.07.17-.09.15-.09.31-.17.46-.24.12-.07.25-.13.37-.19.03-.02.06-.03.08-.03.29-.15.58-.29.88-.43.52-.25,1.04-.48,1.57-.69.62-.26,1.24-.51,1.88-.72.2-.08.41-.15.62-.22.18-.07.37-.13.57-.18.02-.02.04-.02.06-.02.54-.18,1.09-.35,1.65-.49.21-.06.42-.12.64-.17.11-.03.22-.06.33-.08.02,0,.05-.02.08-.02.04,0,.09-.02.13-.03.04-.01.07-.02.11-.02.18-.04.37-.08.55-.12,0,0,.02,0,.03,0,.12-.03.24-.05.36-.07.16-.04.33-.07.49-.1.33-.07.65-.13.97-.18.26-.05.52-.09.79-.13.22-.04.44-.07.66-.1,0,0,0,0,.01,0,.26-.04.52-.07.78-.09.16-.02.33-.04.49-.06.02-.01.04-.01.06-.01t.02,0c.19-.02.37-.03.56-.04.27-.03.54-.05.81-.07.22-.02.45-.03.67-.03.18-.01.37-.02.55-.02.23,0,.46-.01.69-.01.19,0,.37,0,.55,0h.33c.12,0,.23,0,.34,0,.23,0,.45,0,.68.01.23,0,.45.02.68.03.28.01.57.02.85.05.28.02.56.05.84.08.08,0,.16.01.23.02.06,0,.13,0,.2,0,.06,0,.12.02.19.03.34.03.67.08,1.01.12.03,0,.07,0,.1.01.14,0,.28.03.42.06.05.01.1.02.16.03.31.04.62.1.93.16.09,0,.19.02.29.04.09.02.18.04.28.06.19.03.38.08.57.11.06,0,.12.02.18.04.32.06.63.13.94.21.39.09.77.18,1.13.28.04.01.09.02.13.04.66.18,1.3.37,1.94.59.4.13.79.26,1.18.41.07.02.15.05.22.08.22.08.44.16.66.25.39.15.78.31,1.16.48.53.23,1.05.46,1.57.72.23.11.47.23.7.35.37.18.74.38,1.1.58.3.16.59.32.89.5v10.82c-5.36-4.58-12.31-7.33-19.9-7.33-.34,0-.68,0-1.01.02-.16,0-.32,0-.48.02-.11,0-.21.01-.31.02-.06,0-.13,0-.19,0h-.08s-.1,0-.16,0c-.19.01-.38.03-.58.05-.13,0-.26.02-.4.04h-.02c-.26.02-.52.06-.78.1-.13,0-.27.03-.4.05-.18.02-.36.05-.53.08-.5.08-.99.17-1.47.28-.26.05-.52.1-.77.17-.74.17-1.47.38-2.18.61-.11.03-.22.06-.33.11-.46.14-.92.31-1.37.49-.08.03-.15.06-.23.09-.1.04-.2.08-.3.12-.24.09-.48.19-.71.3-.33.14-.65.29-.97.44-.38.18-.75.37-1.12.57-.11.06-.22.12-.33.18-.25.13-.48.27-.72.41-.21.11-.41.24-.61.37-.11.05-.21.11-.3.19-.26.15-.52.32-.77.49-.39.26-.77.53-1.14.81-.41.3-.81.61-1.2.94-.23.18-.45.37-.67.57-.44.37-.86.75-1.26,1.15-.33.32-.65.64-.95.97-.26.27-.51.55-.75.83-.07.07-.13.15-.19.22-.27.31-.53.62-.78.94-.19.24-.37.48-.55.72-.08.1-.16.21-.23.32-.03.03-.06.06-.07.1-.04.04-.06.08-.09.12-.03.04-.06.08-.09.12-.12.17-.24.34-.36.52-.16.23-.31.47-.46.71-.25.39-.49.79-.72,1.19-.19.33-.37.66-.54,1-.07.12-.13.24-.19.36-.12.23-.24.47-.35.71-.04.08-.08.16-.11.24Z"/>
        <path class="cls-4" d="M430.38,661.41c0,.08,0,.16,0,.23-.02.85-.19,1.66-.49,2.4-1.05,2.7-3.67,4.62-6.74,4.62-1.27,0-2.45-.32-3.48-.9h-.02c-.73-.41-1.38-.93-1.91-1.54-.58-.64-1.03-1.37-1.34-2.18-.31-.77-.48-1.6-.49-2.48-.01-.05-.01-.1-.01-.15,0-4,3.25-7.24,7.25-7.24,2.29,0,4.32,1.06,5.65,2.71.53.66.94,1.41,1.2,2.23h.01c.25.72.38,1.5.38,2.3Z"/>
      </g>
    </g>
  </g>
</svg>