<?xml version="1.0" encoding="UTF-8"?>
<svg id="Musthave" xmlns="http://www.w3.org/2000/svg" viewBox="0 0 800 800">
  <defs>
    <style>
      .cls-1 {
        fill: #a5678d;
      }

      .cls-1, .cls-2, .cls-3, .cls-4, .cls-5, .cls-6, .cls-7, .cls-8, .cls-9, .cls-10 {
        stroke-width: 0px;
      }

      .cls-2 {
        fill: #308fc9;
      }

      .cls-3 {
        fill: #206289;
      }

      .cls-4 {
        fill: #e6710a;
      }

      .cls-5 {
        fill: #c55256;
      }

      .cls-6 {
        fill: #95c11f;
      }

      .cls-7 {
        fill: #73bbe7;
      }

      .cls-8 {
        fill: #e4c769;
      }

      .cls-9 {
        fill: #b2191e;
      }

      .cls-10 {
        fill: #b0d157;
      }
    </style>
  </defs>
  <g id="G-0151_BUW_Icon_Repositorium_Regenbogen">
    <g id="Repositorium">
      <path class="cls-6" d="M628.62,327.8v.05c-.07,2.46-5.24,4.82-14.64,6.99v-14.08c9.46,2.19,14.64,4.56,14.64,7.04Z"/>
      <path class="cls-6" d="M186.35,320.77v14.08c-9.4-2.17-14.57-4.53-14.64-6.99v-.05c0-2.48,5.18-4.85,14.64-7.04Z"/>
      <path class="cls-3" d="M186.35,502.29v14.09c-9.4-2.18-14.57-4.54-14.64-7v-.05c0-2.48,5.18-4.85,14.64-7.04Z"/>
      <path class="cls-3" d="M628.62,509.33v.05c-.07,2.46-5.24,4.82-14.64,7v-14.09c9.46,2.19,14.64,4.56,14.64,7.04Z"/>
      <path class="cls-8" d="M613.98,281.84v53c-32.59,7.55-116.03,12.91-213.82,12.91s-181.21-5.36-213.81-12.91v-53c32.6,7.54,116.03,12.9,213.81,12.9s181.22-5.36,213.82-12.9Z"/>
      <path class="cls-10" d="M628.63,327.85v68.38c-1.7,1.99-6.74,3.9-14.65,5.69-33.1,7.46-116.36,12.76-213.82,12.76s-180.71-5.3-213.81-12.76c-7.91-1.79-12.96-3.7-14.65-5.69v-68.38h.01c.07,2.46,5.24,4.82,14.64,6.99,32.6,7.55,116.03,12.91,213.81,12.91s181.23-5.36,213.82-12.91c9.4-2.17,14.57-4.53,14.64-6.99h0Z"/>
      <path class="cls-7" d="M613.98,463.38v53.01c-32.59,7.54-116.03,12.9-213.82,12.9s-181.21-5.36-213.81-12.9v-53.01c32.6,7.54,116.03,12.9,213.81,12.9s181.22-5.36,213.82-12.9Z"/>
      <path class="cls-2" d="M628.63,509.38v71.17c-1.82,1.95-6.86,3.83-14.65,5.59-33.21,7.48-116.42,12.78-213.82,12.78s-180.6-5.3-213.81-12.78c-7.79-1.76-12.83-3.64-14.65-5.59v-71.17h.01c.07,2.46,5.24,4.82,14.64,7,32.6,7.54,116.03,12.9,213.81,12.9s181.23-5.36,213.82-12.9c9.4-2.18,14.57-4.54,14.64-7h0Z"/>
      <path class="cls-1" d="M628.63,580.55v57.3c0,11.02-106.42,30.17-232.6,30.17s-224.33-19.15-224.33-30.17v-57.3c1.82,1.95,6.86,3.83,14.65,5.59,33.21,7.48,116.42,12.78,213.81,12.78s180.61-5.3,213.82-12.78c7.79-1.76,12.83-3.64,14.65-5.59Z"/>
      <path class="cls-5" d="M628.63,146.33v66.8c-7.55,9.34-88.3,16.9-192.39,18.34-11.82.16-23.93.25-36.28.25s-24.46-.09-36.28-.25c-102.53-1.42-182.4-8.78-191.98-17.92v-67.22h.01c.31,11,102.47,19.9,228.45,19.9s228.15-8.9,228.46-19.9h0Z"/>
      <path class="cls-4" d="M628.63,213.12v61.67c0,2.48-5.18,4.85-14.65,7.05-32.6,7.54-116.04,12.9-213.82,12.9s-181.21-5.36-213.81-12.9c-9.47-2.2-14.65-4.57-14.65-7.05v-61.25c9.58,9.14,89.45,16.5,191.98,17.92,11.82.16,23.93.25,36.28.25s24.46-.09,36.28-.25c104.09-1.44,184.84-9,192.39-18.34Z"/>
      <path class="cls-6" d="M628.63,396.23v60.09c0,2.48-5.18,4.85-14.65,7.05-32.6,7.54-116.04,12.9-213.82,12.9s-181.21-5.36-213.81-12.9c-9.47-2.2-14.65-4.57-14.65-7.05v-60.09c1.69,1.99,6.74,3.9,14.65,5.69,33.1,7.46,116.35,12.76,213.81,12.76s180.72-5.3,213.82-12.76c7.91-1.79,12.95-3.7,14.65-5.69Z"/>
      <path class="cls-9" d="M628.62,146.27v.05c-.31,11-102.48,19.9-228.46,19.9s-228.14-8.9-228.45-19.9v-.05c0-11.02,102.48-14.3,228.65-14.3s228.26,3.28,228.26,14.3Z"/>
    </g>
  </g>
</svg>