<?xml version="1.0" encoding="UTF-8"?>
<svg id="Musthave" xmlns="http://www.w3.org/2000/svg" viewBox="0 0 800 800">
  <defs>
    <style>
      .cls-1 {
        fill: #308fc9;
      }

      .cls-1, .cls-2, .cls-3, .cls-4, .cls-5, .cls-6, .cls-7 {
        stroke-width: 0px;
      }

      .cls-2 {
        fill: #206289;
      }

      .cls-3 {
        fill: #dddddc;
      }

      .cls-4 {
        fill: #73bbe7;
      }

      .cls-5 {
        fill: #236289;
      }

      .cls-6 {
        fill: #b9ddf3;
      }

      .cls-8 {
        opacity: .8;
      }

      .cls-7 {
        fill: #fff;
      }
    </style>
  </defs>
  <g id="G-0153_BUW_Icon_personenbezogen_Daten">
    <g id="Personenbezogene_Daten" data-name="Personenbezogene Daten">
      <g id="Blätter">
        <g id="Blatt_dunkel" data-name="Blatt dunkel">
          <rect class="cls-1" x="202.95" y="101.08" width="400.3" height="567.78"/>
        </g>
        <g id="Blatt_hell" data-name="Blatt hell">
          <polygon class="cls-6" points="500.8 238.21 500.8 698.92 100.5 698.92 100.5 131.14 393.73 131.14 500.8 238.21"/>
          <polygon class="cls-4" points="393.73 238.21 393.73 131.14 500.8 238.21 393.73 238.21"/>
        </g>
      </g>
      <g id="Textlinien">
        <rect class="cls-5" x="142.61" y="273.44" width="316.09" height="5"/>
        <rect class="cls-5" x="142.61" y="323.15" width="316.09" height="5"/>
        <path class="cls-5" d="M431.71,369.03c-6.41,1.02-12.73,2.69-18.85,5H142.61v-5h289.1Z"/>
        <path class="cls-5" d="M363.94,414.91c-.99,1.65-1.93,3.31-2.8,5h-218.54v-5h221.34Z"/>
        <path class="cls-5" d="M350.18,465.1c0,.23,0,.46,0,.69h-207.59v-5h207.66c-.06,1.44-.09,2.87-.08,4.31Z"/>
        <path class="cls-5" d="M440.19,561.38H142.6v-5h273.02c.25.09.5.18.75.26,7.76,2.59,15.77,4.17,23.82,4.74Z"/>
        <path class="cls-5" d="M363.38,513.59h-220.78v-5h218.05c.86,1.69,1.77,3.36,2.73,5Z"/>
        <rect class="cls-5" x="142.6" y="604.18" width="315.88" height="5"/>
        <rect class="cls-5" x="142.61" y="650.99" width="316.09" height="5"/>
      </g>
      <g id="Lupe">
        <path class="cls-4" d="M525.8,468.89c-.92,17.59-7.72,34.99-20.54,49.01-4.62,5.05-9.75,9.36-15.23,12.92-26.29,17.11-60.8,17.07-87.16-.84-3.11-2.12-6.1-4.48-8.96-7.09-2.36-2.15-4.55-4.4-6.57-6.77-.72-.83-1.41-1.67-2.09-2.53-1.29-1.63-2.51-3.29-3.64-5-.39-.56-.76-1.14-1.13-1.71-6.19-9.76-10.04-20.61-11.52-31.74-.27-2.07-.46-4.13-.58-6.21h0c-.06-1.05-.09-2.09-.1-3.14,0-.23,0-.46,0-.69-.01-1.44.02-2.87.09-4.31.47-9.46,2.63-18.88,6.52-27.74,1.46-3.32,3.16-6.56,5.11-9.71.71-1.16,1.46-2.3,2.25-3.43,1.17-1.7,2.43-3.37,3.76-5,.93-1.14,1.9-2.27,2.91-3.37,8.69-9.5,19.16-16.39,30.43-20.62,15.6-5.85,32.74-6.62,48.79-2.19,11.6,3.21,22.65,9.13,32.14,17.82,18.11,16.55,26.73,39.61,25.53,62.34Z"/>
        <g id="Person">
          <path class="cls-7" d="M490.03,492.4v38.42c-26.29,17.11-60.8,17.07-87.16-.84v-37.58c0-10.93,7.03-20.61,17.87-26.61,3.99-2.21,8.49-3.92,13.35-5,.51-.12,1.04-.23,1.56-.33-7.24-4.53-12.16-13.47-12.16-23.77,0-14.87,10.28-26.92,22.96-26.92,1.52,0,3.01.17,4.45.5.8.18,1.58.41,2.34.69,9.37,3.4,16.18,13.64,16.18,25.73,0,10.3-4.93,19.24-12.17,23.77,18.85,3.64,32.78,16.56,32.78,31.94Z"/>
        </g>
        <g class="cls-8">
          <path class="cls-3" d="M525.8,468.89c-.92,17.59-7.72,34.99-20.54,49.01-4.62,5.05-9.75,9.36-15.23,12.92-26.29,17.11-60.8,17.07-87.16-.84-3.11-2.12-6.1-4.48-8.96-7.09-2.36-2.15-4.55-4.4-6.57-6.77-.72-.83-1.41-1.67-2.09-2.53-1.29-1.63-2.51-3.29-3.64-5-.39-.56-.76-1.14-1.13-1.71-6.19-9.76-10.04-20.61-11.52-31.74-.27-2.07-.46-4.13-.58-6.21h0c-.06-1.05-.09-2.09-.1-3.14,0-.23,0-.46,0-.69-.01-1.44.02-2.87.09-4.31.47-9.46,2.63-18.88,6.52-27.74,1.46-3.32,3.16-6.56,5.11-9.71.71-1.16,1.46-2.3,2.25-3.43,1.17-1.7,2.43-3.37,3.76-5,.93-1.14,1.9-2.27,2.91-3.37,8.69-9.5,19.16-16.39,30.43-20.62,15.6-5.85,32.74-6.62,48.79-2.19,11.6,3.21,22.65,9.13,32.14,17.82,18.11,16.55,26.73,39.61,25.53,62.34Z"/>
        </g>
        <path class="cls-2" d="M556.11,544.04l-3.62,3.95-22.2-20.29-5.52-5.04h0c1.78-2.38,3.43-4.83,4.95-7.32.31-.5.61-1.02.91-1.53,5.37-9.1,9.1-18.85,11.23-28.86,4.99-23.45,1.17-48.31-11.23-69.37-1.75-2.98-3.67-5.88-5.77-8.69-3.61-4.87-7.74-9.45-12.38-13.7-22.7-20.75-52.6-28.68-80.78-24.16-6.41,1.02-12.73,2.69-18.85,5-6.33,2.39-12.46,5.46-18.26,9.2-4.27,2.75-8.36,5.86-12.23,9.35-2.35,2.12-4.63,4.36-6.8,6.75-4.48,4.89-8.35,10.11-11.63,15.58-.99,1.65-1.93,3.31-2.8,5-.6,1.14-1.17,2.28-1.71,3.43-1.64,3.47-3.05,7-4.25,10.6-1.94,5.77-3.3,11.7-4.11,17.68-.42,3.05-.69,6.11-.81,9.17-.06,1.44-.09,2.87-.08,4.31,0,.23,0,.46,0,.69.03,3.4.25,6.79.64,10.16,1.24,10.65,4.24,21.12,8.98,30.93.27.57.56,1.14.84,1.71.86,1.69,1.77,3.36,2.73,5,.69,1.19,1.41,2.36,2.16,3.52,4.43,6.89,9.82,13.33,16.15,19.13,5.29,4.83,10.97,8.97,16.93,12.41,5.46,3.16,11.15,5.75,17,7.73.25.09.5.18.75.26,7.76,2.59,15.77,4.17,23.82,4.74,4.57.33,9.15.33,13.71,0,1.6-.1,3.2-.26,4.8-.46,9.32-1.11,18.49-3.59,27.21-7.4,9.26-4.03,18-9.58,25.83-16.61l19.77,18.07,7.95,7.26-3.62,3.96,143.4,131.1,20.26-22.17-143.39-131.09ZM505.26,517.9c-4.62,5.05-9.75,9.36-15.23,12.92-26.29,17.11-60.8,17.07-87.16-.84-3.11-2.12-6.1-4.48-8.96-7.09-2.36-2.15-4.55-4.4-6.57-6.77-.72-.83-1.41-1.67-2.09-2.53-1.29-1.63-2.51-3.29-3.64-5-.39-.56-.76-1.14-1.13-1.71-6.19-9.76-10.04-20.61-11.52-31.74-.27-2.07-.46-4.13-.58-6.21h0c-.06-1.05-.09-2.09-.1-3.14,0-.23,0-.46,0-.69-.01-1.44.02-2.87.09-4.31.47-9.46,2.63-18.88,6.52-27.74,1.46-3.32,3.16-6.56,5.11-9.71.71-1.16,1.46-2.3,2.25-3.43,1.17-1.7,2.43-3.37,3.76-5,.93-1.14,1.9-2.27,2.91-3.37,8.69-9.5,19.16-16.39,30.43-20.62,15.6-5.85,32.74-6.62,48.79-2.19,11.6,3.21,22.65,9.13,32.14,17.82,18.11,16.55,26.73,39.61,25.53,62.34-.92,17.59-7.72,34.99-20.54,49.01Z"/>
      </g>
    </g>
  </g>
</svg>