<?xml version="1.0" encoding="UTF-8"?>
<svg id="Nachbau" xmlns="http://www.w3.org/2000/svg" viewBox="0 0 800 800">
  <defs>
    <style>
      .cls-1 {
        fill: #206289;
      }

      .cls-1, .cls-2, .cls-3, .cls-4 {
        stroke-width: 0px;
      }

      .cls-2 {
        fill: #dddddc;
      }

      .cls-3 {
        fill: #64abd6;
      }

      .cls-4 {
        fill: #73bbe7;
      }
    </style>
  </defs>
  <g id="G-0133_BUW_Icon_Symbol_Qualität">
    <g id="Qualität">
      <g id="Schleife">
        <path class="cls-3" d="M527.57,644.42l-51.26-28.3-29.6,49.97c-10.45-39.01-20.9-78.03-31.36-117.04h.01l-20.33-75.86-10.39,38.76-4.81,17.96-26.55,99.07-30.24-50.14-50.62,28.48c8.85-33.02,17.7-66.05,26.55-99.08l4.81-17.96,17.91-66.84,10.75,12.95c5.13,6.18,11.81,10.3,19,12.32,7.14,2.59,15.1,3.1,22.94.96l22.86-6.2,22.56,7.14c7.67,2.43,15.59,2.29,22.76.05,7.37-1.69,14.28-5.57,19.68-11.55l7.96-8.8,26.01,97.08,4.81,17.96,26.55,99.07Z"/>
        <path class="cls-4" d="M557.36,298.4l-9.39-21.74,3.85-23.33c1.31-7.92.06-15.69-3.15-22.47-.01-.02-.01-.05-.03-.06-2.73-7.05-7.54-13.35-14.25-17.87l-19.64-13.2-9.38-21.73c-3.22-7.47-8.58-13.4-15.06-17.36-6.06-4.39-13.45-7.02-21.44-7.19l-23.66-.49-19.64-13.21c-6.68-4.5-14.31-6.58-21.83-6.46-7.54-.45-15.27,1.32-22.16,5.53l-20.19,12.39-23.64-.49c-8.01-.18-15.5,2.16-21.75,6.29-.03.01-.07.04-.12.07-6.58,3.69-12.12,9.35-15.63,16.63l-10.27,21.31-20.19,12.39c-6.82,4.19-11.88,10.21-14.88,17.07-3.58,6.7-5.2,14.5-4.22,22.56l2.88,23.5-10.27,21.31c-3.49,7.23-4.47,15.05-3.3,22.46v.07c.64,7.52,3.49,14.92,8.64,21.13l15.13,18.2,2.87,23.51c.99,8.01,4.42,15.15,9.47,20.77,4.59,5.97,10.97,10.63,18.65,13.06l22.56,7.13,4.37,5.26,10.75,12.95c5.13,6.18,11.81,10.3,19,12.32,7.14,2.59,15.1,3.1,22.94.96l22.86-6.2,22.56,7.14c7.67,2.43,15.59,2.29,22.76.05,7.37-1.69,14.28-5.57,19.68-11.55l7.96-8.8,7.91-8.75,22.86-6.2c7.83-2.12,14.45-6.58,19.3-12.42,5.2-5.37,8.88-12.32,10.19-20.22l3.86-23.36,15.86-17.56c5.42-5.98,8.57-13.26,9.5-20.74,1.51-7.38.87-15.27-2.32-22.66ZM514.13,309.09c-.23,1.69-.51,3.34-.81,5-3.82,20.45-13.03,39-26.11,54.12-1.1,1.28-2.23,2.53-3.39,3.75-7.09,7.5-15.17,14.05-24.05,19.43-8.4,5.12-17.51,9.17-27.14,12-1.63.5-3.28.95-4.94,1.34-8.88,2.19-18.14,3.35-27.69,3.35-11.23,0-22.09-1.61-32.35-4.6-1.65-.48-3.28-.99-4.89-1.54-11.2-3.82-21.63-9.32-30.97-16.19-6.91-5.08-13.23-10.91-18.84-17.36-1.1-1.27-2.18-2.56-3.21-3.87-12.42-15.6-20.87-34.5-23.84-55.15-.24-1.67-.45-3.37-.62-5.07-.38-3.78-.57-7.61-.57-11.49,0-17.02,3.69-33.19,10.33-47.75.71-1.57,1.45-3.12,2.24-4.64,9.28-18.16,23.22-33.53,40.26-44.54,1.43-.92,2.88-1.8,4.35-2.67,17.03-9.95,36.85-15.68,58-15.69h.11c1.66,0,3.3.03,4.93.12,21.04.87,40.63,7.39,57.27,18.08,1.44.93,2.86,1.87,4.26,2.86,16.51,11.68,29.83,27.6,38.36,46.18.71,1.55,1.39,3.12,2.03,4.72,5.44,13.38,8.43,28,8.43,43.33,0,5.53-.39,10.97-1.15,16.28Z"/>
        <path class="cls-2" d="M515.28,292.81c0,5.53-.39,10.97-1.15,16.28-.23,1.69-.51,3.34-.81,5-3.82,20.45-13.03,39-26.11,54.12-1.1,1.28-2.23,2.53-3.39,3.75-7.09,7.5-15.17,14.05-24.05,19.43-8.4,5.12-17.51,9.17-27.14,12-1.63.5-3.28.95-4.94,1.34-8.88,2.19-18.14,3.35-27.69,3.35-11.23,0-22.09-1.61-32.35-4.6-1.65-.48-3.28-.99-4.89-1.54-11.2-3.82-21.63-9.32-30.97-16.19-6.91-5.08-13.23-10.91-18.84-17.36-1.1-1.27-2.18-2.56-3.21-3.87-12.42-15.6-20.87-34.5-23.84-55.15-.24-1.67-.45-3.37-.62-5.07-.38-3.78-.57-7.61-.57-11.49,0-17.02,3.69-33.19,10.33-47.75.71-1.57,1.45-3.12,2.24-4.64,9.28-18.16,23.22-33.53,40.26-44.54,1.43-.92,2.88-1.8,4.35-2.67,17.03-9.95,36.85-15.68,58-15.69h.11c1.66,0,3.3.03,4.93.12,21.04.87,40.63,7.39,57.27,18.08,1.44.93,2.86,1.87,4.26,2.86,16.51,11.68,29.83,27.6,38.36,46.18.71,1.55,1.39,3.12,2.03,4.72,5.44,13.38,8.43,28,8.43,43.33Z"/>
      </g>
      <g id="Check">
        <polygon class="cls-1" points="481.11 250.37 386.14 345.34 368.39 363.09 308.8 303.5 326.55 285.74 368.39 327.58 463.35 232.61 481.11 250.37"/>
      </g>
    </g>
  </g>
</svg>