<?xml version="1.0" encoding="UTF-8"?>
<svg id="Musthave" xmlns="http://www.w3.org/2000/svg" viewBox="0 0 800 800">
  <defs>
    <style>
      .cls-1 {
        fill: #308fc9;
      }

      .cls-1, .cls-2, .cls-3, .cls-4, .cls-5 {
        stroke-width: 0px;
      }

      .cls-2 {
        fill: #206289;
      }

      .cls-3 {
        fill: #dddddc;
      }

      .cls-4 {
        fill: #73bbe7;
      }

      .cls-5 {
        fill: #b9ddf3;
      }
    </style>
  </defs>
  <g id="G-0126_BUW_Icon_digitale_Daten">
    <g id="Digitale_Daten" data-name="Digitale Daten">
      <g id="PC">
        <path class="cls-4" d="M91.26,165.54v445.95h617.48V165.54H91.26ZM110.31,534.04V185.45h579.38v348.59H110.31Z"/>
        <path class="cls-1" d="M622.91,700.61H180.56c0-10.25,4.15-19.52,10.87-26.23,6.71-6.72,15.98-10.87,26.22-10.87h130.15v-52.2h103.03v52.2h134.99c20.48,0,37.09,16.61,37.09,37.1Z"/>
        <rect class="cls-3" x="110.31" y="185.45" width="579.39" height="348.59"/>
      </g>
      <g>
        <path class="cls-4" d="M135.7,215.81l1.85-8.75c8.45-3.69,14.99-7.99,19.62-12.89h5.98l-10.56,50.42h-9.88l7.28-34.73c-2.05,1.32-4.42,2.53-7.09,3.62-2.68,1.09-5.08,1.87-7.19,2.32Z"/>
        <path class="cls-4" d="M177.84,228.29c0-5.04.85-10.14,2.56-15.31,2.1-6.31,4.79-11.01,8.07-14.08s6.93-4.61,10.94-4.61,7.39,1.47,10,4.41c2.61,2.94,3.91,7.21,3.91,12.82,0,5.13-.95,10.54-2.85,16.25-1.9,5.71-4.47,10.08-7.71,13.12-3.24,3.04-6.88,4.56-10.94,4.56s-7.4-1.47-10.03-4.41-3.95-7.19-3.95-12.75ZM187.48,230.27c0,2.69.43,4.58,1.3,5.67.87,1.09,1.98,1.64,3.35,1.64,1.82,0,3.44-.84,4.85-2.53,1.89-2.26,3.57-6.7,5.02-13.33,1.16-5.26,1.74-9.43,1.74-12.51,0-2.51-.44-4.31-1.32-5.42-.88-1.1-2-1.66-3.37-1.66-1.73,0-3.27.83-4.61,2.5-1.98,2.42-3.69,6.67-5.13,12.75-1.23,5.26-1.85,9.56-1.85,12.89Z"/>
        <path class="cls-4" d="M223.77,228.29c0-5.04.85-10.14,2.56-15.31,2.1-6.31,4.79-11.01,8.07-14.08s6.93-4.61,10.94-4.61,7.39,1.47,10,4.41c2.61,2.94,3.91,7.21,3.91,12.82,0,5.13-.95,10.54-2.85,16.25-1.9,5.71-4.47,10.08-7.71,13.12-3.24,3.04-6.88,4.56-10.94,4.56s-7.4-1.47-10.03-4.41-3.95-7.19-3.95-12.75ZM233.41,230.27c0,2.69.43,4.58,1.3,5.67.87,1.09,1.98,1.64,3.35,1.64,1.82,0,3.44-.84,4.85-2.53,1.89-2.26,3.57-6.7,5.02-13.33,1.16-5.26,1.74-9.43,1.74-12.51,0-2.51-.44-4.31-1.32-5.42-.88-1.1-2-1.66-3.37-1.66-1.73,0-3.27.83-4.61,2.5-1.98,2.42-3.69,6.67-5.13,12.75-1.23,5.26-1.85,9.56-1.85,12.89Z"/>
        <path class="cls-4" d="M273.49,215.81l1.85-8.75c8.45-3.69,14.99-7.99,19.62-12.89h5.98l-10.56,50.42h-9.88l7.28-34.73c-2.05,1.32-4.42,2.53-7.09,3.62-2.68,1.09-5.08,1.87-7.19,2.32Z"/>
        <path class="cls-4" d="M315.63,228.29c0-5.04.85-10.14,2.56-15.31,2.1-6.31,4.79-11.01,8.07-14.08s6.93-4.61,10.94-4.61,7.39,1.47,10,4.41c2.61,2.94,3.91,7.21,3.91,12.82,0,5.13-.95,10.54-2.85,16.25-1.9,5.71-4.47,10.08-7.71,13.12-3.24,3.04-6.88,4.56-10.94,4.56s-7.4-1.47-10.03-4.41-3.95-7.19-3.95-12.75ZM325.27,230.27c0,2.69.43,4.58,1.3,5.67.87,1.09,1.98,1.64,3.35,1.64,1.82,0,3.44-.84,4.85-2.53,1.89-2.26,3.57-6.7,5.02-13.33,1.16-5.26,1.74-9.43,1.74-12.51,0-2.51-.44-4.31-1.32-5.42-.88-1.1-2-1.66-3.37-1.66-1.73,0-3.27.83-4.61,2.5-1.98,2.42-3.69,6.67-5.13,12.75-1.23,5.26-1.85,9.56-1.85,12.89Z"/>
        <path class="cls-4" d="M365.36,215.81l1.85-8.75c8.45-3.69,14.99-7.99,19.62-12.89h5.98l-10.56,50.42h-9.88l7.28-34.73c-2.05,1.32-4.42,2.53-7.09,3.62-2.68,1.09-5.08,1.87-7.19,2.32Z"/>
        <path class="cls-4" d="M406.09,215.81l1.85-8.75c8.45-3.69,14.99-7.99,19.62-12.89h5.98l-10.56,50.42h-9.88l7.28-34.73c-2.05,1.32-4.42,2.53-7.09,3.62-2.68,1.09-5.08,1.87-7.19,2.32Z"/>
        <path class="cls-4" d="M448.23,228.29c0-5.04.85-10.14,2.56-15.31,2.1-6.31,4.79-11.01,8.07-14.08s6.93-4.61,10.94-4.61,7.39,1.47,10,4.41c2.61,2.94,3.91,7.21,3.91,12.82,0,5.13-.95,10.54-2.85,16.25-1.9,5.71-4.47,10.08-7.71,13.12-3.24,3.04-6.88,4.56-10.94,4.56s-7.4-1.47-10.03-4.41-3.95-7.19-3.95-12.75ZM457.87,230.27c0,2.69.43,4.58,1.3,5.67.87,1.09,1.98,1.64,3.35,1.64,1.82,0,3.44-.84,4.85-2.53,1.89-2.26,3.57-6.7,5.02-13.33,1.16-5.26,1.74-9.43,1.74-12.51,0-2.51-.44-4.31-1.32-5.42-.88-1.1-2-1.66-3.37-1.66-1.73,0-3.27.83-4.61,2.5-1.98,2.42-3.69,6.67-5.13,12.75-1.23,5.26-1.85,9.56-1.85,12.89Z"/>
        <path class="cls-4" d="M494.16,228.29c0-5.04.85-10.14,2.56-15.31,2.1-6.31,4.79-11.01,8.07-14.08s6.93-4.61,10.94-4.61,7.39,1.47,10,4.41c2.61,2.94,3.91,7.21,3.91,12.82,0,5.13-.95,10.54-2.85,16.25-1.9,5.71-4.47,10.08-7.71,13.12-3.24,3.04-6.88,4.56-10.94,4.56s-7.4-1.47-10.03-4.41-3.95-7.19-3.95-12.75ZM503.8,230.27c0,2.69.43,4.58,1.3,5.67.87,1.09,1.98,1.64,3.35,1.64,1.82,0,3.44-.84,4.85-2.53,1.89-2.26,3.57-6.7,5.02-13.33,1.16-5.26,1.74-9.43,1.74-12.51,0-2.51-.44-4.31-1.32-5.42-.88-1.1-2-1.66-3.37-1.66-1.73,0-3.27.83-4.61,2.5-1.98,2.42-3.69,6.67-5.13,12.75-1.23,5.26-1.85,9.56-1.85,12.89Z"/>
        <path class="cls-4" d="M543.88,215.81l1.85-8.75c8.45-3.69,14.99-7.99,19.62-12.89h5.98l-10.56,50.42h-9.88l7.28-34.73c-2.05,1.32-4.42,2.53-7.09,3.62-2.68,1.09-5.08,1.87-7.19,2.32Z"/>
        <path class="cls-4" d="M586.02,228.29c0-5.04.85-10.14,2.56-15.31,2.1-6.31,4.79-11.01,8.07-14.08s6.93-4.61,10.94-4.61,7.39,1.47,10,4.41c2.61,2.94,3.91,7.21,3.91,12.82,0,5.13-.95,10.54-2.85,16.25-1.9,5.71-4.47,10.08-7.71,13.12-3.24,3.04-6.88,4.56-10.94,4.56s-7.4-1.47-10.03-4.41-3.95-7.19-3.95-12.75ZM595.66,230.27c0,2.69.43,4.58,1.3,5.67.87,1.09,1.98,1.64,3.35,1.64,1.82,0,3.44-.84,4.85-2.53,1.89-2.26,3.57-6.7,5.02-13.33,1.16-5.26,1.74-9.43,1.74-12.51,0-2.51-.44-4.31-1.32-5.42-.88-1.1-2-1.66-3.37-1.66-1.73,0-3.27.83-4.61,2.5-1.98,2.42-3.69,6.67-5.13,12.75-1.23,5.26-1.85,9.56-1.85,12.89Z"/>
        <path class="cls-4" d="M635.74,215.81l1.85-8.75c8.45-3.69,14.99-7.99,19.62-12.89h5.98l-10.56,50.42h-9.88l7.28-34.73c-2.05,1.32-4.42,2.53-7.09,3.62-2.68,1.09-5.08,1.87-7.19,2.32Z"/>
        <path class="cls-4" d="M131.91,298.29c0-5.04.85-10.14,2.56-15.31,2.1-6.31,4.79-11.01,8.07-14.08s6.93-4.61,10.94-4.61,7.39,1.47,10,4.41c2.61,2.94,3.91,7.21,3.91,12.82,0,5.13-.95,10.54-2.85,16.25-1.9,5.71-4.47,10.08-7.71,13.12-3.24,3.04-6.88,4.56-10.94,4.56s-7.4-1.47-10.03-4.41-3.95-7.19-3.95-12.75ZM141.55,300.27c0,2.69.43,4.58,1.3,5.67.87,1.09,1.98,1.64,3.35,1.64,1.82,0,3.44-.84,4.85-2.53,1.89-2.26,3.57-6.7,5.02-13.33,1.16-5.26,1.74-9.43,1.74-12.51,0-2.51-.44-4.31-1.32-5.42-.88-1.1-2-1.66-3.37-1.66-1.73,0-3.27.83-4.61,2.5-1.98,2.42-3.69,6.67-5.13,12.75-1.23,5.26-1.85,9.56-1.85,12.89Z"/>
        <path class="cls-4" d="M181.63,285.81l1.85-8.75c8.45-3.69,14.99-7.99,19.62-12.89h5.98l-10.56,50.42h-9.88l7.28-34.73c-2.05,1.32-4.42,2.53-7.09,3.62-2.68,1.09-5.08,1.87-7.19,2.32Z"/>
        <path class="cls-4" d="M223.77,298.29c0-5.04.85-10.14,2.56-15.31,2.1-6.31,4.79-11.01,8.07-14.08s6.93-4.61,10.94-4.61,7.39,1.47,10,4.41c2.61,2.94,3.91,7.21,3.91,12.82,0,5.13-.95,10.54-2.85,16.25-1.9,5.71-4.47,10.08-7.71,13.12-3.24,3.04-6.88,4.56-10.94,4.56s-7.4-1.47-10.03-4.41-3.95-7.19-3.95-12.75ZM233.41,300.27c0,2.69.43,4.58,1.3,5.67.87,1.09,1.98,1.64,3.35,1.64,1.82,0,3.44-.84,4.85-2.53,1.89-2.26,3.57-6.7,5.02-13.33,1.16-5.26,1.74-9.43,1.74-12.51,0-2.51-.44-4.31-1.32-5.42-.88-1.1-2-1.66-3.37-1.66-1.73,0-3.27.83-4.61,2.5-1.98,2.42-3.69,6.67-5.13,12.75-1.23,5.26-1.85,9.56-1.85,12.89Z"/>
        <path class="cls-4" d="M269.7,298.29c0-5.04.85-10.14,2.56-15.31,2.1-6.31,4.79-11.01,8.07-14.08s6.93-4.61,10.94-4.61,7.39,1.47,10,4.41c2.61,2.94,3.91,7.21,3.91,12.82,0,5.13-.95,10.54-2.85,16.25-1.9,5.71-4.47,10.08-7.71,13.12-3.24,3.04-6.88,4.56-10.94,4.56s-7.4-1.47-10.03-4.41-3.95-7.19-3.95-12.75ZM279.34,300.27c0,2.69.43,4.58,1.3,5.67.87,1.09,1.98,1.64,3.35,1.64,1.82,0,3.44-.84,4.85-2.53,1.89-2.26,3.57-6.7,5.02-13.33,1.16-5.26,1.74-9.43,1.74-12.51,0-2.51-.44-4.31-1.32-5.42-.88-1.1-2-1.66-3.37-1.66-1.73,0-3.27.83-4.61,2.5-1.98,2.42-3.69,6.67-5.13,12.75-1.23,5.26-1.85,9.56-1.85,12.89Z"/>
        <path class="cls-4" d="M319.42,285.81l1.85-8.75c8.45-3.69,14.99-7.99,19.62-12.89h5.98l-10.56,50.42h-9.88l7.28-34.73c-2.05,1.32-4.42,2.53-7.09,3.62-2.68,1.09-5.08,1.87-7.19,2.32Z"/>
        <path class="cls-4" d="M360.16,285.81l1.85-8.75c8.45-3.69,14.99-7.99,19.62-12.89h5.98l-10.56,50.42h-9.88l7.28-34.73c-2.05,1.32-4.42,2.53-7.09,3.62-2.68,1.09-5.08,1.87-7.19,2.32Z"/>
        <path class="cls-4" d="M402.3,298.29c0-5.04.85-10.14,2.56-15.31,2.1-6.31,4.79-11.01,8.07-14.08s6.93-4.61,10.94-4.61,7.39,1.47,10,4.41c2.61,2.94,3.91,7.21,3.91,12.82,0,5.13-.95,10.54-2.85,16.25-1.9,5.71-4.47,10.08-7.71,13.12-3.24,3.04-6.88,4.56-10.94,4.56s-7.4-1.47-10.03-4.41-3.95-7.19-3.95-12.75ZM411.94,300.27c0,2.69.43,4.58,1.3,5.67.87,1.09,1.98,1.64,3.35,1.64,1.82,0,3.44-.84,4.85-2.53,1.89-2.26,3.57-6.7,5.02-13.33,1.16-5.26,1.74-9.43,1.74-12.51,0-2.51-.44-4.31-1.32-5.42-.88-1.1-2-1.66-3.37-1.66-1.73,0-3.27.83-4.61,2.5-1.98,2.42-3.69,6.67-5.13,12.75-1.23,5.26-1.85,9.56-1.85,12.89Z"/>
        <path class="cls-4" d="M448.23,298.29c0-5.04.85-10.14,2.56-15.31,2.1-6.31,4.79-11.01,8.07-14.08s6.93-4.61,10.94-4.61,7.39,1.47,10,4.41c2.61,2.94,3.91,7.21,3.91,12.82,0,5.13-.95,10.54-2.85,16.25-1.9,5.71-4.47,10.08-7.71,13.12-3.24,3.04-6.88,4.56-10.94,4.56s-7.4-1.47-10.03-4.41-3.95-7.19-3.95-12.75ZM457.87,300.27c0,2.69.43,4.58,1.3,5.67.87,1.09,1.98,1.64,3.35,1.64,1.82,0,3.44-.84,4.85-2.53,1.89-2.26,3.57-6.7,5.02-13.33,1.16-5.26,1.74-9.43,1.74-12.51,0-2.51-.44-4.31-1.32-5.42-.88-1.1-2-1.66-3.37-1.66-1.73,0-3.27.83-4.61,2.5-1.98,2.42-3.69,6.67-5.13,12.75-1.23,5.26-1.85,9.56-1.85,12.89Z"/>
        <path class="cls-4" d="M497.95,285.81l1.85-8.75c8.45-3.69,14.99-7.99,19.62-12.89h5.98l-10.56,50.42h-9.88l7.28-34.73c-2.05,1.32-4.42,2.53-7.09,3.62-2.68,1.09-5.08,1.87-7.19,2.32Z"/>
        <path class="cls-4" d="M540.09,298.29c0-5.04.85-10.14,2.56-15.31,2.1-6.31,4.79-11.01,8.07-14.08s6.93-4.61,10.94-4.61,7.39,1.47,10,4.41c2.61,2.94,3.91,7.21,3.91,12.82,0,5.13-.95,10.54-2.85,16.25-1.9,5.71-4.47,10.08-7.71,13.12-3.24,3.04-6.88,4.56-10.94,4.56s-7.4-1.47-10.03-4.41-3.95-7.19-3.95-12.75ZM549.73,300.27c0,2.69.43,4.58,1.3,5.67.87,1.09,1.98,1.64,3.35,1.64,1.82,0,3.44-.84,4.85-2.53,1.89-2.26,3.57-6.7,5.02-13.33,1.16-5.26,1.74-9.43,1.74-12.51,0-2.51-.44-4.31-1.32-5.42-.88-1.1-2-1.66-3.37-1.66-1.73,0-3.27.83-4.61,2.5-1.98,2.42-3.69,6.67-5.13,12.75-1.23,5.26-1.85,9.56-1.85,12.89Z"/>
        <path class="cls-4" d="M586.02,298.29c0-5.04.85-10.14,2.56-15.31,2.1-6.31,4.79-11.01,8.07-14.08s6.93-4.61,10.94-4.61,7.39,1.47,10,4.41c2.61,2.94,3.91,7.21,3.91,12.82,0,5.13-.95,10.54-2.85,16.25-1.9,5.71-4.47,10.08-7.71,13.12-3.24,3.04-6.88,4.56-10.94,4.56s-7.4-1.47-10.03-4.41-3.95-7.19-3.95-12.75ZM595.66,300.27c0,2.69.43,4.58,1.3,5.67.87,1.09,1.98,1.64,3.35,1.64,1.82,0,3.44-.84,4.85-2.53,1.89-2.26,3.57-6.7,5.02-13.33,1.16-5.26,1.74-9.43,1.74-12.51,0-2.51-.44-4.31-1.32-5.42-.88-1.1-2-1.66-3.37-1.66-1.73,0-3.27.83-4.61,2.5-1.98,2.42-3.69,6.67-5.13,12.75-1.23,5.26-1.85,9.56-1.85,12.89Z"/>
        <path class="cls-4" d="M635.74,285.81l1.85-8.75c8.45-3.69,14.99-7.99,19.62-12.89h5.98l-10.56,50.42h-9.88l7.28-34.73c-2.05,1.32-4.42,2.53-7.09,3.62-2.68,1.09-5.08,1.87-7.19,2.32Z"/>
        <path class="cls-4" d="M407.49,368.29c0-5.04.85-10.14,2.56-15.31,2.1-6.31,4.79-11.01,8.07-14.08s6.93-4.61,10.94-4.61,7.39,1.47,10,4.41c2.61,2.94,3.91,7.21,3.91,12.82,0,5.13-.95,10.54-2.85,16.25-1.9,5.71-4.47,10.08-7.71,13.12-3.24,3.04-6.88,4.56-10.94,4.56s-7.4-1.47-10.03-4.41-3.95-7.19-3.95-12.75ZM417.13,370.27c0,2.69.43,4.58,1.3,5.67.87,1.09,1.98,1.64,3.35,1.64,1.82,0,3.44-.84,4.85-2.53,1.89-2.26,3.57-6.7,5.02-13.33,1.16-5.26,1.74-9.43,1.74-12.51,0-2.51-.44-4.31-1.32-5.42-.88-1.1-2-1.66-3.37-1.66-1.73,0-3.27.83-4.61,2.5-1.98,2.42-3.69,6.67-5.13,12.75-1.23,5.26-1.85,9.56-1.85,12.89Z"/>
        <path class="cls-4" d="M457.22,355.81l1.85-8.75c8.45-3.69,14.99-7.99,19.62-12.89h5.98l-10.56,50.42h-9.88l7.28-34.73c-2.05,1.32-4.42,2.53-7.09,3.62-2.68,1.09-5.08,1.87-7.19,2.32Z"/>
        <path class="cls-4" d="M499.35,368.29c0-5.04.85-10.14,2.56-15.31,2.1-6.31,4.79-11.01,8.07-14.08s6.93-4.61,10.94-4.61,7.39,1.47,10,4.41c2.61,2.94,3.91,7.21,3.91,12.82,0,5.13-.95,10.54-2.85,16.25-1.9,5.71-4.47,10.08-7.71,13.12-3.24,3.04-6.88,4.56-10.94,4.56s-7.4-1.47-10.03-4.41-3.95-7.19-3.95-12.75ZM508.99,370.27c0,2.69.43,4.58,1.3,5.67.87,1.09,1.98,1.64,3.35,1.64,1.82,0,3.44-.84,4.85-2.53,1.89-2.26,3.57-6.7,5.02-13.33,1.16-5.26,1.74-9.43,1.74-12.51,0-2.51-.44-4.31-1.32-5.42-.88-1.1-2-1.66-3.37-1.66-1.73,0-3.27.83-4.61,2.5-1.98,2.42-3.69,6.67-5.13,12.75-1.23,5.26-1.85,9.56-1.85,12.89Z"/>
        <path class="cls-4" d="M545.28,368.29c0-5.04.85-10.14,2.56-15.31,2.1-6.31,4.79-11.01,8.07-14.08s6.93-4.61,10.94-4.61,7.39,1.47,10,4.41c2.61,2.94,3.91,7.21,3.91,12.82,0,5.13-.95,10.54-2.85,16.25-1.9,5.71-4.47,10.08-7.71,13.12-3.24,3.04-6.88,4.56-10.94,4.56s-7.4-1.47-10.03-4.41-3.95-7.19-3.95-12.75ZM554.92,370.27c0,2.69.43,4.58,1.3,5.67.87,1.09,1.98,1.64,3.35,1.64,1.82,0,3.44-.84,4.85-2.53,1.89-2.26,3.57-6.7,5.02-13.33,1.16-5.26,1.74-9.43,1.74-12.51,0-2.51-.44-4.31-1.32-5.42-.88-1.1-2-1.66-3.37-1.66-1.73,0-3.27.83-4.61,2.5-1.98,2.42-3.69,6.67-5.13,12.75-1.23,5.26-1.85,9.56-1.85,12.89Z"/>
        <path class="cls-4" d="M595.01,355.81l1.85-8.75c8.45-3.69,14.99-7.99,19.62-12.89h5.98l-10.56,50.42h-9.88l7.28-34.73c-2.05,1.32-4.42,2.53-7.09,3.62-2.68,1.09-5.08,1.87-7.19,2.32Z"/>
        <path class="cls-4" d="M637.15,368.29c0-5.04.85-10.14,2.56-15.31,2.1-6.31,4.79-11.01,8.07-14.08s6.93-4.61,10.94-4.61,7.39,1.47,10,4.41c2.61,2.94,3.91,7.21,3.91,12.82,0,5.13-.95,10.54-2.85,16.25-1.9,5.71-4.47,10.08-7.71,13.12-3.24,3.04-6.88,4.56-10.94,4.56s-7.4-1.47-10.03-4.41-3.95-7.19-3.95-12.75ZM646.78,370.27c0,2.69.43,4.58,1.3,5.67.87,1.09,1.98,1.64,3.35,1.64,1.82,0,3.44-.84,4.85-2.53,1.89-2.26,3.57-6.7,5.02-13.33,1.16-5.26,1.74-9.43,1.74-12.51,0-2.51-.44-4.31-1.32-5.42-.88-1.1-2-1.66-3.37-1.66-1.73,0-3.27.83-4.61,2.5-1.98,2.42-3.69,6.67-5.13,12.75-1.23,5.26-1.85,9.56-1.85,12.89Z"/>
        <path class="cls-4" d="M406.09,425.81l1.85-8.75c8.45-3.69,14.99-7.99,19.62-12.89h5.98l-10.56,50.42h-9.88l7.28-34.73c-2.05,1.32-4.42,2.53-7.09,3.62-2.68,1.09-5.08,1.87-7.19,2.32Z"/>
        <path class="cls-4" d="M448.23,438.29c0-5.04.85-10.14,2.56-15.31,2.1-6.31,4.79-11.01,8.07-14.08s6.93-4.61,10.94-4.61,7.39,1.47,10,4.41c2.61,2.94,3.91,7.21,3.91,12.82,0,5.13-.95,10.54-2.85,16.25-1.9,5.71-4.47,10.08-7.71,13.12-3.24,3.04-6.88,4.56-10.94,4.56s-7.4-1.47-10.03-4.41-3.95-7.19-3.95-12.75ZM457.87,440.27c0,2.69.43,4.58,1.3,5.67.87,1.09,1.98,1.64,3.35,1.64,1.82,0,3.44-.84,4.85-2.53,1.89-2.26,3.57-6.7,5.02-13.33,1.16-5.26,1.74-9.43,1.74-12.51,0-2.51-.44-4.31-1.32-5.42-.88-1.1-2-1.66-3.37-1.66-1.73,0-3.27.83-4.61,2.5-1.98,2.42-3.69,6.67-5.13,12.75-1.23,5.26-1.85,9.56-1.85,12.89Z"/>
        <path class="cls-4" d="M494.16,438.29c0-5.04.85-10.14,2.56-15.31,2.1-6.31,4.79-11.01,8.07-14.08s6.93-4.61,10.94-4.61,7.39,1.47,10,4.41c2.61,2.94,3.91,7.21,3.91,12.82,0,5.13-.95,10.54-2.85,16.25-1.9,5.71-4.47,10.08-7.71,13.12-3.24,3.04-6.88,4.56-10.94,4.56s-7.4-1.47-10.03-4.41-3.95-7.19-3.95-12.75ZM503.8,440.27c0,2.69.43,4.58,1.3,5.67.87,1.09,1.98,1.64,3.35,1.64,1.82,0,3.44-.84,4.85-2.53,1.89-2.26,3.57-6.7,5.02-13.33,1.16-5.26,1.74-9.43,1.74-12.51,0-2.51-.44-4.31-1.32-5.42-.88-1.1-2-1.66-3.37-1.66-1.73,0-3.27.83-4.61,2.5-1.98,2.42-3.69,6.67-5.13,12.75-1.23,5.26-1.85,9.56-1.85,12.89Z"/>
        <path class="cls-4" d="M543.88,425.81l1.85-8.75c8.45-3.69,14.99-7.99,19.62-12.89h5.98l-10.56,50.42h-9.88l7.28-34.73c-2.05,1.32-4.42,2.53-7.09,3.62-2.68,1.09-5.08,1.87-7.19,2.32Z"/>
        <path class="cls-4" d="M586.02,438.29c0-5.04.85-10.14,2.56-15.31,2.1-6.31,4.79-11.01,8.07-14.08s6.93-4.61,10.94-4.61,7.39,1.47,10,4.41c2.61,2.94,3.91,7.21,3.91,12.82,0,5.13-.95,10.54-2.85,16.25-1.9,5.71-4.47,10.08-7.71,13.12-3.24,3.04-6.88,4.56-10.94,4.56s-7.4-1.47-10.03-4.41-3.95-7.19-3.95-12.75ZM595.66,440.27c0,2.69.43,4.58,1.3,5.67.87,1.09,1.98,1.64,3.35,1.64,1.82,0,3.44-.84,4.85-2.53,1.89-2.26,3.57-6.7,5.02-13.33,1.16-5.26,1.74-9.43,1.74-12.51,0-2.51-.44-4.31-1.32-5.42-.88-1.1-2-1.66-3.37-1.66-1.73,0-3.27.83-4.61,2.5-1.98,2.42-3.69,6.67-5.13,12.75-1.23,5.26-1.85,9.56-1.85,12.89Z"/>
        <path class="cls-4" d="M631.95,438.29c0-5.04.85-10.14,2.56-15.31,2.1-6.31,4.79-11.01,8.07-14.08s6.93-4.61,10.94-4.61,7.39,1.47,10,4.41c2.61,2.94,3.91,7.21,3.91,12.82,0,5.13-.95,10.54-2.85,16.25-1.9,5.71-4.47,10.08-7.71,13.12-3.24,3.04-6.88,4.56-10.94,4.56s-7.4-1.47-10.03-4.41-3.95-7.19-3.95-12.75ZM641.59,440.27c0,2.69.43,4.58,1.3,5.67.87,1.09,1.98,1.64,3.35,1.64,1.82,0,3.44-.84,4.85-2.53,1.89-2.26,3.57-6.7,5.02-13.33,1.16-5.26,1.74-9.43,1.74-12.51,0-2.51-.44-4.31-1.32-5.42-.88-1.1-2-1.66-3.37-1.66-1.73,0-3.27.83-4.61,2.5-1.98,2.42-3.69,6.67-5.13,12.75-1.23,5.26-1.85,9.56-1.85,12.89Z"/>
        <path class="cls-4" d="M411.29,495.81l1.85-8.75c8.45-3.69,14.99-7.99,19.62-12.89h5.98l-10.56,50.42h-9.88l7.28-34.73c-2.05,1.32-4.42,2.53-7.09,3.62-2.68,1.09-5.08,1.87-7.19,2.32Z"/>
        <path class="cls-4" d="M453.42,508.29c0-5.04.85-10.14,2.56-15.31,2.1-6.31,4.79-11.01,8.07-14.08s6.93-4.61,10.94-4.61,7.39,1.47,10,4.41c2.61,2.94,3.91,7.21,3.91,12.82,0,5.13-.95,10.54-2.85,16.25-1.9,5.71-4.47,10.08-7.71,13.12-3.24,3.04-6.88,4.56-10.94,4.56s-7.4-1.47-10.03-4.41-3.95-7.19-3.95-12.75ZM463.06,510.27c0,2.69.43,4.58,1.3,5.67.87,1.09,1.98,1.64,3.35,1.64,1.82,0,3.44-.84,4.85-2.53,1.89-2.26,3.57-6.7,5.02-13.33,1.16-5.26,1.74-9.43,1.74-12.51,0-2.51-.44-4.31-1.32-5.42-.88-1.1-2-1.66-3.37-1.66-1.73,0-3.27.83-4.61,2.5-1.98,2.42-3.69,6.67-5.13,12.75-1.23,5.26-1.85,9.56-1.85,12.89Z"/>
        <path class="cls-4" d="M503.15,495.81l1.85-8.75c8.45-3.69,14.99-7.99,19.62-12.89h5.98l-10.56,50.42h-9.88l7.28-34.73c-2.05,1.32-4.42,2.53-7.09,3.62-2.68,1.09-5.08,1.87-7.19,2.32Z"/>
        <path class="cls-4" d="M545.28,508.29c0-5.04.85-10.14,2.56-15.31,2.1-6.31,4.79-11.01,8.07-14.08s6.93-4.61,10.94-4.61,7.39,1.47,10,4.41c2.61,2.94,3.91,7.21,3.91,12.82,0,5.13-.95,10.54-2.85,16.25-1.9,5.71-4.47,10.08-7.71,13.12-3.24,3.04-6.88,4.56-10.94,4.56s-7.4-1.47-10.03-4.41-3.95-7.19-3.95-12.75ZM554.92,510.27c0,2.69.43,4.58,1.3,5.67.87,1.09,1.98,1.64,3.35,1.64,1.82,0,3.44-.84,4.85-2.53,1.89-2.26,3.57-6.7,5.02-13.33,1.16-5.26,1.74-9.43,1.74-12.51,0-2.51-.44-4.31-1.32-5.42-.88-1.1-2-1.66-3.37-1.66-1.73,0-3.27.83-4.61,2.5-1.98,2.42-3.69,6.67-5.13,12.75-1.23,5.26-1.85,9.56-1.85,12.89Z"/>
        <path class="cls-4" d="M591.21,508.29c0-5.04.85-10.14,2.56-15.31,2.1-6.31,4.79-11.01,8.07-14.08s6.93-4.61,10.94-4.61,7.39,1.47,10,4.41c2.61,2.94,3.91,7.21,3.91,12.82,0,5.13-.95,10.54-2.85,16.25-1.9,5.71-4.47,10.08-7.71,13.12-3.24,3.04-6.88,4.56-10.94,4.56s-7.4-1.47-10.03-4.41-3.95-7.19-3.95-12.75ZM600.85,510.27c0,2.69.43,4.58,1.3,5.67.87,1.09,1.98,1.64,3.35,1.64,1.82,0,3.44-.84,4.85-2.53,1.89-2.26,3.57-6.7,5.02-13.33,1.16-5.26,1.74-9.43,1.74-12.51,0-2.51-.44-4.31-1.32-5.42-.88-1.1-2-1.66-3.37-1.66-1.73,0-3.27.83-4.61,2.5-1.98,2.42-3.69,6.67-5.13,12.75-1.23,5.26-1.85,9.56-1.85,12.89Z"/>
        <path class="cls-4" d="M640.94,495.81l1.85-8.75c8.45-3.69,14.99-7.99,19.62-12.89h5.98l-10.56,50.42h-9.88l7.28-34.73c-2.05,1.32-4.42,2.53-7.09,3.62-2.68,1.09-5.08,1.87-7.19,2.32Z"/>
      </g>
      <g id="Bild">
        <g>
          <path class="cls-2" d="M121.18,326.04v199.52h278.84v-199.52H121.18ZM391.72,518.24H129.49v-184.88h262.23v184.88Z"/>
          <rect class="cls-5" x="129.49" y="333.36" width="262.23" height="184.88"/>
        </g>
        <polygon class="cls-1" points="391.72 466.44 391.72 518.25 167.26 518.25 245.16 440.35 305.39 380.12 391.72 466.44"/>
        <polygon class="cls-4" points="129.49 518.25 129.49 489.04 211.67 406.86 245.16 440.35 323.07 518.25 129.49 518.25"/>
        <circle class="cls-3" cx="171.96" cy="376.66" r="24.26"/>
      </g>
    </g>
  </g>
</svg>