<?xml version="1.0" encoding="UTF-8"?>
<svg id="Musthave" xmlns="http://www.w3.org/2000/svg" viewBox="0 0 800 800">
  <defs>
    <style>
      .cls-1 {
        fill: #308fc9;
      }

      .cls-1, .cls-2, .cls-3, .cls-4, .cls-5, .cls-6 {
        stroke-width: 0px;
      }

      .cls-2 {
        fill: #206289;
      }

      .cls-3 {
        fill: #dddddc;
      }

      .cls-4 {
        fill: #64abd6;
      }

      .cls-5 {
        fill: #73bbe7;
      }

      .cls-6 {
        fill: #b9ddf3;
      }
    </style>
  </defs>
  <g id="G-0125_BUW_Icon_analoge_Daten">
    <g id="Analoge_Daten" data-name="Analoge Daten">
      <g id="Blatt">
        <polygon class="cls-6" points="678.31 214.16 678.31 698.36 257.6 698.36 257.6 622.95 567.5 622.95 567.5 318.28 257.6 318.28 257.6 101.63 565.78 101.63 678.31 214.16"/>
        <polygon class="cls-5" points="565.79 214.16 565.79 101.64 678.32 214.16 565.79 214.16"/>
      </g>
      <g id="Bild">
        <path class="cls-2" d="M121.68,306.21v328.8h459.5v-328.8H121.68ZM567.5,622.95H135.37v-304.67h432.13v304.67Z"/>
        <path class="cls-2" d="M245.34,389.62c0,22.09-17.9,39.99-39.98,39.99s-39.99-17.9-39.99-39.99,17.9-39.98,39.99-39.98,39.98,17.9,39.98,39.98Z"/>
        <g>
          <path class="cls-6" d="M135.37,318.28v256.54l3.17-3.17,119.06-119.05,13.21-13.21,55.19,55.19,99.24-99.26,139.09,139.09,3.17,3.17v-219.3H135.37ZM205.36,429.61c-22.09,0-39.99-17.9-39.99-39.99s17.9-39.98,39.99-39.98,39.98,17.9,39.98,39.98-17.9,39.99-39.98,39.99Z"/>
          <path class="cls-6" d="M245.34,389.62c0,22.09-17.9,39.99-39.98,39.99s-39.99-17.9-39.99-39.99,17.9-39.98,39.99-39.98,39.98,17.9,39.98,39.98Z"/>
        </g>
        <polygon class="cls-1" points="567.5 537.58 567.5 622.95 454.37 622.95 326 494.58 425.24 395.32 564.33 534.41 567.5 537.58"/>
        <polygon class="cls-4" points="454.37 622.95 135.37 622.95 135.37 574.82 138.54 571.65 257.6 452.6 270.81 439.39 454.37 622.95"/>
        <path class="cls-3" d="M245.34,389.62c0,22.09-17.9,39.99-39.98,39.99s-39.99-17.9-39.99-39.99,17.9-39.98,39.99-39.98,39.98,17.9,39.98,39.98Z"/>
      </g>
    </g>
  </g>
</svg>