<?xml version="1.0" encoding="UTF-8" standalone="no"?>
<svg
   xmlns:dc="http://purl.org/dc/elements/1.1/"
   xmlns:cc="http://creativecommons.org/ns#"
   xmlns:rdf="http://www.w3.org/1999/02/22-rdf-syntax-ns#"
   xmlns:svg="http://www.w3.org/2000/svg"
   xmlns="http://www.w3.org/2000/svg"
   viewBox="0 0 55.533333 47.946667"
   height="47.946667"
   width="55.533333"
   xml:space="preserve"
   id="svg2"
   version="1.1"><metadata
     id="metadata8"><rdf:RDF><cc:Work
         rdf:about=""><dc:format>image/svg+xml</dc:format><dc:type
           rdf:resource="http://purl.org/dc/dcmitype/StillImage" /></cc:Work></rdf:RDF></metadata><defs
     id="defs6" /><g
     transform="matrix(1.3333333,0,0,-1.3333333,0,47.946667)"
     id="g10"><g
       transform="scale(0.1)"
       id="g12"><path
         id="path14"
         style="fill:#468fcd;fill-opacity:1;fill-rule:nonzero;stroke:none"
         d="m 279.469,30.7773 c -0.192,-0.0781 -11.063,-4.5781 -16.883,-4.5781 13.059,5.9414 22.445,18.5821 26.051,32.4688 3.894,15.0195 2.129,31.8047 -4.692,45.68 -6.652,13.511 -18.437,23.871 -32.062,30.121 -9.02,4.121 -18.531,5.461 -28.121,7.441 0,0 2.773,0.668 7.625,1.621 2.449,0.262 5.57,0.668 9.121,0.699 27.336,0.329 52.09,-16.64 60.629,-42.8 5.449,-16.0511 4.82,-34.4808 -2.824,-49.7191 13.941,18.6563 22.691,41.8789 22.691,68.2811 0,12.856 -2.031,25.219 -5.688,36.879 -6.461,-0.379 -12.984,-0.043 -19.113,2.18 0,0 1.301,0.621 3.59,1.726 2.129,1.051 16.281,7.743 20.543,9.551 31.84,14.922 41.598,25.973 45.68,36.133 2.547,6.367 -0.391,20.852 -7.09,23.926 -14,6.461 -58.582,-15.867 -58.207,5.285 0.258,14.391 1.195,18.008 5.875,30.297 4.929,12.941 23.668,33.301 22.652,52.672 -0.18,3.328 -1.992,13.691 -3.117,15.488 -2.328,3.66 -13.902,10.008 -18.524,12.594 -29.031,16.257 -55.39,18.148 -82.261,-0.485 -5.492,-3.781 -12.528,-13 -19.711,-14.765 -11.309,-2.774 -25.449,-10.762 -30.801,-17.524 11.231,-11.828 20.762,-8.75 25.875,-19.39 5.231,-10.821 5.68,-23.43 6.109,-35.258 1.688,-46.52 -15.031,-91.391 -37.253,-131.539 -14.465,-26.125 -30.946,-51.1839 -49.649,-74.5042 12.41,-19.9805 29.133,-35.4492 44.113,-53.25389375 h 157.11 c 0,0 13.961,2.61328375 -2.375,24.81639375 -4.168,5.6289 -10.637,8.7422 -17.508,9.5313 -7.711,0.9101 -14.629,-1.0391 -21.785,-3.5743 M 257.734,331.57 c 5.254,0 9.493,-4.25 9.493,-9.488 0,-5.254 -4.239,-9.492 -9.493,-9.492 -5.242,0 -9.488,4.238 -9.488,9.492 0,5.238 4.246,9.488 9.488,9.488" /><path
         id="path16"
         style="fill:#468fcd;fill-opacity:1;fill-rule:nonzero;stroke:none"
         d="m 114.777,61.4531 c 26.461,38.1602 46.102,76.0389 48.43,86.3559 8.844,25.089 16.383,56.441 16.383,80.332 0.019,68.047 -55.461,129.718 -123.1525,123.179 -45.8906,-4.437 -68.8125,-59.617 -49.65234,-75.992 3.56644,17.813 14.41404,34.285 33.30074,34.285 11.0508,0 31.0508,-15.324 20.961,-48.312 C 29.2461,157.477 54.9063,89.5078 114.777,61.4531" /><path
         id="path18"
         style="fill:#468fcd;fill-opacity:1;fill-rule:nonzero;stroke:none"
         d="m 414.285,304.098 c -2.527,4.98 -6.726,9.746 -10.066,13.23 l 7.316,7.317 -1.359,5.953 -9.59,-9.578 c -3.59,3.445 -7.367,6.765 -11.633,9.367 -2.437,1.48 -5.066,2.863 -7.875,3.457 -2.152,0.465 -4.34,0.066 -6.476,-0.399 -2.247,-0.519 -5.957,-4.269 -6.957,-6.359 -1.137,-2.41 -0.04,-5.801 0.898,-8.078 1.105,-2.684 2.68,-5.129 4.301,-7.551 3.211,-4.75 7.004,-9.027 11.109,-13.012 3.863,-3.761 8.274,-7.14 12.942,-9.859 3.164,-1.832 9.128,-5.477 12.753,-2.996 2.786,1.898 5.754,4.808 6.586,8.195 0.852,3.512 -0.355,7.184 -1.949,10.313" /><path
         id="path20"
         style="fill:#468fcd;fill-opacity:1;fill-rule:nonzero;stroke:none"
         d="m 376.082,296.234 c 3.613,-3.644 7.5,-6.992 11.734,-9.882 1.997,-1.379 4.098,-2.664 6.231,-3.821 0.574,-0.301 3.808,-2.402 4.437,-1.781 -0.066,-0.07 -2.726,-2.617 -4.089,-3.82 -4.391,-3.871 -14.309,-9.828 -15.602,-10.039 -9.59,-3.661 -16.008,-2.258 -27.875,3.238 l -0.563,0.133 -0.113,0.551 c -5.496,11.871 -4.359,23.507 -2.488,29.257 1.094,3.41 5.418,9.809 9.293,14.211 1.18,1.371 3.918,4.207 4.082,4.36 -0.676,-0.668 1.976,-4.75 2.336,-5.383 1.75,-3.227 3.73,-6.328 5.937,-9.258 2.063,-2.738 4.293,-5.332 6.68,-7.766" /></g></g></svg>