<?xml version="1.0" encoding="UTF-8" standalone="no"?>
<svg
   xmlns:dc="http://purl.org/dc/elements/1.1/"
   xmlns:cc="http://creativecommons.org/ns#"
   xmlns:rdf="http://www.w3.org/1999/02/22-rdf-syntax-ns#"
   xmlns:svg="http://www.w3.org/2000/svg"
   xmlns="http://www.w3.org/2000/svg"
   viewBox="0 0 226.77333 48.386665"
   height="48.386665"
   width="226.77333"
   xml:space="preserve"
   id="svg2"
   version="1.1"><metadata
     id="metadata8"><rdf:RDF><cc:Work
         rdf:about=""><dc:format>image/svg+xml</dc:format><dc:type
           rdf:resource="http://purl.org/dc/dcmitype/StillImage" /></cc:Work></rdf:RDF></metadata><defs
     id="defs6" /><g
     transform="matrix(1.3333333,0,0,-1.3333333,0,48.386667)"
     id="g10"><g
       transform="scale(0.1)"
       id="g12"><path
         id="path14"
         style="fill:#468fcd;fill-opacity:1;fill-rule:nonzero;stroke:none"
         d="m 1141.09,4.9375 c 2.68,2.61719 4.02,5.8281 4.02,9.6172 0,3.9141 -1.34,7.1211 -4.02,9.6289 -2.68,2.5117 -5.93,3.7617 -9.71,3.7617 -3.79,0 -6.97,-1.25 -9.55,-3.7617 -2.55,-2.5078 -3.84,-5.7148 -3.84,-9.6289 0,-3.7891 1.29,-7.00001 3.84,-9.6172 2.58,-2.62109 5.76,-3.92969 9.55,-3.92969 3.78,0 7.03,1.3086 9.71,3.92969 M 1323.9,4.01563 V 108.285 c 0,22.871 -4.91,40.469 -14.73,52.797 -9.83,12.336 -24,18.492 -42.51,18.492 -26.55,0 -46.09,-11.765 -58.58,-35.304 h -0.66 v 31.125 h -15.4 V 4.01563 h 15.4 V 102.426 c 0,17.851 5.29,32.828 15.9,44.941 10.59,12.102 24.15,18.153 40.67,18.153 29.67,0 44.5,-20.582 44.5,-61.754 V 4.01563 Z M 1456.28,175.727 c -5.02,2.007 -10.71,3.019 -17.07,3.019 -11.15,0 -20.97,-3.629 -29.46,-10.879 -8.47,-7.262 -14.66,-17.414 -18.57,-30.461 h -0.67 v 37.989 h -15.06 V 4.01563 h 15.06 V 84.5156 c 0,25.6604 4.58,45.4684 13.73,59.4104 9.14,13.949 20.47,20.918 33.97,20.918 6.92,0 12.94,-1.836 18.07,-5.516 z m 244.51,-0.332 h -15.9 L 1644.22,38.6563 c -1.91,-6.3594 -2.85,-11.1524 -2.85,-14.3868 h -1.33 c -0.68,6.3555 -1.47,11.1563 -2.36,14.3868 l -38.82,136.7387 h -10.54 L 1544.8,38.6563 c -1.89,-6.3594 -2.96,-11.1524 -3.17,-14.3868 h -1.34 c -0.56,6.0274 -1.35,10.8203 -2.35,14.3868 L 1498.1,175.395 h -17.07 L 1532.76,4.01563 h 14.39 l 41.83,129.53937 c 2.01,6.8 3.13,11.488 3.35,14.062 h 0.83 c 0.78,-6.031 1.69,-10.828 2.69,-14.398 L 1633.16,4.01563 h 14.41 l 53.22,171.37937" /><path
         id="path16"
         style="fill:#231f20;fill-opacity:1;fill-rule:nonzero;stroke:none"
         d="m 580.781,258.402 c -5.582,2.125 -13.176,3.184 -22.765,3.184 -17.739,0 -32.528,-5.219 -44.344,-15.648 -11.832,-10.43 -17.746,-24.684 -17.746,-42.762 v -27.781 h -29.285 v -30.457 h 29.285 V 4.01953 h 38.832 V 144.938 h 39.66 v 30.457 H 534.59 v 23.261 c 0,21.309 9.426,31.969 28.281,31.969 6.699,0 12.656,-1.508 17.91,-4.52 z m 178.606,-0.668 H 720.559 V 151.625 h -0.672 c -10.489,18.523 -27.282,27.789 -50.367,27.789 -23.321,0 -41.981,-8.539 -55.993,-25.609 -13.996,-17.067 -21,-39.778 -21,-68.1214 0,-26.4375 6.328,-47.3398 19,-62.6641 12.661,-15.35544 29.539,-23.02340625 50.621,-23.02340625 26,0 45.247,11.05080625 57.739,33.14060625 h 0.672 V 4.01953 h 38.828 z M 708.676,45.4336 c -8.258,-9.7578 -19.02,-14.6367 -32.301,-14.6367 -13.496,0 -24.238,5.039 -32.215,15.1406 -7.98,10.0977 -11.965,23.8477 -11.965,41.2617 0,19.1878 4.153,34.1988 12.461,45.0198 8.313,10.82 19.723,16.23 34.235,16.23 12.265,0 22.367,-4.246 30.289,-12.722 7.918,-8.481 11.879,-18.801 11.879,-30.961 V 82.3438 c 0,-14.8477 -4.121,-27.1485 -12.383,-36.9102 m 357.654,64.1914 c 0,46.523 -18.85,69.789 -56.58,69.789 -25.199,0 -44.176,-11.824 -56.891,-35.488 -3.242,10.601 -9.296,19.172 -18.164,25.687 -8.867,6.535 -19.218,9.801 -31.035,9.801 -23.66,0 -41.683,-10.375 -54.062,-31.129 h -0.668 v 27.11 H 810.098 V 4.01953 H 848.93 V 96.7383 c 0,15.2777 3.371,27.7187 10.117,37.3207 6.754,9.589 15.367,14.39 25.863,14.39 22.539,0 33.809,-15.953 33.809,-47.863 V 4.01953 h 38.984 V 96.7383 c 0,14.1717 3.555,26.3277 10.637,36.4807 7.09,10.144 15.711,15.23 25.859,15.23 12.051,0 20.601,-4.015 25.691,-12.051 5.08,-8.035 7.61,-21.031 7.61,-38.9917 V 4.01953 h 38.83 V 109.625" /><path
         id="path18"
         style="fill:#231f20;fill-opacity:1;fill-rule:nonzero;stroke:none"
         d="m 831.387,272.242 v 2.957 h -21.793 v -46.64 h 3.222 v 21.734 h 17.235 v 2.922 h -17.235 v 19.027 z m 32.949,-39.679 c 2.805,3.21 4.207,7.41 4.207,12.589 0,5.477 -1.371,9.782 -4.129,12.879 -2.75,3.102 -6.5,4.649 -11.25,4.649 -4.84,0 -8.73,-1.559 -11.691,-4.688 -2.957,-3.121 -4.438,-7.441 -4.438,-12.972 0,-5.118 1.41,-9.278 4.238,-12.465 2.832,-3.203 6.668,-4.801 11.528,-4.801 4.883,0 8.722,1.598 11.535,4.809 m -2.141,23.582 c 2.149,-2.54 3.231,-6.184 3.231,-10.934 0,-4.621 -1.082,-8.227 -3.254,-10.832 -2.168,-2.598 -5.258,-3.895 -9.27,-3.895 -3.949,0 -7.058,1.317 -9.328,3.969 -2.281,2.637 -3.418,6.137 -3.418,10.5 0,4.711 1.164,8.379 3.5,11.027 2.328,2.641 5.457,3.973 9.379,3.973 3.949,0 6.996,-1.269 9.16,-3.808 m 31.856,5.789 c -0.977,0.386 -2.09,0.586 -3.321,0.586 -2.167,0 -4.082,-0.707 -5.722,-2.118 -1.641,-1.406 -2.852,-3.379 -3.613,-5.918 h -0.125 v 7.375 h -2.922 v -33.3 h 2.922 v 15.644 c 0,4.988 0.886,8.84 2.664,11.551 1.777,2.707 3.976,4.066 6.601,4.066 1.348,0 2.52,-0.355 3.516,-1.078 z m 14.785,-34.18 c 3.488,0 6.23,0.859 8.203,2.578 1.992,1.731 2.988,3.91 2.988,6.559 0,2.211 -0.652,3.984 -1.953,5.312 -1.297,1.336 -3.691,2.789 -7.156,4.352 -2.883,1.277 -4.758,2.406 -5.598,3.398 -0.847,0.981 -1.269,2.27 -1.269,3.852 0,1.816 0.676,3.297 2.023,4.437 1.336,1.137 3.114,1.711 5.301,1.711 2.637,0 5.195,-0.812 7.668,-2.41 v 3.379 c -2.043,1.168 -4.492,1.758 -7.344,1.758 -3.039,0 -5.597,-0.84 -7.668,-2.508 -2.07,-1.672 -3.093,-3.859 -3.093,-6.567 0,-2.125 0.632,-3.933 1.921,-5.41 1.289,-1.492 3.536,-2.922 6.719,-4.312 2.59,-1.11 4.445,-2.18 5.598,-3.219 1.152,-1.039 1.726,-2.305 1.726,-3.773 0,-4.27 -2.617,-6.407 -7.839,-6.407 -1.172,0 -2.559,0.278 -4.172,0.848 -1.602,0.559 -2.969,1.328 -4.09,2.301 v -3.613 c 2.148,-1.508 4.824,-2.266 8.035,-2.266 m 41.973,5.394 c -2.481,-1.777 -5.371,-2.664 -8.711,-2.664 -3.641,0 -6.582,1.309 -8.809,3.942 -2.215,2.613 -3.328,6.086 -3.328,10.394 0,4.473 1.211,8.11 3.641,10.914 2.433,2.805 5.597,4.219 9.503,4.219 2.84,0 5.45,-0.738 7.84,-2.223 v 3.391 c -2.39,1.043 -4.851,1.559 -7.39,1.559 -4.903,0 -8.907,-1.688 -12.032,-5.059 -3.117,-3.367 -4.679,-7.699 -4.679,-12.988 0,-5.031 1.379,-9.102 4.16,-12.219 2.773,-3.113 6.426,-4.66 10.957,-4.66 3.418,0 6.367,0.758 8.848,2.266 z m 35.82,-4.589 v 20.656 c 0,4.336 -0.938,7.664 -2.82,9.988 -1.887,2.32 -4.641,3.477 -8.223,3.477 -5.012,0 -8.828,-2.27 -11.457,-6.797 h -0.125 v 21.988 h -3 v -49.312 h 3 v 18.445 c 0,4.16 1.082,7.355 3.25,9.598 2.168,2.23 4.68,3.351 7.539,3.351 3.039,0 5.273,-0.918 6.699,-2.75 1.446,-1.832 2.149,-4.723 2.149,-8.672 v -19.972 z m 37.211,0 v 33.3 h -3.01 v -18.855 c 0,-3.789 -0.95,-6.832 -2.86,-9.113 -1.93,-2.27 -4.44,-3.407 -7.53,-3.407 -3.2,0 -5.54,1.02 -7.01,3.055 -1.5,2.031 -2.24,5.313 -2.24,9.82 v 18.5 h -3.018 v -19.246 c 0,-9.914 3.938,-14.859 11.798,-14.859 4.84,0 8.42,2.289 10.73,6.855 h 0.13 v -6.05 z m 38.48,0 v 20.265 c 0,4.449 -0.94,7.867 -2.86,10.258 -1.9,2.398 -4.66,3.598 -8.26,3.598 -5.16,0 -8.96,-2.289 -11.39,-6.86 h -0.12 v 6.039 h -2.99 v -33.3 h 2.99 v 19.121 c 0,3.472 1.02,6.383 3.08,8.742 2.06,2.348 4.7,3.531 7.91,3.531 5.76,0 8.65,-4 8.65,-12.012 v -19.382 z m 38.85,33.3 h -2.99 v -5.257 h -0.12 c -2.22,4.046 -5.78,6.078 -10.68,6.078 -4.57,0 -8.26,-1.68 -11.04,-5.039 -2.81,-3.36 -4.2,-7.7 -4.2,-13.008 0,-5.32 1.29,-9.461 3.88,-12.43 2.59,-2.969 5.93,-4.449 10.03,-4.449 5.38,0 9.39,2.258 12.01,6.797 h 0.12 v -4.332 c 0,-9.707 -4.6,-14.571 -13.79,-14.571 -3.14,0 -6.47,0.973 -9.98,2.938 v -3.133 c 3.4,-1.691 6.71,-2.531 9.92,-2.531 5.77,0 10.01,1.449 12.75,4.359 2.73,2.899 4.09,7.489 4.09,13.75 z m -2.99,-19.379 c 0,-3.359 -1.05,-6.195 -3.19,-8.519 -2.12,-2.32 -4.96,-3.477 -8.55,-3.477 -3.36,0 -6.07,1.258 -8.11,3.789 -2.04,2.52 -3.08,6.059 -3.08,10.622 0,4.531 1.13,8.168 3.35,10.925 2.23,2.75 5.19,4.133 8.85,4.133 3.19,0 5.77,-1.082 7.76,-3.219 1.99,-2.152 2.97,-4.703 2.97,-7.652 z m 22.17,-14.726 c 3.5,0 6.23,0.859 8.21,2.578 1.99,1.731 2.98,3.91 2.98,6.559 0,2.211 -0.64,3.984 -1.95,5.312 -1.31,1.336 -3.68,2.789 -7.16,4.352 -2.88,1.277 -4.75,2.406 -5.59,3.398 -0.85,0.981 -1.27,2.27 -1.27,3.852 0,1.816 0.67,3.297 2.02,4.437 1.34,1.137 3.11,1.711 5.3,1.711 2.65,0 5.2,-0.812 7.68,-2.41 v 3.379 c -2.05,1.168 -4.5,1.758 -7.36,1.758 -3.04,0 -5.58,-0.84 -7.65,-2.508 -2.07,-1.672 -3.11,-3.859 -3.11,-6.567 0,-2.125 0.64,-3.933 1.93,-5.41 1.29,-1.492 3.53,-2.922 6.72,-4.312 2.58,-1.11 4.45,-2.18 5.6,-3.219 1.14,-1.039 1.72,-2.305 1.72,-3.773 0,-4.27 -2.62,-6.407 -7.84,-6.407 -1.17,0 -2.55,0.278 -4.17,0.848 -1.6,0.559 -2.96,1.328 -4.09,2.301 v -3.613 c 2.14,-1.508 4.83,-2.266 8.03,-2.266 m 48.38,0.805 v 49.312 h -2.99 v -21.336 h -0.13 c -2.12,4.094 -5.68,6.145 -10.67,6.145 -4.51,0 -8.17,-1.668 -11.01,-4.989 -2.83,-3.332 -4.23,-7.691 -4.23,-13.058 0,-5.274 1.29,-9.403 3.87,-12.391 2.59,-3 5.94,-4.488 10.04,-4.488 2.67,0 5.06,0.621 7.18,1.848 2.13,1.238 3.73,2.91 4.82,5.007 h 0.13 v -6.05 z m -2.99,14.054 c 0,-3.379 -1.03,-6.25 -3.11,-8.597 -2.09,-2.356 -5.02,-3.532 -8.82,-3.532 -3.24,0 -5.88,1.25 -7.92,3.758 -2.05,2.5 -3.08,6.051 -3.08,10.653 0,4.675 1.14,8.359 3.41,11.039 2.28,2.679 5.17,4.019 8.66,4.019 3.31,0 5.95,-1.082 7.91,-3.238 1.97,-2.164 2.95,-4.789 2.95,-7.891 z m 38.75,-14.054 v 21.66 c 0,4.062 -0.94,7.152 -2.81,9.273 -1.88,2.129 -4.52,3.188 -7.95,3.188 -1.87,0 -3.86,-0.344 -5.97,-1.039 -2.12,-0.7 -3.79,-1.528 -5.03,-2.508 v -3.61 c 3.47,2.95 7.04,4.43 10.71,4.43 5.38,0 8.06,-3.582 8.06,-10.738 l -10.24,-1.535 c -7.7,-1.211 -11.54,-4.715 -11.54,-10.528 0,-2.707 0.91,-4.961 2.75,-6.742 1.85,-1.765 4.35,-2.656 7.52,-2.656 2.47,0 4.73,0.68 6.76,2.027 2.01,1.364 3.56,3.172 4.63,5.449 h 0.12 v -6.671 z m -2.99,17.921 v -3.246 c 0,-3.75 -1.05,-6.812 -3.19,-9.191 -2.12,-2.371 -4.79,-3.559 -8,-3.559 -2.33,0 -4.17,0.637 -5.48,1.918 -1.31,1.282 -1.97,2.903 -1.97,4.879 0,2.508 0.71,4.332 2.12,5.438 1.42,1.125 3.87,1.933 7.35,2.433 z m 29.06,-14.667 c -1.45,-0.801 -2.78,-1.204 -4.01,-1.204 -1.74,0 -2.97,0.512 -3.7,1.543 -0.71,1.032 -1.08,2.703 -1.08,5 v 21.981 h 8.79 v 2.726 h -8.79 v 9.664 c -0.47,-0.171 -0.98,-0.332 -1.5,-0.484 -0.52,-0.18 -1.01,-0.344 -1.5,-0.516 v -8.664 h -5.98 v -2.726 h 5.98 v -22.371 c 0,-5.903 2.46,-8.852 7.39,-8.852 1.36,0 2.82,0.371 4.4,1.113 z m 34.16,13.269 v 1.34 c 0,5.027 -1.11,8.988 -3.32,11.898 -2.21,2.91 -5.39,4.36 -9.53,4.36 -4.43,0 -8.01,-1.668 -10.78,-4.989 -2.77,-3.332 -4.15,-7.425 -4.15,-12.281 0,-5.621 1.32,-9.969 3.98,-13.039 2.63,-3.078 6.1,-4.617 10.4,-4.617 4.25,0 8.09,1.215 11.54,3.668 v 3.187 c -3.55,-2.75 -7.2,-4.125 -10.93,-4.125 -3.68,0 -6.58,1.289 -8.7,3.868 -2.11,2.582 -3.16,6.16 -3.16,10.73 z m -24.53,2.731 c 0.48,3.91 1.74,6.898 3.79,9 2.05,2.089 4.64,3.14 7.77,3.14 3,0 5.37,-1.07 7.09,-3.191 1.71,-2.129 2.62,-5.11 2.75,-8.949 z m 60.61,-19.254 v 20.265 c 0,4.449 -0.95,7.867 -2.86,10.258 -1.91,2.398 -4.66,3.598 -8.25,3.598 -5.17,0 -8.97,-2.289 -11.39,-6.86 h -0.13 v 6.039 h -3 v -33.3 h 3 v 19.121 c 0,3.472 1.04,6.383 3.09,8.742 2.06,2.348 4.7,3.531 7.9,3.531 5.77,0 8.65,-4 8.65,-12.012 v -19.382 z m 57.65,0 v 20.593 c 0,9.024 -3.66,13.528 -10.94,13.528 -2.28,0 -4.39,-0.668 -6.33,-1.996 -1.93,-1.344 -3.43,-3.211 -4.46,-5.61 -0.62,2.27 -1.78,4.106 -3.51,5.508 -1.72,1.402 -3.8,2.098 -6.22,2.098 -4.47,0 -7.86,-2.117 -10.17,-6.336 h -0.14 v 5.515 h -3 v -33.3 h 3 v 19.195 c 0,3.598 0.91,6.527 2.7,8.801 1.79,2.258 4.06,3.398 6.76,3.398 5.65,0 8.46,-3.711 8.46,-11.129 v -20.265 h 3 v 19.511 c 0,3.41 0.94,6.243 2.86,8.493 1.9,2.261 4.17,3.39 6.79,3.39 2.85,0 4.92,-0.851 6.24,-2.539 1.3,-1.691 1.95,-4.629 1.95,-8.809 v -20.046 z m 35.07,0 v 21.66 c 0,4.062 -0.93,7.152 -2.82,9.273 -1.86,2.129 -4.52,3.188 -7.95,3.188 -1.85,0 -3.84,-0.344 -5.96,-1.039 -2.11,-0.7 -3.79,-1.528 -5.02,-2.508 v -3.61 c 3.46,2.95 7.03,4.43 10.69,4.43 5.37,0 8.07,-3.582 8.07,-10.738 l -10.25,-1.535 c -7.69,-1.211 -11.55,-4.715 -11.55,-10.528 0,-2.707 0.93,-4.961 2.77,-6.742 1.84,-1.765 4.34,-2.656 7.51,-2.656 2.47,0 4.72,0.68 6.75,2.027 2.03,1.364 3.57,3.172 4.63,5.449 h 0.14 v -6.671 z m -2.99,17.921 v -3.246 c 0,-3.75 -1.07,-6.812 -3.19,-9.191 -2.13,-2.371 -4.79,-3.559 -8,-3.559 -2.35,0 -4.17,0.637 -5.48,1.918 -1.31,1.282 -1.97,2.903 -1.97,4.879 0,2.508 0.71,4.332 2.11,5.438 1.41,1.125 3.86,1.933 7.36,2.433 z m 41.5,-17.921 v 20.265 c 0,4.449 -0.96,7.867 -2.87,10.258 -1.9,2.398 -4.66,3.598 -8.25,3.598 -5.17,0 -8.96,-2.289 -11.39,-6.86 h -0.13 v 6.039 h -2.98 v -33.3 h 2.98 v 19.121 c 0,3.472 1.03,6.383 3.09,8.742 2.06,2.348 4.7,3.531 7.9,3.531 5.77,0 8.65,-4 8.65,-12.012 v -19.382 z m 35.12,0 v 21.66 c 0,4.062 -0.95,7.152 -2.83,9.273 -1.87,2.129 -4.52,3.188 -7.94,3.188 -1.87,0 -3.86,-0.344 -5.98,-1.039 -2.11,-0.7 -3.79,-1.528 -5.02,-2.508 v -3.61 c 3.48,2.95 7.03,4.43 10.7,4.43 5.38,0 8.07,-3.582 8.07,-10.738 l -10.24,-1.535 c -7.71,-1.211 -11.56,-4.715 -11.56,-10.528 0,-2.707 0.93,-4.961 2.78,-6.742 1.83,-1.765 4.34,-2.656 7.51,-2.656 2.47,0 4.71,0.68 6.74,2.027 2.03,1.364 3.57,3.172 4.64,5.449 h 0.13 v -6.671 z m -3,17.921 v -3.246 c 0,-3.75 -1.07,-6.812 -3.18,-9.191 -2.13,-2.371 -4.8,-3.559 -8,-3.559 -2.35,0 -4.17,0.637 -5.49,1.918 -1.32,1.282 -1.96,2.903 -1.96,4.879 0,2.508 0.69,4.332 2.11,5.438 1.4,1.125 3.85,1.933 7.34,2.433 z m 41.84,15.379 h -2.98 v -5.257 h -0.14 c -2.21,4.046 -5.77,6.078 -10.66,6.078 -4.58,0 -8.27,-1.68 -11.07,-5.039 -2.8,-3.36 -4.19,-7.7 -4.19,-13.008 0,-5.32 1.29,-9.461 3.88,-12.43 2.6,-2.969 5.95,-4.449 10.04,-4.449 5.37,0 9.37,2.258 12,6.797 h 0.14 v -4.332 c 0,-9.707 -4.6,-14.571 -13.79,-14.571 -3.16,0 -6.49,0.973 -9.99,2.938 v -3.133 c 3.41,-1.691 6.71,-2.531 9.91,-2.531 5.77,0 10.02,1.449 12.75,4.359 2.73,2.899 4.1,7.489 4.1,13.75 z m -2.98,-19.379 c 0,-3.359 -1.08,-6.195 -3.2,-8.519 -2.13,-2.32 -4.98,-3.477 -8.55,-3.477 -3.36,0 -6.07,1.258 -8.12,3.789 -2.05,2.52 -3.06,6.059 -3.06,10.622 0,4.531 1.1,8.168 3.35,10.925 2.22,2.75 5.17,4.133 8.83,4.133 3.19,0 5.79,-1.082 7.76,-3.219 1.99,-2.152 2.99,-4.703 2.99,-7.652 z m 41.22,2.602 v 1.34 c 0,5.027 -1.11,8.988 -3.31,11.898 -2.23,2.91 -5.39,4.36 -9.53,4.36 -4.44,0 -8.03,-1.668 -10.79,-4.989 -2.77,-3.332 -4.15,-7.425 -4.15,-12.281 0,-5.621 1.32,-9.969 3.97,-13.039 2.65,-3.078 6.11,-4.617 10.4,-4.617 4.26,0 8.1,1.215 11.55,3.668 v 3.187 c -3.55,-2.75 -7.2,-4.125 -10.93,-4.125 -3.68,0 -6.58,1.289 -8.7,3.868 -2.11,2.582 -3.17,6.16 -3.17,10.73 z m -24.52,2.731 c 0.47,3.91 1.73,6.898 3.78,9 2.06,2.089 4.63,3.14 7.76,3.14 3.02,0 5.37,-1.07 7.09,-3.191 1.72,-2.129 2.64,-5.11 2.76,-8.949 z m 79.72,-19.254 v 20.593 c 0,9.024 -3.64,13.528 -10.92,13.528 -2.28,0 -4.39,-0.668 -6.32,-1.996 -1.95,-1.344 -3.44,-3.211 -4.48,-5.61 -0.61,2.27 -1.76,4.106 -3.5,5.508 -1.72,1.402 -3.8,2.098 -6.22,2.098 -4.47,0 -7.86,-2.117 -10.19,-6.336 h -0.13 v 5.515 h -2.98 v -33.3 h 2.98 v 19.195 c 0,3.598 0.9,6.527 2.7,8.801 1.81,2.258 4.06,3.398 6.78,3.398 5.63,0 8.45,-3.711 8.45,-11.129 v -20.265 h 2.99 v 19.511 c 0,3.41 0.95,6.243 2.86,8.493 1.91,2.261 4.17,3.39 6.8,3.39 2.84,0 4.91,-0.851 6.23,-2.539 1.31,-1.691 1.96,-4.629 1.96,-8.809 v -20.046 z m 37.56,16.523 v 1.34 c 0,5.027 -1.11,8.988 -3.32,11.898 -2.21,2.91 -5.39,4.36 -9.53,4.36 -4.41,0 -8.02,-1.668 -10.78,-4.989 -2.77,-3.332 -4.15,-7.425 -4.15,-12.281 0,-5.621 1.33,-9.969 3.97,-13.039 2.64,-3.078 6.12,-4.617 10.41,-4.617 4.25,0 8.09,1.215 11.55,3.668 v 3.187 c -3.56,-2.75 -7.21,-4.125 -10.94,-4.125 -3.67,0 -6.57,1.289 -8.69,3.868 -2.11,2.582 -3.18,6.16 -3.18,10.73 z m -24.53,2.731 c 0.48,3.91 1.74,6.898 3.79,9 2.05,2.089 4.65,3.14 7.76,3.14 3.01,0 5.38,-1.07 7.09,-3.191 1.71,-2.129 2.63,-5.11 2.77,-8.949 z m 60.61,-19.254 v 20.265 c 0,4.449 -0.95,7.867 -2.86,10.258 -1.91,2.398 -4.65,3.598 -8.26,3.598 -5.15,0 -8.94,-2.289 -11.38,-6.86 h -0.13 v 6.039 h -2.99 v -33.3 h 2.99 v 19.121 c 0,3.472 1.03,6.383 3.09,8.742 2.06,2.348 4.69,3.531 7.9,3.531 5.78,0 8.66,-4 8.66,-12.012 v -19.382 z m 25.4,3.254 c -1.44,-0.801 -2.77,-1.204 -4.01,-1.204 -1.73,0 -2.96,0.512 -3.69,1.543 -0.73,1.032 -1.08,2.703 -1.08,5 v 21.981 h 8.78 v 2.726 h -8.78 v 9.664 c -0.49,-0.171 -0.99,-0.332 -1.51,-0.484 -0.52,-0.18 -1.01,-0.344 -1.49,-0.516 v -8.664 h -5.99 v -2.726 h 5.99 v -22.371 c 0,-5.903 2.46,-8.852 7.38,-8.852 1.37,0 2.83,0.371 4.4,1.113 v 2.79" /><path
         id="path20"
         style="fill:#231f20;fill-opacity:1;fill-rule:nonzero;stroke:none"
         d="m 831.512,308.492 v 2.93 h -18.696 v 43.711 h -3.222 v -46.641 z m 29.035,0 v 21.66 c 0,4.047 -0.934,7.137 -2.813,9.274 -1.882,2.117 -4.531,3.187 -7.949,3.187 -1.871,0 -3.863,-0.351 -5.972,-1.039 -2.11,-0.699 -3.79,-1.531 -5.02,-2.511 v -3.614 c 3.461,2.953 7.031,4.434 10.703,4.434 5.367,0 8.055,-3.578 8.055,-10.742 l -10.238,-1.528 c -7.7,-1.211 -11.547,-4.722 -11.547,-10.531 0,-2.711 0.918,-4.957 2.769,-6.738 1.84,-1.774 4.34,-2.664 7.508,-2.664 2.473,0 4.723,0.672 6.75,2.031 2.02,1.348 3.574,3.172 4.633,5.449 h 0.125 v -6.668 z m -2.996,17.918 v -3.246 c 0,-3.75 -1.059,-6.82 -3.188,-9.195 -2.117,-2.367 -4.789,-3.559 -7.996,-3.559 -2.344,0 -4.172,0.641 -5.484,1.926 -1.309,1.277 -1.957,2.894 -1.957,4.875 0,2.512 0.699,4.332 2.109,5.441 1.41,1.118 3.856,1.93 7.348,2.43 z m 40.847,-17.918 v 20.258 c 0,4.453 -0.968,7.871 -2.863,10.266 -1.914,2.394 -4.668,3.597 -8.269,3.597 -5.157,0 -8.957,-2.289 -11.379,-6.871 h -0.137 v 6.051 h -2.988 v -33.301 h 2.988 v 19.121 c 0,3.473 1.035,6.375 3.098,8.739 2.058,2.351 4.695,3.531 7.898,3.531 5.774,0 8.652,-4.008 8.652,-12.012 v -19.379 z m 37.52,0 v 49.313 h -2.988 v -21.344 h -0.137 c -2.129,4.102 -5.684,6.152 -10.664,6.152 -4.512,0 -8.184,-1.672 -11.016,-5 -2.832,-3.32 -4.25,-7.679 -4.25,-13.05 0,-5.27 1.301,-9.403 3.887,-12.391 2.598,-3 5.949,-4.492 10.031,-4.492 2.676,0 5.078,0.613 7.196,1.851 2.128,1.242 3.73,2.91 4.816,5.012 h 0.137 v -6.051 z m -2.988,14.051 c 0,-3.383 -1.055,-6.25 -3.137,-8.602 -2.078,-2.359 -5.02,-3.531 -8.809,-3.531 -3.23,0 -5.867,1.25 -7.918,3.762 -2.05,2.5 -3.078,6.047 -3.078,10.648 0,4.684 1.133,8.364 3.418,11.039 2.278,2.68 5.157,4.024 8.645,4.024 3.32,0 5.965,-1.078 7.918,-3.242 1.965,-2.157 2.961,-4.789 2.961,-7.891 z m 41.211,2.469 v 1.34 c 0,5.031 -1.094,8.992 -3.321,11.902 -2.207,2.898 -5.371,4.359 -9.511,4.359 -4.434,0 -8.028,-1.672 -10.793,-5 -2.762,-3.32 -4.141,-7.422 -4.141,-12.269 0,-5.621 1.32,-9.973 3.957,-13.043 2.656,-3.078 6.121,-4.621 10.41,-4.621 4.246,0 8.106,1.222 11.551,3.672 v 3.191 c -3.563,-2.75 -7.195,-4.133 -10.926,-4.133 -3.691,0 -6.594,1.289 -8.703,3.871 -2.109,2.578 -3.172,6.16 -3.172,10.731 z m -24.512,2.726 c 0.476,3.914 1.738,6.907 3.789,9.004 2.051,2.09 4.629,3.141 7.742,3.141 3.028,0 5.383,-1.07 7.102,-3.192 1.707,-2.128 2.636,-5.109 2.761,-8.953 z m 41.289,-20.058 c 3.484,0 6.23,0.859 8.203,2.586 1.989,1.726 2.989,3.906 2.989,6.554 0,2.215 -0.66,3.981 -1.96,5.313 -1.295,1.34 -3.685,2.781 -7.154,4.347 -2.879,1.274 -4.754,2.411 -5.594,3.395 -0.851,0.984 -1.269,2.277 -1.269,3.855 0,1.821 0.672,3.301 2.019,4.446 1.34,1.137 3.118,1.707 5.305,1.707 2.637,0 5.195,-0.809 7.663,-2.41 v 3.379 c -2.038,1.171 -4.491,1.761 -7.343,1.761 -3.035,0 -5.593,-0.84 -7.664,-2.511 -2.07,-1.668 -3.097,-3.86 -3.097,-6.571 0,-2.121 0.636,-3.929 1.925,-5.41 1.289,-1.488 3.536,-2.922 6.719,-4.308 2.586,-1.114 4.442,-2.18 5.594,-3.223 1.152,-1.039 1.73,-2.297 1.73,-3.77 0,-4.277 -2.617,-6.41 -7.843,-6.41 -1.172,0 -2.559,0.285 -4.161,0.84 -1.609,0.57 -2.976,1.344 -4.101,2.309 v -3.606 c 2.148,-1.512 4.824,-2.273 8.039,-2.273 m 25.652,43.254 c 0.5,0.496 0.75,1.097 0.75,1.785 0,0.742 -0.25,1.324 -0.76,1.765 -0.51,0.43 -1.09,0.649 -1.78,0.649 -0.62,0 -1.19,-0.219 -1.7,-0.668 -0.5,-0.442 -0.77,-1.024 -0.77,-1.746 0,-0.735 0.26,-1.336 0.76,-1.817 0.49,-0.48 1.06,-0.711 1.71,-0.711 0.71,0 1.29,0.239 1.79,0.743 m -0.25,-9.141 h -3 v -33.301 h 3 z m 39.16,-33.301 v 20.258 c 0,4.453 -0.96,7.871 -2.86,10.266 -1.92,2.394 -4.66,3.597 -8.27,3.597 -5.15,0 -8.95,-2.289 -11.37,-6.871 h -0.14 v 6.051 h -2.99 v -33.301 h 2.99 v 19.121 c 0,3.473 1.04,6.375 3.1,8.739 2.06,2.351 4.68,3.531 7.9,3.531 5.77,0 8.64,-4.008 8.64,-12.012 v -19.379 z m 16.13,42.442 c 0.51,0.496 0.75,1.097 0.75,1.785 0,0.742 -0.25,1.324 -0.77,1.765 -0.51,0.43 -1.09,0.649 -1.77,0.649 -0.62,0 -1.2,-0.219 -1.71,-0.668 -0.5,-0.442 -0.76,-1.024 -0.76,-1.746 0,-0.735 0.26,-1.336 0.75,-1.817 0.49,-0.48 1.07,-0.711 1.72,-0.711 0.7,0 1.29,0.239 1.79,0.743 m -0.25,-9.141 h -2.99 v -33.301 h 2.99 z m 26.7,-30.051 c -1.44,-0.801 -2.77,-1.199 -4.01,-1.199 -1.73,0 -2.96,0.508 -3.69,1.539 -0.72,1.027 -1.08,2.699 -1.08,5 v 21.981 h 8.78 v 2.73 h -8.78 v 9.656 c -0.48,-0.168 -0.99,-0.324 -1.51,-0.476 -0.52,-0.18 -1.01,-0.352 -1.48,-0.524 v -8.656 h -6 v -2.73 h 6 v -22.372 c 0,-5.898 2.45,-8.847 7.37,-8.847 1.38,0 2.83,0.371 4.4,1.105 z m 12.71,39.192 c 0.51,0.496 0.75,1.097 0.75,1.785 0,0.742 -0.26,1.324 -0.77,1.765 -0.51,0.43 -1.09,0.649 -1.77,0.649 -0.62,0 -1.2,-0.219 -1.71,-0.668 -0.5,-0.442 -0.76,-1.024 -0.76,-1.746 0,-0.735 0.26,-1.336 0.75,-1.817 0.5,-0.48 1.07,-0.711 1.72,-0.711 0.71,0 1.29,0.239 1.79,0.743 m -0.25,-9.141 h -2.99 v -33.301 h 2.99 z m 36.42,-33.301 v 21.66 c 0,4.047 -0.94,7.137 -2.81,9.274 -1.88,2.117 -4.52,3.187 -7.96,3.187 -1.85,0 -3.85,-0.351 -5.96,-1.039 -2.12,-0.699 -3.79,-1.531 -5.03,-2.511 v -3.614 c 3.47,2.953 7.05,4.434 10.71,4.434 5.37,0 8.06,-3.578 8.06,-10.742 l -10.25,-1.528 c -7.7,-1.211 -11.53,-4.722 -11.53,-10.531 0,-2.711 0.91,-4.957 2.75,-6.738 1.85,-1.774 4.36,-2.664 7.51,-2.664 2.47,0 4.73,0.672 6.75,2.031 2.03,1.348 3.57,3.172 4.65,5.449 h 0.12 v -6.668 z m -2.99,17.918 v -3.246 c 0,-3.75 -1.07,-6.82 -3.19,-9.195 -2.13,-2.367 -4.78,-3.559 -8,-3.559 -2.34,0 -4.17,0.641 -5.48,1.926 -1.3,1.277 -1.97,2.894 -1.97,4.875 0,2.512 0.7,4.332 2.11,5.441 1.42,1.118 3.87,1.93 7.35,2.43 z m 28.38,-14.668 c -1.43,-0.801 -2.77,-1.199 -4,-1.199 -1.74,0 -2.97,0.508 -3.69,1.539 -0.73,1.027 -1.1,2.699 -1.1,5 v 21.981 h 8.79 v 2.73 h -8.79 v 9.656 c -0.47,-0.168 -0.96,-0.324 -1.49,-0.476 -0.52,-0.18 -1.02,-0.352 -1.49,-0.524 v -8.656 h -5.99 v -2.73 h 5.99 v -22.372 c 0,-5.898 2.46,-8.847 7.39,-8.847 1.36,0 2.81,0.371 4.38,1.105 z m 12.72,39.192 c 0.5,0.496 0.74,1.097 0.74,1.785 0,0.742 -0.24,1.324 -0.75,1.765 -0.52,0.43 -1.11,0.649 -1.78,0.649 -0.62,0 -1.2,-0.219 -1.71,-0.668 -0.51,-0.442 -0.77,-1.024 -0.77,-1.746 0,-0.735 0.25,-1.336 0.75,-1.817 0.5,-0.48 1.09,-0.711 1.73,-0.711 0.69,0 1.29,0.239 1.79,0.743 m -0.27,-9.141 h -2.98 v -33.301 h 2.98 z m 37.04,0 h -3.26 l -10.24,-26.633 c -0.34,-0.867 -0.66,-1.984 -0.95,-3.347 h -0.13 c -0.19,1.039 -0.52,2.203 -1,3.48 l -9.91,26.5 h -3.35 l 12.87,-33.301 h 2.73 z m 32.25,-16.781 v 1.34 c 0,5.031 -1.1,8.992 -3.32,11.902 -2.21,2.898 -5.39,4.359 -9.53,4.359 -4.41,0 -8.02,-1.672 -10.77,-5 -2.78,-3.32 -4.15,-7.422 -4.15,-12.269 0,-5.621 1.32,-9.973 3.96,-13.043 2.64,-3.078 6.12,-4.621 10.41,-4.621 4.25,0 8.1,1.222 11.55,3.672 v 3.191 c -3.56,-2.75 -7.21,-4.133 -10.93,-4.133 -3.68,0 -6.58,1.289 -8.7,3.871 -2.11,2.578 -3.18,6.16 -3.18,10.731 z m -24.53,2.726 c 0.48,3.914 1.75,6.907 3.79,9.004 2.05,2.09 4.65,3.141 7.76,3.141 3.01,0 5.38,-1.07 7.09,-3.192 1.71,-2.128 2.63,-5.109 2.77,-8.953 z m 70,29.961 c -0.93,0.41 -2.1,0.621 -3.51,0.621 -2.64,0 -4.85,-0.906 -6.62,-2.738 -1.76,-1.82 -2.64,-4.477 -2.64,-8 v -5.789 h -6 v -2.73 h 6 v -30.571 h 2.98 v 30.571 h 8.81 v 2.73 h -8.81 v 5.527 c 0,5.512 2.06,8.262 6.16,8.262 1.61,0 2.83,-0.309 3.63,-0.937 z m 31.65,-49.207 v 33.301 h -2.99 V 322.93 c 0,-3.789 -0.96,-6.825 -2.88,-9.106 -1.91,-2.269 -4.42,-3.414 -7.53,-3.414 -3.19,0 -5.53,1.02 -7.01,3.063 -1.48,2.031 -2.23,5.308 -2.23,9.82 v 18.5 h -3.01 v -19.25 c 0,-9.91 3.92,-14.863 11.79,-14.863 4.85,0 8.41,2.281 10.74,6.863 h 0.13 v -6.051 z m -4.7,39.301 c 0.46,0.449 0.71,1.012 0.71,1.68 0,0.648 -0.27,1.187 -0.78,1.613 -0.5,0.418 -1.08,0.629 -1.69,0.629 -0.58,0 -1.09,-0.199 -1.56,-0.61 -0.47,-0.421 -0.7,-0.964 -0.7,-1.632 0,-0.723 0.24,-1.289 0.72,-1.707 0.47,-0.422 1,-0.633 1.59,-0.633 0.68,0 1.24,0.222 1.71,0.66 m -10.85,0 c 0.46,0.449 0.69,1.012 0.69,1.68 0,0.648 -0.26,1.187 -0.75,1.613 -0.49,0.418 -1.07,0.629 -1.69,0.629 -0.57,0 -1.09,-0.199 -1.57,-0.61 -0.47,-0.421 -0.71,-0.964 -0.71,-1.632 0,-0.723 0.24,-1.289 0.71,-1.707 0.48,-0.422 1.02,-0.633 1.63,-0.633 0.68,0 1.24,0.222 1.69,0.66 m 44.12,-5.934 c -0.96,0.391 -2.08,0.582 -3.32,0.582 -2.15,0 -4.07,-0.699 -5.72,-2.109 -1.65,-1.41 -2.85,-3.379 -3.61,-5.922 h -0.13 v 7.383 h -2.93 v -33.301 h 2.93 v 15.641 c 0,4.988 0.89,8.84 2.68,11.551 1.76,2.711 3.97,4.066 6.59,4.066 1.35,0 2.51,-0.359 3.51,-1.078 v 3.187" /><path
         id="path22"
         style="fill:#468fcd;fill-opacity:1;fill-rule:nonzero;stroke:none"
         d="m 279.465,34.1563 c -0.188,-0.0782 -11.059,-4.5821 -16.879,-4.5821 13.059,5.9453 22.445,18.586 26.051,32.4727 3.894,15.0195 2.129,31.8008 -4.692,45.6801 -6.652,13.507 -18.437,23.871 -32.062,30.121 -9.02,4.121 -18.531,5.457 -28.121,7.441 0,0 2.773,0.668 7.625,1.621 2.449,0.258 5.57,0.668 9.121,0.699 27.336,0.325 52.09,-16.64 60.629,-42.804 5.449,-16.0511 4.82,-34.4769 -2.824,-49.7152 13.941,18.6563 22.691,41.879 22.691,68.2812 0,12.856 -2.031,25.219 -5.688,36.879 -6.461,-0.383 -12.984,-0.043 -19.113,2.176 0,0 1.301,0.621 3.59,1.73 2.129,1.051 16.281,7.739 20.543,9.551 31.84,14.922 41.598,25.973 45.68,36.133 2.547,6.367 -0.391,20.848 -7.09,23.926 -14,6.461 -58.582,-15.871 -58.211,5.281 0.262,14.391 1.199,18.008 5.879,30.301 4.929,12.937 23.668,33.3 22.652,52.668 -0.18,3.332 -1.992,13.691 -3.117,15.488 -2.328,3.664 -13.902,10.012 -18.524,12.594 -29.031,16.261 -55.39,18.148 -82.261,-0.485 -5.492,-3.777 -12.528,-12.996 -19.711,-14.765 -11.309,-2.774 -25.449,-10.762 -30.801,-17.524 11.231,-11.824 20.762,-8.75 25.875,-19.39 5.231,-10.821 5.68,-23.426 6.109,-35.258 1.688,-46.52 -15.031,-91.387 -37.253,-131.539 -14.465,-26.121 -30.946,-51.18 -49.649,-74.5003 12.41,-19.9804 29.133,-35.4492 44.113,-53.25779 h 157.11 c 0,0 13.961,2.61718 -2.375,24.82029 -4.168,5.6289 -10.637,8.7383 -17.508,9.5313 -7.711,0.9062 -14.629,-1.0391 -21.789,-3.5742 M 257.734,334.945 c 5.254,0 9.493,-4.246 9.493,-9.484 0,-5.254 -4.239,-9.492 -9.493,-9.492 -5.242,0 -9.488,4.238 -9.488,9.492 0,5.238 4.246,9.484 9.488,9.484" /><path
         id="path24"
         style="fill:#468fcd;fill-opacity:1;fill-rule:nonzero;stroke:none"
         d="m 114.777,64.8281 c 26.461,38.1599 46.102,76.0429 48.43,86.3599 8.844,25.085 16.383,56.441 16.383,80.332 0.019,68.046 -55.461,129.714 -123.1525,123.179 -45.8906,-4.441 -68.8125,-59.621 -49.65234,-75.992 3.56644,17.813 14.41404,34.281 33.30074,34.281 11.0508,0 31.0508,-15.32 20.961,-48.308 C 29.2461,160.855 54.9063,92.8867 114.777,64.8281" /><path
         id="path26"
         style="fill:#468fcd;fill-opacity:1;fill-rule:nonzero;stroke:none"
         d="m 414.285,307.477 c -2.527,4.98 -6.726,9.746 -10.066,13.226 l 7.316,7.32 -1.359,5.954 -9.59,-9.582 c -3.59,3.449 -7.367,6.769 -11.633,9.371 -2.437,1.48 -5.066,2.859 -7.875,3.457 -2.152,0.465 -4.34,0.062 -6.476,-0.403 -2.247,-0.515 -5.957,-4.265 -6.957,-6.355 -1.137,-2.414 -0.04,-5.801 0.898,-8.082 1.105,-2.68 2.68,-5.125 4.301,-7.547 3.211,-4.754 7.004,-9.031 11.109,-13.016 3.863,-3.757 8.274,-7.136 12.942,-9.855 3.164,-1.832 9.128,-5.481 12.753,-3 2.786,1.898 5.754,4.808 6.586,8.199 0.852,3.512 -0.355,7.184 -1.949,10.313" /><path
         id="path28"
         style="fill:#468fcd;fill-opacity:1;fill-rule:nonzero;stroke:none"
         d="m 376.082,299.609 c 3.613,-3.64 7.5,-6.992 11.734,-9.882 1.997,-1.375 4.098,-2.661 6.231,-3.817 0.574,-0.305 3.808,-2.402 4.437,-1.785 -0.066,-0.066 -2.726,-2.617 -4.089,-3.816 -4.391,-3.871 -14.309,-9.829 -15.602,-10.039 -9.59,-3.665 -16.008,-2.262 -27.875,3.238 l -0.563,0.129 -0.113,0.554 c -5.496,11.868 -4.359,23.504 -2.488,29.258 1.094,3.406 5.418,9.809 9.293,14.207 1.18,1.371 3.918,4.211 4.082,4.36 -0.676,-0.668 1.976,-4.75 2.336,-5.379 1.75,-3.227 3.73,-6.328 5.937,-9.258 2.063,-2.738 4.293,-5.332 6.68,-7.77" /></g></g></svg>