<?xml version="1.0" encoding="UTF-8"?>
<!DOCTYPE svg PUBLIC "-//W3C//DTD SVG 1.1//EN" "http://www.w3.org/Graphics/SVG/1.1/DTD/svg11.dtd">
<!-- Creator: CorelDRAW -->
<svg xmlns="http://www.w3.org/2000/svg" xml:space="preserve" width="2091px" height="629px" shape-rendering="geometricPrecision" text-rendering="geometricPrecision" image-rendering="optimizeQuality" fill-rule="evenodd" clip-rule="evenodd"
viewBox="0 0 1977.39 594.82"
 xmlns:xlink="http://www.w3.org/1999/xlink">
 <g id="Ebene_x0020_1">
  <metadata id="CorelCorpID_0Corel-Layer"/>
  <path fill="#324189" fill-rule="nonzero" d="M0 594.82l1977.39 0 0 -594.82 -1977.39 0 0 594.82zm8.03636 -586.784l0 578.748 1961.31 0 0 -578.748 -1961.31 0z"/>
  <path fill="white" fill-rule="nonzero" d="M96.8239 178.039c0,5.83376 0.260246,13.2636 6.54078,19.1879 3.97853,3.71158 10.965,5.40598 17.7727,5.40598 5.92423,0 11.4922,-1.32357 16.0024,-4.96479 6.63572,-5.39704 6.72061,-14.7681 6.72061,-18.6607l0 -42.9686 -14.4107 0 0 42.8837c0,11.8485 -6.36654,11.8485 -9.10974,11.8485 -8.75344,0 -8.75344,-8.04641 -8.75344,-11.9389l0 -42.7932 -14.7626 0 0 42.0002zm63.6989 22.8994l13.0872 0 0 -30.4187c0,-1.67987 -0.356303,-9.90165 -0.44119,-11.758l0.44119 0c3.36086,7.87106 3.44575,8.13689 4.86091,10.6991l17.2455 31.4775 11.6731 0 0 -64.8996 -13.0872 0 0 24.1381c0,2.4729 0,3.00456 0.265831,7.42875l0.350718 6.54078 -0.44119 0c-0.265831,-0.44119 -1.14933,-2.8292 -1.41516,-3.36086 -0.616549,-1.32469 -1.50451,-3.09503 -2.21154,-4.4186l-16.7094 -30.3282 -13.6188 0 0 64.8996zm78.2057 0.0145202l0 -64.9141 -14.3258 0 0 64.9141 14.3258 0zm46.0167 -0.0145202l19.3632 -64.8996 -14.146 0 -9.6414 34.3056c-1.05886,3.89253 -2.12218,7.78058 -3.09056,11.6731l-0.355186 0c-0.531662,-2.03729 -1.59052,-5.74888 -3.09503,-11.0566l-10.0781 -34.9222 -14.2365 0 19.8044 64.8996 15.4752 0zm29.037 0l45.628 0 0 -12.1143 -31.301 0 0 -15.2942 20.0691 0 0 -11.8485 -20.2501 0 0 -13.7953 29.4458 0 0 -11.8474 -43.5918 0 0 64.8996zm72.6333 -54.8226c7.95594,0 9.72629,0 11.9334,0.797493 2.8292,1.05886 4.24436,3.27039 4.24436,7.78058 0,3.53622 -0.351835,7.07245 -4.86091,8.66296 -2.03618,0.707021 -3.27039,0.707021 -11.3168,0.707021l0 -17.9481zm0 28.2965l4.77044 0 12.2952 26.5261 15.4696 0 -14.146 -28.8281c9.10974,-2.73873 12.3801,-9.0148 12.3801,-17.241 0,-17.4164 -13.353,-18.8304 -23.8723,-18.8304l-20.9571 0 0 64.8996 14.06 0 0 -26.5261zm85.3597 -28.0307c-5.3021,-7.78058 -12.0238,-11.672 -21.5748,-11.672 -13.3485,0 -21.1291,7.69458 -21.1291,18.3937 0,12.8213 8.4876,17.1506 18.2999,20.9526 9.72629,3.80317 12.3801,4.86649 12.3801,9.7274 0,5.92423 -5.56905,7.33828 -8.66408,7.33828 -5.5724,0 -9.90611,-3.36086 -12.2941,-8.83832l-11.051 7.33828c5.83376,10.4344 12.5555,13.1866 23.9628,13.1866 3.27039,0 8.66296,-0.972852 12.465,-3.28379 9.20021,-5.57352 9.20021,-14.2365 9.20021,-17.1562 0,-6.09959 -2.8292,-10.344 -3.62669,-11.4073 -2.56337,-3.53622 -7.16292,-6.18895 -11.051,-7.60411l-8.22624 -3.00456c-3.97853,-1.41516 -8.22177,-3.27039 -8.22177,-7.87106 0,-0.707021 0.175359,-6.27495 7.60411,-6.27495 5.04185,0 9.19463,3.36086 11.2263,7.24892l10.7003 -7.07356zm28.6003 54.5713l0 -64.9141 -14.327 0 0 64.9141 14.327 0zm11.796 -64.9141l0 11.8474 16.534 0 0 53.0523 14.8575 0 0 -53.0523 16.1822 0 0 -11.8474 -47.5737 0zm65.8211 -6.36654l11.2308 0 0 -10.2579 -11.2308 0 0 10.2579zm17.2455 0l11.2263 0 0 -10.2579 -11.2263 0 0 10.2579zm4.15389 47.3034l-14.5872 0 7.07245 -29.3553 0.351835 0 7.16292 29.3553zm-16.0024 -40.9369l-18.3044 64.8996 13.8802 0 3.36086 -12.9118 19.8949 0 3.27039 12.9118 13.8846 0 -18.7456 -64.8996 -17.241 0zm41.3267 0l0 11.8474 16.534 0 0 53.0523 14.8575 0 0 -53.0523 16.1822 0 0 -11.8474 -47.5737 0z"/>
  <path fill="white" fill-rule="nonzero" d="M99.4912 369.73c16.534,0 30.8833,0 33.7505,-0.270299 8.0654,-0.683565 14.213,-1.36713 21.4564,-5.05526 11.0655,-5.60591 13.6624,-17.6309 13.7998,-28.9711l0.137383 -17.0836c0.137383,-22.5487 -1.63743,-29.5173 -6.01471,-35.9397 -5.73882,-8.3357 -14.3448,-12.9777 -38.8057,-12.9777l-24.3235 0 0 100.298zm22.4102 -82.5349c11.7491,0 16.534,0 20.7683,6.14762 3.41783,4.92234 3.69259,13.258 3.69259,25.2819 0,3.41783 -0.274767,8.88188 -0.274767,12.2997 0,19.2672 -9.01927,20.9057 -17.9012,20.9057l-6.285 0 0 -64.6349zm117.715 47.1414c0,9.01927 0.407682,20.498 10.1105,29.6547 6.14762,5.73882 16.9473,8.35916 27.4655,8.35916 9.15777,0 17.7682,-2.0507 24.7368,-7.67559 10.249,-8.3357 10.3819,-22.819 10.3819,-28.8326l0 -66.4097 -22.2728 0 0 66.2712c0,18.3144 -9.83575,18.3144 -14.0745,18.3144 -13.5295,0 -13.5295,-12.4371 -13.5295,-18.4518l0 -66.1338 -22.8179 0 0 64.9041zm168.412 35.417l0 -100.321 -22.1355 0 0 100.321 22.1355 0zm135.212 -84.3332c-8.20279,-12.0294 -18.5847,-18.0385 -33.3428,-18.0385 -20.6343,0 -32.6592,11.8864 -32.6592,28.4193 0,19.8189 13.1162,26.5116 28.2831,32.3889 15.0329,5.87621 19.1342,7.51364 19.1342,15.0329 0,9.15218 -8.61047,11.3414 -13.391,11.3414 -8.61047,0 -15.3087,-5.19376 -18.9969,-13.6668l-17.0802 11.3403c9.01927,16.1252 19.4057,20.3886 37.0309,20.3886 5.05637,0 13.3921,-1.50563 19.2683,-5.07983 14.2119,-8.61047 14.2119,-22.0014 14.2119,-26.5116 0,-9.42695 -4.37169,-15.9878 -5.60144,-17.6297 -3.96289,-5.46406 -11.0688,-9.56545 -17.0836,-11.7491l-12.7074 -4.64758c-6.14762,-2.18808 -12.7074,-5.05526 -12.7074,-12.1612 0,-1.09125 0.270299,-9.70283 11.7524,-9.70283 7.78505,0 14.2086,5.19376 17.3505,11.2073l16.5385 -10.9315zm69.0725 84.3098l32.3834 0c12.7085,0 21.319,-0.546182 28.5623,-7.92243 6.6938,-6.69827 7.78505,-14.2119 7.78505,-21.5937 0,-14.7581 -9.28957,-21.997 -15.9867,-22.9564l0 -0.683565c7.78952,-1.77481 13.8031,-9.56545 13.8031,-21.7267 0,-8.3357 -3.41783,-16.8088 -10.7941,-21.319 -5.73882,-3.55074 -14.0745,-4.09581 -22.6861,-4.09581l-33.0669 0 0 100.298zm21.4519 -43.9995c7.78952,0 15.579,0 18.7221,1.22975 5.19264,2.18361 6.42239,7.78952 6.42239,12.57 0,10.249 -5.46852,14.3504 -14.213,14.3504l-10.9315 0 0 -28.1502zm0 -40.8609l9.9776 0c4.51019,0 13.391,0 13.391,12.1657 0,12.7074 -5.73882,13.2536 -23.3686,13.2536l0 -25.4193zm116.627 49.4669c0,9.01927 0.408799,20.498 10.1116,29.6547 6.1465,5.73882 16.9462,8.35916 27.4655,8.35916 9.15665,0 17.7671,-2.0507 24.7357,-7.67559 10.249,-8.3357 10.3819,-22.819 10.3819,-28.8326l0 -66.4097 -22.2728 0 0 66.2712c0,18.3144 -9.83575,18.3144 -14.0745,18.3144 -13.5283,0 -13.5283,-12.4371 -13.5283,-18.4518l0 -66.1338 -22.819 0 0 64.9041zm166.228 -49.3295c12.2997,0 15.0295,0 18.4473,1.22975 4.37169,1.6419 6.55977,5.05526 6.55977,12.0283 0,5.46406 -0.546182,10.9326 -7.51475,13.391 -3.14641,1.09236 -5.05972,1.09236 -17.4924,1.09236l0 -27.7414zm0 43.7292l7.37737 0 18.9969 40.9938 23.9103 0 -21.8596 -44.5446c14.0745,-4.23989 19.1298,-13.9427 19.1298,-26.6501 0,-26.9193 -20.6343,-29.1029 -36.8969,-29.1029l-32.3845 0 0 100.298 21.7267 0 0 -40.9938zm114.578 4.91676c0,12.4371 1.36713,20.7728 6.83007,27.7414 6.56089,8.19832 15.8505,11.0934 25.9666,11.0934 15.4372,0 19.9463,-5.2161 22.8179,-8.63392l0.954981 0 2.87165 6.99203 9.84022 0 0 -53.5884 -33.6176 0 0 16.6714 11.7535 0 0 6.83119c0,3.69259 0,13.1207 -11.4788,13.1207 -10.7985,0 -13.258,-8.0654 -13.258,-21.1816l0 -31.5669c0,-5.87621 0.820949,-15.712 12.2997,-15.712 7.51364,0 12.0238,4.09581 12.4371,12.9777l21.864 0c0,-19.4012 -13.5283,-31.0162 -32.5263,-31.0162 -9.70283,0 -18.7165,0.953864 -26.3742,7.92243 -10.3808,9.56545 -10.3808,22.2773 -10.3808,31.1592l0 27.1896z"/>
  <path fill="white" fill-rule="nonzero" d="M156.711 482.265l70.5111 0 0 -18.7221 -48.3712 0 0 -23.64 31.0162 0 0 -18.3088 -31.2921 0 0 -21.3179 45.5051 0 0 -18.3088 -67.3692 0 0 100.298zm195.906 -84.3098c-8.20279,-12.0294 -18.5836,-18.0385 -33.3428,-18.0385 -20.6343,0 -32.6581,11.8864 -32.6581,28.4193 0,19.8189 13.1151,26.5116 28.282,32.3889 15.034,5.87621 19.1354,7.51364 19.1354,15.0329 0,9.15218 -8.61158,11.3403 -13.3921,11.3403 -8.61047,0 -15.3087,-5.19264 -18.9969,-13.6657l-17.0791 11.3403c9.01927,16.1252 19.4057,20.3886 37.0309,20.3886 5.05526,0 13.391,-1.50563 19.2672,-5.07983 14.213,-8.61047 14.213,-22.0014 14.213,-26.5116 0,-9.42695 -4.37281,-15.9878 -5.60144,-17.6297 -3.96401,-5.46406 -11.07,-9.56545 -17.0847,-11.7491l-12.7074 -4.64758c-6.14762,-2.18808 -12.7074,-5.05526 -12.7074,-12.1612 0,-1.09236 0.270299,-9.70283 11.7535,-9.70283 7.78505,0 14.2074,5.19264 17.3494,11.2073l16.5385 -10.9315zm125.665 0c-8.20167,-12.0294 -18.5836,-18.0385 -33.3417,-18.0385 -20.6354,0 -32.6592,11.8864 -32.6592,28.4193 0,19.8189 13.1162,26.5116 28.282,32.3889 15.034,5.87621 19.1354,7.51364 19.1354,15.0329 0,9.15218 -8.61158,11.3403 -13.391,11.3403 -8.61158,0 -15.3087,-5.19264 -18.998,-13.6657l-17.0791 11.3403c9.01927,16.1252 19.4057,20.3886 37.0309,20.3886 5.05526,0 13.391,-1.50563 19.2683,-5.07983 14.2119,-8.61047 14.2119,-22.0014 14.2119,-26.5116 0,-9.42695 -4.37169,-15.9878 -5.60144,-17.6297 -3.96401,-5.46406 -11.07,-9.56545 -17.0847,-11.7491l-12.7074 -4.64758c-6.14762,-2.18808 -12.7074,-5.05526 -12.7074,-12.1612 0,-1.09236 0.270299,-9.70283 11.7535,-9.70283 7.78505,0 14.2074,5.19264 17.3505,11.2073l16.5374 -10.9315zm63.0779 84.3098l70.5111 0 0 -18.7221 -48.3712 0 0 -23.64 31.0162 0 0 -18.3088 -31.2921 0 0 -21.3179 45.504 0 0 -18.3088 -67.3681 0 0 100.298zm134.414 0l20.2221 0 0 -47.0085c0,-2.59241 -0.546182,-15.3043 -0.683565,-18.1714l0.683565 0c5.19264,12.1612 5.33002,12.57 7.51364,16.5329l26.6501 48.6471 18.0385 0 0 -100.298 -20.2266 0 0 37.3012c0,3.82551 0,4.64758 0.41215,11.4832l0.546182 10.1105 -0.683565 0c-0.413267,-0.683565 -1.77481,-4.37169 -2.18808,-5.19376 -0.953864,-2.0507 -2.321,-4.78384 -3.41783,-6.83454l-25.8236 -46.8667 -21.0431 0 0 100.298z"/>
 </g>
</svg>
