<?xml version="1.0" encoding="utf-8"?>
<!-- Generator: Adobe Illustrator 21.0.2, SVG Export Plug-In . SVG Version: 6.00 Build 0)  -->
<svg version="1.1" id="Ebene_1" xmlns="http://www.w3.org/2000/svg" xmlns:xlink="http://www.w3.org/1999/xlink" x="0px" y="0px"
	 viewBox="0 0 459.3 102.7" style="enable-background:new 0 0 459.3 102.7;" xml:space="preserve">
<style type="text/css">
	.st0{fill:#010202;}
	.st1{fill:#FFFFFF;}
	.st2{fill:#009039;}
	.st3{fill:#E2071B;}
</style>
<path id="Schwarz_2_" class="st0" d="M453.6,5.5v48c0,24.1-19.4,43.6-43.4,43.6c-23.9,0-43.4-19.5-43.4-43.6v-48H453.6z"/>
<path class="st1" d="M452,53.6c0,23.2-18.7,42-41.7,42c-23,0-41.7-18.8-41.7-42V7.2H452L452,53.6L452,53.6z"/>
<g>
	<path id="Grün_2_" class="st2" d="M409.2,24.8v28.8c0,14.5-7.7,27.2-19.3,34.2c-5.9-3.5-10.8-8.6-14.1-14.6c2.1-2.2,4.1-4.4,5.7-7
		c3.3-5.3,3.7-12,7.6-16.9c3.6-4.5,9.9-5.8,13.2-10.3C405.5,34.7,406.5,29.3,409.2,24.8z M370.7,9.3h32.7c-1.2,1.3-2.4,2.7-3.5,4.2
		c-4.1,5.5-3.7,13.2-7.9,18.6c-3.6,4.7-9.8,5.9-13.2,10.3c-3.9,4.9-4.1,11.7-7.8,16.8c-0.3-1.8-0.4-3.7-0.4-5.6L370.7,9.3L370.7,9.3
		z M418.8,85c0.5,0.6,0.9,1.3,1.1,2c-0.6,0.5-1.3,0.9-2,1c0.1-0.6,0-1.3-0.3-1.8C418.1,86,418.5,85.6,418.8,85z M413.9,76.1
		c0.7-0.3,1.5-0.5,2.3-0.4c0.3,0.7,0.4,1.5,0.4,2.3c-0.6-0.3-1.2-0.4-1.8-0.3C414.7,77.1,414.4,76.6,413.9,76.1z M404,78
		c-0.1-0.8,0-1.6,0.4-2.3c0.8-0.1,1.6,0,2.3,0.4c-0.5,0.4-0.8,1-0.8,1.7C405.2,77.6,404.5,77.7,404,78z M402.7,88.1
		c-0.8-0.2-1.5-0.5-2-1c0.2-0.8,0.5-1.5,1-2c0.3,0.6,0.7,1,1.3,1.3C402.7,86.8,402.6,87.5,402.7,88.1z M411.9,92.4
		c-0.4,0.7-0.9,1.2-1.6,1.6c-0.7-0.4-1.2-0.9-1.6-1.6c0.6-0.1,1.2-0.4,1.6-0.9C410.7,92,411.3,92.3,411.9,92.4z"/>
	<path id="Rot_2_" class="st3" d="M405.5,90.5c-1.8-1.3-2.4-3.5-0.7-4.3c0.1-0.3,0-0.6-0.3-0.8c-1.9,0.3-2.6-1.9-2-3.9
		c0.7-2.1,2.6-3.4,3.9-2c0.3,0,0.6-0.2,0.7-0.5c-0.9-1.7,1-3.1,3.1-3.1c2.2,0,4,1.4,3.1,3.1c0.1,0.3,0.4,0.5,0.7,0.5
		c1.3-1.3,3.2,0,3.9,2s-0.1,4.2-2,3.9c-0.3,0.2-0.4,0.5-0.3,0.8c1.7,0.9,1,3.1-0.7,4.3c-1.8,1.3-4.1,1.2-4.4-0.7
		c-0.2-0.2-0.6-0.2-0.9,0C409.5,91.7,407.2,91.8,405.5,90.5z M411.3,9.3h38.5v44.2c0,14.5-7.7,27.2-19.3,34.2
		c-11.5-7-19.3-19.6-19.3-34.2V9.3z"/>
	<g>
		<path d="M3.5,12.1c0,3.5,0,6.9,0,10.5c-0.8,0-1.5,0-2.3,0c0-5,0-10.1,0-15.2c1,0,2-0.1,3,0c0.2,0,0.5,0.5,0.6,0.8
			C6,11.4,7.1,14.7,8.2,18c0.1,0.4,0.3,0.8,0.5,1.4c0.2-0.6,0.4-1,0.5-1.4c1.1-3.2,2.1-6.5,3.1-9.7c0.2-0.7,0.5-0.9,1.2-0.9
			c0.8,0.1,1.6,0,2.5,0c0,5.1,0,10.1,0,15.2c-0.8,0-1.6,0-2.5,0c0-3.5,0-6.9,0-10.3c-0.1,0-0.2,0-0.2,0c-0.2,0.6-0.4,1.2-0.6,1.8
			c-0.9,2.6-1.9,5.2-2.8,7.9c-0.3,0.9-0.9,0.7-1.5,0.8c-0.6,0-1.1,0-1.4-0.8c-1.1-3.3-2.3-6.5-3.4-9.8C3.6,12.1,3.5,12.1,3.5,12.1z"
			/>
		<path d="M116.9,43c0.8-3.6,1.7-7.2,2.5-10.8c2.5-0.3,2.5-0.3,3,2c0.7,2.7,1.3,5.5,2,8.2c0.1,0.2,0.1,0.4,0.3,0.8
			c0.9-3.8,1.8-7.4,2.6-11.1c0.8,0,1.6,0,2.4,0c-0.7,2.6-1.3,5.1-2,7.6c-0.6,2.2-1.2,4.4-1.7,6.6c-0.2,1.1-0.8,1.1-1.7,1.1
			c-0.9,0-1.1-0.4-1.2-1.1c-0.8-3.4-1.6-6.7-2.6-10.2c-0.1,0.4-0.2,0.8-0.3,1.2c-0.8,3.1-1.5,6.2-2.3,9.3c-0.1,0.6-0.4,0.9-1,0.8
			c-0.6-0.1-1.4,0.4-1.7-0.6c-1.2-4.7-2.5-9.4-3.7-14.1c0-0.1,0-0.3-0.1-0.5c0.9,0,1.7,0,2.5,0c0.9,3.6,1.8,7.2,2.7,10.8
			C116.8,43,116.8,43,116.9,43z"/>
		<path d="M239.6,68c0.7-3.2,1.5-6.2,2.2-9.2c0.5-2.2,0.5-2.2,2.9-1.8c-0.7,2.7-1.4,5.4-2.1,8c-0.5,2.1-1.2,4.1-1.6,6.2
			c-0.2,1-0.8,0.9-1.6,1c-0.8,0.1-1.1-0.3-1.3-1.1c-0.8-3.4-1.6-6.8-2.4-10.5c-0.2,0.4-0.3,0.7-0.3,0.9c-0.8,3.3-1.7,6.6-2.4,9.9
			c-0.2,0.7-0.6,0.8-1.1,0.7c-0.6-0.1-1.3,0.3-1.6-0.7c-1.2-4.6-2.5-9.3-3.7-13.9c0-0.2,0-0.4,0-0.7c0.6,0,1.1,0,1.7,0
			c0.7-0.1,0.9,0.2,1,0.8c0.7,3.1,1.5,6.2,2.3,9.3c0.1,0.3,0.1,0.5,0.3,1c0.9-3.8,1.8-7.5,2.6-11c0.1-0.1,0.2-0.1,0.2-0.1
			c2.3-0.1,2.3-0.1,2.8,2.1c0.6,2.7,1.3,5.4,1.9,8.1C239.4,67.3,239.5,67.6,239.6,68z"/>
		<path d="M130.7,67.4c0-3.5,0-6.9,0-10.4c0.8,0,1.5,0,2.3,0c0,5,0,10.1,0,15.1c-2,0.4-2.2,0.3-3.2-1.3c-1.9-2.9-3.8-5.7-5.8-8.5
			c-0.2-0.3-0.4-0.6-0.8-1.1c0,3.9,0,7.4,0,11c-0.8,0-1.5,0-2.3,0c0-5.1,0-10.1,0-15.2c0.8,0,1.5-0.1,2.2,0c0.3,0.1,0.7,0.4,0.9,0.7
			c2,3,4,6,6,9c0.2,0.3,0.3,0.5,0.5,0.8C130.5,67.4,130.6,67.4,130.7,67.4z"/>
		<path d="M116.5,22.6c-0.9,0-1.7,0-2.6,0c0-1.4,0-2.8,0-4.1c0-1.1,0-2.2,0-3.3c0-1.1-0.5-1.5-1.6-1.5c-1.6,0.1-2.7,1.2-2.7,2.8
			c0,2,0,4,0,6.1c-0.9,0-1.7,0-2.5,0c0-1.5,0-2.9,0-4.4c0-0.8,0-1.5,0-2.3c0-0.9,0.2-1.9-1-2.2c-0.9-0.3-2.9,0.5-3.3,1.3
			c-0.1,0.3-0.1,0.6-0.1,0.9c0,2.2,0,4.4,0,6.6c-0.9,0-1.6,0-2.5,0c0-3.7,0-7.2,0-10.9c0.8,0,1.6,0,2.4,0c0,0.4,0.1,0.8,0.1,1.2
			c3.4-2,5.1-2,6.6,0.1c1-0.5,1.9-1.1,2.9-1.3c2.6-0.7,4.2,0.6,4.2,3.3c0,2.2,0,4.4,0,6.6C116.5,21.9,116.5,22.2,116.5,22.6z"/>
		<path d="M1.2,32.2c0.8,0,1.6,0,2.5,0c0,2.3,0,4.5,0,7c1.6-1.9,3-3.5,4.4-5.2c0.1-0.1,0.2-0.3,0.3-0.4c0.9-1.8,2.5-1.7,4.3-1.4
			c-1.4,1.6-2.7,3.1-4.1,4.6c-1.3,1.4-1.2,0.9-0.2,2.5c1.4,2.3,2.9,4.7,4.3,7c0.2,0.3,0.3,0.6,0.6,1c-1,0-1.8,0.1-2.6,0
			c-0.3,0-0.6-0.4-0.8-0.7c-1.4-2.2-2.7-4.4-4-6.5c-3.1,1.6-2.1,4.5-2.3,7.1c-0.8,0-1.6,0-2.5,0C1.2,42.3,1.2,37.3,1.2,32.2z"/>
		<path d="M10.7,72.1c-2.1,0.3-2.3,0.2-2.6-0.9c-1,0.4-1.9,1-2.9,1.1c-2.2,0.3-3.9-0.8-4.5-3c-0.5-1.7-0.5-3.5,0-5.2
			c0.9-2.9,4.1-4,6.7-2.4c0.2,0.1,0.4,0.3,0.7,0.5c0-1.8,0-3.5,0-5.2c0.9,0,1.7,0,2.6,0C10.7,62,10.7,67,10.7,72.1z M8,66.7
			C8,66.7,8.1,66.7,8,66.7c0-0.8,0.1-1.8-0.2-2.4C7.2,63.4,6.2,63,5,63.2C3.9,63.3,3.2,64,3.1,65c-0.2,1-0.2,2.1,0,3.1
			c0.2,1.5,1.3,2.3,2.7,2.1C7.3,70,8,69.2,8,67.6C8,67.3,8,67,8,66.7z"/>
		<path d="M100.6,46.5c-1.2,0.4-2.3,0.9-3.4,1c-1.9,0.2-3.4-0.9-4-2.8c-0.6-1.7-0.6-3.4-0.1-5.2c0.9-3.2,4.3-4.4,7-2.5
			c0.1,0.1,0.2,0.2,0.5,0.4c0-1,0-1.8,0-2.7c0-0.9,0-1.7,0-2.6c0.9,0,1.6,0,2.6,0c0,5.1,0,10.1,0,15.1
			C101.7,47.8,100.9,47.5,100.6,46.5z M100.6,42C100.7,42,100.7,42,100.6,42c0-0.8,0.2-1.7-0.2-2.3c-0.5-1-1.5-1.3-2.6-1.2
			c-1,0.1-1.9,0.5-2.1,1.5c-0.2,1.1-0.3,2.2-0.2,3.2c0.1,1.5,1.3,2.4,2.6,2.3c1.6-0.1,2.5-1.1,2.5-2.7
			C100.6,42.5,100.6,42.2,100.6,42z"/>
		<path d="M86.2,62.2c0-1.9,0-3.6,0-5.3c0.8,0,1.6,0,2.6,0c0,5.1,0,10.1,0,15.1c-2,0.4-2.3,0.3-2.6-0.9c-1,0.4-2.1,1-3.2,1.1
			c-2.1,0.2-3.6-0.9-4.3-2.9c-0.5-1.7-0.6-3.4,0-5.2c0.9-3,4.2-4.1,6.8-2.4C85.7,61.9,85.8,62,86.2,62.2z M86.2,66.7
			C86.2,66.7,86.2,66.7,86.2,66.7c0-0.8,0.2-1.7-0.2-2.3c-0.5-0.9-1.6-1.3-2.7-1.2c-1.1,0.1-1.9,0.6-2.1,1.6c-0.2,1-0.3,2-0.2,3.1
			c0.1,1.6,1.3,2.5,2.7,2.4c1.6-0.1,2.5-1.1,2.5-2.7C86.2,67.3,86.2,67,86.2,66.7z"/>
		<path d="M164.4,56.9c0.9,0,1.6,0,2.6,0c0,5.1,0,10.1,0,15.2c-1.9,0.4-2.3,0.2-2.6-1c-0.8,0.4-1.5,0.9-2.4,1.1
			c-2.4,0.6-4.6-0.6-5.1-3.1c-0.3-1.5-0.3-3.2,0-4.8c0.7-3.2,4.1-4.3,6.8-2.6c0.2,0.1,0.3,0.2,0.7,0.4c0-1,0-1.8,0-2.7
			C164.4,58.7,164.4,57.9,164.4,56.9z M164.4,66.7C164.4,66.7,164.4,66.7,164.4,66.7c0-0.8,0.1-1.7-0.2-2.3c-0.6-1-1.7-1.4-2.9-1.2
			c-1.1,0.1-1.8,0.9-2,1.9c-0.2,0.9-0.2,1.9-0.1,2.9c0.2,1.6,1.3,2.4,2.6,2.3c1.6-0.1,2.5-1.1,2.5-2.7
			C164.4,67.2,164.4,67,164.4,66.7z"/>
		<path d="M205.4,32.2c0.8,0,1.6,0,2.5,0c0,1.8,0,3.6,0,5.4c1.1-0.4,2-1,3-1.2c2.6-0.6,4.2,0.7,4.2,3.3c0,2.5,0,5.1,0,7.7
			c-0.9,0-1.7,0-2.6,0c0-1.3,0-2.5,0-3.7c0-1.1,0-2.3,0-3.4c0-1.4-0.7-2-2.1-1.8c-1.6,0.2-2.4,1.2-2.4,2.8c0,2,0,4,0,6.1
			c-0.9,0-1.7,0-2.5,0C205.4,42.3,205.4,37.3,205.4,32.2z"/>
		<path d="M180.9,57c0,1.8,0,3.6,0,5.5c0.3-0.2,0.5-0.3,0.7-0.3c0.8-0.3,1.6-0.8,2.5-1c2.5-0.5,4,0.8,4,3.3c0,2.5,0,5.1,0,7.7
			c-0.9,0-1.7,0-2.6,0c0-1.4,0-2.8,0-4.3c0-0.8,0-1.5,0-2.3c0-0.9,0.2-1.9-1-2.3c-1-0.3-2.9,0.4-3.4,1.3c-0.1,0.2-0.1,0.6-0.1,0.9
			c0,2.2,0,4.4,0,6.7c-0.9,0-1.6,0-2.5,0c0-5,0-10.1,0-15.2C179.2,57,180,57,180.9,57z"/>
		<path d="M224.2,40.2c0.2-1.3-0.3-2-1.5-1.8c-1.3,0.2-2.6,0.7-3.9,1c0,0.1,0,0.2,0,0.3c-0.4-0.5-0.8-1-1.2-1.5
			c1.6-1.8,5-2.6,7.2-1.8c1.1,0.4,1.8,1.2,1.9,2.4c0.1,1.3,0.1,2.5,0.2,3.8c0,1.5,0,3.1,0,4.7c-1.6,0.4-2.2,0.2-2.7-1.1
			c-1.2,1-2.6,1.4-4.1,1.3c-1.2-0.1-2.2-0.5-2.6-1.6c-0.5-1.2-0.3-2.4,0.6-3.4c1.4-1.5,3.3-1.8,5.2-2.2
			C223.5,40.3,223.8,40.3,224.2,40.2z M224.1,41.8c-1.2,0.4-2.5,0.8-3.6,1.2c-0.6,0.3-1,0.9-0.8,1.6c0.2,0.8,0.9,1,1.5,0.9
			C223.6,45.3,224.7,45,224.1,41.8z"/>
		<path d="M60.9,71c-1.2,1-2.4,1.4-3.9,1.3c-1.3,0-2.4-0.4-2.9-1.7c-0.5-1.2-0.1-2.7,0.9-3.7c1.4-1.2,3.2-1.5,4.9-1.9
			c0.4-0.1,1.2,0.1,1-0.6c-0.1-0.5-0.6-1.2-1-1.2c-1.1,0-2.1,0.3-3.2,0.5c-0.4,0.1-0.8,0.5-1.3,0.8c-0.4-0.5-0.8-1-1.1-1.4
			c1.5-1.9,5.6-2.8,7.7-1.6c0.9,0.5,1.4,1.4,1.4,2.4c0.1,2,0.1,3.9,0.1,5.9c0,0.8,0.1,1.5,0.1,2.3C62.2,72.5,61.4,72.3,60.9,71z
			 M60.9,66.6c-1.2,0.4-2.3,0.7-3.4,1.1c-0.7,0.3-1.3,0.9-1,1.8c0.3,0.8,1,1,1.8,0.9C61,69.9,61.3,69.4,60.9,66.6z"/>
		<path d="M286,64.3c-0.2-0.3-0.6-0.7-0.9-1.2c1.6-1.8,5.3-2.6,7.4-1.7c1.2,0.5,1.7,1.6,1.8,2.8c0.1,1.3,0,2.6,0,3.9
			c0,1.3,0,2.7,0,4c-1.9,0.4-2.2,0.3-2.6-1.1c-1.2,1-2.5,1.4-4,1.4c-1.3,0-2.3-0.4-2.9-1.6c-0.5-1.2-0.3-2.9,0.9-3.6
			c1.2-0.8,2.6-1.2,4-1.8c0.6-0.2,1.3-0.3,2-0.4c0.1-1.3-0.4-1.9-1.5-1.8C288.8,63.3,287.5,63.9,286,64.3z M291.6,66.6
			c-1.2,0.4-2.4,0.7-3.6,1.2c-0.7,0.3-1,0.9-0.8,1.7c0.2,0.8,1,1,1.7,0.9C291.5,69.9,292.1,69.4,291.6,66.6z"/>
		<path d="M167,44.4c0.4,0.4,0.8,0.8,1.3,1.2c-1.7,1.9-3.8,2.4-6.1,1.9c-2.1-0.5-3.3-1.9-3.7-4c-0.3-1.7-0.2-3.5,0.8-5
			c1.2-1.8,3.1-2.5,5.2-2.2c2.1,0.3,3.2,1.7,3.7,3.7c0.2,0.9,0.2,1.8,0.3,2.8c-1.3,0-2.6,0-3.8,0c-1.2,0-2.5,0-3.7,0
			c0,1.1,0.4,1.9,1.3,2.5C163.6,45.9,165,45.7,167,44.4z M161.1,40.8c1.7,0,3.3,0,4.9,0c-0.1-1.6-0.9-2.5-2.3-2.5
			C162.3,38.3,161.3,39.3,161.1,40.8z"/>
		<path d="M255.4,67.6c-2.6,0-5.1,0-7.5,0c0.1,2.9,2.8,3.6,6,1.6c0.4,0.4,0.8,0.8,1.2,1.2c-1.4,1.8-3.9,2.5-6.3,1.8
			c-2.1-0.6-3.4-2.3-3.6-4.7c-0.2-3,0.9-5.2,3.1-6.1c3-1.3,6,0.2,6.7,3.4C255.3,65.7,255.3,66.6,255.4,67.6z M247.9,65.5
			c1.7,0,3.3,0,4.9,0c-0.2-1.7-1.1-2.5-2.4-2.5C249.1,63.1,248.2,64,247.9,65.5z"/>
		<path d="M71.4,18.1c-2.6,0-5,0-7.5,0c-0.1,1.1,0.3,2,1.3,2.4c1.7,0.8,3.2,0.4,4.6-0.9c0.4,0.4,0.9,0.8,1.4,1.3
			c-1.7,1.9-3.8,2.3-6.1,1.8c-2.1-0.5-3.3-2-3.7-4.1c-0.5-2.8,0.5-5.3,2.5-6.5c3.3-1.8,6.7-0.1,7.3,3.5
			C71.3,16.4,71.3,17.2,71.4,18.1z M68.8,16.1c-0.1-1.6-1-2.5-2.4-2.5c-1.4,0-2.3,0.9-2.5,2.5C65.6,16.1,67.2,16.1,68.8,16.1z"/>
		<path d="M312.1,67.6c-1.4,0-2.7,0-3.9,0c-1.2,0-2.4,0-3.6,0c0.3,3,2.6,3.6,6.1,1.6c0.4,0.4,0.7,0.8,1.1,1.2
			c-1.3,1.7-3.9,2.5-6.3,1.8c-2.1-0.6-3.4-2.3-3.5-4.6c0-1,0-2.1,0.3-3c0.6-2.2,2.8-3.6,5.1-3.5c2.3,0.1,3.9,1.4,4.4,3.9
			C312,65.7,312,66.6,312.1,67.6z M304.7,65.6c1.6,0,3.2,0,4.8,0c-0.2-1.7-1.1-2.5-2.5-2.5C305.7,63.1,304.8,64.1,304.7,65.6z"/>
		<path d="M101.1,67.6c-2.6,0-5,0-7.5,0c0,1.1,0.4,2,1.3,2.4c1.7,0.8,3.2,0.4,4.7-0.9c0.3,0.5,0.7,1,1.1,1.6
			c-0.3,0.2-0.7,0.6-1.1,0.9c-2.8,1.7-6.5,0.9-7.9-1.6c-1.7-3-0.6-7.1,2.3-8.4c3.1-1.4,6.2,0.1,6.9,3.4
			C101,65.7,101,66.6,101.1,67.6z M93.6,65.6c1.7,0,3.3,0,5,0c-0.1-1.6-0.8-2.3-2.2-2.5C95,63,94.1,63.8,93.6,65.6z"/>
		<path d="M22.9,67.6c-2.6,0-5,0-7.4,0c0,1.1,0.4,2,1.3,2.4c1.7,0.8,3.2,0.4,4.6-0.8c0.4,0.5,0.8,0.9,1.2,1.4
			c-1.3,1.7-3.9,2.4-6.3,1.6c-2.1-0.7-3.4-2.4-3.4-4.8c0-0.9,0-1.8,0.2-2.6c0.6-2.4,2.9-3.9,5.4-3.7c2.4,0.2,4,1.9,4.3,4.5
			C22.9,66.1,22.9,66.8,22.9,67.6z M20.5,65.6c-0.2-1.7-1.1-2.6-2.5-2.5c-1.4,0.1-2.3,1-2.4,2.5C17.2,65.6,18.8,65.6,20.5,65.6z"/>
		<path d="M198.9,69.1c0.5,0.5,0.8,0.8,1.3,1.3c-0.3,0.3-0.6,0.6-0.9,0.8c-2,1.4-4.1,1.6-6.2,0.6c-2.1-1-2.7-2.9-2.7-5
			c0-4,2.8-6.5,6.5-5.7c1.4,0.3,2.5,1.1,2.9,2.5c0.4,1.2,0.5,2.5,0.8,3.9c-2.7,0-5.2,0-7.6,0c0,1.1,0.4,2,1.3,2.5
			C195.9,70.8,197.4,70.3,198.9,69.1z M197.9,65.6c-0.2-1.7-1-2.5-2.4-2.5c-1.4,0-2.4,1-2.4,2.5C194.6,65.6,196.2,65.6,197.9,65.6z"
			/>
		<path d="M141,72.4c-3.3,0-5.4-2.3-5.3-5.7c0-3.5,2.2-5.7,5.4-5.7c3.2,0,5.3,2.3,5.3,5.7C146.4,70.1,144.2,72.4,141,72.4z
			 M143.8,66.8c0-2-0.8-3.3-2.3-3.5c-1.8-0.3-3,0.8-3.3,2.9c-0.3,2.2,0.8,3.9,2.5,4.1c0.1,0,0.1,0,0.2,0
			C142.7,70.3,143.7,69,143.8,66.8z"/>
		<path d="M97.2,22.6c-0.9,0-1.6,0-2.5,0c0-0.4-0.1-0.7-0.1-0.9c-1.1,0.4-2.2,1-3.4,1.1c-2.4,0.4-3.7-0.8-3.7-3.2c0-2.6,0-5.2,0-7.9
			c0.9,0,1.7,0,2.6,0c0,2.2,0,4.4,0,6.6c0,0.9-0.1,1.9,1,2.3c0.9,0.3,2.9-0.4,3.4-1.3c0.1-0.2,0.1-0.6,0.1-0.9c0-2.2,0-4.5,0-6.7
			c0.9,0,1.7,0,2.5,0C97.2,15.3,97.2,18.9,97.2,22.6z"/>
		<path d="M324,72.1c-0.9,0-1.7,0-2.6,0c0-1.3,0-2.5,0-3.7c0-1.2,0-2.3,0-3.5c0-1.3-0.6-1.8-1.9-1.7c-1.7,0.2-2.7,1.2-2.7,2.9
			c0,2,0,4,0,6c-0.9,0-1.7,0-2.5,0c0-3.6,0-7.2,0-10.9c0.8,0,1.6,0,2.5,0c0,0.4,0.1,0.7,0.1,1.2c0.2-0.1,0.4-0.2,0.6-0.3
			c0.8-0.3,1.5-0.8,2.3-1c2.6-0.6,4.1,0.7,4.1,3.4c0,2.2,0,4.4,0,6.6C324,71.4,324,71.7,324,72.1z"/>
		<path d="M24.5,47.4c-0.8,0-1.6,0-2.4,0c0-0.4-0.1-0.7-0.1-1.2c-0.3,0.1-0.5,0.3-0.7,0.4c-1.1,0.4-2.1,0.9-3.2,1
			c-1.9,0.2-3.1-0.9-3.2-2.8c-0.1-2.7,0-5.5,0-8.3c0.8,0,1.7,0,2.6,0c0,1.3,0,2.5,0,3.8c0,1.2,0,2.3,0,3.5c0,1.3,0.7,1.9,2,1.7
			c1.7-0.3,2.5-1.2,2.5-2.9c0-2,0-4,0-6c0.8,0,1.6,0,2.5,0C24.5,40.1,24.5,43.7,24.5,47.4z"/>
		<path d="M50.7,47.4c-0.8,0-1.6,0-2.4,0c0-0.4-0.1-0.8-0.1-1.3c-1.2,1-2.5,1.6-4,1.5c-1.7,0-2.9-0.9-3-2.6c-0.1-2.8,0-5.7,0-8.6
			c0.8,0,1.6,0,2.5,0c0,1.1,0,2.1,0,3.2c0,1.4,0,2.9,0,4.3c0,1,0.6,1.4,1.5,1.5c1.7,0.1,3.1-1.1,3.1-2.8c0-2,0-4,0-6.1
			c0.8,0,1.6,0,2.5,0C50.7,40.1,50.7,43.7,50.7,47.4z"/>
		<path d="M140.3,11.7c0.9,0,1.7,0,2.5,0c0,3.6,0,7.2,0,10.9c-0.8,0-1.6,0-2.4,0c0-0.4-0.1-0.7-0.1-0.9c-1.1,0.4-2.3,1-3.5,1.1
			c-2.3,0.3-3.7-0.9-3.7-3.3c0-2.6,0-5.1,0-7.8c0.9,0,1.7,0,2.6,0c0,1.5,0,3,0,4.5c0,1-0.1,2,0.1,3c0,0.5,0.3,1.1,0.7,1.3
			c0.9,0.6,1.8,0.2,2.6-0.2c0.7-0.4,1.3-0.8,1.3-1.9C140.2,16.2,140.3,14,140.3,11.7z"/>
		<path d="M24.9,11.7c0.8,0,1.6,0,2.4,0c0,0.4,0.1,0.8,0.1,1.1c1-0.4,2-1,3-1.2c2.5-0.6,4.1,0.8,4.1,3.3c0,2.5,0,5.1,0,7.5
			c-0.2,0.1-0.2,0.2-0.3,0.2C32,22.9,32,22.9,32,20.6c0-1.7,0-3.4,0-5.2c0-1.4-0.7-1.9-2.1-1.7c-1.6,0.2-2.5,1.2-2.5,2.9
			c0,2,0,4,0,6c-0.9,0-1.6,0-2.5,0C24.9,19,24.9,15.4,24.9,11.7z"/>
		<path d="M210.7,72.2c-0.9,0-1.7,0-2.5,0c0-3.6,0-7.2,0-10.9c0.8,0,1.6,0,2.4,0c0.1,0.4,0.1,0.7,0.2,1.1c0.9-0.4,1.8-0.9,2.7-1.1
			c2.8-0.7,4.4,0.6,4.4,3.5c0,2.5,0,4.9,0,7.5c-0.8,0-1.6,0-2.5,0c0-0.3-0.1-0.7-0.1-1c0-2,0-4,0-6c0-1.5-0.8-2.2-2.4-1.8
			c-1.6,0.4-2.2,1.2-2.2,2.8C210.7,68.1,210.7,70,210.7,72.2z"/>
		<path d="M173.3,47.4c-0.9,0-1.7,0-2.5,0c0-3.7,0-7.2,0-10.9c0.8,0,1.6,0,2.4,0c0.1,0.3,0.1,0.7,0.2,1c1-0.4,1.9-0.9,2.9-1.1
			c2.6-0.6,4.1,0.7,4.2,3.4c0,2.5,0,5.1,0,7.7c-0.9,0-1.6,0-2.5,0c0-1.4,0-2.7,0-4c0-1.1,0-2.2,0-3.3c-0.1-1.2-0.7-1.7-1.9-1.6
			c-1.7,0.2-2.6,1.2-2.6,2.8C173.3,43.3,173.3,45.3,173.3,47.4z"/>
		<path d="M76,72.1c-0.8,0-1.6,0-2.5,0c0-1.3,0-2.5,0-3.7c0-1.1,0-2.3,0-3.4c0-1.4-0.7-2-2.1-1.7c-1.7,0.3-2.5,1.2-2.5,2.9
			c0,2,0,3.9,0,6c-0.9,0-1.6,0-2.5,0c0-3.6,0-7.2,0-10.8c0.8,0,1.6,0,2.4,0c0,0.4,0.1,0.7,0.1,1c1.1-0.4,2.1-1,3.2-1.2
			c2.4-0.5,3.9,0.8,3.9,3.3c0,2.3,0,4.5,0,6.8C76.1,71.5,76,71.8,76,72.1z"/>
		<path d="M83.4,47.4c-0.9,0-1.7,0-2.5,0c0-3.6,0-7.2,0-10.9c0.8,0,1.6,0,2.4,0c0,0.4,0.1,0.7,0.1,1c1-0.4,1.9-1,3-1.2
			c2.6-0.6,4.1,0.7,4.1,3.4c0,2.2,0,4.4,0,6.6c0,0.3,0,0.7,0,1c-0.8,0-1.6,0-2.5,0c0-1.4,0-2.7,0-4.1c0-0.9,0-1.9,0-2.8
			c0-1.9-1-2.6-2.8-1.8c-1.5,0.6-1.8,1-1.8,2.6C83.4,43.3,83.4,45.3,83.4,47.4z"/>
		<path d="M68.2,36.5c0.9,0,1.7,0,2.5,0c0,1.5,0,2.9,0,4.3c0,0.8,0,1.6,0,2.4c0,1-0.1,2,1.2,2.3c0.9,0.2,2.9-0.6,3.3-1.4
			c0.1-0.3,0.1-0.6,0.1-0.9c0-2.2,0-4.4,0-6.7c0.9,0,1.7,0,2.5,0c0,3.6,0,7.2,0,10.9c-0.8,0-1.6,0-2.4,0c-0.1-0.4-0.1-0.7-0.2-1.2
			c-1.3,1-2.7,1.6-4.4,1.4c-1.6-0.2-2.6-1.2-2.6-2.8C68.2,42.1,68.2,39.3,68.2,36.5z"/>
		<path d="M265.9,62.6c-0.4,0.5-0.8,1-1.1,1.5c-0.8-0.3-1.5-0.7-2.3-0.9c-0.4-0.1-0.9-0.3-1.3-0.1c-0.5,0.2-1.2,0.5-1.4,0.9
			c-0.3,0.7,0.5,1,1.1,1.2c0.9,0.3,1.9,0.4,2.8,0.7c1.8,0.5,2.6,1.5,2.6,3.1c0,1.6-1,2.7-2.8,3.1c-2.4,0.5-4.6,0.2-6.7-1.5
			c0.5-0.5,0.9-1,1.4-1.6c1.3,0.9,2.6,1.5,4.2,1.2c0.7-0.1,1.4-0.2,1.4-1.1c0.1-0.9-0.6-1.1-1.2-1.3c-0.9-0.3-1.8-0.4-2.7-0.7
			c-1.8-0.5-2.7-1.6-2.6-3.1c0.1-1.6,1.1-2.7,3-3.1C262.3,60.7,264.3,61.2,265.9,62.6z"/>
		<path d="M24.5,70.6c0.4-0.5,0.8-0.9,1.1-1.3c1.2,0.4,2.3,0.8,3.4,1.1c1.2,0.2,2.3-0.3,2.3-1c0.1-1.3-1-1.3-1.8-1.5
			c-0.9-0.3-1.8-0.4-2.7-0.8c-1.4-0.5-2.1-1.5-2-2.9c0-1.3,0.8-2.4,2.1-2.8c2.3-0.8,4.5-0.3,6.5,1.2c-0.4,0.6-0.8,1.1-1.1,1.6
			c-0.8-0.3-1.5-0.7-2.3-0.9c-0.6-0.1-1.2-0.1-1.8,0c-0.3,0.1-0.8,0.5-0.8,0.9c0,0.3,0.4,0.8,0.7,1c0.7,0.3,1.4,0.4,2.2,0.7
			c0.7,0.2,1.4,0.4,2,0.7c2,1,2.2,3.7,0.5,5.1C30.8,73,26.4,72.6,24.5,70.6z"/>
		<path d="M147.3,45.8c0.5-0.5,0.9-0.9,1.2-1.3c1,0.4,1.9,0.7,2.8,1.1c0.2,0.1,0.3,0.1,0.5,0.1c1.2,0.1,2.3-0.3,2.4-1
			c0.1-1.3-1-1.3-1.8-1.6c-0.9-0.3-1.9-0.5-2.8-0.8c-1.3-0.5-2-1.6-2-2.8c0-1.3,0.8-2.4,2.1-2.9c2.3-0.8,4.4-0.3,6.5,1.2
			c-0.4,0.6-0.8,1.1-1.2,1.6c-0.8-0.3-1.5-0.7-2.3-0.9c-0.6-0.1-1.3-0.1-1.9,0c-0.3,0.1-0.7,0.5-0.7,0.8c0,0.3,0.3,0.8,0.6,0.9
			c0.6,0.3,1.2,0.4,1.9,0.6c0.8,0.3,1.7,0.4,2.5,0.8c1.9,1,2.1,3.8,0.3,5.1C153.5,48.3,149.2,47.8,147.3,45.8z"/>
		<path d="M102.7,70.6c0.4-0.5,0.8-0.9,1.2-1.3c1.1,0.4,2.1,0.8,3.2,1.1c0.6,0.1,1.2,0,1.8-0.2c0.3-0.1,0.7-0.6,0.7-1
			c0-0.3-0.3-0.8-0.6-0.9c-0.7-0.3-1.5-0.5-2.2-0.7c-0.7-0.2-1.3-0.4-1.9-0.7c-1.1-0.5-1.7-1.4-1.7-2.6c0-1.3,0.5-2.2,1.6-2.8
			c1.9-1.1,5.1-0.6,6.9,1c-0.4,0.5-0.7,1-1.1,1.6c-0.3-0.2-0.6-0.3-0.8-0.5c-0.6-0.2-1.3-0.5-1.9-0.7c-1.1-0.2-2.1,0.2-2.2,0.9
			c-0.1,1.2,0.9,1.2,1.6,1.4c1,0.3,2.1,0.5,3.1,0.9c1.1,0.4,1.7,1.3,1.8,2.5c0.1,1.2-0.4,2.2-1.5,2.9
			C108.5,73,104.5,72.5,102.7,70.6z"/>
		<path d="M191.5,37.8c-0.5,0.6-0.8,1.1-1.2,1.6c-0.3-0.2-0.6-0.4-0.8-0.5c-0.7-0.2-1.3-0.6-2-0.6c-0.8-0.1-1.8-0.1-2,0.9
			c-0.2,1,0.8,1.2,1.6,1.4c0.9,0.3,1.9,0.4,2.8,0.8c1.5,0.5,2.2,1.5,2.1,2.9c0,1.4-0.7,2.4-2.1,3c-2.3,0.9-5.8,0.3-7.2-1.4
			c0.4-0.5,0.8-0.9,1.3-1.5c1.3,0.9,2.6,1.5,4.2,1.2c0.7-0.1,1.4-0.2,1.4-1.1c0.1-0.9-0.6-1.1-1.2-1.3c-1-0.3-2.1-0.5-3.1-0.9
			c-1.6-0.5-2.2-1.5-2.2-3c0-1.4,0.8-2.5,2.3-2.9C187.4,35.9,189.5,36.3,191.5,37.8z"/>
		<path d="M51,13c-0.4,0.6-0.8,1.1-1.2,1.6c-0.3-0.2-0.6-0.4-0.8-0.5c-0.7-0.2-1.3-0.6-2-0.7c-0.8-0.1-1.8-0.2-2,0.9
			c-0.2,1.1,0.8,1.2,1.6,1.4c0.9,0.3,1.9,0.5,2.9,0.8c1.4,0.5,2.1,1.5,2,2.9c0,1.4-0.7,2.4-2.1,2.9c-2.6,0.9-5.1,0.5-7.4-1.2
			c0.5-0.6,0.9-1.1,1.4-1.6c1.4,0.9,2.7,1.5,4.3,1.2c0.6-0.1,1.3-0.3,1.3-1.1c0.1-0.8-0.6-1.1-1.2-1.2c-1-0.3-2.1-0.5-3.2-0.9
			c-1.6-0.6-2.2-1.5-2.2-3.1c0-1.3,0.9-2.4,2.3-2.8C47,11.1,49.1,11.5,51,13z"/>
		<path d="M136.4,45.8c0.4-0.5,0.8-0.9,1.3-1.5c1.3,0.8,2.6,1.5,4.1,1.2c0.7-0.1,1.5-0.2,1.5-1.1c0.1-0.9-0.7-1.1-1.3-1.3
			c-1-0.3-1.9-0.5-2.9-0.8c-1.7-0.6-2.4-1.6-2.3-3.2c0.1-1.4,1.1-2.5,2.7-2.8c2.1-0.5,4.1,0,5.9,1.4c-0.4,0.5-0.8,1.1-1.2,1.6
			c-0.3-0.2-0.6-0.4-0.8-0.5c-0.7-0.2-1.4-0.6-2.1-0.7c-0.8-0.1-1.8-0.1-1.9,0.9c-0.2,1,0.8,1.2,1.6,1.4c1,0.3,1.9,0.5,2.9,0.8
			c1.3,0.4,2,1.3,2.1,2.8c0,1.4-0.6,2.4-2,3C141.5,48.2,138,47.6,136.4,45.8z"/>
		<path d="M45.2,57c0,4.3,0,8.5,0,12.9c2.4,0,4.7,0,7,0c0,0.8,0,1.5,0,2.3c-3.2,0-6.3,0-9.5,0c0-5.1,0-10.1,0-15.2
			C43.5,57,44.3,57,45.2,57z"/>
		<path d="M201.3,43.7c0.7,0.3,1.4,0.5,2,0.7c-0.7,2.1-2.3,3.2-4.5,3.3c-2.3,0.1-4.2-1-4.8-3c-0.4-1.3-0.6-2.7-0.4-4
			c0.5-3.4,3.6-5.1,6.8-4.1c1.4,0.4,2.4,1.5,2.7,3c-0.6,0.2-1.3,0.5-2,0.7c-0.5-0.9-1.1-1.8-2.3-1.8c-1.4,0-2.3,0.5-2.6,1.8
			c-0.2,1-0.2,2.1-0.1,3.1c0.1,1.1,0.8,1.9,2,2.1c1.3,0.2,2.1-0.2,2.8-1.4C201.1,44,201.2,43.9,201.3,43.7z"/>
		<path d="M278.3,63.3c-0.7,0-1.2,0-1.8,0c0-0.7,0-1.3,0-2c0.5,0,1.1,0,1.7,0c0.2-1.4-0.2-3.1,1.3-3.8c1.1-0.5,2.4-0.5,3.8-0.8
			c0,0.9,0,1.5,0,2c-0.7,0.2-1.6,0.3-2.1,0.8c-0.3,0.3-0.2,1.1-0.4,1.7c0.9,0,1.6,0,2.4,0c0,0.7,0,1.3,0,2.1c-0.7,0-1.4,0-2.2,0
			c0,3,0,5.9,0,8.9c-0.9,0-1.7,0-2.6,0C278.3,69.2,278.3,66.3,278.3,63.3z"/>
		<path d="M233,47.4c-0.9,0-1.7,0-2.6,0c0-3,0-5.8,0-8.8c-0.7,0-1.2-0.1-1.9-0.1c0-0.7,0-1.3,0-2c0.6,0,1.1,0,1.8,0
			c0.1-1.5-0.1-3.1,1.4-3.9c1.2-0.7,2.4-0.5,3.7-0.4c0,0.7,0,1.2,0,1.7c-0.8,0.3-1.6,0.4-2.2,0.8c-0.3,0.2-0.2,1-0.3,1.7
			c0.9,0,1.6,0,2.4,0c0,0.7,0,1.3,0,2c-0.7,0-1.4,0.1-2.3,0.1C233,41.5,233,44.4,233,47.4z"/>
		<path d="M274.7,70.3c0,0.7,0,1.3,0,1.9c-0.6,0-1.2,0.1-1.7,0.1c-2.7,0-3.4-0.7-3.4-3.4c0-1.8,0-3.7,0-5.6c-0.7,0-1.2-0.1-1.9-0.1
			c0-0.6,0-1.2,0-1.9c0.6,0,1.2-0.1,1.9-0.1c0-1.2,0-2.4,0-3.7c0.9,0,1.7,0,2.5,0c0,1.2,0,2.4,0,3.7c1,0,1.8,0,2.8,0
			c0,0.7,0,1.4,0,2.1c-0.9,0-1.8,0-2.8,0c0,2,0,3.9,0,5.9c0,0.7,0.5,1.1,1.2,1.2C273.7,70.3,274.2,70.3,274.7,70.3z"/>
		<path d="M241.2,36.4c1,0,1.8,0,2.8,0c0,0.7,0,1.3,0,2.1c-0.9,0-1.7,0-2.6,0c0,2.1-0.1,4.1,0.1,6.1c0,0.3,0.7,0.8,1.1,0.9
			c0.4,0.2,0.9,0,1.5,0c0,0.3,0,0.6,0.1,0.9c0.2,0.9-0.3,1.2-1.2,1.2c-3.5,0.1-4.2-0.5-4.2-4c0-1.6,0-3.3,0-5
			c-0.6,0-1.2-0.1-1.8-0.1c0-0.6,0-1.3,0-2c0.5,0,1.1,0,1.8,0c0-1.3,0-2.5,0-3.7c0.9,0,1.6,0,2.5,0
			C241.2,33.9,241.2,35.1,241.2,36.4z"/>
		<path d="M31.9,36.5c0.6,0,1.1,0,1.8,0c0-1.3,0-2.5,0-3.8c0.9,0,1.7,0,2.6,0c0,1.2,0,2.4,0,3.7c1,0,1.9,0,2.8,0c0,0.7,0,1.3,0,2
			c-0.9,0-1.7,0-2.7,0c0,2.1-0.1,4.1,0.1,6.1c0,0.3,0.7,0.8,1.1,1c0.4,0.2,0.9,0,1.4,0c0.1,0.2,0.1,0.2,0.1,0.3
			c0.1,1.7,0.1,1.7-1.5,1.7c-0.3,0-0.6,0-0.9,0c-2.1-0.1-2.8-0.9-2.8-3c0-2,0-4,0-6c-0.6,0-1.2-0.1-1.8-0.1
			C31.9,37.8,31.9,37.2,31.9,36.5z"/>
		<path d="M52.8,11.7c0.6,0,1.1,0,1.8,0c0-1.3,0-2.5,0-3.8c0.9,0,1.7,0,2.6,0c0,1.2,0,2.4,0,3.7c1,0,1.9,0,2.8,0c0,0.7,0,1.4,0,2.1
			c-0.9,0-1.7,0-2.7,0c0,2.1-0.1,4.1,0.1,6.1c0,0.3,0.7,0.7,1.1,0.9c0.3,0.1,0.8,0,1.4,0c0,0.5,0.1,0.9,0,1.4
			c-0.1,0.2-0.4,0.6-0.6,0.6c-0.7,0.1-1.5,0.1-2.3,0c-1.6-0.2-2.3-1-2.3-2.6c0-2.1,0-4.2,0-6.4c-0.6,0-1.2-0.1-1.8-0.1
			C52.8,13,52.8,12.4,52.8,11.7z"/>
		<path d="M131.3,7.4c0,0.7,0,1.3,0,1.7c-0.8,0.3-1.6,0.4-2.2,0.9c-0.3,0.3-0.2,1.1-0.4,1.7c0.9,0,1.6,0,2.4,0c0,0.7,0,1.3,0,2.1
			c-0.7,0-1.5,0-2.3,0c0,3,0,5.9,0,8.9c-0.9,0-1.7,0-2.6,0c0-3,0-5.9,0-8.8c-0.7,0-1.2-0.1-1.8-0.1c0-0.7,0-1.3,0-2
			c0.6,0,1.1-0.1,1.7-0.1c0.2-1.3-0.1-2.8,1.2-3.7C128.6,7.1,129.9,7.3,131.3,7.4z"/>
		<path d="M30,47.4c-0.9,0-1.6,0-2.5,0c0-5.1,0-10.1,0-15.2c0.8,0,1.6,0,2.5,0C30,37.3,30,42.3,30,47.4z"/>
		<path d="M56.2,47.4c-0.9,0-1.7,0-2.5,0c0-3.7,0-7.2,0-10.9c0.8,0,1.6,0,2.5,0c0,0.5,0.1,0.9,0.1,1.5c1.1-1.3,2.4-1.8,4.1-1.8
			c0,0.8-0.1,1.5-0.1,2.2c-0.6,0.1-1.1,0.1-1.6,0.2c-1.6,0.3-2.4,1.4-2.4,2.9C56.2,43.5,56.2,45.4,56.2,47.4z"/>
		<path d="M152.3,13.7c-0.6,0.1-1.1,0.1-1.6,0.2c-1.6,0.3-2.4,1.4-2.4,2.9c0,1.6,0,3.2,0,4.8c0,0.8-0.2,1.1-1,1c-0.5,0-1,0-1.5,0
			c0-3.7,0-7.3,0-10.9c0.8,0,1.6,0,2.4,0c0,0.4,0.1,0.9,0.1,1.5c1.1-1.2,2.4-1.8,4-1.7C152.3,12.2,152.3,12.9,152.3,13.7z"/>
		<path d="M169.9,61.3c0.9,0,1.7,0,2.5,0c0,0.5,0.1,0.9,0.1,1.5c1.1-1.3,2.4-1.8,4.1-1.7c0,0.8-0.1,1.5-0.1,2.2
			c-0.5,0.1-0.9,0.1-1.4,0.1c-1.7,0.3-2.6,1.3-2.6,3c0,1.9,0,3.8,0,5.7c-0.9,0-1.7,0-2.5,0C169.9,68.5,169.9,64.9,169.9,61.3z"/>
		<path d="M299.5,72.1c-0.8,0-1.6,0-2.4,0c0-5.1,0-10.1,0-15.2c0.8,0,1.6,0,2.4,0C299.5,62,299.5,67,299.5,72.1z"/>
		<path d="M76.2,22.6c-0.9,0-1.7,0-2.5,0c0-3.6,0-7.2,0-10.9c0.8,0,1.6,0,2.4,0c0,0.4,0.1,0.9,0.2,1.5c1.1-1.2,2.3-1.8,3.9-1.8
			c0,0.7,0,1.5,0,2.2c-0.5,0.1-1,0.1-1.5,0.2c-1.7,0.3-2.6,1.4-2.6,3C76.1,18.8,76.2,20.7,76.2,22.6z"/>
		<path d="M148.7,61.2c0.9,0,1.6,0,2.4,0c0,0.5,0,1,0.1,1.6c1.1-1.3,2.4-1.9,4-1.9c0,0.7,0,1.5,0,2.3c-0.4,0-0.7,0.1-1.1,0.1
			c-2,0.2-3,1.3-3,3.3c0,1.8,0,3.6,0,5.5c-0.9,0-1.6,0-2.5,0C148.7,68.5,148.7,64.9,148.7,61.2z"/>
		<path d="M21.9,11.7c0,3.6,0,7.2,0,10.8c-0.8,0-1.6,0-2.5,0c0-3.6,0-7.2,0-10.8C20.2,11.7,21,11.7,21.9,11.7z"/>
		<path d="M39.9,22.6c-0.8,0-1.6,0-2.5,0c0-3.6,0-7.2,0-10.8c0.8,0,1.6,0,2.5,0C39.9,15.3,39.9,18.9,39.9,22.6z"/>
		<path d="M84.7,22.6c-0.8,0-1.6,0-2.4,0c0-3.6,0-7.2,0-10.9c0.8,0,1.6,0,2.4,0C84.7,15.3,84.7,18.9,84.7,22.6z"/>
		<path d="M205.2,72.1c-0.8,0-1.6,0-2.4,0c0-3.6,0-7.2,0-10.9c0.8,0,1.6,0,2.4,0C205.2,64.9,205.2,68.5,205.2,72.1z"/>
		<path d="M131.8,36.5c0.8,0,1.6,0,2.4,0c0,3.6,0,7.2,0,10.9c-0.8,0-1.6,0-2.4,0C131.8,43.7,131.8,40.1,131.8,36.5z"/>
		<path d="M225.4,64.9c0,0.6,0,1.1,0,1.7c-1.7,0-3.3,0-5,0c0-0.6,0-1.1,0-1.7C222.1,64.9,223.7,64.9,225.4,64.9z"/>
		<path d="M134.8,10.5c0-0.8,0-1.5,0-2.3c0.7,0,1.5,0,2.3,0c0,0.7,0,1.5,0,2.3C136.3,10.5,135.6,10.5,134.8,10.5z"/>
		<path d="M202.7,57.2c0.9,0,1.7,0,2.5,0c0,0.7,0,1.4,0,2.1c-0.8,0-1.6,0-2.5,0C202.7,58.6,202.7,57.9,202.7,57.2z"/>
		<path d="M21.9,7.7c0,0.7,0,1.4,0,2.1c-0.8,0-1.6,0-2.5,0c0-0.7,0-1.3,0-2.1C20.2,7.7,21,7.7,21.9,7.7z"/>
		<path d="M37.4,7.6c0.8,0,1.6,0,2.5,0c0,0.7,0,1.4,0,2.1c-0.8,0-1.6,0-2.5,0C37.4,9,37.4,8.4,37.4,7.6z"/>
		<path d="M134.4,32.4c0,0.7,0,1.4,0,2.1c-0.9,0-1.7,0-2.5,0c0-0.7,0-1.3,0-2.1C132.6,32.4,133.4,32.4,134.4,32.4z"/>
		<path d="M82.2,9.7c0-0.7,0-1.4,0-2.1c0.8,0,1.6,0,2.4,0c0,0.7,0,1.4,0,2.1C83.9,9.7,83.1,9.7,82.2,9.7z"/>
		<path d="M141.1,10.6c-0.8,0-1.4,0-2.2,0c0-0.8,0-1.6,0-2.4c0.7,0,1.4,0,2.2,0C141.1,9,141.1,9.7,141.1,10.6z"/>
	</g>
</g>
<path class="st1" d="M422.3,61.9h7.5c0-3.1-2.3-5.1-2.3-8.8c0-2.4,0.9-3.9,3.4-4.6c0.6,0.6,1.2,1.3,1.6,2.3c0,3.2,0.6,5.4,1.3,6.9
	c0,0-1.7,1.3-1.7,6.1c0,0-6.8-0.3-7.6,0.6h-1.1V66c-1.7,0.6-3.2,0.6-4.3,0.1c0-1.4,1.5-2.6,1.5-2.6c0.2,0,0.3,0,0.4,0
	c0.7,0,1.3-0.6,1.3-1.3C422.3,62.1,422.3,62,422.3,61.9z"/>
<path class="st1" d="M414,37.6c-0.8-0.8-0.8-2.5-0.8-2.8c0.1-0.1,0.2-0.1,0.3-0.2c0.5-0.5,0.5-1.3,0-1.8c-0.1-0.1-0.2-0.1-0.3-0.2
	c0.7-2.2,2.2-3.3,2.7-6.3h2.2l5.3,4.2c-0.9,1.1-1.7,2.3-2.1,3.9l-2.8-5.3c-1.8,0-2.9,1.5-2,3.7l-0.7,0.7l1.1,1.1
	C416.2,36.1,415.1,37.2,414,37.6z"/>
<path class="st1" d="M435.8,75c0-1.3,1.3-2.5,1.4-2.6c0.1,0,0.1,0,0.2,0c0.7,0,1.3-0.6,1.3-1.3c0-0.2,0-0.4-0.1-0.5
	c3.6-6.3,2.6-7.3-2.9-11.8c-1.5-1.2-2-4.8-2-8.2c-2.2-5.1-8.1-4.5-10.4-9.6l2.6,0.1c1.3,0.1,2.3-0.7,2.7-1.4c0.4-0.6,0-1.5-0.7-1.2
	c-0.3,0.8-1.1,1.5-2,1.4l-6.4-0.3c-1.3,1.3-1,3.1,1.2,4.1v1h1.5c0.5,1.7,0.6,3.3,0.1,4.3c-1.2,0-2.6-1.5-2.6-1.5c0-0.2,0-0.3,0-0.4
	c0-0.7-0.6-1.3-1.3-1.3c-0.1,0-0.2,0-0.3,0c-0.7-1.2-0.6-3.6-2.5-6.4l1.4-1.7l5.2-1.8c0.1-6.1,7.2-7.5,8.3-12c1.5,0,2.4-0.4,3.2-1.9
	c0.2-0.4,0.1-1.2-0.8-1.1c-0.5,1.5-1.2,1.7-2.2,1.7c-2.5,0-4.6-0.4-4.9,0.7c-0.6,1.9-3.2,0.7-3.2,0.7l0.6-0.5c0.1,0,0.1,0,0.2,0
	c0.5,0,0.9-0.3,0.9-0.6s-0.4-0.6-0.9-0.6c-0.5,0-0.9,0.3-0.9,0.6c0,0,0,0,0,0.1l-0.6,0.4c-0.8,0-0.9-0.6-0.9-0.9
	c0.3,0,0.5-0.3,0.5-0.6s-0.2-0.6-0.5-0.6c0-0.2,0.1-0.7,0.7-1.2l4.5-3.6c0.7-0.5,2-1.2,2.5-1.5c-0.1-1,0.3-2.3,0.3-3.2
	c0,0,1.3,0.6,1.9,1.9c0.4,1,0.1,1.5,0,2c0.2,0.4,1.3,0.4,1.4-0.6c0-0.4,0-0.8-0.1-1.4c1.8,0.2,4.2,0.8,8,0.4c-0.8,0.9-1.8,1.5-2.8,2
	c1.9,0.4,4.2,1.4,5.4,3.3c-0.9,0.5-1.9,0.8-2.9,1c1.8,1.6,2.5,3.9,4.1,4.9c-2,0.6-3.7,0.4-5,0c0.6,1.3,1.6,2.8,3,3.5
	c-1.8,0.8-3.6,1.3-5,1.6c0.4,0.7,1.1,1.6,1.8,2.2c-1.4,0.1-2.6,0.4-3.2,0.7c-0.1,1.7-0.6,5.1,3.6,9.5c5.6,4.2,7,7.4,2.6,13.1
	c0,2.9,0.5,4,2,7c-0.1,0.3-0.7,1.7-1.4,3.4c-0.7,1.9-1.2,3.9-1.2,5.7c0,0-1,0-1,1v1.5C438.6,75.5,436.8,75.5,435.8,75z"/>
<path class="st3" d="M426.2,18.8c0.6,1,2.1,0,2.1,0S426.5,17,426.2,18.8z"/>
<path class="st1" d="M448.3,34.9c0,2.6-2.3,3.7-2.3,5.6c0,2.3,2.3,3.4,2.3,5.6c0,2.3-1.8,2.7-2.9,2.3c0,0,0.7-0.2,0.7-1.1
	c0-2.7-5.8-2.6-5.8-6.8c0-2.2,1.6-4,1.6-5.3c0-0.7-0.5-1.6-1.4-1.9c1.2-0.8,3.2-0.3,3.7,1c0.4-1.1,0.8-2.7,0.3-4.2
	C447.1,31.1,448.3,32.9,448.3,34.9L448.3,34.9L448.3,34.9z"/>
<circle class="st1" cx="410.3" cy="83.9" r="4.2"/>
</svg>
