<?xml version="1.0" encoding="utf-8"?>
<!-- Generator: Adobe Illustrator 23.1.0, SVG Export Plug-In . SVG Version: 6.00 Build 0)  -->
<svg version="1.1" id="Ebene_1" xmlns="http://www.w3.org/2000/svg" xmlns:xlink="http://www.w3.org/1999/xlink" x="0px" y="0px"
	 viewBox="0 0 239 87" style="enable-background:new 0 0 239 87;" xml:space="preserve">
<style type="text/css">
	.st0{fill:#FFFFFF;}
	.st1{fill-rule:evenodd;clip-rule:evenodd;fill:#FFFFFF;}
	.st2{fill-rule:evenodd;clip-rule:evenodd;fill:#181716;}
	.st3{fill:#00963E;}
	.st4{fill-rule:evenodd;clip-rule:evenodd;fill:#E3000B;}
	.st5{fill:#181716;}
</style>
<rect class="st0" width="239" height="87"/>
<path id="Weiß" class="st1" d="M210.18,79.05c-11.93,0-21.6-9.72-21.6-21.72V33.39h43.2l0,23.95
	C231.78,69.33,222.11,79.05,210.18,79.05z"/>
<path id="Schwarz" class="st2" d="M231.19,57.34c0,11.67-9.41,21.12-21.01,21.12S189.17,69,189.17,57.34V33.99h42.01L231.19,57.34z
	 M232,33.17l0,24.16c0,12.11-9.77,21.93-21.82,21.93c-12.05,0-21.82-9.82-21.82-21.93V33.17H232z"/>
<path id="Grün" class="st3" d="M209.64,42.85v14.48c0,7.3-3.89,13.69-9.69,17.19c-2.96-1.78-5.41-4.31-7.11-7.33
	c1.05-1.1,2.09-2.21,2.89-3.52c1.64-2.65,1.88-6.01,3.82-8.49c1.8-2.29,4.96-2.92,6.65-5.18C207.81,47.87,208.3,45.15,209.64,42.85z
	 M190.26,35.07h16.48c-0.61,0.67-1.21,1.36-1.76,2.09c-2.08,2.77-1.87,6.64-3.97,9.35c-1.83,2.37-4.94,2.99-6.66,5.18
	c-1.95,2.48-2.07,5.9-3.9,8.44c-0.13-0.91-0.19-1.85-0.19-2.8V35.07z M210.18,73.97c-0.74,0-1.34-0.6-1.34-1.34
	c0-0.74,0.6-1.34,1.34-1.34c0.74,0,1.34,0.6,1.34,1.34C211.52,73.37,210.92,73.97,210.18,73.97z M214.48,73.17
	c0.27,0.29,0.45,0.65,0.53,1.03c-0.29,0.26-0.65,0.44-1.03,0.52c0.05-0.32,0.01-0.63-0.16-0.91
	C214.12,73.69,214.34,73.46,214.48,73.17z M212.02,68.7c0.36-0.16,0.75-0.23,1.14-0.18c0.16,0.36,0.22,0.75,0.18,1.14
	c-0.29-0.15-0.6-0.21-0.92-0.13C212.4,69.21,212.25,68.93,212.02,68.7z M207.02,69.66c-0.05-0.39,0.02-0.79,0.18-1.14
	c0.39-0.04,0.78,0.02,1.14,0.18c-0.23,0.23-0.38,0.51-0.4,0.83C207.61,69.46,207.3,69.52,207.02,69.66z M206.38,74.72
	c-0.38-0.08-0.74-0.26-1.03-0.52c0.08-0.38,0.26-0.74,0.53-1.03c0.14,0.29,0.36,0.52,0.66,0.64
	C206.36,74.09,206.32,74.41,206.38,74.72z M211,76.89c-0.19,0.34-0.48,0.63-0.82,0.82c-0.34-0.19-0.62-0.48-0.81-0.82
	c0.32-0.05,0.61-0.18,0.82-0.44C210.39,76.7,210.68,76.84,211,76.89z"/>
<path id="Rot" class="st4" d="M212.28,72.63c0,1.16-0.94,2.1-2.1,2.1c-1.16,0-2.1-0.94-2.1-2.1c0-1.16,0.94-2.1,2.1-2.1
	C211.34,70.53,212.28,71.47,212.28,72.63z M207.77,75.94c-0.88-0.64-1.21-1.76-0.36-2.19c0.06-0.15,0-0.32-0.13-0.41
	c-0.94,0.15-1.33-0.94-0.99-1.98c0.34-1.04,1.29-1.7,1.97-1.02c0.16,0.01,0.31-0.1,0.35-0.25c-0.43-0.85,0.49-1.55,1.58-1.55
	c1.09,0,2.01,0.71,1.58,1.55c0.04,0.15,0.19,0.26,0.35,0.25c0.67-0.68,1.63-0.02,1.97,1.02c0.34,1.04-0.05,2.13-0.99,1.98
	c-0.13,0.09-0.19,0.26-0.13,0.41c0.85,0.43,0.52,1.54-0.36,2.19c-0.88,0.64-2.04,0.61-2.19-0.33c-0.12-0.1-0.31-0.1-0.43,0
	C209.82,76.56,208.66,76.59,207.77,75.94z M216.24,61.56h3.78c0-1.56-1.16-2.58-1.16-4.41c0-1.19,0.47-1.94,1.71-2.3
	c0.31,0.28,0.59,0.64,0.82,1.13c0.01,1.6,0.28,2.69,0.66,3.49c0,0-0.86,0.65-0.86,3.06c0,0-3.41-0.16-3.82,0.29h-0.54v0.77
	c-0.84,0.28-1.62,0.29-2.18,0.03c0-0.68,0.74-1.31,0.74-1.31c0.08,0,0.14,0.01,0.21,0.01c0.36,0,0.65-0.29,0.65-0.65
	C216.25,61.64,216.25,61.6,216.24,61.56z M212.06,49.31c-0.41-0.4-0.41-1.27-0.41-1.42c0.06-0.03,0.11-0.07,0.16-0.12
	c0.26-0.25,0.26-0.67,0-0.92c-0.04-0.04-0.08-0.07-0.13-0.1c0.37-1.09,1.09-1.65,1.38-3.19h1.12l2.67,2.09
	c-0.48,0.54-0.87,1.16-1.05,1.96l-1.42-2.65c-0.91,0-1.47,0.75-1,1.88l-0.34,0.35l0.53,0.56C213.17,48.54,212.64,49.09,212.06,49.31
	z M223.03,68.12c0-0.67,0.66-1.25,0.73-1.31c0.03,0.01,0.07,0.01,0.1,0.01c0.36,0,0.65-0.29,0.65-0.65c0-0.1-0.02-0.19-0.06-0.28
	c1.79-3.2,1.32-3.66-1.46-5.93c-0.76-0.62-0.99-2.44-0.99-4.1c-1.1-2.58-4.08-2.28-5.21-4.81l1.3,0.07c0.67,0.04,1.14-0.37,1.36-0.7
	c0.21-0.31,0-0.73-0.33-0.62c-0.15,0.42-0.56,0.75-1.01,0.72l-3.24-0.17c-0.64,0.64-0.51,1.57,0.62,2.05v0.48h0.77
	c0.28,0.87,0.28,1.66,0.03,2.18c-0.62,0-1.31-0.74-1.31-0.74c0-0.08,0.01-0.14,0.01-0.21c0-0.36-0.29-0.65-0.65-0.65
	c-0.05,0-0.1,0.01-0.15,0.02c-0.37-0.58-0.31-1.83-1.26-3.21l0.72-0.87l2.63-0.88c0.08-3.08,3.62-3.8,4.16-6.05
	c0.76,0,1.23-0.22,1.6-0.94c0.1-0.19,0.05-0.62-0.42-0.53c-0.26,0.75-0.61,0.88-1.1,0.88c-1.28,0-2.31-0.21-2.48,0.35
	c-0.29,0.96-1.62,0.36-1.62,0.36l0.33-0.24c0.03,0,0.05,0,0.08,0c0.25,0,0.45-0.13,0.45-0.29c0-0.16-0.2-0.29-0.45-0.29
	c-0.25,0-0.45,0.13-0.45,0.29c0,0.01,0,0.02,0,0.03l-0.31,0.22c-0.39,0-0.46-0.31-0.47-0.45c0.16,0,0.27-0.13,0.27-0.29
	c0-0.16-0.12-0.29-0.26-0.29c0.01-0.12,0.07-0.36,0.35-0.58l2.27-1.8c0.33-0.26,0.99-0.61,1.28-0.76c-0.04-0.49,0.15-1.15,0.15-1.61
	c0,0,0.67,0.29,0.94,0.93c0.2,0.48,0.07,0.78-0.01,1.01c0.12,0.19,0.64,0.2,0.7-0.3c0.02-0.2,0.02-0.43-0.05-0.69
	c0.88,0.1,2.13,0.4,4.04,0.21c-0.39,0.45-0.89,0.77-1.41,1.01c0.95,0.23,2.12,0.69,2.71,1.67c-0.46,0.23-0.96,0.39-1.46,0.48
	c0.91,0.8,1.27,1.99,2.05,2.47c-1.01,0.28-1.85,0.2-2.51-0.02c0.32,0.65,0.81,1.41,1.49,1.75c-0.92,0.41-1.82,0.65-2.51,0.78
	c0.22,0.36,0.53,0.81,0.92,1.1c-0.71,0.03-1.29,0.23-1.62,0.37c-0.06,0.83-0.29,2.57,1.83,4.8c2.82,2.13,3.52,3.75,1.3,6.61
	c0,1.45,0.24,2.04,1,3.52c-0.06,0.14-0.37,0.84-0.68,1.7c-0.34,0.94-0.59,1.96-0.59,2.87c0,0-0.48,0-0.48,0.51v0.77
	C224.44,68.36,223.55,68.37,223.03,68.12z M218.21,39.83c0.31,0.51,1.08,0,1.08,0S218.35,38.94,218.21,39.83z M229.3,47.94
	c0,1.3-1.17,1.86-1.17,2.83c0,1.15,1.13,1.7,1.13,2.81c0,1.15-0.9,1.34-1.48,1.14c0,0,0.36-0.09,0.36-0.53
	c0-1.36-2.91-1.29-2.91-3.42c0-1.11,0.79-2,0.79-2.66c0-0.33-0.25-0.81-0.68-0.95c0.59-0.42,1.59-0.16,1.85,0.48
	c0.21-0.54,0.4-1.34,0.15-2.11C228.72,46.05,229.3,46.94,229.3,47.94L229.3,47.94z M210.72,35.07h19.38v22.27
	c0,7.3-3.89,13.69-9.69,17.19c-5.8-3.5-9.69-9.89-9.69-17.19V35.07z"/>
<g>
	<path class="st5" d="M7.45,34.53h1.68l2.01,5.97h0.02l1.95-5.97h1.71v7.52h-1.23v-5.61h-0.02c-0.11,0.52-0.27,1.01-0.45,1.53
		l-1.46,4.08h-1.13l-1.45-4.08c-0.18-0.54-0.29-0.86-0.46-1.59H8.6v5.66H7.45V34.53z"/>
	<path class="st5" d="M16.4,34.63h1.28v1.09H16.4V34.63z M16.41,36.65h1.26v5.4h-1.26V36.65z"/>
	<path class="st5" d="M19.09,36.65h1.26v0.73c0.35-0.37,1-0.83,1.97-0.83c0.95,0,1.56,0.56,1.56,1.63v3.87h-1.26v-3.56
		c0-0.6-0.25-0.87-0.8-0.87s-1.01,0.28-1.46,0.7v3.73h-1.26V36.65z"/>
	<path class="st5" d="M25.27,34.63h1.28v1.09h-1.28V34.63z M25.28,36.65h1.26v5.4h-1.26V36.65z"/>
	<path class="st5" d="M27.54,41.31l0.68-0.76c0.41,0.35,1.01,0.64,1.7,0.64c0.67,0,1.08-0.17,1.08-0.62c0-0.44-0.55-0.57-1.2-0.72
		c-0.92-0.21-2.03-0.46-2.03-1.71c0-0.95,0.81-1.59,2-1.59c1.03,0,1.66,0.29,2.22,0.76l-0.6,0.81c-0.4-0.33-1.04-0.59-1.52-0.59
		c-0.69,0-0.91,0.24-0.91,0.55c0,0.44,0.54,0.57,1.18,0.71c0.92,0.2,2.05,0.44,2.05,1.7c0,1.14-1.03,1.67-2.26,1.67
		C28.92,42.16,28.03,41.8,27.54,41.31z"/>
	<path class="st5" d="M33.77,40.63v-2.99h-0.94v-1h0.94v-1.88h1.25v1.88h1.39v1h-1.39v2.67c0,0.58,0.17,0.81,0.79,0.81
		c0.18,0,0.42-0.03,0.54-0.07v0.99c-0.13,0.03-0.6,0.07-0.91,0.07C34.07,42.12,33.77,41.61,33.77,40.63z"/>
	<path class="st5" d="M37.04,39.35c0-2.05,1.45-2.81,2.57-2.81c1.21,0,2.37,0.72,2.37,2.92v0.29h-3.69c0.05,0.98,0.65,1.4,1.44,1.4
		c0.7,0,1.11-0.23,1.51-0.63l0.66,0.65c-0.56,0.62-1.3,0.98-2.27,0.98C38.29,42.16,37.04,41.34,37.04,39.35z M40.83,38.83
		c-0.07-0.82-0.48-1.26-1.23-1.26c-0.61,0-1.17,0.35-1.29,1.26H40.83z"/>
	<path class="st5" d="M43.13,36.65h1.25v0.88h0.02c0.34-0.54,0.91-0.99,1.94-0.99h0.08l-0.04,1.15c-0.06-0.01-0.26-0.02-0.34-0.02
		c-0.8,0-1.31,0.38-1.67,0.96v3.42h-1.25V36.65z"/>
	<path class="st5" d="M47.35,34.63h1.28v1.09h-1.28V34.63z M47.36,36.65h1.26v5.4h-1.26V36.65z"/>
	<path class="st5" d="M50,40.52v-3.87h1.26v3.58c0,0.6,0.25,0.87,0.8,0.87c0.55,0,1.01-0.28,1.46-0.7v-3.75h1.26v5.4h-1.26v-0.73
		c-0.35,0.37-1,0.83-1.97,0.83C50.61,42.15,50,41.59,50,40.52z"/>
	<path class="st5" d="M56.2,36.65h1.25v0.74c0.42-0.46,1.03-0.84,1.85-0.84c0.9,0,1.26,0.36,1.47,0.88
		c0.43-0.47,1.07-0.88,1.89-0.88c1.1,0,1.58,0.66,1.58,1.63v3.87h-1.25v-3.56c0-0.6-0.17-0.87-0.76-0.87c-0.51,0-0.91,0.28-1.38,0.7
		v3.73h-1.25v-3.56c0-0.6-0.17-0.87-0.76-0.87c-0.5,0-0.91,0.28-1.38,0.7v3.73H56.2V36.65z"/>
	<path class="st5" d="M69.11,37.65h-0.94v-1h0.94V36.1c0-0.9,0.38-1.61,1.75-1.61c0.23,0,0.65,0.04,0.74,0.05v0.97
		c-0.08-0.02-0.28-0.04-0.43-0.04c-0.45,0-0.81,0.12-0.81,0.7v0.48h1.18v1h-1.18v4.4h-1.25V37.65z"/>
	<path class="st5" d="M72.43,40.52v-3.87h1.26v3.58c0,0.6,0.25,0.87,0.8,0.87s1.01-0.28,1.46-0.7v-3.75h1.26v5.4h-1.26v-0.73
		c-0.35,0.37-1,0.83-1.97,0.83C73.04,42.15,72.43,41.59,72.43,40.52z M73.25,34.88h1.14v1.23h-1.14V34.88z M75.25,34.88h1.15v1.23
		h-1.15V34.88z"/>
	<path class="st5" d="M78.63,36.65h1.25v0.88h0.02c0.34-0.54,0.91-0.99,1.94-0.99h0.08l-0.04,1.15c-0.06-0.01-0.26-0.02-0.34-0.02
		c-0.8,0-1.31,0.38-1.67,0.96v3.42h-1.25V36.65z"/>
	<path class="st5" d="M7.45,46.72h1.27v3.5l2.96-3.5h1.5l-2.56,2.9l2.88,4.62h-1.45l-2.26-3.65l-1.07,1.18v2.47H7.45V46.72z"/>
	<path class="st5" d="M14.18,52.72v-3.87h1.26v3.58c0,0.6,0.25,0.87,0.8,0.87s1.01-0.28,1.46-0.7v-3.75h1.26v5.4H17.7v-0.73
		c-0.35,0.37-1,0.83-1.97,0.83C14.79,54.35,14.18,53.79,14.18,52.72z"/>
	<path class="st5" d="M20.4,46.72h1.26v7.52H20.4V46.72z"/>
	<path class="st5" d="M23.52,52.83v-2.99h-0.94v-1h0.94v-1.88h1.25v1.88h1.39v1h-1.39v2.67c0,0.58,0.17,0.81,0.79,0.81
		c0.18,0,0.42-0.03,0.54-0.07v0.99c-0.13,0.03-0.6,0.07-0.91,0.07C23.81,54.31,23.52,53.81,23.52,52.83z"/>
	<path class="st5" d="M27.1,52.72v-3.87h1.26v3.58c0,0.6,0.25,0.87,0.8,0.87s1.01-0.28,1.46-0.7v-3.75h1.26v5.4h-1.26v-0.73
		c-0.35,0.37-1,0.83-1.97,0.83C27.71,54.35,27.1,53.79,27.1,52.72z"/>
	<path class="st5" d="M33.3,48.85h1.25v0.88h0.02c0.34-0.54,0.91-0.99,1.94-0.99h0.08l-0.04,1.15c-0.06-0.01-0.26-0.02-0.34-0.02
		c-0.8,0-1.31,0.38-1.67,0.96v3.42H33.3V48.85z"/>
	<path class="st5" d="M40.48,52.72v-3.87h1.26v3.58c0,0.6,0.25,0.87,0.8,0.87c0.55,0,1.01-0.28,1.46-0.7v-3.75h1.26v5.4h-1.26v-0.73
		c-0.35,0.37-1,0.83-1.97,0.83C41.09,54.35,40.48,53.79,40.48,52.72z"/>
	<path class="st5" d="M46.68,48.85h1.26v0.73c0.35-0.37,1-0.83,1.97-0.83c0.95,0,1.56,0.56,1.56,1.63v3.87h-1.26v-3.56
		c0-0.6-0.25-0.87-0.8-0.87s-1.01,0.28-1.46,0.7v3.73h-1.26V48.85z"/>
	<path class="st5" d="M52.59,51.56c0-1.87,0.92-2.82,2.31-2.82c0.58,0,1.15,0.23,1.54,0.68v-2.7h1.25v6.2
		c0,0.65,0.04,1.05,0.16,1.32h-1.29c-0.07-0.15-0.12-0.46-0.12-0.73c-0.4,0.46-0.91,0.81-1.72,0.81
		C53.5,54.33,52.59,53.43,52.59,51.56z M56.45,52.62v-2.16c-0.34-0.44-0.82-0.67-1.27-0.67c-0.95,0-1.33,0.61-1.33,1.81
		c0,1.14,0.49,1.71,1.29,1.71C55.65,53.3,56.15,52.97,56.45,52.62z"/>
	<path class="st5" d="M61.75,46.72h1.28l0.96,3.89c0.15,0.6,0.29,1.16,0.4,1.75h0.02c0.1-0.58,0.23-1.14,0.39-1.74l0.9-3.9h1.22
		l0.94,3.92c0.16,0.64,0.28,1.09,0.4,1.72h0.02c0.11-0.65,0.22-1.05,0.37-1.69l0.94-3.95h1.19l-1.98,7.52h-1.11l-1.35-5.76H66.3
		l-1.42,5.76h-1.12L61.75,46.72z"/>
	<path class="st5" d="M71.78,46.82h1.28v1.09h-1.28V46.82z M71.79,48.85h1.26v5.4h-1.26V48.85z"/>
	<path class="st5" d="M74.05,53.5l0.68-0.76c0.41,0.35,1.01,0.64,1.7,0.64c0.67,0,1.08-0.17,1.08-0.62c0-0.44-0.55-0.57-1.2-0.72
		c-0.92-0.21-2.03-0.46-2.03-1.71c0-0.95,0.81-1.59,2-1.59c1.03,0,1.66,0.29,2.22,0.76l-0.6,0.81c-0.4-0.33-1.04-0.59-1.52-0.59
		c-0.69,0-0.91,0.24-0.91,0.55c0,0.44,0.54,0.57,1.18,0.71c0.92,0.2,2.05,0.44,2.05,1.7c0,1.14-1.03,1.67-2.26,1.67
		C75.44,54.36,74.54,54,74.05,53.5z"/>
	<path class="st5" d="M79.43,53.5l0.68-0.76c0.41,0.35,1.01,0.64,1.7,0.64c0.67,0,1.08-0.17,1.08-0.62c0-0.44-0.55-0.57-1.2-0.72
		c-0.92-0.21-2.03-0.46-2.03-1.71c0-0.95,0.81-1.59,2-1.59c1.03,0,1.66,0.29,2.22,0.76l-0.6,0.81c-0.4-0.33-1.04-0.59-1.52-0.59
		c-0.69,0-0.91,0.24-0.91,0.55c0,0.44,0.54,0.57,1.18,0.71c0.92,0.2,2.05,0.44,2.05,1.7c0,1.14-1.03,1.67-2.26,1.67
		C80.82,54.36,79.92,54,79.43,53.5z"/>
	<path class="st5" d="M84.89,51.55c0-2.05,1.45-2.81,2.57-2.81c1.21,0,2.37,0.72,2.37,2.92v0.29h-3.69c0.05,0.98,0.65,1.4,1.44,1.4
		c0.7,0,1.11-0.23,1.51-0.63l0.66,0.65c-0.56,0.62-1.3,0.98-2.27,0.98C86.14,54.36,84.89,53.53,84.89,51.55z M88.68,51.02
		c-0.07-0.82-0.48-1.26-1.23-1.26c-0.61,0-1.17,0.35-1.29,1.26H88.68z"/>
	<path class="st5" d="M90.98,48.85h1.26v0.73c0.35-0.37,1-0.83,1.97-0.83c0.95,0,1.56,0.56,1.56,1.63v3.87h-1.26v-3.56
		c0-0.6-0.25-0.87-0.8-0.87c-0.55,0-1.01,0.28-1.46,0.7v3.73h-1.26V48.85z"/>
	<path class="st5" d="M96.72,53.5l0.68-0.76c0.41,0.35,1.01,0.64,1.7,0.64c0.67,0,1.08-0.17,1.08-0.62c0-0.44-0.55-0.57-1.2-0.72
		c-0.92-0.21-2.03-0.46-2.03-1.71c0-0.95,0.81-1.59,2-1.59c1.03,0,1.66,0.29,2.22,0.76l-0.6,0.81c-0.4-0.33-1.04-0.59-1.52-0.59
		c-0.69,0-0.91,0.24-0.91,0.55c0,0.44,0.54,0.57,1.18,0.71c0.92,0.2,2.05,0.44,2.05,1.7c0,1.14-1.03,1.67-2.26,1.67
		C98.1,54.36,97.21,54,96.72,53.5z"/>
	<path class="st5" d="M102.18,51.55c0-2.06,1.39-2.81,2.59-2.81c1.34,0,1.91,0.74,2.24,1.58l-1.06,0.38c-0.21-0.61-0.6-0.9-1.2-0.9
		c-0.71,0-1.31,0.47-1.31,1.76c0,1.15,0.47,1.78,1.29,1.78c0.57,0,0.97-0.17,1.26-0.94l1.04,0.38c-0.39,0.86-1.03,1.59-2.33,1.59
		C103.45,54.36,102.18,53.52,102.18,51.55z"/>
	<path class="st5" d="M108.03,46.72h1.26v2.86c0.35-0.37,1-0.83,1.97-0.83c0.95,0,1.56,0.56,1.56,1.63v3.87h-1.26v-3.56
		c0-0.6-0.25-0.87-0.8-0.87c-0.55,0-1.01,0.28-1.46,0.7v3.73h-1.26V46.72z"/>
	<path class="st5" d="M113.85,52.94c0-1.17,1-1.95,3.52-2.24v-0.16c0-0.54-0.28-0.77-0.88-0.77c-0.75,0-1.36,0.37-1.82,0.73
		l-0.61-0.78c0.58-0.53,1.48-0.98,2.6-0.98c1.44,0,1.94,0.69,1.94,1.95v2.23c0,0.65,0.04,1.05,0.15,1.32h-1.26
		c-0.07-0.22-0.12-0.39-0.12-0.69c-0.55,0.56-1.19,0.77-1.99,0.77C114.5,54.33,113.85,53.84,113.85,52.94z M117.37,52.74v-1.19
		c-1.49,0.2-2.29,0.57-2.29,1.16c0,0.43,0.29,0.65,0.75,0.65C116.47,53.36,116.97,53.12,117.37,52.74z"/>
	<path class="st5" d="M120.4,49.84h-0.94v-1h0.94V48.3c0-0.9,0.38-1.61,1.75-1.61c0.23,0,0.65,0.04,0.74,0.05v0.97
		c-0.08-0.02-0.28-0.04-0.43-0.04c-0.45,0-0.81,0.12-0.81,0.7v0.48h1.18v1h-1.18v4.4h-1.25V49.84z"/>
	<path class="st5" d="M124.45,52.83v-2.99h-0.94v-1h0.94v-1.88h1.25v1.88h1.39v1h-1.39v2.67c0,0.58,0.17,0.81,0.79,0.81
		c0.18,0,0.42-0.03,0.54-0.07v0.99c-0.13,0.03-0.6,0.07-0.91,0.07C124.74,54.31,124.45,53.81,124.45,52.83z"/>
	<path class="st5" d="M7,63.76c0-1.87,0.92-2.82,2.31-2.82c0.58,0,1.15,0.23,1.54,0.68v-2.7h1.25v6.2c0,0.65,0.04,1.05,0.16,1.32
		h-1.29c-0.07-0.15-0.12-0.46-0.12-0.73c-0.4,0.46-0.91,0.81-1.72,0.81C7.9,66.52,7,65.63,7,63.76z M10.85,64.81v-2.16
		c-0.34-0.44-0.82-0.67-1.27-0.67c-0.95,0-1.33,0.61-1.33,1.81c0,1.14,0.49,1.71,1.29,1.71C10.06,65.5,10.56,65.17,10.85,64.81z"/>
	<path class="st5" d="M13.22,63.75c0-2.05,1.45-2.81,2.57-2.81c1.21,0,2.37,0.72,2.37,2.92v0.29h-3.69c0.05,0.98,0.65,1.4,1.44,1.4
		c0.7,0,1.11-0.23,1.51-0.63l0.66,0.65c-0.56,0.62-1.3,0.98-2.27,0.98C14.47,66.55,13.22,65.73,13.22,63.75z M17.01,63.22
		c-0.07-0.82-0.48-1.26-1.23-1.26c-0.61,0-1.17,0.35-1.29,1.26H17.01z"/>
	<path class="st5" d="M18.94,65.7l0.68-0.76c0.41,0.35,1.01,0.64,1.7,0.64c0.67,0,1.08-0.17,1.08-0.62c0-0.44-0.55-0.57-1.2-0.72
		c-0.92-0.21-2.03-0.46-2.03-1.71c0-0.95,0.81-1.59,2-1.59c1.03,0,1.66,0.29,2.22,0.76l-0.6,0.81c-0.4-0.33-1.04-0.59-1.52-0.59
		c-0.69,0-0.91,0.24-0.91,0.55c0,0.44,0.54,0.57,1.18,0.71c0.92,0.2,2.05,0.44,2.05,1.7c0,1.14-1.03,1.67-2.26,1.67
		C20.32,66.55,19.43,66.2,18.94,65.7z"/>
	<path class="st5" d="M27.88,58.92h1.27v6.36h3.47v1.16h-4.74V58.92z"/>
	<path class="st5" d="M33.45,65.14c0-1.17,1-1.95,3.52-2.24v-0.16c0-0.54-0.28-0.77-0.88-0.77c-0.75,0-1.36,0.37-1.82,0.73
		l-0.61-0.78c0.58-0.53,1.48-0.98,2.6-0.98c1.44,0,1.94,0.69,1.94,1.95v2.23c0,0.65,0.04,1.05,0.15,1.32h-1.26
		c-0.07-0.22-0.12-0.39-0.12-0.69c-0.55,0.56-1.19,0.77-1.99,0.77C34.1,66.52,33.45,66.03,33.45,65.14z M36.96,64.94v-1.19
		c-1.49,0.2-2.29,0.57-2.29,1.16c0,0.43,0.29,0.65,0.75,0.65C36.07,65.56,36.57,65.31,36.96,64.94z"/>
	<path class="st5" d="M39.57,61.04h1.26v0.73c0.35-0.37,1-0.83,1.97-0.83c0.95,0,1.56,0.56,1.56,1.63v3.87H43.1v-3.56
		c0-0.6-0.25-0.87-0.8-0.87c-0.55,0-1.01,0.28-1.46,0.7v3.73h-1.26V61.04z"/>
	<path class="st5" d="M45.48,63.76c0-1.87,0.92-2.82,2.31-2.82c0.58,0,1.15,0.23,1.54,0.68v-2.7h1.25v6.2
		c0,0.65,0.04,1.05,0.16,1.32h-1.29c-0.07-0.15-0.12-0.46-0.12-0.73c-0.4,0.46-0.91,0.81-1.72,0.81
		C46.39,66.52,45.48,65.63,45.48,63.76z M49.33,64.81v-2.16c-0.34-0.44-0.82-0.67-1.27-0.67c-0.95,0-1.33,0.61-1.33,1.81
		c0,1.14,0.49,1.71,1.29,1.71C48.54,65.5,49.04,65.17,49.33,64.81z"/>
	<path class="st5" d="M51.7,63.75c0-2.05,1.45-2.81,2.57-2.81c1.21,0,2.37,0.72,2.37,2.92v0.29h-3.69c0.05,0.98,0.65,1.4,1.44,1.4
		c0.7,0,1.11-0.23,1.51-0.63l0.66,0.65c-0.56,0.62-1.3,0.98-2.27,0.98C52.95,66.55,51.7,65.73,51.7,63.75z M55.49,63.22
		c-0.07-0.82-0.48-1.26-1.23-1.26c-0.61,0-1.17,0.35-1.29,1.26H55.49z"/>
	<path class="st5" d="M57.42,65.7l0.68-0.76c0.41,0.35,1.01,0.64,1.7,0.64c0.67,0,1.08-0.17,1.08-0.62c0-0.44-0.55-0.57-1.2-0.72
		c-0.92-0.21-2.03-0.46-2.03-1.71c0-0.95,0.81-1.59,2-1.59c1.03,0,1.66,0.29,2.22,0.76l-0.6,0.81c-0.4-0.33-1.04-0.59-1.52-0.59
		c-0.69,0-0.91,0.24-0.91,0.55c0,0.44,0.54,0.57,1.18,0.71c0.92,0.2,2.05,0.44,2.05,1.7c0,1.14-1.03,1.67-2.26,1.67
		C58.81,66.55,57.91,66.2,57.42,65.7z"/>
	<path class="st5" d="M66.36,58.92h1.29l3.56,5.37h0.02v-5.37h1.18v7.52h-1.16l-3.69-5.48h-0.02v5.48h-1.18V58.92z"/>
	<path class="st5" d="M73.69,63.75c0-1.99,1.31-2.81,2.63-2.81c1.31,0,2.63,0.81,2.63,2.81c0,1.97-1.32,2.81-2.63,2.81
		C75.01,66.55,73.69,65.72,73.69,63.75z M77.69,63.75c0-1.01-0.43-1.74-1.37-1.74c-0.9,0-1.37,0.65-1.37,1.74
		c0,1.03,0.42,1.76,1.37,1.76C77.22,65.51,77.69,64.85,77.69,63.75z"/>
	<path class="st5" d="M80.08,61.04h1.25v0.88h0.02c0.34-0.54,0.91-0.99,1.94-0.99h0.08l-0.04,1.15c-0.06-0.01-0.26-0.02-0.34-0.02
		c-0.8,0-1.31,0.38-1.67,0.96v3.42h-1.25V61.04z"/>
	<path class="st5" d="M83.98,63.76c0-1.87,0.92-2.82,2.31-2.82c0.58,0,1.15,0.23,1.54,0.68v-2.7h1.25v6.2
		c0,0.65,0.04,1.05,0.16,1.32h-1.29c-0.07-0.15-0.12-0.46-0.12-0.73c-0.4,0.46-0.91,0.81-1.72,0.81
		C84.88,66.52,83.98,65.63,83.98,63.76z M87.83,64.81v-2.16c-0.34-0.44-0.82-0.67-1.27-0.67c-0.95,0-1.33,0.61-1.33,1.81
		c0,1.14,0.49,1.71,1.29,1.71C87.04,65.5,87.53,65.17,87.83,64.81z"/>
	<path class="st5" d="M90.51,61.04h1.25v0.88h0.02c0.34-0.54,0.91-0.99,1.94-0.99h0.08l-0.04,1.15c-0.06-0.01-0.26-0.02-0.34-0.02
		c-0.8,0-1.31,0.38-1.67,0.96v3.42h-1.25V61.04z"/>
	<path class="st5" d="M94.71,58.92h1.26v2.86c0.35-0.37,1-0.83,1.97-0.83c0.95,0,1.56,0.56,1.56,1.63v3.87h-1.26v-3.56
		c0-0.6-0.25-0.87-0.8-0.87c-0.55,0-1.01,0.28-1.46,0.7v3.73h-1.26V58.92z"/>
	<path class="st5" d="M100.6,63.75c0-2.05,1.45-2.81,2.57-2.81c1.21,0,2.37,0.72,2.37,2.92v0.29h-3.69c0.05,0.98,0.65,1.4,1.44,1.4
		c0.7,0,1.11-0.23,1.51-0.63l0.66,0.65c-0.56,0.62-1.3,0.98-2.27,0.98C101.85,66.55,100.6,65.73,100.6,63.75z M104.4,63.22
		c-0.07-0.82-0.48-1.26-1.23-1.26c-0.61,0-1.17,0.35-1.29,1.26H104.4z"/>
	<path class="st5" d="M106.69,59.02h1.28v1.09h-1.28V59.02z M106.7,61.04h1.26v5.4h-1.26V61.04z"/>
	<path class="st5" d="M109.39,61.04h1.26v0.73c0.35-0.37,1-0.83,1.97-0.83c0.95,0,1.56,0.56,1.56,1.63v3.87h-1.26v-3.56
		c0-0.6-0.25-0.87-0.8-0.87s-1.01,0.28-1.46,0.7v3.73h-1.26V61.04z"/>
	<path class="st5" d="M115.42,62.8h2.51v0.89h-2.51V62.8z"/>
	<path class="st5" d="M118.38,58.92h1.28l0.96,3.89c0.15,0.6,0.29,1.16,0.4,1.75h0.02c0.1-0.58,0.23-1.14,0.39-1.74l0.9-3.9h1.22
		l0.94,3.92c0.16,0.64,0.28,1.09,0.4,1.72h0.02c0.11-0.65,0.22-1.05,0.37-1.69l0.94-3.95h1.19l-1.98,7.52h-1.11l-1.35-5.76h-0.02
		l-1.42,5.76h-1.12L118.38,58.92z"/>
	<path class="st5" d="M127.68,63.75c0-2.05,1.45-2.81,2.57-2.81c1.21,0,2.37,0.72,2.37,2.92v0.29h-3.69c0.05,0.98,0.65,1.4,1.44,1.4
		c0.7,0,1.11-0.23,1.51-0.63l0.66,0.65c-0.56,0.62-1.3,0.98-2.27,0.98C128.93,66.55,127.68,65.73,127.68,63.75z M131.47,63.22
		c-0.07-0.82-0.48-1.26-1.23-1.26c-0.61,0-1.17,0.35-1.29,1.26H131.47z"/>
	<path class="st5" d="M133.4,65.7l0.68-0.76c0.41,0.35,1.01,0.64,1.7,0.64c0.67,0,1.08-0.17,1.08-0.62c0-0.44-0.55-0.57-1.2-0.72
		c-0.92-0.21-2.03-0.46-2.03-1.71c0-0.95,0.81-1.59,2-1.59c1.03,0,1.66,0.29,2.22,0.76l-0.6,0.81c-0.4-0.33-1.04-0.59-1.52-0.59
		c-0.69,0-0.91,0.24-0.91,0.55c0,0.44,0.54,0.57,1.18,0.71c0.92,0.2,2.05,0.44,2.05,1.7c0,1.14-1.03,1.67-2.26,1.67
		C134.78,66.55,133.89,66.2,133.4,65.7z"/>
	<path class="st5" d="M139.63,65.03v-2.99h-0.94v-1h0.94v-1.88h1.25v1.88h1.39v1h-1.39v2.67c0,0.58,0.17,0.81,0.79,0.81
		c0.18,0,0.42-0.03,0.54-0.07v0.99c-0.13,0.03-0.6,0.07-0.91,0.07C139.93,66.51,139.63,66,139.63,65.03z"/>
	<path class="st5" d="M143.97,62.04h-0.94v-1h0.94v-0.55c0-0.9,0.38-1.61,1.75-1.61c0.23,0,0.65,0.04,0.74,0.05v0.97
		c-0.08-0.02-0.28-0.04-0.43-0.04c-0.45,0-0.81,0.12-0.81,0.7v0.48h1.18v1h-1.18v4.4h-1.25V62.04z"/>
	<path class="st5" d="M147.04,65.14c0-1.17,1-1.95,3.52-2.24v-0.16c0-0.54-0.28-0.77-0.88-0.77c-0.75,0-1.36,0.37-1.82,0.73
		l-0.61-0.78c0.58-0.53,1.48-0.98,2.6-0.98c1.44,0,1.94,0.69,1.94,1.95v2.23c0,0.65,0.04,1.05,0.15,1.32h-1.26
		c-0.07-0.22-0.12-0.39-0.12-0.69c-0.55,0.56-1.19,0.77-1.99,0.77C147.69,66.52,147.04,66.03,147.04,65.14z M150.56,64.94v-1.19
		c-1.49,0.2-2.29,0.57-2.29,1.16c0,0.43,0.29,0.65,0.75,0.65C149.66,65.56,150.16,65.31,150.56,64.94z"/>
	<path class="st5" d="M153.19,58.92h1.26v7.52h-1.26V58.92z"/>
	<path class="st5" d="M155.61,63.75c0-2.05,1.45-2.81,2.57-2.81c1.21,0,2.37,0.72,2.37,2.92v0.29h-3.69c0.05,0.98,0.65,1.4,1.44,1.4
		c0.7,0,1.11-0.23,1.51-0.63l0.66,0.65c-0.56,0.62-1.3,0.98-2.27,0.98C156.86,66.55,155.61,65.73,155.61,63.75z M159.4,63.22
		c-0.07-0.82-0.48-1.26-1.23-1.26c-0.61,0-1.17,0.35-1.29,1.26H159.4z"/>
	<path class="st5" d="M161.7,61.04h1.26v0.73c0.35-0.37,1-0.83,1.97-0.83c0.95,0,1.56,0.56,1.56,1.63v3.87h-1.26v-3.56
		c0-0.6-0.25-0.87-0.8-0.87c-0.55,0-1.01,0.28-1.46,0.7v3.73h-1.26V61.04z"/>
</g>
<g>
	<path class="st5" d="M9.62,20.77c-0.77,0-1.26-0.18-1.79-0.67l0.65-0.65c0.32,0.3,0.6,0.45,1.1,0.45c0.86,0,1.19-0.61,1.19-1.29
		v-0.65c-0.37,0.44-0.79,0.58-1.31,0.58c-0.51,0-0.93-0.17-1.21-0.45c-0.49-0.49-0.57-1.2-0.57-2.06c0-0.86,0.08-1.57,0.57-2.06
		c0.28-0.28,0.71-0.44,1.22-0.44c0.54,0,0.95,0.14,1.33,0.6v-0.54h0.99v5.04C11.79,19.87,10.97,20.77,9.62,20.77z M9.74,14.44
		c-0.92,0-1.04,0.79-1.04,1.59c0,0.8,0.12,1.59,1.04,1.59s1.03-0.79,1.03-1.59C10.77,15.23,10.66,14.44,9.74,14.44z"/>
	<path class="st5" d="M14.16,16.42c0,0.88,0.45,1.42,1.29,1.42c0.57,0,0.87-0.16,1.23-0.52l0.65,0.61c-0.52,0.52-1.01,0.79-1.9,0.79
		c-1.27,0-2.28-0.67-2.28-2.6c0-1.65,0.85-2.59,2.15-2.59c1.36,0,2.15,0.98,2.15,2.46v0.43H14.16z M16.3,15.02
		c-0.17-0.38-0.52-0.64-1-0.64c-0.49,0-0.84,0.26-1.01,0.64c-0.1,0.22-0.12,0.38-0.13,0.69h2.28C16.42,15.4,16.4,15.24,16.3,15.02z"
		/>
	<path class="st5" d="M19.98,14.37v4.29h-1.02v-4.29h-0.58v-0.78h0.58V12.9c0-0.73,0.44-1.41,1.39-1.41h0.64v0.87h-0.45
		c-0.38,0-0.56,0.22-0.56,0.59v0.64h1.01v0.78H19.98z"/>
	<path class="st5" d="M25.32,18.12c-0.33,0.34-0.83,0.6-1.52,0.6c-0.69,0-1.18-0.26-1.51-0.6c-0.48-0.5-0.6-1.14-0.6-2
		c0-0.85,0.12-1.49,0.6-1.99c0.33-0.34,0.82-0.6,1.51-0.6c0.69,0,1.19,0.26,1.52,0.6c0.48,0.5,0.6,1.14,0.6,1.99
		C25.92,16.98,25.8,17.62,25.32,18.12z M22.26,12.62v-1.08h0.92v1.08H22.26z M24.55,14.73c-0.19-0.19-0.45-0.29-0.75-0.29
		s-0.55,0.1-0.74,0.29c-0.31,0.31-0.35,0.84-0.35,1.39s0.04,1.08,0.35,1.39c0.19,0.19,0.44,0.3,0.74,0.3s0.56-0.11,0.75-0.3
		c0.31-0.31,0.35-0.84,0.35-1.39S24.86,15.04,24.55,14.73z M24.42,12.62v-1.08h0.92v1.08H24.42z"/>
	<path class="st5" d="M30.09,14.78c-0.23-0.23-0.41-0.34-0.76-0.34c-0.55,0-1.01,0.44-1.01,1.14v3.08H27.3v-5.07h1v0.55
		c0.26-0.36,0.78-0.61,1.35-0.61c0.49,0,0.86,0.13,1.21,0.48L30.09,14.78z"/>
	<path class="st5" d="M34.3,18.66v-0.54c-0.38,0.46-0.79,0.6-1.34,0.6c-0.51,0-0.96-0.17-1.24-0.45c-0.49-0.5-0.57-1.31-0.57-2.15
		c0-0.83,0.08-1.64,0.57-2.14c0.28-0.28,0.72-0.45,1.23-0.45c0.54,0,0.96,0.13,1.33,0.57v-2.56h1.02v7.12H34.3z M33.23,14.44
		c-0.93,0-1.06,0.78-1.06,1.68s0.13,1.69,1.06,1.69c0.92,0,1.05-0.79,1.05-1.69S34.15,14.44,33.23,14.44z"/>
	<path class="st5" d="M37.67,16.42c0,0.88,0.45,1.42,1.29,1.42c0.57,0,0.87-0.16,1.23-0.52l0.65,0.61c-0.52,0.52-1.01,0.79-1.9,0.79
		c-1.27,0-2.28-0.67-2.28-2.6c0-1.65,0.85-2.59,2.15-2.59c1.36,0,2.15,0.98,2.15,2.46v0.43H37.67z M39.81,15.02
		c-0.17-0.38-0.52-0.64-1-0.64c-0.49,0-0.84,0.26-1.01,0.64c-0.1,0.22-0.12,0.38-0.13,0.69h2.28C39.93,15.4,39.91,15.24,39.81,15.02
		z"/>
	<path class="st5" d="M45.1,14.78c-0.23-0.23-0.41-0.34-0.76-0.34c-0.55,0-1.01,0.44-1.01,1.14v3.08h-1.02v-5.07h1v0.55
		c0.26-0.36,0.78-0.61,1.35-0.61c0.49,0,0.86,0.13,1.21,0.48L45.1,14.78z"/>
	<path class="st5" d="M48.21,18.66c-0.95,0-1.39-0.68-1.39-1.41v-2.88h-0.58v-0.78h0.58v-1.45h1.02v1.45h0.98v0.78h-0.98v2.83
		c0,0.37,0.18,0.59,0.56,0.59h0.42v0.87H48.21z"/>
	<path class="st5" d="M55.43,18.66v-0.54c-0.38,0.46-0.79,0.6-1.34,0.6c-0.51,0-0.96-0.17-1.24-0.45c-0.49-0.5-0.57-1.31-0.57-2.15
		c0-0.83,0.08-1.64,0.57-2.14c0.28-0.28,0.72-0.45,1.23-0.45c0.54,0,0.96,0.13,1.33,0.57v-2.56h1.02v7.12H55.43z M54.36,14.44
		c-0.93,0-1.06,0.78-1.06,1.68s0.13,1.69,1.06,1.69c0.92,0,1.05-0.79,1.05-1.69S55.28,14.44,54.36,14.44z"/>
	<path class="st5" d="M61.11,18.66v-0.51c-0.35,0.38-0.84,0.57-1.35,0.57c-0.52,0-0.95-0.17-1.25-0.46C58.12,17.88,58,17.4,58,16.83
		v-3.24h1.02v3.09c0,0.79,0.45,1.13,1.02,1.13c0.57,0,1.05-0.35,1.05-1.13v-3.09h1.02v5.07H61.11z"/>
	<path class="st5" d="M66.52,14.78c-0.23-0.23-0.41-0.34-0.76-0.34c-0.55,0-1.01,0.44-1.01,1.14v3.08h-1.02v-5.07h1v0.55
		c0.26-0.36,0.78-0.61,1.35-0.61c0.49,0,0.86,0.13,1.21,0.48L66.52,14.78z"/>
	<path class="st5" d="M69.82,18.72c-1.14,0-2.26-0.7-2.26-2.6s1.12-2.59,2.26-2.59c0.7,0,1.19,0.2,1.67,0.71l-0.7,0.68
		c-0.32-0.35-0.57-0.48-0.97-0.48c-0.39,0-0.72,0.16-0.94,0.45c-0.22,0.28-0.3,0.64-0.3,1.23s0.08,0.96,0.3,1.24
		c0.22,0.29,0.55,0.45,0.94,0.45c0.4,0,0.65-0.13,0.97-0.48l0.7,0.67C71.01,18.51,70.52,18.72,69.82,18.72z"/>
	<path class="st5" d="M75.76,18.66v-3.09c0-0.79-0.45-1.13-1.02-1.13s-1.05,0.35-1.05,1.13v3.09h-1.02v-7.12h1.02v2.56
		c0.34-0.38,0.81-0.57,1.33-0.57s0.95,0.17,1.25,0.46c0.39,0.38,0.51,0.86,0.51,1.43v3.24H75.76z"/>
	<path class="st5" d="M78.58,15.81v-1.22h1.21v1.22H78.58z M78.58,18.66v-1.22h1.21v1.22H78.58z"/>
</g>
</svg>
