<?xml version="1.0" encoding="UTF-8"?>
<svg id="Forscherdatenmanagement" xmlns="http://www.w3.org/2000/svg" viewBox="0 0 2286.15 895.22">
  <defs>
    <style>
      .cls-1 {
        fill: #206289;
      }

      .cls-1, .cls-2, .cls-3 {
        stroke-width: 0px;
      }

      .cls-2 {
        fill: #2c8ec8;
      }

      .cls-3 {
        fill: #71bae7;
      }
    </style>
  </defs>
  <g id="Forschungsdatenmanagement">
    <g id="Text">
      <g id="FDM">
        <path class="cls-1" d="M1033.35,153.94h-223.58v143.32h186.89c17.32,0,30.25,3.89,38.79,11.66,8.53,7.77,12.8,18.15,12.8,31.15s-4.34,23.31-12.99,30.96c-8.67,7.64-21.53,11.47-38.6,11.47h-186.89v184.59c0,23.44-5.29,40.83-15.86,52.17-10.58,11.33-24.14,17.01-40.7,17.01s-30.51-5.73-41.08-17.2c-10.58-11.47-15.86-28.79-15.86-51.98V135.98c0-16.3,2.42-29.62,7.26-39.94,4.84-10.32,12.42-17.83,22.74-22.55,10.32-4.71,23.5-7.07,39.56-7.07h267.53c18.09,0,31.53,4.01,40.32,12.04s13.19,18.54,13.19,31.53-4.4,23.89-13.19,31.91-22.23,12.04-40.32,12.04Z"/>
        <path class="cls-1" d="M1241.64,66.42h147.91c38.47,0,71.47,3.57,98.99,10.7,27.52,7.14,52.49,20.51,74.91,40.13,58.34,49.94,87.52,125.87,87.52,227.78,0,33.63-2.93,64.34-8.79,92.11-5.86,27.77-14.9,52.81-27.13,75.1-12.23,22.3-27.9,42.23-47.01,59.81-15.04,13.51-31.47,24.33-49.3,32.49-17.84,8.16-37.01,13.89-57.52,17.2-20.51,3.31-43.63,4.97-69.37,4.97h-147.9c-20.64,0-36.18-3.12-46.63-9.36-10.45-6.24-17.26-15.03-20.45-26.37-3.19-11.33-4.78-26.05-4.78-44.14V135.98c0-24.46,5.48-42.17,16.43-53.12,10.95-10.95,28.66-16.43,53.12-16.43ZM1285.59,156.24v380.27h85.99c18.85,0,33.63-.51,44.33-1.53,10.7-1.02,21.78-3.56,33.25-7.64,11.46-4.07,21.4-9.81,29.81-17.2,37.96-32.1,56.95-87.39,56.95-165.87,0-55.29-8.35-96.69-25.03-124.21-16.69-27.52-37.26-45.03-61.72-52.55-24.46-7.51-54.02-11.27-88.67-11.27h-74.91Z"/>
        <path class="cls-1" d="M1939.89,542.24l-89.81-356.96v386.77c0,21.4-4.78,37.45-14.33,48.16s-22.23,16.05-38.03,16.05-27.77-5.29-37.45-15.86c-9.69-10.57-14.52-26.69-14.52-48.35V128.72c0-24.46,6.37-40.95,19.11-49.49,12.74-8.53,29.94-12.8,51.59-12.8h35.16c21.14,0,36.5,1.91,46.05,5.73s16.62,10.7,21.21,20.64c4.59,9.94,9.8,26.12,15.67,48.54l81.4,306.89,81.41-306.89c5.86-22.42,11.08-38.6,15.67-48.54,4.59-9.94,11.66-16.82,21.21-20.64s24.9-5.73,46.05-5.73h35.16c21.65,0,38.85,4.27,51.6,12.8,12.74,8.54,19.11,25.03,19.11,49.49v443.33c0,21.4-4.78,37.45-14.33,48.16s-22.36,16.05-38.41,16.05c-15.04,0-27.39-5.35-37.07-16.05-9.69-10.7-14.52-26.75-14.52-48.16V185.28l-89.81,356.96c-5.86,23.19-10.64,40.19-14.33,51.02-3.7,10.83-10.51,20.7-20.45,29.62-9.94,8.92-23.7,13.38-41.28,13.38-13.25,0-24.46-2.87-33.63-8.6-9.17-5.73-16.31-13.05-21.4-21.98-5.1-8.92-9.11-18.79-12.04-29.62-2.93-10.83-5.92-22.1-8.98-33.82Z"/>
      </g>
      <g id="In_Studium_und_Lehre" data-name="In Studium und Lehre">
        <path class="cls-2" d="M52.68,746.35v-24h20.87v24h-20.87ZM52.68,892.32v-123.13h20.87v123.13h-20.87Z"/>
        <path class="cls-2" d="M105.32,892.32v-123.13h18.78v17.51c9.04-13.52,22.1-20.29,39.19-20.29,7.42,0,14.24,1.33,20.46,4,6.22,2.67,10.88,6.16,13.97,10.49,3.09,4.33,5.25,9.47,6.49,15.42.77,3.87,1.16,10.63,1.16,20.29v75.71h-20.87v-74.9c0-8.5-.81-14.86-2.43-19.07-1.62-4.21-4.5-7.57-8.64-10.09-4.14-2.51-8.99-3.77-14.55-3.77-8.89,0-16.56,2.82-23.01,8.46-6.46,5.64-9.68,16.35-9.68,32.11v67.24h-20.87Z"/>
        <path class="cls-2" d="M298.35,837.71l21.22-1.85c1,8.5,3.34,15.48,7.01,20.93,3.67,5.45,9.37,9.85,17.1,13.22,7.73,3.36,16.42,5.04,26.09,5.04,8.58,0,16.15-1.28,22.72-3.83,6.57-2.55,11.46-6.05,14.67-10.49,3.21-4.44,4.81-9.29,4.81-14.55s-1.55-9.99-4.64-13.97c-3.09-3.98-8.19-7.32-15.3-10.03-4.56-1.78-14.65-4.54-30.26-8.29-15.61-3.75-26.55-7.28-32.81-10.61-8.12-4.25-14.16-9.53-18.14-15.83-3.98-6.3-5.97-13.35-5.97-21.16,0-8.58,2.43-16.6,7.3-24.06,4.87-7.46,11.98-13.12,21.33-16.98,9.35-3.86,19.75-5.8,31.19-5.8,12.6,0,23.71,2.03,33.33,6.09,9.62,4.06,17.02,10.03,22.2,17.91,5.18,7.88,7.96,16.81,8.35,26.78l-21.56,1.62c-1.16-10.74-5.08-18.86-11.77-24.35-6.69-5.49-16.56-8.23-29.62-8.23s-23.52,2.49-29.74,7.48c-6.22,4.99-9.33,11-9.33,18.03,0,6.11,2.2,11.13,6.61,15.07,4.33,3.94,15.63,7.98,33.91,12.12,18.28,4.14,30.82,7.75,37.62,10.84,9.89,4.56,17.2,10.34,21.91,17.33,4.71,7,7.07,15.05,7.07,24.17s-2.59,17.56-7.77,25.56c-5.18,8-12.62,14.22-22.32,18.67-9.7,4.44-20.62,6.67-32.75,6.67-15.38,0-28.27-2.24-38.67-6.72-10.4-4.48-18.55-11.23-24.46-20.23-5.91-9-9.02-19.19-9.33-30.55Z"/>
        <path class="cls-2" d="M507.27,873.65l3.01,18.43c-5.88,1.24-11.13,1.85-15.77,1.85-7.58,0-13.45-1.2-17.62-3.59-4.17-2.4-7.11-5.55-8.81-9.45-1.7-3.9-2.55-12.12-2.55-24.64v-70.84h-15.3v-16.23h15.3v-30.49l20.75-12.52v43.01h20.98v16.23h-20.98v72c0,5.95.37,9.78,1.1,11.48.73,1.7,1.93,3.05,3.59,4.06,1.66,1.01,4.04,1.51,7.13,1.51,2.32,0,5.37-.27,9.16-.81Z"/>
        <path class="cls-2" d="M608.37,892.32v-18.09c-9.58,13.91-22.61,20.87-39.07,20.87-7.27,0-14.05-1.39-20.35-4.17-6.3-2.78-10.98-6.28-14.03-10.49-3.05-4.21-5.2-9.37-6.43-15.48-.85-4.1-1.28-10.59-1.28-19.48v-76.29h20.87v68.29c0,10.9.42,18.24,1.28,22.03,1.31,5.49,4.1,9.8,8.35,12.93,4.25,3.13,9.51,4.7,15.77,4.7s12.13-1.6,17.62-4.81c5.49-3.21,9.37-7.57,11.65-13.1,2.28-5.52,3.42-13.54,3.42-24.06v-65.97h20.87v123.13h-18.67Z"/>
        <path class="cls-2" d="M739.61,892.32v-15.54c-7.81,12.21-19.29,18.32-34.43,18.32-9.82,0-18.84-2.71-27.07-8.12s-14.61-12.97-19.13-22.67c-4.52-9.7-6.78-20.85-6.78-33.45s2.05-23.44,6.15-33.45c4.1-10.01,10.24-17.68,18.43-23.01,8.19-5.33,17.35-8,27.48-8,7.42,0,14.03,1.56,19.83,4.7s10.51,7.21,14.14,12.23v-60.98h20.75v169.96h-19.36ZM673.64,830.87c0,15.77,3.32,27.56,9.97,35.36,6.65,7.81,14.49,11.71,23.54,11.71s16.87-3.73,23.25-11.19c6.38-7.46,9.56-18.84,9.56-34.14,0-16.85-3.25-29.22-9.74-37.1-6.49-7.88-14.49-11.83-24-11.83s-17.03,3.79-23.25,11.36c-6.22,7.58-9.33,19.52-9.33,35.82Z"/>
        <path class="cls-2" d="M791.9,746.35v-24h20.87v24h-20.87ZM791.9,892.32v-123.13h20.87v123.13h-20.87Z"/>
        <path class="cls-2" d="M925.22,892.32v-18.09c-9.58,13.91-22.61,20.87-39.07,20.87-7.27,0-14.05-1.39-20.35-4.17-6.3-2.78-10.98-6.28-14.03-10.49-3.05-4.21-5.2-9.37-6.43-15.48-.85-4.1-1.28-10.59-1.28-19.48v-76.29h20.87v68.29c0,10.9.42,18.24,1.28,22.03,1.31,5.49,4.1,9.8,8.35,12.93,4.25,3.13,9.51,4.7,15.77,4.7s12.13-1.6,17.62-4.81c5.49-3.21,9.37-7.57,11.65-13.1,2.28-5.52,3.42-13.54,3.42-24.06v-65.97h20.87v123.13h-18.67Z"/>
        <path class="cls-2" d="M976.58,892.32v-123.13h18.67v17.27c3.86-6.03,9-10.88,15.42-14.55,6.41-3.67,13.72-5.51,21.91-5.51,9.12,0,16.6,1.9,22.43,5.68,5.83,3.79,9.95,9.08,12.35,15.88,9.74-14.38,22.41-21.56,38.03-21.56,12.21,0,21.6,3.38,28.17,10.14,6.57,6.76,9.85,17.18,9.85,31.25v84.52h-20.75v-77.56c0-8.35-.68-14.36-2.03-18.03-1.35-3.67-3.81-6.63-7.36-8.87-3.56-2.24-7.73-3.36-12.52-3.36-8.66,0-15.85,2.88-21.56,8.64-5.72,5.76-8.58,14.98-8.58,27.65v71.53h-20.87v-80c0-9.27-1.7-16.23-5.1-20.87-3.4-4.64-8.97-6.96-16.7-6.96-5.88,0-11.3,1.55-16.29,4.64-4.99,3.09-8.6,7.61-10.84,13.56-2.24,5.95-3.36,14.53-3.36,25.74v63.88h-20.87Z"/>
        <path class="cls-2" d="M1321.03,892.32v-18.09c-9.58,13.91-22.61,20.87-39.07,20.87-7.27,0-14.05-1.39-20.35-4.17-6.3-2.78-10.98-6.28-14.03-10.49-3.05-4.21-5.2-9.37-6.43-15.48-.85-4.1-1.28-10.59-1.28-19.48v-76.29h20.87v68.29c0,10.9.42,18.24,1.28,22.03,1.31,5.49,4.1,9.8,8.35,12.93,4.25,3.13,9.51,4.7,15.77,4.7s12.13-1.6,17.62-4.81c5.49-3.21,9.37-7.57,11.65-13.1,2.28-5.52,3.42-13.54,3.42-24.06v-65.97h20.87v123.13h-18.67Z"/>
        <path class="cls-2" d="M1372.39,892.32v-123.13h18.78v17.51c9.04-13.52,22.1-20.29,39.19-20.29,7.42,0,14.24,1.33,20.46,4,6.22,2.67,10.88,6.16,13.97,10.49,3.09,4.33,5.25,9.47,6.49,15.42.77,3.87,1.16,10.63,1.16,20.29v75.71h-20.87v-74.9c0-8.5-.81-14.86-2.43-19.07-1.62-4.21-4.5-7.57-8.64-10.09-4.14-2.51-8.99-3.77-14.55-3.77-8.89,0-16.56,2.82-23.01,8.46-6.46,5.64-9.68,16.35-9.68,32.11v67.24h-20.87Z"/>
        <path class="cls-2" d="M1584.33,892.32v-15.54c-7.81,12.21-19.29,18.32-34.43,18.32-9.82,0-18.84-2.71-27.07-8.12s-14.61-12.97-19.13-22.67c-4.52-9.7-6.78-20.85-6.78-33.45s2.05-23.44,6.15-33.45c4.1-10.01,10.24-17.68,18.43-23.01,8.19-5.33,17.35-8,27.48-8,7.42,0,14.03,1.56,19.83,4.7s10.51,7.21,14.14,12.23v-60.98h20.75v169.96h-19.36ZM1518.36,830.87c0,15.77,3.32,27.56,9.97,35.36,6.65,7.81,14.49,11.71,23.54,11.71s16.87-3.73,23.25-11.19c6.38-7.46,9.56-18.84,9.56-34.14,0-16.85-3.25-29.22-9.74-37.1-6.49-7.88-14.49-11.83-24-11.83s-17.03,3.79-23.25,11.36c-6.22,7.58-9.33,19.52-9.33,35.82Z"/>
        <path class="cls-2" d="M1704.21,892.32v-169.96h22.49v149.91h83.71v20.06h-106.2Z"/>
        <path class="cls-2" d="M1918.81,852.67l21.56,2.67c-3.4,12.6-9.7,22.38-18.9,29.33-9.2,6.96-20.95,10.43-35.25,10.43-18.01,0-32.29-5.55-42.84-16.64-10.55-11.09-15.83-26.65-15.83-46.66s5.33-36.79,16-48.23c10.67-11.44,24.5-17.16,41.51-17.16s29.91,5.6,40.35,16.81c10.43,11.21,15.65,26.98,15.65,47.3,0,1.24-.04,3.09-.12,5.56h-91.82c.77,13.53,4.6,23.88,11.48,31.07,6.88,7.19,15.46,10.78,25.74,10.78,7.65,0,14.18-2.01,19.59-6.03,5.41-4.02,9.7-10.43,12.87-19.25ZM1850.29,818.93h68.75c-.93-10.36-3.56-18.12-7.88-23.3-6.65-8.04-15.27-12.06-25.85-12.06-9.58,0-17.64,3.21-24.17,9.62-6.53,6.42-10.14,15-10.84,25.74Z"/>
        <path class="cls-2" d="M1966.57,892.32v-169.96h20.87v60.98c9.74-11.28,22.03-16.93,36.87-16.93,9.12,0,17.04,1.8,23.77,5.39,6.72,3.59,11.54,8.56,14.43,14.9,2.9,6.34,4.35,15.54,4.35,27.59v78.03h-20.87v-78.03c0-10.43-2.26-18.03-6.78-22.78s-10.92-7.13-19.19-7.13c-6.18,0-12,1.6-17.45,4.81-5.45,3.21-9.33,7.56-11.65,13.04-2.32,5.49-3.48,13.06-3.48,22.72v67.36h-20.87Z"/>
        <path class="cls-2" d="M2098.39,892.32v-123.13h18.78v18.67c4.79-8.73,9.22-14.49,13.28-17.27,4.06-2.78,8.52-4.17,13.39-4.17,7.03,0,14.18,2.24,21.45,6.72l-7.19,19.36c-5.1-3.01-10.2-4.52-15.3-4.52-4.56,0-8.66,1.37-12.29,4.12-3.63,2.74-6.22,6.55-7.77,11.42-2.32,7.42-3.48,15.54-3.48,24.35v64.46h-20.87Z"/>
        <path class="cls-2" d="M2261.98,852.67l21.56,2.67c-3.4,12.6-9.7,22.38-18.9,29.33-9.2,6.96-20.95,10.43-35.25,10.43-18.01,0-32.29-5.55-42.84-16.64-10.55-11.09-15.83-26.65-15.83-46.66s5.33-36.79,16-48.23c10.67-11.44,24.5-17.16,41.51-17.16s29.91,5.6,40.35,16.81c10.43,11.21,15.65,26.98,15.65,47.3,0,1.24-.04,3.09-.12,5.56h-91.82c.77,13.53,4.6,23.88,11.48,31.07,6.88,7.19,15.46,10.78,25.74,10.78,7.65,0,14.18-2.01,19.59-6.03,5.41-4.02,9.7-10.43,12.87-19.25ZM2193.46,818.93h68.75c-.93-10.36-3.56-18.12-7.88-23.3-6.65-8.04-15.27-12.06-25.85-12.06-9.58,0-17.64,3.21-24.17,9.62-6.53,6.42-10.14,15-10.84,25.74Z"/>
      </g>
    </g>
    <g id="Icon">
      <g id="Icon_Pfeile" data-name="Icon – Pfeile">
        <path class="cls-2" d="M464.05,122.69l-19.99,15.64-40.66,32.88-18.87,15.25-73.8,59.67-.2-60.7c-44.69,9.76-83.57,37.94-106.62,78.17-6.74,11.76-11.98,24.25-15.58,37.13l-.16.58-15.01-18.57-50.48-62.45-18.41,23.09-35.13,44.05,4.95-17.87c6.24-22.53,15.35-44.34,27.09-64.83,23.64-41.26,57.51-76.05,97.94-100.57,33.77-20.49,71.82-33.71,111.02-38.68l-.09-24.2.1-41.29,32.28,25.69,51.86,41.36,39.72,31.68,30.04,23.96Z"/>
        <path class="cls-3" d="M377.89,624.52c-16.57,2.12-30.85,2.29-41.92,1.84-17.5-.71-30.83-3.1-39.65-4.72-14.61-2.68-25.54-5.73-28.79-6.66-2.99-.85-32.8-9.53-62.13-26.34-42.22-24.19-77.55-58.99-102.19-100.64-20.6-34.82-33.49-73.92-37.75-114.11l-65.47.22,69.13-86.69h0s35.13-44.06,35.13-44.06l18.41-23.09,50.48,62.45,15.01,18.57,58.2,72-61.44.2c4,22.3,12.52,43.23,24.85,61.67,7.83,11.7,25.14,34.28,54.49,50.73,17.19,9.64,32.79,13.96,48.66,18.36,16.7,4.63,31.09,7.05,41.58,8.4-22.3,18.03-44.61,36.06-66.92,54.09,30.1,19.25,60.2,38.5,90.3,57.76Z"/>
      </g>
      <g id="Icon_Zahl" data-name="Icon – Zahl">
        <path class="cls-1" d="M379.01,519.3c8.72-1.65,16.12.17,22.21,5.46,7.25,6.26,12.49,17.92,15.72,34.98,3.22,17.02,2.6,29.82-1.89,38.38-3.71,7.06-9.92,11.42-18.63,13.07-8.76,1.66-16.45-.37-23.09-6.09-6.64-5.72-11.59-17.21-14.86-34.48-3.21-16.94-2.57-29.69,1.91-38.26,3.71-7.06,9.92-11.42,18.64-13.07ZM381.71,533.6c-2.09.4-3.82,1.41-5.21,3.05-1.38,1.64-2.2,4.26-2.45,7.87-.34,4.69.49,12.31,2.49,22.87,2,10.56,3.9,17.71,5.72,21.46,1.81,3.75,3.65,6.12,5.51,7.13,1.86,1,3.84,1.31,5.93.91,2.09-.4,3.82-1.41,5.21-3.05,1.38-1.64,2.2-4.26,2.45-7.87.35-4.64-.48-12.25-2.48-22.8-2-10.56-3.91-17.71-5.72-21.46-1.81-3.75-3.65-6.13-5.52-7.16-1.87-1.02-3.85-1.34-5.93-.94Z"/>
        <path class="cls-1" d="M493.58,571.04l-15.21,8.76-33.01-57.33c-2.57,8.4-6.9,16.01-13.01,22.85l-7.95-13.81c3.22-3.59,6.12-8.53,8.68-14.84,2.57-6.31,3.33-12.38,2.27-18.21l12.34-7.11,45.89,79.69Z"/>
        <path class="cls-1" d="M554.08,516.94l-11.9,12.91-48.64-44.85c.06,8.78-1.8,17.35-5.59,25.69l-11.71-10.8c2-4.38,3.29-9.97,3.85-16.76.57-6.79-.53-12.81-3.27-18.06l9.66-10.47,67.61,62.34Z"/>
        <path class="cls-1" d="M508.68,416.37c3.55-8.13,9.23-13.22,17.03-15.26,9.25-2.46,21.84-.21,37.75,6.74,15.88,6.94,26.09,14.67,30.63,23.2,3.74,7.04,3.84,14.63.28,22.76-3.57,8.17-9.58,13.38-18.05,15.64-8.46,2.26-20.75-.13-36.85-7.17-15.8-6.9-25.97-14.62-30.52-23.15-3.74-7.04-3.84-14.63-.28-22.76ZM522.02,422.2c-.85,1.95-.99,3.96-.41,6.02.57,2.07,2.28,4.22,5.12,6.46,3.68,2.93,10.44,6.54,20.28,10.84,9.85,4.3,16.83,6.76,20.95,7.38,4.12.62,7.12.44,8.99-.54,1.88-.97,3.25-2.44,4.1-4.38.85-1.95.99-3.95.42-6.02-.57-2.07-2.28-4.22-5.12-6.46-3.64-2.91-10.38-6.51-20.23-10.81-9.85-4.3-16.83-6.76-20.95-7.38-4.12-.62-7.12-.44-9.02.52-1.9.97-3.27,2.42-4.12,4.37Z"/>
        <path class="cls-1" d="M523.04,359.11c.67-8.85,4.34-15.52,11.03-20.03,7.92-5.38,20.54-7.42,37.86-6.12,17.28,1.3,29.47,5.22,36.58,11.77,5.86,5.41,8.46,12.54,7.79,21.38-.67,8.89-4.62,15.8-11.86,20.72-7.24,4.93-19.62,6.73-37.15,5.42-17.19-1.29-29.34-5.21-36.46-11.76-5.86-5.41-8.46-12.54-7.79-21.38ZM537.55,360.2c-.16,2.12.38,4.06,1.6,5.82,1.23,1.76,3.55,3.23,6.97,4.41,4.44,1.54,12.01,2.72,22.73,3.52,10.72.8,18.12.82,22.21.04,4.09-.78,6.86-1.94,8.31-3.48,1.45-1.54,2.26-3.37,2.42-5.49.16-2.12-.37-4.06-1.6-5.82-1.22-1.76-3.55-3.23-6.97-4.41-4.4-1.54-11.95-2.71-22.67-3.52-10.71-.8-18.12-.82-22.21-.04-4.09.78-6.87,1.94-8.34,3.48-1.47,1.54-2.29,3.37-2.45,5.49Z"/>
        <path class="cls-1" d="M602.81,261.97l4.48,16.97-63.97,16.88c7.44,4.67,13.65,10.85,18.65,18.53l-15.4,4.06c-2.62-4.05-6.64-8.13-12.05-12.26-5.42-4.13-11.08-6.45-16.99-6.95l-3.64-13.77,88.92-23.46Z"/>
        <path class="cls-1" d="M566.48,189.4l9.34,14.87-56.02,35.2c8.49,2.24,16.27,6.28,23.33,12.12l-13.49,8.47c-3.71-3.08-8.76-5.78-15.16-8.11-6.4-2.32-12.5-2.85-18.29-1.57l-7.58-12.06,77.87-48.92Z"/>
        <path class="cls-1" d="M456.81,206.56c-6.86-5.63-10.2-12.48-10.05-20.54.16-9.57,5.75-21.07,16.78-34.49,11-13.39,21.22-21.1,30.67-23.15,7.8-1.68,15.12.29,21.98,5.93,6.89,5.66,10.26,12.87,10.13,21.62-.13,8.76-5.78,19.93-16.94,33.51-10.95,13.32-21.14,21.01-30.59,23.06-7.79,1.68-15.12-.3-21.97-5.93ZM466.04,195.31c1.64,1.35,3.54,2.03,5.68,2.04,2.15.01,4.69-1.04,7.61-3.16,3.82-2.74,9.13-8.26,15.96-16.56s11.09-14.35,12.8-18.14c1.71-3.79,2.36-6.73,1.94-8.8-.42-2.08-1.46-3.79-3.1-5.13-1.64-1.35-3.54-2.03-5.68-2.04-2.15-.01-4.68,1.04-7.61,3.17-3.79,2.71-9.09,8.21-15.92,16.52s-11.09,14.35-12.81,18.14c-1.71,3.79-2.37,6.73-1.96,8.82.41,2.09,1.44,3.81,3.08,5.16Z"/>
      </g>
    </g>
  </g>
</svg>