<?xml version="1.0" encoding="UTF-8"?>
<svg id="Datenmanagement" xmlns="http://www.w3.org/2000/svg" viewBox="0 0 2211.86 1198.26">
  <defs>
    <style>
      .cls-1 {
        fill: #206289;
      }

      .cls-1, .cls-2, .cls-3, .cls-4 {
        stroke-width: 0px;
      }

      .cls-2 {
        fill: #206289;
      }

      .cls-3 {
        fill: #2c8ec8;
      }

      .cls-4 {
        fill: #71bae7;
      }
    </style>
  </defs>
  <g id="Datenmanagement-2" data-name="Datenmanagement">
    <g id="Text">
      <g id="In_Studium_und_Lehre" data-name="In Studium und Lehre">
        <path class="cls-3" d="M236.43,1066.55v-21.23h18.46v21.23h-18.46ZM236.43,1195.69v-108.94h18.46v108.94h-18.46Z"/>
        <path class="cls-3" d="M283,1195.69v-108.94h16.62v15.49c8-11.97,19.56-17.95,34.67-17.95,6.56,0,12.6,1.18,18.1,3.54,5.5,2.36,9.62,5.46,12.36,9.28,2.73,3.83,4.65,8.38,5.74,13.64.68,3.42,1.03,9.4,1.03,17.95v66.98h-18.46v-66.27c0-7.52-.72-13.15-2.15-16.87-1.44-3.73-3.98-6.7-7.64-8.92-3.66-2.22-7.95-3.33-12.87-3.33-7.86,0-14.65,2.5-20.36,7.49-5.71,4.99-8.57,14.46-8.57,28.41v59.5h-18.46Z"/>
        <path class="cls-3" d="M453.79,1147.38l18.77-1.64c.89,7.52,2.96,13.69,6.21,18.52,3.25,4.82,8.29,8.72,15.13,11.69,6.84,2.97,14.53,4.46,23.08,4.46,7.59,0,14.29-1.13,20.11-3.38,5.81-2.26,10.14-5.35,12.98-9.28,2.84-3.93,4.26-8.22,4.26-12.87s-1.37-8.84-4.1-12.36c-2.74-3.52-7.25-6.48-13.54-8.87-4.04-1.57-12.96-4.02-26.77-7.33-13.81-3.32-23.49-6.44-29.03-9.39-7.18-3.76-12.53-8.43-16.05-14-3.52-5.57-5.28-11.81-5.28-18.72,0-7.59,2.15-14.68,6.46-21.28,4.31-6.6,10.6-11.61,18.87-15.03,8.27-3.42,17.47-5.13,27.59-5.13,11.15,0,20.98,1.79,29.49,5.39,8.51,3.59,15.06,8.87,19.64,15.85,4.58,6.98,7.04,14.87,7.39,23.7l-19.08,1.44c-1.03-9.5-4.5-16.68-10.41-21.54-5.92-4.85-14.65-7.28-26.21-7.28s-20.81,2.21-26.31,6.62c-5.51,4.41-8.26,9.73-8.26,15.95,0,5.4,1.95,9.85,5.85,13.33,3.83,3.49,13.83,7.06,30,10.72,16.17,3.66,27.27,6.86,33.29,9.59,8.75,4.04,15.22,9.15,19.39,15.34,4.17,6.19,6.26,13.32,6.26,21.39s-2.29,15.54-6.87,22.62c-4.58,7.08-11.17,12.58-19.75,16.51-8.58,3.93-18.24,5.9-28.98,5.9-13.61,0-25.01-1.98-34.21-5.95-9.2-3.97-16.41-9.93-21.64-17.9-5.23-7.97-7.99-16.98-8.26-27.03Z"/>
        <path class="cls-3" d="M638.64,1179.18l2.67,16.31c-5.2,1.09-9.85,1.64-13.95,1.64-6.7,0-11.9-1.06-15.59-3.18-3.69-2.12-6.29-4.91-7.8-8.36-1.5-3.45-2.26-10.72-2.26-21.8v-62.68h-13.54v-14.36h13.54v-26.98l18.36-11.08v38.06h18.57v14.36h-18.57v63.7c0,5.27.32,8.65.97,10.16.65,1.5,1.71,2.7,3.18,3.59,1.47.89,3.57,1.33,6.31,1.33,2.05,0,4.75-.24,8.1-.72Z"/>
        <path class="cls-3" d="M728.08,1195.69v-16c-8.48,12.31-20,18.46-34.57,18.46-6.43,0-12.43-1.23-18-3.69-5.57-2.46-9.71-5.56-12.41-9.28-2.7-3.73-4.6-8.29-5.69-13.69-.75-3.62-1.13-9.37-1.13-17.23v-67.5h18.46v60.42c0,9.64.38,16.14,1.13,19.49,1.16,4.86,3.62,8.67,7.39,11.44,3.76,2.77,8.41,4.15,13.95,4.15s10.74-1.42,15.59-4.26c4.85-2.84,8.29-6.7,10.31-11.59,2.02-4.89,3.03-11.98,3.03-21.29v-58.37h18.46v108.94h-16.52Z"/>
        <path class="cls-3" d="M844.2,1195.69v-13.75c-6.91,10.81-17.06,16.21-30.47,16.21-8.69,0-16.67-2.39-23.95-7.18-7.28-4.79-12.93-11.47-16.93-20.05-4-8.58-6-18.45-6-29.59s1.81-20.74,5.44-29.59c3.62-8.86,9.06-15.64,16.31-20.36,7.25-4.72,15.35-7.08,24.31-7.08,6.56,0,12.41,1.38,17.54,4.16,5.13,2.77,9.3,6.38,12.51,10.82v-53.96h18.36v150.38h-17.13ZM785.84,1141.33c0,13.95,2.94,24.38,8.82,31.29,5.88,6.91,12.82,10.36,20.82,10.36s14.92-3.3,20.57-9.9c5.64-6.6,8.46-16.67,8.46-30.21,0-14.91-2.87-25.85-8.62-32.82-5.74-6.98-12.82-10.46-21.23-10.46s-15.06,3.35-20.57,10.05c-5.51,6.7-8.26,17.27-8.26,31.7Z"/>
        <path class="cls-3" d="M890.47,1066.55v-21.23h18.46v21.23h-18.46ZM890.47,1195.69v-108.94h18.46v108.94h-18.46Z"/>
        <path class="cls-3" d="M1008.43,1195.69v-16c-8.48,12.31-20,18.46-34.57,18.46-6.43,0-12.43-1.23-18-3.69-5.57-2.46-9.71-5.56-12.41-9.28-2.7-3.73-4.6-8.29-5.69-13.69-.75-3.62-1.13-9.37-1.13-17.23v-67.5h18.46v60.42c0,9.64.38,16.14,1.13,19.49,1.16,4.86,3.62,8.67,7.39,11.44,3.76,2.77,8.41,4.15,13.95,4.15s10.74-1.42,15.59-4.26c4.85-2.84,8.29-6.7,10.31-11.59,2.02-4.89,3.03-11.98,3.03-21.29v-58.37h18.46v108.94h-16.52Z"/>
        <path class="cls-3" d="M1053.87,1195.69v-108.94h16.52v15.28c3.42-5.33,7.97-9.62,13.64-12.87,5.68-3.25,12.14-4.87,19.39-4.87,8.07,0,14.68,1.68,19.85,5.03,5.16,3.35,8.8,8.04,10.92,14.05,8.62-12.72,19.83-19.08,33.65-19.08,10.8,0,19.11,2.99,24.93,8.98,5.81,5.99,8.72,15.2,8.72,27.65v74.78h-18.36v-68.62c0-7.39-.6-12.7-1.79-15.95-1.2-3.25-3.37-5.86-6.51-7.85-3.15-1.98-6.84-2.97-11.08-2.97-7.66,0-14.02,2.55-19.08,7.64-5.06,5.1-7.59,13.25-7.59,24.46v63.29h-18.46v-70.78c0-8.21-1.5-14.36-4.51-18.46-3.01-4.1-7.93-6.15-14.77-6.15-5.2,0-10,1.37-14.41,4.1-4.41,2.74-7.61,6.74-9.59,12-1.98,5.27-2.98,12.86-2.98,22.77v56.52h-18.46Z"/>
        <path class="cls-3" d="M1358.63,1195.69v-16c-8.48,12.31-20,18.46-34.57,18.46-6.43,0-12.43-1.23-18-3.69-5.57-2.46-9.71-5.56-12.41-9.28-2.7-3.73-4.6-8.29-5.69-13.69-.75-3.62-1.13-9.37-1.13-17.23v-67.5h18.46v60.42c0,9.64.38,16.14,1.13,19.49,1.16,4.86,3.62,8.67,7.39,11.44,3.76,2.77,8.41,4.15,13.95,4.15s10.74-1.42,15.59-4.26c4.85-2.84,8.29-6.7,10.31-11.59,2.02-4.89,3.03-11.98,3.03-21.29v-58.37h18.46v108.94h-16.52Z"/>
        <path class="cls-3" d="M1404.07,1195.69v-108.94h16.62v15.49c8-11.97,19.56-17.95,34.67-17.95,6.56,0,12.6,1.18,18.1,3.54,5.5,2.36,9.62,5.46,12.36,9.28,2.73,3.83,4.65,8.38,5.74,13.64.68,3.42,1.03,9.4,1.03,17.95v66.98h-18.46v-66.27c0-7.52-.72-13.15-2.15-16.87-1.44-3.73-3.98-6.7-7.64-8.92-3.66-2.22-7.95-3.33-12.87-3.33-7.86,0-14.65,2.5-20.36,7.49-5.71,4.99-8.57,14.46-8.57,28.41v59.5h-18.46Z"/>
        <path class="cls-3" d="M1591.59,1195.69v-13.75c-6.91,10.81-17.06,16.21-30.47,16.21-8.69,0-16.67-2.39-23.95-7.18-7.28-4.79-12.93-11.47-16.93-20.05-4-8.58-6-18.45-6-29.59s1.81-20.74,5.44-29.59c3.62-8.86,9.06-15.64,16.31-20.36,7.25-4.72,15.35-7.08,24.31-7.08,6.56,0,12.41,1.38,17.54,4.16,5.13,2.77,9.3,6.38,12.51,10.82v-53.96h18.36v150.38h-17.13ZM1533.22,1141.33c0,13.95,2.94,24.38,8.82,31.29,5.88,6.91,12.82,10.36,20.82,10.36s14.92-3.3,20.57-9.9c5.64-6.6,8.46-16.67,8.46-30.21,0-14.91-2.87-25.85-8.62-32.82-5.74-6.98-12.82-10.46-21.23-10.46s-15.06,3.35-20.57,10.05c-5.51,6.7-8.26,17.27-8.26,31.7Z"/>
        <path class="cls-3" d="M1697.65,1195.69v-150.38h19.9v132.63h74.06v17.75h-93.96Z"/>
        <path class="cls-3" d="M1887.53,1160.61l19.08,2.36c-3.01,11.15-8.58,19.8-16.72,25.95-8.14,6.16-18.53,9.23-31.18,9.23-15.94,0-28.57-4.91-37.9-14.72-9.33-9.81-14-23.58-14-41.29s4.72-32.55,14.16-42.67c9.44-10.12,21.68-15.18,36.72-15.18s26.47,4.96,35.7,14.87c9.23,9.92,13.85,23.87,13.85,41.85,0,1.09-.04,2.74-.1,4.92h-81.24c.68,11.97,4.07,21.13,10.16,27.49,6.09,6.36,13.68,9.54,22.77,9.54,6.77,0,12.55-1.78,17.34-5.33,4.79-3.55,8.58-9.23,11.39-17.03ZM1826.9,1130.76h60.83c-.82-9.16-3.15-16.04-6.98-20.62-5.88-7.11-13.51-10.67-22.88-10.67-8.48,0-15.61,2.84-21.39,8.51-5.78,5.68-8.98,13.27-9.59,22.77Z"/>
        <path class="cls-3" d="M1929.79,1195.69v-150.38h18.46v53.96c8.62-9.98,19.49-14.98,32.62-14.98,8.07,0,15.08,1.59,21.03,4.77,5.95,3.18,10.21,7.57,12.77,13.18,2.56,5.61,3.85,13.75,3.85,24.41v69.04h-18.46v-69.04c0-9.23-2-15.95-6-20.16-4-4.21-9.66-6.31-16.98-6.31-5.47,0-10.62,1.42-15.44,4.26-4.82,2.84-8.26,6.68-10.31,11.54-2.05,4.86-3.08,11.56-3.08,20.11v59.6h-18.46Z"/>
        <path class="cls-3" d="M2046.42,1195.69v-108.94h16.62v16.52c4.24-7.73,8.15-12.82,11.75-15.28s7.54-3.69,11.85-3.69c6.22,0,12.55,1.98,18.98,5.95l-6.36,17.13c-4.51-2.67-9.03-4-13.54-4-4.04,0-7.66,1.21-10.87,3.64-3.22,2.43-5.51,5.8-6.87,10.1-2.05,6.57-3.08,13.75-3.08,21.54v57.03h-18.46Z"/>
        <path class="cls-3" d="M2191.16,1160.61l19.08,2.36c-3.01,11.15-8.58,19.8-16.72,25.95-8.14,6.16-18.53,9.23-31.18,9.23-15.94,0-28.57-4.91-37.9-14.72-9.33-9.81-14-23.58-14-41.29s4.72-32.55,14.16-42.67c9.44-10.12,21.68-15.18,36.72-15.18s26.47,4.96,35.7,14.87c9.23,9.92,13.85,23.87,13.85,41.85,0,1.09-.04,2.74-.1,4.92h-81.24c.68,11.97,4.07,21.13,10.16,27.49,6.09,6.36,13.68,9.54,22.77,9.54,6.77,0,12.55-1.78,17.34-5.33,4.79-3.55,8.58-9.23,11.39-17.03ZM2130.53,1130.76h60.83c-.82-9.16-3.15-16.04-6.98-20.62-5.88-7.11-13.51-10.67-22.88-10.67-8.48,0-15.61,2.84-21.39,8.51-5.78,5.68-8.98,13.27-9.59,22.77Z"/>
      </g>
      <g id="Management">
        <path class="cls-2" d="M236.68,789.23h40.96v22.93c14.65-17.82,32.1-26.72,52.34-26.72,10.75,0,20.08,2.21,27.99,6.64s14.39,11.12,19.45,20.08c7.38-8.96,15.34-15.66,23.88-20.08,8.54-4.43,17.66-6.64,27.36-6.64,12.33,0,22.77,2.5,31.31,7.51,8.54,5.01,14.92,12.36,19.13,22.06,3.06,7.17,4.59,18.77,4.59,34.79v107.37h-44.44v-95.99c0-16.66-1.53-27.41-4.59-32.26-4.11-6.33-10.44-9.49-18.98-9.49-6.22,0-12.07,1.9-17.55,5.69-5.48,3.79-9.44,9.36-11.86,16.68-2.43,7.33-3.64,18.9-3.64,34.71v80.65h-44.44v-92.03c0-16.34-.79-26.88-2.37-31.63-1.58-4.74-4.03-8.27-7.35-10.59-3.32-2.32-7.83-3.48-13.52-3.48-6.85,0-13.02,1.85-18.5,5.54-5.48,3.69-9.41,9.01-11.78,15.97-2.37,6.96-3.56,18.5-3.56,34.63v81.6h-44.44v-167.94Z"/>
        <path class="cls-2" d="M561.17,840.47l-40.32-7.27c4.53-16.23,12.33-28.25,23.4-36.05,11.07-7.8,27.52-11.7,49.34-11.7,19.82,0,34.58,2.35,44.28,7.04,9.7,4.69,16.52,10.65,20.48,17.87,3.95,7.22,5.93,20.48,5.93,39.77l-.47,51.87c0,14.76.71,25.64,2.13,32.65,1.42,7.01,4.08,14.52,7.99,22.53h-43.96c-1.16-2.95-2.58-7.33-4.27-13.12-.74-2.63-1.27-4.37-1.58-5.22-7.59,7.38-15.71,12.92-24.35,16.6-8.65,3.69-17.87,5.53-27.67,5.53-17.29,0-30.92-4.69-40.88-14.07-9.96-9.38-14.94-21.24-14.94-35.58,0-9.49,2.27-17.95,6.8-25.38,4.53-7.43,10.88-13.12,19.06-17.08,8.17-3.95,19.95-7.4,35.34-10.36,20.77-3.9,35.16-7.54,43.17-10.91v-4.43c0-8.54-2.11-14.63-6.33-18.26-4.22-3.64-12.18-5.46-23.88-5.46-7.91,0-14.07,1.56-18.5,4.67-4.43,3.11-8.01,8.57-10.75,16.37ZM620.63,876.52c-5.69,1.9-14.71,4.17-27.04,6.8-12.33,2.64-20.4,5.22-24.19,7.75-5.8,4.11-8.7,9.33-8.7,15.66s2.32,11.6,6.96,16.13c4.64,4.53,10.54,6.8,17.71,6.8,8.01,0,15.66-2.63,22.93-7.91,5.38-4.01,8.91-8.91,10.59-14.71,1.16-3.79,1.74-11.01,1.74-21.66v-8.86Z"/>
        <path class="cls-2" d="M860.84,957.17h-44.44v-85.71c0-18.13-.95-29.86-2.85-35.18-1.9-5.32-4.98-9.46-9.25-12.41-4.27-2.95-9.41-4.43-15.42-4.43-7.7,0-14.6,2.11-20.72,6.33-6.12,4.22-10.31,9.8-12.57,16.76-2.27,6.96-3.4,19.82-3.4,38.58v76.06h-44.44v-167.94h41.27v24.67c14.65-18.98,33.1-28.46,55.35-28.46,9.8,0,18.76,1.77,26.88,5.3,8.12,3.53,14.26,8.04,18.42,13.52,4.16,5.48,7.06,11.7,8.7,18.66,1.63,6.96,2.45,16.92,2.45,29.89v104.37Z"/>
        <path class="cls-2" d="M939.11,840.47l-40.32-7.27c4.53-16.23,12.33-28.25,23.4-36.05,11.07-7.8,27.52-11.7,49.34-11.7,19.82,0,34.58,2.35,44.28,7.04,9.7,4.69,16.52,10.65,20.48,17.87,3.95,7.22,5.93,20.48,5.93,39.77l-.47,51.87c0,14.76.71,25.64,2.13,32.65,1.42,7.01,4.08,14.52,7.99,22.53h-43.96c-1.16-2.95-2.58-7.33-4.27-13.12-.74-2.63-1.27-4.37-1.58-5.22-7.59,7.38-15.71,12.92-24.35,16.6-8.65,3.69-17.87,5.53-27.67,5.53-17.29,0-30.92-4.69-40.88-14.07-9.96-9.38-14.94-21.24-14.94-35.58,0-9.49,2.27-17.95,6.8-25.38,4.53-7.43,10.88-13.12,19.06-17.08,8.17-3.95,19.95-7.4,35.34-10.36,20.77-3.9,35.16-7.54,43.17-10.91v-4.43c0-8.54-2.11-14.63-6.33-18.26-4.22-3.64-12.18-5.46-23.88-5.46-7.91,0-14.07,1.56-18.5,4.67-4.43,3.11-8.01,8.57-10.75,16.37ZM998.57,876.52c-5.69,1.9-14.71,4.17-27.04,6.8-12.33,2.64-20.4,5.22-24.19,7.75-5.8,4.11-8.7,9.33-8.7,15.66s2.32,11.6,6.96,16.13c4.64,4.53,10.54,6.8,17.71,6.8,8.01,0,15.66-2.63,22.93-7.91,5.38-4.01,8.91-8.91,10.59-14.71,1.16-3.79,1.74-11.01,1.74-21.66v-8.86Z"/>
        <path class="cls-2" d="M1081.91,968.24l50.76,6.17c.84,5.9,2.79,9.96,5.85,12.18,4.22,3.16,10.86,4.74,19.93,4.74,11.6,0,20.29-1.74,26.09-5.22,3.9-2.32,6.85-6.06,8.86-11.23,1.37-3.69,2.06-10.49,2.06-20.4v-24.51c-13.28,18.13-30.05,27.2-50.29,27.2-22.56,0-40.43-9.54-53.61-28.62-10.33-15.08-15.5-33.84-15.5-56.3,0-28.15,6.77-49.65,20.32-64.52,13.55-14.87,30.39-22.3,50.52-22.3s37.9,9.12,51.39,27.36v-23.56h41.59v150.7c0,19.82-1.64,34.63-4.9,44.44-3.27,9.8-7.85,17.5-13.76,23.09-5.91,5.59-13.79,9.96-23.64,13.12-9.86,3.16-22.32,4.74-37.4,4.74-28.46,0-48.65-4.88-60.57-14.63-11.91-9.75-17.87-22.11-17.87-37.08,0-1.48.05-3.27.16-5.38ZM1121.6,869.73c0,17.82,3.45,30.86,10.36,39.14,6.9,8.28,15.42,12.41,25.54,12.41,10.86,0,20.03-4.24,27.52-12.73,7.48-8.49,11.23-21.06,11.23-37.71s-3.59-30.31-10.75-38.74c-7.17-8.43-16.24-12.65-27.2-12.65s-19.43,4.14-26.33,12.41c-6.91,8.28-10.36,20.9-10.36,37.87Z"/>
        <path class="cls-2" d="M1381.1,903.72l44.28,7.43c-5.69,16.24-14.68,28.6-26.96,37.08-12.28,8.49-27.65,12.73-46.1,12.73-29.2,0-50.82-9.54-64.83-28.62-11.07-15.28-16.6-34.58-16.6-57.88,0-27.83,7.27-49.63,21.82-65.39,14.55-15.76,32.94-23.64,55.19-23.64,24.99,0,44.7,8.25,59.14,24.75,14.44,16.5,21.35,41.77,20.72,75.83h-111.33c.32,13.18,3.9,23.43,10.75,30.76,6.85,7.33,15.39,10.99,25.62,10.99,6.96,0,12.81-1.9,17.55-5.69,4.74-3.8,8.33-9.91,10.75-18.34ZM1383.63,858.81c-.32-12.86-3.64-22.64-9.96-29.33-6.33-6.69-14.02-10.04-23.09-10.04-9.7,0-17.71,3.53-24.04,10.6-6.33,7.06-9.44,16.66-9.33,28.78h66.42Z"/>
        <path class="cls-2" d="M1460.64,789.23h40.96v22.93c14.65-17.82,32.1-26.72,52.34-26.72,10.75,0,20.08,2.21,27.99,6.64s14.39,11.12,19.45,20.08c7.38-8.96,15.34-15.66,23.88-20.08,8.54-4.43,17.66-6.64,27.36-6.64,12.33,0,22.77,2.5,31.31,7.51,8.54,5.01,14.92,12.36,19.13,22.06,3.06,7.17,4.59,18.77,4.59,34.79v107.37h-44.44v-95.99c0-16.66-1.53-27.41-4.59-32.26-4.11-6.33-10.44-9.49-18.98-9.49-6.22,0-12.07,1.9-17.55,5.69-5.48,3.79-9.44,9.36-11.86,16.68-2.43,7.33-3.64,18.9-3.64,34.71v80.65h-44.44v-92.03c0-16.34-.79-26.88-2.37-31.63-1.58-4.74-4.03-8.27-7.35-10.59-3.32-2.32-7.83-3.48-13.52-3.48-6.85,0-13.02,1.85-18.5,5.54-5.48,3.69-9.41,9.01-11.78,15.97-2.37,6.96-3.56,18.5-3.56,34.63v81.6h-44.44v-167.94Z"/>
        <path class="cls-2" d="M1849.18,903.72l44.28,7.43c-5.69,16.24-14.68,28.6-26.96,37.08-12.28,8.49-27.65,12.73-46.1,12.73-29.2,0-50.82-9.54-64.83-28.62-11.07-15.28-16.6-34.58-16.6-57.88,0-27.83,7.27-49.63,21.82-65.39,14.55-15.76,32.94-23.64,55.19-23.64,24.99,0,44.7,8.25,59.14,24.75,14.44,16.5,21.35,41.77,20.72,75.83h-111.33c.32,13.18,3.9,23.43,10.75,30.76,6.85,7.33,15.39,10.99,25.62,10.99,6.96,0,12.81-1.9,17.55-5.69,4.74-3.8,8.33-9.91,10.75-18.34ZM1851.71,858.81c-.32-12.86-3.64-22.64-9.96-29.33-6.33-6.69-14.02-10.04-23.09-10.04-9.7,0-17.71,3.53-24.04,10.6-6.33,7.06-9.44,16.66-9.33,28.78h66.42Z"/>
        <path class="cls-2" d="M2084.8,957.17h-44.44v-85.71c0-18.13-.95-29.86-2.85-35.18-1.9-5.32-4.98-9.46-9.25-12.41-4.27-2.95-9.41-4.43-15.42-4.43-7.7,0-14.6,2.11-20.72,6.33-6.12,4.22-10.31,9.8-12.57,16.76-2.27,6.96-3.4,19.82-3.4,38.58v76.06h-44.44v-167.94h41.27v24.67c14.65-18.98,33.1-28.46,55.35-28.46,9.8,0,18.76,1.77,26.88,5.3,8.12,3.53,14.26,8.04,18.42,13.52,4.16,5.48,7.06,11.7,8.7,18.66,1.63,6.96,2.45,16.92,2.45,29.89v104.37Z"/>
        <path class="cls-2" d="M2206.88,789.23v35.42h-30.36v67.68c0,13.71.29,21.69.87,23.96.58,2.27,1.9,4.14,3.95,5.61,2.06,1.48,4.56,2.21,7.51,2.21,4.11,0,10.07-1.42,17.87-4.27l3.79,34.47c-10.33,4.43-22.03,6.64-35.11,6.64-8.01,0-15.24-1.34-21.66-4.03-6.43-2.69-11.15-6.17-14.15-10.44-3-4.27-5.09-10.04-6.25-17.32-.95-5.16-1.42-15.6-1.42-31.31v-73.22h-20.4v-35.42h20.4v-33.37l44.59-25.93v59.3h30.36Z"/>
      </g>
      <g id="Daten">
        <path class="cls-2" d="M235.51,226.34h173.35c39.09,0,68.89,2.99,89.4,8.97,27.56,8.12,51.16,22.54,70.81,43.26,19.65,20.72,34.61,46.09,44.86,76.1,10.25,30.01,15.38,67.02,15.38,111.02,0,38.67-4.81,71.99-14.42,99.97-11.75,34.18-28.52,61.84-50.31,82.99-16.45,16.02-38.67,28.52-66.65,37.49-20.94,6.62-48.92,9.93-83.95,9.93h-178.47V226.34ZM330.35,305.81v311.12h70.81c26.48,0,45.6-1.49,57.35-4.49,15.38-3.84,28.14-10.36,38.29-19.55,10.14-9.18,18.42-24.3,24.83-45.34,6.41-21.04,9.61-49.71,9.61-86.03s-3.2-64.19-9.61-83.63c-6.41-19.44-15.38-34.61-26.92-45.5-11.53-10.89-26.17-18.26-43.9-22.11-13.25-2.99-39.2-4.49-77.86-4.49h-42.62Z"/>
        <path class="cls-2" d="M776.37,459.61l-81.71-14.74c9.18-32.89,24.99-57.25,47.42-73.06,22.43-15.81,55.75-23.71,99.97-23.71,40.16,0,70.06,4.76,89.72,14.26,19.65,9.51,33.48,21.58,41.49,36.21,8.01,14.63,12.02,41.49,12.02,80.58l-.96,105.1c0,29.91,1.44,51.96,4.33,66.17,2.88,14.21,8.28,29.43,16.18,45.66h-89.08c-2.35-5.98-5.24-14.84-8.65-26.59-1.5-5.34-2.56-8.86-3.2-10.57-15.38,14.96-31.83,26.17-49.34,33.64-17.52,7.47-36.21,11.21-56.07,11.21-35.04,0-62.64-9.5-82.83-28.52-20.19-19.01-30.28-43.04-30.28-72.09,0-19.23,4.59-36.37,13.78-51.43,9.18-15.06,22.05-26.59,38.61-34.6,16.55-8.01,40.42-15,71.61-20.99,42.08-7.9,71.24-15.27,87.47-22.11v-8.97c0-17.3-4.28-29.64-12.82-37.01-8.55-7.37-24.67-11.05-48.38-11.05-16.02,0-28.52,3.15-37.49,9.45-8.97,6.3-16.24,17.36-21.79,33.16ZM896.85,532.66c-11.54,3.84-29.8,8.44-54.79,13.78-24.99,5.34-41.33,10.57-49.02,15.7-11.75,8.33-17.62,18.9-17.62,31.72s4.7,23.5,14.1,32.68c9.4,9.19,21.36,13.78,35.89,13.78,16.23,0,31.72-5.34,46.46-16.02,10.89-8.12,18.05-18.05,21.47-29.8,2.35-7.69,3.52-22.32,3.52-43.9v-17.94Z"/>
        <path class="cls-2" d="M1230.08,355.79v71.77h-61.52v137.14c0,27.77.59,43.95,1.76,48.54,1.17,4.6,3.85,8.39,8.01,11.38,4.17,2.99,9.24,4.49,15.22,4.49,8.33,0,20.4-2.88,36.21-8.65l7.69,69.85c-20.94,8.97-44.65,13.46-71.13,13.46-16.24,0-30.87-2.72-43.9-8.17-13.03-5.45-22.59-12.5-28.68-21.15s-10.31-20.35-12.66-35.09c-1.92-10.46-2.88-31.61-2.88-63.44v-148.35h-41.33v-71.77h41.33v-67.61l90.36-52.55v120.16h61.52Z"/>
        <path class="cls-2" d="M1489.62,587.77l89.72,15.06c-11.54,32.9-29.75,57.95-54.63,75.14-24.89,17.2-56.02,25.79-93.4,25.79-59.17,0-102.96-19.33-131.37-58-22.43-30.97-33.64-70.06-33.64-117.27,0-56.39,14.74-100.56,44.22-132.49,29.48-31.93,66.75-47.9,111.83-47.9,50.63,0,90.57,16.72,119.84,50.15,29.26,33.43,43.26,84.65,41.97,153.64h-225.57c.64,26.7,7.9,47.48,21.79,62.32,13.88,14.85,31.19,22.27,51.91,22.27,14.1,0,25.95-3.84,35.57-11.54,9.61-7.69,16.87-20.08,21.79-37.17ZM1494.75,496.77c-.64-26.06-7.37-45.87-20.19-59.44-12.82-13.56-28.41-20.35-46.78-20.35-19.66,0-35.89,7.16-48.7,21.47-12.82,14.31-19.12,33.75-18.9,58.32h134.58Z"/>
        <path class="cls-2" d="M1967.05,696.07h-90.04v-173.67c0-36.74-1.92-60.5-5.77-71.29-3.85-10.78-10.09-19.17-18.74-25.15-8.65-5.98-19.06-8.97-31.24-8.97-15.6,0-29.59,4.28-41.97,12.82-12.39,8.55-20.88,19.87-25.47,33.96-4.6,14.1-6.89,40.16-6.89,78.18v154.12h-90.04v-340.28h83.63v49.98c29.69-38.45,67.07-57.67,112.15-57.67,19.87,0,38.02,3.58,54.47,10.73,16.45,7.16,28.89,16.29,37.33,27.4,8.44,11.11,14.31,23.71,17.62,37.81,3.31,14.1,4.97,34.29,4.97,60.56v211.48Z"/>
        <path class="cls-2" d="M2034.99,570.79v-90.04h176.87v90.04h-176.87Z"/>
      </g>
    </g>
    <g id="Icon">
      <g id="Mütze">
        <path class="cls-4" d="M528.68,231.53c-27.29,35.61-71.71,85.2-137.73,129.98-65.8,44.62-128.09,67.53-171.19,79.73-21.79-32.1-43.58-64.21-65.38-96.31l205.41-29.81,103.5-179.9,65.39,96.31Z"/>
        <polygon class="cls-3" points="541.09 0 463.29 135.22 359.79 315.12 154.38 344.93 91.15 354.1 0 367.33 192.87 60.29 541.09 0"/>
      </g>
      <g id="Bömmel">
        <path class="cls-4" d="M121.03,604.23h-48.06c3.77-23.99,7.52-48,11.29-72,3.59,2.6,7.98,4.13,12.74,4.13,4.75,0,9.16-1.52,12.73-4.12,3.77,24,7.53,48,11.29,71.99Z"/>
        <path class="cls-1" d="M109.74,532.24c-3.58,2.6-7.98,4.12-12.73,4.12-4.76,0-9.15-1.53-12.74-4.13.38-2.48.77-4.95,1.16-7.43,3.36,2.12,7.33,3.34,11.58,3.34,4.24,0,8.22-1.22,11.57-3.33.39,2.48.78,4.95,1.16,7.43Z"/>
        <path class="cls-4" d="M118.76,506.39c0,1.41-.13,2.77-.39,4.11-1.15,6.02-4.78,11.16-9.79,14.31-3.35,2.11-7.33,3.33-11.57,3.33s-8.22-1.22-11.58-3.34c-5.02-3.14-8.64-8.28-9.79-14.3-.26-1.34-.39-2.7-.39-4.11,0-10.06,6.83-18.53,16.12-21.01v-131.33c.72-.74,1.44-1.48,2.16-2.22,57.67-59.38,115.35-118.77,173.02-178.15l10.92-1.42-174.83,180.16v132.96c9.28,2.48,16.12,10.95,16.12,21.01Z"/>
      </g>
    </g>
  </g>
</svg>