<?xml version="1.0" encoding="UTF-8"?>
<svg id="Projekt_Logo" data-name="Projekt Logo" xmlns="http://www.w3.org/2000/svg" viewBox="0 0 2225.49 1087.95">
  <defs>
    <style>
      .cls-1 {
        fill: #206289;
      }

      .cls-1, .cls-2, .cls-3, .cls-4 {
        stroke-width: 0px;
      }

      .cls-2 {
        fill: #73bbe7;
      }

      .cls-3 {
        fill: #206289;
      }

      .cls-4 {
        fill: #71bae7;
      }
    </style>
  </defs>
  <g id="Projekt_Logo-2" data-name="Projekt Logo">
    <g id="Icon">
      <g id="Puzzel">
        <path class="cls-2" d="M232.72,337.4c-3.14,13.76,5.46,27.47,19.22,30.61,5.87,1.34,11.73.54,16.76-1.87l-14.86,65.07-63.97-14.61c1.81,4.62,2.3,9.82,1.12,15.02-3.14,13.76-16.84,22.36-30.61,19.22-13.76-3.14-22.36-16.84-19.22-30.6,1.19-5.2,3.89-9.67,7.53-13.04l-63.97-14.61,14.77-64.65c3.45,4.09,8.21,7.14,13.83,8.42,13.76,3.14,27.46-5.46,30.6-19.23,3.14-13.76-5.46-27.46-19.22-30.6-5.62-1.28-11.23-.6-16.12,1.58l14.77-64.65,64.21,14.67c-1.94-4.72-2.49-10.06-1.27-15.4,3.14-13.76,16.85-22.37,30.6-19.23,13.76,3.14,22.37,16.85,19.23,30.61-1.22,5.35-4.04,9.92-7.83,13.32l64.21,14.67-14.86,65.07c-3.49-4.36-8.42-7.62-14.29-8.96-13.76-3.14-27.46,5.46-30.6,19.22Z"/>
        <path class="cls-3" d="M481.92,394.32c-3.14,13.76-16.85,22.37-30.61,19.23-5.51-1.26-10.18-4.2-13.62-8.17l-14.72,64.47-64.84-14.81c4.21-3.47,7.36-8.31,8.66-14.04,3.14-13.76-5.46-27.46-19.22-30.6-13.76-3.14-27.47,5.46-30.61,19.22-1.31,5.73-.58,11.45,1.71,16.41l-64.83-14.81,14.86-65.07c-5.04,2.41-10.9,3.21-16.76,1.87-13.76-3.14-22.36-16.84-19.22-30.61,3.14-13.76,16.84-22.36,30.6-19.22,5.87,1.34,10.8,4.6,14.29,8.96l14.86-65.07,65.02,14.85c-4.34,3.48-7.57,8.4-8.91,14.24-3.14,13.76,5.46,27.46,19.23,30.6,13.76,3.14,27.46-5.46,30.6-19.22,1.34-5.84.55-11.68-1.84-16.7l65.03,14.85-14.72,64.47c4.82-2.08,10.31-2.71,15.82-1.45,13.76,3.14,22.37,16.85,19.23,30.6Z"/>
      </g>
      <g id="Hand_unten" data-name="Hand unten">
        <path class="cls-4" d="M564.91,531.58c0,12.28-6.38,24.22-17.78,30.81l-215.67,124.57c-5.79,3.34-12.71,4.14-19.12,2.19-56.85-17.22-113.69-34.45-170.54-51.68l-16.58,8.7-56.43-107.55,120.71-63.35c2.9-1.53,6.29-1.85,9.43-.9l183.97,55.77c12.86,3.9,20.7,16.48,19.06,29.37l-35.88,19.89-118.94-35.28c-1.06-.31-2.17.29-2.49,1.35-.31,1.06.29,2.17,1.35,2.49l115.18,34.16-8.77,4.86c-.96.54-1.31,1.76-.78,2.72.37.66,1.05,1.03,1.75,1.03.33,0,.66-.08.97-.25l12.21-6.77,2.44-1.35,31.74-17.59s0,.03-.02.04l1.5-.87,16.04-9.25,93.32-53.88c17-9.82,38.74-3.98,48.56,13.02,3.23,5.6,4.77,11.72,4.77,17.75Z"/>
        <path class="cls-3" d="M121.47,671.29l-33.71,17.69c-7.34,3.85-16.4,1.02-20.25-6.31l-60.54-115.37c-3.85-7.33-1.03-16.4,6.31-20.25l33.71-17.69c7.33-3.85,16.4-1.03,20.24,6.31l1.56,2.95,56.43,107.55,2.56,4.87c3.85,7.33,1.02,16.4-6.31,20.25Z"/>
        <path class="cls-1" d="M401.96,559.51c-.19,1.49-.51,2.99-.96,4.47-.09.28-.16.53-.26.79l-31.74,17.59-2.44,1.35-12.21,6.77c-.31.17-.64.25-.97.25-.7,0-1.38-.37-1.75-1.03-.53-.96-.18-2.18.78-2.72l8.77-4.86-115.18-34.16c-1.06-.32-1.66-1.43-1.35-2.49.32-1.06,1.43-1.66,2.49-1.35l118.94,35.28,35.88-19.89Z"/>
      </g>
      <g id="Hand_oben" data-name="Hand oben">
        <path class="cls-4" d="M495.49,154.57l-120.56,63.27c-2.9,1.53-6.29,1.85-9.42.9l-183.73-55.69c-12.9-3.91-20.75-16.56-19.02-29.5l35.77-19.72,118.84,35.25c.19.06.38.08.57.08.86,0,1.65-.56,1.91-1.43.32-1.06-.29-2.17-1.35-2.49l-115.06-34.12,8.78-4.84c.97-.54,1.32-1.75.79-2.72-.54-.97-1.75-1.32-2.72-.79l-12.25,6.76-2.36,1.3c-10.56,5.86-21.13,11.71-31.69,17.57,0,0,0,0-.02,0l-11.89,6.86-98.82,57.06c-16.98,9.81-38.7,3.98-48.5-13C1.53,173.74,0,167.63,0,161.61c0-12.27,6.36-24.2,17.75-30.78L233.15,6.42c5.78-3.34,12.69-4.13,19.1-2.19,56.77,17.2,113.54,34.41,170.32,51.61l16.55-8.68,56.37,107.41Z"/>
        <path class="cls-3" d="M442.9,22.06l33.63-17.65c7.33-3.85,16.4-1.02,20.25,6.31l60.45,115.19c3.85,7.33,1.02,16.4-6.31,20.25l-33.63,17.65c-7.33,3.85-16.4,1.02-20.25-6.31l-1.54-2.93-56.37-107.42-2.54-4.84c-3.85-7.33-1.02-16.4,6.31-20.25Z"/>
        <path class="cls-3" d="M319.85,147.73c-.26.87-1.05,1.43-1.91,1.43-.19,0-.38-.02-.57-.08l-118.84-35.25-35.77,19.72c.05-.39.11-.79.19-1.18.03-.19.06-.37.11-.56.04-.26.1-.52.16-.78.08-.34.16-.68.26-1.02.05-.21.12-.43.18-.65,0-.04.03-.08.04-.12.03-.08.05-.16.08-.24.06-.2.13-.39.19-.59.01,0,.01,0,.02,0,10.56-5.86,21.13-11.71,31.69-17.57l2.36-1.3,12.25-6.76c.97-.53,2.18-.18,2.72.79.53.97.18,2.18-.79,2.72l-8.78,4.84,115.06,34.12c1.06.32,1.67,1.43,1.35,2.49Z"/>
      </g>
    </g>
    <g id="Text">
      <g id="_Stadium.nrw" data-name="@Stadium.nrw">
        <g>
          <path class="cls-4" d="M442.27,960.9l44.77-3.91c2.12,17.94,7.05,32.66,14.8,44.16,7.75,11.5,19.77,20.79,36.09,27.89,16.31,7.1,34.66,10.64,55.04,10.64,18.11,0,34.09-2.69,47.95-8.07,13.86-5.38,24.18-12.76,30.95-22.14,6.77-9.38,10.16-19.61,10.16-30.7s-3.26-21.08-9.78-29.48c-6.53-8.4-17.29-15.45-32.3-21.16-9.62-3.75-30.91-9.58-63.85-17.49-32.95-7.91-56.03-15.37-69.23-22.38-17.13-8.97-29.89-20.1-38.29-33.39-8.4-13.29-12.59-28.17-12.59-44.65,0-18.1,5.14-35.02,15.41-50.77,10.28-15.74,25.28-27.68,45.01-35.84,19.73-8.15,41.67-12.23,65.81-12.23,26.58,0,50.03,4.28,70.33,12.85,20.31,8.56,35.92,21.16,46.85,37.8,10.93,16.64,16.8,35.47,17.61,56.51l-45.51,3.42c-2.44-22.67-10.72-39.79-24.83-51.38-14.11-11.58-34.95-17.37-62.51-17.37s-49.62,5.26-62.75,15.78c-13.13,10.52-19.69,23.2-19.69,38.04,0,12.89,4.65,23.49,13.95,31.81,9.13,8.32,32.99,16.84,71.56,25.56,38.57,8.73,65.03,16.35,79.39,22.88,20.87,9.62,36.29,21.81,46.24,36.57,9.94,14.76,14.92,31.77,14.92,51.01s-5.46,37.06-16.39,53.94c-10.93,16.88-26.63,30.01-47.09,39.39-20.47,9.38-43.51,14.07-69.11,14.07-32.46,0-59.65-4.73-81.59-14.19-21.94-9.46-39.15-23.69-51.62-42.69-12.48-19-19.05-40.49-19.7-64.47Z"/>
          <path class="cls-4" d="M883.12,1036.75l6.37,38.9c-12.4,2.61-23.49,3.92-33.27,3.92-15.99,0-28.38-2.53-37.19-7.59-8.81-5.05-15.01-11.7-18.59-19.94-3.59-8.23-5.38-25.57-5.38-51.99v-149.48h-32.29v-34.25h32.29v-64.34l43.79-26.42v90.76h44.28v34.25h-44.28v151.92c0,12.56.78,20.64,2.32,24.22,1.55,3.59,4.07,6.44,7.59,8.56,3.51,2.12,8.52,3.18,15.04,3.18,4.89,0,11.34-.57,19.33-1.71Z"/>
          <path class="cls-4" d="M1096.45,1076.13v-38.16c-20.22,29.36-47.7,44.03-82.45,44.03-15.33,0-29.64-2.93-42.94-8.81-13.29-5.87-23.16-13.25-29.6-22.14-6.44-8.89-10.97-19.77-13.57-32.66-1.8-8.64-2.69-22.34-2.69-41.1v-160.98h44.03v144.1c0,23,.89,38.49,2.69,46.48,2.77,11.58,8.64,20.67,17.61,27.28,8.97,6.61,20.06,9.91,33.27,9.91s25.6-3.38,37.19-10.15c11.58-6.76,19.77-15.98,24.59-27.64,4.81-11.66,7.21-28.58,7.21-50.76v-139.2h44.04v259.81h-39.39Z"/>
          <path class="cls-4" d="M1373.39,1076.13v-32.78c-16.48,25.77-40.7,38.65-72.66,38.65-20.72,0-39.75-5.71-57.12-17.13-17.37-11.41-30.83-27.36-40.37-47.83-9.54-20.47-14.31-43.99-14.31-70.58s4.32-49.46,12.97-70.58c8.65-21.12,21.61-37.31,38.9-48.56,17.29-11.25,36.61-16.88,57.98-16.88,15.66,0,29.6,3.3,41.84,9.91,12.23,6.6,22.18,15.21,29.85,25.81v-128.68h43.79v358.65h-40.85ZM1234.18,946.47c0,33.27,7.01,58.14,21.04,74.62,14.03,16.47,30.58,24.71,49.67,24.71s35.6-7.87,49.05-23.61c13.46-15.74,20.19-39.75,20.19-72.05,0-35.55-6.85-61.65-20.55-78.29-13.7-16.64-30.58-24.95-50.64-24.95s-35.92,7.99-49.05,23.97c-13.13,15.99-19.69,41.19-19.69,75.6Z"/>
          <path class="cls-4" d="M1483.72,1076.13v-259.81h44.04v259.81h-44.04Z"/>
          <path class="cls-4" d="M1765.07,1076.13v-38.16c-20.23,29.36-47.71,44.03-82.45,44.03-15.33,0-29.65-2.93-42.94-8.81-13.29-5.87-23.16-13.25-29.6-22.14-6.45-8.89-10.97-19.77-13.58-32.66-1.79-8.64-2.69-22.34-2.69-41.1v-160.98h44.03v144.1c0,23,.9,38.49,2.7,46.48,2.77,11.58,8.64,20.67,17.61,27.28,8.97,6.61,20.06,9.91,33.27,9.91s25.6-3.38,37.19-10.15c11.58-6.76,19.77-15.98,24.59-27.64,4.81-11.66,7.22-28.58,7.22-50.76v-139.2h44.03v259.81h-39.39Z"/>
          <path class="cls-4" d="M1873.44,1076.13v-259.81h39.39v36.45c8.15-12.72,19-22.95,32.54-30.7,13.54-7.74,28.95-11.62,46.24-11.62,19.24,0,35.02,4,47.34,11.99,12.31,7.99,20.99,19.17,26.05,33.52,20.55-30.34,47.3-45.51,80.24-45.51,25.77,0,45.59,7.14,59.45,21.41,13.86,14.27,20.8,36.25,20.8,65.93v178.35h-43.79v-163.67c0-17.61-1.43-30.29-4.28-38.04-2.85-7.75-8.03-13.98-15.54-18.72-7.5-4.73-16.31-7.1-26.42-7.1-18.27,0-33.44,6.08-45.51,18.23-12.07,12.15-18.1,31.6-18.1,58.35v150.95h-44.04v-168.81c0-19.57-3.59-34.25-10.76-44.03-7.18-9.79-18.92-14.68-35.23-14.68-12.4,0-23.85,3.26-34.37,9.79-10.52,6.53-18.15,16.07-22.88,28.62-4.73,12.56-7.09,30.67-7.09,54.31v134.8h-44.03Z"/>
          <path class="cls-4" d="M332.03,1000.88h41.21c-12.9,26.18-32.7,46.69-59.4,61.53-30.57,17.03-67.85,25.54-111.84,25.54s-79.33-7.19-110.29-21.57c-30.96-14.39-53.98-35.6-69.08-63.66-15.09-28.06-22.64-58.59-22.64-91.62,0-36.25,8.57-70.01,25.73-101.29,17.16-31.28,40.63-54.76,70.43-70.43,29.8-15.67,63.85-23.51,102.16-23.51,32.51,0,61.4,6.32,86.68,18.96,25.28,12.64,44.6,30.61,57.95,53.89,13.35,23.29,20.03,48.73,20.03,76.33,0,32.89-10.13,62.63-30.38,89.2-25.41,33.54-57.99,50.31-97.72,50.31-10.71,0-18.77-1.87-24.18-5.61-5.42-3.74-9.03-9.22-10.84-16.45-15.22,14.71-32.76,22.06-52.63,22.06-21.42,0-39.18-7.38-53.31-22.15-14.13-14.77-21.19-34.41-21.19-58.92,0-30.31,8.51-57.98,25.54-83.01,20.64-30.44,47.08-45.66,79.33-45.66,22.96,0,39.92,8.77,50.89,26.32l4.83-21.48h51.08l-29.22,138.73c-1.8,8.77-2.71,14.45-2.71,17.03,0,3.23.74,5.65,2.23,7.26,1.48,1.61,3.25,2.42,5.32,2.42,6.19,0,14.19-3.74,23.99-11.22,13.16-9.8,23.8-22.96,31.93-39.47,8.13-16.51,12.19-33.6,12.19-51.27,0-31.74-11.48-58.27-34.44-79.62-22.96-21.35-55.02-32.02-96.16-32.02-34.96,0-64.6,7.13-88.91,21.38-24.31,14.25-42.63,34.31-54.95,60.18-12.32,25.86-18.48,52.79-18.48,80.78s6.87,51.99,20.61,74.3c13.74,22.32,33.02,38.6,57.85,48.86,24.83,10.25,53.24,15.38,85.23,15.38s57.34-4.29,79.53-12.87c22.19-8.58,40.05-21.45,53.6-38.6ZM122.87,921.35c0,16.38,3.32,28.44,9.96,36.18,6.64,7.74,14.86,11.61,24.67,11.61,7.35,0,14.25-1.8,20.7-5.42,4.9-2.58,9.73-6.64,14.51-12.19,6.84-7.87,12.74-19.35,17.71-34.44,4.96-15.09,7.45-29.15,7.45-42.18,0-14.57-3.39-25.76-10.16-33.57-6.77-7.8-15.32-11.71-25.64-11.71-11.1,0-21.35,4.29-30.76,12.87-9.42,8.58-16.52,20.8-21.28,36.67-4.77,15.86-7.16,29.93-7.16,42.18Z"/>
        </g>
        <g>
          <path class="cls-3" d="M1708.89,761.5h-33.42v-64.47c0-13.64-.71-22.46-2.14-26.47-1.43-4-3.75-7.12-6.96-9.34-3.21-2.22-7.08-3.33-11.6-3.33-5.79,0-10.98,1.59-15.58,4.76-4.6,3.17-7.75,7.37-9.46,12.61-1.71,5.23-2.56,14.91-2.56,29.02v57.21h-33.42v-126.32h31.04v18.56c11.02-14.27,24.9-21.41,41.63-21.41,7.38,0,14.11,1.33,20.22,3.98,6.11,2.66,10.72,6.05,13.86,10.17,3.13,4.12,5.31,8.8,6.54,14.04,1.23,5.23,1.84,12.73,1.84,22.48v78.5Z"/>
          <path class="cls-3" d="M1772.35,761.5h-33.42v-126.32h31.04v17.96c5.31-8.48,10.09-14.07,14.33-16.77,4.24-2.7,9.06-4.04,14.45-4.04,7.61,0,14.95,2.1,22,6.3l-10.35,29.14c-5.63-3.65-10.87-5.47-15.7-5.47s-8.64,1.29-11.89,3.87c-3.25,2.58-5.81,7.24-7.67,13.98-1.86,6.74-2.79,20.86-2.79,42.34v39.01Z"/>
          <path class="cls-3" d="M1873.32,761.5l-39.97-126.32h32.47l23.67,82.79,21.77-82.79h32.23l21.05,82.79,24.15-82.79h32.95l-40.56,126.32h-32.12l-21.77-81.24-21.41,81.24h-32.47Z"/>
        </g>
        <circle class="cls-3" cx="1505.75" cy="739.5" r="22.01"/>
      </g>
      <g id="FDM">
        <path class="cls-3" d="M990.13,86.14h-220.06v141.06h183.94c17.05,0,29.78,3.83,38.18,11.47,8.4,7.65,12.6,17.87,12.6,30.66s-4.27,22.95-12.79,30.47c-8.53,7.52-21.2,11.28-37.99,11.28h-183.94v181.69c0,23.08-5.21,40.19-15.61,51.35-10.41,11.16-23.76,16.74-40.06,16.74s-30.03-5.64-40.44-16.93c-10.41-11.29-15.61-28.34-15.61-51.16V68.46c0-16.05,2.38-29.15,7.15-39.31,4.76-10.16,12.22-17.55,22.38-22.19,10.16-4.64,23.13-6.96,38.93-6.96h263.32c17.8,0,31.03,3.95,39.69,11.85,8.65,7.9,12.98,18.24,12.98,31.03s-4.33,23.51-12.98,31.41c-8.65,7.9-21.88,11.85-39.69,11.85Z"/>
        <path class="cls-3" d="M1195.14,0h145.58c37.86,0,70.34,3.52,97.43,10.53,27.08,7.02,51.66,20.19,73.73,39.5,57.42,49.15,86.14,123.89,86.14,224.19,0,33.1-2.89,63.33-8.65,90.66-5.77,27.34-14.67,51.98-26.71,73.92-12.04,21.95-27.46,41.57-46.27,58.87-14.8,13.29-30.97,23.95-48.53,31.97-17.56,8.03-36.43,13.67-56.61,16.93-20.19,3.26-42.95,4.89-68.27,4.89h-145.58c-20.31,0-35.61-3.07-45.89-9.22-10.29-6.14-16.99-14.79-20.12-25.96-3.14-11.16-4.7-25.64-4.7-43.45V68.46c0-24.08,5.39-41.5,16.18-52.29s28.21-16.18,52.29-16.18ZM1238.4,88.4v374.28h84.64c18.56,0,33.1-.5,43.64-1.5,10.53-1,21.44-3.51,32.73-7.52,11.29-4.01,21.07-9.65,29.34-16.93,37.36-31.6,56.05-86.01,56.05-163.26,0-54.42-8.22-95.17-24.64-122.25-16.43-27.08-36.68-44.32-60.75-51.72-24.07-7.39-53.17-11.1-87.27-11.1h-73.73Z"/>
        <path class="cls-3" d="M1882.4,468.33l-88.4-351.34v380.68c0,21.07-4.7,36.86-14.11,47.4-9.4,10.53-21.88,15.8-37.43,15.8s-27.34-5.21-36.86-15.61c-9.53-10.4-14.29-26.27-14.29-47.58V61.31c0-24.07,6.26-40.31,18.81-48.71,12.54-8.4,29.46-12.6,50.78-12.6h34.61c20.81,0,35.92,1.88,45.33,5.64,9.4,3.76,16.36,10.53,20.88,20.31,4.51,9.78,9.65,25.71,15.42,47.77l80.12,302.06,80.12-302.06c5.77-22.06,10.91-37.99,15.42-47.77,4.51-9.78,11.47-16.55,20.88-20.31s24.51-5.64,45.33-5.64h34.61c21.31,0,38.24,4.2,50.78,12.6,12.54,8.4,18.81,24.64,18.81,48.71v436.35c0,21.07-4.7,36.86-14.11,47.4-9.4,10.53-22,15.8-37.8,15.8-14.8,0-26.96-5.27-36.49-15.8-9.53-10.53-14.29-26.33-14.29-47.4V116.99l-88.4,351.34c-5.77,22.82-10.47,39.56-14.11,50.22-3.64,10.66-10.34,20.38-20.12,29.15-9.78,8.78-23.32,13.17-40.63,13.17-13.04,0-24.07-2.82-33.1-8.46-9.03-5.64-16.05-12.85-21.07-21.63-5.02-8.78-8.97-18.49-11.85-29.15-2.89-10.66-5.83-21.75-8.84-33.29Z"/>
      </g>
    </g>
  </g>
</svg>