<?xml version="1.0" encoding="UTF-8"?>
<svg id="Ebene_1" data-name="Ebene 1" xmlns="http://www.w3.org/2000/svg" viewBox="0 0 1050 200">
  <defs>
    <style>
      .cls-1 {
        fill: #942c69;
      }

      .cls-1, .cls-2, .cls-3, .cls-4, .cls-5, .cls-6, .cls-7, .cls-8, .cls-9, .cls-10, .cls-11, .cls-12, .cls-13, .cls-14, .cls-15, .cls-16 {
        stroke-width: 0px;
      }

      .cls-2 {
        fill: #bfe3f3;
      }

      .cls-3 {
        fill: #673605;
      }

      .cls-4 {
        fill: #0090cd;
      }

      .cls-5 {
        fill: #f96800;
      }

      .cls-6 {
        fill: #481f05;
      }

      .cls-7 {
        fill: #e3bc8c;
      }

      .cls-8 {
        fill: #000;
      }

      .cls-9 {
        fill: #af618e;
      }

      .cls-10 {
        fill: #e5e6e5;
        opacity: .5;
      }

      .cls-11 {
        fill: #eacda9;
      }

      .cls-12 {
        fill: #fb8e40;
      }

      .cls-13 {
        fill: #e4bfa3;
      }

      .cls-14 {
        fill: #fff;
      }

      .cls-15 {
        fill: #ffd8b9;
      }

      .cls-16 {
        fill: #e5c0a4;
      }
    </style>
  </defs>
  <g id="G-0002_BUW_Header_Forschungsprozess">
    <g id="Hintergrund">
      <rect class="cls-2" x="0" width="1050" height="200"/>
    </g>
    <g>
      <g id="Oberkörper">
        <g id="Gesicht">
          <g id="Gesicht-2" data-name="Gesicht">
            <path class="cls-15" d="M455.36,145.08c-2.21,2.62-8.29,9.13-17.82,13.62-5.08,2.4-11.12,4.22-18.08,4.58-.8.06-1.59.08-2.41.08-5.52.01-10.51-.9-14.91-2.32h-.01c-13.1-4.21-21.07-12.88-22.75-14.81,6.85-1.05,14.16-1.9,21.9-2.47v-21.86c1.22-.28,2.44-.61,3.64-.98,1.71-.53,3.39-1.15,5.06-1.88,1.03-.44,2.05-.92,3.06-1.45.08-.04.16-.08.24-.12,8.18,7.25,16.36,14.49,24.54,21.74v4.29c6.1.36,11.95.9,17.54,1.58Z"/>
            <path class="cls-15" d="M474.16,60.18l-.7-3.82c-.86-4.67-4.79-8.05-9.32-8.44h-.01c-.03.06-.06.06-.11-.01-.61-.79-3.21-11.55-7.43-19.46-.93-1.75-1.48-3.09-2.33-4.49-.63-1.03-1.17-1.84-1.68-2.5-5.93,6.88-18.09,10.89-31.57,12.2.09.06.17.13.26.2,3.83,3.04,7.27,6.71,10.17,10.96.95,1.38,1.81,2.79,2.59,4.22,1.3,2.36,2.38,4.78,3.26,7.26,4.51,12.67,3.65,26.52-2,38.37,3.98.02,7.17-.76,9.07-1.34-2.82,4.62-7.64,7.23-12.38,7.22-.38.59-.78,1.16-1.19,1.73-3.31,4.62-7.48,8.75-12.45,12.15-1.48,1.01-2.99,1.93-4.53,2.75,4.94,1.15,10.09,1.57,15.29,1.19.42-.04.83-.07,1.25-.11.56-.06,1.12-.13,1.68-.2.46-.06.91-.13,1.35-.2.48-.07.94-.16,1.39-.25.23-.04.45-.09.67-.13.27-.06.53-.11.79-.17.55-.12,1.09-.25,1.59-.38.02-.01.05-.01.07-.02h0c.65-.15,1.3-.34,1.95-.53,20.16-6.01,32.66-25.77,30.31-46.01h0c3.06-2.29,4.75-6.2,4.01-10.19ZM446.94,53.22c-2.04.34-3.99-1.05-4.33-3.09l-.21-1.29c-.34-2.04,1.05-3.98,3.08-4.32.21-.03.42-.05.62-.05,1.8,0,3.4,1.3,3.71,3.13l.21,1.3c.34,2.03-1.05,3.98-3.08,4.32ZM450.59,37.14c-1.47.08-4.7.48-7.96,2.69-2.6,1.76-4.06,3.89-4.79,5.13-1.63.14-3.19.01-3.75-.9-1.09-1.76,1.92-5.81,4.97-8.12,4.52-3.41,11.17-4.53,12.44-2.56.36.56.41,1.62-.91,3.76Z"/>
            <path class="cls-6" d="M450.59,37.14c-1.47.08-4.7.48-7.96,2.69-2.6,1.76-4.06,3.89-4.79,5.13-1.63.14-3.19.01-3.75-.9-1.09-1.76,1.92-5.81,4.97-8.12,4.52-3.41,11.17-4.53,12.44-2.56.36.56.41,1.62-.91,3.76Z"/>
            <path class="cls-8" d="M446.94,53.22c-2.04.34-3.99-1.05-4.33-3.09l-.21-1.29c-.34-2.04,1.05-3.98,3.08-4.32.21-.03.42-.05.62-.05,1.8,0,3.4,1.3,3.71,3.13l.21,1.3c.34,2.03-1.05,3.98-3.08,4.32Z"/>
            <path class="cls-14" d="M444.36,93.33c-2.82,4.62-7.64,7.23-12.38,7.22,1.24-1.89,2.34-3.86,3.31-5.88,3.98.02,7.17-.76,9.07-1.34Z"/>
            <path class="cls-13" d="M437.82,125.11c-.01,1.37-.02,2.75-.02,4.13,0,2.24,0,4.46.02,6.67,0,1.11,0,2.21.02,3.32t-.02-.02c-8.18-7.25-16.36-14.49-24.54-21.74-.19-.18-.39-.35-.58-.52.34.09.69.18,1.06.26,3.26.76,7.5,1.41,12.45,1.31,1-.02,1.96-.07,2.89-.15.42-.02.84-.06,1.25-.11.57-.05,1.13-.12,1.68-.2.46-.06.91-.12,1.35-.2.48-.07.94-.16,1.39-.25.23-.04.45-.09.67-.13.27-.06.53-.11.79-.17.55-.12,1.09-.25,1.59-.38.02-.01.05-.01.07-.02h0c-.03,2.73-.06,5.45-.07,8.2Z"/>
          </g>
          <g id="Haare">
            <path class="cls-7" d="M400.18,33.6c-2.95-.29-5.83-.71-8.62-1.24.04,0,.08,0,.12.01.81.03,1.6.08,2.4.16,1.14.11,2.2.26,3.19.44h.01c.65.12,1.29.25,1.93.4.32.07.65.15.97.23Z"/>
            <path class="cls-7" d="M464.45,46.42c.01.2-.17.77-.31,1.45,0,.01-.01.02-.01.02h0v.03s-.07-.01-.11-.01c-.61-.79-3.21-11.55-7.43-19.46-.93-1.75-1.48-3.09-2.33-4.49-.63-1.03-1.17-1.84-1.68-2.5-5.93,6.88-18.09,10.89-31.57,12.2-1.47-1.16-2.99-2.22-4.57-3.19-2.68-1.66-5.49-3.05-8.41-4.16-2.18-.84-4.41-1.52-6.68-2.04-1.83-.43-3.67-.75-5.53-.96-1.36-.16-2.73-.26-4.11-.3-4.17-.14-8.38.23-12.51,1.16-.88.19-1.75.41-2.62.66-1.08.29-2.15.63-3.21,1.01-.09.03-.16.06-.25.1h-.01c-1.57.56-3.11,1.21-4.64,1.94.4-1.39.89-2.76,1.51-4.04-2.42-1.87-4.29-3.99-5.44-6.35-.31-.65-3.66-7.54-.76-11.93,2.65-4.01,8.4-2.71,16.73-4.43,1.62-.33,3.01-.71,4.24-1.13h69.79c2.16,4.53,2.55,9.85,1.67,14.11,1.9,3.38,3.72,7.26,4.92,10.19,0,0,3.03,7.37,3.32,22.12Z"/>
            <path class="cls-7" d="M464.13,47.92c-.03.06-.06.06-.11-.01.04,0,.07,0,.11.01Z"/>
          </g>
        </g>
        <g id="T-Shirt">
          <path class="cls-1" d="M542.2,200h-118.16l-3.27-26.24-1.31-10.48c6.96-.36,13-2.18,18.08-4.58,9.53-4.49,15.61-11,17.82-13.62.36-.42.62-.74.77-.94,6.39-.1,13.53.12,21.21.88,14.27,1.37,32.09,2.69,43.35,12.47,8.14,7.07,10.88,16.99,15.07,26.48.54,1.22,4.02,10.81,6.44,16.03Z"/>
          <path class="cls-9" d="M424.04,200h-141.89c2.68-5.02,6.37-11.04,11.32-17.37,10.2-13.06,22.97-24.93,37.78-32.55,7.31-3.76,15.3-6.49,23.56-7,8.31-.51,16.31,2.08,24.48,3.05.03.03.06.07.09.1,1.68,1.93,9.65,10.6,22.76,14.81,4.4,1.42,9.39,2.33,14.91,2.32.82,0,1.61-.02,2.41-.08l1.31,10.48,3.27,26.24Z"/>
        </g>
        <g id="Hand">
          <path class="cls-15" d="M276.81,185.31s-.27,5.4-2.66,14.69h-30.3c-.21-.58-.42-1.17-.63-1.78-1.47-4.19-2.37-8.83-2.76-13.54-.44-5.18-.27-10.43.43-15.24.21-1.41.61-3.03,1.2-4.68,1.77-5.05,5.22-10.47,9.92-11.68,2.16-.55,4.13-.13,5.85.91,4.15,2.49,6.84,8.52,7.21,12.92.02.12.02.23.03.34,2.22-1.49,4.44-2.97,6.66-4.45.06.12.12.24.17.37h0c2.61,5.52,5.26,13.37,4.88,22.14Z"/>
        </g>
      </g>
      <g id="Lupe">
        <path class="cls-4" d="M240.79,176.56c-.2,1.62-.46,4.45-.26,8.06h0s-10.87,7.43-10.87,7.43l-8.76-12.82,22.2-15.16c-1.63,5.37-2.14,11.06-2.31,12.49Z"/>
        <path class="cls-4" d="M437.29,56.3c-.88-2.48-1.96-4.9-3.26-7.26-.78-1.43-1.64-2.84-2.59-4.22-2.9-4.25-6.34-7.92-10.17-10.96-.09-.07-.17-.14-.26-.2-1.47-1.16-2.99-2.22-4.57-3.19-2.68-1.66-5.49-3.05-8.41-4.16-2.18-.84-4.41-1.52-6.68-2.04-1.83-.43-3.67-.75-5.53-.96-1.36-.16-2.73-.26-4.11-.3-4.17-.14-8.38.23-12.51,1.16-.88.19-1.75.41-2.62.66-1.08.29-2.15.63-3.21,1.01-.09.03-.16.06-.25.1h-.01c-1.57.56-3.11,1.21-4.64,1.94-2.27,1.09-4.49,2.37-6.63,3.83-.09.06-.19.13-.28.2-2.13,1.46-4.1,3.06-5.92,4.78-.71.67-1.39,1.36-2.05,2.06-2.34,2.48-4.38,5.16-6.12,7.99-6.51,10.53-8.89,23.18-6.66,35.35.94,5.14,2.69,10.19,5.3,14.97l-11.42,7.81-4.6,3.14-1.56-2.29-70.67,48.27-.43.29c.27.11.53.24.79.39,1.81,1,2.82,2.38,3.37,3.14,2.55,3.53,3.26,7.38,3.45,8.84.02.09.02.17.03.26.02.12.02.23.03.34,2.22-1.49,4.44-2.97,6.66-4.45.06.12.12.24.17.37l65.35-44.63-1.56-2.29,12.84-8.77,3.19-2.18c.98,1.18,2.02,2.3,3.09,3.36.22.22.44.43.66.64,3.94,3.77,8.41,6.8,13.19,9.06,7.93,3.74,16.73,5.34,25.48,4.63,2.38-.19,4.76-.55,7.11-1.09,1.22-.28,2.44-.61,3.64-.98,1.71-.53,3.39-1.15,5.06-1.88,1.03-.44,2.05-.92,3.06-1.45.08-.04.16-.08.24-.12-.19-.18-.39-.35-.58-.52.34.09.69.18,1.06.26.02,0,.03-.02.05-.03,1.54-.82,3.05-1.74,4.53-2.75,4.97-3.4,9.14-7.53,12.45-12.15.41-.57.81-1.14,1.19-1.73,1.24-1.89,2.34-3.86,3.31-5.88,5.65-11.85,6.51-25.7,2-38.37ZM430.78,74.69c-.01.39-.03.78-.06,1.16-.01.22-.03.44-.05.67-.04.49-.09.97-.15,1.46-.05.41-.11.83-.17,1.24-.01.05-.01.09-.02.14,0,.05-.02.09-.03.14h0c-.09.57-.19,1.13-.3,1.69-.05.25-.1.51-.16.76-.08.36-.17.73-.26,1.09-.06.26-.13.52-.21.78-.1.36-.2.71-.31,1.06-.1.35-.21.7-.33,1.05-.11.35-.23.7-.37,1.05-.2.59-.43,1.17-.68,1.75-.02.05-.04.1-.06.15-.03.06-.05.12-.08.18-.09.22-.19.45-.29.68-.04.11-.09.23-.15.34-.17.38-.35.76-.54,1.14-.24.48-.48.95-.74,1.42-.07.12-.13.24-.2.36h0c-.44.8-.91,1.56-1.41,2.32-.32.5-.65.99-1,1.47-.41.57-.82,1.13-1.26,1.67-.02.02-.03.04-.05.06-.29.37-.59.73-.9,1.08-.02.02-.04.04-.05.06-.4.47-.82.93-1.25,1.38-.02.03-.04.05-.06.07-.43.45-.87.89-1.32,1.32-.38.37-.78.74-1.18,1.09-.15.13-.3.26-.45.39-.44.38-.89.76-1.35,1.12-.73.58-1.49,1.14-2.28,1.67-3.53,2.42-7.31,4.2-11.2,5.38-.3.09-.6.18-.91.25-6.31,1.76-12.89,1.93-19.17.62-1.04-.21-2.08-.47-3.1-.77-8.75-2.55-16.7-8.03-22.23-16.14-10.01-14.66-9.15-33.53.78-47.07,2.61-3.56,5.85-6.75,9.68-9.4.07-.05.13-.09.2-.14,1.21-.83,2.45-1.59,3.72-2.26.15-.08.31-.16.46-.24,1.78-.93,3.6-1.72,5.46-2.36.47-.16.94-.32,1.41-.45.15-.05.3-.1.45-.14.07-.02.14-.04.21-.06.72-.21,1.45-.4,2.18-.57.55-.12,1.09-.24,1.64-.34.32-.06.63-.11.95-.16.14-.02.27-.05.41-.06.33-.06.66-.1,1-.14.1-.02.2-.03.31-.04.35-.04.7-.08,1.06-.11.15-.01.3-.03.46-.03.31-.03.63-.05.94-.07.45-.02.9-.04,1.35-.05.38-.02.78-.03,1.2-.02.15,0,.29,0,.43.01.27,0,.53.01.78.02h.03s.08,0,.12.01c.81.03,1.6.08,2.4.16,1.14.11,2.2.26,3.19.44h.01c.65.12,1.29.25,1.93.4.32.07.65.15.97.23.01,0,.02.01.03.01.55.14,1.1.29,1.64.46.44.13.88.27,1.32.42.01,0,.02,0,.03.01.34.11.67.23,1,.35.22.08.44.17.66.25.89.34,1.76.72,2.63,1.13.43.2.86.41,1.29.64.48.24.96.5,1.43.77.46.26.93.54,1.39.82.49.3.97.61,1.44.93.47.32.94.66,1.4,1,.04.03.08.06.12.09,1.49,1.13,2.93,2.37,4.28,3.72,1.78,1.78,3.41,3.74,4.88,5.89.23.34.46.69.68,1.04.22.33.42.66.62,1,.03.04.05.08.07.12.18.29.35.58.51.87.44.78.85,1.57,1.23,2.37.12.23.23.47.33.7.56,1.21,1.05,2.44,1.47,3.68.13.35.24.71.35,1.06.01.02.02.05.02.07.09.26.17.51.24.77.03.11.06.22.09.33.09.34.18.68.27,1.02,0,.01,0,.02.01.03,0,.03.01.06.02.09.07.29.14.58.21.87.04.18.08.36.11.54.07.31.13.6.18.88.06.28.11.57.15.85.04.22.07.44.1.64.02.09.03.18.04.28.01.01.01.02.01.04,0,.01.01.02.01.02v.02s.01.1.01.14c.02.11.04.21.05.32.01.11.03.23.04.34.02.19.05.38.06.57.01.01.01.03,0,.04.03.16.04.33.05.49.01.13.02.27.03.4.02.21.03.42.04.63.01.18.02.37.03.55.01.14.02.29.02.43.01.1.01.2.01.3,0,.08.01.15,0,.23.01.11.01.21.01.32,0,.08.01.16,0,.24.02.35.03.7.02,1.05,0,.42-.01.84-.03,1.26Z"/>
        <path class="cls-10" d="M430.81,73.43c0,.42-.01.84-.03,1.26-.01.39-.03.78-.06,1.16-.01.22-.03.44-.05.67-.04.49-.09.97-.15,1.46-.05.41-.11.83-.17,1.24-.01.05-.01.09-.02.14,0,.05-.02.09-.03.14h0c-.09.57-.19,1.13-.3,1.69-.05.25-.1.51-.16.76-.08.36-.17.73-.26,1.09-.06.26-.13.52-.21.78-.1.36-.2.71-.31,1.06-.1.35-.21.7-.33,1.05-.11.35-.23.7-.37,1.05-.2.59-.43,1.17-.68,1.75-.02.05-.04.1-.06.15-.03.06-.05.12-.08.18-.09.22-.19.45-.29.68-.04.11-.09.23-.15.34-.17.38-.35.76-.54,1.14-.24.48-.48.95-.74,1.42-.07.12-.13.24-.2.36h0c-.44.8-.91,1.56-1.41,2.32-.32.5-.65.99-1,1.47-.41.57-.82,1.13-1.26,1.67-.02.02-.03.04-.05.06-.29.37-.59.73-.9,1.08-.02.02-.04.04-.05.06-.4.47-.82.93-1.25,1.38-.02.03-.04.05-.06.07-.43.45-.87.89-1.32,1.32-.38.37-.78.74-1.18,1.09-.15.13-.3.26-.45.39-.44.38-.89.76-1.35,1.12-.73.58-1.49,1.14-2.28,1.67-3.53,2.42-7.31,4.2-11.2,5.38-.3.09-.6.18-.91.25-6.31,1.76-12.89,1.93-19.17.62-1.04-.21-2.08-.47-3.1-.77-8.75-2.55-16.7-8.03-22.23-16.14-10.01-14.66-9.15-33.53.78-47.07,2.61-3.56,5.85-6.75,9.68-9.4.07-.05.13-.09.2-.14,1.21-.83,2.45-1.59,3.72-2.26.15-.08.31-.16.46-.24,1.78-.93,3.6-1.72,5.46-2.36.47-.16.94-.32,1.41-.45.15-.05.3-.1.45-.14.07-.02.14-.04.21-.06.72-.21,1.45-.4,2.18-.57.55-.12,1.09-.24,1.64-.34.32-.06.63-.11.95-.16.14-.02.27-.05.41-.06.33-.06.66-.1,1-.14.1-.02.2-.03.31-.04.35-.04.7-.08,1.06-.11.15-.01.3-.03.46-.03.31-.03.63-.05.94-.07.45-.02.9-.04,1.35-.05.38-.02.78-.03,1.2-.02.15,0,.29,0,.43.01.27,0,.53.01.78.02h.03s.08,0,.12.01c.81.03,1.6.08,2.4.16,1.14.11,2.2.26,3.19.44h.01c.65.12,1.29.25,1.93.4.32.07.65.15.97.23.01,0,.02.01.03.01.55.14,1.1.29,1.64.46.44.13.88.27,1.32.42.01,0,.02,0,.03.01.34.11.67.23,1,.35.22.08.44.17.66.25.89.34,1.76.72,2.63,1.13.43.2.86.41,1.29.64.48.24.96.5,1.43.77.46.26.93.54,1.39.82.49.3.97.61,1.44.93.47.32.94.66,1.4,1,.04.03.08.06.12.09,1.49,1.13,2.93,2.37,4.28,3.72,1.78,1.78,3.41,3.74,4.88,5.89.23.34.46.69.68,1.04.22.33.42.66.62,1,.03.04.05.08.07.12.18.29.35.58.51.87.44.78.85,1.57,1.23,2.37.12.23.23.47.33.7.56,1.21,1.05,2.44,1.47,3.68.13.35.24.71.35,1.06.01.02.02.05.02.07.09.26.17.51.24.77.03.11.06.22.09.33.09.34.18.68.27,1.02,0,.01,0,.02.01.03,0,.03.01.06.02.09.07.29.14.58.21.87.04.18.08.36.11.54.07.31.13.6.18.88.06.28.11.57.15.85.04.22.07.44.1.64.02.09.03.18.04.28.01.01.01.02.01.04,0,.01.01.02.01.02v.02s.01.1.01.14c.02.11.04.21.05.32.01.11.03.23.04.34.02.19.05.38.06.57.01.01.01.03,0,.04.03.16.04.33.05.49.01.13.02.27.03.4.02.21.03.42.04.63.01.18.02.37.03.55.01.14.02.29.02.43.01.1.01.2.01.3,0,.08.01.15,0,.23.01.11.01.21.01.32,0,.08.01.16,0,.24.02.35.03.7.02,1.05Z"/>
        <g id="Zoom">
          <path class="cls-16" d="M365,80.84c0,1.05-.15,1.78-.5,1.93-.78.31-2.68-2.07-3.38-4.43-.95-3.17.2-6.63,1.08-6.92.04-.01.07-.02.11-.02,1.18,0,2.68,6.18,2.69,9.44Z"/>
          <path class="cls-3" d="M413.04,39.39c-.08.15-.17.3-.27.46-1.82.11-5.79.61-9.8,3.33-3.2,2.15-5,4.78-5.89,6.3-2.01.18-3.93.01-4.62-1.11-1.34-2.17,2.36-7.15,6.13-9.98,1.91-1.45,4.12-2.56,6.27-3.29.89.34,1.76.72,2.63,1.13.43.2.86.41,1.29.64.48.25.95.5,1.43.77.46.26.93.54,1.39.82.49.3.97.61,1.44.93Z"/>
          <path class="cls-15" d="M430.78,71.82c.01-.08,0-.15,0-.23,0-.1,0-.2-.01-.3,0-.14,0-.29-.02-.43-.01-.18-.02-.37-.03-.55-.01-.21-.02-.42-.04-.63-.01-.13-.02-.27-.03-.4-.01-.16-.02-.33-.05-.49.01-.01.01-.03,0-.04-.01-.19-.04-.38-.06-.57-.01-.11-.03-.23-.04-.34-.01-.11-.03-.21-.05-.32,0-.04-.01-.09-.01-.14v-.02s-.01-.01-.01-.02c0-.02,0-.03-.01-.04-.01-.1-.02-.19-.04-.28-.03-.2-.06-.42-.1-.64-.04-.28-.09-.57-.15-.85-.05-.28-.11-.57-.18-.88-.03-.18-.07-.36-.11-.54-.07-.29-.14-.58-.21-.87-.01-.03-.02-.06-.02-.09-.01,0-.01-.02-.01-.03-.09-.34-.18-.68-.27-1.02-.03-.11-.06-.22-.09-.33-.07-.26-.15-.51-.24-.77,0-.02-.01-.05-.02-.07-.11-.35-.22-.71-.35-1.06-.42-1.24-.91-2.47-1.47-3.68-.1-.23-.21-.47-.33-.7-.38-.8-.79-1.59-1.23-2.37-.16-.29-.33-.58-.51-.87-.02-.04-.04-.08-.07-.12-.2-.34-.4-.67-.62-1-.22-.35-.45-.7-.68-1.04-1.47-2.15-3.1-4.11-4.88-5.89-1.35-1.35-2.79-2.59-4.28-3.72-.04-.03-.08-.06-.12-.09-.46-.34-.93-.68-1.4-1-.08.15-.17.3-.27.46-1.82.11-5.79.61-9.8,3.33-3.2,2.15-5,4.78-5.89,6.3-2.01.18-3.93.01-4.62-1.11-1.34-2.17,2.36-7.15,6.13-9.98,1.91-1.45,4.12-2.56,6.27-3.29-.22-.08-.44-.17-.66-.25-.33-.12-.66-.24-1-.35-.01-.01-.02-.01-.03-.01-.44-.15-.88-.29-1.32-.42-.54-.17-1.09-.32-1.64-.46-.01,0-.02-.01-.03-.01-.32-.08-.65-.16-.97-.23-.64-.15-1.28-.28-1.93-.4h-.01c-.99-.18-2.05-.33-3.19-.44-.8-.08-1.59-.13-2.4-.16-.04-.01-.08-.01-.12-.01h-.03c-.25-.01-.51-.02-.78-.02-.14-.01-.28-.01-.43-.01-.42,0-.82,0-1.2.02-.45.01-.9.03-1.35.05-.31.02-.63.04-.94.07-.16,0-.31.02-.46.03-.36.03-.71.07-1.06.11-.11.01-.21.02-.31.04-.34.04-.67.08-1,.14-.14.01-.27.04-.41.06-.32.05-.63.1-.95.16-.55.1-1.09.22-1.64.34-.73.17-1.46.36-2.18.57-.07.02-.14.04-.21.06-1.68,3.47-2.95,7.46-2.92,12.28.07,12.18,6.27,23.26,7.13,24.18-.52-.34-3.44-2.15-8.5-4.23-.08-.03-.16-.07-.24-.1-.31-.13-.64-.25-.97-.38-.34-.13-.68-.26-1.03-.39-.12-.04-.24-.08-.36-.13-1.89-.66-4.85-1.64-8.66-1.94-.78-.07-1.9-.13-3.27-.09-4.45,2-7.58,6.47-7.58,11.65v4.78c0,7.01,5.73,12.75,12.74,12.75,1.21,0,2.4-.18,3.5-.51,3.05,8.05,7.64,15.16,13.33,21.1,6.28,1.31,12.86,1.14,19.17-.62.31-.07.61-.16.91-.25,3.89-1.18,7.67-2.96,11.2-5.38.79-.53,1.55-1.09,2.28-1.67.46-.36.91-.74,1.35-1.12.15-.13.3-.26.45-.39.4-.35.8-.72,1.18-1.09.45-.43.89-.87,1.32-1.32.02-.02.04-.04.06-.07.43-.45.84-.91,1.25-1.38.01-.02.03-.04.05-.06.31-.35.61-.71.9-1.08.02-.02.03-.04.05-.06.44-.54.85-1.1,1.26-1.67.35-.48.68-.97,1-1.47.5-.76.97-1.52,1.41-2.31h0c.07-.13.13-.25.2-.37.26-.47.5-.94.74-1.42.19-.38.37-.76.54-1.14.06-.11.11-.23.15-.34.1-.23.2-.46.29-.68.03-.06.05-.12.08-.18.02-.05.04-.1.06-.15.05-.12.09-.23.13-.34.05-.13.1-.25.15-.38,1.16-2.99,1.87-5.89,2.28-8.52.02-.1.03-.19.05-.29.38-2.61.5-4.94.5-6.82.01-.08,0-.16,0-.24,0-.11,0-.21-.01-.32ZM364.49,82.77c-.77.31-2.68-2.06-3.38-4.43-.95-3.17.2-6.63,1.08-6.91.04-.01.08-.03.11-.03,1.18,0,2.69,6.18,2.7,9.44,0,1.05-.15,1.79-.51,1.93ZM413.18,55.75c-.01.09-.02.18-.04.26-.02.12-.05.24-.08.35-.03.09-.06.18-.09.27-.03.09-.06.18-.11.27-.04.1-.09.2-.14.3-.21.43-.49.82-.85,1.16-.25.25-.52.47-.82.66-.1.06-.21.12-.31.18-.31.16-.66.3-1.02.39-.12.03-.24.05-.36.07-.35.06-.71.08-1.05.05-.06,0-.11,0-.16,0-.06,0-.11-.01-.16-.02-.09-.01-.18-.02-.26-.04-.14-.03-.28-.06-.41-.1-.14-.04-.27-.09-.41-.15-.17-.07-.34-.14-.51-.24-.04,0-.07-.03-.1-.05-.14-.08-.28-.17-.41-.27t-.02,0c-.13-.09-.25-.19-.37-.31-.1-.09-.2-.19-.29-.29-.1-.1-.19-.21-.27-.32-.06-.07-.11-.14-.16-.21-.06-.08-.11-.16-.15-.24-.09-.15-.17-.3-.24-.46-.16-.35-.27-.72-.34-1.11l-.27-1.6c-.02-.12-.03-.23-.04-.34-.01-.07-.01-.14-.01-.21-.02-.31-.01-.61.05-.91.01-.07.02-.13.03-.2.01-.08.03-.16.06-.24l.06-.21c.05-.17.11-.33.18-.49.05-.11.11-.23.17-.34.07-.13.15-.26.23-.39.08-.12.17-.24.27-.36.09-.12.19-.23.3-.33.08-.09.18-.19.29-.28.3-.25.65-.48,1.02-.65.25-.11.51-.21.78-.28.13-.04.27-.07.41-.09.26-.04.51-.06.77-.06.21,0,.43.02.63.05.14.02.27.04.4.07.11.02.21.05.32.09.16.04.31.1.46.17.13.05.25.11.37.18.39.21.75.47,1.07.8.19.19.36.39.52.61.16.23.3.47.42.73.05.09.08.18.12.27h0s.03.09.04.13c.03.08.06.16.08.25.05.16.09.33.12.51l.27,1.59c.08.48.08.95.01,1.4Z"/>
          <path class="cls-8" d="M409.37,59.67c-2.51.42-4.9-1.29-5.32-3.79l-.27-1.6c-.42-2.51,1.29-4.9,3.8-5.32.26-.04.5-.06.76-.06,2.21,0,4.17,1.61,4.55,3.86l.27,1.59c.42,2.51-1.29,4.9-3.8,5.32Z"/>
          <path class="cls-11" d="M382.82,70.44c-.52-.34-3.44-2.15-8.5-4.23-.08-.03-.16-.07-.24-.1-.56-.23-1.18-.48-2-.77-.12-.04-.24-.08-.36-.13-1.89-.66-4.85-1.64-8.66-1.94-.78-.07-1.9-.13-3.27-.09-.15-.97-.31-1.95-.48-2.95-.3-1.71-.62-3.38-.96-5.01v-.05c-.36-1.93-.75-4.07-1.12-6.2,2.61-3.56,5.85-6.75,9.68-9.4.07-.05.13-.09.2-.14,1.21-.83,2.45-1.59,3.72-2.26.15-.08.31-.16.46-.24,1.78-.93,3.6-1.72,5.46-2.36.47-.16.94-.32,1.41-.45.15-.05.3-.1.45-.14-1.68,3.47-2.95,7.46-2.92,12.28.07,12.18,6.27,23.26,7.13,24.18Z"/>
        </g>
      </g>
    </g>
    <g id="Fragezeichen">
      <path class="cls-12" d="M830.14,21.14c-5.43,51.77-10.85,103.53-16.27,155.3-36.18.3-72.35.6-108.53.9-2.31-4.9-6.73-8.76-12.41-10.14h-.01c-1.48-.36-2.96-.53-4.42-.53-7.25,0-13.93,4.28-16.92,10.96-19.38.16-38.75.32-58.13.48-6.23-30.04-12.47-60.09-18.7-90.13l-55.8,16.63,49.71-45.99c-2.34-11.26-4.67-22.52-7.01-33.78,26.45-.4,52.9-.79,79.35-1.18-3.2,5.01-5.97,10.65-8.32,16.89l-1.63,4.33,32.28,12.06,1.71-4.11c4.98-11.95,11.24-20.11,18.63-24.27,7.35-4.14,15.33-5.08,24.38-2.88,9.37,2.29,16.32,7.19,21.22,14.99,4.88,7.75,6.3,15.44,4.33,23.51-1.06,4.37-3.04,8.02-6.03,11.18-3.16,3.34-9.59,7.57-19.12,12.57-10.32,5.43-17.44,9.61-21.79,12.81-5.98,4.45-10.77,9.25-14.21,14.26-4.61,6.59-8.17,14.94-10.57,24.81-.4,1.65-.96,4.11-1.64,7.31l-.94,4.39,31.66,7.72,1.16-4.39c2.39-9.07,4.61-15.51,6.6-19.11,1.89-3.44,4.23-6.35,6.97-8.66,2-1.69,6.77-4.97,18.1-10.96,14.66-7.73,24.77-14.72,30.89-21.34,6.23-6.74,10.52-14.82,12.77-24.02,3.87-15.89,1.02-31.12-8.47-45.26-.82-1.22-1.68-2.4-2.58-3.55,17.91-.27,35.83-.53,53.74-.8Z"/>
      <g>
        <path class="cls-5" d="M706.58,189.65c-1.04,4.28-3.5,7.86-6.75,10.35h-22.6c-5.67-4.34-8.56-11.77-6.76-19.15.27-1.12.65-2.2,1.11-3.22,2.99-6.68,9.67-10.96,16.92-10.96,1.46,0,2.94.17,4.42.53h.01c5.68,1.38,10.1,5.24,12.41,10.14,1.75,3.71,2.29,8.02,1.24,12.31Z"/>
        <path class="cls-5" d="M787.45,70.75c-2.25,9.2-6.54,17.28-12.77,24.02-6.12,6.62-16.23,13.61-30.89,21.34-11.33,5.99-16.1,9.27-18.1,10.96-2.74,2.31-5.08,5.22-6.97,8.66-1.99,3.6-4.21,10.04-6.6,19.11l-1.16,4.39-31.66-7.72.94-4.39c.68-3.2,1.24-5.66,1.64-7.31,2.4-9.87,5.96-18.22,10.57-24.81,3.44-5.01,8.23-9.81,14.21-14.26,4.35-3.2,11.47-7.38,21.79-12.81,9.53-5,15.96-9.23,19.12-12.57,2.99-3.16,4.97-6.81,6.03-11.18,1.97-8.07.55-15.76-4.33-23.51-4.9-7.8-11.85-12.7-21.22-14.99-9.05-2.2-17.03-1.26-24.38,2.88-7.39,4.16-13.65,12.32-18.63,24.27l-1.71,4.11-32.28-12.06,1.63-4.33c2.35-6.24,5.12-11.88,8.32-16.89,6.3-9.9,14.21-17.38,23.64-22.34.89-.47,1.78-.91,2.69-1.32h57.27c13.48,4.81,24.14,12.16,31.8,21.94.9,1.15,1.76,2.33,2.58,3.55,9.49,14.14,12.34,29.37,8.47,45.26Z"/>
      </g>
    </g>
  </g>
</svg>