<?xml version="1.0" encoding="UTF-8"?>
<svg id="Ebene_1" data-name="Ebene 1" xmlns="http://www.w3.org/2000/svg" viewBox="0 0 1050 200">
  <defs>
    <style>
      .cls-1 {
        fill: #673605;
      }

      .cls-1, .cls-2, .cls-3, .cls-4, .cls-5, .cls-6, .cls-7, .cls-8, .cls-9, .cls-10, .cls-11, .cls-12, .cls-13, .cls-14, .cls-15, .cls-16, .cls-17, .cls-18, .cls-19, .cls-20 {
        stroke-width: 0px;
      }

      .cls-2 {
        fill: #942c69;
      }

      .cls-3 {
        fill: #206289;
      }

      .cls-4 {
        fill: #481f05;
      }

      .cls-5 {
        fill: #673605;
      }

      .cls-6 {
        fill: #fcb480;
      }

      .cls-7 {
        fill: #80c8e7;
      }

      .cls-8 {
        fill: #64abd6;
      }

      .cls-9 {
        fill: #481f05;
      }

      .cls-10 {
        fill: #000;
      }

      .cls-11 {
        fill: #73bbe7;
      }

      .cls-12 {
        fill: #af618e;
      }

      .cls-13 {
        fill: #bf7a3e;
      }

      .cls-14 {
        fill: #236289;
      }

      .cls-15 {
        fill: #fef0e5;
      }

      .cls-16 {
        fill: #b9ddf3;
      }

      .cls-17 {
        fill: #54bdec;
      }

      .cls-18 {
        fill: #fb8e40;
      }

      .cls-19 {
        fill: #fff;
      }

      .cls-20 {
        fill: #eeeeed;
      }
    </style>
  </defs>
  <g id="G-0004_BUW_Header_Dateiformate">
    <g id="Hintergrund">
      <rect class="cls-15" y="0" width="1050" height="200"/>
    </g>
    <g id="Oberkörper">
      <g id="Hose">
        <path class="cls-12" d="M530.82,200h-31.54c.77-1.02,1.61-2.06,2.52-3.12,1.96-2.29,3.9-4.22,5.7-5.85h.79c.14,0,10.94.01,11.08.01.13.01,9.41.02,11.05.02h.24c.05,2.98.11,5.96.16,8.94Z"/>
        <path class="cls-2" d="M572.1,200h-41.28c-.05-2.98-.11-5.96-.16-8.94h3.11c10.32.04,20.65.04,30.95.07,1.66,1.71,3.41,3.67,5.18,5.92.78,1,1.52,1.98,2.2,2.95Z"/>
      </g>
      <g id="Arme">
        <path class="cls-13" d="M687.51,25.2c-.33,2.1-1.36,3.58-1.98,4.34-1.67,13.62-3.56,27.54-5.69,41.75-1.98,13.22-4.09,26.12-6.32,38.73v.02c-.07.45-.15.9-.23,1.34-.21,1.19-.76,4.07-2.8,6.14-.12.12-.25.25-.39.36-.18.16-.36.31-.55.45-.02.02-.03.03-.05.04s-.03.02-.05.03c-1.1.84-2.34,1.51-3.61,2.02-5.24,2.09-11.15,2.58-16.69,3.31-12,1.57-24.48,1.32-36.55.96-12.36-.36-24.73-1.34-36.98-3.07-1.02-.14-1.99-.31-2.89-.53,1.19-10.43,2.38-20.85,3.58-31.28.19.01.38.02.57.03.07,0,.14.02.21.02.19.02.97.12,1.16.14,22.87,2.8,45.55,7.76,68.57,8.61,2,.08,4.01.06,6.02.06,6.7-22.63,13.41-45.26,20.1-67.89,1.57.46,2.96.33,3.49.26l3.29-.52c4.18-.68,7.05-4.64,6.38-8.81-.08-.5-.16-.99-.24-1.49.32-.16.63-.32.95-.48,1.15,2.35.78,4.98.7,5.46Z"/>
        <path class="cls-13" d="M490.17,130.03c-.78.26-1.58.45-2.38.59l-.02-.03s-.06.04-.13.04c-29.29,5.09-58.61,10.2-87.94,15.28-.1.02-.23.07-.35.06-.38.08-.79.17-1.19.22-4.38.53-8.84-1.47-11.3-5.47-.9-1.46-1.44-3.04-1.64-4.64-.07-.16-.13-.32-.19-.48-.58-1.65-.76-3.38-.6-5.01v-.04c-1.54-27.88-3.08-55.77-4.61-83.66-.98-.84-1.74-1.86-2.23-2.97l2.97,1.17c3.94,1.55,8.43-.4,9.97-4.34.19-.46.37-.93.55-1.39.22.01.43.03.64.04.06.26.1.45.12.55.39,2.13-.07,3.9-.4,4.84,3.06,13.56,5.98,27.59,8.73,42.08,2.13,11.26,4.06,22.3,5.8,33.11,24.86-6.81,49.71-13.58,74.58-20.36.31-.06.62-.15.91-.24l8.71,30.65Z"/>
      </g>
      <g>
        <g id="Haare">
          <path class="cls-9" d="M517.33,26.5v.86c0,1.34-1.11,2.45-2.45,2.45s-2.45-1.11-2.45-2.45v-.86c0-1.35,1.1-2.45,2.45-2.45.67,0,1.28.27,1.73.72.44.44.72,1.05.72,1.73Z"/>
          <path class="cls-9" d="M521.27,20.21c0,.69-.82,1.3-1.78,1.78-.83-.44-2.37-1.13-4.41-1.22-2.57-.12-4.5.76-5.35,1.22-1.46-.74-1.79-1.35-1.78-1.78.03-1.53,4.11-3.17,7.79-2.82,2.48.24,5.53,1.47,5.53,2.82Z"/>
          <path class="cls-9" d="M531.15,43.76c-.2.47-.68.87-1.33,1.09-.39.14-.81.2-1.25.2-.8,0-1.65-.23-2.45-.67-.06-.03-.08-.11-.05-.17.03-.06.11-.08.17-.05,1.17.65,2.45.82,3.5.45.58-.2,1.01-.54,1.18-.95.42-1,.06-1.99-1.09-3.04l-.14-.13c-.58-.53-1.45-1.33-1.87-2.65-.15-.46-.2-1.15-.24-1.61v-.19c-.01-.55-.02-1-.03-1.45-.01-.45-.02-.9-.02-1.44,0-.06.06-.12.13-.12s.12.06.12.12c0,.54,0,.99.02,1.44.01.45.02.89.02,1.44v.18c.05.45.1,1.12.24,1.55.4,1.26,1.24,2.03,1.8,2.54l.14.14c1.24,1.12,1.61,2.21,1.15,3.32Z"/>
          <path class="cls-9" d="M541.86,26.43v.86c0,1.34-1.11,2.45-2.45,2.45s-2.45-1.11-2.45-2.45v-.86c0-1.35,1.1-2.45,2.45-2.45.67,0,1.28.28,1.73.72.44.44.72,1.06.72,1.73Z"/>
          <path class="cls-9" d="M546.35,20.27c0,.7-.83,1.31-1.79,1.79-.82-.45-2.36-1.13-4.41-1.22-2.56-.12-4.49.76-5.34,1.22-1.46-.74-1.79-1.35-1.79-1.79.03-1.52,4.11-3.17,7.79-2.81,2.48.24,5.54,1.47,5.54,2.81Z"/>
          <path class="cls-9" d="M494.19,39.32c-.4.17-1.42-1.09-1.79-2.35-.52-1.75.16-3.67.63-3.67.83-.01,1.95,5.7,1.16,6.02Z"/>
          <path class="cls-9" d="M562.23,36.97c-.37,1.26-1.39,2.52-1.8,2.35-.78-.32.34-6.03,1.17-6.02.47,0,1.15,1.92.63,3.67Z"/>
          <path class="cls-9" d="M536.81,66.47c.28-.09.56-.19.83-.29-.27.11-.54.21-.83.3-.19.07-.39.14-.59.19.2-.07.39-.13.59-.2Z"/>
          <path class="cls-9" d="M539.32,65.85v5.51h-.01v-5.81c.01.1.01.2.01.3Z"/>
          <path class="cls-9" d="M568.48,35.48c.08,5.84-1.12,10.62-2.11,13.67-.95,2.95-3.07,8-7.94,12.31-.08.07-.17.15-.27.23.63-1.79.55-3.35-.14-4.24-1.1-1.41-4.1-1.61-7.35-.47,3.21-3.84,5.49-8.46,6.52-13.53,1.01.61,2.18.95,3.42.95,3.72,0,6.76-3.03,6.76-6.75v-2.53c0-1.86-.76-3.55-1.99-4.78-1.22-1.22-2.91-1.98-4.77-1.98-.63,0-1.24.09-1.82.26-.33.37-.67.73-.99,1.07-1.06,1.13-2,2.01-2,2.01-.05-.3-.08-.71-.09-1.22-.07-1.68-.07-4.36-.88-7.05,0,.07-.01.14-.01.21-.06.84-.21,1.84-.52,3.85-.39,2.48-.75,4.17-.77,4.68-.13,2.24-.06,5.31.31,9.51-1.11-3.58-1.49-6.57-1.64-8.64-.39-5.79.83-8.27-.29-13.97-.05-.23-.12-.53-.21-.9-3.18-2.88-7.34-2.09-14.97-4.43-4.26-1.31-10.55-3.88-14.95-7.18-3.3,5.44-7.53,3.77-12.5,9.66-1.87,2.23-3.22,4.43-3.79,5.56-1.03,2.04-1.57,3.77-1.8,4.57-1.39,4.9-.28,7.12-.93,12.13-.23,1.79-.74,4.38-2.01,7.44.56-3.63.76-6.3.74-8.26-.01-.3-.14-1.04-.3-2.15-.08-.56-.18-1.21-.27-1.95-.03-.2-.05-.39-.07-.57-.17-1.38-.25-2.14-.28-2.79-.06-1.91.14-3.07-.13-3.15-.4-.1-1.28,2.21-2.03,2.62-.09.06-.19.08-.28.06-.18-.04-.47-.26-.77-.48-.23-.17-.39-.31-.42-.33-.08-.05-.16-.11-.26-.17-.07-.04-.15-.08-.24-.13v.04c-.63-.19-1.3-.3-2-.3-3.72,0-6.76,3.04-6.76,6.76v2.53c0,3.72,3.04,6.75,6.76,6.75.96,0,1.87-.2,2.69-.57,1.07,4.96,3.35,9.48,6.51,13.24.17.2.34.39.51.58,3.09,3.5,6.97,6.29,11.34,8.1v3.83c-.37-.2-.7-.39-.99-.56-4.24-2.51-9.58-7.18-10.72-10.27-.54,1.54-1.28,3.37-1.72,4.36-1.38,3.1-4.71,8.7-13.45,13.81,1.88-4.34,3.9-10.77,3.18-18.35-.43-4.58-1.59-6.67-2.86-11.44-.98-3.68-3.9-14.37-1.77-24.94.3-1.5,2.32-10.91,8.62-18.45.67-.94,1.69-2.25,3.06-3.74h53.9c1.12,1.19,2.15,2.45,3.08,3.76,7.46,8.34,12.51,20.19,12.66,31.72Z"/>
          <path class="cls-9" d="M504.15,57.65c-.17-.19-.34-.38-.51-.58.01-.04.03-.09.05-.13.18-.39.6-.88.73-.82s-.01.67-.27,1.53Z"/>
          <path class="cls-9" d="M496.68,28.75c-.08-.03-.16-.06-.24-.09v-.04c.09.05.17.09.24.13Z"/>
          <g>
            <path class="cls-4" d="M559.07,88.42c.01.13.01.26,0,.4-.1.95-.81,1.82-1.82,2.17-.01-.01-.02,0-.02,0-.12-.01-.24,0-.36.03l-7.88,2.13c-.09.03-.18.06-.26.11-1.1-.15-2.25-.54-2.68-1.5-.46-1.02.1-2.22.38-2.73-.01,0-.04,0-.06-.01-.18-.03-.65-.14-1.2-.4h-.01c-.75-.37-1.66-1.02-2.22-2.19-1.12-2.35.27-4.54.34-4.65-.81-.36-2.37-1.21-3.53-2.95-.16-.24-.31-.49-.43-.74v-12.24c0-.1,0-.2-.01-.3v-.04c4.42-1.93,8.31-4.87,11.36-8.53,3.25-1.14,6.25-.94,7.35.47.69.89.77,2.45.14,4.24-.7,2-2.31,4.28-4.98,6.19.36.17,2.68,1.3,3.48,4.02.91,3.08-.91,5.53-1.1,5.78.27.17,2.08,1.29,2.46,3.52.31,1.85-.46,3.75-2,4.95,1.34-.21,2.55.59,2.93,1.7.07.18.11.37.12.57Z"/>
            <path class="cls-9" d="M536.81,66.47c.28-.09.56-.19.83-.29-.27.11-.54.21-.83.3h0Z"/>
            <path class="cls-9" d="M539.32,65.85v12.24c-.01-2.24-.01-4.49-.01-6.73v-5.81c.01.1.01.2.01.3Z"/>
          </g>
          <path class="cls-2" d="M558.31,92.11c0,.5-.34.97-.84,1.1l-.46.12-6.58,1.78-.85.23c-.61.17-1.23-.19-1.39-.8-.03-.1-.04-.2-.04-.3,0-.41.22-.78.58-.98.08-.05.17-.08.26-.11l7.88-2.13c.12-.03.24-.04.36-.03,0,0,.01-.01.02,0,.47.03.89.35,1.02.83.03.1.04.19.04.29Z"/>
          <path class="cls-4" d="M561.63,111.83c-.7,1.34-1.39,2.2-1.59,2.43-.84-3.92-2.41-6.41-3.75-7.99-2.43-2.84-4.84-3.59-5.81-6.46-.57-1.68-.4-3.34-.05-4.7l6.58-1.78c1.1.75,3.16,2.4,4.64,5.08.63,1.14,1.15,2.46,1.45,3.99.78,3.99-.35,7.31-1.47,9.43Z"/>
        </g>
        <g id="Gesicht">
          <g>
            <path class="cls-13" d="M504.15,57.65c-.17-.19-.34-.38-.51-.58.01-.04.03-.09.05-.13.18-.39.6-.88.73-.82s-.01.67-.27,1.53Z"/>
            <path class="cls-13" d="M517.33,26.5v.86c0,1.34-1.11,2.45-2.45,2.45s-2.45-1.11-2.45-2.45v-.86c0-1.35,1.1-2.45,2.45-2.45.67,0,1.28.27,1.73.72.44.44.72,1.05.72,1.73Z"/>
            <path class="cls-13" d="M521.27,20.21c0,.69-.82,1.3-1.78,1.78-.83-.44-2.37-1.13-4.41-1.22-2.57-.12-4.5.76-5.35,1.22-1.46-.74-1.79-1.35-1.78-1.78.03-1.53,4.11-3.17,7.79-2.82,2.48.24,5.53,1.47,5.53,2.82Z"/>
            <path class="cls-13" d="M531.15,43.76c-.2.47-.68.87-1.33,1.09-.39.14-.81.2-1.25.2-.8,0-1.65-.23-2.45-.67-.06-.03-.08-.11-.05-.17.03-.06.11-.08.17-.05,1.17.65,2.45.82,3.5.45.58-.2,1.01-.54,1.18-.95.42-1,.06-1.99-1.09-3.04l-.14-.13c-.58-.53-1.45-1.33-1.87-2.65-.15-.46-.2-1.15-.24-1.61v-.19c-.01-.55-.02-1-.03-1.45-.01-.45-.02-.9-.02-1.44,0-.06.06-.12.13-.12s.12.06.12.12c0,.54,0,.99.02,1.44.01.45.02.89.02,1.44v.18c.05.45.1,1.12.24,1.55.4,1.26,1.24,2.03,1.8,2.54l.14.14c1.24,1.12,1.61,2.21,1.15,3.32Z"/>
            <path class="cls-13" d="M541.86,26.43v.86c0,1.34-1.11,2.45-2.45,2.45s-2.45-1.11-2.45-2.45v-.86c0-1.35,1.1-2.45,2.45-2.45.67,0,1.28.28,1.73.72.44.44.72,1.06.72,1.73Z"/>
            <path class="cls-13" d="M546.35,20.27c0,.7-.83,1.31-1.79,1.79-.82-.45-2.36-1.13-4.41-1.22-2.56-.12-4.49.76-5.34,1.22-1.46-.74-1.79-1.35-1.79-1.79.03-1.52,4.11-3.17,7.79-2.81,2.48.24,5.54,1.47,5.54,2.81Z"/>
            <path class="cls-13" d="M565.38,30.34c-1.22-1.22-2.91-1.98-4.77-1.98-.63,0-1.24.09-1.82.26-.33.37-.67.73-.99,1.07-1.06,1.13-2,2.01-2,2.01-.05-.3-.08-.71-.09-1.22-.07-1.68-.07-4.36-.88-7.05,0,.07-.01.14-.01.21-.06.84-.21,1.84-.52,3.85-.39,2.48-.75,4.17-.77,4.68-.13,2.24-.06,5.31.31,9.51-1.11-3.58-1.49-6.57-1.64-8.64-.39-5.79.83-8.27-.29-13.97-.05-.23-.12-.53-.21-.9-3.18-2.88-7.34-2.09-14.97-4.43-4.26-1.31-10.55-3.88-14.95-7.18-3.3,5.44-7.53,3.77-12.5,9.66-1.87,2.23-3.22,4.43-3.79,5.56-1.03,2.04-1.57,3.77-1.8,4.57-1.39,4.9-.28,7.12-.93,12.13-.23,1.79-.74,4.38-2.01,7.44.56-3.63.76-6.3.74-8.26-.01-.3-.14-1.04-.3-2.15-.08-.56-.18-1.21-.27-1.95-.03-.2-.05-.39-.07-.57-.17-1.38-.25-2.14-.28-2.79-.06-1.91.14-3.07-.13-3.15-.4-.1-1.28,2.21-2.03,2.62-.09.06-.19.08-.28.06-.18-.04-.47-.26-.77-.48-.23-.17-.39-.31-.42-.33-.08-.05-.16-.11-.26-.17-.08-.03-.16-.06-.24-.09-.63-.19-1.3-.3-2-.3-3.72,0-6.76,3.04-6.76,6.76v2.53c0,3.72,3.04,6.75,6.76,6.75.96,0,1.87-.2,2.69-.57,1.07,4.96,3.35,9.48,6.51,13.24.01-.04.03-.09.05-.13.18-.39.6-.88.73-.82s-.01.67-.27,1.53c3.09,3.5,6.97,6.29,11.34,8.1v25.47c0,.22.01.44.02.66-1.56.22-3.09.46-4.61.72.88,1.38,1.99,2.97,3.36,4.67,1.48,1.85,3.25,3.78,5.33,5.7,2.83,2.6,5.6,4.58,8.02,6.07l.18.17c2.34-2.32,4.84-5.07,7.34-8.29,3.23-4.16,5.72-8.18,7.64-11.74-1.14.05-2.29.11-3.45.2v-9.44c-3.05-2.25-6.1-4.51-9.14-6.77-2.4-1.78-4.8-3.56-7.2-5.34,2.17.29,5.22.47,8.79-.09,1.65-.26,3.14-.64,4.45-1.07.2-.07.39-.13.59-.2.28-.09.56-.19.83-.29.24-.08.47-.17.7-.27.22-.08.43-.17.63-.26.12-.04.23-.09.34-.14,4.42-1.93,8.31-4.87,11.36-8.53,3.21-3.84,5.49-8.46,6.52-13.53,1.01.61,2.18.95,3.42.95,3.72,0,6.76-3.03,6.76-6.75v-2.53c0-1.86-.76-3.55-1.99-4.78ZM494.19,39.32c-.4.17-1.42-1.09-1.79-2.35-.52-1.75.16-3.67.63-3.67.83-.01,1.95,5.7,1.16,6.02ZM526.07,44.21c.03-.06.11-.08.17-.05,1.17.65,2.45.82,3.5.45.58-.2,1.01-.54,1.18-.95.42-1,.06-1.99-1.09-3.04l-.14-.13c-.58-.53-1.45-1.33-1.87-2.65-.15-.46-.2-1.15-.24-1.61v-.19c-.01-.55-.02-1-.03-1.45-.01-.45-.02-.9-.02-1.44,0-.06.06-.12.13-.12s.12.06.12.12c0,.54,0,.99.02,1.44.01.45.02.89.02,1.44v.18c.05.45.1,1.12.24,1.55.4,1.26,1.24,2.03,1.8,2.54l.14.14c1.24,1.12,1.61,2.21,1.15,3.32-.2.47-.68.87-1.33,1.09-.39.14-.81.2-1.25.2-.8,0-1.65-.23-2.45-.67-.06-.03-.08-.11-.05-.17ZM507.95,20.21c.03-1.53,4.11-3.17,7.79-2.82,2.48.24,5.53,1.47,5.53,2.82,0,.69-.82,1.3-1.78,1.78-.83-.44-2.37-1.13-4.41-1.22-2.57-.12-4.5.76-5.35,1.22-1.46-.74-1.79-1.35-1.78-1.78ZM517.33,27.36c0,1.34-1.11,2.45-2.45,2.45s-2.45-1.11-2.45-2.45v-.86c0-1.35,1.1-2.45,2.45-2.45.67,0,1.28.27,1.73.72.44.44.72,1.05.72,1.73v.86ZM532.77,55.23c-2.8,1.84-6.21,2.3-9.12,1.13-.69-.27-1.3-.62-1.84-1.01-2.8-1.99-3.76-5.15-3.9-5.64,1.62.93,3.86,1.97,6.65,2.65,4.7,1.13,8.71.67,11.08.19-.83,1.08-1.8,1.98-2.87,2.68ZM541.86,27.29c0,1.34-1.11,2.45-2.45,2.45s-2.45-1.11-2.45-2.45v-.86c0-1.35,1.1-2.45,2.45-2.45.67,0,1.28.28,1.73.72.44.44.72,1.06.72,1.73v.86ZM544.56,22.06c-.82-.45-2.36-1.13-4.41-1.22-2.56-.12-4.49.76-5.34,1.22-1.46-.74-1.79-1.35-1.79-1.79.03-1.52,4.11-3.17,7.79-2.81,2.48.24,5.54,1.47,5.54,2.81,0,.7-.83,1.31-1.79,1.79ZM562.23,36.97c-.37,1.26-1.39,2.52-1.8,2.35-.78-.32.34-6.03,1.17-6.02.47,0,1.15,1.92.63,3.67Z"/>
            <path class="cls-13" d="M496.68,28.75c-.08-.03-.16-.06-.24-.09v-.04c.09.05.17.09.24.13Z"/>
          </g>
          <path class="cls-9" d="M546.35,20.27c0,.7-.83,1.31-1.79,1.79-.82-.45-2.36-1.13-4.41-1.22-2.56-.12-4.49.76-5.34,1.22-1.46-.74-1.79-1.35-1.79-1.79.03-1.52,4.11-3.17,7.79-2.81,2.48.24,5.54,1.47,5.54,2.81Z"/>
          <path class="cls-9" d="M521.27,20.21c0,.69-.82,1.3-1.78,1.78-.83-.44-2.37-1.13-4.41-1.22-2.57-.12-4.5.76-5.35,1.22-1.46-.74-1.79-1.35-1.78-1.78.03-1.53,4.11-3.17,7.79-2.82,2.48.24,5.53,1.47,5.53,2.82Z"/>
          <path class="cls-10" d="M517.33,26.5v.86c0,1.34-1.11,2.45-2.45,2.45s-2.45-1.11-2.45-2.45v-.86c0-1.35,1.1-2.45,2.45-2.45.67,0,1.28.27,1.73.72.44.44.72,1.05.72,1.73Z"/>
          <path class="cls-10" d="M541.86,26.43v.86c0,1.34-1.11,2.45-2.45,2.45s-2.45-1.11-2.45-2.45v-.86c0-1.35,1.1-2.45,2.45-2.45.67,0,1.28.28,1.73.72.44.44.72,1.06.72,1.73Z"/>
          <path class="cls-19" d="M535.64,52.55c-.83,1.08-1.8,1.98-2.87,2.68-2.8,1.84-6.21,2.3-9.12,1.13-.69-.27-1.3-.62-1.84-1.01-2.8-1.99-3.76-5.15-3.9-5.64,1.62.93,3.86,1.97,6.65,2.65,4.7,1.13,8.71.67,11.08.19Z"/>
          <path class="cls-10" d="M531.15,43.76c-.2.47-.68.87-1.33,1.09-.39.14-.81.2-1.25.2-.8,0-1.65-.23-2.45-.67-.06-.03-.08-.11-.05-.17.03-.06.11-.08.17-.05,1.17.65,2.45.82,3.5.45.58-.2,1.01-.54,1.18-.95.42-1,.06-1.99-1.09-3.04l-.14-.13c-.58-.53-1.45-1.33-1.87-2.65-.15-.46-.2-1.15-.24-1.61v-.19c-.01-.55-.02-1-.03-1.45-.01-.45-.02-.9-.02-1.44,0-.06.06-.12.13-.12s.12.06.12.12c0,.54,0,.99.02,1.44.01.45.02.89.02,1.44v.18c.05.45.1,1.12.24,1.55.4,1.26,1.24,2.03,1.8,2.54l.14.14c1.24,1.12,1.61,2.21,1.15,3.32Z"/>
          <path class="cls-5" d="M562.23,36.97c-.37,1.26-1.39,2.52-1.8,2.35-.78-.32.34-6.03,1.17-6.02.47,0,1.15,1.92.63,3.67Z"/>
          <path class="cls-1" d="M539.32,78.09v1.85c-3.05-2.25-6.1-4.51-9.14-6.77-2.4-1.78-4.8-3.56-7.2-5.34,2.17.29,5.22.47,8.79-.09,1.65-.26,3.14-.64,4.45-1.07.2-.05.4-.12.59-.19.29-.09.56-.19.83-.3.24-.08.47-.17.7-.27.22-.08.43-.17.63-.26.12-.04.23-.09.34-.14v5.85c0,2.24,0,4.49.01,6.73Z"/>
          <path class="cls-5" d="M494.19,39.32c-.4.17-1.42-1.09-1.79-2.35-.52-1.75.16-3.67.63-3.67.83-.01,1.95,5.7,1.16,6.02Z"/>
        </g>
      </g>
      <g id="Oberteil">
        <path class="cls-6" d="M530.66,191.06h-.24c-1.64,0-10.92-.01-11.05-.02-.14,0-10.94-.01-11.08-.01h-.79l-.24-.84-17.09-60.16c.08-.03.16-.05.24-.08-2.98-10.19-5.96-20.38-8.95-30.57l-.08-.28c4.49-1.66,9.64-3.27,15.38-4.6,4.96-1.15,9.6-1.91,13.82-2.41.1.17.21.34.32.51.88,1.38,1.99,2.97,3.36,4.67,1.48,1.85,3.25,3.78,5.33,5.7,2.83,2.6,5.6,4.58,8.02,6.07,1.01,27.1,2.02,54.19,3.02,81.29.01.24.02.49.03.73Z"/>
        <path class="cls-18" d="M576.36,89.33c-.02.16-.04.32-.05.48h-.24c-1.17,10.41-2.33,20.83-3.5,31.24-2.53,22.57-5.05,45.14-7.58,67.71-.07.57-.13,1.15-.2,1.72-.02.22-.05.43-.07.65-10.3-.03-20.63-.03-30.95-.07h-3.11c0-.24-.02-.49-.03-.73-1-27.1-2.01-54.19-3.02-81.29l.18.17c2.34-2.32,4.84-5.07,7.34-8.29,3.23-4.16,5.72-8.18,7.64-11.74.05-.1.1-.19.15-.28.73-.1,1.47-.2,2.24-.28h.01c.55.26,1.02.37,1.2.4.02.01.05.01.06.01-.28.51-.84,1.71-.38,2.73.43.96,1.58,1.35,2.68,1.5-.36.2-.58.57-.58.98,0,.1,0,.2.04.3.16.61.78.97,1.39.8l.85-.23c-.35,1.36-.52,3.02.05,4.7.97,2.87,3.38,3.62,5.81,6.46,1.34,1.58,2.91,4.07,3.75,7.99.2-.23.89-1.09,1.59-2.43,1.12-2.12,2.25-5.44,1.47-9.43-.3-1.53-.82-2.85-1.45-3.99-1.48-2.68-3.54-4.33-4.64-5.08l.46-.12c.5-.13.84-.6.84-1.1,0-.1-.01-.19-.04-.29-.13-.48-.55-.8-1.02-.83,1.01-.35,1.72-1.22,1.82-2.17.01-.14.01-.27,0-.4-.01-.2-.05-.39-.12-.57h.24c6.49.06,12.26.67,17.17,1.48Z"/>
      </g>
    </g>
    <g id="Diagramm">
      <polygon class="cls-7" points="380.55 74.59 376.4 80.98 375.81 81.89 366.63 96.04 366.03 96.96 356.85 111.11 356.26 112.02 347.07 126.18 346.48 127.1 336.89 141.87 336.29 142.79 326.7 157.57 326.11 158.49 310.13 183.11 307.89 181.66 216.95 122.66 296.54 0 317.36 0 372.25 35.62 372.33 35.98 372.73 37.85 373 39.14 378.11 63.16 378.34 64.21 380.55 74.59"/>
      <polygon class="cls-17" points="380.55 74.58 356.91 59.25 372.25 35.61 380.55 74.58"/>
      <g>
        <polygon class="cls-3" points="318.06 150.42 246.11 103.59 293.06 31.45 293.89 32 247.49 103.3 318.6 149.58 318.06 150.42"/>
        <rect class="cls-8" x="268.13" y="52.69" width="16.6" height="58.12" transform="translate(89.33 -137.55) rotate(33.06)"/>
        <rect class="cls-20" x="281.93" y="73.75" width="16.6" height="47.11" transform="translate(100.05 -142.56) rotate(33.06)"/>
        <rect class="cls-3" x="301.74" y="74.56" width="16.6" height="58.12" transform="translate(106.7 -152.34) rotate(33.06)"/>
        <rect class="cls-11" x="321.26" y="76.34" width="16.6" height="68.09" transform="translate(113.55 -161.89) rotate(33.06)"/>
        <polygon class="cls-3" points="344.03 66.58 341.44 68.84 341.27 67.33 320.16 69.13 306.19 51.29 288.13 48.94 288.26 47.95 306.73 50.36 320.61 68.09 341.16 66.34 341.01 64.94 344.03 66.58"/>
      </g>
    </g>
    <g id="Tabelle">
      <g>
        <polygon class="cls-16" points="787.01 200 637.47 200 624.96 124.95 620.15 96.13 609.53 32.42 667.13 22.81 672.91 21.85 686.7 19.55 687.42 19.43 718.11 14.31 761.17 45.05 787.01 200"/>
        <polygon class="cls-11" points="761.17 45.05 724.27 51.2 718.11 14.3 761.17 45.05"/>
      </g>
      <g>
        <g>
          <polygon class="cls-11" points="651.05 88.31 636.13 90.8 635.1 84.64 650.03 82.15 651.05 88.31"/>
          <polygon class="cls-11" points="653.06 100.37 638.14 102.86 637.33 98.04 636.29 91.79 651.22 89.3 653.06 100.37"/>
          <polygon class="cls-11" points="655.04 112.21 640.12 114.7 638.3 103.85 653.23 101.36 655.04 112.21"/>
          <polygon class="cls-11" points="657.01 124.05 642.09 126.54 641.74 124.47 640.28 115.69 655.2 113.2 657.01 124.05"/>
          <polygon class="cls-11" points="658.99 135.9 644.07 138.39 642.25 127.53 657.18 125.04 658.99 135.9"/>
          <polygon class="cls-11" points="660.97 147.74 646.04 150.23 644.23 139.37 659.15 136.88 660.97 147.74"/>
          <polygon class="cls-11" points="662.8 158.73 647.88 161.22 646.2 151.21 661.13 148.72 662.8 158.73"/>
          <rect class="cls-11" x="648.77" y="160.89" width="15.13" height="10.15" transform="translate(-18.37 110.31) rotate(-9.47)"/>
          <polygon class="cls-11" points="666.47 180.75 651.55 183.24 649.87 173.2 664.8 170.71 666.47 180.75"/>
          <polygon class="cls-11" points="668.44 192.58 653.52 195.08 651.71 184.22 666.64 181.73 668.44 192.58"/>
          <polygon class="cls-11" points="669.69 200 654.34 200 653.68 196.06 668.61 193.56 669.69 200"/>
          <polygon class="cls-11" points="698.03 80.48 652.04 88.15 651.01 81.99 658.13 80.8 678.92 77.33 697 74.31 698.03 80.48"/>
          <polygon class="cls-11" points="748.59 72.05 699.01 80.31 697.98 74.15 747.56 65.88 748.59 72.05"/>
        </g>
        <path class="cls-3" d="M768.88,187.61l-1.84-11.01-1.96-11.75-1.84-11.05-1.83-11-1.84-11.01-1.97-11.83-1.98-11.85-1.97-11.83-1.98-11.85-2.01-12.05-.06-.36-1.05-6.3-.17-.99-.98.16-50.07,8.35-18.25,3.05-.32.05-20.31,3.39-.48.08-7.62,1.27-15.41,2.57-.99.17.16.98,1.11,6.65,1.08,6.5.04.25.89,5.32,1.98,11.84,1.53,9.18v.09s.44,2.58.44,2.58l1.98,11.83,1.97,11.84,1.84,11,1.83,10.99,1.84,11.02,1.97,11.84.71,4.27h1.02l-.66-3.94,14.93-2.5,1.08,6.44h1l-1.1-6.6,45.99-7.69,1.75,10.49-22.77,3.8h6.1l17.32-2.89,50.07-8.35.99-.17-.16-.98ZM764.01,164.51l-49.58,8.25-1.67-10.05,49.57-8.27,1.68,10.07ZM652.21,89.13l3.63-.61,21.9-3.65,20.45-3.41,1.85,11.08-24.2,4.03h-.01l-21.78,3.63-.6-3.59h0s-1.24-7.48-1.24-7.48ZM675.66,97.61l24.54-4.09,1.81,10.86-28.33,4.72-17.65,2.94-1.81-10.85,21.44-3.58ZM673.5,110.14l28.68-4.78,1.81,10.86-45.99,7.67-.22-1.34-1.59-9.52,17.31-2.89ZM704.15,117.21l1.81,10.85-45.98,7.67-1.82-10.86,45.99-7.66ZM706.13,129.05l1.81,10.85-45.99,7.67-1.81-10.85,45.99-7.67ZM708.1,140.89l1.67,10.01-45.99,7.67-1.67-10.01,45.99-7.67ZM709.94,151.88l1.66,10.01-45.98,7.67-1.67-10.01,45.99-7.67ZM711.77,162.88l1.67,10.05-45.99,7.66-1.67-10.04,45.99-7.67ZM762.17,153.46l-49.58,8.27-1.67-10.01,49.58-8.28,1.67,10.02ZM760.34,142.47l-49.58,8.26-1.67-10.01,49.57-8.26,1.68,10.01ZM758.5,131.47l-49.58,8.27-1.81-10.86,49.58-8.27,1.81,10.86ZM756.53,119.63l-49.58,8.27-1.81-10.86,49.57-8.26,1.82,10.85ZM754.55,107.79l-49.58,8.26-1.81-10.85,49.58-8.28,1.81,10.87ZM752.58,95.95l-49.58,8.26-1.81-10.85,49.57-8.27,1.82,10.86ZM750.6,84.11l-49.58,8.26-1.85-11.07,49.58-8.28,1.85,11.09ZM747.56,65.88l1.03,6.17-49.58,8.26-1.03-6.16,49.58-8.27ZM658.13,80.8l20.79-3.47,18.08-3.02,1.03,6.17-20.12,3.36-21.75,3.62-4.12.69-1.03-6.16,7.12-1.19ZM635.1,84.64l14.93-2.49,1.02,6.16-14.92,2.49-1.03-6.16ZM637.33,98.04l-1.04-6.25,14.93-2.49,1.56,9.37.28,1.7-14.92,2.49-.81-4.82ZM638.3,103.85l14.93-2.49,1.81,10.85-14.92,2.49-1.82-10.85ZM641.74,124.47l-1.46-8.78,14.92-2.49,1.59,9.51.22,1.34-14.92,2.49-.35-2.07ZM642.25,127.53l14.93-2.49,1.81,10.86-14.92,2.49-1.82-10.86ZM644.23,139.37l14.92-2.49,1.82,10.86-14.93,2.49-1.81-10.86ZM646.2,151.21l14.93-2.49,1.67,10.01-14.92,2.49-1.68-10.01ZM648.04,162.21l14.92-2.49,1.67,10.01-14.92,2.49-1.67-10.01ZM649.87,173.2l14.93-2.49,1.67,10.04-14.92,2.49-1.68-10.04ZM653.52,195.08l-1.81-10.86,14.93-2.49,1.8,10.85-14.92,2.5ZM669.43,192.42l-1.81-10.85,45.99-7.66,1.8,10.81-45.98,7.7ZM714.6,173.75l49.57-8.25,1.8,10.76-49.57,8.3-1.8-10.81ZM718.32,196.04l-1.75-10.5,49.56-8.28,1.76,10.51-49.57,8.27Z"/>
      </g>
    </g>
    <g id="Blatt">
      <g>
        <polygon class="cls-16" points="458.85 84.71 455.17 106.54 450.01 137.17 439.42 200 304.8 200 307.89 181.66 313.64 147.54 313.73 147.01 313.82 146.47 314.69 141.33 319.99 109.87 319.99 109.86 321.42 101.36 321.42 101.35 325.22 78.83 326.96 68.55 327.04 68.05 327.13 67.54 327.13 67.53 333.54 29.45 372.04 35.94 372.33 35.98 372.71 36.05 377.9 36.92 391.68 39.25 392.84 39.44 431.24 45.91 458.85 84.71"/>
        <g>
          <rect class="cls-14" x="394.08" y="9.66" width="1" height="113.54" transform="translate(263.51 444.49) rotate(-80.44)"/>
          <rect class="cls-14" x="391.11" y="27.27" width="1" height="113.54" transform="translate(243.67 456.24) rotate(-80.44)"/>
          <rect class="cls-14" x="388.37" y="43.52" width="1" height="113.54" transform="translate(225.36 467.1) rotate(-80.44)"/>
          <rect class="cls-14" x="385.63" y="59.77" width="1" height="113.54" transform="translate(207.05 477.95) rotate(-80.44)"/>
          <rect class="cls-14" x="382.89" y="76.03" width="1" height="113.54" transform="translate(188.74 488.8) rotate(-80.44)"/>
          <rect class="cls-14" x="377.19" y="109.89" width="1" height="113.54" transform="translate(150.59 511.41) rotate(-80.44)"/>
          <rect class="cls-14" x="380.04" y="92.96" width="1" height="113.54" transform="translate(169.67 500.11) rotate(-80.44)"/>
          <rect class="cls-14" x="374.3" y="126.85" width="1" height="113.47" transform="translate(131.5 522.67) rotate(-80.44)"/>
          <polygon class="cls-14" points="374.03 200 367.98 200 315.98 191.24 316.14 190.25 374.03 200"/>
        </g>
      </g>
      <polygon class="cls-11" points="458.85 84.7 425.64 79.11 431.24 45.91 458.85 84.7"/>
    </g>
    <g id="Hände">
      <path class="cls-13" d="M393.09,37.88c.03.71-.14,1.27-.26,1.59-.37-.03-.74-.05-1.11-.07-.21,0-.42-.03-.64-.04-.18.46-.36.93-.55,1.39-1.54,3.94-6.03,5.89-9.97,4.34l-2.97-1.17-.13-.05c-.71-.31-3.11-1.45-4.23-4.09-.97-2.29-.45-4.46-.11-5.88.31-1.3.53-2.23,1.19-3.02,2.45-2.96,9.12-1.63,13.22.62,1.31.71,5.44,2.99,5.56,6.38Z"/>
      <path class="cls-13" d="M686.81,19.74c-.32.16-.63.32-.95.48.08.5.16.99.24,1.49.67,4.17-2.2,8.13-6.38,8.81l-3.29.52c-.53.07-1.92.2-3.49-.26-.73-.21-1.5-.56-2.23-1.1-2.01-1.48-2.66-3.62-3.09-5.01-.39-1.27-.68-2.19-.52-3.2.61-3.8,7.03-6.05,11.7-6.21,1.5-.05,6.21-.19,8.04,2.67.38.6.52,1.16.58,1.5-.2.11-.41.21-.61.31Z"/>
    </g>
  </g>
</svg>