<?xml version="1.0" encoding="UTF-8"?>
<svg id="Ebene_1" data-name="Ebene 1" xmlns="http://www.w3.org/2000/svg" viewBox="0 0 1050 200">
  <defs>
    <style>
      .cls-1 {
        fill: #942c69;
      }

      .cls-1, .cls-2, .cls-3, .cls-4, .cls-5, .cls-6, .cls-7, .cls-8, .cls-9, .cls-10, .cls-11, .cls-12, .cls-13, .cls-14, .cls-15, .cls-16, .cls-17, .cls-18, .cls-19, .cls-20, .cls-21, .cls-22, .cls-23, .cls-24 {
        stroke-width: 0px;
      }

      .cls-2 {
        fill: #206289;
      }

      .cls-3 {
        fill: #f4eaf0;
      }

      .cls-4 {
        fill: #bfe3f3;
      }

      .cls-5 {
        fill: #0090cd;
      }

      .cls-6 {
        fill: #80c8e7;
      }

      .cls-7 {
        fill: #e3bc8c;
      }

      .cls-8 {
        fill: #a9def6;
      }

      .cls-9 {
        fill: #000;
      }

      .cls-10 {
        fill: #408aa9;
      }

      .cls-11 {
        fill: #e4bfa3;
      }

      .cls-12 {
        fill: #73bbe7;
      }

      .cls-13 {
        fill: #af618e;
      }

      .cls-14 {
        fill: #bf7a3e;
      }

      .cls-15 {
        fill: #7ecef1;
      }

      .cls-16 {
        fill: #e5e6e5;
      }

      .cls-25 {
        opacity: .8;
      }

      .cls-17 {
        fill: #cbcbcb;
      }

      .cls-18 {
        fill: #54bdec;
      }

      .cls-19 {
        fill: #fb8e40;
      }

      .cls-20 {
        fill: #e4bfa3;
      }

      .cls-21 {
        fill: #fff;
      }

      .cls-22 {
        fill: #eeeeed;
      }

      .cls-23 {
        fill: #ffd8b9;
      }

      .cls-24 {
        fill: #80b1c6;
      }
    </style>
  </defs>
  <g id="G-0003_BUW_Header__Publikation" data-name="G-0003_BUW_Header_ Publikation">
    <g id="Hintergrund">
      <rect class="cls-3" y="0" width="1050" height="200"/>
    </g>
    <g id="Internet">
      <path class="cls-6" d="M726.7,38.92c-1.02-2.02-2.1-4.01-3.25-5.97-.12-.21-.24-.42-.37-.62-7.56-12.73-17.5-23.65-29.04-32.33h-4.24c12.06,8.51,22.46,19.45,30.35,32.33h-42.29c-3.98-12.56-9.23-23.55-15.42-32.33h-2.92c6.34,8.62,11.72,19.62,15.79,32.33h-47.72V0h-2.5v32.33h-47.72c4.07-12.71,9.45-23.71,15.79-32.33h-2.93c-6.18,8.78-11.43,19.77-15.41,32.33h-42.3c7.89-12.88,18.29-23.82,30.35-32.33h-4.23c-11.54,8.68-21.48,19.6-29.04,32.33-.13.2-.25.41-.37.62-4.13,7.03-7.45,14.49-9.94,22.21-3.57,11.1-5.42,22.76-5.42,34.55,0,17.43,4.05,34.61,11.76,50.1,1.07,2.15,2.21,4.27,3.42,6.35.12.21.24.41.37.62,2.81,4.77,5.95,9.29,9.39,13.53,5.64,6.96,12.06,13.18,19.09,18.57,13.66,10.44,29.62,17.73,46.61,21.12h43.65c31.09-6.2,58.71-25.45,75.09-53.22.13-.21.25-.41.37-.62,6.5-11.18,11-23.41,13.32-36.09,1.24-6.69,1.86-13.5,1.86-20.36,0-17.71-4.17-35.12-12.1-50.79ZM516.38,88.16c.01-.63.02-1.26.04-1.88.01-.2.02-.4.03-.6.02-.81.06-1.62.11-2.43.01-.25.03-.5.05-.76.03-.54.07-1.07.12-1.61.1-1.31.23-2.62.38-3.92.07-.61.15-1.21.23-1.81.15-1.13.31-2.25.5-3.37.05-.34.11-.68.17-1.01.06-.34.12-.67.18-1,.63-3.45,1.43-6.86,2.39-10.23.1-.38.21-.76.33-1.13.32-1.09.66-2.17,1.01-3.25.13-.39.26-.78.4-1.17.73-2.15,1.54-4.28,2.41-6.38.17-.41.34-.82.52-1.23.11-.28.23-.55.36-.83.23-.54.47-1.08.72-1.62.26-.56.52-1.13.79-1.68.26-.55.52-1.09.8-1.63.84-1.71,1.74-3.4,2.69-5.06.13-.24.27-.49.41-.73h43.02c-4.74,15.84-7.49,34.04-7.62,53.4l-50.03-.07c-.01.26-.01.52-.01.78-.01-.26-.01-.52,0-.78ZM530.69,143.99c-.24-.42-.48-.84-.71-1.27-.29-.52-.57-1.04-.85-1.57-.24-.44-.47-.89-.7-1.34-.86-1.68-1.68-3.39-2.45-5.12-.48-1.06-.94-2.14-1.38-3.22-.91-2.2-1.74-4.42-2.49-6.67-.19-.56-.37-1.13-.55-1.69-.18-.57-.36-1.14-.53-1.7-.83-2.75-1.55-5.53-2.15-8.34-.26-1.17-.5-2.36-.71-3.54-.11-.59-.21-1.19-.31-1.78-.2-1.19-.38-2.38-.53-3.57-.09-.6-.16-1.2-.23-1.8,0-.05,0-.1-.02-.15-.2-1.75-.35-3.5-.47-5.26,0-.03,0-.06-.01-.09-.06-1.05-.12-2.1-.15-3.15-.01-.2-.02-.41-.03-.61-.02-.82-.04-1.64-.04-2.46l50.04.07c.09,19.41,2.81,37.66,7.54,53.55h-43.11c-.05-.1-.11-.19-.16-.29ZM557.95,175.73c-5.77-4.57-11.1-9.73-15.88-15.42-3.57-4.22-6.83-8.74-9.73-13.53h42.38c7.99,25.37,21.15,44.36,36.73,51.86-19.65-2.71-38.14-10.73-53.5-22.91ZM625.09,199.63c-20.24-.83-37.94-21.8-47.82-52.85h47.82v52.85ZM625.09,144.28h-48.59c-4.75-15.81-7.49-34.08-7.58-53.55l56.17.07v53.48ZM625.09,88.3l-56.17-.07c.13-19.42,2.9-37.64,7.67-53.4h48.5v53.47ZM627.59,34.83h48.5c.41,1.34.8,2.71,1.18,4.09,4.05,14.83,6.39,31.64,6.49,49.46l-56.17-.07v-53.48ZM627.59,90.81l56.17.07c-.03,6.55-.37,12.96-.98,19.19-1.2,12.24-3.46,23.76-6.6,34.21h-48.59v-53.47ZM627.59,146.78h47.82c-9.89,31.05-27.58,52.02-47.82,52.85v-52.85ZM641.24,198.64c15.57-7.5,28.72-26.49,36.72-51.86h42.38c-17.26,28.35-46.59,47.36-79.1,51.86ZM735.93,98.78c-.1,1.15-.21,2.3-.34,3.45-.08.65-.16,1.3-.24,1.95-.13.97-.27,1.94-.43,2.91-.03.22-.07.44-.11.66-.1.59-.2,1.19-.31,1.78-.03.18-.06.36-.1.54-.85,4.56-2,9.05-3.42,13.46-.18.56-.37,1.13-.56,1.69-.19.57-.39,1.14-.59,1.7s-.41,1.13-.63,1.69c-.36.96-.73,1.91-1.12,2.86-.22.55-.45,1.1-.69,1.64-.47,1.09-.96,2.18-1.46,3.25-.25.54-.51,1.08-.77,1.61-1.04,2.14-2.16,4.24-3.34,6.31h-43.1c3.12-10.49,5.37-22.01,6.56-34.21.62-6.23.95-12.64.98-19.19l50.03.07c-.03,2.62-.15,5.23-.36,7.83ZM686.26,88.38c-.1-17.77-2.42-34.57-6.46-49.46-.37-1.38-.76-2.75-1.16-4.09h43.01c.14.24.28.49.41.73.64,1.11,1.25,2.23,1.83,3.36.02.03.03.06.04.08.28.54.56,1.08.82,1.62.28.54.54,1.08.8,1.63.27.55.54,1.12.79,1.68.45.98.89,1.97,1.3,2.96.52,1.22,1.01,2.45,1.48,3.69.22.56.43,1.13.63,1.7.21.57.41,1.14.6,1.71.18.49.34.99.5,1.49.32.97.63,1.95.91,2.93.12.37.23.75.33,1.13.96,3.37,1.76,6.78,2.39,10.23.12.59.22,1.19.32,1.79.51,3.08.9,6.19,1.14,9.32.05.54.09,1.08.12,1.61.02.26.04.51.05.76.05.81.09,1.62.11,2.43.01.2.02.4.03.6.02.72.03,1.45.04,2.17l-50.03-.07Z"/>
    </g>
    <g id="Lupe">
      <g class="cls-25">
        <rect class="cls-4" x="631.8" y="38.92" width="359.91" height="71.14" rx="25.17" ry="25.17"/>
      </g>
      <g>
        <path class="cls-5" d="M990.17,93.55l-11.97-10.95-1.57,1.72-9.63-8.81-2.4-2.19c.77-1.03,1.49-2.09,2.15-3.17.14-.22.27-.44.4-.67,2.33-3.95,3.95-8.18,4.87-12.52,1.23-5.75,1.23-11.69.02-17.42-.91-4.42-2.55-8.71-4.89-12.69-.76-1.3-1.6-2.55-2.51-3.78-1.56-2.11-3.36-4.1-5.37-5.94-14.41-13.18-35.5-14.44-51.17-4.32-1.86,1.19-3.63,2.54-5.31,4.05-1.02.92-2.01,1.9-2.95,2.93-2.92,3.19-5.25,6.71-7,10.42-.72,1.51-1.33,3.04-1.85,4.61-.45,1.35-.83,2.72-1.14,4.1-.27,1.18-.48,2.37-.65,3.57-.26,1.94-.39,3.9-.38,5.85.01,1.58.1,3.15.28,4.71.54,4.62,1.84,9.17,3.9,13.42.73,1.52,1.56,3.01,2.48,4.44,1.93,3,4.27,5.79,7.02,8.31,2.29,2.1,4.76,3.89,7.34,5.38,2.48,1.44,5.06,2.59,7.71,3.47,9.86,3.3,20.65,2.82,30.18-1.35,4.02-1.75,7.81-4.16,11.21-7.21l8.58,7.84,3.45,3.16-1.57,1.71,13.18,12.05,49.06,44.86,8.8-9.63-50.27-45.95ZM956.13,71.26c-12.75,13.94-34.39,14.91-48.33,2.16-1.02-.93-1.98-1.91-2.85-2.93-1.1-1.28-2.1-2.62-2.98-4.02-2.68-4.23-4.36-8.94-5-13.77-.12-.9-.2-1.8-.25-2.7-.03-.55-.05-1.1-.05-1.66-.02-3.16.4-6.34,1.27-9.42.42-1.52.96-3.02,1.6-4.49.64-1.44,1.37-2.85,2.22-4.22,1.11-1.79,2.4-3.51,3.87-5.12,3.77-4.12,8.32-7.11,13.21-8.95,6.77-2.54,14.21-2.87,21.17-.95,5.04,1.4,9.84,3.97,13.95,7.74,4.9,4.47,8.2,10.04,9.87,15.99,1,3.6,1.41,7.34,1.22,11.06-.4,7.64-3.36,15.19-8.92,21.28Z"/>
        <path class="cls-22" d="M965.05,49.98c-.4,7.64-3.36,15.19-8.92,21.28-12.75,13.94-34.39,14.91-48.33,2.16-1.02-.93-1.98-1.91-2.85-2.93-1.1-1.28-2.1-2.62-2.98-4.02-2.68-4.23-4.36-8.94-5-13.77-.12-.9-.2-1.8-.25-2.7-.03-.55-.05-1.1-.05-1.66-.02-3.16.4-6.34,1.27-9.42.42-1.52.96-3.02,1.6-4.49.64-1.44,1.37-2.85,2.22-4.22,1.11-1.79,2.4-3.51,3.87-5.12,3.77-4.12,8.32-7.11,13.21-8.95,6.77-2.54,14.21-2.87,21.17-.95,5.04,1.4,9.84,3.97,13.95,7.74,4.9,4.47,8.2,10.04,9.87,15.99,1,3.6,1.41,7.34,1.22,11.06Z"/>
      </g>
    </g>
    <g id="Person_2" data-name="Person 2">
      <g id="Hose">
        <path class="cls-18" d="M405.34,200h-98.01c-1.41-1.41-2.24-2.73-2.9-3.97-.06-.12-.13-.24-.18-.36-1.7-3.32-2.54-6.77-2.92-9.86-.39-3.15-.3-5.93-.13-7.85.1-1.18.23-2.04.3-2.45,0-.03.01-.05.01-.08.05-.3.11-.6.17-.9,1.26.02,2.51.03,3.74.04,2.75.03,5.42.05,8,.06,2.34.01,4.6.01,6.78.01,4.81,0,9.25-.03,13.29-.08,2.27-.02,4.4-.05,6.41-.08,2.37-.04,4.53-.08,6.49-.13h.05c4.3-.1,7.7-.23,10.58-.42.01.01.02.01.03,0,.58.5,1.2.95,1.84,1.37.06.05.12.09.19.13,3.17,2.07,6.96,3.44,11.03,5.05.83.33,1.64.65,2.44.97,1.66.66,3.27,1.3,4.83,1.94.52.21,1.04.42,1.55.63.79.33,1.58.65,2.35.98.43.18.86.36,1.28.55.43.18.85.36,1.27.55.49.22.97.43,1.45.65.91.41,1.81.82,2.69,1.24.5.24.99.49,1.48.73.37.18.74.37,1.11.56.35.18.69.36,1.03.54.61.32,1.21.65,1.81.99.26.15.52.3.78.45.69.4,1.37.82,2.04,1.24.3.19.59.38.87.57.21.13.42.27.63.42.21.14.42.28.62.42.26.19.52.38.78.57.31.22.62.45.92.69.3.23.6.47.9.71.29.24.59.48.87.72.24.2.46.4.69.6.06.05.12.1.17.15.42.39.84.77,1.24,1.17.22.22.44.44.66.66,0,.01.01.02.02.02t.02.02c.24.25.49.52.73.78Z"/>
        <path class="cls-5" d="M461.15,200h-55.81c-.24-.26-.49-.53-.73-.78t-.02-.02s-.02-.01-.02-.02c-.22-.22-.44-.44-.66-.66-.4-.4-.82-.78-1.24-1.17-.05-.05-.11-.1-.17-.15-.23-.2-.45-.4-.69-.6-.28-.24-.58-.48-.87-.72-.3-.24-.6-.48-.9-.71-.3-.24-.61-.47-.92-.69-.26-.19-.52-.38-.78-.57-.2-.14-.41-.28-.62-.42-.21-.15-.42-.29-.63-.42-.28-.19-.57-.38-.87-.57-.67-.42-1.35-.84-2.04-1.24-.26-.15-.52-.3-.78-.45-.6-.34-1.2-.67-1.81-.99-.34-.18-.68-.36-1.03-.54-.37-.19-.74-.38-1.11-.56-.49-.24-.98-.49-1.48-.73-.88-.42-1.78-.83-2.69-1.24-.48-.22-.96-.43-1.45-.65-.42-.19-.84-.37-1.27-.55-.42-.19-.85-.37-1.28-.55-.77-.33-1.56-.65-2.35-.98-.51-.21-1.03-.42-1.55-.63-1.56-.64-3.17-1.28-4.83-1.94-.8-.32-1.61-.64-2.44-.97-4.07-1.61-7.86-2.98-11.03-5.05-.07-.04-.13-.08-.19-.13-.64-.42-1.26-.87-1.84-1.37.12,0,.24-.01.36-.02.67-.05,1.3-.1,1.92-.15,3.59-.31,6.42-.76,9.5-1.43,5.48-1.18,10.42-2.78,14.79-4.52h.01c2.17-.88,4.2-1.79,6.08-2.7,2.52-1.22,4.78-2.45,6.77-3.61,6.29,2.02,13.49,4.67,21.26,8.15,4.66,2.09,8.86,3.97,12.67,5.78,12.26,5.8,20.47,10.76,27.05,19.13,1.39,1.78,2.62,3.58,3.69,5.44Z"/>
      </g>
      <g id="Arme">
        <path class="cls-23" d="M374.03,88.41c.85.67,2.05,1.03,3.45,2.49h0c.3.32.61.69.93,1.12.11.15,1.83,2.55,1.36,5.3-.23,1.35-.95,2.43-1.94,3.36-.31.3-.66.59-1.02.86-1.14.86-2.48,1.63-3.83,2.45-.6.37-1.2.69-1.78.97-1.15.56-2.24.96-3.21,1.24l-16.29,21.93c-3.9,5.25-7.81,10.51-11.71,15.76-.6.74-2.93,3.43-6.65,3.72-.47.04-1.49.11-2.7-.23-.21-.06-.41-.13-.62-.22-.01.01-.02,0-.03,0-1.75-.21-3.27-.84-4.19-1.74-.37-.36-1.01-1.14-1.59-2.12-.9-1.53-1.28-2.97-1.45-3.91-3.04-8.94-6.13-17.87-9.27-26.8h0c-.46-1.32-.92-2.63-1.39-3.94l1.56-.59,18.44-6.91c1.63,6.93,3.34,13.82,5.11,20.66,4.05-4.14,8.1-8.27,12.15-12.4h0c3.68-3.76,7.35-7.51,11.03-11.26.28-.87.64-1.84,1.09-2.88.15-.37.65-1.52,1.43-2.98.56-1.05,1.08-1.91,1.55-2.61,1.11-1.66,1.93-2.43,2.31-2.77.1-.09.28-.24.64-.54.25-.21.54-.45.85-.7,1.12-.94,2.64-2.17,4.55-3.61,2.16-1.62,3.61-2.6,4.61-3.16.52-.3.93-.48,1.25-.58.24-.08.43-.11.6-.12.23,0,.4.04.56.11.18.08.6.29.84.73.44.84-.07,2.01-.67,2.95-.28.46-.58.86-.81,1.16-.09.11-.17.23-.26.33-.51.66-1.03,1.23-1.53,1.73-2.03,2.05-3.71,2.94-3.37,3.2Z"/>
        <path class="cls-23" d="M466.39,120.82c-3.9,2.28-7.48,3.06-8.87,3.22-1.01.12-1.97.16-2.86.14,0,.01-.02.01-.03,0-.51.1-1.05.11-1.59.04-13.65,4.96-27.3,9.92-40.95,14.88-1.71.63-3.43,1.25-5.14,1.87-2.13.71-3.76.48-4.57.29-.06-.01-.13-.03-.19-.05-.27-.07-.54-.16-.81-.25-3.13-1.07-5.46-3.9-6.44-5.66-.23-.42-.4-.79-.51-1.05-3.49-6.49-6.98-12.97-10.48-19.45h0c-.5-2.18-1.01-4.45-1.52-6.82l17.48-7.72c2.89,7.49,5.77,14.97,8.65,22.46,1.6-.34,3.2-.68,4.8-1.03,11.7-2.52,23.39-5.04,35.09-7.56h.01c2.25-1.9,3.98-3.44,5.23-4.58,0,0,1.63-1.58,5.27-3.48.93-.49,2.05-1,2.89-.53.25.14.48.36.65.71.6,1.17-1.05,3.71-3.04,5.89-.93,1.02,2.96,2.52,5.47,1.61,4.71-1.7,6.67-6.28,8.8-4.48,2.5,2.14-1.59,8.2-7.34,11.55Z"/>
      </g>
      <g id="T-Shirt">
        <path class="cls-8" d="M357.05,173.93s-.03-.02-.05-.04c-.01.01,0,.03.02.04-2.88.19-6.28.32-10.58.42h-.05c-1.96.05-4.12.09-6.49.13-2.01.03-4.14.06-6.41.08-4.04.05-8.48.08-13.29.08-2.18,0-4.44,0-6.78-.01-2.58-.01-5.25-.03-8-.06-1.23-.01-2.48-.02-3.74-.04-1.19,0-2.39-.03-3.6-.05,1-3.84,2.1-8.13,3.23-12.83.11-.44.22-.89.33-1.34.54-2.28,1.1-4.66,1.67-7.13.9,0,1.81-.01,2.71-.01,1.52.3,2.81.58,3.83.82.4.09.75.17,1.06.25.71.17,4.65,1.1,6.26.21.06-.03.11-.06.15-.09.23-.15,1.31-.93,1.56-2.17.73-3.68-6.9-6.81-7.39-7.06-.15-.07-.32-.16-.52-.25-1.11-.51-3-1.25-5.47-1.59.44-2.06.88-4.17,1.32-6.32,2.71-13.23,4.28-21.08,5.13-28.26l-4.09,1.53-9.74-25.93c-.45-1.4-1.36-4.7-.69-8.11.2-1.02.54-2.06,1.08-3.05,1.19-2.19,3.35-4.22,4.08-4.91,1.35-1.27,2.61-2.2,3.55-2.83,1.41-.64,2.79-.76,3.9-1.17,1.77-.67,3.6-.96,5.38-.92.02-.01.03-.01.03,0h.02s.03-.01.03,0c2-.32,3.18-.41,3.86-.46.38-.02,1.46-.08,2.88-.06,1.34.01,2.85.09,4.51.29.01.01.02.02.04.04.72.83,4.25,4.7,10.08,6.57,1.95.63,4.15,1.03,6.59,1.02.37,0,.72,0,1.07-.04l.58,4.64.11.88,4.14,33.2h0c-4.05,4.14-8.1,8.27-12.15,12.41-1.77-6.84-3.48-13.73-5.11-20.66l-18.44,6.91-1.56.59c.47,1.31.93,2.62,1.39,3.93h0c3.14,8.94,6.23,17.87,9.27,26.81.17.94.55,2.38,1.45,3.91.58.98,1.22,1.76,1.59,2.12.92.9,2.44,1.53,4.19,1.74.01,0,.02.01.03,0,.21.09.41.16.62.22,1.21.34,2.23.27,2.7.23,3.72-.29,6.05-2.98,6.65-3.72,3.9-5.25,7.81-10.51,11.71-15.76l3.86,30.97.15,1.21.17,1.34.41,3.26.02.21,1.1,8.79c-.12.01-.24.02-.36.02Z"/>
        <path class="cls-15" d="M399.91,100.26l-17.48,7.72c.51,2.37,1.02,4.64,1.52,6.81h0c1.94,8.32,3.82,15.05,5.24,19.54,2.44,7.7,5.6,16.37,9.73,25.69-.15.1-.31.19-.47.29-.62.39-1.28.78-1.97,1.19-1.99,1.16-4.25,2.39-6.77,3.61-1.88.91-3.91,1.82-6.08,2.69h-.01c-4.37,1.75-9.31,3.35-14.79,4.53-3.08.67-5.91,1.12-9.5,1.43-.62.05-1.25.1-1.92.15l-1.1-8.79-.02-.21-.41-3.26-.17-1.34-.15-1.21-3.86-30.97,16.29-21.93c.97-.28,2.06-.68,3.21-1.24.58-.28,1.18-.6,1.78-.97,1.35-.82,2.69-1.59,3.83-2.45.36-.27.71-.56,1.02-.86.99-.93,1.71-2.01,1.94-3.36.47-2.75-1.25-5.15-1.36-5.3-.32-.43-.63-.8-.93-1.11h0c-1.4-1.47-2.6-1.83-3.45-2.5-.34-.26,1.34-1.15,3.37-3.2.5-.5,1.02-1.07,1.53-1.73.09-.1.17-.22.26-.33.23-.3.53-.7.81-1.16.6-.94,1.11-2.11.67-2.95-.24-.44-.66-.65-.84-.73-.16-.07-.33-.11-.56-.11-.17.01-.36.04-.6.12-.32.1-.73.28-1.25.58-1,.56-2.45,1.54-4.61,3.16-1.91,1.44-3.43,2.67-4.55,3.61-.31.25-.6.49-.85.7-.36.3-.54.45-.64.54-.38.34-1.2,1.11-2.31,2.77-.47.7-.99,1.56-1.55,2.61-.78,1.46-1.28,2.61-1.43,2.98-.45,1.04-.81,2.01-1.09,2.88-3.68,3.75-7.35,7.5-11.03,11.25l-4.14-33.2-.11-.88-.58-4.64c3.08-.16,5.76-.97,8-2.03,4.21-1.98,6.9-4.85,7.88-6.01h.01c.15-.2.27-.34.34-.43,2.83-.04,5.99.05,9.39.39,4.1.4,7.78,1.07,10.99,1.82h0c5.04.54,9.68,3.67,11.86,8.62l11.18,25.34-4.27,1.88Z"/>
      </g>
      <g id="Gesicht">
        <g>
          <path class="cls-23" d="M368.74,25.05l-.31-1.69c-.39-2.07-2.12-3.56-4.13-3.73h-.01s-.02.02-.03,0c-.26-.3-1.42-5.09-3.3-8.62-.41-.78-.65-1.37-1.03-1.99-.28-.46-.53-.82-.75-1.11-4.66,5.42-18.05,6.81-27.96,4.63-1.16,1.87-2.76,4.07-2.74,7.29.02,4.44,2.31,8.46,2.57,8.71-.13-.09-1.19-.76-3.07-1.53-.25-.1-.52-.2-.8-.31-1.87-.7-2.95-.89-3.74-1.01-.24.06-.46.14-.68.24-1.6.71-2.73,2.32-2.73,4.18v1.72c0,2.52,2.07,4.58,4.59,4.58.44,0,.86-.06,1.26-.18,2.03,5.38,5.97,9.59,10.8,12.08-.12.56-.19,1.14-.19,1.73v12.01c-3.43.24-6.67.62-9.7,1.08.72.83,4.25,4.7,10.08,6.57,1.95.63,4.15,1.03,6.59,1.02.37,0,.72,0,1.07-.04,3.08-.16,5.76-.97,8-2.03,4.21-1.98,6.9-4.85,7.88-6.01-2.47-.31-5.06-.55-7.76-.71v-1.9c-3.71-3.29-7.4-6.57-11.11-9.85.18.04.36.09.55.13.19.05.38.09.59.13.31.06.65.12,1,.17.61.09,1.26.16,1.95.21.23.02.47.03.71.03h.29c.24.01.47.02.72.02h.17c.13,0,.26-.01.39-.02.8-.03,1.61-.1,2.42-.22.27-.04.53-.08.8-.13.56-.1,1.06-.21,1.52-.33h0s.02-.01.03-.01c.29-.07.58-.15.87-.24,8.92-2.65,14.45-11.41,13.41-20.36,1.36-1.01,2.11-2.74,1.78-4.51ZM324.63,32.25c0,.38-.05.66-.18.71-.28.12-.96-.74-1.22-1.59-.34-1.15.08-2.41.4-2.48.01-.01.02-.01.03-.01.42,0,.96,2.18.97,3.36h0ZM340.59,24.66c-.9.15-1.76-.47-1.91-1.37l-.1-.57c-.15-.9.47-1.77,1.37-1.92.09-.02.18-.02.27-.02.8,0,1.51.58,1.64,1.39l.1.57c.15.9-.47,1.77-1.37,1.92ZM341.82,17.53c-.66.04-2.09.21-3.53,1.19-1.15.78-1.8,1.72-2.12,2.27-.72.07-1.41.01-1.66-.4-.48-.78.85-2.57,2.2-3.59,2-1.51,4.95-2,5.5-1.13.17.25.19.71-.39,1.66ZM348.98,25.77c.08-.02.15.04.17.12.06.35.11.65.17.94.05.31.11.61.17.97l.03.13c.07.29.18.73.32.99.4.79,1.04,1.2,1.47,1.48l.11.07c.98.63,1.36,1.34,1.16,2.16-.08.35-.37.69-.79.92-.4.21-.86.32-1.35.32-.4,0-.82-.07-1.23-.22-.07-.03-.11-.11-.09-.18.03-.08.11-.12.19-.09.82.3,1.7.26,2.34-.08.35-.2.59-.46.65-.74.17-.68-.17-1.29-1.04-1.85l-.11-.07c-.42-.28-1.13-.74-1.57-1.59-.15-.29-.26-.75-.34-1.05l-.03-.14c-.06-.37-.12-.67-.18-.98-.05-.29-.11-.59-.17-.95-.01-.08.04-.15.12-.16ZM349.92,42.91c-.54,0-1.08-.1-1.6-.28-1.3-.44-2.18-1.32-2.77-2.16-.73-1.07-1-2.1-1.03-2.22.95.61,2.47,1.4,4.48,1.81,2.92.59,5.34.04,6.55-.34-1.28,2.1-3.49,3.26-5.63,3.19ZM356.69,21.97c-.9.15-1.76-.46-1.91-1.37l-.1-.57c-.15-.9.47-1.76,1.37-1.91.09-.02.18-.02.27-.02.8,0,1.51.57,1.64,1.39l.1.57c.15.9-.47,1.76-1.37,1.91ZM358.31,14.85c-.66.04-2.08.22-3.53,1.2-1.15.77-1.79,1.72-2.11,2.26-.73.07-1.42.01-1.67-.39-.48-.78.85-2.58,2.21-3.6,2-1.51,4.94-2,5.5-1.13.16.25.18.72-.4,1.66Z"/>
          <path class="cls-11" d="M324.63,32.24h0c0,.39-.05.67-.18.72-.28.12-.96-.74-1.22-1.59-.34-1.15.08-2.41.4-2.48.01-.01.02-.01.03-.01.42,0,.96,2.18.97,3.36Z"/>
          <path class="cls-14" d="M358.31,14.85c-.66.04-2.08.22-3.53,1.2-1.15.77-1.79,1.72-2.11,2.26-.73.07-1.42.01-1.67-.39-.48-.78.85-2.58,2.21-3.6,2-1.51,4.94-2,5.5-1.13.16.25.18.72-.4,1.66Z"/>
          <path class="cls-9" d="M340.59,24.66c-.9.15-1.76-.47-1.91-1.37l-.1-.57c-.15-.9.47-1.77,1.37-1.92.09-.02.18-.02.27-.02.8,0,1.51.58,1.64,1.39l.1.57c.15.9-.47,1.77-1.37,1.92Z"/>
          <path class="cls-9" d="M356.69,21.97c-.9.15-1.76-.46-1.91-1.37l-.1-.57c-.15-.9.47-1.76,1.37-1.91.09-.02.18-.02.27-.02.8,0,1.51.57,1.64,1.39l.1.57c.15.9-.47,1.76-1.37,1.91Z"/>
          <path class="cls-9" d="M352.58,32.63c-.08.35-.37.69-.79.92-.4.21-.86.32-1.35.32-.4,0-.82-.07-1.23-.22-.07-.03-.11-.11-.09-.18.03-.08.11-.12.19-.09.82.3,1.7.26,2.34-.08.35-.2.59-.46.65-.74.17-.68-.17-1.29-1.04-1.85l-.11-.07c-.42-.28-1.13-.74-1.57-1.59-.15-.29-.26-.75-.34-1.05l-.03-.14c-.06-.37-.12-.67-.18-.98-.05-.29-.11-.59-.17-.95-.01-.08.04-.15.12-.16.08-.02.15.04.17.12.06.35.11.65.17.94.05.31.11.61.17.97l.03.13c.07.29.18.73.32.99.4.79,1.04,1.2,1.47,1.48l.11.07c.98.63,1.36,1.34,1.16,2.16Z"/>
          <path class="cls-21" d="M355.55,39.72c-1.28,2.1-3.49,3.26-5.63,3.19-.54,0-1.08-.1-1.6-.28-1.3-.44-2.18-1.32-2.77-2.16-.73-1.07-1-2.1-1.03-2.22.95.61,2.47,1.4,4.48,1.81,2.92.59,5.34.04,6.55-.34Z"/>
          <path class="cls-14" d="M341.82,17.53c-.66.04-2.09.21-3.53,1.19-1.15.78-1.8,1.72-2.12,2.27-.72.07-1.41.01-1.66-.4-.48-.78.85-2.57,2.2-3.59,2-1.51,4.95-2,5.5-1.13.17.25.19.71-.39,1.66Z"/>
          <path class="cls-20" d="M352.65,55.62c0,1.48,0,2.95,0,4.42h0c-3.71-3.3-7.4-6.58-11.11-9.86.18.04.36.09.55.13.19.05.38.09.59.13.31.06.65.12,1,.17.61.1,1.26.17,1.95.21.23.02.47.03.71.03.33.02.66.03,1.01.02h.17c.13,0,.26-.01.39-.02.87-.02,1.68-.1,2.42-.22.28-.03.55-.08.8-.13.56-.1,1.06-.21,1.52-.33,0,0,.02-.01.03-.01-.02,1.8-.03,3.62-.03,5.46Z"/>
        </g>
        <g id="Haare">
          <path class="cls-7" d="M364.44,18.96c0,.09-.08.34-.14.64h0s-.01.03-.01.03c0,.02-.02.02-.03,0-.26-.3-1.42-5.09-3.3-8.62-.41-.78-.65-1.37-1.03-1.99-.28-.46-.53-.82-.75-1.11.02,0,.03-.02.04-.04-.32-.41-.66-.81-1.03-1.19.28.37.59.7.99,1.23-4.66,5.42-18.05,6.81-27.96,4.63-1.16,1.87-2.76,4.07-2.74,7.29.02,4.44,2.31,8.46,2.57,8.71-.13-.09-1.19-.76-3.07-1.53-.25-.1-.52-.2-.8-.31-1.87-.7-2.95-.89-3.74-1.01-.24.06-.46.14-.68.24-.23-.92-.4-1.86-.5-2.79-.41-2.19-.94-5.23-.98-6.33-.05-1.23,0-5.02,1.35-7.84-1.07-.83-1.89-1.77-2.4-2.81-.14-.29-1.63-3.34-.34-5.28.26-.4.59-.68.99-.88h39.75c.44,1.59.46,3.25.16,4.66h0c.84,1.5,1.65,3.22,2.18,4.51,0,0,1.34,3.27,1.47,9.79Z"/>
        </g>
      </g>
    </g>
    <g id="Person_1" data-name="Person 1">
      <g id="Hose-2" data-name="Hose">
        <path class="cls-1" d="M322.52,200h-56.42c-.51-.8-1.07-1.58-1.67-2.32-1.25-1.55-2.66-3-4.19-4.37-6.99-6.24-16.4-10.56-23.52-13.24-4.01-1.51-7.29-2.5-9-3.02-.33-.1-.78-.23-1.31-.4-.87-.29-1.99-.68-3.26-1.22-2.77-1.2-6.27-3.12-9.55-6.22-1.49-1.41-2.56-2.71-3.22-3.58-.11-1.77-.23-3.55-.34-5.32-.08-1.26-.17-2.51-.25-3.77-.25-3.81-.49-7.63-.74-11.44,10.22.33,18.56-1.51,23.99-3.17,1.2,1.91,2.77,4.14,4.83,6.41,2.4,2.65,5.45,5.35,9.3,7.58,3.64,2.11,6.62,2.78,11.32,4.39.67.23,1.37.47,2.12.75,10.83,3.97,16.26,5.53,23.11,8.5,4.32,1.87,8.64,3.75,12.81,5.87,1.58.8,3.14,1.64,4.67,2.53,1.02.58,2.04,1.2,3.03,1.84,4.89,3.14,9.37,6.88,13.17,11.71,1.03,1.32,1.97,2.66,2.8,4.05.87,1.43,1.63,2.91,2.32,4.44Z"/>
        <path class="cls-13" d="M266.1,200h-84.94c-1.21-.76-2.39-1.58-3.53-2.48-.4-.3-.78-.61-1.16-.94-3.18-2.67-5.98-5.93-7.98-9.89-.48-.95-2.31-4.69-2.96-10.04-.05-.4-.09-.81-.13-1.22-.1-1.3-.13-2.67-.06-4.12.08-1.55.27-3.05.56-4.49.22-1.15.51-2.26.86-3.34.35-1.1.75-2.15,1.2-3.17,4.78-10.94,14.67-17.6,18.05-19.63,2.44.89,5.18,1.73,8.18,2.44,4.64,1.09,8.91,1.63,12.63,1.85.74.04,1.49.09,2.23.13.25,3.81.49,7.63.74,11.44.08,1.26.17,2.51.25,3.77.11,1.77.23,3.55.34,5.32.66.87,1.73,2.17,3.22,3.58,3.28,3.1,6.78,5.02,9.55,6.22,1.27.54,2.39.93,3.26,1.22.53.17.98.3,1.31.4,1.71.52,4.99,1.51,9,3.02,7.12,2.68,16.53,7,23.52,13.24,1.53,1.37,2.94,2.82,4.19,4.37.6.74,1.16,1.52,1.67,2.32Z"/>
      </g>
      <g id="Fernglas">
        <path class="cls-24" d="M241.21,31.65c-.31.55-.62,1.22-.87,2-1.44-.04-2.87-.08-4.31-.11.29-1.04.69-1.87,1.02-2.48,1.39.2,2.77.4,4.16.59Z"/>
        <path class="cls-10" d="M256.2,30.89c-.32.55-.65,1.18-.96,1.88-4.54-.17-9.08-.35-13.61-.52-.03.04-.05.08-.08.12-.25.36-.53.79-.81,1.29-.11.19-.23.4-.35.61h0c-.09.04-.18.08-.27.12-1.38.67-2.64,2.24-3.6,3.75-.5.79-.93,1.56-1.24,2.17h0c-.35.68-.57,1.15-.63,1.27-.48.9-1.4,2.81-1.93,5.46-2.53-.91-5.05-1.83-7.57-2.74-.58-.22-1.17-.43-1.75-.64-.09-.36-.19-.83-.26-1.39-.15-1.15-.19-2.67.19-4.39.03-.13.06-.26.1-.38.3-1.22.74-2.24,1.18-3.03.16-.29.32-.55.47-.78.1-.16.19-.29.28-.42.68.02,1.36.04,2.05.05,2,.05,4,.11,6.01.15.36.01.73.02,1.09.03.51.01,1.01.02,1.52.04,1.44.03,2.87.07,4.31.11.25-.78.56-1.45.87-2,.24-.45.48-.82.68-1.11l7.5.18c2.27.06,4.54.12,6.81.17Z"/>
        <path class="cls-24" d="M224.61,34.47c-.44.79-.88,1.81-1.18,3.03-.04.12-.07.25-.1.38-.38,1.72-.34,3.24-.19,4.39-1.46-.34-2.93-.68-4.39-1.02-.12-.87-.19-2.08.04-3.51.02-.1.04-.21.06-.31.02-.11.04-.22.06-.32.13-.58.29-1.11.46-1.58h0c.25-.69.53-1.25.78-1.7,1.49.22,2.97.43,4.46.64Z"/>
        <path class="cls-2" d="M277.55,30.41c-.11-.02-.22-.04-.33-.04h0c-6.73-.27-13.46-.53-20.19-.79-.25.37-.53.81-.83,1.31-.32.55-.65,1.18-.96,1.88-4.54-.17-9.08-.35-13.61-.52-.03.04-.05.08-.08.12-.25.36-.53.79-.81,1.29-.11.19-.23.4-.35.61.27-.1.55-.17.84-.2.25-.02.5,0,.76.05,1.25.26,1.99,1.37,2.14,1.6.25.4.83,1.48-.18,5.89-.05.2-.1.42-.15.64-.71,2.94-1.25,4.36-1.22,4.95.1,2.22,1.5,4,2.82,5.25-.09.16-.18.33-.28.5,4.53,1.57,9.05,3.14,13.58,4.72h0c.11.03.23.06.35.08,2.49.47,5.23-2.44,6.93-6.93,2.31.81,4.62,1.61,6.93,2.41h0c.11.03.21.06.32.08,2.99.56,6.37-4.11,7.56-10.43,1.2-6.33-.26-11.91-3.24-12.47ZM266.14,46.34c-.06.33-.13.65-.21.97,0,.04-.01.09-.03.13-.06.28-.13.55-.21.81-.02.09-.05.17-.07.26-.07.22-.13.43-.21.64-.05.16-.11.31-.16.47-.05.13-.1.26-.15.39-.06.15-.12.3-.18.45-.13.3-.26.6-.4.88-.01.02-.02.05-.04.07-.04.09-.09.19-.14.27-.04.09-.09.18-.14.26-.06.12-.12.24-.2.35-.06.11-.12.22-.2.33-.13.22-.27.42-.42.62-.14.2-.28.39-.44.56-.07.09-.14.17-.22.25-.07.09-.15.17-.23.24-.18.19-.36.35-.55.49-.11.09-.22.17-.34.24-.11.08-.22.15-.33.2-.12.06-.23.12-.35.16-.18.08-.36.13-.55.16-.06.02-.13.03-.19.03-.09.01-.19.02-.28.02-.15,0-.29,0-.44-.04-.11-.02-.23-.05-.34-.09-.11-.04-.22-.09-.33-.15-.21-.11-.42-.26-.61-.43-.19-.18-.37-.39-.53-.62-.11-.15-.21-.32-.3-.49-.02-.03-.04-.06-.05-.1-.09-.16-.17-.34-.25-.53s-.16-.39-.23-.59c-.06-.22-.13-.45-.19-.68-.08-.3-.15-.63-.2-.96-.02-.15-.05-.31-.07-.47-.01-.09-.02-.19-.03-.29-.03-.23-.05-.46-.06-.7-.01-.1-.02-.21-.02-.32-.01-.12-.01-.25-.01-.39-.01-.13-.01-.26-.01-.39,0-.3,0-.6.02-.91h0c.01-.18.02-.36.04-.54.01-.17.03-.36.05-.54,0-.05,0-.1,0-.15.02-.22.06-.45.09-.69.04-.32.1-.65.16-.98,1.01-5.33,3.78-9.33,6.32-9.25.12.01.24.02.36.04,2.63.5,3.91,5.43,2.86,11.01ZM279.83,42.69c-.98,5.2-3.76,9.03-6.21,8.57-.11-.02-.22-.05-.32-.09-2.23-.79-3.28-5.19-2.34-10.15.93-4.96,3.51-8.68,5.87-8.6.12,0,.23.01.34.04,2.44.46,3.64,5.04,2.66,10.23Z"/>
        <path class="cls-12" d="M279.83,42.69c-.98,5.2-3.76,9.03-6.21,8.57-.11-.02-.22-.05-.32-.09-2.23-.79-3.28-5.19-2.34-10.15.93-4.96,3.51-8.68,5.87-8.6.12,0,.23.01.34.04,2.44.46,3.64,5.04,2.66,10.23Z"/>
        <path class="cls-12" d="M266.14,46.34c-.06.33-.13.65-.21.97,0,.04-.01.09-.03.13-.06.28-.13.55-.21.81-.02.09-.05.17-.07.26-.07.22-.13.43-.21.64-.05.16-.11.31-.16.47-.05.13-.1.26-.15.39-.06.15-.12.3-.18.45-.13.3-.26.6-.4.88-.01.02-.02.05-.04.07-.04.09-.09.19-.14.27-.04.09-.09.18-.14.26-.06.12-.13.24-.2.35-.06.11-.13.23-.2.33-.14.22-.28.43-.42.62-.14.2-.29.39-.44.56-.07.09-.14.17-.22.25-.07.09-.15.17-.23.24-.18.19-.36.35-.55.49-.11.09-.22.17-.34.24-.11.08-.22.15-.33.2-.12.06-.23.12-.35.16-.18.08-.36.13-.55.16-.06.02-.13.03-.19.03-.09.01-.19.02-.28.02-.15,0-.29,0-.44-.04-.11-.02-.23-.05-.34-.09-.11-.04-.22-.09-.33-.15-.21-.11-.42-.26-.61-.43-.19-.18-.36-.39-.53-.62-.11-.15-.21-.32-.3-.49-.02-.03-.04-.06-.05-.1-.09-.16-.17-.34-.25-.53s-.16-.39-.23-.59c-.06-.22-.13-.45-.19-.68-.08-.3-.15-.63-.2-.96-.02-.15-.05-.31-.07-.47-.01-.09-.02-.19-.03-.29-.03-.23-.05-.46-.06-.7-.01-.1-.02-.21-.02-.32-.01-.12-.01-.25-.01-.39-.01-.13-.01-.26-.01-.39,0-.3,0-.6.02-.91h0c.01-.18.02-.36.04-.54.01-.17.03-.36.05-.54,0-.05,0-.1,0-.15.02-.22.06-.45.09-.69.04-.32.1-.65.16-.98,1.01-5.33,3.78-9.33,6.32-9.25.12.01.24.02.36.04,2.63.5,3.91,5.43,2.86,11.01Z"/>
      </g>
      <g id="Arme-2" data-name="Arme">
        <path class="cls-23" d="M318.88,152.19c-.25,1.24-1.33,2.02-1.56,2.17-.04.03-.09.06-.15.09-1.61.89-5.55-.04-6.26-.21-.31-.08-.66-.16-1.06-.25-1.02-.24-2.31-.52-3.83-.82-.9,0-1.81.01-2.71.01-.97,0-1.93,0-2.9.01-.79.03-1.75,0-2.82-.17-.76-.12-1.45-.29-2.07-.48h-.01c-7.28-.06-14.55-.12-21.83-.17-4.12-.03-8.23-.07-12.35-.1-.65.02-1.86-.04-3.2-.62-.12-.05-.25-.11-.37-.17-.22-.12-.88-.46-1.61-1.12-.12-.1-.23-.21-.34-.33-.27-.25-.52-.55-.76-.88-.79-1.01-1.3-2.04-1.59-2.62-.25-.49-1.02-2.13-1.85-4.13-.13-.32-.24-.59-.31-.76-.04-.07-.07-.16-.09-.23-4.19-9.86-8.37-19.71-12.54-29.57l18.91-6.37c3.08,10.34,5.96,20.75,9.22,31.04.15.48.31.97.46,1.46,2.12.28,4.27.58,6.42.91,3.45.51,6.94,1.08,10.46,1.7,4.72.83,9.33,1.72,13.82,2.67,1.29-.15,2.88-.15,4.79-.15.98,0,1.9.07,2.75.19,2.47.34,4.36,1.08,5.47,1.59.2.09.37.18.52.25.49.25,8.12,3.38,7.39,7.06Z"/>
        <path class="cls-23" d="M245.4,52.45c-.09.16-.18.33-.28.5-.43.77-.89,1.55-1.38,2.36-.88,1.44-1.77,2.77-2.64,4-.3,3.34-.65,6.77-1.08,10.3-.02.2-.05.41-.08.62-.34,2.76-.72,5.57-1.15,8.43-.29,1.95-.6,3.86-.92,5.75-.23,1.38-.47,2.74-.72,4.08,0,.01-.01.03-.01.04v.02c-.84,4.61-1.75,9.04-2.72,13.26-.07.32-.15.65-.22.97-.01.03-.02.07-.03.1.12,1.91-.36,3.72-1.28,5.17h0c-.33.54-.72,1.03-1.17,1.44-1.01.98-2.29,1.64-3.73,1.83-.65.08-1.29.07-1.93-.05,0,0-.17-.03-.26-.04-5.9-1.12-11.8-2.25-17.7-3.38-.34-.06-.68-.13-1.02-.19-2.83-.54-5.67-1.09-8.51-1.63l3.62-18.66c1.68.5,3.35,1,5.02,1.51.14.04.27.08.41.13,4.39,1.31,8.79,2.64,13.18,3.97.95-2.81,1.89-5.61,2.84-8.42h0c.95-2.8,1.89-5.57,2.83-8.36.31-.9.61-1.8.92-2.7h0c.39-1.19.79-2.36,1.19-3.54.09-.27.18-.54.28-.81,1.32-3.93,2.65-7.85,3.98-11.78-.05-.01-.1-.02-.15-.03-.3-.9-.4-2.04-.41-3.44h0c-.02-1.02,0-2.17.05-3.46.04-1.23.18-2.37.39-3.4.53-2.65,1.45-4.56,1.93-5.46.06-.12.28-.59.63-1.26h0c.31-.62.74-1.39,1.24-2.18.96-1.51,2.22-3.08,3.6-3.75.09-.04.18-.08.27-.11h0c.27-.11.55-.18.84-.21.25-.02.5,0,.76.05,1.25.26,1.99,1.37,2.14,1.6.25.4.83,1.48-.18,5.89-.05.2-.1.42-.15.64-.71,2.94-1.25,4.36-1.22,4.95.1,2.22,1.5,4,2.82,5.25Z"/>
      </g>
      <g id="Gesicht-2" data-name="Gesicht">
        <path class="cls-23" d="M227.33,32.24l-.34-1.61c-.42-1.96-2.11-3.35-4.03-3.46l-.04-.13s-.04-.01-.06-.01c-1.66-4.45-3.87-6.28-5.59-7.13-1.91-.94-3.91-1.01-6.36-2.9-1.29-.99-2.14-2.05-2.65-2.77-.26.62-1.2,2.72-3.49,5.25-5.58,6.13-9.25,4.95-11.99,9.63-1.95,3.34-2.15,5.44-3.12,7.13-.03,0-.14-.17-.38-.45-.13-.16-.3-.35-.51-.56-.15-.15-.33-.32-.53-.47-.08-.07-.16-.13-.25-.18-.08-.06-.17-.12-.26-.17-.09-.06-.18-.11-.28-.16-.12-.06-.24-.12-.38-.17-.13-.06-.27-.11-.41-.15-.07-.03-.14-.05-.22-.06h-.01s-.11-.03-.17-.04c-.01-.01-.03-.01-.05,0-.15-.03-.31-.05-.47-.06-.14-.01-.29-.02-.43-.02h-.12c-.11,0-.22.01-.33.02-.1,0-.19.03-.29.04-.21.04-.43.1-.65.17-.09.03-.18.06-.28.1-.07.03-.14.06-.21.1-1.51.72-2.54,2.28-2.5,4.06l.04,1.64c.06,2.41,2.08,4.33,4.49,4.27.41-.01.81-.08,1.19-.2,2.08,5.08,5.94,9,10.61,11.27-.11.54-.15,1.09-.14,1.66l.37,14.81c-2.35.29-4.64.59-6.88.92,1.85,1.14,4.34,2.36,7.38,3.11.67.17,1.36.31,2.08.42.13.03.25.05.38.06.16.03.31.05.47.07,2.45.31,4.62.22,6.38,0,.2-.02.41-.04.63-.07,1.3-.17,2.95-.48,4.78-1.1,1.67-.56,3.48-1.39,5.3-2.58,1.24-.81,2.29-1.67,3.16-2.5-2.68.05-5.44.16-8.26.32v-.62s-.11-3.68-.11-3.68h0c-3.61-3.05-7.24-6.1-10.85-9.14,1.44.33,3.4.63,5.73.52,1.03-.05,1.98-.17,2.83-.33.21-.03.41-.07.62-.12.22-.04.43-.09.63-.14.27-.06.53-.13.8-.21.29-.08.57-.17.86-.26,5.85-1.9,10.08-6.55,11.73-12.06-.58-.22-1.17-.43-1.75-.64-.09-.36-.19-.83-.26-1.39-1.46-.34-2.93-.68-4.39-1.02-.12-.87-.19-2.08.04-3.51.02-.1.04-.21.06-.31.02-.11.04-.22.06-.32.13-.58.29-1.11.46-1.58h0c.25-.69.53-1.25.78-1.7,1.49.22,2.97.43,4.46.64.16-.29.32-.55.47-.78.1-.16.19-.29.28-.42.68.02,1.36.04,2.05.05.03-.35,0-.72-.08-1.08ZM185.21,40.86c-.26.12-.94-.68-1.2-1.49-.35-1.09.02-2.3.32-2.39.01-.01.02-.01.03-.01.41,0,.97,2.07,1,3.19v.02c.02.37-.03.63-.15.68ZM200.43,32.54c-.85.16-1.69-.4-1.86-1.26l-.1-.55c-.17-.85.4-1.69,1.26-1.86.1-.02.19-.03.29-.03.74,0,1.42.54,1.57,1.29l.1.55c.17.86-.4,1.69-1.26,1.86ZM211.09,48.69c-.54.18-1.09.28-1.66.28-.73,0-1.48-.15-2.25-.45-1.26-.49-2.52-1.37-3.74-2.61-.06-.06-.06-.15,0-.2.06-.06.14-.06.2,0,1.2,1.21,2.42,2.07,3.65,2.55,1.3.51,2.56.56,3.71.16.07-.03.15.01.18.09.02.07-.01.15-.09.18ZM212.08,39.87c-.07.34-.34.66-.74.89-.39.23-.86.35-1.36.35-.35,0-.73-.06-1.1-.18-.07-.03-.11-.11-.09-.18.02-.08.1-.12.18-.09.8.26,1.63.21,2.23-.14.33-.19.55-.45.61-.71.14-.66-.2-1.23-1.04-1.74l-.11-.07c-.41-.25-1.1-.67-1.54-1.48-.15-.28-.27-.72-.35-1.01l-.03-.12c-.07-.35-.13-.63-.19-.92-.06-.28-.12-.57-.19-.91-.01-.08.04-.15.11-.16.08-.02.15.03.17.11.06.34.12.62.18.91.07.28.13.57.19.91l.03.11c.08.28.19.7.33.95.41.74,1.03,1.12,1.44,1.37l.11.07c.93.57,1.33,1.26,1.16,2.04ZM215.75,29.59c-.86.16-1.7-.4-1.87-1.26l-.1-.55c-.17-.85.4-1.69,1.26-1.86.1-.02.2-.03.29-.03.75,0,1.42.53,1.57,1.29l.1.55c.17.85-.4,1.69-1.25,1.86Z"/>
        <path class="cls-20" d="M212.8,66.04h0c-3.61-3.05-7.24-6.1-10.85-9.14,1.44.33,3.4.63,5.73.52,1.03-.05,1.98-.17,2.83-.33.22-.03.42-.07.62-.12.22-.04.43-.09.63-.14.28-.06.55-.13.8-.2.01,0,.03-.01.04-.01.02,1.72.05,3.46.1,5.21.02.72.03,1.44.05,2.16.02.69.05,1.37.07,2.06t-.02-.01Z"/>
        <path class="cls-14" d="M217.14,23.5c-.62-.08-1.99-.18-3.52.48-1.22.53-2,1.3-2.4,1.75-.69-.07-1.33-.25-1.49-.67-.31-.82,1.26-2.26,2.71-2.97,2.15-1.06,5-1,5.37-.08.11.26.04.7-.67,1.49Z"/>
        <path class="cls-14" d="M202.17,26.92c-.6-.11-1.68-.22-2.96.13-1.61.45-2.62,1.38-3.05,1.83-1.05-.17-1.38-.47-1.46-.74-.29-.95,1.9-2.78,4.23-3.3,1.58-.35,3.71-.21,3.98.62.14.43-.24.97-.74,1.46Z"/>
        <path class="cls-11" d="M185.37,40.18c.01.37-.04.63-.16.68-.26.12-.94-.68-1.2-1.49-.35-1.09.02-2.3.32-2.39.01-.01.02-.01.03-.01.41,0,.97,2.07,1,3.19v.02Z"/>
        <path class="cls-9" d="M211.18,48.51c.02.07-.01.15-.09.18-.54.18-1.09.28-1.66.28-.73,0-1.48-.15-2.25-.45-1.26-.49-2.52-1.37-3.74-2.61-.06-.06-.06-.15,0-.2.06-.06.14-.06.2,0,1.2,1.21,2.42,2.07,3.65,2.55,1.3.51,2.56.56,3.71.16.07-.03.15.01.18.09Z"/>
        <path class="cls-9" d="M200.43,32.54c-.85.16-1.69-.4-1.86-1.26l-.1-.55c-.17-.85.4-1.69,1.26-1.86.1-.02.19-.03.29-.03.74,0,1.42.54,1.57,1.29l.1.55c.17.86-.4,1.69-1.26,1.86Z"/>
        <path class="cls-9" d="M215.75,29.59c-.86.16-1.7-.4-1.87-1.26l-.1-.55c-.17-.85.4-1.69,1.26-1.86.1-.02.2-.03.29-.03.75,0,1.42.53,1.57,1.29l.1.55c.17.85-.4,1.69-1.25,1.86Z"/>
        <path class="cls-9" d="M212.08,39.87c-.07.34-.34.66-.74.89-.39.23-.86.35-1.36.35-.35,0-.73-.06-1.1-.18-.07-.03-.11-.11-.09-.18.02-.08.1-.12.18-.09.8.26,1.63.21,2.23-.14.33-.19.55-.45.61-.71.14-.66-.2-1.23-1.04-1.74l-.11-.07c-.41-.25-1.1-.67-1.54-1.48-.15-.28-.27-.72-.35-1.01l-.03-.12c-.07-.35-.13-.63-.19-.92-.06-.28-.12-.57-.19-.91-.01-.08.04-.15.11-.16.08-.02.15.03.17.11.06.34.12.62.18.91.07.28.13.57.19.91l.03.11c.08.28.19.7.33.95.41.74,1.03,1.12,1.44,1.37l.11.07c.93.57,1.33,1.26,1.16,2.04Z"/>
        <g id="Haare-2" data-name="Haare">
          <path class="cls-7" d="M234.51,33.5c-.36-.01-.73-.02-1.09-.03-2.01-.04-4.01-.1-6.01-.15.03-.35,0-.72-.08-1.08l-.34-1.61c-.42-1.96-2.11-3.35-4.03-3.46l-.04-.13s-.04-.01-.06-.01c-1.66-4.45-3.87-6.28-5.59-7.13-1.91-.94-3.91-1.01-6.36-2.9-1.29-.99-2.14-2.05-2.65-2.77-.26.62-1.2,2.72-3.49,5.25-5.58,6.13-9.25,4.95-11.99,9.63-1.95,3.34-2.15,5.44-3.12,7.13-.03,0-.14-.17-.38-.45-.13-.16-.3-.35-.51-.56-.15-.15-.33-.32-.53-.47-.08-.07-.16-.13-.25-.18-.08-.06-.17-.12-.26-.17-.09-.06-.18-.11-.28-.16-.12-.06-.24-.12-.38-.17-.13-.06-.26-.11-.41-.15-.07-.03-.14-.05-.22-.06h-.01s-.11-.03-.17-.04c-.01-.01-.03-.01-.05,0-.15-.04-.31-.06-.47-.06-.14-.02-.28-.03-.43-.02h-.12c-.11-.01-.22,0-.33.02-.1,0-.19.03-.29.04-.21.04-.43.1-.65.17-.09.03-.18.06-.28.1-.07.02-.14.05-.21.08v.02c-1.51.72-2.54,2.28-2.5,4.06l.04,1.64c.06,2.41,2.08,4.33,4.49,4.27.41-.01.81-.08,1.19-.2,2.08,5.08,5.94,9,10.61,11.27-.11.54-.15,1.09-.14,1.66l.37,14.81c-2.35.29-4.64.59-6.88.92-.83-.5-1.52-.99-2.09-1.41-2.64.4-5.39.88-8.21,1.45-2.59.52-5.09,1.08-7.49,1.68-.88-1.83-1.2-3.47-1.31-4.06-1.07-5.51,1.72-7.57,2.43-14.24.76-7.15-2.02-8.81-2.5-16.42-.27-4.3.19-10.59,3.89-18.53,1.12-2.37,5.2-10.21,14.43-14.54,7.26-3.4,13.92-2.86,17.01-2.38,8.3,1.3,13.69,5.75,15.68,7.59,6.34,6.43,10.45,14.09,12.06,21.75Z"/>
          <path class="cls-7" d="M232.72,47.04c-.21,1.03-.35,2.17-.39,3.4-.04,1.29-.07,2.44-.05,3.46-1.87,3.75-4.58,7.09-7.85,9.72-3.48,2.8-7.52,4.27-11.53,6.1,0,0-.1-3.68-.08-3.67-.02-.69-.05-1.37-.07-2.06-.02-.72-.03-1.44-.05-2.16-.05-1.75-.08-3.49-.1-5.21,0,0-.03.01-.04,0,.29-.08.57-.17.86-.26,5.85-1.9,10.08-6.55,11.73-12.06,2.52.91,5.04,1.83,7.57,2.74Z"/>
        </g>
      </g>
      <g id="T-Shirt-2" data-name="T-Shirt">
        <path class="cls-17" d="M228.86,69.15c-.1.27-.19.54-.28.81-.4,1.18-.8,2.35-1.19,3.53h0c-.31.91-.61,1.81-.92,2.71-.94,2.79-1.88,5.56-2.83,8.35h0c-.95,2.82-1.89,5.62-2.84,8.43-4.39-1.33-8.79-2.66-13.18-3.97-.07-2.82-.14-5.65-.21-8.47-.04-1.42-.07-2.85-.11-4.27.2-.02.41-.04.63-.07,1.3-.17,2.95-.48,4.78-1.1,1.67-.56,3.48-1.39,5.3-2.58,1.24-.81,2.29-1.67,3.16-2.5.37-.35.71-.69,1.02-1.02,2.22.05,4.45.1,6.67.15Z"/>
        <path class="cls-17" d="M259.03,104.98l-1.45.49-18.91,6.37-.8.27-2.84.95c-.13,1.4-.28,3.04-.43,4.9-.7,8.25-1.2,16.24-1.56,23.97-5.43,1.66-13.77,3.5-23.99,3.17v-.02c0-.12-.01-.23-.01-.35-.04-1.46-.07-2.91-.11-4.37-.27-10.84-.55-21.67-.83-32.51,5.9,1.13,11.8,2.26,17.7,3.38.09.01.26.04.26.04.64.12,1.28.13,1.93.05,1.44-.19,2.72-.85,3.73-1.83.45-.41.84-.9,1.17-1.43h0c.92-1.46,1.4-3.27,1.28-5.18.01-.03.02-.07.03-.1.07-.32.15-.65.22-.97.97-4.22,1.88-8.65,2.72-13.26v-.02s.01-.03.01-.04c.25-1.34.49-2.7.72-4.08.32-1.89.63-3.8.92-5.75.43-2.86.81-5.67,1.15-8.43.03-.21.06-.42.08-.62,4.58.98,8.54,4.27,10.13,9l8.88,26.37Z"/>
        <path class="cls-16" d="M209.05,145.1c-.49-.03-.91-.05-1.24-.07-.41-.02-.75-.04-1.21-.07-.24-.02-.48-.03-.72-.05-.35-.03-.7-.05-1.06-.08-.36-.03-.72-.07-1.08-.1-.37-.04-.74-.08-1.11-.12-.38-.04-.75-.09-1.13-.14-.39-.05-.77-.11-1.15-.16-.39-.06-.78-.12-1.18-.18-.4-.07-.8-.14-1.2-.21-.41-.07-.81-.15-1.22-.23-.41-.08-.83-.17-1.24-.26-.42-.09-.84-.19-1.26-.28-.02,0-.04,0-.06-.01-3-.71-5.74-1.55-8.18-2.44-.4-.15-.79-.29-1.17-.44-.35-1.95-.71-3.91-1.09-5.88-.94-4.97-1.94-9.84-2.98-14.61-3.57-5.83-7.13-11.66-10.69-17.49-8.27-10.08-8.86-20.93-4.33-25.11.2-.18.63-.56,1.34-.95.49-.27,1.13-.55,1.92-.77-.01-.04-.01-.08-.01-.12,1.25-.34,2.52-.67,3.82-.98,2.4-.6,4.9-1.16,7.49-1.68,2.82-.57,5.57-1.05,8.21-1.45.57.42,1.26.91,2.09,1.41,1.85,1.14,4.34,2.36,7.38,3.11.67.17,1.36.31,2.08.42-.04.03-.07.05-.11.06h.49c.16.03.31.05.47.07,2.45.31,4.62.22,6.38,0,.04,1.42.07,2.85.11,4.27.07,2.82.14,5.65.21,8.47-.14-.05-.27-.09-.41-.13-1.67-.51-3.34-1.01-5.02-1.51l-3.62,18.66c2.84.54,5.68,1.09,8.51,1.63.34.06.68.13,1.02.19.28,10.84.56,21.67.83,32.51,0,.28.05,2.04.11,4.37,0,.05,0,.32.01.37Z"/>
      </g>
    </g>
    <g id="Tisch_Stühle" data-name="Tisch/Stühle">
      <path class="cls-17" d="M579.02,166.22v3.31c0,3.26-2.65,5.9-5.91,5.9h-15.16v.3c-.02,1.05-.03,2.1-.05,3.15-.09,7.04-.18,14.08-.28,21.12h-11.12c-.1-8.19-.2-16.38-.3-24.57H130.3v.1c-.1,7.33-.2,14.66-.3,21.99-.01.83-.02,1.65-.03,2.48h-11.12c0-.75,0-1.49-.02-2.24-.09-7.44-.19-14.89-.28-22.33h-17.3c-3.26,0-5.9-2.64-5.9-5.9v-3.31c0-3.26,2.64-5.91,5.9-5.91h329.52c-.12.1-.22.2-.33.31-1.4,1.39-2.26,3.31-2.26,5.43h91.68c0-2.28-1-4.33-2.58-5.74h55.83c3.26,0,5.91,2.65,5.91,5.91Z"/>
      <g id="Stühle">
        <path class="cls-19" d="M311.99,108.33c-.02.13-.03.26-.04.38l.15-.06c-.03-.11-.07-.21-.11-.32ZM307.86,110.24l-9.74-25.93c-.45-1.4-1.36-4.7-.69-8.11h-19.3c-2.44,0-4.45,2-4.45,4.44v58.24c3.45.51,6.94,1.08,10.46,1.7,4.72.83,9.33,1.72,13.82,2.67,1.29-.15,2.88-.15,4.79-.15.98,0,1.9.07,2.75.19.44-2.06.88-4.17,1.32-6.32,2.71-13.23,4.28-21.08,5.13-28.26l-4.09,1.53ZM300.41,153.19c-.79.03-1.75,0-2.82-.17-.76-.12-1.45-.29-2.07-.48h-.01c-7.28-.06-14.55-.12-21.83-.17v4.83c0,1.21.49,2.31,1.28,3.11.81.83,1.94,1.34,3.17,1.34h23.18c.11-.44.22-.89.33-1.34.54-2.28,1.1-4.66,1.67-7.13-.97,0-1.93,0-2.9.01ZM378.66,77.47c0,.27,0,.55.01.85.24-.08.43-.11.6-.12-.18-.26-.38-.5-.61-.73Z"/>
        <path class="cls-19" d="M184.84,140.24c.38.15.77.29,1.17.44-3.38,2.03-13.27,8.69-18.05,19.63h-34.77c-2.46,0-4.47-2.01-4.47-4.47v-75.17c0-2.46,2.01-4.47,4.47-4.47h33.9c-.71.39-1.14.77-1.34.95-4.53,4.18-3.94,15.03,4.33,25.11,3.56,5.83,7.12,11.66,10.69,17.49,1.04,4.77,2.04,9.64,2.98,14.61.38,1.97.74,3.93,1.09,5.88Z"/>
        <path class="cls-19" d="M237.87,112.11v36.23c-2.06-2.27-3.63-4.5-4.83-6.41.36-7.73.86-15.72,1.56-23.97.15-1.86.3-3.5.43-4.9l2.84-.95Z"/>
        <path class="cls-19" d="M181.16,200h-64.37c.28-1.03,1.05-1.87,2.04-2.24.38-.16.79-.24,1.23-.24h57.57c1.14.9,2.32,1.72,3.53,2.48Z"/>
      </g>
    </g>
    <g id="PC">
      <path class="cls-1" d="M519.86,166.05h-91.68c0-2.12.86-4.04,2.26-5.43.11-.11.21-.21.33-.31,1.35-1.22,3.14-1.95,5.1-1.95h27.23c.97-6.17,1.93-12.35,2.88-18.55.53-3.47,1.06-6.94,1.59-10.42,1.93-12.75,3.82-25.43,5.65-38.05h12.57c-.46,12.75-.9,26.71-1.29,39.58-.09,2.97-.18,5.93-.26,8.89-.19,6.2-.37,12.38-.53,18.55h28.46c1.97,0,3.76.73,5.11,1.95,1.58,1.41,2.58,3.46,2.58,5.74Z"/>
      <path class="cls-13" d="M546.19,55.16l-6.17,84.65h-55.78c.08-2.96.17-5.92.26-8.89.39-12.87.83-26.83,1.29-39.58h-12.57c-.9,6.22-1.82,12.46-2.75,18.72-.44,2.94-.88,5.89-1.32,8.85-.52,3.49-1.05,6.98-1.58,10.48-.53,3.48-1.06,6.95-1.59,10.42h-53.94l.05-.71,1.27-17.41,4.86-66.53h127.97Z"/>
    </g>
  </g>
</svg>