<?xml version="1.0" encoding="UTF-8"?>
<svg id="G-0009_x5F_BUW_x5F_Header_x5F_Ende" xmlns="http://www.w3.org/2000/svg" viewBox="0 0 1050 200">
  <defs>
    <style>
      .cls-1 {
        fill: #bfe3f3;
      }

      .cls-2 {
        fill: #e4bfa3;
      }

      .cls-3 {
        fill: #fb8e40;
      }

      .cls-4 {
        fill: #40acdb;
      }

      .cls-5 {
        fill: #80c8e7;
      }

      .cls-6 {
        fill: #481f05;
      }

      .cls-7 {
        fill: #f96800;
      }

      .cls-8 {
        fill: #673605;
      }

      .cls-9 {
        fill: #fff;
      }

      .cls-10 {
        fill: #942c69;
      }

      .cls-11 {
        fill: #c995b4;
      }

      .cls-12 {
        fill: #e3bc8c;
      }

      .cls-13 {
        fill: #ffd8b9;
      }

      .cls-14 {
        fill: #af618e;
      }

      .cls-15 {
        fill: #bf7a3e;
      }

      .cls-16 {
        fill: #e5e6e5;
      }

      .cls-17 {
        fill: #cbcbcb;
      }

      .cls-18 {
        fill: #e5c0a4;
      }

      .cls-19 {
        fill: #0090ce;
      }
    </style>
  </defs>
  <g id="Hintergrund">
    <rect class="cls-1" x="-8.96" y="-2.4" width="1067.91" height="205.01"/>
  </g>
  <g>
    <g id="Person_6.">
      <g>
        <g id="Körper">
          <path class="cls-15" d="M663.93,202.66c.46-4.58.88-9.23,1.23-13.97,1.04-13.84,1.55-27.15,1.64-39.82,0-.91,0-1.81,0-2.72,0-9.43-.2-18.52-.59-27.21-.14-2.97-.29-5.9-.46-8.77,2.06-.55,4.28-1.1,6.64-1.61,3.68-.83,7.72-1.59,12.05-2.22,3.9-.57,8.06-1.03,12.45-1.34,3.5-.23,7.14-.38,10.92-.38,2.94,0,5.8.07,8.57.21,3.4.17,6.68.44,9.81.79,7.25.8,13.77,2.01,19.39,3.33,1.7.39,3.3.8,4.84,1.2-.09,1.88-.16,3.79-.23,5.71-.28,8.12-.37,16.7-.17,25.69.07,3.22.16,6.47.31,9.8.41,9.83,1.17,20.11,2.33,30.78.78,7.06,1.7,13.9,2.71,20.5h-91.43Z"/>
        </g>
        <g id="Arm_links">
          <path class="cls-15" d="M635.16,108.64c-2.88-.84-20.79-6.05-43.01-8.94-4.09-.53-9.81-1.26-13.27,2.27-5.02,5.11-3.85,12.8-1.27,15.66,1.12,1.25,2.64,2.06,2.64,2.06,0,0,.36.21.74.39,17.23,8.21,38.59,15.81,38.59,15.81,25.99,9.25,27.74,10.05,36.52,11.14,4.91.61,15.75-.29,18.87-6.62,3.37-6.83-.63-15.47-3.49-17.84-6.76-5.62-12.91-7.12-36.33-13.92Z"/>
          <path class="cls-3" d="M652.33,99.05h4.72c10.55,0,19.12,8.57,19.12,19.12v36.26h-42.97v-36.26c0-10.55,8.57-19.12,19.12-19.12Z" transform="translate(863.72 -506.51) rotate(97.31)"/>
          <path class="cls-15" d="M615.39,30.22c-.25-.34-.61-.62-1.15-.82-1.8-.66-5.17,2.18-7.97,5.44-1.31,1.53-4.16-3.82-3.3-7.6,1.62-7.11,7.89-10.76,4.91-13.51-3.53-3.24-11.55,3.74-15.37,12.65-2.59,6.04-3.08,11.35-3.07,13.38.01,3.41.6,6.3,1.25,8.51-3.86,8.22-6.82,15.24-8.93,20.51-6.07,15.13-9.75,26.02-8.72,38.05.43,5.06,1.55,8.82,4.57,10.8,3.23,2.12,7.56,1.49,10.29.09,5.22-2.67,8.01-9.88,6.34-17.74,3.7-16.28,7.41-32.56,11.12-48.84,2.34-3.61,4.28-6.4,5.71-8.41,0,0,1.98-2.63,4.08-8.22.54-1.43,1.08-3.14.25-4.27Z"/>
        </g>
        <g id="Arm_rechts">
          <path class="cls-15" d="M783.07,104.51c2.88-.84,20.79-6.05,43.01-8.94,4.09-.53,9.81-1.26,13.27,2.27,5.02,5.11,3.85,12.8,1.27,15.66-1.12,1.25-2.64,2.06-2.64,2.06,0,0-.36.21-.74.39-17.23,8.21-38.59,15.81-38.59,15.81-25.99,9.25-27.74,10.05-36.52,11.14-4.91.61-15.75-.29-18.87-6.62-3.37-6.83.63-15.47,3.49-17.84,6.76-5.62,12.91-7.12,36.33-13.92Z"/>
          <path class="cls-7" d="M760.32,94.9h1.91c11.33,0,20.53,9.2,20.53,20.53v43.11h-42.97v-43.11c0-11.33,9.2-20.53,20.53-20.53Z" transform="translate(857.27 892.48) rotate(-106.6)"/>
          <path class="cls-15" d="M836.48,64.65c-2.07-5.15-4.94-11.98-8.68-19.97.54-2.07.98-4.63.99-7.58,0-2.03-.48-7.34-3.07-13.38-3.82-8.91-11.84-15.89-15.37-12.65-2.98,2.74,3.28,6.39,4.91,13.51.86,3.78-1.99,9.13-3.3,7.6-2.8-3.26-6.17-6.1-7.97-5.44-.53.2-.9.48-1.15.82-.83,1.14-.28,2.84.25,4.27,2.1,5.59,4.08,8.22,4.08,8.22,1.53,2.16,3.64,5.21,6.22,9.21,3.53,15.53,7.07,31.06,10.6,46.59-.28.41-4.5,6.89-1.33,14.06,2.81,6.37,9.13,8.03,9.89,8.22,2.22-.59,6.98-2.21,10-6.64,2.18-3.2,2.54-6.52,2.65-8.78.74-14.52-6.17-31.68-8.72-38.05Z"/>
        </g>
        <g id="Gesicht">
          <path class="cls-6" d="M679.52,38.97c-4.03.1-7.08,3.51-6.85,7.15.2,3.2,2.91,5.97,6.41,6.26-.25.12-5.94,3.01-6.41,9.09-.37,4.81,2.71,9.5,7.6,11.32-.21.57-.99,2.92.15,5.21,1.32,2.65,4.67,4.14,8.2,3.43.61,1.15,2.36,4.1,5.96,5.81,5.86,2.79,11.54-.09,12.22-.45.4.19,8.05,3.64,14.3-.74,3-2.1,4.27-5.02,4.77-6.41.49.02,5.45.13,8.49-3.87,2.11-2.78,2-5.85,1.94-6.71,3.65-2.63,5.3-7.07,4.17-11.03-1.26-4.42-5.41-6.19-5.96-6.41,2.96-2.9,4.07-7.18,2.83-11.03-1.69-5.27-6.87-6.88-7.3-7,.06-.34.74-4.39-2.23-7.3-2.27-2.22-5.73-2.87-8.79-1.64-.36-.73-2.12-4.19-6.11-5.51-3.81-1.27-8.16-.1-11.17,2.98-1.89-1.9-4.73-2.48-7.15-1.49-2.63,1.08-4.27,3.8-4.02,6.71-3.4-1.36-7.29-.46-9.68,2.23-2.27,2.55-2.8,6.25-1.34,9.39Z"/>
          <path class="cls-15" d="M733.8,55.14c-.82,0-1.6.19-2.3.51v-5.34c0-13.8-11.29-25.09-25.09-25.09h0c-13.8,0-25.09,11.29-25.09,25.09v5.08c-.52-.16-1.07-.25-1.64-.25-3.04,0-5.52,2.49-5.52,5.52v2.07c0,3.04,2.49,5.52,5.52,5.52.78,0,1.53-.17,2.21-.47,1.76,8.12,7.47,14.8,15.01,17.92,0,.03,0,.06,0,.09v20.75c0,5.36,4.38,9.74,9.74,9.74h0c5.36,0,9.74-4.38,9.74-9.74v-20.75c0-.09-.01-.19-.01-.28,7.41-3.23,12.98-9.94,14.63-18.03.82.49,1.78.78,2.8.78,3.04,0,5.52-2.49,5.52-5.52v-2.07c0-3.04-2.49-5.52-5.52-5.52Z"/>
          <g id="Schatten">
            <path class="cls-8" d="M716.34,85.56c-1.5.66-3.54,1.39-6.05,1.79-2.92.46-5.42.32-7.19.07,4.44,3.3,8.87,6.61,13.31,9.91,0-1.09,0-2.04,0-2.81,0-.63,0-.68,0-3.52,0-1.98,0-2.18,0-2.61-.01-1.2-.04-2.18-.07-2.83Z"/>
            <path class="cls-8" d="M734.61,59.17c.39,0,.94,1.58.52,3.01-.3,1.03-1.13,2.06-1.47,1.92-.64-.26.28-4.94.95-4.93Z"/>
            <path class="cls-8" d="M678.54,59.17c-.39,0-.94,1.58-.52,3.01.3,1.03,1.13,2.06,1.47,1.92.64-.26-.28-4.94-.95-4.93Z"/>
          </g>
          <g id="Augenbrauen">
            <path class="cls-6" d="M701.28,48.35c-.62-.33-1.79-.85-3.33-.92-1.94-.09-3.39.58-4.04.92-1.1-.56-1.35-1.01-1.35-1.35.02-1.15,3.1-2.39,5.88-2.12,1.87.18,4.18,1.11,4.18,2.12,0,.53-.62.99-1.35,1.35Z"/>
            <path class="cls-6" d="M719.74,48.35c-.62-.33-1.79-.85-3.33-.92-1.94-.09-3.39.58-4.04.92-1.1-.56-1.35-1.01-1.35-1.35.02-1.15,3.1-2.39,5.88-2.12,1.87.18,4.18,1.11,4.18,2.12,0,.53-.62.99-1.35,1.35Z"/>
          </g>
          <g id="Augen">
            <rect x="714.1" y="49.9" width="3.7" height="4.35" rx="1.85" ry="1.85"/>
            <rect x="695.94" y="49.9" width="3.7" height="4.35" rx="1.85" ry="1.85"/>
          </g>
          <g id="Nase">
            <path d="M707.49,66.18c-.61,0-1.26-.17-1.87-.51-.06-.03-.08-.11-.05-.17s.11-.08.17-.05c.87.48,1.85.61,2.62.34.43-.15.75-.4.87-.7.31-.74.05-1.48-.81-2.26l-.11-.1c-.41-.38-1.1-1.01-1.42-2.01-.11-.35-.15-.88-.18-1.22v-.14c-.01-.42-.02-.75-.03-1.09,0-.34-.01-.68-.01-1.09,0-.07.06-.12.12-.12s.12.06.12.12c0,.41,0,.74.01,1.08,0,.34.01.68.01,1.09v.13c.04.34.08.84.18,1.17.3.94.93,1.52,1.35,1.91l.11.1c.94.86,1.23,1.69.87,2.54-.15.36-.52.67-1.02.84-.3.1-.62.16-.96.16Z"/>
          </g>
          <g id="Mund">
            <path class="cls-9" d="M714.55,70.03c-.37,3.3-2.79,5.95-5.89,6.54-2.65.5-5.42-.58-7.14-2.79,1.65-.05,3.7-.26,6-.85,2.99-.77,5.35-1.92,7.03-2.9Z"/>
          </g>
          <path class="cls-6" d="M679.14,34.47c-1.64,1.95-1.85,4.69-.56,6.71,1.49,2.32,4.67,3.21,7.34,1.9.19.5.99,2.4,2.98,3.28,2.28,1.01,5.2.26,7.15-1.94.13.11,2.06,1.58,4.43.78,2.29-.77,2.96-2.97,3.02-3.17.23.15,2.73,1.73,5.59.6,2.55-1.01,3.39-3.38,3.5-3.72,1.54.15,2.99-.6,3.65-1.86.74-1.42.16-2.85.07-3.05.05.07,1.32,1.64,3.28,1.38,1.43-.19,2.62-1.27,2.98-2.72,2.8-.89,4.67-3.46,4.62-6.22-.06-3.16-2.64-5.94-6.03-6.26-.55-3.21-3.09-5.66-6.15-6.03-2.6-.32-5.21.92-6.74,3.17-.67-.4-3.94-2.26-8.12-1.27-4.63,1.1-6.75,4.84-7.08,5.44-1.64-1.58-4.13-1.93-6.11-.86-1.9,1.03-2.98,3.16-2.68,5.33-2.22-1.01-4.77-.43-6.15,1.27-1.66,2.04-1.33,5.38,1.01,7.26Z"/>
        </g>
        <g id="Oberteil">
          <path class="cls-3" d="M656.94,202.66c.06-.31.11-.62.16-.92,3.67-21.03,5.82-28.8,7.29-42.98.31-3,.59-6.2.8-9.62.05-.87.1-1.73.14-2.62.41-8.3.44-17.73-.29-28.18-.25-3.67-.59-7.47-1.04-11.39.34-.17.71-.35,1.13-.53,1.96-.87,4.71-1.8,8.08-2.16,4.3-.46,7.82.18,9.98.76.2.23.63.71,1.25,1.33,2.52,2.5,8.41,7.34,17.02,8.44,1.15.13,2.35.21,3.59.21,1.02,0,2-.06,2.96-.17l.03,1.35,1.87,86.48h-52.99Z"/>
          <path class="cls-7" d="M709.93,202.66l-1.87-86.48-.03-1.35c1.82-.2,3.53-.57,5.12-1.05,6.39-1.96,10.81-5.82,13.05-8.14.81-.86,1.33-1.5,1.53-1.76,3.08-.55,7.47-.97,12.66-.39,5,.58,9.05,1.9,11.89,3.07,0,.14-.02.29-.03.43-.17,2.37-.33,5.03-.42,7.94-.27,7.58-.16,16.88.91,27.42.29,2.82.65,5.73,1.09,8.73,0,.03,0,.05,0,.08,2.73,18.55,6.73,27.54,11.12,47.12.31,1.39.63,2.85.94,4.38h-55.96Z"/>
        </g>
      </g>
    </g>
    <g id="Person_1.">
      <path class="cls-13" d="M311.56,39.46c-.31-8.33-4.59-16.42-8.43-14.91-3.24,1.28.66,6.15-.24,12.36-.48,3.3-4.42,6.71-5,5.08-1.24-3.48-3.07-6.81-4.71-6.83-.49,0-.87.11-1.17.3-1.02.66-1.11,2.2-1.12,3.51-.04,5.14.73,7.87.73,7.87.38,1.46.74,2.96,1.09,4.5.38,1.67.72,3.3,1.02,4.89-13.15,27.82-22.62,48.48-25.61,55.39-.3.69-1.18,2.91-.76,5.58.87,5.56,6.73,9.87,11.84,9.48,1.54-.12,2.7-.64,3.23-.89,3.33-1.54,4.97-4.65,6.08-7.15,2.28-5.14,6.06-16.46,9.95-31.66,1.93-7.53,3.64-10,5.73-18.44.94-3.79,1.61-7.07,2.08-9.58,0,0,0,0,0,0,1.13-1.82,2.54-4.45,3.62-7.81.84-2.59,1.86-6.7,1.67-11.69Z"/>
      <path class="cls-13" d="M103.76,56.74c-.16-.32-.42-.62-.84-.87-1.42-.84-4.71,1.04-7.59,3.37-1.35,1.09-2.93-3.88-1.61-6.95,2.48-5.77,8.35-7.89,6.25-10.67-2.48-3.29-10.36,1.38-14.97,8.32-2.89,4.35-4.16,8.56-4.68,10.85-.76,3.38-.85,6.29-.77,8.37-.05.11-.09.22-.14.33-8.25,18.1-16.48,36.22-24.73,54.32-.44,1.09-1.95,5.2-.06,9.38.24.53.77,1.68,1.87,2.78,3.62,3.63,10.87,4.19,15.16.54,2.04-1.74,2.81-3.96,3.06-4.73,6.13-18.63,10.77-37.73,16.78-56.4.11-.19.21-.38.3-.58.65-1.38,1.62-3.11,3.09-4.9,1.13-1.38,2.28-2.46,3.28-3.27,0,0,2.09-1.92,4.73-6.33.68-1.13,1.4-2.49.88-3.58Z"/>
      <g>
        <g id="Oberteil-2" data-name="Oberteil">
          <path class="cls-13" d="M219.89,204.32c-.21-1.67-.4-3.36-.59-5.07-1.07-9.82-1.77-19.27-2.17-28.33-.1-2.28-.18-4.53-.24-6.76-.27-9.93-.2-19.34.13-28.18.05-1.49.11-2.96.18-4.42-1.54-.41-3.16-.82-4.88-1.21-5.22-1.21-11.23-2.32-17.92-3.06-3.24-.36-6.64-.63-10.18-.78-2.3-.11-4.66-.16-7.08-.16-4.05.01-7.94.18-11.65.46-3.61.28-7.06.68-10.32,1.15-2.48.36-4.85.76-7.1,1.2-3.04.59-5.87,1.23-8.47,1.88-.69.17-1.36.35-2.01.52.52,8.6.85,17.64.94,27.08.05,2.99.05,6.02.03,9.1-.07,11.64-.52,23.86-1.45,36.58h82.78Z"/>
          <path class="cls-14" d="M175.97,136.06l2.1,68.26h50.33c-3.09-11.91-5.86-20.03-7.9-33.52l-.12-.78c-.23-1.55-.57-3.38-.94-5.47-1.09-6.22-2.34-14.75-1.02-24.97.22-1.72.48-3.31.77-4.78.47-2.48,1.01-4.58,1.46-6.19-.6-.25-1.25-.52-1.96-.78-2.85-1.06-6.55-2.1-10.94-2.56-4.8-.5-8.89-.14-11.9.36-.19.25-.67.85-1.45,1.66-2.74,2.87-9.06,8.24-18.43,8.77Z"/>
          <path class="cls-10" d="M178.07,204.32l-2.1-68.26c-.47.03-.94.04-1.41.04-9.96.02-16.7-5.48-19.39-8.14-.59-.58-.99-1.03-1.18-1.25-2.51-.27-5.62-.39-9.16-.04-.83.08-1.63.19-2.41.31-3.3.5-6.11,1.31-8.33,2.11-.03.02-.07.03-.1.04,1.94,10.79,2.79,20.7,2.95,29.64.06,3.11.03,6.1-.06,8.98-.12,3.33-.32,6.49-.58,9.49-.85,9.74-2.29,16.26-4.38,27.08h46.15Z"/>
        </g>
        <g>
          <g id="Kopf">
            <path class="cls-13" d="M202.85,78.66l-.36-1.96c-.44-2.4-2.45-4.12-4.78-4.32l-1.65-5.53c-3.79-12.71-17.29-20.01-30-16.22-12.39,3.69-19.64,16.62-16.48,29.04-1.86.83-3.16,2.69-3.16,4.84v1.99c0,2.92,2.39,5.31,5.31,5.31.51,0,.99-.1,1.46-.23,2.35,6.21,6.88,11.08,12.45,13.98-.1.54-.16,1.09-.16,1.66v23.92c0,1.49,1.22,2.71,2.71,2.71h13.31c1.49,0,2.71-1.22,2.71-2.71v-23.39c.35-.09.69-.18,1.03-.28,10.34-3.08,16.74-13.22,15.54-23.6,1.57-1.17,2.44-3.17,2.06-5.22Z"/>
            <g>
              <path class="cls-2" d="M150.63,83.09c-.37,0-.91,1.52-.5,2.89.29.99,1.09,1.98,1.41,1.85.62-.25-.27-4.74-.91-4.74Z"/>
              <path class="cls-2" d="M184.25,107.75c-1.56.41-3.59.78-5.98.82-2.83.06-5.2-.36-6.93-.81,4.3,3.81,8.59,7.61,12.89,11.42-.01-1.69-.02-3.4-.02-5.12,0-2.13.02-4.23.04-6.32Z"/>
            </g>
          </g>
          <g id="Gesicht-2" data-name="Gesicht">
            <g id="Augenbrauen-2" data-name="Augenbrauen">
              <path class="cls-6" d="M184.23,70.86c.37-.63,1.12-1.73,2.45-2.63,1.67-1.13,3.33-1.34,4.08-1.38.67-1.1.65-1.64.46-1.93-.65-1.01-4.06-.44-6.37,1.31-1.56,1.18-3.11,3.26-2.55,4.16.29.47,1.09.54,1.93.46Z"/>
              <path class="cls-6" d="M165.12,73.96c.37-.63,1.12-1.73,2.45-2.63,1.67-1.13,3.33-1.34,4.08-1.38.67-1.1.65-1.64.46-1.93-.65-1.01-4.06-.44-6.37,1.31-1.56,1.18-3.11,3.26-2.55,4.16.29.47,1.09.54,1.93.46Z"/>
            </g>
            <g id="Augen-2" data-name="Augen">
              <rect x="186.59" y="70.6" width="3.85" height="4.52" rx="1.93" ry="1.93" transform="translate(-9.42 32.01) rotate(-9.47)"/>
              <rect x="167.94" y="73.71" width="3.85" height="4.52" rx="1.93" ry="1.93" transform="translate(-10.18 28.98) rotate(-9.47)"/>
            </g>
            <g id="Nase-2" data-name="Nase">
              <path d="M181.65,88.86c-.46,0-.94-.08-1.42-.25-.08-.03-.12-.11-.09-.19s.11-.12.19-.09c.97.34,1.99.3,2.73-.1.41-.22.69-.54.77-.86.19-.8-.21-1.51-1.21-2.16l-.13-.08c-.49-.32-1.3-.85-1.81-1.83-.18-.34-.31-.88-.4-1.23l-.04-.14c-.07-.42-.13-.76-.2-1.1-.07-.35-.13-.71-.2-1.13-.01-.08.04-.15.12-.17.08,0,.16.04.17.12.07.42.14.77.2,1.12.06.34.13.68.2,1.1l.03.13c.08.34.21.85.37,1.17.47.91,1.22,1.4,1.71,1.72l.13.08c1.12.73,1.56,1.54,1.34,2.48-.1.4-.43.79-.91,1.05-.46.25-.99.37-1.55.37Z"/>
            </g>
            <g id="Mund-2" data-name="Mund">
              <path class="cls-9" d="M189.25,93.98c-.13.37-1.49,3.88-5.17,4.91-3,.84-6.33-.32-8.35-2.94,1.85.2,4.35.28,7.25-.18,2.56-.41,4.68-1.12,6.27-1.79Z"/>
            </g>
          </g>
          <g id="Bart">
            <path class="cls-6" d="M193.65,92.96c-.55.1-.97-.06-2.27-.43-3.24-.91-4.93-2.71-6.52-1.87-.38.2-.83.6-1.21,1.44-.71-.66-1.36-.89-1.84-.95-2.34-.28-3.53,2.98-6.63,4-1.08.36-2.82.59-5.4-.41.58.67,2.37,2.57,5.25,3,3.31.51,6.74-1.12,8.88-4.14,2.42,1.94,5.63,2.48,8.37,1.34,3.17-1.31,4.3-4.28,4.49-4.8-.51.98-1.51,2.52-3.09,2.79Z"/>
          </g>
          <g id="Haare">
            <path class="cls-6" d="M196.17,60.27c-.62-1.5-1.55-3.5-2.53-5.24.49-2.42.21-5.49-1.23-7.95-2.19-3.75-6.37-4.9-9.01-5.64-7.49-2.08-14.08.03-15.87.64-6.72,2.3-6.38,5.02-12.7,6.32-4.27.88-7.22.21-8.58,2.27-1.49,2.25.23,5.78.39,6.12.59,1.21,1.56,2.28,2.8,3.24-1.57,3.26-1.63,7.67-1.59,9.09.07,2.08,1.68,10.17,1.68,10.17,1,.18,2.27.21,5.16,1.29,2.94,1.1,4.51,2.15,4.51,2.15-.07.14-2.98-4.72-3.01-10.1-.02-3.74,1.84-6.29,3.19-8.45,11.48,2.53,26.97.92,32.38-5.36.26.34.54.75.87,1.29.44.72.71,1.41,1.19,2.3,2.37,4.44,3.73,10.61,3.87,9.95.07-.35.16-.64.16-.74-.15-7.56-1.71-11.34-1.71-11.34Z"/>
          </g>
        </g>
        <g id="Oberarm_rechts">
          <path class="cls-13" d="M288.73,114.34c1.5,4.82-3.77,10.28-7,13.64-2.46,2.55-4.7,4.08-5.4,4.55-16.81,11.32-22.09,14.21-22.09,14.21-6.57,3.59-15.96,8.88-28.25,16.3,0-.02-.02-.02-.02-.04-1.52.86-3.2,1.4-5.03,1.54-7.17.54-13.46-5.33-14.06-13.15-.47-6.16,2.74-11.65,7.64-13.96,0-.02-.04-.03-.02-.04,13.62-7.7,21.52-10.82,28.53-14.48,12.11-6.32,19.02-9.28,34.21-15.12,5.54.46,10.35,2.88,11.49,6.55Z"/>
          <path class="cls-14" d="M222.73,120.94h4.53c10.12,0,18.34,8.22,18.34,18.34v34.77h-41.21v-34.77c0-10.12,8.22-18.34,18.34-18.34Z" transform="translate(170.76 411) rotate(-111.61)"/>
        </g>
        <g id="Oberarm_links">
          <path class="cls-13" d="M105.09,153.27c-2.76-.61-19.88-4.41-39.51-12.06-3.61-1.41-8.65-3.4-9.92-7.87-1.83-6.48,2.61-12.29,6.03-13.49,1.49-.52,3.11-.51,3.11-.51,0,0,.39,0,.78.02,17.92,1.02,38.97,4.4,38.97,4.4,25.61,4.12,27.41,4.25,35.15,7.32,4.33,1.72,12.86,7.36,12.57,13.99-.31,7.15-7.51,12.47-10.94,13.14-8.12,1.58-13.86.04-36.24-4.94Z"/>
          <path class="cls-10" d="M128.21,118.37h4.53c10.12,0,18.34,8.22,18.34,18.34v34.77h-41.21v-34.77c0-10.12,8.22-18.34,18.34-18.34Z" transform="translate(306.63 61.27) rotate(106.6)"/>
        </g>
      </g>
    </g>
    <g id="Person_3.">
      <g id="Unterarm_rechts">
        <path class="cls-13" d="M649.29,121.52c-2.82-.63-2.4,4.53-5.9,8.39-1.86,2.05-6.16,2.57-5.8,1.18.76-2.97,1.05-6.11-.07-6.89-.33-.23-.65-.33-.95-.34-1-.02-1.78,1-2.4,1.9-2.41,3.51-3.14,5.75-3.14,5.75-.71,1.97-1.76,4.81-3.28,8.46l.06.05c-14.78,14.07-29.57,28.14-44.35,42.21v.02c-1.03.7-1.92,1.65-2.58,2.78-2.44,4.18-1.04,9.57,3.14,12.01,3.5,2.04,7.82,1.37,10.56-1.34.05-.06.1-.11.16-.17.26-.31.53-.61.79-.92l.05-.09c6.76-7.83,13.6-16.01,20.48-24.56,6.52-8.1,12.72-16.08,18.64-23.94.02.02.05.04.07.06,1.68-.45,4.21-1.33,6.84-3.15,1.19-.83,4.09-3.28,6.57-7.27,3.65-5.87,4.46-13.43,1.12-14.17Z"/>
        <path class="cls-11" d="M598.36,192.77c8.52-9.58,20.84-22.1,39.21-39.6-2.58-1.95-5.39-4.31-8.26-7.15-2.5-2.47-4.64-4.89-6.45-7.15-9.3,8.15-18.7,16.61-28.17,25.39-10.27,9.51-8.41,8.2-11.31,10.6-5.83,4.82-7.71,5.47-8.48,8.11-1.85,6.3,4.81,16.27,11.92,16.69,2.65.16,5.76-.38,11.55-6.9Z"/>
      </g>
      <g id="Oberkörper">
        <path class="cls-13" d="M550.39,186.49h0c2.94-25.32,5.87-50.63,8.81-75.95-10.11-.17-21.58.22-34.12,1.65-13.44,1.53-25.44,3.95-35.77,6.6l19.81,67.7h0l-.86,1.34-.09.15-7.87,12.29h56.98c-2.03-4.06-4.06-8.12-6.09-12.19-.26-.53-.53-1.06-.79-1.59Z"/>
        <path class="cls-13" d="M502.2,118.54c-1.37-.86-2.85-1.41-4.35-1.67v.02s-.06-.03-.11-.03c-21.96-3.94-43.93-7.89-65.92-11.82-.08-.02-.17-.05-.26-.05-.28-.06-.59-.13-.89-.17-3.29-.41-6.63,1.11-8.49,4.16-2.55,4.19-1.28,9.69,2.84,12.28.68.43,1.38.75,2.13.96,0,0,.19.06.29.1,21.64,6.09,43.28,12.14,64.93,18.21.28.06.58.16.85.24.06,0,.1.03.15.04,4.81,1.07,9.98-1,12.71-5.49,3.49-5.74,1.74-13.23-3.88-16.77Z"/>
        <path class="cls-13" d="M547.09,127.6c.15,1.61.61,3.11,1.31,4.47h.02s0,.05.03.09c10.13,19.86,20.26,39.75,30.41,59.63.03.07.07.17.12.24.12.26.25.55.4.81,1.66,2.86,4.86,4.64,8.37,4.32,4.82-.44,8.37-4.71,7.92-9.53-.07-.79-.24-1.55-.53-2.27,0,0-.07-.19-.1-.29-8.25-20.88-16.53-41.73-24.8-62.61-.12-.26-.23-.55-.32-.82-.03-.05-.03-.1-.06-.14-2.06-4.47-6.79-7.38-11.95-6.9-6.6.61-11.42,6.44-10.82,13.01Z"/>
      </g>
      <g id="Hose">
        <path class="cls-7" d="M560.77,200.27h-33.06v-14.04c4.4.02,8.8.02,13.19.03,3.17.01,6.34.01,9.51.02h.69c.37.48.75.98,1.14,1.5,2.6,3.46,5.53,7.63,8.53,12.49Z"/>
        <path class="cls-3" d="M527.71,186.23v14.04h-29.93c2.83-4.14,5.99-8.38,9.56-12.71.29-.36.59-.73.9-1.1.07-.08.14-.17.21-.25h.58c6.24,0,12.47.02,18.68.02Z"/>
      </g>
      <g id="Oberteil-3" data-name="Oberteil">
        <path class="cls-17" d="M559.05,108.95c-.67,20.33-1.39,33.61-1.94,42.13-.12,1.76-.35,5.19-.6,9.96-.47,8.84-.74,17.4-.87,25.67-5.83,1.99-14.85,4.27-25.99,4.2-.65,0-1.29-.02-1.94-.05v-73.49c8.04-1.86,12.79-7,13.9-8.27,5.81-.05,11.62-.1,17.43-.15Z"/>
        <path class="cls-16" d="M527.72,117.37v73.49c-10.08-.3-18.22-2.46-23.66-4.34-.87-4.12-1.81-8.34-2.8-12.61-1.31-4.98-2.58-10.06-3.8-15.24-3.45-14.69-6.2-28.88-8.36-42.5,2.59-.6,5.22-1.18,7.88-1.76,2.94-.64,5.85-1.24,8.73-1.82,1.49,1.14,8.61,6.36,18.79,5.34,1.14-.12,2.21-.3,3.23-.55Z"/>
      </g>
      <g id="Haare-2" data-name="Haare">
        <path class="cls-12" d="M507.74,123.78c5.04-1.31,7.09-2.79,14.57-6.42,4.63-2.25,11.42-5.36,20-8.63,4.51-2.54,11.98-7.75,16.31-17.04,7.23-15.54,2.63-35.99-11.74-51.35-2.44-2.35-9.02-8.08-19.35-9.96-3.84-.7-12.14-1.58-21.31,2.43-11.67,5.11-17,14.78-18.48,17.71-4.87,9.79-5.64,17.64-5.44,23.02.36,9.51,3.78,11.67,2.61,20.58-1.09,8.3-4.64,10.79-3.48,17.71.23,1.34,1.21,7.2,5.87,10.85,6.17,4.82,14.7,2.6,20.44,1.11Z"/>
      </g>
      <g id="Hinterteil_Jacke">
        <path class="cls-11" d="M533.73,105.69c-.05.4-.1.8-.16,1.21-.08.56-.16,1.1-.25,1.64-.01.1-.02.18-.05.28h0c-.22,1.36-.47,2.68-.74,3.95-.07,0-.14.01-.22.01-6.29.51-12.6,1-18.9,1.51-.08.01-.17.01-.25.02-.47-2.41-.93-4.82-1.4-7.24,2.88-.75,6.41-1.42,10.49-1.71,4.44-.31,8.33-.07,11.48.34Z"/>
      </g>
      <g id="Gesicht-3" data-name="Gesicht">
        <g id="Kopf-2" data-name="Kopf">
          <path class="cls-13" d="M552.33,66.08l-.37-2.02c-.46-2.47-2.53-4.24-4.92-4.45l-1.7-5.69c-3.9-13.09-17.81-20.62-30.9-16.71h0c-12.77,3.81-20.23,17.12-16.98,29.92-1.91.85-3.26,2.77-3.26,5v2.05c0,3.01,2.46,5.47,5.47,5.47.52,0,1.03-.08,1.51-.22,2.43,6.41,7.13,11.43,12.89,14.41-.15.67-.23,1.36-.23,2.07v20.55c0,5.31,4.34,9.65,9.65,9.65s9.65-4.34,9.65-9.65v-20.4c.36-.09.71-.18,1.07-.29,10.65-3.17,17.25-13.62,16.01-24.31,1.62-1.21,2.51-3.27,2.12-5.38Z"/>
        </g>
        <g id="Schatten-2" data-name="Schatten">
          <path class="cls-2" d="M498.53,70.64c-.39,0-.93,1.56-.51,2.98.3,1.02,1.12,2.04,1.45,1.9.63-.26-.27-4.89-.94-4.88Z"/>
          <path class="cls-2" d="M533.17,96.06c-1.61.42-3.7.8-6.17.85-2.91.06-5.36-.37-7.14-.83,4.43,3.92,8.85,7.84,13.28,11.77-.01-1.75-.02-3.5-.02-5.27,0-2.19.02-4.36.04-6.51Z"/>
        </g>
        <g id="Augenbrauen-3" data-name="Augenbrauen">
          <path class="cls-12" d="M532.87,57.85c.43-.62,1.29-1.69,2.73-2.51,1.81-1.03,3.52-1.11,4.3-1.1.78-1.07.79-1.63.63-1.94-.58-1.09-4.13-.77-6.65.85-1.7,1.09-3.45,3.1-2.95,4.07.26.5,1.08.64,1.94.63Z"/>
          <path class="cls-12" d="M521.08,58.65c-.74-.15-2.1-.33-3.7.07-2.02.5-3.31,1.63-3.87,2.18-1.3-.24-1.7-.63-1.8-.97-.33-1.19,2.46-3.41,5.39-3.99,1.98-.39,4.64-.14,4.95.9.16.54-.34,1.21-.97,1.8Z"/>
        </g>
        <g id="Augen-3" data-name="Augen">
          <rect x="535.58" y="57.77" width="3.97" height="4.66" rx="1.98" ry="1.98" transform="translate(-2.56 89.25) rotate(-9.47)"/>
          <rect x="516.36" y="60.98" width="3.97" height="4.66" rx="1.98" ry="1.98" transform="translate(-3.35 86.14) rotate(-9.47)"/>
        </g>
        <g id="Nase-3" data-name="Nase">
          <path d="M530.49,76.57c-.47,0-.97-.09-1.46-.26-.07-.03-.11-.11-.09-.18.03-.07.11-.11.18-.09,1.01.36,2.04.32,2.82-.1.43-.23.72-.56.8-.89.2-.83-.21-1.57-1.25-2.24l-.13-.09c-.5-.33-1.34-.87-1.86-1.88-.18-.35-.32-.9-.41-1.26l-.04-.15c-.07-.43-.14-.79-.2-1.14-.07-.36-.14-.73-.21-1.17-.01-.08.04-.15.12-.16.08-.01.15.04.16.12.07.44.14.8.21,1.16.07.35.13.71.2,1.13l.04.14c.09.35.22.88.38,1.2.49.95,1.25,1.45,1.76,1.78l.13.09c1.15.75,1.6,1.58,1.37,2.54-.1.41-.44.8-.93,1.08-.47.25-1.01.38-1.59.38Z"/>
        </g>
        <g id="Haare-3" data-name="Haare">
          <path class="cls-12" d="M543.92,41.83c-4.56-4.23-9.73-5.51-13.01-5.89.07-.76.09-1.44.09-2.03-2.97-1.09-8.95-2.8-16.3-1.55-1.4.24-12.13,2.22-19.48,11.51-2.34,2.96-4.4,5.12-4.87,8.63-1.02,7.69,6.04,13.75,7.06,14.6,5.15-2.01,7.66,2.92,7.75,2.78,1.27-2.07,1.58-4.7,4.12-8.8,3.57-5.76,8.12-4.17,15.27-11.66,2.95-3.09,4.18-5.68,4.53-6.45.61.91,1.64,2.27,3.22,3.55,3,2.44,5.5,2.58,7.86,3.82,2.12,1.11,4.81,3.47,6.75,9.08.78.2,1.83.36,3.05.26.44-.04.84-.1,1.21-.18.05-1.39.24-10.74-7.25-17.68Z"/>
        </g>
        <g id="Mund-3" data-name="Mund">
          <path class="cls-9" d="M519.75,79.96c-.75,3.49.96,6.94,3.81,8.24,3.46,1.58,8.09-.22,9.71-4.35-1.71-.05-3.84-.27-6.23-.88-3.1-.8-5.55-1.99-7.29-3.01Z"/>
        </g>
      </g>
      <g id="Unterarm_links">
        <path class="cls-13" d="M430.04,106.49v-.03c-5.67-19.52-11.34-39.04-17.01-58.55.04,0,.08-.02.12-.03.41-3.93.83-6.93,1.15-9.01,0,0,.42-2.32-.02-6.55-.11-1.08-.31-2.35-1.2-2.81-.26-.14-.59-.2-.99-.15-1.36.15-2.6,3.04-3.35,6.02-.35,1.39-3.88-1.11-4.54-3.8-1.24-5.06,1.59-9.39-1.19-10.19-3.29-.94-6.18,6.08-5.77,12.99.28,4.69,1.66,8.23,2.32,9.52,1.11,2.19,2.42,3.86,3.55,5.06.93,11.15,2.37,20.03,3.56,26.26,1.22,6.36,2.62,12.22,4.59,23.44.97,5.49,1.68,10.02,2.15,13.05v.1c.69,4.52,4.61,7.75,8.96,7.57,6.34-.26,8.63-7.55,8.59-9.21-.03-1.32-.36-2.58-.92-3.69Z"/>
        <path class="cls-11" d="M432.24,102.78c-4.19-15.9-8.38-31.8-12.57-47.7-2.26,1.26-5.25,2.65-8.92,3.7-4.17,1.19-7.84,1.55-10.62,1.61,2.99,11.37,4.33,20.65,5.01,27.23,0,0,2.17,21.13,8.17,28.59,1.2,1.5,2.63,2.69,2.63,2.69,2.04,1.71,4.06,2.67,5.45,3.21,2.24.51,3.79.17,4.77-.21,4.84-1.9,7.56-9.62,6.08-19.12Z"/>
      </g>
      <g id="Jacke">
        <path class="cls-11" d="M583.8,197.98c.35.04,6.95.71,10.75-4,3.79-4.69,1.85-11.04,1.64-11.69-2.08-8.11-5.4-19.3-10.7-32.18-6.26-15.21-17.61-42.77-27.8-41.6-5.23.6-8.25,8.47-9.03,10.52-3.43,8.96-.57,16.5,15.07,50.28,9.32,20.12,13.11,27.85,20.08,28.66Z"/>
        <path class="cls-11" d="M419.88,121.41c-4.99-2.76-7.36-8.57-5.8-13.73,1.73-5.72,7.9-9.34,14.11-7.95,24.36,6.5,36.61,9.22,43.23,10.29,8.55,1.39,15.47,4.31,23.74,9.22,6.4,3.79,9.18,11.62,6.8,18.27-2.64,7.38-11.05,11.59-18.92,8.95-4.69-1.54-9.47-3.18-14.35-4.94-9.96-3.59-6.29-2.09-21.9-8.45-7.41-3.02-16.52-6.89-26.91-11.66Z"/>
        <path class="cls-14" d="M575.98,200.27h-33.7c-.33-3.38-.67-6.77-1-10.15-.12-1.21-.24-2.42-.36-3.63,0-.08-.01-.15-.02-.23-.9-9.09-1.79-18.18-2.69-27.27h0s-4.32-43.9-4.32-43.9l-.29-2.86-.08-.86-.25-2.54v-.02l-.02-.25s.04-.01.07-.02c.23-.04.56-.1.96-.16,1.73-.27,4.28-.6,7.42-.77h.01c.83-.05,1.71-.08,2.62-.1.7-.02,1.42-.02,2.16-.02,4.48.02,8.53.43,12.06.99.39.06.77.12,1.15.19-.24,1.9-.44,3.85-.61,5.86-.66,7.99-.71,16.83.32,26.34.29,2.64.65,5.21,1.06,7.69h0c.74,4.43,1.66,8.57,2.67,12.4,1.57,5.98,3.37,11.2,5.1,15.57.65,1.89,1.3,3.79,1.95,5.72h0c1.96,5.85,3.9,11.85,5.79,18.02Z"/>
        <path class="cls-14" d="M512.45,110.7l-.18,3.27-.12,2.2h0s-.35,6.28-.35,6.28l-2.02,36.29-.03.53v.03c-.46,8.23-.92,16.46-1.37,24.69h0c-.05.83-.09,1.65-.14,2.47-.02.45-.05.9-.07,1.35-.01.06-.01.11-.01.17-.23,4.1-.46,8.19-.69,12.29h-33.18c1.52-6.6,3.09-13.09,4.68-19.45h0c.36-1.41.72-2.8,1.08-4.17,2.92-7.39,6.05-17.35,7.74-29.4.1-.69.19-1.4.28-2.11.24-1.93.43-3.81.57-5.65.45-5.72.47-11,.26-15.75h0c-.13-2.97-.36-5.72-.63-8.24-.01-.12-.02-.24-.03-.35,0-.09-.02-.17-.03-.25,0-.05-.01-.08-.01-.13,4.1-1.81,7.69-2.98,10.82-3.69h0c5.95-1.38,10.28-1.11,13.42-.38Z"/>
        <path class="cls-11" d="M516.59,124.04c-2.27,11.62-4.54,23.24-6.84,34.85v.04s-.01.07-.02.11c-1.82-6.21-3.63-12.42-5.44-18.64-1.23-4.18-2.45-8.37-3.66-12.55l5.1-9.02.78-1.39-7.49-6.38-.65-.56,13.39-3.45c.43,2.27.96,4.68,1.65,7.22.1.39.2.77.31,1.16.89,3.13,1.87,6,2.86,8.59Z"/>
        <g id="Knöpfe">
          <circle class="cls-9" cx="504.25" cy="172.64" r="1.2"/>
          <circle class="cls-9" cx="502.98" cy="189.17" r="1.2"/>
        </g>
        <path class="cls-11" d="M543.6,123.62l1.58,2.69c-.12.54-.23,1.1-.35,1.64-2.21,10.35-4.41,20.68-6.62,31.04h0s-.01.05-.01.07c-3.01-12.1-6.03-24.22-9.05-36.32.94-2.37,1.84-5.05,2.65-7.99.18-.66.35-1.31.52-1.96.63-2.52,1.07-4.89,1.41-7.09l6.03,1.45,6.99,1.69.42.1-2.63,2.31-5.4,4.75,4.46,7.63Z"/>
      </g>
    </g>
    <g id="Person_5.">
      <g id="Gesicht-4" data-name="Gesicht">
        <g id="Haare-4" data-name="Haare">
          <path class="cls-8" d="M876.51,102.34c1.04,2.28,0,4.85-1.94,5.69-2.09.91-4.94-.36-5.65-3-4.33.06-7.35-3.03-7.25-5.84.1-2.78,3.23-4.48,3.39-4.57-4.15-1.2-7.26-4.47-8-8.44-.77-4.15,1.37-7.37,1.86-8.06-.31-.26-4.08-3.58-3.49-8.64.44-3.78,3.13-7,6.87-8.23-1.58-3.43-1.22-7.41.97-10.33,2.57-3.44,7.25-4.83,11.53-3.37.43-.98,2.27-4.85,6.71-6.75,6.3-2.7,12.11,1.05,12.55,1.35.36-.31,3.41-2.89,7.56-2.05,4.83.98,6.53,5.67,6.6,5.88.27-.1,3.87-1.31,6.97,1.02,2.19,1.66,3.27,4.45,2.8,7.21,3.09-.28,6.08,1.17,7.7,3.76,1.75,2.79,1.61,6.42-.36,9.14,2.67,1.66,4.19,4.63,3.9,7.63-.36,3.7-3.3,5.67-3.69,5.93.32.23,3.48,2.64,3.39,6.49-.09,3.52-2.87,6.75-6.82,7.59,2.36,1.69,3.1,4.79,1.85,7.12-1.04,1.95-3.31,3.08-5.66,2.77-.6,3.27-3.44,5.29-5.96,4.89-1.75-.27-3.24-1.7-3.92-3.57-2.07,1.07-4.45,1.12-5.98-.02-2.25-1.68-2.72-6.01.15-9.18-9.32-.16-18.65-.31-27.97-.47l1.9,6.06Z"/>
        </g>
        <path class="cls-13" d="M917.82,81.54c-.76-.03-1.49.12-2.15.4l.2-4.96c.51-12.79-9.54-23.67-22.33-24.17h0c-12.79-.51-23.67,9.54-24.17,22.33l-.19,4.73c-.48-.17-.98-.3-1.51-.32h0c-2.82-.11-5.21,2.1-5.32,4.92l-.08,1.92c-.11,2.82,2.1,5.21,4.92,5.32.73.03,1.42-.1,2.06-.35,1.33,7.59,6.38,14,13.25,17.16,0,.03,0,.05,0,.08l-.76,19.23c-.2,4.97,3.7,9.19,8.67,9.39,4.97.2,9.19-3.7,9.39-8.67l.76-19.23c0-.09,0-.17,0-.26,6.99-2.72,12.41-8.74,14.22-16.19.75.49,1.62.8,2.56.84,2.82.11,5.21-2.1,5.32-4.92l.08-1.92c.11-2.82-2.1-5.21-4.92-5.32Z"/>
        <g id="Schatten-3" data-name="Schatten">
          <path class="cls-18" d="M900.27,109.26c-1.23.6-3.08,1.33-5.44,1.65-2.73.37-4.99.03-6.42-.3,3.91,3.13,7.82,6.26,11.73,9.39.09-1.03.15-1.91.18-2.57.07-1.21.09-2.05.13-3.71.03-1.4.03-1.74.02-2.01-.03-1.03-.12-1.88-.2-2.46Z"/>
          <path class="cls-2" d="M918.42,85.31c.36.02.82,1.5.37,2.81-.32.94-1.13,1.86-1.43,1.73-.58-.26.44-4.56,1.06-4.53Z"/>
          <path class="cls-2" d="M866.46,83.25c-.36-.01-.93,1.43-.59,2.77.24.96.98,1.95,1.29,1.83.6-.22-.07-4.58-.7-4.6Z"/>
        </g>
        <g id="Augenbrauen-4" data-name="Augenbrauen">
          <path class="cls-6" d="M887.36,75.48c-.61-.36-1.76-.93-3.31-1.06-1.94-.17-3.43.44-4.09.76-1.08-.61-1.32-1.07-1.3-1.4.07-1.15,3.21-2.28,5.99-1.9,1.87.26,4.15,1.28,4.11,2.3-.02.53-.66.97-1.4,1.3Z"/>
          <path class="cls-6" d="M905.9,76.21c-.61-.36-1.76-.93-3.31-1.06-1.94-.17-3.43.44-4.09.76-1.08-.61-1.32-1.07-1.3-1.4.07-1.15,3.21-2.28,5.99-1.9,1.87.26,4.15,1.28,4.11,2.3-.02.53-.66.97-1.4,1.3Z"/>
        </g>
        <g id="Augen-4" data-name="Augen">
          <rect x="900.08" y="77.62" width="3.72" height="4.37" rx="1.86" ry="1.86" transform="translate(3.88 -35.75) rotate(2.28)"/>
          <rect x="881.85" y="76.9" width="3.72" height="4.37" rx="1.86" ry="1.86" transform="translate(3.84 -35.03) rotate(2.28)"/>
        </g>
        <g id="Mund-4" data-name="Mund">
          <path class="cls-9" d="M897.76,97.5c-.11,2.97-2.61,5.3-5.51,5.23-2.79-.07-5.13-2.37-5.23-5.23,1.09.44,2.87,1,5.11,1.04,2.51.05,4.49-.58,5.63-1.04Z"/>
        </g>
        <g id="Nase-4" data-name="Nase">
          <path d="M893.01,93.63c-.65,0-1.34-.2-1.98-.59-.06-.04-.08-.11-.04-.17.04-.06.11-.08.17-.04.86.52,1.82.69,2.61.44.44-.13.77-.38.9-.67.34-.73.1-1.48-.73-2.3l-.11-.11c-.4-.39-1.06-1.05-1.34-2.08-.1-.35-.12-.88-.13-1.23v-.15c.01-.42.02-.77.02-1.11,0-.34.01-.67.03-1.08,0-.07.07-.13.13-.12.07,0,.12.06.12.13-.02.4-.02.74-.03,1.07,0,.35-.01.69-.03,1.11v.14c.02.34.04.84.13,1.17.27.96.88,1.57,1.28,1.97l.11.11c.91.9,1.17,1.75.78,2.58-.17.36-.55.65-1.06.8-.27.08-.55.12-.84.12Z"/>
        </g>
        <g id="Haare-5" data-name="Haare">
          <path class="cls-8" d="M919.65,68.66c.11-.27,2.07-5.16-.64-9.93-2.42-4.28-6.55-4.85-6.99-4.9-1.09-3.44-3.95-5.48-6.44-5.02-2.55.47-3.64,3.36-3.74,3.64-.09.08-.73.72-1.33,1.8-.59-.39-1.28-.7-2.08-.89.23-2.84-1.69-5.39-4.36-5.93-2.45-.5-5.01.8-6.1,3.16-1.22-3.05-4.54-4.59-7.39-3.67-2.45.8-4.14,3.29-4.01,6.07-1.7.89-4.08,2.42-6.14,5-3.06,3.82-8.46,11.65-5.34,16.51,1.07,1.66,3.36,2.99,4.49,3.53,1.96.86,4.97.13,6.31-1,2.54-2.14,1.63-5.28,1.85-5.27.91.04,3.07,1.62,5.85.73,1.46-.46,3.22-2.12,3.12-5.25,2.19,2.08,5.55,2.35,8.03.68,2.42-1.63,3.43-4.74,2.43-7.52.87.23,1.7.26,2.45.16.84,3.8,3.74,5.62,4,5.77,0,.32.06,3.43,2.3,5.39,1.89,1.65,4.55,1.78,6.6.29-1.26,1-1.57,2.94-.83,4.37.84,1.61,2.86,2.23,4.3,1.11,1.97.3,3.84-.83,4.64-2.82.79-1.95.4-4.35-.97-6Z"/>
        </g>
      </g>
      <g id="Oberteil-4" data-name="Oberteil">
        <g id="Oberkörper-2" data-name="Oberkörper">
          <path class="cls-13" d="M805.71,98.01c-.04-.06-.09-.11-.13-.17-.24-.29-.48-.59-.72-.88l-.07-.06c-6.15-7.5-12.62-15.11-19.43-22.81-5.13-5.8-10.24-11.4-15.31-16.8-.58-3.73-.94-6.63-1.15-8.66,0,0-.19-2.38-1.73-6.41-.39-1.03-.92-2.22-1.91-2.44-.3-.06-.63-.04-1.01.11-1.29.5-1.76,3.66-1.71,6.77.02,1.46-4.09-.07-5.44-2.54-2.53-4.63-.89-9.62-3.82-9.67-3.47-.06-4.47,7.57-2.26,14.23,1.5,4.52,3.77,7.63,4.75,8.72,1.7,1.91,3.47,3.21,4.9,4.1,10,15.38,20,30.76,29.99,46.14h.02c.47,1.09,1.2,2.07,2.15,2.85,3.51,2.85,8.93,2.01,12.08-1.88,2.63-3.25,2.85-7.61.79-10.59Z"/>
          <g>
            <path class="cls-13" d="M989.27,21.04c-2.71.83.15,5.03-.97,10.02-.59,2.65-4.01,5.17-4.38,3.81-.79-2.9-2.06-5.72-3.4-5.84-.39-.04-.71.03-.97.17-.87.47-1.04,1.71-1.13,2.78-.36,4.17.1,6.43.1,6.43.35,2.03.82,4.96,1.3,8.81.01,0,.02,0,.03,0-3.39,6.62-6.78,13.45-10.13,20.47-4.42,9.28-8.54,18.38-12.38,27.29l-.05.08c-.15.35-.3.7-.45,1.04-.03.07-.05.13-.08.2-1.15,3.44.25,7.56,3.68,9.96,4.1,2.87,9.54,2.17,12.13-1.53.7-1.01,1.13-2.15,1.29-3.32v-.02c5.54-18.08,11.07-36.15,16.6-54.23.88-1.09,1.8-2.45,2.61-4.12.62-1.28,1.91-4.78,2.09-9.38.27-6.78-2.7-13.61-5.9-12.63Z"/>
            <path class="cls-13" d="M908.92,150.38c.57-1.57,1.43-2.95,2.49-4.12h.02s.02-.04.06-.08c15.37-17.19,30.75-34.4,46.15-51.61.05-.06.11-.15.18-.21.19-.23.4-.48.61-.71,2.42-2.43,6.09-3.36,9.51-2.11,4.7,1.72,7.13,6.92,5.41,11.62-.28.77-.65,1.48-1.13,2.13,0,0-.12.18-.18.26-11.96,17.72-31.01,48.93-41.33,56.07-1.99,1.38-4.33,2.43-4.33,2.43-3.42,1.54-6.83,3.07-10.09,2.18-6.91-1.89-8.31-13.34-7.39-15.87Z"/>
          </g>
          <path class="cls-13" d="M866.7,137.37c-.98-1.35-2.19-2.44-3.53-3.28l-.02.02s-.03-.04-.08-.07c-19.52-12.28-39.05-24.58-58.61-36.86-.07-.05-.15-.12-.23-.15-.25-.17-.51-.36-.78-.51-2.99-1.67-6.78-1.54-9.73.6-4.05,2.95-4.94,8.62-1.99,12.66.48.66,1.04,1.25,1.68,1.73,0,0,.16.14.24.2,18.39,14.18,36.79,28.32,55.2,42.48.25.17.49.37.72.55.05.03.08.07.13.09,4.2,2.88,9.94,2.96,14.28-.2,5.54-4.04,6.74-11.77,2.72-17.29Z"/>
          <path class="cls-13" d="M926.17,127.81c-.03.19-.06.38-.09.57-.09.6-.19,1.2-.28,1.8-1.88,12.05-3.77,24.1-5.65,36.15-.05.31-.1.62-.15.93-1.71,10.91-3.41,21.83-5.12,32.74h-44.65c-3.35-13.38-6.69-26.75-10.04-40.13-.26-1.05-.52-2.09-.79-3.14-1.93-7.75-3.87-15.5-5.81-23.25,2.1-.45,4.26-.9,6.48-1.31h0c1.38-.27,2.78-.53,4.21-.78.73-.12,1.46-.25,2.2-.37.83-.14,1.66-.27,2.5-.4,1.33-.21,2.69-.41,4.07-.6,2.82-.4,5.71-.76,8.69-1.08,2.95-.32,5.98-.59,9.08-.82,3.07-.23,6.07-.4,9-.51,2.46-.11,4.86-.17,7.22-.2,3.4-.05,6.69-.03,9.87.03,1.65.04,3.28.1,4.87.16.98.04,1.95.08,2.91.13.48.03.95.05,1.42.08h.05Z"/>
        </g>
        <g id="Oberteil-5" data-name="Oberteil">
          <path class="cls-17" d="M970.17,50.3c3.1,2,7.12,4.23,12.05,6.12,5.49,2.1,10.45,3.14,14.38,3.67-4.34,11.37-8.53,20.87-11.96,28.17-2.96,6.3-6.4,13.59-11.72,22.88-2.84,4.96-6.29,10.96-11.5,18.35-5.46,7.75-11.91,16.77-22.39,26.06-6.28,5.57-12.21,9.63-16.89,12.48-8.25,1.37-15.96-3.48-18.01-10.59-1.63-5.68.55-12.1,5.54-16.14,10.88-9.13,19.12-17.46,24.86-23.69,6.72-7.29,10.39-11.32,14.41-17.8,3.74-6.04,5.01-9.75,11.1-24.87,2.21-5.49,5.68-14.02,10.13-24.66Z"/>
          <path class="cls-17" d="M926.19,126.86c-.02.32-.05.64-.07.95,0,.19-.03.38-.04.57-.04.55-.08,1.09-.12,1.62-1.17,15.87-2.2,27.33-3.01,35.53-.08.74-.15,1.46-.22,2.15-.09.93-.18,1.81-.27,2.64-.2,1.82-.57,5.35-1.02,10.27-.62,6.62-1.12,13.09-1.53,19.41h-29.05v-.46s.02-.07.02-.07l.02-.63.74-18.64.29-7.29.13-3.14,1.31-32.93.1-2.57c1.85-.35,3.54-.87,5.06-1.48,4.06-1.64,6.95-3.94,8.52-5.38.52-.48.9-.87,1.13-1.11,2.99.09,5.97.19,8.96.28,1.62.05,3.25.1,4.87.15,1.2.04,2.4.07,3.6.11.19.01.39.01.58.02Z"/>
          <path class="cls-16" d="M893.47,134.27l-.1,2.57-1.31,32.93-.13,3.14-.29,7.29-.74,18.64-.02.63-.02.53h-25.51c-.49-2.77-1.01-5.57-1.56-8.39,0,0-1.53-7.98-3.3-15.91-1.17-5.3-2.51-10.82-3.85-16.07-.23-.88-.45-1.76-.68-2.62-3.08-11.89-6.01-21.94-6.69-24.24,2.74-.71,5.59-1.39,8.56-2.02,1.3-.28,2.63-.55,3.98-.81.66-.13,1.31-.25,1.96-.36.03-.01.05-.02.08-.02,1.59-.29,3.16-.55,4.7-.79.79-.13,1.58-.25,2.36-.36.37.31,1.1.9,2.15,1.61,2.3,1.53,6.15,3.6,11.18,4.4,1.81.28,3.77.41,5.87.28,1.19-.08,2.3-.21,3.36-.43Z"/>
          <path class="cls-16" d="M755.43,72.63c3.74-1.56,8.27-3.83,13.03-7.16,3.82-2.68,6.92-5.43,9.36-7.89,3.96,5.14,9.63,12.4,16.64,20.99,11.98,14.68,15.11,17.64,16.7,19.09,3.69,3.37,7.97,6.71,25.51,16.89,7.55,4.38,17.66,10.08,29.85,16.5.86.42,5.31,2.71,7.18,8.12,1.19,3.43,1.07,7.32-.63,10.82l-.95,1.96c-3.41,7.01-11.93,9.95-18.94,6.55-39.32-18.99-56.06-33.75-64.05-43.58-1.71-2.1-13.64-17.06-20.37-25.51-5.74-7.2-10.4-13.07-13.34-16.76Z"/>
        </g>
        <g id="Latzhose">
          <path class="cls-4" d="M883.38,169.02c-1.77-.08-3.49-.12-5.14-.12,0,0,0,0,0,0-3.3-13.66-6.59-27.32-9.89-40.98-.67,0-1.52.05-2.46.22-.89.17-1.64.41-2.22.63l9.72,40.29s0,0,0,0h0c-.94,6-1.7,12.69-2.03,20.01-.18,3.8-.22,7.44-.17,10.92h19.67l.02-.46v-.07l.03-.63.74-18.64.29-7.29.12-3.14c-2.68-.34-5.58-.61-8.67-.75Z"/>
          <path class="cls-19" d="M922.05,126.57c-.58-.25-1.32-.5-2.21-.68-.95-.19-1.79-.24-2.47-.23-3.75,14.82-7.49,29.63-11.24,44.45,0,0,0,0,0,0-1.54-.12-3.11-.21-4.73-.27-3.29-.14-6.4-.15-9.34-.07h0l-.12,3.14-.29,7.29-.74,18.64-.03.63v.07l-.02.46h19.58c.25-3.01.44-6.12.55-9.35.24-6.94.1-13.38-.26-19.28l11.33-44.8Z"/>
          <g>
            <path class="cls-1" d="M901.61,198.88c-2.98.43-6.61.73-10.74.58-4.29-.16-8.01-.76-11.03-1.45-.44-2.67-.75-6.04-.57-9.91.17-3.58.72-6.69,1.33-9.18,3.14.61,6.84,1.11,11.02,1.27,4.04.15,7.66-.05,10.76-.4.39,2.67.65,5.94.49,9.67-.15,3.65-.66,6.83-1.25,9.42Z"/>
            <circle class="cls-1" cx="876.29" cy="172.15" r="1.9"/>
            <circle class="cls-1" cx="907.8" cy="173.78" r="1.9"/>
          </g>
        </g>
      </g>
    </g>
    <g id="Person_2.">
      <g id="Gesicht-5" data-name="Gesicht">
        <g id="Haare-6" data-name="Haare">
          <path class="cls-6" d="M329.2,89.86c1.11,2.2.18,4.77-1.68,5.67-2.02.98-4.87-.16-5.67-2.73-4.25.23-7.34-2.69-7.35-5.46,0-2.74,3-4.53,3.15-4.62-4.52-.4-7.97-3.93-8.19-7.98-.17-3.23,1.73-6.38,4.83-7.98-.36-.36-3.3-3.43-2.73-7.98.55-4.4,3.95-6.64,4.41-6.93-2.29-2.99-2.53-7.04-.63-10.08,2.19-3.5,6.81-5,10.92-3.36.02-.41.37-6.27,5.46-9.24,3.81-2.22,8.71-1.9,12.39.84,1.83-2.13,4.7-3.03,7.35-2.31,2.91.79,5.03,3.41,5.25,6.51.57-.1,7.3-1.2,12.18,3.78,4.06,4.14,3.83,9.42,3.78,10.29,3.32,1.56,5.57,4.76,5.88,8.4.32,3.74-1.46,7.38-4.62,9.45,2.73,1.28,4.52,3.97,4.62,6.93.11,3.22-1.81,6.23-4.83,7.56,2.39,1.56,3.23,4.59,2.1,6.93-.95,1.96-3.13,3.15-5.46,2.94-.47,3.23-3.17,5.33-5.67,5.04-1.73-.2-3.25-1.54-3.99-3.36-2,1.13-4.33,1.27-5.88.21-2.28-1.57-2.91-5.8-.21-9.03-9.17.21-18.33.42-27.5.63l2.1,5.88Z"/>
        </g>
        <path class="cls-15" d="M368.98,67.82c-.75,0-1.46.18-2.1.48v-4.88c0-12.58-10.3-22.88-22.88-22.88h0c-12.58,0-22.88,10.3-22.88,22.88v4.66c-.48-.15-.97-.25-1.49-.25-2.77,0-5.04,2.27-5.04,5.04v1.89c0,2.77,2.27,5.04,5.04,5.04.72,0,1.39-.16,2.01-.43,1.6,7.41,6.82,13.5,13.69,16.34,0,.03,0,.05,0,.08v18.92c0,4.89,4,8.89,8.89,8.89s8.89-4,8.89-8.89v-18.92c0-.09-.01-.17-.01-.26,6.76-2.95,11.85-9.07,13.34-16.46.75.45,1.62.72,2.55.72,2.77,0,5.04-2.27,5.04-5.04v-1.89c0-2.77-2.27-5.04-5.04-5.04Z"/>
        <g id="Augenbrauen-5" data-name="Augenbrauen">
          <path class="cls-6" d="M338.81,63.04c-.61-.33-1.76-.84-3.29-.91-1.91-.09-3.35.57-3.99.91-1.09-.55-1.34-1-1.33-1.33.02-1.14,3.06-2.36,5.81-2.1,1.85.18,4.13,1.09,4.13,2.1,0,.52-.62.97-1.33,1.33Z"/>
          <path class="cls-6" d="M357.05,63.04c-.61-.33-1.76-.84-3.29-.91-1.91-.09-3.35.57-3.99.91-1.09-.55-1.34-1-1.33-1.33.02-1.14,3.06-2.36,5.81-2.1,1.85.18,4.13,1.09,4.13,2.1,0,.52-.62.97-1.33,1.33Z"/>
        </g>
        <g id="Augen-5" data-name="Augen">
          <rect x="351.48" y="64.58" width="3.65" height="4.29" rx="1.83" ry="1.83"/>
          <rect x="333.54" y="64.58" width="3.65" height="4.29" rx="1.83" ry="1.83"/>
        </g>
        <g id="Schatten-4" data-name="Schatten">
          <path class="cls-8" d="M352.82,95.74c-1.19.64-2.98,1.43-5.28,1.83-2.67.47-4.9.23-6.32-.04,3.96,2.92,7.93,5.85,11.89,8.77.05-1.02.07-1.88.08-2.53.02-1.19,0-2.02-.02-3.66-.02-1.38-.04-1.71-.06-1.98-.07-1.01-.2-1.84-.3-2.41Z"/>
          <path class="cls-8" d="M369.72,71.5c.36,0,.86,1.44.47,2.74-.28.94-1.03,1.88-1.34,1.75-.58-.24.25-4.5.87-4.5Z"/>
          <path class="cls-8" d="M318.58,71.5c-.36,0-.86,1.44-.47,2.74.28.94,1.03,1.88,1.34,1.75.58-.24-.25-4.5-.87-4.5Z"/>
        </g>
        <path d="M344.95,80.66c-.6,0-1.24-.17-1.84-.5-.06-.03-.08-.11-.05-.17s.11-.08.17-.05c.85.47,1.82.6,2.58.33.42-.15.74-.4.86-.69.31-.73.04-1.46-.8-2.23l-.11-.1c-.43-.4-1.08-1-1.4-1.99-.11-.35-.15-.86-.18-1.21v-.14c-.01-.41-.02-.75-.02-1.08,0-.33-.01-.67-.01-1.07,0-.07.06-.12.12-.12s.12.06.12.12c0,.4,0,.74.01,1.07,0,.33.01.67.01,1.07v.14c.04.33.08.83.18,1.15.3.93.92,1.5,1.33,1.88l.11.1c.93.85,1.22,1.67.86,2.51-.15.36-.52.66-1.01.83-.3.1-.62.15-.94.15Z"/>
        <path class="cls-9" d="M335.55,82.81c.39,3.42,2.9,6.18,6.11,6.79,2.75.52,5.62-.61,7.41-2.89-1.71-.05-3.84-.27-6.23-.88-3.1-.8-5.55-1.99-7.3-3.01Z"/>
        <g id="Haare-7" data-name="Haare">
          <path class="cls-6" d="M370.28,55.09c.1-.27,1.83-5.15-1.01-9.73-2.55-4.11-6.63-4.51-7.06-4.54-1.2-3.34-4.09-5.23-6.52-4.68-2.49.56-3.45,3.44-3.54,3.72-.08.09-.69.73-1.24,1.82-.59-.36-1.28-.64-2.08-.8.11-2.8-1.88-5.23-4.52-5.66-2.43-.39-4.89.98-5.87,3.35-1.32-2.95-4.64-4.34-7.4-3.31-2.37.88-3.94,3.39-3.7,6.12-1.64.94-3.92,2.54-5.84,5.15-2.85,3.88-7.86,11.77-4.6,16.43,1.11,1.59,3.42,2.81,4.55,3.29,1.96.77,4.89-.07,6.16-1.22,2.41-2.2,1.4-5.25,1.61-5.25.9,0,3.08,1.47,5.77.49,1.41-.51,3.08-2.2,2.86-5.28,2.24,1.95,5.55,2.09,7.91.35,2.31-1.7,3.18-4.8,2.09-7.48.86.19,1.68.19,2.41.06.97,3.7,3.9,5.37,4.15,5.51.01.32.19,3.37,2.47,5.2,1.92,1.55,4.54,1.58,6.5.02-1.2,1.03-1.43,2.95-.64,4.32.89,1.55,2.89,2.08,4.27.92,1.95.22,3.74-.97,4.45-2.95.7-1.95.22-4.29-1.19-5.86Z"/>
        </g>
      </g>
      <g id="Oberkörper-3" data-name="Oberkörper">
        <path class="cls-15" d="M307.89,121.35c10.51-2.7,22.72-5.16,36.39-6.72,12.76-1.45,24.43-1.85,34.71-1.68-2.99,25.75-5.97,51.5-8.96,77.25h-41.98c-6.72-22.95-13.44-45.9-20.15-68.85Z"/>
        <g id="Arm_links-2" data-name="Arm_links">
          <path class="cls-15" d="M308.75,144.31c-1.63-.17-3.16-.66-4.53-1.39v-.03s-.05,0-.1-.04c-20.07-10.55-40.17-21.1-60.27-31.67-.07-.03-.17-.07-.24-.13-.27-.13-.56-.26-.82-.42-2.89-1.72-4.66-5-4.29-8.57.51-4.9,4.89-8.45,9.79-7.94.8.08,1.57.27,2.3.57,0,0,.2.07.29.11,21.13,8.65,42.24,17.33,63.37,26,.27.13.56.24.83.34.05.03.1.04.15.07,4.52,2.15,7.42,6.99,6.87,12.24-.7,6.71-6.69,11.54-13.37,10.84Z"/>
          <path class="cls-15" d="M255.45,99.58c-.03-.07-.06-.13-.09-.2-.17-.34-.34-.68-.5-1.02l-.06-.07c-3.79-8.29-8.33-17.21-13.78-26.52-4.86-8.31-9.8-15.83-14.61-22.57.04-4.09.19-7.22.32-9.39,0,0,.21-2.43-.65-6.75-.22-1.11-.55-2.39-1.51-2.78-.29-.12-.63-.15-1.04-.06-1.38.29-2.39,3.39-2.87,6.52-.23,1.47-4.1-.77-5.04-3.48-1.76-5.09.74-9.83-2.2-10.38-3.48-.65-5.78,6.86-4.69,13.93.74,4.8,2.5,8.32,3.3,9.59,1.76,2.81,3.8,4.67,5.22,5.78,3.78,11.07,7.19,19.68,9.7,25.68,1.67,4.01,4.14,9.7,5.93,13.85,1.98,4.58,3.97,9.14,5.96,13.65v.02c.23,1.15.72,2.27,1.47,3.23,2.77,3.56,8.18,4.02,12.07,1,3.25-2.53,4.4-6.68,3.07-10.04Z"/>
        </g>
        <g id="Arm_rechts-2" data-name="Arm_rechts">
          <path class="cls-15" d="M370.92,133.49c.95,1.34,2.13,2.42,3.44,3.25h.02s.03.03.08.05c19.08,12.26,38.17,24.53,57.28,36.8.06.05.14.11.23.15.24.17.5.36.77.51,2.93,1.67,6.65,1.58,9.57-.5,4.01-2.86,4.94-8.43,2.08-12.43-.47-.66-1.01-1.24-1.63-1.72,0,0-.16-.14-.24-.2-17.95-14.11-35.91-28.19-53.88-42.29-.24-.17-.48-.37-.7-.55-.05-.03-.08-.07-.13-.09-4.1-2.88-9.74-3-14.04.06-5.49,3.92-6.74,11.51-2.84,16.98Z"/>
          <path class="cls-15" d="M466.03,80.83c-2.94.55-.44,5.29-2.2,10.38-.94,2.71-4.81,4.94-5.04,3.48-.48-3.14-1.49-6.24-2.87-6.52-.41-.09-.75-.05-1.04.06-.96.39-1.29,1.67-1.51,2.78-.87,4.32-.65,6.75-.65,6.75.13,2.16.28,5.3.32,9.39h0c-3.78,8.32-7.54,16.79-11.28,25.41-4.39,10.11-8.6,20.1-12.64,29.97l-.05.09c-.15.38-.31.76-.46,1.14-.03.07-.05.15-.08.22-1.18,3.74.24,7.96,3.71,10.17,4.16,2.64,9.68,1.39,12.32-2.76.72-1.13,1.15-2.38,1.31-3.62v-.02c5.46-19.2,10.9-38.4,16.34-57.61h0,0c1.42-1.11,3.46-2.97,5.22-5.78.8-1.27,2.56-4.79,3.3-9.59,1.09-7.07-1.22-14.59-4.69-13.93Z"/>
        </g>
      </g>
      <g id="Hose-2" data-name="Hose">
        <path class="cls-14" d="M346.97,189.94v12.35h32.41c-2.62-4.13-5.17-7.73-7.47-10.78-.39-.52-.77-1.03-1.15-1.52h-.7c-7.7-.02-15.39-.02-23.09-.05Z"/>
        <path class="cls-10" d="M317.88,202.29h29.09v-12.35c-6.31,0-12.66-.02-19-.02h-.59c-.39.46-.77.92-1.15,1.38-3.06,3.73-5.83,7.39-8.35,10.99Z"/>
      </g>
      <g id="Oberteil-6" data-name="Oberteil">
        <path class="cls-4" d="M346.97,119.9v74.74c-10.25-.3-18.53-2.5-24.06-4.42-.88-4.19-1.84-8.48-2.85-12.83,0,0-1.82-7.78-3.86-15.5-4.72-17.93-11.56-38.38-12.7-41.74,1.11-.48,2.2-.96,3.31-1.41,5.93-1.24,11.87-2.47,17.78-3.71,1.51,1.16,8.76,6.46,19.11,5.43,1.16-.13,2.25-.3,3.28-.56Z"/>
        <path class="cls-5" d="M378.84,111.34c-.68,20.68-1.41,34.19-1.97,42.85-.13,1.79-.35,5.28-.61,10.13-.48,8.99-.76,17.7-.88,26.11-5.93,2.02-15.1,4.34-26.44,4.27-.66,0-1.31-.03-1.97-.05v-74.74c8.18-1.89,13-7.12,14.14-8.41,5.91-.05,11.82-.1,17.73-.15Z"/>
        <path class="cls-5" d="M383.01,107.67h1.99c7.65,0,13.87,6.21,13.87,13.87v31.27h-29.72v-31.27c0-7.65,6.21-13.87,13.87-13.87Z" transform="translate(71.65 388.8) rotate(-58.35)"/>
        <path class="cls-4" d="M307.33,103.73h0c8.28,0,15,6.72,15,15v37.32h-30.01v-37.32c0-8.28,6.72-15,15-15Z" transform="translate(541.28 -107.99) rotate(111.61)"/>
      </g>
    </g>
  </g>
</svg>