<?xml version="1.0" encoding="UTF-8"?>
<svg id="Ebene_1" data-name="Ebene 1" xmlns="http://www.w3.org/2000/svg" viewBox="0 0 1050 200">
  <defs>
    <style>
      .cls-1 {
        fill: #673605;
      }

      .cls-1, .cls-2, .cls-3, .cls-4, .cls-5, .cls-6, .cls-7, .cls-8, .cls-9, .cls-10, .cls-11, .cls-12, .cls-13, .cls-14, .cls-15, .cls-16, .cls-17, .cls-18, .cls-19, .cls-20, .cls-21, .cls-22, .cls-23, .cls-24 {
        stroke-width: 0px;
      }

      .cls-2 {
        fill: #942c69;
      }

      .cls-3 {
        fill: #481f05;
      }

      .cls-4 {
        fill: #bfe3f3;
      }

      .cls-5 {
        fill: #673605;
      }

      .cls-6 {
        fill: #0090cd;
      }

      .cls-7 {
        fill: #f96800;
      }

      .cls-8 {
        fill: #481f05;
      }

      .cls-9 {
        fill: #e3bc8c;
      }

      .cls-10 {
        fill: #a9def6;
      }

      .cls-11 {
        fill: #000;
      }

      .cls-12 {
        fill: #e4bfa3;
      }

      .cls-13 {
        fill: #af618e;
      }

      .cls-14 {
        fill: #bf7a3e;
      }

      .cls-15 {
        fill: #e5e6e5;
      }

      .cls-16 {
        fill: #cbcbcb;
      }

      .cls-17 {
        fill: #54bdec;
      }

      .cls-18 {
        fill: #fb8e40;
      }

      .cls-19 {
        fill: #e4bfa3;
      }

      .cls-20 {
        fill: #fff;
      }

      .cls-21 {
        fill: #ffd8b9;
      }

      .cls-22 {
        fill: #c995b4;
      }

      .cls-23 {
        fill: #0090ce;
      }

      .cls-24 {
        fill: #e5c0a4;
      }
    </style>
  </defs>
  <g id="G-0009_BUW_Header_Ende">
    <g id="Hintergurnd">
      <rect class="cls-4" x=".63" y="-.05" width="1050" height="200"/>
    </g>
    <g>
      <g id="Person_4" data-name="Person 4">
        <g id="Gesicht">
          <path class="cls-14" d="M738.32,56.72c-1-1-2.38-1.62-3.9-1.62-.82,0-1.6.18-2.3.51v-5.34c0-6.9-2.82-13.17-7.37-17.71-.14-.14-.29-.29-.44-.42-.35.19-.72.34-1.11.47-.37,1.44-1.56,2.53-2.98,2.71-1.96.27-3.23-1.3-3.28-1.37.09.2.67,1.63-.08,3.05-.66,1.27-2.11,2.01-3.65,1.86-.11.35-.95,2.72-3.5,3.73-2.86,1.13-5.36-.45-5.59-.6-.05.2-.73,2.4-3.01,3.17-.07.02-.14.05-.21.06,1.28.4,2.34,1.05,2.34,1.74,0,.53-.62.99-1.35,1.35-.62-.33-1.78-.85-3.32-.92-1.94-.09-3.4.58-4.04.92-1.1-.56-1.35-1.02-1.35-1.35,0-.15.06-.31.17-.46-1.3.38-2.65.33-3.83-.19-1.99-.87-2.78-2.77-2.98-3.27-1.19.58-2.47.73-3.67.51-.61,2.14-.93,4.39-.93,6.72v5.08c-.52-.16-1.06-.25-1.63-.25-3.04,0-5.53,2.49-5.53,5.52v2.08c0,3.03,2.49,5.52,5.53,5.52.78,0,1.53-.16,2.2-.47,1.75,8.12,7.47,14.81,15.01,17.92v19.31c-4.38.31-8.55.77-12.45,1.34,2.53,2.5,8.41,7.34,17.03,8.44,1.14.14,2.35.21,3.59.21,1.02,0,2-.05,2.96-.17,1.82-.2,3.51-.57,5.1-1.05h.01c6.39-1.96,10.81-5.82,13.05-8.14-3.13-.35-6.41-.62-9.81-.79v-7.53c-2.66-1.87-5.35-3.81-8.07-5.82-2.07-1.54-4.1-3.07-6.09-4.6,1.83.27,4.24.45,7.05.19,2.71-.26,5.01-.85,6.75-1.43.02-.01.03-.01.05-.02.09-.04.18-.08.27-.12.01,0,.02-.01.03-.01,7.41-3.23,12.98-9.94,14.63-18.03.82.49,1.78.77,2.8.77,3.04,0,5.52-2.49,5.52-5.52v-2.08c0-1.52-.62-2.9-1.62-3.9ZM680.11,64.06c-.34.14-1.17-.89-1.47-1.92-.43-1.43.13-3,.52-3.01.67,0,1.59,4.67.95,4.93ZM700.26,52.36c0,1.02-.83,1.85-1.85,1.85s-1.85-.83-1.85-1.85v-.64c0-1.02.84-1.85,1.85-1.85s1.85.83,1.85,1.85v.64ZM706.19,65.46c.04-.06.11-.08.17-.05.87.48,1.85.61,2.62.34.43-.15.75-.41.87-.7.31-.74.05-1.48-.81-2.26l-.11-.1c-.41-.38-1.1-1.01-1.42-2.02-.11-.35-.15-.87-.18-1.22v-.14c0-.42-.02-.76-.02-1.1-.01-.34-.02-.68-.02-1.08,0-.07.06-.13.13-.13s.12.06.12.13c0,.4.01.74.02,1.08,0,.34.01.68.01,1.08v.14c.04.34.08.84.18,1.17.3.94.93,1.52,1.35,1.9l.11.1c.94.86,1.23,1.7.87,2.54-.15.37-.52.67-1.02.84-.3.11-.62.16-.95.16-.61,0-1.26-.17-1.87-.51-.06-.03-.08-.11-.05-.17ZM709.89,76.39h-.01c-.2.05-.4.1-.61.14-1.29.24-2.6.11-3.81-.34-1.28-.48-2.44-1.31-3.33-2.45,1.65-.05,3.71-.26,6.01-.85,2.98-.76,5.35-1.91,7.02-2.9-.34,3.08-2.47,5.59-5.27,6.4ZM718.42,52.36c0,1.02-.83,1.85-1.85,1.85s-1.85-.83-1.85-1.85v-.64c0-1.02.83-1.85,1.85-1.85s1.85.83,1.85,1.85v.64ZM720.36,48.31c-.62-.33-1.78-.85-3.33-.92-1.93-.09-3.39.58-4.03.92-1.11-.56-1.36-1.02-1.35-1.35.02-1.15,3.1-2.39,5.88-2.12,1.87.18,4.18,1.11,4.18,2.12,0,.53-.63.99-1.35,1.35ZM735.74,62.14c-.3,1.03-1.13,2.06-1.47,1.92-.64-.26.28-4.93.95-4.93.39.01.95,1.58.52,3.01Z"/>
          <path class="cls-5" d="M680.12,64.05c-.34.14-1.17-.89-1.47-1.92-.43-1.43.13-3,.52-3.01.67,0,1.59,4.67.95,4.93Z"/>
          <path class="cls-5" d="M735.75,62.13c-.3,1.03-1.13,2.06-1.47,1.92-.64-.26.28-4.93.95-4.93.39.01.95,1.58.52,3.01Z"/>
          <path class="cls-8" d="M721.72,46.95c0,.53-.63.99-1.35,1.35-.62-.33-1.78-.85-3.33-.92-1.93-.09-3.39.58-4.03.92-1.11-.56-1.36-1.02-1.35-1.35.02-1.15,3.1-2.39,5.88-2.12,1.87.18,4.18,1.11,4.18,2.12Z"/>
          <path class="cls-1" d="M717,87.1v10.19c-2.66-1.87-5.35-3.81-8.07-5.82-2.07-1.54-4.1-3.07-6.09-4.6,1.83.27,4.24.45,7.05.19,2.71-.26,5.01-.85,6.75-1.43.02-.01.03-.01.05-.02.09-.04.18-.08.27-.12l.03.75c0,.14.01.27,0,.4.01.16.01.31.01.46Z"/>
          <path class="cls-8" d="M721.72,46.95c0,.53-.63.99-1.35,1.35-.62-.33-1.78-.85-3.33-.92-1.93-.09-3.39.58-4.03.92-1.11-.56-1.36-1.02-1.35-1.35.02-1.15,3.1-2.39,5.88-2.12,1.87.18,4.18,1.11,4.18,2.12Z"/>
          <path class="cls-3" d="M703.24,46.96c0,.53-.62.99-1.35,1.35-.62-.33-1.78-.85-3.32-.92-1.94-.09-3.4.58-4.04.92-1.1-.56-1.35-1.02-1.35-1.35,0-.15.06-.31.17-.46.37-.55,1.35-1.08,2.56-1.39.47-.13.99-.22,1.51-.27.54-.05,1.1-.05,1.64,0,.6.06,1.25.19,1.84.38,1.28.4,2.34,1.05,2.34,1.74Z"/>
          <path class="cls-11" d="M700.27,51.71v.64c0,1.02-.83,1.85-1.85,1.85s-1.85-.83-1.85-1.85v-.64c0-1.02.84-1.85,1.85-1.85s1.85.83,1.85,1.85Z"/>
          <path class="cls-11" d="M718.43,51.71v.64c0,1.02-.83,1.85-1.85,1.85s-1.85-.83-1.85-1.85v-.64c0-1.02.83-1.85,1.85-1.85s1.85.83,1.85,1.85Z"/>
          <path class="cls-11" d="M710.09,65.13c-.15.37-.52.67-1.02.84-.3.11-.62.16-.95.16-.61,0-1.26-.17-1.87-.51-.06-.03-.08-.11-.05-.17.04-.06.11-.08.17-.05.87.48,1.85.61,2.62.34.43-.15.75-.41.87-.7.31-.74.05-1.48-.81-2.26l-.11-.1c-.41-.38-1.1-1.01-1.42-2.02-.11-.35-.15-.87-.18-1.22v-.14c-.01-.42-.02-.76-.02-1.1-.01-.34-.02-.68-.02-1.08,0-.07.06-.13.13-.13s.12.06.12.13c0,.4.01.74.02,1.08,0,.34.01.68.01,1.08v.14c.04.34.08.84.18,1.17.3.94.93,1.52,1.35,1.9l.11.1c.94.86,1.23,1.7.87,2.54Z"/>
          <path class="cls-20" d="M715.17,69.98c-.34,3.08-2.47,5.59-5.27,6.4h0c-.2.05-.4.1-.61.14-1.29.24-2.6.11-3.81-.34-1.28-.48-2.44-1.31-3.33-2.45,1.65-.05,3.71-.26,6.01-.85,2.98-.76,5.35-1.91,7.02-2.9Z"/>
          <g id="Haare">
            <path class="cls-8" d="M736.9,69.04c.06.85.18,3.92-1.93,6.7-3.04,4-8.01,3.89-8.5,3.87-.49,1.39-1.77,4.31-4.76,6.41-1.52,1.06-3.13,1.66-4.71,1.96v-.88c0-.15,0-.3-.01-.46.01-.13,0-.26,0-.4l-.03-.75s.02-.01.03-.01c7.41-3.23,12.98-9.94,14.63-18.03.82.49,1.78.77,2.8.77,3.04,0,5.52-2.49,5.52-5.52v-2.08c0-1.52-.62-2.9-1.62-3.9s-2.38-1.62-3.9-1.62c-.82,0-1.6.18-2.3.51v-5.34c0-6.9-2.82-13.17-7.37-17.71-.14-.14-.29-.29-.44-.42-.35.19-.72.34-1.11.47-.37,1.44-1.56,2.53-2.98,2.71-1.96.27-3.23-1.3-3.28-1.37.09.2.67,1.63-.08,3.05-.66,1.27-2.11,2.01-3.65,1.86-.11.35-.95,2.72-3.5,3.73-2.86,1.13-5.36-.45-5.59-.6-.05.2-.73,2.4-3.01,3.17-.07.02-.14.05-.21.06-.59-.19-1.24-.32-1.84-.38-.54-.05-1.1-.05-1.64,0-.52.05-1.04.14-1.51.27-1.21.31-2.19.84-2.56,1.39-1.3.38-2.65.33-3.83-.19-1.99-.87-2.78-2.77-2.98-3.27-1.19.58-2.47.73-3.67.51-.61,2.14-.93,4.39-.93,6.72v5.08c-.52-.16-1.06-.25-1.63-.25-3.04,0-5.53,2.49-5.53,5.52v2.08c0,3.03,2.49,5.52,5.53,5.52.78,0,1.53-.16,2.2-.47,1.75,8.12,7.47,14.81,15.01,17.92v2.37c-.77-.18-1.55-.46-2.34-.83-3.6-1.71-5.35-4.66-5.96-5.81-3.52.72-6.87-.78-8.19-3.42-1.14-2.3-.36-4.65-.15-5.22-4.89-1.82-7.97-6.51-7.6-11.32.47-6.08,6.16-8.97,6.41-9.09-3.5-.29-6.21-3.06-6.41-6.26-.2-3.11,2.01-6.05,5.17-6.89-.25-1.41.05-2.92.88-4.19,0-.3.03-.6.07-.9-2.01-1.93-2.21-5.01-.64-6.94,1.37-1.7,3.93-2.28,6.14-1.27-.3-2.17.78-4.3,2.69-5.33,1.98-1.06,4.46-.72,6.1.86.33-.6,2.45-4.34,7.08-5.44,4.18-.99,7.45.87,8.12,1.27,1.53-2.25,4.14-3.48,6.74-3.17,3.06.37,5.6,2.83,6.15,6.04,3.15.29,5.6,2.7,5.98,5.57.23.18.44.37.65.57,2.97,2.91,2.3,6.97,2.24,7.3.43.13,5.6,1.73,7.3,7.01,1.23,3.84.13,8.13-2.83,11.02.54.22,4.7,1.99,5.96,6.41,1.12,3.95-.53,8.4-4.18,11.03Z"/>
          </g>
        </g>
        <g id="T-Shirt">
          <path class="cls-18" d="M665.02,158.71c.31-2.99.59-6.19.8-9.6-1.54.18-3.12.19-4.73-.02-8.54-1.09-17.07-2.19-25.61-3.28.1-.02.28-.06.51-.11.03-.01.05-.01.08-.02.21-.05.43-.11.66-.17.23-.07.46-.14.71-.22.26-.08.51-.17.75-.26.16-.06.33-.12.5-.19,1.31-.54,2.29-1.11,2.85-1.47,0,0,.34-.22.69-.46,1.2-.83,4.1-3.28,6.58-7.27,3.65-5.88,4.45-13.43,1.11-14.17-2.82-.62-2.4,4.54-5.9,8.4-1.85,2.05-6.15,2.56-5.79,1.17.76-2.97,1.04-6.1-.08-6.89-.33-.23-.65-.33-.94-.33-1.01-.02-1.78,1-2.4,1.89-2.41,3.52-3.14,5.76-3.14,5.76-.4.94-.79,1.96-1.15,3.08,0,.02-.01.03-.01.05-.01.02-.02.05-.03.07-.5,1.6-.86,3.09-1.11,4.44-.31.29-.61.58-.92.87-.74.7-1.47,1.41-2.21,2.11-.25-.27-.48-.54-.71-.81l.43-3.38,3.97-30.93.66-5.11,35.19,4.51c2.51-.44,5.24-.81,8.17-1.06,3.56-.31,6.87-.39,9.88-.33.2.23.63.71,1.25,1.33,2.53,2.5,8.41,7.34,17.03,8.44,1.14.14,2.35.21,3.59.21,1.02,0,2-.05,2.96-.17l.03,1.35,1.8,83.81h-52.45c3.48-19.73,5.55-27.46,6.98-41.24Z"/>
          <path class="cls-7" d="M765.57,198.23c.12.56.25,1.13.38,1.72h-55.46l-1.8-83.81-.03-1.35c1.82-.2,3.51-.57,5.1-1.05h.01c6.39-1.96,10.81-5.82,13.05-8.14.81-.86,1.33-1.5,1.53-1.76,3.54-.13,7.75-.04,12.44.55,4.64.59,8.71,1.55,12.08,2.56l20.95-6.25c.86,1.08,1.71,2.15,2.55,3.2,1.55,1.93,3.01,3.77,4.3,5.39,2.3,2.87,4.03,5.02,4.6,5.73,2.23,2.76,5.16,5.9,9.08,9.41.04.04.08.08.13.11l2.39,8.02,1.67,5.61-41.32,12.32c-.92.28-1.85.48-2.77.62,2.73,18.55,6.73,27.54,11.12,47.12Z"/>
        </g>
        <g id="Arme">
          <path class="cls-14" d="M801.98,130.73c-1.72.63-2.7.98-2.7.98-.83.29-1.63.58-2.41.85l-2.39-8.02c2.17,1.96,4.66,4.01,7.5,6.19Z"/>
          <path class="cls-14" d="M845.82,102.66c-.11,2.26-.47,5.58-2.65,8.78-1.12,1.65-2.49,2.91-3.87,3.87-.91.64-1.83,1.15-2.7,1.55-.11-.06-.22-.12-.33-.19-1.21-.69-2.37-1.36-3.47-2-.41-.24-.81-.47-1.21-.7-.18-.1-.35-.2-.52-.3-10.15-5.93-15.54-9.41-19.03-11.99-1.59-1.17-2.79-2.16-3.86-3.1.93-.19,1.89-.38,2.86-.56,4.23-.79,8.8-1.55,13.58-2.21-3.53-15.52-7.07-31.06-10.6-46.58-2.58-4.01-4.69-7.06-6.23-9.22,0,0-1.98-2.63-4.08-8.22-.54-1.43-1.08-3.14-.25-4.27.24-.34.61-.62,1.14-.82,1.8-.66,5.17,2.18,7.97,5.44,1.31,1.53,4.16-3.82,3.3-7.6-1.62-7.11-7.89-10.76-4.9-13.51,3.52-3.24,11.55,3.75,15.37,12.65,2.59,6.04,3.08,11.35,3.07,13.38-.01,2.95-.45,5.53-.99,7.59,3.74,7.99,6.61,14.81,8.68,19.96,2.55,6.37,9.46,23.53,8.72,38.05Z"/>
          <path class="cls-14" d="M629.93,106.97l-3.97,30.93c-1.77-.64-3.69-1.32-5.76-2.06,0,0-17.71-6.3-33.89-13.63-.01,0-.02-.01-.03-.01-2.23-.59-6.96-2.22-9.97-6.63-2.18-3.2-2.54-6.53-2.65-8.79-.74-14.51,6.16-31.68,8.72-38.05,2.12-5.27,5.06-12.29,8.94-20.5-.66-2.2-1.24-5.1-1.25-8.51-.01-2.03.48-7.34,3.07-13.38,3.82-8.91,11.84-15.89,15.37-12.65,2.99,2.74-3.28,6.4-4.9,13.51-.87,3.78,1.99,9.13,3.3,7.6,2.8-3.26,6.17-6.1,7.97-5.44.53.2.9.48,1.14.82.83,1.13.28,2.84-.25,4.27-2.1,5.59-4.09,8.22-4.09,8.22-1.43,2.01-3.35,4.8-5.7,8.4-3.71,16.28-7.41,32.58-11.12,48.86,15.01,2.08,27.85,5.14,35.07,7.04Z"/>
        </g>
      </g>
      <g id="Person_1" data-name="Person 1">
        <g id="Arme-2" data-name="Arme">
          <path class="cls-21" d="M109.5,124.41l-8.28,27.78c-6.88-1.68-20.24-5.26-35.02-11.03-4.12-1.61-8.36-3.23-10.52-7.41-3.88-7.52,2.69-17.86,5.87-24.72,5.7-12.3,11.8-24.41,18.03-36.44-.02-1.95.19-4.93,1.39-8.31.55-1.53,2.35-5.38,5.92-9.23,5.28-5.66,13.19-8.75,14.97-5.36,1.51,2.87-4.19,3.92-7.33,8.83-1.67,2.61-.96,7.4.43,6.61,2.99-1.7,6.29-2.92,7.46-1.94.35.29.55.6.64.92.32,1.08-.55,2.21-1.34,3.14-3.09,3.64-5.29,5.09-5.29,5.09-1.67,1.17-3.98,2.81-6.85,5-4.41,17.98-8.24,32.87-10.99,42.96,14,1.39,26.58,3.42,26.58,3.42,1.53.24,2.97.47,4.33.69Z"/>
          <path class="cls-21" d="M279.86,129.74l-.33.82c-1.21,1-2.16,1.64-2.57,1.92-16.81,11.33-22.09,14.21-22.09,14.21-.27.15-.54.29-.81.44l-9.75-24.6c4.16-2.16,7.72-3.93,11.25-5.57,8.1,4.27,16.2,8.52,24.3,12.78Z"/>
          <path class="cls-21" d="M307.8,53.38c-.8,2.05-1.78,3.74-2.72,5.08.01.06,0,.12,0,.19-4.77,21.79-9.05,39.29-11.81,49.24h-.01l-4.1-1.63-1.34,3.39c-4.79-1.97-9.58-3.93-14.36-5.89,3.81-9.21,10.67-25.21,19.49-45.19-.82-3.99-1.56-7.05-2.11-9.2,0,0-.72-2.54-.68-7.3.01-1.22.1-2.65,1.04-3.26.28-.18.63-.29,1.09-.28,1.52.02,3.22,3.11,4.37,6.34.54,1.52,4.21-1.65,4.65-4.72.83-5.76-2.79-10.29.22-11.47,3.56-1.4,7.54,6.11,7.83,13.84.19,5.25-.97,9.34-1.56,10.86Z"/>
        </g>
        <g id="T-Shirt-2" data-name="T-Shirt">
          <path class="cls-13" d="M136.93,177.19c.26-3,.46-6.16.58-9.48-1.47-.06-2.95-.3-4.42-.74l-33.32-9.93,1.45-4.85,8.28-27.78,2.04-6.86,31.51,9.39c.78-.12,1.58-.23,2.41-.31,3.54-.36,6.65-.23,9.16.04.19.22.59.67,1.18,1.25,2.69,2.66,9.43,8.16,19.39,8.14.47,0,.94-.02,1.41-.05l1.97,63.94h-45.18c1.64-8.39,2.81-14.38,3.54-22.76Z"/>
          <path class="cls-2" d="M221.13,170.76c1.78,11.79,4.13,19.48,6.74,29.19h-49.3l-1.97-63.94c9.37-.53,15.69-5.89,18.43-8.77.78-.8,1.26-1.4,1.45-1.65,3.01-.5,7.1-.87,11.9-.37,4.39.47,8.09,1.5,10.94,2.56h.01l23.39-9.27,1.59,4.02,9.75,24.6,3.84,9.69-32.32,12.81c-1.46.58-2.96.95-4.45,1.13Z"/>
        </g>
        <g id="Gesicht-2" data-name="Gesicht">
          <g id="Gesicht-3" data-name="Gesicht">
            <path class="cls-21" d="M203.48,78.62l-.36-1.96c-.45-2.4-2.47-4.13-4.78-4.33h-.01s-.03.04-.06,0c-.33-.46-1.65-5.94-3.8-9.98-.48-.9-.76-1.58-1.19-2.3-.32-.53-.61-.94-.86-1.28-5.42,6.27-20.92,7.89-32.4,5.35-1.35,2.17-3.2,4.72-3.18,8.46.03,4.98,2.52,9.52,2.94,10.04-.3-.18-1.52-.91-3.54-1.74-.29-.12-.59-.24-.91-.36-2.15-.81-3.41-1.03-4.32-1.17h-.01c-.27.07-.53.16-.78.28-1.86.82-3.16,2.69-3.16,4.85v1.99c0,2.92,2.38,5.31,5.3,5.31.51,0,1-.07,1.47-.21,2.34,6.2,6.87,11.06,12.44,13.96-.1.54-.15,1.09-.15,1.66v19.57c-3.61.28-7.06.68-10.32,1.16,2.69,2.66,9.43,8.16,19.39,8.14.47,0,.94-.02,1.41-.05,9.37-.53,15.69-5.89,18.43-8.77-3.24-.35-6.64-.62-10.18-.78h-.01v-7.32c-4.29-3.81-8.58-7.61-12.87-11.41,1.73.44,4.1.86,6.92.8.82-.02,1.59-.07,2.32-.16.61-.06,1.18-.14,1.72-.24.05-.01.1-.02.15-.03.31-.06.62-.12.94-.19.27-.06.54-.12.82-.19.01,0,.03,0,.04,0,.33-.09.67-.18,1-.28,10.34-3.08,16.75-13.22,15.55-23.6,1.56-1.17,2.43-3.17,2.05-5.21ZM152.38,87c0,.43-.06.73-.21.79-.32.13-1.12-.86-1.41-1.85-.4-1.33.09-2.79.46-2.87.01-.02.03-.02.04-.02.5,0,1.11,2.57,1.12,3.93v.02ZM185.48,66.19c2.32-1.75,5.73-2.32,6.38-1.31.18.29.21.83-.47,1.93-.75.04-2.41.24-4.08,1.38-1.33.9-2.08,1.99-2.45,2.63-.84.07-1.64,0-1.93-.47-.56-.9.99-2.98,2.55-4.16ZM189.52,75.05c-1.05.18-2.04-.54-2.22-1.58l-.11-.67c-.17-1.04.54-2.04,1.58-2.21.11-.02.22-.03.32-.03.93,0,1.75.68,1.9,1.61l.11.66c.18,1.05-.54,2.05-1.58,2.22ZM180.59,79.47c.08,0,.16.04.17.12.07.42.14.77.2,1.12.07.35.13.69.2,1.1l.03.13c.09.34.21.86.38,1.17.47.91,1.21,1.4,1.7,1.72l.13.09c1.13.72,1.57,1.53,1.34,2.47-.09.41-.43.79-.91,1.05-.45.25-.99.37-1.55.37-.46,0-.94-.08-1.42-.25-.08-.03-.12-.11-.09-.19.03-.07.11-.11.19-.08.97.34,1.99.3,2.73-.11.41-.22.69-.53.77-.85.19-.81-.21-1.52-1.22-2.17l-.13-.08c-.48-.32-1.3-.85-1.8-1.84-.18-.34-.31-.87-.4-1.23l-.04-.14c-.07-.42-.13-.76-.19-1.1-.07-.35-.14-.71-.21-1.13-.01-.08.04-.16.12-.17ZM165.75,73.92c-.84.07-1.64,0-1.93-.47-.55-.9.99-2.97,2.56-4.16,2.31-1.75,5.72-2.32,6.37-1.31.19.29.21.83-.46,1.93-.76.04-2.41.24-4.09,1.38-1.33.9-2.08,1.99-2.45,2.63ZM168.65,76.58l-.11-.66c-.17-1.05.54-2.05,1.59-2.22.11-.02.21-.03.32-.03.92,0,1.74.68,1.89,1.61l.11.66c.18,1.05-.53,2.05-1.58,2.22-1.04.18-2.04-.54-2.22-1.58ZM192.89,94.92c-1.21.5-2.51.68-3.8.55-.76,1.19-2.14,2.74-4.38,3.37-.99.28-2.02.34-3.02.2-1.22-.17-2.41-.64-3.46-1.36-.85.15-1.73.16-2.59.03-1.14-.17-2.11-.57-2.9-1.03-1.21-.71-2-1.56-2.35-1.97,2.58,1,4.32.77,5.4.41,3.11-1.03,4.29-4.29,6.64-4,.48.06,1.12.27,1.84.93.38-.84.83-1.23,1.21-1.43,1.59-.84,3.28.96,6.52,1.87,1.31.36,1.73.52,2.28.42,1.58-.27,2.58-1.81,3.09-2.79-.19.52-1.32,3.48-4.48,4.8Z"/>
            <path class="cls-21" d="M186.95,94.97c-1.01.29-2.12.56-3.34.75-.45.07-.88.13-1.31.17.83-.63,1.59-1.4,2.22-2.3.74.6,1.57,1.06,2.43,1.38Z"/>
            <path class="cls-12" d="M152.38,86.98v.02c0,.43-.06.73-.21.79-.32.13-1.12-.86-1.41-1.85-.4-1.33.09-2.79.46-2.87.01-.02.03-.02.04-.02.5,0,1.11,2.57,1.12,3.93Z"/>
            <path class="cls-8" d="M172.29,69.91c-.76.04-2.41.24-4.09,1.38-1.33.9-2.08,1.99-2.45,2.63-.84.07-1.64,0-1.93-.47-.55-.9.99-2.97,2.56-4.16,2.31-1.75,5.72-2.32,6.37-1.31.19.29.21.83-.46,1.93Z"/>
            <path class="cls-11" d="M184.74,87.39c-.09.41-.43.79-.91,1.05-.45.25-.99.37-1.55.37-.46,0-.94-.08-1.42-.25-.08-.03-.12-.11-.09-.19.03-.07.11-.11.19-.08.97.34,1.99.3,2.73-.11.41-.22.69-.53.77-.85.19-.81-.21-1.52-1.22-2.17l-.13-.08c-.48-.32-1.3-.85-1.8-1.84-.18-.34-.31-.87-.4-1.23l-.04-.14c-.07-.42-.13-.76-.19-1.1-.07-.35-.14-.71-.21-1.13-.01-.08.04-.16.12-.17.08,0,.16.04.17.12.07.42.14.77.2,1.12.07.35.13.69.2,1.1l.03.13c.09.34.21.86.38,1.17.47.91,1.21,1.4,1.7,1.72l.13.09c1.13.72,1.57,1.53,1.34,2.47Z"/>
            <path class="cls-11" d="M189.52,75.05c-1.05.18-2.04-.54-2.22-1.58l-.11-.67c-.17-1.04.54-2.04,1.58-2.21.11-.02.22-.03.32-.03.93,0,1.75.68,1.9,1.61l.11.66c.18,1.05-.54,2.05-1.58,2.22Z"/>
            <path class="cls-11" d="M170.87,78.16c-1.04.18-2.04-.54-2.22-1.58l-.11-.66c-.17-1.05.54-2.05,1.59-2.22.11-.02.21-.03.32-.03.92,0,1.74.68,1.89,1.61l.11.66c.18,1.05-.53,2.05-1.58,2.22Z"/>
            <path class="cls-19" d="M184.84,114.03c0,1.72,0,3.42.01,5.12h-.01c-4.29-3.82-8.58-7.62-12.87-11.42,1.73.44,4.1.86,6.92.8.82-.02,1.59-.07,2.32-.16.61-.06,1.18-.14,1.72-.24.05-.01.1-.02.15-.03.33-.05.64-.12.94-.19.29-.06.56-.12.82-.19.01,0,.03,0,.04,0-.03,2.08-.04,4.19-.04,6.32Z"/>
            <path class="cls-20" d="M189.09,95.47c-.76,1.19-2.14,2.74-4.38,3.37-.99.28-2.02.34-3.02.2-1.22-.17-2.41-.64-3.46-1.36.57-.09,1.13-.24,1.67-.45.84-.32,1.65-.77,2.4-1.34.43-.04.86-.1,1.31-.17,1.22-.19,2.33-.46,3.34-.75.69.26,1.41.43,2.14.5Z"/>
            <path class="cls-8" d="M191.39,66.81c-.75.04-2.41.24-4.08,1.38-1.33.9-2.08,1.99-2.45,2.63-.84.07-1.64,0-1.93-.47-.56-.9.99-2.98,2.55-4.16,2.32-1.75,5.73-2.32,6.38-1.31.18.29.21.83-.47,1.93Z"/>
          </g>
          <g id="Haare-2" data-name="Haare">
            <path class="cls-3" d="M198.49,71.58c0,.1-.09.39-.16.74h0v.02h-.06c-.33-.46-1.65-5.94-3.8-9.98-.48-.9-.76-1.58-1.19-2.3-.32-.53-.61-.94-.86-1.28-5.42,6.27-20.92,7.89-32.4,5.35-1.35,2.17-3.2,4.72-3.18,8.46.03,4.98,2.52,9.52,2.94,10.04-.3-.18-1.52-.91-3.54-1.74-.29-.12-.59-.24-.91-.36-2.15-.81-3.41-1.03-4.32-1.17h-.01c-.27.07-.53.16-.78.28-.29-1.11-.48-2.22-.6-3.32,0-.02,0-.04-.01-.06-.47-2.53-1.07-5.94-1.11-7.18-.05-1.42,0-5.83,1.56-9.09-1.24-.95-2.19-2.03-2.78-3.24-.16-.34-1.88-3.87-.39-6.12,1.36-2.06,4.3-1.39,8.57-2.27,6.32-1.3,5.98-4.02,12.7-6.32,1.78-.61,8.38-2.71,15.87-.64,2.64.74,6.81,1.89,9,5.64,1.44,2.47,1.74,5.55,1.25,7.97.96,1.73,1.9,3.72,2.51,5.22,0,0,1.56,3.79,1.71,11.35Z"/>
            <path class="cls-3" d="M197.37,90.12c-.19.52-1.32,3.48-4.48,4.8-1.21.5-2.51.68-3.8.55-.73-.07-1.45-.24-2.14-.5-.86-.32-1.69-.78-2.43-1.38-.63.9-1.39,1.67-2.22,2.3-.75.57-1.56,1.02-2.4,1.34-.54.21-1.1.36-1.67.45-.85.15-1.73.16-2.59.03-1.14-.17-2.11-.57-2.9-1.03-1.21-.71-2-1.56-2.35-1.97,2.58,1,4.32.77,5.4.41,3.11-1.03,4.29-4.29,6.64-4,.48.06,1.12.27,1.84.93.38-.84.83-1.23,1.21-1.43,1.59-.84,3.28.96,6.52,1.87,1.31.36,1.73.52,2.28.42,1.58-.27,2.58-1.81,3.09-2.79Z"/>
          </g>
        </g>
      </g>
      <g id="Person_3" data-name="Person 3">
        <g id="Hose">
          <path class="cls-7" d="M542.88,199.95h-14.54v-9.14c.64.02,1.29.04,1.94.05,4.14.05,8.03-.25,11.63-.78.32,3.29.65,6.58.97,9.87Z"/>
          <path class="cls-18" d="M528.33,190.82v9.14h-20.22c.22-4.01.45-8,.67-12.01,0-.06,0-.11.01-.17.03.01.05.01.08.02,2.44.82,5.74,1.54,9.53,2.1.31.05.63.1.95.14.96.14,1.96.27,2.98.37.19.02.38.04.58.06.08.01.16.02.25.03,1.04.1,2.3.21,3.73.26.46.03.93.04,1.4.06h.04Z"/>
        </g>
        <g id="T-Shirt-3" data-name="T-Shirt">
          <path class="cls-16" d="M541.9,190.09c-3.59.53-7.48.83-11.63.78-.65-.01-1.29-.03-1.93-.05h-.01c.01-24.5.01-48.99.01-73.49,1.31-.3,2.53-.69,3.66-1.14-.7,2.37-1.45,4.54-2.23,6.51.11.42.21.85.32,1.27,2.91,11.69,5.83,23.37,8.73,35.05,0-.02,0-.03,0-.06.9,9.09,1.79,18.18,2.69,27.27.01.08.02.15.02.23.12,1.21.24,2.42.36,3.63Z"/>
          <path class="cls-15" d="M528.34,117.33c0,24.5,0,48.99-.01,73.49h-.04c-.47-.02-.94-.03-1.4-.06-1.43-.05-2.69-.16-3.73-.26-.09-.01-.17-.02-.25-.03-.2-.02-.39-.04-.58-.06-1.02-.1-2.02-.23-2.98-.37-.32-.04-.64-.09-.95-.14-3.79-.56-7.09-1.28-9.53-2.1-.03-.01-.05-.01-.08-.02.02-.45.05-.9.07-1.35.05-.82.09-1.64.14-2.46h0c.45-8.24.91-16.47,1.37-24.7v-.03l.03-.53v-.02h0c2.28-11.57,4.55-23.12,6.81-34.69-.18-.47-.36-.96-.54-1.45,0,0,0-.01-.01-.01-.21-.58-.42-1.17-.63-1.78-.43-1.25-.85-2.56-1.26-3.92,1.98.61,4.25,1.06,6.76,1.15h.03c1.13.05,2.32.01,3.55-.11,1.14-.12,2.21-.3,3.23-.55Z"/>
          <path class="cls-15" d="M528.34,117.33v73.49h-.01c.01-24.5.01-48.99.01-73.49Z"/>
        </g>
        <g id="Gesicht-4" data-name="Gesicht">
          <g id="Gesicht-5" data-name="Gesicht">
            <path class="cls-21" d="M552.95,66.03l-.37-2.02c-.45-2.46-2.52-4.25-4.92-4.45l-.05-.15s-.05,0-.07-.02c-1.94-5.61-4.64-7.97-6.76-9.08-2.36-1.24-4.85-1.38-7.85-3.82-1.58-1.28-2.61-2.63-3.22-3.55-.34.77-1.58,3.36-4.53,6.45-7.15,7.49-11.7,5.89-15.27,11.66-2.54,4.09-2.85,6.72-4.12,8.79-.08.12-2.05-3.7-6.06-3.21-.24.02-.48.07-.74.13-.1.02-.21.05-.32.09-.1.03-.21.06-.31.1-.1.04-.2.08-.29.12-1.91.86-3.25,2.78-3.25,5v2.05c0,3.01,2.46,5.47,5.47,5.47.52,0,1.02-.07,1.5-.22,2.43,6.42,7.13,11.45,12.9,14.42-.15.67-.23,1.36-.23,2.07v17.81c-.18.03-.36.06-.54.09.04.16.09.32.13.48.1.39.2.77.31,1.16.03.11.07.23.1.34.1.37.21.73.32,1.09,1.98.61,4.25,1.06,6.76,1.15h.03c1.13.05,2.32.01,3.55-.11,1.14-.12,2.21-.3,3.23-.55,1.31-.3,2.53-.69,3.66-1.14.11-.37.25-.88.42-1.48.21-.76.51-1.87.84-3.3.14-.61.31-1.4.49-2.33v-1.28c-.93-.82-1.86-1.65-2.79-2.47-3.49-3.1-6.98-6.2-10.48-9.29,1.79.46,4.23.89,7.14.83.13,0,.25-.01.38-.02.13,0,.25-.01.38-.02.27-.01.53-.03.78-.04.26-.02.51-.04.75-.07.18-.02.36-.04.53-.06.9-.11,1.73-.26,2.48-.43.29-.06.57-.13.83-.2h0s.04-.01.04-.01c.34-.1.68-.19,1.02-.29,10.65-3.17,17.26-13.61,16.02-24.31,1.61-1.21,2.5-3.27,2.11-5.38ZM500.09,75.48c-.33.13-1.15-.89-1.45-1.9-.4-1.37.09-2.86.47-2.97.01-.01.03-.01.04-.01.51,0,1.16,2.67,1.16,4.06,0,.44-.07.76-.22.82ZM529.38,66.92c.07-.01.15.04.16.11.07.44.14.8.21,1.16.06.36.13.71.2,1.13l.04.15c.08.35.22.87.38,1.19.49.95,1.26,1.45,1.76,1.78l.14.09c1.15.75,1.6,1.58,1.37,2.54-.1.41-.44.81-.93,1.08-.47.25-1.02.38-1.59.38-.48,0-.97-.09-1.46-.26-.08-.03-.12-.11-.09-.18.03-.08.11-.11.18-.09,1.01.36,2.04.32,2.82-.1.43-.23.72-.56.8-.89.2-.84-.22-1.57-1.26-2.24l-.13-.09c-.5-.33-1.34-.87-1.86-1.89-.18-.35-.32-.89-.4-1.26l-.04-.15c-.08-.43-.14-.78-.21-1.13-.07-.37-.13-.73-.21-1.17-.01-.08.04-.15.12-.16ZM514.13,60.86c-.96-.18-1.43-.44-1.65-.7,0,0,0,0-.01,0-.07-.09-.11-.18-.13-.26-.33-1.19,2.45-3.42,5.39-3.99.28-.05.58-.1.89-.13,1.08-.1,2.22-.03,3.02.23.54.18.93.44,1.04.8.16.55-.34,1.21-.97,1.8-.45-.09-1.11-.19-1.93-.17-.53.02-1.13.08-1.78.24-2.02.51-3.31,1.64-3.87,2.19ZM517.08,63.93l-.12-.68c-.18-1.08.56-2.11,1.63-2.29.11-.02.22-.03.33-.03.95,0,1.8.7,1.96,1.66l.11.69c.18,1.07-.55,2.1-1.63,2.28-1.08.18-2.1-.55-2.28-1.63ZM529.82,88.08c-1.81.81-3.86.87-5.62.07-.86-.39-1.62-.98-2.23-1.7-1.43-1.68-2.11-4.1-1.59-6.54,1.74,1.02,4.2,2.22,7.3,3.01,2.38.62,4.52.83,6.23.88-.8,2.04-2.33,3.51-4.09,4.28ZM538.57,62.36c-1.07.18-2.1-.56-2.28-1.63l-.11-.69c-.18-1.07.55-2.1,1.63-2.28.11-.02.22-.03.33-.03.94,0,1.79.69,1.95,1.66l.11.68c.18,1.08-.55,2.11-1.63,2.29ZM540.53,54.2c-.35-.01-.89,0-1.54.11-.8.13-1.77.41-2.77.98-1.12.64-1.88,1.43-2.37,2.04-.14.18-.26.33-.35.47-.87.01-1.69-.12-1.95-.63-.01-.02-.03-.05-.03-.08-.21-.54.2-1.36.88-2.16.57-.68,1.34-1.35,2.1-1.83.93-.59,2-1.02,3.01-1.26,1.17-.27,2.26-.3,2.95-.08.33.1.57.27.69.49.17.31.16.87-.62,1.95Z"/>
            <path class="cls-12" d="M533.76,96.02v6.5c-.01,1.03,0,2.05,0,3.06v2.21c-.93-.82-1.86-1.65-2.79-2.47-3.49-3.1-6.98-6.2-10.48-9.29,1.79.46,4.23.89,7.14.83.13,0,.25-.01.38-.02.13,0,.25-.01.38-.02.27,0,.53-.02.78-.04.26-.02.51-.04.75-.07.18-.02.36-.04.53-.06.9-.11,1.73-.26,2.48-.43.29-.06.57-.13.83-.2Z"/>
            <path class="cls-12" d="M500.31,74.66c0,.44-.07.76-.22.82-.33.13-1.15-.89-1.45-1.9-.4-1.37.09-2.86.47-2.97.01-.01.03-.01.04-.01.51,0,1.16,2.67,1.16,4.06Z"/>
            <path class="cls-9" d="M521.71,58.6c-.45-.09-1.11-.19-1.93-.17-.53.02-1.13.08-1.78.24-2.02.51-3.31,1.64-3.87,2.19-.96-.18-1.43-.44-1.65-.7,0,0,0,0-.01,0-.07-.09-.11-.18-.13-.26-.33-1.19,2.45-3.42,5.39-3.99.28-.05.58-.1.89-.13,1.08-.1,2.22-.03,3.02.23.54.18.93.44,1.04.8.16.55-.34,1.21-.97,1.8Z"/>
            <path class="cls-9" d="M540.53,54.2c-.35-.01-.89,0-1.54.11-.8.13-1.77.41-2.77.98-1.12.64-1.88,1.43-2.37,2.04-.14.18-.26.33-.35.47-.87.01-1.69-.12-1.95-.63-.01-.02-.03-.05-.03-.08-.21-.54.2-1.36.88-2.16.57-.68,1.34-1.35,2.1-1.83.93-.59,2-1.02,3.01-1.26,1.17-.27,2.26-.3,2.95-.08.33.1.57.27.69.49.17.31.16.87-.62,1.95Z"/>
            <path class="cls-11" d="M519.36,65.56c-1.08.18-2.1-.55-2.28-1.63l-.12-.68c-.18-1.08.56-2.11,1.63-2.29.11-.02.22-.03.33-.03.95,0,1.8.7,1.96,1.66l.11.69c.18,1.07-.55,2.1-1.63,2.28Z"/>
            <path class="cls-11" d="M538.57,62.36c-1.07.18-2.1-.56-2.28-1.63l-.11-.69c-.18-1.07.55-2.1,1.63-2.28.11-.02.22-.03.33-.03.94,0,1.79.69,1.95,1.66l.11.68c.18,1.08-.55,2.11-1.63,2.29Z"/>
            <path class="cls-20" d="M533.91,83.8c-.8,2.04-2.33,3.51-4.09,4.28-1.81.81-3.86.87-5.62.07-.86-.39-1.62-.98-2.23-1.7-1.43-1.68-2.11-4.1-1.59-6.54,1.74,1.02,4.2,2.22,7.3,3.01,2.38.62,4.52.83,6.23.88Z"/>
            <path class="cls-11" d="M533.64,75.07c-.1.41-.44.81-.93,1.08-.47.25-1.02.38-1.59.38-.48,0-.97-.09-1.46-.26-.08-.03-.12-.11-.09-.18.03-.08.11-.11.18-.09,1.01.36,2.04.32,2.82-.1.43-.23.72-.56.8-.89.2-.84-.22-1.57-1.26-2.24l-.13-.09c-.5-.33-1.34-.87-1.86-1.89-.18-.35-.32-.89-.4-1.26l-.04-.15c-.08-.43-.14-.78-.21-1.13-.07-.37-.13-.73-.21-1.17-.01-.08.04-.15.12-.16.07-.01.15.04.16.11.07.44.14.8.21,1.16.06.36.13.71.2,1.13l.04.15c.08.35.22.87.38,1.19.49.95,1.26,1.45,1.76,1.78l.14.09c1.15.75,1.6,1.58,1.37,2.54Z"/>
            <path class="cls-11" d="M519.36,65.56c-1.08.18-2.1-.55-2.28-1.63l-.12-.68c-.18-1.08.56-2.11,1.63-2.29.11-.02.22-.03.33-.03.95,0,1.8.7,1.96,1.66l.11.69c.18,1.07-.55,2.1-1.63,2.28Z"/>
            <path class="cls-11" d="M538.57,62.36c-1.07.18-2.1-.56-2.28-1.63l-.11-.69c-.18-1.07.55-2.1,1.63-2.28.11-.02.22-.03.33-.03.94,0,1.79.69,1.95,1.66l.11.68c.18,1.08-.55,2.11-1.63,2.29Z"/>
            <path class="cls-11" d="M533.64,75.07c-.1.41-.44.81-.93,1.08-.47.25-1.02.38-1.59.38-.48,0-.97-.09-1.46-.26-.08-.03-.12-.11-.09-.18.03-.08.11-.11.18-.09,1.01.36,2.04.32,2.82-.1.43-.23.72-.56.8-.89.2-.84-.22-1.57-1.26-2.24l-.13-.09c-.5-.33-1.34-.87-1.86-1.89-.18-.35-.32-.89-.4-1.26l-.04-.15c-.08-.43-.14-.78-.21-1.13-.07-.37-.13-.73-.21-1.17-.01-.08.04-.15.12-.16.07-.01.15.04.16.11.07.44.14.8.21,1.16.06.36.13.71.2,1.13l.04.15c.08.35.22.87.38,1.19.49.95,1.26,1.45,1.76,1.78l.14.09c1.15.75,1.6,1.58,1.37,2.54Z"/>
          </g>
          <g id="Haare-3" data-name="Haare">
            <path class="cls-9" d="M559.25,91.64c-3.73,8.01-9.8,12.99-14.29,15.83-.9.02-1.77.05-2.59.1l-1.98-.48-6.03-1.44c-.2-.03-.4-.05-.6-.07,0-1.01-.01-2.03,0-3.06,0-2.19.01-4.36.04-6.51.34-.1.68-.19,1.02-.29,10.65-3.17,17.26-13.61,16.02-24.31,1.61-1.21,2.5-3.27,2.11-5.38l-.37-2.02c-.45-2.46-2.52-4.25-4.92-4.45l-.05-.15s-.05,0-.07-.02c-1.94-5.61-4.64-7.97-6.76-9.08-2.36-1.24-4.85-1.38-7.85-3.82-1.58-1.28-2.61-2.63-3.22-3.55-.34.77-1.58,3.36-4.53,6.45-7.15,7.49-11.7,5.89-15.27,11.66-2.54,4.09-2.85,6.72-4.12,8.79-.08.12-2.05-3.7-6.06-3.21-.24.02-.48.07-.74.13-.1.02-.21.05-.32.09-.1.03-.21.06-.31.1-.1.03-.19.06-.29.1v.02c-1.91.86-3.25,2.78-3.25,5v2.05c0,3.01,2.46,5.47,5.47,5.47.52,0,1.02-.07,1.5-.22,2.43,6.42,7.13,11.45,12.9,14.42-.15.67-.23,1.36-.23,2.07v10.67c-.72.16-1.41.32-2.06.49l-13.39,3.45.65.55.02.02h-.03c-3.13.71-6.72,1.88-10.82,3.69,0,.05.01.08.01.13.01.08.02.16.03.25-.36-.07-.72-.13-1.09-.2-1.86-.88-3.71-1.65-5.57-2.32-.07-.35-.12-.62-.15-.81-1.16-6.92,2.39-9.41,3.48-17.71,1.17-8.91-2.25-11.07-2.61-20.58-.2-5.38.57-13.23,5.44-23.02,1.48-2.93,6.81-12.6,18.48-17.71,9.16-4.01,17.47-3.13,21.31-2.43,10.33,1.87,16.91,7.61,19.35,9.96,14.38,15.35,18.97,35.81,11.74,51.35Z"/>
          </g>
        </g>
        <g id="Jacke">
          <path class="cls-13" d="M576.51,199.96h-33.64c-.32-3.29-.65-6.58-.97-9.87-.12-1.21-.24-2.42-.36-3.63,0-.08-.01-.15-.02-.23-.9-9.09-1.79-18.18-2.69-27.27h0c2.21-10.37,4.42-20.7,6.62-31.05.12-.54.23-1.1.35-1.64l-1.58-2.69-4.46-7.63,5.4-4.75.63-.56,1.85-1.62.15-.13-.42-.1-3.26-.79-1.75-.42c.82-.05,1.69-.08,2.59-.1.7-.02,1.42-.02,2.16-.02,4.48.02,8.53.43,12.06.99.39.06.77.12,1.15.19-.24,1.9-.44,3.85-.61,5.86-.66,7.99-.71,16.83.32,26.34.29,2.64.65,5.21,1.06,7.69h0c.74,4.41,1.65,8.54,2.66,12.36,0,0,.01.03.01.04,1.57,5.98,3.37,11.2,5.1,15.57.65,1.89,1.3,3.78,1.95,5.71v.02c1.93,5.75,3.84,11.66,5.7,17.73Z"/>
          <path class="cls-22" d="M517.22,123.99c-2.26,11.57-4.53,23.12-6.81,34.68h0v.03s-.02.09-.03.14v.04s-.01.07-.02.11c-1.82-6.21-3.63-12.42-5.44-18.64-.22-.74-.43-1.47-.64-2.21-.34-1.15-.68-2.29-1.01-3.44-.67-2.3-1.34-4.6-2.01-6.9l.83-1.46.74-1.32h.01l2.49-4.42,1.03-1.81.78-1.39-2.36-2.01-2.4-2.05-2.7-2.3-.02-.02-.65-.55,13.39-3.45c.65-.17,1.34-.33,2.06-.49v7.14c-.18.03-.36.06-.54.09.04.16.09.32.13.48.1.39.2.77.31,1.16.03.11.07.23.1.34.1.37.21.73.32,1.09.41,1.36.83,2.67,1.26,3.92.21.61.42,1.2.63,1.78.01,0,.01,0,.01,0,.18.49.36.98.54,1.45Z"/>
          <path class="cls-22" d="M638.19,153.13c-.46-.35-13.92,13.43-15.22,14.71-5.14,5.06-10.32,10.14-15.03,15.61-3.96,4.61-7.86,9.48-12.69,13.21-5.19,4.01-10.43,2.26-14.86-2.02-1.93-1.86-3.6-3.96-5.24-6.08-1.51-1.97-3.54-3.99-4.34-6.36-.65-1.93-1.3-3.82-1.95-5.71-1.73-4.37-3.53-9.59-5.1-15.57,0-.01-.01-.03-.01-.04-1.01-3.82-1.92-7.95-2.66-12.36-.41-2.48-.77-5.05-1.06-7.69-1.03-9.51-.98-18.35-.32-26.34.17-2.01.37-3.96.61-5.86-.38-.07-.76-.13-1.15-.19,9.97.4,20.86,26.84,26.94,41.63,2.49,6.06,4.54,11.73,6.24,16.9.98-.92,1.96-1.83,2.95-2.75,9.48-8.78,18.88-17.24,28.18-25.39.64.8,1.32,1.62,2.04,2.45.23.27.46.54.71.81.83.94,1.73,1.9,2.68,2.88.33.33.67.67,1.01,1.01,1.07,1.06,2.13,2.05,3.17,2.98,1.76,1.56,3.47,2.95,5.09,4.17Z"/>
          <path class="cls-22" d="M454.34,106.56c-.11.23-.22.45-.32.67-.24.5-.48,1.01-.72,1.51-2.83,5.94-5.65,12.02-8.45,18.25-.63,1.4-1.26,2.81-1.88,4.22-.16,0-20.21-8.6-21.88-9.48-9.94-5.21-13.11-16.47-14.64-26.79-.51-3.43-3.19-34.59-5.69-34.59,1.22-.03,2.59-.11,4.12-.29,1.96-.24,4.15-.64,6.49-1.32,1.81-.52,3.46-1.12,4.93-1.74,1.51-.65,2.85-1.32,3.99-1.96,4.02,15.25,8.04,30.49,12.05,45.74,7.82,2.34,14.95,4.17,21.31,5.62.23.05.46.11.69.16Z"/>
          <path class="cls-22" d="M489.27,139.43v.02c-.14,1.84-.33,3.72-.57,5.65-.09.71-.18,1.42-.28,2.11-1.57-.01-3.17-.26-4.75-.79-4.69-1.54-9.48-3.18-14.35-4.94-7.62-2.75-7.26-2.51-13.66-5.1.57-1.96,1.14-3.93,1.71-5.89,1.95-6.66,3.9-13.33,5.84-19.99.1-.32.19-.64.29-.96.31-.26.64-.56.99-.88,2.72.51,5.24.95,7.55,1.32,3.61.58,6.92,1.44,10.17,2.61,1.86.67,3.71,1.44,5.57,2.32.37.07.73.13,1.09.2.01.11.02.22.03.34h0c.27,2.53.5,5.28.63,8.24h0c.21,4.75.19,10.03-.26,15.74Z"/>
          <g>
            <path class="cls-13" d="M504.81,189.12c0,.67-.54,1.21-1.2,1.21s-1.2-.54-1.2-1.21.54-1.2,1.2-1.2,1.2.54,1.2,1.2Z"/>
            <path class="cls-13" d="M506.08,172.59c0,.25-.07.48-.2.66-.21.33-.58.54-1,.54-.67,0-1.2-.53-1.2-1.2s.53-1.2,1.2-1.2c.17,0,.33.04.48.1.42.18.72.61.72,1.1Z"/>
            <path class="cls-13" d="M510.38,158.84v.04s-.01.07-.02.11c-1.82-6.21-3.63-12.42-5.44-18.64-.22-.74-.43-1.47-.64-2.21-.34-1.15-.68-2.29-1.01-3.44-.67-2.3-1.34-4.6-2.01-6.9l.83-1.46.74-1.32h.01l2.49-4.42,1.03-1.81.78-1.39-2.36-2.01-2.4-2.05-2.7-2.3h-.03c-3.13.71-6.72,1.88-10.82,3.69,0,.05.01.08.01.13.01.08.02.16.03.25.01.11.02.22.03.34h0c.27,2.53.5,5.28.63,8.24h0c.21,4.75.19,10.03-.26,15.74v.02c-.14,1.84-.33,3.72-.57,5.65-.09.71-.18,1.42-.28,2.11-1.69,12.05-4.82,22.01-7.74,29.4-.36,1.37-.72,2.76-1.08,4.16h0c-1.57,6.28-3.12,12.68-4.61,19.18h33.13c.22-4.01.45-8,.67-12.01,0-.06,0-.11.01-.17.02-.45.05-.9.07-1.35.05-.82.09-1.64.14-2.46h0c.45-8.24.91-16.47,1.37-24.7v-.03l.03-.53s-.02.09-.03.14ZM503.61,190.33c-.66,0-1.2-.54-1.2-1.21s.54-1.2,1.2-1.2,1.2.54,1.2,1.2-.54,1.21-1.2,1.21ZM505.88,173.25c-.21.33-.58.54-1,.54-.67,0-1.2-.53-1.2-1.2s.53-1.2,1.2-1.2c.17,0,.33.04.48.1.42.18.72.61.72,1.1,0,.25-.07.48-.2.66Z"/>
          </g>
          <g id="Knöpfe">
            <path class="cls-20" d="M504.81,189.12c0,.67-.54,1.21-1.2,1.21s-1.2-.54-1.2-1.21.54-1.2,1.2-1.2,1.2.54,1.2,1.2Z"/>
            <path class="cls-20" d="M506.08,172.59c0,.25-.07.48-.2.66-.21.33-.58.54-1,.54-.67,0-1.2-.53-1.2-1.2s.53-1.2,1.2-1.2c.17,0,.33.04.48.1.42.18.72.61.72,1.1Z"/>
          </g>
          <path class="cls-22" d="M545.16,111.2l-5.4,4.75,4.46,7.63,1.58,2.69c-.12.54-.23,1.1-.35,1.64-2.2,10.35-4.41,20.68-6.62,31.04h0s0,.05,0,.07c-2.9-11.68-5.82-23.36-8.73-35.05-.11-.42-.21-.85-.32-1.27.78-1.97,1.53-4.14,2.23-6.51.14-.48.28-.98.42-1.48.18-.66.35-1.31.52-1.96h0c.11-.46.22-.9.32-1.34.18-.79.35-1.57.49-2.33v-3.49c.2.02.4.04.6.07l6.03,1.44,1.98.48,1.75.42,3.26.79.42.1-.15.13-1.85,1.62-.63.56Z"/>
        </g>
        <g id="Hand">
          <path class="cls-21" d="M648.81,135.64c-2.48,3.99-5.38,6.44-6.58,7.27-.35.24-.69.46-.69.46-.9.57-2.85,1.7-5.55,2.33-.23.05-.42.09-.51.11-.05.06-.1.13-.15.19-.74.98-1.48,1.97-2.23,2.96-1.04-.93-2.1-1.92-3.17-2.98-.34-.34-.68-.68-1.01-1.01-.95-.98-1.85-1.94-2.68-2.88.74-.7,1.47-1.41,2.21-2.11.31-.29.61-.58.92-.87.25-1.35.61-2.84,1.11-4.44.01-.02.02-.05.03-.07,0-.02.01-.03.01-.05.36-1.12.75-2.14,1.15-3.08,0,0,.73-2.24,3.14-5.76.62-.89,1.39-1.91,2.4-1.89.29,0,.61.1.94.33,1.12.79.84,3.92.08,6.89-.36,1.39,3.94.88,5.79-1.17,3.5-3.86,3.08-9.02,5.9-8.4,3.34.74,2.54,8.29-1.11,14.17Z"/>
          <path class="cls-21" d="M416.31,56.99c-1.47.62-3.12,1.22-4.93,1.74-2.34.68-4.53,1.08-6.49,1.32-.43-3.4-.83-7.12-1.15-11.13-1.13-1.2-2.45-2.87-3.56-5.06-.65-1.3-2.03-4.84-2.31-9.52-.41-6.91,2.48-13.93,5.77-12.99,2.78.79-.05,5.13,1.18,10.19.66,2.69,4.19,5.19,4.54,3.79.75-2.97,1.99-5.86,3.35-6.02.4-.04.72.02.99.16.89.46,1.09,1.72,1.2,2.81.45,4.24.03,6.55.03,6.55-.33,2.07-.75,5.08-1.15,9.01-.04,0-.08.02-.12.03.88,3.04,1.76,6.08,2.65,9.12Z"/>
        </g>
      </g>
      <g id="Gruppe_5" data-name="Gruppe 5">
        <g id="Hände">
          <path class="cls-21" d="M991.3,33.78c-.18,4.6-1.47,8.1-2.09,9.39-.8,1.66-1.72,3.02-2.6,4.11-1.11,3.64-2.22,7.27-3.34,10.91-1.58-.46-3.22-1.01-4.91-1.66-2.07-.79-3.99-1.65-5.75-2.52,1.12-2.25,2.25-4.47,3.38-6.67-.01-.01-.02-.01-.03-.01-.48-3.85-.95-6.79-1.3-8.81,0,0-.46-2.27-.1-6.43.09-1.07.26-2.31,1.12-2.78.26-.14.58-.21.97-.17,1.34.12,2.61,2.94,3.4,5.84.37,1.36,3.79-1.16,4.38-3.81,1.12-4.98-1.74-9.18.97-10.02,3.21-.98,6.18,5.85,5.9,12.63Z"/>
          <path class="cls-21" d="M769.93,61.43c-1.59,1.38-3.37,2.78-5.34,4.16-1.23.86-2.45,1.65-3.65,2.38l-4.14-6.36c-1.43-.87-3.2-2.19-4.9-4.09-.98-1.1-3.25-4.21-4.75-8.73-2.2-6.65-1.21-14.29,2.26-14.22,2.93.05,1.29,5.04,3.82,9.67,1.35,2.46,5.46,3.99,5.44,2.53-.05-3.11.42-6.26,1.71-6.77.38-.15.71-.17,1.01-.1.99.21,1.52,1.4,1.91,2.43,1.54,4.04,1.73,6.42,1.73,6.42.22,2.03.57,4.92,1.15,8.66,1.25,1.32,2.5,2.66,3.75,4.02Z"/>
        </g>
        <g>
          <path class="cls-16" d="M992.74,60.21c-4.34,11.37-8.54,20.87-11.96,28.17-2.96,6.3-6.41,13.59-11.72,22.88-2.84,4.96-6.29,10.97-11.5,18.36-5.47,7.75-11.91,16.77-22.4,26.06-6.02,5.34-11.73,9.3-16.3,12.12-.09.93-.18,1.81-.27,2.64-.2,1.82-.57,5.35-1.02,10.27-.61,6.56-1.11,12.97-1.52,19.24h-9.48c.13-1.48.23-2.98.32-4.52.02-.28.03-.56.05-.84.07-1.25.13-2.53.17-3.83.24-6.94.1-13.38-.26-19.28v-.02l1.89-7.44.18-.74,6.51-25.72,1.51-5.99h.01s.97-3.85.97-3.85l.22-.87c1.2.04,2.4.07,3.6.11h.01c3.45-3.4,6.42-6.5,8.92-9.21,6.72-7.29,10.39-11.32,14.41-17.81,3.73-6.04,5.01-9.75,11.1-24.87,2.21-5.48,5.68-14.01,10.13-24.65,1.79,1.16,3.89,2.39,6.3,3.59,1.76.87,3.68,1.73,5.75,2.52,1.69.65,3.33,1.2,4.91,1.66,3.54,1.03,6.75,1.65,9.47,2.02Z"/>
          <path class="cls-16" d="M913.27,126.7c-.08.29-.15.57-.22.86-.82,3.26-1.65,6.52-2.47,9.78h-.01c-.66,2.63-1.32,5.26-1.99,7.89-1.04,4.09-2.07,8.18-3.11,12.28-.16.64-.32,1.28-.48,1.93-.91,3.59-1.82,7.18-2.73,10.78-1.54-.12-3.11-.21-4.73-.27-3.29-.14-6.4-.15-9.34-.07l1.31-32.92h0s.1-2.57.1-2.57c1.85-.35,3.54-.87,5.06-1.48,4.06-1.64,6.95-3.94,8.52-5.38.52-.48.9-.87,1.13-1.11,2.99.09,5.97.19,8.96.28Z"/>
          <path class="cls-15" d="M889.6,134.39l-.1,2.56h0s-1.31,32.93-1.31,32.93h-.01c-2.68-.34-5.58-.61-8.67-.75-1.77-.08-3.49-.12-5.14-.12-1.59-6.59-3.18-13.19-4.78-19.78h0c-1.29-5.34-2.57-10.67-3.86-16h-.01c-.19-.83-.39-1.66-.59-2.49h-.01c-.14-.62-.29-1.23-.44-1.85h.01c.79-.13,1.57-.25,2.35-.36.37.31,1.1.9,2.15,1.61,2.3,1.53,6.15,3.6,11.18,4.4,1.81.28,3.77.41,5.87.28,1.19-.08,2.3-.21,3.36-.43Z"/>
          <path class="cls-15" d="M869.51,169.18h0c-.94,6-1.7,12.69-2.03,20.01-.18,3.74-.22,7.33-.17,10.76h-5.86c-.48-2.71-.99-5.46-1.53-8.22,0,0-1.53-7.98-3.3-15.91-1.17-5.3-2.51-10.82-3.85-16.07-1.17-.22-2.33-.61-3.45-1.15-19.63-9.47-33.63-17.9-43.72-25.18-1.27-.92-2.47-1.81-3.62-2.69-2.84-2.18-5.33-4.23-7.5-6.19-.05-.03-.09-.07-.13-.11-3.92-3.51-6.85-6.65-9.08-9.41-.57-.71-2.3-2.86-4.6-5.73-1.29-1.62-2.75-3.46-4.3-5.39-.84-1.05-1.69-2.12-2.55-3.2-3.16-3.97-6.41-8.04-8.92-11.19-5.74-7.2-10.41-13.07-13.34-16.76,2.77-1.16,5.97-2.7,9.38-4.78,1.2-.73,2.42-1.52,3.65-2.38,1.97-1.38,3.75-2.78,5.34-4.16,1.5-1.28,2.84-2.54,4.02-3.73,3.96,5.14,9.63,12.39,16.64,20.98,11.98,14.68,15.11,17.64,16.71,19.09.29.26.58.53.89.8,1.07.94,2.27,1.93,3.86,3.1,3.49,2.58,8.88,6.06,19.03,11.99.17.1.34.2.52.3.4.23.8.46,1.21.7,1.1.64,2.26,1.31,3.47,2,.11.07.22.13.33.19,1.13.65,2.31,1.32,3.53,2.01.05.03.11.07.17.1,5.63,3.18,12.2,6.81,19.59,10.74.03.02.07.04.1.05l.42,1.76,1.07,4.43,3.08,12.76,1.57,6.51,3.37,13.97Z"/>
        </g>
        <g id="Gesicht-6" data-name="Gesicht">
          <path class="cls-21" d="M913.96,81.66c-.76-.03-1.5.11-2.16.39l.18-4.36c-1.44.99-3.36.37-4.17-1.19-.74-1.43-.43-3.37.83-4.37-2.06,1.5-4.72,1.36-6.61-.29-2.24-1.95-2.29-5.06-2.29-5.39-.26-.15-3.16-1.96-4.01-5.76-.75.1-1.58.06-2.44-.17,1,2.77-.02,5.88-2.43,7.52-2.48,1.67-5.83,1.4-8.03-.68.07,2.33-.88,3.84-1.98,4.65,1.86.26,4.09,1.27,4.05,2.29-.03.52-.67.96-1.41,1.29-.61-.36-1.76-.92-3.3-1.05-1.95-.17-3.43.44-4.09.76-1.09-.61-1.32-1.07-1.3-1.41.03-.46.56-.92,1.36-1.28-1.03-.29-1.83-.71-2.3-.73-.21-.01.7,3.13-1.84,5.27-1.34,1.12-4.35,1.85-6.31.99-.1-.05-.21-.1-.32-.16l-.08,1.98c-.48-.17-.98-.27-1.51-.29-2.81-.11-5.21,2.1-5.32,4.91l-.07,1.92c-.12,2.82,2.1,5.21,4.91,5.33.73.03,1.42-.1,2.06-.35.93,5.32,3.69,10.06,7.63,13.5,1.68,1.48,3.58,2.72,5.63,3.66-.01.03-.01.05-.01.08l-.77,19.23c-.01.37-.01.74.02,1.11-2.98.32-5.87.68-8.69,1.08,2.3,1.53,6.15,3.6,11.18,4.4,1.81.28,3.77.41,5.87.28,1.19-.08,2.3-.21,3.36-.43,1.85-.35,3.54-.87,5.06-1.48,4.06-1.64,6.95-3.94,8.52-5.38-2.36.03-4.76.09-7.22.2l.3-7.61h0c-3.9-3.13-7.81-6.26-11.71-9.39,1.43.33,3.69.67,6.42.3,2.35-.32,4.21-1.05,5.44-1.65.07.52.15,1.26.19,2.16l.09-2.11c0-.09.01-.18.01-.27,1.55-.6,3.03-1.37,4.4-2.28,4.8-3.18,8.39-8.1,9.81-13.88.74.49,1.62.78,2.56.82,2.82.11,5.21-2.1,5.33-4.92l.07-1.92v-.2c0-2.72-2.17-5.01-4.91-5.12ZM863.29,87.97c-.31.11-1.05-.88-1.29-1.84-.34-1.34.23-2.78.59-2.77.62.02,1.3,4.39.7,4.61ZM887.12,92.98c.04-.06.12-.08.17-.04.87.52,1.82.69,2.62.44.43-.13.76-.37.9-.67.34-.73.11-1.48-.72-2.3l-.11-.11c-.4-.39-1.06-1.05-1.34-2.07-.1-.36-.12-.88-.14-1.23v-.15c.01-.43.02-.77.03-1.11.01-.34.01-.68.03-1.08,0-.07.07-.13.13-.12.07,0,.12.06.12.13-.02.4-.02.74-.03,1.07-.01.35-.02.69-.03,1.11v.14c.02.34.04.84.13,1.17.26.96.87,1.56,1.28,1.97l.1.1c.92.91,1.17,1.75.78,2.59-.17.36-.56.65-1.06.8-.27.08-.55.12-.84.12-.65,0-1.34-.2-1.98-.59-.06-.03-.07-.11-.04-.17ZM881.72,78.95l-.03.65c-.04,1.02-.91,1.82-1.93,1.78s-1.82-.91-1.78-1.93l.02-.65c.04-1.02.91-1.82,1.93-1.78,1,.04,1.79.87,1.79,1.86v.07ZM892.25,101.3c-1,.99-2.38,1.58-3.86,1.54-1.67-.04-3.16-.87-4.12-2.14-.66-.86-1.07-1.92-1.11-3.09,1.09.44,2.86,1,5.11,1.04,2.51.05,4.48-.58,5.62-1.04-.05,1.45-.68,2.75-1.64,3.69ZM899.95,79.67l-.03.65c-.04,1.02-.91,1.82-1.93,1.78-1.02-.04-1.82-.91-1.78-1.93l.02-.65c.04-1.02.91-1.82,1.93-1.78,1,.04,1.79.87,1.79,1.86v.07ZM902.03,76.33c-.61-.36-1.76-.93-3.31-1.06-1.94-.16-3.43.45-4.09.77-1.08-.61-1.31-1.08-1.29-1.41.07-1.15,3.21-2.28,5.98-1.9,1.88.26,4.16,1.28,4.11,2.3-.02.53-.66.97-1.4,1.3ZM914.92,88.24c-.32.94-1.12,1.86-1.43,1.72-.58-.26.44-4.56,1.06-4.53.36.02.82,1.49.37,2.81Z"/>
          <path class="cls-8" d="M903.42,75.03c-.02.53-.66.97-1.4,1.3-.61-.36-1.76-.93-3.31-1.06-1.94-.16-3.43.45-4.09.77-1.08-.61-1.31-1.08-1.29-1.41.07-1.15,3.21-2.28,5.98-1.9,1.88.26,4.16,1.28,4.11,2.3Z"/>
          <path class="cls-8" d="M884.89,74.3c-.03.52-.67.96-1.41,1.29-.61-.36-1.76-.92-3.3-1.05-1.95-.17-3.43.44-4.09.76-1.09-.61-1.32-1.07-1.3-1.41.03-.46.56-.92,1.36-1.28,1.18-.53,2.97-.84,4.63-.61.02,0,.04,0,.06,0,1.86.26,4.09,1.27,4.05,2.29Z"/>
          <path class="cls-11" d="M881.71,78.88v.07l-.03.65c-.04,1.02-.91,1.82-1.93,1.78-1.02-.04-1.82-.91-1.78-1.93l.02-.65c.04-1.02.91-1.82,1.93-1.78,1,.04,1.79.87,1.79,1.86Z"/>
          <path class="cls-11" d="M899.94,79.6v.07l-.03.65c-.04,1.02-.91,1.82-1.93,1.78s-1.82-.91-1.78-1.93l.02-.65c.04-1.02.91-1.82,1.93-1.78,1,.04,1.79.87,1.79,1.86Z"/>
          <path class="cls-24" d="M896.58,113.85c-.04,1.66-.06,2.5-.13,3.71-.03.66-.09,1.53-.18,2.57t-.02,0h0c-3.9-3.13-7.81-6.26-11.71-9.39,1.43.33,3.69.67,6.42.3,2.35-.32,4.21-1.05,5.44-1.65.07.52.15,1.26.19,2.16v.05c0,.08.01.17.01.25.01.27.01.61-.02,2.01Z"/>
          <path class="cls-11" d="M891.03,92.82c-.17.36-.56.65-1.06.8-.27.08-.55.12-.84.12-.65,0-1.34-.2-1.98-.59-.06-.03-.07-.11-.04-.17.04-.06.12-.08.17-.04.87.52,1.82.69,2.62.44.43-.13.76-.37.9-.67.34-.73.11-1.48-.72-2.3l-.11-.11c-.4-.39-1.06-1.05-1.34-2.07-.1-.36-.12-.88-.14-1.23v-.15c.01-.43.02-.77.03-1.11.01-.34.01-.68.03-1.08,0-.07.07-.13.13-.12.07,0,.12.06.12.13-.02.4-.02.74-.03,1.07-.01.35-.02.69-.03,1.11v.14c.02.34.04.84.13,1.17.26.96.87,1.56,1.28,1.97l.1.1c.92.91,1.17,1.75.78,2.59Z"/>
          <path class="cls-19" d="M914.91,88.24c-.32.94-1.12,1.86-1.43,1.72-.58-.26.44-4.56,1.06-4.53.36.02.82,1.49.37,2.81Z"/>
          <path class="cls-20" d="M893.89,97.61c-.05,1.45-.68,2.75-1.64,3.69-1,.99-2.38,1.58-3.86,1.54-1.67-.04-3.16-.87-4.12-2.14-.66-.86-1.07-1.92-1.11-3.09,1.09.44,2.86,1,5.11,1.04,2.51.05,4.48-.58,5.62-1.04Z"/>
          <path class="cls-19" d="M863.28,87.97c-.31.11-1.05-.88-1.29-1.84-.34-1.34.23-2.78.59-2.77.62.02,1.3,4.39.7,4.61Z"/>
          <g id="Haare-4" data-name="Haare">
            <path class="cls-5" d="M921.67,80.79c.32.24,3.48,2.65,3.38,6.49-.08,3.52-2.87,6.75-6.82,7.59,2.36,1.68,3.1,4.79,1.85,7.12-1.04,1.95-3.31,3.08-5.66,2.77-.6,3.26-3.44,5.28-5.96,4.89-1.75-.28-3.25-1.7-3.92-3.58-1.12.58-2.33.86-3.45.81,4.8-3.18,8.39-8.1,9.81-13.88.74.49,1.62.78,2.56.82,2.82.11,5.21-2.1,5.33-4.92l.07-1.92v-.2c0-2.72-2.17-5.01-4.91-5.12-.76-.03-1.5.11-2.16.39l.18-4.36c-1.44.99-3.36.37-4.17-1.19-.74-1.43-.43-3.37.83-4.37-2.06,1.5-4.72,1.36-6.61-.29-2.24-1.95-2.29-5.06-2.29-5.39-.26-.15-3.16-1.96-4.01-5.76-.75.1-1.58.06-2.44-.17,1,2.77-.02,5.88-2.43,7.52-2.48,1.67-5.83,1.4-8.03-.68.07,2.33-.88,3.84-1.98,4.65,1.86.26,4.09,1.27,4.05,2.29-.03.52-.67.96-1.41,1.29-.61-.36-1.76-.92-3.3-1.05-1.95-.17-3.43.44-4.09.76-1.09-.61-1.32-1.07-1.3-1.41.03-.46.56-.92,1.36-1.28-1.03-.29-1.83-.71-2.3-.73-.21,0,.7,3.13-1.84,5.27-1.34,1.12-4.35,1.85-6.31.99-.1-.05-.21-.1-.32-.16l-.08,1.98c-.48-.17-.98-.27-1.51-.29-2.81-.11-5.21,2.1-5.32,4.91l-.07,1.92c-.12,2.82,2.1,5.21,4.91,5.33.73.03,1.42-.1,2.06-.35.93,5.32,3.69,10.06,7.63,13.5-.21,1.41-1.08,2.64-2.3,3.17-2.09.91-4.94-.36-5.65-3.01-4.32.06-7.35-3.02-7.24-5.84.1-2.78,3.23-4.48,3.38-4.56-4.15-1.21-7.26-4.47-7.99-8.44-.77-4.15,1.37-7.37,1.85-8.06-.31-.27-4.07-3.58-3.49-8.64.44-3.78,3.13-7.01,6.87-8.23-1.57-3.43-1.21-7.42.97-10.34,2.58-3.43,7.26-4.83,11.54-3.37.43-.98,2.27-4.85,6.71-6.75,6.3-2.7,12.1,1.05,12.55,1.35.35-.31,3.41-2.89,7.56-2.05,4.83.98,6.53,5.67,6.6,5.88.27-.1,3.87-1.31,6.97,1.03,2.19,1.65,3.27,4.45,2.79,7.21,3.09-.29,6.08,1.17,7.7,3.76,1.75,2.79,1.61,6.43-.36,9.15,2.67,1.66,4.19,4.62,3.9,7.62-.36,3.71-3.3,5.68-3.69,5.93Z"/>
          </g>
        </g>
        <g id="Hose-2" data-name="Hose">
          <path class="cls-10" d="M898.98,189.59c-.15,3.65-.66,6.82-1.25,9.42-2.98.43-6.6.73-10.73.58h-.01c-4.28-.16-8.01-.76-11.03-1.45-.44-2.67-.75-6.03-.57-9.9.16-3.59.71-6.69,1.33-9.18,3.14.61,6.84,1.11,11.01,1.26h.03c4.03.16,7.64-.05,10.73-.4.39,2.67.65,5.95.49,9.67Z"/>
          <path class="cls-4" d="M874.3,172.35c-.04,1.05-.92,1.86-1.97,1.82-1.05-.04-1.86-.92-1.82-1.97.04-1.05.93-1.86,1.97-1.82,1.05.04,1.86.92,1.82,1.97Z"/>
          <path class="cls-4" d="M905.83,173.97c-.04,1.04-.93,1.86-1.97,1.82-1.05-.05-1.86-.93-1.82-1.98.04-1.04.92-1.86,1.97-1.82,1.05.05,1.86.93,1.82,1.98Z"/>
          <path class="cls-17" d="M888.17,169.89c-2.68-.34-5.58-.61-8.67-.75-1.77-.08-3.49-.12-5.14-.12-1.59-6.59-3.18-13.19-4.78-19.78h0c-1.29-5.34-2.57-10.67-3.86-16h-.01c-.19-.83-.39-1.66-.59-2.49h-.01c-.14-.62-.29-1.23-.44-1.85-.07-.29-.14-.57-.21-.86-.67,0-1.51.05-2.46.23-.89.16-1.63.4-2.22.63l.19.79.02.07.42,1.76,1.07,4.43,3.08,12.76,1.57,6.51,3.37,13.97h0c-.94,6-1.7,12.69-2.03,20.01-.18,3.74-.22,7.33-.17,10.76h19.68v-.29s.01-.08.01-.08c-4.28-.16-8.01-.76-11.03-1.45-.44-2.67-.75-6.03-.57-9.9.16-3.59.71-6.69,1.33-9.18,3.14.61,6.84,1.11,11.01,1.26h.03l.29-7.29.13-3.13h0s-.01,0-.01,0ZM872.33,174.17c-1.05-.04-1.86-.92-1.82-1.97.04-1.05.93-1.86,1.97-1.82,1.05.04,1.86.92,1.82,1.97s-.92,1.86-1.97,1.82Z"/>
          <path class="cls-23" d="M915.96,126.02c-.95-.19-1.79-.24-2.47-.23-.08.31-.16.61-.23.92-.08.29-.15.57-.22.86-.82,3.26-1.65,6.52-2.47,9.78h-.01c-.66,2.63-1.32,5.26-1.99,7.89-1.04,4.09-2.07,8.18-3.11,12.28-.16.64-.32,1.28-.48,1.93-.91,3.59-1.82,7.18-2.73,10.78-1.54-.12-3.11-.21-4.73-.27-3.29-.14-6.4-.15-9.34-.07h0s-.13,3.14-.13,3.14l-.29,7.29c4.03.16,7.64-.05,10.73-.4.39,2.67.65,5.95.49,9.67-.15,3.65-.66,6.82-1.25,9.42-2.98.43-6.6.73-10.73.58h-.01v.37s19.57,0,19.57,0c.13-1.48.23-2.98.32-4.52.02-.28.03-.56.05-.84.07-1.25.13-2.53.17-3.83.24-6.94.1-13.38-.26-19.28v-.02l1.89-7.44.18-.74,6.51-25.72,1.51-5.99h.01s.97-3.85.97-3.85l.22-.87.04-.16c-.58-.25-1.33-.5-2.21-.68ZM903.85,175.8c-1.05-.05-1.86-.93-1.82-1.98.04-1.04.92-1.86,1.97-1.82,1.05.05,1.86.93,1.82,1.98-.04,1.04-.93,1.86-1.97,1.82Z"/>
        </g>
      </g>
      <g id="Person_2" data-name="Person 2">
        <g id="Arme-3" data-name="Arme">
          <path class="cls-14" d="M471.35,94.73c-.74,4.8-2.51,8.32-3.3,9.59-1.15,1.83-2.43,3.26-3.57,4.35-.35.32-.68.62-.99.88-.1.32-.19.64-.29.96-1.94,6.66-3.89,13.33-5.84,19.99-.57,1.96-1.81,6.51-2.28,8.49-1.75,7.32-2.33,11.27-3.91,17.79-1.2,4.97-2.86,9.44-5.79,13.79-.82,1.22-1.84,2.3-3.06,3.14-5.23,3.59-9.85-.08-14.29-2.94-2.92-1.87-5.83-3.74-8.74-5.6-5.81-3.74-11.63-7.48-17.45-11.22-.32-.2-3.84-2.45-3.84-2.46l11.46-18.58c8.17,6.41,16.34,12.82,24.5,19.24,2.68-6.45,5.48-12.99,8.42-19.62.19-.44.39-.88.59-1.32.62-1.41,1.25-2.82,1.88-4.22,2.8-6.23,5.62-12.31,8.45-18.25.24-.5.48-1.01.72-1.51-.31-1.34-.59-2.95-.72-4.77-.13-1.79-.08-3.39.04-4.74.03-3.03.37-5.28.66-6.74.22-1.11.54-2.39,1.51-2.78.28-.12.62-.15,1.03-.07,1.39.29,2.39,3.39,2.87,6.53.23,1.46,4.11-.77,5.04-3.48,1.76-5.09-.74-9.83,2.2-10.38,3.48-.66,5.78,6.86,4.7,13.93Z"/>
          <path class="cls-14" d="M287.82,109.65l-.61,1.52-5,12.63-2.35,5.94c-8.1-4.26-16.2-8.51-24.3-12.78l-11.07-5.82c-.06-.03-.14-.05-.2-.11-.02,0-.03-.01-.04-.01-.27-.13-.56-.26-.82-.42-1.64-.98-2.93-2.47-3.66-4.22-.03-.06-.05-.12-.06-.18-.09-.28-.17-.57-.22-.85l-.02-.02c-.04-.1-.08-.19-.13-.29h0c-3.93-8.95-7.85-18.02-11.76-27.22-3.62-8.54-7.15-17.02-10.59-25.43-.16-.46-.3-.91-.41-1.35-1.22-1.11-2.64-2.64-3.92-4.68-.8-1.27-2.56-4.78-3.3-9.58-1.09-7.07,1.22-14.59,4.7-13.93,2.94.55.44,5.29,2.2,10.38.93,2.7,4.81,4.94,5.04,3.47.48-3.13,1.48-6.23,2.86-6.52.41-.08.76-.05,1.04.07.96.38,1.29,1.67,1.51,2.77.87,4.33.65,6.75.65,6.75-.13,2.1-.26,5.09-.31,8.98.06.1.12.2.18.31,4.76,6.83,9.62,14.39,14.42,22.67,4.88,8.42,9.08,16.54,12.69,24.19h.01c6.37,2.61,12.74,5.22,19.11,7.84,4.78,1.96,9.57,3.92,14.36,5.89Z"/>
        </g>
        <g id="Gesicht-7" data-name="Gesicht">
          <g id="Gesicht-8" data-name="Gesicht">
            <path class="cls-8" d="M359.01,61.67c0,.52-.61.97-1.33,1.33-.61-.33-1.76-.84-3.29-.91-1.91-.09-3.35.57-3.98.91-1.09-.55-1.34-1.01-1.33-1.33.02-1.14,3.06-2.37,5.8-2.1,1.86.18,4.14,1.09,4.13,2.1Z"/>
            <path class="cls-8" d="M340.77,61.67c0,.52-.62.97-1.33,1.33-.62-.33-1.77-.84-3.29-.91-1.91-.09-3.35.57-3.99.91-1.09-.55-1.33-1.01-1.33-1.33.01-.46.51-.94,1.29-1.32.98.24,2.17.34,3.49-.13.36-.13.74-.34,1.1-.64,1.84.19,4.06,1.09,4.06,2.09Z"/>
            <path class="cls-11" d="M337.83,66.36v.64c0,1.01-.83,1.83-1.83,1.83s-1.83-.82-1.83-1.83v-.64c0-1,.82-1.82,1.83-1.82s1.83.82,1.83,1.82Z"/>
            <path class="cls-11" d="M355.77,66.36v.64c0,1.01-.83,1.83-1.83,1.83s-1.83-.82-1.83-1.83v-.64c0-1,.82-1.82,1.83-1.82s1.83.82,1.83,1.82Z"/>
            <path class="cls-5" d="M320.07,75.95c-.3.12-1.06-.82-1.34-1.76-.38-1.3.12-2.74.48-2.74.61-.01,1.45,4.26.86,4.5Z"/>
            <path class="cls-5" d="M353.82,103.73c-.01.65-.03,1.51-.08,2.53,0,0-.01,0-.01-.01-3.96-2.92-7.91-5.84-11.88-8.76,1.42.26,3.66.51,6.32.03,2.3-.4,4.09-1.19,5.28-1.83.1.55.21,1.33.28,2.29,0,.04.01.08.01.12.02.26.04.6.06,1.97.03,1.64.04,2.47.02,3.66Z"/>
            <path class="cls-11" d="M347.53,79.63c-.15.36-.52.66-1.01.83-.3.1-.62.15-.94.15-.61,0-1.25-.17-1.85-.5-.06-.03-.08-.11-.05-.17.04-.06.11-.08.17-.05.86.47,1.83.6,2.59.33.42-.14.74-.39.86-.69.31-.73.04-1.46-.8-2.23l-.12-.1c-.43-.4-1.08-1-1.39-1.99-.11-.35-.15-.86-.18-1.2v-.15c-.01-.41-.02-.75-.03-1.08,0-.33-.01-.67-.01-1.07,0-.07.06-.13.12-.13.07,0,.13.06.13.13,0,.4.01.73.01,1.07.01.33.02.67.02,1.07v.14c.03.33.07.83.17,1.14.3.93.92,1.51,1.33,1.88l.12.11c.93.85,1.21,1.67.86,2.51Z"/>
            <path class="cls-5" d="M370.82,74.19c-.28.94-1.04,1.88-1.34,1.76-.58-.24.25-4.51.87-4.5.35,0,.85,1.44.47,2.74Z"/>
            <path class="cls-14" d="M373.17,69.25c-.91-.91-2.17-1.48-3.56-1.48-.75,0-1.46.17-2.1.47v-4.29c-1.37,1.03-3.28.49-4.14-1.01-.79-1.38-.56-3.3.64-4.33-1.96,1.55-4.58,1.52-6.5-.02-2.28-1.83-2.45-4.89-2.47-5.21-.25-.14-3.17-1.8-4.14-5.49-.74.12-1.56.11-2.42-.08,1.09,2.68.21,5.78-2.1,7.48-2.36,1.74-5.67,1.6-7.91-.36.16,2.29-.72,3.81-1.76,4.65,1.84.19,4.06,1.09,4.06,2.09,0,.52-.62.97-1.33,1.33-.62-.33-1.77-.84-3.29-.91-1.91-.09-3.35.57-3.99.91-1.09-.55-1.33-1.01-1.33-1.33.01-.46.51-.94,1.29-1.32-1.03-.24-1.83-.62-2.29-.62-.21,0,.81,3.04-1.61,5.24-1.26,1.16-4.19,2-6.15,1.23-.1-.04-.21-.09-.32-.14v1.94c-.48-.15-.98-.23-1.5-.23-2.77,0-5.03,2.27-5.03,5.04v1.89c0,2.77,2.26,5.04,5.03,5.04.72,0,1.4-.15,2.02-.43,1.12,5.19,4.01,9.73,8.01,12.96,1.7,1.39,3.61,2.53,5.67,3.38v19.01c0,.37.02.73.07,1.09-2.63.39-5.21.81-7.71,1.26,2.26,1.26,5.56,2.69,9.65,3.26,1.95.29,4.08.37,6.36.14,1.16-.13,2.25-.31,3.28-.56.51-.12,1.01-.25,1.49-.39.49-.14.96-.3,1.42-.46.41-.14.81-.3,1.19-.46.12-.04.23-.09.34-.14.3-.13.59-.26.87-.39.07-.03.14-.06.2-.09,3.03-1.46,5.31-3.24,6.8-4.61-2.02.11-4.08.25-6.18.42v-7.48c-3.96-2.92-7.91-5.84-11.88-8.76,1.42.26,3.66.51,6.32.03,2.3-.4,4.09-1.19,5.28-1.83.1.55.21,1.33.28,2.29v-2.25c0-.09,0-.18-.01-.26,1.5-.65,2.92-1.46,4.23-2.41h0c4.6-3.32,7.93-8.29,9.09-14.03.75.45,1.63.71,2.56.71,2.77,0,5.04-2.27,5.04-5.04v-1.89c0-1.38-.57-2.64-1.48-3.56ZM320.07,75.95c-.3.12-1.06-.82-1.34-1.76-.38-1.3.12-2.74.48-2.74.61-.01,1.45,4.26.86,4.5ZM343.68,79.94c.04-.06.11-.08.17-.05.86.47,1.83.6,2.59.33.42-.14.74-.39.86-.69.31-.73.04-1.46-.8-2.23l-.12-.1c-.43-.4-1.08-1-1.39-1.99-.11-.35-.15-.86-.18-1.2v-.15c-.01-.41-.02-.75-.03-1.08,0-.33-.01-.67-.01-1.07,0-.07.06-.13.12-.13.07,0,.13.06.13.13,0,.4.01.73.01,1.07.01.33.02.67.02,1.07v.14c.03.33.07.83.17,1.14.3.93.92,1.51,1.33,1.88l.12.11c.93.85,1.21,1.67.86,2.51-.15.36-.52.66-1.01.83-.3.1-.62.15-.94.15-.61,0-1.25-.17-1.85-.5-.06-.03-.08-.11-.05-.17ZM336,68.83c-1.01,0-1.83-.82-1.83-1.83v-.64c0-1,.82-1.82,1.83-1.82s1.83.82,1.83,1.82v.64c0,1.01-.83,1.83-1.83,1.83ZM348.69,87.73c-1.76,1.55-4.12,2.25-6.4,1.82-.94-.18-1.82-.54-2.6-1.05-1.64-1.06-2.86-2.76-3.33-4.76-.08-.31-.14-.64-.18-.97.52.3,1.1.62,1.74.94,1.52.75,3.38,1.51,5.56,2.07,2.38.61,4.52.83,6.23.88-.31.39-.65.75-1.02,1.07ZM355.77,67c0,1.01-.83,1.83-1.83,1.83s-1.83-.82-1.83-1.83v-.64c0-1,.82-1.82,1.83-1.82s1.83.82,1.83,1.82v.64ZM357.68,63c-.61-.33-1.76-.84-3.29-.91-1.91-.09-3.35.57-3.98.91-1.09-.55-1.34-1.01-1.33-1.33.02-1.14,3.06-2.37,5.8-2.1,1.86.18,4.14,1.09,4.13,2.1,0,.52-.61.97-1.33,1.33ZM370.82,74.19c-.28.94-1.04,1.88-1.34,1.76-.58-.24.25-4.51.87-4.5.35,0,.85,1.44.47,2.74Z"/>
            <path class="cls-20" d="M349.71,86.66c-.31.39-.65.75-1.02,1.07-1.76,1.55-4.12,2.25-6.4,1.82-.94-.18-1.82-.54-2.6-1.05-1.64-1.06-2.86-2.76-3.33-4.76-.08-.31-.14-.64-.18-.97.52.3,1.1.62,1.74.94,1.52.75,3.38,1.51,5.56,2.07,2.38.61,4.52.83,6.23.88Z"/>
          </g>
          <g id="Haare-5" data-name="Haare">
            <path class="cls-3" d="M379.16,73.02c.11,3.22-1.8,6.23-4.82,7.56,2.38,1.56,3.23,4.58,2.1,6.93-.95,1.95-3.14,3.15-5.46,2.93-.47,3.24-3.18,5.33-5.67,5.04-1.73-.2-3.25-1.54-3.99-3.36-1.08.61-2.26.94-3.36.94,4.6-3.32,7.93-8.29,9.09-14.03.75.45,1.63.71,2.56.71,2.77,0,5.04-2.27,5.04-5.04v-1.89c0-1.38-.57-2.64-1.48-3.56-.91-.91-2.17-1.48-3.56-1.48-.75,0-1.46.17-2.1.47v-4.29c-1.37,1.03-3.28.49-4.14-1.01-.79-1.38-.56-3.3.64-4.33-1.96,1.55-4.58,1.52-6.5-.02-2.28-1.83-2.45-4.89-2.47-5.21-.25-.14-3.17-1.8-4.14-5.49-.74.12-1.56.11-2.42-.08,1.09,2.68.21,5.78-2.1,7.48-2.36,1.74-5.67,1.6-7.91-.36.16,2.29-.72,3.81-1.76,4.65-.36.3-.74.51-1.1.64-1.32.47-2.51.37-3.49.13-1.03-.24-1.83-.62-2.29-.62-.21,0,.81,3.04-1.61,5.24-1.26,1.16-4.19,2-6.15,1.23-.1-.04-.21-.09-.32-.14v1.94c-.48-.15-.98-.23-1.5-.23-2.77,0-5.03,2.27-5.03,5.04v1.89c0,2.77,2.26,5.04,5.03,5.04.72,0,1.4-.15,2.02-.43,1.12,5.19,4.01,9.73,8.01,12.96-.14,1.39-.95,2.64-2.13,3.21-2.02.98-4.86-.16-5.66-2.73-4.25.23-7.34-2.68-7.35-5.45-.01-2.75,3-4.54,3.15-4.62-4.53-.4-7.97-3.94-8.19-7.98-.17-3.23,1.73-6.38,4.83-7.98-.36-.36-3.3-3.42-2.73-7.97.55-4.41,3.95-6.64,4.41-6.93-2.3-3-2.53-7.04-.63-10.08,2.19-3.5,6.81-5,10.91-3.36.02-.41.38-6.27,5.46-9.23,3.81-2.22,8.71-1.9,12.39.84,1.83-2.13,4.7-3.04,7.34-2.31,2.91.79,5.04,3.41,5.25,6.5.58-.1,7.3-1.2,12.18,3.78,4.05,4.15,3.83,9.42,3.78,10.29,3.32,1.55,5.56,4.76,5.87,8.4.33,3.74-1.45,7.38-4.61,9.44,2.72,1.29,4.52,3.97,4.61,6.93Z"/>
          </g>
        </g>
        <g id="Hose-3" data-name="Hose">
          <path class="cls-13" d="M347.6,194.59v5.36h-27.45c2.06-2.86,4.3-5.76,6.71-8.7,5.32,1.58,12.37,3.1,20.74,3.34Z"/>
          <path class="cls-2" d="M378.53,199.95h-30.93v-5.36c.66.03,1.31.05,1.97.05,9.33.07,17.18-1.49,22.98-3.17,1.86,2.47,3.89,5.3,5.98,8.48Z"/>
        </g>
        <g id="T-Shirt-4" data-name="T-Shirt">
          <path class="cls-6" d="M411.64,129.38l-2.17,3.52-11.46,18.58-1.97,3.2-17.92-11.05c-.22,4.12-.43,7.59-.62,10.51-.13,1.79-.36,5.28-.61,10.13-.48,8.99-.76,17.7-.88,26.11-1.05.36-2.21.73-3.46,1.09-5.8,1.68-13.65,3.24-22.98,3.17-.66,0-1.31-.02-1.97-.05v-74.74c.51-.12,1.01-.25,1.49-.39.49-.14.96-.3,1.42-.46.41-.14.81-.3,1.19-.46.12-.04.23-.09.34-.14.3-.13.59-.26.87-.39.07-.03.14-.06.2-.09,3.03-1.46,5.31-3.24,6.8-4.61.9-.83,1.51-1.5,1.83-1.87,1.33-1.49,8.72-.28,10.75-.33,9.45-.24,15.72,3.84,23.42,8.59,5.24,3.22,10.48,6.45,15.72,9.68Z"/>
          <path class="cls-17" d="M347.59,119.86v74.74c-8.37-.24-15.42-1.76-20.74-3.34-1.2-.36-2.31-.73-3.32-1.08-.89-4.19-1.85-8.48-2.86-12.82,0,0-1.81-7.78-3.86-15.51-1.2-4.58-2.55-9.32-3.9-13.9h-.01s-.07-.02-.11-.04l-34.69-13.75,1.42-3.59.33-.82,2.35-5.94,5-12.63.61-1.52,1.34-3.39,4.1,1.63h.01l22.74,9h.01c3.07-.64,6.13-1.27,9.18-1.91.48.37,1.55,1.16,3.11,2.03,2.26,1.26,5.56,2.69,9.65,3.26,1.95.29,4.08.37,6.36.14,1.16-.13,2.25-.31,3.28-.56Z"/>
        </g>
      </g>
    </g>
  </g>
</svg>