<?xml version="1.0" encoding="UTF-8"?>
<svg id="Ebene_1" data-name="Ebene 1" xmlns="http://www.w3.org/2000/svg" viewBox="0 0 1050 200">
  <defs>
    <style>
      .cls-1 {
        fill: #673605;
      }

      .cls-1, .cls-2, .cls-3, .cls-4, .cls-5, .cls-6, .cls-7, .cls-8, .cls-9, .cls-10, .cls-11, .cls-12, .cls-13, .cls-14, .cls-15, .cls-16, .cls-17, .cls-18, .cls-19, .cls-20, .cls-21, .cls-22, .cls-23, .cls-24, .cls-25, .cls-26, .cls-27, .cls-28, .cls-29, .cls-30, .cls-31, .cls-32, .cls-33 {
        stroke-width: 0px;
      }

      .cls-2 {
        fill: #942c69;
      }

      .cls-3 {
        fill: #481f05;
      }

      .cls-4 {
        fill: #40acdb;
      }

      .cls-5 {
        fill: #f4eaf0;
      }

      .cls-6 {
        fill: #bfe3f3;
      }

      .cls-7 {
        fill: #673605;
      }

      .cls-8 {
        fill: #0090cd;
      }

      .cls-9 {
        fill: #fcb480;
      }

      .cls-10 {
        fill: #dddddc;
      }

      .cls-11 {
        fill: #1d1d1b;
      }

      .cls-12 {
        fill: #f96800;
      }

      .cls-13 {
        fill: #cbcbcb;
      }

      .cls-14 {
        fill: #481f05;
      }

      .cls-15 {
        fill: #e3bc8c;
      }

      .cls-16 {
        fill: #000;
      }

      .cls-17 {
        fill: #e4bfa3;
      }

      .cls-18 {
        fill: #af618e;
      }

      .cls-19 {
        fill: #bf7a3e;
      }

      .cls-20 {
        fill: #e4cad9;
      }

      .cls-21 {
        fill: #ffe2ca;
      }

      .cls-22 {
        fill: #cf9c6e;
      }

      .cls-23 {
        fill: #e5e6e5;
      }

      .cls-24 {
        fill: #432918;
      }

      .cls-25 {
        fill: #cbcbcb;
      }

      .cls-26 {
        fill: #fb8e40;
      }

      .cls-27 {
        fill: #e4bfa3;
      }

      .cls-28 {
        fill: #d8d8d8;
      }

      .cls-29 {
        fill: #fff;
      }

      .cls-30 {
        fill: #ffd8b9;
      }

      .cls-31 {
        fill: #c995b4;
      }

      .cls-32 {
        fill: #0090ce;
      }

      .cls-33 {
        fill: #e5c0a4;
      }
    </style>
  </defs>
  <g id="G-0001_BUW_Header_Start">
    <g id="Hintergrund">
      <path class="cls-5" d="M0,0v200h1050V0H0ZM907.84,55.45c.44-5.71,5.79-8.43,6.03-8.54-3.29-.28-5.84-2.88-6.03-5.89-.18-2.92,1.89-5.69,4.86-6.49-.23-1.31.05-2.72.83-3.91,0-.29.02-.58.07-.87-1.89-1.81-2.09-4.7-.61-6.52,1.29-1.6,3.7-2.14,5.78-1.19-.28-2.04.73-4.05,2.52-5.01,1.87-1.01,4.2-.68,5.75.8.3-.56,2.3-4.08,6.65-5.11,3.93-.93,7.01.82,7.64,1.19,1.44-2.11,3.89-3.27,6.33-2.97,2.88.34,5.26,2.65,5.78,5.67,2.97.28,5.26,2.54,5.63,5.24.21.17.42.35.61.54,2.79,2.73,2.16,6.55,2.1,6.86.41.12,5.27,1.63,6.86,6.59,1.17,3.61.13,7.64-2.66,10.36.52.21,4.42,1.87,5.61,6.03,1.05,3.72-.5,7.9-3.93,10.37.06.8.17,3.68-1.82,6.3-2.85,3.76-7.52,3.66-7.98,3.64-.47,1.31-1.67,4.05-4.49,6.03-1.43,1-2.93,1.57-4.4,1.85,0-.3,0-.58-.02-.84v-1.26c0-.09,0-.18-.01-.27,6.97-3.03,12.2-9.34,13.75-16.95.77.46,1.68.73,2.64.73,2.85,0,5.19-2.34,5.19-5.2v-1.94c0-1.43-.58-2.73-1.53-3.67-.94-.94-2.23-1.53-3.66-1.53-.77,0-1.51.17-2.17.48v-5.02c0-6.49-2.65-12.38-6.93-16.65-.14-.14-.28-.27-.42-.4-.33.18-.67.32-1.04.44-.34,1.36-1.46,2.38-2.8,2.56-1.84.24-3.03-1.23-3.08-1.3.08.2.63,1.54-.07,2.88-.62,1.19-1.98,1.89-3.43,1.75-.11.32-.9,2.55-3.29,3.5-2.69,1.07-5.04-.42-5.26-.56-.04.15-.5,1.65-1.93,2.54.03.03.05.05.07.08.02.04.05.07.07.1v.02c.04.09.09.18.11.28.02.02.02.04.01.06v.07c0,.07-.01.13-.03.2,0,.02-.01.05-.02.07,0,.01,0,.02-.01.03-.04.08-.07.14-.08.16-.04.06-.15.25-.53.53-.17.12-.41.28-.74.43-.66-.36-1.88-.89-3.51-.97-1.5-.07-2.71.29-3.52.62-.04.02-.08.04-.12.05-.01.01-.02.01-.03.01-.24.11-.43.21-.58.29-.01-.01-.04-.02-.07-.03-.06-.04-.12-.07-.18-.1-.91.1-1.82-.02-2.64-.38-1.87-.82-2.62-2.61-2.8-3.08-1.12.55-2.33.68-3.45.48-.57,2.01-.87,4.13-.87,6.32v4.78c-.49-.16-1-.24-1.54-.24-2.86,0-5.2,2.34-5.2,5.2v1.94c0,2.86,2.34,5.2,5.2,5.2.74,0,1.44-.16,2.07-.44,1.65,7.63,7.02,13.92,14.11,16.84v2.24c-.72-.17-1.45-.43-2.19-.78-3.39-1.61-5.04-4.38-5.61-5.47-3.31.68-6.46-.73-7.7-3.22-1.07-2.15-.34-4.37-.14-4.9-4.6-1.71-7.49-6.12-7.15-10.65Z"/>
    </g>
    <g id="Person_7" data-name="Person 7">
      <g id="Arme">
        <path class="cls-22" d="M909.73,200h-26.28c-1.58-1.16-2.9-2.18-3.91-3.15h0c-7.03-3.6-12.84-6.84-17.19-9.35-4.14-2.39-8.38-4.96-12.44-7.84-3.77-2.65-7.38-5.58-10.64-8.89-1.96-1.99-3.78-4.11-5.44-6.39-2.57-3.55-4.77-7.56-3.81-11.85.54-2.39,1.9-4.16,3-5.29h.01c.15-.16.3-.31.44-.44,7.06,4.15,14.13,8.3,21.19,12.46.56.32,1.12.65,1.68.98,4.52,3.57,9.03,7.15,13.55,10.72,5.94,4.71,11.88,9.41,17.83,14.11.49.05.99.11,1.49.18,1.51.2,2.93.45,4.25.73-.16,1.03-.32,2.06-.49,3.09,1.9.69,3.44,1.35,4.53,1.84,0,0,.7.32,1.78.87,2.92,1.51,8.55,4.75,10.46,8.22Z"/>
        <path class="cls-22" d="M1024.73,200h-20.42c-.79-3.14-2-10.22-2.16-11.08-.67-3.73-3.22-6.85-5.11-10.06-2.34-3.95-4.59-7.95-6.8-12t-.01-.02c-.71-2.6-1.4-5.09-2.05-7.6-.66-2.52-1.29-5.05-1.88-7.74l22.12-12.77c1.23,3.62,2.27,6.77,3.42,9.78,2.48,6.48,4.78,13.03,6.73,19.69,1.61,5.5,3.55,10.92,4.64,16.56.24,1.23,1.14,11.38,1.52,15.24Z"/>
        <path class="cls-22" d="M884.49,144.44c-2.32,1.34-6.06,3.43-10.86,5.9-7.82-5.68-15.64-11.34-23.46-17,8.84-6.55,16.1-11.44,16.1-11.44.59-.4,1.16-.78,1.72-1.16l16.5,23.7Z"/>
      </g>
      <g id="Gesicht">
        <g id="Haare">
          <path class="cls-14" d="M967.66,62.6c.06.8.17,3.68-1.82,6.3-2.85,3.76-7.52,3.66-7.98,3.64-.47,1.31-1.67,4.05-4.49,6.03-1.43,1-2.93,1.57-4.4,1.85,0-.3,0-.58-.02-.84v-1.26c0-.09,0-.18-.01-.27,6.97-3.03,12.2-9.34,13.75-16.95.77.46,1.68.73,2.64.73,2.85,0,5.19-2.34,5.19-5.2v-1.94c0-1.43-.58-2.73-1.53-3.67-.94-.94-2.23-1.53-3.66-1.53-.77,0-1.51.17-2.17.48v-5.02c0-6.49-2.65-12.38-6.93-16.65-.14-.14-.28-.27-.42-.4-.33.18-.67.32-1.04.44-.34,1.36-1.46,2.38-2.8,2.56-1.84.24-3.03-1.23-3.08-1.3.08.2.63,1.54-.07,2.88-.62,1.19-1.98,1.89-3.43,1.75-.11.32-.9,2.55-3.29,3.5-2.69,1.07-5.04-.42-5.26-.56-.04.15-.5,1.65-1.93,2.54.03.03.05.05.07.08.02.04.05.07.07.1v.02c.04.09.09.18.11.28.02.02.02.04.01.06v.07c0,.07-.01.13-.03.2,0,.02-.01.05-.02.07,0,.01,0,.02-.01.03-.04.08-.07.14-.08.16-.04.06-.15.25-.53.53-.17.12-.41.28-.74.43-.66-.36-1.88-.89-3.51-.97-1.5-.07-2.71.29-3.52.62-.04.02-.08.04-.12.05-.01.01-.02.01-.03.01-.24.11-.43.21-.58.29-.01-.01-.04-.02-.07-.03-.06-.04-.12-.07-.18-.1-.91.1-1.82-.02-2.64-.38-1.87-.82-2.62-2.61-2.8-3.08-1.12.55-2.33.68-3.45.48-.57,2.01-.87,4.13-.87,6.32v4.78c-.49-.16-1-.24-1.54-.24-2.86,0-5.2,2.34-5.2,5.2v1.94c0,2.86,2.34,5.2,5.2,5.2.74,0,1.44-.16,2.07-.44,1.65,7.63,7.02,13.92,14.11,16.84v2.24c-.72-.17-1.45-.43-2.19-.78-3.39-1.61-5.04-4.38-5.61-5.47-3.31.68-6.46-.73-7.7-3.22-1.07-2.15-.34-4.37-.14-4.9-4.6-1.71-7.49-6.12-7.15-10.65.44-5.71,5.79-8.43,6.03-8.54-3.29-.28-5.84-2.88-6.03-5.89-.18-2.92,1.89-5.69,4.86-6.49-.23-1.31.05-2.72.83-3.91,0-.29.02-.58.07-.87-1.89-1.81-2.09-4.7-.61-6.52,1.29-1.6,3.7-2.14,5.78-1.19-.28-2.04.73-4.05,2.52-5.01,1.87-1.01,4.2-.68,5.75.8.3-.56,2.3-4.08,6.65-5.11,3.93-.93,7.01.82,7.64,1.19,1.44-2.11,3.89-3.27,6.33-2.97,2.88.34,5.26,2.65,5.78,5.67,2.97.28,5.26,2.54,5.63,5.24.21.17.42.35.61.54,2.79,2.73,2.16,6.55,2.1,6.86.41.12,5.27,1.63,6.86,6.59,1.17,3.61.13,7.64-2.66,10.36.52.21,4.42,1.87,5.61,6.03,1.05,3.72-.5,7.9-3.93,10.37Z"/>
        </g>
        <g id="Gesicht-2" data-name="Gesicht">
          <path class="cls-19" d="M968.99,51.02c-.94-.94-2.23-1.53-3.66-1.53-.77,0-1.51.17-2.17.48v-5.02c0-6.49-2.65-12.38-6.93-16.65-.14-.14-.28-.27-.42-.4-.33.18-.67.32-1.04.44-.34,1.36-1.46,2.38-2.8,2.56-1.84.24-3.03-1.23-3.08-1.3.08.2.63,1.54-.07,2.88-.62,1.19-1.98,1.89-3.43,1.75-.11.32-.9,2.55-3.29,3.5-2.69,1.07-5.04-.42-5.26-.56-.04.15-.5,1.65-1.93,2.54.03.03.05.05.07.08.02.04.05.07.07.1v.02c.04.09.09.18.11.28.02.02.02.04.01.06v.07c0,.07-.01.13-.03.2,0,.02-.01.05-.02.07,0,.01,0,.02-.01.03-.04.08-.07.14-.08.16-.04.06-.15.25-.53.53-.17.12-.41.28-.74.43-.66-.36-1.88-.89-3.51-.97-1.5-.07-2.71.29-3.52.62-.01,0-.01.02-.02.03-.03.01-.07.02-.1.02-.01.01-.02.01-.03.01-.24.11-.43.21-.58.29-.01-.01-.04-.02-.07-.03-.06-.04-.12-.07-.18-.1-.91.1-1.82-.02-2.64-.38-1.87-.82-2.62-2.61-2.8-3.08-1.12.55-2.33.68-3.45.48-.57,2.01-.87,4.13-.87,6.32v4.78c-.49-.16-1-.24-1.54-.24-2.86,0-5.2,2.34-5.2,5.2v1.94c0,2.86,2.34,5.2,5.2,5.2.74,0,1.44-.16,2.07-.44,1.65,7.63,7.02,13.92,14.11,16.84v18.19c-4.12.27-8.03.7-11.7,1.23,2.37,2.35,7.9,6.92,16.02,7.94,1.08.13,2.2.2,3.36.2.97,0,1.89-.05,2.79-.16,1.71-.19,3.3-.53,4.8-.99,6.01-1.84,10.17-5.47,12.26-7.65-2.94-.33-6.01-.58-9.21-.74v-7.09c-3.95-2.95-7.89-5.88-11.84-8.83-.22-.16-.43-.32-.65-.48.5.07,1.07.13,1.69.16.04-.01.08-.02.12-.04.43.03.87.04,1.31.04.71,0,1.42-.03,2.11-.1,2.55-.22,5-.86,7.25-1.86,6.97-3.03,12.2-9.34,13.75-16.95.77.46,1.68.73,2.64.73,2.85,0,5.19-2.34,5.19-5.2v-1.94c0-1.43-.58-2.73-1.53-3.67ZM914.26,57.92c-.31.13-1.09-.84-1.38-1.81-.4-1.34.12-2.82.49-2.82.63-.01,1.49,4.39.89,4.63ZM938.27,59.8c.04-.07.12-.09.19-.06.91.51,1.94.64,2.76.36.43-.14.74-.4.87-.7t.02-.02s.01-.01.01-.02c.09-.21.13-.41.13-.61h0c0-.58-.32-1.15-.98-1.75l-.12-.11c-.43-.4-1.15-1.07-1.49-2.13-.11-.37-.16-.92-.19-1.28v-.15c0-.44-.02-.8-.02-1.16-.01-.36-.02-.71-.02-1.14,0-.08.06-.15.14-.15s.14.07.14.15c0,.43,0,.78.02,1.14,0,.35.01.71.01,1.15v.14c.03.35.08.89.19,1.22.31.99.97,1.6,1.41,2.01l.12.1c.27.24.48.49.66.73.01.01.02.03.03.06.25.36.37.72.38,1.08.02.27-.03.55-.15.82-.15.38-.55.7-1.07.88-.32.11-.66.17-1.01.17-.65,0-1.33-.18-1.97-.54-.07-.03-.09-.12-.06-.19ZM936.01,41.84v-.06s.01.04.01.06c0,.06-.02.12-.03.18h-.01c.02-.06.03-.12.03-.18ZM932.03,46.01c0,1.07-.86,1.94-1.94,1.95h-.01c-1.06,0-1.95-.88-1.95-1.95v-.68c0-1.08.89-1.95,1.95-1.95.83,0,1.54.52,1.82,1.25.08.22.13.45.13.7v.68ZM941.97,71.25c-1.37.51-2.86.63-4.29.28-.3-.07-.58-.16-.85-.27-3.1-1.18-4.33-4.2-4.45-4.51.7.22,1.47.43,2.3.62,1.07.26,2.26.47,3.54.62,2.31.27,4.39.24,6.15.09.62-.05,1.19-.12,1.72-.19-1.01,1.6-2.49,2.77-4.12,3.36ZM951.16,46.01c0,.77-.45,1.44-1.1,1.75-.25.13-.54.2-.84.2-1.08,0-1.95-.88-1.95-1.95v-.68c0-.07,0-.13.01-.2.1-.99.93-1.75,1.94-1.75,1.06,0,1.94.87,1.94,1.95v.68ZM953.36,41.66s-.11.05-.16.08c-.66-.35-1.88-.89-3.5-.97-2.04-.09-3.58.62-4.26.97-.48-.25-.81-.48-1.03-.69-.3-.28-.39-.53-.38-.73.02-1.21,3.27-2.52,6.19-2.24,1.98.2,4.41,1.18,4.41,2.24-.02.52-.58.97-1.27,1.34ZM966.57,56.11c-.29.97-1.07,1.94-1.38,1.81-.6-.24.26-4.64.89-4.63.37,0,.89,1.48.49,2.82Z"/>
          <path class="cls-7" d="M914.26,57.92c-.31.13-1.09-.84-1.38-1.81-.4-1.34.12-2.82.49-2.82.63-.01,1.49,4.39.89,4.63Z"/>
          <path class="cls-7" d="M966.57,56.11c-.29.97-1.07,1.94-1.38,1.81-.6-.24.26-4.64.89-4.63.37,0,.89,1.48.49,2.82Z"/>
          <path class="cls-1" d="M948.95,78.32v10.84c-3.95-2.95-7.89-5.88-11.84-8.83-.22-.16-.43-.32-.65-.48.5.07,1.07.13,1.69.16.04-.01.08-.02.12-.04.43.03.87.04,1.31.04.71,0,1.42-.03,2.11-.1,2.55-.22,5-.86,7.25-1.86.01.09.01.18.01.27Z"/>
          <path class="cls-3" d="M954.63,40.32c-.02.52-.58.97-1.27,1.34-.05.03-.11.05-.16.08-.66-.35-1.88-.89-3.5-.97-2.04-.09-3.58.62-4.26.97-.48-.25-.81-.48-1.03-.69-.3-.28-.39-.53-.38-.73.02-1.21,3.27-2.52,6.19-2.24,1.98.2,4.41,1.18,4.41,2.24Z"/>
          <path class="cls-11" d="M932.03,45.33v.68c0,1.07-.86,1.94-1.94,1.95h-.01c-1.06,0-1.95-.88-1.95-1.95v-.68c0-1.08.89-1.95,1.95-1.95.83,0,1.54.52,1.82,1.25.08.22.13.45.13.7Z"/>
          <path class="cls-11" d="M951.16,45.33v.68c0,.77-.45,1.44-1.1,1.75-.25.13-.54.2-.84.2-1.08,0-1.95-.88-1.95-1.95v-.68c0-.07,0-.13.01-.2.1-.99.93-1.75,1.94-1.75,1.06,0,1.94.87,1.94,1.95Z"/>
          <path class="cls-11" d="M942.53,58.66c.02.27-.03.55-.15.82-.15.38-.55.7-1.07.88-.32.11-.66.17-1.01.17-.65,0-1.33-.18-1.97-.54-.07-.03-.09-.12-.06-.19.04-.07.12-.09.19-.06.91.51,1.94.64,2.76.36.43-.14.74-.4.87-.7t.02-.02s.01-.01.01-.02c.09-.21.13-.41.13-.61h0c0-.58-.32-1.15-.98-1.75l-.12-.11c-.43-.4-1.15-1.07-1.49-2.13-.11-.37-.16-.92-.19-1.28v-.15c0-.44-.02-.8-.02-1.16-.01-.36-.02-.71-.02-1.14,0-.08.06-.15.14-.15s.14.07.14.15c0,.43,0,.78.02,1.14,0,.35.01.71.01,1.15v.14c.03.35.08.89.19,1.22.31.99.97,1.6,1.41,2.01l.12.1c.27.24.48.49.66.73.01.01.02.03.03.06.25.36.37.72.38,1.08Z"/>
          <path class="cls-29" d="M946.09,67.89c-1.01,1.6-2.49,2.77-4.12,3.36-1.37.51-2.86.63-4.29.28-.3-.07-.58-.16-.85-.27-3.1-1.18-4.33-4.2-4.45-4.51.7.22,1.47.43,2.3.62,1.07.26,2.26.47,3.54.62,2.31.27,4.39.24,6.15.09.62-.05,1.19-.12,1.72-.19Z"/>
        </g>
      </g>
      <g id="T-Shirt">
        <path class="cls-12" d="M1008.42,138.73l-22.12,12.77c.59,2.69,1.22,5.22,1.88,7.74.65,2.51,1.34,5,2.05,7.6t.01.02c1.38,5.02,2.85,10.45,4.37,17.23,1,4.52,2.08,9.84,3.09,15.91h-54.56l-2.01-93.11-.03-1.26c1.71-.19,3.3-.53,4.8-.99,6.01-1.84,10.17-5.47,12.26-7.65.77-.81,1.26-1.41,1.45-1.66.63-.83,5.23-.6,6.22-.62,2.52-.06,4.97.1,7.44.57,8.31,1.59,18.19,3.31,22.76,11.24l17.05,29.52-4.66,2.69Z"/>
        <path class="cls-26" d="M943.14,200h-33.41c-1.91-3.47-7.54-6.71-10.46-8.22-1.08-.55-1.78-.87-1.78-.87-1.09-.49-2.63-1.15-4.53-1.84.17-1.03.33-2.06.49-3.09,3.3-18.75,5.26-26.02,6.62-39.05.03-.27.06-.54.08-.81l-9.75,6.79s-5.9-8.47-5.91-8.47l-16.5-23.7-.69-.98c4.69-3.27,9.38-6.54,14.08-9.81,7.22-5.03,14.44-11.38,23.14-13.52,1.28-.32,2.54-.6,3.85-.74,4.04-.44,7.35.18,9.38.71.19.22.59.67,1.18,1.25,2.37,2.35,7.9,6.92,16.02,7.94,1.08.13,2.2.2,3.36.2.97,0,1.89-.05,2.79-.16l.03,1.26,2.01,93.11Z"/>
      </g>
    </g>
    <g id="Person_2" data-name="Person 2">
      <g>
        <g>
          <path class="cls-30" d="M310.22,168.18c-3.63-.32-6.51-.69-8.48-1.05-.36-.07-.73-.14-1.11-.23h-.02c-3.63-.42-7.48-3.75-10.04-5.96-2.42-2.1-3.91-4.05-4.38-4.66-3.57-4.73-6.29-8.41-8.33-11.23l14.96-14.96c2.67,5.84,5.34,11.68,8,17.52,2.19,4.8,4.39,9.6,6.58,14.4.94,2.06,1.88,4.11,2.82,6.17Z"/>
          <path class="cls-30" d="M375.41,170.2c-4.94,1.38-9.09,1.21-10.66,1-1.09-.15-2.11-.37-3.04-.63-4.03.03-8.21-.03-12.53-.19-5.25-.19-10.29-.51-15.12-.94-.79-.07-1.57-.14-2.34-.22-1.21-.02-2.39-.05-3.54-.07-4.8-.13-9.14-.33-12.93-.58-1.81-.12-3.49-.25-5.03-.39-.94-2.06-1.88-4.11-2.82-6.17-2.19-4.8-4.39-9.6-6.58-14.4-2.66-5.84-5.33-11.68-8-17.52l1.9-1.9c4.07,6.98,6.78,12.21,10.28,19.76,4.36.81,8.71,1.63,13.07,2.44,2.06.39,4.13.77,6.19,1.16,6.4,1.2,12.81,2.39,19.21,3.59,4.64.87,9.28,1.73,13.92,2.6.15-.04.29-.08.44-.12h.01c2.92-1.39,5.21-2.55,6.87-3.43,0,0,2.24-1.26,6.77-2.31,1.16-.26,2.54-.51,3.33.25.23.22.42.54.51.97.33,1.45-2.22,3.77-5.03,5.59-1.31.86,2.53,3.61,5.54,3.34,5.66-.52,9.13-4.98,10.94-2.39,2.14,3.06-4.09,8.54-11.36,10.56Z"/>
        </g>
        <g>
          <path class="cls-30" d="M172.96,91.92l-7.5,25.16c-4.25-1.04-11.24-2.88-19.52-5.61-4.74-9.29-10.18-17.3-15.36-17.62-.02,0-.03,0-.05-.01h-.02c-1.66-.26-3.45-.49-5.35-.65-1.77-.15-3.65-.24-5.61-.25-.68,0-1.35,0-1.98.02,1.86-1.18,4.04-2.77,6.17-4.85,1.82-.26,3.64-.51,5.46-.77.45-.04,1.43-.11,2.65.03h.01c.67-.09,1.16-.09,1.16-.09,0,0,.36,0,.71.02,16.24.92,35.31,3.99,35.31,3.99,1.38.22,2.69.43,3.92.63Z"/>
          <path class="cls-30" d="M62.33,102.22c-.58.46-1.13.99-1.64,1.56-1.89,2.12-3.57,4.15-5.06,6.18-.53-.36-1.41-1.06-1.75-2.16-1.08-3.55,4.72-7.48,7.15-8.97.26.96.67,2.16,1.3,3.39Z"/>
          <path class="cls-21" d="M145.94,111.47c-3.84-1.26-7.96-2.72-12.21-4.38-.37-.14-.76-.3-1.16-.46-.7.13-1.27.15-1.58.16-.14,0-.29.01-.43.01-4.66.14-9.31.18-13.97.17h-.01c-4.24-.01-8.48-.05-12.72-.1-.45,0-.89-.01-1.33-.02-3.51-.03-7.01-.07-10.51-.08-3.81-.02-7.63,0-11.44.05h-.08c-.35.27-.71.54-1.07.81-1.26.94-3.8,2.42-5,3.22-3.53-3.39-4.02-3.86-4.39-4.24,0-.01-.02-.01-.02-.01,0,0-.13-.08-.34-.02-.7.2-1.52.51-2.31.84h0c-1.84.78-3.57,1.68-3.57,1.68-3.79,1.99-6.63,1.57-7.57,1.18-.08-.04-.15-.07-.2-.09-.07-.04-.22-.12-.4-.23,1.49-2.03,3.17-4.06,5.06-6.18.51-.57,1.06-1.1,1.64-1.56-.63-1.23-1.04-2.43-1.3-3.39.53-.33.9-.54,1-.61,1.42-.93,5.08-3.1,10.36-3.72,3.64-.44,6.32-.77,8.25-.32.82-.12,1.63-.23,2.45-.35l.12-.02c2.24-.29,4.44-.61,6.68-.93.02,0,.04-.01.06-.01,4.91-.69,9.82-1.38,14.73-2.08.92-.12,1.84-.25,2.76-.38,5.43-.77,10.87-1.53,16.3-2.3-2.13,2.08-4.31,3.67-6.17,4.85.63-.02,1.3-.02,1.98-.02,1.96.01,3.84.1,5.61.25,1.9.16,3.69.39,5.35.65h.02s.03.01.05.01c5.18.32,10.62,8.33,15.36,17.62Z"/>
        </g>
      </g>
      <g id="T-Shirt-2" data-name="T-Shirt">
        <path class="cls-4" d="M197.81,139.73c.24-2.71.42-5.57.52-8.59-1.33-.05-2.67-.27-4-.67l-30.18-9,1.31-4.39,7.5-25.16,1.85-6.22,28.55,8.51h.01c.7-.12,1.41-.21,2.16-.29,3.21-.31,6.03-.2,8.3.04.17.2.53.6,1.06,1.13,2.44,2.4,8.55,7.4,17.57,7.38.43,0,.86-.01,1.28-.04l1.99,64.9.2,6.29.74,24.22.07,2.16h-48.88c.88-6.25,1.93-13.09,3.18-20.41.16-.93.32-1.86.48-2.8.03-.15.05-.3.08-.45.78-4.44,1.48-8.18,2.11-11.48.19-.94.36-1.85.53-2.72,1.68-8.57,2.85-14.23,3.57-22.41Z"/>
        <path class="cls-8" d="M301.53,121.39l-6.81,6.8-18.21,18.21h0c2,8.44,4.4,15.62,6.95,27,1.54,6.88,3.25,15.82,4.55,26.6h-51.27l-.07-2.16-.74-24.22-.2-6.29-1.99-64.9c8.48-.48,14.2-5.34,16.69-7.94.7-.73,1.15-1.28,1.32-1.51,2.73-.45,6.44-.78,10.78-.32,4.5.46,8.21,1.61,10.9,2.69.05.02.1.04.15.06.05.02.09.04.14.06.17.06.34.13.5.21.9.39,1.76.86,2.59,1.42.87.58,1.69,1.26,2.45,2.02l22.27,22.27Z"/>
      </g>
      <g id="Gesicht-3" data-name="Gesicht">
        <g id="Gesicht-4" data-name="Gesicht">
          <g>
            <path class="cls-30" d="M258.09,50.43l-.33-1.77c-.4-2.17-2.22-3.74-4.33-3.92h-.01s-.02.02-.03,0c-.25-.15-1.46-5.28-3.46-9.04-.43-.82-.69-1.44-1.08-2.09-.29-.48-.55-.86-.78-1.16-4.9,5.69-18.95,7.15-29.35,4.85-1.22,1.97-2.9,4.28-2.88,7.66.03,4.65,2.42,8.87,2.7,9.13-.14-.1-1.25-.79-3.22-1.6-.26-.11-.54-.22-.84-.33-1.96-.74-3.1-.94-3.93-1.06-.25.06-.49.14-.71.25-1.68.75-2.86,2.44-2.86,4.39v1.81c0,2.64,2.16,4.81,4.81,4.81.46,0,.9-.06,1.32-.19,2.12,5.61,6.23,10.02,11.27,12.64-.09.49-.14.99-.14,1.5v17.74c-3.28.26-6.4.61-9.35,1.04,2.44,2.4,8.55,7.4,17.57,7.38.43,0,.86-.01,1.28-.04,8.48-.48,14.2-5.34,16.69-7.94-2.93-.33-6.01-.57-9.22-.71v-6.64c-3.89-3.45-7.77-6.89-11.67-10.34.96.25,2.14.48,3.5.6.09.02.18.03.27.03.21.02.42.04.64.05.23.02.47.03.72.03.94.03,1.88,0,2.83-.08.36-.03.71-.07,1.05-.12.35-.05.71-.11,1.06-.17.29-.05.57-.11.85-.17.26-.06.51-.12.75-.18,0,0,.02-.01.03-.01.3-.08.61-.16.91-.25,9.37-2.79,15.17-11.97,14.08-21.38,1.42-1.06,2.2-2.87,1.86-4.72ZM211.8,58.02c0,.39-.06.67-.19.72-.29.12-1.01-.78-1.27-1.68-.36-1.19.08-2.51.41-2.6.01,0,.03,0,.04,0,.44,0,1,2.33,1.01,3.55v.02ZM241.79,39.18c2.1-1.59,5.19-2.11,5.77-1.19.17.26.19.75-.42,1.74-.68.04-2.18.23-3.7,1.25-1.2.82-1.88,1.81-2.22,2.38-.76.07-1.48.01-1.74-.42-.51-.81.89-2.69,2.31-3.76ZM245.44,47.2c-.94.16-1.85-.49-2-1.43l-.1-.6c-.16-.95.48-1.85,1.43-2.01.1-.02.19-.02.29-.02.84,0,1.58.61,1.72,1.45l.1.6c.16.95-.49,1.85-1.44,2.01ZM237.36,51.19c.08-.01.15.04.16.12.07.38.13.69.19,1,.05.32.11.63.18,1.01l.03.13c.07.3.19.77.33,1.04.43.83,1.1,1.27,1.54,1.56l.12.08c1.03.66,1.42,1.4,1.22,2.25-.09.37-.39.72-.83.96-.42.23-.9.34-1.41.34-.42,0-.86-.07-1.29-.23-.08-.03-.12-.11-.09-.19.02-.07.11-.11.18-.08.88.31,1.8.27,2.47-.09.37-.2.62-.49.69-.77.17-.73-.19-1.36-1.1-1.95l-.12-.08c-.44-.29-1.18-.77-1.64-1.66-.16-.31-.28-.79-.36-1.11l-.03-.14c-.07-.39-.12-.7-.18-1.01-.06-.32-.12-.63-.18-1.01-.02-.08.04-.16.12-.17ZM223.91,46.17c-.75.07-1.48.01-1.74-.42-.51-.81.89-2.69,2.31-3.76,2.1-1.59,5.19-2.11,5.77-1.2.17.27.2.76-.41,1.75-.69.04-2.19.22-3.7,1.25-1.21.82-1.89,1.81-2.23,2.38ZM228.55,50.02c-.95.16-1.85-.49-2.01-1.44l-.1-.6c-.15-.94.49-1.85,1.44-2,.1-.02.19-.02.29-.02.83,0,1.58.6,1.71,1.45l.11.6c.15.95-.49,1.85-1.44,2.01ZM248.49,65.2c-1.39.58-2.77.58-3.97.33-.9.47-2.22.94-3.73,1.3-1.52.36-2.94.53-3.95.51-.31-.01-.57-.03-.8-.08-.95.33-2.01.52-3.17.47-1.33-.05-2.45-.41-3.29-.78-.02-.01-.05-.02-.07-.03.9-.27,2.15-.73,3.5-1.54,2.99-1.78,4.14-3.85,6.01-3.63.45.06,1.02.25,1.67.85.34-.76.76-1.12,1.1-1.3,1.44-.76,2.97.88,5.91,1.7,1.32.37,2.46.44,3.27.44-.57.61-1.39,1.3-2.48,1.76Z"/>
            <path class="cls-17" d="M211.8,58v.02c0,.39-.06.67-.19.72-.29.12-1.01-.78-1.27-1.68-.36-1.19.08-2.51.41-2.6.01,0,.03,0,.04,0,.44,0,1,2.33,1.01,3.55Z"/>
            <path class="cls-17" d="M241.21,81.07c-.01.48-.01.96-.01,1.44,0,.78,0,1.55.01,2.33v2.3c-3.89-3.45-7.77-6.89-11.67-10.34.96.25,2.14.48,3.5.6.09.02.18.03.27.03.21.02.42.04.64.05.23.02.47.03.72.03.38.03.76.03,1.15.02.58-.01,1.14-.05,1.68-.1.36-.03.71-.07,1.05-.12.37-.05.72-.11,1.06-.17.3-.05.58-.11.85-.17.26-.06.51-.12.75-.18v4.28Z"/>
            <path class="cls-14" d="M247.14,39.73c-.68.04-2.18.23-3.7,1.25-1.2.82-1.88,1.81-2.22,2.38-.76.07-1.48.01-1.74-.42-.51-.81.89-2.69,2.31-3.76,2.1-1.59,5.19-2.11,5.77-1.19.17.26.19.75-.42,1.74Z"/>
            <path class="cls-16" d="M228.55,50.02c-.95.16-1.85-.49-2.01-1.44l-.1-.6c-.15-.94.49-1.85,1.44-2,.1-.02.19-.02.29-.02.83,0,1.58.6,1.71,1.45l.11.6c.15.95-.49,1.85-1.44,2.01Z"/>
            <path class="cls-16" d="M245.44,47.2c-.94.16-1.85-.49-2-1.43l-.1-.6c-.16-.95.48-1.85,1.43-2.01.1-.02.19-.02.29-.02.84,0,1.58.61,1.72,1.45l.1.6c.16.95-.49,1.85-1.44,2.01Z"/>
            <path class="cls-16" d="M241.13,58.38c-.09.37-.39.72-.83.96-.42.23-.9.34-1.41.34-.42,0-.86-.07-1.29-.23-.08-.03-.12-.11-.09-.19.02-.07.11-.11.18-.08.88.31,1.8.27,2.47-.09.37-.2.62-.49.69-.77.17-.73-.19-1.36-1.1-1.95l-.12-.08c-.44-.29-1.18-.77-1.64-1.66-.16-.31-.28-.79-.36-1.11l-.03-.14c-.07-.39-.12-.7-.18-1.01-.06-.32-.12-.63-.18-1.01-.02-.08.04-.16.12-.17.08-.01.15.04.16.12.07.38.13.69.19,1,.05.32.11.63.18,1.01l.03.13c.07.3.19.77.33,1.04.43.83,1.1,1.27,1.54,1.56l.12.08c1.03.66,1.42,1.4,1.22,2.25Z"/>
            <path class="cls-14" d="M229.84,42.54c-.69.04-2.19.22-3.7,1.25-1.21.82-1.89,1.81-2.23,2.38-.75.07-1.48.01-1.74-.42-.51-.81.89-2.69,2.31-3.76,2.1-1.59,5.19-2.11,5.77-1.2.17.27.2.76-.41,1.75Z"/>
          </g>
          <path class="cls-29" d="M244.52,65.53c-.9.47-2.22.94-3.73,1.3-1.52.36-2.94.53-3.95.51-.31-.01-.57-.03-.8-.08.12-.03.23-.07.34-.12,2.19-.82,3.73-2.3,4.36-2.98.07-.07.12-.14.17-.19.05.04.1.08.17.12.58.38,1.85,1.12,3.44,1.44Z"/>
        </g>
        <g id="Haare-2" data-name="Haare">
          <path class="cls-3" d="M250.97,63.44c-.57.61-1.39,1.3-2.48,1.76-1.39.58-2.77.58-3.97.33-1.59-.32-2.86-1.06-3.44-1.44-.07-.04-.12-.08-.17-.12-.05.05-.1.12-.17.19-.63.68-2.17,2.16-4.36,2.98-.11.05-.22.09-.34.12-.95.33-2.01.52-3.17.47-1.33-.05-2.45-.41-3.29-.78-.02-.01-.05-.02-.07-.03.9-.27,2.15-.73,3.5-1.54,2.99-1.78,4.14-3.85,6.01-3.63.45.06,1.02.25,1.67.85.34-.76.76-1.12,1.1-1.3,1.44-.76,2.97.88,5.91,1.7,1.32.37,2.46.44,3.27.44Z"/>
          <path class="cls-3" d="M253.58,44.04c0,.1-.08.36-.15.67h0s-.01.03-.01.03c-.01.02-.02.02-.03,0-.25-.15-1.46-5.28-3.46-9.04-.43-.82-.69-1.44-1.08-2.09-.29-.48-.55-.86-.78-1.16-4.9,5.69-18.95,7.15-29.35,4.85-1.22,1.97-2.9,4.28-2.88,7.66.03,4.65,2.42,8.87,2.7,9.13-.14-.1-1.25-.79-3.22-1.6-.26-.11-.54-.22-.84-.33-1.96-.74-3.1-.94-3.93-1.06-.27-.04-.51-.07-.74-.11,0,0-.24-1.21-.53-2.77h0c-.43-2.29-.96-5.33-1-6.44-.05-1.28,0-5.27,1.42-8.23-1.12-.87-1.99-1.85-2.52-2.94-.15-.3-1.7-3.5-.36-5.54,1.24-1.87,3.9-1.26,7.77-2.06,5.73-1.18,5.42-3.64,11.51-5.72,1.61-.55,7.58-2.46,14.37-.58,2.39.66,6.17,1.71,8.16,5.11,1.3,2.22,1.57,5,1.12,7.2h0c.88,1.59,1.72,3.39,2.28,4.75,0,0,1.41,3.42,1.55,10.27Z"/>
        </g>
      </g>
    </g>
    <g id="Person_1" data-name="Person 1">
      <g id="Hose">
        <path class="cls-12" d="M117.99,199.92v.08h-15.46v-31.55c.59.02,1.17.05,1.76.05.66,0,1.32,0,1.97-.02.3,0,.59-.01.89-.02,2.72-.09,5.29-.33,7.67-.67,0,.04.01.1.02.19,0,.1.02.21.03.31v.02c.02.15.03.3.05.45.02.2.04.4.06.6.02.28.05.56.08.84.1,1,.22,2.3.38,3.91.04.37.08.74.11,1.11.04.39.08.8.12,1.21.05.44.09.88.13,1.31.02.23.05.46.07.69.05.5.1,1,.15,1.49.09.95.19,1.9.28,2.84.29,3,.63,6.45,1.02,10.37.01.12.03.26.04.4.03.27.06.57.09.89v.08c.01.07.02.14.02.21.03.28.06.55.09.82.04.38.08.77.11,1.16.04.44.09.88.13,1.31v.04c.04.43.09.85.13,1.27.02.21.04.41.06.61Z"/>
        <path class="cls-26" d="M102.53,168.45v31.55h-19.61c.17-2.96.33-5.94.49-8.9.47-8.41.94-16.83,1.41-25.24,0-.05.01-.11,0-.16h0s.06,0,.09,0c4.63,1.33,10.6,2.53,17.62,2.74Z"/>
      </g>
      <g id="T-Shirt-3" data-name="T-Shirt">
        <path class="cls-28" d="M114.82,167.79c-2.38.34-4.95.58-7.67.67-.3.01-.59.02-.89.02-.65.02-1.31.02-1.97.02-.59,0-1.17-.03-1.76-.05v-66.57c.39-.09.77-.19,1.14-.3.03,0,.05,0,.08-.02.09-.02.17-.05.25-.08.03-.01.07-.02.1-.03.02-.01.03-.01.04-.01s.02,0,.03-.01c.01,0,.01-.01.02-.01h.02s.03,0,.04-.01c.04-.01.07-.02.11-.04.12-.03.24-.07.35-.11.12-.04.23-.08.35-.12.27-.1.53-.2.79-.3,0,.02,0,.05-.02.07-.11.37-.22.73-.33,1.09-.09.28-.17.55-.26.82-.11.33-.22.65-.32.97-.15.44-.31.87-.46,1.29-.08.23-.17.46-.25.68-.13.33-.25.66-.38.98.1.38.19.77.29,1.15,2.64,10.59,5.28,21.17,7.91,31.76,0-.03,0-.04,0-.06.81,8.24,1.63,16.47,2.44,24.7.01.08.01.15.02.22.11,1.1.22,2.19.32,3.28Z"/>
        <path class="cls-23" d="M102.53,101.88v66.57c-7.02-.21-12.99-1.41-17.62-2.74-.03,0-.06-.02-.09-.02.03-.41.05-.8.07-1.21.05-.75.09-1.49.13-2.24.41-7.46.83-14.91,1.24-22.37v-.03l.03-.47v-.06s.01-.03.01-.05c2.06-10.43,4.11-20.89,6.15-31.34-.16-.43-.33-.87-.49-1.32-.19-.52-.38-1.06-.57-1.61-.39-1.13-.77-2.31-1.14-3.54,1.79.54,3.84.95,6.11,1.03h.03c1.03.04,2.11.01,3.22-.1,1.03-.12,2-.27,2.92-.5Z"/>
      </g>
      <g id="Gesicht-5" data-name="Gesicht">
        <path class="cls-30" d="M124.83,55.42l-.34-1.83c-.41-2.24-2.29-3.85-4.46-4.03l-.04-.14h0s-.05-.01-.07-.02c-1.76-5.09-4.2-7.22-6.12-8.23-2.14-1.12-4.4-1.25-7.12-3.45-1.42-1.16-2.36-2.39-2.91-3.22-.31.69-1.43,3.04-4.1,5.84-.79.83-1.55,1.53-2.27,2.14-.14.12-.29.24-.43.35-.6.49-1.18.91-1.74,1.28-.23.15-.45.3-.68.43-.25.16-.5.31-.75.45-.24.14-.48.28-.71.41.42-.05.85-.08,1.28-.08.9,0,1.75.16,2.25.47.23.14.39.31.45.51.15.49-.3,1.09-.88,1.63-.19-.04-.42-.08-.7-.11-.69-.08-1.61-.08-2.65.18-1.83.45-3,1.48-3.51,1.97-.54-.1-.91-.22-1.16-.37-.29-.16-.42-.34-.46-.51-.04-.16-.03-.34.06-.53-.09.07-.17.15-.26.23-.08.08-.17.16-.25.25-.12.13-.25.26-.37.41-.12.13-.24.28-.36.43h0c-.12.16-.24.32-.35.49-.12.17-.24.35-.35.53-2.3,3.71-2.58,6.09-3.73,7.97-.05,0-.32-.46-.88-1.06-.04-.05-.08-.1-.13-.14-.04-.05-.14-.15-.28-.27-.05-.05-.1-.1-.15-.14-.1-.1-.21-.19-.33-.27-.06-.05-.12-.1-.19-.14-.13-.09-.26-.17-.39-.25-.14-.08-.28-.15-.43-.22-.05-.02-.1-.05-.15-.07-.01-.01-.03-.02-.04-.02-.03-.02-.07-.03-.11-.04-.02-.01-.04-.02-.07-.03-.03-.01-.06-.02-.09-.03-.06-.03-.12-.05-.18-.06-.01-.01-.03-.01-.05-.01-.01-.01-.02-.01-.04-.02-.03-.01-.06-.02-.09-.02-.01,0-.03,0-.05,0h-.01s-.01-.01-.02-.01h-.01s-.03-.01-.05-.01c-.15-.04-.31-.07-.48-.09h-.01s-.03,0-.05,0h-.05s-.02,0-.03-.01h-.02s-.05,0-.07-.01h-.12s-.06-.01-.1-.01h-.06c-.14,0-.28,0-.43.01-.1,0-.21.01-.32.03-.03,0-.06,0-.09.01-.06,0-.11.01-.16.02-.08.01-.16.03-.24.04-.14.03-.27.06-.4.1-.15.05-.31.1-.47.16-.01.01-.02.02-.04.02-.03.01-.06.03-.1.05-1.74.77-2.96,2.51-2.96,4.53v1.86c0,2.72,2.23,4.95,4.96,4.95.47,0,.93-.07,1.36-.19.71,1.88,2.09,4.8,4.71,7.7,2.48,2.75,5.09,4.38,6.83,5.29,0,.33-.01.66-.02.99-.02,1.17-.04,2.35-.05,3.51-.04,2.38-.06,4.76-.06,7.12v.76c.01,1.91.03,3.81.06,5.7-.16.02-.32.05-.48.07.03.15.07.29.11.44.09.35.19.7.29,1.05.03.09.05.19.08.28.1.35.2.69.3,1.03,1.79.54,3.84.95,6.11,1.03h.03c1.03.04,2.11.01,3.22-.1,1.03-.12,2-.27,2.92-.5.39-.09.77-.19,1.14-.3.03,0,.05,0,.08-.02.09-.02.17-.05.25-.08.03-.01.07-.02.1-.03.02-.01.03-.01.04-.01h.01s0-.01.02-.01.01-.01.02-.01h.02s.03,0,.04-.01c.04-.01.07-.02.11-.04.12-.03.24-.07.35-.11.12-.04.23-.08.35-.12.27-.1.53-.2.79-.3.09-.31.22-.77.38-1.34.21-.75.53-1.93.87-3.47.09-.39.21-.95.34-1.63v-1.16c-.85-.75-1.67-1.48-2.52-2.24h-.01s0-.01,0-.01c-.07-.06-.15-.13-.22-.2-3.09-2.73-6.17-5.46-9.26-8.2,1.61.42,3.83.81,6.47.75.12,0,.25-.01.37-.02.8-.03,1.62-.1,2.44-.21.36-.05.73-.11,1.09-.17.3-.05.59-.11.87-.18.26-.06.52-.12.78-.19h.03c.31-.08.62-.17.93-.26,9.65-2.88,15.63-12.34,14.5-22.02,1.47-1.09,2.28-2.96,1.93-4.87ZM77.14,63.24c0,.39-.06.68-.2.73-.3.13-1.04-.8-1.32-1.72-.37-1.23.08-2.58.43-2.68.01-.02.03-.02.04-.02.46,0,1.05,2.42,1.05,3.68h0ZM93.7,50.83c.1-.02.2-.03.3-.03.86,0,1.62.63,1.77,1.5l.1.62c.16.98-.5,1.91-1.48,2.07-.97.16-1.9-.5-2.07-1.48l-.1-.62c-.16-.97.5-1.9,1.48-2.06ZM102.52,74.07c-3.07-.13-5.88-2.16-7.31-5.22.66.41,1.45.86,2.37,1.29,1.01.49,2.18.95,3.49,1.34,2.64.77,4.95.94,6.61.94-.68.51-2.58,1.77-5.16,1.65ZM111.8,52.09c-.98.16-1.91-.5-2.07-1.48l-.1-.62c-.17-.97.5-1.91,1.47-2.07.1-.02.2-.02.29-.02.87,0,1.64.62,1.78,1.5l.11.62c.16.97-.51,1.9-1.48,2.07ZM113.71,44.85c-.33-.06-.86-.13-1.5-.1-.72.01-1.59.13-2.51.49-1.4.54-2.31,1.38-2.78,1.88-.74-.1-1.42-.32-1.62-.76-.02-.02-.03-.04-.04-.07-.31-.93,1.53-2.5,3.2-3.24.8-.36,1.67-.58,2.51-.68.97-.12,1.88-.07,2.54.12.53.14.91.38,1.02.7.11.3.02.8-.82,1.66Z"/>
        <g>
          <path class="cls-17" d="M107.44,86.99c0,.49-.01.99-.01,1.48,0,.81,0,1.61.01,2.4v2.37c-.85-.75-1.67-1.48-2.52-2.24h-.01s0-.01,0-.01c-3.16-2.8-6.32-5.59-9.48-8.4,1.61.42,3.83.81,6.47.75.12,0,.25-.01.37-.02.87-.02,1.69-.1,2.44-.21.38-.04.74-.1,1.09-.17.3-.05.59-.11.87-.18.27-.05.53-.12.78-.18v4.41Z"/>
          <path class="cls-27" d="M107.45,93.25h-.01v-2.02c0,.68.01,1.35.01,2.02Z"/>
          <path class="cls-27" d="M107.47,82.57c0,1.46-.02,2.94-.03,4.42v-4.41s.02,0,.03,0Z"/>
        </g>
        <path class="cls-17" d="M77.14,63.23h0c0,.4-.06.69-.2.74-.3.13-1.04-.8-1.32-1.72-.37-1.23.08-2.58.43-2.68.01-.02.03-.02.04-.02.46,0,1.05,2.42,1.05,3.68Z"/>
        <path class="cls-24" d="M96.19,47.93c-.19-.04-.42-.08-.7-.11-.69-.08-1.61-.08-2.65.18-1.83.45-3,1.48-3.51,1.97-.54-.1-.91-.22-1.16-.37-.29-.16-.42-.34-.46-.51-.04-.16-.03-.34.06-.53,1.53-1.37,3.26-2.05,5.31-3.16.42-.05.86-.08,1.29-.08.9,0,1.75.16,2.25.47.23.14.39.31.45.51.15.49-.3,1.09-.88,1.63Z"/>
        <path class="cls-24" d="M113.71,44.85c-.33-.06-.86-.13-1.5-.1-.72.01-1.59.13-2.51.49-1.4.54-2.31,1.38-2.78,1.88-.74-.1-1.42-.32-1.62-.76-.02-.02-.03-.04-.04-.07-.31-.93,1.53-2.5,3.2-3.24.8-.36,1.67-.58,2.51-.68.97-.12,1.88-.07,2.54.12.53.14.91.38,1.02.7.11.3.02.8-.82,1.66Z"/>
        <path class="cls-16" d="M94.39,54.99c-.97.16-1.9-.5-2.07-1.48l-.1-.62c-.16-.97.5-1.9,1.48-2.06.1-.02.2-.03.3-.03.86,0,1.62.63,1.77,1.5l.1.62c.16.98-.5,1.91-1.48,2.07Z"/>
        <path class="cls-16" d="M111.8,52.09c-.98.16-1.91-.5-2.07-1.48l-.1-.62c-.17-.97.5-1.91,1.47-2.07.1-.02.2-.02.29-.02.87,0,1.64.62,1.78,1.5l.11.62c.16.97-.51,1.9-1.48,2.07Z"/>
        <path class="cls-16" d="M105.04,64.94c-.43,0-.88-.08-1.33-.24-.07-.03-.11-.11-.09-.18.03-.07.11-.11.18-.09.9.32,1.85.28,2.55-.09.38-.21.64-.5.71-.8.18-.75-.19-1.41-1.13-2.02l-.12-.08c-.46-.3-1.22-.79-1.69-1.71-.16-.32-.29-.82-.37-1.14l-.03-.14c-.07-.4-.13-.72-.19-1.05-.06-.32-.12-.65-.19-1.04-.01-.08.04-.15.12-.16.08-.02.15.04.16.12.06.39.13.71.19,1.03.06.32.12.65.19,1.04l.03.13c.08.32.2.79.35,1.08.44.85,1.13,1.3,1.59,1.6l.12.08c1.05.68,1.46,1.44,1.25,2.32-.09.38-.4.74-.85.98-.43.23-.92.35-1.45.35Z"/>
        <g id="Haare-3" data-name="Haare">
          <path class="cls-1" d="M130.53,78.61c-1.83,3.93-4.28,7.06-6.79,9.5-2.13,2.08-4.31,3.67-6.17,4.85-.81.01-1.58.05-2.31.09h-.04l-1.78-.44-5.46-1.31c-.18-.02-.36-.05-.54-.07v-4.24c.01-1.48.02-2.96.03-4.42.31-.08.62-.17.93-.26,9.65-2.88,15.63-12.34,14.5-22.02,1.47-1.09,2.28-2.96,1.93-4.87l-.34-1.83c-.41-2.24-2.29-3.85-4.46-4.03l-.04-.14h0s-.05-.01-.07-.02c-1.76-5.09-4.2-7.22-6.12-8.23-2.14-1.12-4.4-1.25-7.12-3.45-1.42-1.16-2.36-2.39-2.91-3.22-.31.69-1.43,3.04-4.1,5.84-.79.83-1.55,1.53-2.27,2.14-.14.12-.29.24-.43.35-.6.49-1.18.91-1.74,1.28-.23.15-.45.3-.68.43-.25.16-.5.31-.75.45-.24.14-.48.28-.71.41-.12.06-.23.12-.34.18-.4.2-.78.4-1.15.59-.02.01-.05.02-.07.03-.45.23-.88.45-1.3.68-.24.13-.47.26-.69.39-.2.12-.39.24-.58.37-.41.27-.81.57-1.19.92-.09.07-.17.15-.26.23-.08.08-.17.16-.25.25-.12.13-.25.26-.37.41-.12.13-.24.28-.36.43h0c-.12.16-.24.32-.35.49-.12.17-.24.35-.35.53-2.3,3.71-2.58,6.09-3.73,7.97-.05,0-.32-.46-.88-1.06-.04-.05-.08-.1-.13-.14-.04-.05-.14-.15-.28-.27-.05-.05-.1-.1-.15-.14-.1-.1-.21-.19-.33-.27-.06-.05-.12-.1-.19-.14-.13-.09-.26-.17-.39-.25-.14-.08-.28-.16-.43-.22-.03-.02-.06-.04-.09-.05-.02,0-.04-.02-.06-.02-.01-.01-.03-.02-.04-.02-.03-.02-.07-.03-.11-.04-.02-.01-.04-.02-.07-.03-.03-.01-.06-.02-.09-.03-.06-.03-.12-.05-.18-.06-.01-.01-.03-.01-.05-.01-.01-.01-.02-.01-.04-.02-.03-.01-.06-.02-.09-.02-.01,0-.03,0-.05,0h-.01s-.01-.01-.02-.01h-.01s0,0,0-.01c-.02-.01-.04-.01-.07-.02-.1-.02-.2-.04-.3-.05-.02-.01-.04-.01-.06-.01-.03-.01-.06-.01-.09-.01h-.01s-.03,0-.05,0h-.05s-.02,0-.03-.01h-.02s-.05,0-.07-.01h-.03s-.03-.01-.04,0h-.05s-.06-.01-.1-.01h-.06c-.14,0-.28,0-.43.01-.1,0-.21.01-.32.03-.03,0-.06,0-.09.01-.06,0-.11.01-.16.02-.03,0-.07.01-.1.01-.04.01-.09.02-.14.03-.14.03-.27.06-.4.1-.15.05-.31.1-.47.16-.01,0-.03.01-.04.01h0s-.03.01-.05.02c-.02,0-.04,0-.06.02t.01.02c-1.74.77-2.96,2.51-2.96,4.53v1.86c0,2.72,2.23,4.95,4.96,4.95.47,0,.93-.07,1.36-.19.71,1.88,2.09,4.8,4.71,7.7,2.48,2.75,5.09,4.38,6.83,5.29,0,.33-.01.66-.02.99-.07,3.58-.09,7.12-.05,10.62-.02,0-.04.01-.06.01-.63.14-1.23.28-1.8.43l-4.88,1.26-.12.02-7.14,1.84.59.5h0c-2.58.6-5.51,1.53-8.82,2.94-.32.13-.65.27-.98.42,0,.04.01.08.01.12.01.05.01.1.02.16-1.58.51-3.09,1.32-4.44,2.41-.63-1.23-1.04-2.43-1.3-3.39-.25-.91-.37-1.62-.43-1.97-1.05-6.27,2.16-8.53,3.16-16.04,1.06-8.08-2.04-10.03-2.37-18.65-.18-4.87.52-11.98,4.93-20.85,1.34-2.66,6.17-11.41,16.74-16.04,8.3-3.64,15.83-2.84,19.3-2.21,9.36,1.7,15.33,6.89,17.53,9.03,13.03,13.9,17.19,32.44,10.64,46.51Z"/>
        </g>
      </g>
      <g id="Jacke">
        <path class="cls-31" d="M194.24,162.14c-.17.87-.34,1.78-.53,2.72-.63,3.3-1.33,7.04-2.11,11.48-.03.15-.05.3-.08.45-.16.94-.32,1.87-.48,2.8-11.16-1.05-20.02-1.64-27.24-1.87-6.19-.2-8.93-1.38-10.46-2.81-.14-.15-.31-.32-.5-.51-.01-.03-.03-.05-.06-.07-2.18-2.31-6.72-7.21-11.76-13.65-.59-1.75-1.19-3.48-1.78-5.2-1.56-3.95-3.19-8.69-4.61-14.11-.92-3.47-1.75-7.21-2.42-11.22h0c-.37-2.26-.7-4.58-.96-6.98-.62-5.74-.81-11.22-.69-16.37,0-.35.01-.69.03-1.03h0c.06-2.22.19-4.38.37-6.46.15-1.82.33-3.59.55-5.3-.31-.06-.61-.1-.93-.16,5.18.32,10.62,8.33,15.36,17.62,3.49,6.86,6.6,14.41,8.93,20.07,4.09,9.94,6.88,18.77,8.78,25.71,1.77.38,3.56.76,5.38,1.12,8.71,1.72,17.13,2.95,25.21,3.77Z"/>
        <path class="cls-31" d="M67.49,113.37h0c-.02,4.23-.27,8.79-.87,13.67-.94,7.64-2.54,14.4-4.31,20.13-.96,3.12-1.97,5.93-2.95,8.42-.07.26-.14.52-.21.78-3,4.41-6.41,9.31-10.23,14.61-1.64,9.68-3.28,19.35-4.91,29.02h-19.32c2.06-21.33,4.68-36.37,6.84-40.26,8.22-15.13,13.46-27.61,16.82-36.53,1.86-4.94,4.19-9.09,7.28-13.25,1.49-2.03,3.17-4.06,5.06-6.18.51-.57,1.06-1.1,1.64-1.56,1.35-1.09,2.86-1.9,4.44-2.41.03.33.07.67.11,1.01.08.78.15,1.57.22,2.4.11,1.34.2,2.74.27,4.2h0c0,.08,0,.16.01.24.08,1.82.12,3.72.11,5.71Z"/>
        <path class="cls-18" d="M152.84,200h-34.84s-.01-.05-.01-.08c-.02-.2-.04-.4-.06-.61-.04-.41-.08-.84-.13-1.27v-.04c-.04-.44-.09-.88-.13-1.31-.03-.39-.07-.78-.11-1.16-.02-.28-.05-.56-.09-.82,0-.07,0-.14-.02-.21v-.08c-.03-.32-.06-.62-.09-.89-.01-.14-.03-.28-.04-.4-.39-3.92-.73-7.37-1.02-10.37-.1-1-.19-1.94-.28-2.84-.05-.49-.1-.99-.15-1.49-.02-.23-.05-.46-.07-.69-.04-.43-.08-.87-.13-1.31-.04-.41-.08-.82-.12-1.21-.03-.37-.07-.74-.11-1.11-.16-1.61-.28-2.91-.38-3.91-.03-.31-.06-.59-.08-.84-.02-.22-.04-.42-.06-.6-.02-.17-.03-.32-.05-.45v-.02c-.01-.13-.02-.23-.03-.31-.01-.09-.02-.15-.02-.19-.1-1.09-.21-2.18-.32-3.28-.01-.07-.01-.14-.02-.22-.81-8.23-1.63-16.46-2.44-24.7h0c2-9.39,4-18.75,6-28.13.11-.49.21-.99.32-1.48l-1.44-2.44-.33-.57h-.01l-3.7-6.34,4.9-4.3c.79-.7,1.59-1.4,2.38-2.1l-.39-.09-2.95-.71-1.56-.38c.73-.04,1.5-.08,2.31-.09.63-.02,1.3-.02,1.98-.02,1.96.01,3.84.1,5.61.25,1.9.16,3.69.39,5.35.65h.02s.03.01.05.01c.32.06.62.1.93.16-.22,1.71-.4,3.48-.55,5.3-.18,2.08-.31,4.24-.37,6.45h0c-.02.35-.03.69-.03,1.04-.12,5.15.07,10.63.69,16.37.26,2.4.59,4.72.96,6.97h0c.67,4.02,1.5,7.76,2.42,11.23,1.42,5.42,3.05,10.16,4.61,14.11.59,1.72,1.19,3.45,1.78,5.2,3.08,9.15,6.09,18.76,8.95,28.81h0c.97,3.45,1.93,6.95,2.87,10.51Z"/>
        <path class="cls-18" d="M86.26,139.49v.04s-.01.06-.02.09c-1.65-5.62-3.29-11.24-4.92-16.88-.12-.39-.23-.78-.35-1.17h0c-.19-.65-.38-1.3-.56-1.94-.41-1.38-.81-2.75-1.21-4.13-.4-1.38-.8-2.75-1.2-4.13l1.43-2.52,1.15-2.03,1.16-2.06.88-1.55.71-1.26-4.3-3.66h-.01l-2.47-2.11h-.01c-2.58.59-5.51,1.52-8.82,2.93-.32.13-.65.27-.98.42,0,.04.01.08.01.12.01.05.01.1.02.16.03.33.07.67.11,1.01.08.78.15,1.57.22,2.4.11,1.34.2,2.74.27,4.2h0c0,.08,0,.16.01.24.08,1.82.12,3.72.11,5.71h0c-.02,4.23-.27,8.79-.87,13.67-.94,7.64-2.54,14.4-4.31,20.13-.96,3.12-1.97,5.93-2.95,8.42-.07.26-.14.52-.21.78-.26.99-.52,1.98-.78,2.98h0c-2.12,8.51-4.19,17.25-6.17,26.21-1.08,4.87-2.11,9.68-3.08,14.44h33.8c.17-2.96.33-5.94.49-8.9.47-8.41.94-16.83,1.41-25.24,0-.05.01-.11,0-.16h0c.03-.42.05-.81.07-1.22.05-.75.09-1.49.13-2.24.41-7.46.83-14.91,1.24-22.37v-.03l.03-.47s-.02.08-.03.12ZM78.59,198.04c-.6,0-1.09-.49-1.09-1.09s.49-1.09,1.09-1.09,1.09.49,1.09,1.09-.49,1.09-1.09,1.09ZM79.41,182.79c-.61,0-1.09-.49-1.09-1.09s.48-1.09,1.09-1.09,1.08.48,1.08,1.09-.48,1.09-1.08,1.09ZM80.13,168.01c-.61,0-1.09-.49-1.09-1.09s.48-1.09,1.09-1.09,1.08.49,1.08,1.09-.48,1.09-1.08,1.09ZM81.28,153.04c-.61,0-1.09-.49-1.09-1.09s.48-1.09,1.09-1.09,1.08.49,1.08,1.09-.48,1.09-1.08,1.09Z"/>
        <path class="cls-29" d="M82.36,151.95c0,.6-.48,1.09-1.08,1.09s-1.09-.49-1.09-1.09.48-1.09,1.09-1.09,1.08.49,1.08,1.09Z"/>
        <path class="cls-29" d="M81.21,166.92c0,.6-.48,1.09-1.08,1.09s-1.09-.49-1.09-1.09.48-1.09,1.09-1.09,1.08.49,1.08,1.09Z"/>
        <path class="cls-29" d="M80.49,181.7c0,.6-.48,1.09-1.08,1.09s-1.09-.49-1.09-1.09.48-1.09,1.09-1.09,1.08.48,1.08,1.09Z"/>
        <path class="cls-29" d="M79.68,196.95c0,.6-.49,1.09-1.09,1.09s-1.09-.49-1.09-1.09.49-1.09,1.09-1.09,1.09.49,1.09,1.09Z"/>
        <path class="cls-31" d="M92.45,107.92c-2.04,10.45-4.09,20.91-6.15,31.34,0,.02,0,.03-.01.05v.06s-.02.08-.03.12v.04s-.01.06-.02.09c-1.65-5.62-3.29-11.24-4.92-16.88-.12-.39-.23-.78-.35-1.17h0c-.19-.65-.38-1.3-.56-1.94-.41-1.38-.81-2.75-1.21-4.13-.4-1.38-.8-2.75-1.2-4.13l1.43-2.52,2.31-4.09.88-1.55.71-1.26-4.3-3.66h-.01l-2.47-2.11h-.01s-.59-.51-.59-.51l12.14-3.12c.59-.15,1.21-.3,1.86-.44v6.47c-.16.02-.32.05-.48.07.03.15.07.29.11.44.09.35.19.7.29,1.05.03.09.05.19.08.28.1.35.2.69.3,1.03.37,1.23.75,2.41,1.14,3.54.19.55.38,1.09.57,1.61.16.45.33.89.49,1.32Z"/>
        <path class="cls-31" d="M117.78,96.33l-4.9,4.3,4.04,6.91,1.44,2.44c-.11.49-.21.99-.32,1.48-2,9.38-4,18.74-6,28.12h0s0,.04,0,.07c-2.63-10.59-5.27-21.17-7.91-31.76-.1-.38-.19-.77-.29-1.15.13-.32.25-.65.38-.98.08-.22.17-.45.25-.68.15-.42.31-.85.46-1.29.1-.32.21-.64.32-.97.09-.27.17-.54.26-.82.11-.36.22-.72.33-1.09.01-.02.01-.05.02-.07.09-.31.22-.77.38-1.34.21-.75.53-1.93.87-3.47.09-.4.21-.96.34-1.63v-1.16h.01c0-.66-.01-1.33-.01-2.01.18.02.36.05.54.07l5.46,1.31,1.78.44h.04l1.56.38,2.95.71.39.09c-.79.7-1.59,1.4-2.38,2.1Z"/>
      </g>
    </g>
    <g id="Person_4" data-name="Person 4">
      <g id="T-Shirt-4" data-name="T-Shirt">
        <path class="cls-9" d="M521.68,200h-19.9l.21-3.74.89-15.84,2.12-37.85v-.03c2.41-12.28,4.83-24.56,7.24-36.83-.56-1.45-1.11-2.98-1.64-4.58,2.03.6,4.3.98,6.79.97.43,0,.86-.01,1.28-.04l2.4,78.14.53,17.04.08,2.76Z"/>
        <path class="cls-26" d="M540.8,200h-19.12l-.08-2.76-.53-17.04-2.4-78.14c3.23-.18,6.04-.99,8.44-2.08-.5,1.54-1.03,2.98-1.56,4.34,3.19,12.83,6.39,25.67,9.59,38.5,0-.02.01-.05.02-.07l3.67,37.24,1.63,16.6.34,3.41Z"/>
      </g>
      <g id="Jacke-2" data-name="Jacke">
        <path class="cls-25" d="M482.3,125.08c-.08.89-.19,1.8-.3,2.71-.06.52-.13,1.03-.21,1.55-.12.97-.26,1.91-.42,2.86-.45.26-.91.53-1.39.81-1.94,1.12-4.16,2.36-6.7,3.72-5.36,2.86-12.63,6.52-21.52,10.37,0,0,13.38,11.22,13.39,11.23l.18.16,7.23,6.06,1.83,1.54c-.88.69-1.84,1.5-2.85,2.43-.24.21-.49.45-.75.69-1.18,1.12-2.43,2.41-3.68,3.86-1.87,2.18-3.38,4.3-4.57,6.21-.71,1.1-1.3,2.14-1.81,3.08-17.13-13.79-30.12-24.7-35.9-29.94-.05-.04-.1-.09-.15-.14-.19-.17-.38-.33-.55-.5-.06-.05-.11-.1-.16-.14-.05-.05-.1-.1-.15-.14l-.02-.02c-.4-.37-.75-.7-1.05-.99-.85-.82-2.65-2.65-2.86-5.63-.21-2.97,1.24-6.43,3.25-8.65.09-.1.17-.19.26-.28,2.09-2.13,4.89-3.82,7.2-5.72,2.74-2.25,5.5-4.49,8.26-6.71,1.11-.89,2.2-1.77,3.26-2.62,3.08-2.45,6-4.77,8.76-6.93,16.29-12.78,22.65-17.06,30.9-18.04.12-.02.24-.04.36-.05.12,1.01.23,2.05.32,3.15.66,7.25.88,16.08-.16,26.07Z"/>
        <path class="cls-25" d="M512.24,105.71c-2.41,12.27-4.83,24.55-7.24,36.83v.03c-.02.08-.03.15-.05.23-2.41-8.26-4.82-16.53-7.23-24.79-.08-.29-.17-.57-.25-.86-.72-2.47-1.44-4.94-2.16-7.41l3.28-5.81,2.32-4.1.63-1.11-4.1-3.5c.38-.51.69-1.07.92-1.67.4-1.04.53-2.13.37-3.2-.01-.08-.04-.24-.09-.46l8.47-2.18c.12-.03.23-.06.35-.09.75-.19,1.54-.38,2.38-.54v5.69c0,.31.02.61.05.9-.49.02-.96.06-1.43.11.13.52.26,1.05.41,1.59.1.4.22.81.33,1.22.45,1.58.92,3.09,1.4,4.54.53,1.6,1.08,3.13,1.64,4.58Z"/>
        <path class="cls-25" d="M541.85,106.95l.68,1.15c-.06.3-.13.61-.19.91-2.39,11.24-4.79,22.48-7.18,33.72v.02s-.02.05-.02.07c-3.2-12.83-6.4-25.67-9.59-38.5.53-1.36,1.06-2.8,1.56-4.34.44-1.31.86-2.69,1.25-4.13.19-.7.37-1.39.54-2.07.02-.07.03-.13.05-.19-.84-.06-1.69-.1-2.55-.14.02-.22.03-.45.03-.68v-6.43s.01.01.02.01v-.48c1.15.07,2.24.17,3.27.3.23.02.46.05.68.08l6.42,1.55h.02l7.81,1.88-2.66,2.34-.09.08h-.01l-2.85,2.51-2.91,2.56,5.71,9.76v.02Z"/>
        <g id="Knöpfe">
          <path class="cls-29" d="M499.08,174.74c0,.7-.57,1.27-1.28,1.27s-1.27-.57-1.27-1.27.57-1.28,1.27-1.28,1.28.58,1.28,1.28Z"/>
          <path class="cls-29" d="M498.23,192.03c0,.7-.57,1.27-1.27,1.27s-1.27-.57-1.27-1.27.57-1.28,1.27-1.28,1.27.57,1.27,1.28Z"/>
          <path class="cls-29" d="M500.42,157.22c0,.7-.57,1.27-1.27,1.27s-1.28-.57-1.28-1.27.57-1.28,1.28-1.28,1.27.57,1.27,1.28Z"/>
        </g>
        <path class="cls-23" d="M574.32,200h-2.15c.21-.22.42-.44.62-.66.12-.13.24-.26.37-.39.18.16.36.32.53.48.21.19.43.38.63.57Z"/>
        <path class="cls-23" d="M504.95,142.8c-2.41-8.26-4.82-16.53-7.23-24.79-.08-.29-.17-.57-.25-.86-.72-2.47-1.44-4.94-2.16-7.41l3.28-5.81,2.32-4.1.63-1.11-4.1-3.5c-.07.1-.15.2-.23.3-.43.53-.92.99-1.47,1.4-.39.28-.81.53-1.24.74-.46.23-.94.42-1.44.56-.35.11-.71.18-1.06.23-.05.02-.09.02-.14.03h-.04c-.39.08-1.02.17-1.78.12-.68-.04-1.47-.19-2.28-.55-1-.45-1.74-1.08-2.25-1.69-.19-.21-.37-.44-.53-.69-.12-.18-.22-.35-.3-.49-.07-.13-.12-.23-.17-.32-.77.3-1.56.63-2.37.98v.02c.06.5.12,1.02.17,1.54.05.52.11,1.06.15,1.6h0c.66,7.26.88,16.09-.16,26.06v.02c-.08.89-.19,1.8-.3,2.71-.06.52-.13,1.03-.21,1.54h0c-.12.98-.26,1.92-.42,2.86h0c-1.84,11.7-4.95,21.41-7.86,28.74-.32,1.2-.64,2.41-.95,3.62l1.83,1.54c-.22.17-.45.35-.67.54-.46.37-.94.78-1.43,1.21-.25.22-.5.44-.75.67h0c-.1.39-.19.75-.29,1.13h0c.83.77,1.66,1.54,2.5,2.31.44.04.88.1,1.33.15.58.07,1.34.21,2.14.37,1.34.26,2.8.57,3.68.73.24,4.87.27,5.55.28,6.08v.02s.05.15.24.25c.21.11.44.22.68.33.58.26,1.23.52,1.87.76h.01c1.75.64,3.42,1.11,3.42,1.11,4.12,1.16,5.88,3.42,6.3,4.35.03.08.06.14.08.2.1.31.6,1.83-.08,3.2-2.02,4.04-11.8,1.48-12.48,1.35-.12-.02-.26-.05-.41-.07h0c-1.32-.27-3.65-.87-6.29-2.25-.52-.26-1.04-.56-1.58-.89-.58-.36-1.18-.76-1.77-1.2-1.28-.95-2.41-1.79-3.37-2.57-1.23,5.26-2.43,10.64-3.57,16.13h37.55l.21-3.74.89-15.84,2.12-37.85c-.02.08-.03.15-.05.23ZM496.96,193.3c-.7,0-1.27-.57-1.27-1.27s.57-1.28,1.27-1.28,1.27.57,1.27,1.28-.57,1.27-1.27,1.27ZM497.8,176.01c-.7,0-1.27-.57-1.27-1.27s.57-1.28,1.27-1.28,1.28.58,1.28,1.28-.57,1.27-1.28,1.27ZM499.15,158.49c-.71,0-1.28-.57-1.28-1.27s.57-1.28,1.28-1.28,1.27.57,1.27,1.28-.57,1.27-1.27,1.27Z"/>
        <path class="cls-25" d="M608.52,160.68c-9.96,12.45-19.92,24.91-29.88,37.36h0c-.52.66-1.05,1.31-1.56,1.96h-2.76c-.2-.19-.42-.38-.63-.57-.17-.16-.35-.32-.53-.48-.15-.14-.3-.27-.46-.4h0c-1.38-1.23-2.88-2.49-4.5-3.75-1.79-1.41-3.55-2.69-5.24-3.84-.13-.09-.26-.18-.38-.26-1.34-.91-2.64-1.75-3.88-2.51.93-1.14,1.85-2.26,2.79-3.4h0c1.39-1.71,2.78-3.42,4.17-5.12,1.07-1.32,2.15-2.63,3.23-3.95.69-.85,1.38-1.69,2.08-2.54h0c4.36-5.35,8.72-10.69,13.08-16.03-6.14-5.82-10.74-10.17-13.19-12.49-3.23-3.05-7.53-7.1-11.86-11.63h0c-.37-2.05-.69-4.14-.97-6.3-.14-1.04-.27-2.11-.39-3.18-1.18-10.86-1.01-20.57-.29-28.69.01-.11.02-.21.02-.31h0c.22-2.43.49-4.69.78-6.8,3.61,1.18,7.4,3.61,10.81,7.16.43.4.96.91,1.57,1.52.45.43.95.92,1.48,1.45,2.35,2.35,4.64,4.78,6.94,7.42,6.99,8,14.17,18.86,14.17,18.86,4.09,6.21,9.08,14.5,14.05,24.82t.01.01c3.07,3.44,3.74,8.24,1.34,11.69Z"/>
        <path class="cls-23" d="M570.97,173.17h0c-.7.86-1.39,1.7-2.08,2.55-1.08,1.32-2.16,2.63-3.23,3.95-1.39,1.7-2.78,3.41-4.17,5.11h0c-.94,1.15-1.86,2.27-2.79,3.41,1.24.76,2.54,1.6,3.88,2.51.12.08.25.17.38.26-.01,0-.01.01-.01.01-.08.12-.16.24-.25.36l-1.92,2.82c-1,1.46-1.99,2.92-2.99,4.38-.24.25-.57.61-.92,1.07-.1.13-.2.26-.29.4h-15.78l-.34-3.41-1.63-16.6-3.67-37.24v-.02c2.39-11.24,4.79-22.48,7.18-33.72.06-.3.13-.61.19-.91l-.68-1.15v-.02s-5.72-9.76-5.72-9.76l2.91-2.56,2.85-2.51h.01l.09-.08,2.66-2.34-7.81-1.88c3.61-.58,6.46-.72,8.16-.8,1.9-.1,4.18-.13,6.78.02,1.75.08,3.64.25,5.67.52h.01c.23.03.47.07.71.1-.01.04-.01.07-.02.11-.29,2.11-.56,4.37-.78,6.79h0c0,.11-.01.21-.02.32-.72,8.12-.89,17.83.29,28.69.12,1.07.25,2.14.39,3.18.28,2.16.6,4.25.97,6.29h0c2,11.45,5.1,21.02,7.99,28.34,1.34,3.87,2.67,7.8,3.98,11.81Z"/>
        <path class="cls-23" d="M579.2,200h-2.12c.51-.65,1.04-1.3,1.56-1.95.19.65.38,1.3.56,1.95Z"/>
      </g>
      <g id="Gesicht-6" data-name="Gesicht">
        <g>
          <path class="cls-30" d="M544.57,50.39c-.85-.85-2.03-1.38-3.32-1.38-.7,0-1.36.15-1.96.43v-4.54c0-5.7-2.26-10.9-5.95-14.74-.65.54-1.39.97-2.17,1.22-2.23.72-4.22-.1-4.8-.37.13.63.23,1.57-.06,2.6-.99,3.52-5.47,4.61-6.09,4.75-2.49.61-4.63.07-5.79-.32-.36.41-.95,1.03-1.8,1.61-.2.13-.4.26-.61.38.8.26,1.4.65,1.45,1.12.06.48-.46.97-1.09,1.38-.6-.24-1.72-.59-3.14-.49-1.79.13-3.05.89-3.6,1.27-1.07-.39-1.35-.78-1.38-1.08-.03-.3.17-.64.53-.96-.64-.14-1.27-.36-1.87-.67-.6-.3-1.5-.85-2.42-1.85-.34.03-1.54.09-2.89-.35-.66,2.05-1.02,4.24-1.02,6.5v4.32c-.44-.14-.91-.21-1.39-.21-2.59,0-4.71,2.12-4.71,4.71v1.76c0,2.58,2.12,4.7,4.71,4.7.49,0,.96-.08,1.4-.21.12,4.49,2,8.57,4.97,11.56.91.93,1.94,1.76,3.06,2.47,1.58,1,3.34,1.75,5.21,2.18v16.59c0,.31.02.61.05.9-.49.02-.96.06-1.43.11.13.52.26,1.05.41,1.59.1.4.22.81.33,1.22.45,1.58.92,3.09,1.4,4.54,2.03.6,4.3.98,6.79.97.43,0,.86-.01,1.28-.04,3.23-.18,6.04-.99,8.44-2.08.44-1.31.86-2.69,1.25-4.13.19-.7.37-1.39.54-2.07.02-.07.03-.13.05-.19-.84-.06-1.69-.1-2.55-.14.02-.22.03-.45.03-.68v-6.43c-.23-.17-.46-.34-.68-.51-1.12-.83-2.24-1.66-3.35-2.49-.06-.04-.11-.08-.16-.12-.25-.18-.48-.35-.69-.51-.95-.7-1.57-1.15-2.14-1.58-.17-.12-.34-.25-.51-.38-.13-.1-.25-.19-.39-.3-.04-.04-.09-.07-.14-.11-.96-.75-2.38-1.91-4.05-3.43,1.59.26,3.63.45,6.01.3,2.46-.16,4.53-.64,6.1-1.12,2.45-.64,4.7-1.81,6.6-3.38t.02,0c1.11-.93,2.11-1.99,2.95-3.16,2.02-2.76,3.23-6.15,3.28-9.8.6.28,1.27.44,1.97.44,1.69,0,3.17-.9,3.99-2.24.27-.59.52-1.25.69-1.97h0c.01-.17.02-.33.02-.49v-1.76c0-1.3-.53-2.47-1.38-3.33ZM495.03,56.64c-.29.12-.99-.76-1.25-1.63-.36-1.22.11-2.56.44-2.56.57-.01,1.35,3.97.81,4.19ZM521.9,41.23c.12-1.05,3.05-1.93,5.58-1.44,1.7.33,3.74,1.38,3.65,2.31-.05.48-.66.85-1.35,1.12-.55-.36-1.57-.94-2.98-1.13-1.77-.25-3.16.23-3.78.49-.97-.61-1.16-1.05-1.12-1.35ZM527.84,46.82v.6c0,.94-.76,1.7-1.7,1.7s-1.71-.76-1.71-1.7v-.6c0-.94.77-1.7,1.71-1.7s1.7.76,1.7,1.7ZM516.49,59.45c.05-.1.18-.14.28-.08.78.43,1.65.54,2.34.3.37-.13.64-.34.75-.59.27-.64.03-1.29-.73-1.98l-.1-.1c-.38-.35-1.03-.94-1.33-1.89-.11-.33-.15-.82-.17-1.14v-.14c-.01-.39-.02-.71-.03-1.02,0-.31-.01-.62-.01-1,0-.11.09-.21.21-.21.11,0,.21.1.21.21,0,.37,0,.68.01,1,.01.31.01.62.01,1v.13c.04.3.07.75.16,1.04.27.85.84,1.37,1.22,1.72l.1.09c.89.81,1.17,1.64.83,2.45-.15.36-.51.66-.99.82-.29.1-.6.15-.91.15-.58,0-1.19-.16-1.77-.48-.1-.06-.14-.18-.08-.28ZM507.69,46.82c0-.94.77-1.7,1.71-1.7s1.7.76,1.7,1.7v.6c0,.94-.76,1.7-1.7,1.7s-1.71-.76-1.71-1.7v-.6ZM530.55,68.19c-2.7.55-5.19.15-7.25-.56-.16.19-.38.37-.64.54-1,.63-2.69,1.04-4.61,1.04s-3.52-.39-4.52-.99c-.37-.21-.65-.46-.82-.72-2.13.79-4.75,1.27-7.6.69-2-.41-3.59-1.23-4.75-2,1.39-.18,3.33-.56,5.51-1.43,4.83-1.9,7.01-4.67,9.7-3.9.64.19,1.45.62,2.26,1.66.81-1.04,1.62-1.47,2.26-1.66,2.7-.77,4.88,2,9.7,3.9,2.18.87,4.13,1.25,5.52,1.43-1.16.77-2.76,1.59-4.76,2ZM542.38,55.01c-.26.87-.97,1.75-1.25,1.63-.55-.22.23-4.2.81-4.19.33,0,.8,1.34.44,2.56Z"/>
          <path class="cls-17" d="M526.45,78.74v7.61s-.01-.01-.02-.01c-.23-.17-.46-.34-.68-.51-1.12-.83-2.24-1.66-3.35-2.49-.06-.04-.11-.08-.16-.12-.25-.18-.48-.36-.69-.51-.95-.7-1.57-1.15-2.14-1.58-.17-.12-.34-.25-.51-.38-.13-.1-.25-.19-.39-.3-.04-.04-.09-.07-.14-.11-.96-.75-2.38-1.91-4.05-3.43,1.59.26,3.63.45,6.01.3,2.46-.16,4.53-.64,6.1-1.12,0,.1-.01.2,0,.3-.01.42-.01.85,0,1.28,0,.36.01.72.02,1.07Z"/>
          <path class="cls-27" d="M542.38,55.01c-.26.87-.97,1.75-1.25,1.63-.55-.22.23-4.2.81-4.19.33,0,.8,1.34.44,2.56Z"/>
          <path class="cls-27" d="M495.03,56.64c-.29.12-.99-.76-1.25-1.63-.36-1.22.11-2.56.44-2.56.57-.01,1.35,3.97.81,4.19Z"/>
        </g>
        <path class="cls-29" d="M523.61,66.85c0,.27-.11.54-.31.78-.16.19-.38.37-.64.54-1,.63-2.69,1.04-4.61,1.04s-3.52-.39-4.52-.99c-.37-.21-.65-.46-.82-.72-.14-.21-.22-.42-.22-.65,0-1.26,2.31-2.29,5.23-2.36.08-.01.15-.01.23-.01h.1c3.07,0,5.56,1.06,5.56,2.37Z"/>
        <path class="cls-13" d="M513.47,41.15c.06.48-.46.97-1.09,1.38-.6-.24-1.72-.59-3.14-.49-1.79.13-3.05.89-3.6,1.27-1.07-.39-1.35-.78-1.38-1.08-.03-.3.17-.64.53-.96.89-.82,2.79-1.58,4.63-1.62.85,0,1.82.12,2.6.38.8.26,1.4.65,1.45,1.12Z"/>
        <path class="cls-13" d="M531.13,42.1c-.05.48-.66.85-1.35,1.12-.55-.36-1.57-.94-2.98-1.13-1.77-.25-3.16.23-3.78.49-.97-.61-1.16-1.05-1.12-1.35.12-1.05,3.05-1.93,5.58-1.44,1.7.33,3.74,1.38,3.65,2.31Z"/>
        <path class="cls-16" d="M511.1,46.82v.6c0,.94-.76,1.7-1.7,1.7s-1.71-.76-1.71-1.7v-.6c0-.94.77-1.7,1.71-1.7s1.7.76,1.7,1.7Z"/>
        <path class="cls-16" d="M527.84,46.82v.6c0,.94-.76,1.7-1.7,1.7s-1.71-.76-1.71-1.7v-.6c0-.94.77-1.7,1.71-1.7s1.7.76,1.7,1.7Z"/>
        <path class="cls-16" d="M520.24,59.24c-.15.36-.51.66-.99.82-.29.1-.6.15-.91.15-.58,0-1.19-.16-1.77-.48-.1-.06-.14-.18-.08-.28.05-.1.18-.14.28-.08.78.43,1.65.54,2.34.3.37-.13.64-.34.75-.59.27-.64.03-1.29-.73-1.98l-.1-.1c-.38-.35-1.03-.94-1.33-1.89-.11-.33-.15-.82-.17-1.14v-.14c-.01-.39-.02-.71-.03-1.02,0-.31-.01-.62-.01-1,0-.11.09-.21.21-.21.11,0,.21.1.21.21,0,.37,0,.68.01,1,.01.31.01.62.01,1v.13c.04.3.07.75.16,1.04.27.85.84,1.37,1.22,1.72l.1.09c.89.81,1.17,1.64.83,2.45Z"/>
        <g id="Haare-4" data-name="Haare">
          <path class="cls-13" d="M509.84,76.18v.87c-.65-.15-1.31-.38-1.98-.7-1.38-.65-2.43-1.51-3.23-2.35,1.58,1,3.34,1.75,5.21,2.18Z"/>
          <path class="cls-13" d="M533.03,72.71c-.62.9-1.47,1.83-2.6,2.62-1.3.91-2.67,1.42-4,1.67v-.61c-.01-.1,0-.2,0-.3,2.45-.64,4.7-1.81,6.6-3.38Z"/>
          <path class="cls-13" d="M545.24,57.94c-.78,1.72-1.77,2.83-1.87,2.93-.11.86-.58,3.76-3.07,6.17-1.48,1.44-3.1,2.15-4.3,2.5,2.02-2.76,3.23-6.15,3.28-9.8.6.28,1.27.44,1.97.44,1.69,0,3.17-.9,3.99-2.24Z"/>
          <path class="cls-13" d="M545.95,55.48v-1.76c0-1.3-.53-2.47-1.38-3.33-.85-.85-2.03-1.38-3.32-1.38-.7,0-1.36.15-1.96.43v-4.54c0-5.7-2.26-10.9-5.95-14.74-.65.54-1.39.97-2.17,1.22-2.23.72-4.22-.1-4.8-.37.13.63.23,1.57-.06,2.6-.99,3.52-5.47,4.61-6.09,4.75-2.49.61-4.63.07-5.79-.32-.36.41-.95,1.03-1.8,1.61-.2.13-.4.26-.61.38.8.26,1.4.65,1.45,1.12.06.48-.46.97-1.09,1.38-.6-.24-1.72-.59-3.14-.49-1.79.13-3.05.89-3.6,1.27-1.07-.39-1.35-.78-1.38-1.08-.03-.3.17-.64.53-.96-.64-.14-1.27-.36-1.87-.67-.6-.3-1.5-.85-2.42-1.85-.34.03-1.54.09-2.89-.35-.66,2.05-1.02,4.24-1.02,6.5v4.32c-.44-.14-.91-.21-1.39-.21-2.59,0-4.71,2.12-4.71,4.71v1.76c0,2.58,2.12,4.7,4.71,4.7.49,0,.96-.08,1.4-.21.12,4.49,2,8.57,4.97,11.56-2.53.11-4.79-1.1-5.76-3.05-.97-1.95-.3-3.95-.13-4.43-4.05-1.83-6.48-5.88-6.07-9.94.48-4.78,4.65-7.21,5.06-7.44-2.17-1.5-3.32-4.04-2.97-6.54.31-2.21,1.69-3.63,2.59-4.34-1.68-2.89-.3-6.57-.21-6.79,1.31-3.33,4.41-4.6,5.03-4.84.07-.31.64-2.5,2.86-3.63,2.23-1.13,4.32-.3,4.62-.17.58-.76,2.44-2.96,5.75-3.92,3.46-.99,6.31.02,7.19.37.52-.31,2.88-1.61,5.94-.94,3.08.68,4.68,2.88,5.03,3.38,2.72.55,4.78,2.71,5.13,5.32.1.7.06,1.39-.09,2.03,1.53,1.62,2.22,3.3,2.5,4.09.97.83,3.1,2.88,4.17,6.3,1.33,4.31.07,7.95-.37,9.05.79.51,3.05,2.12,3.98,5.12.54,1.74.46,3.38.11,4.8.01-.16.02-.32.02-.48Z"/>
          <path class="cls-10" d="M517.95,62.67v1.81s-.07.06-.12.09c-.66.54-2.52,1.97-5.12,2.93-2.13.79-4.75,1.27-7.6.69-2-.41-3.59-1.23-4.75-2,1.39-.18,3.33-.56,5.51-1.43,4.83-1.9,7.01-4.67,9.7-3.9.64.19,1.45.62,2.26,1.66.04.05.08.1.12.15Z"/>
          <path class="cls-10" d="M535.31,66.19c-1.16.77-2.76,1.59-4.76,2-2.7.55-5.19.15-7.25-.56-2.78-.96-4.78-2.5-5.47-3.06-.04-.03-.08-.06-.11-.08,0-.01,0-.01,0-.01v-1.81s.08-.1.12-.15c.81-1.04,1.62-1.47,2.26-1.66,2.7-.77,4.88,2,9.7,3.9,2.18.87,4.13,1.25,5.52,1.43Z"/>
        </g>
      </g>
      <g id="Hände">
        <path class="cls-30" d="M573.16,198.95c-.13.13-.25.26-.37.39-.2.22-.41.44-.62.66h-15.59c.09-.14.19-.27.29-.4.35-.46.68-.82.92-1.07,1-1.46,1.99-2.92,2.99-4.38l1.92-2.82c.09-.12.17-.24.25-.36,0,0,0-.01.01-.01,1.69,1.15,3.45,2.43,5.24,3.84,1.62,1.26,3.12,2.52,4.5,3.74h0c.16.14.31.27.46.41Z"/>
        <path class="cls-30" d="M493.7,189.5c-2.02,4.04-11.8,1.48-12.48,1.35-.12-.02-.26-.05-.41-.07h0c-1.32-.27-3.65-.87-6.29-2.25-.52-.26-1.04-.56-1.58-.89-.58-.36-1.18-.76-1.77-1.2-1.28-.95-2.41-1.79-3.37-2.57-1.25-1.02-2.22-1.93-2.83-2.86-.81-.58-1.62-1.15-2.43-1.73,1.19-1.91,2.7-4.03,4.57-6.21,1.25-1.45,2.5-2.74,3.68-3.86.15.15.31.29.46.43h0c.83.77,1.66,1.54,2.5,2.31.44.04.88.1,1.33.15.58.07,1.34.21,2.14.37,1.34.26,2.8.57,3.68.73.24,4.87.27,5.55.28,6.08v.02s.05.15.24.25c.21.11.44.22.68.33.58.26,1.23.52,1.87.76h.01c1.75.64,3.42,1.11,3.42,1.11,4.12,1.16,5.88,3.42,6.3,4.35.03.08.06.14.08.2.1.31.6,1.83-.08,3.2Z"/>
      </g>
    </g>
    <g id="Person_3" data-name="Person 3">
      <g>
        <g id="Gesicht-7" data-name="Gesicht">
          <path class="cls-19" d="M408.14,62.35c-.83-.83-1.98-1.34-3.23-1.34-.68,0-1.32.15-1.9.42v-3.89c-1.24.94-2.97.45-3.75-.91-.72-1.25-.51-2.98.58-3.92-1.77,1.41-4.15,1.38-5.89-.02-2.06-1.66-2.22-4.43-2.23-4.71-.24-.13-2.88-1.64-3.77-4.99-.66.11-1.41.1-2.18-.07.98,2.43.19,5.24-1.9,6.78-2.14,1.58-5.14,1.45-7.17-.32.15,2.07-.65,3.45-1.59,4.21,1.67.17,3.68.99,3.67,1.89,0,.47-.55.88-1.2,1.2-.56-.29-1.6-.76-2.98-.82-1.73-.08-3.04.52-3.61.82-.99-.5-1.21-.9-1.21-1.2,0-.42.47-.85,1.18-1.19-.94-.22-1.66-.57-2.08-.57-.19,0,.73,2.76-1.46,4.75-1.15,1.05-3.8,1.81-5.58,1.11-.09-.04-.19-.08-.29-.13v1.77c-.43-.14-.88-.21-1.35-.21-2.51,0-4.56,2.05-4.56,4.56v1.71c0,2.51,2.05,4.57,4.56,4.57.65,0,1.26-.13,1.82-.38,1.02,4.7,3.64,8.82,7.26,11.74,1.55,1.26,3.28,2.29,5.14,3.07v17.2c0,.34.02.67.06.99-2.39.36-4.71.74-6.98,1.14,2.05,1.15,5.04,2.44,8.74,2.96,1.76.26,3.69.33,5.76.12,1.05-.11,2.04-.27,2.97-.5,1.85-.43,3.51-1.04,4.99-1.75,2.74-1.32,4.81-2.94,6.17-4.18-1.84.1-3.71.23-5.61.38v-6.78c-3.58-2.65-7.17-5.29-10.76-7.93,1.29.24,3.31.46,5.73.03,2.08-.37,3.71-1.08,4.78-1.66.08.47.18,1.15.25,1.96v-1.92c0-.08,0-.16-.01-.23,1.37-.59,2.66-1.33,3.85-2.2h.01c4.16-3,7.17-7.51,8.23-12.7.68.41,1.47.64,2.31.64,2.51,0,4.57-2.06,4.57-4.57v-1.71c0-1.25-.52-2.39-1.34-3.22ZM360.04,68.41c-.28.12-.97-.74-1.22-1.58-.35-1.19.11-2.49.43-2.49.56,0,1.31,3.86.79,4.07ZM376.12,60.31c0,.91-.75,1.66-1.66,1.66s-1.65-.75-1.65-1.66v-.58c0-.91.74-1.65,1.65-1.65s1.66.74,1.66,1.65v.58ZM381.41,72.03c.04-.06.11-.09.17-.05.78.43,1.65.54,2.34.3.38-.13.66-.36.77-.62.27-.66.04-1.31-.73-2.01l-.09-.09c-.37-.34-.99-.9-1.28-1.81-.1-.31-.13-.78-.16-1.09v-.13c-.01-.38-.01-.68-.02-.98,0-.31,0-.61,0-.97,0-.07.05-.13.12-.13s.13.06.13.13c0,.36,0,.66,0,.96.01.31.01.61.01.98v.12c.03.3.07.75.16,1.03.27.85.83,1.36,1.21,1.71l.09.09c.85.77,1.11,1.52.79,2.28-.14.33-.48.61-.92.77-.27.09-.56.14-.86.14-.55,0-1.13-.16-1.68-.46-.06-.04-.08-.11-.05-.17ZM386.28,79.26c-1.41.88-3.11,1.2-4.75.84-.94-.21-1.71-.62-2.33-1.1-1.69-1.28-2.31-3.12-2.35-3.23,1.59.49,3.45.96,5.54,1.3,2.11.34,4.04.48,5.71.51-.51.69-1.13,1.26-1.82,1.68ZM392.37,60.31c0,.91-.74,1.66-1.66,1.66s-1.65-.75-1.65-1.66v-.58c0-.91.74-1.65,1.65-1.65s1.66.74,1.66,1.65v.58ZM394.11,56.68c-.56-.29-1.6-.76-2.98-.82-1.74-.08-3.04.52-3.62.82-.98-.5-1.21-.9-1.2-1.2.02-1.03,2.78-2.14,5.26-1.9,1.68.16,3.74.99,3.74,1.9,0,.47-.56.88-1.2,1.2ZM406,66.83c-.25.84-.93,1.7-1.21,1.58-.53-.21.23-4.07.79-4.07.32,0,.78,1.3.42,2.49Z"/>
          <path class="cls-7" d="M390.61,93.58c-.01.59-.03,1.37-.07,2.29,0,0,0-.01-.02-.01-3.58-2.65-7.17-5.29-10.76-7.93,1.29.24,3.31.46,5.73.03,2.08-.37,3.71-1.08,4.78-1.66.08.47.18,1.15.25,1.96.01.07.01.14.02.22.02.24.03.54.05,1.79.03,1.48.04,2.23.02,3.31Z"/>
          <path class="cls-16" d="M384.92,71.75c-.14.33-.48.61-.92.77-.27.09-.56.14-.86.14-.55,0-1.13-.16-1.68-.46-.06-.04-.08-.11-.05-.17.04-.06.11-.09.17-.05.78.43,1.65.54,2.34.3.38-.13.66-.36.77-.62.27-.66.04-1.31-.73-2.01l-.09-.09c-.37-.34-.99-.9-1.28-1.81-.1-.31-.13-.78-.16-1.09v-.13c-.01-.38-.01-.68-.02-.98,0-.31,0-.61,0-.97,0-.07.05-.13.12-.13s.13.06.13.13c0,.36,0,.66,0,.96.01.31.01.61.01.98v.12c.03.3.07.75.16,1.03.27.85.83,1.36,1.21,1.71l.09.09c.85.77,1.11,1.52.79,2.28Z"/>
          <path class="cls-3" d="M395.31,55.48c0,.47-.56.88-1.2,1.2-.56-.29-1.6-.76-2.98-.82-1.74-.08-3.04.52-3.62.82-.98-.5-1.21-.9-1.2-1.2.02-1.03,2.78-2.14,5.26-1.9,1.68.16,3.74.99,3.74,1.9Z"/>
          <path class="cls-29" d="M388.1,77.58c-.51.69-1.13,1.26-1.82,1.68-1.41.88-3.11,1.2-4.75.84-.94-.21-1.71-.62-2.33-1.1-1.69-1.28-2.31-3.12-2.35-3.23,1.59.49,3.45.96,5.54,1.3,2.11.34,4.04.48,5.71.51Z"/>
          <path class="cls-16" d="M376.12,59.73v.58c0,.91-.75,1.66-1.66,1.66s-1.65-.75-1.65-1.66v-.58c0-.91.74-1.65,1.65-1.65s1.66.74,1.66,1.65Z"/>
          <path class="cls-16" d="M392.37,59.73v.58c0,.91-.74,1.66-1.66,1.66s-1.65-.75-1.65-1.66v-.58c0-.91.74-1.65,1.65-1.65s1.66.74,1.66,1.65Z"/>
          <path class="cls-7" d="M360.04,68.41c-.28.12-.97-.74-1.22-1.58-.35-1.19.11-2.49.43-2.49.56,0,1.31,3.86.79,4.07Z"/>
          <path class="cls-7" d="M406,66.83c-.25.84-.93,1.7-1.21,1.58-.53-.21.23-4.07.79-4.07.32,0,.78,1.3.42,2.49Z"/>
          <path class="cls-3" d="M413.57,65.76c.09,2.92-1.64,5.65-4.38,6.85,2.17,1.42,2.93,4.15,1.9,6.28-.85,1.77-2.84,2.85-4.94,2.66-.42,2.93-2.88,4.82-5.13,4.56-1.57-.18-2.95-1.39-3.62-3.04-.98.55-2.03.84-3.03.84,4.16-3,7.17-7.51,8.23-12.7.68.41,1.47.64,2.31.64,2.51,0,4.57-2.06,4.57-4.57v-1.71c0-1.25-.52-2.39-1.34-3.22-.83-.83-1.98-1.34-3.23-1.34-.68,0-1.32.15-1.9.42v-3.89c-1.24.94-2.97.45-3.75-.91-.72-1.25-.51-2.98.58-3.92-1.77,1.41-4.15,1.38-5.89-.02-2.06-1.66-2.22-4.43-2.23-4.71-.24-.13-2.88-1.64-3.77-4.99-.66.11-1.41.1-2.18-.07.98,2.43.19,5.24-1.9,6.78-2.14,1.58-5.14,1.45-7.17-.32.15,2.07-.65,3.45-1.59,4.21,1.67.17,3.68.99,3.67,1.89,0,.47-.55.88-1.2,1.2-.56-.29-1.6-.76-2.98-.82-1.73-.08-3.04.52-3.61.82-.99-.5-1.21-.9-1.21-1.2,0-.42.47-.85,1.18-1.19-.94-.22-1.66-.57-2.08-.57-.19,0,.73,2.76-1.46,4.75-1.15,1.05-3.8,1.81-5.58,1.11-.09-.04-.19-.08-.29-.13v1.77c-.43-.14-.88-.21-1.35-.21-2.51,0-4.56,2.05-4.56,4.56v1.71c0,2.51,2.05,4.57,4.56,4.57.65,0,1.26-.13,1.82-.38,1.02,4.7,3.64,8.82,7.26,11.74-.13,1.26-.86,2.39-1.92,2.9-1.84.89-4.41-.14-5.14-2.47-3.85.21-6.65-2.43-6.65-4.94-.01-2.49,2.71-4.11,2.85-4.19-4.1-.36-7.22-3.56-7.42-7.22-.16-2.93,1.57-5.78,4.38-7.23-.33-.33-2.99-3.11-2.48-7.23.5-3.99,3.58-6.01,4-6.27-2.08-2.72-2.29-6.38-.57-9.13,1.98-3.17,6.17-4.53,9.89-3.04.01-.38.33-5.69,4.94-8.37,3.45-2.01,7.89-1.72,11.22.76,1.66-1.93,4.26-2.75,6.66-2.09,2.63.72,4.55,3.09,4.75,5.89.52-.09,6.61-1.09,11.03,3.43,3.67,3.75,3.47,8.53,3.42,9.31,3.01,1.41,5.04,4.32,5.33,7.61.29,3.39-1.32,6.69-4.19,8.56,2.47,1.16,4.1,3.59,4.19,6.27Z"/>
        </g>
        <g id="Arme-2" data-name="Arme">
          <path class="cls-19" d="M442.12,120.88c-1.06.85-2.15,1.73-3.26,2.62l2.15-3.49c.37.29.74.58,1.11.87Z"/>
          <path class="cls-19" d="M479.98,133.01c-1.22,4.19-2.44,8.39-3.67,12.58-1.66,5.68-2.97,14.12-10.98,12.9l-.18-.16s-13.39-11.23-13.39-11.23c8.89-3.85,16.16-7.51,21.52-10.37,2.54-1.36,4.76-2.6,6.7-3.72Z"/>
          <path class="cls-19" d="M346.84,150.02c.2.2-4.83,7.34-5.3,8.05-1.87,2.84-3.73,5.67-5.6,8.51s-3.62,5.53-5.45,8.28c-1.43,2.14-2.61,4.45-5,5.64-2.57,1.29-5.71,1.09-8.18-.38-1.87-1.12-3.32-2.9-4.06-4.95-.87-2.38-1.98-4.67-3.03-7-.94-2.06-1.88-4.11-2.82-6.17-2.19-4.8-4.39-9.6-6.58-14.4-2.66-5.84-5.33-11.68-8-17.52-1.36-2.98-2.72-5.97-4.09-8.96-.04-.05-.07-.1-.11-.15-1.92-1.1-3.51-1.97-4.75-2.63,0,0-2.21-1.1-5.49-4.14-.83-.78-1.77-1.74-1.6-2.77.06-.31.21-.63.5-.93.98-1.05,4.19-.27,7.15.97.32.13.57,0,.74-.31.6-1.05.35-4.15-1.07-5.88-1.44-1.75-3.21-2.83-4.71-3.7-2.13-1.23-3.72-2.04-3.09-3.7.03-.08.06-.15.11-.22.1-.22.23-.41.4-.57,2.16-2.17,8.98-.14,14,4.11,3.76,3.18,5.86,6.57,6.53,7.93.9,1.81,1.45,3.52,1.79,5,.47.81.74,1.69.8,2.57,6.05,11.24,12.1,22.46,18.14,33.68,1.15,2.12,2.29,4.24,3.44,6.36,2.97-5.62,5.95-11.24,8.93-16.85l16.4,10.12Z"/>
          <g id="Hand">
            <path class="cls-19" d="M498.36,93.55c-.23.6-.54,1.16-.92,1.67-.07.1-.15.2-.23.3-.43.53-.92.99-1.47,1.4-.39.28-.81.53-1.24.74-.46.23-.94.42-1.44.56-.35.11-.71.18-1.06.23-.05.02-.09.02-.14.03h-.04c-.39.08-1.02.17-1.78.12-.68-.04-1.47-.19-2.28-.55-1-.45-1.74-1.08-2.25-1.69-.19-.21-.37-.44-.53-.69-.12-.18-.22-.35-.3-.49-.07-.13-.12-.23-.17-.32-.77.3-1.56.63-2.37.98v.02c-.12.01-.24.03-.36.05.51-1.07,1.03-2.14,1.54-3.2.06-.67.29-2.25,1.49-3.68,1.3-1.72,3.06-2.29,4.44-2.72,1.95-.6,4.87-1.5,7.2.17,1.45,1.05,1.99,2.61,2.19,3.41.05.22.08.38.09.46.16,1.07.03,2.16-.37,3.2Z"/>
          </g>
        </g>
        <g id="Hose-2" data-name="Hose">
          <path class="cls-18" d="M384.97,175.89v24.11h-36.76c4.31-8.41,10.11-17.57,17.99-27.14.27.09.55.17.84.25,4.71,1.35,10.8,2.57,17.93,2.78Z"/>
          <path class="cls-2" d="M423.74,200h-38.77v-24.11c.6.03,1.19.05,1.79.05,7.93.05,14.69-1.19,19.83-2.61.34-.09.66-.18.98-.27,4.81,6.39,10.82,15.41,16.17,26.94Z"/>
        </g>
        <g id="T-Shirt-5" data-name="T-Shirt">
          <path class="cls-20" d="M384.97,108.19v67.7c-7.13-.21-13.22-1.43-17.93-2.78-.29-.08-.57-.16-.84-.25-1.09-.32-2.1-.65-3.03-.97-.8-3.8-1.67-7.68-2.58-11.62,0,0-1.65-7.04-3.5-14.04-.53-1.99-1.08-4.02-1.65-6.05l-6.76,10.97-1.84-1.13-16.4-10.12-4.9-3.02,14.83-24.06c2.07-3.35,5.47-5.4,9.11-5.88.02,0,.05-.01.08-.01,5.05-1.06,10.1-2.11,15.12-3.16.44.34,1.41,1.05,2.82,1.84,2.05,1.15,5.04,2.44,8.74,2.96,1.76.26,3.69.33,5.76.12,1.05-.11,2.04-.27,2.97-.5Z"/>
          <path class="cls-31" d="M442.98,116.82l-1.97,3.19-2.15,3.49c-2.76,2.22-5.52,4.46-8.26,6.71-2.31,1.9-5.11,3.59-7.2,5.72-.09.09-.17.18-.26.28l-10.53-6.48c-.19,3.73-.38,6.87-.55,9.52-.12,1.62-.32,4.78-.55,9.17-.44,8.15-.69,16.04-.8,23.65-.95.32-2,.66-3.14.99-.32.09-.64.18-.98.27-5.14,1.42-11.9,2.66-19.83,2.61-.6,0-1.19-.02-1.79-.05v-67.7c1.85-.43,3.51-1.04,4.99-1.75,2.74-1.32,4.81-2.94,6.17-4.18.81-.75,1.36-1.36,1.65-1.69.39-.44,4.12-.03,4.9-.04,2.03-.03,4.07-.07,6.1-.18,3.64-.19,6.84-.4,10.09,1.61l24.11,14.86Z"/>
        </g>
      </g>
    </g>
    <g id="Person_6" data-name="Person 6">
      <g id="Gesicht-8" data-name="Gesicht">
        <g id="Gesicht-9" data-name="Gesicht">
          <path class="cls-30" d="M811.87,66.98c-.87-.86-2.07-1.4-3.38-1.4-.32.08-.65.15-.97.22-.32.08-.64.15-.97.23l-.02-.02s-.02,0-.03.02v-.06c-2.87-3.46-5.86-7.43-8.77-11.9-1.64-2.51-3.12-4.97-4.46-7.34-1.11,1.64-3.01,3.98-6.02,5.76-.79.48-2.46,1.37-9.58,3.13,1.06.4,1.89.97,1.88,1.57,0,.53-.61.98-1.33,1.34-.61-.33-1.77-.85-3.29-.92-1.92-.08-3.36.58-4,.92-.81-.42-1.15-.77-1.28-1.06-1.03.28-1.47.54-2.03,1.12-2.45,2.58-1.86,6.26-4.43,7.25h-.01s-.06.02-.09.03c-.95.32-1.89.14-2.55-.07,0-.02-.02-.04-.03-.07-2.07.52-3.61,2.4-3.61,4.62v1.8c0,2.63,2.15,4.78,4.77,4.78h.1c.64-.01,1.25-.16,1.81-.41.4,1.87,1.05,3.65,1.91,5.3,2.35,4.58,6.29,8.23,11.07,10.21v15.92c-2.52.38-4.97.79-7.37,1.22,1.74,1.07,4.37,2.4,7.7,3.2,2.5.6,5.39.91,8.59.59,1.12-.12,2.17-.29,3.16-.53,1.74-.4,3.33-.96,4.75-1.61,3.76-1.69,6.39-3.95,7.82-5.38-2.54.13-5.14.31-7.79.53v-3.9c-3.83-2.86-7.67-5.7-11.5-8.56,1.53.21,3.69.34,6.22-.07,2.17-.34,3.94-.97,5.24-1.54.01.35.03.81.04,1.36v-1.16c0-.08,0-.16-.01-.24,4.6-2,8.38-5.56,10.68-10,.9-1.74,1.58-3.62,1.98-5.6.46.28.98.48,1.53.58.29.06.59.09.89.09,2.63,0,4.78-2.15,4.78-4.78v-1.8c0-1.31-.54-2.5-1.4-3.37ZM761.5,73.33c-.29.12-1-.77-1.27-1.66-.37-1.24.11-2.6.45-2.6.58-.01,1.38,4.03.82,4.26ZM776.61,62.53c0,1.01-.83,1.83-1.83,1.83s-1.83-.82-1.83-1.83v-.63c0-1.01.82-1.83,1.83-1.83s1.83.82,1.83,1.83v.63ZM783.11,75.11c.03-.06.11-.08.17-.05.87.48,1.81.6,2.59.33.42-.14.74-.4.86-.69.31-.73.04-1.46-.8-2.23l-.12-.11c-.43-.39-1.08-.99-1.4-1.99-.11-.34-.15-.86-.17-1.2l-.02-.15c0-.41,0-.75,0-1.08-.01-.34-.01-.67-.01-1.07,0-.07.05-.13.12-.13s.13.06.13.13c0,.4,0,.73.01,1.07,0,.33,0,.67,0,1.07l.02.14c.02.33.06.83.16,1.15.3.93.92,1.5,1.33,1.88l.11.1c.94.85,1.22,1.68.87,2.52-.15.36-.52.66-1.01.83-.3.1-.62.15-.95.15-.6,0-1.24-.17-1.84-.5-.06-.04-.08-.11-.05-.17ZM787.07,83.94c-1.72.8-3.63.96-5.34.4h-.01c-.13-.04-.26-.09-.39-.14-3.17-1.26-4.16-4.53-4.29-4.97,1.22.7,2.89,1.47,4.97,1.98,3.51.84,6.5.5,8.27.15-.88,1.15-2,2.02-3.21,2.58ZM795.6,62.53c0,1.01-.83,1.83-1.83,1.83s-1.83-.82-1.83-1.83v-.63c0-1.01.82-1.83,1.83-1.83s1.83.82,1.83,1.83v.63ZM797.5,58.49c-.62-.33-1.77-.84-3.29-.91-1.92-.09-3.36.57-4,.91-1.09-.55-1.33-1-1.33-1.33.02-1.14,3.07-2.37,5.82-2.1,1.85.18,4.13,1.09,4.13,2.1,0,.52-.61.98-1.33,1.33ZM809.63,71.67c-.26.89-.98,1.78-1.27,1.66-.55-.23.24-4.27.82-4.26.34,0,.82,1.36.45,2.6Z"/>
          <path class="cls-27" d="M793.44,94.34v7.74s-.01,0-.02,0c-3.83-2.86-7.67-5.7-11.5-8.56,1.53.21,3.69.34,6.22-.07,2.17-.34,3.94-.97,5.24-1.54.01.35.03.81.04,1.36.01.33.02.69.02,1.08Z"/>
          <path class="cls-27" d="M809.63,71.67c-.26.89-.98,1.78-1.27,1.66-.55-.23.24-4.27.82-4.26.34,0,.82,1.36.45,2.6Z"/>
          <path class="cls-27" d="M761.5,73.33c-.29.12-1-.77-1.27-1.66-.37-1.24.11-2.6.45-2.6.58-.01,1.38,4.03.82,4.26Z"/>
          <path class="cls-16" d="M786.96,74.8c-.15.36-.52.66-1.01.83-.3.1-.62.15-.95.15-.6,0-1.24-.17-1.84-.5-.06-.04-.08-.11-.05-.17.03-.06.11-.08.17-.05.87.48,1.81.6,2.59.33.42-.14.74-.4.86-.69.31-.73.04-1.46-.8-2.23l-.12-.11c-.43-.39-1.08-.99-1.4-1.99-.11-.34-.15-.86-.17-1.2l-.02-.15c0-.41,0-.75,0-1.08-.01-.34-.01-.67-.01-1.07,0-.07.05-.13.12-.13s.13.06.13.13c0,.4,0,.73.01,1.07,0,.33,0,.67,0,1.07l.02.14c.02.33.06.83.16,1.15.3.93.92,1.5,1.33,1.88l.11.1c.94.85,1.22,1.68.87,2.52Z"/>
          <path class="cls-16" d="M795.6,61.9v.63c0,1.01-.83,1.83-1.83,1.83s-1.83-.82-1.83-1.83v-.63c0-1.01.82-1.83,1.83-1.83s1.83.82,1.83,1.83Z"/>
          <path class="cls-16" d="M776.61,61.9v.63c0,1.01-.83,1.83-1.83,1.83s-1.83-.82-1.83-1.83v-.63c0-1.01.82-1.83,1.83-1.83s1.83.82,1.83,1.83Z"/>
          <path class="cls-29" d="M790.28,81.36c-.88,1.15-2,2.02-3.21,2.58-1.72.8-3.63.96-5.34.4h-.01c-.13-.04-.26-.09-.39-.14-3.17-1.26-4.16-4.53-4.29-4.97,1.22.7,2.89,1.47,4.97,1.98,3.51.84,6.5.5,8.27.15Z"/>
        </g>
        <g id="Haare-5" data-name="Haare">
          <path class="cls-15" d="M765.49,81.82c-.98.27-2.4-1.11-3.23-3.17-.24-.59-.41-1.18-.49-1.72.64-.01,1.25-.16,1.81-.41.4,1.87,1.05,3.65,1.91,5.3Z"/>
          <path class="cls-15" d="M807.6,76.84c-.09.57-.26,1.19-.51,1.81-.77,1.9-2.04,3.23-3,3.21.9-1.74,1.58-3.62,1.98-5.6.46.28.98.48,1.53.58Z"/>
          <path class="cls-15" d="M808.59,64.81c-.03.31-.06.56-.1.77-.7,0-1.36.15-1.96.43-.01-.01-.02-.03-.03-.04-2.87-3.46-5.86-7.43-8.77-11.9-1.64-2.51-3.12-4.97-4.46-7.34-1.11,1.64-3.01,3.98-6.02,5.76-.79.48-2.46,1.37-9.58,3.13,1.06.4,1.89.97,1.88,1.57,0,.53-.61.98-1.33,1.34-.61-.33-1.77-.85-3.29-.92-1.92-.08-3.36.58-4,.92-.81-.42-1.15-.77-1.28-1.06-1.03.28-1.47.54-2.03,1.12-2.45,2.58-1.86,6.26-4.43,7.25h-.01s-.06-.03-.09-.04v.07c-.95.32-1.89.14-2.55-.07,0-.02-.02-.04-.03-.07-.71-1.89-1.67-6.24-.68-11.46.15-.84.37-1.7.64-2.59,1.11-3.61,4.04-7.19,5.47-8.62,4.34-4.34,8.4-6.25,11.24-7.12.72-.23,1.36-.38,1.9-.5.83-.18,1.46-.26,1.89-.31,1.95-.26,7.08-.87,12.32,1.08,1.18.43,2.24.95,3.2,1.53,3.54,2.09,5.71,4.83,6.81,6.25,6.15,7.97,5.68,17.36,5.29,20.82Z"/>
          <path class="cls-15" d="M798.83,57.16c0,.52-.61.98-1.33,1.33-.62-.33-1.77-.84-3.29-.91-1.92-.09-3.36.57-4,.91-1.09-.55-1.33-1-1.33-1.33.02-1.14,3.07-2.37,5.82-2.1,1.85.18,4.13,1.09,4.13,2.1Z"/>
          <path class="cls-26" d="M797.05,37.22c-.17.17-.37.36-.56.52-.96-.58-2.02-1.1-3.2-1.53-5.24-1.95-10.37-1.34-12.32-1.08-.43.05-1.06.13-1.89.31-.54.12-1.18.27-1.9.5-.17-.19-.33-.38-.48-.58.98-.34,1.83-.56,2.52-.7.83-.17,1.46-.26,1.89-.31,1.95-.26,7.08-.86,12.32,1.08,1.34.5,2.55,1.11,3.62,1.79Z"/>
          <path class="cls-15" d="M799.66,33c-.42,1.84-1.46,3.09-2.6,4.22-1.07-.67-2.28-1.29-3.62-1.79-5.24-1.94-10.37-1.34-12.33-1.08-.43.06-1.06.14-1.88.31-.7.14-1.55.36-2.52.7-.83-1.14-1.22-2.43-1.6-3.97-1.16-4.61,2.17-7.34,3.22-8.19,2.99-2.4,7.53-2.47,9.63-2.37,2.14.09,5.91.61,9.26,3.82,1,.96,3.48,3.8,2.45,8.35Z"/>
        </g>
      </g>
      <g id="Arme-3" data-name="Arme">
        <path class="cls-30" d="M878.45,166.96c-.87.77-1.88,1.28-2.95,1.55-1.87.82-3.75,1.63-5.62,2.45-4.52-3.57-9.03-7.15-13.55-10.72-.56-.33-1.12-.66-1.67-.99-7.09-4.17-14.16-8.34-21.26-12.51-.05-.04-.11-.07-.17-.1l13.63-15.7c1.11.8,2.21,1.6,3.31,2.4,7.82,5.66,15.64,11.32,23.46,17,4.93,3.49,10.97,11.17,4.82,16.62Z"/>
        <path class="cls-30" d="M849.9,179.66c-7.84,3.41-15.68,6.83-23.52,10.24h0c-.52,1.43-1.55,3.64-3.68,5.48-.07.06-.15.13-.23.19-5.28,4.32-14.17,4.12-16.24.7-.92-1.52-.37-3.48-.3-3.69.56-1.89,2.16-2.84,4.22-4.14,2.38-1.51,4.64-2.18,6.14-2.51-.51-.73-1.02-1.46-1.54-2.19,2.17-.38,4.35-.77,6.52-1.16,0,.01.01.01.01.02,5.79-3.93,11.79-7.88,17.98-11.83,3.26,3.31,6.87,6.24,10.64,8.89Z"/>
        <path class="cls-30" d="M734.94,153.17c-1.06-1-24.03,19.48-26.22,21.34-3.16,2.67-6.23,6.14-10.77,5.6-1.28-.15-2.48-.58-3.5-1.22h-.03c-1.48-.62-2.95-1.24-4.43-1.86-1.14-1.82-2.26-3.51-3.32-5.05,1.06-.27,2.04-.54,2.95-.81.2-3.64.43-7.35.7-11.11,2.13.63,4.24,1.26,6.34,1.91,8.17-8.08,16.34-16.14,24.51-24.21,2.12,2.82,4.55,5.79,7.3,8.81,2.19,2.4,4.36,4.6,6.47,6.6Z"/>
        <path class="cls-30" d="M645.07,158.13c-.11.57-.31,1.16-.64,1.75-.14.26-.3.49-.48.7-1.29,1.64-3.15,2.06-3.63,2.16.05.51.12,1.02.17,1.54.01.06.01.12.02.18-.54-.04-3.55-.27-5.22-2.81-.93-1.42-1-2.87-1.08-4.59-.1-2.23-.22-4.96,1.58-6.82.55-.56,1.16-.93,1.75-1.16.75-.3,1.47-.39,1.97-.41.4-.01.66.02.69.03.3.04.57.11.83.19,1.5.48,2.43,1.55,2.73,1.93,1.37,1.72,1.41,3.69,1.44,5,.01.68.03,1.47-.13,2.31Z"/>
      </g>
      <g id="Hose-3" data-name="Hose">
        <path class="cls-26" d="M824.99,200h-36.48v-20.81h.13v5.17c.64.03,1.27.05,1.9.05,9.13.07,16.79-1.49,22.4-3.14.6.79,1.2,1.61,1.81,2.47.52.73,1.03,1.46,1.54,2.19-1.5.33-3.76,1-6.14,2.51-2.06,1.3-3.66,2.25-4.22,4.14-.07.21-.62,2.17.3,3.69,2.07,3.42,10.96,3.62,16.24-.7.83,1.42,1.68,2.89,2.52,4.43Z"/>
        <path class="cls-9" d="M788.51,184.36v15.64h-33.84c3.7-6.08,8.14-12.45,13.49-19.01,5.15,1.58,12.08,3.11,20.35,3.37Z"/>
      </g>
      <g id="T-Shirt-6" data-name="T-Shirt">
        <rect class="cls-18" x="788.51" y="179.19" width=".13" height="5.17"/>
        <path class="cls-18" d="M788.64,112.43v66.76h-.13v5.17c-8.27-.26-15.2-1.79-20.35-3.37-.96-.3-1.85-.59-2.68-.88-.85-4.03-1.77-8.16-2.74-12.34,0,0-1.75-7.49-3.72-14.93-.99-3.76-2.08-7.65-3.18-11.45-5.18,5.53-10.35,11.07-15.52,16.61-1.74-1.47-3.54-3.08-5.38-4.83-2.11-2-4.28-4.2-6.47-6.6-2.75-3.02-5.18-5.99-7.3-8.81-.61-.79-1.18-1.57-1.73-2.34,1.8-1.7,3.59-3.4,5.39-5.1,5.35-5.07,10.7-10.14,16.06-15.21.12-.11.23-.22.35-.33,1.9-1.8,4.27-2.98,6.85-3.41,3.56-.59,6.93-1.03,10.45-1.85,2.94-.68,5.79-1.27,8.55-1.78.37.28,1.08.81,2.1,1.43,1.74,1.07,4.37,2.4,7.7,3.2,2.5.6,5.39.91,8.59.59,1.12-.12,2.17-.29,3.16-.53Z"/>
        <g>
          <path class="cls-2" d="M850.13,127.17l-3.27,3.77-13.63,15.7-1.85,2.13s-11.52-10-11.53-10.01l-1.93-1.68c-.02.18-.03.35-.03.52-.17,2.98-.33,5.58-.47,7.83-.12,1.73-.34,5.08-.58,9.75-.47,8.65-.73,17.03-.86,25.13-.93.32-1.95.64-3.04.96-5.61,1.65-13.27,3.21-22.4,3.14-.63,0-1.26-.02-1.9-.05v-71.93c1.74-.4,3.33-.96,4.75-1.61,3.76-1.69,6.39-3.95,7.82-5.38.48-.48.83-.86,1.04-1.1,3.38-.03,6.77-.09,10.15-.09,3.13,0,6.27-.34,9.36.39,6.4,1.5,12.25,8.53,17.11,12.76,3.75,3.26,7.51,6.52,11.26,9.77Z"/>
          <path class="cls-2" d="M819.31,104.19h0c-.14.01-.28,0-.42,0h.42Z"/>
        </g>
      </g>
    </g>
    <g id="Person_5" data-name="Person 5">
      <g>
        <path class="cls-30" d="M740.89,115.11c-5.36,5.07-10.71,10.14-16.06,15.21-1.76-.32-3.52-.65-5.29-.98l5.44-18.75c5.3,1.51,10.61,3.02,15.91,4.52Z"/>
        <path class="cls-8" d="M689.99,177.03c-1.14-1.82-2.26-3.51-3.32-5.05-1.74.43-3.68.85-5.81,1.21-.11.02-.22.04-.33.06,0-.06.02-.13.03-.19.13-1,.25-2.03.36-3.07.01-.06.02-.12.02-.19.42-3.84.74-7.92.92-12.21.02-.43.04-.86.05-1.3.22-6.29.09-12.14-.23-17.48l4.13-16.32.06-.24,5.2-20.56.63-2.52.15-.57.05-.22.04-.14c-.53-.23-1.2-.46-2-.62-.86-.17-1.62-.21-2.23-.21-.07.28-.14.55-.21.83-.07.26-.13.53-.2.79-.18.71-.36,1.43-.54,2.14-.18.69-.35,1.37-.52,2.06-1.24,4.88-2.47,9.76-3.7,14.63-.07.25-.13.5-.19.74-1.61,6.36-3.22,12.72-4.82,19.08-1.39-.11-2.83-.19-4.3-.25-2.97-.12-5.8-.13-8.46-.06l-.37,9.45c3.65.14,6.92-.05,9.72-.37.35,2.42.58,5.39.44,8.76,0,.11-.01.22-.02.32-.14,3.17-.6,5.94-1.11,8.21-2.7.4-5.98.67-9.72.53l-.03.61v.1s-.02.29-.02.29l-.02.49v.18l-.09,2.29-.03.84v.23s-.1,2.15-.1,2.15l-.1,2.56-.07,1.67h-.12s-.97,24.32-.97,24.32h39.73c-3.79-9.15-8.03-16.83-11.9-22.97ZM678.97,142.72c-.95-.04-1.69-.84-1.65-1.79s.84-1.69,1.79-1.65c.94.04,1.68.84,1.64,1.79-.03.94-.83,1.68-1.78,1.65Z"/>
      </g>
      <path class="cls-30" d="M614,93.41l-8.54,17.56c-9.52-4.56-19.05-9.13-28.57-13.71h-.01c-.11-.01-.22-.02-.33-.04l-.08-.02c-1.97-.25-3.95-.51-5.94-.77-.61-.61-1.14-1.12-1.57-1.52-3.41-3.55-7.2-5.98-10.81-7.16,0-.04,0-.07.02-.11-.24-.03-.48-.07-.71-.1h-.01c-2.03-.27-3.92-.44-5.67-.52-2.6-.15-4.88-.12-6.78-.02-1.7.08-4.55.22-8.16.8h-.02l-6.42-1.55c-.22-.03-.45-.06-.68-.08.09,1.18.18,2.35.28,3.53-.07.03-.13.06-.19.08-1.27.55-2.39,1.05-3.38,1.51-1.17.53-2.15,1-2.94,1.38,0,0-1.64.86-4.93,1.52-.84.17-1.84.31-2.39-.25-.17-.16-.29-.39-.35-.71-.2-1.05,1.68-2.67,3.74-3.92.2-.12.24-.3.17-.51-.27-.79-2.11-1.98-3.77-2.02-.1-.01-.21-.01-.31,0-2.48.16-4.4,1.36-5.81,1.88-.93.33-1.63.37-2.13-.38-.14-.21-.22-.43-.25-.66-.19-1.14.77-2.52,2.38-3.77,1.61-1.24,3.87-2.36,6.28-2.95.84-.21,1.64-.36,2.39-.45,2.49-.34,4.45-.19,5.31-.04.88.01,1.75.03,2.63.04,17.14.25,34.29.49,51.43.74h.02c.97-.14,1.97-.08,2.95.22.02-.01.03,0,.05.01.53.08,1.04.2,1.53.39,0,0,.18.06.28.09,10.43,3.83,20.86,7.67,31.29,11.51Z"/>
      <g>
        <path class="cls-7" d="M658.91,56.92v.07l-.02.59c-.04.92-.83,1.65-1.75,1.61-.93-.04-1.65-.82-1.62-1.75l.03-.59c.03-.92.82-1.65,1.74-1.61.91.04,1.62.78,1.62,1.68Z"/>
        <path class="cls-7" d="M667.36,69.56c-.15.33-.5.59-.96.73-.24.08-.5.11-.76.11-.59,0-1.22-.18-1.8-.53-.06-.04-.08-.12-.04-.18.03-.05.11-.07.17-.04.76.47,1.65.62,2.36.4.39-.11.68-.33.81-.6.3-.65.09-1.33-.66-2.07l-.09-.09c-.36-.36-.97-.96-1.22-1.89-.09-.32-.11-.8-.12-1.11v-.14c.01-.39.01-.7.02-1.01.01-.31.01-.61.03-.98,0-.07.07-.12.13-.12.06.01.12.06.12.13-.02.37-.02.67-.03.97-.01.32-.01.63-.03,1.01v.13c.02.3.04.76.12,1.05.24.87.79,1.42,1.15,1.78l.1.09c.83.83,1.06,1.6.7,2.36Z"/>
        <path class="cls-7" d="M675.42,57.57v.07l-.02.59c-.04.93-.82,1.65-1.75,1.62-.92-.04-1.65-.83-1.61-1.75l.02-.59c.04-.92.82-1.65,1.75-1.61.9.03,1.61.78,1.61,1.67Z"/>
        <path class="cls-7" d="M678.58,53.44c-.02.48-.6.88-1.27,1.18-.55-.33-1.59-.84-2.99-.96-1.76-.15-3.11.4-3.71.69-.98-.55-1.19-.97-1.17-1.27.06-1.05,2.9-2.07,5.42-1.72,1.7.23,3.76,1.16,3.72,2.08Z"/>
        <path class="cls-7" d="M688.99,65.4c-.29.85-1.02,1.69-1.3,1.57-.52-.24.4-4.14.97-4.11.32.02.74,1.36.33,2.54Z"/>
        <path class="cls-7" d="M642.22,65.16c-.29.1-.95-.79-1.17-1.66-.31-1.22.21-2.52.53-2.51.57.02,1.18,3.97.64,4.17Z"/>
        <path class="cls-1" d="M695.11,58.66c.29.21,3.16,2.39,3.07,5.88-.08,3.19-2.6,6.11-6.18,6.87,2.14,1.53,2.8,4.34,1.68,6.45-.95,1.77-3,2.79-5.14,2.51-.54,2.96-3.11,4.79-5.4,4.43-1.58-.25-2.93-1.54-3.55-3.24-1.01.52-2.11.78-3.12.73,4.35-2.88,7.6-7.33,8.89-12.57.67.44,1.47.71,2.32.74,2.55.1,4.72-1.9,4.82-4.45l.07-1.74v-.18c0-2.47-1.96-4.54-4.45-4.64-.69-.03-1.36.1-1.96.36l.16-3.96c-1.29.89-3.03.33-3.77-1.08-.68-1.3-.39-3.05.75-3.96-1.86,1.36-4.27,1.24-5.99-.26-2.03-1.77-2.08-4.59-2.08-4.88-.24-.14-2.86-1.78-3.62-5.22-.68.09-1.44.05-2.22-.15.91,2.51-.01,5.32-2.2,6.8-2.24,1.52-5.28,1.27-7.27-.61.07,2.11-.8,3.48-1.79,4.21-.34.26-.7.44-1.04.55-1.22.39-2.31.25-3.21,0-.94-.26-1.66-.65-2.09-.66-.19-.01.63,2.83-1.67,4.77-1.21,1.02-3.94,1.68-5.71.9-.09-.04-.19-.09-.29-.14l-.07,1.78c-.43-.15-.89-.24-1.37-.26-2.55-.1-4.72,1.9-4.82,4.45l-.07,1.74c-.1,2.55,1.9,4.72,4.46,4.83.66.03,1.29-.09,1.86-.33.84,4.83,3.34,9.13,6.92,12.24-.19,1.28-.98,2.39-2.09,2.87-1.9.82-4.47-.33-5.12-2.72-3.92.05-6.65-2.74-6.56-5.29.09-2.53,2.93-4.07,3.07-4.14-3.76-1.09-6.58-4.05-7.25-7.64-.69-3.76,1.25-6.68,1.68-7.3-.28-.24-3.69-3.25-3.16-7.83.4-3.43,2.84-6.35,6.23-7.46-1.43-3.11-1.11-6.71.88-9.36,2.33-3.11,6.57-4.38,10.44-3.05.39-.89,2.06-4.4,6.08-6.12,5.71-2.44,10.97.96,11.37,1.23.32-.28,3.09-2.62,6.85-1.86,4.38.89,5.91,5.13,5.98,5.32.24-.08,3.51-1.19,6.31.93,1.99,1.5,2.97,4.03,2.54,6.54,2.8-.26,5.5,1.06,6.97,3.41,1.58,2.52,1.46,5.82-.33,8.28,2.42,1.51,3.8,4.19,3.54,6.91-.33,3.35-3,5.14-3.35,5.37Z"/>
        <path class="cls-7" d="M661.79,52.77c-.02.48-.6.88-1.27,1.18-.56-.33-1.6-.84-3-.96-1.76-.15-3.1.4-3.7.69-.98-.54-1.19-.97-1.18-1.27.02-.42.51-.84,1.24-1.16.9.25,1.99.39,3.21,0,.34-.11.7-.29,1.04-.55,1.68.24,3.7,1.16,3.66,2.07Z"/>
      </g>
      <path class="cls-30" d="M642.22,65.16c-.29.1-.95-.79-1.17-1.66-.31-1.22.21-2.52.53-2.51.57.02,1.18,3.97.64,4.17Z"/>
      <path class="cls-30" d="M688.99,65.4c-.29.85-1.02,1.69-1.3,1.57-.52-.24.4-4.14.97-4.11.32.02.74,1.36.33,2.54Z"/>
      <path class="cls-30" d="M672.39,86.44v.11l-.3,7.73c-3.54-2.83-7.07-5.66-10.61-8.5,1.29.3,3.34.61,5.81.27,2.13-.29,3.81-.95,4.93-1.49.06.46.13,1.1.17,1.88Z"/>
      <g>
        <path class="cls-30" d="M688.12,59.45c-.69-.03-1.36.1-1.96.36l.16-3.96c-1.29.89-3.03.33-3.77-1.08-.68-1.3-.39-3.05.75-3.96-1.86,1.36-4.27,1.24-5.99-.26-2.03-1.77-2.08-4.59-2.08-4.88-.24-.14-2.86-1.78-3.62-5.22-.68.09-1.44.05-2.22-.15.91,2.51-.01,5.32-2.2,6.8-2.24,1.52-5.28,1.27-7.27-.61.07,2.11-.8,3.48-1.79,4.21,1.68.24,3.7,1.16,3.66,2.07-.02.48-.6.88-1.27,1.18-.56-.33-1.6-.84-3-.96-1.76-.15-3.1.4-3.7.69-.98-.54-1.19-.97-1.18-1.27.02-.42.51-.84,1.24-1.16-.94-.26-1.66-.65-2.09-.66-.19-.01.63,2.83-1.67,4.77-1.21,1.02-3.94,1.68-5.71.9-.09-.04-.19-.09-.29-.14l-.07,1.78c-.43-.15-.89-.24-1.37-.26-2.55-.1-4.72,1.9-4.82,4.45l-.07,1.74c-.1,2.55,1.9,4.72,4.46,4.83.66.03,1.29-.09,1.86-.33.84,4.83,3.34,9.13,6.92,12.24,1.52,1.34,3.23,2.46,5.09,3.32-.01.02-.01.05-.01.07l-.65,16.42c-2.7.29-5.33.62-7.89.98,1.84,1.23,4.77,2.84,8.56,3.69h.01c2.05.46,4.36.7,6.87.55,1.07-.07,2.08-.19,3.04-.39,2.07-.39,3.93-1.02,5.55-1.76,3.16-1.43,5.44-3.25,6.74-4.45-2.11.02-4.25.08-6.45.17l.2-4.89c-3.54-2.83-7.07-5.66-10.61-8.5,1.29.3,3.34.61,5.81.27,2.13-.29,3.81-.95,4.93-1.49.06.46.13,1.1.17,1.88l.08-1.83c0-.08.01-.16.01-.24,1.41-.55,2.75-1.25,3.99-2.08,4.35-2.88,7.6-7.33,8.89-12.57.67.44,1.47.71,2.32.74,2.55.1,4.72-1.9,4.82-4.45l.07-1.74v-.18c0-2.47-1.96-4.54-4.45-4.64ZM642.22,65.16c-.29.1-.95-.79-1.17-1.66-.31-1.22.21-2.52.53-2.51.57.02,1.18,3.97.64,4.17ZM663.8,69.69s.11-.07.17-.04c.76.47,1.65.62,2.36.4.39-.11.68-.33.81-.6.3-.65.09-1.33-.66-2.07l-.09-.09c-.36-.36-.97-.96-1.22-1.89-.09-.32-.11-.8-.12-1.11v-.14c.01-.39.01-.7.02-1.01.01-.31.01-.61.03-.98,0-.07.07-.12.13-.12.06.01.12.06.12.13-.02.37-.02.67-.03.97-.01.32-.01.63-.03,1.01v.13c.02.3.04.76.12,1.05.24.87.79,1.42,1.15,1.78l.1.09c.83.83,1.06,1.6.7,2.36-.15.33-.5.59-.96.73-.24.08-.5.11-.76.11-.59,0-1.22-.18-1.8-.53-.06-.04-.08-.12-.04-.18ZM658.91,56.99l-.02.59c-.04.92-.83,1.65-1.75,1.61-.93-.04-1.65-.82-1.62-1.75l.03-.59c.03-.92.82-1.65,1.74-1.61.91.04,1.62.78,1.62,1.68v.07ZM671.45,73.17c-.45,1.74-1.59,3.19-3.11,4-.46.25-.94.43-1.45.55-1.83.43-3.74-.04-5.22-1.2-.46-.36-.87-.78-1.23-1.27,1.23.13,3.25.18,5.6-.5,1.45-.42,2.65-1.02,3.61-1.61.88-.54,1.55-1.08,2.01-1.5,0,.53-.08,1.04-.21,1.53ZM675.42,57.64l-.02.59c-.04.93-.82,1.65-1.75,1.62-.92-.04-1.65-.83-1.61-1.75l.02-.59c.04-.92.82-1.65,1.75-1.61.9.03,1.61.78,1.61,1.67v.07ZM677.31,54.62c-.55-.33-1.59-.84-2.99-.96-1.76-.15-3.11.4-3.71.69-.98-.55-1.19-.97-1.17-1.27.06-1.05,2.9-2.07,5.42-1.72,1.7.23,3.76,1.16,3.72,2.08-.02.48-.6.88-1.27,1.18ZM688.99,65.4c-.29.85-1.02,1.69-1.3,1.57-.52-.24.4-4.14.97-4.11.32.02.74,1.36.33,2.54Z"/>
        <path class="cls-23" d="M666.05,105.21l-.17,4.35-1.11,27.81c-2.43-.31-5.05-.56-7.86-.68-1.61-.07-3.16-.11-4.66-.1-1.35-5.61-2.7-11.21-4.06-16.82h0c-.09-.38-.18-.75-.27-1.12h0c-1.09-4.55-2.19-9.08-3.28-13.62-.08-.3-.15-.61-.22-.91-.18-.74-.36-1.47-.54-2.21-.13-.56-.27-1.12-.4-1.68.72-.11,1.43-.22,2.13-.32.34.28,1,.82,1.96,1.45,1.84,1.23,4.77,2.84,8.56,3.69h.01c2.05.46,4.36.7,6.87.55,1.07-.07,2.08-.19,3.04-.39Z"/>
        <path class="cls-30" d="M645.96,168.61c-.02-.09-.05-.18-.07-.27h.06c.01.09.01.18.01.27Z"/>
        <path class="cls-30" d="M652.2,139.59c-.03.95-.83,1.69-1.78,1.65-.95-.03-1.69-.83-1.65-1.78.04-.95.84-1.69,1.79-1.65.94.04,1.68.84,1.64,1.78Z"/>
        <path class="cls-30" d="M663.55,168.23l-.03.84v.23h-.14v-.24s.09,0,.13.01l.02-.46v-.26s.02-.12.02-.12Z"/>
        <polygon class="cls-30" points="663.71 164.27 663.68 164.88 663.68 164.92 663.67 164.98 663.67 164.92 663.7 164.27 663.71 164.27"/>
        <path class="cls-30" d="M680.75,141.07c-.03.94-.83,1.68-1.78,1.65-.95-.04-1.69-.84-1.65-1.79s.84-1.69,1.79-1.65c.94.04,1.68.84,1.64,1.79Z"/>
      </g>
      <g>
        <path class="cls-32" d="M663.52,169.07v.23s-.1,2.15-.1,2.15l-.1,2.56-.07,1.67h-.12l.06-1.68.19-4.7v-.24s.09,0,.13.01h.01Z"/>
        <path class="cls-32" d="M680.86,173.19c-.11.02-.22.04-.33.06,0-.06.02-.13.03-.19.1.04.2.08.3.13Z"/>
      </g>
      <path class="cls-4" d="M645.96,168.61c-.02-.09-.05-.18-.07-.27h.06c.01.09.01.18.01.27Z"/>
      <g>
        <path class="cls-28" d="M726.1,106.74l-1.12,3.85-5.44,18.75-1.14,3.95-24.93-7.24c-.44,4.74-.82,8.64-1.15,11.82-.19,1.64-.52,4.84-.93,9.3-.41,4.37-.76,8.67-1.07,12.89-.27,3.76-.5,7.47-.7,11.11-.91.27-1.89.54-2.95.81-1.74.43-3.68.85-5.81,1.21-.1-.05-.2-.09-.3-.13.13-1,.25-2.03.36-3.07.01-.06.02-.12.02-.19.42-3.84.74-7.92.92-12.21.02-.43.04-.86.05-1.3.22-6.29.09-12.14-.23-17.48l4.13-16.32.06-.24,5.2-20.56.63-2.52.15-.57.05-.22c.29.01.58.02.87.03,1.86-.32,3.81-.24,5.73.32l27.6,8.01Z"/>
        <path class="cls-28" d="M687.5,98.24c-.07.26-.13.53-.2.79-.18.71-.36,1.43-.54,2.14-.18.69-.35,1.37-.52,2.06-1.24,4.88-2.47,9.76-3.7,14.63-.07.25-.13.5-.19.74-1.61,6.36-3.22,12.72-4.82,19.08-1.39-.11-2.83-.19-4.3-.25-2.97-.12-5.8-.13-8.46-.06l1.11-27.81.17-4.35c2.07-.39,3.93-1.02,5.55-1.76,3.16-1.43,5.44-3.25,6.74-4.45h0c.47-.44.81-.79,1.02-1.01,2.71.08,5.42.17,8.13.25Z"/>
        <polygon class="cls-13" points="663.55 168.23 663.52 169.07 663.53 168.61 663.54 168.35 663.55 168.23"/>
        <polygon class="cls-13" points="663.68 164.92 663.67 164.98 663.67 164.92 663.68 164.92"/>
        <path class="cls-13" d="M680.75,141.07c-.03.94-.83,1.68-1.78,1.65-.95-.04-1.69-.84-1.65-1.79s.84-1.69,1.79-1.65c.94.04,1.68.84,1.64,1.79Z"/>
        <path class="cls-13" d="M680.86,173.19c-.11.02-.22.04-.33.06,0-.06.02-.13.03-.19.1.04.2.08.3.13Z"/>
      </g>
      <g>
        <path class="cls-23" d="M647.86,136.7v.02c-.57,3.56-1.06,7.4-1.41,11.5-.19,2.14-.34,4.36-.44,6.64-.06,1.22-.1,2.43-.13,3.61-.08,3.45-.04,6.74.07,9.87h-.06c.02.09.05.18.07.27.03.71.06,1.42.1,2.12-.77-.24-1.5-.49-2.2-.74-.9-.31-1.75-.62-2.53-.93-.27-1.58-.55-3.17-.84-4.78-.05-.52-.12-1.03-.17-1.54.48-.1,2.34-.52,3.63-2.16.18-.21.34-.44.48-.7.33-.59.53-1.18.64-1.75.16-.84.14-1.63.13-2.31-.03-1.31-.07-3.28-1.44-5-.3-.38-1.23-1.45-2.73-1.93-.26-.08-.53-.15-.83-.19-.03-.01-.29-.04-.69-.03-.5.02-1.22.11-1.97.41-.41-1.98-.88-4.16-1.36-6.34-1.06-4.8-2.28-9.8-3.49-14.55-1.06-.2-2.11-.55-3.13-1.04l-25.85-12.57,1.75-3.61,8.54-17.56,1.8-3.69,23.18,11.27c.08-.01.16-.03.24-.04l.05.18.35,1.48.07.27,5,20.72.11.47,3.06,12.63Z"/>
        <path class="cls-23" d="M645.96,168.61c-.02-.09-.05-.18-.07-.27h.06c.01.09.01.18.01.27Z"/>
        <path class="cls-23" d="M652.2,139.59c-.03.95-.83,1.69-1.78,1.65-.95-.03-1.69-.83-1.65-1.78.04-.95.84-1.69,1.79-1.65.94.04,1.68.84,1.64,1.78Z"/>
        <path class="cls-23" d="M663.55,168.23l-.03.84v.23s-.1,2.15-.1,2.15l-.1,2.56s-.09-.01-.13-.01l.19-4.7v-.24s.09,0,.13.01l.02-.46v-.26s.02-.12.02-.12Z"/>
        <polygon class="cls-23" points="663.71 164.27 663.68 164.88 663.68 164.92 663.67 164.98 663.67 164.92 663.7 164.27 663.71 164.27"/>
      </g>
      <path class="cls-14" d="M678.58,53.44c-.02.48-.6.88-1.27,1.18-.55-.33-1.59-.84-2.99-.96-1.76-.15-3.11.4-3.71.69-.98-.55-1.19-.97-1.17-1.27.06-1.05,2.9-2.07,5.42-1.72,1.7.23,3.76,1.16,3.72,2.08Z"/>
      <path class="cls-14" d="M661.79,52.77c-.02.48-.6.88-1.27,1.18-.56-.33-1.6-.84-3-.96-1.76-.15-3.1.4-3.7.69-.98-.54-1.19-.97-1.18-1.27.02-.42.51-.84,1.24-1.16.9.25,1.99.39,3.21,0,.34-.11.7-.29,1.04-.55,1.68.24,3.7,1.16,3.66,2.07Z"/>
      <path class="cls-16" d="M658.91,56.92v.07l-.02.59c-.04.92-.83,1.65-1.75,1.61-.93-.04-1.65-.82-1.62-1.75l.03-.59c.03-.92.82-1.65,1.74-1.61.91.04,1.62.78,1.62,1.68Z"/>
      <path class="cls-16" d="M675.42,57.57v.07l-.02.59c-.04.93-.82,1.65-1.75,1.62-.92-.04-1.65-.83-1.61-1.75l.02-.59c.04-.92.82-1.65,1.75-1.61.9.03,1.61.78,1.61,1.67Z"/>
      <path class="cls-33" d="M672.09,94.28c-1.65-1.32-3.66-2.93-5.31-4.25-1.65-1.32-3.66-2.93-5.3-4.25,1.26.3,3.32.62,5.81.27,2.3-.32,4.08-1.09,5.19-1.68-.13,3.3-.26,6.61-.39,9.91Z"/>
      <path class="cls-16" d="M667.36,69.56c-.15.33-.5.59-.96.73-.24.08-.5.11-.76.11-.59,0-1.22-.18-1.8-.53-.06-.04-.08-.12-.04-.18.03-.05.11-.07.17-.04.76.47,1.65.62,2.36.4.39-.11.68-.33.81-.6.3-.65.09-1.33-.66-2.07l-.09-.09c-.36-.36-.97-.96-1.22-1.89-.09-.32-.11-.8-.12-1.11v-.14c.01-.39.01-.7.02-1.01.01-.31.01-.61.03-.98,0-.07.07-.12.13-.12.06.01.12.06.12.13-.02.37-.02.67-.03.97-.01.32-.01.63-.03,1.01v.13c.02.3.04.76.12,1.05.24.87.79,1.42,1.15,1.78l.1.09c.83.83,1.06,1.6.7,2.36Z"/>
      <path class="cls-27" d="M688.99,65.4c-.29.85-1.02,1.69-1.3,1.57-.52-.24.4-4.14.97-4.11.32.02.74,1.36.33,2.54Z"/>
      <path class="cls-27" d="M642.22,65.16c-.29.1-.95-.79-1.17-1.66-.31-1.22.21-2.52.53-2.51.57.02,1.18,3.97.64,4.17Z"/>
      <path class="cls-4" d="M656.91,136.69c-1.61-.07-3.16-.11-4.66-.1-1.35-5.61-2.7-11.21-4.06-16.82h0c-.09-.38-.18-.75-.27-1.12h0c-1.09-4.55-2.19-9.08-3.28-13.62-.08-.3-.15-.61-.22-.91-.18-.74-.36-1.47-.54-2.21-.13-.56-.27-1.12-.4-1.68-.06-.26-.13-.52-.19-.78-.61,0-1.37.05-2.23.21-.8.15-1.48.37-2.01.57l.17.72.05.18.35,1.48.07.27,5,20.72.11.47,3.06,12.63v.02c-.57,3.56-1.06,7.4-1.41,11.5-.19,2.14-.34,4.36-.44,6.64-.06,1.22-.1,2.43-.13,3.61-.08,3.45-.04,6.74.07,9.87.01.09.01.18.01.27.03.71.06,1.42.1,2.12-.77-.24-1.5-.49-2.2-.74h-.01c-9.39,10.63-16.1,20.81-20.92,30.01h39.23l.97-24.31h0s.06-1.69.06-1.69l.19-4.7v-.24s.09,0,.13.01l.02-.46v-.26s.02-.12.02-.12l.09-2.29v-.18l.02-.49v-.29s.01-.06.01-.06l.03-.65c-1.79-.06-3.48-.22-5.04-.42-1.82-.24-3.48-.56-4.95-.89-.07-.41-.13-.83-.19-1.27-.29-2.18-.47-4.79-.33-7.71.07-1.42.2-2.76.38-4,.22-1.6.51-3.04.82-4.31,2.85.55,6.2,1.01,9.98,1.15h.03l.37-9.45c-2.43-.31-5.05-.56-7.86-.68ZM650.42,141.24c-.95-.03-1.69-.83-1.65-1.78.04-.95.84-1.69,1.79-1.65.94.04,1.68.84,1.64,1.78-.03.95-.83,1.69-1.78,1.65Z"/>
      <g>
        <path class="cls-4" d="M652.2,139.59c-.03.95-.83,1.69-1.78,1.65-.95-.03-1.69-.83-1.65-1.78.04-.95.84-1.69,1.79-1.65.94.04,1.68.84,1.64,1.78Z"/>
        <path class="cls-4" d="M663.51,169.07v.23s-.09,2.15-.09,2.15l-.1,2.56-.07,1.67h-.12l.06-1.68.19-4.7v-.24s.09,0,.13.01Z"/>
        <polygon class="cls-4" points="663.7 164.27 663.68 164.88 663.68 164.92 663.67 164.92 663.7 164.27"/>
      </g>
      <g>
        <polygon class="cls-32" points="663.55 168.23 663.52 169.07 663.51 169.3 663.42 171.45 663.5 169.3 663.51 169.07 663.53 168.61 663.54 168.35 663.55 168.23"/>
        <polygon class="cls-32" points="663.71 164.27 663.68 164.88 663.68 164.92 663.67 164.98 663.67 164.92 663.7 164.27 663.71 164.27"/>
        <path class="cls-32" d="M680.75,141.07c-.03.94-.83,1.68-1.78,1.65-.95-.04-1.69-.84-1.65-1.79s.84-1.69,1.79-1.65c.94.04,1.68.84,1.64,1.79Z"/>
      </g>
      <path class="cls-6" d="M674.56,155.21c0,.11-.01.22-.02.32-.14,3.17-.6,5.94-1.11,8.21-2.7.4-5.98.67-9.72.53h-.01c-1.79-.06-3.48-.22-5.04-.42-1.82-.24-3.48-.56-4.95-.89-.07-.41-.13-.83-.19-1.27-.29-2.18-.47-4.79-.33-7.71.07-1.42.2-2.76.38-4,.22-1.6.51-3.04.82-4.31,2.85.55,6.2,1.01,9.98,1.15h.03c3.65.14,6.92-.05,9.72-.37.35,2.42.58,5.39.44,8.76Z"/>
      <path class="cls-6" d="M652.2,139.59c-.03.95-.83,1.69-1.78,1.65-.95-.03-1.69-.83-1.65-1.78.04-.95.84-1.69,1.79-1.65.94.04,1.68.84,1.64,1.78Z"/>
      <path class="cls-6" d="M680.75,141.07c-.03.94-.83,1.68-1.78,1.65-.95-.04-1.69-.84-1.65-1.79s.84-1.69,1.79-1.65c.94.04,1.68.84,1.64,1.79Z"/>
      <path class="cls-29" d="M671.66,71.64c0,.53-.08,1.04-.21,1.53-.45,1.74-1.59,3.19-3.11,4-.46.25-.94.43-1.45.55-1.83.43-3.74-.04-5.22-1.2-.46-.36-.87-.78-1.23-1.27,1.23.13,3.25.18,5.6-.5,1.45-.42,2.65-1.02,3.61-1.61.88-.54,1.55-1.08,2.01-1.5Z"/>
    </g>
  </g>
</svg>