<?xml version="1.0" encoding="UTF-8"?>
<svg id="Ebene_1" data-name="Ebene 1" xmlns="http://www.w3.org/2000/svg" viewBox="0 0 1050 200">
  <defs>
    <style>
      .cls-1 {
        fill: #942c69;
      }

      .cls-1, .cls-2, .cls-3, .cls-4, .cls-5, .cls-6, .cls-7, .cls-8, .cls-9 {
        stroke-width: 0px;
      }

      .cls-2 {
        fill: #80c8e7;
      }

      .cls-3 {
        fill: #af618e;
      }

      .cls-4 {
        fill: #bf7a3e;
      }

      .cls-5 {
        fill: #fef0e5;
      }

      .cls-6 {
        fill: #fb8e40;
      }

      .cls-7 {
        fill: #ffd8b9;
      }

      .cls-8 {
        fill: #c995b4;
      }

      .cls-9 {
        fill: #0090ce;
      }
    </style>
  </defs>
  <g id="G-0006_BUW_Header_Module">
    <g id="Hintergrund">
      <path class="cls-5" d="M395.22,178.14c.19,7.35,2.71,16.68,7.19,21.86h-60.78c-4.26-14.8.48-31.37,13.29-41.55,14.88-11.84,35.72-11.11,49.71.74-.9.21-2.15.62-3.43,1.45-6.3,4.13-6.07,14.1-5.98,17.5Z"/>
      <path class="cls-5" d="M1050,0v200H468.05l-9.09-5.21c.33-4.58.26-9.19-.21-13.78-.42-4.13-1.16-8.24-2.23-12.29l17.56-15.06c-2.98-7.96-7.02-15.66-12.14-22.89l-22.32,6.05c-5.9-6.81-12.73-12.4-20.15-16.71l1.76-23.06c-7.93-3.6-16.26-6.14-24.77-7.6l-11.5,20.05c-8.7-.62-17.52.19-26.07,2.44l-15.06-17.56c-7.96,2.99-15.66,7.03-22.89,12.15l6.04,22.32c-6.81,5.9-12.39,12.73-16.7,20.15l-23.06-1.77c-3.6,7.94-6.14,16.27-7.6,24.78l20.05,11.5c-.38,5.48-.21,11.01.53,16.49H0V0h310.81c1.66,2.28,3.34,4.55,5,6.83.39.54.76,1.08,1.1,1.64,3.04,4.87,4.51,10.44,7.48,15.37,1.17,1.94,2.79,3.76,4.27,5.47,4.57,5.28,9.85,9.94,15.61,13.88,8.93,6.11,19.37,9.89,27.52,10.58,7,.6,12.31-1.08,13.5-5.52.25-.95.24-1.73.04-2.71-1.69-8.48-14.56-9.18-22.25-17.35-3.3-3.51-6.74-9.55-6.89-20.63-.2-2.52-.4-5.04-.59-7.56h694.4Z"/>
    </g>
    <g id="Zahnräder">
      <path class="cls-8" d="M342.52,45.73l-21.91-7.39c-1.08-8.65-3.58-17.14-7.46-25.09.05-.07,3.66-4.65,3.71-4.72l.05-.06c-.34-.56-.71-1.1-1.1-1.64-1.66-2.28-3.34-4.55-5-6.83h-132.97c-5.29,6.93-9.27,14.5-11.98,22.37l-22.95,2.75c-1.99,8.48-2.87,17.15-2.64,25.78l21.9,7.38c1.09,8.66,3.59,17.15,7.47,25.1l-14.29,18.18c4.48,7.23,9.94,14,16.37,20.09l20.71-10.27c.63.49,1.27.97,1.92,1.44,6.59,4.82,13.71,8.49,21.1,11.03l1.2,9.98,1.55,12.97c8.48,1.99,17.15,2.87,25.78,2.64l7.39-21.91c8.65-1.09,17.15-3.58,25.1-7.46l18.17,14.29c7.24-4.48,14-9.94,20.09-16.37l-10.26-20.71c5.53-7.12,9.67-14.9,12.46-23.02l22.95-2.76c2-8.48,2.87-17.15,2.64-25.77ZM271.31,73.67c-6.08,7.17-14.18,11.61-22.76,13.2-.9.17-1.81.3-2.73.41-.28.03-.57.06-.85.08-.03.01-.07.01-.1.01-.14.01-.28.02-.42.04-.11.5-.33,1.41-.77,2.47-3.06,7.28-12.55,12.05-21.05,11.04-3.16-.38-5.46-1.46-6.96-2.17-1.52-.71-3.49-1.64-5.38-3.07-1.68-1.26-3.29-2.92-4.48-5.17-.17-.32-.32-.63-.45-.95-.15-.34-.28-.67-.4-1-.09-.27-.18-.55-.26-.83-.05-.18-.11-.36-.15-.54-.89-3.6-.33-7.02.07-9.47.27-1.59.49-2.93.85-4.12h0c.3-.98.69-1.84,1.27-2.66.43-.61.95-1.15,1.53-1.63-8.96-14.11-8.16-32.94,3.22-46.36,14-16.52,38.75-18.56,55.27-4.55,16.52,14.01,18.55,38.76,4.55,55.27Z"/>
      <path class="cls-6" d="M458.96,194.79l9.09,5.21h-45.76c.98-.6,1.94-1.33,2.83-2.22.15-.15.3-.31.45-.48.13-.13.25-.27.37-.42.21-.25.41-.5.61-.77.16-.22.31-.44.46-.66,2.74-4.18,2.68-8.79,2.65-11.81-.02-1.66-.06-4.2-1.1-7.2-2.86-8.26-11.38-14.07-19.12-14.11-.23,0-.45,0-.65.02-.33,0-.6.02-.8.04-.52-.55-1.07-1.11-1.66-1.68-.07-.06-.13-.13-.2-.18-.24-.23-.49-.46-.74-.69-.25-.22-.5-.44-.76-.65-13.99-11.85-34.83-12.58-49.71-.74-12.81,10.18-17.55,26.75-13.29,41.55h-41.43c-.74-5.48-.91-11.01-.53-16.49l-20.05-11.5c1.46-8.51,4-16.84,7.6-24.78l23.06,1.77c4.31-7.42,9.89-14.25,16.7-20.15l-6.04-22.32c7.23-5.12,14.93-9.16,22.89-12.15l15.06,17.56c8.55-2.25,17.37-3.06,26.07-2.44l11.5-20.05c8.51,1.46,16.84,4,24.77,7.6l-1.76,23.06c7.42,4.31,14.25,9.9,20.15,16.71l22.32-6.05c5.12,7.23,9.16,14.93,12.14,22.89l-17.56,15.06c1.07,4.05,1.81,8.16,2.23,12.29.47,4.59.54,9.2.21,13.78Z"/>
      <path class="cls-9" d="M513.83,10.38l21.74-7.86c0-.84,0-1.68-.02-2.52h-62.01c.39,6.74-.98,13.67-4.29,20.1-9.92,19.25-33.57,26.82-52.82,16.9C402.25,29.7,394.41,14.95,395.23,0h-39.63c.19,2.52.39,5.04.59,7.56.15,11.08,3.59,17.12,6.89,20.63,7.69,8.17,20.56,8.87,22.25,17.35.2.98.21,1.76-.04,2.71-1.19,4.44-6.5,6.12-13.5,5.52l-9.21,19.65c5.99,6.04,12.84,11.39,20.47,15.88l17.86-14.67c8.18,3.78,16.71,6.06,25.24,6.95l7.86,21.74c8.71.03,17.36-1.07,25.71-3.24l2.25-23.01c8.19-3.02,15.9-7.36,22.77-12.94l20.94,9.83c6.03-6,11.39-12.84,15.88-20.48l-14.68-17.86c3.79-8.18,6.07-16.7,6.95-25.24Z"/>
      <path class="cls-2" d="M656.3,147.4c.53-3.38.84-6.79.93-10.21-2.37,1.15-4.68,1.27-6.75.1-.86-.48-1.4-1.04-1.96-1.87-4.85-7.16,3.69-16.81,3.27-28.02-.18-4.82-2.07-11.51-9.86-19.39-2.72-3.74-5.71-7.18-8.94-10.31h-.01c-3.05-2.98-6.3-5.65-9.72-8.05l3.71-22.82c-7.6-4.26-15.68-7.5-24.03-9.67l-13.17,19c-8.61-1.35-17.46-1.3-26.17.23l-13.52-18.77c-8.19,2.3-16.21,5.68-23.84,10.16l4.13,22.75c-7.28,5.31-13.42,11.64-18.35,18.67l-22.82-3.71c-4.26,7.6-7.5,15.69-9.67,24.04l19,13.16c-1.35,8.62-1.3,17.47.23,26.18l-18.77,13.52c2.3,8.19,5.68,16.2,10.16,23.83l22.75-4.13c5.15,7.07,11.26,13.06,18.04,17.91h93.6l-.08-.43c7.29-5.31,13.43-11.65,18.35-18.68l22.82,3.71c4.26-7.6,7.5-15.68,9.67-24.04l-19-13.16ZM599.13,167.7c-18.03,11.99-42.38,7.1-54.37-10.94-11.99-18.03-7.09-42.37,10.94-54.37,18.03-11.99,42.38-7.1,54.37,10.94,11.99,18.03,7.09,42.38-10.94,54.37Z"/>
      <path class="cls-3" d="M855.29,138.37c-.63-8.7-2.67-17.31-6.13-25.45l15.24-17.41c-4.09-7.46-9.18-14.5-15.28-20.93l-21.22,9.16c-.22-.19-.45-.39-.68-.57-6.64-5.63-13.95-10-21.65-13.1l-.55-8.24-.99-14.83c-8.36-2.44-16.97-3.77-25.59-4l-8.54,21.48c-8.7.63-17.31,2.67-25.45,6.13l-17.41-15.24c-7.45,4.09-14.5,9.18-20.93,15.28l9.16,21.23c-5.9,6.81-10.46,14.37-13.67,22.33l-23.07,1.53c-2.43,8.36-3.77,16.97-4,25.6l21.48,8.53c.63,8.7,2.67,17.32,6.13,25.46l-15.23,17.4c1.35,2.47,2.82,4.9,4.41,7.27h146.28l-1.57-3.63c5.91-6.82,10.46-14.38,13.67-22.34l23.07-1.53c2.44-8.36,3.77-16.97,4-25.6l-21.48-8.53ZM815.4,116.06c-.58,2.86-1,4.92-2.37,6.7-.79,1.03-1.81,1.84-3,2.46,7.98,14.52,6.13,33.11-5.86,45.81-14.86,15.75-39.68,16.48-55.43,1.61-15.76-14.86-16.47-39.68-1.61-55.44,6.78-7.19,15.64-11.25,24.77-12.12.31-.03.64-.06.97-.08.19-.02.38-.03.58-.03.14-.02.29-.02.43-.03.73-.03,1.42-.04,2.08-.04.16-.62.43-1.48.87-2.46,2.74-5.93,9.52-9.78,16.01-10.2,5.13-.33,8.94,1.55,12.27,3.2,2.21,1.1,4.35,2.16,6.17,3.63,1.35,1.1,2.53,2.42,3.42,4.17,2.37,4.66,1.35,9.64.7,12.82Z"/>
    </g>
    <g id="Hände_Arme" data-name="Hände/Arme">
      <path class="cls-7" d="M675.88,104.57c-2.22,13.43-7.84,27.43-18.65,32.62-2.37,1.15-4.68,1.27-6.75.1-.86-.48-1.4-1.04-1.96-1.87-4.85-7.16,3.69-16.81,3.27-28.02-.18-4.82-2.07-11.51-9.86-19.39-2.72-3.74-5.71-7.18-8.94-10.31h-.01c-.04-.06-.09-.11-.13-.16.48-2.46,1.07-5.06,1.84-7.78.54-1.94,1.13-3.79,1.75-5.56-6.88-21.4-13.74-42.8-20.61-64.2h44.37c2.98,12.56,8.66,55.94,10.04,60.73,2.43,8.48,5.93,15.94,6.61,25.03.4,5.3.16,11.98-.97,18.81Z"/>
      <path class="cls-7" d="M248.78,85.27c-.05.62-.14,1.16-.23,1.6-.9.17-1.81.3-2.73.41-.28.03-.57.06-.85.08-.03.01-.07.01-.1.01-.14.01-.28.02-.42.04-.11.5-.33,1.41-.77,2.47-3.06,7.28-12.55,12.05-21.05,11.04-3.16-.38-5.46-1.46-6.96-2.17-1.52-.71-3.49-1.64-5.38-3.07-1.68-1.26-3.29-2.92-4.48-5.17-3.6-6.84-2.49-19.42,5.3-22.84,7.36-3.23,17.63-.65,24.57,2.51,2.96,1.35,12.33,5.66,13.12,13.02.11,1.04-.01,2.07-.01,2.07Z"/>
      <path class="cls-7" d="M216.65,133.83c-11.13,16.55-22.58,33.26-34.35,50.1-3.77,5.39-7.53,10.75-11.31,16.07h-57.68c27.01-29.06,54.02-58.12,81.04-87.18,6.59,4.82,13.71,8.49,21.1,11.03l1.2,9.98Z"/>
      <path class="cls-4" d="M910.61,0c-27.8,27.72-55.59,55.44-83.39,83.17-6.64-5.63-13.95-10-21.65-13.1l-.55-8.24c11.57-15.86,23.45-31.86,35.65-47.99,3.51-4.64,7.02-9.26,10.53-13.84h59.41Z"/>
      <path class="cls-4" d="M497.45,200h-29.4l-9.09-5.21c.33-4.58.26-9.19-.21-13.78,12.79,6.18,25.7,12.5,38.7,18.99Z"/>
      <path class="cls-4" d="M815.4,116.06c-.58,2.86-1,4.92-2.37,6.7-.79,1.03-1.81,1.84-3,2.46-6.52,3.41-18.2,1.09-25.93-2.79-2.92-1.46-12.11-6.12-12.63-13.51-.07-1.04.09-2.06.09-2.06.09-.7.21-1.3.34-1.78.31-.03.64-.06.97-.08.19-.02.38-.03.58-.03.14-.02.29-.02.43-.03.73-.03,1.42-.04,2.08-.04.16-.62.43-1.48.87-2.46,2.74-5.93,9.52-9.78,16.01-10.2,5.13-.33,8.94,1.55,12.27,3.2,2.21,1.1,4.35,2.16,6.17,3.63,1.35,1.1,2.53,2.42,3.42,4.17,2.37,4.66,1.35,9.64.7,12.82Z"/>
      <path class="cls-4" d="M385.29,48.25c-1.19,4.44-6.5,6.12-13.5,5.52-8.15-.69-18.59-4.47-27.52-10.58-5.76-3.94-11.04-8.6-15.61-13.88-1.48-1.71-3.1-3.53-4.27-5.47-2.97-4.93-4.44-10.5-7.48-15.37-.34-.56-.71-1.1-1.1-1.64-1.66-2.28-3.34-4.55-5-6.83h44.79c.19,2.52.39,5.04.59,7.56.15,11.08,3.59,17.12,6.89,20.63,7.69,8.17,20.56,8.87,22.25,17.35.2.98.21,1.76-.04,2.71Z"/>
      <path class="cls-4" d="M427.01,195.45c-.15.22-.3.44-.46.66-.2.27-.4.52-.61.77-.12.15-.24.29-.37.42-.15.17-.3.33-.45.48-.89.89-1.85,1.62-2.83,2.22h-19.88c-4.48-5.18-7-14.51-7.19-21.86-.09-3.4-.32-13.37,5.98-17.5,1.28-.83,2.53-1.24,3.43-1.45.26.21.51.43.76.65.25.23.5.46.74.69.07.05.13.12.2.18.59.57,1.14,1.13,1.66,1.68.2-.02.47-.04.8-.04.2-.02.42-.02.65-.02,7.74.04,16.26,5.85,19.12,14.11,1.04,3,1.08,5.54,1.1,7.2.03,3.02.09,7.63-2.65,11.81Z"/>
    </g>
    <g id="Elemente">
      <path class="cls-1" d="M119.59,103.44c-6.2-8.67-14.18-23.01-17.01-42.05-2.1-14.13-.99-28.84,3.2-42.54l2.39.73c-4.08,13.35-5.16,27.68-3.12,41.44,2.76,18.55,10.53,32.52,16.57,40.97l-2.03,1.45Z"/>
      <path class="cls-1" d="M898.07,186.98l-2.19-1.21c5.01-9.1,11.09-23.88,11.65-42.63.42-13.91-2.34-28.01-7.96-40.79l2.29-1.01c5.77,13.12,8.6,27.59,8.17,41.87-.46,15.23-4.59,30.37-11.96,43.76Z"/>
      <path class="cls-1" d="M129.84,102.22c-8.89-12.44-14.77-26.98-17.01-42.06-2.1-14.13-.99-28.84,3.2-42.54l2.39.73c-4.08,13.34-5.16,27.67-3.12,41.44,2.76,18.55,10.53,32.52,16.57,40.97l-2.03,1.45Z"/>
      <path class="cls-1" d="M908.39,186.99l-2.19-1.21c5.01-9.1,11.09-23.89,11.65-42.63.42-13.91-2.34-28.01-7.96-40.79l2.29-1.01c5.77,13.11,8.6,27.59,8.17,41.87-.46,15.23-4.59,30.36-11.96,43.76Z"/>
    </g>
  </g>
</svg>