<?xml version="1.0" encoding="UTF-8"?>
<svg xmlns="http://www.w3.org/2000/svg" viewBox="0 0 1920 1080">
  <defs>
    <style>
      .cls-1 {
        fill: #b0d157;
      }

      .cls-2 {
        stroke-width: .25px;
      }

      .cls-2, .cls-3, .cls-4, .cls-5, .cls-6 {
        stroke: #000;
        stroke-linecap: round;
      }

      .cls-2, .cls-3, .cls-4, .cls-5, .cls-6, .cls-7 {
        fill: none;
        stroke-miterlimit: 10;
      }

      .cls-3 {
        stroke-width: .29px;
      }

      .cls-8 {
        fill: #64abd6;
      }

      .cls-4 {
        stroke-width: .32px;
      }

      .cls-5 {
        stroke-width: .19px;
      }

      .cls-6 {
        stroke-width: .19px;
      }

      .cls-9 {
        fill: #308fc9;
      }

      .cls-10 {
        fill: #73bbe7;
      }

      .cls-11 {
        fill: #40a6d9;
      }

      .cls-12 {
        fill: #cae08f;
      }

      .cls-13 {
        fill: #98c7e4;
      }

      .cls-14 {
        fill: #603813;
      }

      .cls-15 {
        fill: #873567;
      }

      .cls-16 {
        fill: #603813;
      }

      .cls-17 {
        fill: #fcd9bd;
      }

      .cls-18 {
        fill: #96cced;
      }

      .cls-19 {
        font-size: 56.95px;
      }

      .cls-19, .cls-20 {
        fill: #dcbd92;
      }

      .cls-19, .cls-21 {
        font-family: Arial-BoldMT, Arial;
        font-weight: 700;
      }

      .cls-22 {
        fill: #c39ab3;
      }

      .cls-23 {
        fill: #f2b885;
      }

      .cls-24 {
        opacity: .4;
      }

      .cls-24, .cls-25 {
        fill: #fff;
      }

      .cls-26 {
        fill: #ccc;
      }

      .cls-27 {
        fill: #825832;
      }

      .cls-28 {
        fill: #b47d49;
      }

      .cls-29 {
        fill: #fbeada;
      }

      .cls-30 {
        fill: #ec9447;
      }

      .cls-31 {
        fill: #706f6f;
      }

      .cls-32 {
        fill: #dddddc;
      }

      .cls-33 {
        fill: #dec1a8;
      }

      .cls-34, .cls-21 {
        fill: #236289;
      }

      .cls-21 {
        font-size: 100px;
      }

      .cls-35 {
        fill: #f9dbc2;
      }

      .cls-36 {
        fill: #cbe3f1;
      }

      .cls-37 {
        fill: #95c11f;
      }

      .cls-38 {
        fill: #b3b3b3;
      }

      .cls-39 {
        fill: #a5678d;
      }

      .cls-40 {
        fill: #5a89a6;
      }

      .cls-41 {
        fill: #206289;
      }

      .cls-42 {
        fill: #e0bf70;
      }

      .cls-43 {
        fill: #e6710a;
      }

      .cls-44 {
        fill: #e5f0c7;
      }

      .cls-45 {
        fill: #42210b;
      }

      .cls-7 {
        stroke: #236289;
      }

      .cls-46 {
        fill: #eaf5fb;
      }

      .cls-47 {
        fill: #08c;
      }

      .cls-48 {
        fill: #eee;
      }
    </style>
  </defs>
  <g id="Himmel">
    <rect class="cls-46" x="-5.47" y="-13.72" width="1945.79" height="647.74"/>
  </g>
  <g id="Boden">
    <rect class="cls-26" x="-5.47" y="724.03" width="1928.99" height="367.33"/>
  </g>
  <g id="Wiese">
    <path class="cls-44" d="M1922.58,836.95c-81.63-10.21-170.07-18.16-264.59-22.31-95.18-4.17-184.58-3.95-267.3-.86-149.88,14.06-299.93,25.34-450.14,33.86-314.66,17.83-630,23.5-946.02,17.01v-262.1h1928.99c-.31,78.14-.63,156.27-.94,234.41Z"/>
  </g>
  <g id="Sonne">
    <ellipse class="cls-29" cx="1154.01" cy="220.64" rx="279.18" ry="259.54"/>
    <ellipse class="cls-35" cx="1154.01" cy="220.64" rx="246.08" ry="228.76"/>
    <ellipse class="cls-23" cx="1154.01" cy="220.64" rx="212.56" ry="197.6"/>
    <ellipse class="cls-30" cx="1154.01" cy="220.64" rx="177.58" ry="165.08"/>
  </g>
  <g id="Bäume">
    <g>
      <path class="cls-14" d="M218.48,669.79c-2.52,1.22-7.32,3.14-13.62,3.21-6.65.06-11.69-1.97-14.24-3.21,1.65-3.98,4.07-10.57,5.61-18.99,2.34-12.8,1.03-20.88.31-42.9-.19-5.76-.41-14.59-.37-25.53h16.84c-2.68,12.8-3.6,23.83-3.86,32.19-.33,10.42-.62,21.88,2.86,36.24,1.93,7.99,4.45,14.44,6.47,18.99Z"/>
      <path class="cls-12" d="M272.57,551.41c-5.62,13.47-35.27,32.59-68.73,32.28-33.09-.3-61.51-19.63-66.96-32.28-34.36-79.69,37.89-276.38,67.84-276.1,34.36.32,100.44,198.01,67.84,276.1Z"/>
    </g>
    <g>
      <path class="cls-14" d="M780.39,791.88c-2.85,1.38-8.28,3.56-15.42,3.63-7.52.07-13.23-2.23-16.12-3.63,1.87-4.5,4.6-11.96,6.35-21.49,2.65-14.49,1.16-23.64.35-48.56-.21-6.52-.46-16.51-.41-28.89h19.06c-3.03,14.49-4.07,26.97-4.37,36.44-.37,11.79-.7,24.77,3.24,41.02,2.19,9.04,5.03,16.34,7.33,21.49Z"/>
      <path class="cls-37" d="M841.61,657.9c-6.37,15.25-39.91,36.88-77.78,36.54-37.45-.34-69.61-22.22-75.79-36.54-38.89-90.2,42.88-312.8,76.79-312.49,38.89.36,113.68,224.1,76.79,312.49Z"/>
    </g>
    <g>
      <path class="cls-14" d="M320.4,707.93c-2.63,1.27-7.62,3.28-14.2,3.34-6.92.07-12.18-2.05-14.84-3.34,1.72-4.15,4.24-11.01,5.85-19.78,2.44-13.34,1.07-21.76.32-44.71-.2-6.01-.42-15.2-.38-26.6h17.55c-2.79,13.34-3.75,24.83-4.03,33.55-.35,10.86-.64,22.8,2.98,37.76,2.02,8.32,4.63,15.04,6.74,19.78Z"/>
      <path class="cls-37" d="M376.77,584.58c-5.86,14.04-36.75,33.96-71.61,33.64-34.48-.32-64.09-20.45-69.78-33.64-35.81-83.04,39.48-287.98,70.69-287.7,35.81.33,104.66,206.32,70.69,287.7Z"/>
    </g>
    <g>
      <path class="cls-14" d="M49.75,762.04c-2.85,1.38-8.28,3.56-15.42,3.63-7.52.07-13.23-2.23-16.12-3.63,1.87-4.5,4.6-11.96,6.35-21.49,2.65-14.49,1.16-23.64.35-48.56-.21-6.52-.46-16.51-.41-28.89h19.06c-3.03,14.49-4.07,26.97-4.37,36.44-.37,11.79-.7,24.77,3.24,41.02,2.19,9.04,5.03,16.34,7.33,21.49Z"/>
      <path class="cls-37" d="M110.97,628.06c-6.37,15.25-39.91,36.88-77.78,36.54-37.45-.34-69.61-22.22-75.79-36.54C-81.5,537.86.28,315.26,34.18,315.57c38.89.36,113.68,224.1,76.79,312.49Z"/>
    </g>
    <g>
      <path class="cls-14" d="M675.9,835.89c-2.52,1.22-7.32,3.14-13.62,3.21-6.65.06-11.69-1.97-14.24-3.21,1.65-3.98,4.07-10.57,5.61-18.99,2.34-12.8,1.03-20.88.31-42.9-.19-5.76-.41-14.59-.37-25.53h16.84c-2.68,12.8-3.6,23.83-3.86,32.19-.33,10.42-.62,21.88,2.86,36.24,1.93,7.99,4.45,14.44,6.47,18.99Z"/>
      <path class="cls-1" d="M729.99,717.52c-5.62,13.47-35.27,32.59-68.73,32.28-33.09-.3-61.51-19.63-66.96-32.28-34.36-79.69,37.89-276.38,67.84-276.1,34.36.32,100.44,198.01,67.84,276.1Z"/>
    </g>
    <g>
      <path class="cls-14" d="M124.69,841.2c-2.52,1.22-7.32,3.14-13.62,3.21-6.65.06-11.69-1.97-14.24-3.21,1.65-3.98,4.07-10.57,5.61-18.99,2.34-12.8,1.03-20.88.31-42.9-.19-5.76-.41-14.59-.37-25.53h16.84c-2.68,12.8-3.6,23.83-3.86,32.19-.33,10.42-.62,21.88,2.86,36.24,1.93,7.99,4.45,14.44,6.47,18.99Z"/>
      <path class="cls-1" d="M178.78,722.82c-5.62,13.47-35.27,32.59-68.73,32.28-33.09-.3-61.51-19.63-66.96-32.28-34.36-79.69,37.89-276.38,67.84-276.1,34.36.32,100.44,198.01,67.84,276.1Z"/>
    </g>
  </g>
  <g id="Text_Blase">
    <g id="Textblase">
      <path class="cls-24" d="M968.98,360.54c-20.96,44.77-69.71,71.32-114.77,93.84-74.36,37.16-150.7,74.92-233.32,84.07-69.04,7.64-139-5.27-205.14-26.49-66.15-21.21-129.31-50.62-193.51-77.14-50.19-20.73-105.01-43.01-131.67-90.32-31.66-56.16-15.54-141.23,27.45-187.36,54.97-58.98,156.29-34.67,227.3-27.07,119.6,12.81,240.76,9.53,359.85-7.4,51.63-7.34,106.05-16.95,154.52,2.3,46.39,18.42,79.48,60.88,100.13,106.32,16.94,37.29,26.92,80.47,13.33,119.1-1.23,3.48-2.61,6.86-4.15,10.14Z"/>
    </g>
  </g>
  <g id="Titel:_Die_Macht_der_Metadaten">
    <text class="cls-21" transform="translate(178.61 282.3)"><tspan x="0" y="0">Die Macht der </tspan><tspan x="94.48" y="110">Metadaten</tspan></text>
  </g>
  <g id="Haus">
    <g>
      <rect class="cls-16" x="915.75" y="327.17" width="1024.57" height="34.34"/>
      <rect class="cls-28" x="1284.39" y="178.49" width="479.64" height="579.34"/>
      <rect class="cls-28" x="932.55" y="361.51" width="990.97" height="396.99"/>
      <rect class="cls-16" x="1252.71" y="115.16" width="542.99" height="43.44"/>
      <rect class="cls-16" x="1272.62" y="151.35" width="503.17" height="27.15"/>
      <rect class="cls-16" x="915.75" y="753.82" width="1024.57" height="34.34"/>
      <path class="cls-38" d="M1658.14,802.53v12.94h-267.87v-12.94h13.14v-14.18h14.41c11.69-11.51,23.38-23.01,35.07-34.53h137.11c12.73,11.51,25.45,23.01,38.16,34.53h15.67v14.18h14.31Z"/>
      <rect class="cls-16" x="1266.21" y="560.01" width="511.62" height="43.83"/>
      <rect class="cls-32" x="1321.12" y="295.07" width="66.97" height="238.92"/>
      <rect class="cls-32" x="1431.08" y="295.07" width="66.97" height="238.92"/>
      <rect class="cls-32" x="1537.55" y="295.07" width="66.97" height="238.92"/>
      <rect class="cls-32" x="1655.96" y="295.07" width="66.97" height="238.92"/>
      <rect class="cls-32" x="1321.72" y="625.56" width="92.31" height="108.5"/>
      <rect class="cls-32" x="1631.22" y="625.56" width="92.31" height="108.5"/>
      <rect class="cls-32" x="962.53" y="493.1" width="275.8" height="54.3"/>
      <rect class="cls-32" x="963.49" y="583.26" width="275.8" height="54.3"/>
      <rect class="cls-32" x="961.83" y="402.93" width="275.8" height="54.3"/>
      <rect class="cls-32" x="1805.58" y="493.1" width="118" height="54.3"/>
      <rect class="cls-32" x="1805.99" y="583.26" width="117.59" height="54.3"/>
      <rect class="cls-32" x="1805.27" y="402.93" width="118.3" height="54.3"/>
      <rect class="cls-26" x="1452.89" y="616.71" width="137.12" height="137.12"/>
      <text class="cls-19" transform="translate(1321.72 256.86)"><tspan x="0" y="0">HOCHSCHULE</tspan></text>
    </g>
  </g>
  <g id="Person:_Frau_links">
    <path class="cls-30" d="M372.27,751.68c-.4-.14-1.87-.61-3.38.09-.92.43-1.48,1.08-1.7,1.41-.54.84-.77,1.53-.95,1.98-1.96,4.87-3.86,10.4-5.46,16.55-2.79,10.78-3.9,20.55-4.21,28.63.94-.05,1.88-.1,2.82-.14.49-7.35,1.59-15.97,3.82-25.44,1.97-8.35,4.42-15.68,6.9-21.89.71-.4,1.43-.79,2.14-1.19Z"/>
    <g>
      <path class="cls-45" d="M402.25,743.98c.19.22,1.24,1.38,2.96,1.47,2.19.11,3.52-1.6,3.63-1.75,2.52.15,4.53-1.56,4.7-3.49.12-1.34-.65-2.69-1.9-3.54,2.58-.11,4.73-2.03,5.12-4.53.41-2.6-1.19-5.17-3.75-5.98,2.19-.35,3.82-2.24,3.85-4.44.02-2.16-1.51-4.07-3.65-4.5,1.09-1.99,1.01-4.39-.21-6.18-1.47-2.16-4.35-3.08-6.99-2.15-.01-.26-.24-4.02-3.49-5.91-2.44-1.42-5.57-1.21-7.93.54-1.17-1.36-3.01-1.94-4.7-1.48-1.86.51-3.22,2.18-3.36,4.17-.37-.07-4.67-.77-7.79,2.42-2.6,2.65-2.45,6.03-2.42,6.58-2.12,1-3.56,3.05-3.76,5.37-.21,2.4.93,4.72,2.96,6.05-1.75.82-2.89,2.54-2.96,4.43-.07,2.06,1.16,3.99,3.09,4.84-1.53,1-2.07,2.94-1.34,4.43.61,1.25,2.01,2.02,3.49,1.88.32,1.28,1.33,2.26,2.59,2.54,1.36.3,2.79-.28,3.59-1.46.47.62,1.18,1.36,2.02,1.33.82-.03,1.18-.77,1.74-1.2,2.69-2.09,8.74,3.76,13,1.72.41-.2.95-.54,1.5-1.17Z"/>
      <path class="cls-28" d="M441.83,999.62c-.47.16-1.01.31-1.59.43-1.1.25-2.36.42-3.77.44-1.98.02-3.7-.27-5.06-.64-.26-.07-.51-.15-.74-.22.21-.12.44-.21.7-.31-1.61-4.78-3.2-9.81-4.74-15.05,4.01-.38,8.03-.76,12.04-1.14.39,5.31.75,10.56,1.07,15.78.82.18,1.53.42,2.09.71Z"/>
      <path class="cls-28" d="M402.46,750.4c-.75.7-1.81,1.55-3.18,2.32-1.26.74-2.8,1.39-4.58,1.81-.65.16-1.34.27-2.07.36-1.69.17-3.23.07-4.62-.18-2.31-.41-4.18-1.23-5.49-1.97,1.75-.32,3.55-.61,5.39-.87v-10.16c3.9,1,7.87.44,11.24-1.31.09.39.14.8.14,1.21v9.02c1.07-.08,2.14-.16,3.18-.22Z"/>
      <path class="cls-28" d="M375.36,999.21c.25.11.47.22.66.36-.24.08-.51.17-.78.24-1.39.39-3.15.71-5.2.68-1.95-.03-3.62-.36-4.94-.74-.31-.09-.59-.19-.85-.27.24-.15.53-.28.84-.4,0-.16.01-.32.03-.48-.17-4.78-.32-9.61-.43-14.46,4.22.24,8.45.47,12.66.72-.8,5.73-1.45,10.46-1.92,13.88-.01.14-.03.29-.07.47Z"/>
      <path class="cls-45" d="M378.99,1007.06v1.8h-35.59v-1.8s.28-1.69,9.31-4.31c4.16-1.19,7.36-2.71,10.64-3.61.26.11.57.22.9.34.26.08.55.18.85.27,1.32.38,2.99.71,4.94.74,2.05.02,3.81-.29,5.2-.68.27-.07.54-.16.78-.24.44-.14.83-.28,1.17-.42.44.97.94,2.21,1.28,3.68.38,1.64.52,3.12.52,4.24Z"/>
      <path class="cls-45" d="M409.83,1007.06v1.8h35.59v-1.8c0-1.13-.13-2.6-.52-4.24-.35-1.46-.84-2.71-1.28-3.68-.38.16-.83.33-1.36.48-.23.07-.47.15-.74.22-1.36.37-3.08.66-5.06.64-1.41-.02-2.68-.19-3.77-.44-.58-.13-1.12-.27-1.59-.43-.51-.16-.95-.33-1.33-.47-3.28.91-6.48,2.42-10.64,3.61-9.03,2.62-9.31,4.31-9.31,4.31Z"/>
      <path class="cls-34" d="M448.78,982.18c-3.37.32-6.74.63-10.11.96-4.01.38-8.03.76-12.04,1.14-2.63.24-5.27.5-7.89.75-2.05-25.92-5.4-53.99-10.61-83.78-3.94-22.44-8.51-43.57-13.44-63.26v-39.22c5,.02,10.02.02,15.02.03.24.31.48.63.73.96,4.41,5.87,10.28,14.91,14.66,26.93,1.06,2.93,1.92,5.71,2.66,8.8h0c1.08,4.53,1.92,9.7,2.78,16.93.71,5.92,1.43,13.23,2.33,22.69,1.76,18.73,2.82,31.35,3.18,35.35,1.5,16.88,4.76,41.28,12.72,71.73Z"/>
      <path class="cls-40" d="M394.7,798.76v39.22c-2.66,18.86-4.87,38.92-6.36,60.09-2.21,31.28-2.57,60.51-1.77,87.3-3.06-.17-6.14-.35-9.22-.52-4.21-.24-8.44-.47-12.66-.72-3.19-.18-6.38-.36-9.57-.54,3.58-32.57,4.13-56.71,3.89-73.16-.03-2.89-.22-13.68,0-28.29.35-22.58.51-33.89,2.48-42.75.05-.26.12-.53.17-.79.71-3.04,1.71-6.58,3.18-10.5,3.04-8.15,8.13-17.97,16.79-28.5.23-.28.47-.58.72-.86,4.13,0,8.26.01,12.36.01Z"/>
      <path class="cls-15" d="M406.95,763.73c2.94,1.48,5.88,2.96,8.82,4.43-.41,1.02-1.35,3.5-1.86,6.21-.29,1.53-.42,3.02-.42,3.02-.04.48-.05.77-.12,2.01-.05.92-.11,1.99-.18,3.18-.31,5.68-.47,11.17-.56,16.48-3.75,1.27-9.53,2.74-16.69,2.7-.41,0-.82-.02-1.24-.03v-47.19c3.7-.85,6.31-2.79,7.76-4.13.58-.52.97-.95,1.17-1.18,3.73-.03,7.46-.06,11.19-.09h0c-1.31.04-2.6.37-3.8,1.01h-.01c-.36.18-.71.39-1.04.63l-1.02.74c-3.91,2.81-4.8,8.31-1.99,12.22Z"/>
      <path class="cls-39" d="M394.7,754.53v47.19c-6.47-.19-11.7-1.58-15.19-2.79-.56-2.64-1.17-5.36-1.8-8.1-.6-2.6-1.36-5.84-2.44-9.78-.48-1.77-1.17-4.18-2.08-7.04,2.19-2.1,4.37-4.2,6.56-6.3,2.54-4.12,1.24-9.56-2.88-12.1l-1.15-.72c-.32-.2-.67-.39-1.06-.56-1.84-.79-3.59-.72-4.68-.57,3.52-.77,7.05-1.54,10.57-2.31.31.23.98.74,1.96,1.28,2.11,1.18,5.66,2.59,10.11,2.15.74-.08,1.42-.2,2.07-.36Z"/>
      <path class="cls-39" d="M378.37,770.58l-6.59,4.36h0s-2.34,1.55-2.34,1.55l-7.49,4.96-.82-1.25-7.42-11.2-2.21-3.35,16.42-10.88c2.25-1.49,4.95-1.81,7.36-1.07h0s.04.01.06.02c1.53.45,2.95,1.33,4.04,2.58.27.3.5.62.73.95l.74,1.13c2.67,4.03,1.56,9.52-2.47,12.19Z"/>
      <g>
        <path class="cls-28" d="M457.25,725.81c.2-.82.2-1.65.04-2.43h0c-.59-13.17-1.18-26.32-1.78-39.48.86-.48,1.86-1.14,2.84-2.08.68-.63,2.28-2.47,3.46-5.25,1.75-4.08,1.52-8.96-.68-9.1-1.85-.12-1.08,3.12-2.92,5.9-.98,1.49-3.66,2.23-3.57,1.32.19-1.96.07-3.98-.72-4.37-.24-.11-.45-.15-.64-.12-.64.08-1.03.81-1.34,1.44-1.18,2.46-1.43,3.95-1.43,3.95-.76,2.61-1.17,4.58-1.15,5.25,0,.28.05.54.05.54.08.53.24.95.38,1.24-.81,6.64-1.54,13.5-2.16,20.58-.56,6.37-1,12.59-1.33,18.65-7.41,6.53-14.82,13.07-22.22,19.61l8.53,11.58c7.43-7.91,14.85-15.82,22.27-23.75.05-.04.09-.08.12-.13.07-.07.14-.13.21-.21.01,0,.01,0,.02-.02.96-.75,1.68-1.83,2-3.11Z"/>
        <path class="cls-15" d="M434.2,755.16l-1.57-2.13-8.53-11.58-1.03-1.39-6.51,4.8-1.81,1.32h0s-7.57,5.59-7.57,5.59c-3.87,2.86-4.71,8.37-1.85,12.24l.75,1.01c.25.33.51.64.8.92h.01c.95.98,2.08,1.69,3.31,2.12,2.64.94,5.7.59,8.12-1.19l15.9-11.71Z"/>
      </g>
      <g>
        <path class="cls-28" d="M410.85,727.59v1.21c0,1.77-1.44,3.22-3.22,3.22-.31,0-.6-.04-.88-.13-1.43,3.78-4.2,6.75-7.6,8.5-3.37,1.75-7.34,2.31-11.24,1.31-.21-.04-.42-.11-.63-.17-6.28-1.87-10.17-8.03-9.44-14.33-.95-.72-1.47-1.93-1.24-3.17l.22-1.19c.26-1.45,1.49-2.51,2.9-2.62l1-3.36c1.89-6.33,7.75-10.46,14.07-10.46,1.37,0,2.77.2,4.15.61,7.52,2.24,11.92,10.09,10.01,17.63,1.13.51,1.92,1.64,1.92,2.95Z"/>
        <path class="cls-14" d="M399.32,740.31c-.9.47-2.1,1-3.59,1.38-1.6.41-3.01.51-4.08.5,2.55,1.69,5.1,3.37,7.65,5.06,0-1.03-.01-2.07-.01-3.11,0-1.29.01-2.57.03-3.84Z"/>
        <path class="cls-14" d="M408.3,726.72c.23,0,.55.92.3,1.76-.18.6-.66,1.2-.86,1.12-.37-.15.16-2.88.55-2.88Z"/>
        <g>
          <path class="cls-45" d="M395.03,719.77c.43-.11,1.23-.25,2.18-.06,1.2.24,1.99.87,2.34,1.18.76-.17.98-.42,1.03-.62.16-.71-1.54-1.94-3.28-2.2-1.18-.18-2.73.04-2.89.66-.08.32.23.7.62,1.03Z"/>
          <path class="cls-45" d="M388.36,718.91c-.31-.32-.9-.86-1.82-1.21-1.15-.44-2.15-.32-2.61-.25-.55-.55-.61-.88-.54-1.07.24-.69,2.34-.82,3.95-.11,1.09.48,2.29,1.49,2.09,2.1-.11.32-.57.47-1.07.54Z"/>
          <rect x="395.45" y="721.03" width="2.34" height="2.75" rx="1.17" ry="1.17" transform="translate(668.99 1500.21) rotate(-170.53)"/>
          <rect x="384.12" y="719.14" width="2.34" height="2.75" rx="1.17" ry="1.17" transform="translate(646.81 1494.59) rotate(-170.53)"/>
          <path class="cls-6" d="M390.47,724.64c-.08.51-.16.84-.24,1.35-.05.19-.14.58-.26.82-.32.63-.86.94-1.15,1.13-.77.5-.88.99-.78,1.41.13.55,1.1,1.05,2.24.65"/>
        </g>
      </g>
      <path class="cls-6" d="M394.35,733.58c-.58.62-1.52,1.48-2.67,1.97-1.26.53-2.24.37-2.8.19"/>
      <path class="cls-45" d="M411.19,723.49c-.17.21-.64.76-1.47,1.01-1.02.31-1.86-.04-2.09-.14-.2.24-.75.82-1.67,1.08-1.15.32-2.09-.08-2.35-.2-.96-.48-1.55-1.46-1.5-2.48.06-1.31,1.14-2.02,1.24-2.09-.44-.06-2.39-.38-3.85-2.15-1.42-1.73-1.39-3.65-1.37-4.11-1.56,1.58-3.8,2.15-5.68,1.44-1.76-.67-2.54-2.2-2.74-2.61-2.16,2.26-4.87,3.13-6.65,2.22-.15-.08-2-1.05-2.02-2.74,0-.7.31-1.26.52-1.57,0-.14-.06-1.37.95-2.22,1.08-.92,2.41-.55,2.51-.52.82-.69,2.2-1.67,4.14-2.32,2.35-.78,4.38-.69,5.51-.55,1.26-.01,3.11.11,5.22.82,2.62.88,4.44,2.25,5.48,3.16,1.04.67,3.27,2.31,4.79,5.32,1.48,2.91,1.52,5.59,1.47,6.82-.15.61-.3,1.22-.46,1.83Z"/>
      <path class="cls-28" d="M340.5,842.09c-.14.13-.33.23-.58.28-.87.14-2.15-1.42-3.13-3.13-.45-.8-2.2,1.36-2.13,3.15.12,3.34,2.64,5.51,1.05,6.5-1.16.72-4.59-3.07-5.84-7.01-.85-2.7-.88-5.78.16-8.43.5-1.27,1.26-2.39,2.27-3.31-.34-6.9-.5-14.17-.42-21.78.05-4.51.18-9.01.38-13.51.18-3.96-.63-8.71,2.75-11.6.06-.05.11-.1.15-.13,6.18-4.7,12.36-9.4,18.54-14.11l7.42,11.2c-5.89,3.65-11.77,7.31-17.67,10.96-.65,5.91-1.44,12.03-2.41,18.34-1.13,7.41-2.4,14.51-3.77,21.27.3.71.76,1.78,1.34,3.08.62,1.37.72,1.52,1,2.25.67,1.76.99,3.14,1.14,4.06.12.68.22,1.51-.25,1.94Z"/>
    </g>
    <path class="cls-30" d="M371.09,753.48c3.14,5.38,6.63,12.42,9.41,21.02,3.04,9.39,4.32,17.8,4.84,24.38,1-.05,2.01-.1,3.01-.15-.26-6.55-1.33-15.56-4.77-25.68-2.89-8.51-6.6-15.28-9.82-20.25-.58-.68-1.16-.98-1.49-1.12-.2-.09-.37-.14-.43-.16-.59-.17-1.11-.16-1.44-.13-.21.8-.43,1.6-.64,2.4.05-.07.25-.32.62-.4.35-.08.63.04.71.08Z"/>
    <path class="cls-30" d="M349.97,798.92c-1.3,8.16-2.43,16.89-3.27,26.14-.85,9.37-1.31,18.26-1.49,26.61,5.43,2.16,14.1,4.85,25.02,5.04,13.01.23,23.19-3.18,28.94-5.6-.63-8.86-1.34-17.86-2.15-26.98-.84-9.56-1.76-18.97-2.75-28.22-6.48,1.59-14.41,3.01-23.5,3.52-7.84.44-14.85.12-20.79-.51Z"/>
  </g>
  <g id="Deko">
    <g>
      <g>
        <path class="cls-40" d="M1387.56,964.84v32.17c0,3.05-2.47,5.52-5.52,5.52h-57.42c-3.05,0-5.52-2.47-5.52-5.52v-32.17c0,5.69,4.61,10.3,10.3,10.3h47.86c5.69,0,10.3-4.61,10.3-10.3Z"/>
        <path class="cls-34" d="M1387.56,955.05v9.8c0,5.69-4.61,10.3-10.3,10.3h-47.86c-5.69,0-10.3-4.61-10.3-10.3v-9.8c0-2.08,1.68-3.77,3.77-3.77h60.92c2.08,0,3.77,1.68,3.77,3.77Z"/>
        <rect class="cls-48" x="1346.26" y="972.53" width="14.14" height="5.44"/>
        <path class="cls-34" d="M1368.7,948.77h-4.09c-2.15-4.25-6.53-6.94-11.29-6.93-4.75,0-9.11,2.69-11.26,6.93h-4.09c2.53-6.21,8.57-10.3,15.25-10.35,6.76-.05,12.92,4.07,15.48,10.35Z"/>
        <path class="cls-40" d="M1345.39,950.34v.94s-10.48,0-10.48,0v-.94c0-.87.7-1.56,1.56-1.56h7.35c.86,0,1.56.7,1.56,1.56Z"/>
      </g>
      <path class="cls-40" d="M1371.75,950.34v.94s-10.48,0-10.48,0v-.94c0-.87.7-1.56,1.56-1.56h7.35c.86,0,1.56.7,1.56,1.56Z"/>
    </g>
    <g>
      <path class="cls-28" d="M822.73,965.09c0,6.24-.46,13.62-1.92,21.79-.73,4.09-1.63,7.92-2.61,11.46-2.29,8.2-9.78,13.86-18.3,13.86h-39.02c-8.52,0-16.01-5.66-18.3-13.86-.99-3.54-1.88-7.37-2.61-11.46-1.46-8.17-1.92-15.55-1.92-21.79,0-1.56,1.27-2.83,2.83-2.83h79.02c1.56,0,2.83,1.27,2.83,2.83Z"/>
      <path class="cls-27" d="M766.55,962.26h27.68v18.67c0,1.56-1.27,2.83-2.83,2.83h-22.02c-1.56,0-2.83-1.27-2.83-2.83v-18.67h0Z"/>
      <g>
        <circle class="cls-16" cx="752.76" cy="968.01" r="2.81"/>
        <circle class="cls-16" cx="808.02" cy="968.01" r="2.81"/>
      </g>
      <path class="cls-27" d="M808.02,969.76h-.03c-.97-.02-1.74-.81-1.72-1.78.16-10.37-3.49-20.05-10.01-26.57-4.68-4.68-10.48-7.2-16.35-7.11-14.54.24-25.69,15.03-25.4,33.67.01.97-.76,1.76-1.72,1.78h-.03c-.95,0-1.73-.77-1.75-1.72-.33-20.6,12.34-36.95,28.84-37.23,6.81-.08,13.52,2.77,18.89,8.13,7.19,7.18,11.21,17.78,11.04,29.1-.01.96-.8,1.72-1.75,1.72Z"/>
      <path class="cls-23" d="M776.89,962.26h7.01v26.78c0,1.03-.83,1.86-1.86,1.86h-3.29c-1.03,0-1.86-.83-1.86-1.86v-26.78h0Z"/>
      <g>
        <path class="cls-35" d="M783.57,975.51h-6.35c-.69,0-1.26.57-1.26,1.26v6.35c0,.69.57,1.26,1.26,1.26h6.35c.69,0,1.26-.57,1.26-1.26v-6.35c0-.69-.57-1.26-1.26-1.26ZM783.9,982.45c0,.55-.45,1-1,1h-5.02c-.55,0-1-.45-1-1v-5.01c0-.55.45-1,1-1h5.01c.55,0,1,.45,1,1v5.01Z"/>
        <rect class="cls-35" x="779.79" y="979.91" width="1.21" height="5.44" rx=".6" ry=".6"/>
      </g>
    </g>
    <g>
      <rect class="cls-39" x="951.57" y="909.94" width="55.62" height="72.32" rx="3.08" ry="3.08"/>
      <path class="cls-15" d="M954.39,932.79v-22.85h49.98v22.84c0,2.41-1.69,4.57-4.28,5.5-5.04,1.8-12.57,3.73-21.83,3.56-8.22-.15-14.94-1.89-19.62-3.57-2.58-.93-4.26-3.09-4.26-5.49Z"/>
      <g>
        <rect class="cls-43" x="960.95" y="908.33" width="5.98" height="40.27" rx="1.3" ry="1.3"/>
        <rect class="cls-43" x="991.84" y="908.33" width="5.98" height="40.27" rx="1.3" ry="1.3"/>
      </g>
      <g>
        <path class="cls-43" d="M949.26,947.84h2.44v30.26h-2.44c-1.34,0-2.44-1.09-2.44-2.44v-25.39c0-1.34,1.09-2.44,2.44-2.44Z"/>
        <path class="cls-43" d="M1009.51,947.84h2.44v30.26h-2.44c-1.34,0-2.44-1.09-2.44-2.44v-25.39c0-1.34,1.09-2.44,2.44-2.44Z" transform="translate(2019.01 1925.95) rotate(-180)"/>
      </g>
      <g>
        <g>
          <path class="cls-35" d="M997.52,933.24h-5.39c-.59,0-1.07.48-1.07,1.07v5.39c0,.59.48,1.07,1.07,1.07h5.39c.59,0,1.07-.48,1.07-1.07v-5.39c0-.59-.48-1.07-1.07-1.07ZM997.8,939.13c0,.46-.38.84-.85.84h-4.25c-.46,0-.85-.38-.85-.84v-4.25c0-.47.38-.85.85-.85h4.25c.46,0,.85.38.85.85v4.25Z"/>
          <rect class="cls-35" x="994.32" y="936.98" width="1.03" height="4.62" rx=".51" ry=".51"/>
        </g>
        <g>
          <path class="cls-35" d="M966.63,933.24h-5.39c-.59,0-1.07.48-1.07,1.07v5.39c0,.59.48,1.07,1.07,1.07h5.39c.59,0,1.07-.48,1.07-1.07v-5.39c0-.59-.48-1.07-1.07-1.07ZM966.91,939.13c0,.46-.38.84-.85.84h-4.25c-.46,0-.85-.38-.85-.84v-4.25c0-.47.38-.85.85-.85h4.25c.46,0,.85.38.85.85v4.25Z"/>
          <rect class="cls-35" x="963.43" y="936.98" width="1.03" height="4.62" rx=".51" ry=".51"/>
        </g>
      </g>
      <path class="cls-15" d="M986.9,909.95h-2.49c-.35-.85-.69-1.69-1.04-2.54-.2-.5-.69-.82-1.22-.82h-5.75c-.58,0-1.08.37-1.26.92-.26.81-.52,1.63-.77,2.44h-2.49c.43-1.37.87-2.74,1.3-4.11.17-.55.68-.92,1.26-.92h9.52c.54,0,1.02.32,1.22.82.57,1.4,1.15,2.81,1.72,4.21Z"/>
      <path class="cls-43" d="M963.42,957.75h31.73v15.52c0,2.67-2.17,4.84-4.84,4.84h-22.05c-2.67,0-4.84-2.17-4.84-4.84v-15.52h0Z"/>
      <rect class="cls-15" x="961.82" y="953.05" width="34.92" height="7.97" rx="1.23" ry="1.23"/>
      <rect class="cls-35" x="976.05" y="957.66" width="6.67" height="1.37" rx=".68" ry=".68"/>
    </g>
  </g>
  <g id="Person:_Mann_links">
    <g>
      <g>
        <path class="cls-42" d="M259.57,937.63h-.01c-.52,12.04-.27,26.13,1.65,41.72,1.32,10.72,3.22,20.5,5.35,29.22.22.89.13,1.81-.22,2.66-.3.72-.52,1.65-.32,2.63.68,3.3,5.48,4.19,5.99,4.29,5.23.97,10.62-2.62,10.41-4.45-.07-.57-.66-.73-1.86-2.49-.22-.32-.41-.62-.57-.9-.38-.65-.57-1.39-.55-2.14.27-8.84.34-18.03.17-27.54-.27-15.52-1.17-30.2-2.47-43.94.7-4.93-2.77-9.61-7.94-10.18-4.69-.51-9.04,2.84-9.8,7.5-.2,1.25-.14,2.47.16,3.63Z"/>
        <path class="cls-42" d="M242.82,871.3c.02.07.06.16.13.23.79,11.77,2.98,26.22,8.13,42.03,2.41,7.36,5.14,13.98,7.9,19.87.54,3.83,3.53,6.99,7.53,7.6,4.9.75,9.48-2.61,10.22-7.51.12-.79.14-1.57.06-2.31h.01c.8-10.02,1.21-21.08.92-33.03-.33-14.1-1.55-26.97-3.22-38.38-.01,0-.02.01-.03.01,0-.01,0-.04-.01-.06-.87-2.36-8.64-1.68-17.38,1.51-8.74,3.19-15.12,7.69-14.27,10.04Z"/>
        <path class="cls-42" d="M201.81,928.66h-.01c-6.93,9.87-14.3,21.88-21.09,36.03-4.66,9.7-8.33,18.93-11.25,27.41-.41,1.19-1.24,2.18-2.31,2.84-1.19.73-2.66,1.99-3.11,3.9-.83,3.5,2.41,6.42,3.84,7.71,3.55,3.2,9.4,5.16,10.97,3.27.77-.93.38-2.63-.3-4.24-1-2.38-.66-5.12,1-7.1,2.41-2.87,5.28-6.48,8.3-10.78,3.63-5.16,5.99-9.3,7.66-12.02,8.19-13.25,15.34-26.09,21.59-38.35,3.25-3.77,2.84-9.59-1.2-12.85-3.67-2.96-9.15-2.47-12.29,1.04-.84.94-1.45,2.01-1.82,3.14Z"/>
        <path class="cls-42" d="M241.53,873.07c-.03.07-.08.16-.15.21-1.91,11.64-5.47,25.82-12.11,41.06-3.1,7.09-6.45,13.43-9.76,19.02-.91,3.76-4.18,6.62-8.22,6.85-4.95.28-9.19-3.5-9.46-8.46-.05-.8,0-1.58.16-2.31h-.01c.17-10.05.81-21.11,2.24-32.97,1.67-14.01,4.12-26.7,6.87-37.9.01,0,.01.01.03.02,0-.01,0-.04.02-.06,1.09-2.26,8.76-.85,17.15,3.17,8.39,4.01,14.32,9.1,13.25,11.36Z"/>
        <path class="cls-42" d="M243.88,874.14c-4.04-.81-10.83-2.71-17.85-7.61-6.11-4.27-9.96-9.1-12.16-12.35-.02-.1-.16-1.01,0-1,18.04,1.02,40.08,3.23,59.51,4.26.52.03.05,1.19.03,1.31-3.13,2.74-7.28,5.9-12.52,8.78-6.44,3.53-12.41,5.5-17.02,6.63Z"/>
        <path class="cls-31" d="M185.28,1013.32c-2.71-3.74-4.42-7.12-6.57-10.03-.22-.07-.45-.13-.69-.21h0c-1.56-.5-3.66-1.41-5.82-3.04-2.38-1.82-3.88-3.81-4.79-5.27-.13-.2-.24-.39-.34-.57-1.01.53-2.25,1.25-3.51,2.25-1.4,1.13-2.47,2.28-3.21,3.23l-1.19,1.52,29.95,23.36,1.19-1.52s.87-1.61-5.02-9.73Z"/>
        <path class="cls-31" d="M263.98,1015.12c.37-1.57.91-2.89,1.39-3.93.25.1.53.21.84.32h0c1.59.57,3.92,1.17,6.77,1.16,3.15-.03,5.64-.8,7.15-1.41.2.06.38.11.57.17h.01c3.28,1,6.56,2.51,10.75,3.75,9.61,2.83,9.91,4.64,9.91,4.64v1.93s-37.98-.19-37.98-.19v-1.93c.02-1.2.16-2.77.58-4.52Z"/>
        <path class="cls-9" d="M242.72,876.09c2.34,15.6,4.63,31.21,6.88,46.83,4.07,28.33,7.98,56.68,11.72,85.05,3-.67,6.62-1.24,10.74-1.43,3.77-.17,7.14.01,9.99.34,3.05-24.57,4.73-54.68,2.21-88.83-2.01-27.36-6.3-51.56-11.19-72.02-7.68,1.48-16.98,2.67-27.55,2.82-.83.02-1.64.02-2.45.01l-.35,27.22Z"/>
        <path class="cls-8" d="M243.11,848.86c-.11,9.08-.23,18.15-.34,27.22-.39,16.97-4.18,29.91-7.31,38.12-2.12,5.56-4.52,11.85-7.62,17.09-5.85,11-12.85,22.9-21.23,35.31-8.37,12.38-16.77,23.3-24.79,32.82-2.21-1.82-4.94-3.81-8.19-5.72-3.56-2.09-6.92-3.58-9.79-4.65,5.89-9.9,13.12-23.28,20.05-39.76,5.28-12.53,8.54-22.47,9.64-25.89,6.26-19.48,6.27-26.29,12.14-47.22,1.92-6.87,5.04-17.25,9.68-29.86,7.7,1.4,17.07,2.51,27.75,2.53Z"/>
      </g>
      <g>
        <path class="cls-16" d="M236.9,716.8c1.35-1.08,3.58-2.51,6.49-2.73,6.81-.53,12.06,5.97,12.92,7.09,4.92,6.33,4.15,13.26,8.95,15.09.66.25,3.04,1.02,2.97,1.77-.05.53-1.3.54-1.46,1.21-.23.92,1.97,1.63,3.17,3.49,1.35,2.09.82,4.66.63,5.54-.24,1.17-.78,2.51-5.25,7.27-3.79,4.03-5.19,4.97-5.8,7.35-.46,1.77-.23,3.35,0,4.35-.78-.72-1.72-1.46-2.12-1.2-.57.37.42,2.46-.14,2.82-.72.47-3.06-2.47-3.65-2.08-.65.43,1.61,4.41,1.05,4.8-.44.3-1.97-2.82-4.78-4.68-5.96-3.96-16.73-1.67-21.36,2.62-.23.21-2.19,2.05-2.6,1.73-.35-.28,1.01-1.76.52-2.89-.77-1.78-5.45-1.17-5.57-2.12-.04-.31.44-.37.74-1.04.53-1.17-.2-2.56-.36-2.86-.56-1.05-1.35-1.56-2.48-2.31-4.62-3.07-4.96-3.53-5.07-4.07-.27-1.36,1.21-1.88,1.7-3.67.87-3.17-2.84-5.04-3.88-8.55-1.4-4.74,3.81-6.6,11.7-20.71,2-3.58,3.35-6.48,6.5-7.4,2.79-.82,5.53.33,7.17,1.22Z"/>
        <path class="cls-34" d="M248.56,771.48c-5.92-.38-11.83-.76-17.75-1.13-.19-.83-.36-1.85-.4-3.01-.07-1.87.23-3.44.54-4.56,2.19-.45,5.06-.84,8.45-.71,3.62.13,6.63.79,8.85,1.46.21,1.02.38,2.21.46,3.53.09,1.69,0,3.18-.15,4.43Z"/>
        <rect class="cls-42" x="233.17" y="754.15" width="12.78" height="26.39" rx="6.39" ry="6.39" transform="translate(52.89 -14.55) rotate(3.91)"/>
        <path class="cls-42" d="M214.35,771.47c6.45-1.28,15.22-2.35,25.56-1.66,10.5.7,19.16,2.98,25.43,5.15-1.47,12.83-2.31,27.71-1.67,44.24.46,11.88,1.62,22.78,3.12,32.56-20.77.17-41.55.34-62.32.51,2.38-10,4.54-20.91,6.22-32.68,2.52-17.56,3.52-33.74,3.65-48.12Z"/>
        <path class="cls-42" d="M275.36,826.31c-4.43-.16-7.07-3.98-7.86-5.9-.14-.33-.22-.61-.27-.81-5.17-13.18-10.34-26.36-15.51-39.54.02,0,.02,0,.03,0-.34-1.05-.43-2.14-.2-3.24.9-4.29,6.26-6.8,11.97-5.59,4.51.95,7.87,3.91,8.65,7.22.02,0,.02,0,.03,0,3.17,13.4,6.33,26.78,9.48,40.18.26.59.51,1.38.45,2.28-.16,2.31-2.34,5.56-6.78,5.4Z"/>
        <path class="cls-42" d="M272.92,828.31c9.07,9.2,18.15,18.4,27.22,27.6.72,2.27,3.06,3.62,5.41,3.04,2.42-.61,3.88-3.06,3.26-5.47-.14-.55-.67-1.44-1.31-2.21-.26-.32-.51-.56-.69-.73-7.73-10.35-15.48-20.7-23.22-31.05-.48-.58-2.33-2.71-5.27-2.93-.37-.03-1.18-.08-2.14.19-3.16.92-5.72,4.83-4.99,8.37.13.64.5,1.89,1.72,3.18Z"/>
        <g>
          <path class="cls-42" d="M241.23,719.75h0c9.29,0,16.84,7.55,16.84,16.84v9.69c0,8.47-6.87,15.34-15.34,15.34h0c-10.12,0-18.34-8.22-18.34-18.34v-6.69c0-9.29,7.55-16.84,16.84-16.84Z" transform="translate(-156.76 71.05) rotate(-12.69)"/>
          <rect class="cls-42" x="253.46" y="736.87" width="7.42" height="8.81" rx="3.71" ry="3.71" transform="translate(-82.92 34.19) rotate(-6.55)"/>
          <g>
            <rect class="cls-42" x="221.28" y="739.48" width="7.42" height="8.81" rx="3.71" ry="3.71" transform="translate(51.26 -13.61) rotate(3.91)"/>
            <path class="cls-28" d="M224.33,742.14c-.26-.02-.7,1.01-.48,1.99.16.7.67,1.43.89,1.35.44-.15.04-3.32-.41-3.34Z"/>
          </g>
          <g>
            <path class="cls-45" d="M248.33,735.21c.29-.42.86-1.15,1.83-1.72,1.22-.71,2.38-.77,2.91-.77.52-.73.53-1.11.41-1.32-.4-.73-2.81-.5-4.5.61-1.15.75-2.32,2.12-1.98,2.78.18.34.73.43,1.32.41Z"/>
            <rect x="236.73" y="736.51" width="2.69" height="3.16" rx="1.34" ry="1.34" transform="translate(-70.37 26.53) rotate(-5.56)"/>
            <rect x="249.87" y="735.24" width="2.69" height="3.16" rx="1.34" ry="1.34" transform="translate(-70.18 27.79) rotate(-5.56)"/>
            <path class="cls-4" d="M244.95,741.14c.06.59.11.98.17,1.57.04.22.11.68.23.96.32.75.91,1.14,1.23,1.39.84.63.93,1.2.78,1.68-.19.63-1.34,1.12-2.62.57"/>
            <path class="cls-25" d="M240.65,750.86c.03.18.52,2.78,2.82,3.75,2.02.85,4.56.08,6-1.95-1,.23-2.98.55-5.31-.09-1.6-.44-2.78-1.16-3.51-1.7Z"/>
            <path class="cls-45" d="M234.87,736.47c.29-.42.86-1.15,1.83-1.72,1.22-.71,2.38-.77,2.91-.77.52-.73.53-1.11.41-1.32-.4-.73-2.81-.5-4.5.61-1.15.75-2.32,2.12-1.98,2.78.18.34.73.43,1.32.41Z"/>
          </g>
          <path class="cls-28" d="M246.43,760.95c-1.13.18-2.56.3-4.2.2-1.94-.12-3.57-.5-4.79-.89,2.81,2.86,5.62,5.71,8.44,8.57.07-1.18.15-2.37.23-3.57.1-1.45.21-2.89.32-4.31Z"/>
        </g>
        <path class="cls-42" d="M310.89,851.55c-1.47-.62-3.58-1.55-6.29-2.86-1.65,1.69-3.31,3.37-4.96,5.06.27,1.3.82,3.25,2.1,5.33.58.94,2.31,3.25,5.24,5.31,4.3,3.03,10.01,3.97,10.71,1.47.6-2.12-3.34-2.02-6.12-4.85-1.48-1.5-1.68-4.79-.64-4.46,2.22.71,4.59,1.06,5.24.24.19-.24.28-.48.3-.7.06-.76-.68-1.4-1.34-1.9-2.56-1.98-4.23-2.64-4.23-2.64Z"/>
        <path class="cls-42" d="M218.2,777.27c.43.63.75,1.3,1,1.98,0,.01.01.04.02.06.13.55.26,1.1.39,1.64,3.57,15.13,7.51,30,11.77,44.6,1.59,3.28.91,7.13-1.57,9.41-2.99,2.75-7.72,2.41-9.55.69-.3-.28-.82-.88-1.3-1.65-.74-1.2-1.06-2.33-1.21-3.07-8.45-23.8-14.27-41.42-15.11-45.46-.46-2.22-.22-4.15-.18-4.45.19-1.38.55-4.11,2.46-5.84,4.35-3.93,12.59,1.08,13.27,2.09Z"/>
        <path class="cls-16" d="M240.86,724.31c3.3-.74,6.11.8,7.25,1.45,5.42,3.08,4.74,7.89,10.47,10.67,1.46.71,2.09.68,2.8,1.55,1.78,2.19,1.41,6.84.18,10.05-.32.82-1.01,2.37-.39,3.84.14.34.57,1.18.93,1.14,1.24-.11,3.86-10.6.32-19.39-3.42-8.5-12.48-18.28-22.09-17.11-4.05.49-6.78,2.93-12.24,7.8-5.64,5.03-11.89,10.61-12.46,19.06-.32,4.8,1.31,8.75,2.06,10.51,2.04,4.8,4.69,6.87,5.52,7.47,1.09.79,2.84,1.82,3.25,1.41.46-.46-1.45-2.07-2.49-5.42-1-3.22-.02-4.3-1.41-6.93-.86-1.62-1.55-1.82-1.62-2.92-.1-1.44.95-2.78,3.36-4.77,5.64-4.65,7.88-3.9,9.42-6.71,1.05-1.9.4-2.93.62-4.84,0,0,.1-1.1.68-2.42,1.04-2.36,3.58-3.94,5.84-4.45Z"/>
      </g>
      <path class="cls-39" d="M259.97,826.31l-43.87-3c-.83-17.32-1.65-34.63-2.48-51.95,5.61,2.24,14.36,4.98,25.36,5.45,10.39.44,18.91-1.3,24.57-2.92-1.19,17.47-2.39,34.94-3.58,52.41Z"/>
      <g>
        <path class="cls-36" d="M282.5,819.74c-3.88,1.19-7.75,2.37-11.63,3.56-3.98-7.07-6.62-13.52-8.38-18.63-2.81-8.14-4.11-14.2-4.89-20.26-.14-1.09-.24-2-.3-2.63-.33-3.27.28-11.07,4.48-13.09,3.17-1.51,7.23.98,7.88,1.38,5.78,3.5,7.13,10.38,8.44,18.1,1.49,8.73,3.07,19.35,4.4,31.57Z"/>
        <path class="cls-36" d="M282.53,818.4c7.36,8.88,14.71,17.76,22.07,26.63-2.03,1.26-4.27,2.8-6.62,4.64-2.04,1.61-3.83,3.19-5.37,4.67-7.41-9.14-14.81-18.28-22.22-27.42-1.96-2.79-.85-6.96,2.49-9.3l.06-.04c3.34-2.34,7.63-1.98,9.59.82Z"/>
      </g>
      <path class="cls-13" d="M242.72,876.09c-22.23.38-40.23-4.38-51.9-8.51,2.74-8.82,5.92-21.45,7.27-36.86,2.57-29.5-3.06-52.28,7.44-58.43,3.93-2.3,14.13-4.61,17.54-4.9,3-.25,5.53-.17,7.34-.04.1,4.96.42,11.35,1.31,18.77.38,3.2,1.01,8.31,2.39,14.84,1.15,5.42,2.94,12.43,5.86,20.44l2.75,54.7Z"/>
      <path class="cls-13" d="M281.03,870.32c-9.76,2.82-22.82,5.5-38.32,5.76l-2.75-54.7c3.06-8.14,6.15-18.65,7.75-31.13,1.11-8.68,1.27-16.51.99-23.2,2.81.04,5.9.23,9.22.64,2.51.31,4.85.71,7.02,1.17-.72,9.16-.54,16.74-.19,22.27.32,4.88.77,8.22.89,9.07.9,6.41,2.29,11.73,3.68,16.84.81,2.95,3.68,15.6,9.28,40.92.81,3.64,1.64,7.76,2.44,12.37Z"/>
      <path class="cls-36" d="M186.39,829.4c-5.03-.79-10.06-1.59-15.08-2.38,6.8-16.49,13.64-29.3,18.99-38.4.73-1.25,9.98-16.72,17.84-16.98,3.94-.13,6.69,1.65,6.69,1.65.61.4,2.7,1.74,3.41,3.67,1.76,4.81-3.66,10.95-6.53,14.84-4.23,5.75-7.7,12.04-11.83,17.86-3.23,4.55-7.92,11.28-13.49,19.74Z"/>
      <circle class="cls-41" cx="244.26" cy="836.44" r="1.55"/>
      <circle class="cls-41" cx="244.7" cy="846.95" r="1.55"/>
      <path class="cls-42" d="M184.68,829.51c-8.51,9.73-17.01,19.45-25.52,29.18-.58,2.31-2.84,3.8-5.22,3.36-2.45-.46-4.06-2.82-3.58-5.27.11-.56.58-1.47,1.17-2.28.24-.33.48-.59.64-.77,7.1-10.8,14.22-21.59,21.32-32.38.44-.61,2.16-2.84,5.08-3.24.37-.05,1.18-.15,2.15.07,3.21.73,6,4.48,5.48,8.05-.09.65-.39,1.92-1.52,3.28Z"/>
      <path class="cls-36" d="M186.33,829.64c-7.31,9.31-14.62,18.62-21.93,27.93-1.25-1.46-2.97-3.23-5.22-5-2.56-2.02-4.98-3.38-6.85-4.29,10.75-14.58,18.95-25.12,21.68-28.18.65-.73,2.02-1.79,3.95-2.22.17-.04,3.88-.81,6.68,1.52,2.68,2.24,3.49,6.47,1.71,10.23Z"/>
      <circle class="cls-41" cx="243.58" cy="825.92" r="1.55"/>
      <path class="cls-34" d="M248.26,763.52c.45,6.78.48,14.64-.39,23.34-1.39,13.92-4.65,25.6-7.9,34.53.12,0,.25,0,.37.01,4.28-5.57,9.76-14.06,13.64-25.42,2.84-8.3,4.02-15.78,4.49-21.62-1.38-.7-2.75-1.4-4.13-2.1,1.8-.91,3.61-1.81,5.41-2.72-3.83-2.01-7.65-4.02-11.48-6.03Z"/>
      <path class="cls-34" d="M230.95,762.78c-.3,6.86-.19,14.71.76,23.33,1.56,14.1,4.88,26.02,8.25,35.27-.12.01-.23.03-.35.04-4.41-5.92-9.87-14.63-13.86-26.09-2.84-8.17-4.19-15.58-4.83-21.54,1.37-.72,2.73-1.45,4.1-2.17-1.82-.88-3.64-1.75-5.45-2.63,3.79-2.07,7.59-4.14,11.38-6.21Z"/>
      <path class="cls-30" d="M184.91,898.58l-8.07,35.05c-.76,3.32-4.08,5.4-7.4,4.63l-62.55-14.4c-3.33-.77-5.4-4.08-4.63-7.4l8.07-35.05c-1.43,6.2,2.44,12.38,8.64,13.8l52.14,12c6.2,1.43,12.38-2.44,13.8-8.64Z"/>
      <path class="cls-43" d="M187.37,887.91l-2.46,10.67c-1.43,6.2-7.61,10.06-13.8,8.64l-52.14-12c-6.2-1.43-10.06-7.61-8.64-13.8l2.46-10.67c.52-2.27,2.78-3.68,5.05-3.16l66.37,15.28c2.27.52,3.69,2.78,3.16,5.05Z"/>
      <rect class="cls-48" x="137.11" y="898.29" width="15.81" height="6.09" transform="translate(205.94 -9.55) rotate(12.97)"/>
      <path class="cls-43" d="M168.39,876.34l-4.46-1.03c-1.28-5.17-5.38-9.19-10.57-10.38-5.17-1.18-10.6.65-14,4.72l-4.45-1.03c4.31-6.13,11.92-9.08,19.21-7.45,7.38,1.65,13.05,7.67,14.26,15.16Z"/>
      <path class="cls-30" d="M142.61,872.2l-.24,1.03-11.41-2.63.24-1.03c.22-.94,1.16-1.53,2.09-1.31l8.01,1.84c.94.22,1.53,1.15,1.31,2.09Z"/>
      <path class="cls-30" d="M171.32,878.81l-.24,1.03-11.41-2.63.24-1.03c.22-.94,1.16-1.53,2.09-1.31l8.01,1.84c.94.22,1.53,1.15,1.31,2.09Z"/>
      <path class="cls-42" d="M160.66,858.67c.03-.93.09-2.3.21-3.98-2.18-.9-4.37-1.8-6.55-2.71-1.1.73-2.71,1.98-4.16,3.94-1.34,1.81-2.96,3.9-2.96,6.84,0,.68,0,4.87,3.31,6.75,2.67,1.52,6.11.76,7.94-1.06.64-.64.94-1.26,1.26-1.95.99-2.09.8-3.63.94-7.84Z"/>
      <line class="cls-7" x1="239.97" y1="821.38" x2="242.72" y2="876.09"/>
    </g>
  </g>
  <g id="Person:_Frau_mitte">
    <g>
      <path class="cls-20" d="M859.54,764.83c2.99-.78,4.2-1.65,8.63-3.8,2.75-1.33,6.77-3.18,11.86-5.12,2.67-1.51,7.1-4.59,9.66-10.1,4.29-9.21,1.56-21.33-6.96-30.43-1.44-1.39-5.35-4.79-11.47-5.9-2.28-.41-7.2-.94-12.63,1.44-6.91,3.03-10.08,8.76-10.95,10.49-2.88,5.8-3.34,10.46-3.22,13.64.21,5.64,2.24,6.92,1.55,12.2-.65,4.92-2.75,6.39-2.06,10.49.13.8.71,4.27,3.48,6.43,3.66,2.86,8.71,1.54,12.11.66Z"/>
      <path class="cls-17" d="M875.46,761.12c-.32,1.74-1.42,3.21-2.93,4.02-.8.43-1.73.68-2.7.68-2.52,0-4.67-1.64-5.43-3.92,1.73.49,3.79.76,6.11.53.72-.08,1.39-.19,2.03-.34,1.07-.25,2.05-.59,2.93-.98Z"/>
      <g>
        <path class="cls-17" d="M853.54,1000.91c.25.11.46.22.66.35-.24.08-.5.16-.78.24-1.36.38-3.08.69-5.08.68-1.9-.03-3.53-.35-4.83-.73-.31-.09-.59-.18-.85-.27.24-.14.52-.28.83-.4,0-.15.01-.31.04-.46-.16-4.68-.31-9.39-.42-14.14,4.12.23,8.25.46,12.37.69-.78,5.6-1.41,10.23-1.87,13.57-.01.14-.04.29-.06.46Z"/>
        <path class="cls-17" d="M918.53,1001.31c-.47.15-.99.29-1.57.42-1.07.23-2.31.41-3.68.43-1.94.02-3.61-.28-4.94-.64-.25-.06-.49-.14-.71-.21.2-.11.42-.21.67-.29-1.57-4.68-3.13-9.59-4.63-14.73,3.92-.37,7.85-.74,11.77-1.11.38,5.18.73,10.33,1.05,15.43.8.17,1.5.41,2.04.69Z"/>
        <path class="cls-45" d="M838.31,1008.29v1.76h34.79v-1.76s-.28-1.66-9.1-4.21c-4.07-1.17-7.2-2.65-10.4-3.54-.26.11-.55.22-.87.33-.26.09-.55.18-.85.27-1.29.38-2.93.7-4.83.73-2,.02-3.73-.29-5.08-.68-.28-.08-.54-.16-.78-.24-.42-.14-.8-.28-1.12-.41-.43.95-.92,2.17-1.26,3.6-.37,1.6-.5,3.04-.5,4.15Z"/>
        <path class="cls-45" d="M939.33,1008.59v1.76h-34.79v-1.76c0-1.11.12-2.54.5-4.15.34-1.44.83-2.65,1.26-3.6.38.15.82.32,1.33.48.22.08.46.15.71.21,1.33.36,3.01.66,4.94.64,1.37-.02,2.61-.2,3.68-.43.58-.13,1.1-.28,1.57-.42.49-.16.93-.32,1.3-.47,3.19.89,6.32,2.37,10.39,3.54,8.82,2.55,9.11,4.21,9.11,4.21Z"/>
        <g>
          <path class="cls-17" d="M880.6,757.61c-.93.93-2.67,2.42-5.14,3.51-.88.39-1.86.73-2.93.98-.64.15-1.31.26-2.03.34-2.31.23-4.37-.05-6.11-.53-1.86-.52-3.34-1.28-4.35-1.9,1.32-.23,2.68-.46,4.06-.68v-11.42c0-3.15,2.58-5.72,5.72-5.72,1.57,0,3.01.65,4.04,1.68,1.04,1.04,1.69,2.47,1.69,4.05v10.05c1.72-.15,3.41-.26,5.05-.35Z"/>
          <path class="cls-43" d="M925.32,984.26c-3.29.31-6.58.62-9.88.93-3.92.37-7.85.74-11.77,1.11-2.57.25-5.15.49-7.72.73-2.01-25.34-5.28-52.78-10.36-81.91-3.85-21.95-8.33-42.6-13.14-61.85v-38.35c4.89.02,9.79.02,14.68.03,4.39,5.69,10.53,14.85,15.04,27.27,3.8,10.46,4.93,19.03,7.61,47.34,1.71,18.32,2.76,30.66,3.1,34.56,1.47,16.51,4.66,40.36,12.44,70.15Z"/>
          <path class="cls-30" d="M872.44,804.93v38.35c-2.61,18.44-4.76,38.05-6.22,58.75-2.17,30.58-2.51,59.15-1.73,85.36-3.01-.17-6.01-.34-9.02-.51-4.12-.23-8.25-.46-12.37-.69-3.12-.18-6.24-.35-9.36-.53,3.51-31.85,4.03-55.44,3.8-71.53-.03-2.82-.22-13.38,0-27.65.35-22.09.5-33.14,2.42-41.8,2.05-9.31,6.97-23.73,20.39-39.75,4.04,0,8.08.02,12.1.02Z"/>
          <path class="cls-18" d="M872.53,762.11v46.14s-.05,0-.08,0c-5.31-.16-9.76-1.15-13.06-2.17h0c-.61-.18-1.18-.37-1.71-.55-.55-2.59-1.14-5.24-1.76-7.92,0,0-1.12-4.8-2.38-9.57-.02-.08-.04-.16-.06-.24l-1.02,3.93-2.55-.66-12.7-3.28-2.68-.69,4.81-18.65c.86-3.31,3.55-5.67,6.71-6.29h0c2.25-.68,4.65-1.32,7.18-1.91,1.88-.44,3.71-.82,5.48-1.15.23.18.69.52,1.34.92,1.01.62,2.49,1.37,4.35,1.9,1.73.49,3.79.76,6.11.53.72-.08,1.39-.19,2.03-.34Z"/>
          <path class="cls-47" d="M910.4,774.46l-2.25,1.91-9.93,8.46-1.78,1.52-5.25-6.17c-.07,1.13-.14,2.15-.19,3.09-.08,1.11-.22,3.26-.37,6.25-.06,1.23-.13,2.46-.18,3.68-.11,2.57-.2,5.09-.26,7.57-.04,1.64-.08,3.26-.1,4.87-3.66,1.24-9.32,2.68-16.32,2.63-.41,0-.81-.01-1.22-.03v-46.14c1.07-.25,2.05-.59,2.93-.98,2.48-1.09,4.21-2.58,5.14-3.51.3-.3.52-.55.66-.7,2.98-.03,5.97-.05,8.95-.08h0c2.79-.37,5.72.63,7.67,2.92l12.52,14.7Z"/>
          <path class="cls-17" d="M919.16,803.03c-.81.16-1.63.14-2.38-.04h-.02c-8.87-.74-17.73-1.48-26.6-2.21-3.95-.33-7.9-.66-11.85-.99h0c-.39.28-.94.65-1.61,1.05-1.09.63-2.02,1.06-2.42,1.22-.35.14-.95.32-1.74.49-1.12.23-2.62.42-4.35.35-4.34-.18-8.54-2.44-7.74-4.43.68-1.69,3.21.36,6.44-.09,1.72-.24,3.51-2.28,2.67-2.59-1.81-.66-3.54-1.62-3.55-2.48,0-.25.06-.45.16-.61.35-.53,1.14-.57,1.83-.57.9,0,2.28.06,4.09.41.15.04.3.07.45.11.62.14,1.25.3,1.89.48,1.17.32,2.27.66,3.32,1.01h0c4.14-.35,8.37-.65,12.69-.92,2.3-.14,4.63-.26,6.98-.38,2.84-.14,5.64-.26,8.41-.35-2.54-2.54-5.07-5.09-7.61-7.63l9.93-8.46c4.57,5.54,9.13,11.07,13.69,16.62.04.05.12.15.12.15.31.38.56.8.76,1.26.09.22.17.45.23.68.24.45.42.95.53,1.47.6,2.98-1.34,5.88-4.32,6.48Z"/>
          <g>
            <path class="cls-17" d="M820.31,769.02c-.56-.72-1.06-1.37-1.5-1.97.75.58,1.18,1.33,1.27,1.5.09.16.16.32.22.48Z"/>
            <path class="cls-17" d="M849.89,791.06c-3.04,6.56-6.08,13.12-9.12,19.68-.02.05-.05.11-.06.16t0,.01c-.35.92-.94,1.76-1.77,2.4-2.41,1.86-5.87,1.4-7.73-1.01-.5-.66-.85-1.4-1.01-2.15h-.01c-4.71-12-9.43-23.98-14.14-35.97-.95-.08-2.11-.28-3.36-.72-.86-.31-3.02-1.31-5.18-3.32-3.18-2.95-4.92-7.39-3.02-8.39,1.6-.85,2.2,2.35,4.96,4.1,1.46.93,4.15.53,3.7-.25-.95-1.67-1.64-3.52-1.1-4.19.16-.19.34-.31.52-.36.6-.18,1.24.31,1.76.75,2.04,1.73,2.85,2.97,2.85,2.97.43.6.97,1.36,1.63,2.26.44.6.94,1.26,1.5,1.97.06.17.12.33.16.5.13.51.15.96.15,1.25,3.38,5.61,6.76,11.44,10.13,17.52,1.3,2.34,2.57,4.66,3.81,6.97.87-2.49,1.76-4.98,2.64-7.47l12.7,3.28Z"/>
            <path class="cls-17" d="M820.57,769.36c-.04.05-.07.1-.1.15-.05-.16-.1-.33-.16-.5.08.11.17.23.26.35Z"/>
          </g>
        </g>
      </g>
      <path class="cls-17" d="M885.68,733.41c.73,6.34-3.18,12.54-9.5,14.42-8.08,2.41-16.65-1.92-19.59-9.69-.28.09-.58.13-.89.13-1.78,0-3.25-1.46-3.25-3.25v-1.22c0-1.32.8-2.46,1.93-2.96-1.93-7.59,2.5-15.49,10.08-17.76,1.39-.41,2.79-.61,4.18-.61,6.35,0,12.25,4.15,14.15,10.53l1.01,3.38c1.41.12,2.65,1.18,2.92,2.64l.22,1.2c.23,1.25-.3,2.47-1.26,3.19Z"/>
      <path class="cls-33" d="M875.57,748.01c-.95.25-2.2.48-3.66.5-1.73.03-3.18-.22-4.23-.49,2.63,2.33,5.25,4.65,7.88,6.98,0-1.04-.01-2.08-.01-3.13,0-1.3.01-2.59.03-3.86Z"/>
      <path class="cls-33" d="M855.02,732.93c-.23,0-.55.93-.3,1.77.18.6.67,1.21.86,1.13.38-.15-.16-2.9-.56-2.9Z"/>
      <g>
        <path class="cls-20" d="M868.43,725.53c-.45-.04-1.26-.06-2.18.28-1.16.43-1.85,1.17-2.14,1.53-.78-.06-1.04-.26-1.12-.46-.27-.68,1.23-2.17,2.93-2.69,1.14-.36,2.73-.38,2.98.22.13.31-.12.73-.46,1.12Z"/>
        <path class="cls-20" d="M875.19,725.16c.29-.34.87-.91,1.77-1.31,1.13-.5,2.15-.43,2.61-.38.53-.58.57-.91.49-1.11-.28-.68-2.39-.71-3.98.09-1.07.54-2.23,1.62-1.99,2.22.12.31.6.44,1.11.49Z"/>
        <rect x="865.6" y="727.2" width="2.35" height="2.77" rx="1.18" ry="1.18" transform="translate(-108.05 152.52) rotate(-9.47)"/>
        <rect x="877" y="725.3" width="2.35" height="2.77" rx="1.18" ry="1.18" transform="translate(-107.58 154.37) rotate(-9.47)"/>
        <path class="cls-5" d="M872.97,730.83c.09.51.16.85.24,1.36.05.19.14.59.26.82.33.63.86.94,1.15,1.14.77.5.88,1,.78,1.42-.13.56-1.11,1.06-2.26.65"/>
      </g>
      <path class="cls-25" d="M867.75,739.17c.08.27.7,2.33,2.69,3.12,1.89.75,4.21.05,5.62-1.79-1.11.22-2.99.44-5.19-.09-1.31-.32-2.36-.8-3.12-1.24Z"/>
      <path class="cls-20" d="M872.18,716.96c.36.54.97,1.34,1.91,2.1,1.78,1.44,3.26,1.53,4.66,2.26,1.25.66,2.85,2.05,4,5.38.46.12,1.08.21,1.81.16.26-.02.5-.06.72-.11.03-.82.14-6.36-4.29-10.48-3.85-3.57-8.47-3.6-9.46-3.58.07.8.17,1.65.33,2.55.1.6.22,1.17.34,1.72Z"/>
      <path class="cls-20" d="M853.41,731.25c3.05-1.19,4.54,1.73,4.59,1.65.75-1.23.94-2.78,2.44-5.21,2.11-3.41,4.81-2.47,9.05-6.91,1.75-1.83,2.48-3.37,2.69-3.82.97-2.15,1.14-4.13,1.14-5.38-1.76-.64-5.3-1.66-9.66-.92-.83.14-7.19,1.32-11.54,6.82-1.39,1.75-2.61,3.03-2.89,5.12-.61,4.56,3.58,8.15,4.18,8.65Z"/>
    </g>
  </g>
  <g id="Person:_Frau_rechts">
    <g>
      <g>
        <path class="cls-17" d="M1045.12,738.85c-.61.84-1.36,1.52-2.19,2.04h-.01s-.02.02-.05.03c-12.14,7.67-24.3,15.35-36.46,23.03-.04.03-.09.07-.15.09-.02.01-.03.02-.05.03-.44.46-.94.83-1.48,1.11h-.01s-33.74,24.8-33.74,24.8c-.94,1.51-1.65,2.74-2.17,3.66,0,0-.71,1.34-2.63,3.31-.49.5-1.1,1.06-1.73.94-.19-.04-.38-.14-.57-.32-.62-.62-.1-2.58.72-4.38.38-.84-2.41-.99-3.81.11-2.64,2.06-2.94,5.39-4.67,4.68-2.04-.84-.69-5.54,2.27-8.87,2.01-2.26,4.13-3.5,4.97-3.89,1.81-.84,3.46-1.13,4.57-1.23,10.05-9.23,20.06-18.45,30.09-27.67l.04-.05c.2-.17.39-.34.58-.52.04-.03.08-.06.12-.09.07-.05.14-.1.21-.15.16-.17.34-.32.52-.47,0,0,.1-.08.15-.13,11.44-8.85,22.88-17.69,34.34-26.53.16-.1.31-.23.45-.35.03-.02.05-.05.08-.06,2.61-1.8,6.19-1.86,8.9.1,3.46,2.51,4.21,7.33,1.71,10.77Z"/>
        <path class="cls-17" d="M1183.84,772.48c-1.27,1.36-2.92-1.54-6.19-2.32-1.73-.42-4.21.87-3.51,1.48,1.49,1.3,2.78,2.87,2.46,3.69-.09.24-.22.41-.38.52-.53.38-1.31.12-1.96-.14-2.56-.99-3.76-1.92-3.76-1.92-1.1-.8-2.69-1.92-4.82-3.31.01-.03.02-.07.03-.11-6.51-1.01-13.19-2.16-20.05-3.46-6.95-1.32-13.67-2.73-20.17-4.19h-.07c-.25-.06-.51-.12-.76-.18-.05-.01-.09-.02-.14-.04-.07-.02-.13-.04-.2-.07,0,0-.01,0-.01,0-.39-.08-.78-.21-1.15-.37-.18-.08-.35-.18-.52-.28-.05-.01-.11-.05-.15-.08-12.78-6.61-25.54-13.24-38.29-19.85-.03-.01-.04-.02-.05-.04h-.01c-.87-.44-1.68-1.05-2.36-1.84-2.78-3.22-2.44-8.08.79-10.87,2.53-2.19,6.1-2.44,8.85-.87.03.01.06.04.09.05.15.1.31.22.48.31,11.97,7.71,23.92,15.4,35.87,23.12.33.1.64.22.94.38h.02c12.78,4.23,25.56,8.47,38.34,12.7.01-.05.02-.09.03-.14,1.06-.37,2.72-.82,4.78-.81.93,0,3.37.25,6.14,1.48,4.08,1.8,7.26,5.52,5.75,7.13Z"/>
        <path class="cls-30" d="M1041,700.71c.61,2.31,1.17,3.32,1.38,5.54.35,3.66-.63,6.78-1.54,8.88,4.23-2.47,5.83-5.18,6.5-6.68.41-.91,1.33-3.3,1.14-3.38-.06-.03-.27.21-.35.4-.59,1.31,2.72,4.36,5.23,5.84,1.46.86,4.81,2.47,10.11,1.89,3.03-1.16,5.44-2.3,7.13-3.15,2.88-1.45,3.63-2.06,4.01-2.4,2.35-2.08,3.38-4.53,3.84-5.95.48-1.48,1.06-3.79,1.02-6.61-.12-9.45-7.05-19.35-14.95-20.69-2.07-.35-4.29-.13-7.29.18-4.16.42-6.33.62-8.52,1.67-6.58,3.15-8.37,11.41-8.57,12.41-1.03,5.12.38,10.28.86,12.06Z"/>
        <path class="cls-17" d="M1069.6,721.28c-.95.87-2.39,2-4.32,2.92-1.03.49-2.19.92-3.48,1.22-.66.16-1.35.27-2.08.35-1.44.14-2.79.09-4.02-.08-2.59-.36-4.68-1.27-6.12-2.07,1.59-.28,3.21-.55,4.88-.8-.03-.23-.05-.46-.05-.69v-11.99c0-3.1,2.54-5.63,5.63-5.63,1.55,0,2.96.63,3.98,1.65,1.02,1.02,1.65,2.43,1.65,3.98v11.4c1.33-.11,2.63-.2,3.92-.27Z"/>
        <path class="cls-17" d="M1042.4,970.89c.25.12.48.24.67.36-.25.08-.52.17-.8.24-1.39.39-3.16.72-5.22.69-1.95-.03-3.63-.36-4.95-.75-.31-.09-.6-.18-.87-.28.25-.15.53-.28.85-.41,0-.16.01-.31.03-.47-.16-4.8-.31-9.64-.44-14.51,4.23.24,8.47.48,12.7.72-.79,5.75-1.45,10.5-1.92,13.93-.01.14-.03.3-.06.47Z"/>
        <path class="cls-39" d="M1116.05,953.82c-3.38.32-6.75.63-10.13.95-4.03.38-8.05.76-12.08,1.14h0c-2.64.25-5.28.5-7.92.75-2.06-26.01-5.42-54.16-10.64-84.05-3.95-22.52-8.54-43.71-13.48-63.47v-36.37c.42.02.83.03,1.25.03,5.54.04,10.27-.83,13.87-1.82.23-.06.46-.13.68-.19h0c4.43,5.89,10.31,14.96,14.7,27.01,3.9,10.73,5.05,19.53,7.8,48.58,1.76,18.8,2.83,31.46,3.18,35.46,1.5,16.94,4.78,41.41,12.76,71.98Z"/>
        <path class="cls-17" d="M1109.08,971.31c-.48.16-1.01.3-1.59.43-1.1.25-2.37.43-3.79.45-1.98.02-3.7-.28-5.07-.65-.26-.07-.5-.14-.73-.22.21-.11.44-.22.69-.31-1.62-4.8-3.21-9.84-4.74-15.1,4.03-.38,8.05-.76,12.08-1.14.38,5.32.74,10.59,1.07,15.83.82.18,1.53.42,2.09.71Z"/>
        <path class="cls-45" d="M1028.18,978.35v1.81h35.7v-1.81s-.29-1.7-9.34-4.32c-4.18-1.2-7.39-2.72-10.67-3.63-.27.11-.57.22-.9.33-.27.09-.56.18-.87.28-1.33.39-3,.72-4.95.75-2.05.02-3.83-.3-5.22-.69-.28-.08-.55-.16-.8-.24-.44-.14-.82-.29-1.15-.42-.45.98-.95,2.23-1.3,3.7-.38,1.65-.51,3.12-.51,4.25Z"/>
        <path class="cls-45" d="M1130.43,978.79v1.81h-35.7v-1.81c0-1.13.13-2.61.51-4.25.35-1.47.85-2.72,1.29-3.7.38.16.84.33,1.36.49.23.07.47.15.73.22,1.37.37,3.08.67,5.07.65,1.42-.02,2.69-.2,3.79-.45.58-.13,1.12-.28,1.59-.43.51-.16.96-.32,1.34-.48,3.28.91,6.5,2.43,10.67,3.63,9.05,2.62,9.34,4.32,9.34,4.32Z"/>
        <path class="cls-22" d="M1076.91,770.98c-3.6.99-8.33,1.86-13.87,1.82-.42,0-.83-.01-1.25-.03v36.37c-2.67,18.92-4.88,39.04-6.38,60.29-2.22,31.38-2.57,60.7-1.78,87.59-3.08-.17-6.17-.35-9.25-.52-4.23-.24-8.46-.48-12.7-.72-3.2-.18-6.4-.36-9.61-.54,3.6-32.68,4.14-56.89,3.9-73.4-.03-2.9-.22-13.72,0-28.37.35-22.67.51-34.01,2.48-42.9,2.07-9.38,6.97-23.82,20.2-39.91.19.06.39.12.59.17l.55-.87h26.6c.17.34.34.68.51,1.02Z"/>
        <path class="cls-34" d="M1103.39,733.91l-11.55,14.86-10.72-8.33c-.14,2.62-.27,4.84-.39,6.7-.08,1.14-.23,3.35-.39,6.42-.3,5.69-.48,11.21-.56,16.54-.67.23-1.4.46-2.19.69h0c-3.67,1.06-8.65,2.05-14.55,2.01-.42,0-.83-.01-1.25-.03v-47.34c1.29-.3,2.46-.73,3.48-1.22,1.93-.92,3.37-2.05,4.32-2.92t0,0c.57-.52.95-.95,1.15-1.18,3.47-.03,6.94-.06,10.41-.09h0c2.26-.32,4.65.24,6.58,1.75l15.64,12.15Z"/>
        <path class="cls-40" d="M1061.8,725.43v47.34c-5.3-.16-9.77-1.11-13.14-2.12-.76-.23-1.46-.46-2.11-.68-.56-2.66-1.17-5.38-1.81-8.13,0,0-1.15-4.93-2.45-9.82-.7-2.66-1.48-5.41-2.26-8.09l-13.53,9.11-10.62-15.76,16.4-11.04c1.16-.78,2.45-1.25,3.76-1.42.1-.05.21-.09.31-.13,3.76-.78,7.52-1.57,11.26-2.35.31.23.98.74,1.97,1.29,1.43.8,3.53,1.71,6.12,2.07,1.23.17,2.58.22,4.02.08.73-.08,1.42-.19,2.08-.35Z"/>
        <g>
          <path class="cls-30" d="M1048.73,706.34c-1.9-.77-3.75-.68-4.34.15-.7.98.05,3.41,2.64,5.1-.18.09-1.31.71-1.65,2.08-.39,1.55.57,2.74.67,2.86-.13.09-1.01.68-1.15,1.81-.12.93.31,1.86,1.1,2.43-.79-.09-1.46.51-1.48,1.2-.02.59.45,1.16,1.11,1.27.62.43,1.72,1.04,3.12,1.01.54-.01,2-.04,2.34-.89.21-.52-.1-1.1-.25-1.35.1-.02,1.22-.28,1.69-1.37.51-1.2-.23-2.26-.27-2.31.4-.2,1.16-.66,1.7-1.55,1.05-1.72.39-3.58.29-3.84.25-.36.52-.85.71-1.46.46-1.48.16-2.77-.02-3.35-2.07-.59-4.14-1.18-6.21-1.78Z"/>
          <path class="cls-30" d="M1045.97,724.14c-.36.24-2.7,1.8-3.17,4.88-.5,3.27,1.51,5.56,1.78,5.85.33-1.98,1.07-3.25,1.7-4.07,1.15-1.47,2.34-1.9,2.76-3.35.32-1.08.03-2.13-.26-2.86-.94-.15-1.87-.31-2.81-.46Z"/>
          <rect class="cls-10" x="1044.93" y="723.65" width="5.21" height="1.13" rx=".57" ry=".57" transform="translate(1910.54 1660.72) rotate(-167.32)"/>
          <path class="cls-30" d="M1070.56,706.76c1.86-.85,3.72-.84,4.34-.04.74.95.1,3.41-2.42,5.21.18.09,1.34.65,1.74,2.01.45,1.54-.46,2.76-.55,2.89.14.08,1.04.64,1.23,1.76.16.92-.23,1.87-1,2.47.78-.13,1.48.44,1.53,1.13.04.59-.4,1.18-1.05,1.32-.6.46-1.68,1.11-3.08,1.14-.54.01-2,.05-2.37-.79-.23-.51.05-1.11.19-1.36-.1-.02-1.23-.22-1.74-1.3-.56-1.17.14-2.27.17-2.32-.41-.18-1.18-.61-1.76-1.48-1.12-1.67-.54-3.56-.46-3.82-.26-.35-.56-.82-.77-1.43-.52-1.45-.28-2.76-.12-3.35,2.04-.68,4.09-1.36,6.13-2.04Z"/>
          <path class="cls-30" d="M1074.06,724.44c.37.22,2.77,1.68,3.38,4.74.64,3.25-1.27,5.62-1.53,5.93-.42-1.96-1.2-3.2-1.87-3.99-1.21-1.42-2.41-1.8-2.9-3.23-.36-1.07-.12-2.13.14-2.87.93-.19,1.86-.38,2.79-.58Z"/>
          <rect class="cls-10" x="1069.9" y="724.01" width="5.21" height="1.13" rx=".57" ry=".57" transform="translate(-151.88 304.87) rotate(-15.12)"/>
          <g>
            <path class="cls-17" d="M1079.34,695.72v1.22c0,1.79-1.47,3.26-3.26,3.26-.6,0-1.17-.17-1.65-.45-1.37,6.74-7.37,11.86-14.5,11.86s-13.02-5.03-14.46-11.68c-.4.18-.84.27-1.3.27-1.79,0-3.26-1.46-3.26-3.26v-1.22c0-1.79,1.46-3.26,3.26-3.26.34,0,.66.05.97.15v-2.99c0-8.14,6.66-14.8,14.79-14.8,4.07,0,7.77,1.67,10.45,4.34,2.68,2.68,4.35,6.38,4.35,10.45v3.15c.41-.19.87-.3,1.36-.3.9,0,1.71.37,2.3.96.59.59.96,1.41.96,2.3Z"/>
            <path class="cls-30" d="M1051.26,689.52c.29-.34.86-.93,1.76-1.33,1.13-.51,2.15-.46,2.61-.4.52-.59.56-.92.48-1.12-.28-.68-2.41-.69-3.99.12-1.07.55-2.22,1.64-1.98,2.25.13.31.6.44,1.12.48Z"/>
            <path class="cls-30" d="M1068.89,689.38c-.4-.21-1.14-.54-2.13-.59-1.24-.06-2.17.37-2.58.59-.7-.36-.86-.65-.86-.86.01-.74,1.98-1.53,3.76-1.36,1.2.12,2.67.71,2.67,1.36,0,.34-.4.63-.86.86Z"/>
            <rect x="1052.84" y="690.37" width="2.36" height="2.78" rx="1.18" ry="1.18"/>
            <rect x="1065.35" y="690.37" width="2.36" height="2.78" rx="1.18" ry="1.18"/>
            <path class="cls-2" d="M1060.1,695.01c0,.52.02.86.02,1.38.02.2.04.61.12.85.22.68.7,1.08.95,1.32.68.62.71,1.13.54,1.53-.22.53-1.27.87-2.34.27"/>
            <path class="cls-33" d="M1076.55,694.84c.23,0,.56.93.31,1.77-.18.6-.67,1.21-.87,1.13-.38-.15.16-2.91.56-2.91Z"/>
            <path class="cls-33" d="M1065.74,710.4c-.88.39-2.09.82-3.57,1.05-1.72.27-3.2.19-4.24.04,2.62,1.95,5.23,3.9,7.85,5.84,0-.64,0-1.2,0-1.66,0-.37,0-.4,0-2.08,0-1.17,0-1.29,0-1.54,0-.71-.03-1.29-.04-1.67Z"/>
            <path class="cls-33" d="M1043.48,694.84c-.23,0-.56.93-.31,1.77.18.6.67,1.21.87,1.13.38-.15-.16-2.91-.56-2.91Z"/>
          </g>
          <path class="cls-30" d="M1041.14,691.06c-1.98-1.69.22-7.26,2.22-10.47.28-.44,2.24-3.52,5.98-5.95,2.46-1.6,4.01-1.83,5.18-1.74.59.05,1.35.11,2.02.58,1.9,1.34,1.83,5.13.35,7.69-1.66,2.88-3.81,1.97-6.33,4.96-.94,1.11-1.61,2.21-1.89,2.77-.52,1.02-.79,1.88-.9,2.28-.69,2.45-.14,3.56-.46,6.06-.12.89-.37,2.18-1.01,3.72.28-1.82.38-3.15.37-4.13,0-.22-.15-.96-.28-2.05-.11-.88-.16-1.31-.18-1.68-.03-.95.07-1.53-.07-1.57-.22-.06-.75,1.42-1.15,1.33-.09-.02-.23-.13-.38-.24-.12-.09-.2-.16-.21-.17-.19-.14-.5-.29-1.29-.58-.63-.23-1.66-.57-1.97-.83Z"/>
          <path class="cls-30" d="M1057.94,673.16c-1.51.71-3.72,2.39-3.69,4.41.05,3.37,6.46,6.23,10.02,7.33,4.17,1.28,6.26.68,7.91,2.66,1.85,2.22,1.45,5.38,1.61,6.31,0,0,2.08-1.97,2.44-2.84,1.87-4.52-1.32-11.65-6.79-15.45-1.1-.76-6.72-4.66-11.5-2.42Z"/>
        </g>
      </g>
      <path class="cls-25" d="M1064,702.62c-.15,2-1.09,3.65-2.43,4.27-1.61.75-3.56-.1-4.75-2.11.87.05,1.93,0,3.11-.28,1.75-.42,3.12-1.21,4.07-1.89Z"/>
    </g>
  </g>
  <g id="Person:_Mann_rechts">
    <g>
      <path class="cls-20" d="M1218.59,1008.81c.04.1.08.19.1.3-1.64.55-4.02,1.11-6.92,1.03-3.2-.1-5.72-.94-7.25-1.6-.2.06-.39.1-.58.17h0c.06-.07.11-.15.17-.23.23-.32.43-.62.6-.91.41-.65.61-1.4.6-2.16,0-.52,0-1.04,0-1.56,2.28-.12,4.82-.12,7.55.06,2.13.15,4.12.39,5.96.69-.13.51-.26,1.01-.4,1.5-.24.9-.17,1.84.17,2.71Z"/>
      <path class="cls-20" d="M1295.36,818.99c-3.11,12.23-6.19,24.48-9.3,36.71-.02.24-.06.58-.13.97-.1.54-.26,1.08-.44,1.52.04.98,0,2.12-.19,3.35-.17,1.08-.9,3.86-2.82,6.85-2.82,4.4-7.71,7.42-9.29,5.38-1.35-1.72,2.31-3.11,3.8-6.76.79-1.93-.26-5.04-1.09-4.33-1.78,1.49-3.83,2.71-4.72,2.19-.27-.15-.44-.33-.54-.53-.34-.67.1-1.54.51-2.25,1.61-2.79,2.9-4.02,2.9-4.02.92-.93,2.16-2.22,3.7-3.89.04-.08.09-.16.14-.24,1.38-12.3,2.76-24.59,4.14-36.9-2.58-3.09-5.06-6.23-7.43-9.38l11.67-11.28c3.37,6.01,5.34,10.15,8.62,17.76.06.14.12.27.17.4.24.62.37,1.23.44,1.8h0c.14,1.25-.05,2.26-.13,2.66Z"/>
      <path class="cls-28" d="M1295.55,815.7c0,.11-.03.33-.06.64-.06-.57-.19-1.18-.44-1.8.16.37.33.77.5,1.17Z"/>
      <path class="cls-28" d="M1245.68,866.68v-.78c.08.28.08.54,0,.78Z"/>
      <path class="cls-20" d="M1295.08,1010.34c-1.57.55-3.84,1.1-6.6,1.1-3.05-.02-5.5-.72-7.12-1.35.38-1.11.41-2.32.04-3.44-.22-.67-.44-1.36-.65-2.05,2.24-.28,4.64-.51,7.19-.62,1.98-.09,3.88-.11,5.68-.07-.02.6-.06,1.17-.08,1.73-.1,1.75.49,3.4,1.55,4.7Z"/>
      <path class="cls-28" d="M1245.68,866.68v-.78c.08.28.08.54,0,.78Z"/>
      <path class="cls-45" d="M1259.23,1019.06l.03,1.96,38.69-.65-.03-1.96c-.02-1.23-.19-2.82-.63-4.6-.41-1.59-.98-2.93-1.47-3.98-.19.08-.4.17-.62.25-1.62.63-4.07,1.33-7.12,1.35-2.76,0-5.03-.55-6.6-1.1h0c-.25-.09-.48-.17-.69-.26-3.54,1.05-7,2.75-11.49,4.13-9.77,3-10.05,4.85-10.05,4.85Z"/>
      <path class="cls-45" d="M1221.38,1017.44l-.03,1.97-38.69-.65.03-1.97s.34-1.82,10.2-4.5c4.3-1.17,7.67-2.64,11.04-3.58h.01c.19-.06.38-.11.58-.17,1.53.66,4.04,1.5,7.25,1.6,2.9.08,5.28-.49,6.92-1.03h0c.32-.1.61-.22.87-.31.46,1.07.98,2.43,1.33,4.03.39,1.79.5,3.39.48,4.61Z"/>
      <path class="cls-20" d="M1255.99,772.52c-1.24,1.26-3.66,3.32-7.08,4.46-1.37.46-2.89.78-4.57.85-.29.01-.58.01-.88.01-1.39-.02-2.67-.21-3.85-.51-4.13-1.05-6.94-3.48-8.23-4.8,2.17-.28,4.47-.5,6.89-.63l.24-13.87c.06-3.19,2.68-5.77,5.87-5.77h.1c3.23.06,5.83,2.74,5.77,5.97l-.23,13.73c2.07.13,4.06.33,5.96.57Z"/>
      <path class="cls-11" d="M1245.89,843.93l-.06,6.54-.14,15.43v.78s-.03,2.75-.03,2.75l-.02,2.23c-2.73,15.84-5.4,31.69-8.05,47.55-4.77,28.77-9.38,57.57-13.83,86.39-1.5-.37-3.15-.72-4.95-1.01-1.84-.3-3.84-.54-5.96-.69-2.73-.18-5.27-.18-7.55-.06-.92.05-1.8.12-2.64.19-2.55-25.09-3.61-55.8-.28-90.55,2.65-27.82,7.56-52.38,13-73.12,7.8,1.67,17.24,3.1,28.01,3.49.85.03,1.68.06,2.5.07Z"/>
      <path class="cls-47" d="M1298.95,1004.16c-1.67-.13-3.45-.23-5.34-.26-1.8-.04-3.7-.02-5.68.07-2.55.12-4.95.34-7.19.62-1.57.2-3.05.44-4.45.69-6.12-27.81-12.39-55.59-18.81-83.32-3.89-16.78-7.84-33.54-11.84-50.3l.02-2.23.02-2.75c.08-.24.08-.5,0-.78l.14-15.43.06-6.54c10.89.21,20.45-.71,28.33-1.97,6.4,18.96,12.47,40.89,17.01,65.48,6.78,36.73,8.34,69.63,7.73,96.72Z"/>
      <path class="cls-34" d="M1245.68,866.68v-.78c.08.28.08.54,0,.78Z"/>
      <path class="cls-15" d="M1273.43,808.77h0c1.29,5.86,2.86,10.85,4.5,18.77,1.53,7.41,3.29,18.29,3.76,31.98-9.26,2.1-21.6,3.98-36.16,3.7l-.17-12.5-1.02-72.9c5.89-.24,9.91-3.54,11.65-5.31.49-.5.8-.87.93-1.03,1.89-.28,4.47-.46,7.47-.1,0,0,6.15.38,7.65,2.05.03.03.28.33.37.28.03-.02.03-.07.03-.1,1.26.58,2.43,1.39,3.45,2.44l15.16,15.68-4.79,4.63-11.67,11.28-1.15,1.11Z"/>
      <g>
        <path class="cls-20" d="M1262.43,745.06l-.02,1.25c-.03,1.83-1.55,3.31-3.38,3.27-.32,0-.62-.06-.92-.15-3.15,7.92-12.01,12.22-20.27,9.61-6.46-2.04-10.36-8.46-9.49-14.96-.98-.74-1.5-2.01-1.24-3.29l.25-1.22c.31-1.5,1.58-2.56,3.04-2.66l1.1-3.45c2.03-6.42,8.02-10.56,14.45-10.56,1.5,0,3.03.22,4.54.7,7.73,2.45,12.14,10.63,10.03,18.39,1.16.54,1.96,1.72,1.93,3.07Z"/>
        <path class="cls-27" d="M1259.81,744.12c.23,0,.55.96.28,1.82-.19.62-.7,1.23-.9,1.14-.38-.16.22-2.97.62-2.96Z"/>
        <g>
          <path class="cls-45" d="M1238.87,736.09c-.23-.4-.69-1.09-1.51-1.67-1.04-.73-2.07-.87-2.55-.91-.41-.69-.39-1.03-.27-1.21.42-.63,2.55-.23,3.98.89.97.76,1.92,2.08,1.56,2.64-.19.29-.69.33-1.21.27Z"/>
          <rect x="1246.61" y="738.03" width="2.42" height="2.84" rx="1.21" ry="1.21" transform="translate(2341.08 1692.67) rotate(-169.57)"/>
          <rect x="1234.95" y="735.89" width="2.42" height="2.84" rx="1.21" ry="1.21" transform="translate(2318.33 1686.31) rotate(-169.56)"/>
          <path class="cls-3" d="M1241.44,741.65c-.1.52-.18.87-.27,1.39-.05.2-.15.6-.28.84-.35.64-.9.95-1.2,1.15-.8.5-.92,1.01-.83,1.44.13.57,1.12,1.11,2.3.71"/>
          <path class="cls-45" d="M1250.82,738.24c-.23-.4-.69-1.09-1.51-1.67-1.04-.73-2.07-.87-2.55-.91-.41-.69-.39-1.03-.27-1.21.42-.63,2.55-.23,3.98.89.97.76,1.92,2.08,1.56,2.64-.19.29-.69.33-1.21.27Z"/>
        </g>
        <path class="cls-27" d="M1238.49,759.23c.97.27,2.23.52,3.72.57,1.77.06,3.26-.17,4.35-.43-2.73,2.34-5.47,4.68-8.2,7.03.04-2.39.09-4.78.13-7.17Z"/>
      </g>
      <path class="cls-45" d="M1256.42,737.49c-.08,3.37-1.95,6.39-1.99,6.3,0,0,1-.64,2.85-1.3,1.82-.65,2.62-.65,3.25-.75,0,0,1.1-5.06,1.16-6.36.07-1.37.06-7.18-3.41-8.04-1.57-.39-3.76.36-4.42,1.82-1.03,2.28,2.65,4.16,2.55,8.33Z"/>
      <path class="cls-45" d="M1232.93,730.68c-1.53,2.76-2.45,6.62-2.53,6.2-.04-.22-.1-.4-.09-.47.18-4.74,1.19-7.1,1.19-7.1.93-2.16,2.95-5.93,3.78-5.64.55.19.72,2.14-.02,3.48-.37.68-.8.88-1.56,2.09-.28.45-.46.87-.77,1.43Z"/>
      <path class="cls-45" d="M1233.99,721.09c-1.2,1.97-1.21,4.61-.49,6.18,3.35,7.32,25.63,7.2,29.09.39.11-.21,1.22-2.4.31-3.83-.83-1.3-2.69-.92-5.35-1.51-3.95-.88-3.71-2.58-7.9-4.1-1.11-.4-5.22-1.79-9.94-.57-1.66.43-4.29,1.11-5.71,3.44Z"/>
      <ellipse class="cls-25" cx="1239.12" cy="751.46" rx=".91" ry="3.76" transform="translate(205.13 1766.84) rotate(-75.71)"/>
      <path class="cls-45" d="M1238.8,750.31c.36.43,2.45,2.82,5.57,2.75.95-.02,1.75-.27,2.34-.52-.62-.2-1.48-.53-2.41-1.11-2.05-1.27-2.82-2.72-4.12-2.58-.32.03-.75.17-1.24.63l-.15.83Z"/>
      <path class="cls-45" d="M1238.9,750.33c-.42.28-2.86,1.87-5.32.8-.75-.33-1.3-.81-1.69-1.25.56.01,1.35-.02,2.27-.27,2.04-.53,3.12-1.65,4.11-1.1.25.14.54.41.78.99l-.15.83Z"/>
      <path class="cls-39" d="M1245.53,863.22c-.49,0-.99-.02-1.48-.03-13.86-.42-25.6-2.7-34.55-5.12,1.01-7.62,2.52-17.73,4.8-29.57,2.39-12.48,3.86-17.02,4.72-25.27.05-.5.1-1.01.15-1.52l-9.79,5.43-2.43-4.38-8.71-15.68-1.41-2.54,19.07-10.58c.71-.4,1.44-.7,2.18-.92h0c1.74-.6,4.06-1.21,6.82-1.43,2.23-.18,4.18-.08,5.75.12.12.14.36.42.72.8,1.66,1.69,5.83,5.22,12.07,5.31.3,0,.59,0,.88-.01l1.02,72.9.17,12.5Z"/>
      <path class="cls-20" d="M1206.96,802.76c-4.18,2.22-11.26,5.75-19.63,8.93-1.19.45-2.61.99-4.06,1.19-.01,0-.03,0-.05,0-2.18.4-4.07-.4-4.63-.66-11.19-5.73-22.38-11.45-33.57-17.18-1.05.15-2.3.24-3.7.12-1.1-.08-3.93-.59-7.05-2.25-4.62-2.46-8.01-7.09-6.11-8.84,1.61-1.48,3.29,2.05,7.04,3.25,2,.63,5-.66,4.24-1.43-1.63-1.66-3-3.6-2.57-4.54.12-.28.3-.46.49-.58.65-.4,1.55-.03,2.29.33,2.91,1.38,4.24,2.57,4.24,2.57,1.12.94,2.71,2.25,4.83,3.88,10.82,4.07,21.92,7.37,32.77,11.35,8.02-6.13,16.62-11.73,16.62-11.73.05-.03.1-.06.15-.1l8.71,15.68Z"/>
    </g>
  </g>
</svg>