<?xml version="1.0" encoding="UTF-8"?>
<svg xmlns="http://www.w3.org/2000/svg" viewBox="0 0 4000 4000">
  <defs>
    <style>
      .cls-1 {
        fill: #9f5d85;
      }

      .cls-2 {
        fill: #376185;
      }

      .cls-3 {
        letter-spacing: 0em;
      }

      .cls-4 {
        fill: #a0c735;
      }

      .cls-5 {
        fill: #c2474b;
      }

      .cls-6 {
        fill: #934976;
      }

      .cls-7 {
        letter-spacing: 0em;
      }

      .cls-8 {
        fill: #73bbe7;
      }

      .cls-9 {
        font-family: Arial-BoldMT, Arial;
        font-size: 24px;
        font-weight: 700;
      }

      .cls-9, .cls-10 {
        fill: #fff;
      }

      .cls-11 {
        fill: #873567;
      }

      .cls-12 {
        letter-spacing: 0em;
      }

      .cls-13 {
        fill: #c7e4f6;
      }

      .cls-14 {
        fill: #eb8d3b;
      }

      .cls-15 {
        fill: #abd6f1;
      }

      .cls-16 {
        fill: #ed9b54;
      }

      .cls-17 {
        fill: #5f819e;
      }

      .cls-18 {
        fill: #aacd4c;
      }

      .cls-19 {
        fill: #ab7194;
      }

      .cls-20 {
        fill: #7391aa;
      }

      .cls-21 {
        fill: #e87f23;
      }

      .cls-22 {
        letter-spacing: 0em;
      }

      .cls-23 {
        fill: #87a0b6;
      }

      .cls-24 {
        fill: #b786a4;
      }

      .cls-25 {
        fill: #95c11f;
      }

      .cls-26 {
        letter-spacing: -.07em;
      }

      .cls-27 {
        fill: #d17578;
      }

      .cls-28 {
        fill: #e6710a;
      }

      .cls-29 {
        fill: #bfda78;
      }

      .cls-30 {
        letter-spacing: -.02em;
      }

      .cls-31 {
        fill: #b5d462;
      }

      .cls-32 {
        letter-spacing: -.06em;
      }

      .cls-33 {
        letter-spacing: -.06em;
      }

      .cls-34 {
        letter-spacing: -.06em;
      }

      .cls-35 {
        letter-spacing: -.06em;
      }

      .cls-36 {
        letter-spacing: -.04em;
      }

      .cls-37 {
        letter-spacing: -.04em;
      }

      .cls-38 {
        fill: #4b7191;
      }

      .cls-39 {
        letter-spacing: 0em;
      }

      .cls-40 {
        fill: #ba3034;
      }

      .cls-41 {
        fill: #b2191e;
      }

      .cls-42 {
        fill: #e3f1fa;
      }

      .cls-43 {
        fill: #8fc9ec;
      }
    </style>
  </defs>
  <g id="Hintergrund">
    <g id="Hintergrund-2" data-name="Hintergrund">
      <g>
        <path class="cls-42" d="M3991.09,1810.03c-6-63.68-14.98-126.49-26.81-188.29-12.01-62.72-26.95-124.4-44.67-184.89-17.92-61.2-38.69-121.17-62.15-179.78-23.66-59.11-50.07-116.83-79.06-173-29.17-56.52-60.94-111.46-95.18-164.68-34.37-53.42-71.21-105.11-110.36-154.88-39.24-49.89-80.8-97.86-124.52-143.75-43.73-45.91-89.63-89.75-137.52-131.34-47.84-41.55-97.67-80.86-149.33-117.77-51.51-36.81-104.83-71.23-159.82-103.11-54.71-31.72-111.07-60.92-168.91-87.45-57.42-26.33-116.31-50.02-176.5-70.92-59.59-20.7-120.47-38.65-182.48-53.71-61.2-14.87-123.5-26.92-186.76-36.01-62.23-8.94-125.38-15.02-189.32-18.09C2065.33.8,2032.76,0,2000,0c-30.99,0-61.82.71-92.47,2.11-63.95,2.91-127.12,8.82-189.37,17.6-63.28,8.93-125.62,20.82-186.85,35.52-62.05,14.9-122.98,32.69-182.62,53.22-60.25,20.74-119.2,44.29-176.69,70.47-57.91,26.37-114.34,55.42-169.14,87-55.07,31.73-108.49,66.02-160.09,102.69-51.76,36.78-101.69,75.96-149.63,117.38-48,41.47-94.01,85.19-137.86,130.99-43.84,45.78-85.52,93.64-124.89,143.42-39.29,49.67-76.26,101.26-110.77,154.59-34.38,53.13-66.3,107.99-95.62,164.42-29.13,56.1-55.69,113.75-79.51,172.8-23.61,58.55-44.54,118.47-62.62,179.61-17.88,60.45-32.98,122.09-45.15,184.78-11.99,61.77-21.14,124.56-27.31,188.22C3.36,1867.34.18,1930.7.02,1994.76c-.01,1.75-.02,3.49-.02,5.24,0,64.07,3.02,127.44,8.91,189.97,6,63.68,14.98,126.49,26.81,188.29,12.01,62.72,26.95,124.4,44.67,184.89,17.92,61.2,38.69,121.17,62.15,179.78,23.66,59.12,50.07,116.83,79.06,173.01,29.17,56.51,60.94,111.45,95.18,164.67,34.37,53.42,71.21,105.11,110.36,154.89,39.24,49.88,80.8,97.85,124.52,143.74,43.73,45.91,89.63,89.75,137.52,131.34,47.84,41.55,97.67,80.86,149.33,117.77,51.51,36.81,104.83,71.23,159.82,103.11,54.71,31.72,111.07,60.93,168.91,87.45,57.42,26.33,116.31,50.02,176.5,70.92,59.59,20.7,120.47,38.65,182.48,53.71,61.2,14.87,123.5,26.92,186.76,36.01,62.23,8.94,125.38,15.02,189.32,18.1,32.37,1.55,64.94,2.35,97.7,2.35,30.99,0,61.82-.71,92.47-2.11,63.95-2.91,127.12-8.82,189.37-17.6,63.28-8.92,125.62-20.82,186.85-35.52,62.05-14.9,122.98-32.69,182.62-53.22,60.25-20.74,119.2-44.29,176.69-70.47,57.91-26.37,114.34-55.42,169.14-87,55.07-31.73,108.49-66.01,160.09-102.68,51.76-36.78,101.69-75.97,149.63-117.39,48-41.47,94.01-85.19,137.86-130.99,43.84-45.78,85.52-93.64,124.89-143.42,39.29-49.67,76.26-101.26,110.77-154.59,34.38-53.13,66.3-107.99,95.62-164.42,29.13-56.1,55.69-113.75,79.51-172.8,23.61-58.55,44.54-118.47,62.62-179.61,17.88-60.45,32.98-122.09,45.15-184.78,11.99-61.77,21.14-124.56,27.31-188.22,6.05-62.52,9.23-125.88,9.39-189.94.01-1.75.02-3.49.02-5.24,0-64.07-3.02-127.44-8.91-189.97ZM3599.99,2004.19c-.13,51.25-2.67,101.94-7.52,151.95-4.93,50.93-12.25,101.16-21.85,150.58-9.73,50.15-21.81,99.46-36.11,147.82-14.47,48.92-31.21,96.85-50.11,143.69-19.05,47.24-40.29,93.36-63.6,138.24-23.45,45.15-49,89.04-76.49,131.54-27.61,42.66-57.19,83.93-88.62,123.67-31.49,39.83-64.84,78.11-99.91,114.74-35.08,36.64-71.89,71.61-110.29,104.79-38.36,33.13-78.3,64.48-119.71,93.91-41.28,29.33-84.01,56.76-128.07,82.15-43.83,25.26-88.98,48.5-135.31,69.6-45.99,20.94-93.15,39.78-141.35,56.37-47.72,16.43-96.46,30.66-146.1,42.58-48.99,11.76-98.85,21.27-149.48,28.41-49.8,7.03-100.33,11.76-151.49,14.09-24.52,1.11-49.18,1.68-73.98,1.68-26.21,0-52.26-.64-78.16-1.88-51.15-2.46-101.67-7.33-151.46-14.48-50.6-7.27-100.45-16.91-149.41-28.8-49.6-12.06-98.3-26.42-145.98-42.97-48.15-16.72-95.26-35.67-141.2-56.74-46.27-21.22-91.36-44.59-135.13-69.96-43.99-25.51-86.65-53.04-127.85-82.49-41.33-29.53-81.19-60.98-119.46-94.21-38.32-33.28-75.04-68.35-110.03-105.08-34.97-36.71-68.22-75.09-99.61-114.99-31.32-39.83-60.79-81.17-88.29-123.91-27.38-42.57-52.81-86.53-76.14-131.74-23.19-44.94-44.32-91.11-63.25-138.4-18.77-46.89-35.38-94.87-49.72-143.83-14.17-48.39-26.13-97.73-35.73-147.91-9.47-49.44-16.65-99.69-21.45-150.64-4.72-50.02-7.13-100.71-7.13-151.97,0-1.4.01-2.79.01-4.19.13-51.25,2.67-101.94,7.52-151.95,4.93-50.93,12.25-101.16,21.85-150.58,9.73-50.15,21.81-99.46,36.11-147.82,14.47-48.92,31.21-96.85,50.11-143.69,19.05-47.24,40.29-93.36,63.6-138.24,23.45-45.15,49-89.03,76.49-131.54,27.61-42.66,57.19-83.93,88.62-123.67,31.49-39.82,64.84-78.11,99.91-114.74,35.08-36.64,71.89-71.61,110.29-104.79,38.36-33.13,78.3-64.48,119.71-93.91,41.28-29.33,84.01-56.76,128.07-82.14,43.83-25.27,88.98-48.51,135.31-69.61,45.99-20.94,93.15-39.77,141.35-56.37,47.72-16.42,96.46-30.65,146.1-42.57,48.99-11.77,98.85-21.28,149.48-28.42,49.8-7.03,100.33-11.76,151.49-14.08,24.52-1.12,49.18-1.69,73.98-1.69,26.21,0,52.26.64,78.16,1.88,51.15,2.46,101.67,7.33,151.46,14.48,50.6,7.27,100.45,16.91,149.41,28.81,49.6,12.05,98.3,26.41,145.98,42.96,48.15,16.72,95.26,35.68,141.2,56.74,46.27,21.22,91.36,44.59,135.13,69.97,43.99,25.5,86.65,53.04,127.85,82.48,41.33,29.53,81.19,60.98,119.46,94.21,38.32,33.28,75.04,68.35,110.03,105.08,34.97,36.71,68.22,75.09,99.61,114.99,31.32,39.83,60.79,81.17,88.29,123.91,27.38,42.58,52.81,86.53,76.14,131.74,23.19,44.94,44.32,91.11,63.25,138.41,18.77,46.88,35.38,94.86,49.72,143.82,14.17,48.39,26.13,97.74,35.73,147.91,9.47,49.44,16.65,99.69,21.45,150.64,4.72,50.02,7.13,100.71,7.13,151.97,0,1.4-.01,2.79-.01,4.19Z"/>
        <path class="cls-13" d="M3592.87,1848.03c-4.8-50.95-11.98-101.2-21.45-150.64-9.6-50.17-21.56-99.52-35.73-147.91-14.34-48.96-30.95-96.94-49.72-143.82-18.93-47.3-40.06-93.47-63.25-138.41-23.33-45.21-48.76-89.16-76.14-131.74-27.5-42.74-56.97-84.08-88.29-123.91-31.39-39.9-64.64-78.28-99.61-114.99-34.99-36.73-71.71-71.8-110.03-105.08-38.27-33.23-78.13-64.68-119.46-94.21-41.2-29.44-83.86-56.98-127.85-82.48-43.77-25.38-88.86-48.75-135.13-69.97-45.94-21.06-93.05-40.02-141.2-56.74-47.68-16.55-96.38-30.91-145.98-42.96-48.96-11.9-98.81-21.54-149.41-28.81-49.79-7.15-100.31-12.02-151.46-14.48-25.9-1.24-51.95-1.88-78.16-1.88-24.8,0-49.46.57-73.98,1.69-51.16,2.32-101.69,7.05-151.49,14.08-50.63,7.14-100.49,16.65-149.48,28.42-49.64,11.92-98.38,26.15-146.1,42.57-48.2,16.6-95.36,35.43-141.35,56.37-46.33,21.1-91.48,44.34-135.31,69.61-44.06,25.38-86.79,52.81-128.07,82.14-41.41,29.43-81.35,60.78-119.71,93.91-38.4,33.18-75.21,68.15-110.29,104.79-35.07,36.63-68.42,74.92-99.91,114.74-31.43,39.74-61.01,81.01-88.62,123.67-27.49,42.51-53.04,86.39-76.49,131.54-23.31,44.88-44.55,91-63.6,138.24-18.9,46.84-35.64,94.77-50.11,143.69-14.3,48.36-26.38,97.67-36.11,147.82-9.6,49.42-16.92,99.65-21.85,150.58-4.85,50.01-7.39,100.7-7.52,151.95,0,1.4-.01,2.79-.01,4.19,0,51.26,2.41,101.95,7.13,151.97,4.8,50.95,11.98,101.2,21.45,150.64,9.6,50.18,21.56,99.52,35.73,147.91,14.34,48.96,30.95,96.94,49.72,143.83,18.93,47.29,40.06,93.46,63.25,138.4,23.33,45.21,48.76,89.17,76.14,131.74,27.5,42.74,56.97,84.08,88.29,123.91,31.39,39.9,64.64,78.28,99.61,114.99,34.99,36.73,71.71,71.8,110.03,105.08,38.27,33.23,78.13,64.68,119.46,94.21,41.2,29.45,83.86,56.98,127.85,82.49,43.77,25.37,88.86,48.74,135.13,69.96,45.94,21.07,93.05,40.02,141.2,56.74,47.68,16.55,96.38,30.91,145.98,42.97,48.96,11.89,98.81,21.53,149.41,28.8,49.79,7.15,100.31,12.02,151.46,14.48,25.9,1.24,51.95,1.88,78.16,1.88,24.8,0,49.46-.57,73.98-1.68,51.16-2.33,101.69-7.06,151.49-14.09,50.63-7.14,100.49-16.65,149.48-28.41,49.64-11.92,98.38-26.15,146.1-42.58,48.2-16.59,95.36-35.43,141.35-56.37,46.33-21.1,91.48-44.34,135.31-69.6,44.06-25.39,86.79-52.82,128.07-82.15,41.41-29.43,81.35-60.78,119.71-93.91,38.4-33.18,75.21-68.15,110.29-104.79,35.07-36.63,68.42-74.91,99.91-114.74,31.43-39.74,61.01-81.01,88.62-123.67,27.49-42.5,53.04-86.39,76.49-131.54,23.31-44.88,44.55-91,63.6-138.24,18.9-46.84,35.64-94.77,50.11-143.69,14.3-48.36,26.38-97.67,36.11-147.82,9.6-49.42,16.92-99.65,21.85-150.58,4.85-50.01,7.39-100.7,7.52-151.95,0-1.4.01-2.79.01-4.19,0-51.26-2.41-101.95-7.13-151.97ZM3199.98,2003.14c-.1,38.44-2.01,76.46-5.64,113.97-3.7,38.19-9.19,75.87-16.38,112.93-7.3,37.61-16.36,74.6-27.08,110.87-10.86,36.68-23.42,72.63-37.59,107.76-14.29,35.43-30.23,70.02-47.71,103.67-17.59,33.87-36.74,66.78-57.36,98.66-20.71,32-42.89,62.95-66.46,92.76-23.62,29.86-48.63,58.58-74.93,86.05-26.31,27.48-53.92,53.71-82.72,78.59-28.76,24.86-58.72,48.37-89.77,70.44-30.96,22-63.02,42.56-96.06,61.61-32.87,18.94-66.74,36.37-101.49,52.19-34.49,15.71-69.86,29.83-106.01,42.27-35.79,12.32-72.34,23-109.57,31.94-36.74,8.82-74.14,15.97-112.11,21.32-37.35,5.27-75.25,8.8-113.62,10.55-18.39.83-36.88,1.28-55.48,1.28-19.66,0-39.2-.49-58.62-1.42-38.36-1.85-76.25-5.5-113.59-10.86-37.96-5.46-75.34-12.68-112.06-21.6-37.2-9.04-73.72-19.82-109.48-32.23-36.12-12.54-71.45-26.76-105.9-42.56-34.7-15.92-68.52-33.43-101.35-52.47-32.99-19.12-64.99-39.77-95.89-61.86-31-22.14-60.9-45.73-89.6-70.65-28.73-24.96-56.27-51.26-82.52-78.81-26.23-27.53-51.16-56.31-74.7-86.24-23.5-29.87-45.6-60.88-66.22-92.94-20.54-31.93-39.6-64.9-57.1-98.8-17.39-33.71-33.23-68.34-47.43-103.81-14.08-35.16-26.54-71.15-37.29-107.86-10.63-36.3-19.61-73.3-26.82-110.93-7.09-37.08-12.46-74.77-16.06-112.98-3.54-37.52-5.37-75.54-5.37-113.98,0-1.05.02-2.09.02-3.14.1-38.44,2.01-76.46,5.64-113.97,3.7-38.19,9.19-75.86,16.38-112.93,7.3-37.61,16.36-74.6,27.08-110.86,10.86-36.69,23.42-72.64,37.59-107.77,14.29-35.43,30.23-70.02,47.71-103.67,17.59-33.86,36.74-66.78,57.36-98.66,20.71-32,42.89-62.95,66.46-92.75,23.62-29.87,48.63-58.59,74.93-86.06,26.31-27.48,53.92-53.71,82.72-78.59,28.76-24.85,58.72-48.37,89.77-70.44,30.96-22,63.02-42.56,96.06-61.61,32.87-18.94,66.74-36.37,101.49-52.19,34.49-15.71,69.86-29.83,106.01-42.27,35.79-12.32,72.34-23,109.57-31.94,36.74-8.82,74.14-15.96,112.11-21.32,37.35-5.27,75.25-8.8,113.62-10.55,18.39-.83,36.88-1.28,55.48-1.28,19.66,0,39.2.49,58.62,1.42,38.36,1.85,76.25,5.5,113.59,10.86,37.96,5.46,75.34,12.68,112.06,21.6,37.2,9.04,73.72,19.82,109.48,32.24,36.12,12.54,71.45,26.75,105.9,42.55,34.7,15.92,68.52,33.43,101.35,52.47,32.99,19.12,64.99,39.77,95.89,61.86,31,22.15,60.9,45.73,89.6,70.65,28.73,24.96,56.27,51.26,82.52,78.81,26.23,27.53,51.16,56.32,74.7,86.24,23.5,29.87,45.6,60.88,66.22,92.94,20.54,31.93,39.6,64.9,57.1,98.8,17.39,33.71,33.23,68.34,47.43,103.81,14.08,35.16,26.54,71.15,37.29,107.86,10.63,36.3,19.61,73.3,26.82,110.93,7.09,37.08,12.46,74.78,16.06,112.98,3.54,37.52,5.37,75.54,5.37,113.98,0,1.05-.02,2.09-.02,3.14Z"/>
        <path class="cls-15" d="M3194.63,1886.02c-3.6-38.2-8.97-75.9-16.06-112.98-7.21-37.63-16.19-74.63-26.82-110.93-10.75-36.71-23.21-72.7-37.29-107.86-14.2-35.47-30.04-70.1-47.43-103.81-17.5-33.9-36.56-66.87-57.1-98.8-20.62-32.06-42.72-63.07-66.22-92.94-23.54-29.92-48.47-58.71-74.7-86.24-26.25-27.55-53.79-53.85-82.52-78.81-28.7-24.92-58.6-48.5-89.6-70.65-30.9-22.09-62.9-42.74-95.89-61.86-32.83-19.04-66.65-36.55-101.35-52.47-34.45-15.8-69.78-30.01-105.9-42.55-35.76-12.42-72.28-23.2-109.48-32.24-36.72-8.92-74.1-16.14-112.06-21.6-37.34-5.36-75.23-9.01-113.59-10.86-19.42-.93-38.96-1.42-58.62-1.42-18.6,0-37.09.45-55.48,1.28-38.37,1.75-76.27,5.28-113.62,10.55-37.97,5.36-75.37,12.5-112.11,21.32-37.23,8.94-73.78,19.62-109.57,31.94-36.15,12.44-71.52,26.56-106.01,42.27-34.75,15.82-68.62,33.25-101.49,52.19-33.04,19.05-65.1,39.61-96.06,61.61-31.05,22.07-61.01,45.59-89.77,70.44-28.8,24.88-56.41,51.11-82.72,78.59-26.3,27.47-51.31,56.19-74.93,86.06-23.57,29.8-45.75,60.75-66.46,92.75-20.62,31.88-39.77,64.8-57.36,98.66-17.48,33.65-33.42,68.24-47.71,103.67-14.17,35.13-26.73,71.08-37.59,107.77-10.72,36.26-19.78,73.25-27.08,110.86-7.19,37.07-12.68,74.74-16.38,112.93-3.63,37.51-5.54,75.53-5.64,113.97,0,1.05-.02,2.09-.02,3.14,0,38.44,1.83,76.46,5.37,113.98,3.6,38.21,8.97,75.9,16.06,112.98,7.21,37.63,16.19,74.63,26.82,110.93,10.75,36.71,23.21,72.7,37.29,107.86,14.2,35.47,30.04,70.1,47.43,103.81,17.5,33.9,36.56,66.87,57.1,98.8,20.62,32.06,42.72,63.07,66.22,92.94,23.54,29.93,48.47,58.71,74.7,86.24,26.25,27.55,53.79,53.85,82.52,78.81,28.7,24.92,58.6,48.51,89.6,70.65,30.9,22.09,62.9,42.74,95.89,61.86,32.83,19.04,66.65,36.55,101.35,52.47,34.45,15.8,69.78,30.02,105.9,42.56,35.76,12.41,72.28,23.19,109.48,32.23,36.72,8.92,74.1,16.14,112.06,21.6,37.34,5.36,75.23,9.01,113.59,10.86,19.42.93,38.96,1.42,58.62,1.42,18.6,0,37.09-.45,55.48-1.28,38.37-1.75,76.27-5.28,113.62-10.55,37.97-5.35,75.37-12.5,112.11-21.32,37.23-8.94,73.78-19.62,109.57-31.94,36.15-12.44,71.52-26.56,106.01-42.27,34.75-15.82,68.62-33.25,101.49-52.19,33.04-19.05,65.1-39.61,96.06-61.61,31.05-22.07,61.01-45.58,89.77-70.44,28.8-24.88,56.41-51.11,82.72-78.59,26.3-27.47,51.31-56.19,74.93-86.05,23.57-29.81,45.75-60.76,66.46-92.76,20.62-31.88,39.77-64.79,57.36-98.66,17.48-33.65,33.42-68.24,47.71-103.67,14.17-35.13,26.73-71.08,37.59-107.76,10.72-36.27,19.78-73.26,27.08-110.87,7.19-37.06,12.68-74.74,16.38-112.93,3.63-37.51,5.54-75.53,5.64-113.97,0-1.05.02-2.09.02-3.14,0-38.44-1.83-76.46-5.37-113.98ZM2799.99,2002.09c-.07,25.63-1.34,50.97-3.77,75.98-2.46,25.47-6.12,50.58-10.91,75.29-4.87,25.07-10.91,49.73-18.06,73.91-7.23,24.46-15.61,48.42-25.06,71.84-9.53,23.62-20.15,46.68-31.8,69.12-11.73,22.57-24.5,44.52-38.25,65.77-13.8,21.33-28.59,41.97-44.3,61.84-15.75,19.91-32.42,39.05-49.95,57.37-17.55,18.32-35.95,35.8-55.15,52.39-19.18,16.57-39.15,32.25-59.85,46.96-20.64,14.67-42.01,28.38-64.03,41.07-21.92,12.63-44.5,24.25-67.66,34.8-23,10.47-46.58,19.88-70.68,28.18-23.86,8.21-48.23,15.33-73.04,21.29-24.5,5.88-49.43,10.64-74.75,14.21-24.89,3.52-50.16,5.87-75.74,7.03-12.26.56-24.59.86-36.99.86-13.1,0-26.13-.33-39.08-.95-25.58-1.23-50.84-3.66-75.73-7.24-25.3-3.64-50.22-8.45-74.7-14.39-24.81-6.03-49.15-13.22-72.99-21.5-24.08-8.36-47.63-17.83-70.6-28.37-23.14-10.61-45.68-22.29-67.56-34.97-22-12.76-43.33-26.52-63.93-41.24-20.67-14.77-40.6-30.49-59.73-47.11-19.16-16.64-37.52-34.17-55.02-52.53-17.48-18.36-34.11-37.55-49.8-57.5-15.66-19.91-30.4-40.59-44.15-61.96-13.69-21.28-26.4-43.26-38.06-65.87-11.6-22.47-22.16-45.56-31.62-69.2-9.39-23.44-17.7-47.43-24.86-71.91-7.09-24.2-13.08-48.87-17.88-73.96-4.73-24.71-8.31-49.84-10.71-75.31-2.36-25.02-3.58-50.36-3.58-75.99,0-.7.01-1.4.01-2.09.07-25.63,1.34-50.97,3.77-75.98,2.46-25.46,6.12-50.58,10.91-75.29,4.87-25.07,10.91-49.73,18.06-73.91,7.23-24.46,15.61-48.42,25.06-71.84,9.53-23.62,20.15-46.68,31.8-69.12,11.73-22.57,24.5-44.52,38.25-65.77,13.8-21.33,28.59-41.97,44.3-61.84,15.75-19.91,32.42-39.05,49.95-57.36,17.55-18.32,35.95-35.81,55.15-52.4,19.18-16.57,39.15-32.25,59.85-46.96,20.64-14.66,42.01-28.38,64.03-41.07,21.92-12.63,44.5-24.25,67.66-34.8,23-10.47,46.58-19.88,70.68-28.18,23.86-8.21,48.23-15.33,73.04-21.29,24.5-5.88,49.43-10.64,74.75-14.21,24.89-3.51,50.16-5.87,75.74-7.03,12.26-.56,24.59-.86,36.99-.86,13.1,0,26.13.33,39.08.95,25.58,1.23,50.84,3.66,75.73,7.24,25.3,3.64,50.22,8.45,74.7,14.4,24.81,6.02,49.15,13.21,72.99,21.49,24.08,8.36,47.63,17.83,70.6,28.37,23.14,10.61,45.68,22.29,67.56,34.98,22,12.75,43.33,26.51,63.93,41.23,20.67,14.77,40.6,30.49,59.73,47.11,19.16,16.64,37.52,34.17,55.02,52.54,17.48,18.35,34.11,37.54,49.8,57.49,15.66,19.91,30.4,40.59,44.15,61.96,13.69,21.29,26.4,43.26,38.06,65.87,11.6,22.47,22.16,45.56,31.62,69.2,9.39,23.45,17.7,47.44,24.86,71.91,7.09,24.2,13.08,48.87,17.88,73.96,4.73,24.72,8.31,49.84,10.71,75.32,2.36,25.01,3.58,50.35,3.58,75.98,0,.7-.01,1.4-.01,2.09Z"/>
        <path class="cls-43" d="M2796.42,1924.02c-2.4-25.48-5.98-50.6-10.71-75.32-4.8-25.09-10.79-49.76-17.88-73.96-7.16-24.47-15.47-48.46-24.86-71.91-9.46-23.64-20.02-46.73-31.62-69.2-11.66-22.61-24.37-44.58-38.06-65.87-13.75-21.37-28.49-42.05-44.15-61.96-15.69-19.95-32.32-39.14-49.8-57.49-17.5-18.37-35.86-35.9-55.02-52.54-19.13-16.62-39.06-32.34-59.73-47.11-20.6-14.72-41.93-28.48-63.93-41.23-21.88-12.69-44.42-24.37-67.56-34.98-22.97-10.54-46.52-20.01-70.6-28.37-23.84-8.28-48.18-15.47-72.99-21.49-24.48-5.95-49.4-10.76-74.7-14.4-24.89-3.58-50.15-6.01-75.73-7.24-12.95-.62-25.98-.95-39.08-.95-12.4,0-24.73.3-36.99.86-25.58,1.16-50.85,3.52-75.74,7.03-25.32,3.57-50.25,8.33-74.75,14.21-24.81,5.96-49.18,13.08-73.04,21.29-24.1,8.3-47.68,17.71-70.68,28.18-23.16,10.55-45.74,22.17-67.66,34.8-22.02,12.69-43.39,26.41-64.03,41.07-20.7,14.71-40.67,30.39-59.85,46.96-19.2,16.59-37.6,34.08-55.15,52.4-17.53,18.31-34.2,37.45-49.95,57.36-15.71,19.87-30.5,40.51-44.3,61.84-13.75,21.25-26.52,43.2-38.25,65.77-11.65,22.44-22.27,45.5-31.8,69.12-9.45,23.42-17.83,47.38-25.06,71.84-7.15,24.18-13.19,48.84-18.06,73.91-4.79,24.71-8.45,49.83-10.91,75.29-2.43,25.01-3.7,50.35-3.77,75.98,0,.69-.01,1.39-.01,2.09,0,25.63,1.22,50.97,3.58,75.99,2.4,25.47,5.98,50.6,10.71,75.31,4.8,25.09,10.79,49.76,17.88,73.96,7.16,24.48,15.47,48.47,24.86,71.91,9.46,23.64,20.02,46.73,31.62,69.2,11.66,22.61,24.37,44.59,38.06,65.87,13.75,21.37,28.49,42.05,44.15,61.96,15.69,19.95,32.32,39.14,49.8,57.5,17.5,18.36,35.86,35.89,55.02,52.53,19.13,16.62,39.06,32.34,59.73,47.11,20.6,14.72,41.93,28.48,63.93,41.24,21.88,12.68,44.42,24.36,67.56,34.97,22.97,10.54,46.52,20.01,70.6,28.37,23.84,8.28,48.18,15.47,72.99,21.5,24.48,5.94,49.4,10.75,74.7,14.39,24.89,3.58,50.15,6.01,75.73,7.24,12.95.62,25.98.95,39.08.95,12.4,0,24.73-.3,36.99-.86,25.58-1.16,50.85-3.51,75.74-7.03,25.32-3.57,50.25-8.33,74.75-14.21,24.81-5.96,49.18-13.08,73.04-21.29,24.1-8.3,47.68-17.71,70.68-28.18,23.16-10.55,45.74-22.17,67.66-34.8,22.02-12.69,43.39-26.4,64.03-41.07,20.7-14.71,40.67-30.39,59.85-46.96,19.2-16.59,37.6-34.07,55.15-52.39,17.53-18.32,34.2-37.46,49.95-57.37,15.71-19.87,30.5-40.51,44.3-61.84,13.75-21.25,26.52-43.2,38.25-65.77,11.65-22.44,22.27-45.5,31.8-69.12,9.45-23.42,17.83-47.38,25.06-71.84,7.15-24.18,13.19-48.84,18.06-73.91,4.79-24.71,8.45-49.82,10.91-75.29,2.43-25.01,3.7-50.35,3.77-75.98,0-.69.01-1.39.01-2.09,0-25.63-1.22-50.97-3.58-75.98ZM2399.99,2001.05c-.03,12.81-.67,25.48-1.88,37.99-1.23,12.73-3.06,25.29-5.46,37.64-2.43,12.54-5.45,24.87-9.03,36.96-3.61,12.22-7.8,24.21-12.52,35.92-4.77,11.81-10.08,23.34-15.91,34.55-5.86,11.29-12.24,22.26-19.12,32.89-6.9,10.67-14.29,20.98-22.15,30.92-7.87,9.95-16.21,19.53-24.98,28.68-8.77,9.16-17.97,17.91-27.57,26.2-9.59,8.29-19.57,16.12-29.92,23.48-10.32,7.33-21.01,14.19-32.02,20.54-10.96,6.31-22.25,12.12-33.83,17.39-11.5,5.24-23.29,9.95-35.34,14.09-11.93,4.11-24.11,7.67-36.52,10.65-12.25,2.94-24.72,5.32-37.37,7.11-12.45,1.75-25.09,2.93-37.88,3.51-6.13.28-12.29.43-18.49.43-6.55,0-13.07-.16-19.54-.47-12.79-.62-25.42-1.84-37.86-3.62-12.66-1.82-25.12-4.23-37.36-7.2-12.4-3.01-24.57-6.61-36.49-10.75-12.04-4.18-23.82-8.92-35.3-14.18-11.57-5.31-22.84-11.15-33.78-17.49-11-6.38-21.67-13.26-31.97-20.62-10.33-7.38-20.3-15.25-29.86-23.55-9.58-8.32-18.76-17.09-27.51-26.27-8.74-9.18-17.05-18.77-24.9-28.75-7.83-9.96-15.2-20.29-22.07-30.98-6.85-10.64-13.2-21.63-19.04-32.93-5.79-11.24-11.07-22.78-15.81-34.61-4.69-11.72-8.84-23.71-12.43-35.95-3.54-12.1-6.53-24.43-8.94-36.98-2.36-12.36-4.15-24.92-5.35-37.66-1.18-12.5-1.79-25.17-1.79-37.99,0-.35.01-.7.01-1.05.03-12.81.67-25.48,1.88-37.98,1.23-12.74,3.06-25.29,5.46-37.65,2.43-12.54,5.45-24.86,9.03-36.95,3.61-12.23,7.8-24.22,12.52-35.93,4.77-11.81,10.08-23.33,15.91-34.55,5.86-11.29,12.24-22.26,19.12-32.89,6.9-10.66,14.29-20.98,22.15-30.92,7.87-9.95,16.21-19.53,24.98-28.68,8.77-9.16,17.97-17.91,27.57-26.2,9.59-8.28,19.57-16.12,29.92-23.48,10.32-7.33,21.01-14.19,32.02-20.53,10.96-6.32,22.25-12.13,33.83-17.4,11.5-5.24,23.29-9.94,35.34-14.09,11.93-4.11,24.11-7.67,36.52-10.65,12.25-2.94,24.72-5.32,37.37-7.11,12.45-1.75,25.09-2.93,37.88-3.51,6.13-.28,12.29-.43,18.49-.43,6.55,0,13.07.16,19.54.47,12.79.62,25.42,1.84,37.86,3.63,12.66,1.81,25.12,4.22,37.36,7.19,12.4,3.02,24.57,6.61,36.49,10.75,12.04,4.18,23.82,8.92,35.3,14.18,11.57,5.31,22.84,11.15,33.78,17.49,11,6.38,21.67,13.26,31.97,20.62,10.33,7.39,20.3,15.25,29.86,23.56,9.58,8.31,18.76,17.08,27.51,26.26,8.74,9.18,17.05,18.78,24.9,28.75,7.83,9.96,15.2,20.29,22.07,30.98,6.85,10.64,13.2,21.63,19.04,32.94,5.79,11.23,11.07,22.77,15.81,34.6,4.69,11.72,8.84,23.71,12.43,35.95,3.54,12.1,6.53,24.43,8.94,36.98,2.36,12.36,4.15,24.92,5.35,37.66,1.18,12.5,1.79,25.18,1.79,37.99,0,.35-.01.7-.01,1.05Z"/>
      </g>
      <path class="cls-8" d="M2400,2000c0,.35-.01.7-.01,1.05-.03,12.81-.67,25.48-1.88,37.99-1.23,12.73-3.06,25.29-5.46,37.64-2.43,12.54-5.45,24.87-9.03,36.96-3.61,12.22-7.8,24.21-12.52,35.92-4.77,11.81-10.08,23.34-15.91,34.55-5.86,11.29-12.24,22.26-19.12,32.89-6.9,10.67-14.29,20.98-22.15,30.92-7.87,9.95-16.21,19.53-24.98,28.68-8.77,9.16-17.97,17.91-27.57,26.2-9.59,8.29-19.57,16.12-29.92,23.48-10.32,7.33-21.01,14.19-32.02,20.54-10.96,6.31-22.25,12.12-33.83,17.39-11.5,5.24-23.29,9.95-35.34,14.09-11.93,4.11-24.11,7.67-36.52,10.65-12.25,2.94-24.72,5.32-37.37,7.11-12.45,1.75-25.09,2.93-37.88,3.51-6.13.28-12.29.43-18.49.43-6.55,0-13.07-.16-19.54-.47-12.79-.62-25.42-1.84-37.86-3.62-12.66-1.82-25.12-4.23-37.36-7.2-12.4-3.01-24.57-6.61-36.49-10.75-12.04-4.18-23.82-8.92-35.3-14.18-11.57-5.31-22.84-11.15-33.78-17.49-11-6.38-21.67-13.26-31.97-20.62-10.33-7.38-20.3-15.25-29.86-23.55-9.58-8.32-18.76-17.09-27.51-26.27-8.74-9.18-17.05-18.77-24.9-28.75-7.83-9.96-15.2-20.29-22.07-30.98-6.85-10.64-13.2-21.63-19.04-32.93-5.79-11.24-11.07-22.78-15.81-34.61-4.69-11.72-8.84-23.71-12.43-35.95-3.54-12.1-6.53-24.43-8.94-36.98-2.36-12.36-4.15-24.92-5.35-37.66-1.18-12.5-1.79-25.17-1.79-37.99,0-.35.01-.7.01-1.05.03-12.81.67-25.48,1.88-37.98,1.23-12.74,3.06-25.29,5.46-37.65,2.43-12.54,5.45-24.86,9.03-36.95,3.61-12.23,7.8-24.22,12.52-35.93,4.77-11.81,10.08-23.33,15.91-34.55,5.86-11.29,12.24-22.26,19.12-32.89,6.9-10.66,14.29-20.98,22.15-30.92,7.87-9.95,16.21-19.53,24.98-28.68,8.77-9.16,17.97-17.91,27.57-26.2,9.59-8.28,19.57-16.12,29.92-23.48,10.32-7.33,21.01-14.19,32.02-20.53,10.96-6.32,22.25-12.13,33.83-17.4,11.5-5.24,23.29-9.94,35.34-14.09,11.93-4.11,24.11-7.67,36.52-10.65,12.25-2.94,24.72-5.32,37.37-7.11,12.45-1.75,25.09-2.93,37.88-3.51,6.13-.28,12.29-.43,18.49-.43,6.55,0,13.07.16,19.54.47,12.79.62,25.42,1.84,37.86,3.63,12.66,1.81,25.12,4.22,37.36,7.19,12.4,3.02,24.57,6.61,36.49,10.75,12.04,4.18,23.82,8.92,35.3,14.18,11.57,5.31,22.84,11.15,33.78,17.49,11,6.38,21.67,13.26,31.97,20.62,10.33,7.39,20.3,15.25,29.86,23.56,9.58,8.31,18.76,17.08,27.51,26.26,8.74,9.18,17.05,18.78,24.9,28.75,7.83,9.96,15.2,20.29,22.07,30.98,6.85,10.64,13.2,21.63,19.04,32.94,5.79,11.23,11.07,22.77,15.81,34.6,4.69,11.72,8.84,23.71,12.43,35.95,3.54,12.1,6.53,24.43,8.94,36.98,2.36,12.36,4.15,24.92,5.35,37.66,1.18,12.5,1.79,25.18,1.79,37.99Z"/>
      <rect class="cls-8" x="2000" y="2000" width="0" height="0" transform="translate(-232.63 263.51) rotate(-7.13)"/>
      <rect class="cls-8" x="2000" y="2000" width="0" height="0"/>
      <rect class="cls-8" x="2000" y="2000" width="0" height="0"/>
      <rect class="cls-8" x="2000" y="2000" width="0" height="0" transform="translate(-232.63 3736.49) rotate(-82.87)"/>
    </g>
  </g>
  <g id="Felder:_Grün">
    <g id="Felder:_Grün-2" data-name="Felder:_Grün">
      <path class="cls-29" d="M1767.74,410.68c-46.33,6.72-92.79,15.55-138.26,26.29l-90.93-377.3c57.39-13.59,116.03-24.74,174.51-33.17l54.68,384.18Z"/>
      <path class="cls-29" d="M1471.33,483.05c-44.18,15.41-88.1,32.92-130.75,52.14l-160.63-353.28c53.88-24.34,109.34-46.46,165.02-65.82l126.36,366.96Z"/>
      <path class="cls-29" d="M1617.81,439.77c-45.45,11.1-90.85,24.33-135.14,39.38l-126.35-366.97c55.85-19.03,113.17-35.74,170.56-49.7l90.93,377.29Z"/>
      <path class="cls-29" d="M1194.1,610.55c-40.35,23.45-80.15,48.97-118.46,75.97l-224.5-316.48c48.27-34.09,98.52-66.32,149.51-95.91l193.45,336.42Z"/>
      <path class="cls-29" d="M571.12,1266.1c-21.41,41.6-41.17,84.55-58.84,127.87l-359.97-145.08c22.25-54.67,47.21-108.91,74.26-161.39l344.55,178.6Z"/>
      <path class="cls-29" d="M507.8,1405.1c-17.34,43.44-32.91,88.1-46.35,132.91l-372.12-110.23c16.9-56.51,36.55-112.88,58.49-167.76l359.98,145.08Z"/>
      <path class="cls-29" d="M1065.86,693.48c-37.99,27.21-75.19,56.39-110.72,86.86l-253.53-293.72c44.82-38.49,91.78-75.33,139.74-109.64l224.51,316.5Z"/>
      <path class="cls-29" d="M647.4,1133.78c-25.29,39.42-49.06,80.29-70.75,121.67l-344.55-178.6c27.34-52.23,57.35-103.84,89.31-153.56l325.99,210.49Z"/>
      <path class="cls-29" d="M835.74,893.78c-32.22,33.9-63.27,69.56-92.41,106.12l-304.5-240.48c36.74-46.17,75.94-91.19,116.64-133.95l280.27,268.31Z"/>
      <path class="cls-29" d="M735.89,1009.31c-28.89,36.82-56.43,75.26-81.97,114.4l-326-210.49c32.2-49.43,66.97-97.95,103.46-144.39l304.51,240.48Z"/>
      <path class="cls-29" d="M1329.66,540.17c-42.53,19.56-84.58,41.19-125.16,64.38l-193.45-336.41c51.27-29.34,104.36-56.65,157.97-81.26l160.64,353.29Z"/>
      <path class="cls-29" d="M946.06,788.18c-35.26,30.7-69.54,63.26-102.02,96.93l-280.28-268.31c40.96-42.51,84.24-83.63,128.77-122.34l253.53,293.72Z"/>
      <path class="cls-31" d="M926.34,1450.23c-15.59,30.4-30.01,61.73-42.94,93.3l-359.99-145.08c17.53-42.96,37.13-85.57,58.36-126.83l344.57,178.61Z"/>
      <path class="cls-31" d="M878.91,1554.66c-12.63,31.79-23.99,64.36-33.82,96.98l-372.13-110.23c13.32-44.43,28.77-88.72,45.96-131.83l359.99,145.08Z"/>
      <path class="cls-31" d="M815.02,1774.71c-6.32,33.51-11.27,67.64-14.74,101.63l-386.19-37.86c4.65-46.24,11.39-92.65,20.04-138.16l380.89,74.39Z"/>
      <path class="cls-31" d="M841.68,1663.16c-9.51,32.78-17.7,66.28-24.37,99.77l-380.89-74.39c9.01-45.49,20.14-91.06,33.13-135.62l372.13,110.24Z"/>
      <path class="cls-31" d="M1207.43,1090.99c-27.19,23.74-53.61,48.97-78.59,75.05-24.95,26.06-49.01,53.55-71.57,81.79l-304.52-240.49c30.15-37.83,62.36-74.68,95.8-109.61,33.45-34.92,68.87-68.7,105.35-100.46l253.53,293.72Z"/>
      <path class="cls-31" d="M1049.82,1257.24c-22.27,28.46-43.47,58.2-63.08,88.51-19.61,30.31-38.05,61.85-54.87,93.83l-344.57-178.61c22.45-42.8,47.13-85.07,73.43-125.71,26.25-40.57,54.68-80.41,84.58-118.51l304.51,240.49Z"/>
      <path class="cls-31" d="M799.12,1888.28c-3.11,33.93-4.81,68.37-5.07,102.57l-388.02-1.02c.3-46.53,2.61-93.36,6.9-139.41l386.19,37.86Z"/>
      <g>
        <path class="cls-31" d="M798.85,2108.58l-386.3,36.85c-4.29-47.44-6.5-95.7-6.55-143.6l388,1.02c.08,35.13,1.71,70.65,4.85,105.73Z"/>
        <path class="cls-31" d="M804.12,2099.89c.39,4.7.8,9.4,1.24,14.09h.01c-.44-4.69-.86-9.39-1.25-14.09Z"/>
      </g>
      <path class="cls-31" d="M814.42,2222.2l-381.07,73.38c-8.52-45.46-15.14-91.9-19.67-138.21l386.29-36.85c3.39,34.12,8.24,68.27,14.45,101.68Z"/>
      <path class="cls-18" d="M1225.32,1776.79c-5.94,20.64-11.09,41.72-15.35,62.82l-380.88-74.38c6.61-33.15,14.7-66.29,24.1-98.67l372.13,110.23Z"/>
      <path class="cls-18" d="M1197.25,1927.32c-1.91,21.38-2.99,43.05-3.2,64.57l-388-1.01c.25-33.8,1.94-67.86,5.02-101.42l386.18,37.86Z"/>
      <path class="cls-18" d="M1207.68,1851.39c-3.92,21.08-7.04,42.55-9.28,63.99l-386.17-37.87c3.43-33.67,8.32-67.42,14.57-100.5l380.88,74.38Z"/>
      <path class="cls-18" d="M1956.74,1195.16c-21.56,1.14-43.16,3.15-64.38,5.97l-54.67-384.18c33.29-4.52,67.24-7.67,101.11-9.38l17.94,387.59Z"/>
      <path class="cls-18" d="M1281.54,1634.35c-10.68,20.95-20.53,42.55-29.3,64.3-8.79,21.8-16.7,44.19-23.52,66.63l-372.13-110.23c10.3-34.17,22.29-68.28,35.68-101.47,13.36-33.1,28.39-65.98,44.72-97.83l344.55,178.6Z"/>
      <path class="cls-18" d="M1528.76,1346.05c-19.03,13.73-37.65,28.45-55.43,43.81-19.24,16.63-37.93,34.39-55.55,52.79-17.6,18.38-34.53,37.82-50.33,57.79-15.78,19.97-30.8,40.93-44.63,62.31-12.75,19.7-24.76,40.18-35.75,60.95l-344.55-178.6c16.65-31.64,34.89-62.84,54.3-92.83,20.49-31.67,42.73-62.72,66.13-92.3,23.4-29.59,48.48-58.4,74.55-85.63,26.11-27.26,53.8-53.57,82.31-78.2,27.06-23.38,55.44-45.76,84.44-66.59l224.51,316.5Z"/>
      <path class="cls-18" d="M1207.29,2146.54l-381.08,73.39c-6.5-34.96-11.5-70.76-14.87-106.51-3.46-36.65-5.25-73.82-5.34-110.54l388.01,1.01c.11,24.15,1.32,48.58,3.59,72.66,2.21,23.48,5.47,47,9.69,69.99Z"/>
      <path class="cls-4" d="M1760.22,1672.34c-8.75,6.42-17.31,13.23-25.52,20.32-9.69,8.38-19.1,17.32-27.98,26.59-8.86,9.26-17.39,19.05-25.35,29.11-7.95,10.06-15.51,20.62-22.48,31.38-5.89,9.1-11.46,18.52-16.61,28.08l-344.56-178.6c10.82-20.43,22.63-40.57,35.17-59.96,13.63-21.05,28.42-41.7,43.98-61.37,15.56-19.68,32.24-38.84,49.58-56.94,17.35-18.13,35.77-35.63,54.73-52.01,17.49-15.11,35.81-29.59,54.52-43.11l224.52,316.51Z"/>
      <path class="cls-4" d="M1636.75,1818.47c-4.86,9.72-9.36,19.7-13.41,29.73-4.81,11.92-9.09,24.19-12.72,36.47-3.63,12.28-6.72,24.9-9.16,37.51-2.44,12.55-4.31,25.41-5.55,38.21-1.04,10.76-1.66,21.68-1.85,32.55l-388.01-1.02c.23-23.15,1.47-46.47,3.7-69.41,2.42-25.04,6.07-50.18,10.83-74.72,4.79-24.66,10.82-49.34,17.92-73.36,7.1-24,15.47-47.98,24.87-71.29,8.63-21.4,18.31-42.65,28.82-63.27l344.56,178.6Z"/>
      <path class="cls-4" d="M1600.17,2070.89l-381.1,73.38c-4.14-22.62-7.34-45.75-9.52-68.84-2.23-23.71-3.42-47.74-3.54-71.51l388.02,1.02c.13,11.19.73,22.48,1.78,33.62,1.02,10.83,2.49,21.68,4.36,32.33Z"/>
      <path class="cls-4" d="M1975.23,1594.75c-10.88.66-21.77,1.75-32.44,3.25-12.68,1.79-25.44,4.22-37.93,7.22-12.46,2.99-24.94,6.63-37.08,10.81-12.13,4.17-24.2,8.99-35.87,14.3-11.68,5.32-23.24,11.26-34.34,17.66-9.38,5.4-18.63,11.24-27.57,17.4l-224.52-316.51c18.95-13.25,38.66-25.78,58.66-37.31,21.71-12.51,44.3-24.13,67.15-34.53,22.81-10.39,46.41-19.8,70.14-27.97,23.72-8.17,48.11-15.28,72.49-21.13,24.42-5.86,49.37-10.61,74.18-14.11,22.75-3.21,45.99-5.45,69.19-6.68l17.94,387.6Z"/>
      <path class="cls-25" d="M1993.76,1995.09l-381.81,73.53c-1.8-10.3-3.21-20.76-4.19-31.19-1.17-12.4-1.76-24.99-1.76-37.43v-.44c.01-.2.01-.4.01-.59.03-12.44.65-25.02,1.85-37.42,1.2-12.39,3.01-24.87,5.38-37.09,2.36-12.2,5.36-24.44,8.89-36.39,3.51-11.88,7.66-23.79,12.33-35.38,4.66-11.54,9.93-22.99,15.67-34.03,5.74-11.05,12.08-21.95,18.83-32.4,6.79-10.47,14.13-20.72,21.82-30.46,7.75-9.79,16.03-19.29,24.61-28.25,8.64-9.03,17.78-17.71,27.16-25.81,9.46-8.17,19.38-15.95,29.47-23.13,10.17-7.22,20.78-14.02,31.55-20.22,10.77-6.21,21.98-11.98,33.32-17.14,11.27-5.13,22.98-9.8,34.8-13.88,11.78-4.05,23.88-7.58,35.97-10.48,12.09-2.9,24.47-5.26,36.8-7.01,10.34-1.45,20.85-2.5,31.33-3.14l17.97,388.35Z"/>
      <path class="cls-31" d="M1297.3,1019.76c-27.68,19.89-54.81,41.18-80.78,63.39l-253.54-293.73c35.28-30.24,72.17-59.18,109.83-86.16l224.49,316.5Z"/>
      <path class="cls-31" d="M1938.25,795.58c-34.27,1.73-68.61,4.92-102.25,9.49l-54.68-384.18c45.86-6.3,92.56-10.64,138.98-12.92l17.95,387.61Z"/>
      <path class="cls-18" d="M1660.86,1268.62c-21.32,9.91-42.4,20.84-62.72,32.55-20.28,11.69-40.3,24.43-59.6,37.92l-224.51-316.5-230.05-326.04c37.38-26.31,83.16-55.26,122.64-78.24,39.71-22.64,86.01-46.76,127.51-65.89l166.11,362.9,160.62,353.3Z"/>
      <path class="cls-18" d="M1880.48,1202.81c-23.22,3.46-46.53,7.98-69.36,13.46-24.74,5.94-49.5,13.16-73.6,21.45-22.2,7.65-44.29,16.36-65.73,25.93l-160.63-353.3-164.28-363.73c41.71-18.77,91.76-38.4,134.87-53.46,43.26-14.68,99.9-31.24,144.32-42.12,44.47-10.46,97.26-20.76,142.52-27.35l57.21,394.94,54.68,384.18Z"/>
    </g>
  </g>
  <g id="Felder:_Orange">
    <g id="Felder:_Orange-2" data-name="Felder:_Orange">
      <path class="cls-16" d="M981.79,2646.55l-326.56,209.65c-24.98-39.17-48.45-79.78-69.86-120.87l345.03-177.7c15.83,30.29,33.08,60.14,51.39,88.92Z"/>
      <path class="cls-16" d="M1205.06,2906.94l-254.3,293.06c-34.91-30.55-68.83-62.94-100.95-96.41l280.98-267.58c23.66,24.59,48.6,48.41,74.27,70.93Z"/>
      <path class="cls-16" d="M840.82,2333.82l-372.43,109.25c-12.89-44.64-23.9-90.24-32.78-135.7l381.07-73.38c6.58,33.41,14.69,66.94,24.14,99.83Z"/>
      <path class="cls-16" d="M877.75,2442.41l-360.37,144.14c-17.07-43.13-32.4-87.46-45.62-131.96l372.43-109.26c9.77,32.73,21.04,65.33,33.56,97.08Z"/>
      <path class="cls-14" d="M1729.87,2759.6l-127.32,366.64c-31.81-11.23-63.46-23.95-94.24-37.88l161.55-352.87c19.58,8.8,39.72,16.89,60.01,24.11Z"/>
      <path class="cls-14" d="M1318.44,2430.43l-326.55,209.64c-18.11-28.47-35.18-58-50.82-87.93l345.01-177.7c10.01,19.04,20.87,37.83,32.36,55.99Z"/>
      <path class="cls-14" d="M1362.45,2493.18l-305.14,239.69c-20.73-26.63-40.53-54.41-58.93-82.71l326.54-209.64c11.77,17.99,24.37,35.66,37.53,52.66Z"/>
      <path class="cls-14" d="M1412.19,2551.48l-280.98,267.57c-23.15-24.54-45.48-50.32-66.48-76.75l305.14-239.69c13.38,16.76,27.58,33.16,42.32,48.87Z"/>
      <g>
        <path class="cls-14" d="M1467.23,2604.81l-254.31,293.06c-25.39-22.28-50.05-45.83-73.43-70.13l280.98-267.58c14.93,15.44,30.62,30.43,46.76,44.65Z"/>
        <path class="cls-14" d="M1131,2827.55h-.01c1.64,1.72,3.28,3.43,4.94,5.14-1.65-1.71-3.29-3.42-4.93-5.14Z"/>
      </g>
      <path class="cls-14" d="M1527.06,2652.72l-225.34,315.9c-27.32-19.72-54.1-40.84-79.74-62.88l254.31-293.06c16.32,13.97,33.35,27.4,50.77,40.04Z"/>
      <g>
        <path class="cls-14" d="M1249.25,2293.82l-360.36,144.13c-13.12-33.28-24.85-67.48-34.89-101.75-10.06-34.37-18.65-69.5-25.53-104.49l381.08-73.38c4.58,22.99,10.24,46.04,16.86,68.62,6.59,22.51,14.26,44.98,22.84,66.87Z"/>
        <path class="cls-14" d="M827.17,2255.06c1.01,4.66,2.04,9.32,3.11,13.96-1.06-4.64-2.1-9.3-3.11-13.96Z"/>
      </g>
      <path class="cls-14" d="M1280.58,2363.78l-345.02,177.7c-15.33-30.11-29.51-61.14-42.21-92.39l360.36-144.13c8.14,19.9,17.15,39.64,26.87,58.82Z"/>
      <path class="cls-14" d="M1591.15,2694.75l-194.33,335.9c-29.13-17.09-57.79-35.57-85.34-55.06l225.34-315.89c17.55,12.34,35.79,24.1,54.33,35.05Z"/>
      <path class="cls-14" d="M1658.96,2730.49l-161.56,352.87c-30.69-14.27-60.98-29.95-90.2-46.69l194.34-335.91c18.7,10.66,37.97,20.63,57.42,29.73Z"/>
      <path class="cls-21" d="M1677.03,2246.06l-305.15,239.7c-14.15-18.27-27.63-37.34-40.12-56.76-12.48-19.4-24.24-39.58-35.01-60.05l345.03-177.7c5.13,9.58,10.67,19.02,16.53,28.12,5.86,9.11,12.14,18.06,18.72,26.69Z"/>
      <path class="cls-21" d="M1636.28,2180.58l-345.03,177.7c-10.44-20.62-20.07-41.9-28.65-63.34-9.33-23.29-17.63-47.31-24.68-71.37-6.51-22.21-12.08-44.89-16.59-67.51l381.09-73.39c2.2,10.61,4.85,21.23,7.9,31.65,3.61,12.3,7.85,24.58,12.62,36.5,4.03,10.05,8.5,20.04,13.34,29.76Z"/>
      <path class="cls-21" d="M1791.49,2348.44l-194.33,335.92c-19.92-11.76-39.49-24.49-58.27-37.9-20.41-14.59-40.36-30.32-59.28-46.76-18.95-16.46-37.32-34-54.6-52.14-15.93-16.71-31.28-34.31-45.71-52.36l305.15-239.7c6.84,8.43,14.07,16.65,21.54,24.49,8.83,9.27,18.22,18.24,27.91,26.66,9.68,8.4,19.88,16.44,30.31,23.9,8.81,6.3,17.97,12.3,27.28,17.89Z"/>
      <path class="cls-21" d="M1861.13,2381.62l-127.32,366.65c-21.78-7.75-43.42-16.54-64.41-26.17-20.98-9.62-41.77-20.28-61.86-31.73l194.33-335.92c9.48,5.31,19.24,10.27,29.08,14.78,9.85,4.52,19.97,8.68,30.18,12.39Z"/>
      <path class="cls-28" d="M1990.92,2007.86l-125.86,362.42c-9.83-3.58-19.6-7.59-29.11-11.95-11.31-5.19-22.51-10.99-33.27-17.23-10.81-6.27-21.4-13.1-31.49-20.31-10.1-7.21-20-15.02-29.42-23.2-9.37-8.14-18.49-16.85-27.1-25.87-8.59-9.03-16.84-18.56-24.52-28.33-7.74-9.84-15.06-20.11-21.75-30.52-6.69-10.4-13-21.31-18.75-32.43-5.71-11.09-10.95-22.56-15.57-34.09-4.62-11.53-8.74-23.44-12.24-35.4-2.94-10.04-5.5-20.29-7.63-30.55l376.71-72.54Z"/>
    </g>
  </g>
  <g id="Felder:_Rot">
    <g id="Felder:_Rot-2" data-name="Felder:_Rot">
      <path class="cls-27" d="M2643.68,3887.82c-55.86,19.04-113.17,35.74-170.57,49.71l-90.92-377.29c45.47-11.1,90.88-24.33,135.13-39.38l126.36,366.96Z"/>
      <path class="cls-27" d="M1915.55,3603.82l-18.95,387.54c-59.05-3.02-118.48-8.7-176.82-16.9l55.68-384.04c46.29,6.47,93.36,10.97,140.09,13.4Z"/>
      <path class="cls-27" d="M2461.45,3940.33c-57.48,13.61-116.13,24.76-174.52,33.18l-54.68-384.19c46.32-6.71,92.77-15.54,138.27-26.28l90.93,377.29Z"/>
      <path class="cls-27" d="M1613.72,3559.24l-91.91,377.05c-57.38-14.12-114.65-30.98-170.43-50.17l127.31-366.62c44.22,15.16,89.59,28.51,135.03,39.74Z"/>
      <path class="cls-5" d="M2162.31,3183.06c-33.27,4.51-67.22,7.67-101.12,9.38l-17.93-387.6c21.6-1.14,43.2-3.14,64.37-5.97l54.68,384.19Z"/>
      <path class="cls-5" d="M2513.42,3509.51c-43.9,14.92-88.93,28.05-134.04,39.06l-93.75-388.97-90.92-377.29c20.85-5.17,41.68-11.25,62.08-18.09l126.36,366.96,130.27,378.33Z"/>
      <path class="cls-5" d="M2367.71,3551.38c-45.11,10.64-91.18,19.4-137.15,26.07l-56.37-396.07-54.68-384.19c21.25-3.16,42.57-7.21,63.53-12.08l90.92,377.29,93.75,388.98Z"/>
      <path class="cls-5" d="M2049.21,3192.99c-16.7.67-33.22,1.01-49.21,1.01-17.18,0-34.75-.38-52.34-1.14l18.96-387.55c11.25.46,22.45.69,33.38.69,10.21,0,20.7-.2,31.27-.61l17.94,387.6Z"/>
      <path class="cls-5" d="M1878.39,2796.87l-55.68,384.04c-33.49-4.99-66.98-11.44-99.73-19.22l91.92-377.05c20.87,4.9,42.18,9,63.49,12.23Z"/>
      <path class="cls-5" d="M1741.21,2763.54l-127.32,366.64-131.26,377.98c43.94,15.06,88.94,28.31,133.93,39.42l94.76-388.72,91.92-377.05c-20.81-5.23-41.63-11.36-62.03-18.27ZM1619.9,3132.21c6.02,2.02,12.06,3.99,18.12,5.92-6.03-1.91-12.07-3.88-18.12-5.92Z"/>
      <path class="cls-5" d="M1954.63,2804.73l-18.95,387.56-19.54,399.54c-46.45-2.41-93.14-6.87-138.96-13.29l57.41-395.92,55.68-384.04c21.25,2.89,42.85,4.96,64.36,6.15Z"/>
      <path class="cls-40" d="M2252.88,2752.87c-20.03,6.72-40.49,12.69-60.98,17.77l-90.94-377.3c8.59-2.2,17.14-4.69,25.56-7.45l126.36,366.98Z"/>
      <path class="cls-40" d="M2180.23,2773.45c-22.55,5.23-45.5,9.51-68.34,12.73-22.74,3.2-45.99,5.45-69.19,6.68l-17.94-387.61c10.89-.65,21.77-1.74,32.44-3.25,10.72-1.51,21.49-3.48,32.1-5.86l90.93,377.31Z"/>
      <path class="cls-40" d="M2030.71,2793.4c-10.36.4-20.67.6-30.71.6-12.76,0-25.81-.31-38.79-.94-25.09-1.21-50.38-3.62-75.17-7.19-24.9-3.58-49.85-8.38-74.14-14.28-22.38-5.44-44.81-11.95-66.76-19.39l127.32-366.64c10.34,3.41,20.86,6.43,31.36,8.98,12.43,3.02,25.18,5.48,37.92,7.31,12.68,1.82,25.61,3.05,38.43,3.67,6.64.32,13.31.48,19.83.48,4.19,0,8.46-.07,12.77-.2l17.94,387.6Z"/>
      <path class="cls-41" d="M2122.62,2374.54c-9.97,3.26-20.13,6.14-30.29,8.58-12.11,2.91-24.49,5.26-36.8,7-12.26,1.73-24.81,2.89-37.31,3.46-6.15.28-12.28.42-18.22.42-6.33,0-12.8-.15-19.25-.46-12.45-.6-25-1.8-37.3-3.57-12.36-1.78-24.74-4.16-36.79-7.09-10.13-2.46-20.29-5.37-30.26-8.66l123.57-355.86,122.65,356.18Z"/>
    </g>
  </g>
  <g id="Felder:_Lila">
    <g id="Felder:_Lila-2" data-name="Felder:_Lila">
      <path class="cls-24" d="M3993.95,2011.23c-.32,59.12-3.27,118.73-8.76,177.39l-386.18-37.87c4.32-46.41,6.66-93.63,6.95-140.54l387.99,1.02Z"/>
      <path class="cls-24" d="M3148.86,3629.98c-48.23,34.05-98.48,66.28-149.52,95.9l-193.45-336.41c40.38-23.47,80.18-49,118.46-75.99l224.51,316.5Z"/>
      <path class="cls-24" d="M2988.94,3731.87c-51.26,29.33-104.35,56.64-157.97,81.26l-160.63-353.29c42.5-19.56,84.55-41.18,125.15-64.38l193.45,336.41Z"/>
      <path class="cls-24" d="M3436.23,3383.2c-40.95,42.51-84.22,83.62-128.76,122.34l-253.53-293.72c35.3-30.73,69.57-63.29,102.01-96.92l280.28,268.3Z"/>
      <path class="cls-24" d="M3561.17,3240.59c-36.74,46.17-75.94,91.19-116.64,133.95l-280.28-268.31c32.23-33.91,63.27-69.56,92.41-106.13l304.51,240.49Z"/>
      <path class="cls-24" d="M3672.07,3086.79c-32.25,49.5-67.01,98.02-103.46,144.38l-304.5-240.48c28.86-36.78,56.4-75.21,81.97-114.39l325.99,210.49Z"/>
      <path class="cls-24" d="M3847.69,2751.11c-22.22,54.61-47.18,108.85-74.26,161.39l-344.55-178.6c21.41-41.61,41.18-84.57,58.83-127.86l359.98,145.07Z"/>
      <path class="cls-24" d="M3984.03,2200.57c-5.88,58.82-14.46,117.91-25.51,175.79l-380.88-74.38c8.73-45.88,15.52-92.67,20.21-139.28l386.18,37.87Z"/>
      <path class="cls-19" d="M3147.29,3106.6c-32.18,33.36-66.18,65.65-101.19,96.14l-253.54-293.73c25.73-22.45,50.73-46.2,74.44-70.73l280.29,268.32Z"/>
      <path class="cls-19" d="M2917.41,3303.69c-39.62,27.93-80.87,54.28-122.7,78.38-41.88,24.14-85.37,46.61-129.34,66.84l-160.64-353.31c32.82-15.14,65.27-31.93,96.55-49.95,31.34-18.07,62.14-37.72,91.63-58.45l224.5,316.49Z"/>
      <path class="cls-19" d="M3335.99,2869.79c-26.42,40.49-55,80.23-85.01,118.17-29.98,37.92-62.05,74.89-95.4,109.97l-280.28-268.31c24.85-26.22,48.77-53.82,71.16-82.14,22.39-28.31,43.74-57.96,63.52-88.2l326.01,210.51Z"/>
      <path class="cls-19" d="M3593.96,2010.18c-.31,48.53-2.82,97.41-7.46,145.39-4.67,48.18-11.61,96.63-20.64,144.11l-380.89-74.38c6.69-35.41,11.85-71.58,15.34-107.61,3.47-35.86,5.37-72.35,5.64-108.53l388.01,1.02Z"/>
      <path class="cls-19" d="M3412.7,2739.03c-21.5,41-45.08,81.54-70.18,120.68l-326.02-210.5c18.42-28.79,35.76-58.61,51.63-88.79l344.57,178.61Z"/>
      <path class="cls-19" d="M3476.58,2601.55c-17.52,42.96-37.13,85.57-58.36,126.83l-344.56-178.6c15.59-30.4,30.01-61.73,42.93-93.31l359.99,145.08Z"/>
      <path class="cls-19" d="M3563.58,2311.46c-9.01,45.49-20.14,91.06-33.13,135.62l-372.13-110.22c9.51-32.8,17.7-66.31,24.37-99.78l380.89,74.38Z"/>
      <path class="cls-19" d="M3527.04,2458.59c-13.33,44.45-28.78,88.74-45.97,131.83l-359.99-145.08c12.62-31.73,23.98-64.3,33.83-96.98l372.13,110.23Z"/>
      <path class="cls-1" d="M2775.64,2907.77c-25.63,21.93-52.46,42.98-79.89,62.69l-224.51-316.5c17.39-12.55,34.46-25.95,50.86-39.91l253.54,293.72Z"/>
      <path class="cls-1" d="M2858.33,2829.98c-23.48,24.28-48.21,47.77-73.61,69.95l-253.53-293.72c16.14-14.17,31.87-29.11,46.86-44.53l280.28,268.3Z"/>
      <path class="cls-1" d="M2999.9,2652.77c-19.57,29.92-40.7,59.26-62.85,87.27-22.16,28.02-45.83,55.34-70.42,81.28l-280.28-268.31c16.12-17.09,31.64-35.04,46.19-53.45,14.56-18.4,28.45-37.65,41.36-57.28l326,210.49Z"/>
      <g>
        <path class="cls-1" d="M3193.95,2009.13c-.27,35.81-2.15,71.91-5.59,107.4-3.45,35.65-8.55,71.43-15.16,106.47l-380.89-74.38c4.3-23.05,7.62-46.55,9.88-69.97,2.26-23.31,3.52-47.01,3.76-70.54l388,1.02Z"/>
        <path class="cls-1" d="M2799.98,2002.1c0,1.6-.01,3.2-.02,4.8.02-1.6.02-3.2.03-4.8h-.01Z"/>
      </g>
      <path class="cls-1" d="M3105.46,2451.99c-13.54,33.07-28.73,65.87-45.21,97.59-16.46,31.69-34.55,62.99-53.83,93.12l-326-210.49c12.62-19.84,24.48-40.4,35.29-61.21,10.82-20.84,20.83-42.37,29.78-64.09l359.97,145.08Z"/>
      <path class="cls-1" d="M3170.91,2234.78c-7.01,35.12-15.67,70.22-25.79,104.43-10.11,34.18-21.93,68.35-35.17,101.65l-359.97-145.08c8.64-21.9,16.38-44.35,23.02-66.81,6.65-22.47,12.37-45.51,17.03-68.57l380.88,74.38Z"/>
      <path class="cls-6" d="M2569.38,2553.38c-16.12,16.59-33.11,32.61-50.56,47.68-19.01,16.43-39,32.11-59.41,46.61-20.44,14.53-41.82,28.24-63.55,40.76-19.98,11.52-40.71,22.28-61.7,32.03l-160.64-353.31c9.83-4.65,19.53-9.73,28.9-15.13,11.11-6.41,22.05-13.42,32.5-20.85,10.44-7.42,20.66-15.43,30.37-23.83,8.19-7.07,16.17-14.55,23.8-22.28l280.29,268.32Z"/>
      <g>
        <path class="cls-6" d="M2793.95,2008.08c-.24,23.22-1.48,46.54-3.7,69.42-2.22,22.96-5.48,46.08-9.71,68.82l-380.9-74.39c1.91-10.68,3.4-21.52,4.44-32.31,1.04-10.78,1.66-21.71,1.85-32.55l388.02,1.01Z"/>
        <path class="cls-10" d="M2799.98,2002.1c0,1.6-.01,3.2-.02,4.8.02-1.6.02-3.2.03-4.8h-.01Z"/>
      </g>
      <path class="cls-6" d="M2778.25,2158.1c-4.59,22.69-10.22,45.36-16.76,67.47-7.09,24-15.46,47.99-24.86,71.3-9.38,23.24-20,46.32-31.57,68.6-11.56,22.25-24.33,44.21-37.96,65.27-13.62,21.06-28.41,41.71-43.97,61.38-14.32,18.11-29.59,35.78-45.45,52.59l-280.29-268.32c7.39-7.95,14.52-16.25,21.23-24.75,7.96-10.05,15.52-20.61,22.49-31.38,6.97-10.77,13.5-22,19.41-33.38,5.91-11.39,11.34-23.19,16.14-35.08,4.81-11.92,9.09-24.18,12.72-36.46,3.06-10.37,5.74-20.98,7.97-31.63l380.9,74.39Z"/>
      <path class="cls-11" d="M2393.93,2007.03c-.19,10.5-.79,21.04-1.79,31.43-1.21,12.42-3.01,24.9-5.38,37.08-2.37,12.23-5.37,24.48-8.89,36.4-3.52,11.91-7.67,23.81-12.34,35.37-4.65,11.54-9.92,22.99-15.66,34.04-5.74,11.04-12.07,21.94-18.84,32.39-6.76,10.45-14.1,20.7-21.82,30.46s-16,19.27-24.6,28.26c-8.62,8.99-17.76,17.68-27.16,25.8-9.43,8.15-19.35,15.93-29.48,23.13-10.15,7.21-20.76,14.01-31.54,20.23-10.77,6.21-21.98,11.97-33.32,17.14-9.5,4.32-19.28,8.31-29.15,11.88l-125.54-364.62,385.51,1.01Z"/>
      <path class="cls-6" d="M2654.45,3453.88c-42.34,19.09-85.91,36.46-129.69,51.72l-128.31-372.64-130.26-378.3-128.32-372.68c8.34-3.01,16.62-6.31,24.73-9.86l163.13,358.79,165.6,364.22,163.12,358.75Z"/>
      <path class="cls-1" d="M2685.97,2977.41c-29.19,20.52-59.67,39.96-90.69,57.84-30.94,17.83-63.05,34.45-95.52,49.43l-160.63-353.29c21.33-9.91,42.4-20.85,62.72-32.56,20.34-11.72,40.36-24.46,59.61-37.92l224.51,316.5Z"/>
    </g>
  </g>
  <g id="Felder:_Blau">
    <g id="Felder:_Blau-2" data-name="Felder:_Blau">
      <path class="cls-38" d="M2793.99,1996.08l-388.02-1.01c-.14-11.2-.74-22.49-1.79-33.62-1.21-12.81-3.03-25.67-5.43-38.23-2.42-12.59-5.47-25.22-9.07-37.54-3.06-10.4-6.56-20.77-10.43-30.9l360.36-144.14c8.44,21.56,15.99,43.67,22.46,65.79,7.08,24.17,13.05,48.86,17.74,73.4,4.69,24.51,8.27,49.66,10.63,74.76,2.24,23.68,3.43,47.71,3.55,71.49Z"/>
      <path class="cls-23" d="M2280.22,25.55l-55.68,384.03c-46.3-6.47-93.36-10.97-140.1-13.39l18.96-387.54c59.02,3.01,118.44,8.69,176.82,16.9Z"/>
      <path class="cls-23" d="M2466.53,60.88l-91.92,377.05c-45.43-10.85-91.86-19.8-138.2-26.64l55.69-384.04c58.48,8.59,117.1,19.89,174.43,33.63Z"/>
      <path class="cls-23" d="M2648.62,113.88l-127.32,366.63c-44.25-15.18-89.62-28.53-135.03-39.74l91.92-377.06c57.32,14.11,114.6,30.97,170.43,50.17Z"/>
      <path class="cls-23" d="M2993.47,270.73l-194.32,335.92c-40.6-23.33-82.6-45.08-125-64.72l161.56-352.87c53.58,24.77,106.6,52.22,157.76,81.67Z"/>
      <path class="cls-23" d="M2824.8,184.06l-161.55,352.87c-42.6-19.34-86.48-36.97-130.61-52.48l127.32-366.64c55.71,19.54,111.11,41.8,164.84,66.25Z"/>
      <path class="cls-23" d="M3302.35,490.03l-254.31,293.05c-35.47-30.57-72.59-59.85-110.49-87.15l225.33-315.9c47.9,34.45,94.77,71.41,139.47,110Z"/>
      <path class="cls-23" d="M3439.85,620.56l-280.97,267.58c-32.39-33.74-66.58-66.4-101.78-97.2l254.31-293.05c44.43,38.83,87.6,80.05,128.44,122.67Z"/>
      <path class="cls-20" d="M3528.23,1545.42l-372.43,109.25c-9.76-32.73-21.03-65.33-33.55-97.07l360.37-144.14c17.07,43.12,32.39,87.45,45.61,131.96Z"/>
      <path class="cls-20" d="M3249.85,1010.6l-305.15,239.69c-21.27-26.77-43.85-52.83-67.22-77.61l280.98-267.58c31.86,33.7,62.57,69.15,91.39,105.5Z"/>
      <path class="cls-20" d="M3338.27,1133.71l-326.55,209.65c-18.61-28.62-38.63-56.71-59.6-83.64l305.15-239.69c28.56,36.6,55.77,74.8,81,113.68Z"/>
      <path class="cls-20" d="M3564.39,1692.64l-381.08,73.38c-6.57-33.41-14.67-66.93-24.13-99.83l372.43-109.26c12.87,44.59,23.88,90.18,32.78,135.71Z"/>
      <path class="cls-20" d="M2920.82,698.73l-225.34,315.91c-27.85-19.7-56.84-38.4-86.29-55.67l194.33-335.92c40,23.4,79.41,48.82,117.3,75.68Z"/>
      <path class="cls-20" d="M2517.37,491.85l-127.33,366.65c-32.37-11.06-65.46-20.81-98.52-29.02l91.91-377.05c45.04,11.12,90.04,24.36,133.94,39.42Z"/>
      <path class="cls-20" d="M2658.25,547.84l-161.57,352.89c-31.12-14.08-63.12-26.94-95.3-38.3l127.32-366.65c43.78,15.39,87.3,32.88,129.55,52.06Z"/>
      <path class="cls-20" d="M3150.18,896.41l-280.98,267.58c-25.03-26.02-51.51-51.18-78.78-74.86-27.23-23.66-55.87-46.35-85.17-67.52l225.33-315.91c39.26,28.28,77.63,58.66,114.14,90.37,36.51,31.71,71.97,65.44,105.46,100.34Z"/>
      <path class="cls-20" d="M2371.77,449.6l-91.91,377.05c-35.06-8.32-70.96-15.15-106.8-20.31-35.68-5.12-72.03-8.68-108.16-10.61l18.96-387.56c48.35,2.51,97.07,7.26,144.9,14.13,47.94,6.89,96.02,16.07,143.01,27.3Z"/>
      <path class="cls-20" d="M2793.14,617.03l-194.34,335.92c-29.62-16.97-60.25-32.83-91.21-47.22l161.57-352.89c42.05,19.48,83.71,41.05,123.98,64.19Z"/>
      <path class="cls-17" d="M3058.93,1447.87l-345.02,177.69c-9.97-18.98-20.83-37.76-32.35-55.98l326.55-209.64c18.1,28.45,35.17,57.98,50.82,87.93Z"/>
      <path class="cls-17" d="M3106.64,1550.92l-360.35,144.12c-8.14-19.9-17.16-39.63-26.88-58.81l345.02-177.7c15.34,30.11,29.51,61.13,42.21,92.39Z"/>
      <path class="cls-17" d="M2052.33,807.14l-18.95,387.55c-11.25-.46-22.45-.69-33.38-.69-10.22,0-20.71.21-31.27.62l-17.94-387.6c16.69-.68,33.21-1.02,49.21-1.02,17.17,0,34.75.39,52.33,1.14Z"/>
      <path class="cls-17" d="M3001.62,1349.84l-326.55,209.65c-12.87-19.68-26.72-38.97-41.21-57.39-15.74-20.01-32.62-39.5-50.18-57.93-17.54-18.42-36.19-36.22-55.42-52.93-19.21-16.68-39.46-32.65-60.18-47.45-20.71-14.8-42.38-28.78-64.41-41.55-22.02-12.77-44.93-24.63-68.07-35.24-23.16-10.62-47.09-20.24-71.13-28.59-24.11-8.37-48.86-15.66-73.54-21.65-24.66-5.99-49.99-10.87-75.27-14.51-23.19-3.33-46.8-5.67-70.3-6.98l18.96-387.55c35.76,1.9,71.73,5.43,107.04,10.51,37.45,5.38,74.96,12.61,111.49,21.48,36.57,8.88,73.21,19.67,108.93,32.08,35.61,12.36,71.06,26.61,105.37,42.34,34.28,15.72,68.21,33.28,100.84,52.2,32.63,18.92,64.73,39.63,95.41,61.55,30.7,21.94,60.69,45.59,89.15,70.31,28.5,24.75,56.12,51.13,82.11,78.41,26.02,27.31,51.03,56.18,74.34,85.82,22.06,28.05,43.11,57.44,62.62,87.42Z"/>
      <path class="cls-17" d="M3193.99,1997.13l-388-1.02c-.12-24.16-1.33-48.59-3.6-72.65-2.4-25.47-6.03-51-10.79-75.89-4.77-24.91-10.83-49.98-18.01-74.51-6.58-22.49-14.26-44.96-22.84-66.88l360.35-144.12c13.12,33.25,24.85,67.44,34.89,101.74,10.63,36.29,19.61,73.43,26.68,110.37,7.05,36.85,12.43,74.68,15.98,112.42,3.46,36.62,5.26,73.79,5.34,110.54Z"/>
      <path class="cls-2" d="M2393.97,1995.04l-388.24-1.02-17.95-387.82c4.13-.13,8.22-.2,12.22-.2,6.36,0,12.84.16,19.25.46,12.45.61,25,1.81,37.3,3.58,12.29,1.76,24.67,4.14,36.79,7.08,12.12,2.95,24.21,6.52,35.94,10.59,11.74,4.08,23.44,8.77,34.77,13.97,11.31,5.19,22.5,10.98,33.27,17.22,10.8,6.27,21.4,13.1,31.49,20.31,10.18,7.28,20.07,15.09,29.42,23.21,9.36,8.12,18.47,16.83,27.09,25.87,8.55,8.98,16.81,18.51,24.53,28.32,7.74,9.84,15.05,20.11,21.74,30.52,6.71,10.42,13.02,21.33,18.76,32.44,5.7,11.07,10.94,22.54,15.57,34.08,4.61,11.53,8.73,23.45,12.24,35.41,3.5,11.95,6.46,24.21,8.8,36.42,2.33,12.18,4.1,24.66,5.27,37.1,1.02,10.74,1.6,21.64,1.74,32.46Z"/>
      <path class="cls-38" d="M2664.97,1565.97l-326.56,209.65c-6.02-9.05-12.43-17.92-19.12-26.43-7.93-10.07-16.43-19.89-25.28-29.17-8.84-9.28-18.23-18.25-27.92-26.66-9.67-8.4-19.87-16.45-30.31-23.91-10.43-7.45-21.34-14.49-32.44-20.93-11.1-6.43-22.63-12.4-34.29-17.75-11.67-5.35-23.72-10.19-35.83-14.4-12.15-4.21-24.61-7.88-37.05-10.91-12.42-3.01-25.17-5.47-37.92-7.3-12.67-1.82-25.6-3.06-38.42-3.68-6.64-.32-13.31-.48-19.83-.48-4.19,0-8.47.07-12.78.21l-17.94-387.61c10.37-.4,20.67-.6,30.72-.6,12.76,0,25.81.32,38.79.94,25.09,1.21,50.37,3.63,75.16,7.19,24.91,3.58,49.85,8.39,74.14,14.29,24.32,5.91,48.69,13.08,72.44,21.33,23.68,8.22,47.26,17.69,70.07,28.15,22.8,10.46,45.36,22.14,67.05,34.72,21.7,12.58,43.05,26.35,63.45,40.93,20.42,14.59,40.37,30.32,59.29,46.75,18.95,16.46,37.32,34,54.6,52.15,17.3,18.16,33.93,37.36,49.43,57.06,14.26,18.13,27.88,37.1,40.55,56.46Z"/>
      <path class="cls-38" d="M2735.15,1699.5l-360.36,144.14c-4.19-10.01-8.81-19.94-13.78-29.57-4.99-9.66-10.39-19.17-16.11-28.36l326.57-209.65c12.39,19.6,24,39.87,34.55,60.32,10.59,20.52,20.37,41.72,29.13,63.12Z"/>
      <path class="cls-20" d="M3594,1998.18l-388.01-1.02c-.08-35.14-1.71-70.66-4.84-105.73l386.3-36.85c4.29,47.43,6.49,95.69,6.55,143.6Z"/>
      <path class="cls-20" d="M3586.32,1842.63l-386.3,36.85c-3.38-34.12-8.24-68.27-14.45-101.68l381.07-73.38c8.53,45.47,15.14,91.9,19.68,138.21Z"/>
      <path class="cls-23" d="M3957.25,1616.99l-381.08,73.38c-8.96-45.86-20.06-91.82-33.05-136.82l372.41-109.25c16.41,56.68,30.43,114.71,41.72,172.69Z"/>
    </g>
  </g>
  <g id="Text:_Grün">
    <g id="Text:_Grün-2" data-name="Text:_Grün">
      <text class="cls-9" transform="translate(464.48 2201.17) rotate(-8.49) scale(.93 1)"><tspan x="0" y="0">Entstehungskontext, </tspan><tspan class="cls-26" x="244.02" y="0">V</tspan><tspan x="258.25" y="0">orbe-</tspan><tspan x="-34.5" y="28.8">reitungsprozess,</tspan><tspan class="cls-37" x="157.55" y="28.8"> </tspan><tspan class="cls-7" x="163.32" y="28.8">Analyseprozess,</tspan><tspan x="-30.23" y="57.6">Methoden, Instrumente, Software</tspan></text>
      <text class="cls-9" transform="translate(823.07 2102.38) rotate(-4.04) scale(.93 1)"><tspan x="0" y="0">Daten dokumentieren (vollständig,</tspan><tspan x="21.98" y="28.8">fehlerfrei, bereinigt, lückenlos)</tspan></text>
      <text class="cls-9" transform="translate(1250.39 2072.9) rotate(-4.14) scale(.93 1)"><tspan x="0" y="0">Datenqualität gewährleisten</tspan></text>
      <text class="cls-9" transform="translate(1258.91 1821.57) rotate(14.18) scale(.93 1)"><tspan x="0" y="0">Nachnutzbarkeit gewährleisten</tspan></text>
      <text class="cls-9" transform="translate(961.35 1594.52) rotate(21.49) scale(.93 1)"><tspan x="0" y="0">Zitierbarkeit der Daten</tspan></text>
      <text class="cls-9" transform="translate(570.92 1356.87) rotate(24.14) scale(.93 1)"><tspan x="0" y="0">Dauerhafte Kennung vergeben</tspan></text>
      <text class="cls-9" transform="translate(241.12 1189.02) rotate(24.18) scale(.93 1)"><tspan x="0" y="0">Persistent Identifier (PID),</tspan><tspan x="67.36" y="28.8">z.B. DOI, ORN</tspan></text>
      <text class="cls-9" transform="translate(437.8 1751.46) rotate(8.29) scale(.93 1)"><tspan x="0" y="0">Übersicht und Informationen über </tspan><tspan x="72.66" y="28.8">Dateiformate und ihre</tspan><tspan x="3.74" y="57.6">Eigenschaften zur</tspan><tspan class="cls-37" x="210.45" y="57.6"> </tspan><tspan x="216.23" y="57.6">Archivfähigkeit</tspan></text>
      <text class="cls-9" transform="translate(204.8 1384.07) rotate(18.64) scale(.93 1)"><tspan x="0" y="0">Auto</tspan><tspan class="cls-35" x="54.64" y="0">r</tspan><tspan x="62.66" y="0">, </tspan><tspan class="cls-30" x="76" y="0">T</tspan><tspan x="90.22" y="0">itel, Jahr</tspan></text>
      <text class="cls-9" transform="translate(1440.34 1532.96) rotate(39.45) scale(.93 1)"><tspan x="0" y="0">Ergebnisse präsentieren</tspan><tspan x="51.39" y="28.8">und publizieren</tspan></text>
      <text class="cls-9" transform="translate(1096.61 1243.96) rotate(39.45) scale(.93 1)"><tspan x="0" y="0">Zugang zu Ergebnissen schaffen</tspan></text>
      <text class="cls-9" transform="translate(903.94 981.27) rotate(41.95) scale(.93 1)"><tspan x="0" y="0">Daten publizieren</tspan></text>
      <text class="cls-9" transform="translate(1077.87 840.5) rotate(51.68) scale(.93 1)"><tspan x="0" y="0">Daten pflegen</tspan></text>
      <text class="cls-9" transform="translate(816.44 477.18) rotate(51.68) scale(.93 1)"><tspan x="0" y="0">Bsp</tspan><tspan class="cls-37" x="45.34" y="0">w</tspan><tspan class="cls-22" x="63.12" y="0">.</tspan><tspan class="cls-37" x="69.79" y="0"> </tspan><tspan class="cls-7" x="75.56" y="0">Aktualisieren von </tspan><tspan class="cls-35" x="65.79" y="28.8">V</tspan><tspan x="80.48" y="28.8">erlinkungen</tspan></text>
      <text class="cls-9" transform="translate(758.89 1222.34) rotate(32.52) scale(.93 1)"><tspan x="0" y="0">Daten teilen</tspan></text>
      <text class="cls-9" transform="translate(357.27 1044.05) rotate(29.5) scale(.93 1)"><tspan x="0" y="0">Bsp</tspan><tspan class="cls-37" x="45.34" y="0">w</tspan><tspan x="63.12" y="0">. Freigabe für </tspan><tspan x="-37.78" y="28.8">bestimmte Nutzergruppen</tspan></text>
      <text class="cls-9" transform="translate(429.18 861.57) rotate(34.37) scale(.93 1)"><tspan x="0" y="0">Gesetzliche Regeleungen</tspan><tspan x="-27.55" y="28.8">beachten (bsp</tspan><tspan class="cls-37" x="135.14" y="28.8">w</tspan><tspan x="152.92" y="28.8">. bei sensiblen</tspan><tspan x="108.04" y="57.6">Daten)</tspan></text>
      <text class="cls-9" transform="translate(557.62 741.67) rotate(39.62) scale(.93 1)"><tspan class="cls-35" x="0" y="0">V</tspan><tspan x="14.68" y="0">eröffentlichungsort </tspan><tspan x="80" y="28.8">wählen</tspan></text>
      <text class="cls-9" transform="translate(667.39 591.54) rotate(45.84) scale(.93 1)"><tspan class="cls-39" x="0" y="0">W</tspan><tspan class="cls-12" x="22.44" y="0">issenschaftliche</tspan><tspan class="cls-37" x="209.19" y="0"> </tspan><tspan x="214.97" y="0">Arbeiten,</tspan><tspan x="62.14" y="28.8">Repositorien etc.</tspan></text>
      <text class="cls-9" transform="translate(1762.2 1352.6) rotate(69.63) scale(.93 1)"><tspan x="0" y="0">Daten archivieren</tspan></text>
      <text class="cls-9" transform="translate(1583.89 608.52) rotate(72.56) scale(.93 1)"><tspan x="0" y="0">Daten auf geeignete Speichermedien migrieren</tspan></text>
      <text class="cls-9" transform="translate(1269.76 172.65) rotate(67.54) scale(.93 1)"><tspan x="0" y="0">Kodex – Gute </tspan><tspan class="cls-39" x="161.37" y="0">W</tspan><tspan x="183.81" y="0">issenschaftliche</tspan><tspan x="110.58" y="28.8">Praxis – DFG</tspan></text>
      <text class="cls-9" transform="translate(1469.04 169.35) rotate(73.42) scale(.93 1)"><tspan x="0" y="0">GW</tspan><tspan class="cls-30" x="41.32" y="0">P</tspan><tspan x="56.89" y="0" xml:space="preserve"> – Leitlinien der </tspan><tspan x="51.79" y="28.8">Hochschule</tspan></text>
      <text class="cls-9" transform="translate(1635.96 70.11) rotate(78.15) scale(.93 1)"><tspan x="0" y="0">Datenspeicherung und Lebens-</tspan><tspan x="43.99" y="28.8">dauer von Datenträgern</tspan></text>
      <text class="cls-9" transform="translate(1274.78 751.51) rotate(59.44) scale(.93 1)"><tspan x="0" y="0">Geeignetes</tspan><tspan class="cls-36" x="129.39" y="0"> </tspan><tspan class="cls-3" x="135.16" y="0">Archiv / Repositorium auswählen</tspan></text>
      <text class="cls-9" transform="translate(1138 281.96) rotate(62.08) scale(.93 1)"><tspan x="0" y="0">Fachspeziefisch: r3data</tspan><tspan x="28.71" y="28.8">generisch: Zenodo</tspan><tspan x="64.72" y="57.6">institutionell</tspan></text>
      <text class="cls-9" transform="translate(970.66 384.6) rotate(57.19) scale(.93 1)"><tspan x="0" y="0">Core </tspan><tspan class="cls-35" x="61.35" y="0">T</tspan><tspan x="74.68" y="0">rust Seal, Sience</tspan><tspan x="9.36" y="28.8">Europe, nestor-Siegel</tspan></text>
      <text class="cls-9" transform="translate(1888.43 899) rotate(84.41) scale(.93 1)"><tspan x="0" y="0">Langzeitarchivierung</tspan></text>
      <text class="cls-9" transform="translate(1875.71 459.98) rotate(84.41) scale(.93 1)"><tspan x="0" y="0">Daten sollten über 10 Jahre</tspan><tspan x="6.69" y="28.8">hinaus verfügbar gehalten</tspan><tspan x="81.39" y="57.6">(gemäß DFG)</tspan></text>
      <text class="cls-9" transform="translate(874.98 1717.87) rotate(14.18) scale(.93 1)"><tspan x="0" y="0">Nutzungslizenz für Festlegung</tspan><tspan x="4.63" y="28.8">von Zugriffsrechten vergeben</tspan></text>
      <text class="cls-9" transform="translate(882.58 1828.77) rotate(9.26) scale(.93 1)"><tspan class="cls-30" x="0" y="0">W</tspan><tspan x="22.22" y="0">eit verbreitete, offene</tspan><tspan x="-6.9" y="28.8">Dateiformate verwenden</tspan></text>
      <text class="cls-9" transform="translate(866.23 1934.15) rotate(4.44) scale(.93 1)"><tspan x="0" y="0">Metadaten für potenzielle</tspan><tspan x="3.32" y="28.8">Nutzerschaft aufbereiten</tspan></text>
      <text class="cls-9" transform="translate(484.68 1927.87) rotate(3.62) scale(.93 1)"><tspan x="0" y="0">Metadatenstandards</tspan></text>
      <text class="cls-9" transform="translate(449.44 2075.93) rotate(-1.71) scale(.93 1)"><tspan x="0" y="0">Datendokumentation / DM</tspan><tspan class="cls-30" x="296" y="0">P</tspan></text>
      <text class="cls-9" transform="translate(559.54 1661.62) rotate(12.36) scale(.93 1)"><tspan x="0" y="0">CC-Lizenzen</tspan></text>
      <text class="cls-9" transform="translate(560.39 1496.81) rotate(17.75) scale(.93 1)"><tspan x="0" y="0">Daten mit notwenigen</tspan><tspan x="-11.36" y="28.8">Informationen versehen</tspan></text>
      <text class="cls-9" transform="translate(1708.22 1861.02)"><tspan x="0" y="0">Aufbewahren und </tspan><tspan x="32.64" y="28.8">Bereitstellen</tspan></text>
    </g>
  </g>
  <g id="Text:_Blau">
    <g id="Text:_Blau-2" data-name="Text:_Blau">
      <text class="cls-9" transform="translate(2130.09 1861.02)"><tspan x="0" y="0">Planen</tspan></text>
      <text class="cls-9" transform="translate(2417.04 1195.47) rotate(-61.09)"><tspan x="0" y="0">Richtlinien und</tspan><tspan x="-15.38" y="28.8">Gesetze beachten</tspan></text>
      <text class="cls-9" transform="translate(2184.37 703.5) rotate(-81.06)"><tspan x="0" y="0">Richtlinien und</tspan><tspan x="-15.38" y="28.8">Gesetze beachten</tspan></text>
      <text class="cls-9" transform="translate(2382.81 734.62) rotate(-73.4) scale(.93 1)"><tspan x="0" y="0">Urheberrechte</tspan></text>
      <text class="cls-9" transform="translate(2498.17 781.24) rotate(-67.88) scale(.93 1)"><tspan x="0" y="0">Nutzungsrechte</tspan></text>
      <text class="cls-9" transform="translate(2614.14 829.6) rotate(-61.09) scale(.93 1)"><tspan x="0" y="0">Zugriffsrechte</tspan></text>
      <text class="cls-9" transform="translate(2686.3 913.49) rotate(-55.89) scale(.93 1)"><tspan x="0" y="0">Kodex-Gute </tspan><tspan class="cls-39" x="142.68" y="0">W</tspan><tspan x="165.12" y="0">issen-</tspan><tspan x="-23.48" y="28.8">schaftliche Praxis – DGF</tspan></text>
      <text class="cls-9" transform="translate(2751.89 489.08) rotate(-63.29) scale(.93 1)"><tspan x="0" y="0">DSGVO (Art. 6: pers-</tspan><tspan x="-18.88" y="28.8">bezogene Daten;</tspan><tspan class="cls-37" x="173.14" y="28.8"> </tspan><tspan x="178.92" y="28.8">Art. 9: </tspan><tspan x="-54.69" y="57.6">sensible, personenbez. Daten)</tspan></text>
      <text class="cls-9" transform="translate(2653.63 396.28) rotate(-67.88) scale(.93 1)"><tspan x="0" y="0">CC-Lizenzen</tspan></text>
      <text class="cls-9" transform="translate(2492.43 366.08) rotate(-73.4) scale(.93 1)"><tspan x="0" y="0">UrhG § 2; §§7-14</tspan></text>
      <text class="cls-9" transform="translate(2305.13 382.94) rotate(-78.77) scale(.93 1)"><tspan x="0" y="0">Einwilliung zur </tspan><tspan class="cls-33" x="175.99" y="0">V</tspan><tspan class="cls-22" x="190.68" y="0">erarbeitung</tspan><tspan x="44.65" y="28.8">von sensiblen Daten</tspan></text>
      <text class="cls-9" transform="translate(2168.85 351.93) rotate(-85.05) scale(.93 1)"><tspan x="0" y="0">Datenschutzbeaurftragte*r</tspan></text>
      <text class="cls-9" transform="translate(2877.47 994.24) rotate(-47.82) scale(.93 1)"><tspan x="0" y="0">Datenethik</tspan></text>
      <text class="cls-9" transform="translate(3004.44 709.58) rotate(-51.26) scale(.93 1)"><tspan x="0" y="0">Kommission zu </tspan><tspan class="cls-35" x="184.02" y="0">V</tspan><tspan class="cls-7" x="198.7" y="0">erantwortung</tspan><tspan x="62.76" y="28.8">in der </tspan><tspan class="cls-39" x="134.77" y="28.8">W</tspan><tspan class="cls-22" x="157.21" y="28.8">issenschaft</tspan></text>
      <text class="cls-9" transform="translate(3177.6 776.95) rotate(-45.47) scale(.93 1)"><tspan x="0" y="0">CARE-Prinzipien</tspan></text>
      <text class="cls-9" transform="translate(2963.93 1161.34) rotate(-41.32) scale(.93 1)"><tspan x="0" y="0">FDM-Richtlinien der</tspan><tspan x="45.32" y="28.8">Hochschule</tspan></text>
      <text class="cls-9" transform="translate(3033.04 1255.56) rotate(-35.85) scale(.93 1)"><tspan x="0" y="0">GWP-Richtlinien der</tspan><tspan x="47.99" y="28.8">Hochschule</tspan></text>
      <text class="cls-9" transform="translate(2723.75 1572.84) rotate(-28.9) scale(.93 1)"><tspan x="0" y="0">Datenformate, Dateibenennung</tspan><tspan x="23.32" y="28.8">und Speicherorte festlegen</tspan></text>
      <text class="cls-9" transform="translate(2826.54 1614.62) rotate(-24.76) scale(.93 1)"><tspan x="0" y="0">(Grober) Zeitplan</tspan><tspan x="44.65" y="28.8">festlegen</tspan></text>
      <text class="cls-9" transform="translate(2439.11 1768.84) rotate(-28.9) scale(.93 1)"><tspan x="0" y="0">Datenmanagement-</tspan><tspan x="34" y="28.8">plan erstellen</tspan></text>
      <text class="cls-9" transform="translate(2485.59 1901.94) rotate(-10.75) scale(.93 1)"><tspan x="0" y="0">Datenmanagement-</tspan><tspan x="34" y="28.8">plan erstellen</tspan></text>
      <text class="cls-9" transform="translate(2824.37 1836.93) rotate(-10.75) scale(.93 1)"><tspan x="0" y="0">Regelungen zur Zusammen-</tspan><tspan x="61.32" y="28.8">arbeit bestimmen</tspan></text>
      <text class="cls-9" transform="translate(3219.76 1683.62) rotate(-12.98) scale(.93 1)"><tspan x="0" y="0">Zugriffsmöglichkeiten und</tspan><tspan x="30.69" y="28.8">Zugriffsbedingungen</tspan><tspan x="87.32" y="57.6">abstimmen</tspan></text>
      <text class="cls-9" transform="translate(3184.25 1585.07) rotate(-19.73) scale(.93 1)"><tspan x="0" y="0">Rollen und </tspan><tspan class="cls-35" x="130.65" y="0">V</tspan><tspan x="145.34" y="0">erantwortlich-</tspan><tspan x="61.31" y="28.8">keiten festlegen</tspan></text>
      <text class="cls-9" transform="translate(3605.45 1599.14) rotate(-12.98) scale(.93 1)"><tspan x="0" y="0">Gemeinsamer Datenzugriff</tspan><tspan x="53.37" y="28.8">und Data Sharing</tspan></text>
      <text class="cls-9" transform="translate(3247.73 1809.84) rotate(-7.47) scale(.93 1)"><tspan x="0" y="0">Arbeitsteilung und interne</tspan><tspan x="-30.69" y="28.8">Kommunikationsform festlegen</tspan></text>
      <text class="cls-9" transform="translate(3251.81 1921.72) rotate(-3.61) scale(.93 1)"><tspan x="0" y="0">Gemeinsame Nutzung von</tspan><tspan x="13.99" y="28.8">Daten nach Projektende</tspan><tspan x="87.34" y="57.6">bestimmen</tspan></text>
      <text class="cls-9" transform="translate(1995.41 1098.61) rotate(-89.77)"><tspan x="0" y="0">Ziele, Methoden,</tspan><tspan x="-30.7" y="28.8">Ressourcen festlegen</tspan></text>
      <text class="cls-9" transform="translate(2219.98 1562.65) rotate(-61.09)"><tspan x="0" y="0">Untersuchungs-</tspan><tspan x=".66" y="28.8">design festligen</tspan></text>
    </g>
  </g>
  <g id="Text:_Lila">
    <g id="Text:_Lila-2" data-name="Text:_Lila">
      <text class="cls-9" transform="translate(2544.98 2062.83) rotate(4.71) scale(.93 1)"><tspan x="0" y="0">Recherche</tspan></text>
      <text class="cls-9" transform="translate(2851.37 2079.41) rotate(4.71) scale(.93 1)"><tspan x="0" y="0">Bereits vorhandene Daten </tspan><tspan x="70.71" y="28.8">indentifizieren</tspan></text>
      <text class="cls-9" transform="translate(2842.83 2239.32) rotate(17.64) scale(.93 1)"><tspan x="0" y="0">Lizensierungen prüfen/</tspan><tspan x="-14.68" y="28.8">Nutzungsrechte beachten</tspan></text>
      <text class="cls-9" transform="translate(2767.61 2409.57) rotate(26.44) scale(.93 1)"><tspan x="0" y="0">Originalquellen zitieren</tspan></text>
      <text class="cls-9" transform="translate(2669.8 2537.69) rotate(39.22) scale(.93 1)"><tspan x="0" y="0">Metadaten dokumentieren</tspan></text>
      <text class="cls-9" transform="translate(2633.29 2656.67) rotate(46.47) scale(.93 1)"><tspan x="0" y="0">Datenerhebung</tspan><tspan x="17.34" y="28.8">durchführen</tspan></text>
      <text class="cls-9" transform="translate(2533.68 2671.62) rotate(51.47) scale(.93 1)"><tspan x="0" y="0">Fachspezifische Standards</tspan><tspan x="10.72" y="28.8">und Methoden anwenden</tspan></text>
      <text class="cls-9" transform="translate(2458.48 2766.56) rotate(61.1) scale(.93 1)"><tspan x="0" y="0">Datenerhebung und </tspan><tspan x="1.32" y="28.8">Entstehungskontext</tspan><tspan x="30.65" y="57.6">dokumentieren</tspan></text>
      <text class="cls-9" transform="translate(3290.49 2126.3) rotate(4.71) scale(.93 1)"><tspan x="0" y="0">Repositorium und </tspan><tspan x="-34.01" y="28.8">Forschungsdaten finden</tspan></text>
      <text class="cls-9" transform="translate(3302.17 2330.05) rotate(13.59) scale(.93 1)"><tspan x="0" y="0">Open Data</tspan></text>
      <text class="cls-9" transform="translate(3251.6 2446.82) rotate(19.81) scale(.93 1)"><tspan x="0" y="0">CC-Lizenzen</tspan></text>
      <text class="cls-9" transform="translate(3133.93 2499.4) rotate(23.65) scale(.93 1)"><tspan x="0" y="0">Automatisch erstellte Zitation</tspan><tspan x="6.64" y="28.8">in verschiedenen Zitierstilen</tspan><tspan x="77.34" y="57.6">anhand des DOI</tspan></text>
      <text class="cls-9" transform="translate(3105.55 2630.34) rotate(30.56) scale(.93 1)"><tspan x="0" y="0">Literaturverwaltungs-</tspan><tspan x="73.34" y="28.8">software</tspan></text>
      <text class="cls-9" transform="translate(2979.96 2784.96) rotate(39.22) scale(.93 1)"><tspan x="0" y="0">Metadaten dokumentieren</tspan></text>
      <text class="cls-9" transform="translate(2859.07 2892.09) rotate(46.47) scale(.93 1)"><tspan x="0" y="0">Experimente, Beobachtungen,</tspan><tspan x=".67" y="28.8">Messungen, Simulationen etc.</tspan></text>
      <text class="cls-9" transform="translate(3364.34 2951.14) rotate(35.76) scale(.93 1)"><tspan x="0" y="0">Daten sollten anhand von</tspan><tspan x="13.3" y="28.8">Metadaten erschlossen</tspan><tspan x="58" y="57.6">werden können</tspan></text>
      <text class="cls-9" transform="translate(3255.86 3083.12) rotate(40.75) scale(.93 1)"><tspan x="0" y="0">Metadaten und Metadaten-</tspan><tspan x="93.99" y="28.8">standards</tspan></text>
      <text class="cls-9" transform="translate(3134.68 3181.06) rotate(46.47) scale(.93 1)"><tspan x="0" y="0">Datenschutzgrundverordnung</tspan><tspan x="55.3" y="28.8">Urheberrechttsgestz</tspan></text>
      <text class="cls-9" transform="translate(2649.47 3122.62) rotate(61.1) scale(.93 1)"><tspan x="0" y="0">Metadatenstandards</tspan><tspan x="64.01" y="28.8">beachten</tspan></text>
      <text class="cls-9" transform="translate(2288.76 2750.62) rotate(67.75) scale(.93 1)"><tspan class="cls-30" x="0" y="0">W</tspan><tspan class="cls-12" x="22.22" y="0">eitere Untersuchungen unter </tspan><tspan class="cls-35" x="356.94" y="0">V</tspan><tspan x="371.62" y="0">erwendung der Daten durchführen</tspan></text>
      <text class="cls-9" transform="translate(2891.42 3396.84) rotate(56.18) scale(.93 1)"><tspan x="0" y="0">Elektronisch Laborbüche</tspan><tspan class="cls-32" x="288.06" y="0">r</tspan><tspan class="cls-7" x="296.07" y="0">,</tspan><tspan x="89.36" y="28.8">GitLab etc.</tspan></text>
      <text class="cls-9" transform="translate(2756.92 3471.51) rotate(61.1) scale(.93 1)"><tspan x="0" y="0">Metadaten und Metadaten-</tspan><tspan x="93.99" y="28.8">standards</tspan></text>
      <text class="cls-9" transform="translate(3548.74 2720.32) rotate(23.65) scale(.93 1)"><tspan x="0" y="0">Zitieren von Daten</tspan></text>
      <text class="cls-9" transform="translate(3734.09 2096.79) rotate(2.69) scale(.93 1)"><tspan x="0" y="0">re3data etc.</tspan></text>
      <text class="cls-9" transform="translate(3648.11 2235.27) rotate(7.51) scale(.93 1)"><tspan x="0" y="0">Core </tspan><tspan class="cls-35" x="61.35" y="0">T</tspan><tspan x="74.68" y="0">rust Seal, Science </tspan><tspan x="19.37" y="28.8">Europe, nestor-Siegel</tspan></text>
      <text class="cls-9" transform="translate(2442.23 2229.53) rotate(26.44) scale(.93 1)"><tspan class="cls-26" x="0" y="0">V</tspan><tspan x="14.23" y="0">orhandene Daten</tspan><tspan x="66.47" y="28.8">nutzen</tspan></text>
      <text class="cls-9" transform="translate(2274.19 2408.97) rotate(51.47) scale(.93 1)"><tspan x="0" y="0">Erheben von Daten</tspan></text>
      <text class="cls-9" transform="translate(2140.43 2134.83)"><tspan x="0" y="0">Erfassen /</tspan><tspan x="9.35" y="28.8">Erhaben</tspan></text>
    </g>
  </g>
  <g id="Text:_Rot">
    <g id="Text:_Rot-2" data-name="Text:_Rot">
      <text class="cls-9" transform="translate(2064.08 2517.37) rotate(81.26) scale(.93 1)"><tspan x="0" y="0">Daten strukturieren</tspan></text>
      <text class="cls-9" transform="translate(1919.72 2529.42) rotate(98.12) scale(.93 1)"><tspan x="0" y="0">Daten sichern</tspan></text>
      <text class="cls-9" transform="translate(1892.68 3018.26) rotate(95.15) scale(.93 1)"><tspan class="cls-37" x="0" y="0">W</tspan><tspan class="cls-3" x="21.76" y="0">ahl von geeigneten Speicherorten</tspan></text>
      <text class="cls-9" transform="translate(1855.82 3679.35) rotate(94.19) scale(.93 1)"><tspan x="0" y="0">Datenspeicherung und</tspan><tspan x="30.66" y="28.8">Lebensdauer von</tspan><tspan x="55.33" y="57.6">Datenträgern</tspan></text>
      <text class="cls-9" transform="translate(1991.41 2869.58) rotate(90.27) scale(.93 1)"><tspan x="0" y="0">Strukturierte Speicherung</tspan></text>
      <text class="cls-9" transform="translate(2078.89 2926.71) rotate(85.14) scale(.93 1)"><tspan x="0" y="0">Ordnerstruktur</tspan></text>
      <text class="cls-9" transform="translate(2200.79 3095.71) rotate(78.08) scale(.93 1)"><tspan x="0" y="0">Dateibenennung</tspan></text>
      <text class="cls-9" transform="translate(2328.23 3624.85) rotate(77.6) scale(.93 1)"><tspan x="0" y="0">Ant Rename</tspan><tspan class="cls-35" x="140.03" y="0">r</tspan><tspan class="cls-22" x="148.04" y="0">, Bulk Rename</tspan><tspan x="-15.32" y="28.8">Utility: Umbenennen mehrerer</tspan><tspan x="113.37" y="57.6">Dateien</tspan></text>
      <text class="cls-9" transform="translate(2280.7 2994) rotate(73.48) scale(.93 1)"><tspan x="0" y="0">Metadatenstandards beachten</tspan></text>
      <text class="cls-9" transform="translate(2465.3 3596.2) rotate(70.55) scale(.93 1)"><tspan x="0" y="0">Metadaten und Metadaten-</tspan><tspan x="93.99" y="28.8">standards</tspan></text>
      <text class="cls-9" transform="translate(1829.56 2919.86) rotate(101.22) scale(.93 1)"><tspan x="0" y="0">3-2-1-Regel für </tspan><tspan x="37.33" y="28.8">Backups</tspan></text>
      <text class="cls-9" transform="translate(1677.75 3057.32) rotate(106.17) scale(.93 1)"><tspan class="cls-35" x="0" y="0">V</tspan><tspan x="14.68" y="0">ersionskontrolle</tspan></text>
      <text class="cls-9" transform="translate(1531.21 3593.26) rotate(106.3) scale(.93 1)"><tspan x="0" y="0">Freie </tspan><tspan class="cls-35" x="64.03" y="0">V</tspan><tspan class="cls-7" x="78.71" y="0">ersionsverwaltungs-</tspan><tspan x="106.71" y="28.8">software</tspan></text>
      <text class="cls-9" transform="translate(2113.06 2420.49) rotate(73.69) scale(.93 1)"><tspan x="0" y="0">Metadaten erfassen und erstellen</tspan></text>
      <text class="cls-9" transform="translate(1937.88 2285.59)"><tspan class="cls-34" x="0" y="0">V</tspan><tspan x="14.68" y="0">erwaltung</tspan><tspan x="38.69" y="28.8">und </tspan><tspan x="-10" y="57.6">Organisation</tspan></text>
    </g>
  </g>
  <g id="Text:_Orange">
    <g id="Text:_Orange-2" data-name="Text:_Orange">
      <text class="cls-9" transform="translate(1717.12 2649.43) rotate(-66.82) scale(.93 1)"><tspan x="0" y="0">Daten verarbeiten</tspan></text>
      <text class="cls-9" transform="translate(1550.6 2536.46) rotate(-52.66) scale(.93 1)"><tspan x="0" y="0">Daten aufbereiten</tspan></text>
      <text class="cls-9" transform="translate(1403.42 2373.7) rotate(-31.94) scale(.93 1)"><tspan x="0" y="0">Daten auswerten /</tspan><tspan x="-.02" y="28.8">Daten analysieren</tspan></text>
      <text class="cls-9" transform="translate(1329.89 2242.93) rotate(-17.5) scale(.93 1)"><tspan x="0" y="0">Daten interpretieren</tspan></text>
      <text class="cls-9" transform="translate(929.46 2311.24) rotate(-17.5) scale(.93 1)"><tspan x="0" y="0">Daten interpretieren</tspan><tspan x="36.02" y="28.8">und bewerten</tspan></text>
      <text class="cls-9" transform="translate(562.14 2492.4) rotate(-19.1) scale(.93 1)"><tspan x="0" y="0">Ergebnispräsentation</tspan><tspan x="58" y="28.8">vorbereiten</tspan></text>
      <text class="cls-9" transform="translate(481.56 2369.55) rotate(-14.52) scale(.93 1)"><tspan x="0" y="0">Ergebnisse verbalisieren und </tspan><tspan x="98.02" y="28.8">visualisieren</tspan></text>
      <text class="cls-9" transform="translate(960.92 2464.5) rotate(-23.13) scale(.93 1)"><tspan x="0" y="0">Relevante Informationen</tspan><tspan x="78.67" y="28.8">auswählen</tspan></text>
      <text class="cls-9" transform="translate(999.55 2575.2) rotate(-31.17) scale(.93 1)"><tspan x="0" y="0">Fachspezifische Standards</tspan><tspan x="10.72" y="28.8">und Methoden anwenden</tspan></text>
      <text class="cls-9" transform="translate(667.5 2763.01) rotate(-30.47) scale(.93 1)"><tspan x="0" y="0">Qualitative / Quantitative</tspan><tspan x="-34.01" y="28.8">Datenanalyse / Mixed-Methods</tspan></text>
      <text class="cls-9" transform="translate(1071.85 2652.78) rotate(-36.45) scale(.93 1)"><tspan x="0" y="0">Erfasste Daten mit fest-</tspan><tspan x="-38.67" y="28.8">gelegtern Kriterien abgleichen</tspan></text>
      <text class="cls-9" transform="translate(1166.97 2729.62) rotate(-41.31) scale(.93 1)"><tspan x="0" y="0">Daten beschreiben</tspan></text>
      <text class="cls-9" transform="translate(1214.43 2815.67) rotate(-47.17) scale(.93 1)"><tspan x="0" y="0">Daten anonymisieren /</tspan><tspan x="22.01" y="28.8">pseudonymisieren</tspan></text>
      <text class="cls-9" transform="translate(942.78 3120.07) rotate(-47.17) scale(.93 1)"><tspan x="0" y="0">Datenschutzbeauftragte*r</tspan></text>
      <text class="cls-9" transform="translate(1295.36 2894.64) rotate(-54.31) scale(.93 1)"><tspan x="0" y="0">Daten prüfen, validieren,</tspan><tspan x="79.35" y="28.8">bereinigen</tspan></text>
      <text class="cls-9" transform="translate(1362.59 2980.92) rotate(-57.02) scale(.93 1)"><tspan x="0" y="0">Daten eingeben, digitalisieren,</tspan><tspan x="-.69" y="28.8">transkribieren, übersetzen etc.</tspan></text>
      <text class="cls-9" transform="translate(1490.7 2978.96) rotate(-62.96) scale(.93 1)"><tspan x="0" y="0">Einzelne Schritte</tspan><tspan x="10.68" y="28.8">dokumentieren</tspan></text>
      <text class="cls-9" transform="translate(1560.36 3064.07) rotate(-66.82) scale(.93 1)"><tspan x="0" y="0">Fachspezifische Standards</tspan><tspan x="10.72" y="28.8">und Methoden anwenden</tspan></text>
      <text class="cls-9" transform="translate(1700.24 2149.86)"><tspan x="0" y="0">Aufbereiten und</tspan><tspan x="23.96" y="28.8">Analysieren</tspan></text>
    </g>
  </g>
</svg>