<?xml version="1.0" encoding="UTF-8"?>
<svg id="_0040_THK_Datenauswertung" data-name="0040_THK_Datenauswertung" xmlns="http://www.w3.org/2000/svg" viewBox="0 0 955.06 572.14">
  <defs>
    <style>
      .cls-1 {
        fill: #eee;
      }

      .cls-1, .cls-2, .cls-3, .cls-4, .cls-5, .cls-6, .cls-7, .cls-8, .cls-9, .cls-10, .cls-11, .cls-12, .cls-13, .cls-14, .cls-15, .cls-16, .cls-17, .cls-18, .cls-19, .cls-20 {
        stroke-width: 0px;
      }

      .cls-2 {
        fill: #42210b;
      }

      .cls-3 {
        fill: #a5678d;
      }

      .cls-4 {
        fill: #308fc9;
      }

      .cls-5 {
        fill: #206289;
      }

      .cls-6 {
        fill: #2c8ec8;
      }

      .cls-7 {
        fill: #dddddc;
      }

      .cls-8 {
        fill: #64abd6;
      }

      .cls-9 {
        fill: #873567;
      }

      .cls-10 {
        fill: #73bbe7;
      }

      .cls-11 {
        fill: #b47d49;
      }

      .cls-12 {
        fill: #236289;
      }

      .cls-13 {
        fill: #b9ddf3;
      }

      .cls-14 {
        fill: #308fc9;
      }

      .cls-15 {
        fill: #e5e6e5;
      }

      .cls-16 {
        fill: #64abd6;
      }

      .cls-17 {
        fill: #b9ddf3;
      }

      .cls-18 {
        fill: #603813;
      }

      .cls-19 {
        fill: #fff;
      }

      .cls-20 {
        fill: #5a89a6;
      }
    </style>
  </defs>
  <g id="Hintergrund">
    <rect class="cls-15" y="0" width="955.06" height="565.01"/>
    <g id="Verbindungen">
      <polygon class="cls-19" points="220.27 238.08 216.27 238.08 216.27 202.5 398 202.89 397.99 206.89 220.27 206.51 220.27 238.08"/>
      <polygon class="cls-19" points="656.88 414.15 524.79 414.15 524.79 300.12 528.79 300.12 528.79 410.15 656.88 410.15 656.88 414.15"/>
      <polygon class="cls-19" points="459.1 147.06 458.24 97.26 354.79 97.26 354.79 93.26 462.18 93.26 463.1 146.99 459.1 147.06"/>
      <polygon class="cls-19" points="524.03 147.03 520.03 147.03 520.03 93.26 562.77 93.26 562.77 97.26 524.03 97.26 524.03 147.03"/>
      <rect class="cls-19" x="616.09" y="276.18" width="165.48" height="4"/>
    </g>
  </g>
  <g id="Hintergrund:_Kästen" data-name="Hintergrund: Kästen">
    <g id="Oben_links" data-name="Oben links">
      <rect class="cls-7" x="158.94" y="19.11" width="198.08" height="139.52"/>
      <rect class="cls-19" x="156.7" y="21.35" width="198.08" height="139.52"/>
      <g>
        <path class="cls-12" d="M293.63,88.98c-.49-.14-.87-.32-1.25-.43-.04.02-.12.04-.18.06-.06-.03-.14-.06-.23-.08,0,0,0,0,0,0-.04-.61-.08-1.24-.13-1.86.4-.04.8-.08,1.19-.11-.94-3.59-1.32-6.47-1.5-8.46-.04-.47-.17-1.96-.37-4.17-.11-1.12-.19-1.97-.28-2.67.05.05.1.11.11.18.11.38-.1.71.11.77.25.06.45-.48.4-1-.03-.35-.15-.62-.2-.71-.08-.14-.16-.25-.24-.33.54-1.46,1.08-2.91,1.63-4.37h0c.05-.08.08-.18.08-.28.01-.14-.03-.26-.1-.37,0,0,0-.01,0-.02,0-.02-.02-.04-.03-.06,0,0,0-.01,0-.02-.55-1.16-1.09-2.31-1.64-3.47l.25-.18-1.36-1.89c-.21-.29-.54-.42-.87-.41,0,0,0-.01,0-.02-.44,0-.88,0-1.32.01-.02.03-.08.08-.15.15-.12,0-.24.02-.36.03v-.61c.06,0,.12-.02.17-.04.05-.02.11-.06.18-.14.02.03.15.16.35.17.26.01.41-.19.43-.21.3.02.53-.18.55-.41.01-.16-.08-.32-.22-.42.3-.01.56-.24.6-.53.05-.31-.14-.61-.44-.7.26-.04.45-.26.45-.52,0-.26-.18-.48-.43-.53.13-.23.12-.52-.02-.73-.17-.25-.51-.36-.82-.25,0-.03-.03-.47-.41-.7-.29-.17-.66-.14-.93.06-.14-.16-.35-.23-.55-.17-.22.06-.38.26-.4.49-.04,0-.55-.09-.92.29-.31.31-.29.71-.29.78-.25.12-.42.36-.44.63-.02.28.11.56.35.71-.21.1-.34.3-.35.52,0,.24.14.47.36.57-.18.12-.24.35-.16.52.07.15.24.24.41.22.04.15.16.27.31.3.16.03.33-.03.42-.17.06.07.14.16.24.16.1,0,.14-.09.2-.14,0,0,.01,0,.02,0,0,.08,0,.15,0,.23v.08c0,.11,0,.21,0,.31,0,0,0,0,0,0v.39c-.21.03-.42.06-.62.09-.12-.07-.21-.13-.25-.16-.44.09-.88.18-1.32.28,0,0,0,0,0,0-.27.06-.51.21-.67.46l-1.22,1.98.4.25c-.23.44-.46.87-.69,1.31,0,0,0,0,0-.01,0,0,0-.01,0-.02-.01-.02-.03-.04-.04-.06,0,0,0-.01-.01-.02-.92-1.45-1.84-2.9-2.76-4.35,0,0,0,0,0,0h0c-.06-.1-.14-.19-.24-.26-.08-.05-.16-.08-.24-.11,0-.04,0-.07.01-.11h0c-.3-.05-.64-.08-1.03-.08-.33,0-.62.03-.88.06,0,.02-.03.05-.04.09-.05,0-.1,0-.15.01v-.64c.3.05.49.12.74.14.2.02.3,0,.37-.01.82-.19,1.52-2.43.63-4-.13-.23-.5-.85-1.29-1.19-.64-.27-1.22-.21-1.49-.16-.17.03-.81.16-1.35.67-.62.58-.75,1.29-.83,1.71-.17,1.02-.02,2.65.82,2.98.37.14.64.02,1.04-.08v.69s.01.04.01.06c-.09.01-.18.03-.27.04-.03-.03-.07-.08-.09-.11-.22,0-.52,0-.86.08-.31.07-.56.18-.74.28,0,.03.02.06.03.1h0s0,.01,0,.02c-.08.04-.16.09-.22.16-.08.09-.15.19-.19.3h0s0,0,0,0c-.47,1.22-.94,2.45-1.41,3.67-.54-.65-1.07-1.3-1.61-1.96l.27-.23-1.51-1.77c-.18-.21-.43-.33-.68-.35,0,0,0,0,0,0h0s-.03,0-.05,0c-.33,0-.66,0-.99,0-.03-.01-.05-.03-.08-.02.09-.07.14-.19.12-.3-.02-.13-.13-.2-.15-.21.01-.02.12-.16.07-.35-.05-.16-.19-.23-.21-.24.18-.13.27-.29.3-.42.04-.03.06-.05.08-.06.13-.12.35-.37.46-.71.07-.23.08-.48.03-.8-.11-.67-.62-2.26-1.7-2.47-.08-.02-.17-.02-.26-.02-.08,0-.17,0-.25,0-.1,0-.22.02-.36.03h0c-.16-.02-.49-.03-.85.12-.03.01-.09.04-.16.07,0,0-.01,0-.02,0-.79.38-1,1.37-1.03,1.49-.12.61.05,1.23.1,1.45.07.28.14.4.17.66.04.44-.08.81-.18,1.06.29-.17.47-.35.59-.5.03.03.05.05.09.08-.02.01-.16.08-.2.25-.05.19.07.33.08.34-.02.01-.12.08-.14.22-.01.11.04.22.13.29-.09-.01-.17.06-.18.14,0,.07.05.14.13.15,0,0,.02.01.03.02-.02,0-.05,0-.05.03,0,.01.01.01.02.03-.08.02-.16.03-.24.05-.32.07-.62.16-.91.24,0,0,0,0,0,0-.36.09-.67.35-.77.73l-.58,2.25.32.08-.32.91c-.15-.29-.29-.56-.45-.85-.41-.73-.81-1.43-1.22-2.11,0-.03,0-.09-.02-.15,0,0,0-.02.01-.02-.02-.02-.03-.04-.04-.06,0-.01,0-.03-.02-.04-.01-.02-.06-.1-.14-.17-.08-.11-.15-.21-.21-.29,0,0-.1-.15-.34-.36-.06-.05-.14-.11-.21-.09-.02,0-.04.02-.06.04-.07.08.02.3.13.5.05.09-.27.14-.45.03-.33-.21-.4-.6-.6-.49-.15.08-.1.34.06.62l-.62-.87c-.21-.29-.54-.42-.87-.41,0,0,0-.01,0-.02-.44,0-.88,0-1.32.01-.02.03-.08.08-.15.15-.12,0-.24.02-.36.03v-.61c.06,0,.12-.02.17-.04.05-.02.11-.06.18-.14.02.03.15.16.35.17.26.01.41-.19.43-.21.3.02.53-.18.55-.41.01-.16-.08-.32-.22-.42.3-.01.56-.24.6-.53.05-.31-.14-.61-.44-.7.26-.04.45-.26.45-.52,0-.26-.18-.48-.43-.53.13-.23.12-.52-.02-.73-.17-.25-.51-.36-.82-.25,0-.03-.03-.47-.41-.7-.29-.17-.66-.14-.93.06-.14-.16-.35-.23-.55-.17-.22.06-.38.26-.4.49-.04,0-.55-.09-.92.29-.31.31-.29.71-.29.78-.25.12-.42.36-.44.63-.02.28.11.56.35.71-.21.1-.34.3-.35.52,0,.24.14.47.36.57-.18.12-.24.35-.16.52.07.15.24.24.41.22.04.15.16.27.31.3.16.03.33-.03.42-.17.06.07.14.16.24.16.1,0,.14-.09.2-.14,0,0,.01,0,.02,0,0,.08,0,.15,0,.23v.08c0,.11,0,.21,0,.31,0,0,0,0,0,0v.39c-.21.03-.42.06-.62.09-.12-.07-.21-.13-.25-.16-.44.09-.88.18-1.32.28,0,0,0,0,0,0-.27.06-.51.21-.67.46l-1.22,1.98.4.25c-.43.81-.86,1.62-1.29,2.43,0,0-.01.02-.01.02-.03.05-.05.11-.06.17-.02.08-.01.16,0,.23,0,.04-.01.07,0,.11.02.1.05.19.1.27h0c.26.67.55,1.36.87,2.07.32.71.65,1.38.97,2.01,0,.03-.02.06-.02.09-.23,1.04-.25,2.38-.29,5.04-.03,1.72,0,2.99,0,3.33.03,1.94-.04,4.78-.46,8.62.38.02.76.04,1.14.06.01.56.02,1.15.04,1.7,0,.02,0,.03,0,.05-.04.01-.06.03-.09.05-.04-.01-.09-.03-.12-.04-.39.11-.76.29-1.25.43-1.06.31-1.1.51-1.1.51v.21h4.19v-.21c0-.13-.01-.31-.06-.5-.04-.17-.1-.32-.15-.43-.04.02-.1.03-.15.05-.02-.01-.04-.02-.06-.04,0-.02,0-.04.01-.06.06-.4.13-.96.23-1.64.36.02.73.04,1.09.06-.09-3.16-.05-6.6.21-10.29.18-2.5.44-4.86.75-7.08.58,2.32,1.12,4.81,1.58,7.46.61,3.51,1.01,6.82,1.25,9.87.31-.03.62-.06.94-.09.18.62.36,1.21.55,1.77-.03.01-.04.02-.06.04-.06-.02-.14-.04-.18-.06-.05.11-.11.26-.15.43-.05.19-.06.37-.06.5v.21h6.27v-.21c0-.13-.02-.31-.06-.5-.04-.17-.1-.32-.15-.43-.04.02-.1.03-.15.05-.02-.01-.04-.02-.06-.04,0-.02,0-.04.01-.06.06-.4.13-.96.23-1.63.36.02.72.04,1.09.06-.09-3.15-.05-6.59.21-10.28.18-2.49.44-4.85.75-7.07.58,2.32,1.12,4.8,1.58,7.45.61,3.51,1.01,6.81,1.25,9.86.31-.03.62-.06.93-.09.18.61.36,1.21.55,1.77-.03.01-.04.02-.06.03-.06-.02-.13-.04-.18-.06-.05.11-.11.26-.15.43-.05.19-.06.37-.06.5v.21h4.94v-.22c0-.14-.02-.31-.06-.51-.04-.18-.1-.33-.15-.44-.04.02-.11.03-.16.05-.02-.01-.04-.02-.07-.04,0-.02,0-.05.01-.06.04-.27.09-.62.14-1.01.08.02.17.03.25.05.38-3.7.77-7.41,1.16-11.11.25-2.4.51-4.8.76-7.2.77,3.17,1.28,5.76,1.61,7.58.33,1.8.49,2.88.91,5.12.45,2.38.88,4.33,1.17,5.62.09-.05.2-.1.32-.15.12.41.25.8.38,1.18-.03.01-.04.02-.06.04-.06-.02-.14-.04-.18-.06-.05.12-.11.27-.15.44-.05.2-.06.37-.06.51v.22h5.11v-.21c0-.13-.01-.31-.06-.5-.04-.17-.1-.32-.15-.43-.04.02-.1.03-.15.05-.02-.01-.04-.02-.06-.04,0-.02,0-.04.01-.06.06-.4.13-.96.23-1.64.36.02.73.04,1.09.06-.09-3.16-.05-6.6.21-10.29.18-2.5.44-4.86.75-7.08.58,2.32,1.12,4.81,1.58,7.46.61,3.51,1.01,6.82,1.25,9.87.31-.03.62-.06.94-.09.18.62.36,1.21.55,1.77-.03.01-.04.02-.06.04-.06-.02-.14-.04-.18-.06-.05.11-.11.26-.15.43-.05.19-.06.37-.06.5v.21h4.19v-.21s-.03-.2-1.1-.51ZM291.42,65.58c-.18.69-.36,1.4-.53,2.14-.12.54-.22,1.05-.33,1.57-.09-.37-.19-.71-.32-1.06-.52-1.43-1.21-2.48-1.73-3.17.09-.03.19-.05.26-.08,0-.63.03-1.27.07-1.94.02-.36.04-.62.05-.75,0-.1.01-.23.02-.35l.56.77.17-.12c.6,1,1.19,2,1.79,3.01ZM283.68,63.25l.56-.9c.05.17.09.33.14.5.15.57.29,1.15.29,1.15.08.32.15.64.21.95.08.03.16.05.25.08-1.03,1.26-1.63,2.42-1.99,3.39-.1-.38-.19-.75-.3-1.14-.21-.72-.43-1.41-.65-2.08.45-.68.9-1.37,1.35-2.05l.15.09ZM271.54,72.02c-.06-.13-.17-.31-.2-.55-.02-.21.17-.49.23-.39,0,0,0,0,0,.01-.02.28-.03.59-.04.93ZM279.9,69.8s.02-.02.03-.03c.07-.09.24.2.2.41-.02.12-.07.22-.12.31-.03-.24-.07-.47-.1-.69ZM280.21,64.16c-.05.74-.1,1.49-.13,2.27-.03.8-.05,1.57-.05,2.33,0,0,0,0,0,0-.09.16-.17.29-.24.4-.1-.46-.22-.88-.37-1.3-.3-.82-.84-2.01-1.9-3.34h0l.07-.62c.11-.91.21-1.82.32-2.72.77.99,1.54,1.99,2.31,2.98ZM271.77,65.2c.58-1.16,1.15-2.31,1.73-3.47.26.92.52,1.85.79,2.77-1.64,1.96-2.25,3.73-2.5,4.87-.06.26-.1.54-.14.85-.03-.06-.05-.1-.08-.17,0,0,0,0,0,0,.06-.75.1-1.53.13-2.32.03-.84.05-1.67.06-2.46h0s0-.03,0-.04c0,0,0,0,0,0,0,0,0-.01.01-.02ZM269.11,63.48c-.34.01-.67.02-1.02.03-.29.01-.55.04-.83.06,0-.15,0-.3.02-.45.02-.36.04-.62.05-.75,0-.11.01-.24.02-.37l.63.74.22-.18c.31.31.62.62.93.93ZM264.07,58.16v.21c0-.07-.03-.13-.03-.15.01-.02.02-.04.03-.06ZM263.63,59.31s.15-.03.2-.17c.06-.14-.03-.27-.03-.28.05-.02.14-.08.2-.19.05-.09.06-.17.07-.25v1.05c-.16.02-.33.04-.48.07-.01,0-.02-.01-.03-.02.04-.02.08-.03.1-.07.03-.06-.01-.13-.03-.16ZM265.45,59.32v-.37s0,0,0,0c0-.04,0-.09,0-.13.04.04.09.06.11.08,0,0-.09.14-.02.28.03.07.08.1.13.13-.07,0-.15.01-.22.02ZM263.38,57.41s0,.02,0,.03c0,0,0,0,0,0,0,0,0,0,0,0,0,0,0-.02,0-.03ZM257.32,67.72c-.12.54-.22,1.05-.33,1.57-.09-.37-.19-.71-.32-1.06-.52-1.43-1.21-2.48-1.73-3.17.09-.03.19-.05.26-.08,0-.63.03-1.27.07-1.94.02-.36.04-.62.05-.75,0-.1.01-.23.02-.35l.56.77.17-.12c.6,1,1.19,2,1.79,3.01-.18.69-.36,1.4-.53,2.14ZM249.26,67.29c-.21-.72-.43-1.41-.65-2.08.45-.68.9-1.37,1.35-2.05l.15.09.56-.9c.05.17.09.33.14.5.15.57.29,1.15.29,1.15.08.32.15.64.21.95.08.03.16.05.25.08-1.03,1.26-1.63,2.42-1.99,3.39-.1-.38-.19-.75-.3-1.14ZM261.6,88.49s0,.03,0,.05c-.04.02-.06.03-.09.05-.04-.01-.09-.03-.12-.04-.38.11-.76.29-1.25.43-.02,0-.03,0-.04.01-.02,0-.03,0-.04-.01-.49-.14-.87-.32-1.25-.43-.04.02-.12.04-.18.06-.06-.03-.14-.06-.23-.08,0,0,0,0,0,0-.04-.61-.08-1.24-.13-1.86.4-.04.8-.08,1.19-.11-.94-3.59-1.32-6.47-1.5-8.46-.04-.47-.17-1.96-.37-4.17-.11-1.12-.19-1.97-.28-2.67.05.05.1.11.11.18.11.38-.1.71.11.77.25.06.45-.48.4-1-.03-.35-.15-.62-.2-.71-.08-.14-.16-.25-.24-.33.54-1.46,1.08-2.91,1.63-4.37h0c.05-.08.08-.18.08-.28.01-.14-.03-.26-.1-.37,0,0,0-.01,0-.02,0-.02-.02-.04-.03-.06,0,0,0-.01,0-.02-.55-1.16-1.09-2.31-1.64-3.47l.25-.18-.56-.78c.04.05.08.11.13.15.26.24.52.36.62.4.15.05.29.07.4.08.57,1.44,1.14,2.89,1.7,4.33h0s.02.03.02.04c.01.04.03.08.05.12.02.03.02.07.05.1,0,0,.02.01.03.02.02.02.04.03.05.05.05.04.09.08.15.11.01,0,.03,0,.04.01.07.03.14.05.21.05,0,0,0,0,.01,0,.04,0,.08,0,.11-.01.05,0,.1-.02.16-.04.05-.02.09-.04.13-.06.01,0,.03-.01.04-.02.02-.01.03-.03.04-.04.02-.02.04-.04.06-.07.02-.03.04-.05.06-.08,0,0,.01-.01.02-.02.01-.02.02-.04.03-.06,0,0,0-.01,0-.02.37-.79.74-1.59,1.1-2.38l.31.08.12-.47s0,.02,0,.03c.15.57.29,1.15.29,1.15.08.32.15.64.21.95.06.02.14.04.21.07-1.53,1.87-2.1,3.55-2.35,4.65-.23,1.04-.25,2.37-.29,5.03-.03,1.72,0,2.99,0,3.33.03,1.94-.04,4.78-.46,8.61.38.02.76.04,1.14.06.01.56.02,1.15.04,1.7ZM269.95,78.11c-.04-.47-.17-1.96-.37-4.16-.32-3.41-.46-4.44-.92-5.7-.51-1.4-1.18-2.44-1.7-3.13.08-.02.17-.05.24-.07,0-.19.01-.39.02-.59,1.07.09,2.13.18,3.19.27h0s.07,0,.1,0c-.01.04,0,.07,0,.11-.05.07-.08.15-.1.24-.02.1-.02.2,0,.29h0c.15,1.59.29,3.18.44,4.77,0,0,0,0,0,0-.06.12-.14.31-.17.55-.01.11-.02.4.08.75.15.51.54.94.76.79,0,0,0-.02.01-.03-.02.64-.03,1.38-.04,2.29-.01.96-.01,1.77-.01,2.38,0,0,0,.49.01,1.01.02,1.23.11,4.78.26,9.54.13-.02.29-.04.45-.05.01.36.01.73.02,1.09,0,.02,0,.03,0,.05-.04.02-.06.03-.09.05-.04-.01-.09-.03-.13-.04-.21.06-.42.14-.64.22-.2-.07-.39-.15-.58-.2-.04.02-.12.04-.18.06-.06-.03-.14-.06-.23-.08,0,0,0,0,0,0-.04-.61-.08-1.24-.13-1.86.4-.04.79-.08,1.19-.11-.94-3.59-1.32-6.46-1.5-8.45ZM283.18,88.49s0,.03,0,.05c-.04.02-.06.03-.09.05-.04-.01-.09-.03-.12-.04-.22.06-.43.14-.67.23-.25-.09-.49-.18-.72-.25-.05.02-.12.04-.18.06-.06-.03-.14-.06-.23-.08,0,0,0,0,0,0-.03-.44-.06-.88-.09-1.32.11,0,.22.02.3.03-.17-3.07-.38-6.17-.65-9.32-.05-.56-.1-1.12-.15-1.68-.06-.69-.14-1.55-.23-2.56-.1-1.08-.18-1.95-.27-2.7.21-.06.49-.38.64-.75.13-.34.15-.63.14-.74-.01-.25-.07-.44-.12-.57,0,0,0,0,0,0,.16-.91.31-1.81.47-2.72.19.48.38.95.61,1.44.32.71.65,1.38.97,2.01,0,.03-.02.06-.02.09-.23,1.04-.25,2.38-.29,5.04-.03,1.72,0,2.99,0,3.33.03,1.94-.04,4.78-.46,8.62.38.02.76.04,1.14.06.01.56.02,1.15.04,1.7Z"/>
        <path class="cls-13" d="M293.63,128.63c-.49-.14-.87-.32-1.25-.43-.04.02-.12.04-.18.06-.06-.03-.14-.06-.23-.08,0,0,0,0,0,0-.04-.61-.08-1.24-.13-1.86.4-.04.8-.08,1.19-.11-.94-3.59-1.32-6.47-1.5-8.46-.04-.47-.17-1.96-.37-4.17-.11-1.12-.19-1.97-.28-2.67.05.05.1.11.11.18.11.38-.1.71.11.77.25.06.45-.48.4-1-.03-.35-.15-.62-.2-.71-.08-.14-.16-.25-.24-.33.54-1.46,1.08-2.91,1.63-4.37h0c.05-.08.08-.18.08-.28.01-.14-.03-.26-.1-.37,0,0,0-.01,0-.02,0-.02-.02-.04-.03-.06,0,0,0-.01,0-.02-.55-1.16-1.09-2.31-1.64-3.47l.25-.18-1.36-1.89c-.21-.29-.54-.42-.87-.41,0,0,0-.01,0-.02-.44,0-.88,0-1.32.01-.02.03-.08.08-.15.15-.12,0-.24.02-.36.03v-.61c.06,0,.12-.02.17-.04.05-.02.11-.06.18-.14.02.03.15.16.35.17.26.01.41-.19.43-.21.3.02.53-.18.55-.41.01-.16-.08-.32-.22-.42.3-.01.56-.24.6-.53.05-.31-.14-.61-.44-.7.26-.04.45-.26.45-.52,0-.25-.18-.48-.43-.53.13-.23.12-.52-.02-.73-.17-.25-.51-.36-.82-.25,0-.03-.03-.47-.41-.7-.29-.17-.66-.14-.93.06-.14-.16-.35-.23-.55-.17-.22.06-.38.26-.4.49-.04,0-.55-.09-.92.28-.31.31-.29.71-.29.78-.25.12-.42.36-.44.63-.02.28.11.56.35.71-.21.1-.34.3-.35.52,0,.24.14.47.36.57-.18.12-.24.35-.16.52.07.15.24.24.41.22.04.15.16.27.31.3.16.03.33-.03.42-.17.06.07.14.16.24.16.1,0,.14-.09.2-.14,0,0,.01,0,.02,0,0,.08,0,.15,0,.23v.08c0,.1,0,.21,0,.31,0,0,0,0,0,0v.39c-.21.03-.42.06-.62.09-.12-.07-.21-.13-.25-.16-.44.09-.88.18-1.32.28,0,0,0,0,0,0-.27.06-.51.21-.67.46l-1.22,1.98.4.25c-.23.44-.46.87-.69,1.31,0,0,0,0,0-.01,0,0,0-.01,0-.02-.01-.02-.03-.04-.04-.06,0,0,0-.01-.01-.02-.92-1.45-1.84-2.9-2.76-4.35,0,0,0,0,0,0h0c-.06-.1-.14-.19-.24-.26-.08-.05-.16-.08-.24-.11,0-.04,0-.07.01-.11h0c-.3-.05-.64-.08-1.03-.08-.33,0-.62.03-.88.06,0,.02-.03.05-.04.09-.05,0-.1,0-.15.01v-.64c.3.05.49.12.74.14.2.02.3,0,.37-.01.82-.19,1.52-2.43.63-4-.13-.23-.5-.85-1.29-1.19-.64-.27-1.22-.21-1.49-.16-.17.03-.81.16-1.35.67-.62.58-.75,1.29-.83,1.71-.17,1.02-.02,2.65.82,2.98.37.14.64.02,1.04-.08v.69s.01.04.01.06c-.09.01-.18.03-.27.04-.03-.03-.07-.08-.09-.11-.22,0-.52,0-.86.08-.31.07-.56.18-.74.28,0,.03.02.06.03.1,0,0,0,0,0,0,0,0,0,.01,0,.02-.08.04-.16.09-.22.16-.08.09-.15.19-.19.3h0s0,0,0,0c-.47,1.22-.94,2.45-1.41,3.67-.54-.65-1.07-1.3-1.61-1.96l.27-.23-1.51-1.77c-.18-.21-.43-.33-.68-.35,0,0,0,0,0,0h0s-.03,0-.05,0c-.33,0-.66,0-.99,0-.03-.01-.05-.03-.08-.02.09-.07.14-.19.12-.3-.02-.13-.13-.2-.15-.21.01-.02.12-.16.07-.35-.05-.16-.19-.23-.21-.24.18-.13.27-.29.3-.42.04-.03.06-.05.08-.06.13-.12.35-.37.46-.71.07-.23.08-.48.03-.8-.11-.67-.62-2.26-1.7-2.47-.08-.02-.17-.02-.26-.02-.08,0-.17,0-.25,0-.1,0-.22.02-.36.03h0c-.16-.02-.49-.03-.85.12-.03.01-.09.04-.16.07,0,0-.01,0-.02,0-.79.38-1,1.37-1.03,1.49-.12.61.05,1.23.1,1.45.07.28.14.4.17.66.04.44-.08.81-.18,1.06.29-.17.47-.35.59-.5.03.03.05.05.09.08-.02.01-.16.08-.2.25-.05.19.07.33.08.34-.02.01-.12.08-.14.22-.01.11.04.22.13.29-.09-.01-.17.06-.18.14,0,.07.05.14.13.15,0,0,.02.01.03.02-.02,0-.05,0-.05.03,0,.01.01.01.02.03-.08.02-.16.03-.24.05-.32.07-.62.16-.91.24,0,0,0,0,0,0-.36.09-.67.35-.77.74l-.58,2.25.32.08c-.11.3-.21.61-.32.91-.15-.29-.29-.56-.45-.85-.41-.73-.81-1.43-1.22-2.11,0-.03,0-.09-.02-.15,0,0,0-.02.01-.02-.02-.02-.03-.04-.04-.06,0-.01,0-.03-.02-.04-.01-.02-.06-.1-.14-.17-.08-.11-.15-.21-.21-.29,0,0-.1-.15-.34-.36-.06-.05-.14-.11-.21-.09-.02,0-.04.02-.06.04-.07.08.02.3.13.5.05.09-.27.14-.45.03-.33-.21-.4-.6-.6-.49-.15.08-.1.34.06.62l-.62-.87c-.21-.29-.54-.42-.87-.41,0,0,0-.01,0-.02-.44,0-.88,0-1.32.01-.02.03-.08.08-.15.15-.12,0-.24.02-.36.03v-.61c.06,0,.12-.02.17-.04.05-.02.11-.06.18-.14.02.03.15.16.35.17.26.01.41-.19.43-.21.3.02.53-.18.55-.41.01-.16-.08-.32-.22-.42.3-.01.56-.24.6-.53.05-.31-.14-.61-.44-.7.26-.04.45-.26.45-.52,0-.25-.18-.48-.43-.53.13-.23.12-.52-.02-.73-.17-.25-.51-.36-.82-.25,0-.03-.03-.47-.41-.7-.29-.17-.66-.14-.93.06-.14-.16-.35-.23-.55-.17-.22.06-.38.26-.4.49-.04,0-.55-.09-.92.28-.31.31-.29.71-.29.78-.25.12-.42.36-.44.63-.02.28.11.56.35.71-.21.1-.34.3-.35.52,0,.24.14.47.36.57-.18.12-.24.35-.16.52.07.15.24.24.41.22.04.15.16.27.31.3.16.03.33-.03.42-.17.06.07.14.16.24.16.1,0,.14-.09.2-.14,0,0,.01,0,.02,0,0,.08,0,.15,0,.23v.08c0,.1,0,.21,0,.31,0,0,0,0,0,0v.39c-.21.03-.42.06-.62.09-.12-.07-.21-.13-.25-.16-.44.09-.88.18-1.32.28,0,0,0,0,0,0-.27.06-.51.21-.67.46l-1.22,1.98.4.25c-.43.81-.86,1.62-1.29,2.43,0,0-.01.02-.01.02-.03.05-.05.11-.06.17-.02.08-.01.16,0,.23,0,.04-.01.07,0,.11.02.1.05.19.1.27h0c.26.67.55,1.36.87,2.07.32.71.65,1.38.97,2.01,0,.03-.02.06-.02.09-.23,1.04-.25,2.38-.29,5.04-.03,1.72,0,2.99,0,3.33.03,1.94-.04,4.78-.46,8.62.38.02.76.04,1.14.06.01.56.02,1.15.04,1.7,0,.02,0,.03,0,.05-.04.01-.06.03-.09.05-.04-.01-.09-.03-.12-.04-.39.11-.76.29-1.25.43-1.06.31-1.1.51-1.1.51v.21h4.19v-.21c0-.13-.01-.31-.06-.5-.04-.17-.1-.32-.15-.43-.04.02-.1.03-.15.05-.02-.01-.04-.02-.06-.04,0-.02,0-.04.01-.06.06-.4.13-.96.23-1.64.36.02.73.04,1.09.06-.09-3.16-.05-6.6.21-10.29.18-2.5.44-4.86.75-7.08.58,2.32,1.12,4.81,1.58,7.46.61,3.51,1.01,6.82,1.25,9.87.31-.03.62-.06.94-.09.18.62.36,1.21.55,1.77-.03.01-.04.02-.06.03-.06-.02-.14-.04-.18-.06-.05.11-.11.26-.15.43-.05.19-.06.37-.06.5v.21h6.27v-.21c0-.13-.02-.31-.06-.5-.04-.17-.1-.32-.15-.43-.04.02-.1.03-.15.05-.02-.01-.04-.02-.06-.04,0-.02,0-.04.01-.06.06-.4.13-.96.23-1.63.36.02.72.04,1.09.06-.09-3.15-.05-6.59.21-10.28.18-2.49.44-4.85.75-7.07.58,2.32,1.12,4.8,1.58,7.45.61,3.51,1.01,6.81,1.25,9.86.31-.03.62-.06.93-.09.18.61.36,1.21.55,1.77-.03,0-.04.02-.06.03-.06-.02-.13-.04-.18-.06-.05.11-.11.26-.15.43-.05.19-.06.37-.06.5v.21h4.94v-.22c0-.14-.02-.31-.06-.51-.04-.18-.1-.33-.15-.44-.04.02-.11.03-.16.05-.02-.01-.04-.02-.07-.04,0-.02,0-.05.01-.06.04-.27.09-.62.14-1.01.08.02.17.03.25.05.38-3.7.77-7.41,1.16-11.11.25-2.4.51-4.8.76-7.2.77,3.17,1.28,5.76,1.61,7.58.33,1.8.49,2.88.91,5.12.45,2.38.88,4.33,1.17,5.62.09-.05.2-.1.32-.15.12.41.25.8.38,1.18-.03,0-.04.02-.06.04-.06-.02-.14-.04-.18-.06-.05.12-.11.27-.15.44-.05.2-.06.37-.06.51v.22h5.11v-.21c0-.13-.01-.31-.06-.5-.04-.17-.1-.32-.15-.43-.04.02-.1.03-.15.05-.02-.01-.04-.02-.06-.04,0-.02,0-.04.01-.06.06-.4.13-.96.23-1.64.36.02.73.04,1.09.06-.09-3.16-.05-6.6.21-10.29.18-2.5.44-4.86.75-7.08.58,2.32,1.12,4.81,1.58,7.46.61,3.51,1.01,6.82,1.25,9.87.31-.03.62-.06.94-.09.18.62.36,1.21.55,1.77-.03.01-.04.02-.06.03-.06-.02-.14-.04-.18-.06-.05.11-.11.26-.15.43-.05.19-.06.37-.06.5v.21h4.19v-.21s-.03-.2-1.1-.51ZM291.42,105.24c-.18.69-.36,1.4-.53,2.14-.12.54-.22,1.05-.33,1.57-.09-.37-.19-.71-.32-1.06-.52-1.43-1.21-2.48-1.73-3.17.09-.03.19-.05.26-.08,0-.63.03-1.27.07-1.94.02-.36.04-.62.05-.75,0-.1.01-.23.02-.35l.56.77.17-.12c.6,1,1.19,2,1.79,3.01ZM283.68,102.91l.56-.9c.05.17.09.33.14.5.15.57.29,1.15.29,1.15.08.32.15.64.21.95.08.03.16.05.25.08-1.03,1.26-1.63,2.42-1.99,3.39-.1-.38-.19-.75-.3-1.14-.21-.72-.43-1.41-.65-2.08.45-.68.9-1.37,1.35-2.05l.15.09ZM271.54,111.68c-.06-.14-.17-.31-.2-.55-.02-.21.17-.49.23-.39,0,0,0,0,0,.01-.02.28-.03.59-.04.93ZM279.9,109.46s.02-.02.03-.03c.07-.09.24.2.2.41-.02.12-.07.22-.12.31-.03-.24-.07-.47-.1-.69ZM280.21,103.81c-.05.74-.1,1.49-.13,2.27-.03.8-.05,1.57-.05,2.33,0,0,0,0,0,0-.09.16-.17.29-.24.4-.1-.46-.22-.88-.37-1.3-.3-.82-.84-2.01-1.9-3.34h0l.07-.62c.11-.91.21-1.82.32-2.72.77.99,1.54,1.99,2.31,2.98ZM271.77,104.86c.58-1.16,1.15-2.31,1.73-3.47.26.92.52,1.85.79,2.77-1.64,1.96-2.25,3.73-2.5,4.87-.06.26-.1.54-.14.85-.03-.06-.05-.1-.08-.17,0,0,0,0,0,0,.06-.75.1-1.53.13-2.32.03-.84.05-1.67.06-2.46h0s0-.03,0-.04c0,0,0,0,0,0,0,0,0-.01.01-.02ZM269.11,103.13c-.34.01-.67.02-1.02.03-.29.01-.55.04-.83.06,0-.15,0-.3.02-.45.02-.36.04-.62.05-.75,0-.11.01-.24.02-.37l.63.74.22-.18c.31.31.62.62.93.93ZM264.07,97.82v.21c0-.07-.03-.13-.03-.15.01-.02.02-.04.03-.06ZM263.63,98.97s.15-.03.2-.17c.06-.14-.03-.27-.03-.28.05-.02.14-.08.2-.19.05-.09.06-.17.07-.25v1.05c-.16.02-.33.04-.48.07-.01,0-.02-.01-.03-.02.04-.02.08-.03.1-.07.03-.06-.01-.13-.03-.16ZM265.45,98.98v-.37s0,0,0,0c0-.04,0-.09,0-.13.04.04.09.06.11.08,0,0-.09.14-.02.28.03.07.08.1.13.13-.07,0-.15.01-.22.02ZM263.38,97.06s0,.02,0,.03c0,0,0,0,0,0,0,0,0,0,0,0,0,0,0-.02,0-.03ZM257.32,107.37c-.12.54-.22,1.05-.33,1.57-.09-.37-.19-.71-.32-1.06-.52-1.43-1.21-2.48-1.73-3.17.09-.03.19-.05.26-.08,0-.63.03-1.27.07-1.94.02-.36.04-.62.05-.75,0-.1.01-.23.02-.35l.56.77.17-.12c.6,1,1.19,2,1.79,3.01-.18.69-.36,1.4-.53,2.14ZM249.26,106.94c-.21-.72-.43-1.41-.65-2.08.45-.68.9-1.37,1.35-2.05l.15.09.56-.9c.05.17.09.33.14.5.15.57.29,1.15.29,1.15.08.32.15.64.21.95.08.03.16.05.25.08-1.03,1.26-1.63,2.42-1.99,3.39-.1-.38-.19-.75-.3-1.14ZM261.6,128.15s0,.03,0,.05c-.04.01-.06.03-.09.05-.04-.01-.09-.03-.12-.04-.38.11-.76.29-1.25.43-.02,0-.03,0-.04.01-.02,0-.03,0-.04-.01-.49-.14-.87-.32-1.25-.43-.04.02-.12.04-.18.06-.06-.03-.14-.06-.23-.08,0,0,0,0,0,0-.04-.61-.08-1.24-.13-1.86.4-.04.8-.08,1.19-.11-.94-3.59-1.32-6.47-1.5-8.46-.04-.47-.17-1.96-.37-4.17-.11-1.12-.19-1.97-.28-2.67.05.05.1.11.11.18.11.38-.1.71.11.77.25.06.45-.48.4-1-.03-.35-.15-.62-.2-.71-.08-.14-.16-.25-.24-.33.54-1.46,1.08-2.91,1.63-4.37h0c.05-.08.08-.18.08-.28.01-.14-.03-.26-.1-.37,0,0,0-.01,0-.02,0-.02-.02-.04-.03-.06,0,0,0-.01,0-.02-.55-1.16-1.09-2.31-1.64-3.47l.25-.18-.56-.78c.04.05.08.11.13.15.26.24.52.36.62.4.15.05.29.07.4.08.57,1.44,1.14,2.89,1.7,4.33h0s.02.03.02.04c.01.04.03.08.05.12.02.03.02.07.05.1,0,0,.02.01.03.02.02.02.04.03.05.05.05.04.09.08.15.11.01,0,.03,0,.04.01.07.03.14.05.21.05,0,0,0,0,.01,0,.04,0,.08,0,.11-.01.05,0,.1-.02.15-.04.05-.02.09-.04.13-.06.01,0,.03-.01.04-.02.02-.01.03-.03.04-.04.02-.02.04-.04.06-.07.02-.03.04-.05.06-.08,0,0,.01-.01.02-.02.01-.02.02-.04.03-.06,0,0,0-.01,0-.02.37-.79.74-1.59,1.1-2.38l.31.08.12-.47s0,.02,0,.03c.15.57.29,1.15.29,1.15.08.32.15.64.21.95.06.02.14.04.21.07-1.53,1.87-2.1,3.55-2.35,4.65-.23,1.04-.25,2.37-.29,5.03-.03,1.72,0,2.99,0,3.33.03,1.94-.04,4.78-.46,8.61.38.02.76.04,1.14.06.01.56.02,1.15.04,1.7ZM269.95,117.77c-.04-.47-.17-1.96-.37-4.16-.32-3.41-.46-4.44-.92-5.7-.51-1.4-1.18-2.44-1.7-3.13.08-.02.17-.05.24-.07,0-.19.01-.39.02-.59,1.07.09,2.13.18,3.19.27h0s.07,0,.1,0c-.01.04,0,.07,0,.11-.05.07-.08.15-.1.24-.02.1-.02.2,0,.29h0c.15,1.59.29,3.18.44,4.77,0,0,0,0,0,0-.06.12-.14.31-.17.55-.01.11-.02.4.08.75.15.51.54.94.76.79,0,0,0-.02.01-.02-.02.64-.03,1.38-.04,2.29-.01.95-.01,1.77-.01,2.38,0,0,0,.49.01,1.01.02,1.23.11,4.78.26,9.54.13-.02.29-.04.45-.05.01.36.01.73.02,1.09,0,.02,0,.03,0,.05-.04.02-.06.03-.09.05-.04-.01-.09-.03-.13-.04-.21.06-.42.14-.64.22-.2-.08-.39-.15-.58-.2-.04.02-.12.04-.18.06-.06-.03-.14-.06-.23-.08,0,0,0,0,0,0-.04-.61-.08-1.24-.13-1.86.4-.04.79-.08,1.19-.11-.94-3.59-1.32-6.46-1.5-8.45ZM283.18,128.14s0,.03,0,.05c-.04.02-.06.03-.09.05-.04-.01-.09-.03-.12-.04-.22.06-.43.14-.67.23-.25-.09-.49-.18-.72-.25-.05.02-.12.04-.18.06-.06-.03-.14-.06-.23-.08,0,0,0,0,0,0-.03-.44-.06-.88-.09-1.32.11,0,.22.02.3.03-.17-3.07-.38-6.17-.65-9.32-.05-.56-.1-1.12-.15-1.68-.06-.69-.14-1.55-.23-2.56-.1-1.08-.18-1.95-.27-2.7.21-.06.49-.38.64-.75.13-.34.15-.63.14-.74-.01-.25-.07-.44-.12-.57,0,0,0,0,0,0,.16-.91.31-1.81.47-2.72.19.48.38.95.61,1.44.32.71.65,1.38.97,2.01,0,.03-.02.06-.02.09-.23,1.04-.25,2.38-.29,5.04-.03,1.72,0,2.99,0,3.33.03,1.94-.04,4.78-.46,8.62.38.02.76.04,1.14.06.01.56.02,1.15.04,1.7Z"/>
        <path class="cls-12" d="M227.07,107.83c-1.04-.3-1.84-.68-2.66-.91-.05.02-.1.04-.15.06-.25-.3-.4-.67-.39-1.07,0-.13,0-.27.01-.4.43,0,.85.01,1.23.04.04-6.24-.45-13.81-2.16-22.24-.64-3.17-1.39-6.14-2.2-8.91.01-.02.02-.03.03-.05.43-.7.59-1.34.62-1.59.04-.29.04-.55.03-.78.04-.1.07-.22.1-.35.02-.09.02-.17.03-.22.67-2.83,1.33-5.66,2-8.49.02-.09.05-.32.02-.59,0-.08.01-.14.01-.17-.88-1.97-1.36-2.96-2.22-4.42l1.09-1.09-3.55-3.55c-.24-.24-.51-.41-.81-.54,0,0,0,0,0,0-.01,0-.03-.01-.05-.02-.02,0-.03-.01-.05-.02-.43-.18-1.03-.37-1.76-.44-.69-.07-1.28-.02-1.72.05-.03.04-.11.13-.22.25-.46-.05-.94-.09-1.45-.11.04-.13.07-.26.07-.41v-2.88c0-.1-.01-.2-.03-.29.81-.42,1.46-1.13,1.8-2.03.07.02.14.05.22.05.42,0,.77-.34.77-.77v-.29c0-.32-.19-.59-.47-.71,0-.02,0-.03,0-.05,0,0,0,0,0,0,0,0,.23-1.17.24-1.47,0-.21,0-.84-.23-1.31.18-.14.32-.29.41-.47.02-.05.27-.56.06-.88-.2-.3-.62-.2-1.24-.33-.91-.19-.86-.58-1.83-.91-.26-.09-1.21-.39-2.29-.09-.38.11-.98.27-1.3.81-.21.36-.25.8-.18,1.15-.14.25-.28.54-.37.76,0,0-.22.55-.25,1.64,0,.01.01.06.02.11,0,0,0,0,0,0v.02c-.34.03-.63.27-.69.61l-.05.28c-.05.3.08.58.31.75-.17,1.5.74,2.96,2.24,3.41.05.01.1.02.15.03h0s0,.01,0,.01c0,.24,0,.49,0,.74v.51c0,.13,0,.27,0,.4,0,0,0,0,0,0v1.21c0,.15.03.29.08.43-.58.04-1.13.1-1.65.17-.08-.08-.15-.15-.17-.18-.36-.04-.81-.06-1.32,0-.64.06-1.17.21-1.57.35,0,0,0,0,0,0-.17.06-.34.13-.5.22l-4.35,2.51.33.58s-.02.02-.03.02c0,0-1.61,1.09-3.27,2.37l-1.51-1.78c-.41-.48-1.01-.69-1.6-.62-.64,0-1.27.01-1.91.02-.03.03-.09.09-.15.15-.3.02-.6.03-.91.06v-.98s0,0,0,0c0-.13,0-.25.01-.33,0-.15,0-.26,0-.48,0-.18,0-.22,0-.26,0,0,0-.01,0-.02v-.29s0-.02,0-.03c.2-.09.38-.2.55-.32.14,0,.3-.04.44-.12.1.24.29.41.52.44.32.04.68-.23.74-.66.3.03.59-.13.71-.38.15-.3.04-.7-.27-.9.39-.17.64-.56.63-.98-.01-.38-.25-.73-.6-.9.41-.27.64-.74.6-1.23-.04-.47-.33-.89-.76-1.09,0-.11.04-.8-.49-1.34-.63-.65-1.51-.5-1.58-.49-.03-.4-.3-.74-.68-.85-.34-.09-.72.02-.96.3-.48-.36-1.12-.4-1.61-.11-.66.39-.71,1.15-.71,1.2-.53-.21-1.13-.02-1.42.44-.25.39-.22.92.08,1.31-.06.04-.5.33-.57.9-.07.59.31.99.35,1.04-.4.21-.65.62-.63,1.04.03.53.48.99,1.06,1.04-.02.01-.41.24-.41.6,0,.36.4.74.96.71.1.33.47.48.74.35.16-.08.26-.25.27-.44.23.19.47.35.75.46,0,0,0,0,0,.01v2.46s.02.09.03.14c-.38.06-.76.12-1.12.19-.14-.09-.24-.16-.29-.2-.37.07-.76.15-1.15.24-.56.13-1.09.27-1.59.43,0,0,0,0,0,0-.63.15-1.17.63-1.34,1.3l-1.02,3.93.57.15c-.19.53-.37,1.05-.56,1.58-.26-.49-.53-.98-.8-1.47-.71-1.28-1.42-2.51-2.13-3.69,0-.06-.01-.15-.04-.26,0-.01.02-.03.03-.04-.03-.04-.05-.06-.08-.1-.01-.03-.01-.05-.03-.07-.02-.03-.11-.17-.25-.29-.14-.2-.27-.37-.36-.5,0,0-.17-.26-.6-.62-.11-.09-.24-.2-.37-.16-.04.01-.07.03-.11.08-.12.14.03.53.23.88.09.17-.47.25-.78.05-.58-.37-.71-1.04-1.05-.87-.4.21-.03,1.15.64,1.77.46.42.91.63,1.09.7.27.1.5.13.71.15.99,2.53,1.99,5.05,2.98,7.58h0s.03.05.03.08c.02.07.06.14.1.2.03.06.04.12.08.17.01.02.03.02.05.04.03.03.06.05.09.08.08.08.16.15.26.2.02.01.04.01.07.02.12.05.24.09.37.1,0,0,.01,0,.02,0,.07,0,.13-.01.2-.02.09-.01.18-.03.27-.07.08-.03.16-.06.23-.11.02-.02.05-.02.07-.04.03-.02.04-.05.07-.08.04-.04.08-.08.11-.12.04-.05.08-.09.11-.15,0-.01.02-.02.03-.04.02-.04.03-.07.05-.11,0,0,.01-.02.01-.03.64-1.39,1.29-2.78,1.93-4.17l.54.14.21-.83s0,.03.01.05c.27,1,.5,2.02.5,2.02.13.56.26,1.12.37,1.67.11.04.24.08.37.12-2.67,3.28-3.68,6.22-4.1,8.13-.4,1.83-.44,4.15-.51,8.81-.05,3.01,0,5.23,0,5.83.05,3.39-.06,8.36-.8,15.07.66.04,1.32.07,1.98.11.03,1,.05,2,.08,2.98,0,.03,0,.06,0,.09-.07.03-.13.06-.18.09-.07-.02-.13-.05-.19-.07-.67.19-1.33.5-2.19.75-1.86.54-1.92.89-1.92.89v.37h7.33v-.37c0-.23-.03-.54-.11-.87-.07-.3-.17-.56-.27-.76-.07.03-.15.06-.24.09-.04-.03-.09-.05-.14-.07,0-.03.02-.07.02-.1.1-.7.23-1.69.39-2.86.63.04,1.27.07,1.9.11-.16-5.52-.09-11.54.36-17.98.31-4.36.76-8.49,1.31-12.38,1.01,4.06,1.96,8.41,2.77,13.03,1.07,6.14,1.76,11.92,2.18,17.26.55-.05,1.09-.1,1.64-.15.31,1.08.64,2.12.97,3.1-.05.02-.1.04-.14.06-.11-.03-.2-.07-.28-.1-.09.2-.19.46-.27.76-.08.34-.11.64-.11.87v.37h9.64v-.45c0-.28-.03-.65-.13-1.06-.09-.37-.21-.68-.32-.92-.06.02-.12.05-.2.08h0s0,0,0,0c0-.02-.01-.05-.02-.07-.08-.2-.1-.42-.05-.62.03-.11.05-.23.08-.35.42.06.8.13,1.15.21.91-6.65,1.86-13.3,2.85-19.95.55-3.66,1.1-7.32,1.67-10.98.99,3.84,1.96,7.69,2.92,11.54,1.59,6.36,3.14,12.73,4.66,19.11.32-.06.67-.12,1.03-.17.05.15.1.31.15.46.09.26.08.53,0,.79-.05-.02-.09-.04-.14-.05-.11.24-.24.56-.32.92-.1.41-.13.78-.13,1.06v.45h8.91v-.45s-.07-.42-2.33-1.08ZM220.49,62.51c-.15,1.58-.3,3.17-.45,4.75-.15-.88-.3-1.66-.45-2.31-.41-1.81-.79-2.96-1.11-4.31l.27-.27c.56.72,1.14,1.43,1.74,2.13ZM203.15,59.52l.58,1,2.23-1.29c0,.11-.01.24-.02.35-.16,1.78-.45,2.83-.9,5.31-.13-.02-.25-.05-.34-.06-.07,0-.13,0-.19-.02-1.39-1.27-2.73-2.6-4.1-3.91,1.15-.53,2.11-1.03,2.75-1.39ZM194.74,62.83c.03-.63.06-1.08.08-1.32.01-.2.03-.42.04-.65l1.11,1.3.38-.32c.54.54,1.07,1.07,1.61,1.61-.59.02-1.18.04-1.78.07-.5.02-.98.06-1.47.08.01-.26.02-.52.03-.78ZM199.43,89.08c-.07-.82-.29-3.42-.65-7.28-.56-5.96-.8-7.77-1.6-9.97-.89-2.43-2.06-4.26-2.97-5.47.14-.04.29-.08.42-.13,0-.34.02-.68.02-1.02,1.87.16,3.73.31,5.6.47h0c.16.04.33.04.5,0,.33-.07.59-.27.76-.54.52.37,1.05.75,1.57,1.12.17.26.52.52.99.87.18.14.36.24.54.33-.29,1.87-.5,3.49-.65,4.79.11.03.24.06.35.08-.77,3.81-1.42,8.06-1.78,12.71-.63,8.01-.27,15.08.42,20.85.19-.02.4-.03.61-.04,0,.11,0,.23,0,.35,0,.18-.04.35-.13.5-.04.07-.08.14-.14.21-.02.02-.03.03-.04.05-.55.16-1.09.39-1.71.6-.22-.08-.43-.15-.64-.21-.08.03-.17.07-.28.1-.11-.06-.26-.11-.43-.14-.07-1.07-.15-2.16-.23-3.25.7-.07,1.39-.13,2.09-.2-1.64-6.28-2.31-11.3-2.62-14.78Z"/>
        <path class="cls-12" d="M229.11,141.31s0,0,0,0v-.02s-.02-.05-.03-.07c-.01-.07-.04-.12-.07-.17,0,0,0,0,0-.01,0,0,0-.02,0-.02-.02-.03-.04-.07-.06-.1,0-.01-.01-.02-.02-.03-1.55-2.45-3.1-4.89-4.65-7.34,0,0,0,0,0,0h0c-.11-.17-.24-.32-.41-.44-.13-.09-.27-.16-.41-.2,0-.05.01-.11.02-.16h0c-.5-.08-1.09-.13-1.74-.13-.55,0-1.05.05-1.49.11-.01.03-.04.08-.06.13-.09,0-.18.02-.27.03v-1.07c.51.08.82.21,1.25.25.34.03.5,0,.62-.02,1.38-.32,2.57-4.1,1.06-6.73-.22-.39-.84-1.44-2.17-2-1.08-.45-2.05-.35-2.5-.27-.29.05-1.36.27-2.27,1.12-1.05.98-1.27,2.17-1.39,2.89-.29,1.72-.03,4.47,1.39,5.01.63.24,1.08.03,1.75-.14v1.16s.01.05.02.08c-.16.02-.31.05-.47.08-.05-.06-.1-.12-.13-.18-.37-.02-.87,0-1.45.14-.52.12-.95.3-1.26.46.02.05.03.11.05.16,0,0,0,0,0,0,0,0,0,.01,0,.02h0c-.13.07-.26.16-.37.27-.14.16-.25.33-.33.52h.01s-.01,0-.01.01c-.51,1.34-1.03,2.68-1.55,4.02-.31-.38-.62-.75-.93-1.13l.46-.39-2.54-2.98c-.3-.35-.72-.55-1.15-.6h0s-.03,0-.03,0c-.02,0-.05,0-.07,0h-.27c-.46.01-.9.01-1.35.03h-.02s-.1-.05-.17-.04c.16-.12.23-.31.2-.5-.04-.23-.22-.34-.25-.35.02-.03.2-.27.11-.58-.08-.27-.31-.39-.35-.41.31-.22.46-.48.51-.7.06-.04.11-.08.13-.1.23-.2.6-.63.78-1.2.12-.4.14-.81.05-1.35-.19-1.13-1.04-3.81-2.87-4.17-.14-.03-.29-.04-.44-.04-.14-.01-.28,0-.42.02-.17.01-.37.03-.61.05h0c-.28-.03-.82-.05-1.43.2-.06.02-.15.06-.26.12-.01,0-.02,0-.03.01-1.33.64-1.69,2.31-1.73,2.51-.21,1.03.08,2.08.17,2.44.12.47.24.67.28,1.12.07.74-.13,1.37-.31,1.79.49-.29.79-.58,1-.85.05.04.09.09.15.13-.04.02-.26.14-.33.42-.08.31.12.55.14.58-.03.02-.2.14-.23.37-.02.19.06.38.22.49-.16-.02-.29.1-.3.24,0,.12.09.23.22.26,0,0,.02,0,.02.01-.02.02-.04.04-.05.07,0,.02,0,.03,0,.04,0,0,0,0,0,0-.13.03-.26.05-.39.08-.48.11-.93.24-1.37.38-.68.1-1.27.59-1.45,1.29l-.98,3.78.54.14c-.17.51-.35,1.01-.54,1.52-.25-.47-.51-.94-.77-1.41-.49-.88-.98-1.73-1.47-2.56l.09-.07-.68-.95c0-.06,0-.14-.02-.24t0,0s.01-.02.02-.03c-.02-.03-.04-.05-.06-.08,0-.03-.03-.05-.04-.09-.01-.03-.09-.17-.24-.29h-.01s-.01-.02-.02-.02c-.13-.18-.24-.33-.33-.45,0,0-.16-.25-.58-.6-.01-.01-.03-.02-.04-.03l-.29-.41c-.35-.48-.91-.74-1.46-.72h0c-.73,0-1.48,0-2.23.02-.04.04-.12.13-.24.24-.2.01-.41.03-.62.04,0,0,0,0,0,0v-1.01c.1-.01.2-.03.29-.07.08-.04.19-.11.3-.23.04.04.25.27.59.29.44.02.7-.32.72-.35.5.03.9-.31.93-.69.02-.27-.13-.53-.38-.7.51-.02.94-.4,1.02-.9.08-.52-.24-1.03-.75-1.19.44-.07.76-.44.76-.88,0-.43-.3-.81-.73-.89.22-.4.2-.87-.04-1.23-.29-.43-.86-.61-1.39-.43,0-.05-.05-.8-.69-1.17-.48-.28-1.11-.24-1.57.11-.23-.27-.6-.39-.93-.29-.37.1-.64.43-.67.83-.07-.01-.93-.15-1.55.48-.52.53-.49,1.2-.48,1.31-.42.2-.71.61-.75,1.07-.04.48.19.94.59,1.2-.35.16-.57.5-.59.88-.01.41.23.79.61.96-.3.2-.41.58-.27.88.12.25.4.4.69.37.06.25.26.45.52.5.27.06.55-.06.71-.29.09.12.23.27.4.26.16,0,.23-.15.35-.24,0,0,.02,0,.03-.01,0,.13,0,.26,0,.38v.13c0,.18,0,.35,0,.53h0s0,.64,0,.64c-.37.05-.71.1-1.05.17h-.01c-.21-.1-.34-.2-.41-.25-.69.13-1.39.29-2.1.43-.04.01-.09.01-.13.03,0,0,0,0,0,0-.45.09-.87.36-1.13.79l-2.05,3.33.68.42s0,0,0,0c-.71,1.35-1.43,2.7-2.13,4.03h2.67c.57-.88,1.15-1.75,1.74-2.64l.26.16.93-1.51c.08.27.16.55.23.82.26.97.48,1.95.48,1.95.1.42.18.83.26,1.22h6.69c.01-.93.05-1.87.1-2.85.03-.61.05-1.05.07-1.27.01-.18.03-.38.04-.6,0,0,0,0,0,0l.94,1.31.27-.2s0,0,0,0c.73,1.2,1.44,2.41,2.16,3.61h4.74c.37-.81.75-1.61,1.11-2.41l.52.13.21-.79s.01.03.01.04c.26.97.48,1.94.48,1.94.09.37.17.73.24,1.09h6.7c0-.14.01-.3.01-.44,1,.09,2.01.17,3.02.26,0,0,0,.01,0,.02-.01,0-.01.01-.01.03-.01.04-.04.08-.05.1,0,.01-.01.03-.01.04v.03c.05.01.09.01.13.01.07,0,.14,0,.2-.01.03,0,.05-.01.08-.03h1.9c.05,0,.1.01.16.01.05.01.1.03.16.01.05.01.09.01.13.01.07,0,.14,0,.2-.01.03,0,.05-.01.08-.03.21-.05.39-.17.54-.33.24-.25.34-.62.26-.97-.03-.13-.07-.25-.13-.35h0s0-.02,0-.02c0-.02,0-.04-.01-.06-.04-.09-.09-.17-.15-.25.5-1.02,1.01-2.04,1.52-3.06t0,0c.44,1.56.89,3.12,1.33,4.68h0c-.1.12-.21.25-.3.37h6.02c-.09-.12-.18-.23-.27-.35,0,0,0,0,0,0h0c.03-.27.06-.53.09-.8.19-1.61.37-3.22.56-4.83,1.3,1.67,2.59,3.34,3.89,5.02,0,0,0,0,0,.01-.03.31-.04.63-.07.96h2.15c.05-.31.1-.62.16-.93h0c.03-.08.04-.17.04-.25.01-.05.01-.12.01-.17v-.08l-.03-.17ZM201.09,130.61s0,0,0,0c0,0,0,0,0,0,0,0,0,0,0,0ZM202.27,134.05h0c-.29.05-.56.09-.84.14,0-.01,0-.01-.01-.01.07-.03.13-.06.16-.13.04-.1-.02-.22-.05-.27.02,0,.25-.06.34-.28.1-.24-.05-.46-.05-.47.08-.04.23-.13.34-.31.09-.14.11-.29.11-.42v1.75ZM202.27,132.19c-.01-.12-.04-.22-.05-.24.02-.03.03-.07.05-.11v.35ZM204.6,133.77s0,0,0,0v-.6s0,0,0,0c0-.07,0-.15,0-.22.07.06.15.11.19.13,0,.01-.15.23-.03.47.05.1.12.16.19.2-.11.01-.23.01-.34.02ZM207.61,140.93c.01-.25.03-.51.04-.76.03-.6.05-1.03.08-1.27.01-.18.03-.39.04-.62h0s1.06,1.25,1.06,1.25l.36-.31c.52.52,1.03,1.03,1.55,1.55-.56.01-1.14.04-1.71.07-.47.03-.94.05-1.41.09Z"/>
        <polygon class="cls-12" points="215.01 111.15 212.51 111.15 212.51 113.62 193.32 113.62 193.32 111.26 190.82 111.26 190.82 116.12 201.66 116.12 201.66 120.51 204.16 120.51 204.16 116.12 215.01 116.12 215.01 111.15"/>
      </g>
      <g>
        <rect class="cls-16" x="314.53" y="41.54" width="22.57" height="22.57"/>
        <rect class="cls-13" x="314.53" y="66.98" width="22.57" height="22.57"/>
        <rect class="cls-5" x="314.53" y="92.43" width="22.57" height="22.57"/>
      </g>
      <g>
        <rect class="cls-12" x="314.53" y="118.73" width="22.57" height="2.5"/>
        <rect class="cls-12" x="314.53" y="129.08" width="22.57" height="2.5"/>
        <rect class="cls-12" x="314.53" y="134.25" width="22.57" height="2.5"/>
        <rect class="cls-12" x="314.53" y="123.9" width="22.57" height="2.5"/>
      </g>
    </g>
    <g id="Oben_rechts" data-name="Oben rechts">
      <rect class="cls-7" x="562.77" y="63.3" width="217.66" height="153.32"/>
      <rect class="cls-19" x="560.53" y="65.54" width="217.66" height="153.32"/>
      <g>
        <rect class="cls-5" x="673.1" y="78.49" width="2.5" height="125.06"/>
        <rect class="cls-5" x="698.87" y="78.49" width="2.5" height="125.06"/>
        <rect class="cls-5" x="724.64" y="78.49" width="2.5" height="125.06"/>
        <rect class="cls-5" x="647.33" y="78.49" width="2.5" height="125.06"/>
        <rect class="cls-5" x="621.56" y="78.49" width="2.5" height="125.06"/>
        <path class="cls-5" d="M751.89,112.83v55.71l-86.93,8.84-4.66.48h-.01l-53.84,5.47h-.01l-8.52.87v-23.92l12.86-3.64c.86-2.15,1.73-4.3,2.59-6.45,1.49.63,2.99,1.27,4.48,1.9,4.08-2.78,8.17-5.57,12.26-8.35,1.96.85,3.92,1.7,5.89,2.56l13.67-2.75c3.85,1.52,7.7,3.04,11.55,4.55,3.3-2.15,6.6-4.3,9.9-6.45l15.32,4.65,13.91-2.18,4-7.59,4.95-10.44,9.2,4.55,8.24-9.67,8.96,4.36,16.19-12.5Z"/>
        <path class="cls-7" d="M751.89,129.7v59.2l-153.97,5.13v-14.67c2.32-1.56,4.66-3.1,6.99-4.65l5.8-3.26,6.03,3.26c2.55-4.57,5.1-9.14,7.65-13.7,3.24,1.01,6.49,2.02,9.73,3.03,4.48-2.27,8.97-4.55,13.45-6.83,4.25,2.42,8.5,4.83,12.75,7.25,3.32-4.31,6.64-8.63,9.97-12.94l8.11,6.07,3.94-4.74c3.63,1.83,7.27,3.67,10.9,5.5,6.26-2.28,12.52-4.55,18.78-6.83l8.81,5.12,11.12-17.9,8.35,7.56,11.59-16.6Z"/>
        <path class="cls-16" d="M751.89,149.43v54.12h-153.97v-16.04c2.84-1.39,5.68-2.78,8.52-4.18h.01c7.18-3.52,14.35-7.03,21.52-10.55l8.8,5.59,15.29-4.66c2.74,1.38,5.48,2.76,8.23,4.15h.01c.8.41,1.61.81,2.42,1.22.75-.57,1.49-1.13,2.24-1.7,5.19-3.93,10.4-7.88,15.59-11.82,4.71,2.58,9.42,5.16,14.13,7.74,3.4-1.55,6.79-3.1,10.19-4.66,2.94-3.17,5.87-6.34,8.8-9.51,5.33,1.37,10.66,2.73,15.99,4.1,7.41-4.6,14.82-9.2,22.23-13.8Z"/>
        <path class="cls-5" d="M754.39,78.49c0,42.52,0,85.04,0,127.56-.42,0-.83,0-1.25,0h-157.72v-9.21h-9.84v-2.5h9.84v-18.38h-9.84v-2.5h9.84v-18h-9.84v-2.5h9.84v-17.99h-9.63v-2.5h9.63v-18h-9.84v-2.5h9.84v-17.99h-9.63v-2.5h9.63v-12.99h2.5v125.06h153.97v-125.06h2.5Z"/>
      </g>
    </g>
    <g id="mitte">
      <rect class="cls-7" x="400.23" y="144.79" width="217.35" height="153.1"/>
      <rect class="cls-19" x="397.99" y="147.03" width="217.35" height="153.1"/>
      <g id="Diagramm">
        <polygon class="cls-5" points="592.73 285.39 592.73 287.89 465.69 287.89 465.69 160.51 468.19 160.51 468.19 285.39 592.73 285.39"/>
        <rect class="cls-16" x="473.85" y="193.18" width="24.47" height="85.67"/>
        <rect class="cls-7" x="503.41" y="209.41" width="24.47" height="69.43"/>
        <rect class="cls-5" x="532.96" y="193.18" width="24.47" height="85.67"/>
        <rect class="cls-10" x="562.51" y="178.49" width="24.47" height="100.36"/>
        <g id="Pfeil">
          <path class="cls-5" d="M550.46,163.36l1.63,1.99-20.28,15.95c-.58-.37-1.26-.57-1.98-.57-1.14,0-2.2.53-2.89,1.39l-24.92-8.52c-.05-2-1.69-3.61-3.69-3.61s-3.7,1.66-3.7,3.7c0,.12.01.23.02.35l-21.33,10.23,1.08,2.25,21.32-10.23c.68.69,1.62,1.09,2.61,1.09,1.15,0,2.21-.54,2.89-1.4l24.92,8.52c.04,2.01,1.67,3.62,3.69,3.62s3.7-1.65,3.7-3.69c0-.4-.06-.79-.19-1.15l20.34-16,1.64,2,1.83-6.46-6.69.54ZM499.46,174.06c-.16.49-.62.82-1.13.82-.47,0-.89-.27-1.09-.69-.07-.16-.11-.33-.11-.5,0-.66.54-1.2,1.2-1.2s1.19.54,1.19,1.2c0,.13-.02.25-.06.37ZM529.83,185.62c-.66,0-1.19-.53-1.19-1.19,0-.13.02-.26.06-.39.16-.48.62-.81,1.13-.81.37,0,.72.17.95.47.16.21.25.46.25.73,0,.66-.54,1.19-1.2,1.19Z"/>
        </g>
        <rect class="cls-16" x="413.57" y="160.51" width="22.57" height="22.57"/>
        <rect class="cls-7" x="413.57" y="185.96" width="22.57" height="22.57"/>
        <rect class="cls-5" x="413.57" y="211.4" width="22.57" height="22.57"/>
        <rect class="cls-12" x="413.57" y="237.7" width="22.57" height="2.5"/>
        <rect class="cls-12" x="413.57" y="248.05" width="22.57" height="2.5"/>
        <rect class="cls-12" x="413.57" y="253.22" width="22.57" height="2.5"/>
        <rect class="cls-12" x="413.57" y="242.88" width="22.57" height="2.5"/>
      </g>
    </g>
    <g id="Unten_rechts" data-name="Unten rechts">
      <rect class="cls-7" x="580.94" y="367.87" width="179.08" height="126.14"/>
      <rect class="cls-19" x="578.7" y="370.11" width="179.08" height="126.14"/>
      <g>
        <path class="cls-4" d="M618.43,435.99h46.84v-46.83c-25.87,0-46.84,20.97-46.84,46.83Z"/>
        <path class="cls-1" d="M665.27,482.83v-46.84l-30.11,35.88c8.14,6.85,18.64,10.96,30.11,10.96Z"/>
        <path class="cls-4" d="M712.11,435.99h-46.84v46.84c25.87,0,46.84-20.97,46.84-46.84Z"/>
        <path class="cls-10" d="M665.27,435.99l-38.37,26.87c2.35,3.36,5.13,6.39,8.26,9.01l30.11-35.88Z"/>
        <path class="cls-5" d="M665.27,435.99l-46.14,8.14c1.2,6.87,3.91,13.23,7.77,18.73l38.37-26.87Z"/>
        <path class="cls-5" d="M718.04,430.37c0-2.77-.24-5.49-.7-8.13-1.2-6.88-3.91-13.23-7.77-18.73-2.35-3.36-5.13-6.39-8.26-9.01-8.14-6.85-18.64-10.96-30.11-10.96v46.83h46.84Z"/>
        <path class="cls-14" d="M665.27,435.99h-46.84c0,2.78.24,5.49.7,8.14l46.14-8.14Z"/>
      </g>
    </g>
    <g id="Unten_links" data-name="Unten links">
      <rect class="cls-7" x="118.68" y="235.84" width="198.08" height="139.52"/>
      <rect class="cls-19" x="116.44" y="238.08" width="198.08" height="139.52"/>
      <g>
        <g>
          <rect class="cls-4" x="188.53" y="253.33" width="72.01" height="102.14" transform="translate(-23.67 18.97) rotate(-4.6)"/>
          <g>
            <polygon class="cls-17" points="239.78 276.64 246.42 359.3 174.64 365.06 166.46 263.26 219.08 259.03 239.78 276.64"/>
            <polygon class="cls-10" points="239.78 276.64 220.62 278.18 219.08 259.03 239.78 276.64"/>
          </g>
        </g>
        <g>
          <path class="cls-4" d="M183.9,306.13l21.1-1.7-1.7-21.1c-11.65.94-20.34,11.14-19.41,22.8Z"/>
          <path class="cls-1" d="M206.7,325.54l-1.7-21.1-12.27,17.26c3.92,2.79,8.8,4.26,13.96,3.85Z"/>
          <path class="cls-4" d="M226.11,302.74l-21.1,1.7,1.7,21.1c11.65-.94,20.34-11.14,19.41-22.8Z"/>
          <path class="cls-10" d="M205,304.43l-16.31,13.49c1.18,1.43,2.54,2.69,4.05,3.76l12.27-17.26Z"/>
          <path class="cls-5" d="M205,304.43l-20.49,5.34c.79,3.05,2.24,5.82,4.18,8.16l16.31-13.49Z"/>
          <path class="cls-5" d="M226.11,302.74c-.1-1.25-.31-2.47-.61-3.64-.79-3.06-2.24-5.82-4.18-8.16-1.18-1.43-2.54-2.69-4.05-3.76-3.92-2.79-8.8-4.26-13.96-3.85l1.7,21.1,21.1-1.7Z"/>
          <path class="cls-14" d="M205,304.43l-21.1,1.7c.1,1.25.31,2.47.61,3.64l20.49-5.34Z"/>
        </g>
        <g>
          <g>
            <rect class="cls-16" x="209.33" y="332.85" width="5.16" height="18.07" transform="translate(-26.71 18.08) rotate(-4.6)"/>
            <rect class="cls-7" x="215.69" y="335.77" width="5.16" height="14.65" transform="translate(-26.78 18.59) rotate(-4.6)"/>
            <rect class="cls-5" x="221.76" y="331.85" width="5.16" height="18.07" transform="translate(-26.59 19.07) rotate(-4.6)"/>
            <rect class="cls-10" x="227.86" y="328.26" width="5.16" height="21.17" transform="translate(-26.41 19.55) rotate(-4.6)"/>
          </g>
          <g>
            <rect class="cls-5" x="182.53" y="337.32" width="21.1" height="2.5" transform="translate(-26.62 16.63) rotate(-4.61)"/>
            <rect class="cls-5" x="182.87" y="341.66" width="21.1" height="2.5" transform="translate(-26.96 16.67) rotate(-4.61)"/>
            <rect class="cls-5" x="183.22" y="345.99" width="21.1" height="2.5" transform="translate(-27.31 16.72) rotate(-4.61)"/>
            <rect class="cls-5" x="183.57" y="350.33" width="21.1" height="2.5" transform="translate(-27.66 16.76) rotate(-4.61)"/>
          </g>
        </g>
      </g>
    </g>
  </g>
  <g id="Icons">
    <g id="Pokal">
      <path class="cls-4" d="M845.07,239.27l-.22-.98h-11.36v-2.45h-36.58v2.45h-11.35l-.22.98c-.68,3.05-1.76,11,2.86,18.91,3.31,5.66,8.07,8.7,10.87,10.09,1.35,4.51,3.56,7.9,7.21,9.83,1.53.8,3.7,1.58,6.65,1.74h-.84v18.58h-8.71v3.05h-2.76v19.17h-3.7v4.79h36.59v-4.79h-3.7v-19.17h-2.76v-3.05h-8.71v-18.58h-.83c2.95-.16,5.12-.94,6.63-1.74,3.65-1.93,5.87-5.32,7.22-9.83,2.8-1.4,7.55-4.44,10.86-10.09,4.62-7.9,3.54-15.86,2.86-18.91ZM790.36,256.91c-3.75-6.41-3.34-12.87-2.77-16.12h9.33c.04,9.31.07,17.62,1.35,24.16-2.46-1.53-5.58-4.07-7.9-8.04ZM840.05,256.91c-2.32,3.96-5.43,6.5-7.89,8.03,1.28-6.54,1.31-14.85,1.34-24.16h9.33c.57,3.25.98,9.71-2.78,16.12Z"/>
      <rect class="cls-7" x="806.56" y="306.62" width="17.28" height="9.75"/>
    </g>
    <g id="Internet">
      <path class="cls-8" d="M661.79,336.57s0,0,0,0h.14c7.34-.05,14.21-3.91,18.1-10.11h.03l.36-.62c1.9-3.27,2.91-7.01,2.91-10.82,0-.48-.02-.96-.05-1.43-.22-3.33-1.21-6.57-2.89-9.44,0,0,0-.01-.01-.02l-.35-.6h-.03c-3.9-6.17-10.75-10.01-18.05-10.05h-.17s-.15,0-.15,0c-7.32.05-14.17,3.89-18.07,10.05h-.03l-.36.62c-1.92,3.29-2.94,7.05-2.94,10.88,0,.95.06,1.9.19,2.84.37,2.81,1.29,5.53,2.72,7.98,0,0,0,.01.01.02l.35.6h.03c3.9,6.2,10.76,10.06,18.09,10.11h.15s0,0,0,0ZM644.97,323.96c-.05-.09-.09-.17-.14-.26-.08-.16-.16-.32-.24-.49-.1-.2-.19-.41-.28-.61-.07-.16-.14-.33-.21-.49-.08-.21-.16-.42-.24-.64-.06-.16-.12-.33-.17-.5-.07-.22-.14-.44-.2-.66-.05-.17-.1-.33-.14-.5-.06-.23-.11-.46-.16-.69-.04-.16-.07-.33-.11-.49-.05-.24-.08-.48-.12-.73-.02-.16-.05-.31-.07-.47-.03-.27-.06-.54-.08-.81-.01-.13-.03-.27-.04-.4,0,0,0-.01,0-.02h7.08c.08,2.77.43,5.37,1.02,7.74h-5.9ZM642.9,312.59c.02-.16.05-.33.08-.49.04-.24.07-.47.12-.71.03-.17.07-.34.11-.52.05-.22.1-.45.16-.67.05-.17.1-.35.15-.52.06-.22.13-.43.2-.65.06-.17.12-.34.18-.51.08-.21.16-.42.24-.63.07-.16.14-.33.21-.49.09-.21.19-.42.29-.63.07-.15.15-.31.23-.46.05-.09.1-.19.15-.28h5.89c-.59,2.36-.94,4.95-1.03,7.7h-7.08c0-.12.02-.23.03-.34.02-.27.05-.54.08-.8ZM678.57,306.03c.05.09.1.18.14.26.08.16.16.33.24.49.1.2.19.4.28.61.07.17.15.34.22.51.08.2.16.41.23.62.06.17.13.35.18.53.07.21.13.42.19.63.05.18.1.35.15.53.06.22.11.44.16.66.04.17.08.35.11.52.05.23.08.47.12.71.03.16.06.33.08.49.03.27.06.54.08.8.01.13.03.25.04.38h-7.08c-.08-2.77-.44-5.37-1.03-7.74h5.89ZM680.68,317.45c-.02.16-.05.31-.07.46-.04.24-.07.49-.12.73-.03.16-.07.32-.1.48-.05.23-.1.47-.16.7-.04.16-.09.33-.14.49-.06.23-.13.45-.2.67-.05.16-.11.32-.17.48-.08.22-.16.44-.25.65-.06.16-.13.32-.2.48-.09.21-.19.42-.29.63-.07.15-.15.31-.23.46-.05.09-.1.18-.14.27h-5.9c.58-2.36.93-4.95,1.02-7.7h7.08c0,.13-.02.25-.03.37-.02.27-.05.54-.08.81ZM663.04,333.87v-7.41h6.24c-1.5,3.94-3.73,6.71-6.24,7.41ZM663.04,323.96v-7.71h8.18c-.09,2.76-.48,5.38-1.12,7.71h-7.06ZM671.21,313.76h-8.18v-7.73h7.05c.64,2.34,1.03,4.97,1.13,7.73ZM663.04,303.53v-7.36c2.5.7,4.72,3.45,6.22,7.36h-6.22ZM660.54,296.17v7.36h-6.22c1.5-3.91,3.72-6.66,6.22-7.36ZM660.54,306.03v7.71h-8.18c.1-2.76.49-5.38,1.13-7.71h7.05ZM652.36,316.23h8.18v7.73h-7.06c-.64-2.34-1.03-4.97-1.12-7.73ZM660.54,326.46v7.41c-2.51-.7-4.74-3.48-6.24-7.41h6.24ZM668.64,332.77c1.34-1.66,2.46-3.81,3.32-6.31h5.05c-2.16,2.86-5.07,5.03-8.37,6.31ZM676.97,303.53h-5.03c-.85-2.48-1.97-4.61-3.3-6.26,3.27,1.27,6.17,3.43,8.33,6.26ZM654.93,297.28c-1.33,1.65-2.45,3.78-3.3,6.25h-5.03c2.15-2.83,5.05-4.98,8.32-6.25ZM646.57,326.46h5.05c.86,2.5,1.98,4.65,3.32,6.31-3.29-1.28-6.21-3.45-8.37-6.31Z"/>
      <path class="cls-8" d="M636.13,315.03c0-14.15,11.51-25.67,25.65-25.67v-2.5c-15.52,0-28.15,12.63-28.15,28.17,0,4.48,1.08,8.92,3.11,12.85l-1.44.75,4.32,2.11.76-4.75-1.42.74c-1.85-3.57-2.83-7.62-2.83-11.7Z"/>
      <path class="cls-8" d="M686.8,302.1l1.41-.73-4.32-2.11-.76,4.75,1.46-.76c1.87,3.62,2.86,7.69,2.86,11.77,0,14.15-11.51,25.65-25.67,25.65v2.5c15.53,0,28.17-12.63,28.17-28.15,0-4.49-1.09-8.95-3.15-12.93Z"/>
    </g>
    <g id="Handy">
      <rect class="cls-6" x="493.71" y="396.4" width="25.92" height="47.18" rx="1.06" ry="1.06"/>
      <rect class="cls-15" x="495.59" y="398.62" width="22.16" height="37.98" rx=".89" ry=".89"/>
      <circle class="cls-7" cx="506.67" cy="440.1" r="2.12"/>
    </g>
    <g id="Schloss">
      <path class="cls-6" d="M208.04,193.82v-6.89c0-4.95-4.03-8.97-8.98-8.97s-8.97,4.02-8.97,8.97v6.89h-3.06v19.4h24.07v-19.4h-3.06ZM200.81,202.95c-.19.86-.5,1.14-.46,1.79.01.25.06.21.06.39,0,.74-.6,1.33-1.34,1.33s-1.33-.59-1.33-1.33c0-.18.04-.15.06-.4.04-.64-.28-.92-.46-1.79-.07-.27-.09-.4-.09-.54,0-1.01.82-1.84,1.83-1.84s1.84.83,1.84,1.84c0,.13-.03.27-.09.55ZM193.33,193.82v-6.89c0-3.16,2.57-5.72,5.72-5.72s5.73,2.57,5.73,5.72v6.89h-11.46Z"/>
      <path class="cls-7" d="M200.81,202.95c-.19.86-.5,1.14-.46,1.79.01.25.06.21.06.39,0,.74-.6,1.33-1.34,1.33s-1.33-.59-1.33-1.33c0-.18.04-.15.06-.4.04-.64-.28-.92-.46-1.79-.07-.27-.09-.4-.09-.54,0-1.01.82-1.84,1.83-1.84s1.84.83,1.84,1.84c0,.13-.03.27-.09.55Z"/>
    </g>
    <g id="Stapel">
      <g>
        <path class="cls-12" d="M466.06,106.77v7.1c0,.61-5.65,1.1-12.63,1.1s-12.63-.49-12.63-1.1v-7.1c0-.15.33-.29.93-.41-.66-.13-1.02-.28-1.02-.44v-7.1h0c0-.14.31-.28.88-.41.02,0,.04,0,.06-.01-.61-.13-.94-.27-.94-.42v-7.1h0c0-.15.35-.3.98-.43-.63-.13-.98-.27-.98-.43v-7.1h0c0-.14.3-.28.86-.4,0,0-.02,0-.02,0-.57-.13-.88-.26-.88-.41v-7.1c0-.15.33-.29.93-.41-.6-.13-.93-.27-.93-.41v-7.1c0-.61,5.67-.79,12.64-.79s12.62.18,12.62.79v7.1c0,.15-.33.29-.93.41.6.13.93.27.93.41v7.1c0,.14-.3.27-.86.4,0,0,.02,0,.02,0,.57.12.88.26.88.4v7.11c0,.15-.35.29-.98.43.63.13.98.27.98.42v7.1c0,.15-.33.29-.94.42.02,0,.04,0,.06.01.57.13.88.26.88.4v7.11c0,.15-.33.29-.93.42.66.13,1.02.28,1.02.43Z"/>
        <g>
          <path class="cls-13" d="M465.67,107.15h0c-.02.61-5.66,1.1-12.63,1.1s-12.61-.49-12.63-1.1h0c0-.61,5.65-1.11,12.63-1.11s12.63.49,12.63,1.1Z"/>
          <path class="cls-6" d="M465.67,107.16v7.1c0,.61-5.65,1.1-12.63,1.1s-12.63-.49-12.63-1.1v-7.1h0c.02.61,5.66,1.1,12.63,1.1s12.61-.49,12.63-1.1h0Z"/>
        </g>
        <g>
          <path class="cls-13" d="M465.58,99.2h0c-.02.61-5.67,1.1-12.63,1.1-3.48,0-6.64-.12-8.92-.32-2.28-.2-3.7-.47-3.71-.78h0c0-.15.31-.28.88-.41,1.85-.41,6.41-.7,11.75-.7s9.9.29,11.75.7c.57.12.88.26.88.4Z"/>
          <path class="cls-6" d="M465.58,99.2v7.1c0,.61-5.65,1.1-12.63,1.1s-12.63-.49-12.63-1.1v-7.1h0c.02.61,5.66,1.1,12.63,1.1s12.61-.49,12.63-1.1h0Z"/>
        </g>
        <g>
          <path class="cls-13" d="M465.58,91.26h0c-.02.61-5.66,1.1-12.63,1.1s-12.61-.49-12.63-1.1h0c0-.61,5.65-1.11,12.63-1.11s12.63.49,12.63,1.1Z"/>
          <path class="cls-6" d="M465.58,91.26v7.1c0,.61-5.65,1.1-12.63,1.1s-12.63-.49-12.63-1.1v-7.1h0c.02.61,5.66,1.1,12.63,1.1s12.61-.49,12.63-1.1h0Z"/>
        </g>
        <g>
          <path class="cls-13" d="M465.58,83.3h0c-.02.61-5.67,1.1-12.63,1.1-3.48,0-6.64-.12-8.92-.32-2.28-.2-3.7-.47-3.71-.78h0c0-.15.31-.28.88-.41,1.85-.41,6.41-.7,11.75-.7s9.9.29,11.75.7c.57.12.88.26.88.4Z"/>
          <path class="cls-6" d="M465.58,83.31v7.1c0,.61-5.65,1.1-12.63,1.1s-12.63-.49-12.63-1.1v-7.1h0c.02.61,5.66,1.1,12.63,1.1s12.61-.49,12.63-1.1h0Z"/>
        </g>
        <g>
          <path class="cls-6" d="M465.54,75.39v7.1c0,.14-.31.28-.88.41-1.85-.41-6.41-.7-11.75-.7s-9.9.29-11.75.7c-.57-.13-.88-.26-.88-.41v-7.1c0,.08.09.15.26.22.04.02.09.04.14.05l1.6.32c.11.02.22.03.34.04l1.37.14c.5.04,1.04.08,1.62.12.16,0,.32.02.49.03.35.02.7.04,1.07.05.18,0,.36.02.55.02.47.02.95.04,1.44.05.2,0,.4,0,.6.01.3,0,.61.01.92.02.21,0,.41,0,.63,0,.53,0,1.06,0,1.61,0,6.96,0,12.61-.49,12.63-1.1Z"/>
          <path class="cls-17" d="M465.54,67.45h0c-.02.61-5.67,1.1-12.63,1.1s-12.61-.49-12.63-1.1h0c0-.61,5.67-.79,12.64-.79s12.62.18,12.62.79Z"/>
        </g>
        <g>
          <path class="cls-6" d="M465.54,67.46v7.1c0,.15-.33.29-.93.41-1.88.4-6.41.69-11.7.69s-9.82-.28-11.7-.69c-.6-.13-.93-.27-.93-.41v-7.1c.02.61,5.67,1.1,12.63,1.1s12.61-.49,12.63-1.1Z"/>
          <path class="cls-13" d="M465.54,75.39h0c-.02.61-5.67,1.1-12.63,1.1-.54,0-1.08,0-1.61,0-.21,0-.42,0-.63,0-.31,0-.62,0-.92-.02-.2,0-.4,0-.6-.01-.49-.01-.97-.03-1.44-.05-.19,0-.37-.02-.55-.02-.37-.02-.72-.03-1.07-.05-.17,0-.33-.02-.49-.03-.58-.04-1.12-.08-1.62-.12l-1.37-.14c-.12-.02-.23-.03-.34-.04l-1.6-.32c-.05-.02-.1-.04-.14-.05-.17-.07-.26-.15-.26-.22h0c0-.15.33-.29.93-.42,1.88.4,6.41.69,11.7.69s9.82-.28,11.7-.69c.6.13.93.27.93.41Z"/>
        </g>
        <path class="cls-6" d="M464.66,82.9c-1.85.41-6.41.7-11.75.7s-9.9-.29-11.75-.7c1.85-.41,6.41-.7,11.75-.7s9.9.29,11.75.7Z"/>
      </g>
      <g>
        <path class="cls-12" d="M445.45,109.96v7.1c0,.61-5.66,1.1-12.63,1.1s-12.63-.49-12.63-1.1v-7.1c0-.15.33-.29.94-.42-.66-.13-1.03-.28-1.03-.43v-7.1c0-.14.31-.28.88-.4-.57-.13-.88-.26-.88-.41v-7.1c0-.15.33-.29.93-.41-.6-.13-.93-.27-.93-.41v-7.1c0-.61,5.67-.79,12.64-.79s12.62.18,12.62.79v7.1c0,.15-.33.29-.93.41.6.13.93.27.93.41v7.1c0,.14-.31.28-.88.41.57.12.88.26.88.4v7.1c0,.15-.33.29-.94.42.66.13,1.03.28,1.03.43h0s0,0,0,0Z"/>
        <g>
          <path class="cls-6" d="M444.71,110.52v7.1c0,.61-5.65,1.1-12.63,1.1s-12.63-.49-12.63-1.1v-7.1h0c.02.61,5.66,1.1,12.63,1.1s12.61-.49,12.63-1.1h0Z"/>
          <path class="cls-13" d="M444.71,110.52h0c-.02.61-5.66,1.1-12.63,1.1s-12.61-.49-12.63-1.1h0c0-.61,5.65-1.11,12.63-1.11s12.63.49,12.63,1.1Z"/>
        </g>
        <g>
          <path class="cls-6" d="M444.62,102.56v7.1c0,.61-5.65,1.1-12.63,1.1s-12.63-.49-12.63-1.1v-7.1h0c.02.61,5.66,1.1,12.63,1.1s12.61-.49,12.63-1.1h0Z"/>
          <path class="cls-13" d="M444.62,102.56h0c-.02.61-5.67,1.1-12.63,1.1-3.48,0-6.64-.12-8.92-.32-2.28-.2-3.7-.47-3.71-.78h0c0-.15.31-.28.88-.41,1.85-.41,6.41-.7,11.75-.7s9.9.29,11.75.7c.57.12.88.26.88.4Z"/>
          <path class="cls-6" d="M443.74,102.16c-1.85.41-6.41.7-11.75.7s-9.9-.29-11.75-.7c1.85-.41,6.41-.7,11.75-.7s9.9.29,11.75.7Z"/>
        </g>
        <g>
          <path class="cls-6" d="M444.62,86.72v7.1c0,.15-.33.29-.93.41-1.88.4-6.41.69-11.7.69s-9.82-.28-11.7-.69c-.6-.13-.93-.27-.93-.41v-7.1c.02.61,5.67,1.1,12.63,1.1s12.61-.49,12.63-1.1Z"/>
          <path class="cls-17" d="M444.62,86.71h0c-.02.61-5.67,1.1-12.63,1.1s-12.61-.49-12.63-1.1h0c0-.61,5.67-.79,12.64-.79s12.62.18,12.62.79Z"/>
        </g>
        <g>
          <path class="cls-6" d="M444.62,94.65v7.1c0,.14-.31.28-.88.41-1.85-.41-6.41-.7-11.75-.7s-9.9.29-11.75.7c-.57-.13-.88-.26-.88-.41v-7.1c0,.08.09.15.26.22.04.02.09.04.14.05l1.6.32c.11.02.22.03.34.04l1.37.14c.5.04,1.04.08,1.62.12.16,0,.32.02.49.03.35.02.7.04,1.07.05.18,0,.36.02.55.02.47.02.95.04,1.44.05.2,0,.4,0,.6.01.3,0,.61.01.92.02.21,0,.41,0,.63,0,.53,0,1.06,0,1.61,0,6.96,0,12.61-.49,12.63-1.1Z"/>
          <path class="cls-13" d="M444.62,94.65h0c-.02.61-5.67,1.1-12.63,1.1-.54,0-1.08,0-1.61,0-.21,0-.42,0-.63,0-.31,0-.62,0-.92-.02-.2,0-.4,0-.6-.01-.49-.01-.97-.03-1.44-.05-.19,0-.37-.02-.55-.02-.37-.02-.72-.03-1.07-.05-.17,0-.33-.02-.49-.03-.58-.04-1.12-.08-1.62-.12l-1.37-.14c-.12-.02-.23-.03-.34-.04l-1.6-.32c-.05-.02-.1-.04-.14-.05-.17-.07-.26-.15-.26-.22h0c0-.15.33-.29.93-.42,1.88.4,6.41.69,11.7.69s9.82-.28,11.7-.69c.6.13.93.27.93.41Z"/>
        </g>
      </g>
      <g>
        <path class="cls-12" d="M482.8,102.11c2.73,5.84,1.74,12.07-2.22,13.93-.09.04-.19.09-.28.12-1.14.46-2.38.51-3.64.22-3.1-.71-6.3-3.5-8.2-7.56-1.9-4.05-2-8.3-.56-11.14.58-1.15,1.42-2.07,2.5-2.65.09-.05.18-.1.27-.14,3.96-1.85,9.39,1.37,12.12,7.21Z"/>
        <path class="cls-6" d="M468.07,109.22c1.9,4.05,5.1,6.85,8.2,7.56,1.26.29,2.51.23,3.64-.22h0s-6.42,3.02-6.42,3.02c-.13.06-.27.12-.41.17,0,0-.59.22-1.23.3-.68.09-6.72-1.79-9.7-8.61-2.8-6.41-.45-11.62.02-12.05.47-.44,1.01-.75,1.01-.75.13-.07.26-.14.4-.21l6.42-3.01h0c-1.08.59-1.92,1.51-2.5,2.66-1.44,2.83-1.34,7.08.56,11.14Z"/>
        <path class="cls-13" d="M482.41,102.5c2.73,5.84,1.74,12.07-2.22,13.93-.09.04-.19.09-.28.12-1.14.46-2.38.51-3.64.22-3.1-.71-6.3-3.5-8.2-7.56-1.9-4.05-2-8.3-.56-11.14.58-1.15,1.42-2.07,2.5-2.65.09-.05.18-.1.27-.14,3.96-1.85,9.39,1.37,12.12,7.21Z"/>
      </g>
    </g>
    <g id="Lupe">
      <path class="cls-1" d="M377.69,113.43c-.08,1.55-.68,3.07-1.8,4.3-2.58,2.83-6.96,3.02-9.78.44-.21-.19-.4-.38-.58-.59-.22-.26-.42-.53-.6-.81-.54-.86-.88-1.81-1.01-2.79-.02-.18-.04-.36-.05-.54h0c-.01-.12-.01-.23-.01-.34,0-.96.19-1.92.58-2.81.13-.3.28-.58.45-.86.22-.36.48-.71.78-1.03.76-.84,1.68-1.44,2.67-1.81,1.37-.52,2.88-.59,4.29-.2,1.02.29,1.99.81,2.82,1.57,1.59,1.45,2.35,3.48,2.24,5.47Z"/>
      <path class="cls-6" d="M380.35,120.03l-.32.35-1.95-1.78-.48-.45c.16-.21.3-.42.44-.64.02-.04.05-.09.08-.13.47-.8.79-1.66.98-2.54.44-2.06.1-4.24-.98-6.09-.16-.26-.33-.51-.51-.76-.32-.43-.68-.83-1.09-1.2-2.91-2.67-7.18-2.92-10.35-.88-.37.24-.73.52-1.07.82-.21.19-.41.38-.6.59-.59.65-1.06,1.36-1.42,2.11-.14.31-.27.62-.37.93-.17.51-.29,1.03-.36,1.56-.06.39-.08.78-.08,1.18,0,.32.02.64.06.95.11.94.37,1.86.79,2.72.14.3.31.6.5.9.39.6.86,1.17,1.42,1.68.46.42.96.78,1.48,1.08.5.29,1.03.53,1.56.71,2,.66,4.18.57,6.11-.28.81-.35,1.58-.84,2.27-1.46l1.73,1.59.7.64-.32.35,12.59,11.51,1.78-1.95-12.59-11.51ZM366.11,118.17c-.21-.19-.4-.38-.58-.59-.22-.26-.42-.53-.6-.81-.54-.86-.88-1.81-1.01-2.79-.02-.18-.04-.36-.05-.54h0c-.01-.12-.01-.23-.01-.34,0-.96.19-1.92.58-2.81.13-.3.28-.58.45-.86.22-.36.48-.71.78-1.03.76-.84,1.68-1.44,2.67-1.81,1.37-.52,2.88-.59,4.29-.2,1.02.29,1.99.81,2.82,1.57,1.59,1.45,2.35,3.48,2.24,5.47-.08,1.55-.68,3.07-1.8,4.3-2.58,2.83-6.96,3.02-9.78.44Z"/>
    </g>
  </g>
  <g id="Person">
    <g id="Körper">
      <path class="cls-11" d="M418.25,572.14h-44.44c-.19-.83-.38-1.65-.57-2.46-5.43-23.54-10.86-47.07-16.31-70.6-.95-4.14-1.91-8.27-2.87-12.4-.26-.16-.51-.34-.72-.56h-7.14c-.57,4.06-1.14,8.11-1.71,12.16-2.48,17.64-4.95,35.28-7.43,52.93-.87,6.16-1.73,12.31-2.6,18.47-.11.82-.23,1.64-.34,2.46h-44.86c-.04-.78-.07-1.6-.09-2.46-.25-7.34-.43-17.44-.19-28.8.18-8.56.6-17.83,1.42-27.16.21-2.39.45-4.78.7-7.16.31-2.71.64-5.42,1.02-8.1.23-1.61.46-3.23.72-4.82.71-4.35,1.52-8.61,2.48-12.71,2.31-9.99,5.42-19.01,9.56-26.02,0,0,.52-.86.93-1.76v-.03c.17-.18.3-.35.49-.52l-.13-.11,21.53-33.62c-8.07-27.58-16.15-55.15-24.22-82.73,12.63-3.25,27.3-6.2,43.72-8.07,15.33-1.74,29.35-2.22,41.7-2.02-3.59,30.94-7.18,61.88-10.76,92.82,5.59,11.19,11.2,22.38,16.79,33.58l.03.03c.14.21.3.43.42.67.27.43.61.98.97,1.55,3.86,6.14,10.21,21.03,15.11,46.56,3.32,17.41,5.98,39.74,6.71,67.6.01.27.01.54.02.82.01.79.03,1.62.06,2.46Z"/>
      <g id="Ame">
        <path class="cls-11" d="M309.02,513.02c2.92,4.37,8.07,5.24,6.75,7.85-.96,1.92-8.66-.34-13.59-4.6-4.38-3.8-7.83-10.23-6.72-16.3.01-.06.02-.11.04-.16-6.47-10.16-12.97-20.95-19.43-32.38-6.53-11.56-5.38-10.6-8.87-16.19-3.53-5.66-6.21-11.8-9.36-17.68-.2-.38-.55-1.14-.82-2.22-.21-.81-.32-1.62-.32-2.43-.17-.99-.22-2.03-.1-3.09.11-.97.34-1.89.71-2.75,0,0,.09-.24.12-.36,10.59-25.32,21.21-50.59,31.82-75.91.15-.31.29-.67.41-.98.04-.06.04-.12.09-.18,2.62-5.42,8.46-8.85,14.77-8.14,8.05.89,13.8,8.14,12.9,16.15-.22,1.96-.82,3.79-1.71,5.43h-.03s0,.06-.03.12c-12.28,22.96-24.56,45.93-36.87,68.91,4.56,10.36,9.08,21.19,13.49,32.5,4.91,12.56,9.34,24.75,13.34,36.55.53.37,1.1.77,1.71,1.19,1.95,1.33,2.22,1.44,3.19,2.2,2.34,1.82,3.9,3.41,4.85,4.5.73.82,1.53,1.83,1.26,2.81-.07.29-.25.57-.55.84-1.05.91-4.05-.14-6.76-1.63-1.27-.69-1.84,3.64-.29,5.97Z"/>
        <path class="cls-11" d="M514.62,266.8c-1.94,2.27-3.99,3.72-5.5,4.61-7.67,18.39-15.34,36.79-23.01,55.19-.09.22-.18.43-.27.65h0c-.01.07-.03.14-.05.2-.97,2.24-2.68,4.05-4.8,5.15-.52.29-1.06.52-1.62.71-.35.11-.72.19-1.07.27-.1.05-.22.07-.31.09-26.32,7.2-52.63,14.38-78.91,21.56-.06.02-.09.02-.12.02v.03c-1.8.49-3.72.67-5.68.45-8.01-.91-13.79-8.13-12.87-16.18.71-6.3,5.37-11.24,11.23-12.58.06-.03.12-.02.19-.04.34-.06.71-.11,1.06-.19,25.64-4.47,51.25-8.94,76.89-13.38,4.46-7.83,9.18-15.79,14.17-23.83,5.44-8.76,10.91-17.18,16.37-25.23.01-.74.05-1.55.12-2.4.04-.41.16-1.71.46-3.4.73-4.13,1.7-5.92,2.08-6.57.07-.12.2-.33.45-.74.83-1.32,2.13-3.39,3.95-5.99,3.87-5.55,4.88-6.05,5.72-5.98.2.02.69.1,1.06.46,1.06,1.02.26,3.41-.12,4.53-1.51,4.38-3.95,6.68-3.41,6.87,1.29.45,2.93.32,5.49,2.14.16.11,2.64,1.93,3.06,4.81.47,3.27-2.09,5.88-4.55,8.77Z"/>
      </g>
    </g>
    <g id="Kopf">
      <g id="Kopf-2" data-name="Kopf">
        <path class="cls-11" d="M381.18,283.13v2.3c0,3.37-2.76,6.13-6.14,6.13-.58,0-1.15-.08-1.68-.24-2.73,7.2-8,12.83-14.46,16.17.16.75.25,1.52.25,2.32v23.04c0,5.96-4.87,10.83-10.82,10.83s-10.82-4.87-10.82-10.83v-22.87c-.4-.1-.8-.21-1.2-.33-11.94-3.56-19.35-15.27-17.96-27.26-1.82-1.36-2.81-3.67-2.38-6.04l.42-2.26c.51-2.77,2.84-4.77,5.52-5l1.9-6.38c3.6-12.06,14.75-19.91,26.76-19.91,2.62,0,5.28.38,7.91,1.16,14.32,4.27,22.69,19.2,19.05,33.56,2.15.96,3.65,3.11,3.65,5.61Z"/>
      </g>
      <g id="Schatten">
        <path class="cls-18" d="M358.9,307.49c-1.7.88-3.97,1.86-6.76,2.54-3.26.8-6.12.93-8.24.86,5.07,4.02,10.14,8.05,15.22,12.07,0-1.95,0-3.92-.02-5.92-.03-3.24-.1-6.43-.2-9.56Z"/>
      </g>
      <g id="Haare">
        <path class="cls-2" d="M364.8,314.31c.37.42,2.35,2.62,5.64,2.8,4.17.22,6.7-3.05,6.9-3.32,4.79.29,8.62-2.98,8.95-6.65.23-2.54-1.23-5.12-3.61-6.73,4.91-.21,9-3.86,9.75-8.61.78-4.95-2.26-9.85-7.14-11.37,4.17-.66,7.28-4.25,7.32-8.44.05-4.12-2.88-7.74-6.95-8.57,2.06-3.79,1.93-8.35-.39-11.76-2.79-4.1-8.28-5.86-13.29-4.09-.02-.5-.46-7.64-6.65-11.25-4.64-2.7-10.6-2.31-15.08,1.02-2.23-2.59-5.72-3.69-8.95-2.81-3.54.97-6.13,4.16-6.39,7.93-.7-.13-8.89-1.47-14.83,4.6-4.94,5.05-4.66,11.47-4.6,12.53-4.04,1.89-6.78,5.8-7.16,10.23-.39,4.56,1.78,8.99,5.62,11.5-3.32,1.56-5.5,4.83-5.62,8.44-.13,3.92,2.2,7.59,5.88,9.2-2.91,1.91-3.93,5.59-2.56,8.44,1.15,2.39,3.82,3.84,6.65,3.58.61,2.43,2.53,4.31,4.94,4.83,2.59.57,5.31-.54,6.82-2.78.89,1.18,2.25,2.59,3.85,2.54,1.56-.06,2.25-1.46,3.31-2.28,5.12-3.98,16.64,7.16,24.75,3.27.78-.37,1.81-1.02,2.86-2.23Z"/>
      </g>
    </g>
    <g id="Hose">
      <path class="cls-12" d="M350.43,418.54v74.63c.46,1.86.93,3.72,1.39,5.59,5.59,22.67,10.93,46.33,15.91,70.91.17.82.32,1.65.49,2.46h55.65c-.08-.81-.16-1.64-.24-2.46-.18-1.92-.36-3.89-.55-5.88-2.82-29.86-4.76-48.43-7.11-62.42-2.01-11.83-4.3-20.37-7.68-29.7-3.06-8.39-6.5-16.02-10.04-22.86-6.12-11.82-12.53-21.3-17.85-28.37-.47-.63-.94-1.23-1.39-1.83h-.84c-9.24-.03-18.49-.03-27.73-.07Z"/>
      <path class="cls-20" d="M282.59,572.14h58.63c.07-.83.15-1.65.22-2.46,2.31-24.56,5.09-48.25,8.23-71.05.25-1.83.5-3.64.76-5.45v-74.63c-7.59,0-15.22-.02-22.84-.02h-.71c-.46.56-.92,1.11-1.37,1.66-1.27,1.52-2.48,3.04-3.65,4.55-1.21,1.56-2.39,3.11-3.53,4.66-4.37,5.91-8.14,11.68-11.44,17.26-5.88,9.98-10.17,19.33-13.31,27.74-2.61,6.94-4.45,13.26-5.77,18.76-.1.43-.2.84-.29,1.24-.11.5-.22,1-.34,1.48-1.51,6.84-2.45,14.45-3.1,23.94-.49,7.31-.8,15.77-1.03,25.87h0c-.17,7.12-.3,15.05-.44,23.99-.02.82-.03,1.64-.04,2.46Z"/>
    </g>
    <g id="Oberteil">
      <path class="cls-9" d="M426.61,357.02c-5.91,1.07-12.46,1.99-19.55,2.57-7.14.59-13.78.75-19.83.65-.09,1.91-.25,4.84-.46,8.44-.15,2.55-.29,4.85-.42,6.91-.15,2.15-.42,6.34-.73,12.17-.57,10.8-.91,21.26-1.06,31.36-7.13,2.43-18.14,5.22-31.76,5.13-.79,0-1.58-.03-2.37-.06v-89.8c9.83-2.27,15.63-8.55,16.99-10.1,3.29-.29,6.84-.48,10.62-.52,3.79-.04,7.36.08,10.67.31,5.14-1.11,10.5-2.17,16.06-3.13,5.91-1.03,11.64-1.88,17.15-2.59-.5,5.07-.68,11.4.11,18.61.89,8.09,2.75,14.87,4.58,20.05Z"/>
      <path class="cls-3" d="M350.43,334.39v89.8c-12.31-.36-22.26-3-28.91-5.31-1.06-5.04-2.21-10.19-3.43-15.41,0,0-2.18-9.34-4.64-18.63-.7-2.64-1.43-5.33-2.19-8.02l-8.96,14.55c-3.31-3.41-8.02-7.59-14.29-11.44-6.16-3.78-11.92-6.07-16.4-7.48.89.28,12.14-19.7,13.34-21.65,3.46-5.62,6.72-13.15,12.87-16.32,3.77-1.95,8.11-2.32,12.22-3.12,2.17-.42,4.33-.9,6.49-1.35,1.01-.21,6.28-2,7-1.46,1.82,1.39,10.53,7.76,22.97,6.52,1.39-.15,2.7-.36,3.94-.67Z"/>
    </g>
  </g>
</svg>