<?xml version="1.0" encoding="UTF-8"?>
<svg id="_0041_THK_Forschungsarbeit" data-name="0041_THK_Forschungsarbeit" xmlns="http://www.w3.org/2000/svg" viewBox="0 0 488.45 529.31">
  <defs>
    <style>
      .cls-1 {
        fill: #a5678d;
      }

      .cls-1, .cls-2, .cls-3, .cls-4, .cls-5, .cls-6, .cls-7, .cls-8, .cls-9, .cls-10, .cls-11, .cls-12, .cls-13, .cls-14, .cls-15, .cls-16, .cls-17, .cls-18, .cls-19, .cls-20, .cls-21, .cls-22, .cls-23, .cls-24 {
        stroke-width: 0px;
      }

      .cls-2 {
        fill: #308fc9;
      }

      .cls-3 {
        fill: #eee;
        opacity: .8;
      }

      .cls-4 {
        fill: #2c8ec8;
      }

      .cls-5 {
        fill: #64abd6;
      }

      .cls-6 {
        fill: #e6710a;
      }

      .cls-25 {
        fill: #b9ddf3;
        stroke: #64abd6;
        stroke-width: .25px;
      }

      .cls-25, .cls-26 {
        stroke-miterlimit: 10;
      }

      .cls-7 {
        fill: #c39ab3;
      }

      .cls-8 {
        fill: #000;
      }

      .cls-9 {
        fill: #73bbe7;
      }

      .cls-10 {
        fill: #dcbd92;
      }

      .cls-11 {
        fill: #96cced;
      }

      .cls-12 {
        fill: #b47d49;
      }

      .cls-13 {
        fill: #236289;
      }

      .cls-14 {
        fill: #b9ddf3;
      }

      .cls-15 {
        fill: #f3ebf0;
      }

      .cls-16 {
        fill: #ec9447;
      }

      .cls-17 {
        fill: #efa360;
      }

      .cls-26 {
        fill: none;
        stroke: #73bbe7;
        stroke-width: 2.5px;
      }

      .cls-18 {
        fill: #603813;
      }

      .cls-19 {
        fill: #ccc;
      }

      .cls-20 {
        fill: #cbe3f1;
      }

      .cls-21 {
        fill: #f9dbc2;
      }

      .cls-22 {
        fill: #fff;
      }

      .cls-23 {
        fill: #e1ccd9;
      }

      .cls-24 {
        fill: #f2b885;
      }
    </style>
  </defs>
  <g id="Stuhl">
    <path class="cls-24" d="M124.5,309.71v50.35h-17.66v-50.35c0-.4.03-.79.08-1.18h17.5c.05.39.08.78.08,1.18Z"/>
    <rect class="cls-24" x="106.84" y="417.78" width="17.66" height="70.33"/>
    <path class="cls-16" d="M186.34,200.84v101.78c0,3.25-2.66,5.91-5.92,5.91H50.92c-3.26,0-5.92-2.66-5.92-5.91v-101.78c0-3.25,2.66-5.91,5.92-5.91h129.5c3.26,0,5.92,2.66,5.92,5.91Z"/>
    <path class="cls-16" d="M201.95,364.46v20.8c0,2.43-1.97,4.4-4.4,4.4h-30.08c-.47,3.02-1.89,5.72-3.95,7.78-2.54,2.54-6.05,4.11-9.92,4.11h-25.83v16.23h-24.2v-16.23h-25.83c-7.01,0-12.82-5.16-13.86-11.89h-30.09c-2.43,0-4.4-1.97-4.4-4.4v-20.8c0-2.43,1.97-4.4,4.4-4.4h163.76c2.43,0,4.4,1.97,4.4,4.4Z"/>
    <path class="cls-16" d="M186.2,513.29v-8.88c.09-.26.14-.54.14-.83v-6.74c0-1.39-1.12-2.51-2.51-2.51h-56.06v-6.22h-24.2v6.22h-56.06c-1.38,0-2.51,1.12-2.51,2.51v16.45c-2.65,1.4-4.45,4.19-4.45,7.4,0,4.62,3.75,8.38,8.38,8.38s8.38-3.76,8.38-8.38c0-3.21-1.8-6-4.45-7.4v-7.2h21.43v7.2c-2.65,1.4-4.45,4.19-4.45,7.4,0,4.62,3.75,8.38,8.38,8.38s8.38-3.76,8.38-8.38c0-3.21-1.8-5.99-4.45-7.4v-7.2h21.42v6.22h24.2v-6.22h21.29v7.2c-2.65,1.4-4.45,4.19-4.45,7.4,0,4.62,3.75,8.38,8.38,8.38s8.37-3.76,8.37-8.38c0-3.21-1.8-6-4.45-7.4v-7.2h21.43v7.2c-2.65,1.4-4.45,4.19-4.45,7.4,0,4.62,3.75,8.38,8.38,8.38s8.38-3.76,8.38-8.38c0-3.21-1.8-6-4.45-7.4ZM54.5,520.69c0,3.07-2.49,5.57-5.57,5.57s-5.57-2.5-5.57-5.57c0-1.64.71-3.12,1.84-4.13.99-.9,2.29-1.44,3.73-1.44s2.74.54,3.73,1.44c1.13,1.01,1.84,2.49,1.84,4.13ZM83.79,520.69c0,3.07-2.5,5.57-5.57,5.57s-5.57-2.5-5.57-5.57c0-1.63.7-3.09,1.81-4.11.99-.91,2.31-1.46,3.76-1.46s2.76.55,3.75,1.46c1.12,1.01,1.82,2.48,1.82,4.11ZM158.56,520.69c0,3.07-2.5,5.57-5.57,5.57s-5.58-2.5-5.58-5.57c0-1.63.7-3.09,1.82-4.11.98-.91,2.31-1.46,3.76-1.46s2.76.55,3.75,1.46c1.12,1.01,1.82,2.48,1.82,4.11ZM182.27,526.26c-3.08,0-5.57-2.5-5.57-5.57,0-1.64.71-3.12,1.84-4.13.99-.9,2.29-1.44,3.73-1.44s2.74.54,3.73,1.44c1.13,1.01,1.84,2.49,1.84,4.13,0,3.07-2.49,5.57-5.57,5.57Z"/>
    <path class="cls-6" d="M187.84,520.69c0,3.07-2.49,5.57-5.57,5.57s-5.57-2.5-5.57-5.57c0-1.64.71-3.12,1.84-4.13.99-.9,2.29-1.44,3.73-1.44s2.74.54,3.73,1.44c1.13,1.01,1.84,2.49,1.84,4.13Z"/>
    <path class="cls-6" d="M158.56,520.69c0,3.07-2.5,5.57-5.57,5.57s-5.58-2.5-5.58-5.57c0-1.63.7-3.09,1.82-4.11.98-.91,2.31-1.46,3.76-1.46s2.76.55,3.75,1.46c1.12,1.01,1.82,2.48,1.82,4.11Z"/>
    <path class="cls-6" d="M83.79,520.69c0,3.07-2.5,5.57-5.57,5.57s-5.57-2.5-5.57-5.57c0-1.63.7-3.09,1.81-4.11.99-.91,2.31-1.46,3.76-1.46s2.76.55,3.75,1.46c1.12,1.01,1.82,2.48,1.82,4.11Z"/>
    <path class="cls-6" d="M54.5,520.69c0,3.07-2.49,5.57-5.57,5.57s-5.57-2.5-5.57-5.57c0-1.64.71-3.12,1.84-4.13.99-.9,2.29-1.44,3.73-1.44s2.74.54,3.73,1.44c1.13,1.01,1.84,2.49,1.84,4.13Z"/>
  </g>
  <g id="Person">
    <g id="Haare">
      <path class="cls-18" d="M132.3,90.04c2.16-1.73,5.75-4.02,10.41-4.39,10.93-.85,19.34,9.58,20.74,11.37,7.9,10.15,6.67,21.28,14.35,24.21,1.07.41,4.88,1.64,4.76,2.84-.08.85-2.08.87-2.35,1.94-.37,1.48,3.16,2.62,5.09,5.61,2.17,3.35,1.31,7.48,1.02,8.88-.39,1.87-1.24,4.02-8.42,11.66-6.86,7.3-8.97,8.42-9.31,11.79-.33,3.27,1.28,6.14,0,6.97-1.27.83-3.56-1.54-5.87-.41-.58.28-.47.45-1.71,1.45-1.3,1.05-2.77,1.96-3.52,2.27-2.74,1.15-5.01-1.83-10.03-3.04-2.48-.6-4.27-.55-7.76-.44-4.99.15-9.2.27-13.64,2.48-3.28,1.64-4.62,3.4-6.77,2.84-1.71-.45-1.58-1.75-3.76-3.38-3.92-2.94-8.77-2.08-8.94-3.41-.06-.49.7-.6,1.19-1.67.86-1.88-.32-4.1-.58-4.58-.89-1.68-2.17-2.5-3.97-3.7-7.42-4.92-7.97-5.67-8.14-6.53-.44-2.18,1.94-3.02,2.73-5.88,1.4-5.09-4.56-8.08-6.23-13.72-2.24-7.61,6.11-10.59,18.77-33.23,3.21-5.74,5.38-10.39,10.43-11.88,4.47-1.32,8.88.52,11.5,1.96Z"/>
    </g>
    <g id="Arm_Rechts" data-name="Arm Rechts">
      <path class="cls-10" d="M301.19,254.25c-5.19,3.03-9.94,4.06-11.79,4.29-1.3.15-2.53.21-3.67.18-.01,0-.01,0-.01,0-.73.13-1.5.16-2.27.06-20.43,7.42-40.86,14.84-61.29,22.26-2.83.95-4.99.64-6.07.39-.04,0-.09-.02-.13-.03-4.77-1.04-8.33-5.34-9.76-7.9-.31-.56-.53-1.05-.67-1.4-12.15-22.53-24.29-45.07-36.43-67.61.02,0,.02-.02.05-.02-.86-1.84-1.35-3.83-1.35-5.96,0-8.36,7.38-15.13,16.5-15.13,7.2,0,13.29,4.2,15.54,10.07.03,0,.03-.02.05-.02,8.15,21.12,16.29,42.23,24.42,63.36,17.68-3.81,35.35-7.62,53.03-11.43,3-2.52,5.31-4.57,6.97-6.09,0,0,2.17-2.1,7-4.63,1.23-.64,2.72-1.33,3.85-.7.33.18.63.48.86.94.8,1.56-1.4,4.93-4.04,7.84-1.24,1.36,3.93,3.34,7.26,2.14,6.27-2.27,8.88-8.36,11.7-5.96,3.33,2.84-2.1,10.9-9.75,15.35Z"/>
      <path class="cls-11" d="M184.78,179.39h4.8c10.72,0,19.42,8.7,19.42,19.42v36.82h-43.64v-36.82c0-10.72,8.7-19.42,19.42-19.42Z" transform="translate(-67.85 93.24) rotate(-23.81)"/>
    </g>
    <g id="Köprer">
      <path class="cls-10" d="M215.33,521.76c-.91-.16-9.33-1.69-10.59-7.29-.37-1.68-.01-3.24.51-4.47.6-1.43.73-3,.33-4.51-3.92-14.8-7.46-31.39-9.99-49.58-3.45-24.78-4.31-47.31-3.86-66.85-10.02-1.34-20.8-3.26-32.16-6.03-6.21-1.52-17.18-5.16-38.85-12.37-25.62-8.53-28.93-9.89-31.76-14.47-8.88-14.34-.59-29.37,2.32-43.96,3.23-16.11,4.32-33.28,5.53-49.67,2.2-29.76,2.03-57.02.61-81.16,10.67-2.89,25.27-5.69,42.7-5.72,17.69-.03,32.49,2.81,43.27,5.72-1,21.69-.7,46.77,2.27,74.42,2.14,19.88,5.33,38.04,8.96,54.28-.37.03-.79.06-1.25.1-.7.05-1.5.11-2.38.18-.88.07-1.84.14-2.87.22-8.57.49-17.56,1.12-26.78,1.79-.11.01-.21.01-.31.02-.1.01-.2.01-.28.02-.26.02-.54.03-.81.05-8.61.51-23.34,1.52-50.27,3.62.35.09.86.23,1.48.4,18.61,5.12,34.33,10.03,46.48,14.02,1.43.47,2.82.92,4.15,1.37,3.25,1.08,6.32,2.13,9.21,3.14.57.2,1.13.39,1.68.59.48.17.96.34,1.43.5,1.7.6,3.34,1.19,4.91,1.76.4.15.8.29,1.2.44,2.36.86,4.58,1.7,6.67,2.52.7.27,1.38.54,2.04.8.06.02.11.05.17.07,1.81.72,3.51,1.43,5.11,2.12.11.04.23.09.34.14.36.16.72.31,1.07.47.71.32,1.39.62,2.06.92.33.15.66.3.98.45.02.01.03.02.05.03.5.24.99.47,1.46.69.06.03.12.06.18.09.27.13.53.26.79.39.51.25,1.01.51,1.5.76.25.13.49.25.73.38.08.04.17.09.25.13.15.08.3.16.45.24s.3.17.45.25c.3.16.6.32.89.49.28.16.56.32.82.47.26.15.51.3.76.46,7.59,4.58,10.67,8.71,12.1,13.62.39,1.32.71,2.88.89,4.58.24,1,.47,2.05.69,3.16.25,1.27.48,2.55.7,3.83.22,1.28.43,2.56.62,3.84,3.92,25.99,5.07,52.69,5.88,78.93.5,16.13.56,31.72.27,46.71-.02,1.28.32,2.53,1.01,3.64.29.47.64.99,1.02,1.53,2.14,2.99,3.18,3.26,3.31,4.23.41,3.09-8.95,9.17-18.14,7.5Z"/>
      <path class="cls-10" d="M305.53,517.52c-.57,4.26-11.09,6.82-19.35,5.37-3.33-.59-10.87-1.92-12.91-7.88-1.1-3.26-.1-6.49.99-8.69.97-1.98,1.28-4.22.78-6.36-3.58-15.33-6.73-32.47-8.86-51.23-2.64-23.35-3.22-44.76-2.66-63.68-7.85-1.06-17.1-2.84-27.55-4.86-4.82-.93-9.36-1.82-13.86-2.86-.2-.67-.45-1.32-.75-1.95-.22-1.28-.45-2.56-.7-3.83-.22-1.11-.45-2.16-.69-3.16-.18-1.7-.5-3.26-.89-4.58-1.43-4.91-4.51-9.04-12.1-13.62-.25-.16-.5-.31-.76-.46-.26-.15-.54-.31-.82-.47-.29-.17-.59-.33-.89-.49-.15-.08-.3-.17-.45-.25s-.3-.16-.45-.24c-.08-.04-.17-.09-.25-.13-.15-.08-.3-.16-.45-.25-.09-.04-.19-.09-.28-.13-.49-.25-.99-.51-1.5-.76-.26-.13-.52-.26-.79-.39-.06-.03-.12-.06-.18-.09-.47-.23-.96-.46-1.46-.69-.02-.01-.03-.02-.05-.03-.32-.15-.65-.3-.98-.45-.67-.3-1.35-.61-2.06-.92-.35-.16-.71-.31-1.07-.47-.11-.05-.23-.1-.34-.14-1.6-.69-3.3-1.4-5.11-2.12-.06-.02-.11-.05-.17-.07-.66-.26-1.34-.53-2.04-.8-2.09-.82-4.31-1.66-6.67-2.52-.4-.15-.8-.29-1.2-.44-1.57-.57-3.21-1.16-4.91-1.76-.47-.16-.95-.33-1.43-.5-.55-.2-1.11-.39-1.68-.59-2.89-1.01-5.96-2.06-9.21-3.14-1.33-.45-2.72-.9-4.15-1.37-12.15-3.99-27.87-8.9-46.48-14.02-.62-.17-1.13-.31-1.48-.4,26.93-2.1,41.66-3.11,50.27-3.62.27-.02.55-.03.81-.05.08,0,.18,0,.28-.02.1,0,.2,0,.31-.02,9.22-.67,18.21-1.3,26.78-1.79,1.03-.08,1.99-.15,2.87-.22.88-.07,1.68-.13,2.38-.18.46-.04.88-.07,1.25-.1,4.01,1.68,10.22,4.23,17.91,7.16,12.82,4.88,15.69,5.44,23.25,8.95,6.09,2.83,10.53,5.39,18.01,9.7,5.2,3,10.32,6.14,15.36,9.41,4.43,2.88,8.64,6.1,13,9.08,3.51,2.41,7.5,4.35,9.83,8.03,1.15,1.81,2.11,3.77,2.57,5.86.35,1.65.38,3.33.38,5.01-.02,6.18.82,12.38,1.25,18.55.45,6.39.83,12.78,1.15,19.18.66,13.39,1.03,26.8,1.13,40.21.04,5.6.4,13.95-.18,25-.49,9.21-1.38,17.26-2.29,23.77-.63,4.49,1.42,8.88,5.13,11.49,2.51,1.76,4.69,3.92,4.41,6.02Z"/>
    </g>
    <g id="Schuhe">
      <path class="cls-13" d="M318.35,513.65c-7.78-2.23-13.79-5.07-19.91-6.79-.05.03-.1.05-.16.06-.3.12-.61.23-.93.35h-.01c-2.69,1-6.63,2.05-11.43,2.13-5.12.06-9.32-1.04-12.1-2.06h-.01c-.21-.08-.43-.14-.62-.23-.22-.08-.43-.16-.64-.25-.84,1.83-1.76,4.16-2.43,6.9-.71,3.07-.95,5.83-.95,7.95v3.36h66.63v-3.36s-.53-3.17-17.44-8.07Z"/>
      <path class="cls-13" d="M249.36,515.33c-7.78-2.24-13.79-5.09-19.9-6.79-.09.03-.16.05-.25.09-.03.01-.08.03-.12.04-1.35.53-3.07,1.1-5.12,1.57-2.05.45-4.42.79-7.06.84-4.71.04-8.63-.87-11.4-1.82-.4-.12-.77-.26-1.12-.39-.3-.12-.58-.23-.86-.34-.84,1.82-1.75,4.15-2.43,6.9-.71,3.06-.95,5.83-.95,7.94v3.36h66.63v-3.36s-.53-3.17-17.44-8.06Z"/>
    </g>
    <g id="Gesicht">
      <g id="Kopf">
        <path class="cls-10" d="M169.01,132.93c1.38,11.91-5.97,23.53-17.83,27.07h-.01c-.39.12-.78.23-1.18.33v22.71c0,5.91-4.84,10.75-10.75,10.75s-10.75-4.84-10.75-10.75v-22.88c0-.79.09-1.57.25-2.31-6.42-3.31-11.65-8.91-14.35-16.05-.53.16-1.1.24-1.68.24-3.35,0-6.09-2.74-6.09-6.09v-2.29c0-2.48,1.5-4.62,3.63-5.57-3.62-14.26,4.7-29.08,18.91-33.32,2.61-.78,5.25-1.15,7.85-1.15,11.93,0,23.01,7.79,26.57,19.77l1.89,6.33c2.67.23,4.98,2.21,5.48,4.97l.42,2.24c.44,2.35-.56,4.65-2.36,6Z"/>
      </g>
      <g id="Schatten">
        <path class="cls-12" d="M150.03,160.32c-1.79.46-4.12.89-6.87.95-3.24.06-5.97-.42-7.95-.92,4.93,4.37,9.86,8.74,14.79,13.11-.02-1.94-.02-3.9-.02-5.88,0-2.44.02-4.86.05-7.25Z"/>
        <path class="cls-12" d="M111.44,132.02c-.43,0-1.04,1.74-.57,3.32.34,1.13,1.25,2.27,1.62,2.12.71-.29-.31-5.44-1.05-5.44Z"/>
      </g>
      <g id="Augen">
        <rect class="cls-8" x="131.31" y="121.26" width="4.42" height="5.19" rx="2.21" ry="2.21" transform="translate(-18.56 23.65) rotate(-9.47)"/>
        <rect class="cls-8" x="152.71" y="117.69" width="4.42" height="5.19" rx="2.21" ry="2.21" transform="translate(-17.68 27.13) rotate(-9.47)"/>
      </g>
      <g id="Nase">
        <path class="cls-8" d="M147.05,138.6c-.53,0-1.07-.1-1.62-.29-.06-.02-.1-.09-.08-.16.02-.06.09-.1.16-.08,1.14.4,2.29.36,3.17-.12.48-.26.81-.63.9-1.01.22-.94-.24-1.77-1.41-2.53l-.15-.1c-.59-.39-1.48-.97-2.06-2.08-.2-.39-.35-.99-.45-1.39l-.04-.18c-.08-.49-.16-.89-.23-1.28-.08-.4-.15-.8-.23-1.28-.01-.07.03-.13.1-.14.07-.01.13.03.14.1.08.48.15.88.23,1.27.08.4.15.8.23,1.28l.04.17c.1.39.24.98.43,1.33.54,1.06,1.4,1.62,1.97,1.99l.15.1c1.27.82,1.77,1.74,1.52,2.8-.11.45-.48.88-1.03,1.18-.52.28-1.12.42-1.76.42Z"/>
      </g>
      <g id="Mund">
        <path class="cls-22" d="M139.17,144.49c.07.3,1.16,4.5,5.05,5.83,3.41,1.17,7.48-.37,9.61-3.87-1.62.5-4.82,1.23-8.72.44-2.67-.54-4.68-1.6-5.95-2.4Z"/>
      </g>
      <g id="Augenbrauen">
        <path class="cls-18" d="M149.92,116.46c.63-.56,1.84-1.48,3.62-1.98,2.23-.63,4.11-.26,4.95-.04,1.13-.95,1.29-1.55,1.2-1.93-.34-1.33-4.26-1.93-7.42-.86-2.13.72-4.56,2.43-4.28,3.62.15.61.99.98,1.93,1.2Z"/>
        <path class="cls-18" d="M127.35,120.96c.56-.63,1.64-1.7,3.34-2.43,2.13-.91,4.04-.78,4.9-.67,1-1.09,1.09-1.7.94-2.07-.51-1.28-4.48-1.37-7.47.09-2.02.99-4.21,3-3.78,4.13.22.59,1.11.84,2.07.94Z"/>
      </g>
      <g id="Haare-2" data-name="Haare">
        <path class="cls-18" d="M138.66,102.09c5.3-1.19,9.81,1.29,11.64,2.33,8.7,4.95,7.61,12.66,16.79,17.13,2.34,1.14,3.36,1.1,4.49,2.49,2.85,3.51,2.27,10.98.29,16.12-.51,1.32-1.61,3.8-.62,6.16.23.55.91,1.89,1.49,1.83,2.01-.19,5.55-16.23.52-31.11-1.05-3.1-6.63-19.62-21.19-24.35-6.17-2.01-11.95-1.25-16.41-.67-3.62.47-11.01,1.52-18.4,6.21-12.09,7.67-18.76,21.64-19.07,34.45-.04,1.62-.14,8.77,3.3,16.86,3.28,7.71,7.52,11.02,8.86,11.99,1.75,1.27,4.56,2.92,5.21,2.26.74-.75-2.33-3.31-4-8.69-1.6-5.17-.03-6.9-2.26-11.12-1.37-2.6-2.48-2.91-2.61-4.69-.16-2.31,1.52-4.46,5.39-7.65,9.04-7.46,12.64-6.26,15.12-10.77,1.68-3.06.64-4.7,1-7.77,0,0,.15-1.77,1.09-3.88,1.67-3.78,5.74-6.32,9.36-7.13Z"/>
      </g>
    </g>
    <g id="Hose">
      <path class="cls-2" d="M259.3,387.43c-1.46,14.22-2.13,31.16-.78,50.14,1.69,23.65,6.06,43.92,10.71,59.98,2.71-1.71,8.95-5.15,17.61-5.42,7.53-.23,13.28,2.04,16.14,3.4,2.21-17.04,4.05-40.08,2.83-67.32-1.75-38.85-2.62-58.28-16.5-75.93-11.46-14.59-26.63-21.39-52.81-33.13-17.21-7.72-32.35-12.35-43.26-15.17-15.31.45-30.61.89-45.92,1.34,1.34,4.49,3.62,10.87,7.53,17.93,14.4,25.97,38.17,38.16,57.48,47.74,10.89,5.41,26.7,12.01,46.96,16.43Z"/>
      <path class="cls-5" d="M92.23,304.77c-2.77,3.31-8.39,10.92-10.24,22.19-.38,2.33-2.36,15.48,3.9,27.28,3.42,6.45,10.24,14.26,53.98,27.86,10.43,3.24,25.25,7.53,43.45,11.69.54,13.22,1.57,27.24,3.25,41.96,2.55,22.29,6.21,42.79,10.39,61.32,3.81-1.31,9.44-2.76,16.37-2.86,8.4-.11,15.1,1.82,19.23,3.38,2.97-22.99,4.2-42.81,4.68-58.46.9-29.58.59-42.74-4.94-57.42-3-7.97-5.48-14.54-11.56-21.43-10.68-12.11-26.4-18.34-47.53-26.71-9.39-3.72-17.67-6.45-22.45-14.78-2.82-4.91-3.38-9.94-3.41-13.45-7.88-.09-15.76-.18-23.64-.26-10.49-.11-20.98-.21-31.46-.3Z"/>
    </g>
    <g id="Oberteil">
      <path class="cls-14" d="M156.31,324.84c-5.67.39-12.84.59-23.28.76-14.06.21-32.98.34-55.6,0,3.4-13.01,7.52-29.92,11.61-49.88,4.38-21.36,6.51-32.16,7.41-43.64.95-12.15.84-30.1-4.86-52.46,3.33-.83,6.16-1.36,8.33-1.71,3.07-.5,4.83-.63,5.8-.69.5-.03,1.94-.11,3.83-.09,1.77.02,3.78.13,5.99.39,1.15,1.32,9.11,10.17,22.22,10.14.48,0,.95-.01,1.42-.05l17.12,137.23Z"/>
      <path class="cls-11" d="M211.49,306.37c-8.54,5.33-22.14,12.49-40.01,16.37-4.79,1.04-9.13,1.68-15.18,2.1l-17.12-137.23c13.03-.68,20.63-10.06,21.58-11.26,3.76-.06,7.96.07,12.48.52,5.45.53,10.35,1.42,14.61,2.43-.7,1.84-1.85,5.19-2.67,9.52-.81,4.34-1.39,11.87,2.07,35.47.62,4.28,1.27,7.86,1.96,11.18,3.34,16.03,6.87,28.95,9.34,36.76,3.25,10.23,7.44,21.76,12.94,34.15Z"/>
    </g>
    <g id="Arm_link" data-name="Arm link">
      <path class="cls-10" d="M162.58,243.29c-.42.86-1.59,2.14-2.91,3.19-.54.43-1.03.75-1.38.96-16.27,14.42-32.56,28.81-48.82,43.22-.99.8-4.76,3.67-9.68,3.03-.1,0-.23-.03-.37-.06-4.69.64-9.37-1.23-11.16-3.79-.39-.57-1.05-1.74-1.56-3.16-.81-2.22-.95-4.19-.94-5.47-3.77-26.07-7.81-52.17-12.13-78.3-.02-.13-.15-.88-.17-1.01,0-.02,0-.08,0-.1-.85-6.85,3.27-13.85,10.4-16.77,8.41-3.46,17.88.11,21.12,8,.49,1.18.79,2.39.96,3.6,0,.02,0,.08,0,.1.03.95.05,1.89.07,2.84.56,21.38,1.56,42.55,3.01,63.51,13.37-8.92,26.74-17.84,40.11-26.76,1.97-3.5,6.29-4.92,9.95-3.16,3.77,1.83,5.34,6.37,3.5,10.13Z"/>
      <path class="cls-14" d="M109.26,240.99c-5.37-1.18-12.51-2.21-20.93-1.98-8.17.22-15.06,1.56-20.27,2.97-2.62-13.29-1.76-24.08-.68-30.9,1.71-10.82,3.71-23.46,12.36-27.71,4.25-2.09,13.26-3.7,13.26-3.7h0c1.14.01,2.06.1,2.66.18,2.1.49,3.74,1.28,4.99,2.1,9.81,6.36,8.52,21.95,8.38,23.36.07,11.9.15,23.8.22,35.69Z"/>
    </g>
  </g>
  <g id="Tisch">
    <rect class="cls-19" y="305.7" width="488.45" height="20.1" rx="6.85" ry="6.85"/>
    <path class="cls-19" d="M40.62,529.31c-3.45-.08-6.9-.16-10.36-.24-.85-68.08-1.69-136.16-2.54-204.23h15.64c-.91,68.16-1.83,136.32-2.75,204.47Z"/>
    <path class="cls-19" d="M457.72,529.31c-3.45-.08-6.9-.16-10.36-.24-.85-68.08-1.69-136.16-2.54-204.23h15.64c-.91,68.16-1.83,136.32-2.75,204.47Z"/>
  </g>
  <g>
    <path class="cls-9" d="M436.5,307.71c5.31.4,10.61.8,15.92,1.21-1.06-.72-2.12-1.45-3.19-2.17-4.24.32-8.49.64-12.73.96Z"/>
    <polygon class="cls-14" points="337.63 249.23 337.63 313.38 452.42 313.38 452.42 308.92 449.99 308.73 436.5 307.71 448.72 306.79 452.42 306.51 452.42 294.45 439.71 293.03 421.07 290.95 452.42 290.95 452.42 249.23 337.63 249.23"/>
    <path class="cls-11" d="M337.63,249.23v64.15h-36.9v-14.03c6.71-.36,13.43-.72,20.14-1.08l-20.14-1.83v-47.21h36.9Z"/>
    <polygon class="cls-17" points="286.13 211.13 286.13 222.98 292.94 223.79 286.13 224.59 286.13 240.67 298.56 241.58 286.13 242.48 286.13 249.23 317.61 249.23 317.61 211.13 286.13 211.13"/>
    <polygon class="cls-24" points="317.61 211.13 317.61 249.23 427.94 249.23 427.94 224.91 403.71 222.94 427.94 222.24 427.94 211.13 317.61 211.13"/>
    <polygon class="cls-14" points="325.51 146.85 325.51 184.96 435.84 184.96 435.84 179.13 423.94 177.48 435.84 176.78 435.84 146.85 325.51 146.85"/>
    <polygon class="cls-11" points="294.03 163.28 305.46 164.28 294.03 165.25 294.03 184.96 325.51 184.96 325.51 146.85 294.03 146.85 294.03 163.28"/>
    <polygon class="cls-23" points="306.05 184.96 306.05 211.13 416.37 211.13 416.37 201.99 402.87 200.63 416.37 199.28 416.37 184.96 306.05 184.96"/>
    <polygon class="cls-7" points="274.56 207.05 285.3 207.81 274.56 208.57 274.56 211.13 306.05 211.13 306.05 184.96 274.56 184.96 274.56 207.05"/>
    <path class="cls-9" d="M429.53,171.76c-6.92.56-15.81,1.95-25.72,5.26-8.57,2.86-15.62,6.4-21.05,9.61-.61-1.62-1.96-4.51-4.77-7.18-3.26-3.09-6.76-4.24-8.48-4.68,9.37.03,19.19-.18,29.43-.68,10.69-.53,20.9-1.33,30.6-2.34Z"/>
    <path class="cls-1" d="M306.05,184.96c5.23,2.6,13.82,6.08,24.95,7.16,12.04,1.17,21.79-.98,27.55-2.71-4.83.07-10.12-.07-15.8-.54-6.17-.51-11.84-1.33-16.94-2.29-6.59-.54-13.18-1.07-19.76-1.61Z"/>
    <path class="cls-16" d="M413.96,230.18c-1.06.68-3.11,2.21-4.55,4.95-1.06,2-1.37,3.84-1.48,5-2.98-1.32-6.23-2.61-9.74-3.8-7.68-2.59-14.81-4.09-21.01-4.95,12.26-.4,24.52-.8,36.78-1.21Z"/>
    <path class="cls-16" d="M378.99,217.64c-1.18.38-5.08,1.82-7.69,5.91-1.97,3.09-2.2,6.12-2.22,7.47-4.38-2.21-10.57-4.95-18.28-7.11-14.13-3.97-24.81-3.61-24.81-4.19,0-.57,10.34-1.3,53-2.08Z"/>
    <path class="cls-9" d="M447.01,240.92c1.8,2.77,3.61,5.54,5.41,8.31-5.58,2.54-14.56,5.8-26.03,6.51-9.29.58-17.04-.72-22.42-2.06,6.64.04,16.4-.73,27.32-4.77,6.43-2.38,11.68-5.31,15.72-7.99Z"/>
    <path class="cls-9" d="M439.04,261.59c-12.24,1.01-28.02,3.59-45.46,9.89-11.16,4.03-20.66,8.74-28.46,13.26-1-2.48-3.33-7.29-8.32-11.46-6.02-5.02-12.41-6.18-15.07-6.51,32.44-1.73,64.87-3.46,97.31-5.19Z"/>
    <path class="cls-9" d="M323.6,270.85c-4.66.09-9.83.42-15.4,1.15-4.96.65-9.53,1.51-13.66,2.47,1.81-1.74,3.71-3.51,5.7-5.28,1.08-.96,2.16-1.9,3.23-2.8,6.71,1.49,13.42,2.97,20.14,4.46Z"/>
    <path class="cls-20" d="M320.87,270.21c-4.66.09-9.83.42-15.4,1.15-4.96.65-9.53,1.51-13.66,2.47,1.81-1.74,3.71-3.51,5.7-5.28,1.08-.96,2.16-1.9,3.23-2.8,6.71,1.49,13.42,2.97,20.14,4.46Z"/>
    <path class="cls-20" d="M447.19,240.14l5.24,9.1c-5.81,2.22-14.46,4.76-25.18,5.24-8.81.39-16.25-.74-21.69-1.99,6.42.04,15.87-.7,26.43-4.61,6.22-2.3,11.3-5.14,15.21-7.73Z"/>
    <path class="cls-20" d="M439.76,260.2c-12.24,1.01-28.02,3.59-45.46,9.89-11.16,4.03-20.66,8.74-28.46,13.26-1-2.48-3.33-7.29-8.32-11.46-6.02-5.02-12.41-6.18-15.07-6.51,32.44-1.73,64.87-3.46,97.31-5.19Z"/>
    <polygon class="cls-9" points="357.52 284.74 337.63 289.14 326.54 284.74 337.63 285.41 357.52 284.74"/>
    <polygon class="cls-9" points="436.75 280.46 396.96 281.31 398.4 280.46 436.75 280.46"/>
    <polygon class="cls-9" points="386.22 301.32 386.22 302.53 350.29 301.92 386.22 301.32"/>
    <polygon class="cls-9" points="337.63 260.93 337.63 263.1 328.46 261.59 337.63 260.93"/>
    <polygon class="cls-9" points="337.63 249.23 300.73 260.93 300.73 249.23 337.63 249.23"/>
    <path class="cls-21" d="M413.96,230.18c-1.06.64-2.74,1.84-4.22,3.86-1.33,1.81-1.97,3.56-2.29,4.7-2.71-1.22-5.69-2.41-8.92-3.5-7.2-2.41-13.85-3.69-19.53-4.34,11.66-.24,23.31-.48,34.97-.72Z"/>
    <path class="cls-21" d="M378.99,217.64c-1.36.42-4.64,1.61-7.36,4.82-2.32,2.74-3.09,5.59-3.38,6.99-4.68-2.32-10.41-4.71-17.12-6.63-9.22-2.64-17.48-3.6-24-3.86,17.28-.44,34.57-.88,51.85-1.33Z"/>
    <polygon class="cls-16" points="332.44 233.31 317.61 236.33 310.26 233.31 317.97 233.92 332.44 233.31"/>
    <polygon class="cls-1" points="313.51 202.81 306.34 203.89 303.62 203.35 306.34 205.1 313.51 202.81"/>
    <polygon class="cls-1" points="358.25 199.91 358.25 201.48 331.48 201.48 358.25 199.91"/>
    <polygon class="cls-1" points="310.26 191.71 306.04 192.92 301.87 191.71 306.06 191.71 310.26 191.71"/>
    <polygon class="cls-9" points="417.06 164.28 375.19 163.28 375.19 164.28 417.06 164.28"/>
    <polygon class="cls-9" points="362.89 154.78 341.01 155.33 362.89 155.87 362.89 154.78"/>
    <polygon class="cls-9" points="339.11 170.34 325.18 173.05 314.05 171.7 324.91 171.7 339.11 170.34"/>
    <path class="cls-15" d="M306.05,184.96c5.75,2.25,14.19,4.82,24.65,5.55,11.67.81,21.26-1.01,27.55-2.71-4.83.07-10.12-.07-15.8-.54-6.17-.51-11.84-1.33-16.94-2.29h-19.47Z"/>
    <path class="cls-20" d="M427.01,171.15c-6.42.52-14.68,1.81-23.88,4.88-7.96,2.66-14.49,5.94-19.53,8.92-.57-1.5-1.82-4.19-4.43-6.66-3.02-2.86-6.28-3.93-7.87-4.34,8.7.02,17.81-.17,27.31-.63,9.92-.49,19.4-1.24,28.4-2.17Z"/>
    <path class="cls-1" d="M302.49,198.55c-4.07.65-8.57,1.61-13.38,3.04-2.99.89-5.76,1.86-8.32,2.86-.68-1.08-1.41-2.19-2.17-3.32-.77-1.13-1.53-2.21-2.29-3.26,4.56.19,9.18.34,13.87.45,4.15.1,8.25.17,12.3.21Z"/>
    <path class="cls-15" d="M302.49,197.68c-4.07.65-8.57,1.61-13.38,3.04-2.99.89-5.76,1.86-8.32,2.86-.68-1.08-1.41-2.19-2.17-3.32-.77-1.13-1.53-2.21-2.29-3.26,4.56.19,9.18.34,13.87.45,4.15.1,8.25.17,12.3.21Z"/>
    <path class="cls-12" d="M317.61,211.13l-31.48,11.82v-11.82h31.48Z"/>
    <path class="cls-9" d="M421.07,290.95c10.45,1.17,20.9,2.33,31.35,3.5-2.53-1.17-5.07-2.33-7.6-3.5h-23.75Z"/>
    <path class="cls-16" d="M286.13,224.59c.73-.45,1.47-.9,2.2-1.34,1.54.18,3.07.36,4.61.54l-6.82.8Z"/>
    <polygon class="cls-16" points="286.13 242.48 288.34 240.83 298.56 241.58 286.13 242.48"/>
    <polygon class="cls-1" points="274.56 208.57 277.05 207.22 285.3 207.81 274.56 208.57"/>
    <polygon class="cls-9" points="294.03 165.25 296.28 163.48 305.46 164.28 294.03 165.25"/>
    <polygon class="cls-9" points="435.84 179.13 432.58 176.98 423.94 177.48 435.84 179.13"/>
    <polygon class="cls-1" points="416.37 201.99 412.02 199.71 402.87 200.63 416.37 201.99"/>
    <polygon class="cls-16" points="427.94 224.91 422.88 222.39 403.71 222.94 427.94 224.91"/>
    <path class="cls-20" d="M390.38,146.85c-7.58.41-20.99-.06-34.42-7.66-3.58-2.03-6.62-4.25-9.17-6.44-.48,1.77-1.75,5.41-5.06,8.68-4.42,4.35-9.6,5.21-11.33,5.42h59.99Z"/>
    <polygon class="cls-9" points="320.87 298.27 300.73 299.35 306.2 296.93 320.87 298.27"/>
  </g>
  <g id="Lupe_Hand" data-name="Lupe + Hand">
    <path class="cls-3" d="M219.59,179.36c-2.79,6.92-8.44,11.83-15.04,13.9-5.11,1.61-10.79,1.53-16.15-.63-12.28-4.96-18.22-18.92-13.26-31.2.36-.9.77-1.76,1.22-2.59.57-1.04,1.21-2.01,1.91-2.93,2.12-2.81,4.8-5.06,7.82-6.66.56-.3,1.12-.57,1.7-.83.36-.15.72-.3,1.08-.44,3.1-1.17,6.45-1.71,9.84-1.52,1.1.06,2.2.2,3.31.42,1.44.29,2.89.71,4.31,1.29,3.63,1.46,6.7,3.71,9.11,6.47,3.32,3.82,5.36,8.62,5.81,13.67.32,3.65-.19,7.42-1.66,11.05Z"/>
    <path class="cls-4" d="M215,146.78c-1.24-.93-2.56-1.76-3.97-2.49-.85-.45-1.73-.86-2.64-1.22-2.81-1.14-5.69-1.81-8.56-2.05-1.16-.09-2.32-.12-3.47-.08-1.85.06-3.69.3-5.48.71-1.34.3-2.65.7-3.93,1.18-1.03.39-2.04.84-3.02,1.34-2.91,1.49-5.57,3.45-7.86,5.85-.82.85-1.59,1.76-2.3,2.72-1.5,1.99-2.76,4.21-3.74,6.63-.81,2.02-1.39,4.08-1.73,6.14-.34,1.98-.46,3.96-.39,5.91.25,7.28,3.21,14.25,8.28,19.48,2.14,2.21,4.65,4.11,7.48,5.59l-3.04,7.56-1.23,3.03-1.51-.61-22.1,54.8,8.47,3.42,22.1-54.8-1.51-.61,3.42-8.48.85-2.11c.87.26,1.74.47,2.61.63.18.04.36.07.53.1,3.17.56,6.34.59,9.42.13,7.21-1.07,13.89-4.81,18.57-10.57.66-.82,1.28-1.68,1.86-2.57,1-1.55,1.87-3.22,2.59-4.99,5.11-12.68.77-26.84-9.7-34.64ZM219.59,179.36c-2.79,6.92-8.44,11.83-15.04,13.9-5.11,1.61-10.79,1.53-16.15-.63-12.28-4.96-18.22-18.92-13.26-31.2.36-.9.77-1.76,1.22-2.59.57-1.04,1.21-2.01,1.91-2.93,2.12-2.81,4.8-5.06,7.82-6.66.56-.3,1.12-.57,1.7-.83.36-.15.72-.3,1.08-.44,3.1-1.17,6.45-1.71,9.84-1.52,1.1.06,2.2.2,3.31.42,1.44.29,2.89.71,4.31,1.29,3.63,1.46,6.7,3.71,9.11,6.47,3.32,3.82,5.36,8.62,5.81,13.67.32,3.65-.19,7.42-1.66,11.05Z"/>
    <path class="cls-10" d="M151.64,232.9c-.68.86-1.64,2.19-2.55,4.01.94,1.52,1.89,3.12,2.84,4.79.96,1.7,1.85,3.35,2.67,4.97,2.16.15,5.01-.69,8.88-1.82,5.57-1.62,9.13-4.61,10.49-5.87,1.11-1.02,8.69-7.49,7.06-11.79-.31-.82-1.25-2.31-2.84-3.06-1.03-.49-1.97-.5-2.49-.5-3.04-.01-5.36,1.45-5.36,1.45l1.63-3.91c-2.8-1.52-7.88.39-13.49,4.47-3.35,2.43-5.51,5.22-6.83,7.26Z"/>
  </g>
  <g id="Glühbirne">
    <rect class="cls-2" x="123.13" y="73.84" width="17.68" height="4.37"/>
    <path class="cls-9" d="M151.91,35.98c-.04,6.89-3.12,8.69-9.74,20.58-1.28,2.3-1.39,9.46-1.52,11.45h-17.38c-.13-1.99-.24-9.15-1.52-11.45-6.61-11.89-9.69-13.69-9.74-20.58-.08-12.22,7.43-20.7,19.94-20.73,12.52.03,20.02,8.51,19.94,20.73Z"/>
    <rect class="cls-2" x="119.87" y="65.28" width="24.2" height="4.97" rx="2.49" ry="2.49"/>
    <rect class="cls-2" x="119.87" y="69.71" width="24.2" height="4.97" rx="2.49" ry="2.49"/>
    <line class="cls-26" x1="131.97" y1="8.7" x2="131.97"/>
    <line class="cls-26" x1="168.46" y1="37.3" x2="159.76" y2="37.3"/>
    <line class="cls-26" x1="104.18" y1="37.3" x2="95.48" y2="37.3"/>
    <line class="cls-26" x1="111.28" y1="17.19" x2="105.13" y2="11.03"/>
    <line class="cls-26" x1="152.66" y1="18.33" x2="158.81" y2="12.17"/>
    <path class="cls-25" d="M133.44,20.69c-.61-.08-1.24-.12-1.87-.12-8.1,0-14.67,6.57-14.67,14.67,0,1.93.37,3.78,1.05,5.47,0,0,0,0,0,0h2.9s0,0,0,0c-.87-1.69-1.34-3.62-1.31-5.67.11-6.84,6-12.24,12.82-11.79.36.02.71.06,1.06.12,0,0,0,0,0,0v-2.67s0,0,0,0Z"/>
  </g>
</svg>