<?xml version="1.0" encoding="UTF-8"?>
<svg id="_0042_THK_Daten" data-name="0042_THK_Daten" xmlns="http://www.w3.org/2000/svg" xmlns:xlink="http://www.w3.org/1999/xlink" viewBox="0 0 941.68 320.94">
  <defs>
    <style>
      .cls-1 {
        fill: #a5678d;
      }

      .cls-1, .cls-2, .cls-3, .cls-4, .cls-5, .cls-6, .cls-7, .cls-8, .cls-9, .cls-10, .cls-11, .cls-12, .cls-13, .cls-14 {
        stroke-width: 0px;
      }

      .cls-2 {
        fill: #308fc9;
      }

      .cls-3 {
        fill: none;
      }

      .cls-4 {
        fill: #e6710a;
      }

      .cls-5 {
        fill: #873567;
      }

      .cls-6 {
        fill: #c39ab3;
      }

      .cls-7 {
        fill: #73bbe7;
      }

      .cls-8 {
        fill: #96cced;
      }

      .cls-9 {
        fill: #b9ddf3;
      }

      .cls-10 {
        fill: #f3ebf0;
      }

      .cls-11 {
        fill: url(#Unnamed_Pattern_3);
      }

      .cls-12 {
        fill: #cbe3f1;
      }

      .cls-13 {
        fill: #f9dbc2;
      }

      .cls-14 {
        fill: #e1ccd9;
      }
    </style>
    <pattern id="Unnamed_Pattern_3" data-name="Unnamed Pattern 3" x="0" y="0" width="545.55" height="525.6" patternTransform="translate(-8549.6 -1212.96) scale(.24)" patternUnits="userSpaceOnUse" viewBox="0 0 545.55 525.6">
      <g>
        <rect class="cls-3" y="0" width="545.55" height="525.6"/>
        <path class="cls-4" d="M219.88,200.42c-8.9,9.45-21.55,17.75-37.86,24.89l-3.56,16.87c4.1-.88,8.72-2.37,13.89-4.47,5.17-2.13,9.72-4.47,13.71-6.99l-14.07,67h19.08l20.36-97.3h-11.55Z"/>
        <path class="cls-4" d="M98.51,115.82c-6.78,7.17-16.34,13.46-28.72,18.86l-2.7,12.8c3.11-.66,6.62-1.8,10.53-3.4,3.93-1.6,7.39-3.36,10.38-5.3l-10.65,50.82h14.46l15.46-73.78h-8.75Z"/>
        <path class="cls-4" d="M85.38,206.3c-10.9,11.59-26.36,21.72-46.32,30.44l-4.38,20.69c5.02-1.07,10.69-2.92,17-5.49,6.31-2.58,11.89-5.45,16.74-8.59l-17.17,82.03h23.31l24.94-119.08h-14.12Z"/>
        <path class="cls-4" d="M286.32,122.82c-4.13-4.67-9.41-7-15.82-7s-12.12,2.44-17.3,7.32c-5.2,4.85-9.47,12.28-12.79,22.29-2.68,8.18-4.05,16.25-4.05,24.22,0,8.8,2.09,15.53,6.25,20.19,4.16,4.64,9.47,6.97,15.88,6.97s12.2-2.41,17.33-7.21c5.12-4.83,9.17-11.75,12.17-20.78,3.03-9.04,4.53-17.59,4.53-25.72,0-8.88-2.07-15.64-6.2-20.28ZM274.6,159.27c-2.31,10.49-4.96,17.54-7.94,21.11-2.25,2.65-4.8,4-7.7,4-2.15,0-3.92-.86-5.28-2.6-1.37-1.72-2.07-4.72-2.07-8.98,0-5.26.97-12.04,2.92-20.38,2.28-9.63,4.99-16.36,8.1-20.17,2.15-2.65,4.59-3.97,7.32-3.97,2.15,0,3.94.89,5.31,2.63,1.39,1.74,2.09,4.61,2.09,8.58,0,4.85-.91,11.45-2.76,19.79Z"/>
        <path class="cls-4" d="M172.86,146.5c-4.66-5.25-10.65-7.89-17.93-7.89s-13.71,2.75-19.61,8.26c-5.87,5.53-10.71,13.96-14.47,25.26-3.06,9.3-4.61,18.43-4.61,27.48,0,9.97,2.39,17.59,7.08,22.87,4.72,5.25,10.73,7.9,18.01,7.9s13.82-2.72,19.61-8.18c5.82-5.45,10.42-13.29,13.82-23.55,3.43-10.23,5.11-19.95,5.11-29.14,0-10.06-2.33-17.73-7.02-23.01ZM159.6,187.83c-2.61,11.89-5.62,19.87-9.02,23.91-2.53,3.03-5.42,4.52-8.68,4.52-2.47,0-4.47-.95-6.01-2.92-1.57-1.97-2.33-5.37-2.33-10.17,0-5.99,1.1-13.68,3.32-23.12,2.56-10.9,5.62-18.55,9.19-22.87,2.42-2.98,5.17-4.47,8.26-4.47,2.47,0,4.47.98,6.04,2.98,1.57,1.97,2.36,5.2,2.36,9.69,0,5.54-1.04,13.01-3.12,22.45Z"/>
        <path class="cls-4" d="M172.36,261.14c-5.04-5.65-11.45-8.5-19.23-8.5s-14.75,3-21.06,8.9c-6.31,5.9-11.5,14.96-15.52,27.06-3.26,9.97-4.93,19.79-4.93,29.51,0,10.68,2.54,18.82,7.63,24.52,5.04,5.65,11.45,8.44,19.28,8.44s14.8-2.9,21.01-8.75c6.26-5.85,11.19-14.3,14.86-25.28,3.66-10.94,5.49-21.37,5.49-31.24,0-10.79-2.54-19.03-7.53-24.67ZM158.11,305.45c-2.8,12.77-6,21.32-9.67,25.64-2.7,3.26-5.85,4.88-9.36,4.88-2.59,0-4.78-1.07-6.41-3.15-1.68-2.09-2.49-5.75-2.49-10.94,0-6.36,1.17-14.65,3.51-24.78,2.8-11.7,6.05-19.89,9.87-24.52,2.59-3.2,5.55-4.78,8.9-4.78,2.65,0,4.78,1.07,6.46,3.15,1.68,2.14,2.54,5.65,2.54,10.43,0,5.95-1.12,13.94-3.36,24.06Z"/>
        <path class="cls-4" d="M40.79,181.57c-2.6-2.93-5.93-4.4-9.98-4.4s-7.64,1.53-10.91,4.6c-3.28,3.07-5.97,7.76-8.06,14.05-1.71,5.16-2.57,10.26-2.57,15.29,0,5.55,1.32,9.79,3.95,12.72,2.62,2.93,5.96,4.4,10.01,4.4s7.69-1.51,10.92-4.55c3.23-3.04,5.8-7.41,7.69-13.1,1.9-5.7,2.85-11.11,2.85-16.23,0-5.59-1.3-9.86-3.91-12.79ZM33.4,204.56c-1.45,6.62-3.12,11.05-5.02,13.3-1.41,1.68-3.03,2.53-4.84,2.53-1.37,0-2.47-.55-3.35-1.64-.86-1.09-1.29-2.97-1.29-5.66,0-3.32.62-7.61,1.84-12.86,1.43-6.08,3.13-10.32,5.11-12.74,1.34-1.65,2.88-2.49,4.61-2.49,1.36,0,2.49.55,3.36,1.65.87,1.1,1.32,2.91,1.32,5.41,0,3.08-.59,7.24-1.75,12.49Z"/>
        <path class="cls-4" d="M218.26,95.26c-7.95,8.44-19.19,15.82-33.74,22.18l-3.18,15.04c3.67-.78,7.79-2.13,12.4-3.99,4.58-1.89,8.65-3.96,12.18-6.25l-12.51,59.73h16.98l18.17-86.7h-10.3Z"/>
        <path class="cls-4" d="M220.21,15.78c-3.19-3.58-7.25-5.36-12.18-5.36s-9.34,1.86-13.33,5.61c-3.99,3.75-7.27,9.46-9.83,17.16-2.09,6.31-3.11,12.51-3.11,18.65,0,6.78,1.6,11.96,4.81,15.52,3.19,3.58,7.27,5.38,12.2,5.38s9.4-1.86,13.33-5.57c3.95-3.71,7.06-9.03,9.4-15.99,2.31-6.94,3.46-13.55,3.46-19.8,0-6.82-1.58-12.02-4.75-15.6ZM211.18,43.82c-1.76,8.09-3.81,13.49-6.12,16.26-1.72,2.05-3.69,3.07-5.9,3.07-1.68,0-3.03-.68-4.09-2.01-1.04-1.33-1.58-3.62-1.58-6.9,0-4.05.76-9.29,2.25-15.7,1.74-7.41,3.83-12.59,6.24-15.52,1.64-2.03,3.5-3.05,5.61-3.05,1.68,0,3.05.68,4.11,2.03,1.06,1.35,1.6,3.54,1.6,6.59,0,3.75-.72,8.82-2.13,15.23Z"/>
        <path class="cls-4" d="M110.49,351.98c-3.67-4.17-8.36-6.22-14.08-6.22s-10.8,2.17-15.44,6.5c-4.64,4.33-8.42,10.97-11.39,19.86-2.42,7.3-3.61,14.5-3.61,21.61,0,7.86,1.86,13.86,5.55,18,3.72,4.14,8.44,6.22,14.16,6.22s10.86-2.14,15.44-6.44c4.56-4.28,8.19-10.47,10.86-18.52,2.69-8.05,4.03-15.69,4.03-22.91,0-7.92-1.83-13.94-5.53-18.08ZM100.05,384.47c-2.06,9.36-4.42,15.64-7.08,18.8-2,2.39-4.28,3.58-6.83,3.58-1.94,0-3.53-.78-4.72-2.33-1.25-1.53-1.86-4.19-1.86-8,0-4.69.89-10.75,2.61-18.19,2.03-8.58,4.44-14.58,7.25-17.97,1.89-2.36,4.05-3.53,6.5-3.53,1.94,0,3.53.78,4.75,2.33,1.25,1.56,1.86,4.11,1.86,7.64,0,4.36-.81,10.25-2.47,17.66Z"/>
        <path class="cls-4" d="M235.42,302.43c-8.9,9.45-21.55,17.75-37.86,24.89l-3.56,16.87c4.1-.88,8.72-2.37,13.89-4.47,5.17-2.13,9.72-4.47,13.71-6.99l-14.07,67h19.08l20.36-97.3h-11.55Z"/>
        <path class="cls-4" d="M158.95,40.72c-7.54,8-18.25,15.03-32.07,21.08l-3.01,14.28c3.47-.75,7.39-2.01,11.76-3.78,4.37-1.8,8.23-3.78,11.61-5.92l-11.92,56.74h16.16l17.24-82.4h-9.78Z"/>
        <path class="cls-4" d="M93.65,70.61c-2.55-2.86-5.78-4.28-9.71-4.28s-7.44,1.49-10.62,4.47c-3.18,2.99-5.79,7.54-7.83,13.67-1.66,5.03-2.48,9.97-2.48,14.86,0,5.4,1.27,9.53,3.83,12.37,2.55,2.86,5.79,4.29,9.72,4.29s7.49-1.49,10.62-4.44c3.15-2.95,5.63-7.2,7.49-12.74,1.84-5.53,2.76-10.8,2.76-15.78,0-5.43-1.26-9.58-3.79-12.43ZM86.46,92.96c-1.4,6.45-3.03,10.75-4.88,12.96-1.37,1.63-2.94,2.45-4.7,2.45-1.34,0-2.42-.54-3.26-1.6-.83-1.06-1.26-2.89-1.26-5.5,0-3.23.6-7.41,1.79-12.51,1.39-5.91,3.05-10.03,4.98-12.37,1.31-1.62,2.79-2.43,4.47-2.43,1.34,0,2.43.54,3.28,1.62.85,1.08,1.27,2.82,1.27,5.25,0,2.99-.57,7.03-1.7,12.14Z"/>
        <path class="cls-4" d="M469.4,243.21c-8.9,9.45-21.55,17.75-37.86,24.89l-3.56,16.87c4.1-.88,8.72-2.37,13.89-4.47,5.17-2.13,9.72-4.47,13.71-6.99l-14.07,67h19.08l20.36-97.3h-11.55Z"/>
        <path class="cls-4" d="M335.63,174.4c-6.78,7.17-16.34,13.46-28.72,18.86l-2.7,12.8c3.11-.66,6.62-1.8,10.53-3.4,3.93-1.6,7.39-3.36,10.38-5.3l-10.65,50.82h14.46l15.46-73.78h-8.75Z"/>
        <path class="cls-4" d="M333.77,258.11c-10.9,11.59-26.36,21.72-46.32,30.44l-4.38,20.69c5.02-1.07,10.69-2.92,17-5.49,6.31-2.58,11.89-5.45,16.74-8.59l-17.17,82.03h23.31l24.94-119.08h-14.12Z"/>
        <path class="cls-4" d="M539.36,155.71c-4.13-4.67-9.41-7-15.82-7s-12.12,2.44-17.3,7.32c-5.2,4.85-9.47,12.28-12.79,22.29-2.68,8.18-4.05,16.25-4.05,24.22,0,8.8,2.09,15.53,6.25,20.19,4.16,4.64,9.47,6.97,15.88,6.97s12.2-2.41,17.33-7.21c5.12-4.83,9.17-11.75,12.17-20.78,3.03-9.04,4.53-17.59,4.53-25.72,0-8.88-2.07-15.64-6.2-20.28ZM527.64,192.16c-2.31,10.49-4.96,17.54-7.94,21.11-2.25,2.65-4.8,4-7.7,4-2.15,0-3.92-.86-5.28-2.6-1.37-1.72-2.07-4.72-2.07-8.98,0-5.26.97-12.04,2.92-20.38,2.28-9.63,4.99-16.36,8.1-20.17,2.15-2.65,4.59-3.97,7.32-3.97,2.15,0,3.94.89,5.31,2.63,1.39,1.74,2.09,4.61,2.09,8.58,0,4.85-.91,11.45-2.76,19.79Z"/>
        <path class="cls-4" d="M420.38,195.29c-4.66-5.25-10.65-7.89-17.93-7.89s-13.71,2.75-19.61,8.26c-5.87,5.53-10.71,13.96-14.47,25.26-3.06,9.3-4.61,18.43-4.61,27.48,0,9.97,2.39,17.59,7.08,22.87,4.72,5.25,10.73,7.9,18.01,7.9s13.82-2.72,19.61-8.18c5.82-5.45,10.42-13.29,13.82-23.55,3.43-10.23,5.11-19.95,5.11-29.14,0-10.06-2.33-17.73-7.02-23.01ZM407.12,236.62c-2.61,11.89-5.62,19.87-9.02,23.91-2.53,3.03-5.42,4.52-8.68,4.52-2.47,0-4.47-.95-6.01-2.92-1.57-1.97-2.33-5.37-2.33-10.17,0-5.99,1.1-13.68,3.32-23.12,2.56-10.9,5.62-18.55,9.19-22.87,2.42-2.98,5.17-4.47,8.26-4.47,2.47,0,4.47.98,6.04,2.98,1.57,1.97,2.36,5.2,2.36,9.69,0,5.54-1.04,13.01-3.12,22.45Z"/>
        <path class="cls-4" d="M419.88,301.93c-5.04-5.65-11.45-8.5-19.23-8.5s-14.75,3-21.06,8.9c-6.31,5.9-11.5,14.96-15.52,27.06-3.26,9.97-4.93,19.79-4.93,29.51,0,10.68,2.54,18.82,7.63,24.52,5.04,5.65,11.45,8.44,19.28,8.44s14.8-2.9,21.01-8.75c6.26-5.85,11.19-14.3,14.86-25.28,3.66-10.94,5.49-21.37,5.49-31.24,0-10.79-2.54-19.03-7.53-24.67ZM405.63,346.24c-2.8,12.77-6,21.32-9.67,25.64-2.7,3.26-5.85,4.88-9.36,4.88-2.59,0-4.78-1.07-6.41-3.15-1.68-2.09-2.49-5.75-2.49-10.94,0-6.36,1.17-14.65,3.51-24.78,2.8-11.7,6.05-19.89,9.87-24.52,2.59-3.2,5.55-4.78,8.9-4.78,2.65,0,4.78,1.07,6.46,3.15,1.68,2.14,2.54,5.65,2.54,10.43,0,5.95-1.12,13.94-3.36,24.06Z"/>
        <path class="cls-4" d="M282.45,219.7c-3.38-3.82-7.72-5.72-12.99-5.72s-9.94,2-14.2,5.99c-4.27,3.99-7.77,10.1-10.48,18.29-2.22,6.72-3.34,13.35-3.34,19.9,0,7.23,1.72,12.74,5.15,16.56,3.41,3.82,7.75,5.72,13.02,5.72s10.01-1.96,14.21-5.92c4.2-3.96,7.54-9.64,10.01-17.05,2.47-7.42,3.71-14.46,3.71-21.13,0-7.28-1.7-12.83-5.09-16.65ZM272.84,249.63c-1.89,8.61-4.06,14.39-6.53,17.31-1.84,2.19-3.94,3.29-6.3,3.29-1.79,0-3.22-.72-4.36-2.14-1.12-1.42-1.68-3.87-1.68-7.37,0-4.32.81-9.91,2.4-16.73,1.86-7.91,4.08-13.43,6.65-16.58,1.75-2.15,3.75-3.24,6-3.24,1.77,0,3.24.72,4.38,2.15,1.14,1.43,1.72,3.78,1.72,7.04,0,4.01-.77,9.42-2.28,16.26Z"/>
        <path class="cls-4" d="M471.78,138.05c-7.95,8.44-19.19,15.82-33.74,22.18l-3.18,15.04c3.67-.78,7.79-2.13,12.4-3.99,4.58-1.89,8.65-3.96,12.18-6.25l-12.51,59.73h16.98l18.17-86.7h-10.3Z"/>
        <path class="cls-4" d="M453.85,86.96c-3.19-3.58-7.25-5.36-12.18-5.36s-9.34,1.86-13.33,5.61c-3.99,3.75-7.27,9.46-9.83,17.16-2.09,6.31-3.11,12.51-3.11,18.65,0,6.78,1.6,11.96,4.81,15.52,3.19,3.58,7.27,5.38,12.2,5.38s9.4-1.86,13.33-5.57c3.95-3.71,7.06-9.03,9.4-15.99,2.31-6.94,3.46-13.55,3.46-19.8,0-6.82-1.58-12.02-4.75-15.6ZM444.82,115c-1.76,8.09-3.81,13.49-6.12,16.26-1.72,2.05-3.69,3.07-5.9,3.07-1.68,0-3.03-.68-4.09-2.01-1.04-1.33-1.58-3.62-1.58-6.9,0-4.05.76-9.29,2.25-15.7,1.74-7.41,3.83-12.59,6.24-15.52,1.64-2.03,3.5-3.05,5.61-3.05,1.68,0,3.05.68,4.11,2.03,1.06,1.35,1.6,3.54,1.6,6.59,0,3.75-.72,8.82-2.13,15.23Z"/>
        <path class="cls-4" d="M355.19,390.17c-2.73-3.11-6.23-4.64-10.5-4.64s-8.05,1.61-11.51,4.84c-3.46,3.23-6.27,8.18-8.49,14.8-1.8,5.44-2.69,10.81-2.69,16.11,0,5.86,1.39,10.33,4.14,13.42,2.77,3.08,6.29,4.64,10.56,4.64s8.1-1.59,11.51-4.8c3.4-3.19,6.11-7.81,8.1-13.81,2.01-6,3-11.7,3-17.08,0-5.9-1.37-10.39-4.12-13.48ZM347.4,414.39c-1.53,6.98-3.29,11.66-5.28,14.02-1.49,1.78-3.19,2.67-5.09,2.67-1.45,0-2.63-.58-3.52-1.74-.93-1.14-1.39-3.13-1.39-5.96,0-3.5.66-8.01,1.95-13.56,1.51-6.4,3.31-10.87,5.4-13.4,1.41-1.76,3.02-2.63,4.84-2.63,1.45,0,2.63.58,3.54,1.74.93,1.16,1.39,3.07,1.39,5.69,0,3.25-.6,7.64-1.84,13.17Z"/>
        <path class="cls-4" d="M476.94,351.22c-8.9,9.45-21.55,17.75-37.86,24.89l-3.56,16.87c4.1-.88,8.72-2.37,13.89-4.47,5.17-2.13,9.72-4.47,13.71-6.99l-14.07,67h19.08l20.36-97.3h-11.55Z"/>
        <path class="cls-4" d="M396.58,94.79c-7.54,8-18.25,15.03-32.07,21.08l-3.01,14.28c3.47-.75,7.39-2.01,11.76-3.78,4.37-1.8,8.23-3.78,11.61-5.92l-11.92,56.74h16.16l17.24-82.4h-9.78Z"/>
        <path class="cls-4" d="M344.44,100.92c-3.19-3.58-7.25-5.36-12.18-5.36s-9.34,1.86-13.33,5.61c-3.99,3.75-7.27,9.46-9.83,17.16-2.09,6.31-3.11,12.51-3.11,18.65,0,6.78,1.6,11.96,4.81,15.52,3.19,3.58,7.27,5.38,12.2,5.38s9.4-1.86,13.33-5.57c3.95-3.71,7.06-9.03,9.4-15.99,2.31-6.94,3.46-13.55,3.46-19.8,0-6.82-1.58-12.02-4.75-15.6ZM335.41,128.97c-1.76,8.09-3.81,13.49-6.12,16.26-1.72,2.05-3.69,3.07-5.9,3.07-1.68,0-3.03-.68-4.09-2.01-1.04-1.33-1.58-3.62-1.58-6.9,0-4.05.76-9.29,2.25-15.7,1.74-7.41,3.83-12.59,6.24-15.52,1.64-2.03,3.5-3.05,5.61-3.05,1.68,0,3.05.68,4.11,2.03,1.06,1.35,1.6,3.54,1.6,6.59,0,3.75-.72,8.82-2.13,15.23Z"/>
        <path class="cls-4" d="M278.94,343.79c-2.28-2.59-5.19-3.87-8.75-3.87s-6.71,1.35-9.6,4.04c-2.88,2.69-5.23,6.82-7.08,12.34-1.5,4.54-2.24,9.01-2.24,13.43,0,4.88,1.16,8.61,3.45,11.18,2.31,2.57,5.25,3.87,8.8,3.87s6.75-1.33,9.6-4c2.83-2.66,5.09-6.51,6.75-11.51,1.67-5,2.5-9.75,2.5-14.24,0-4.92-1.14-8.66-3.43-11.23ZM272.45,363.98c-1.28,5.82-2.74,9.72-4.4,11.68-1.24,1.48-2.66,2.23-4.25,2.23-1.21,0-2.19-.48-2.93-1.45-.78-.95-1.16-2.61-1.16-4.97,0-2.92.55-6.68,1.62-11.3,1.26-5.33,2.76-9.06,4.5-11.17,1.17-1.47,2.52-2.19,4.04-2.19,1.21,0,2.19.48,2.95,1.45.78.97,1.16,2.55,1.16,4.75,0,2.71-.5,6.37-1.54,10.98Z"/>
        <path class="cls-4" d="M169.34,359.53c-8.9,9.45-21.55,17.75-37.86,24.89l-3.56,16.87c4.1-.88,8.72-2.37,13.89-4.47,5.17-2.13,9.72-4.47,13.71-6.99l-14.07,67h19.08l20.36-97.3h-11.55Z"/>
        <path class="cls-4" d="M280.21,2.12c-8.9,9.45-21.55,17.75-37.86,24.89l-3.56,16.87c4.1-.88,8.72-2.37,13.89-4.47,5.17-2.13,9.72-4.47,13.71-6.99l-14.07,67h19.08L291.76,2.12h-11.55Z"/>
        <path class="cls-4" d="M357.97,7c-4.13-4.67-9.41-7-15.82-7s-12.12,2.44-17.3,7.32c-5.2,4.85-9.47,12.28-12.79,22.29-2.68,8.18-4.05,16.25-4.05,24.22,0,8.8,2.09,15.53,6.25,20.19,4.16,4.64,9.47,6.97,15.88,6.97s12.2-2.41,17.33-7.21c5.12-4.83,9.17-11.75,12.17-20.78,3.03-9.04,4.53-17.59,4.53-25.72,0-8.88-2.07-15.64-6.2-20.28ZM346.25,43.45c-2.31,10.49-4.96,17.54-7.94,21.11-2.25,2.65-4.8,4-7.7,4-2.15,0-3.92-.86-5.28-2.6-1.37-1.72-2.07-4.72-2.07-8.98,0-5.26.97-12.04,2.92-20.38,2.28-9.63,4.99-16.36,8.1-20.17,2.15-2.65,4.59-3.97,7.32-3.97,2.15,0,3.94.89,5.31,2.63,1.39,1.74,2.09,4.61,2.09,8.58,0,4.85-.91,11.45-2.76,19.79Z"/>
        <path class="cls-4" d="M102.96,422.97c-8.9,9.45-21.55,17.75-37.86,24.89l-3.56,16.87c4.1-.88,8.72-2.37,13.89-4.47,5.17-2.13,9.72-4.47,13.71-6.99l-14.07,67h19.08l20.36-97.3h-11.55Z"/>
        <path class="cls-4" d="M134.86,5.3c-2.28-2.59-5.19-3.87-8.75-3.87s-6.71,1.35-9.6,4.04c-2.88,2.69-5.23,6.82-7.08,12.34-1.5,4.54-2.24,9.01-2.24,13.43,0,4.88,1.16,8.61,3.45,11.18,2.31,2.57,5.25,3.87,8.8,3.87s6.75-1.33,9.6-4c2.83-2.66,5.09-6.51,6.75-11.51,1.67-5,2.5-9.75,2.5-14.24,0-4.92-1.14-8.66-3.43-11.23ZM128.37,25.49c-1.28,5.82-2.74,9.72-4.4,11.68-1.24,1.48-2.66,2.23-4.25,2.23-1.21,0-2.19-.48-2.93-1.45-.78-.95-1.16-2.61-1.16-4.97,0-2.92.55-6.68,1.62-11.3,1.26-5.33,2.76-9.06,4.5-11.17,1.17-1.47,2.52-2.19,4.04-2.19,1.21,0,2.19.48,2.95,1.45.78.97,1.16,2.55,1.16,4.75,0,2.71-.5,6.37-1.54,10.98Z"/>
        <path class="cls-4" d="M304.41,412.02c-5.04-5.65-11.45-8.5-19.23-8.5s-14.75,3-21.06,8.9c-6.31,5.9-11.5,14.96-15.52,27.06-3.26,9.97-4.93,19.79-4.93,29.51,0,10.68,2.54,18.82,7.63,24.52,5.04,5.65,11.45,8.44,19.28,8.44s14.8-2.9,21.01-8.75c6.26-5.85,11.19-14.3,14.86-25.28,3.66-10.94,5.49-21.37,5.49-31.24,0-10.79-2.54-19.03-7.53-24.67ZM290.17,456.33c-2.8,12.77-6,21.32-9.67,25.64-2.7,3.26-5.85,4.88-9.36,4.88-2.59,0-4.78-1.07-6.41-3.15-1.68-2.09-2.49-5.75-2.49-10.94,0-6.36,1.17-14.65,3.51-24.78,2.8-11.7,6.05-19.89,9.87-24.52,2.59-3.2,5.55-4.78,8.9-4.78,2.65,0,4.78,1.07,6.46,3.15,1.68,2.14,2.54,5.65,2.54,10.43,0,5.95-1.12,13.94-3.36,24.06Z"/>
        <path class="cls-4" d="M218.66,421.45c-8.21,8.68-19.78,16.3-34.78,22.83l-3.27,15.5c3.76-.8,8.02-2.18,12.75-4.12,4.76-1.94,8.94-4.07,12.56-6.41l-12.89,61.54h17.51l18.71-89.34h-10.6Z"/>
        <path class="cls-4" d="M424.23,8.58c-3.19-3.58-7.25-5.36-12.18-5.36s-9.34,1.86-13.33,5.61c-3.99,3.75-7.27,9.46-9.83,17.16-2.09,6.31-3.11,12.51-3.11,18.65,0,6.78,1.6,11.96,4.81,15.52,3.19,3.58,7.27,5.38,12.2,5.38s9.4-1.86,13.33-5.57c3.95-3.71,7.06-9.03,9.4-15.99,2.31-6.94,3.46-13.55,3.46-19.8,0-6.82-1.58-12.02-4.75-15.6ZM415.2,36.62c-1.76,8.09-3.81,13.49-6.12,16.26-1.72,2.05-3.69,3.07-5.9,3.07-1.68,0-3.03-.68-4.09-2.01-1.04-1.33-1.58-3.62-1.58-6.9,0-4.05.76-9.29,2.25-15.7,1.74-7.41,3.83-12.59,6.24-15.52,1.64-2.03,3.5-3.05,5.61-3.05,1.68,0,3.05.68,4.11,2.03,1.06,1.35,1.6,3.54,1.6,6.59,0,3.75-.72,8.82-2.13,15.23Z"/>
        <path class="cls-4" d="M48.44,340.89c-8.9,9.45-21.55,17.75-37.86,24.89l-3.56,16.87c4.1-.88,8.72-2.37,13.89-4.47,5.17-2.13,9.72-4.47,13.71-6.99l-14.07,67h19.08l20.36-97.3h-11.55Z"/>
        <path class="cls-4" d="M41.42,64.57c-8.9,9.45-21.55,17.75-37.86,24.89l-3.56,16.87c4.1-.88,8.72-2.37,13.89-4.47,5.17-2.13,9.72-4.47,13.71-6.99l-14.07,67h19.08l20.36-97.3h-11.55Z"/>
        <path class="cls-4" d="M535.41,374.47c-3.19-3.58-7.25-5.36-12.18-5.36s-9.34,1.86-13.33,5.61c-3.99,3.75-7.27,9.46-9.83,17.16-2.09,6.31-3.11,12.51-3.11,18.65,0,6.78,1.6,11.96,4.81,15.52,3.19,3.58,7.27,5.38,12.2,5.38s9.4-1.86,13.33-5.57c3.95-3.71,7.06-9.03,9.4-15.99,2.31-6.94,3.46-13.55,3.46-19.8,0-6.82-1.58-12.02-4.75-15.6ZM526.38,402.52c-1.76,8.09-3.81,13.49-6.12,16.26-1.72,2.05-3.69,3.07-5.9,3.07-1.68,0-3.03-.68-4.09-2.01-1.04-1.33-1.58-3.62-1.58-6.9,0-4.05.76-9.29,2.25-15.7,1.74-7.41,3.83-12.59,6.24-15.52,1.64-2.03,3.5-3.05,5.61-3.05,1.68,0,3.05.68,4.11,2.03,1.06,1.35,1.6,3.54,1.6,6.59,0,3.75-.72,8.82-2.13,15.23Z"/>
        <path class="cls-4" d="M527.51,272.96c-3.19-3.58-7.25-5.36-12.18-5.36s-9.34,1.86-13.33,5.61c-3.99,3.75-7.27,9.46-9.83,17.16-2.09,6.31-3.11,12.51-3.11,18.65,0,6.78,1.6,11.96,4.81,15.52,3.19,3.58,7.27,5.38,12.2,5.38s9.4-1.86,13.33-5.57c3.95-3.71,7.06-9.03,9.4-15.99,2.31-6.94,3.46-13.55,3.46-19.8,0-6.82-1.58-12.02-4.75-15.6ZM518.49,301.01c-1.76,8.09-3.81,13.49-6.12,16.26-1.72,2.05-3.69,3.07-5.9,3.07-1.68,0-3.03-.68-4.09-2.01-1.04-1.33-1.58-3.62-1.58-6.9,0-4.05.76-9.29,2.25-15.7,1.74-7.41,3.83-12.59,6.24-15.52,1.64-2.03,3.5-3.05,5.61-3.05,1.68,0,3.05.68,4.11,2.03,1.06,1.35,1.6,3.54,1.6,6.59,0,3.75-.72,8.82-2.13,15.23Z"/>
        <path class="cls-4" d="M528.88,9.69c-10.9,11.59-26.36,21.72-46.32,30.44l-4.38,20.69c5.02-1.07,10.69-2.92,17-5.49,6.31-2.58,11.89-5.45,16.74-8.59l-17.17,82.03h23.31l24.94-119.08h-14.12Z"/>
        <path class="cls-4" d="M523.05,442.88c-6.78,7.17-16.34,13.46-28.72,18.86l-2.7,12.8c3.11-.66,6.62-1.8,10.53-3.4,3.93-1.6,7.39-3.36,10.38-5.3l-10.65,50.82h14.46l15.46-73.78h-8.75Z"/>
        <path class="cls-4" d="M467.15,467.74c-3.22-3.62-7.35-5.45-12.37-5.45s-9.46,1.9-13.53,5.7c-4.05,3.82-7.38,9.63-9.98,17.42-2.11,6.42-3.18,12.72-3.18,18.96,0,6.88,1.65,12.13,4.88,15.78,3.26,3.62,7.4,5.45,12.42,5.45s9.54-1.88,13.53-5.64c4.01-3.76,7.19-9.17,9.54-16.24,2.36-7.05,3.53-13.76,3.53-20.1,0-6.94-1.61-12.23-4.85-15.88ZM458,496.25c-1.8,8.2-3.88,13.7-6.22,16.5-1.74,2.09-3.74,3.12-5.99,3.12-1.71,0-3.08-.66-4.15-2.02-1.09-1.36-1.61-3.7-1.61-7.02,0-4.13.76-9.44,2.29-15.95,1.76-7.52,3.88-12.79,6.34-15.78,1.67-2.05,3.57-3.08,5.7-3.08,1.71,0,3.08.68,4.17,2.06,1.09,1.36,1.63,3.59,1.63,6.69,0,3.82-.72,8.97-2.15,15.49Z"/>
        <path class="cls-4" d="M403.9,410.08c-10.36,11.01-25.04,20.63-44,28.91l-4.16,19.65c4.77-1.02,10.15-2.77,16.15-5.22s11.29-5.18,15.9-8.16l-16.31,77.92h22.14l23.69-113.11h-13.42Z"/>
        <path class="cls-4" d="M41.7,275.29c-2.73-3.11-6.23-4.64-10.5-4.64s-8.05,1.61-11.51,4.84c-3.46,3.23-6.27,8.18-8.49,14.8-1.8,5.44-2.69,10.81-2.69,16.11,0,5.86,1.39,10.33,4.14,13.42,2.77,3.08,6.29,4.64,10.56,4.64s8.1-1.59,11.51-4.8c3.4-3.19,6.11-7.81,8.1-13.81,2.01-6,3-11.7,3-17.08,0-5.9-1.37-10.39-4.12-13.48ZM33.92,299.51c-1.53,6.98-3.29,11.66-5.28,14.02-1.49,1.78-3.19,2.67-5.09,2.67-1.45,0-2.63-.58-3.52-1.74-.93-1.14-1.39-3.13-1.39-5.96,0-3.5.66-8.01,1.95-13.56,1.51-6.4,3.31-10.87,5.4-13.4,1.41-1.76,3.02-2.63,4.84-2.63,1.45,0,2.63.58,3.54,1.74.93,1.16,1.39,3.07,1.39,5.69,0,3.25-.6,7.64-1.84,13.17Z"/>
        <path class="cls-4" d="M42.25,471.43c-2.28-2.59-5.19-3.87-8.75-3.87s-6.71,1.35-9.6,4.04c-2.88,2.69-5.23,6.82-7.08,12.34-1.5,4.54-2.24,9.01-2.24,13.43,0,4.88,1.16,8.61,3.45,11.18,2.31,2.57,5.25,3.87,8.8,3.87s6.75-1.33,9.6-4c2.83-2.66,5.09-6.51,6.75-11.51,1.67-5,2.5-9.75,2.5-14.24,0-4.92-1.14-8.66-3.43-11.23ZM35.76,491.62c-1.28,5.82-2.74,9.72-4.4,11.68-1.24,1.48-2.66,2.23-4.25,2.23-1.21,0-2.19-.48-2.93-1.45-.78-.95-1.16-2.61-1.16-4.97,0-2.92.55-6.68,1.62-11.3,1.26-5.33,2.76-9.06,4.5-11.17,1.17-1.47,2.52-2.19,4.04-2.19,1.21,0,2.19.48,2.95,1.45.78.97,1.16,2.55,1.16,4.75,0,2.71-.5,6.37-1.54,10.98Z"/>
        <path class="cls-4" d="M467.21,22.32c-2.28-2.59-5.19-3.87-8.75-3.87s-6.71,1.35-9.6,4.04c-2.88,2.69-5.23,6.82-7.08,12.34-1.5,4.54-2.24,9.01-2.24,13.43,0,4.88,1.16,8.61,3.45,11.18,2.31,2.57,5.25,3.87,8.8,3.87s6.75-1.33,9.6-4c2.83-2.66,5.09-6.51,6.75-11.51,1.67-5,2.5-9.75,2.5-14.24,0-4.92-1.14-8.66-3.43-11.23ZM460.72,42.51c-1.28,5.82-2.74,9.72-4.4,11.68-1.24,1.48-2.66,2.23-4.25,2.23-1.21,0-2.19-.48-2.93-1.45-.78-.95-1.16-2.61-1.16-4.97,0-2.92.55-6.68,1.62-11.3,1.26-5.33,2.76-9.06,4.5-11.17,1.17-1.47,2.52-2.19,4.04-2.19,1.21,0,2.19.48,2.95,1.45.78.97,1.16,2.55,1.16,4.75,0,2.71-.5,6.37-1.54,10.98Z"/>
        <path class="cls-4" d="M157.62,474.02c-2.31-2.63-5.28-3.93-8.89-3.93s-6.82,1.37-9.74,4.1c-2.93,2.73-5.31,6.92-7.19,12.53-1.52,4.61-2.28,9.15-2.28,13.64,0,4.96,1.17,8.74,3.51,11.36,2.35,2.61,5.33,3.93,8.94,3.93s6.85-1.35,9.74-4.07c2.87-2.7,5.17-6.61,6.85-11.69,1.7-5.08,2.54-9.9,2.54-14.46,0-4.99-1.16-8.8-3.49-11.41ZM151.03,494.53c-1.3,5.91-2.79,9.87-4.47,11.86-1.26,1.51-2.7,2.26-4.31,2.26-1.23,0-2.23-.49-2.98-1.47-.79-.96-1.17-2.65-1.17-5.05,0-2.96.56-6.78,1.65-11.48,1.28-5.42,2.8-9.2,4.57-11.34,1.19-1.49,2.56-2.23,4.1-2.23,1.23,0,2.23.49,3,1.47.79.98,1.17,2.59,1.17,4.82,0,2.75-.51,6.47-1.56,11.15Z"/>
        <path class="cls-4" d="M338.86,461.17c-5.3,5.6-12.76,10.52-22.44,14.73l-2.11,10c2.43-.52,5.17-1.4,8.23-2.66,3.07-1.25,5.77-2.63,8.11-4.14l-8.32,39.7h11.3l12.07-57.64h-6.84Z"/>
        <path class="cls-4" d="M36.39,7.2c-2.7-3.03-6.14-4.54-10.31-4.54s-7.9,1.58-11.28,4.75c-3.38,3.17-6.15,8.01-8.32,14.52-1.77,5.34-2.63,10.59-2.63,15.79,0,5.74,1.35,10.12,4.07,13.14,2.7,3.03,6.15,4.56,10.33,4.56s7.96-1.58,11.28-4.71c3.35-3.14,5.98-7.64,7.96-13.54,1.96-5.88,2.93-11.47,2.93-16.76,0-5.77-1.33-10.17-4.02-13.21ZM28.74,30.95c-1.49,6.85-3.22,11.42-5.18,13.76-1.46,1.73-3.12,2.6-4.99,2.6-1.42,0-2.57-.57-3.47-1.7-.88-1.13-1.33-3.07-1.33-5.84,0-3.43.64-7.87,1.91-13.29,1.47-6.27,3.24-10.66,5.29-13.14,1.39-1.72,2.96-2.58,4.75-2.58,1.42,0,2.58.57,3.48,1.72.9,1.14,1.35,3,1.35,5.58,0,3.17-.61,7.47-1.8,12.89Z"/>
        <path class="cls-4" d="M81.8,3.78c-4.89,5.17-11.79,9.72-20.73,13.61l-1.95,9.24c2.24-.48,4.78-1.3,7.6-2.45,2.83-1.16,5.33-2.43,7.49-3.82l-7.69,36.68h10.43L88.12,3.78h-6.32Z"/>
      </g>
    </pattern>
  </defs>
  <g id="Hintergrund">
    <path class="cls-13" d="M896.08,118.53c15.89-5.21,30.81-12.75,45.6-20.49v174.37c-12.07,2.41-24.65,2.57-36.4.89-22.65-3.24-43.98-12.72-63.86-24.07-19.87-11.35-38.58-24.63-58.26-36.31-11.57-6.87-23.61-13.24-36.63-16.62-13.92-3.61-26.55-2.27-40.16,1.44-10.27,2.8-23.76,9.83-33.34,1.54-9.87-8.53-6.13-29.74-4.66-37.25,1.02-5.17,4.04-19.62,15.97-32.92,14.79-16.5,33.66-20.51,43.56-22.61,28.54-6.06,54.83,1.52,68.86,5.57,9.58,2.76,19.01,5.61,35.62,9.46,21.42,4.96,42.86,3.85,63.7-3Z"/>
    <path class="cls-11" d="M941.68,122.28v117.67c-1.74.24-3.63.46-5.66.68-45.9,4.85-90.01-8.68-128.92-33.01-41.43-25.9-48.57-23.77-66.33-25.95-26.72-3.27-49.67,2.39-65.24,7.9.07-16.1.13-32.2.2-48.29,2.53-.98,6.26-2.42,10.81-4.08,11.99-4.39,23.06-7.99,27.4-9.26,17.06-4.97,33.6-4.35,43.73-3.33,42.74,4.32,57.69,22.09,103.11,21.72,15.54-.13,25.74-1.68,38.88-5.51,12.96-3.78,23.66-10.84,35.83-16.13,2-.87,4.07-1.69,6.2-2.42Z"/>
    <rect class="cls-8" x="314.36" y="27.36" width="307.68" height="293.58"/>
    <path class="cls-9" d="M708.13,160.47c0,4.96-.2,9.77-.59,14.35-.15,1.82-.33,3.61-.54,5.35-.17,1.39-.35,2.74-.54,4.07h0c-2.92,19.65-9.34,33.29-16.79,33.29-.59,0-1.17-.08-1.74-.25l-.15-.04-65.74-16.96v-79.62l65.66-16.93.23-.06c.57-.16,1.15-.26,1.74-.26,4.17,0,8.03,4.3,11.12,11.53,1.47,3.42,2.76,7.5,3.83,12.09.14.56.27,1.14.39,1.73.42,1.91.8,3.9,1.14,5.97.3,1.87.58,3.8.82,5.78.75,6.21,1.16,12.94,1.16,19.96Z"/>
    <polygon class="cls-7" points="314.36 27.36 314.36 320.94 272.93 293.57 272.93 0 314.36 27.36"/>
    <polygon class="cls-9" points="622.04 27.36 314.36 27.36 272.93 0 580.61 0 622.04 27.36"/>
    <path class="cls-7" d="M223.76,160.47c0,13.2-1.45,25.37-3.89,35.04h-.01c-3.01,11.96-7.53,20.11-12.67,21.73l-.15.04c-.57.17-1.15.25-1.74.25-10.19,0-18.46-25.55-18.46-57.06s8.27-57.06,18.46-57.06c.59,0,1.17.1,1.74.26l.23.06c5.11,1.68,9.6,9.8,12.59,21.69h.01c2.44,9.68,3.89,21.85,3.89,35.05Z"/>
    <path class="cls-14" d="M243.39,123.34c-33.01,26.92-59.24,31.35-76.48,30.84-49.5-1.46-75.34-45.07-125.04-39.24-18.99,2.23-33.48,10.74-41.87,16.63v110.11c10.86-13.66,28.09-30.77,53.18-38.95,24.69-8.05,45.51-3.7,58.53-2,29.97,3.92,74.14,1.11,135.01-29.93-1.11-15.82-2.22-31.65-3.33-47.47Z"/>
    <path class="cls-9" d="M291.43,125.43v70.08l-84.24,21.73c5.14-1.62,9.66-9.77,12.67-21.72h.01c2.44-9.68,3.89-21.85,3.89-35.05s-1.45-25.37-3.89-35.04h-.01c-2.99-11.9-7.48-20.02-12.59-21.7l84.16,21.7Z"/>
  </g>
  <g id="Icons">
    <g>
      <g>
        <rect class="cls-1" x="29.89" y="98.74" width="86.27" height="50.35" transform="translate(-21.32 15.35) rotate(-10.48)"/>
        <path class="cls-5" d="M109.79,85.55l1.07,5.76-84.83,15.69-1.97-10.67,35.39-6.54c3.49,1.05,6.97,2.09,10.46,3.14l39.9-7.38Z"/>
      </g>
      <rect class="cls-10" x="70.88" y="123.25" width="36.59" height="12.2" transform="translate(-22.04 18.37) rotate(-10.48)"/>
    </g>
    <g>
      <path class="cls-1" d="M176.63,215.76l-4.16,13.29c-.06.19-.26.3-.45.24l-1-.31-.42,1.36-2.42-.75-.33,1.05c-.21.66-.91,1.02-1.57.82l-10.05-3.15,6.63-21.2,2.95.92,1.46-4.69c.92-2.94,1.36-5.91,1.36-8.84,0-12.59-8.11-24.26-20.76-28.22-15.58-4.87-32.17,3.81-37.05,19.4l-1.47,4.69,3.04.95-6.63,21.21-10.05-3.15c-.66-.2-1.03-.9-.82-1.56l.34-1.08-2.33-.73c.14-.46.28-.91.42-1.37l-.99-.31c-.19-.06-.3-.26-.24-.45l4.16-13.3c.06-.19.26-.29.45-.24l.99.32.43-1.37,2.33.73.32-1.02c.21-.66.91-1.03,1.57-.82l2.77.87,1.47-4.7c1.22-3.9,3.08-7.43,5.43-10.5,8.43-11.04,23.16-16.2,37.19-11.81,17.93,5.61,27.92,24.69,22.31,42.62l-1.46,4.69,2.86.9c.66.21,1.03.91.82,1.57l-.33,1.05,2.42.76-.42,1.36.99.31c.19.06.3.26.24.46Z"/>
      <g>
        <rect class="cls-5" x="133.33" y="192.43" width="1.88" height="34.76" transform="translate(68.75 -30.51) rotate(17.37)"/>
        <rect class="cls-5" x="123.71" y="198.48" width="1.88" height="16.64" transform="translate(67.41 -27.78) rotate(17.37)"/>
        <rect class="cls-5" x="120.5" y="194.77" width="1.88" height="22.05" transform="translate(66.97 -26.87) rotate(17.37)"/>
        <rect class="cls-5" x="117.3" y="193.79" width="1.88" height="22" transform="translate(66.52 -25.96) rotate(17.37)"/>
        <rect class="cls-5" x="114.09" y="197.37" width="1.88" height="12.84" transform="translate(66.08 -25.05) rotate(17.37)"/>
        <rect class="cls-5" x="130.12" y="195.12" width="1.88" height="27.36" transform="translate(68.31 -29.6) rotate(17.37)"/>
        <rect class="cls-5" x="126.91" y="197.63" width="1.88" height="20.35" transform="translate(67.86 -28.69) rotate(17.37)"/>
        <rect class="cls-5" x="142.94" y="204.49" width="1.88" height="16.64" transform="translate(217.68 458.88) rotate(-162.63)"/>
        <rect class="cls-5" x="146.15" y="202.79" width="1.88" height="22.05" transform="translate(223.64 461.79) rotate(-162.63)"/>
        <rect class="cls-5" x="149.35" y="203.82" width="1.88" height="22" transform="translate(229.61 464.71) rotate(-162.63)"/>
        <rect class="cls-5" x="152.56" y="209.4" width="1.88" height="12.84" transform="translate(235.58 467.63) rotate(-162.63)"/>
        <rect class="cls-5" x="136.53" y="197.13" width="1.88" height="27.36" transform="translate(205.75 453.04) rotate(-162.63)"/>
        <rect class="cls-5" x="139.74" y="201.64" width="1.88" height="20.35" transform="translate(211.71 455.96) rotate(-162.63)"/>
      </g>
    </g>
    <g>
      <rect class="cls-5" x="30.26" y="175.85" width="46.74" height="66.29" transform="translate(-37.11 13.24) rotate(-10.48)"/>
      <g>
        <polygon class="cls-6" points="61.73 190.08 71.51 242.97 25.56 251.47 13.5 186.28 47.17 180.06 61.73 190.08"/>
        <polygon class="cls-1" points="49.44 192.35 47.17 180.06 61.73 190.08 49.44 192.35"/>
      </g>
    </g>
  </g>
  <g id="Zahnräder">
    <path class="cls-7" d="M521.26,159.86c-1.61-3.32-3.71-6.25-6.18-8.75l3.15-8.92c-2.75-2.27-5.77-4.16-8.97-5.64l-6.68,6.69c-3.37-1.17-6.94-1.79-10.56-1.81l-4.08-8.54c-3.46.33-6.94,1.11-10.34,2.36v9.46c-3.31,1.61-6.24,3.71-8.74,6.18l-8.92-3.15c-2.27,2.75-4.16,5.77-5.64,8.98l6.69,6.68c-1.17,3.37-1.79,6.94-1.81,10.56l-8.54,4.08c.33,3.46,1.11,6.94,2.36,10.34h9.46c1.61,3.31,3.71,6.24,6.18,8.74l-3.15,8.92c2.75,2.27,5.77,4.16,8.98,5.64l6.68-6.7c3.37,1.17,6.94,1.8,10.56,1.81l4.08,8.54c3.46-.33,6.94-1.11,10.34-2.36v-9.46c3.31-1.61,6.24-3.71,8.74-6.18l8.92,3.15c2.27-2.75,4.16-5.77,5.64-8.98l-6.7-6.68c1.17-3.37,1.79-6.94,1.81-10.56l8.54-4.08c-.33-3.46-1.11-6.94-2.36-10.33h-9.46ZM498.23,188.84c-8.13,3.52-17.58-.22-21.1-8.35-3.52-8.13.22-17.58,8.36-21.1,8.13-3.52,17.58.22,21.1,8.35,3.52,8.13-.22,17.58-8.35,21.1Z"/>
    <path class="cls-2" d="M548.51,242.52c-.93-3.57-2.42-6.86-4.36-9.78l4.83-8.14c-2.26-2.76-4.85-5.2-7.71-7.28l-7.86,5.27c-3.08-1.8-6.46-3.11-10-3.83l-2.34-9.17c-3.46-.35-7.02-.26-10.6.3l-1.83,9.28c-3.57.93-6.86,2.42-9.78,4.36l-8.13-4.83c-2.76,2.26-5.2,4.85-7.28,7.71l5.27,7.86c-1.8,3.08-3.11,6.46-3.83,10l-9.17,2.34c-.35,3.46-.26,7.02.3,10.6l9.28,1.83c.93,3.57,2.42,6.86,4.36,9.78l-4.83,8.13c2.25,2.76,4.85,5.21,7.71,7.28l7.86-5.27c3.08,1.8,6.46,3.11,10,3.83l2.34,9.17c3.46.35,7.02.26,10.6-.3l1.83-9.28c3.57-.93,6.86-2.42,9.78-4.36l8.13,4.83c2.76-2.26,5.2-4.85,7.28-7.71l-5.27-7.86c1.81-3.08,3.11-6.46,3.83-10l9.17-2.34c.35-3.46.26-7.02-.3-10.6l-9.28-1.83ZM520.29,266.46c-8.66,1.87-17.2-3.64-19.07-12.3-1.87-8.66,3.64-17.2,12.3-19.07,8.66-1.87,17.2,3.64,19.07,12.3,1.87,8.66-3.64,17.2-12.3,19.07Z"/>
    <path class="cls-12" d="M596.44,171.66c-2.31-2.87-5.03-5.25-8-7.13l1.06-9.4c-3.19-1.59-6.56-2.75-10.02-3.47l-5,8.03c-3.55-.38-7.16-.18-10.69.62l-5.9-7.4c-3.3,1.1-6.51,2.64-9.54,4.63l2.14,9.21c-2.87,2.31-5.25,5.03-7.13,8l-9.4-1.06c-1.59,3.19-2.75,6.56-3.47,10.02l8.03,5c-.38,3.55-.18,7.16.62,10.69l-7.4,5.9c1.1,3.3,2.64,6.51,4.63,9.54l9.21-2.14c2.31,2.87,5.03,5.25,8,7.13l-1.06,9.4c3.19,1.59,6.56,2.75,10.02,3.47l5-8.03c3.55.38,7.17.18,10.7-.61l5.9,7.4c3.3-1.1,6.51-2.64,9.54-4.63l-2.14-9.21c2.87-2.31,5.25-5.03,7.13-8l9.4,1.06c1.59-3.19,2.75-6.56,3.47-10.02l-8.03-5c.38-3.55.18-7.16-.61-10.69l7.4-5.9c-1.1-3.3-2.64-6.51-4.63-9.54l-9.21,2.14ZM580.54,205.08c-7.13,5.26-17.18,3.75-22.44-3.38-5.26-7.13-3.75-17.18,3.38-22.44,7.13-5.26,17.17-3.75,22.44,3.38,5.26,7.13,3.75,17.18-3.38,22.44Z"/>
    <path class="cls-7" d="M387.18,92.94c-2.46-2.74-5.3-4.98-8.36-6.69l.56-9.44c-3.27-1.42-6.7-2.4-10.19-2.93l-4.57,8.28c-3.56-.19-7.16.2-10.64,1.18l-6.28-7.08c-3.24,1.28-6.36,2.99-9.28,5.13l2.63,9.09c-2.74,2.46-4.98,5.3-6.69,8.36l-9.44-.56c-1.42,3.27-2.4,6.7-2.94,10.19l8.28,4.57c-.19,3.56.2,7.16,1.18,10.65l-7.07,6.28c1.28,3.24,2.98,6.36,5.13,9.28l9.09-2.63c2.46,2.74,5.3,4.98,8.36,6.69l-.56,9.44c3.27,1.42,6.7,2.4,10.19,2.94l4.56-8.28c3.56.19,7.16-.2,10.65-1.18l6.28,7.07c3.24-1.28,6.36-2.98,9.28-5.13l-2.63-9.09c2.74-2.46,4.98-5.3,6.69-8.37l9.44.56c1.42-3.27,2.4-6.7,2.94-10.19l-8.28-4.56c.19-3.56-.2-7.16-1.18-10.65l7.08-6.28c-1.28-3.24-2.98-6.36-5.13-9.28l-9.09,2.63ZM373.08,127.16c-6.84,5.63-16.95,4.66-22.59-2.19-5.63-6.84-4.65-16.95,2.19-22.59,6.84-5.63,16.95-4.65,22.58,2.19,5.63,6.84,4.65,16.95-2.19,22.58Z"/>
    <path class="cls-12" d="M436.26,164.81c-1.88-3.17-4.23-5.92-6.9-8.19l2.39-9.15c-2.93-2.03-6.1-3.65-9.42-4.86l-6.09,7.24c-3.46-.88-7.06-1.2-10.67-.91l-4.79-8.16c-3.42.62-6.82,1.69-10.1,3.23l.81,9.43c-3.17,1.88-5.92,4.23-8.19,6.9l-9.15-2.39c-2.03,2.93-3.66,6.1-4.86,9.42l7.24,6.09c-.88,3.46-1.2,7.07-.91,10.67l-8.16,4.79c.62,3.42,1.69,6.82,3.22,10.1l9.42-.81c1.88,3.17,4.23,5.92,6.9,8.19l-2.39,9.15c2.93,2.03,6.1,3.66,9.42,4.86l6.09-7.24c3.46.88,7.07,1.2,10.67.91l4.78,8.16c3.42-.62,6.82-1.69,10.1-3.22l-.81-9.42c3.17-1.88,5.92-4.23,8.19-6.9l9.15,2.39c2.03-2.93,3.66-6.1,4.86-9.42l-7.24-6.09c.88-3.46,1.2-7.06.91-10.67l8.16-4.79c-.62-3.42-1.69-6.82-3.23-10.1l-9.42.81ZM415.77,195.63c-7.81,4.19-17.53,1.27-21.73-6.54-4.19-7.81-1.26-17.53,6.54-21.73,7.8-4.19,17.53-1.27,21.73,6.54,4.19,7.81,1.26,17.53-6.54,21.73Z"/>
    <path class="cls-2" d="M462.69,83.46c-3.02-2.12-6.28-3.66-9.66-4.63l-1.59-9.33c-3.51-.64-7.06-.83-10.58-.56l-2.58,9.1c-3.51.62-6.93,1.81-10.1,3.55l-7.72-5.48c-2.87,1.97-5.52,4.34-7.88,7.09l4.61,8.26c-2.12,3.02-3.66,6.28-4.63,9.66l-9.33,1.58c-.64,3.51-.83,7.07-.56,10.59l9.1,2.58c.62,3.51,1.81,6.93,3.55,10.11l-5.47,7.72c1.97,2.87,4.34,5.52,7.09,7.88l8.26-4.61c3.02,2.12,6.28,3.66,9.66,4.63l1.58,9.32c3.51.65,7.07.83,10.59.56l2.58-9.1c3.52-.62,6.94-1.81,10.11-3.55l7.71,5.48c2.87-1.97,5.52-4.34,7.88-7.09l-4.61-8.26c2.12-3.02,3.66-6.28,4.63-9.66l9.33-1.58c.64-3.51.83-7.07.56-10.59l-9.1-2.58c-.62-3.51-1.81-6.93-3.55-10.1l5.48-7.72c-1.97-2.87-4.34-5.52-7.09-7.88l-8.26,4.61ZM456.67,119.97c-5.39,7.03-15.47,8.36-22.5,2.96-7.03-5.39-8.36-15.47-2.96-22.5,5.39-7.03,15.46-8.36,22.5-2.96,7.03,5.39,8.36,15.47,2.96,22.5Z"/>
  </g>
</svg>