<?xml version="1.0" encoding="UTF-8"?>
<svg id="_0043_THK_Digitalisierung" data-name="0043_THK_Digitalisierung" xmlns="http://www.w3.org/2000/svg" viewBox="0 0 678.39 507.17">
  <defs>
    <style>
      .cls-1 {
        fill: #42210b;
      }

      .cls-1, .cls-2, .cls-3, .cls-4, .cls-5, .cls-6, .cls-7, .cls-8, .cls-9, .cls-10, .cls-11, .cls-12 {
        stroke-width: 0px;
      }

      .cls-13 {
        fill: none;
        stroke: #000;
        stroke-linecap: round;
        stroke-miterlimit: 10;
        stroke-width: .25px;
      }

      .cls-2 {
        fill: #e6710a;
      }

      .cls-3 {
        fill: #873567;
      }

      .cls-4 {
        fill: #c39ab3;
      }

      .cls-5 {
        fill: #000;
      }

      .cls-6 {
        fill: #73bbe7;
      }

      .cls-7 {
        fill: #fcd9bd;
      }

      .cls-8 {
        fill: #b9ddf3;
      }

      .cls-9 {
        fill: #ec9447;
      }

      .cls-10 {
        fill: #fff;
      }

      .cls-11 {
        fill: #dec1a8;
      }

      .cls-12 {
        fill: #f2b885;
      }
    </style>
  </defs>
  <g id="Person">
    <g id="Gesicht">
      <g id="Haare">
        <path class="cls-9" d="M363.17,53.01c.06.34,1.02,6.4-3.55,10.42-3.71,3.26-8.26,2.69-8.94,2.6-.09.54-1.08,5.85-6.02,8.26-3.98,1.94-8.9,1.2-12.41-1.88-.39.38-4.45,4.38-10.37,3.43-6.31-1.01-8.87-6.72-9.03-7.09-4,1.61-8.46.39-10.76-2.77-2.81-3.88-.86-8.55-.77-8.76-.37-.28-6.36-5-5.54-12.08.43-3.82,2.62-6.36,3.54-7.32-.36-.3-3.96-3.47-3.54-8.42.3-3.64,2.66-6.84,6.09-8.32-1.67-3.38-1.14-7.43,1.31-10.19.1-.13.21-.25.34-.36.04-.05.09-.09.14-.14,1.43-1.3,3.68-1.66,5.65-.77,1.56,1.78,4.14,2.25,6.2,1.15,2-1.06,3.06-3.36,2.56-5.6.5.35,3.96,2.66,8.41,1.5,4.61-1.19,6.5-5.14,6.74-5.66,1.31,1.21,3.26,2.73,5.9,4,2.09,1.01,4.02,1.56,5.54,1.88.95-.29,1.93-.43,2.9-.42,2.52.02,4.97,1.03,6.74,2.86,3.43,3.57,2.45,8.32,2.37,8.68.64.23,4.75,1.76,6.61,6.29,1.88,4.58-.03,8.6-.33,9.2.81.84,3.68,4.01,3.99,8.98.37,5.88-3.13,9.83-3.77,10.53Z"/>
      </g>
      <g id="Kopf">
        <rect class="cls-7" x="321.88" y="59.57" width="19.42" height="40.1" rx="9.71" ry="9.71"/>
        <rect class="cls-7" x="306.36" y="8.91" width="50" height="62.16" rx="25" ry="25"/>
        <rect class="cls-7" x="299.22" y="38.72" width="11.01" height="13.07" rx="5.51" ry="5.51"/>
        <rect class="cls-7" x="353.15" y="38.72" width="11.01" height="13.07" rx="5.51" ry="5.51"/>
        <g>
          <path class="cls-11" d="M341.25,69.05c-1.49.66-3.53,1.38-6.03,1.78-2.91.46-5.4.32-7.16.07,4.42,3.29,8.84,6.58,13.27,9.88,0-1.09,0-2.03,0-2.8,0-.63,0-.68,0-3.51,0-1.97,0-2.17,0-2.6-.01-1.2-.04-2.17-.07-2.82Z"/>
          <path class="cls-11" d="M359.46,42.74c.39,0,.94,1.57.52,3-.3,1.02-1.13,2.05-1.46,1.91-.64-.26.28-4.92.95-4.91Z"/>
          <path class="cls-11" d="M303.58,42.74c-.39,0-.94,1.57-.52,3,.3,1.02,1.13,2.05,1.46,1.91.64-.26-.28-4.92-.95-4.91Z"/>
        </g>
      </g>
      <g id="Haare-2" data-name="Haare">
        <path class="cls-9" d="M347.47,16.31c.06.5.31,3.12-1.48,5.11-1.92,2.14-5.41,2.68-8.47,1.12-.11.34-.95,2.71-3.49,3.72-2.85,1.13-5.34-.45-5.57-.6-1.18.86-4.14,2.77-8.41,3.07-4.5.32-7.84-1.32-9.11-2.03-2.66,1.31-5.83.42-7.31-1.89-1.29-2.01-1.08-4.75.56-6.68-2.34-1.89-2.66-5.21-1.01-7.24.1-.13.21-.25.34-.36.04-.05.09-.09.14-.14,2.65-2.56,6.71-3.28,10.18-1.72-.17-3.07,1.57-5.91,4.33-7.1,2.95-1.27,6.48-.37,8.53,2.22,2.75-3.15,6.98-4.49,10.87-3.43,5.02,1.36,6.9,6.04,7.09,6.53.98-.41,1.97-.53,2.9-.42,2.21.25,4.06,1.77,4.51,3.64.61,2.5-1.31,5.63-4.6,6.2Z"/>
      </g>
      <g id="Azgenbrauen">
        <path class="cls-9" d="M345.57,30.69c-.67-.36-1.93-.92-3.6-1-2.1-.1-3.67.62-4.37,1-1.19-.6-1.46-1.1-1.46-1.46.02-1.25,3.36-2.59,6.36-2.3,2.03.2,4.52,1.2,4.52,2.3,0,.57-.67,1.07-1.46,1.46Z"/>
        <path class="cls-9" d="M325.59,30.69c-.67-.36-1.93-.92-3.6-1-2.1-.1-3.67.62-4.37,1-1.19-.6-1.46-1.1-1.46-1.46.02-1.25,3.36-2.59,6.36-2.3,2.03.2,4.52,1.2,4.52,2.3,0,.57-.67,1.07-1.46,1.46Z"/>
      </g>
      <g id="Augen">
        <rect class="cls-5" x="319.82" y="32.37" width="4" height="4.7" rx="2" ry="2"/>
        <rect class="cls-5" x="339.47" y="32.37" width="4" height="4.7" rx="2" ry="2"/>
      </g>
      <g id="Nase">
        <path class="cls-5" d="M332.31,49.97c-.66,0-1.36-.19-2.01-.55-.06-.03-.08-.11-.05-.17.03-.06.11-.08.17-.05.95.53,1.99.66,2.84.37.47-.16.81-.44.95-.77.34-.8.05-1.61-.88-2.46l-.12-.11c-.47-.43-1.18-1.09-1.53-2.18-.12-.37-.16-.94-.19-1.31v-.17c-.01-.45-.02-.82-.03-1.18,0-.37-.01-.73-.01-1.18,0-.07.06-.12.12-.12s.12.06.12.12c0,.44,0,.81.01,1.17,0,.37.01.73.01,1.18v.16c.04.36.08.9.2,1.25.33,1.02,1.01,1.65,1.46,2.07l.12.11c1.02.93,1.33,1.82.94,2.74-.16.39-.56.72-1.1.91-.32.11-.67.17-1.03.17Z"/>
      </g>
      <g id="Mund">
        <path class="cls-13" d="M323.52,55.42c1.29.93,3.39,2.21,6.07,2.82,2.94.67,5.29.25,6.68-.15"/>
      </g>
      <g id="Brille">
        <path class="cls-10" d="M344.72,24.12c-6.47,0-11.78,5.09-12.12,11.49h-2.48c-.34-6.39-5.64-11.49-12.12-11.49s-12.14,5.45-12.14,12.15,5.45,12.14,12.14,12.14,11.95-5.26,12.13-11.79h2.46c.18,6.53,5.55,11.79,12.13,11.79s12.14-5.45,12.14-12.14-5.44-12.15-12.14-12.15ZM318,47.41c-6.14,0-11.14-5-11.14-11.14s5-11.15,11.14-11.15,11.14,5,11.14,11.15-4.99,11.14-11.14,11.14ZM344.72,47.41c-6.14,0-11.14-5-11.14-11.14s5-11.15,11.14-11.15,11.14,5,11.14,11.15-5,11.14-11.14,11.14Z"/>
      </g>
    </g>
    <g id="Körper">
      <g id="Körper-2" data-name="Körper">
        <path class="cls-7" d="M432.18,498.01c-.14,4.21-10.15,7.76-18.36,7.17-3.31-.24-10.81-.79-13.39-6.41-1.41-3.07-.75-6.32.09-8.58.76-2.03.83-4.24.13-6.29-5.02-14.6-9.81-31.03-13.76-49.13-3.13-14.36-5.55-28.88-7.22-43.48-1.31-11.44.12-23.48-3.67-34.54-1.88-5.48-5.49-10.49-8.14-15.64-3.08-5.98-5.97-12.07-8.63-18.25-11.22-26.1-17.23-50.36-20.43-70.33-1.1.28-2.13.51-3.09.71-1.68,19.45-5.63,42.76-14.03,68.07-2.87,8.62-7.1,16.71-10.31,25.2-3.38,8.93-4.44,17.12-4.2,26.58.52,20.47-.87,41.12-3.47,61.42-2.36,18.45-5.71,35.27-9.47,50.27-.38,1.53-.23,3.12.37,4.58.51,1.25.88,2.84.53,4.53-1.2,5.68-9.47,7.17-10.36,7.33-9.02,1.63-18.26-4.6-17.88-7.74.12-.99,1.14-1.25,3.22-4.27.37-.55.71-1.07.99-1.55.67-1.11,1-2.38.97-3.68-.39-15.22-.44-31.05-.07-47.43.55-24.41,2.48-48.75,4.27-73.09,1.69-22.84-1-45.9-.33-68.87.39-13.81,1.29-27.61,2.72-41.35,2.84-27.34,8.89-54,11.59-81.41,3.17-32.2,1.25-67.71.6-78.25,10.48-2.78,24.8-5.48,41.91-5.51,17.36-.03,31.89,2.7,42.46,5.51-.38,18.93-.17,44.18,2.23,71.75,1.93,22.07,8.06,42.41,14,63.59,5.75,20.48,8.65,42.31,11.07,63.4,1.4,12.15,2.39,24.36,2.97,36.58.83,17.47,2.77,34.01,5.68,51.23,3.02,17.88,5.51,35.85,7.48,53.88.6,5.46,1.79,13.58,2.32,24.43.45,9.04.38,16.98.14,23.43-.17,4.45,2.27,8.53,6.16,10.7,2.63,1.47,4.97,3.37,4.91,5.45Z"/>
        <g id="Arme">
          <path class="cls-7" d="M440.71,134.09c-3.12,3.51-1.47,2.25-6.98,8.81-3.93,4.67-5.05,5.65-5.65,6.15-2.12,1.78-4.19,3.46-7.15,3.99-2.87.51-5.24-.31-6.65-.83-9.1-3.35-17.46-8.48-17.46-8.48-14.23-8.74-14.11-8.25-19.12-11.81-4.6-3.27-7.71-5.49-11.47-9.15-6.71-6.52-10.42-10.12-10.48-15.46-.05-5.03,3.14-11.05,9.04-13.33,6.71-2.6,12.74,1.27,13.35,1.67.01-.01,0-.05.02-.03,11.08,8.74,16.52,14.25,22,18.85,7.57,6.36,12.23,10.67,19.09,17.59,6.2-3.44,12.4-6.88,18.6-10.31,1.92-.85,4.1-.64,5.67.55.99.76,1.59,1.66,1.79,2.64.26,1.24-.19,2.29-.67,3.26-1.64,3.32-3.72,5.65-3.92,5.88Z"/>
          <path class="cls-7" d="M312.02,109.48c-1.29,5.96-8.73,10.74-23.61,20.29-5.65,3.63-8.87,5.3-15.3,8.65-11.14,5.79-13.88,6.17-16.46,5.82-2.73-.37-5.87-2.57-12.14-6.98,0,0-3.76-2.64-9.74-9.68-.69-.81-1.94-2.33-1.8-4.26.08-1.04.64-2.41,1.7-3.17,2.13-1.51,6.64,1.68,8.66,2.56,3.63,1.58,7.26,3.17,10.89,4.75,8.36-8.83,18.22-17.58,18.22-17.58,13.86-12.31,14.75-13.25,19.94-16.14.68-.38,8-3.51,13.43-.63,5.22,2.77,7.48,10.49,6.21,16.38Z"/>
        </g>
      </g>
      <g id="Schuhe">
        <path class="cls-1" d="M444.6,495.95c-7.65-2.2-13.54-4.98-19.55-6.65-.36.15-.75.3-1.17.45-2.63.96-6.46,1.96-11.13,2.04-5.15.05-9.32-1.07-12.07-2.08-.38-.14-.74-.28-1.06-.41-.82,1.79-1.73,4.07-2.37,6.77-.7,3.02-.94,5.71-.94,7.79v3.31h65.4v-3.31s-.53-3.1-17.11-7.91Z"/>
        <path class="cls-1" d="M298.63,496.07c-.65-2.7-1.56-4.98-2.38-6.77-.43.18-.92.36-1.45.55h0c-2.74.97-6.76,1.99-11.66,1.94-5.42-.09-9.7-1.43-12.31-2.49-.33.09-.66.19-.98.28-5.67,1.69-11.33,4.29-18.56,6.37-4.49,1.3-7.8,2.48-10.25,3.5-6.58,2.76-6.86,4.41-6.86,4.41v3.31h65.39v-3.31c0-2.08-.23-4.77-.93-7.79Z"/>
      </g>
      <g id="Beine">
        <path class="cls-9" d="M336.41,256.86c-4.17,26.83-8.25,53.69-12.24,80.57-7.25,48.75-14.22,97.53-20.91,146.35-5.16-1.17-11.39-2.19-18.49-2.55-6.49-.32-12.29-.03-17.21.51-5.02-42.32-7.68-94.19-3.06-152.98,3.7-47.08,11.29-88.74,19.89-123.92,13.22,2.62,29.22,4.76,47.43,5.1,1.46.03,2.91.04,4.34.05l.25,46.87Z"/>
        <path class="cls-2" d="M430.24,479.19c-5.52-.34-11.78-.43-18.62,0-7.31.46-13.9,1.42-19.63,2.55-11.13-46.81-22.52-93.56-34.17-140.23-7.04-28.24-14.18-56.45-21.41-84.65l-.25-46.87c18.35.04,34.44-1.79,47.67-4.13,11.36,31.86,22.23,68.72,30.6,110.15,12.49,61.86,16.07,117.4,15.81,163.18Z"/>
      </g>
      <g>
        <path class="cls-12" d="M336.09,242.61c-.87,0-1.75,0-2.63-.02-23.43-.3-43.33-3.82-58.51-7.65,1.49-12.91,3.76-30.03,7.26-50.1,3.66-20.96,5.8-28.7,7.27-42.84.03-.28.06-.57.09-.86l-10.33,7.2s-24.48-35.12-24.49-35.13c-.2-.28,22.23-16.44,24.39-17.79,8.62-5.34,18.82-9.7,29.08-6.97,1.13,1.3,8.94,9.99,21.8,9.95,1.02,0,2-.06,2.95-.17l3.12,144.38Z"/>
        <path class="cls-9" d="M389.69,181.39c2.79,12.5,6.08,30.82,7.26,53.93-15.55,3.81-36.31,7.35-60.86,7.29l-3.12-144.38c11.84-1.29,18.73-9.79,19.62-10.92,1.63-2.06,11.2-.55,13.64-.21,17.08,2.37,32.19,13.98,46.84,22.44l-21.41,37.08-12.23-7.06c2.67,15.19,6.31,24.2,10.26,41.83Z"/>
      </g>
    </g>
  </g>
  <g id="Tafel">
    <polygon class="cls-6" points="678.39 123.68 678.39 422.24 674.39 426.24 674.39 422.24 4 422.24 4 127.68 0 127.68 4 123.68 678.39 123.68"/>
    <rect class="cls-8" y="127.68" width="674.39" height="298.56"/>
    <g id="Hände">
      <path class="cls-7" d="M240.16,125.84v-2.16h4.56c-.23-.42-.61-1.01-1.22-1.59-.53-.51-1.46-1.23-3.95-1.97-.38-.11-1.84-.53-4.18-.83-.58-.07-4.53-.56-8.96-.02-.04,0-.06,0-.09.01-1.97.25-3.93.87-5.27,2.42-1.23,1.43-1.55,3.12-1.64,4.14,0,5.12,4.19,9.3,9.3,9.3h2.14c5.12,0,9.3-4.19,9.3-9.3Z"/>
      <path class="cls-7" d="M437.24,125.84v-2.16h-4.56c.23-.42.61-1.01,1.22-1.59.53-.51,1.46-1.23,3.95-1.97.38-.11,1.84-.53,4.18-.83.58-.07,4.53-.56,8.96-.02.04,0,.06,0,.09.01,1.97.25,3.93.87,5.27,2.42,1.23,1.43,1.55,3.12,1.64,4.14,0,5.12-4.19,9.3-9.3,9.3h-2.14c-5.12,0-9.3-4.19-9.3-9.3Z"/>
    </g>
    <g id="Personen">
      <path class="cls-3" d="M479.94,190c.36-4.43.02-8.96.16-13.4,0-.14.01-.28.01-.4v-.06c0-.11,0-.22.02-.34,0-.11,0-.19,0-.27v-.04s0-.08,0-.11v-.11c0-.09,0-.15,0-.15,0,0-1.43-6.97-1.48-7.22.36,1.77-6.6,8.83-7.68,10.64-1.59,2.69-2.87,5.59-3.58,8.64-.66,2.81-.55,5.65-.03,8.48s1.99,5.42.94,8.2c-.15.39-.34.8-.29,1.21.04.29.19.56.24.84.07.38-.03.77-.13,1.15-.93,3.42-1.66,6.98-2.79,10.34-.87,2.59-2.59,3.46-4.76,5.32-1.04.89-2.43,1.24-3.63,1.92-1.63.93-2.83,2.45-4.02,3.9-3.58,4.35-8.53,11.17-13.67,13.6-.28-.93-1.23-7.84-.48-8.54.7-.64,1.21-1.48,1.57-2.47-.05.37-.06.57-.02.54,1.86-1.45,2.06-4.1,2.35-6.33.24-1.96-.04-4.39,1.03-6.14.76-1.24,2.09-1.89,2.79-3.19,1.29-2.4.79-5.06.34-7.62-.32-1.81,2.6-4.07,3.47-5.42,2.55-3.95,3.84-9.9,2.96-14.55-.38-2-1.88-3.66-3.66-4.64,1.52-.04,2.72-1.79,2.22-3.22-.77-2.2-4.13-2.34-5.26-4.38-.83-1.51-.1-3.38-.2-5.1-.09-1.56-.93-3.06-2.21-3.95.96-.54.63-2.01.04-2.94-5.92-9.27-19.72-5.74-26.6.02-7.44,6.22-18.96,30.76-16.08,45.35-.09,2.28-3.2,3.32-4.1,5.55-.59,1.46-.6,3.27-.33,4.8.18,1.08.63,1.92,1.06,2.9.54,1.24.35,1.66.05,3.11-1.11,5.36-1.01,10.65-.26,16.04.75,5.33,1.43,10.89.46,16.23-.18.99-.37,1.98-.57,2.96-.02.12-.05.24-.08.37-.2,1-.4,2-.62,2.99-1.53,7.08-3.43,14.07-5.55,20.99-.78,2.54-1.59,5.08-2.42,7.61-.66,2.02-1.98,4.57-1.99,6.69,0,.89.32,1.83,1.03,2.37.57.44,1.32.58,2.04.65,1.1.11,2.2.09,3.3,0,.95-.07,2.71-.72,3.6-.48,1.33.36,1.74,3.28,2.1,4.34.67,1.98,1.34,3.96,2.01,5.94,1.89,5.58,3.7,11.15,5.46,16.76.02.07-2.59,2.73-2.82,3.05-.85,1.18-1.65,2.44-2.27,3.77-1.32,2.81-1.98,5.9-2.3,8.97-.47,4.5-.26,9.05-.63,13.56-.43,5.29-1.66,10.51-3.63,15.44-.3.75-.62,1.5-1.11,2.13-.52.68-1.21,1.2-1.78,1.83-1.98,2.14-2.51,5.5-1.28,8.15.45.97,1.13,1.86,2.06,2.39,1.28.74,2.55.44,3.89.74,1.06.23,2.19.96,3.1,1.52,2.48,1.53,4.71,3.66,7.27,5.16,2.96,1.74,5.54,1.79,8.83,1.2.32-.06.71-.09.92.15-.17.62-1.12,2.72-.86,3.28.23.49,2.37,1.09,2.83.91.36-.14,1.87-4.58,1.58-4.77.6.4,1.48-.12,1.67-.82s-.1-1.43-.46-2.06c.24.6,1.08.83,1.64.51s.82-1.05.69-1.69-.58-1.17-1.12-1.53c.54.07,1.11.14,1.63,0s1.01-.59,1.05-1.14c.07-1.16-.84-2.76,1.31-1.81,2.07.91,3.96,2.18,5.99,3.18s4.28,1.74,6.52,1.47c.57-.07,1.14-.2,1.71-.23,1.22-.05,2.39.39,3.59.64s2.55.26,3.5-.5c.92-.75.97-2.19.16-3.02.53-.19,1.16-.22,1.69-.46.6-.27,1.08-1.05.68-1.58-.13-.18-.34-.29-.55-.38-.7-.31-1.47-.46-2.23-.43.96-.24,3.09.58,3-1.23-.03-.58-.53-1.11-1.11-1.16.62-.07,1.11-.69,1.05-1.31-.1-.91-1.33-1.14-1.91-1.72-.88-.88-2.19-1.2-3.44-1.25-1.54-.07-3.07.11-4.61-.02-2.13-.18-4.32-.69-5.96-2.07-2.33-1.96-3.13-5.3-3.05-8.23.07-2.9.92-5.73,1.78-8.5,2.28-7.29,4.76-14.57,5.8-22.14.52-3.78.69-7.6.85-11.42.1-2.31-.04-4.82.51-7.04.61-2.46,1.36-4.91,2.02-7.36l4.15-15.45c.66-2.45,1.32-4.89,1.97-7.34.49-1.81.26-3.98,2.57-3.38,1.22.32,2.69.46,3.16-1.15.14-.47.1-.99.29-1.45.24-.58.79-.96,1.22-1.42,1.24-1.32-.4-2.11.15-3.31.11-.24.33-.39.51-.58.46-.48.6-1.24.34-1.86-.14-.34-.38-.63-.44-.99-.1-.63.39-1.18.54-1.8.19-.77-.24-1.64-.96-1.96-.78-.35-1.67-.03-2.45-.04,0-1.39.7-3.02,1.07-4.38.63-2.33,1.25-4.66,1.88-6.98,1.41-5.23,2.81-10.47,4.22-15.7.57-2.13,1.14-4.26,1.72-6.38.57.31,1.31.51,2.15.45,1.65-.1,4.65-1.51,2.61-3.46.99-.87,1.11-2.55.26-3.56.24.29,1-1.89,1.03-2.04.26-1.25.81-3.08.3-4.32-.4-.94-1.75-1.05-2.58-.87.3-1.7.84-3.38,1.29-5.05.71-2.64,2.35-4.19,3.09-6.6.73-2.35,1.15-4.8,1.25-7.26.87.03,1.25-1.08,1.36-1.95.1-.8.2-1.6.3-2.4.2-1.39,3.5-2.45,4.12-3.95,1.13-2.73,1.65-5.56,1.89-8.43ZM420,362.33c-.1,3.33-.49,6.66-1.17,9.92-.18.86-.38,1.74-.81,2.51-.4.72-.98,1.32-1.44,2-1.86,2.75-1.47,6.5.64,8.99.1.11.21.21.31.31-5.39-1.08-11.92-3.09-8.29-15.46.34-.65.7-1.3,1.05-1.95.35-.64.7-1.28,1.06-1.92,2.93-5.17,4.54-11.29,7.72-16.29,1.12,3.15.98,7.33.95,10.65,0,.41-.01.81-.02,1.22ZM440.24,310.46c-.51-2.19-1.03-4.72-1.05-6.97-.02-2.07.45-4.24.59-6.31.15-2.38.26-4.94.33-7.65.02-1,.05-2.02.05-3.05.02-1.03.02-2.08.03-3.14,0-.81-.15-1.87.14-2.57,2.36,1.34,4.4,3.17,6.77,4.5-2.23,7.55-4.11,15.25-6.16,22.86-.21.79-.58,1.51-.71,2.33ZM450.46,272.62s-.02.01-.04.02c.21-.97.51-1.92.77-2.88-.6-.54-1.51-.66-2.29-.46s-1.48.65-2.13,1.15c-.52.4-1.03.85-1.66,1.07-1.87.66-3.96-2.47-5.1-3.62-.05-1.99-.11-3.98-.17-5.94-.02-.57-.04-1.13-.06-1.7.18-.18.34-.35.52-.54,5.63-5.17,8.4-12.56,13.53-18.2.38-.42.78-.84,1.29-1.09,1.09-.53,2.94-.41,3.97-.05.84.3-5.74,23.99-6.31,26.02-.4,1.39-.96,5.43-2.31,6.22ZM463.06,225.8c.04-.05,0-.11.07-.15-.01.05-.04.1-.07.15Z"/>
      <path class="cls-3" d="M372.55,252.29c.87,2.56-1.54,4.95-3.6,6.71-5.72,4.91-12.52,11.71-14.61,19.18-.44.52-.89,1.05-1.33,1.57-1.14,2.65-2.12,5.12-2.85,7.02-.57,1.48-.93,2.75-1.16,4.21-.21,1.37.26,3.38-.2,4.62-.16.44-.51.79-.61,1.25-.16.72.34,1.45.21,2.18-.18.98-1.39,1.45-1.75,2.38-.16.4-.14.84-.24,1.26-.35,1.41-2.3,2.12-3.48,1.26.06.05-1.98,4.92-2.1,5.28-2.13,6.2-1.83,8.11-4.46,6.49-.7-.44-1.44-1.08-2.12-1.8-2.01-2.1-2.41-5.17-1.24-7.79.38-.84,4-5.15,2.8-6.02-3.65-2.64-7.39-5.05-11.16-7.53.52.34-.66,8.26-2,7.02-.17-.16-.6-1.55-.55-1.77-.07.33-.15.65-.24.96.27,1.53.27,3.06-.44,4.67-.33.73-1.04.92-1.7.79.48.57.98,1.13,1.48,1.68.24.26.48.52.72.79,7.32,7.99,16.05,13.45,19.8,24.14,1.16,3.3,2.01,7.62.28,10.85-.49,2.7-1.02,5.55-1.05,5.81-1.99,8.78-6.41,15.87-9.61,23.87-.34.64-.68,1.28-1.02,1.93-.34.64-.67,1.3-1,1.96-1.02,3.83-1.71,8.91,1.66,11.82,3.65,3.16,8.12,1.85,12.45,1.56,1.02-.07,2.13-.08,2.94.54s.97,2.11.05,2.55c.81.18.88,1.44.27,2.01s-1.52.63-2.35.65c.93.16,1.55,1.29,1.19,2.16-.36.87-1.6,1.23-2.37.68.97.32.87,1.94-.04,2.4s-2.06-.03-2.71-.81c.41.4.83.82,1,1.37s-.03,1.25-.57,1.45c-.77.28-1.44-.57-2.18-.92-1.1-.52-2.36.13-3.53.45-3.18.88-6.5-.67-9.27-2.45-2.78-1.78-5.53-3.89-8.8-4.3-.99-.12-2-.09-2.96-.35-1.78-.49-3.2-2.02-3.71-3.8s-.15-3.75.81-5.33c.6-.99,1.41-1.84,2.1-2.78,4.24-5.75,4.54-14.4,4.65-21.25.06-3.75.02-7.52.48-11.24.12-.93,2.7-11.28,3.41-10.85-2.49-1.49-4.98-2.98-7.48-4.47-.86,6.1-1.87,12.54-5.78,17.3-3.64,4.42-9.52,8.12-14.53,10.77-3.5,1.85-7.16,3.37-10.75,5.05-3.08,1.44-6.71,2.48-9.4,4.59-1.99,1.56-3.49,3.98-3.28,6.5.4,4.59,5.87,7.14,7.17,11.56.19.64.27,1.37-.07,1.94s-1.24.82-1.69.32c.7.45.04,1.68-.79,1.69s-1.5-.66-2.04-1.29c1.03.15,1.5,1.68.76,2.41s-2.22.31-2.51-.7c.25.96-.69,1.93-1.68,2s-1.92-.53-2.58-1.27-1.12-1.64-1.72-2.43c-1.14-1.5-2.74-2.61-3.86-4.13-2.79-3.79-1.9-10.92-6.27-13.52-.18-.11-.34-.24-.5-.37-.04-.03-.08-.07-.11-.11-.15-.14-.27-.29-.39-.46-2.12-3.11.97-7.57,4.08-8.5,1.67-.5,3.49-.31,5.16-.82.98-.3,1.88-.83,2.74-1.4,2.45-1.6,4.73-3.46,6.78-5.55,3.13-3.2,5.71-6.9,8.87-10.06,2.55-2.55,5.6-4.81,9.12-5.77,1.26-.34,2.71-.12,3.15-1.55.34-1.13-.83-2.84-1.15-3.89-1.08-3.49-2.07-7.02-2.97-10.56-1.16-4.54-2.17-9.12-3.04-13.73-.43-2.29-.94-4.61-1.19-6.93-.23-2.08.45-3.93.45-5.94,0-.08,0-.15,0-.22-.08-.03,0-.38.18-.97,1.02-3.58,5.88-13.81,6.51-24.72.21-10.09-1.52-20.39-1.51-29.49-.99,1.18-2.18,2.16-3.7,2.81-.85.37-1.96-.72-1.08-1.41,2.76-2.19,3.15-6.49,4.17-9.68.08-.23.15-.47.22-.73-1.22,1.13-2.61,2.07-4.03,2.9-.82.48-1.57-.6-.98-1.27,2.19-2.45,3.54-5.34,5.21-8.13.12-.2.25-.4.39-.6-1.67,1.3-3.25,2.75-5.14,3.65-.05.02-.11-.02-.09-.07,1.4-4.82,5.56-7.23,9.59-9.57-1.33.07-2.67.13-4,.2-.17,0-.35.01-.48-.09-.39-.29.08-.87.5-1.1,1.12-.62,2.25-1.24,3.37-1.86.58-.32,1.16-.64,1.78-.84,1.82-.59,3.8-.13,5.64.42.59.18,1.83-3.24,1.86-3.7.11-1.55-.73-2.4-1.3-3.84-.34,1.2-.83,2.36-1.55,3.48-.37.56-1.12.18-1.02-.43.5-3.32-.51-6.59-.54-9.95-1.12,1.51-2.45,2.84-4.18,3.78-.57.31-1.1-.3-.85-.85,1.93-4.13,3.22-8.8,5.32-12.94-1.76,1.34-3.51,3.02-5.53,3.22-.05,0-.09-.05-.1-.09-.34-3.12,4.08-7.01,6.19-8.88,1.11-.99,2.36-1.88,3.71-2.62-1.41.27-2.82.53-4.26.64-.21.02-.28-.31-.11-.41,7.07-4.1,12.84-5.81,20.66-2.89,2.64.98,5.35,2,7.5,3.83.95.81,1.88,1.82,3.12,1.99.99.13,2.04-.31,2.98.05,1.52.57,1.62,2.71,1.13,4.26s-1.33,3.2-.74,4.71c.48,1.22,1.73,1.92,2.88,2.56s2.38,1.42,2.72,2.69c.34,1.27-.95,2.88-2.12,2.29.31,1.1,1,2.1,1.93,2.77.44.32.95.59,1.24,1.06.34.54.3,1.23.25,1.87-.39,4.86-.85,9.94-3.49,14.05-1.67,2.6-4.17,4.65-7.04,5.79-.19.08-.4.15-.59.1-1.15-.26.65-2.51-.36-3.13-.56,1.51-1.12,3.01-1.68,4.52-.99-1.9-2.51-3.52-4.33-4.64.42.74-.86,1.48-1.56.99s-.8-1.47-.81-2.32-.04-1.81-.67-2.38c-.34-.31-.28,2.2-.28,2.41.06,1.58.35,2.32,1.14,3.75,1.77,3.21,4.21,6,5.83,9.32,2.01,4.14,2.6,9.55-.43,13,2.91,2.85,4.95,6.58,5.79,10.56.05.26.1.55-.05.76-.35.51-1.13.05-1.54-.42-.87-1.01-1.75-2.02-2.62-3.03,2.26,4.62,2.13,10.33-.33,14.84-.74-.91-1.27-2-1.51-3.15,0,2.59-.27,5.2-.08,7.79,2.67,2.79,5.52,5.68,7.95,7.95.34.05.69.1,1.03.16l3.28-2.1c.86-.56,1.99-.6,2.87-.03,1.88-10.71,3.44-21.89,1.98-32.73-.23-1.7-.24-3.56.69-5,.94-1.44,3.13-2.15,4.43-1.03.78-3.47,4.41-6.03,7.94-5.61-.03-1.66,1.94-2.5,3.55-2.9.9-.22,1.86-.45,2.74-.16,1.5.48,2.2,2.21,2.42,3.77s.19,3.24,1.02,4.58c1.3,2.12,4.41,2.85,5.21,5.21Z"/>
      <path class="cls-3" d="M261.3,312.17c-.07-1.93-.87-4.08-1.49-5.5-.13-.3-.27-.59-.33-.91-.06-.34-.03-.68-.03-1.02-.02-3.18-2.73-6.54-4.49-9.03-1.95-2.76-4.07-5.42-6.38-7.9-5.17-5.53-7.99-11.45-9.65-18.81-2.14-9.48-4.09-19.01-5.83-28.58.07.56.74.96,1.26.76s.75-.95.42-1.41c3.4,1.4,7.6.59,10.24-1.97,2.7,1.94,6.9-.05,7.99-3.2,1.09-3.15-.23-6.69-2.35-9.26,1.87-.22,1.58-3.22.17-4.47-1.41-1.25-3.47-2.08-3.93-3.91-.39-1.54.56-3.05,1.18-4.51s.72-3.53-.69-4.26c-.62-.32-1.35-.27-2.04-.36-4.27-.56-6.65-6.42-10.96-6.28.08-.92.17-1.84.25-2.77-1.03.34-2.06.67-3.1,1.01.53-1.06-1.21-2.06-2.21-1.43s-1.27,1.95-1.45,3.12c.15-1.35-.7-2.76-1.97-3.25,2.12.82-3.63,6.49-4.21,6.92-3.51,2.61-7.3,4.61-10.45,7.71-1.86,1.83-3.49,3.9-5.57,5.48-4.25,3.23-8.49,4.53-11.92,8.91-8.81,11.26-7.8,26.02-8.84,39.54-.38,4.93-.76,9.87-.97,14.81-.13,3.09-.19,6.2-.75,9.24-.45,2.48-1.23,4.89-1.63,7.38-1.27,7.98,1.54,15.56,4.43,22.85,2.14,5.42,7.09,11.98,5.49,18.02-.36,1.35-1.04,2.6-1.69,3.84-3.88,7.38-6.97,15.19-8.98,23.3-1.66,6.7-3.48,12.88-6.83,18.93,2.24,1.05.46,5.02,3.49,6.77,1.9,1.1,4.17,1.31,6.21,2.12,2.54,1,4.61,2.88,6.85,4.44s4.91,2.85,7.6,2.42c1.42-.23,3-.89,4.19-.08.5.34.93.93,1.53.87,1.14-.13.64-1.91-.15-2.74.6.8,1.71,1.32,2.61.89s.98-2.04.02-2.32c.69.6,1.92.37,2.35-.43s-.03-1.95-.91-2.22c.7.45,1.69.03,2.14-.67s.5-1.57.52-2.4c.01-.41.02-.84-.15-1.22-.47-1.11-1.96-1.22-3.16-1.21-5.44.05-10.89-.86-16.02-2.65-2.46-.86,14.42-34.12,15.31-37.34.08-.48,2.25-9.73,2.29-10.19.77-2.33,1.34-5.04,1.74-8.03.08.08.17.15.24.23.07.06.12.13.19.19.12.12.24.25.36.37.07.08.13.15.2.23.1.11.2.23.3.34.07.08.13.16.2.24.08.11.17.22.25.33.06.08.12.17.18.25.08.11.15.21.22.32.06.09.11.18.17.26.07.11.14.21.2.32.05.08.11.17.15.26.06.11.12.21.18.31.05.08.09.18.14.26.05.11.11.21.16.31.04.09.08.18.11.26.05.11.1.21.15.31.03.08.07.17.1.25.05.11.09.21.13.32.03.08.06.16.09.24.04.11.08.22.11.33.02.08.05.15.08.23.03.11.07.23.1.34.02.07.05.14.06.21.04.13.07.25.11.38.02.05.03.1.04.15.05.16.08.32.11.47,0,.02,0,.03.02.05.08.36.15.71.21,1.05-.24.68-.46,1.39-.66,2.14-.11.37-.21.75-.31,1.14-2.42,9.52-3.27,19.54-3.35,29.34-.03,3.07-.21,6.66-2.73,8.41.44.62,1.44.72,1.99.2-.75,1.92.79,4.08,2.68,4.89,1.89.81,4.03.7,6.08.85,6.84.51,13.33,4.12,20.16,3.6,1.56-.12,3.57-1.38,2.78-2.72.7.19,1.5-.36,1.56-1.08s-.63-1.41-1.34-1.34c1.19.26,1.87-1.87.75-2.35.97-.96.63-2.86-.62-3.42-.49-.22-1.05-.24-1.59-.26-4.99-.18-9.99-.35-14.98-.53-.84-12.39,7.89-23.49,6.87-35.48-.03-.36.03-6.47.02-8.57.92-.08,1.26-1.13,1.18-1.92,0,.92.54,2.11,1.66,1.97.76-.1,1.34-.91,1.18-1.66-.02.8.67,1.56,1.47,1.61s1.59-.61,1.66-1.42c-.33.65.35,1.48,1.08,1.47s1.34-.63,1.57-1.33c.23-.69.17-1.45.11-2.18-.65-7.68-1.4-15.25-3.75-22.62-1.31-4.13-2.98-8.5-4.48-11.84-.77-1.72-1.23-3.62-2.04-5.29.14-.07.26-.02.37.1,3.32,3.41,6.88,6.58,10.64,9.49,1.47,1.14,3.01,2.28,3.94,3.88,1.41,2.43,1.9,6.04,2.38,8.8,0,.05.02.09.02.14.06.36.2.66-.12.9-.83.61-.31,1.74-.12,2.52.14.56.2,1.55.63,1.95.25.23.62.29.96.23.52-.09.91-.35,1.27-.71.01-.02.02-.03.03-.04,0-.02.01-.03.02-.05.08-.11.13-.24.16-.37.08-.02.17-.04.28-.07.08.08.17.15.28.19.74.32,1.5-.13,2.01-.64,0,0,.02-.02.03-.03,0-.02.02-.03.02-.05.05-.08.08-.15.11-.24.08-.23.52-.03.64,0,.28.08.54.1.83.04.48-.11.8-.36,1.14-.69,0,0,.02-.02.03-.04,0,0,.02-.02.02-.04.03-.05.06-.09.08-.15.17-.05.34-.11.5-.18.04.03.08.05.14.07,0,0,.02.02.04.02.41.2,1.04.02,1.42-.18s.69-.56.76-.99c.06-.37.1-.46.29-.79.41-.72.55-1.61.52-2.54ZM228.5,320.35c-6.32-6.92-10.26-15.45-17.56-21.57.54.45,3.97-7.33,4.22-7.9,4.83,6.6,8.72,15.13,12.38,22.46.02.03.04.06.05.09,0,0,.02.02.02.02.71,2.11,1.46,4.73.88,6.89ZM229.67,321.39c.17.33.09.65-.1.99.15-.28-.24-.65.09-1.01,0,0,0,.01.01.02Z"/>
      <path class="cls-3" d="M158.39,303.89c-.35-1.09-1.15-2.05-1.92-2.94-1.31-1.51-2.63-3.03-3.94-4.54,1.19-.26,1.6-1.89,1.08-2.99s-1.62-1.79-2.63-2.46-2.07-1.47-2.4-2.64c-.44-1.53.5-3.07,1.13-4.53s.81-3.51-.56-4.32c-.75-.44-1.68-.33-2.54-.47-4.14-.65-6.21-5.45-10.63-6.3.85-2.36-1.07-2.57-2.65-1.47-.29-1.05-1.03-2.37-2.07-2.07-1.33.39-.76,2.65-1.82,3.55,0-.74,0-1.52-.36-2.18s-1.15-1.14-1.84-.86c.58,1.72-.23,3.65-1.48,4.96-1.25,1.31-2.9,2.16-4.43,3.14-3.14,2-5.87,4.56-8.6,7.1-3.85,3.57-10.26,4.21-14.89,6.74-5.88,3.22-10.53,8.25-15.07,13.19-4.05,4.42-8.11,8.83-12.16,13.25-3.58,3.9-8.16,7.31-9.15,12.82-1.09,6.11,1.63,12.38,5.11,17.26,2.92,4.09,6.49,7.64,9.71,11.48,1.78,2.13,3.47,3.3,2.49,5.77-.93,2.33-3.31,4.75-4.72,6.85-4.1,6.13-6.68,18.28-13.83,21.42.98.55,2.22.6,3.25.14-.19,1.23-.78,2.4-1.65,3.29,3.48-1.2,7.04,1.19,10.4,2.68,4.18,1.85,8.94,2.38,13.43,1.48,1.2-.24,2.42-.58,3.62-.38.79.13,1.53.48,2.32.62s1.71,0,2.18-.65c.47-.65.06-1.82-.74-1.78.91.23,1.95-.45,2.11-1.38s-.6-1.91-1.54-2c.63.49,1.64.08,2.02-.63s.29-1.57.13-2.35c-.28-1.32-1.29-2.89-2.57-2.47.07-.47.15-.94.22-1.4,3.24,1.54,7.42-.03,10.48,1.84,1.41.86,2.75,2.45,4.34,2.01,1.55-.43,1.69-3.06.19-3.65.89.43,2,.72,2.82.18s.67-2.19-.32-2.2c.78.38,1.85-.16,2-1.02s-.65-1.73-1.52-1.65c1.08.16,2.13-.8,2.23-1.89s-.62-2.15-1.61-2.63c-.79-.39-1.7-.44-2.58-.49-3.47-.18-8.11.99-8.09-3.45.01-3.89,2.6-7.75,3.68-11.41,1.13-3.83,2.13-7.78,1.83-11.76-.46-6.09-3.9-11.53-7.57-16.43-1.47-1.97-.36-2.38,1.32-3.76-.46.5-.61,1.26-.37,1.89.04.12,2.3-1.76,2.5-1.93.22.37.82,1.02,1.36.81,2.03,2.44,1.86,5.94,2.24,9.1.45,3.74,1.82,7.31,3.35,10.75,1.79,4.03,3.82,7.94,6.08,11.72,1,1.67,2.05,3.34,2.61,5.2.94,3.09.4,6.33-.55,9.35-.49,1.55-2.53,4.03-1.46,5.69.51.79,1.82,1.01,2.42.28,1.37.39,2.8.49,4.22.59.93.06,1.86.13,2.8.19.41.03.82.05,1.21-.06.53-.15.95-.55,1.3-.97.79-.94,1.34-2.08,1.58-3.28,0,1.39-.02,2.77-.03,4.16.58-.31,1.06-.81,1.33-1.4-.81,2.49-.41,5.2,0,7.79.24,1.49.48,2.99.72,4.48.04.27.09.54.21.79.32.67,1.23.99,1.9.66s.98-1.23.65-1.9c-.3.86.36,1.92,1.26,2.04s1.81-.75,1.73-1.66c-.09.81.58,1.62,1.39,1.69s1.61-.62,1.65-1.43c-.33.66.37,1.5,1.11,1.48s1.35-.65,1.58-1.35.16-1.46.1-2.2c-.35-3.78.05-8.64-1.42-12.15v-.02c-.12-4.76-3.8-15.56-6.8-22.24-.74-1.64-1.39-3.56-2.02-5.47-.62-1.91-1.21-3.81-1.82-5.42-.27-.72-.5-1.44-.68-2.19-.36-1.48-.53-3-.53-4.53,0-.76.05-1.53.13-2.29.32-2.81.33-5.68.33-10.18v-.92c0-.56,0-1.1-.02-1.63-.02-1.6-.08-3.09-.18-4.5-.21-3.35-.11-6.72.24-10.06.44.33.96.59,1.41.86.05.03.11,0,.11-.06.02-.55.19-1.13.38-1.65.17.64,1.07,1.71,1.75.8.34-.46.26-1.09.16-1.65.33.38.65.76.98,1.14.58-.46.94-1.17.99-1.9,3.24,1.22,7.08.7,9.87-1.35,2.42-.31,4.9.22,7.32-.14,2.42-.37,4.96-2.15,4.87-4.59-.01-.35-.08-.68-.18-1.01ZM96.38,332.84s-.04-.05-.06-.07c.05-.03.11-.07.16-.1-.04.05-.07.11-.1.17ZM99.85,378.96s.02-.02.02-.02c.04-.02.08-.02.12-.02,0,0,.02,0,.04,0,.04.02.07.04.11.08h-.34s.04-.04.05-.05Z"/>
      <g id="Person_Tafel" data-name="Person Tafel">
        <path class="cls-3" d="M621.81,220.81c-.06-.09-.13-.18-.2-.26h0c-.52-.57-1.24-.75-1.41-.78-.04,0-.07-.02-.12-.02-.39-.05-1.24.02-2.27.62-.5.29-1.04.7-1.59,1.28,0,0-1.54,1.64-2.68,2.4-.1.06-.19.04-.19.04h-.01s1.69-2.03,1.22-3.57c-.04-.12-.19-.63-.59-.86-.83-.46-2.35.59-3.82,2.66-.5.65-1.58,1.93-2.08,2.68-.63.94-1.19,1.87-1.7,2.76-2.96,1.37-5.79,2.45-8.74,3.61-1.58.63-3.21,1.29-4.91,2.03-2.18.95-4.49,2.04-7.01,3.42-.09-.39-.19-.78-.29-1.16-.65-2.57-1.35-5.04-1.95-7.14-1.05-3.63-1.86-6.14-1.86-6.14-.01-.05-.03-.09-.04-.14l2.18-.87-6.58-16.4c-1.06-2.65-3.24-4.55-5.78-5.37-.39-.12-.78-.22-1.18-.3,0-.05.01-.1.03-.15-1.15-.41-2.61-.83-4.33-1.09-.38-.06-.78-.11-1.18-.15-1.8-.18-3.38-.11-4.66.02-.09.11-.3.34-.6.63-.36-.05-.73-.1-1.09-.15-1.49-.19-3.05-.35-4.68-.47.15-.47.24-.97.24-1.5v-7.45c0-.88,0-1.75.01-2.61t-.01,0v-.02c.17-.04.35-.07.53-.12,4.09-1.22,6.95-4.6,7.74-8.53.14-.72.22-1.45.22-2.19,0-.42-.02-.85-.07-1.27.8-.59,1.25-1.6,1.06-2.65l-.19-.99c-.06-.34-.18-.65-.36-.92-.44-.72-1.21-1.19-2.06-1.27v-.02h0c.04-.18.08-.33.08-.38-.04-2.11-.3-3.63-.52-4.58-.19-.78-.35-1.18-.35-1.18-.19-.47-.45-1.04-.73-1.61-.17-.35-.36-.71-.55-1.05.25-1.23.11-2.79-.63-4.04-1.12-1.91-3.23-2.5-4.58-2.87-.04-.01-.09-.02-.13-.04-.8-.21-1.58-.33-2.32-.38-2.73-.19-4.91.5-5.62.75-3.41,1.17-3.24,2.55-6.45,3.21-2.17.45-3.67.11-4.36,1.15-.76,1.14.12,2.94.2,3.11.3.62.79,1.17,1.42,1.65-.11.23-.21.47-.29.71-.34.99-.47,2.06-.5,2.87-.03.45-.02.81-.01,1.04.02.67.36,2.56.6,3.86.06.5.16,1,.28,1.5-.95.42-1.62,1.37-1.62,2.47v1.01c0,.6.19,1.15.53,1.6.49.67,1.28,1.1,2.17,1.1.27,0,.51-.05.76-.12.02.06.05.13.08.19.71,1.83,1.81,3.42,3.16,4.71.71.68,1.5,1.27,2.34,1.78.25.16.51.3.78.44-.08.33-.12.68-.12,1.03v10.14c0,.22.01.44.04.65.04.25.09.49.17.73-.11,0-.22,0-.32.01-1.66.08-3.26.22-4.78.38-.11-.12-.21-.22-.29-.32-.23-.25-.38-.44-.45-.53-1.01-.17-2.27-.3-3.7-.3-.73,0-1.52.04-2.35.12-2.59.27-4.69.94-6.21,1.55-.07.03-.14.06-.21.09-.04.01-.09.04-.14.06h0c-1.03.45-1.99,1.09-2.83,1.93l-5.12,5.13-4.24,4.24-3.13,3.13,3.81,3.81c-.26.45-.51.88-.75,1.3-2.22,3.89-3.76,7-5.99,11.91-.14.29-.27.58-.4.88-.01.04-.04.09-.06.13-.01.04-.03.07-.04.1-.18.4-.36.8-.55,1.22,0,.09.02.3.04.55-.12.98,0,1.79.06,2.11,1.79,7.57,3.57,15.15,5.35,22.72h0c.56,2.39,1.12,4.76,1.68,7.14.01.19.04.46.09.78.08.44.2.86.34,1.22-.05.8-.04,1.72.11,2.73.12.83.61,2.86,1.9,5.11.09.16.19.32.29.48.04.06.08.12.12.17-.33,1.14-.63,2.22-.9,3.2-.68,2.47-1.26,4.7-1.78,6.77-.39,1.58-.75,3.06-1.07,4.47-1.7,7.32-2.65,12.65-4.7,20.12-.38,1.39-.8,2.85-1.27,4.42-.32,1.04-.65,2.12-1.01,3.26-.72,2.26-2.55,7.96-5.45,15.45-.73,1.88-1.53,3.88-2.4,5.96-.06.15-.13.31-.19.46-2.59,6.2-5.23,11.87-7.78,16.97-1.16,2.29-2.29,4.47-3.4,6.53-1.76,3.28-3.45,6.27-5.02,8.94,1.16.42,2.42.94,3.75,1.54.35.17.71.33,1.06.5-.06.15-.11.31-.16.46-.29.85-.84,1.56-1.55,2.09-.05.04-.1.08-.15.12-.11-.16-.19-.31-.28-.45-.83.44-1.85,1.04-2.88,1.87-1.15.93-2.03,1.9-2.64,2.68l-.97,1.26,6.46,4.98,2.05,1.58,3.08,2.38,2.3,1.78,10.93,8.44.98-1.26s.7-1.33-4.19-8.01c-2.25-3.08-3.68-5.86-5.46-8.25-.18-.05-.37-.11-.58-.17-.06-1.37.36-2.73,1.26-3.81.11-.14.24-.29.35-.43.53.41,1.04.81,1.52,1.19.47-.56.93-1.13,1.41-1.7,1.75-2.12,3.51-4.33,5.29-6.62,1.81-2.32,3.63-4.73,5.46-7.22.98-1.33,1.96-2.68,2.93-4.06,1.75-2.45,3.49-4.98,5.23-7.58.55-.83,1.1-1.65,1.64-2.48.78-1.19,1.55-2.39,2.29-3.57,5.16-8.09,9.61-15.88,13.44-23.18.06-.11.13-.22.19-.33.37-.63.72-1.29,1.06-1.96,1.96-3.81,3.55-8.03,4.98-11.85,2.53-6.75,5.59-17.39,5.87-31.3.64,4.12,1.27,8.24,1.91,12.36.53,3.52,1.07,7.03,1.6,10.55.69,4.56,1.37,9.12,2.06,13.68.09.62.18,1.23.27,1.85.22,1.47.44,2.94.65,4.41.71,4.78,1.42,9.57,2.11,14.35.43,2.96.86,5.93,1.28,8.9.63,4.32,1.24,8.63,1.85,12.95.52,3.62,1.03,7.24,1.54,10.87.87,6.23,1.73,12.46,2.59,18.69.48-.11.99-.22,1.51-.32.8-.16,1.63-.3,2.52-.43.1.41.19.82.3,1.22.19.73.11,1.5-.17,2.2-.03.07-.06.16-.09.24h0c-.26-.09-.49-.18-.7-.27-.35.75-.72,1.68-1.01,2.77-.04.16-.09.32-.12.48-.35,1.44-.46,2.73-.46,3.73v1.6h31.36v-1.6s-.21-1.23-6.24-3.19c-.6-.19-1.25-.39-1.96-.6-.22-.06-.42-.12-.63-.19-.99-.3-1.92-.62-2.81-.94-.78-.28-1.54-.57-2.27-.84-1.09-.4-2.13-.77-3.18-1.08h0c-.04-.06-.09-.12-.14-.19-.18-.27-.34-.52-.47-.75-.08-.13-.14-.26-.2-.4-.19-.43-.27-.9-.26-1.37,0-.42.01-.84.02-1.26.35.02.68.05,1.02.08.38.04.76.07,1.12.11,1.86-15.57,3.03-33.83,2.48-54.21-.14-5.39-.42-10.94-.83-16.63-.06-.83-.12-1.67-.19-2.5-.36-4.6-.8-9.09-1.31-13.47-.43-3.76-.91-7.45-1.44-11.04-1.02-7.05-2.21-13.77-3.5-20.13,0-.01,0-.02,0-.04.01,0,.03,0,.04-.01.4-.1.81-.19,1.19-.3-.05-.41-.1-.83-.14-1.27-.49-4.12-1.14-9.05-2-14.62-.4-2.58-.84-5.29-1.34-8.13-.26-1.51-.51-2.88-.74-4.13-.55-2.92-1.02-5.24-1.42-7.34.81,1.67,1.81,3.64,3.09,6.1.7,1.35,1.49,2.86,2.39,4.54,1.19,2.24,1.88,3.52,2.51,4.27.37.68.85,1.3,1.47,1.76.19.14.66.44,1.33.66.06.02.14.04.21.06,2.24.64,4.2-.43,4.71-.73,3.42-2.22,6.84-4.45,10.26-6.67,3.32-2.16,6.62-4.31,9.94-6.45,1.5-.99,3.01-1.96,4.52-2.94.33-.21.66-.42.99-.64.76-.27,1.61-.65,2.61-1.09.68-.3,1.28-.64,1.82-.99.83-.56,1.5-1.14,2.01-1.65.47-.48.82-.9,1.04-1.18.24-.31,4.09-4.57,2.54-6.88ZM523.98,226.42l.92.92c-1.13,4.73-2.47,8.75-3.9,15.14-.31,1.37-.63,2.88-.94,4.52-.22,1.14-.43,2.33-.64,3.6-.1-1.04-.19-2.06-.3-3.1-.43-4.52-.86-9.06-1.29-13.58,2.13-2.47,4.18-4.98,6.15-7.5Z"/>
        <g id="Nummern">
          <path class="cls-4" d="M538.79,197.37c-1.01-.17-2.27-.3-3.7-.3-2.36,2.09-5.42,3.96-9.19,5.6l-.99,4.71c1.14-.24,2.44-.66,3.88-1.25,1.45-.59,2.72-1.24,3.82-1.95l-3.92,18.71h5.32l5.24-24.99c-.23-.25-.38-.44-.45-.53Z"/>
          <path class="cls-4" d="M551.11,152.23s-.02.02-.04.04c-1.83,1.93-4.4,3.61-7.73,5.06l-.73,3.47c.84-.18,1.79-.49,2.85-.92,1.06-.43,1.99-.91,2.81-1.44l-2.88,13.75h3.91l4.09-19.54.09-.42h-2.37Z"/>
          <path class="cls-4" d="M570.2,199.3c0-.05.01-.1.03-.15-1.15-.41-2.61-.83-4.33-1.09-.16,1.42-.45,3.09-.87,5.03-.83,3.78-1.79,6.33-2.87,7.62-.81.96-1.73,1.45-2.78,1.45-.78,0-1.42-.31-1.91-.94-.49-.62-.74-1.7-.74-3.24,0-1.9.34-4.34,1.06-7.36.19-.78.38-1.52.58-2.19-1.49-.19-3.05-.35-4.68-.47.15-.47.24-.97.24-1.5v-1.53c-.45.96-.87,2.02-1.26,3.17-.97,2.95-1.46,5.87-1.46,8.75,0,3.17.76,5.6,2.25,7.29,1.5,1.68,3.42,2.52,5.73,2.52s4.41-.87,6.26-2.6c1.85-1.74,3.32-4.24,4.4-7.5.81-2.4,1.32-4.71,1.52-6.93-.39-.12-.78-.22-1.18-.3Z"/>
          <path class="cls-4" d="M539.42,164.43c-.91-1.01-2.05-1.55-3.44-1.6-.34.99-.47,2.06-.5,2.87.05,0,.11,0,.16,0,.5,0,.91.2,1.23.6s.48,1.06.48,1.98c0,1.13-.21,2.65-.63,4.58-.44,1.96-.92,3.41-1.45,4.32.49.67,1.28,1.1,2.17,1.1.27,0,.51-.05.76-.12.02.06.05.13.08.19.61-.91,1.12-2,1.55-3.28.7-2.09,1.04-4.07,1.04-5.94,0-2.06-.47-3.62-1.43-4.7Z"/>
          <path class="cls-4" d="M521.6,207.09c-.71-.8-1.62-1.2-2.72-1.2-.22,0-.43.01-.64.06l-4.24,4.24c-.11.25-.2.52-.3.79-.46,1.41-.7,2.8-.7,4.17,0,.11,0,.21,0,.31.04,1.25.35,2.24.92,2.97.05.06.1.13.15.19.71.8,1.62,1.19,2.73,1.19s2.09-.41,2.97-1.24c.88-.83,1.58-2.02,2.1-3.58.52-1.55.78-3.02.78-4.42,0-1.53-.36-2.69-1.06-3.49ZM519.58,213.35c-.4,1.81-.85,3.01-1.37,3.63-.38.46-.83.69-1.32.69-.37,0-.68-.15-.91-.45-.24-.3-.35-.81-.35-1.55,0-.9.17-2.07.5-3.5.4-1.65.86-2.81,1.4-3.47.37-.45.78-.68,1.26-.68.37,0,.68.15.91.45.24.3.36.8.36,1.47,0,.84-.16,1.97-.47,3.4Z"/>
          <path class="cls-4" d="M597.62,231.39c-1.58.63-3.21,1.29-4.91,2.03-.06,1.58-.37,3.6-.92,6.1-.78,3.54-1.67,5.91-2.68,7.11-.76.9-1.62,1.35-2.59,1.35-.73,0-1.32-.29-1.79-.88-.46-.58-.69-1.59-.69-3.03,0-1.78.33-4.07.99-6.88.12-.53.25-1.04.39-1.53-.65-2.57-1.35-5.04-1.95-7.14-1.27,1.58-2.33,3.68-3.2,6.31-.91,2.76-1.37,5.49-1.37,8.18,0,2.97.7,5.24,2.12,6.8.05.06.1.12.15.17.06.02.14.04.21.06,2.24.64,4.2-.43,4.71-.73,3.42-2.22,6.84-4.45,10.26-6.67.99-3.02,1.5-5.88,1.5-8.6,0-.96-.07-1.86-.22-2.67Z"/>
          <path class="cls-4" d="M550.71,175.82c-2.12,2.25-5.12,4.22-9.01,5.92l-.28,1.32c.71.68,1.5,1.27,2.34,1.78.13-.04.27-.09.4-.15,1.22-.5,2.31-1.06,3.25-1.67l-2.95,14.08-.15.74-.24,1.12h4.53l4.85-23.14h-2.75Z"/>
          <path class="cls-4" d="M559.88,227.22c-1.12-1.26-2.55-1.88-4.28-1.88s-3.28.65-4.68,1.97c-1.4,1.32-2.55,3.32-3.45,6.03-.73,2.22-1.09,4.39-1.09,6.55,0,2.38.56,4.2,1.69,5.45,1.12,1.26,2.55,1.89,4.29,1.89s3.3-.65,4.68-1.96c1.39-1.3,2.48-3.17,3.3-5.62.81-2.44,1.22-4.76,1.22-6.96,0-2.4-.55-4.22-1.67-5.48ZM556.71,237.08c-.62,2.84-1.34,4.74-2.15,5.71-.6.72-1.29,1.08-2.07,1.08-.59,0-1.06-.24-1.44-.7-.37-.47-.55-1.27-.55-2.42,0-1.42.27-3.27.79-5.52.61-2.6,1.35-4.42,2.19-5.45.58-.71,1.23-1.07,1.97-1.07.59,0,1.07.24,1.45.71.37.47.56,1.24.56,2.32,0,1.32-.25,3.1-.75,5.35Z"/>
          <path class="cls-4" d="M563.4,171.6l-.19-.99c-.06-.34-.18-.65-.36-.92-.02.11-.04.22-.07.34-.53,2.42-1.14,4.05-1.83,4.87-.52.62-1.11.93-1.77.93-.5,0-.91-.2-1.22-.6-.32-.4-.48-1.09-.48-2.07,0-1.22.23-2.78.68-4.71.53-2.22,1.15-3.78,1.88-4.65.1-.13.21-.24.32-.35-.19-.78-.35-1.18-.35-1.18-.19-.47-.45-1.04-.73-1.61-.5.27-.97.61-1.43,1.04-1.2,1.12-2.18,2.84-2.95,5.14-.63,1.89-.93,3.76-.93,5.6,0,2.04.48,3.59,1.44,4.66.96,1.07,2.19,1.61,3.67,1.61,1.13,0,2.18-.32,3.14-.98.14-.72.22-1.45.22-2.19,0-.42-.02-.85-.07-1.27.8-.59,1.25-1.6,1.06-2.65Z"/>
          <path class="cls-4" d="M578.89,212.84h-3.22c-2.5,2.64-6.01,4.96-10.57,6.94l-.99,4.71c1.14-.24,2.44-.66,3.88-1.25,1.45-.59,2.72-1.24,3.82-1.95l-3.92,18.71h3.91c-.55-2.92-1.02-5.24-1.42-7.34.81,1.67,1.81,3.64,3.09,6.1l5.43-25.92Z"/>
          <path class="cls-4" d="M545.84,212.15c-1.83,1.94-4.42,3.64-7.76,5.1l-.73,3.47c.84-.18,1.79-.49,2.85-.92,1.06-.43,1.99-.91,2.81-1.44l-2.88,13.75h3.91l4.18-19.95h-2.37Z"/>
          <path class="cls-4" d="M515.47,225.34c-1.78,1.9-4.29,3.56-7.52,5-.08.03-.16.06-.24.1l-.17.78-.57,2.69c.84-.18,1.79-.49,2.85-.92,1.06-.43,1.99-.91,2.81-1.44l-2.88,13.75h3.91l4.18-19.95h-2.37Z"/>
          <path class="cls-4" d="M609.89,226.3c-1.83,1.94-4.42,3.64-7.76,5.1l-.73,3.47c.84-.18,1.79-.49,2.85-.92,1.06-.43,1.99-.91,2.81-1.44l-.77,3.69c1.5-.99,3.01-1.96,4.52-2.94l1.46-6.96h-2.37Z"/>
          <path class="cls-4" d="M620.19,219.78s-.07-.02-.12-.02c-.39-.05-1.24.02-2.27.62-.6.79-1.12,1.82-1.54,3.09-.46,1.41-.7,2.8-.7,4.17,0,1.18.22,2.14.66,2.89.83-.56,1.5-1.14,2.01-1.65-.04-.21-.05-.44-.05-.71,0-.9.17-2.07.5-3.5.4-1.65.86-2.81,1.4-3.47.37-.45.78-.68,1.26-.68.09,0,.18,0,.27.03-.52-.57-1.24-.75-1.41-.78Z"/>
          <path class="cls-4" d="M535.16,230.52c-.71-.8-1.62-1.2-2.72-1.2s-2.09.42-2.98,1.26c-.89.83-1.63,2.11-2.19,3.83-.46,1.41-.7,2.8-.7,4.17,0,1.51.36,2.66,1.08,3.47.71.8,1.62,1.19,2.73,1.19s2.09-.41,2.97-1.24c.88-.83,1.58-2.02,2.1-3.58.52-1.55.78-3.02.78-4.42,0-1.53-.36-2.69-1.06-3.49ZM533.15,236.79c-.4,1.81-.85,3.01-1.37,3.63-.38.46-.83.69-1.32.69-.37,0-.68-.15-.91-.45-.24-.3-.35-.81-.35-1.55,0-.9.17-2.07.5-3.5.4-1.65.86-2.81,1.4-3.47.37-.45.78-.68,1.26-.68.37,0,.68.15.91.45.24.3.36.8.36,1.47,0,.84-.16,1.97-.47,3.4Z"/>
          <path class="cls-4" d="M529.27,248.79c-1.49-1.68-3.4-2.53-5.71-2.53-1.22,0-2.39.25-3.5.76-.22,1.14-.43,2.33-.64,3.6-.1-1.04-.19-2.06-.3-3.1-.63.38-1.23.84-1.82,1.4-1.88,1.76-3.42,4.44-4.62,8.05-.12.37-.23.73-.34,1.1h0c.56,2.39,1.12,4.76,1.68,7.14.01.19.04.46.09.78.08.44.2.86.34,1.22-.05.8-.04,1.72.11,2.73.12.83.61,2.86,1.9,5.11.84.31,1.76.46,2.74.46,2.32,0,4.41-.87,6.26-2.6,1.85-1.74,3.32-4.24,4.39-7.5,1.1-3.27,1.64-6.35,1.64-9.29,0-3.21-.75-5.65-2.24-7.32ZM525.04,261.95c-.83,3.78-1.79,6.33-2.87,7.62-.81.96-1.73,1.45-2.78,1.45-.78,0-1.42-.31-1.91-.94-.49-.62-.74-1.7-.74-3.24,0-1.9.35-4.34,1.06-7.36.82-3.47,1.8-5.91,2.92-7.29.78-.96,1.65-1.43,2.65-1.43.77,0,1.42.32,1.91.95.5.63.76,1.67.76,3.1,0,1.76-.33,4.14-.99,7.15Z"/>
          <path class="cls-4" d="M546.79,250.5c-2.5,2.64-6.01,4.96-10.57,6.94l-.99,4.71c1.14-.24,2.44-.66,3.88-1.25,1.45-.59,2.72-1.24,3.82-1.95l-3.92,18.71h5.32l5.69-27.16h-3.22Z"/>
          <path class="cls-4" d="M560.43,249.8c-1.77,1.87-4.26,3.51-7.49,4.92l-.7,3.34c.81-.18,1.73-.47,2.75-.89,1.02-.42,1.92-.87,2.7-1.38l-2.78,13.25h3.77l4.03-19.23h-2.28Z"/>
          <path class="cls-4" d="M573.87,252.26c-.31-.06-.63-.09-.97-.09-1.47,0-2.8.56-4,1.68-1.2,1.12-2.18,2.84-2.95,5.14-.63,1.89-.94,3.75-.94,5.6,0,2.04.48,3.59,1.44,4.66.96,1.07,2.19,1.61,3.67,1.61s2.81-.55,4-1.67c.23-.22.45-.45.66-.7.01-.01.03-.03.04-.05.38-.45.73-.98,1.05-1.56-.49-4.12-1.14-9.05-2-14.62ZM573.84,262.2c-.53,2.42-1.14,4.05-1.83,4.87-.52.62-1.11.93-1.77.93-.5,0-.91-.2-1.22-.6-.32-.4-.48-1.09-.48-2.07,0-1.22.23-2.78.68-4.71.53-2.22,1.15-3.78,1.88-4.65.49-.61,1.05-.91,1.68-.91.5,0,.91.2,1.23.6.32.4.48,1.06.48,1.98,0,1.13-.21,2.65-.64,4.57Z"/>
          <path class="cls-4" d="M566.25,278.04c-1.49-1.68-3.4-2.53-5.71-2.53s-4.38.88-6.24,2.65c-1.88,1.75-3.42,4.44-4.63,8.05-.55,1.68-.95,3.36-1.18,5.02.53,3.52,1.07,7.03,1.6,10.55.11.16.24.32.37.46,1.5,1.68,3.42,2.52,5.73,2.52s4.4-.87,6.26-2.6c1.85-1.74,3.31-4.24,4.39-7.5,1.09-3.27,1.63-6.35,1.63-9.29,0-3.21-.74-5.65-2.24-7.32ZM562.02,291.19c-.83,3.79-1.79,6.34-2.87,7.62-.81.96-1.73,1.45-2.78,1.45-.78,0-1.42-.31-1.91-.94-.5-.62-.75-1.7-.75-3.24,0-1.9.35-4.35,1.06-7.36.82-3.48,1.8-5.91,2.92-7.29.78-.96,1.66-1.43,2.65-1.43.78,0,1.42.32,1.92.95.5.63.76,1.67.76,3.1,0,1.76-.33,4.14-1,7.14Z"/>
          <path class="cls-4" d="M578.28,288.63c-1.62,1.3-3.64,2.48-6.05,3.53l-.73,3.47c.84-.18,1.79-.49,2.85-.92,1.06-.43,1.99-.91,2.81-1.44l-2.88,13.75h3.91l1.54-7.34c-.43-3.76-.91-7.45-1.44-11.04Z"/>
          <path class="cls-4" d="M564.19,307.02c-2.96,3.15-6.98,5.96-12.04,8.44.09.62.18,1.23.27,1.85.22,1.47.44,2.94.65,4.41.13-.05.26-.11.39-.16,2.01-.82,3.78-1.73,5.33-2.73l-3.6,17.24c.43,2.96.86,5.93,1.28,8.9h4.28l7.95-37.94h-4.5Z"/>
          <path class="cls-4" d="M532.26,275.68c-1.83,1.94-4.42,3.64-7.76,5.1l-.73,3.47c.84-.18,1.79-.49,2.85-.92,1.06-.43,1.99-.91,2.81-1.44l-2.88,13.75h3.91l4.18-19.95h-2.37Z"/>
          <path class="cls-4" d="M519.13,288.16c-1.32-1.49-2.96-2.32-4.93-2.5-.39,1.58-.75,3.06-1.07,4.47.03,0,.06,0,.09,0,.78,0,1.42.32,1.92.95.5.63.76,1.67.76,3.1,0,1.76-.33,4.14-1,7.15-.83,3.78-1.79,6.33-2.87,7.62-.81.96-1.73,1.45-2.78,1.45-.3,0-.58-.04-.83-.14-.38,1.39-.8,2.85-1.27,4.42.6.14,1.24.22,1.92.22,2.32,0,4.4-.88,6.26-2.61,1.85-1.74,3.31-4.24,4.39-7.5,1.09-3.27,1.63-6.35,1.63-9.29,0-3.21-.74-5.65-2.24-7.32Z"/>
          <path class="cls-4" d="M537.79,296.81c-2.5,2.64-6.01,4.96-10.57,6.94l-.99,4.71c1.14-.24,2.44-.66,3.88-1.25,1.45-.59,2.72-1.24,3.82-1.95l-3.92,18.71h4.68c.37-.63.72-1.29,1.06-1.96l5.28-25.2h-3.22Z"/>
          <path class="cls-4" d="M578.65,341.91c-2.5,2.64-6.01,4.96-10.57,6.94l-.99,4.71c1.14-.24,2.44-.66,3.88-1.25,1.45-.59,2.72-1.24,3.82-1.95l-3.92,18.71h5.32l5.69-27.16h-3.22Z"/>
          <path class="cls-4" d="M581.21,315.65c-.78-.4-1.67-.6-2.65-.6-1.72,0-3.28.65-4.68,1.97-1.4,1.32-2.55,3.32-3.45,6.03-.73,2.22-1.09,4.39-1.09,6.55,0,2.38.56,4.2,1.69,5.45,1.12,1.26,2.55,1.89,4.29,1.89s3.3-.65,4.68-1.96c.77-.73,1.45-1.63,2.04-2.7-.14-5.39-.42-10.94-.83-16.63ZM579.67,326.78c-.62,2.84-1.34,4.74-2.15,5.71-.6.72-1.29,1.08-2.07,1.08-.59,0-1.06-.24-1.44-.7-.37-.47-.55-1.27-.55-2.42,0-1.42.27-3.27.79-5.52.61-2.6,1.34-4.42,2.19-5.45.58-.71,1.23-1.07,1.97-1.07.59,0,1.07.24,1.45.71s.56,1.24.56,2.32c0,1.32-.25,3.1-.75,5.35Z"/>
          <path class="cls-4" d="M516.99,345.84c-1.72,0-3.28.65-4.68,1.97-1.4,1.32-2.55,3.32-3.45,6.03-.73,2.22-1.09,4.39-1.09,6.55,0,1.99.4,3.59,1.19,4.79.98-1.33,1.96-2.68,2.93-4.06.01-1.4.28-3.21.79-5.39.61-2.6,1.35-4.42,2.19-5.45.58-.71,1.23-1.07,1.97-1.07.59,0,1.07.24,1.45.71.22.28.37.65.47,1.14.78-1.19,1.55-2.39,2.29-3.57-1.09-1.1-2.44-1.65-4.06-1.65Z"/>
          <path class="cls-4" d="M524.74,316.93c-1.12-1.26-2.55-1.88-4.28-1.88s-3.28.65-4.68,1.97c-1.4,1.32-2.55,3.32-3.45,6.03-.73,2.22-1.09,4.39-1.09,6.55,0,2.38.56,4.2,1.69,5.45,1.12,1.26,2.55,1.89,4.29,1.89s3.3-.65,4.68-1.96c1.39-1.3,2.48-3.17,3.3-5.62.81-2.44,1.22-4.76,1.22-6.96,0-2.4-.55-4.22-1.67-5.48ZM521.57,326.78c-.62,2.84-1.34,4.74-2.15,5.71-.6.72-1.29,1.08-2.07,1.08-.59,0-1.06-.24-1.44-.7-.37-.47-.55-1.27-.55-2.42,0-1.42.27-3.27.79-5.52.61-2.6,1.35-4.42,2.19-5.45.58-.71,1.23-1.07,1.97-1.07.59,0,1.07.24,1.45.71s.56,1.24.56,2.32c0,1.32-.25,3.1-.75,5.35Z"/>
          <path class="cls-4" d="M578.44,386.38c.42-1.73.64-3.39.64-4.98,0-2.4-.55-4.22-1.67-5.48-1.12-1.26-2.55-1.88-4.28-1.88s-3.28.65-4.68,1.97c-1.4,1.32-2.55,3.32-3.45,6.03-.57,1.73-.91,3.43-1.04,5.11.8-.16,1.63-.3,2.52-.43.1.41.19.82.3,1.22.19.73.11,1.5-.17,2.2-.03.07-.06.16-.09.24h0c-.26-.09-.49-.18-.7-.27-.35.75-.72,1.68-1.01,2.77.22.43.49.81.8,1.16,1.12,1.26,2.55,1.89,4.29,1.89s3.3-.65,4.68-1.96c1.28-1.2,2.31-2.88,3.09-5.05-.19-.43-.27-.9-.26-1.37,0-.42.01-.84.02-1.26.35.02.68.05,1.02.08ZM574.24,385.78c-.62,2.84-1.34,4.74-2.15,5.71-.6.72-1.29,1.08-2.07,1.08-.59,0-1.06-.24-1.44-.7-.37-.47-.55-1.27-.55-2.42,0-1.42.27-3.27.79-5.52.61-2.6,1.35-4.42,2.19-5.45.58-.71,1.23-1.07,1.97-1.07.59,0,1.07.24,1.45.71.37.47.56,1.24.56,2.32,0,1.32-.25,3.1-.75,5.35Z"/>
          <path class="cls-4" d="M505.26,329.63c-1.26,1.33-2.78,2.58-4.56,3.76-.73,1.88-1.53,3.88-2.4,5.96-.06.15-.13.31-.19.46,1.23-.53,2.32-1.1,3.29-1.73l-3.92,18.71h5.32l5.69-27.16h-3.22Z"/>
          <path class="cls-4" d="M490.99,356.1c-.21.22-.43.45-.66.67-1.16,2.29-2.29,4.47-3.4,6.53.37-.19.72-.4,1.05-.6l-2.32,11.08c.35.17.71.33,1.06.5-.06.15-.11.31-.16.46-.29.85-.84,1.56-1.55,2.09l-.09.45h4.15l4.44-21.18h-2.52Z"/>
          <path class="cls-4" d="M491.61,385.36c-.71-.8-1.62-1.2-2.72-1.2s-2.09.42-2.98,1.26c-.51.48-.97,1.11-1.37,1.88l2.05,1.58c.29-.84.6-1.47.95-1.9.37-.45.78-.68,1.26-.68.37,0,.68.15.91.45.24.3.36.8.36,1.47,0,.77-.13,1.78-.4,3.04l2.3,1.78c.47-1.46.71-2.86.71-4.19,0-1.53-.36-2.69-1.06-3.49Z"/>
          <path class="cls-4" d="M565.31,356.12c-.71-.8-1.62-1.2-2.72-1.2s-2.09.42-2.98,1.26c-.48.45-.91,1.03-1.29,1.73.52,3.62,1.03,7.24,1.54,10.87.22.04.44.06.67.06,1.1,0,2.09-.41,2.97-1.24.88-.83,1.58-2.02,2.1-3.57.52-1.55.78-3.02.78-4.42,0-1.53-.36-2.69-1.06-3.49ZM563.3,362.38c-.4,1.81-.85,3.01-1.37,3.63-.38.46-.83.69-1.32.69-.37,0-.68-.15-.91-.45-.24-.29-.35-.81-.35-1.55,0-.9.17-2.07.5-3.5.4-1.65.86-2.81,1.4-3.47.37-.45.78-.68,1.26-.68.37,0,.68.15.91.45.24.3.36.8.36,1.47,0,.84-.16,1.97-.47,3.4Z"/>
          <path class="cls-4" d="M587.37,393.31c-.22-.06-.42-.12-.63-.19,0,.83-.17,1.93-.47,3.32-.19.9-.41,1.65-.64,2.25h2.72c.08-.2.15-.4.22-.61.49-1.45.75-2.85.77-4.17-.6-.19-1.25-.39-1.96-.6ZM581.66,391.34c-.49.73-.91,1.64-1.27,2.72-.46,1.41-.7,2.8-.7,4.17,0,.16,0,.31.01.46h2.61c0-.88.17-2.04.5-3.43.32-1.37.7-2.4,1.12-3.08-.78-.28-1.54-.57-2.27-.84Z"/>
          <path class="cls-4" d="M502.19,367.31c-1.83,1.94-4.42,3.64-7.76,5.1l-.73,3.47c.84-.18,1.79-.49,2.85-.92,1.06-.43,1.99-.91,2.81-1.44l-1.15,5.51c1.75-2.12,3.51-4.33,5.29-6.62l1.06-5.09h-2.37Z"/>
        </g>
      </g>
    </g>
  </g>
</svg>