<?xml version="1.0" encoding="UTF-8"?>
<svg id="_0044_THK_Metadaten" data-name="0044_THK_Metadaten" xmlns="http://www.w3.org/2000/svg" viewBox="0 0 369.68 490.9">
  <defs>
    <style>
      .cls-1 {
        fill: #42210b;
      }

      .cls-1, .cls-2, .cls-3, .cls-4, .cls-5, .cls-6, .cls-7, .cls-8, .cls-9, .cls-10, .cls-11, .cls-12, .cls-13 {
        stroke-width: 0px;
      }

      .cls-2 {
        fill: #308fc9;
      }

      .cls-3 {
        fill: #64abd6;
      }

      .cls-4 {
        fill: #e6710a;
      }

      .cls-5 {
        fill: #873567;
      }

      .cls-6 {
        fill: #000;
      }

      .cls-7 {
        fill: #96cced;
      }

      .cls-8 {
        fill: #236289;
      }

      .cls-9 {
        fill: #b9ddf3;
      }

      .cls-10 {
        fill: #825832;
      }

      .cls-11 {
        fill: #ec9447;
      }

      .cls-12 {
        fill: #fff;
      }

      .cls-13 {
        fill: #e1ccd9;
      }
    </style>
  </defs>
  <g id="Text">
    <g id="Format">
      <polygon class="cls-13" points="124.68 100.35 117.4 136.26 0 136.26 7.28 100.35 124.68 100.35"/>
      <g>
        <path class="cls-5" d="M23.81,124.52l3.19-15.21h10.65l-.54,2.54h-7.51l-.77,3.65h7.37l-.53,2.54h-7.37l-1.35,6.48h-3.13Z"/>
        <path class="cls-5" d="M37.25,119.94c0-2.04.58-3.67,1.73-4.88,1.15-1.21,2.67-1.82,4.54-1.82,1.63,0,2.9.45,3.81,1.34s1.37,2.1,1.37,3.62c0,1.78-.57,3.33-1.71,4.63-1.14,1.3-2.67,1.95-4.59,1.95-1.04,0-1.96-.21-2.76-.62-.8-.42-1.4-1-1.8-1.76-.39-.76-.59-1.58-.59-2.45ZM45.74,117.81c0-.71-.21-1.27-.62-1.7-.41-.43-.94-.64-1.59-.64s-1.21.2-1.71.6c-.5.4-.89.98-1.16,1.73s-.42,1.45-.42,2.09c0,.79.21,1.42.64,1.88.43.46.97.7,1.62.7.82,0,1.5-.35,2.05-1.05.79-.99,1.18-2.19,1.18-3.61Z"/>
        <path class="cls-5" d="M51.93,113.5h2.78l-.45,2.14c1.04-1.6,2.16-2.4,3.37-2.4.43,0,.89.11,1.38.32l-1.14,2.44c-.27-.1-.56-.15-.86-.15-.51,0-1.03.19-1.56.58s-.94.9-1.24,1.55c-.3.65-.59,1.67-.88,3.08l-.73,3.46h-2.98l2.3-11.02Z"/>
        <path class="cls-5" d="M60.28,113.5h2.8l-.28,1.34c1.09-1.07,2.24-1.6,3.45-1.6.83,0,1.47.17,1.92.52.45.35.74.82.86,1.43.38-.55.93-1.02,1.64-1.39.71-.37,1.45-.56,2.22-.56.88,0,1.56.24,2.05.71.49.47.74,1.09.74,1.87,0,.38-.1,1.04-.29,1.97l-1.41,6.73h-2.98l1.41-6.73c.17-.84.26-1.32.26-1.43,0-.3-.09-.54-.27-.72-.18-.18-.46-.26-.83-.26-.74,0-1.4.39-1.98,1.17-.42.56-.78,1.55-1.08,2.98l-1.05,5h-2.98l1.39-6.66c.16-.77.24-1.27.24-1.49,0-.29-.1-.53-.3-.72-.2-.19-.47-.28-.81-.28-.33,0-.66.1-1.01.29s-.65.46-.91.8-.48.77-.67,1.31c-.08.25-.22.81-.41,1.69l-1.06,5.06h-2.98l2.3-11.02Z"/>
        <path class="cls-5" d="M81.17,116.62l-2.91-.25c.33-.98.91-1.75,1.74-2.3.83-.55,1.92-.83,3.28-.83s2.47.29,3.14.86c.68.57,1.02,1.27,1.02,2.09,0,.33-.03.68-.09,1.06-.06.37-.26,1.36-.62,2.95-.29,1.31-.44,2.23-.44,2.76,0,.47.08.99.25,1.57h-2.9c-.12-.4-.19-.82-.22-1.25-.44.48-.94.86-1.5,1.12-.57.26-1.14.39-1.71.39-.91,0-1.67-.3-2.26-.9-.59-.6-.89-1.37-.89-2.31,0-1.05.33-1.89.98-2.52.65-.63,1.82-1.01,3.5-1.14,1.42-.12,2.37-.26,2.84-.43.12-.42.19-.75.19-1,0-.32-.13-.58-.38-.8-.26-.21-.64-.32-1.14-.32-.53,0-.95.11-1.26.33-.31.22-.52.53-.63.93ZM84,119.38c-.18.05-.42.09-.72.14-1.49.18-2.47.44-2.93.79-.33.25-.49.58-.49,1.01,0,.35.12.64.37.88.25.24.58.36.99.36.45,0,.87-.11,1.27-.33.4-.22.7-.5.89-.84.2-.34.37-.88.52-1.6l.08-.39Z"/>
        <path class="cls-5" d="M89.53,115.71l.46-2.21h1.45l.36-1.76,3.41-2.05-.8,3.82h1.82l-.46,2.21h-1.83l-.96,4.62c-.17.84-.26,1.31-.26,1.43,0,.23.07.41.22.53.15.13.41.19.79.19.13,0,.46-.02.99-.07l-.47,2.21c-.51.1-1.04.16-1.58.16-1.05,0-1.82-.2-2.29-.61s-.72-.97-.72-1.69c0-.34.13-1.12.38-2.35l.92-4.43h-1.44Z"/>
      </g>
    </g>
    <g id="Titel">
      <polygon class="cls-13" points="206.74 48.66 199.46 84.57 82.06 84.57 89.34 48.66 206.74 48.66"/>
      <g>
        <path class="cls-5" d="M129.81,74.69h-3.13l2.66-12.67h-4.46l.53-2.54h11.99l-.53,2.54h-4.4l-2.65,12.67Z"/>
        <path class="cls-5" d="M138.07,63.67h2.98l-2.3,11.02h-2.98l2.3-11.02ZM138.94,59.48h2.98l-.56,2.7h-2.98l.56-2.7Z"/>
        <path class="cls-5" d="M142.41,65.88l.46-2.21h1.45l.36-1.76,3.41-2.05-.8,3.82h1.82l-.46,2.21h-1.83l-.96,4.62c-.17.84-.26,1.31-.26,1.43,0,.23.07.41.22.53.15.13.41.19.79.19.13,0,.46-.02.99-.07l-.47,2.21c-.51.1-1.04.16-1.58.16-1.05,0-1.82-.2-2.29-.61s-.72-.97-.72-1.69c0-.34.13-1.12.38-2.35l.92-4.43h-1.44Z"/>
        <path class="cls-5" d="M148.72,74.69l3.19-15.21h2.97l-3.17,15.21h-2.98Z"/>
        <path class="cls-5" d="M165.38,70.1h-7.47c0,.12-.01.21-.01.27,0,.73.21,1.32.63,1.77.42.45.93.67,1.53.67.99,0,1.76-.51,2.31-1.54l2.67.45c-.52,1.07-1.21,1.88-2.08,2.41-.87.54-1.84.8-2.92.8-1.48,0-2.68-.47-3.61-1.41-.93-.94-1.39-2.18-1.39-3.72s.42-2.85,1.25-4.03c1.14-1.59,2.77-2.39,4.89-2.39,1.35,0,2.42.42,3.22,1.25.8.83,1.19,2,1.19,3.5,0,.72-.07,1.37-.21,1.94ZM162.87,68.29c0-.13.01-.23.01-.3,0-.82-.18-1.43-.55-1.84-.37-.41-.86-.61-1.47-.61s-1.17.23-1.66.7c-.49.46-.82,1.15-.99,2.05h4.66Z"/>
      </g>
    </g>
    <g id="Subject">
      <polygon class="cls-13" points="138.51 1.13 131.23 37.04 13.83 37.04 21.11 1.13 138.51 1.13"/>
      <g>
        <path class="cls-5" d="M36.72,21.01l2.98-.16c.04.95.2,1.59.49,1.92.46.54,1.3.81,2.53.81,1.02,0,1.76-.18,2.22-.55.46-.37.69-.81.69-1.33,0-.45-.19-.83-.56-1.14-.26-.23-.98-.6-2.16-1.11-1.18-.51-2.04-.94-2.58-1.28-.54-.34-.97-.79-1.28-1.33s-.47-1.19-.47-1.92c0-1.28.46-2.34,1.39-3.19.93-.84,2.27-1.27,4.03-1.27s3.17.42,4.15,1.26c.98.84,1.52,1.95,1.61,3.34l-3,.14c-.08-.73-.34-1.28-.79-1.67-.45-.39-1.11-.58-1.99-.58s-1.48.15-1.85.46c-.37.3-.56.69-.56,1.15,0,.44.17.8.51,1.08.34.29,1.09.69,2.25,1.19,1.75.75,2.86,1.37,3.34,1.84.71.69,1.07,1.58,1.07,2.67,0,1.34-.53,2.49-1.59,3.44-1.06.95-2.54,1.43-4.44,1.43-1.31,0-2.44-.22-3.4-.66-.96-.44-1.63-1.05-2.03-1.83-.39-.78-.58-1.68-.55-2.7Z"/>
        <path class="cls-5" d="M52.68,14.91h2.98l-1.36,6.53c-.17.78-.25,1.27-.25,1.46,0,.32.12.59.35.82.24.23.54.34.9.34.26,0,.52-.05.78-.15.26-.1.52-.25.79-.46.27-.2.51-.44.73-.7.21-.26.42-.61.6-1.04.13-.32.27-.84.43-1.56l1.1-5.25h2.98l-2.3,11.02h-2.78l.31-1.49c-1.22,1.17-2.54,1.75-3.97,1.75-.91,0-1.62-.26-2.14-.78-.52-.52-.78-1.21-.78-2.09,0-.38.12-1.14.35-2.27l1.29-6.14Z"/>
        <path class="cls-5" d="M63.29,25.93l3.18-15.21h2.99l-1.07,5.08c.55-.42,1.06-.71,1.53-.89.47-.18.99-.26,1.55-.26,1.16,0,2.09.39,2.79,1.17.7.78,1.05,1.91,1.05,3.4,0,1-.16,1.98-.49,2.92-.33.94-.77,1.71-1.32,2.3-.55.59-1.13,1.03-1.73,1.32-.61.29-1.24.43-1.9.43-1.58,0-2.74-.69-3.48-2.08l-.38,1.82h-2.71ZM67.31,21.44c0,.74.21,1.34.63,1.81.42.46.91.7,1.48.7.5,0,.97-.18,1.43-.54.45-.36.83-.93,1.13-1.72.3-.79.45-1.58.45-2.39s-.2-1.4-.61-1.84c-.41-.45-.89-.67-1.47-.67-.75,0-1.39.35-1.93,1.04-.74.95-1.11,2.15-1.11,3.62Z"/>
        <path class="cls-5" d="M78.68,14.91h2.99l-1.96,9.33c-.55,2.66-1.03,4.28-1.42,4.85-.6.88-1.55,1.32-2.86,1.32-.82,0-1.56-.11-2.24-.33l.47-2.46c.48.12.88.18,1.2.18.4,0,.72-.16.96-.47.24-.31.56-1.4.95-3.28l1.91-9.13ZM79.55,10.72h2.99l-.56,2.7h-2.99l.56-2.7Z"/>
        <path class="cls-5" d="M92.99,21.35h-7.47c0,.12-.01.21-.01.27,0,.73.21,1.32.63,1.77.42.45.93.67,1.53.67.99,0,1.76-.51,2.31-1.54l2.67.45c-.52,1.07-1.21,1.88-2.08,2.41s-1.84.8-2.92.8c-1.48,0-2.68-.47-3.61-1.41-.93-.94-1.39-2.18-1.39-3.72s.42-2.85,1.25-4.03c1.14-1.59,2.77-2.39,4.89-2.39,1.35,0,2.42.42,3.22,1.25.8.83,1.19,2,1.19,3.5,0,.72-.07,1.37-.21,1.94ZM90.48,19.53c0-.13.01-.23.01-.3,0-.82-.18-1.43-.55-1.84-.37-.41-.86-.61-1.47-.61s-1.17.23-1.66.7c-.49.46-.82,1.15-.99,2.05h4.66Z"/>
        <path class="cls-5" d="M101.55,21.78l2.9.47c-.48,1.29-1.18,2.27-2.12,2.94-.93.67-2.02,1.01-3.25,1.01-1.4,0-2.52-.42-3.34-1.26-.82-.84-1.24-1.99-1.24-3.46,0-1.2.25-2.33.75-3.39.5-1.06,1.25-1.9,2.25-2.52,1-.61,2.1-.92,3.3-.92,1.3,0,2.34.34,3.11,1.02.77.68,1.21,1.57,1.31,2.68l-2.83.3c-.07-.62-.26-1.07-.57-1.36s-.71-.44-1.21-.44c-.57,0-1.11.21-1.61.64-.5.43-.88,1.07-1.15,1.92-.27.85-.4,1.66-.4,2.4,0,.65.16,1.15.48,1.5.32.35.72.53,1.19.53s.94-.17,1.38-.52c.44-.35.79-.86,1.04-1.56Z"/>
        <path class="cls-5" d="M106.65,17.12l.46-2.21h1.45l.36-1.76,3.41-2.05-.8,3.82h1.82l-.46,2.21h-1.83l-.96,4.62c-.17.84-.26,1.31-.26,1.43,0,.23.07.41.22.53.15.13.41.19.79.19.13,0,.46-.02.99-.07l-.47,2.21c-.51.1-1.04.16-1.58.16-1.05,0-1.82-.2-2.29-.61s-.72-.97-.72-1.69c0-.34.13-1.12.38-2.35l.92-4.43h-1.44Z"/>
      </g>
    </g>
    <g id="Source">
      <polygon class="cls-13" points="301.81 0 294.53 35.91 177.13 35.91 184.41 0 301.81 0"/>
      <g>
        <path class="cls-5" d="M204.95,19.74l2.98-.16c.04.95.2,1.59.49,1.92.46.54,1.3.81,2.53.81,1.02,0,1.76-.18,2.22-.55.46-.37.69-.81.69-1.33,0-.45-.19-.83-.56-1.14-.26-.23-.98-.6-2.16-1.11-1.18-.51-2.04-.94-2.58-1.28-.54-.34-.97-.79-1.28-1.33-.31-.55-.47-1.19-.47-1.92,0-1.28.46-2.34,1.39-3.19.93-.84,2.27-1.27,4.03-1.27s3.17.42,4.15,1.26c.98.84,1.52,1.95,1.61,3.34l-3,.14c-.08-.73-.34-1.28-.79-1.67-.45-.39-1.11-.58-1.99-.58s-1.48.15-1.85.46-.56.69-.56,1.15c0,.44.17.8.51,1.08.34.29,1.09.69,2.25,1.19,1.75.75,2.86,1.37,3.34,1.84.71.69,1.07,1.58,1.07,2.67,0,1.34-.53,2.49-1.59,3.44-1.06.95-2.54,1.43-4.44,1.43-1.31,0-2.44-.22-3.4-.66-.96-.44-1.63-1.05-2.03-1.83-.39-.78-.58-1.68-.55-2.7Z"/>
        <path class="cls-5" d="M219.07,20.09c0-2.04.58-3.67,1.73-4.88,1.15-1.21,2.67-1.82,4.54-1.82,1.63,0,2.9.45,3.81,1.34s1.37,2.1,1.37,3.62c0,1.78-.57,3.33-1.71,4.63-1.14,1.3-2.67,1.95-4.59,1.95-1.04,0-1.96-.21-2.76-.62-.8-.42-1.4-1-1.8-1.76-.39-.76-.59-1.58-.59-2.45ZM227.56,17.96c0-.71-.21-1.27-.62-1.7-.41-.43-.94-.64-1.59-.64s-1.21.2-1.71.6-.89.98-1.16,1.73c-.28.76-.42,1.45-.42,2.09,0,.79.21,1.42.64,1.88.43.46.97.7,1.62.7.82,0,1.5-.35,2.05-1.05.79-.99,1.18-2.19,1.18-3.61Z"/>
        <path class="cls-5" d="M233.9,13.64h2.98l-1.36,6.53c-.17.78-.25,1.27-.25,1.46,0,.32.12.59.35.82s.54.34.9.34c.26,0,.52-.05.78-.15.26-.1.52-.25.79-.46s.51-.44.73-.7c.21-.26.42-.61.6-1.04.13-.32.27-.84.43-1.56l1.1-5.25h2.98l-2.3,11.02h-2.78l.31-1.49c-1.22,1.17-2.54,1.75-3.97,1.75-.91,0-1.62-.26-2.14-.78-.52-.52-.78-1.21-.78-2.09,0-.38.12-1.14.35-2.27l1.29-6.14Z"/>
        <path class="cls-5" d="M246.73,13.64h2.78l-.45,2.14c1.04-1.6,2.16-2.4,3.37-2.4.43,0,.89.11,1.38.32l-1.14,2.44c-.27-.1-.56-.15-.86-.15-.51,0-1.03.19-1.56.58-.53.39-.94.9-1.24,1.55-.3.65-.59,1.67-.88,3.08l-.73,3.46h-2.98l2.3-11.02Z"/>
        <path class="cls-5" d="M260.34,20.51l2.9.47c-.48,1.29-1.18,2.27-2.12,2.94-.93.67-2.02,1.01-3.25,1.01-1.4,0-2.52-.42-3.34-1.26-.82-.84-1.24-1.99-1.24-3.46,0-1.2.25-2.33.75-3.39s1.25-1.9,2.25-2.52,2.1-.92,3.3-.92c1.3,0,2.34.34,3.11,1.02.77.68,1.21,1.57,1.31,2.68l-2.83.3c-.07-.62-.26-1.07-.57-1.36-.31-.29-.71-.44-1.21-.44-.57,0-1.11.21-1.61.64-.5.43-.88,1.07-1.15,1.92-.27.85-.4,1.66-.4,2.4,0,.65.16,1.15.48,1.5.32.35.72.53,1.19.53s.94-.17,1.38-.52c.44-.35.79-.86,1.04-1.56Z"/>
        <path class="cls-5" d="M275.42,20.08h-7.47c0,.12-.01.21-.01.27,0,.73.21,1.32.63,1.77.42.45.93.67,1.53.67.99,0,1.76-.51,2.31-1.54l2.67.45c-.52,1.07-1.21,1.88-2.08,2.41s-1.84.8-2.92.8c-1.48,0-2.68-.47-3.61-1.41-.93-.94-1.39-2.18-1.39-3.72s.42-2.85,1.25-4.03c1.14-1.59,2.77-2.39,4.89-2.39,1.35,0,2.42.42,3.22,1.25.8.83,1.19,2,1.19,3.5,0,.72-.07,1.37-.21,1.94ZM272.9,18.26c0-.13.01-.23.01-.3,0-.82-.18-1.43-.55-1.84-.37-.41-.86-.61-1.47-.61s-1.17.23-1.66.7-.82,1.15-.99,2.05h4.66Z"/>
      </g>
    </g>
    <g id="Puplisher">
      <polygon class="cls-13" points="354.02 48.26 346.74 84.17 229.34 84.17 236.62 48.26 354.02 48.26"/>
      <g>
        <path class="cls-5" d="M246.16,74.09h-3.13l3.19-15.21h6.18c1.1,0,1.97.13,2.61.39s1.15.69,1.52,1.29c.37.6.56,1.31.56,2.14,0,.77-.15,1.52-.45,2.24-.3.73-.66,1.31-1.1,1.74-.43.44-.9.77-1.4.99-.5.23-1.17.4-2.01.51-.49.07-1.41.1-2.76.1h-2l-1.21,5.8ZM247.89,65.77h.96c1.65,0,2.76-.1,3.31-.31.55-.21.99-.54,1.31-1,.32-.46.48-.96.48-1.5,0-.37-.08-.67-.24-.9-.16-.23-.39-.41-.69-.51-.29-.11-.95-.16-1.97-.16h-2.24l-.92,4.39Z"/>
        <path class="cls-5" d="M259.47,63.07h2.98l-1.36,6.53c-.17.78-.25,1.27-.25,1.46,0,.32.12.59.35.82.24.23.54.34.9.34.26,0,.52-.05.78-.15.26-.1.52-.25.79-.46.27-.2.51-.44.73-.7.21-.26.42-.61.6-1.04.13-.32.27-.84.43-1.56l1.1-5.25h2.98l-2.3,11.02h-2.78l.31-1.49c-1.22,1.17-2.54,1.75-3.97,1.75-.91,0-1.62-.26-2.14-.78-.52-.52-.78-1.21-.78-2.09,0-.38.12-1.14.35-2.27l1.29-6.14Z"/>
        <path class="cls-5" d="M270.09,74.09l3.18-15.21h2.99l-1.07,5.08c.55-.42,1.06-.71,1.53-.89.47-.18.99-.26,1.55-.26,1.16,0,2.09.39,2.79,1.17.7.78,1.05,1.91,1.05,3.4,0,1-.16,1.98-.49,2.92-.33.94-.77,1.71-1.32,2.3-.55.59-1.13,1.03-1.73,1.32-.61.29-1.24.43-1.9.43-1.58,0-2.74-.69-3.48-2.08l-.38,1.82h-2.71ZM274.1,69.6c0,.74.21,1.34.63,1.81.42.46.91.7,1.48.7.5,0,.97-.18,1.43-.54.45-.36.83-.93,1.13-1.72.3-.79.45-1.58.45-2.39s-.2-1.4-.61-1.84c-.41-.45-.89-.67-1.47-.67-.75,0-1.39.35-1.93,1.04-.74.95-1.11,2.15-1.11,3.62Z"/>
        <path class="cls-5" d="M283.13,74.09l3.19-15.21h2.97l-3.17,15.21h-2.98Z"/>
        <path class="cls-5" d="M291.36,63.07h2.98l-2.3,11.02h-2.98l2.3-11.02ZM292.23,58.88h2.98l-.56,2.7h-2.98l.56-2.7Z"/>
        <path class="cls-5" d="M294.58,71.01l2.88-.46c.26.61.57,1.04.96,1.29.38.25.9.38,1.56.38s1.22-.15,1.63-.46c.28-.21.43-.46.43-.76,0-.2-.07-.38-.22-.54-.15-.15-.56-.34-1.24-.56-1.8-.59-2.91-1.06-3.34-1.41-.67-.54-1.01-1.25-1.01-2.12s.33-1.62.98-2.25c.91-.88,2.25-1.32,4.04-1.32,1.42,0,2.49.26,3.22.78.73.52,1.19,1.22,1.38,2.11l-2.75.48c-.15-.4-.38-.7-.71-.9-.44-.27-.98-.4-1.6-.4s-1.07.1-1.34.31c-.27.21-.41.45-.41.72s.14.5.42.68c.17.11.73.3,1.67.58,1.45.42,2.42.84,2.92,1.25.69.57,1.04,1.27,1.04,2.08,0,1.04-.44,1.95-1.32,2.72-.88.77-2.12,1.15-3.71,1.15s-2.82-.29-3.69-.88c-.87-.58-1.46-1.41-1.77-2.46Z"/>
        <path class="cls-5" d="M309.8,74.09h-2.98l3.19-15.21h2.98l-1.14,5.42c.67-.53,1.3-.9,1.88-1.14.58-.23,1.2-.35,1.87-.35.89,0,1.6.26,2.12.77.52.51.78,1.18.78,2.01,0,.44-.1,1.13-.29,2.05l-1.35,6.44h-2.98l1.38-6.57c.15-.71.22-1.17.22-1.37,0-.37-.11-.66-.34-.88-.23-.22-.54-.33-.93-.33-.5,0-.97.17-1.43.52-.59.46-1.05,1.02-1.36,1.68-.17.37-.4,1.23-.68,2.58l-.91,4.37Z"/>
        <path class="cls-5" d="M330.49,69.5h-7.47c0,.12-.01.21-.01.27,0,.73.21,1.32.63,1.77.42.45.93.67,1.53.67.99,0,1.76-.51,2.31-1.54l2.67.45c-.52,1.07-1.21,1.88-2.08,2.41s-1.84.8-2.92.8c-1.48,0-2.68-.47-3.61-1.41-.93-.94-1.39-2.18-1.39-3.72s.42-2.85,1.25-4.03c1.14-1.59,2.77-2.39,4.89-2.39,1.35,0,2.42.42,3.22,1.25.8.83,1.19,2,1.19,3.5,0,.72-.07,1.37-.21,1.94ZM327.98,67.69c0-.13.01-.23.01-.3,0-.82-.18-1.43-.55-1.84-.37-.41-.86-.61-1.47-.61s-1.17.23-1.66.7c-.49.46-.82,1.15-.99,2.05h4.66Z"/>
        <path class="cls-5" d="M333.72,63.07h2.78l-.45,2.14c1.04-1.6,2.16-2.4,3.37-2.4.43,0,.89.11,1.38.32l-1.14,2.44c-.27-.1-.56-.15-.86-.15-.51,0-1.03.19-1.56.58-.53.39-.94.9-1.24,1.55s-.59,1.67-.88,3.08l-.73,3.46h-2.98l2.3-11.02Z"/>
      </g>
    </g>
    <g id="Date">
      <polygon class="cls-13" points="369.68 109.59 362.4 145.5 245 145.5 252.28 109.59 369.68 109.59"/>
      <g>
        <path class="cls-5" d="M281.85,133.94l3.19-15.21h4.1c1.14,0,1.87.02,2.19.05.63.06,1.19.19,1.69.38.5.19.94.47,1.35.81.4.35.75.77,1.05,1.26s.52,1.06.68,1.7c.16.64.24,1.34.24,2.1,0,1.64-.31,3.09-.94,4.36-.63,1.27-1.41,2.28-2.36,3.02-.73.58-1.66,1.01-2.81,1.29-.65.15-1.65.23-3,.23h-5.36ZM285.49,131.49h1.59c1.15,0,1.98-.07,2.5-.21.52-.14.99-.41,1.42-.79.62-.56,1.13-1.31,1.56-2.24.42-.93.63-2.03.63-3.3,0-1.08-.17-1.89-.52-2.43s-.78-.9-1.29-1.08c-.36-.12-1-.19-1.92-.19h-1.82l-2.14,10.25Z"/>
        <path class="cls-5" d="M301.33,126.04l-2.91-.25c.33-.98.91-1.75,1.74-2.3.83-.55,1.92-.83,3.28-.83s2.47.29,3.14.86c.68.57,1.02,1.27,1.02,2.09,0,.33-.03.68-.09,1.06-.06.37-.26,1.36-.62,2.95-.29,1.31-.44,2.23-.44,2.76,0,.47.08.99.25,1.57h-2.9c-.12-.4-.19-.82-.22-1.25-.44.48-.94.86-1.5,1.12-.57.26-1.14.39-1.71.39-.91,0-1.67-.3-2.26-.9-.59-.6-.89-1.37-.89-2.31,0-1.05.33-1.89.98-2.52.65-.63,1.82-1.01,3.5-1.14,1.42-.12,2.37-.26,2.84-.43.12-.42.19-.75.19-1,0-.32-.13-.58-.38-.8-.26-.21-.64-.32-1.14-.32-.53,0-.95.11-1.26.33s-.52.53-.63.93ZM304.16,128.8c-.18.05-.42.09-.72.14-1.49.18-2.47.44-2.93.79-.33.25-.49.58-.49,1.01,0,.35.12.64.37.88s.58.36.99.36c.45,0,.87-.11,1.27-.33.4-.22.7-.5.89-.84.2-.34.37-.88.52-1.6l.08-.39Z"/>
        <path class="cls-5" d="M309.69,125.13l.46-2.21h1.45l.36-1.76,3.41-2.05-.8,3.82h1.82l-.46,2.21h-1.83l-.96,4.62c-.17.84-.26,1.31-.26,1.43,0,.23.07.41.22.53.15.13.41.19.79.19.13,0,.46-.02.99-.07l-.47,2.21c-.51.1-1.04.16-1.58.16-1.05,0-1.82-.2-2.29-.61s-.72-.97-.72-1.69c0-.34.13-1.12.38-2.35l.92-4.43h-1.44Z"/>
        <path class="cls-5" d="M326.75,129.35h-7.47c0,.12-.01.21-.01.27,0,.73.21,1.33.63,1.77.42.45.93.67,1.53.67.99,0,1.76-.51,2.31-1.54l2.67.45c-.52,1.07-1.21,1.88-2.08,2.41-.87.54-1.84.8-2.92.8-1.48,0-2.68-.47-3.61-1.41-.93-.94-1.39-2.18-1.39-3.72s.42-2.85,1.25-4.03c1.14-1.59,2.77-2.39,4.89-2.39,1.35,0,2.42.42,3.22,1.25.8.83,1.19,2,1.19,3.5,0,.72-.07,1.37-.21,1.94ZM324.24,127.54c0-.13.01-.23.01-.3,0-.82-.18-1.43-.55-1.84-.37-.41-.86-.61-1.47-.61s-1.17.23-1.66.7c-.49.46-.82,1.15-.99,2.05h4.66Z"/>
      </g>
    </g>
  </g>
  <g id="Gesicht">
    <path class="cls-1" d="M175.64,178.85c4.04-1.05,5.68-2.23,11.67-5.14,3.71-1.8,9.15-4.29,16.02-6.91,3.61-2.04,9.6-6.21,13.06-13.65,5.79-12.44,2.11-28.83-9.4-41.12-1.95-1.88-7.23-6.47-15.5-7.98-3.07-.56-9.73-1.27-17.07,1.95-9.34,4.09-13.62,11.84-14.8,14.18-3.9,7.84-4.52,14.13-4.35,18.43.29,7.62,3.03,9.35,2.09,16.49-.88,6.64-3.71,8.64-2.79,14.18.18,1.08.97,5.76,4.7,8.69,4.94,3.86,11.78,2.08,16.37.89Z"/>
    <g id="Kopf">
      <path class="cls-10" d="M209.64,136.95c1,8.56-4.29,16.93-12.82,19.47-.28.08-.56.16-.85.23v16.33c0,4.25-3.48,7.73-7.73,7.73s-7.73-3.48-7.73-7.73v-16.45c0-.57.06-1.12.18-1.65-4.62-2.39-8.38-6.41-10.32-11.55-.38.11-.79.17-1.2.17-2.41,0-4.39-1.97-4.39-4.38v-1.64c0-1.78,1.08-3.31,2.61-4-2.61-10.25,3.37-20.92,13.6-23.97,1.88-.56,3.77-.82,5.64-.82,8.58,0,16.55,5.6,19.11,14.21l1.36,4.56c1.91.16,3.57,1.58,3.94,3.56l.3,1.62c.31,1.69-.4,3.35-1.7,4.31Z"/>
    </g>
    <g id="Schatten">
      <path class="cls-1" d="M196,156.65c-1.29.33-2.97.64-4.94.68-2.33.05-4.29-.3-5.72-.66,3.54,3.14,7.09,6.28,10.64,9.42-.01-1.4-.02-2.81-.01-4.22,0-1.75.01-3.49.03-5.22Z"/>
      <path class="cls-1" d="M168.26,136.29c-.31,0-.75,1.25-.41,2.39.24.81.9,1.63,1.16,1.52.51-.21-.22-3.91-.75-3.91Z"/>
    </g>
    <g id="Augenbrauchen">
      <path class="cls-1" d="M185.24,126.09c-.59-.12-1.68-.26-2.97.06-1.62.4-2.65,1.31-3.1,1.75-1.04-.19-1.36-.5-1.44-.78-.26-.95,1.97-2.73,4.32-3.19,1.59-.31,3.71-.11,3.96.72.13.43-.27.97-.78,1.44Z"/>
      <path class="cls-1" d="M195.29,122.54c.43-.43,1.26-1.14,2.51-1.57,1.57-.55,2.94-.36,3.55-.23.77-.73.86-1.17.78-1.44-.3-.94-3.14-1.21-5.36-.31-1.5.61-3.17,1.94-2.92,2.77.13.43.75.66,1.44.78Z"/>
    </g>
    <g id="Augen">
      <rect class="cls-6" x="182.54" y="128.55" width="3.18" height="3.73" rx="1.59" ry="1.59" transform="translate(-18.95 32.07) rotate(-9.47)"/>
      <rect class="cls-6" x="197.93" y="125.99" width="3.18" height="3.73" rx="1.59" ry="1.59" transform="translate(-18.31 34.56) rotate(-9.47)"/>
    </g>
    <g id="Nase">
      <path class="cls-6" d="M193.85,141.06c-.38,0-.78-.07-1.17-.21-.06-.02-.1-.09-.08-.16.02-.06.1-.1.16-.08.79.28,1.64.25,2.25-.08.34-.18.57-.44.63-.71.16-.66-.17-1.24-1-1.78l-.11-.07c-.4-.26-1.08-.7-1.49-1.51-.15-.28-.25-.72-.33-1.01l-.03-.12c-.06-.35-.11-.64-.17-.92-.05-.29-.11-.57-.17-.92-.01-.07.03-.13.1-.14.07-.01.13.03.14.1.06.34.11.63.16.92.05.29.11.57.17.92l.03.11c.07.28.17.7.31.96.39.75,1,1.15,1.41,1.42l.11.07c.93.6,1.29,1.27,1.11,2.05-.08.33-.35.65-.75.87-.38.2-.82.31-1.28.31Z"/>
    </g>
    <g id="Mund">
      <path class="cls-6" d="M190.76,148.37c-.06,0-.11-.04-.12-.1-.01-.07.03-.13.09-.15l4.86-1.07c.08-.01.13.03.15.09.01.07-.03.13-.09.15l-4.86,1.07s-.02,0-.03,0Z"/>
    </g>
    <path class="cls-1" d="M210.41,127.38c-.29.07-.62.12-.97.15-.98.08-1.81-.05-2.44-.21-1.55-4.5-3.71-6.38-5.41-7.27-1.89-.99-3.88-1.11-6.29-3.06-1.26-1.02-2.09-2.11-2.57-2.84-.28.61-1.27,2.69-3.63,5.16-5.73,6-9.38,4.72-12.23,9.34-2.04,3.28-2.29,5.38-3.3,7.04-.07.11-2.09-3.83-6.21-2.22-.82-.69-6.47-5.54-5.65-11.7.37-2.81,2.02-4.54,3.9-6.91,5.88-7.44,14.47-9.03,15.59-9.22,5.89-1,10.68.37,13.06,1.24,2.03.57,6.5,2.14,10.35,6.34,5.19,5.66,5.71,12.24,5.8,14.16Z"/>
  </g>
  <g id="Körper">
    <g id="Körper-2" data-name="Körper">
      <path class="cls-10" d="M211.86,186.72c1.2.47,2.44.68,3.67.67v-.02s.04.01.09.01c17.85-.1,35.73-.19,53.61-.3.06,0,.14.01.21,0,.23,0,.48.02.72,0,2.65-.16,5.07-1.81,6.1-4.44,1.42-3.61-.36-7.68-3.97-9.1-.59-.23-1.19-.38-1.82-.44,0,0-.16-.02-.24-.03-17.91-1.61-35.81-3.2-53.72-4.79-.23,0-.48-.04-.7-.06-.04,0-.08-.01-.13,0-3.94-.14-7.72,2.2-9.24,6.07-1.94,4.94.49,10.49,5.41,12.42Z"/>
      <path class="cls-10" d="M250.01,481.52c-.25,1.05-1,2.11-2.59,3.29-5.09,3.78-11.31.99-9.93-5.48-.04-.11-.07-.22-.11-.33-5.56-16.52-10.89-35.26-15.23-56.04-5.17-24.81-7.92-47.63-9.24-67.68-6.3-27.25-12.59-54.51-18.89-81.76-.18-.1-.34-.22-.48-.36,0,0-4.66,0-4.67.01-3.9,27.71-7.79,55.45-11.69,83.16.84,20.15.48,43.25-2.27,68.62-.99,9.15-1.98,14.64-3.58,26.29-.85,6.19-1.7,12.37-2.55,18.56-.36,2.63,0,5.31-.04,7.96-.03,2.27-.29,4.96-2.25,6.44-.71.53-1.58.86-2.44,1.03-.87.17-1.81.11-2.69.13-.98.02-1.96.04-2.94-.04-.7-.05-1.43-.16-2-.57-.51-.37-.84-.93-1.11-1.5-.24-.49-.46-.99-.54-1.53-.1-.67.09-1.27.19-1.92.13-.96.21-1.92.25-2.88.08-1.95.01-3.89-.12-5.84-.12-1.82-.32-3.64-.48-5.46-.56-6.42-.68-5.89-1.01-38.85-.28-28.59.13-56.57.34-69.05,0-.11-.02-.22-.03-.33-.02-.16-.03-.31-.03-.47,0-.2-.02-.4-.02-.6-1.06-8.45-1.63-15.46-1.99-20.38,0,0-4.18-59.36,9.92-83.24,0,0,.34-.57.62-1.18.1-.12.2-.24.32-.33l-.09-.08,14.1-22.04c-5.29-18.07-10.58-36.14-15.87-54.22,8.28-2.12,17.89-4.06,28.65-5.29,10.05-1.14,19.24-1.45,27.33-1.32-2.35,20.28-4.7,40.55-7.05,60.83,3.67,7.35,7.35,14.69,11.02,22.04.1.13.2.27.28.43.18.28.4.64.64,1.02,4.25,6.76,13.12,29.78,14.29,74.82.16,6.72.3,15.78.18,26.54,0,.06,0,.11,0,.17,0,.06,0,.11-.01.17,0,.02,0,.04.01.06,2.75,22.06,5.23,44.83,7.35,68.25,1.02,11.25,1.94,22.51,2.77,33.78.38,5.2.4,10.55,1.09,15.72.56,4.2,3.24,6.77,2.61,9.43Z"/>
      <path class="cls-10" d="M163.38,174.94c-1.29.08-2.5.42-3.6.95v.02s-.04,0-.08.03c-16.12,7.69-32.25,15.37-48.39,23.08-.06.02-.14.05-.19.09-.21.09-.45.19-.66.3-2.33,1.27-3.82,3.8-3.63,6.61.25,3.87,3.59,6.8,7.46,6.55.63-.04,1.24-.16,1.83-.38,0,0,.16-.05.23-.07,16.89-6.16,33.76-12.34,50.66-18.53.21-.09.45-.17.66-.24.04-.02.08-.03.12-.05,3.62-1.55,6.05-5.28,5.78-9.42-.35-5.3-4.91-9.28-10.19-8.94Z"/>
      <path class="cls-10" d="M277.59,184.07c-2,2.55-5.41,3.35-8.25,2.14-.06-.03-.11-.05-.17-.08-.29-.15-.57-.3-.86-.45l-.06-.04c-7.36-3.81-14.87-7.87-22.53-12.18-7.73-4.34-15.15-8.7-22.28-13.04-.26-.02-.65-.06-1.1-.15-.4-.08-.68-.15-1.1-.26-.53-.14-1.06-.27-1.6-.4-1.05-.25-2.05-.46-3.02-.63,0,0-1.86-.31-4.93-1.8-.78-.38-1.68-.87-1.78-1.67-.04-.23.01-.5.15-.79.48-.98,3-1.13,5.44-.88,1.15.12.22-3.23-1.62-4.45-3.48-2.31-7.51-1.36-7.36-3.67.19-2.73,6.27-3,11.36-.81,3.31,1.42,5.58,3.27,6.54,4.33,1.78,1.97,2.69,3.98,3.15,5.25,15.34,6.14,30.69,12.26,46.03,18.4h0c.96.23,1.91.67,2.74,1.32,3.06,2.38,3.62,6.8,1.24,9.86Z"/>
    </g>
    <g id="Schuhe">
      <path class="cls-1" d="M172.04,488.65v2.25h-44.38v-2.25s.36-2.11,11.61-5.37c5.19-1.49,9.19-3.38,13.26-4.51,1.77.72,4.67,1.63,8.35,1.69,3.98.04,7.1-.95,8.91-1.69.56,1.21,1.17,2.76,1.61,4.59.48,2.05.64,3.88.64,5.29Z"/>
      <path class="cls-1" d="M232.57,488.65v2.25h44.38v-2.25s-.36-2.11-11.61-5.37c-5.19-1.49-9.19-3.38-13.26-4.51-1.77.72-4.67,1.63-8.35,1.69-3.98.04-7.1-.95-8.91-1.69-.56,1.21-1.17,2.76-1.61,4.59-.48,2.05-.64,3.88-.64,5.29Z"/>
    </g>
    <g id="Hose">
      <path class="cls-7" d="M259.08,457.62c-12.49,1.17-24.97,2.35-37.46,3.54-2.56-32.33-6.74-67.32-13.22-104.48-4.91-27.99-10.62-54.34-16.76-78.89v-48.91c6.24.02,12.49.02,18.73.04,5.59,7.26,13.42,18.95,19.19,34.77,4.85,13.34,6.28,24.28,9.7,60.38,2.19,23.36,3.52,39.11,3.96,44.08,1.87,21.06,5.94,51.48,15.87,89.47Z"/>
      <path class="cls-9" d="M191.64,228.87v48.91c-3.32,23.52-6.06,48.53-7.93,74.94-2.76,39.01-3.2,75.45-2.21,108.88-13.06-.74-26.15-1.47-39.23-2.21,4.47-40.62,5.15-70.72,4.85-91.24-.04-3.6-.28-17.06,0-35.27.44-28.17.64-42.27,3.08-53.32,2.62-11.87,8.89-30.26,26.01-50.7,5.15,0,10.3.02,15.43.02Z"/>
    </g>
    <g id="Oberteil">
      <path class="cls-4" d="M216.73,166.98c-.54,16.28-1.11,26.92-1.55,33.74-.1,1.41-.28,4.16-.48,7.97-.38,7.08-.6,13.94-.7,20.56-4.67,1.59-11.89,3.42-20.82,3.36-.52,0-1.03-.02-1.55-.04v-58.85c6.44-1.49,10.24-5.61,11.13-6.62,4.65-.04,9.31-.08,13.96-.12Z"/>
      <path class="cls-11" d="M191.64,173.72v58.85c-8.07-.24-14.59-1.97-18.95-3.48-.7-3.3-1.45-6.68-2.25-10.1,0,0-1.43-6.12-3.04-12.21-3.72-14.12-9.11-30.22-10-32.87.87-.38,1.73-.76,2.6-1.11,4.67-.97,9.34-1.95,14-2.92,1.19.91,6.9,5.09,15.05,4.27.91-.1,1.77-.24,2.58-.44Z"/>
    </g>
    <g id="Jacke">
      <g id="Rechts">
        <path class="cls-2" d="M239.04,271.99c-3.63,1.27-9.3,2.78-16.36,2.77-7,0-12.63-1.51-16.24-2.77-2.13-21.64-4.27-43.29-6.4-64.93h0s-3.96-40.18-3.96-40.18h0s-.02-.21-.02-.21c.02,0,.04,0,.06-.02.18-.03.45-.07.77-.12,5.09-.79,9.78-.71,9.78-.71,3.98.06,7.56.59,10.54,1.23-.92,7.48-1.22,16.08-.19,25.5.23,2.12.52,4.18.85,6.16h0c1.52,9.09,3.95,16.67,6.22,22.41,3.27,9.46,6.47,19.48,9.48,30.06h0c1.26,4.5,2.51,9.08,3.71,13.77.1.37.19.74.29,1.12.5,1.99,1,3.97,1.48,5.94Z"/>
        <path class="cls-2" d="M278.75,183.26s-.02.05-.03.07c-1.34,2.37-3.71,3.79-6.22,4.02-11.66,1.91-21.61,2.92-29.19,3.51-23.87,1.83-30.64-.21-35.13-4.47-.92-.88-5.22-5.15-4.6-10.12.63-4.98,6.1-7.86,13.17-9.29,4.73.59,9.49,1.17,14.28,1.73-1.14-.54-2.29-1.09-3.43-1.64,1.42-2.17,2.9-4.71,4.3-7.62,1.22-2.54,2.18-4.94,2.94-7.13,21.34,10.47,36.9,18.15,40.88,20.06.43.21,1.55.74,2.44,1.93,1.99,2.62,1.34,6.41.59,8.95Z"/>
        <path class="cls-8" d="M204.36,178.72l1.26,2.16c-.1.43-.18.87-.28,1.31-1.77,8.29-3.53,16.56-5.3,24.86h0s-.01.03-.01.05c-2.41-9.69-4.83-19.39-7.25-29.08.75-1.9,1.48-4.05,2.12-6.4.15-.53.28-1.05.42-1.58.25-1,.47-1.98.65-2.93v-2.8c.17.02.32.04.48.06l4.83,1.16,5.59,1.35.34.07-2.1,1.86-4.33,3.8,3.58,6.11Z"/>
      </g>
      <g id="Links">
        <path class="cls-3" d="M179.41,168.38l-2.16,38.89v.03c-1.2,21.58-2.4,43.15-3.6,64.73-3.65,1.3-9.52,2.9-16.86,2.73-6.24-.15-11.29-1.52-14.68-2.73,1.52-7.94,3.19-16.05,5.02-24.34,1.76-7.92,3.58-15.64,5.46-23.16.29-1.12.58-2.23.87-3.33,2.22-5.64,4.6-13.12,5.99-22.14-2.26,1.11-4.62,2.02-7.19,2.79-8.08,2.4-19.42,6.24-33.27,12.53-4.63,1.34-9.51-.83-11.48-4.93-1.75-3.63-.91-8.13,2.13-11.07,8.37-4.81,15.22-8.75,20.7-11.93,2.14-1.24,5.57-3.23,10.27-5.7,1.51-.79,2.81-1.42,6.25-3.17,3.69-1.88,7.32-3.66,10.89-5.35.53-.25,1.07-.48,1.64-.64.57-.17,1.14-.3,1.71-.47.05-.02.1-.03.15-.05.58-.18,1.14-.41,1.7-.64.54-.23,1.1-.41,1.66-.6,1.03-.35,2.06-.66,3.11-.93.3-.08.61-.15.91-.22,4.76-1.1,8.23-.89,10.75-.3Z"/>
        <path class="cls-10" d="M175.25,249.25c-.26,2.73-6.34,2.81-11.37.48-3.4-1.59-5.64-3.66-6.41-4.53-1.1-1.24-1.89-2.48-2.43-3.55h-.01c-.33-.22-.59-.43-.78-.57-5.81-4.44-12.53-7.56-18.49-11.8-5.01-3.56-9.08-6.11-15.87-10.36-3.75-2.35-6.87-4.22-8.96-5.47l-.07-.03c-3.12-1.85-4.37-5.72-2.99-8.9,2.01-4.64,8.01-4.18,9.22-3.66.96.42,1.79,1.04,2.44,1.78h.02c13.51,10.38,27.02,20.76,40.54,31.14.1.09.4.35.72.76,1.96.51,3.54.89,4.74,1.16,0,0,1.85.36,4.87,1.94.78.41,1.66.93,1.74,1.72.03.24-.02.5-.17.79-.52.96-3.04,1.04-5.47.72-1.14-.15-.32,3.22,1.49,4.5,3.41,2.41,7.47,1.57,7.24,3.88Z"/>
        <path class="cls-3" d="M117.89,199.1l35.98,26.36c-1.57,1.31-3.45,3.12-5.27,5.53-2.07,2.74-3.38,5.37-4.22,7.42-11.99-8.79-23.98-17.57-35.98-26.36-1.32-.97-2.99-2.95-3.28-5.59-.26-2.36.78-4.39,1.61-5.63,2.61-3.56,7.6-4.33,11.16-1.72Z"/>
        <path class="cls-8" d="M182.72,179.06c-1.81,9.31-3.64,18.61-5.47,27.91v.03s-.01.06-.02.08c-1.46-4.97-2.91-9.94-4.36-14.92-.98-3.35-1.96-6.7-2.93-10.05l4.08-7.22.63-1.11-5.99-5.11-.53-.44,10.73-2.76c.52-.14,1.07-.27,1.65-.39v6.14c-.11.01-.22.02-.33.03.08.31.17.62.25.93.72,2.51,1.5,4.8,2.29,6.88Z"/>
        <g id="Knöpfe">
          <circle class="cls-12" cx="172.84" cy="217.98" r=".96"/>
          <circle class="cls-12" cx="171.82" cy="231.22" r=".96"/>
          <circle class="cls-12" cx="171.19" cy="244.28" r=".96"/>
          <circle class="cls-12" cx="170.47" cy="257.77" r=".96"/>
        </g>
      </g>
    </g>
  </g>
</svg>