<?xml version="1.0" encoding="UTF-8"?>
<svg id="_0046_THK_Speichern" data-name="0046_THK_Speichern" xmlns="http://www.w3.org/2000/svg" viewBox="0 0 311.68 526.38">
  <defs>
    <style>
      .cls-1 {
        fill: #42210b;
      }

      .cls-1, .cls-2, .cls-3, .cls-4, .cls-5, .cls-6, .cls-7, .cls-8, .cls-9, .cls-10, .cls-11, .cls-12, .cls-13, .cls-14, .cls-15, .cls-16, .cls-17, .cls-18, .cls-19, .cls-20 {
        stroke-width: 0px;
      }

      .cls-2 {
        fill: #a5678d;
      }

      .cls-3 {
        fill: #308fc9;
      }

      .cls-4 {
        fill: #206289;
      }

      .cls-5 {
        fill: #dddddc;
      }

      .cls-6 {
        fill: #e6710a;
      }

      .cls-7 {
        fill: #cae08f;
      }

      .cls-8 {
        fill: #873567;
      }

      .cls-9 {
        fill: #c39ab3;
      }

      .cls-10 {
        fill: #000;
      }

      .cls-11 {
        fill: #73bbe7;
      }

      .cls-12 {
        fill: #dcbd92;
      }

      .cls-13 {
        fill: #b47d49;
      }

      .cls-21 {
        fill: none;
        stroke: #dddddc;
        stroke-miterlimit: 10;
      }

      .cls-14 {
        fill: #ec9447;
      }

      .cls-15 {
        fill: #e5e6e5;
      }

      .cls-16 {
        fill: #64abd6;
      }

      .cls-17 {
        fill: #b9ddf3;
      }

      .cls-18 {
        fill: #603813;
      }

      .cls-19 {
        fill: #ccc;
      }

      .cls-20 {
        fill: #fff;
      }
    </style>
  </defs>
  <g id="Person">
    <g id="Gesicht">
      <path class="cls-18" d="M159.66,214.88c4.03-1.05,5.67-2.23,11.65-5.13,3.7-1.8,9.13-4.29,15.99-6.9,3.6-2.03,9.58-6.2,13.04-13.62,5.78-12.42,2.11-28.78-9.39-41.05-1.95-1.88-7.21-6.46-15.47-7.96-3.07-.56-9.71-1.26-17.04,1.95-9.33,4.09-13.59,11.81-14.78,14.16-3.89,7.83-4.51,14.1-4.35,18.4.29,7.6,3.03,9.33,2.09,16.46-.87,6.63-3.71,8.63-2.78,14.16.18,1.07.96,5.75,4.69,8.67,4.93,3.86,11.75,2.08,16.34.88Z"/>
      <g id="Kopf">
        <path class="cls-12" d="M193.61,173.05c1,8.55-4.29,16.9-12.8,19.44-.28.08-.56.16-.85.23v16.31c0,2.44-1.15,4.62-2.94,6.04-1.32,1.04-2.98,1.67-4.78,1.67-2.38,0-4.53-1.1-5.94-2.81h0c-1.1-1.34-1.76-3.05-1.76-4.9v-16.43c0-.58-.01-1.17-.01-1.75-4.52-2.39-8.2-6.37-10.12-11.42-.38.11-.79.17-1.2.17-2.4,0-4.37-1.97-4.37-4.37v-1.64c0-1.78,1.07-3.31,2.6-3.99-2.6-10.24,3.37-20.89,13.58-23.93,1.87-.56,3.77-.82,5.63-.82,8.56,0,16.51,5.59,19.07,14.19l1.36,4.55c1.91.16,3.57,1.58,3.93,3.56l.3,1.61c.31,1.68-.4,3.33-1.69,4.29Z"/>
      </g>
      <g id="Schatten">
        <path class="cls-13" d="M179.99,192.72c-1.28.33-2.96.64-4.93.68-2.33.05-4.28-.3-5.71-.66,3.54,3.14,7.08,6.27,10.62,9.41-.01-1.4-.02-2.8-.01-4.22,0-1.75.01-3.49.03-5.21Z"/>
        <path class="cls-13" d="M152.3,172.4c-.31,0-.75,1.25-.41,2.38.24.81.9,1.63,1.16,1.52.51-.21-.22-3.91-.75-3.9Z"/>
      </g>
      <g id="Augenbrauen">
        <path class="cls-1" d="M170.05,161.98c-.59-.12-1.68-.26-2.96.06-1.61.4-2.65,1.3-3.09,1.74-1.04-.19-1.36-.5-1.43-.78-.26-.95,1.97-2.73,4.31-3.18,1.58-.31,3.71-.11,3.95.73.13.43-.27.96-.78,1.43Z"/>
        <path class="cls-1" d="M179.36,161.33c.4-.45,1.19-1.21,2.41-1.72,1.54-.64,2.91-.53,3.52-.44.72-.77.79-1.21.69-1.48-.35-.92-3.2-1.02-5.36,0-1.46.69-3.05,2.12-2.75,2.94.16.42.79.61,1.48.69Z"/>
      </g>
      <g id="Augen">
        <rect class="cls-10" x="166.56" y="164.68" width="3.17" height="3.73" rx="1.59" ry="1.59" transform="translate(-25.11 29.93) rotate(-9.47)"/>
        <rect class="cls-10" x="181.92" y="162.11" width="3.17" height="3.73" rx="1.59" ry="1.59" transform="translate(-24.48 32.42) rotate(-9.47)"/>
      </g>
      <g id="Nase">
        <path class="cls-10" d="M177.85,177.16c-.38,0-.78-.07-1.17-.21-.06-.02-.1-.09-.08-.16.02-.06.09-.1.16-.08.81.29,1.62.26,2.25-.08.34-.18.57-.44.63-.71.16-.66-.17-1.24-1-1.78l-.11-.07c-.4-.26-1.07-.7-1.49-1.51-.14-.28-.25-.72-.32-1.01l-.03-.12c-.06-.36-.11-.65-.17-.94-.05-.28-.11-.56-.16-.9-.01-.07.03-.13.1-.14.06-.01.13.03.14.1.06.34.11.62.16.9.05.29.11.58.17.93l.03.11c.07.28.17.7.3.95.39.75,1,1.15,1.4,1.41l.11.07c.93.6,1.29,1.27,1.11,2.04-.08.33-.35.65-.75.87-.38.2-.81.31-1.28.31Z"/>
      </g>
      <path class="cls-10" d="M177.15,184.99c-.76,0-1.55-.17-2.35-.51-1.24-.52-2.48-1.43-3.67-2.69-.05-.05-.04-.13,0-.18.05-.05.13-.04.18,0,1.17,1.24,2.37,2.13,3.58,2.64,1.3.54,2.55.63,3.72.26.06-.02.14.02.16.08.02.07-.02.14-.08.16-.5.16-1.01.24-1.54.24Z"/>
      <path class="cls-18" d="M194.37,163.51c-.29.06-.61.12-.96.14-.98.08-1.82-.05-2.44-.21-1.55-4.48-3.7-6.36-5.4-7.25-1.88-.99-3.88-1.11-6.28-3.05-1.26-1.03-2.08-2.11-2.57-2.84-.28.61-1.26,2.69-3.62,5.15-5.72,5.99-9.36,4.72-12.21,9.32-2.03,3.28-2.28,5.38-3.3,7.04-.06.11-2.08-3.83-6.19-2.23-.82-.68-6.46-5.52-5.64-11.67.37-2.81,2.02-4.54,3.89-6.9,5.88-7.43,14.45-9.01,15.57-9.2,5.88-1,10.66.37,13.03,1.24,0,.46,0,1.01-.07,1.61,2.61.31,6.76,1.34,10.4,4.71,5.99,5.56,5.83,13.03,5.79,14.14Z"/>
    </g>
    <g id="Körper">
      <g id="Körper-2" data-name="Körper">
        <path class="cls-12" d="M236.84,515.98c.04.62-4.07,1.63-9.2,1.87-5.57.26-8.83-.55-8.85-1.07,0-.39,1.7-1.33,2.09-1.96.1-.15.14-.32.14-.32.09-.31.04-.59-.01-.76-5.45-16.3-10.66-34.76-14.92-55.18-5.16-24.74-7.91-47.51-9.22-67.54t-.01-.02c-6.29-27.2-12.57-54.41-18.86-81.61-.17-.1-.33-.22-.45-.36h-4.68s-.01.01-.01.01c-3.89,27.66-7.78,55.35-11.67,83.02.84,20.1.48,43.16-2.26,68.49-.84,7.74-1.57,12.04-3.58,26.24-1.63,11.52-2.88,20.78-3.65,26.54-.04.16-.06.31-.06.43-.01,1.47,1.96,2.16,1.91,2.66-.15,1.51-18.34.75-18.34-.27,0-.43,3.21-.63,3.57-2.26.03-.13.03-.24.03-.29-.57-16.75-.97-33.83-1.16-51.23-.25-23.55-.12-46.53.34-68.92-.01-.11-.02-.23-.03-.34-.02-.15-.03-.3-.03-.45-.01-.2-.02-.4-.02-.6-1.05-8.44-1.63-15.44-1.98-20.35,0,0-4.18-59.26,9.9-83.1,0,0,.34-.57.61-1.15v-.02c.1-.12.2-.24.32-.34l-.09-.07,14.08-22c-5.28-18.04-10.56-36.08-15.84-54.12,8.27-2.13,17.86-4.06,28.6-5.28,10.03-1.14,19.2-1.46,27.28-1.32-2.34,20.24-4.69,40.48-7.04,60.72,3.66,7.32,7.33,14.64,10.98,21.96l.03.03c.1.14.2.28.27.44.18.28.4.64.64,1.01,4.25,6.75,13.1,29.73,14.27,74.69.16,6.71.3,15.76.18,26.49,0,.06,0,.11-.01.17,0,.02.01.03,0,.05,0,.04,0,.08,0,.12,0,.02,0,.04,0,.06v.02c2.75,22.03,5.21,44.75,7.33,68.12,1.7,18.78,3.1,37.18,4.23,55.18,0,.06,0,.16.02.28.35,1.73,5.11,1.67,5.15,2.33Z"/>
        <g id="Arme">
          <path class="cls-12" d="M152.55,226.26s-.07.03-.11.06c-.2.09-.43.19-.63.31-16.08,7.98-32.14,15.97-48.23,23.93-.07.04-.22.1-.22.1-.42.21-.85.37-1.31.48-2.58,2.01-6.37,1.95-8.99-.28l-.05-.06c-1.85-1.58-4.62-3.92-8.04-6.71-6.21-5.04-9.92-8.07-14.91-11.66-4.86-3.49-8.83-8.05-13.55-11.72-4.63-3.6-10.36-4.83-14.46-9.1-3.83-3.99-5.7-9.77-3.21-10.9,2.11-.95,2.63,3.15,6,5.6,1.79,1.3,5.24.99,4.73-.04-1.09-2.2-1.83-4.6-1.08-5.4.22-.23.45-.36.69-.42.78-.18,1.55.49,2.18,1.09,2.45,2.33,3.4,3.96,3.41,3.99,3.16,7.7,13.02,11.88,19.56,16.25,3.95,2.63,7.9,5.26,11.85,7.9,1.23.82,11.04,8.4,11.85,7.89,14.87-9.23,29.74-18.45,44.6-27.66.03-.02.05-.03.07-.05,1.03-.65,2.2-1.12,3.47-1.34,5.2-.92,10.16,2.53,11.09,7.75.72,4.09-1.28,8.05-4.71,9.99Z"/>
          <path class="cls-12" d="M286.76,160.11c-1.31,3.52-3.21,5.89-4.01,6.73-1.42,1.47-3.06,2.59-4.86,3.54-.05.03-.11.06-.15.1-.27.27-.37.98-.49,1.33-.19.54-.38,1.09-.56,1.63-.38,1.09-.75,2.18-1.13,3.27-.75,2.18-1.51,4.36-2.26,6.53-1.51,4.36-3.01,8.71-4.52,13.07-1.51,4.36-3.02,8.72-4.52,13.07-.99,2.86-1.98,5.71-2.96,8.57-.18.97-.57,1.94-1.17,2.8-1.97,2.78-5.59,3.71-8.59,2.37-17.33.11-34.65.19-51.95.29-.04,0-.06-.01-.09,0-1.22.02-2.46-.19-3.66-.67-4.91-1.93-7.34-7.47-5.4-12.4,1.51-3.86,5.29-6.19,9.22-6.06.05,0,.08.02.13.01.22.03.47.06.7.06,16.64,1.48,33.26,2.96,49.9,4.46,2.85-6.11,5.86-12.33,9.03-18.65,2.04-4.05,4.11-8.09,6.22-12.11,1.02-1.94,2.05-3.88,3.09-5.82.52-.97,1.04-1.93,1.56-2.89.43-.79.92-1.5,1.06-2.41.12-.77.25-1.51.42-2.26.16-.7.3-1.4.44-2.11.2-1.05.36-2.06.48-3.03,0,0,.22-1.87,1.56-5,.35-.8.8-1.72,1.59-1.87.23-.04.49-.01.79.12,1,.44,1.27,2.94,1.14,5.39-.06,1.14,3.22.06,4.36-1.83,2.14-3.58.99-7.56,3.31-7.51,2.73.06,3.28,6.1,1.34,11.28Z"/>
        </g>
      </g>
      <g id="Schuhe">
        <path class="cls-18" d="M156.08,524.14v2.24h-44.3v-2.24s.36-2.1,11.59-5.36c5.18-1.49,9.17-3.37,13.24-4.51,1.77.71,4.66,1.63,8.34,1.69,3.97.04,7.09-.95,8.89-1.69.56,1.21,1.17,2.76,1.61,4.58.48,2.04.64,3.87.64,5.28Z"/>
        <path class="cls-18" d="M216.49,524.14v2.24h44.3v-2.24s-.36-2.1-11.59-5.36c-5.18-1.49-9.17-3.37-13.24-4.51-1.77.71-4.66,1.63-8.34,1.69-3.97.04-7.09-.95-8.89-1.69-.56,1.21-1.17,2.76-1.61,4.58-.48,2.04-.64,3.87-.64,5.28Z"/>
      </g>
      <g id="Hose">
        <path class="cls-6" d="M242.96,493.16c-12.46,1.17-24.93,2.34-37.39,3.53-2.56-32.27-6.73-67.2-13.2-104.3-4.9-27.94-10.6-54.24-16.73-78.75v-48.82c6.23.02,12.46.02,18.7.04,5.58,7.24,13.4,18.91,19.15,34.71,4.84,13.32,6.27,24.23,9.69,60.28,2.18,23.32,3.51,39.04,3.95,44,1.87,21.02,5.93,51.38,15.84,89.31Z"/>
        <path class="cls-14" d="M175.63,264.82v48.82c-3.31,23.48-6.05,48.45-7.92,74.8-2.76,38.94-3.2,75.32-2.2,108.68-13.04-.73-26.1-1.47-39.16-2.2,4.47-40.55,5.14-70.6,4.84-91.08-.04-3.59-.28-17.03,0-35.21.44-28.12.64-42.2,3.08-53.23,2.62-11.85,8.87-30.21,25.96-50.61,5.14,0,10.28.02,15.4.02Z"/>
      </g>
      <g id="Oberteil">
        <path class="cls-19" d="M200.68,203.03c-.54,16.25-1.11,26.87-1.55,33.68-.1,1.41-.28,4.15-.48,7.96-.38,7.07-.6,13.91-.69,20.52-4.66,1.59-11.87,3.41-20.78,3.35-.52,0-1.03-.02-1.55-.04v-58.75c6.43-1.49,10.22-5.6,11.11-6.61,4.64-.04,9.29-.08,13.93-.12Z"/>
        <path class="cls-15" d="M175.63,209.76v58.75c-8.06-.24-14.57-1.96-18.91-3.47-.69-3.29-1.45-6.67-2.24-10.08,0,0-1.43-6.11-3.04-12.19-3.71-14.09-9.09-30.17-9.98-32.81.87-.38,1.73-.75,2.6-1.11,4.66-.97,9.33-1.95,13.97-2.92,1.19.91,6.89,5.08,15.02,4.27.91-.1,1.77-.24,2.58-.44Z"/>
      </g>
      <g id="Jacke">
        <path class="cls-9" d="M163.43,204.43l-2.16,38.83v.03c-1.2,21.54-2.39,43.07-3.59,64.61-3.64,1.3-9.51,2.89-16.83,2.73-6.23-.15-11.28-1.52-14.66-2.73,1.52-7.92,3.19-16.02,5.02-24.29,1.75-7.91,3.57-15.62,5.45-23.12h0c.29-1.13.58-2.23.86-3.33,2.19-5.54,4.52-12.87,5.92-21.68-2.19,1.18-4.47,2.19-6.97,3.05-7.85,2.72-18.81,6.98-32.11,13.72-.8.63-1.78,1.18-2.96,1.44-2.59.57-5-.37-6.34-1.3-12.16-8.51-24.32-17.01-36.48-25.52,1.66-1.45,3.72-3.54,5.65-6.37,1.7-2.5,2.8-4.86,3.53-6.76l29.9,20.92c6.17-4.15,11.66-7.65,16.27-10.51,11.42-7.1,8.73-5.42,16.08-9.59,3.6-2.04,7.14-3.97,10.62-5.82,1.31-.7,2.69-1.14,4.08-1.34,3-1.29,5.65-2.13,7.98-2.67,4.76-1.09,8.22-.88,10.74-.3Z"/>
        <path class="cls-2" d="M280.17,177.37c-9.43,21.78-16.35,37.66-18.07,41.72-.18.43-.67,1.57-1.8,2.52-1.12.93-2.48,1.36-3.88,1.48.03.08.07.17.11.25-11.71,1.93-21.71,2.95-29.31,3.53-13.24,1.02-21.21.84-26.44-.25.06.7.13,1.35.19,1.93.23,2.12.52,4.17.85,6.15h0c1.51,9.08,3.94,16.64,6.21,22.36,3.26,9.45,6.45,19.45,9.46,30.01h0c1.26,4.49,2.5,9.07,3.7,13.74.1.37.19.75.29,1.12.5,1.99,1,3.96,1.47,5.93-3.62,1.27-9.28,2.77-16.32,2.77-6.99,0-12.61-1.51-16.22-2.77-2.13-21.61-4.26-43.21-6.39-64.82h0s-3.95-40.1-3.95-40.1h0s-.02-.22-.02-.22c.02,0,.04,0,.06-.02.18-.03.45-.07.77-.12,5.04-.77,8.93-.73,9.76-.71,2.67.04,6.29.31,10.53,1.22h0c8.55,1.07,17.19,2.1,25.92,3.08,7.42.85,14.78,1.64,22.1,2.4,5.31-12.57,10.63-25.14,15.94-37.72,2.22,1.31,4.82,2.67,7.79,3.93,2.59,1.1,5.03,1.94,7.25,2.59Z"/>
        <path class="cls-8" d="M166.73,215.1c-1.81,9.29-3.63,18.58-5.46,27.86v.03s-.01.05-.02.08c-1.45-4.96-2.9-9.92-4.35-14.9-.98-3.34-1.95-6.68-2.93-10.03l4.08-7.21.63-1.1-5.99-5.1-.52-.45,10.71-2.75c.52-.14,1.07-.27,1.65-.39,0,1.9,0,3.8,0,5.7-.14.03-.29.05-.44.08.03.12.07.25.1.38.08.31.16.62.25.93.03.09.05.19.08.28.56,1.93,1.15,3.74,1.76,5.41h0c.14.41.28.8.43,1.18Z"/>
        <path class="cls-8" d="M188.33,214.76l1.26,2.15c-.09.43-.18.88-.28,1.31-1.76,8.28-3.53,16.54-5.29,24.81h0s-.01.04-.01.06c-2.33-9.33-4.65-18.69-6.99-28.02-.08-.34-.17-.67-.25-1.01.76-1.9,1.48-4.04,2.12-6.39.15-.53.28-1.05.42-1.57.25-1.01.47-1.99.65-2.94v-2.79c.17.02.32.04.48.06l4.82,1.16,5.58,1.35.34.07-2.1,1.85-4.32,3.8,3.57,6.1Z"/>
        <g id="Knöpfe">
          <circle class="cls-20" cx="156.87" cy="253.94" r=".96"/>
          <circle class="cls-20" cx="155.86" cy="267.16" r=".96"/>
          <circle class="cls-20" cx="155.22" cy="280.2" r=".96"/>
          <circle class="cls-20" cx="154.51" cy="293.66" r=".96"/>
        </g>
      </g>
    </g>
  </g>
  <g id="Icons">
    <g id="CD">
      <path class="cls-11" d="M254.96,48.95s0,0,.01,0l.02-.08-.03.08ZM254.96,48.95s0,0,.01,0l.02-.08-.03.08ZM254.96,48.95s0,0,.01,0l.02-.08-.03.08ZM254.96,48.95s0,0,.01,0l.02-.08-.03.08Z"/>
      <path class="cls-11" d="M278.5,56.4c0,14.26-11.39,25.87-25.56,26.21v-18.32c4.07-.33,7.26-3.74,7.26-7.89,0-2.18-.88-4.16-2.31-5.59-.54-.55-1.17-1.02-1.86-1.39l7.5-16.72c2.72,1.29,5.18,3.04,7.28,5.14,4.75,4.75,7.68,11.3,7.68,18.55Z"/>
      <path class="cls-11" d="M244.35,56.4c0,2.2.9,4.19,2.34,5.62.53.52,1.13.97,1.79,1.33l-7.5,16.72c-2.69-1.29-5.13-3.02-7.22-5.1-4.77-4.75-7.72-11.32-7.72-18.58,0-14.31,11.46-25.94,25.7-26.22v18.31c-4.13.27-7.4,3.7-7.4,7.91Z"/>
      <path class="cls-16" d="M249.61,63.86l-4.9,17.66c-.91-.27-1.79-.59-2.65-.96-.36-.15-.72-.31-1.07-.48l7.5-16.72c.34.19.7.35,1.07.49.02,0,.03.01.05.02Z"/>
      <path class="cls-5" d="M257.89,50.81c-.54-.55-1.17-1.02-1.86-1.39-.34-.18-.7-.34-1.06-.48,0,0,0,0-.01,0-.36-.13-.74-.23-1.12-.31-.29-.06-.59-.1-.9-.13-.22-.02-.44-.03-.66-.03-.18,0-.35,0-.52.02-4.13.27-7.4,3.7-7.4,7.91,0,2.2.9,4.19,2.34,5.62.53.52,1.13.97,1.79,1.33.34.19.7.35,1.07.49l.14-.31-.09.32c.37.13.75.24,1.14.31.33.06.67.11,1.01.13.17.01.35.02.52.02.22,0,.44,0,.66-.03,4.07-.33,7.26-3.74,7.26-7.89,0-2.18-.88-4.16-2.31-5.59ZM252.93,62.61c-.22.02-.44.03-.66.03-.18,0-.35,0-.52-.02-.19-.02-.38-.04-.56-.07-.32-.06-.64-.14-.94-.24-.06-.02-.13-.05-.19-.07-.31-.12-.6-.25-.88-.42-.47-.27-.91-.6-1.29-.99-1.14-1.13-1.85-2.7-1.85-4.43,0-3.27,2.52-5.95,5.72-6.22.17-.01.35-.02.52-.02.22,0,.44.01.66.03.15.02.3.04.45.06.3.05.6.13.88.23.08.03.17.06.25.09.29.11.56.24.82.39.5.28.96.63,1.36,1.04,1.12,1.13,1.82,2.68,1.82,4.4,0,3.22-2.44,5.88-5.58,6.21Z"/>
      <path class="cls-17" d="M252.93,64.3v18.32c-.22,0-.44,0-.66,0-.17,0-.35,0-.52,0-2.03-.04-4.01-.31-5.91-.79-.38-.1-.76-.2-1.13-.31l4.9-17.66c.37.13.75.24,1.14.31.33.06.67.11,1.01.13.17.01.35.02.52.02.22,0,.44,0,.66-.03Z"/>
      <path class="cls-16" d="M263.53,32.71l-7.5,16.72c-.34-.18-.7-.34-1.06-.48l.02-.08,4.87-17.58c.88.27,1.75.58,2.59.94.36.15.72.31,1.07.48Z"/>
      <path class="cls-17" d="M259.86,31.29l-4.87,17.58-.03.08c-.36-.13-.74-.23-1.12-.31-.29-.06-.59-.1-.9-.13-.22-.02-.44-.03-.66-.03-.18,0-.35,0-.52.02v-18.31c.17,0,.35,0,.52,0,.22,0,.44,0,.66,0,2,.05,3.93.32,5.8.79.38.1.76.2,1.13.31Z"/>
    </g>
    <g id="Diskette">
      <g>
        <polygon class="cls-11" points="311.68 106.32 302.97 147.15 260.13 138.01 270.55 89.15 305.36 96.57 311.68 106.32"/>
        <rect class="cls-3" x="268.86" y="117.99" width="31.29" height="21.48" transform="translate(33.12 -56.53) rotate(12.04)"/>
        <g>
          <line class="cls-21" x1="274.33" y1="120.95" x2="296.97" y2="125.78"/>
          <line class="cls-21" x1="273.56" y1="124.53" x2="296.2" y2="129.36"/>
          <line class="cls-21" x1="272.8" y1="128.1" x2="295.44" y2="132.93"/>
          <line class="cls-21" x1="272.04" y1="131.68" x2="294.68" y2="136.51"/>
        </g>
      </g>
      <rect class="cls-17" x="278.15" y="93.57" width="25" height="12.36" transform="translate(27.21 -58.45) rotate(12.04)"/>
      <rect class="cls-4" x="293.2" y="94.9" width="7.61" height="9.98" transform="translate(27.38 -59.77) rotate(12.04)"/>
    </g>
    <g id="SD-Karte">
      <path class="cls-11" d="M65.75,24.88l-9.42,5.87-4.26-.99c-.69,2.98-1.37,5.96-2.06,8.94l2.73.63-2.3,9.9c-1.09.56-2.19,1.12-3.28,1.67l-3.31,14.23,5.28,1.23,3.33-14.32,24.1,5.6-3.33,14.32,5.28,1.23,9.99-43.03-22.75-5.28ZM68.81,36.86l-3.81-.88,1.79-7.73,3.81.88-1.79,7.73ZM73.67,37.99l-3.81-.88,1.79-7.73,3.81.88-1.79,7.73ZM78.52,39.12l-3.81-.89,1.79-7.73,3.81.89-1.79,7.73ZM83.38,40.25l-3.81-.88,1.79-7.73,3.81.88-1.79,7.73Z"/>
      <rect class="cls-11" x="63.83" y="30.6" width="7.93" height="3.91" transform="translate(20.75 91.23) rotate(-76.93)"/>
      <rect class="cls-11" x="68.69" y="31.73" width="7.93" height="3.91" transform="translate(23.41 96.84) rotate(-76.93)"/>
      <rect class="cls-11" x="73.55" y="32.86" width="7.93" height="3.91" transform="translate(26.07 102.45) rotate(-76.93)"/>
      <rect class="cls-11" x="55.49" y="49.63" width="14.7" height="24.74" transform="translate(-11.77 109.19) rotate(-76.93)"/>
      <rect class="cls-11" x="78.41" y="33.99" width="7.93" height="3.91" transform="translate(28.73 108.05) rotate(-76.93)"/>
      <rect class="cls-3" x="55.49" y="49.63" width="14.7" height="24.74" transform="translate(-11.77 109.19) rotate(-76.93)"/>
      <rect class="cls-17" x="63.83" y="30.6" width="7.93" height="3.91" transform="translate(20.75 91.23) rotate(-76.93)"/>
      <rect class="cls-17" x="68.69" y="31.73" width="7.93" height="3.91" transform="translate(23.41 96.84) rotate(-76.93)"/>
      <rect class="cls-17" x="73.55" y="32.86" width="7.93" height="3.91" transform="translate(26.07 102.45) rotate(-76.93)"/>
      <rect class="cls-17" x="78.41" y="33.99" width="7.93" height="3.91" transform="translate(28.73 108.05) rotate(-76.93)"/>
      <line class="cls-21" x1="51.99" y1="63.42" x2="71.9" y2="68.04"/>
    </g>
    <g id="Laufwerk">
      <path class="cls-17" d="M64.49,84.3v45.09h-2.94v-5.53h-9.8c-.67.86-1.35,1.73-2.02,2.59h-12.51v-42.15h27.27Z"/>
      <rect class="cls-4" y="81.04" width="37.22" height="48.66"/>
      <rect class="cls-5" x="0" y="81.04" width="4.78" height="48.66"/>
      <path class="cls-11" d="M58.66,105.37c0,10.22-8.28,18.5-18.5,18.5-1,0-1.98-.08-2.94-.23v-36.55c.96-.15,1.94-.23,2.94-.23,10.22,0,18.5,8.28,18.5,18.5Z"/>
      <path class="cls-17" d="M44.55,105.37c0,2.42-1.96,4.39-4.39,4.39-1.13,0-2.16-.43-2.94-1.13v-6.52c.78-.7,1.81-1.13,2.94-1.13,2.42,0,4.39,1.96,4.39,4.39Z"/>
      <rect class="cls-11" x="59.85" y="87.12" width="1.7" height="1.7"/>
      <rect class="cls-11" x="59.85" y="119.17" width="1.7" height="1.7"/>
    </g>
    <g id="USB">
      <path class="cls-4" d="M191.39,10.09h7.44c4.47,0,8.09,3.63,8.09,8.09v41.14h-23.63V18.18c0-4.47,3.63-8.09,8.09-8.09Z" transform="translate(351.93 -86.47) rotate(132.22)"/>
      <rect class="cls-11" x="163.13" y="6.32" width="15.92" height="13.42" transform="translate(295.71 -104.92) rotate(132.22)"/>
      <g>
        <rect class="cls-5" x="171.42" y="9.56" width="4.88" height="2.34" transform="translate(298.64 -110.82) rotate(132.22)"/>
        <rect class="cls-5" x="166.55" y="14.92" width="4.88" height="2.34" transform="translate(294.47 -98.24) rotate(132.22)"/>
      </g>
      <rect class="cls-5" x="168.48" y="17.37" width="15.92" height="1.03" transform="translate(308.25 -100.76) rotate(132.22)"/>
      <circle class="cls-16" cx="208.32" cy="46.69" r="3.16"/>
    </g>
    <g id="Repositorium">
      <g>
        <path class="cls-7" d="M151.8,1.63c-.04,1.25-11.62,2.26-25.9,2.26s-25.86-1.01-25.9-2.26h51.8Z"/>
        <path class="cls-7" d="M151.8,22.21c-.04,1.25-11.62,2.26-25.9,2.26s-25.86-1.01-25.9-2.26h51.8Z"/>
        <path class="cls-4" d="M151.8,22.2h0c-.04,1.25-11.62,2.26-25.9,2.26s-25.86-1.01-25.9-2.26h0c0-1.26,11.6-2.27,25.9-2.27s25.9,1.01,25.9,2.26Z"/>
        <path class="cls-7" d="M151.8,42.79c-.04,1.25-11.62,2.26-25.9,2.26s-25.86-1.01-25.9-2.26h51.8Z"/>
        <path class="cls-4" d="M151.8,42.78h0c-.04,1.25-11.62,2.26-25.9,2.26s-25.86-1.01-25.9-2.26h0c0-1.26,11.6-2.27,25.9-2.27s25.9,1.01,25.9,2.26Z"/>
        <rect class="cls-11" x="101.66" y="11.28" width="48.48" height="43.83"/>
        <path class="cls-17" d="M151.81,42.79v14.56c0,1.25-12.06,3.42-26.37,3.42s-25.43-2.17-25.43-3.42v-14.56h0c.04,1.25,11.62,2.26,25.9,2.26s25.87-1.01,25.9-2.26h0Z"/>
        <path class="cls-17" d="M151.81,1.63v14.56c0,1.25-11.6,2.26-25.9,2.26s-25.9-1.01-25.9-2.26V1.63h0c.04,1.25,11.62,2.26,25.9,2.26s25.87-1.01,25.9-2.26h0Z"/>
        <path class="cls-17" d="M151.81,22.21v14.56c0,1.25-11.6,2.26-25.9,2.26s-25.9-1.01-25.9-2.26v-14.56h0c.04,1.25,11.62,2.26,25.9,2.26s25.87-1.01,25.9-2.26h0Z"/>
        <path class="cls-4" d="M151.8,1.62h0c-.04,1.25-11.62,2.26-25.9,2.26s-25.86-1.01-25.9-2.26h0c0-1.26,11.62-1.63,25.92-1.63s25.88.37,25.88,1.62Z"/>
      </g>
      <rect class="cls-16" x="119.36" y="10.53" width="13.01" height="1.49"/>
      <rect class="cls-16" x="119.4" y="31.07" width="13.01" height="1.49"/>
      <rect class="cls-16" x="119.4" y="52.25" width="13.01" height="1.49"/>
    </g>
    <g id="Cloud">
      <path class="cls-11" d="M77.77,168.24v12.83H6.32v-9.96c0-2.35,1.08-4.97,2.69-7.2,1.93-2.68,4.63-4.81,7.16-5.26-.25-1.07-.39-2.19-.39-3.33,0-7.98,6.47-14.44,14.44-14.44,5.03,0,9.46,2.57,12.05,6.48,1.81-1.52,4.15-2.44,6.7-2.44,5.1,0,9.35,3.67,10.23,8.52,1-.81,2.01-1.24,3.3-1.34,5.37-.37,12.06,5.59,14.41,11.81.55,1.46.86,2.93.86,4.33Z"/>
      <path class="cls-3" d="M22.39,175.79v8.31h46.29v-6.45c0-1.52-.7-3.22-1.74-4.67-1.25-1.74-3-3.11-4.64-3.41.16-.69.25-1.42.25-2.16,0-5.17-4.19-9.36-9.36-9.36-3.26,0-6.13,1.67-7.81,4.2-1.17-.99-2.69-1.58-4.34-1.58-3.31,0-6.05,2.38-6.63,5.52-.64-.52-1.3-.81-2.14-.87-3.48-.24-7.81,3.62-9.33,7.65-.36.94-.56,1.9-.56,2.81Z"/>
    </g>
    <g id="Fragezeichen">
      <g>
        <rect class="cls-6" x="161.2" y="122.23" width="8.88" height="8.88" rx="4.44" ry="4.44"/>
        <path class="cls-14" d="M182.12,94.48c0,2.26-.54,4.38-1.6,6.3-1.05,1.88-3,4.08-5.96,6.7-2.29,2.03-3.21,3.06-3.58,3.57-.5.69-.88,1.5-1.13,2.41-.26.95-.41,2.57-.45,4.81l-.02,1.08h-7.79l-.03-1.07c-.02-.78-.03-1.38-.03-1.79,0-2.43.35-4.57,1.05-6.36.52-1.36,1.35-2.74,2.49-4.11.83-.99,2.25-2.36,4.33-4.21,1.93-1.7,3.18-3.05,3.73-4,.52-.9.77-1.86.77-2.93,0-1.99-.76-3.69-2.34-5.21-1.58-1.53-3.47-2.28-5.77-2.28s-4.02.67-5.5,2.05c-1.48,1.38-2.47,3.63-2.95,6.69l-.16,1.05-8.18-.97.13-1.1c.57-4.71,2.32-8.38,5.2-10.92,2.88-2.54,6.7-3.82,11.36-3.82,4.93,0,8.94,1.38,11.91,4.1,3,2.74,4.53,6.12,4.53,10.03Z"/>
      </g>
    </g>
  </g>
</svg>