<?xml version="1.0" encoding="UTF-8"?>
<svg id="_0047_THK_DMP" data-name="0047_THK_DMP" xmlns="http://www.w3.org/2000/svg" viewBox="0 0 342.02 516.38">
  <defs>
    <style>
      .cls-1 {
        fill: #eee;
      }

      .cls-1, .cls-2, .cls-3, .cls-4, .cls-5, .cls-6, .cls-7, .cls-8, .cls-9, .cls-10, .cls-11, .cls-12, .cls-13, .cls-14, .cls-15, .cls-16, .cls-17, .cls-18, .cls-19, .cls-20, .cls-21, .cls-22, .cls-23 {
        stroke-width: 0px;
      }

      .cls-2 {
        fill: #42210b;
      }

      .cls-3 {
        fill: #a5678d;
      }

      .cls-4 {
        fill: #fcf1e7;
      }

      .cls-5 {
        fill: #308fc9;
      }

      .cls-6 {
        fill: #206289;
      }

      .cls-7 {
        fill: #dddddc;
      }

      .cls-8 {
        fill: #64abd6;
      }

      .cls-9 {
        fill: #873567;
      }

      .cls-10 {
        fill: #000;
      }

      .cls-11 {
        fill: #73bbe7;
      }

      .cls-12 {
        fill: #fcd9bd;
      }

      .cls-13 {
        fill: #dcbd92;
      }

      .cls-14 {
        fill: #b47d49;
      }

      .cls-15 {
        fill: #236289;
      }

      .cls-16 {
        fill: #e5e6e5;
      }

      .cls-24 {
        opacity: .86;
      }

      .cls-17 {
        fill: #64abd6;
      }

      .cls-18 {
        fill: #b9ddf3;
      }

      .cls-19 {
        fill: #603813;
      }

      .cls-20 {
        fill: #ccc;
      }

      .cls-21 {
        fill: #fff;
      }

      .cls-22 {
        fill: #e1ccd9;
      }

      .cls-23 {
        fill: #f2b885;
      }
    </style>
  </defs>
  <g id="Person">
    <g id="Gesicht">
      <g id="Kopf">
        <path class="cls-13" d="M200.18,53.45v1.93c0,2.84-2.32,5.16-5.16,5.16-.32,0-.64-.03-.95-.09-.59-.11-1.15-.33-1.66-.63-.43,2.13-1.16,4.16-2.14,6.04-2.47,4.78-6.55,8.62-11.51,10.78.01.09.01.18.01.27v19.36c0,5-4.09,9.09-9.09,9.09s-9.1-4.09-9.1-9.09v-19.45c-5.16-2.14-9.41-6.07-11.95-11.01-.92-1.78-1.61-3.7-2.05-5.71-.6.28-1.27.43-1.97.43-.03,0-.06,0-.09,0-2.83,0-5.15-2.32-5.15-5.16v-1.93c0-2.84,2.32-5.16,5.15-5.16.53,0,1.05.08,1.53.23v-4.73c0-12.88,10.54-23.42,23.41-23.42,6.44,0,12.29,2.64,16.54,6.88s6.88,10.1,6.88,16.54v4.98c.66-.31,1.38-.48,2.14-.48,1.42,0,2.71.58,3.65,1.52s1.51,2.22,1.51,3.64Z"/>
      </g>
      <g id="Schatten">
        <path class="cls-14" d="M178.72,76.69c-1.4.62-3.31,1.3-5.65,1.67-2.73.43-5.06.3-6.71.07,4.14,3.08,8.28,6.17,12.42,9.25,0-1.02,0-1.91,0-2.63,0-.59,0-.64,0-3.29,0-1.85,0-2.03,0-2.44-.01-1.12-.04-2.03-.06-2.64Z"/>
        <path class="cls-14" d="M195.77,52.06c.36,0,.88,1.47.48,2.81-.28.96-1.06,1.92-1.37,1.79-.6-.24.26-4.61.89-4.6Z"/>
        <path class="cls-14" d="M143.45,52.06c-.36,0-.88,1.47-.48,2.81.28.96,1.06,1.92,1.37,1.79.6-.24-.26-4.61-.89-4.6Z"/>
      </g>
      <g id="Augenbrauen">
        <path class="cls-2" d="M183.17,40.65c-.66-.36-1.91-.91-3.55-.98-2.07-.09-3.62.62-4.31.98-1.18-.6-1.44-1.08-1.44-1.44.02-1.23,3.31-2.55,6.27-2.27,2,.19,4.46,1.18,4.46,2.27,0,.56-.66,1.05-1.44,1.44Z"/>
        <path class="cls-2" d="M162.37,40.69c-.66-.36-1.91-.91-3.55-.98-2.07-.09-3.62.62-4.31.98-1.18-.6-1.44-1.08-1.44-1.44.02-1.23,3.31-2.55,6.27-2.27,2,.19,4.46,1.18,4.46,2.27,0,.56-.66,1.05-1.44,1.44Z"/>
      </g>
      <g id="Augen">
        <rect class="cls-10" x="156.68" y="42.35" width="3.95" height="4.64" rx="1.97" ry="1.97"/>
        <rect class="cls-10" x="177.17" y="42.35" width="3.95" height="4.64" rx="1.97" ry="1.97"/>
      </g>
      <g id="Mund">
        <path class="cls-21" d="M161.1,63.03c.13.47,1.21,4,4.62,5.36,3.24,1.29,7.24.09,9.66-3.07-1.91.38-5.14.75-8.93-.16-2.25-.54-4.05-1.38-5.36-2.13Z"/>
      </g>
      <g id="Nase">
        <path class="cls-10" d="M169.69,59.3c-.65,0-1.34-.18-1.99-.54-.06-.03-.08-.11-.05-.17.03-.06.11-.08.17-.05.93.51,1.97.65,2.8.36.46-.16.8-.43.93-.75.33-.79.05-1.58-.87-2.42l-.12-.11c-.47-.43-1.17-1.07-1.51-2.15-.12-.37-.16-.93-.19-1.3v-.16c-.01-.44-.02-.8-.03-1.17,0-.36-.01-.72-.01-1.16,0-.07.06-.12.12-.12s.12.06.12.12c0,.43,0,.79.01,1.15,0,.36.01.72.01,1.16v.15c.04.36.08.9.19,1.24.32,1.01,1,1.63,1.44,2.04l.12.11c1,.92,1.31,1.8.93,2.7-.16.39-.56.71-1.08.89-.32.11-.66.17-1.02.17Z"/>
      </g>
      <g id="Haare">
        <path class="cls-2" d="M195.13,47.47c-.03.33-.06.6-.1.83-.35.09-.7.16-1.05.24-.34.09-.69.16-1.04.25-3.12-3.76-6.36-8.05-9.52-12.91-1.77-2.71-3.36-5.36-4.8-7.92-1.2,1.77-3.25,4.3-6.5,6.22-.9.53-2.82,1.57-11.47,3.65-7.64,1.84-8.42,1.57-9.7,2.92-2.64,2.79-2.01,6.77-4.8,7.82-1.05.4-2.11.2-2.85-.04-.78-2.01-1.84-6.75-.77-12.44.16-.9.4-1.83.69-2.79,1.2-3.9,4.37-7.77,5.91-9.31,4.68-4.68,9.06-6.74,12.12-7.68.78-.25,1.47-.41,2.06-.54.89-.19,1.57-.28,2.03-.34,2.11-.28,7.64-.93,13.3,1.17,1.27.46,2.41,1.03,3.45,1.66,3.81,2.26,6.16,5.21,7.34,6.74,6.64,8.61,6.13,18.73,5.71,22.47Z"/>
        <path class="cls-2" d="M185.49,13.15c-.45,1.99-1.58,3.34-2.81,4.55-1.15-.73-2.46-1.39-3.9-1.93-5.66-2.09-11.19-1.44-13.3-1.17-.46.06-1.14.15-2.03.34-.75.15-1.67.39-2.72.75-.89-1.23-1.31-2.63-1.73-4.28-1.26-4.98,2.34-7.92,3.48-8.83C165.7,0,170.59-.07,172.86.03c2.31.1,6.38.66,9.99,4.12,1.08,1.04,3.75,4.1,2.64,9Z"/>
        <path class="cls-5" d="M182.68,17.7c-.19.19-.4.39-.6.56-1.04-.63-2.18-1.19-3.45-1.66-5.66-2.09-11.19-1.44-13.3-1.17-.46.06-1.14.15-2.03.34-.59.12-1.28.29-2.06.54-.18-.2-.35-.41-.51-.63,1.05-.36,1.97-.6,2.72-.75.89-.19,1.57-.28,2.03-.34,2.11-.28,7.64-.93,13.3,1.17,1.44.54,2.75,1.2,3.9,1.93Z"/>
      </g>
    </g>
    <g id="Körper">
      <g id="Körper-2" data-name="Körper">
        <path class="cls-13" d="M247.89,499.8c-1.93-3.26-1.15-12.28-1.33-14.93-.44-6.44-.9-12.87-1.39-19.3-.99-13.1-2.07-26.19-3.26-39.28-2.02-22.29-4.44-44.54-6.94-66.77-2.22-19.72-2.47-38.94-2.97-58.76-1.5-58.79-7.21-80.81-18.85-98.66-.32-.49-.6-.97-.84-1.33-.11-.21-.24-.4-.37-.58-4.85-9.68-9.69-19.37-14.53-29.06,3.1-26.73,6.2-53.47,9.3-80.21-10.67-.17-22.79.24-36.04,1.75-14.19,1.61-26.86,4.17-37.78,6.97,6.98,23.83,13.95,47.66,20.93,71.49l-18.6,29.06.11.1c-.15.14-.28.29-.42.47-.36.78-.81,1.53-.81,1.53-18.58,31.47-13.08,109.72-13.08,109.77,1.36,19.27,2.49,37.96,2.28,57.29-.23,20.82-.23,41.64,0,62.47.14,12.47.35,24.94.65,37.41.15,6.14.31,12.28.5,18.44.09,3.02.94,6.51.3,9.49-.44,2.08-2.99,3.8-3.03,5.66-.02.85.58,1.57,1.2,2.15,3.09,2.9,7.52,4.21,11.7,3.76,1.9-.21,12-3.56,9.24-6.8-2.21-2.59-2.03-2.68-1.53-6.29.42-3.01.83-6.02,1.25-9.04,1.04-7.51,2.06-15.02,3.09-22.52,2.11-15.36,3.42-22.61,4.73-34.67,1.78-16.53,2.89-33.12,3.31-49.74.31-12.3-.95-24.59-.41-36.89.54-12.3,3-24.61,4.71-36.8.92-6.56,9.2-76.72,10.79-76.72h6.17c.18.18.4.34.62.48,1.76,1.12,2.72,11.76,3.24,14.02,1.16,5.03,2.33,10.06,3.49,15.09,2.33,10.06,4.65,20.13,6.97,30.19,5.32,23.03,10.59,44.81,13,68.36s5.62,46.49,10.39,69.39c4.25,20.36,7.21,31.16,10.31,42.22,1.81,6.45,3.72,12.87,5.72,19.25.87,2.78,5.09,10.68,2.79,13.38-.7.83-2.02,1.38-1.94,2.46.04.56.47,1.01.89,1.39,1.3,1.19,2.69,2.27,4.17,3.23,1.79,1.17,3.79,2.19,5.92,2.18,3.06-.02,8.65-2.59,10.57-5.04.87-1.1,1.07-2.86.06-3.83-.79-.76-2.01-.8-3.06-1.14-.5-.16-.91-.55-1.23-1.1Z"/>
      </g>
      <g id="Schuhe">
        <path class="cls-19" d="M147.64,513.42v2.96h-58.52v-2.96s.47-2.78,15.31-7.08c6.84-1.97,12.11-4.46,17.49-5.95,2.33.94,6.16,2.15,11.01,2.23,5.24.05,9.36-1.26,11.75-2.23.73,1.6,1.55,3.64,2.12,6.06.63,2.7.84,5.11.84,6.97Z"/>
        <path class="cls-19" d="M227.45,513.42v2.96h58.52v-2.96s-.47-2.78-15.31-7.08c-6.84-1.97-12.11-4.46-17.49-5.95-2.33.94-6.16,2.15-11.01,2.23-5.24.05-9.36-1.26-11.75-2.23-.73,1.6-1.55,3.64-2.12,6.06-.63,2.7-.84,5.11-.84,6.97Z"/>
      </g>
      <g id="Arm_rechts" data-name="Arm rechts">
        <path class="cls-13" d="M308.84,111.21c-1.14,1.29-2.47,1.87-3.22,2.12-6.94,8.55-14.23,17.24-21.91,26.05-7.39,8.49-14.74,16.61-21.98,24.38-.98,1.62-2.46,2.96-4.35,3.74-3.43,1.43-7.22.66-9.8-1.71-.23-.21-.45-.46-.65-.69-.08-.05-.15-.14-.2-.2-16.5-16.84-32.98-33.69-49.45-50.52-.04-.04-.05-.06-.07-.09h-.02c-1.13-1.13-2.07-2.5-2.73-4.08-2.68-6.43.35-13.83,6.81-16.52,5.06-2.11,10.74-.67,14.22,3.19.05.04.07.09.11.13.19.23.38.49.59.72,12.92,15.96,25.83,31.91,38.73,47.88,14.57-12.83,29.13-25.65,43.71-38.48.1-2.84,1.98-5.25,4.56-5.94,3.12-.83,6.43,1.09,7.33,3.85.99,3.04-1.34,5.78-1.68,6.17Z"/>
      </g>
      <g id="Haare-2" data-name="Haare">
        <path class="cls-2" d="M194.07,60.45c-.1.62-.29,1.28-.56,1.95-.83,2.05-2.21,3.49-3.24,3.46.98-1.88,1.71-3.91,2.14-6.04.51.3,1.07.52,1.66.63Z"/>
        <path class="cls-2" d="M148.63,65.81c-1.05.3-2.58-1.2-3.48-3.42-.26-.64-.44-1.27-.54-1.86.7,0,1.37-.15,1.97-.43.44,2.01,1.13,3.93,2.05,5.71Z"/>
      </g>
      <g id="Hose">
        <path class="cls-20" d="M262.4,472.49c-16.46,1.55-32.93,3.09-49.39,4.67-3.38-42.63-8.89-88.77-17.43-137.77-6.48-36.91-14-71.65-22.1-104.03v-64.5c8.23.03,16.46.03,24.7.05,7.37,9.57,17.7,24.99,25.3,45.85,6.4,17.59,8.28,32.01,12.79,79.62,2.88,30.81,4.64,51.57,5.22,58.12,2.46,27.76,7.84,67.88,20.92,117.98Z"/>
        <path class="cls-16" d="M173.47,170.86v64.5c-4.38,31.02-8,64-10.46,98.81-3.64,51.44-4.22,99.5-2.91,143.57-17.22-.97-34.48-1.94-51.73-2.91,5.9-53.56,6.79-93.26,6.4-120.31-.05-4.75-.37-22.49,0-46.51.58-37.15.84-55.74,4.06-70.32,3.46-15.65,11.72-39.9,34.29-66.85,6.79,0,13.58.03,20.34.03Z"/>
      </g>
      <g id="Arm_links" data-name="Arm links">
        <path class="cls-12" d="M144.06,121.62c-.81,1.49-1.89,2.76-3.13,3.78h-.03s-.02.04-.07.07c-5.28,3.12-10.07,8.34-14.8,12.26-5.08,4.21-10.15,8.41-15.23,12.62-5.08,4.21-10.16,8.41-15.24,12.62-3.76,3.11-8.65,8.94-13.6,9.98-1.34.28-2.72.17-4.09.13-10.76-.31-21.79,1.35-32.55,1.85-11.67.54-23.02.87-34.02,1-.66.43-1.95,1.12-3.66,1.2-.52.03-4.12.16-5.88-2.5-1.6-2.43-1.06-6.21,1.53-8.14,2.14-1.6,5.2-1.57,7.49.11,21.74-3.93,43.47-7.88,65.21-11.81,15.91-15.97,31.84-31.9,47.77-47.85.23-.21.45-.45.66-.66.05-.03.07-.08.12-.11,3.87-3.48,9.67-4.32,14.48-1.7,6.14,3.35,8.38,11.02,5.04,17.15Z"/>
      </g>
      <g id="Oberteil">
        <path class="cls-3" d="M173.62,98.84v77.6c-10.65-.31-19.25-2.59-24.99-4.59-.92-4.35-1.91-8.81-2.96-13.32,0,0-1.89-8.07-4.01-16.09-1.01-3.84-2.12-7.79-3.24-11.67l-17.04,17.04-22.03-22.03s22.91-22.91,22.91-22.91c4.69-4.69,12.69-5.72,18.88-7.17,3.17-.74,6.25-1.37,9.22-1.92,1.57,1.2,9.1,6.71,19.85,5.63,1.2-.13,2.33-.31,3.41-.57Z"/>
        <path class="cls-9" d="M240.56,117.44l-21.82,21.82-13.56-13.56c-.18,3.34-.36,6.24-.52,8.74-.13,1.86-.37,5.48-.63,10.51-.5,9.34-.79,18.38-.92,27.11-6.16,2.1-15.68,4.51-27.45,4.43-.68,0-1.36-.02-2.04-.05v-77.6c8.49-1.97,13.5-7.4,14.68-8.73.38-.43,3.76-.04,4.42-.04,7.85-.07,18.75-1.72,24.88,4.41l22.96,22.96Z"/>
      </g>
    </g>
  </g>
  <g id="Der_Plan" data-name="Der Plan">
    <g id="Tafel">
      <rect class="cls-23" x="4.16" y="103.66" width="337.86" height="229.13"/>
    </g>
    <g id="Linien">
      <g>
        <rect class="cls-15" x="56.72" y="216.25" width="1" height="1.5"/>
        <path class="cls-15" d="M57.72,253.08h-1v-3.03h1v3.03ZM57.72,248.03h-1v-3.03h1v3.03ZM57.72,242.98h-1v-3.03h1v3.03ZM57.72,237.94h-1v-3.03h1v3.03ZM57.72,232.89h-1v-3.03h1v3.03ZM57.72,227.84h-1v-3.03h1v3.03ZM57.72,222.79h-1v-3.03h1v3.03Z"/>
        <polygon class="cls-15" points="58.72 257.1 56.72 257.1 56.72 255.1 57.72 255.1 57.72 256.1 58.72 256.1 58.72 257.1"/>
        <path class="cls-15" d="M114.17,257.1h-3.02v-1h3.02v1ZM109.13,257.1h-3.02v-1h3.02v1ZM104.09,257.1h-3.02v-1h3.02v1ZM99.05,257.1h-3.02v-1h3.02v1ZM94.01,257.1h-3.02v-1h3.02v1ZM88.97,257.1h-3.02v-1h3.02v1ZM83.93,257.1h-3.02v-1h3.02v1ZM78.89,257.1h-3.02v-1h3.02v1ZM73.85,257.1h-3.02v-1h3.02v1ZM68.81,257.1h-3.02v-1h3.02v1ZM63.76,257.1h-3.02v-1h3.02v1Z"/>
        <rect class="cls-15" x="116.19" y="256.1" width="1.5" height="1"/>
      </g>
      <g>
        <rect class="cls-15" x="56.69" y="237.84" width="1.5" height="1"/>
        <path class="cls-15" d="M55.02,238.84h-2.5v-1h2.5v1ZM50.86,238.84h-2.5v-1h2.5v1Z"/>
        <polygon class="cls-15" points="45.7 239.84 44.7 239.84 44.7 237.84 46.7 237.84 46.7 238.84 45.7 238.84 45.7 239.84"/>
        <path class="cls-15" d="M45.7,293.9h-1v-2.95h1v2.95ZM45.7,288.99h-1v-2.95h1v2.95ZM45.7,284.07h-1v-2.95h1v2.95ZM45.7,279.16h-1v-2.95h1v2.95ZM45.7,274.24h-1v-2.95h1v2.95ZM45.7,269.33h-1v-2.95h1v2.95ZM45.7,264.41h-1v-2.95h1v2.95ZM45.7,259.5h-1v-2.95h1v2.95ZM45.7,254.58h-1v-2.95h1v2.95ZM45.7,249.67h-1v-2.95h1v2.95ZM45.7,244.76h-1v-2.95h1v2.95Z"/>
        <rect class="cls-15" x="44.7" y="295.87" width="1" height="1.5"/>
      </g>
      <g>
        <rect class="cls-15" x="87.46" y="149.78" width="1" height="1.5"/>
        <path class="cls-15" d="M88.46,159.23h-1v-2.38h1v2.38ZM88.46,155.26h-1v-2.38h1v2.38Z"/>
        <polygon class="cls-15" points="89.46 162.82 87.46 162.82 87.46 160.82 88.46 160.82 88.46 161.82 89.46 161.82 89.46 162.82"/>
        <path class="cls-15" d="M157.58,162.82h-2.92v-1h2.92v1ZM152.72,162.82h-2.92v-1h2.92v1ZM147.85,162.82h-2.92v-1h2.92v1ZM142.98,162.82h-2.92v-1h2.92v1ZM138.12,162.82h-2.92v-1h2.92v1ZM133.25,162.82h-2.92v-1h2.92v1ZM128.38,162.82h-2.92v-1h2.92v1ZM123.52,162.82h-2.92v-1h2.92v1ZM118.65,162.82h-2.92v-1h2.92v1ZM113.79,162.82h-2.92v-1h2.92v1ZM108.92,162.82h-2.92v-1h2.92v1ZM104.05,162.82h-2.92v-1h2.92v1ZM99.19,162.82h-2.92v-1h2.92v1ZM94.32,162.82h-2.92v-1h2.92v1Z"/>
        <polygon class="cls-15" points="161.53 163.82 160.53 163.82 160.53 162.82 159.53 162.82 159.53 161.82 161.53 161.82 161.53 163.82"/>
        <path class="cls-15" d="M161.53,173.26h-1v-2.83h1v2.83ZM161.53,168.54h-1v-2.83h1v2.83Z"/>
        <rect class="cls-15" x="160.53" y="175.14" width="1" height="1.5"/>
      </g>
      <g>
        <rect class="cls-15" x="86.46" y="161.82" width="1.5" height="1"/>
        <path class="cls-15" d="M84.46,162.82h-2.99v-1h2.99v1ZM79.47,162.82h-2.99v-1h2.99v1ZM74.48,162.82h-2.99v-1h2.99v1ZM69.49,162.82h-2.99v-1h2.99v1Z"/>
        <polygon class="cls-15" points="63.5 163.82 62.5 163.82 62.5 161.82 64.5 161.82 64.5 162.82 63.5 162.82 63.5 163.82"/>
        <path class="cls-15" d="M63.5,173.26h-1v-2.83h1v2.83ZM63.5,168.54h-1v-2.83h1v2.83Z"/>
        <rect class="cls-15" x="62.5" y="175.14" width="1" height="1.5"/>
      </g>
      <g>
        <rect class="cls-15" x="229.21" y="194.7" width="1.5" height="1"/>
        <path class="cls-15" d="M279.83,195.7h-2.95v-1h2.95v1ZM274.92,195.7h-2.95v-1h2.95v1ZM270.01,195.7h-2.95v-1h2.95v1ZM265.09,195.7h-2.95v-1h2.95v1ZM260.18,195.7h-2.95v-1h2.95v1ZM255.27,195.7h-2.95v-1h2.95v1ZM250.36,195.7h-2.95v-1h2.95v1ZM245.44,195.7h-2.95v-1h2.95v1ZM240.53,195.7h-2.95v-1h2.95v1ZM235.62,195.7h-2.95v-1h2.95v1Z"/>
        <rect class="cls-15" x="281.8" y="194.7" width="1.5" height="1"/>
      </g>
      <g>
        <rect class="cls-15" x="167.87" y="172.46" width="1" height="1.5"/>
        <path class="cls-15" d="M168.87,191.91h-1v-2.69h1v2.69ZM168.87,187.42h-1v-2.69h1v2.69ZM168.87,182.93h-1v-2.69h1v2.69ZM168.87,178.45h-1v-2.69h1v2.69Z"/>
        <polygon class="cls-15" points="169.87 195.71 167.87 195.71 167.87 193.71 168.87 193.71 168.87 194.71 169.87 194.71 169.87 195.71"/>
        <path class="cls-15" d="M225.68,195.71h-3.04v-1h3.04v1ZM220.6,195.71h-3.04v-1h3.04v1ZM215.53,195.71h-3.04v-1h3.04v1ZM210.46,195.71h-3.04v-1h3.04v1ZM205.38,195.71h-3.04v-1h3.04v1ZM200.31,195.71h-3.04v-1h3.04v1ZM195.24,195.71h-3.04v-1h3.04v1ZM190.16,195.71h-3.04v-1h3.04v1ZM185.09,195.71h-3.04v-1h3.04v1ZM180.02,195.71h-3.04v-1h3.04v1ZM174.95,195.71h-3.04v-1h3.04v1Z"/>
        <polygon class="cls-15" points="229.71 196.71 228.71 196.71 228.71 195.71 227.71 195.71 227.71 194.71 229.71 194.71 229.71 196.71"/>
        <path class="cls-15" d="M229.71,254.32h-1v-2.88h1v2.88ZM229.71,249.52h-1v-2.88h1v2.88ZM229.71,244.72h-1v-2.88h1v2.88ZM229.71,239.92h-1v-2.88h1v2.88ZM229.71,235.12h-1v-2.88h1v2.88ZM229.71,230.32h-1v-2.88h1v2.88ZM229.71,225.51h-1v-2.88h1v2.88ZM229.71,220.71h-1v-2.88h1v2.88ZM229.71,215.91h-1v-2.88h1v2.88ZM229.71,211.11h-1v-2.88h1v2.88ZM229.71,206.31h-1v-2.88h1v2.88ZM229.71,201.51h-1v-2.88h1v2.88Z"/>
        <polygon class="cls-15" points="230.71 258.24 228.71 258.24 228.71 256.24 229.71 256.24 229.71 257.24 230.71 257.24 230.71 258.24"/>
        <path class="cls-15" d="M254.47,258.24h-2.85v-1h2.85v1ZM249.72,258.24h-2.85v-1h2.85v1ZM244.97,258.24h-2.85v-1h2.85v1ZM240.21,258.24h-2.85v-1h2.85v1ZM235.46,258.24h-2.85v-1h2.85v1Z"/>
        <polygon class="cls-15" points="258.37 259.24 257.37 259.24 257.37 258.24 256.37 258.24 256.37 257.24 258.37 257.24 258.37 259.24"/>
        <path class="cls-15" d="M258.37,303.89h-1v-2.98h1v2.98ZM258.37,298.93h-1v-2.98h1v2.98ZM258.37,293.97h-1v-2.98h1v2.98ZM258.37,289.01h-1v-2.98h1v2.98ZM258.37,284.05h-1v-2.98h1v2.98ZM258.37,279.09h-1v-2.98h1v2.98ZM258.37,274.13h-1v-2.98h1v2.98ZM258.37,269.16h-1v-2.98h1v2.98ZM258.37,264.2h-1v-2.98h1v2.98Z"/>
        <rect class="cls-15" x="257.37" y="305.87" width="1" height="1.5"/>
      </g>
    </g>
    <g id="Kästen">
      <rect class="cls-4" x="27.57" y="173.19" width="71.19" height="41.48"/>
      <rect class="cls-4" x="127.01" y="173.19" width="71.19" height="41.48"/>
      <rect class="cls-4" x="109.62" y="243.43" width="71.19" height="48.38"/>
      <rect class="cls-4" x="18.68" y="278.67" width="73.41" height="46.08"/>
      <rect class="cls-4" x="199.2" y="224.21" width="46.15" height="42.7"/>
      <rect class="cls-4" x="218.4" y="278.46" width="78.94" height="46.15"/>
      <rect class="cls-4" x="266.39" y="173.19" width="61.12" height="65.15"/>
    </g>
    <g id="Zeilen">
      <rect class="cls-15" x="133.51" y="186.49" width="33.84" height="1"/>
      <rect class="cls-15" x="133.51" y="191.02" width="58.23" height="1"/>
      <rect class="cls-15" x="133.51" y="195.56" width="58.23" height="1"/>
      <rect class="cls-15" x="133.47" y="199.99" width="58.23" height="1"/>
    </g>
    <g id="Zeilen-2" data-name="Zeilen">
      <rect class="cls-15" x="205.49" y="234.86" width="18.88" height="1"/>
      <rect class="cls-15" x="205.49" y="239.39" width="32.48" height="1"/>
      <rect class="cls-15" x="205.49" y="243.92" width="32.48" height="1"/>
      <rect class="cls-15" x="205.47" y="248.35" width="32.48" height="1"/>
    </g>
    <g id="Plan_Text" data-name="Plan Text">
      <rect class="cls-22" x="49.77" y="108.91" width="77.84" height="38.24"/>
      <path class="cls-9" d="M61.86,135.57h-3.31l3.37-16.09h6.54c1.16,0,2.08.14,2.76.41.68.27,1.21.73,1.61,1.36.4.63.59,1.39.59,2.27,0,.81-.16,1.6-.47,2.37-.32.77-.7,1.38-1.16,1.84s-.95.81-1.48,1.05c-.53.24-1.24.42-2.13.54-.52.07-1.49.11-2.92.11h-2.12l-1.28,6.14ZM63.7,126.77h1.02c1.75,0,2.92-.11,3.5-.33.58-.22,1.05-.57,1.38-1.05.34-.48.5-1.01.5-1.59,0-.39-.09-.71-.26-.96-.17-.25-.41-.43-.72-.54-.31-.11-1-.17-2.08-.17h-2.37l-.98,4.64Z"/>
      <path class="cls-9" d="M73.64,135.57l3.37-16.09h3.3l-2.8,13.4h8.19l-.56,2.69h-11.5Z"/>
      <path class="cls-9" d="M97.82,132.02h-6.38l-1.93,3.56h-3.4l9.1-16.09h3.68l2.61,16.09h-3.14l-.54-3.56ZM97.41,129.34l-.93-6.48-3.88,6.48h4.82Z"/>
      <path class="cls-9" d="M116.38,135.57h-3.08l-4.35-10.81-2.26,10.81h-3.08l3.36-16.09h3.1l4.36,10.77,2.25-10.77h3.07l-3.36,16.09Z"/>
    </g>
    <g id="Icons">
      <g id="Planung">
        <g id="Klemmbrett">
          <rect class="cls-18" x="42.78" y="167.18" width="38.95" height="55.24"/>
          <rect class="cls-5" x="50.98" y="165.45" width="22.74" height="4.09"/>
        </g>
        <g id="Textlinien">
          <rect class="cls-6" x="57.56" y="176.37" width="17.92" height="1"/>
          <rect class="cls-6" x="57.56" y="179.67" width="17.92" height="1"/>
          <rect class="cls-6" x="57.56" y="185.66" width="17.92" height="1"/>
          <rect class="cls-6" x="57.56" y="188.96" width="17.92" height="1"/>
          <rect class="cls-6" x="57.56" y="194.95" width="17.92" height="1"/>
          <rect class="cls-6" x="57.56" y="198.25" width="17.92" height="1"/>
          <rect class="cls-6" x="57.56" y="204.24" width="17.92" height="1"/>
          <rect class="cls-6" x="57.56" y="207.54" width="17.92" height="1"/>
          <rect class="cls-6" x="57.72" y="213.15" width="17.92" height="1"/>
          <rect class="cls-6" x="57.72" y="216.45" width="17.92" height="1"/>
        </g>
        <g id="Checkbox_5" data-name="Checkbox 5">
          <rect class="cls-11" x="49.37" y="211.73" width="5.44" height="5.44"/>
          <polygon class="cls-5" points="52.78 214.46 55.02 216.7 54.34 217.39 52.09 215.14 49.84 217.39 49.16 216.7 51.41 214.46 49.16 212.21 49.84 211.52 52.09 213.77 54.34 211.52 55.02 212.21 52.78 214.46"/>
        </g>
        <g id="Checkbox_4" data-name="Checkbox 4">
          <rect class="cls-11" x="49.21" y="202.82" width="5.44" height="5.44"/>
          <polygon class="cls-5" points="55.33 203.85 51.96 207.23 51.33 207.86 49.21 205.74 49.84 205.11 51.33 206.6 54.7 203.22 55.33 203.85"/>
        </g>
        <g id="Checkbox_3" data-name="Checkbox 3">
          <rect class="cls-11" x="49.21" y="193.53" width="5.44" height="5.44"/>
          <polygon class="cls-5" points="55.33 194.56 51.96 197.94 51.33 198.57 49.21 196.45 49.84 195.82 51.33 197.31 54.7 193.93 55.33 194.56"/>
        </g>
        <g id="Checkbox_2" data-name="Checkbox 2">
          <rect class="cls-11" x="49.21" y="184.24" width="5.44" height="5.44"/>
          <polygon class="cls-5" points="55.33 185.27 51.96 188.65 51.33 189.28 49.21 187.16 49.84 186.53 51.33 188.02 54.7 184.64 55.33 185.27"/>
        </g>
        <g id="Checkbox_1" data-name="Checkbox 1">
          <rect class="cls-11" x="49.21" y="174.95" width="5.44" height="5.44"/>
          <polygon class="cls-5" points="55.33 175.99 51.96 179.36 51.33 179.99 49.21 177.87 49.84 177.24 51.33 178.73 54.7 175.35 55.33 175.99"/>
        </g>
      </g>
      <g id="Daten">
        <g id="Blatt">
          <rect class="cls-5" x="132.53" y="241.14" width="36.75" height="52.12"/>
          <polygon class="cls-18" points="159.79 253.7 159.8 296.02 123.05 296.03 123.04 243.91 149.98 243.9 159.79 253.7"/>
          <polygon class="cls-11" points="159.79 253.7 149.98 253.71 149.98 243.9 159.79 253.7"/>
        </g>
        <g>
          <path class="cls-8" d="M125.34,257.16l.17-.8c.77-.34,1.37-.73,1.8-1.18h.55s-.96,4.62-.96,4.62h-.91s.67-3.18.67-3.18c-.19.12-.4.23-.65.33-.25.1-.46.17-.66.21Z"/>
          <path class="cls-8" d="M129.2,258.3c0-.46.08-.93.24-1.4.19-.58.44-1.01.74-1.29s.63-.42,1-.42c.37,0,.68.13.92.4.24.27.36.66.36,1.17,0,.47-.09.97-.26,1.49s-.41.92-.71,1.2c-.29.28-.63.42-1,.42-.37,0-.68-.13-.92-.4-.24-.27-.36-.66-.36-1.17ZM130.08,258.48c0,.25.04.42.12.52.08.1.18.15.31.15.17,0,.32-.08.44-.23.17-.21.33-.61.46-1.22.11-.48.16-.86.16-1.15,0-.23-.04-.4-.12-.5-.08-.1-.18-.15-.31-.15-.16,0-.3.08-.42.23-.18.22-.34.61-.47,1.17-.11.48-.17.88-.17,1.18Z"/>
          <path class="cls-8" d="M133.41,258.3c0-.46.08-.93.24-1.4.19-.58.44-1.01.74-1.29s.63-.42,1-.42c.37,0,.68.13.92.4.24.27.36.66.36,1.17,0,.47-.09.97-.26,1.49-.17.52-.41.92-.71,1.2-.29.28-.63.42-1,.42-.37,0-.68-.13-.92-.4-.24-.27-.36-.66-.36-1.17ZM134.29,258.48c0,.25.04.42.12.52s.18.15.31.15c.17,0,.32-.08.44-.23.17-.21.33-.61.46-1.22.11-.48.16-.86.16-1.15,0-.23-.04-.4-.12-.5-.08-.1-.18-.15-.31-.15-.16,0-.3.08-.42.23-.18.22-.34.61-.47,1.17-.11.48-.17.88-.17,1.18Z"/>
          <path class="cls-8" d="M137.96,257.16l.17-.8c.77-.34,1.37-.73,1.8-1.18h.55s-.96,4.62-.96,4.62h-.91s.67-3.18.67-3.18c-.19.12-.4.23-.65.33-.25.1-.46.17-.66.21Z"/>
          <path class="cls-8" d="M141.82,258.3c0-.46.08-.93.24-1.4.19-.58.44-1.01.74-1.29s.63-.42,1-.42c.37,0,.68.13.92.4.24.27.36.66.36,1.17,0,.47-.09.97-.26,1.49s-.41.92-.71,1.2c-.29.28-.63.42-1,.42-.37,0-.68-.13-.92-.4-.24-.27-.36-.66-.36-1.17ZM142.7,258.48c0,.25.04.42.12.52.08.1.18.15.31.15.17,0,.32-.08.44-.23.17-.21.33-.61.46-1.22.11-.48.16-.86.16-1.15,0-.23-.04-.4-.12-.5-.08-.1-.18-.15-.31-.15-.16,0-.3.08-.42.23-.18.22-.34.61-.47,1.17-.11.48-.17.88-.17,1.18Z"/>
          <path class="cls-8" d="M146.38,257.15l.17-.8c.77-.34,1.37-.73,1.8-1.18h.55s-.96,4.62-.96,4.62h-.91s.67-3.18.67-3.18c-.19.12-.4.23-.65.33-.25.1-.46.17-.66.21Z"/>
          <path class="cls-8" d="M150.11,257.15l.17-.8c.77-.34,1.37-.73,1.8-1.18h.55s-.96,4.62-.96,4.62h-.91s.67-3.18.67-3.18c-.19.12-.4.23-.65.33-.25.1-.46.17-.66.21Z"/>
          <path class="cls-8" d="M153.97,258.29c0-.46.08-.93.24-1.4.19-.58.44-1.01.74-1.29.3-.28.63-.42,1-.42.37,0,.68.13.92.4.24.27.36.66.36,1.17,0,.47-.09.97-.26,1.49-.17.52-.41.92-.71,1.2-.29.28-.63.42-1,.42-.37,0-.68-.13-.92-.4-.24-.27-.36-.66-.36-1.17ZM154.85,258.47c0,.25.04.42.12.52.08.1.18.15.31.15.17,0,.32-.08.44-.23.17-.21.33-.61.46-1.22.11-.48.16-.86.16-1.15,0-.23-.04-.4-.12-.5-.08-.1-.18-.15-.31-.15-.16,0-.3.08-.42.23-.18.22-.34.61-.47,1.17-.11.48-.17.88-.17,1.18Z"/>
          <path class="cls-8" d="M125,264.71c0-.46.08-.93.24-1.4.19-.58.44-1.01.74-1.29.3-.28.63-.42,1-.42.37,0,.68.13.92.4.24.27.36.66.36,1.17,0,.47-.09.97-.26,1.49-.17.52-.41.92-.71,1.2-.3.28-.63.42-1,.42-.37,0-.68-.13-.92-.4-.24-.27-.36-.66-.36-1.17ZM125.88,264.9c0,.25.04.42.12.52.08.1.18.15.31.15.17,0,.31-.08.44-.23.17-.21.33-.61.46-1.22.11-.48.16-.86.16-1.15,0-.23-.04-.4-.12-.5-.08-.1-.18-.15-.31-.15-.16,0-.3.08-.42.23-.18.22-.34.61-.47,1.17-.11.48-.17.88-.17,1.18Z"/>
          <path class="cls-8" d="M129.55,263.57l.17-.8c.77-.34,1.37-.73,1.8-1.18h.55l-.96,4.62h-.91s.67-3.18.67-3.18c-.19.12-.4.23-.65.33s-.46.17-.66.21Z"/>
          <path class="cls-8" d="M133.41,264.71c0-.46.08-.93.24-1.4.19-.58.44-1.01.74-1.29s.63-.42,1-.42c.37,0,.68.13.92.4.24.27.36.66.36,1.17,0,.47-.09.97-.26,1.49-.17.52-.41.92-.71,1.2-.3.28-.63.42-1,.42-.37,0-.68-.13-.92-.4-.24-.27-.36-.66-.36-1.17ZM134.29,264.89c0,.25.04.42.12.52s.18.15.31.15c.17,0,.31-.08.44-.23.17-.21.33-.61.46-1.22.11-.48.16-.86.16-1.15,0-.23-.04-.4-.12-.5-.08-.1-.18-.15-.31-.15-.16,0-.3.08-.42.23-.18.22-.34.61-.47,1.17-.11.48-.17.88-.17,1.18Z"/>
          <path class="cls-8" d="M137.62,264.71c0-.46.08-.93.24-1.4.19-.58.44-1.01.74-1.29.3-.28.63-.42,1-.42.37,0,.68.13.92.4.24.27.36.66.36,1.17,0,.47-.09.97-.26,1.49-.17.52-.41.92-.71,1.2-.3.28-.63.42-1,.42-.37,0-.68-.13-.92-.4-.24-.27-.36-.66-.36-1.17ZM138.5,264.89c0,.25.04.42.12.52.08.1.18.15.31.15.17,0,.31-.08.44-.23.17-.21.33-.61.46-1.22.11-.48.16-.86.16-1.15,0-.23-.04-.4-.12-.5-.08-.1-.18-.15-.31-.15-.16,0-.3.08-.42.23-.18.22-.34.61-.47,1.17-.11.48-.17.88-.17,1.18Z"/>
          <path class="cls-8" d="M142.17,263.57l.17-.8c.77-.34,1.37-.73,1.8-1.18h.55l-.96,4.62h-.91s.67-3.18.67-3.18c-.19.12-.4.23-.65.33s-.46.17-.66.21Z"/>
          <path class="cls-8" d="M145.9,263.56l.17-.8c.77-.34,1.37-.73,1.8-1.18h.55l-.96,4.62h-.91s.67-3.18.67-3.18c-.19.12-.4.23-.65.33s-.46.17-.66.21Z"/>
          <path class="cls-8" d="M149.76,264.71c0-.46.08-.93.24-1.4.19-.58.44-1.01.74-1.29s.63-.42,1-.42c.37,0,.68.13.92.4.24.27.36.66.36,1.17,0,.47-.09.97-.26,1.49-.17.52-.41.92-.71,1.2-.3.28-.63.42-1,.42-.37,0-.68-.13-.92-.4-.24-.27-.36-.66-.36-1.17ZM150.64,264.89c0,.25.04.42.12.52.08.1.18.15.31.15.17,0,.31-.08.44-.23.17-.21.33-.61.46-1.22.11-.48.16-.86.16-1.15,0-.23-.04-.39-.12-.5-.08-.1-.18-.15-.31-.15-.16,0-.3.08-.42.23-.18.22-.34.61-.47,1.17-.11.48-.17.88-.17,1.18Z"/>
          <path class="cls-8" d="M153.97,264.7c0-.46.08-.93.24-1.4.19-.58.44-1.01.74-1.29.3-.28.63-.42,1-.42.37,0,.68.13.92.4.24.27.36.66.36,1.17,0,.47-.09.97-.26,1.49-.17.52-.41.92-.71,1.2-.3.28-.63.42-1,.42-.37,0-.68-.13-.92-.4-.24-.27-.36-.66-.36-1.17ZM154.85,264.89c0,.25.04.42.12.52.08.1.18.15.31.15.17,0,.31-.08.44-.23.17-.21.33-.61.46-1.22.11-.48.16-.86.16-1.15,0-.23-.04-.4-.12-.5-.08-.1-.18-.15-.31-.15-.16,0-.3.08-.42.23-.18.22-.34.61-.47,1.17-.11.48-.17.88-.17,1.18Z"/>
          <path class="cls-8" d="M125.34,269.98l.17-.8c.77-.34,1.37-.73,1.8-1.18h.55s-.96,4.62-.96,4.62h-.91s.67-3.18.67-3.18c-.19.12-.4.23-.65.33-.25.1-.46.17-.66.21Z"/>
          <path class="cls-8" d="M129.2,271.12c0-.46.08-.93.24-1.4.19-.58.44-1.01.74-1.29.3-.28.63-.42,1-.42.37,0,.68.13.92.4.24.27.36.66.36,1.17,0,.47-.09.97-.26,1.49-.17.52-.41.92-.71,1.2-.3.28-.63.42-1,.42-.37,0-.68-.13-.92-.4-.24-.27-.36-.66-.36-1.17ZM130.09,271.31c0,.25.04.42.12.52.08.1.18.15.31.15.17,0,.32-.08.44-.23.17-.21.33-.61.46-1.22.11-.48.16-.86.16-1.15,0-.23-.04-.4-.12-.5-.08-.1-.18-.15-.31-.15-.16,0-.3.08-.42.23-.18.22-.34.61-.47,1.17-.11.48-.17.88-.17,1.18Z"/>
          <path class="cls-8" d="M133.76,269.98l.17-.8c.77-.34,1.37-.73,1.8-1.18h.55s-.96,4.62-.96,4.62h-.91s.67-3.18.67-3.18c-.19.12-.4.23-.65.33-.25.1-.46.17-.66.21Z"/>
          <path class="cls-8" d="M137.62,271.12c0-.46.08-.93.24-1.4.19-.58.44-1.01.74-1.29.3-.28.63-.42,1-.42.37,0,.68.13.92.4s.36.66.36,1.17c0,.47-.09.97-.26,1.49-.17.52-.41.92-.71,1.2-.3.28-.63.42-1,.42-.37,0-.68-.13-.92-.4-.24-.27-.36-.66-.36-1.17ZM138.5,271.3c0,.25.04.42.12.52.08.1.18.15.31.15.17,0,.32-.08.44-.23.17-.21.33-.61.46-1.22.11-.48.16-.86.16-1.15,0-.23-.04-.4-.12-.5-.08-.1-.18-.15-.31-.15-.16,0-.3.08-.42.23-.18.22-.34.61-.47,1.17-.11.48-.17.88-.17,1.18Z"/>
          <path class="cls-8" d="M141.83,271.12c0-.46.08-.93.24-1.4.19-.58.44-1.01.74-1.29.3-.28.63-.42,1-.42.37,0,.68.13.92.4.24.27.36.66.36,1.17,0,.47-.09.97-.26,1.49-.17.52-.41.92-.71,1.2-.3.28-.63.42-1,.42-.37,0-.68-.13-.92-.4-.24-.27-.36-.66-.36-1.17ZM142.71,271.3c0,.25.04.42.12.52.08.1.18.15.31.15.17,0,.32-.08.44-.23.17-.21.33-.61.46-1.22.11-.48.16-.86.16-1.15,0-.23-.04-.4-.12-.5-.08-.1-.18-.15-.31-.15-.16,0-.3.08-.42.23-.18.22-.34.61-.47,1.17-.11.48-.17.88-.17,1.18Z"/>
          <path class="cls-8" d="M146.38,269.98l.17-.8c.77-.34,1.37-.73,1.8-1.18h.55s-.96,4.62-.96,4.62h-.91s.67-3.18.67-3.18c-.19.12-.4.23-.65.33-.25.1-.46.17-.66.21Z"/>
          <path class="cls-8" d="M150.24,271.12c0-.46.08-.93.24-1.4.19-.58.44-1.01.74-1.29.3-.28.63-.42,1-.42.37,0,.68.13.92.4.24.27.36.66.36,1.17,0,.47-.09.97-.26,1.49-.17.52-.41.92-.71,1.2-.3.28-.63.42-1,.42-.37,0-.68-.13-.92-.4-.24-.27-.36-.66-.36-1.17ZM151.12,271.3c0,.25.04.42.12.52.08.1.18.15.31.15.17,0,.32-.08.44-.23.17-.21.33-.61.46-1.22.11-.48.16-.86.16-1.15,0-.23-.04-.4-.12-.5-.08-.1-.18-.15-.31-.15-.16,0-.3.08-.42.23-.18.22-.34.61-.47,1.17-.11.48-.17.88-.17,1.18Z"/>
          <path class="cls-8" d="M154.79,269.97l.17-.8c.77-.34,1.37-.73,1.8-1.18h.55s-.96,4.62-.96,4.62h-.91s.67-3.18.67-3.18c-.19.12-.4.23-.65.33s-.46.17-.66.21Z"/>
          <path class="cls-8" d="M125.35,276.39l.17-.8c.77-.34,1.37-.73,1.8-1.18h.55s-.96,4.62-.96,4.62h-.91s.67-3.18.67-3.18c-.19.12-.4.23-.65.33-.25.1-.46.17-.66.21Z"/>
          <path class="cls-8" d="M129.21,277.54c0-.46.08-.93.23-1.4.19-.58.44-1.01.74-1.29s.63-.42,1-.42c.37,0,.68.13.92.4.24.27.36.66.36,1.17,0,.47-.09.97-.26,1.49-.17.52-.41.92-.71,1.2-.3.28-.63.42-1,.42-.37,0-.68-.13-.92-.4-.24-.27-.36-.66-.36-1.17ZM130.09,277.72c0,.25.04.42.12.52.08.1.18.15.31.15.17,0,.32-.08.44-.23.17-.21.33-.61.46-1.22.11-.48.16-.86.16-1.15,0-.23-.04-.4-.12-.5-.08-.1-.18-.15-.31-.15-.16,0-.3.08-.42.23-.18.22-.34.61-.47,1.17-.11.48-.17.88-.17,1.18Z"/>
          <path class="cls-8" d="M133.76,276.39l.17-.8c.77-.34,1.37-.73,1.8-1.18h.55s-.96,4.62-.96,4.62h-.91s.67-3.18.67-3.18c-.19.12-.4.23-.65.33-.25.1-.46.17-.66.21Z"/>
          <path class="cls-8" d="M137.62,277.53c0-.46.08-.93.23-1.4.19-.58.44-1.01.74-1.29.3-.28.63-.42,1-.42.37,0,.68.13.92.4.24.27.36.66.36,1.17,0,.47-.09.97-.26,1.49-.17.52-.41.92-.71,1.2-.3.28-.63.42-1,.42-.37,0-.68-.13-.92-.4-.24-.27-.36-.66-.36-1.17ZM138.5,277.71c0,.25.04.42.12.52.08.1.18.15.31.15.17,0,.32-.08.44-.23.17-.21.33-.61.46-1.22.11-.48.16-.86.16-1.15,0-.23-.04-.4-.12-.5-.08-.1-.18-.15-.31-.15-.16,0-.3.08-.42.23-.18.22-.34.61-.47,1.17-.11.48-.17.88-.17,1.18Z"/>
          <path class="cls-8" d="M141.83,277.53c0-.46.08-.93.23-1.4.19-.58.44-1.01.74-1.29s.63-.42,1-.42c.37,0,.68.13.92.4.24.27.36.66.36,1.17,0,.47-.09.97-.26,1.49-.17.52-.41.92-.71,1.2-.3.28-.63.42-1,.42-.37,0-.68-.13-.92-.4-.24-.27-.36-.66-.36-1.17ZM142.71,277.71c0,.25.04.42.12.52.08.1.18.15.31.15.17,0,.32-.08.44-.23.17-.21.33-.61.46-1.22.11-.48.16-.86.16-1.15,0-.23-.04-.4-.12-.5-.08-.1-.18-.15-.31-.15-.16,0-.3.08-.42.23-.18.22-.34.61-.47,1.17-.11.48-.17.88-.17,1.18Z"/>
          <path class="cls-8" d="M146.38,276.39l.17-.8c.77-.34,1.37-.73,1.8-1.18h.55s-.96,4.62-.96,4.62h-.91s.67-3.18.67-3.18c-.19.12-.4.23-.65.33-.25.1-.46.17-.66.21Z"/>
          <path class="cls-8" d="M150.11,276.39l.17-.8c.77-.34,1.37-.73,1.8-1.18h.55s-.96,4.62-.96,4.62h-.91s.67-3.18.67-3.18c-.19.12-.4.23-.65.33-.25.1-.46.17-.66.21Z"/>
          <path class="cls-8" d="M153.97,277.53c0-.46.08-.93.23-1.4.19-.58.44-1.01.74-1.29.3-.28.63-.42,1-.42.37,0,.68.13.92.4.24.27.36.66.36,1.17,0,.47-.09.97-.26,1.49-.17.52-.41.92-.71,1.2-.3.28-.63.42-1,.42-.37,0-.68-.13-.92-.4-.24-.27-.36-.66-.36-1.17ZM154.86,277.71c0,.25.04.42.12.52.08.1.18.15.31.15.17,0,.32-.08.44-.23.17-.21.33-.61.46-1.22.11-.48.16-.86.16-1.15,0-.23-.04-.4-.12-.5-.08-.1-.18-.15-.31-.15-.16,0-.3.08-.42.23-.18.22-.34.61-.47,1.17-.11.48-.17.88-.17,1.18Z"/>
          <path class="cls-8" d="M125.35,282.81l.17-.8c.77-.34,1.37-.73,1.8-1.18h.55s-.97,4.62-.97,4.62h-.91s.67-3.18.67-3.18c-.19.12-.4.23-.65.33-.25.1-.46.17-.66.21Z"/>
          <path class="cls-8" d="M129.21,283.95c0-.46.08-.93.23-1.4.19-.58.44-1.01.74-1.29s.63-.42,1-.42c.37,0,.68.13.92.4.24.27.36.66.36,1.17,0,.47-.09.97-.26,1.49s-.41.92-.71,1.2c-.3.28-.63.42-1,.42-.37,0-.68-.13-.92-.4-.24-.27-.36-.66-.36-1.17ZM130.09,284.13c0,.25.04.42.12.52.08.1.18.15.31.15.17,0,.32-.08.44-.23.17-.21.33-.61.46-1.22.11-.48.16-.86.16-1.15,0-.23-.04-.4-.12-.5-.08-.1-.18-.15-.31-.15-.16,0-.3.08-.42.23-.18.22-.34.61-.47,1.17-.11.48-.17.88-.17,1.18Z"/>
          <path class="cls-8" d="M133.76,282.8l.17-.8c.77-.34,1.37-.73,1.8-1.18h.55s-.97,4.62-.97,4.62h-.91s.67-3.18.67-3.18c-.19.12-.4.23-.65.33-.25.1-.46.17-.66.21Z"/>
          <path class="cls-8" d="M137.62,283.94c0-.46.08-.93.23-1.4.19-.58.44-1.01.74-1.29.3-.28.63-.42,1-.42.37,0,.68.13.92.4.24.27.36.66.36,1.17,0,.47-.09.97-.26,1.49-.17.52-.41.92-.71,1.2-.3.28-.63.42-1,.42-.37,0-.68-.13-.92-.4-.24-.27-.36-.66-.36-1.17ZM138.51,284.13c0,.25.04.42.12.52.08.1.18.15.31.15.17,0,.32-.08.44-.23.17-.21.33-.61.46-1.22.11-.48.16-.86.16-1.15,0-.23-.04-.4-.12-.5-.08-.1-.18-.15-.31-.15-.16,0-.3.08-.42.23-.18.22-.34.61-.47,1.17-.11.48-.17.88-.17,1.18Z"/>
          <path class="cls-8" d="M142.18,282.8l.17-.8c.77-.34,1.37-.73,1.8-1.18h.55l-.97,4.62h-.91s.67-3.18.67-3.18c-.19.12-.4.23-.65.33s-.46.17-.66.21Z"/>
          <path class="cls-8" d="M146.04,283.94c0-.46.08-.93.23-1.4.19-.58.44-1.01.74-1.29s.63-.42,1-.42c.37,0,.68.13.92.4.24.27.36.66.36,1.17,0,.47-.09.97-.26,1.49-.17.52-.41.92-.71,1.2-.3.28-.63.42-1,.42-.37,0-.68-.13-.92-.4-.24-.27-.36-.66-.36-1.17ZM146.92,284.12c0,.25.04.42.12.52.08.1.18.15.31.15.17,0,.32-.08.44-.23.17-.21.33-.61.46-1.22.11-.48.16-.86.16-1.15,0-.23-.04-.4-.12-.5-.08-.1-.18-.15-.31-.15-.16,0-.3.08-.42.23-.18.22-.34.61-.47,1.17-.11.48-.17.88-.17,1.18Z"/>
          <path class="cls-8" d="M150.59,282.8l.17-.8c.77-.34,1.37-.73,1.8-1.18h.55s-.97,4.62-.97,4.62h-.91s.67-3.18.67-3.18c-.19.12-.4.23-.65.33-.25.1-.46.17-.66.21Z"/>
          <path class="cls-8" d="M154.45,283.94c0-.46.08-.93.23-1.4.19-.58.44-1.01.74-1.29.3-.28.63-.42,1-.42.37,0,.68.13.92.4.24.27.36.66.36,1.17,0,.47-.09.97-.26,1.49s-.41.92-.71,1.2c-.3.28-.63.42-1,.42-.37,0-.68-.13-.92-.4-.24-.27-.36-.66-.36-1.17ZM155.33,284.12c0,.25.04.42.12.52.08.1.18.15.31.15.17,0,.32-.08.44-.23.17-.21.33-.61.46-1.22.11-.48.16-.86.16-1.15,0-.23-.04-.4-.12-.5-.08-.1-.18-.15-.31-.15-.16,0-.3.08-.42.23-.18.22-.34.61-.47,1.17-.11.48-.17.88-.17,1.18Z"/>
        </g>
        <g id="Schild">
          <g>
            <path class="cls-7" d="M156.03,289.91h-18.61c-.19,0-.38-.06-.53-.19l-5.81-5.07c-.45-.39-.45-1.1,0-1.49l5.81-5.08c.15-.13.33-.2.53-.2h18.61s0,12.03,0,12.03Z"/>
            <g>
              <g>
                <polygon class="cls-6" points="137.44 283.92 141.24 287.71 141.56 287.39 138.08 283.92 141.54 280.45 141.23 280.13 137.44 283.92"/>
                <path class="cls-15" d="M141.24,287.89l-.09-.09-3.88-3.88,3.96-3.96.5.5-3.46,3.46,3.47,3.47-.5.5ZM137.62,283.92l3.62,3.61.14-.14-3.47-3.47,3.46-3.46-.14-.14-3.6,3.61Z"/>
              </g>
              <g>
                <rect class="cls-6" x="145.22" y="279.41" width=".62" height="9" transform="translate(177.07 -33.56) rotate(32.81)"/>
                <path class="cls-15" d="M143.39,288.03l-.73-.47.07-.1,4.95-7.67.73.47-.07.1-4.94,7.67ZM143.01,287.49l.31.2,4.74-7.35-.31-.2-4.74,7.35Z"/>
              </g>
              <g>
                <polygon class="cls-6" points="153.61 283.91 149.82 287.71 149.5 287.39 152.97 283.91 149.5 280.45 149.82 280.13 153.61 283.91"/>
                <path class="cls-15" d="M149.82,287.88l-.5-.5,3.47-3.47-3.46-3.46.5-.5.09.09,3.87,3.87-3.97,3.97ZM149.67,287.39l.14.14,3.62-3.62-3.61-3.6-.14.14,3.46,3.46-3.47,3.47Z"/>
              </g>
            </g>
          </g>
          <circle class="cls-5" cx="133.68" cy="283.91" r=".94"/>
          <g>
            <path class="cls-6" d="M133.97,283.91v.07c0,.15-.12.27-.27.27h-8.83c-.65,0-1.27-.14-1.82-.4-1.61-.75-2.74-2.46-2.74-4.45,0-1.99.9-3.69,2.51-4.44v.69c-1.28.7-1.93,2.11-1.93,3.75s.88,3.07,2.16,3.77c.55.3,1.17.47,1.82.47h8.83c.15,0,.27.12.27.27Z"/>
            <path class="cls-6" d="M124.87,284.63c-.69,0-1.36-.15-1.98-.44-1.8-.83-2.96-2.72-2.96-4.79,0-2.2,1.02-3.98,2.73-4.78l.53-.25v1.49l-.19.11c-1.11.61-1.74,1.86-1.74,3.42,0,1.46.75,2.78,1.97,3.44.51.28,1.06.42,1.64.42h8.83s0,0,0,0c.17,0,.33.07.46.19.12.12.19.29.19.46v.07c0,.36-.29.65-.65.65h-8.83s0,0,0,0Z"/>
          </g>
        </g>
      </g>
      <g id="Diskette">
        <g id="Form">
          <polygon class="cls-11" points="78.03 284.37 78.03 327.54 32.74 327.54 32.74 275.88 69.54 275.88 78.03 284.37"/>
        </g>
        <g id="Details">
          <rect class="cls-5" x="39.21" y="301.79" width="32.35" height="22.21"/>
          <g>
            <rect class="cls-7" x="43.42" y="306.73" width="23.94" height="1"/>
            <rect class="cls-7" x="43.42" y="310.51" width="23.94" height="1"/>
            <rect class="cls-7" x="43.42" y="314.29" width="23.94" height="1"/>
            <rect class="cls-7" x="43.42" y="318.07" width="23.94" height="1"/>
          </g>
          <rect class="cls-18" x="42.43" y="275.88" width="25.85" height="12.78"/>
          <rect class="cls-6" x="57.88" y="275.88" width="7.87" height="10.32"/>
        </g>
      </g>
      <g id="Organisieren">
        <g id="Pfeile">
          <polygon class="cls-15" points="315.55 189.68 315.54 184.22 303.1 184.23 303.1 183.23 316.54 183.22 316.55 189.68 315.55 189.68"/>
          <polygon class="cls-15" points="303.14 233.91 303.14 232.91 315.58 232.9 315.58 227.43 316.58 227.43 316.58 233.89 303.14 233.91"/>
          <polygon class="cls-6" points="303.14 234.79 303.14 232.02 301.15 233.41 303.14 234.79"/>
          <polygon class="cls-6" points="317.43 189.65 314.66 189.65 316.05 191.64 317.43 189.65"/>
        </g>
        <g id="Blatt_oben_mitte" data-name="Blatt oben mitte">
          <g id="Blatt-2" data-name="Blatt">
            <polygon class="cls-18" points="302.18 180.98 302.2 203.02 283.27 203.04 283.25 176.19 297.38 176.18 302.18 180.98"/>
            <polygon class="cls-11" points="302.18 180.98 297.38 180.98 297.38 176.18 302.18 180.98"/>
          </g>
          <g id="Textlinien-2" data-name="Textlinien">
            <rect class="cls-15" x="285.44" y="190.17" width="14.35" height="1"/>
            <rect class="cls-15" x="285.43" y="182.83" width="14.35" height="1"/>
            <rect class="cls-15" x="285.44" y="185.31" width="14.35" height="1"/>
            <rect class="cls-15" x="285.44" y="187.79" width="14.35" height="1"/>
          </g>
        </g>
        <g id="Blatt_unten_links" data-name="Blatt unten links">
          <g id="Blatt-3" data-name="Blatt">
            <polygon class="cls-18" points="276.74 217.03 298.78 217.01 298.8 234.87 271.95 234.89 271.94 221.57 276.74 217.03"/>
            <polygon class="cls-11" points="276.74 217.03 276.74 221.56 271.94 221.57 276.74 217.03"/>
          </g>
          <g id="Textlinien-3" data-name="Textlinien">
            <rect class="cls-15" x="274.63" y="223.4" width="13.81" height="1"/>
            <rect class="cls-15" x="274.63" y="225.74" width="13.81" height="1"/>
            <rect class="cls-15" x="274.63" y="228.08" width="15.68" height="1"/>
            <rect class="cls-15" x="274.64" y="230.32" width="15.68" height="1"/>
          </g>
        </g>
        <g id="Form-2" data-name="Form">
          <g id="Form-3" data-name="Form">
            <rect class="cls-17" x="288.42" y="193.65" width="35.28" height="10"/>
            <rect class="cls-17" x="288.43" y="205.64" width="35.28" height="10"/>
            <rect class="cls-17" x="288.44" y="217.63" width="35.28" height="10"/>
          </g>
          <g id="Details-2" data-name="Details">
            <rect class="cls-15" x="319.84" y="195.69" width="1" height="5.9"/>
            <rect class="cls-15" x="317.69" y="195.69" width="1" height="5.9"/>
            <rect class="cls-15" x="315.51" y="195.69" width="1" height="5.9"/>
            <rect class="cls-15" x="319.87" y="207.68" width="1" height="5.9"/>
            <rect class="cls-15" x="317.73" y="207.68" width="1" height="5.9"/>
            <rect class="cls-15" x="315.54" y="207.68" width="1" height="5.9"/>
            <rect class="cls-15" x="319.9" y="219.67" width="1" height="5.9"/>
            <rect class="cls-15" x="317.76" y="219.67" width="1" height="5.9"/>
            <rect class="cls-15" x="315.57" y="219.67" width="1" height="5.9"/>
            <circle class="cls-1" cx="293.31" cy="198.66" r="1.57"/>
            <circle class="cls-1" cx="293.32" cy="210.65" r="1.57"/>
            <circle class="cls-1" cx="293.33" cy="222.64" r="1.57"/>
          </g>
        </g>
      </g>
      <g id="Vorschriften">
        <g id="Buch">
          <path class="cls-5" d="M253.79,320.07h-29.25s.01-42.8.01-42.8h2.37s-.01,40.8-.01,40.8c4.47.03,9.25.21,14.28.6,4.43.35,8.63.83,12.6,1.39Z"/>
          <path class="cls-5" d="M290.61,277.29v42.79s-29.39,0-29.39,0c3.97-.57,8.18-1.04,12.6-1.39,5.03-.39,9.8-.57,14.28-.59v-40.8s2.51,0,2.51,0Z"/>
          <path class="cls-18" d="M257.54,277.29l-.06,42.79h0s0,.56,0,.56c-1.2-.2-2.43-.38-3.69-.56-3.97-.57-8.17-1.05-12.6-1.39-5.03-.39-9.8-.57-14.28-.6v-43.35c4.58.02,9.46.21,14.63.62,5.71.46,11.03,1.14,15.95,1.94h.05Z"/>
          <path class="cls-18" d="M288.11,274.74v43.35c-4.49.02-9.26.2-14.29.59-4.43.34-8.63.82-12.6,1.39-1.25.18-2.48.37-3.69.56v-.56s-.05,0-.05,0l.06-42.79h0c4.91-.8,10.24-1.48,15.95-1.93,5.17-.41,10.05-.59,14.62-.61Z"/>
          <rect class="cls-11" x="255.06" y="277.29" width="5" height="43.35"/>
        </g>
        <g id="Brett">
          <g class="cls-24">
            <path class="cls-6" d="M244.78,321.3s0,.04,0,.05h.01s0-.04,0-.05Z"/>
          </g>
          <path class="cls-6" d="M237.07,318.74h15.43c.71,0,1.29.58,1.29,1.29v2.08h-18.01v-2.08c0-.71.58-1.29,1.29-1.29Z"/>
          <rect class="cls-6" x="236.76" y="318.03" width="16.05" height=".75"/>
        </g>
        <g id="Hammer">
          <polygon class="cls-6" points="288.97 322.93 286.38 325.3 262.42 299.11 262.77 298.8 260.7 296.54 262.61 294.8 264.67 297.05 265.02 296.74 288.97 322.93"/>
          <rect class="cls-17" x="242.67" y="297.73" width="13.25" height="2.48" transform="translate(301.64 -86.77) rotate(47.55)"/>
          <rect class="cls-6" x="244.74" y="297.15" width="11.8" height="1.18" transform="translate(301.16 -88.16) rotate(47.55)"/>
          <rect class="cls-17" x="251.05" y="282.39" width="13.25" height="17.85" transform="translate(298.71 -95.43) rotate(47.55)"/>
          <rect class="cls-17" x="259.42" y="282.42" width="13.25" height="2.48" transform="translate(295.78 -104.1) rotate(47.55)"/>
          <rect class="cls-6" x="258.79" y="284.3" width="11.8" height="1.18" transform="translate(296.25 -102.71) rotate(47.55)"/>
        </g>
        <g id="Paragraf">
          <path class="cls-11" d="M240.06,301.47c-.31-.58-.73-1.03-1.27-1.33-.54-.31-1.49-.7-2.86-1.18-.94-.34-1.51-.56-1.71-.65-.34-.18-.58-.4-.74-.68-.16-.26-.24-.56-.23-.89,0-.52.19-.97.57-1.35.38-.38,1.01-.58,1.9-.58.75,0,1.33.22,1.74.65.41.43.66,1.03.75,1.8l1.89-.34c-.12-.97-.34-1.74-.67-2.32-.32-.58-.82-1.04-1.5-1.37-.68-.34-1.46-.51-2.36-.51-.59,0-1.15.1-1.67.3-.52.2-.93.45-1.23.74-.4.38-.72.85-.95,1.42-.23.57-.35,1.19-.35,1.85,0,.73.14,1.4.42,2.01.23.49.54.89.94,1.21-.47.37-.85.83-1.13,1.39-.3.6-.49,1.24-.54,1.91,0,.03,0,.06,0,.1-.01.12-.01.25-.01.38,0,.86.15,1.59.46,2.17.31.58.73,1.03,1.27,1.33.54.3,1.49.7,2.86,1.18.94.34,1.51.55,1.71.65.34.18.59.4.74.68.16.26.24.56.24.89,0,.52-.19.96-.57,1.35-.38.39-1.01.58-1.9.58-.75,0-1.33-.22-1.75-.65-.41-.43-.66-1.03-.74-1.8l-1.89.34c.12.97.34,1.74.66,2.32.32.58.82,1.03,1.5,1.37.68.34,1.46.51,2.35.51.59,0,1.15-.1,1.67-.3.52-.2.93-.45,1.23-.74.4-.38.72-.85.95-1.41.23-.57.35-1.19.35-1.85,0-.73-.14-1.4-.42-2.01-.23-.49-.54-.89-.94-1.21.47-.37.84-.83,1.13-1.39.3-.6.48-1.24.54-1.91,0-.03,0-.07,0-.1.01-.13.02-.25.02-.38,0-.86-.15-1.59-.46-2.17ZM238.53,303.98c-.01.61-.23,1.14-.64,1.59-.35.39-.85.62-1.51.69-.25-.09-.52-.18-.8-.27-1.05-.35-1.71-.64-1.97-.86-.02-.02-.04-.03-.06-.05-.34-.32-.51-.76-.51-1.3,0-.03,0-.06,0-.09.02-.6.24-1.12.64-1.57.35-.39.85-.62,1.5-.69.25.09.52.18.8.28,1.05.35,1.71.63,1.97.86.02.02.04.03.06.05.34.32.51.76.51,1.3,0,.03,0,.05,0,.08Z"/>
        </g>
      </g>
      <g id="Metadaten">
        <g id="Klemmbrett-2" data-name="Klemmbrett">
          <rect class="cls-18" x="123.41" y="111.38" width="38.81" height="55.05" transform="translate(-.41 .42) rotate(-.17)"/>
          <rect class="cls-5" x="131.51" y="109.66" width="22.66" height="4.07" transform="translate(-.33 .42) rotate(-.17)"/>
        </g>
        <g id="Textlinien-4" data-name="Textlinien">
          <g>
            <rect class="cls-6" x="127.55" y="119.65" width="30.49" height="1" transform="translate(-.47 .56) rotate(-.22)"/>
            <rect class="cls-6" x="127.56" y="122.78" width="30.49" height="1" transform="translate(-.48 .56) rotate(-.22)"/>
          </g>
          <g>
            <rect class="cls-6" x="134.6" y="126.07" width="23.46" height="1" transform="translate(-.49 .57) rotate(-.22)"/>
            <rect class="cls-6" x="134.61" y="129.2" width="23.46" height="1" transform="translate(-.51 .57) rotate(-.22)"/>
          </g>
        </g>
        <g id="Häkchen_box" data-name="Häkchen box">
          <rect class="cls-5" x="127.55" y="125.87" width="4.26" height="4.11" transform="translate(-.38 .38) rotate(-.17)"/>
          <polygon class="cls-7" points="131.53 126.9 129.49 128.96 129.11 129.34 127.82 128.06 128.2 127.67 129.1 128.58 131.15 126.52 131.53 126.9"/>
        </g>
        <g id="Pfeil_Kreis" data-name="Pfeil Kreis">
          <path class="cls-7" d="M145.21,159.97l3,.45h0s3.52.53,3.52.53l-1.11-1.91c3.34-2.41,5.51-6.34,5.49-10.77,0-1.36-.21-2.68-.6-3.91l-.41,2.7-1.07-.41-2.25-.87c.23.8.35,1.63.35,2.5,0,2.96-1.37,5.6-3.53,7.3l-1.03-1.77-1.18,3.06h0s-.93,2.42-.93,2.42l-.26.68Z"/>
          <path class="cls-11" d="M129.81,156.41l1.86-1.08c2.35,3.74,6.51,6.23,11.25,6.21,1.88,0,3.67-.4,5.28-1.11l-3-.45.26-.68.93-2.42c-1.08.44-2.25.69-3.49.69-3.27,0-6.15-1.68-7.8-4.24l1.84-1.07-2.87-1.11-2.3-.88-.98-.38-.41,2.75-.57,3.78Z"/>
          <path class="cls-6" d="M129.66,148.36c0,1.5.26,2.94.72,4.28l.41-2.75.98.38,2.3.88c-.29-.89-.44-1.83-.44-2.81,0-3.17,1.57-5.97,3.99-7.64l1.07,1.84,1.14-2.97.9-2.33.33-.85-2.89-.44-3.63-.55,1.08,1.85c-3.61,2.37-5.98,6.46-5.97,11.1Z"/>
          <path class="cls-17" d="M140.74,137.25l-.9,2.33c.94-.33,1.96-.51,3.02-.51,3.39-.01,6.37,1.81,7.98,4.53l-1.89,1.1,2.84,1.09,2.25.87,1.07.41.41-2.7h0s.58-3.82.58-3.82l-1.81,1.05c-2.31-3.91-6.57-6.52-11.43-6.5-1.65,0-3.22.31-4.67.86l2.89.44-.33.85Z"/>
        </g>
      </g>
    </g>
    <g id="Hände">
      <path class="cls-13" d="M6.44,167.31c-.68,0-1.36,0-2.04,0,0-1.43,0-2.87,0-4.3-.39.22-.95.58-1.5,1.15-.48.5-1.16,1.38-1.86,3.73-.1.36-.5,1.74-.78,3.94-.07.54-.53,4.28-.02,8.46,0,.04,0,.06.01.09.24,1.86.82,3.71,2.29,4.97,1.35,1.16,2.95,1.46,3.9,1.55,4.83,0,8.78-3.95,8.78-8.78v-2.02c0-4.83-3.95-8.78-8.78-8.78Z"/>
      <path class="cls-13" d="M304.11,105.58v-1.9h-4.01c.2-.37.54-.89,1.07-1.4.46-.45,1.28-1.09,3.48-1.73.33-.1,1.62-.47,3.68-.73.51-.06,3.99-.49,7.89-.02.04,0,.06,0,.08,0,1.74.22,3.46.77,4.63,2.13,1.08,1.26,1.36,2.75,1.44,3.64,0,4.5-3.68,8.19-8.19,8.19h-1.89c-4.5,0-8.19-3.68-8.19-8.19Z"/>
    </g>
  </g>
</svg>