<?xml version="1.0" encoding="UTF-8"?>
<svg id="_0048_THK_Zitieren" data-name="0048_THK_Zitieren" xmlns="http://www.w3.org/2000/svg" viewBox="0 0 466.71 510.59">
  <defs>
    <style>
      .cls-1 {
        fill: #a5678d;
      }

      .cls-1, .cls-2, .cls-3, .cls-4, .cls-5, .cls-6, .cls-7, .cls-8, .cls-9, .cls-10, .cls-11, .cls-12, .cls-13, .cls-14 {
        stroke-width: 0px;
      }

      .cls-2 {
        fill: #dec1a8;
      }

      .cls-3 {
        fill: #64abd6;
      }

      .cls-4 {
        fill: #e6710a;
      }

      .cls-5 {
        fill: #873567;
      }

      .cls-6 {
        fill: #c39ab3;
      }

      .cls-7 {
        fill: #000;
      }

      .cls-8 {
        fill: #fcd9bd;
      }

      .cls-9 {
        fill: #b47d49;
      }

      .cls-10 {
        fill: #308fc9;
      }

      .cls-11 {
        fill: #ec9447;
      }

      .cls-12 {
        fill: #603813;
      }

      .cls-13 {
        fill: #fff;
      }

      .cls-14 {
        fill: #e1ccd9;
      }
    </style>
  </defs>
  <g id="Gesicht">
    <g id="Haare">
      <path class="cls-9" d="M409.64,131.81c.39,2.88-.43,5.76-2.34,7.22-2.89,2.18-8.3,1.17-11.25-3.56-.19,3.32-2.03,6.24-4.78,7.44-3.74,1.63-8.71-.12-11.02-4.47-.43.83-2.43,4.43-6.58,5.61-4.52,1.29-9.76-.83-12.8-5.37-1.94,3.36-5.58,5.32-9.35,5.03-3.94-.3-7.35-3-8.69-6.86-.43.48-3.42,3.72-8.11,3.54-5.45-.19-8.34-4.77-8.58-5.15-2.73-2.3-3.95-5.94-3.11-9.27.99-3.96,4.42-5.62,4.89-5.84-.55-.52-3.23-3.17-3.33-7.33-.09-3.8,1.97-7.4,5.34-9.4-2.51-1.62-3.83-4.58-3.33-7.44.65-3.72,4.02-5.24,4.26-5.35-.98-2.51-.48-5.26,1.22-6.87,1.56-1.48,3.53-1.46,4.03-1.44-.18-.45-2.02-5.12.51-9.26,2.4-3.93,7.45-5.61,11.93-3.78.01-.46.4-7.04,5.96-10.38,4.17-2.49,9.51-2.14,13.52.95,2-2.4,5.13-3.42,8.02-2.6,3.17.9,5.5,3.84,5.73,7.32.63-.12,7.97-1.35,13.3,4.24,4.43,4.66,4.19,10.6,4.14,11.56,2.52.23,4.72,1.87,5.72,4.25,1.52,3.63-.68,6.84-.78,6.99.28.12,2.13.97,2.73,3.04.55,1.91-.2,4.07-1.89,5.38.35.19,4.57,2.61,5.09,7.75.54,5.42-3.56,8.75-3.79,8.93,3.36.15,6.25,2.38,7.24,5.5,1.12,3.6-.47,7.7-3.9,9.63Z"/>
    </g>
    <g id="Kopf">
      <path class="cls-8" d="M394.25,99.75v1.81c0,2.65-2.16,4.82-4.82,4.82-.46,0-.9-.06-1.32-.19-2.14,5.65-6.28,10.08-11.36,12.7.13.59.2,1.2.2,1.82v18.11c0,4.68-3.83,8.5-8.51,8.5s-8.5-3.82-8.5-8.5v-17.98c-.32-.07-.63-.16-.94-.25-9.39-2.8-15.21-12.01-14.12-21.43-1.42-1.07-2.2-2.88-1.86-4.74l.33-1.77c.4-2.18,2.22-3.74,4.33-3.93h.01l1.49-5.01c2.82-9.47,11.59-15.64,21.03-15.64,2.06,0,4.14.29,6.21.91,11.25,3.36,17.84,15.09,14.97,26.37,1.69.75,2.86,2.45,2.86,4.4Z"/>
    </g>
    <g id="Schatten">
      <path class="cls-2" d="M390.44,98.45c.34,0,.82,1.38.45,2.62-.27.9-.99,1.8-1.28,1.68-.56-.23.24-4.31.83-4.3Z"/>
      <path class="cls-2" d="M359.9,120.85c1.42.37,3.26.71,5.43.75,2.57.05,4.72-.33,6.29-.73-3.9,3.46-7.8,6.91-11.7,10.37.01-1.54.02-3.09.02-4.65,0-1.93-.01-3.84-.04-5.74Z"/>
    </g>
    <g id="Augenbrauen">
      <path class="cls-9" d="M370.58,87.34c.65-.15,1.84-.34,3.27-.02,1.79.4,2.96,1.36,3.46,1.84,1.14-.24,1.48-.59,1.56-.9.26-1.06-2.24-2.95-4.84-3.39-1.76-.3-4.09-.02-4.34.91-.13.48.33,1.05.9,1.56Z"/>
      <path class="cls-9" d="M360.13,85.78c-.52-.42-1.51-1.1-2.94-1.43-1.79-.41-3.25-.05-3.91.16-.93-.71-1.08-1.18-1.02-1.48.22-1.07,3.29-1.69,5.83-.97,1.71.49,3.7,1.75,3.52,2.69-.09.49-.75.81-1.48,1.02Z"/>
    </g>
    <g id="Augen">
      <rect class="cls-7" x="371.22" y="89.93" width="3.5" height="4.11" rx="1.75" ry="1.75" transform="translate(725.72 244.07) rotate(-170.53)"/>
      <rect class="cls-7" x="354.29" y="87.11" width="3.5" height="4.11" rx="1.75" ry="1.75" transform="translate(692.55 235.68) rotate(-170.53)"/>
    </g>
    <g id="Nase">
      <path class="cls-7" d="M362.27,103.68c-.51,0-.99-.11-1.4-.34-.44-.24-.74-.58-.82-.95-.2-.85.2-1.58,1.21-2.24l.12-.08c.45-.29,1.12-.73,1.55-1.56.15-.28.26-.75.34-1.05l.04-.14c.06-.37.12-.69.18-1,.06-.31.12-.63.18-1.01.01-.07.08-.11.14-.1.07.01.11.08.1.14-.06.38-.12.7-.18,1.01-.06.31-.12.63-.18,1.01l-.04.15c-.08.32-.2.8-.36,1.11-.46.89-1.2,1.37-1.64,1.66l-.12.08c-.92.6-1.28,1.24-1.11,1.97.07.3.33.58.7.79.68.37,1.61.4,2.49.09.06-.02.14.01.16.08.02.06-.01.14-.08.16-.43.15-.87.23-1.29.23Z"/>
    </g>
    <g id="Mund">
      <path class="cls-13" d="M371.53,107.71c-.12.41-1.04,3.46-4,4.63-2.8,1.12-6.26.08-8.35-2.65,1.65.33,4.44.65,7.72-.14,1.94-.47,3.5-1.19,4.63-1.84Z"/>
    </g>
    <g id="Haare-2" data-name="Haare">
      <path class="cls-9" d="M403.92,89.33c0,2.61-2.27,4.67-5.3,4.7-.11,3.31-2.86,5.02-4.69,4.56-1.58-.4-3.15-2.59-2.99-5.18-2.7,1.19-6.19.49-8.43-1.69-2.29-2.24-2.73-5.49-1.02-7.77-3.27.35-5.39-1.2-6.19-2.56-1.53-2.59-.33-4.79-.49-5.68-.03-.16-2.13.58-4.44-.42-3.22,2.76-6.85,2.49-7.17,2.45-.22.29-2.33,3-5.55,3.28-2.71.23-5.08-1.37-5.85-4.02.42,1.7-.6,3.61-2.19,4.39-1.79.88-3.93.12-4.43-1.8-1.89-1.01-2.74-3.22-2.1-5.5.62-2.24,2.54-4.11,4.81-4.68.09-.31,1.66-5.89,7.14-8.36,4.92-2.22,8.84-.05,9.25.19,3.22-2.33,7.02-2.29,8.85-.27.45.49.73,1.05.9,1.63,4.62.24,10.35,3.06,13.68,4.92,3.16,1.76,5.29,3.91,6.58,5.47,2.9-.36,5.88,1.05,7.24,3.33,1.59,2.66.69,5.98-2.26,7.42,2.73.85,4.64,3.19,4.65,5.59Z"/>
    </g>
  </g>
  <g id="Körper">
    <g id="Körper-2" data-name="Körper">
      <path class="cls-8" d="M384.31,153.23c.08,1.5.46,2.92,1.06,4.21h.02s0,.05.03.09c8.74,18.87,17.49,37.76,26.26,56.65.03.07.05.16.1.23.11.25.21.52.34.77,1.45,2.73,4.37,4.49,7.65,4.32,4.51-.24,7.96-4.1,7.72-8.6-.04-.74-.17-1.45-.42-2.13,0,0-.06-.18-.08-.27-6.96-19.75-13.94-39.48-20.92-59.24-.11-.25-.19-.52-.27-.77-.03-.04-.03-.09-.05-.14-1.76-4.24-6.07-7.12-10.9-6.85-6.17.33-10.88,5.6-10.54,11.75Z"/>
      <g>
        <path class="cls-8" d="M425.84,216.37c.75-.97,1.25-2.08,1.5-3.2v-.02c7.17-18.18,14.32-36.37,21.47-54.55,2.32-.94,3.77-3.23,3.56-5.57-.25-2.85-2.84-5.01-5.4-4.93-2.82.09-4.39,2.85-4.61,3.25-.73,1.33-.81,2.61-.8,3.31-5.01,8.33-10.04,17-15.05,26.03-4.97,8.95-9.64,17.73-14.03,26.32l-.06.07c-.17.34-.34.67-.51,1.01-.03.06-.06.13-.09.19-1.39,3.32-.44,7.29,2.55,9.59,3.58,2.76,8.72,2.07,11.48-1.5Z"/>
        <path class="cls-8" d="M446.66,145.77c-1.12,1.6-2.77,3.9-5.03,6.81,1.6,2.41,3.2,4.83,4.8,7.24,1.62.01,4.11-.16,6.93-1.15,1.28-.45,4.49-1.95,7.7-4.92,4.73-4.39,7.31-10.99,4.49-12.47-2.39-1.26-3.27,3.49-7.37,6.1-2.18,1.39-6.17.8-5.51-.37,1.42-2.49,2.44-5.24,1.63-6.22-.24-.29-.5-.46-.77-.54-.9-.26-1.85.46-2.62,1.12-3.03,2.57-4.24,4.4-4.24,4.4Z"/>
      </g>
      <g id="Körper-3" data-name="Körper">
        <path class="cls-8" d="M408.47,355.47h0c.54,26.14.7,52.96.4,80.44-.22,20.3-.68,40.22-1.35,59.77.03.22.05.45.05.67,1.72.69,2.77,1.6,2.77,2.61,0,1.43-2.1,2.67-5.2,3.31-.21.19-.42.37-.65.53-2.2,1.59-5.24,1.92-7.51.72-.67-.35-1.21-.81-1.65-1.29-2.99-.65-5.01-1.87-5.01-3.27,0-.92.87-1.76,2.32-2.42-.04-.25-.07-.47-.09-.67-.98-7.06-2.49-18.02-4.34-31.47-1.85-13.57-3.01-19.97-4.17-30.62-3.19-29.55-3.61-56.46-2.64-79.92-4.54-32.28-9.07-64.58-13.61-96.87h-5.45c-.16.16-.35.3-.55.42-7.35,31.74-14.66,63.5-22.01,95.24-1.54,23.34-4.73,49.92-10.76,78.81-5.05,24.2-11.25,46.03-17.73,65.26,1.79.69,2.9,1.63,2.9,2.66,0,1.19-1.45,2.24-3.73,2.94-.18.33-.39.65-.65.96-1.94,2.37-5.64,3.43-8.47,1.83-1.03-.59-1.86-1.48-2.42-2.52-2.85-.67-4.75-1.86-4.75-3.21s1.99-2.6,4.96-3.26c1.32-21.23,2.97-42.93,4.97-65.1,2.47-27.29,5.36-53.8,8.56-79.51.01-.02.01-.04.01-.06-.01-.07-.01-.13-.01-.2,0-.06,0-.13,0-.19-.14-12.53.02-23.09.21-30.92,1.36-52.45,11.69-79.26,16.65-87.14.27-.44.53-.85.74-1.18.09-.18.21-.35.32-.51,0-.01.02-.02.03-.03,4.26-8.55,8.54-17.09,12.81-25.63-2.74-23.62-5.48-47.23-8.21-70.85,9.42-.16,20.13.21,31.83,1.54,12.53,1.43,23.73,3.68,33.37,6.16-6.16,21.05-12.32,42.1-18.49,63.15l16.43,25.67-.1.08c.14.12.25.26.37.4v.02c.33.68.72,1.34.72,1.34,16.42,27.82,11.55,96.96,11.55,96.96-.41,5.72-1.09,13.9-2.31,23.74,0,.23-.01.47-.02.7-.01.15-.01.29-.03.44-.01.16-.03.31-.05.47Z"/>
        <path class="cls-8" d="M350.22,150.41c-.59,1.38-1.43,2.59-2.44,3.59h-.02s-.02.03-.06.07c-14.68,14.73-29.37,29.48-44.09,44.22-.05.05-.11.13-.18.18-.19.2-.38.42-.59.61-2.29,2.07-5.65,2.72-8.67,1.43-4.15-1.78-6.08-6.58-4.3-10.73.29-.68.66-1.31,1.12-1.86,0,0,.12-.15.17-.23,13.31-16.17,26.63-32.31,39.96-48.47.19-.2.36-.43.52-.63.04-.03.06-.08.1-.11,3.11-3.38,8.14-4.6,12.59-2.7,5.69,2.43,8.3,8.99,5.88,14.65Z"/>
      </g>
    </g>
    <g id="Schuhe">
      <path class="cls-12" d="M387.38,507.98v2.62h51.69v-2.62s-.42-2.45-13.52-6.25c-6.04-1.74-10.7-3.94-15.45-5.26-2.06.83-5.44,1.9-9.73,1.97-4.63.05-8.27-1.11-10.37-1.97-.65,1.41-1.37,3.22-1.88,5.35-.56,2.39-.74,4.52-.74,6.16Z"/>
      <path class="cls-12" d="M316.88,507.98v2.62h-51.69v-2.62s.42-2.45,13.52-6.25c6.04-1.74,10.7-3.94,15.45-5.26,2.06.83,5.44,1.9,9.73,1.97,4.63.05,8.27-1.11,10.37-1.97.65,1.41,1.37,3.22,1.88,5.35.56,2.39.74,4.52.74,6.16Z"/>
    </g>
    <g id="Hose">
      <path class="cls-3" d="M286.01,471.83c14.54,1.37,29.09,2.73,43.63,4.12,2.99-37.65,7.85-78.41,15.4-121.69,5.72-32.61,12.37-63.29,19.52-91.89v-56.97c-7.27.02-14.54.02-21.81.05-6.51,8.45-15.63,22.07-22.35,40.5-5.65,15.54-7.32,28.28-11.3,70.33-2.55,27.21-4.1,45.55-4.61,51.34-2.18,24.52-6.92,59.95-18.48,104.21Z"/>
      <path class="cls-10" d="M364.56,205.4v56.97c3.87,27.4,7.06,56.53,9.24,87.28,3.22,45.43,3.73,87.88,2.57,126.81,15.21-.86,30.45-1.71,45.69-2.57-5.21-47.31-6-82.37-5.65-106.27.05-4.19.32-19.87,0-41.08-.51-32.81-.74-49.23-3.59-62.11-3.06-13.83-10.35-35.25-30.29-59.05-6,0-12,.02-17.97.02Z"/>
    </g>
    <g id="Oberteil">
      <path class="cls-4" d="M420.91,178.91l-26.65,6.88-1.51-5.84c-.03.12-.06.23-.09.35-1.87,7.09-3.54,14.22-3.54,14.22-.93,3.98-1.81,7.92-2.62,11.76-5.07,1.76-12.66,3.78-22.07,4.06v-68.55c.95.23,1.95.39,3.01.51,9.5.95,16.14-3.91,17.53-4.98,2.63.49,5.35,1.05,8.15,1.7,3.74.87,7.28,1.83,10.62,2.83,4.71.9,8.73,4.42,10.01,9.35l7.16,27.71Z"/>
      <path class="cls-11" d="M364.43,141.79v68.55c-.6.02-1.2.04-1.8.04-10.4.07-18.81-2.06-24.25-3.91-.11-7.71-.37-15.7-.81-23.95-.23-4.44-.44-7.64-.55-9.28-.09-1.39-.19-2.92-.28-4.6l-7.81,9.17-20.76-17.66,18.59-21.84c2.91-3.41,7.27-4.9,11.43-4.34,4.43.03,8.85.07,13.28.11,1.04,1.18,5.46,5.97,12.96,7.71Z"/>
    </g>
    <g id="Arm_links" data-name="Arm links">
      <path class="cls-8" d="M370.9,202.38c-4.38.19-7.8-.76-9.06-1.24-.6-.23-1.99-.87-3.6-1.81-1.01-.59-1.83-1.14-2.41-1.56-19.04,1.59-38.07,3.18-57.11,4.76h-.03c-1.12.27-2.33.3-3.53.06-4.43-.89-7.31-5.2-6.42-9.63.74-3.7,3.89-6.3,7.48-6.52.07-.01.14-.01.21-.01.38.01.76.01,1.13.02h.09c9.65.16,19.59.46,29.82.97,10.03.49,19.78,1.14,29.22,1.93h0c1.55-.53,3.18-1.03,4.92-1.5,1.19-.33,2.36-.61,3.48-.87,2.69-.51,4.74-.6,6.09-.6,1.01,0,2.2.07,2.72.85.15.23.24.53.23.9,0,1.28-2.57,2.71-5.26,3.68-1.26.46,1.39,3.5,3.95,3.85,4.81.67,8.57-2.37,9.57.14,1.18,2.96-5.06,6.31-11.5,6.58Z"/>
    </g>
  </g>
  <g id="Sprechblasen">
    <g id="Groß">
      <path class="cls-14" d="M318.58,89.78l-70.28-4.31c-5.67,27.36-11.35,54.71-17.03,82.07-71.3-.6-142.6-1.19-213.9-1.78C11.58,110.51,5.79,55.26,0,0c88.41,1.32,176.81,2.63,265.21,3.95-3.43,16.52-6.85,33.03-10.28,49.55l63.65,36.28Z"/>
    </g>
    <g id="Klein">
      <path class="cls-6" d="M226.16,27.59c-3.77,21.3-7.53,42.59-11.29,63.89-24.88-1.83-49.76-3.67-74.64-5.51.35-2.67.7-5.33,1.05-8l-19.79,3.66,21.41-15.92c1.41-10.69,2.81-21.37,4.22-32.06,26.34-2.02,52.69-4.04,79.04-6.06Z"/>
      <circle class="cls-1" cx="165.96" cy="60.9" r="4.77"/>
      <circle class="cls-1" cx="183.19" cy="60.9" r="4.77"/>
      <circle class="cls-1" cx="200.43" cy="60.9" r="4.77"/>
    </g>
    <g id="Gesicht-2" data-name="Gesicht">
      <g id="Sicht">
        <path class="cls-6" d="M119.6,103.3s0,.07,0,.1c-.13.89-.24,1.8-.35,2.74-.18,1.49-.34,3.04-.48,4.64-.63,7.11-.87,15.4-.18,24.61.07.94.15,1.89.24,2.86H41.38c.78-10.29.3-19.28-.52-26.46,4.5-1.96,8.44-3.24,11.89-4.02l-.73-.62,14.7-3.77c.92-.24,1.9-.47,2.94-.69v-9.28c0-.51.05-1,.13-1.48-5.28-2.75-9.57-7.36-11.8-13.24-.44.13-.9.2-1.38.2-2.77,0-5.04-2.27-5.04-5.04v-1.89c0-2.05,1.24-3.81,3-4.59-3-11.79,3.88-24.06,15.64-27.56,2.16-.65,4.35-.95,6.5-.95,9.85,0,19.01,6.44,21.96,16.34l1.56,5.24c2.21.19,4.13,1.83,4.54,4.1l.34,1.86c.36,1.94-.46,3.84-1.95,4.95,1.15,9.85-4.93,19.47-14.75,22.39-.33.1-.65.19-.98.27v7.51c1.21.09,2.35.2,3.41.34l6.64,1.61s.02,0,.02,0c3.74-.6,6.7-.75,8.46-.82,3.44-.17,8.11-.13,13.64.66Z"/>
      </g>
      <g id="Augen-2" data-name="Augen">
        <rect class="cls-1" x="71.99" y="61.7" width="3.65" height="4.29" rx="1.83" ry="1.83" transform="translate(-9.5 13.01) rotate(-9.47)"/>
        <rect class="cls-1" x="89.69" y="58.75" width="3.65" height="4.29" rx="1.83" ry="1.83" transform="translate(-8.77 15.88) rotate(-9.47)"/>
      </g>
      <g id="Nase-2" data-name="Nase">
        <path class="cls-5" d="M85,76.06c-.44,0-.89-.08-1.34-.24-.06-.02-.1-.09-.08-.16.02-.06.09-.1.16-.08.92.33,1.89.29,2.61-.1.39-.21.66-.51.73-.82.18-.77-.2-1.45-1.16-2.07l-.12-.08c-.49-.32-1.23-.8-1.71-1.73-.17-.32-.29-.83-.37-1.16l-.04-.14c-.07-.41-.13-.73-.19-1.06-.06-.33-.12-.66-.19-1.06-.01-.07.03-.13.1-.14.06-.01.13.03.14.1.07.4.13.72.19,1.05.06.33.12.66.19,1.06l.03.13c.08.32.2.81.35,1.11.45.87,1.15,1.33,1.62,1.64l.13.08c1.06.69,1.47,1.45,1.26,2.33-.09.38-.4.74-.86.99-.43.23-.93.35-1.46.35Z"/>
      </g>
      <g id="Augenbrauen-2" data-name="Augenbrauen">
        <path class="cls-1" d="M87.23,57.1c.55-.43,1.6-1.12,3.09-1.44,1.87-.4,3.4.01,4.08.24.98-.72,1.15-1.21,1.09-1.53-.21-1.12-3.41-1.83-6.07-1.12-1.8.48-3.9,1.76-3.73,2.75.09.51.77.86,1.53,1.09Z"/>
        <path class="cls-1" d="M68.68,60.34c.55-.43,1.6-1.12,3.09-1.44,1.87-.4,3.4.01,4.08.24.98-.72,1.15-1.21,1.09-1.53-.21-1.12-3.41-1.83-6.07-1.12-1.8.48-3.9,1.76-3.73,2.75.09.51.77.86,1.53,1.09Z"/>
      </g>
      <g id="Schatten-2" data-name="Schatten">
        <path class="cls-1" d="M87.46,94c-1.48.38-3.41.74-5.68.78-2.68.05-4.93-.34-6.57-.76,4.07,2.68,8.14,5.36,12.22,8.04.01-2.69.02-5.37.04-8.06Z"/>
      </g>
      <g id="Mund-2" data-name="Mund">
        <path class="cls-14" d="M94.12,80.88c-.35.88-1.17,2.57-2.96,3.79-2.41,1.64-5.03,1.34-6.72,1.17-2.97-.29-5.1-1.55-6.11-2.26,1.56-.96,4.28-2.35,7.94-2.92,3.34-.52,6.12-.15,7.85.22Z"/>
      </g>
      <g id="Haare_Bart" data-name="Haare + Bart">
        <path class="cls-1" d="M100.39,59.71c0,.1-.09.37-.16.7-.12.63-1.42-5.24-3.67-9.45-.45-.85-.72-1.5-1.13-2.18-.31-.51-.58-.9-.81-1.22-5.15,5.98-19.96,7.5-30.87,5.06-1.32,2.01-3.08,4.41-2.9,8.05.08,1.66.59,4.05,1.46,8.16.26,1.22.49,2.22.66,2.9-.25-.33-.61-.79-1.07-1.3-.93-1.04-1.53-1.7-2.47-2.22-.85-.47-1.62-.63-3.16-.94-.74-.15-1.27-.2-1.74-.29,0,0-1.53-7.67-1.59-9.64-.05-1.35,0-5.53,1.48-8.63-1.18-.9-2.08-1.93-2.64-3.08-.15-.31-1.78-3.66-.37-5.8,1.29-1.95,4.08-1.32,8.14-2.15,6-1.24,5.67-3.82,12.05-6,1.69-.58,7.94-2.57,15.05-.6,2.51.69,6.47,1.79,8.55,5.35,1.37,2.34,1.65,5.26,1.18,7.56.92,1.64,1.81,3.53,2.39,4.95,0,0,1.47,3.59,1.62,10.77Z"/>
        <path class="cls-1" d="M97.66,80.02c-.61.65-1.46,1.37-2.6,1.85-3.62,1.51-7.15-.73-7.95-1.28-.73.82-3.88,4.11-8.41,3.93-1.44-.06-2.64-.45-3.53-.85.95-.28,2.25-.77,3.67-1.61,3.13-1.87,4.34-4.04,6.3-3.8.46.06,1.06.26,1.74.89.36-.8.8-1.17,1.15-1.36,1.51-.8,3.12.91,6.19,1.77,1.39.39,2.59.47,3.44.46Z"/>
      </g>
    </g>
  </g>
</svg>