<?xml version="1.0" encoding="UTF-8"?>
<svg id="_0049_THK_Zusammenarbeit-3" data-name="0049_THK_Zusammenarbeit-3" xmlns="http://www.w3.org/2000/svg" viewBox="0 0 685.04 487.29">
  <defs>
    <style>
      .cls-1 {
        fill: #a5678d;
      }

      .cls-1, .cls-2, .cls-3, .cls-4, .cls-5, .cls-6, .cls-7, .cls-8, .cls-9, .cls-10, .cls-11, .cls-12, .cls-13, .cls-14, .cls-15, .cls-16, .cls-17 {
        stroke-width: 0px;
      }

      .cls-2 {
        fill: #206289;
      }

      .cls-3 {
        fill: #706f6f;
      }

      .cls-4 {
        fill: #64abd6;
      }

      .cls-5 {
        fill: #e0bf70;
      }

      .cls-6 {
        fill: #873567;
      }

      .cls-7 {
        fill: #603813;
      }

      .cls-8 {
        fill: #000;
      }

      .cls-9 {
        fill: #b47d49;
      }

      .cls-10 {
        fill: #236289;
      }

      .cls-11 {
        fill: #308fc9;
      }

      .cls-12 {
        fill: #ec9447;
      }

      .cls-13 {
        fill: #98c7e4;
      }

      .cls-14 {
        fill: #603813;
      }

      .cls-15 {
        fill: #cbe3f1;
      }

      .cls-16 {
        fill: #fff;
      }

      .cls-17 {
        fill: #dec1a8;
      }
    </style>
  </defs>
  <g id="Person_2" data-name="Person 2">
    <g id="Gesicht">
      <g id="Haare">
        <path class="cls-7" d="M534.16,19.09c-.39.24-3.42,2.18-3.94,6.06-.42,3.12.94,6.28,3.49,8.15-.48.29-5.38,3.31-5.95,9.26-.48,5.06,2.38,10.1,7.14,12.37-.21.6-.99,3.1.15,5.52,1.32,2.81,4.67,4.39,8.2,3.63.61,1.22,2.36,4.34,5.96,6.16,5.86,2.96,11.54-.09,12.22-.47.4.2,8.05,3.85,14.31-.79,3-2.23,4.27-5.32,4.77-6.79,1.05-.16,4.14-.76,6.83-3.53,2.92-3.01,3.47-6.61,3.6-7.68.23-.26,4.78-5.65,2.88-12.09-1.1-3.74-3.75-5.74-4.67-6.38.51-1.37,2-5.89.42-11.26-1.25-4.25-3.76-6.81-4.89-7.84-.41-1.22-1.56-4.12-4.38-6.49-2.68-2.24-5.43-2.81-6.65-2.98-5.76-.89-11.53-1.79-17.29-2.68-3.73,1.84-7.45,3.68-11.18,5.52-1.24.15-3.87.65-6.36,2.75-4.13,3.48-4.6,8.6-4.67,9.57Z"/>
      </g>
      <g id="Kopf">
        <path class="cls-17" d="M587,37.09c-.78,0-1.51.18-2.18.49v-5.07c0-13.07-10.69-23.76-23.76-23.76s-23.76,10.69-23.76,23.76v4.84c-.49-.16-1.01-.26-1.55-.26-2.88,0-5.23,2.35-5.23,5.23v1.96c0,2.88,2.35,5.23,5.23,5.23.74,0,1.45-.16,2.09-.44,1.66,7.69,7.08,14.02,14.22,16.97,0,.03,0,.06,0,.08v19.65c0,5.07,4.15,9.23,9.23,9.23s9.23-4.15,9.23-9.23v-19.65c0-.09-.01-.18-.01-.27,7.02-3.06,12.3-9.42,13.86-17.1.78.46,1.68.75,2.65.75,2.88,0,5.23-2.35,5.23-5.23v-1.96c0-2.88-2.35-5.23-5.23-5.23Z"/>
      </g>
      <g id="Schatten">
        <path class="cls-9" d="M570.46,65.94c-1.42.63-3.36,1.32-5.73,1.69-2.77.44-5.13.3-6.81.07,4.2,3.13,8.4,6.26,12.61,9.38,0-1.03,0-1.93,0-2.66,0-.6,0-.65,0-3.33,0-1.87,0-2.06,0-2.47-.01-1.14-.04-2.06-.07-2.68Z"/>
        <path class="cls-9" d="M587.76,40.91c.37,0,.89,1.49.49,2.85-.29.97-1.07,1.95-1.39,1.82-.61-.25.26-4.67.9-4.67Z"/>
        <path class="cls-9" d="M534.66,40.91c-.37,0-.89,1.49-.49,2.85.29.97,1.07,1.95,1.39,1.82.61-.25-.26-4.67-.9-4.67Z"/>
      </g>
      <g>
        <path class="cls-7" d="M567.8,25.98c.4.6,1.21,1.63,2.57,2.44,1.71,1.01,3.35,1.11,4.1,1.11.73,1.04.74,1.57.57,1.87-.57,1.03-3.96.67-6.35-.91-1.61-1.07-3.25-3.02-2.76-3.94.26-.48,1.04-.59,1.87-.57Z"/>
        <path class="cls-7" d="M547.19,29.53c.72,0,2.03-.09,3.46-.77,1.8-.85,2.8-2.16,3.21-2.78,1.27-.02,1.71.27,1.87.57.53,1.05-1.66,3.66-4.3,4.76-1.78.74-4.32,1.01-4.81.09-.25-.48.09-1.19.57-1.87Z"/>
      </g>
      <g>
        <rect class="cls-8" x="568.28" y="32.75" width="3.79" height="4.46" rx="1.9" ry="1.9"/>
        <rect class="cls-8" x="549.65" y="32.75" width="3.79" height="4.46" rx="1.9" ry="1.9"/>
      </g>
      <g id="Mund">
        <path class="cls-16" d="M567.78,52.76c-.32,3.08-2.69,5.57-5.71,6.03-2.93.45-5.85-1.1-7.14-3.81,1.73.15,4.09.18,6.82-.32,2.49-.46,4.53-1.22,6.03-1.9Z"/>
      </g>
      <g id="Nase">
        <path class="cls-8" d="M561.5,49.52c-.64,0-1.32-.18-1.95-.53-.1-.06-.14-.18-.08-.28s.19-.14.28-.08c.87.48,1.85.61,2.62.34.42-.14.73-.39.85-.68.3-.72.04-1.45-.81-2.23l-.12-.11c-.43-.39-1.14-1.05-1.47-2.1-.12-.37-.16-.91-.19-1.27v-.15c-.01-.43-.02-.78-.03-1.13,0-.35-.01-.7-.01-1.12,0-.11.09-.21.21-.21s.21.09.21.21c0,.42,0,.76.01,1.11,0,.35.01.7.01,1.12v.14c.04.34.08.85.18,1.17.3.95.94,1.53,1.36,1.92l.12.11c.98.89,1.29,1.8.92,2.69-.17.39-.57.72-1.1.91-.32.11-.65.16-1,.16Z"/>
      </g>
      <g id="Haare-2" data-name="Haare">
        <path class="cls-7" d="M535.78,23.71c2.22,2.16,5.27,2,5.88,1.95,1.02,1.12,2.02,1.73,2.69,2.07,3.62,1.82,7.97.89,10.79-1.06.95-.65,1.61-1.34,2.01-1.8,1.28.44,3.67,1.04,6.44.37.68-.17,5.67-1.37,6.77-5.29.32-1.15.22-2.19.07-2.89.64.3,2.85,1.22,5.34.41,2.93-.95,5.43-4.04,4.96-7.57-.39-2.91-2.69-5.31-5.71-5.93-.38-.55-2.17-3-5.6-3.75-3.4-.75-6.02.7-6.61,1.04-.97-.39-4.14-1.51-8-.4-3.69,1.06-5.75,3.51-6.4,4.35-.33-.14-2.66-1.06-5.14.2-2.47,1.26-3.1,3.69-3.19,4.04-.68.26-4.14,1.67-5.6,5.38-.11.27-2.11,5.6,1.27,8.89Z"/>
      </g>
      <g id="Brille">
        <path class="cls-6" d="M584.85,30.7h-18.95c-1.83,0-3.33,1.49-3.33,3.33v1.1l-3.54.02v-1.12c0-1.83-1.49-3.33-3.33-3.33h-18.95c-1.83,0-3.33,1.49-3.33,3.33v5.24c0,1.83,1.49,3.33,3.33,3.33h18.95c1.83,0,3.33-1.49,3.33-3.33v-3.12l3.54-.02v3.14c0,1.83,1.49,3.33,3.33,3.33h18.95c1.83,0,3.33-1.49,3.33-3.33v-5.24c0-1.83-1.49-3.33-3.33-3.33ZM558.03,39.26c0,1.28-1.04,2.33-2.33,2.33h-18.95c-1.28,0-2.33-1.04-2.33-2.33v-5.24c0-1.28,1.04-2.33,2.33-2.33h18.95c1.28,0,2.33,1.04,2.33,2.33v5.24ZM587.18,39.26c0,1.28-1.04,2.33-2.33,2.33h-18.95c-1.28,0-2.33-1.04-2.33-2.33v-5.24c0-1.28,1.04-2.33,2.33-2.33h18.95c1.28,0,2.33,1.04,2.33,2.33v5.24Z"/>
      </g>
    </g>
    <g id="Körper">
      <path class="cls-17" d="M541.05,100.92c-1.82-6.48-11.81-9.24-16.53-9.53-8.43-.52-10.21-.08-36.19,4.01,0,0-19.91,3.14-37.13,7.55-1.57-.3-3-.3-3.96-.3-5.88.04-28.1,2.76-58.1,7.65-1.09.16-2.81.59-4.45,1.83-3.33,2.54-5.09,7.57-3.44,10.03,1.42,2.11,5.07,1.93,6.75,1.87,20.33-.76,40.7.84,61.04.41.48-.01,1.5-.05,2.72-.37,1.56.25,3.12.34,4.49.42,21.34,1.2,39.04-.54,41.89-.81,23.14-2.25,29.17-2.58,36.5-6.65,3.09-1.72,8.36-9.12,6.41-16.11Z"/>
      <path class="cls-17" d="M652.08,473.31c-3.72-2.08-6.05-5.98-5.89-10.24.23-6.17.29-13.77-.13-22.42-.51-10.38-1.65-18.15-2.22-23.38-2.79-25.5-6.51-49.44-10.81-71.7.1-2.1-.25-4.13-.97-5.99.06-1.22-.03-2.42-.26-3.54h.02c-.19-16.57-1.17-34.78-3.42-54.33-2.64-23.09-6.58-44.03-11.01-62.5,0,0-.01.01-.02.01-.96.18-9.29-34.04-12.95-59.02-2.38-16.21-4.4-39.51-2.14-68.65-10.12-2.69-24.01-5.3-40.63-5.28-16.37.03-30.07,2.61-40.1,5.28,1.99,32.29.76,58.11-.57,74.87-3.74,47.14-12,69.32-13.7,117.47-.84,23.72.3,42.9,1.25,54.43h.02c-.1.84-.11,1.71-.05,2.59-.64,2.03-.87,4.22-.56,6.45-2.26,22.63-3.84,46.81-4.42,72.38-.35,15.67-.31,30.81.06,45.38.03,1.24-.28,2.46-.92,3.52-.28.46-.59.96-.95,1.48-1.99,2.89-2.97,3.14-3.08,4.09-.36,3,8.48,8.97,17.11,7.41.85-.15,8.76-1.58,9.91-7.01.34-1.62-.01-3.14-.51-4.34-.58-1.4-.71-2.92-.35-4.38,3.59-14.35,6.8-30.44,9.06-48.1,3.28-25.68,3.81-48.88,3.05-68.73h-.02c.39-1.46.54-2.99.45-4.56.25-.76.43-1.55.55-2.36,4.6-9.68,9.15-20.57,13.18-32.67,8.03-24.22,11.81-46.52,13.42-65.13.92-.2,1.91-.42,2.96-.69,3.07,19.11,8.81,42.32,19.54,67.29,5.05,11.71,10.52,22.17,15.93,31.42.16.66.37,1.31.61,1.93-.08,1.94.2,3.81.83,5.55h-.02c1.02,19.86,3.61,42.92,9.12,68.19,3.78,17.32,8.36,33.04,13.16,47.01.67,1.96.6,4.08-.12,6.02-.8,2.16-1.43,5.28-.09,8.21,2.47,5.38,9.64,5.9,12.81,6.13,7.86.57,17.44-2.83,17.57-6.86.06-1.99-2.18-3.8-4.69-5.21Z"/>
    </g>
    <g id="Schuhe">
      <path class="cls-14" d="M528.98,476.67c-.61-2.58-1.48-4.77-2.26-6.47-.42.16-.88.34-1.39.52-2.63.92-6.48,1.89-11.17,1.85-5.19-.08-9.28-1.37-11.78-2.37-.32.09-.61.17-.94.27h-.02c-5.43,1.61-10.82,4.09-17.74,6.08-15.87,4.61-16.38,7.58-16.38,7.58v3.16h62.57v-3.16c0-1.99-.22-4.58-.9-7.46Z"/>
      <path class="cls-14" d="M668.66,476.55c-7.32-2.1-12.95-4.76-18.7-6.35-.34.13-.71.27-1.12.42-2.52.9-6.19,1.88-10.65,1.95-4.93.04-8.92-1.02-11.55-1.98-.36-.14-.71-.27-1.01-.39-.79,1.7-1.65,3.89-2.28,6.47-.66,2.88-.89,5.47-.89,7.46v3.16h62.58v-3.16s-.51-2.97-16.38-7.58Z"/>
    </g>
    <g id="Hose">
      <path class="cls-15" d="M565.13,247.77c-3.98,25.69-7.88,51.38-11.71,77.1-6.93,46.64-13.6,93.32-20.01,140.04-4.93-1.12-10.89-2.1-17.68-2.44-6.21-.31-11.76-.03-16.46.48-4.82-40.5-7.35-90.12-2.93-146.38,3.53-45.05,10.8-84.9,19.03-118.57,12.64,2.5,27.95,4.54,45.37,4.88,1.36.03,2.71.04,4.04.04l.35,44.85Z"/>
      <path class="cls-13" d="M654.92,460.52c-5.28-.33-11.27-.41-17.82,0-7,.44-13.31,1.35-18.79,2.43-10.65-44.79-21.55-89.53-32.68-134.18-6.75-27.02-13.58-54.01-20.5-81l-.35-44.85c17.61.04,33.05-1.71,45.74-3.95,10.86,30.48,21.27,65.75,29.27,105.39,11.96,59.2,15.38,112.34,15.13,156.15Z"/>
    </g>
    <g id="Oberteil">
      <path class="cls-4" d="M564.71,234.14c-.79,0-1.6-.01-2.39-.02-22.42-.3-41.46-3.66-55.98-7.33,1.42-12.35,3.59-28.72,6.94-47.94,3.5-20.03,5.54-27.41,6.95-40.98,1.52-14.59,1.73-30.76-.25-48.42,1.98-1.01,5.02-2.27,8.9-2.86,3.85-.59,7.1-.31,9.29.04,1.08,1.24,8.55,9.55,20.85,9.52.48,0,.96-.01,1.43-.04l4.25,138.04Z"/>
      <path class="cls-11" d="M623.08,227.16c-14.91,3.65-34.82,7.03-58.37,6.98l-4.25-138.04c12.18-.68,19.28-9.44,20.16-10.58,2.95-.52,7.13-.92,12.07-.36,4.78.54,8.64,1.81,11.35,2.93,1.36,3.51,2.63,7.48,3.64,11.89,2.58,11.29,2.47,21.28,1.69,28.76,2.3,15.48,4.55,31.08,6.75,46.81,2.42,17.33,4.74,34.53,6.95,51.6Z"/>
    </g>
    <g>
      <path class="cls-1" d="M507.59,268.25c-12.1,3.02-24.35-4.33-27.37-16.43-1.21-4.84-.76-9.7,1-13.99l-56.66,14.16-14.24-56.99c4.42,1.93,9.48,2.47,14.52,1.22,12.09-3.02,19.45-15.27,16.42-27.37-3.02-12.1-15.28-19.45-27.37-16.43-5.04,1.26-9.25,4.12-12.24,7.9l-14.24-56.99,57.2-14.29c-3.91-3-6.88-7.3-8.17-12.46-3.02-12.09,4.33-24.35,16.43-27.37,12.09-3.02,24.35,4.33,27.37,16.42,1.29,5.16.69,10.35-1.35,14.84l57.2-14.29,14.28,57.15c-4.47-2.03-9.64-2.61-14.78-1.33-12.09,3.02-19.45,15.28-16.42,27.37,3.02,12.1,15.28,19.45,27.37,16.42,5.14-1.28,9.42-4.23,12.42-8.12l14.28,57.16-56.66,14.16c3.57,2.96,6.25,7.04,7.46,11.88,3.02,12.1-4.33,24.35-16.42,27.37Z"/>
      <path class="cls-17" d="M394.21,111.64c-1.83-.28-4.29-.6-7.23-.83-1.83,3.88-3.65,7.76-5.48,11.64,1.49,1.29,3.61,3,6.33,4.78,3.21,2.09,6.13,4,10.13,5.17,4.68,1.37,12.82,2.3,15.23-1.39.12-.18.83-1.3.67-2.68-.27-2.44-3.02-3.92-6.87-5.94-1.8-.94-4.3-2.1-7.44-3.13,1.63.15,3.02.21,4.09.23,3.04.08,3.95-.12,4.49-.78.07-.08.52-.65.45-1.36-.13-1.31-1.98-2.12-3.58-2.74-5.5-2.14-10.32-2.9-10.8-2.97Z"/>
      <g>
        <path class="cls-17" d="M614.37,98.24c-1.5-5.32-6.21-8.86-10.33-10.15-1.4-.44-4.49-1.4-7.82-.11-1.28.5-2.23,1.18-2.84,1.7,0-.02-.02-.02-.03-.04-16.96,12.23-32.89,26.79-48.08,43-18.55.36-37.11.72-55.66,1.08-1.48-.73-3.33-1.54-5.53-2.29-1.76-.6-3.01-.91-5.2-1.44-8.88-2.16-9.9-1.46-10.29-.96-.47.61-.38,1.39-.35,1.54.19,1.33,1.73,2.15,4.06,3.35.96.49,1.77.84,2.3,1.06-3.25-.64-6-.85-8.02-.91-4.34-.13-7.47-.18-8.9,1.82-.81,1.13-.74,2.45-.72,2.67.3,4.39,7.86,7.56,12.61,8.66,4.06.94,7.54.7,11.37.45,1.56-.1,2.98-.26,4.26-.45.04,0,.08,0,.13.01.65.04,1.2.03,1.58,0,20.27,2.39,40.55,4.75,60.81,7.14,1.19.09,5.63.28,9.08-2.85,0,0,0,0,0,0,7.94-6.22,11.87-9.04,14-10.46.8-.54,2.38-1.57,4.55-3.14,2.35-1.7,3.43-2.64,7.42-5.36,17.95-12.24,24.65-12.94,29.33-21.66,1.32-2.47,3.8-7.27,2.29-12.67Z"/>
        <path class="cls-11" d="M594.56,88.82c1.37-.84,3.52-1.86,6.19-1.94,6.91-.19,14.22,7.14,15.82,14.84,1.59,7.69-2.9,14.01-7.4,20.36-3.32,4.68-10.21,12.85-22.84,19.03-7.87-9.4-15.75-18.81-23.62-28.21,5.46-5.08,11.81-10.42,19.13-15.68,4.37-3.14,8.64-5.93,12.73-8.41Z"/>
      </g>
    </g>
  </g>
  <g id="Person_1" data-name="Person 1">
    <g id="Körper-2" data-name="Körper">
      <g id="Körper-3" data-name="Körper">
        <path class="cls-5" d="M180.88,465.81c-.33-.47-.62-.92-.87-1.33-.58-.96-.87-2.05-.85-3.18.25-13.16.2-26.84-.22-41-.68-23.1-2.26-44.93-4.44-65.37.26-2.01.05-3.99-.55-5.82.05-.8.03-1.58-.06-2.34h.02c1.1-14.78,1.55-31.27.79-49.18-.96-22.62-3.64-42.94-6.97-60.51-5.56-22.4-9.01-41.33-11.22-55.59-2.8-18.1-3.44-27.61-3.66-35.03-.39-13.08.39-24.08,1.26-32.08-9.37-3.12-22.31-6.36-37.95-7.22-15.4-.85-28.45.9-38.03,2.92-2.51,21.95-4.23,45.93-4.6,71.7-.24,17.02.13,33.24.94,48.56-3.81,20.2-7.06,42.27-9.25,66.02-1.52,16.51-2.38,32.27-2.74,47.19-.1.25-.2.5-.28.76h-.02c-10.14,14.82-20.9,32.82-30.77,54-6.76,14.52-12.07,28.33-16.27,41-.59,1.78-1.8,3.26-3.38,4.26-1.76,1.11-3.92,3.01-4.56,5.85-1.17,5.22,3.7,9.52,5.85,11.42,5.34,4.71,14.09,7.51,16.38,4.68,1.13-1.39.51-3.93-.52-6.31-1.53-3.53-1.08-7.62,1.37-10.59,3.54-4.31,7.75-9.74,12.17-16.19,5.31-7.74,8.75-13.95,11.2-18.02,11.79-19.58,22.08-38.56,31.08-56.68,1.9-1.79,3.27-4.12,3.87-6.73,4.83-8.39,9.71-17.88,14.2-28.49,9.55-22.63,14.59-43.64,17.25-60.92.95.23,1.85.43,2.68.6,1.57,16.81,5.12,36.93,12.52,58.77,3.71,10.91,7.89,20.72,12.11,29.44.11.73.29,1.44.51,2.13-.08,1.42.07,2.8.43,4.12h-.02c-.57,17.94.05,38.9,3.18,62.08,2.15,15.94,5.15,30.46,8.48,43.4.34,1.32.23,2.7-.29,3.96-.44,1.08-.75,2.46-.43,3.92,1.07,4.9,8.23,6.14,9,6.28,7.81,1.35,15.76-4.09,15.41-6.8-.11-.85-.99-1.08-2.81-3.67Z"/>
        <path class="cls-5" d="M294.76,146.51c-1.99-2.6-5.39,2.18-11.23,2.98-3.11.42-7.21-2.26-5.89-3.2,2.83-2.02,5.36-4.53,4.95-6.03-.12-.44-.32-.76-.58-.98-.85-.75-2.27-.43-3.46-.1-4.65,1.29-6.92,2.7-6.92,2.7-1.72,1-4.11,2.36-7.17,3.98-18.46,0-36.93.03-55.39.04-.49.02-1.56.09-2.85.44-15.12-10.66-30.25-21.31-45.38-31.97-.02.01-.01.03-.03.04-4.14-2.92-10.8-2.9-16.76.49-7.56,4.31-11.05,12.38-7.82,18.06.83,1.45,2,2.58,3.42,3.41-.02.01-.01.03-.03.04,18.78,9.58,37.55,19.15,56.33,28.73.25.17.62.39,1.1.63,2.17,1.06,6.77,2.29,11.1.76.59.04,1.23.03,1.94-.05,19.06-2.63,38.12-5.25,57.17-7.88.65.23,1.31.35,1.97.37.99.23,2.07.42,3.23.53,1.64.15,5.94.14,11-1.52,7.45-2.44,13.65-8.4,11.29-11.47Z"/>
      </g>
      <g id="Schuhe-2" data-name="Schuhe">
        <path class="cls-3" d="M39.09,470.61c-4.1-5.52-6.7-10.52-9.95-14.81-.32-.09-.67-.19-1.04-.31h0c-2.33-.72-5.48-2.03-8.72-4.42-3.57-2.67-5.85-5.61-7.22-7.76-.19-.3-.36-.58-.52-.84-1.49.81-3.32,1.89-5.18,3.42-2.06,1.7-3.63,3.44-4.72,4.86l-1.74,2.29,44.99,34.25,1.74-2.29s1.26-2.41-7.64-14.4Z"/>
        <path class="cls-3" d="M156.28,471.92c.53-2.34,1.31-4.32,2-5.87.38.15.79.31,1.26.47h0c2.38.82,5.86,1.68,10.1,1.61,4.68-.1,8.38-1.29,10.62-2.23.29.08.57.16.85.25h.02c4.91,1.42,9.81,3.63,16.07,5.39,14.36,4.05,14.84,6.73,14.84,6.73l.02,2.87-56.53.38-.02-2.87c-.01-1.79.17-4.13.77-6.73Z"/>
      </g>
      <g id="Hose-2" data-name="Hose">
        <path class="cls-1" d="M122.31,224.77c-.01,13.52-.02,27.02-.04,40.53-.28,25.27-5.7,44.6-10.21,56.87-3.06,8.31-6.52,17.72-11.05,25.58-8.52,16.48-18.73,34.32-30.98,52.93-12.24,18.57-24.57,34.98-36.32,49.29-3.33-2.68-7.42-5.59-12.29-8.37-5.34-3.05-10.36-5.21-14.65-6.75,8.59-14.85,19.12-34.88,29.16-59.53,7.64-18.75,12.32-33.6,13.9-38.71,8.98-29.11,8.88-39.25,17.25-70.51,2.75-10.26,7.2-25.77,13.89-44.61,11.48,1.95,25.45,3.43,41.35,3.29Z"/>
        <path class="cls-6" d="M122.21,265.31c3.76,23.18,7.43,46.38,11.05,69.59,6.55,42.1,12.86,84.24,18.93,126.41,4.45-1.04,9.83-1.97,15.96-2.32,5.61-.32,10.63-.1,14.88.34,4.11-36.62,6.09-81.47,1.75-132.28-3.47-40.69-10.27-76.65-17.92-107.02-11.41,2.33-25.23,4.28-40.97,4.68-1.23.04-2.45.06-3.65.06l-.04,40.52Z"/>
      </g>
      <g id="Gesicht-2" data-name="Gesicht">
        <g id="Kopf-2" data-name="Kopf">
          <path class="cls-5" d="M144.53,66.18c.03.45.04.89.04,1.33,0,10.34-7.09,19.77-17.56,22.26-.48.11-.96.21-1.44.29l-.38,6.76-.66,11.6c-.02.28-.04.56-.09.83-.69,4.82-5,8.41-9.94,8.14-4.93-.28-8.79-4.31-8.97-9.13-.01-.3-.01-.6,0-.91l.63-11.14.51-9.09c.01-.17.04-.34.06-.51-5.59-3.34-10-8.63-12.07-15.19-.49.11-1,.16-1.53.13-3.03-.17-5.37-2.79-5.2-5.82l.12-2.07c.13-2.24,1.59-4.1,3.57-4.85-.31-1.59-.46-3.19-.46-4.76,0-11.34,7.78-21.69,19.27-24.42,13.42-3.18,27,5.19,30.19,18.61l1.38,5.83c2.4.34,4.39,2.25,4.7,4.76l.26,2.06c.28,2.15-.74,4.17-2.44,5.29Z"/>
        </g>
        <g id="Schatten-2" data-name="Schatten">
          <path class="cls-9" d="M125.57,90.06c-1.65.27-3.72.46-6.09.35-2.89-.14-5.32-.69-7.14-1.24,4.19,4.17,8.38,8.33,12.57,12.5.1-1.73.2-3.46.3-5.19.12-2.14.24-4.28.36-6.41Z"/>
          <path class="cls-9" d="M92.5,62.42c-.39-.02-1.03,1.52-.69,2.97.25,1.04,1.02,2.12,1.36,2,.65-.22,0-4.94-.67-4.97Z"/>
        </g>
        <g id="Augen">
          <rect class="cls-8" x="130.43" y="51.67" width="4" height="4.7" rx="2" ry="2" transform="translate(-5.08 14.69) rotate(-6.23)"/>
          <rect class="cls-8" x="110.89" y="53.81" width="4" height="4.7" rx="2" ry="2" transform="translate(-5.43 12.58) rotate(-6.23)"/>
        </g>
        <g id="Nase-2" data-name="Nase">
          <path class="cls-8" d="M124.59,70.24c-.55,0-1.12-.12-1.68-.35-.08-.03-.12-.13-.08-.21.03-.08.12-.12.21-.08.98.41,2.04.44,2.84.06.44-.21.75-.51.84-.84.24-.82-.13-1.58-1.13-2.31l-.13-.1c-.49-.36-1.3-.96-1.77-2.01-.16-.36-.27-.92-.34-1.29l-.03-.16c-.05-.45-.1-.81-.14-1.18-.05-.36-.09-.73-.14-1.17,0-.09.05-.17.14-.17.09,0,.17.05.17.14.05.44.09.8.14,1.16.05.36.09.73.14,1.17l.03.15c.07.35.17.89.31,1.22.43.98,1.18,1.52,1.67,1.88l.13.1c1.12.82,1.53,1.69,1.25,2.66-.12.42-.49.79-1.01,1.04-.43.2-.91.3-1.41.3Z"/>
        </g>
        <g id="Mund-2" data-name="Mund">
          <path class="cls-16" d="M116.95,75.11c.05.27.82,4.13,4.27,5.53,3.02,1.23,6.78.05,8.89-3.01-1.49.37-4.43.87-7.91-.04-2.38-.62-4.15-1.69-5.26-2.48Z"/>
        </g>
        <g id="Augenbrauen">
          <path class="cls-8" d="M108.09,53.79c.42-.64,1.27-1.73,2.7-2.59,1.8-1.08,3.53-1.19,4.32-1.19.76-1.1.77-1.66.59-1.97-.61-1.09-4.18-.69-6.69.99-1.69,1.13-3.42,3.2-2.89,4.17.27.5,1.1.62,1.97.59Z"/>
          <path class="cls-8" d="M128.1,51.69c.42-.64,1.27-1.73,2.7-2.59,1.8-1.08,3.53-1.19,4.32-1.19.76-1.1.77-1.66.59-1.97-.61-1.09-4.18-.69-6.69.99-1.69,1.13-3.42,3.2-2.89,4.17.27.5,1.1.62,1.97.59Z"/>
        </g>
        <path class="cls-8" d="M141.11,41.4c-.55-1.6-1.41-3.72-2.32-5.59.66-2.48.54-5.69-.81-8.33-2.06-4.02-6.32-5.47-9.02-6.38-7.65-2.6-14.62-.8-16.51-.27-7.11,1.99-6.91,4.83-13.55,5.81-4.49.66-7.5-.2-9.04,1.85-1.68,2.25-.1,6.02.05,6.37.54,1.29,1.49,2.46,2.72,3.53-1.82,3.3-2.15,7.87-2.18,9.34-.05,2.16,1.15,10.65,1.15,10.65,1.03.24,2.35.35,5.28,1.64,2.99,1.32,4.56,2.49,4.56,2.49-.08.14-2.81-5.07-2.53-10.66.2-3.88,2.28-6.42,3.81-8.59,11.77,3.3,27.94,2.54,33.93-3.66.25.37.52.81.82,1.39.41.77.66,1.5,1.1,2.46,2.19,4.74,3.25,11.24,3.43,10.56.09-.36.21-.65.21-.76.29-7.86-1.1-11.88-1.1-11.88Z"/>
      </g>
      <g id="Oberteil-2" data-name="Oberteil">
        <path class="cls-15" d="M147.03,190.91l-65.35-3.7c-1.53-25.76-3.07-51.52-4.6-77.29,10.78,2.08,23.51,3.79,37.83,4.3,13.7.49,26-.21,36.54-1.4-1.47,26.03-2.95,52.06-4.42,78.09Z"/>
      </g>
      <g id="Jacke">
        <g id="Knöpfe">
          <path class="cls-13" d="M255.35,141.95c-17.02.39-34.04.78-51.07,1.17-10.3-9.71-19.71-18.06-27.85-25.03-8.86-7.58-16.96-14.17-26.9-12.67-1.17.18-7.32,1.15-10.33,5.93-5.45,8.65,4.08,22.41,5.35,24.19,4.36,6.14,9.38,9.48,29.98,19.83,7.2,3.62,16.37,8.13,27.12,13.17,7.25.96,16.36,1.56,26.81.79,10.58-.78,19.62-2.73,26.7-4.78-.3-3.16-.5-6.7-.5-10.58,0-4.44.29-8.48.69-12.02Z"/>
          <circle class="cls-2" cx="123.81" cy="206.26" r="2.31"/>
          <circle class="cls-2" cx="124.65" cy="221.91" r="2.31"/>
          <circle class="cls-2" cx="122.62" cy="190.62" r="2.31"/>
        </g>
        <path class="cls-11" d="M122.21,265.31c-33.08.95-59.97-5.82-77.4-11.76,3.92-13.17,8.44-32.03,10.18-55,3.32-43.96-5.47-77.77,10.06-87.11,5.82-3.49,20.96-7.11,26.02-7.6,4.46-.43,8.23-.35,10.92-.19.23,7.39.83,16.89,2.28,27.92.62,4.75,1.65,12.35,3.82,22.05,1.81,8.05,4.6,18.45,9.08,30.32l5.05,81.38Z"/>
        <path class="cls-11" d="M179.15,256.07c-14.48,4.36-33.87,8.59-56.94,9.25l-5.05-81.38c4.42-12.17,8.83-27.86,10.99-46.48,1.51-12.94,1.61-24.6,1.07-34.56,4.18.01,8.79.23,13.73.79,3.74.42,7.23.97,10.47,1.61-.91,13.65-.51,24.92.11,33.15.56,7.26,1.28,12.23,1.48,13.49,1.46,9.53,3.61,17.42,5.77,25,1.25,4.38,5.74,23.15,14.52,60.76,1.27,5.4,2.58,11.52,3.85,18.37Z"/>
        <rect class="cls-10" x="119.19" y="183.85" width="1" height="81.54" transform="translate(-13.68 7.84) rotate(-3.55)"/>
        <path class="cls-10" d="M145.69,106.42c-4.72-2.95-10.21-5.81-16.51-8.19-1.35-.51-2.68-.98-3.99-1.41-.21,3.68-.42,7.36-.63,11.03.67.08,1.36.16,2.04.25.83.11,1.64.22,2.44.33.2,7.38.03,15.41-.73,23.97-1.79,20.34-6.32,37.73-11.16,51.54.18,0,.37,0,.55.01,6.27-8.37,14.28-21.1,19.86-38.07,4.08-12.4,5.7-23.56,6.3-32.26-2.06-1.02-4.12-2.04-6.19-3.06,2.67-1.38,5.34-2.76,8.01-4.14Z"/>
        <path class="cls-10" d="M104.26,131.57c-.74-6.04-1.15-12.12-1.15-12.12-.3-4.45-.45-8.6-.49-12.41.49-.02.98-.04,1.47-.05.49-.01.98-.03,1.47-.03.2-3.58.4-7.16.61-10.75-1.3.35-2.64.76-4,1.23-6.71,2.34-12.11,5.64-16.28,8.85,2.72,1.27,5.44,2.55,8.16,3.82-2.02,1.1-4.04,2.2-6.06,3.3,1.06,8.87,3.19,19.88,7.57,31.99,6.14,16.99,14.42,29.86,21.09,38.6.17-.02.35-.04.52-.07-5.17-13.72-10.34-31.4-12.9-52.36Z"/>
      </g>
    </g>
    <g>
      <path class="cls-12" d="M268.51,248.32c-11.94,5.84-16.88,20.25-11.05,32.18,2.49,5.09,6.54,8.91,11.29,11.17l-56.45,27.61-27.14-55.49c-2.31,4.06-5.83,7.49-10.34,9.7-11.93,5.84-26.34.89-32.18-11.05-5.84-11.93-.89-26.34,11.04-32.18,4.51-2.21,9.38-2.87,14-2.21l-27.14-55.49,56.08-27.43c-.95,4.95-.37,10.24,2.02,15.11,5.84,11.93,20.25,16.88,32.18,11.04,11.93-5.84,16.88-20.25,11.04-32.18-2.38-4.88-6.2-8.58-10.69-10.87l56.08-27.43,27.24,55.69c2.31-4.21,5.89-7.77,10.53-10.04,11.94-5.84,26.35-.9,32.18,11.04s.9,26.35-11.04,32.19c-4.64,2.27-9.65,2.91-14.39,2.15l27.24,55.69-56.45,27.61c1.13-5.14.6-10.68-1.89-15.77-5.84-11.93-20.25-16.88-32.18-11.04Z"/>
      <g id="Arm">
        <path class="cls-5" d="M188.05,218.8c-.23-.27-.52-.48-.88-.6-.67-.23-1.41-.09-2.1.1-2.75.75-5.32,2.16-8.15,2.54-2.83.37-6.19-.73-7.1-3.43,1.92-1.09,3.65-2.51,5.08-4.19.62-.73,1.22-1.71.85-2.6-.46-1.08-1.95-1.16-3.11-.99-3.95.55-7.81,1.8-11.32,3.68-.99.53-1.99,1.12-3.11,1.2-1.21.09-2.37-.42-3.47-.93-4.18-1.91-21.28-10.4-29.68-13.55-6.04-2.26-13.21-2.54-17.39-8.15-3.62-4.87-4.36-11.11-6.66-16.59-2.07-4.93-4.5-9.62-6.3-14.68-5.07-14.24-6.79-21.55-9.32-30.55-1.17-4.15-2.35-8.43-4.93-11.88-2.58-3.46-6.94-5.95-11.16-5.04-4.62,1-7.63,5.8-8.1,10.51s1.04,9.36,2.53,13.85c6.51,19.61,26.03,58.68,27.28,61.75.29.71,1.23,3.14,3.3,5.81,0,0,1.43,1.85,3.3,3.46,11.01,9.52,43.51,17.75,43.51,17.75,4.29,1.09,9.51,2.26,16.34,3.22,5.49.77,11.1,1.25,16.55.23,4.23-.8,8.28-2.51,11.8-4.98,1.13-.8,2.26-1.74,2.72-3.05.34-.96.16-2.14-.47-2.88Z"/>
        <path class="cls-13" d="M108.81,191.58c-4.98-13.16-8.75-23.93-11.3-31.41-3.43-10.06-8-19.72-11.25-29.84-2.21-6.86-4.89-18.75-12.23-20.82-2.95-.83-6.39.52-7.4.91,0,0-4.54,1.77-7.82,6.65-6.54,9.72,4.09,34.36,4.96,36.33,5.76,13.09,14.16,30.35,26.15,50.36.49,1.74,1.18,2.93,1.25,3.04.68,1.12,1.48,2.03,2.28,2.77.04.07.08.14.12.2.02-.02.03-.03.05-.05,1.03.92,2.05,1.55,2.82,1.91,5.94,2.75,25.82,10.45,53.05,20.26.45-3.07,1.32-7.12,3.11-11.63,1.57-3.97,3.4-7.16,4.98-9.55-16.26-6.38-32.51-12.77-48.77-19.15Z"/>
      </g>
    </g>
  </g>
</svg>