<?xml version="1.0" encoding="UTF-8"?>
<svg id="_0049_THK_Zusammenarbeit-1" data-name="0049_THK_Zusammenarbeit-1" xmlns="http://www.w3.org/2000/svg" viewBox="0 0 949.74 537.7">
  <defs>
    <style>
      .cls-1 {
        fill: #eee;
      }

      .cls-1, .cls-2, .cls-3, .cls-4, .cls-5, .cls-6, .cls-7, .cls-8, .cls-9, .cls-10, .cls-11, .cls-12, .cls-13, .cls-14, .cls-15 {
        stroke-width: 0px;
      }

      .cls-2 {
        fill: #a5678d;
      }

      .cls-3 {
        fill: #9d9d9c;
      }

      .cls-4 {
        fill: #706f6f;
      }

      .cls-5 {
        fill: #64abd6;
      }

      .cls-6 {
        fill: #e6710a;
      }

      .cls-7 {
        fill: #e0bf70;
      }

      .cls-8 {
        fill: #873567;
      }

      .cls-9 {
        fill: #603813;
      }

      .cls-10 {
        fill: #c39ab3;
      }

      .cls-11 {
        fill: #dcbd92;
      }

      .cls-12 {
        fill: #b47d49;
      }

      .cls-13 {
        fill: #236289;
      }

      .cls-14 {
        fill: #308fc9;
      }

      .cls-15 {
        fill: #ec9447;
      }
    </style>
  </defs>
  <g id="Tafel">
    <g id="Tafel_Hintergrund" data-name="Tafel Hintergrund">
      <rect class="cls-4" x="47.16" width="848.73" height="492.55"/>
      <rect class="cls-1" x="57.83" y="10.06" width="827.38" height="472.43"/>
      <g>
        <rect class="cls-3" x="166.46" y="40.2" width="3" height="409.31"/>
        <rect class="cls-3" x="318.26" y="40.2" width="3" height="409.31"/>
        <rect class="cls-3" x="470.33" y="40.2" width="3" height="409.31"/>
        <rect class="cls-3" x="624.22" y="40.2" width="3" height="409.31"/>
        <rect class="cls-3" x="773.59" y="40.2" width="3" height="409.31"/>
        <rect class="cls-3" x="105.32" y="62.46" width="733.41" height="3"/>
      </g>
    </g>
    <g id="Text">
      <g>
        <rect class="cls-3" x="643.01" y="36.49" width="29.18" height="3"/>
        <rect class="cls-3" x="643.01" y="44.46" width="72.18" height="3"/>
        <rect class="cls-3" x="643.01" y="52.47" width="72.18" height="3"/>
      </g>
      <g>
        <rect class="cls-3" x="336.39" y="91.65" width="29.18" height="3"/>
        <rect class="cls-3" x="336.39" y="99.63" width="72.18" height="3"/>
        <rect class="cls-3" x="336.39" y="107.63" width="72.18" height="3"/>
      </g>
      <g>
        <rect class="cls-3" x="184.2" y="190.52" width="29.18" height="3"/>
        <rect class="cls-3" x="184.2" y="198.5" width="72.18" height="3"/>
        <rect class="cls-3" x="184.2" y="214.62" width="72.18" height="3"/>
        <rect class="cls-3" x="184.2" y="222.6" width="72.18" height="3"/>
        <rect class="cls-3" x="184.2" y="206.5" width="72.18" height="3"/>
      </g>
      <g>
        <rect class="cls-3" x="643.01" y="348.97" width="29.18" height="3"/>
        <rect class="cls-3" x="643.01" y="356.94" width="72.18" height="3"/>
        <rect class="cls-3" x="643.01" y="373.07" width="72.18" height="3"/>
        <rect class="cls-3" x="643.01" y="381.04" width="72.18" height="3"/>
        <rect class="cls-3" x="643.01" y="364.94" width="72.18" height="3"/>
      </g>
      <g>
        <rect class="cls-3" x="424.66" y="268.71" width="29.18" height="3"/>
        <rect class="cls-3" x="381.66" y="276.68" width="72.18" height="3"/>
        <rect class="cls-3" x="381.66" y="284.68" width="72.18" height="3"/>
      </g>
    </g>
    <g id="Notizen">
      <g>
        <path class="cls-2" d="M312.85,195.57c-17.28-4.23-34.57-8.46-51.85-12.69-6.18-4.48-12.36-8.97-18.54-13.45,2.22-5.77,4.36-11.91,6.33-18.43,4.68-15.43,7.53-29.86,9.24-42.75,23.3,4.29,46.6,8.58,69.9,12.87-1.09,14.02-3.27,29.9-7.3,47.08-2.32,9.86-4.97,18.99-7.77,27.38Z"/>
        <polygon class="cls-8" points="261.63 172.66 261 182.87 242.46 169.42 261.63 172.66"/>
      </g>
      <g>
        <path class="cls-15" d="M327.2,213.08c17.28-4.23,34.57-8.46,51.85-12.69,6.18-4.48,12.36-8.97,18.54-13.45-2.22-5.77-4.36-11.91-6.33-18.43-4.68-15.43-7.53-29.86-9.24-42.75-23.3,4.29-46.6,8.58-69.9,12.87,1.09,14.02,3.27,29.9,7.3,47.08,2.32,9.86,4.97,18.99,7.77,27.38Z"/>
        <polygon class="cls-6" points="378.42 190.18 379.05 200.39 397.59 186.93 378.42 190.18"/>
      </g>
      <g>
        <path class="cls-2" d="M497.73,398.5c-17.28-4.23-34.57-8.46-51.85-12.69-6.18-4.48-12.36-8.97-18.54-13.45,2.22-5.77,4.36-11.91,6.33-18.43,4.68-15.43,7.53-29.86,9.24-42.75,23.3,4.29,46.6,8.58,69.9,12.87-1.09,14.02-3.27,29.9-7.3,47.08-2.32,9.86-4.97,18.99-7.77,27.38Z"/>
        <polygon class="cls-8" points="446.51 375.59 445.88 385.8 427.34 372.35 446.51 375.59"/>
      </g>
      <g>
        <path class="cls-15" d="M651.44,250.88c17.28-4.23,34.57-8.46,51.85-12.69,6.18-4.48,12.36-8.97,18.54-13.45-2.22-5.77-4.36-11.91-6.33-18.43-4.68-15.43-7.53-29.86-9.24-42.75-23.3,4.29-46.6,8.58-69.9,12.87,1.09,14.02,3.27,29.9,7.3,47.08,2.32,9.86,4.97,18.99,7.77,27.38Z"/>
        <polygon class="cls-6" points="702.66 227.97 703.29 238.18 721.83 224.73 702.66 227.97"/>
      </g>
      <g>
        <path class="cls-10" d="M186.93,358.7c.14-14.54.09-28.89-.1-43.02-.06-4.5-.14-8.98-.22-13.43h77.89c.39,4.44.76,8.92,1.11,13.43,1.09,14.12,1.94,28.6,2.52,43.43.27,6.9.48,13.72.62,20.46-27.37.18-54.75.38-82.13.57.15-7.1.25-14.23.32-21.43Z"/>
        <path class="cls-2" d="M265.6,315.68h-78.77c-.06-4.5-.14-8.98-.22-13.43h77.89c.39,4.44.76,8.92,1.11,13.43Z"/>
      </g>
      <g>
        <path class="cls-10" d="M576.77,202.67c2.55-14.32,4.89-28.47,7.06-42.44.69-4.45,1.36-8.88,2.02-13.28l76.8,12.97c-.35,4.44-.73,8.92-1.14,13.43-1.27,14.11-2.85,28.53-4.74,43.24-.88,6.85-1.81,13.61-2.8,20.28-27.02-4.37-54.05-8.74-81.08-13.11,1.33-6.98,2.61-13.99,3.88-21.08Z"/>
        <path class="cls-2" d="M661.51,173.35l-77.68-13.11c.69-4.45,1.36-8.88,2.02-13.28l76.8,12.97c-.35,4.44-.73,8.92-1.14,13.43Z"/>
      </g>
      <g>
        <path class="cls-5" d="M585.7,364.89c-2.55-14.32-4.89-28.47-7.06-42.44-.69-4.45-1.36-8.88-2.02-13.28l-76.8,12.97c.35,4.44.73,8.92,1.14,13.43,1.27,14.11,2.85,28.53,4.74,43.24.88,6.85,1.81,13.61,2.8,20.28,27.02-4.37,54.05-8.74,81.08-13.11-1.33-6.98-2.61-13.99-3.88-21.08Z"/>
        <path class="cls-14" d="M500.96,335.57l77.68-13.11c-.69-4.45-1.36-8.88-2.02-13.28l-76.8,12.97c.35,4.44.73,8.92,1.14,13.43Z"/>
      </g>
      <g>
        <path class="cls-5" d="M135.38,373.55c17.28-4.23,34.57-8.46,51.85-12.69,6.18-4.48,12.36-8.97,18.54-13.45-2.22-5.77-4.36-11.91-6.33-18.43-4.68-15.43-7.53-29.86-9.24-42.75-23.3,4.29-46.6,8.58-69.9,12.87,1.09,14.02,3.27,29.9,7.3,47.08,2.32,9.86,4.97,18.99,7.77,27.38Z"/>
        <polygon class="cls-14" points="186.61 350.64 187.23 360.86 205.77 347.4 186.61 350.64"/>
      </g>
      <g>
        <path class="cls-15" d="M580.28,417.25c17.28-4.23,34.57-8.46,51.85-12.69,6.18-4.48,12.36-8.97,18.54-13.45-2.22-5.77-4.36-11.91-6.33-18.43-4.68-15.43-7.53-29.86-9.24-42.75-23.3,4.29-46.6,8.58-69.9,12.87,1.09,14.02,3.27,29.9,7.3,47.08,2.32,9.86,4.97,18.99,7.77,27.38Z"/>
        <polygon class="cls-6" points="631.5 394.35 632.13 404.56 650.67 391.11 631.5 394.35"/>
      </g>
    </g>
    <g id="Datails">
      <path class="cls-8" d="M639.09,131.94c-11.35-2.89-22.9-4.93-34.55-6.13-10.82-1.11-21.86-1.69-32.73-.96-9.03.61-18.31,2.3-26.22,6.92-8.49,4.95-13.96,13.09-16.66,22.42-5.21,18.02-2.07,37.96,5.48,54.83,7.65,17.08,20.19,31.92,35.44,42.71,16.55,11.71,36.12,18.76,56.02,22.06,19.91,3.3,40.57,3.27,60.49.04,19.03-3.09,38.05-9.83,52.55-22.94,12.84-11.61,21.01-28.99,20.66-46.41-.17-8.56-2.54-17.09-7.31-24.25-5.49-8.24-13.51-14.36-22-19.25-18.83-10.83-40.14-17.82-61.59-21-5.24-.78-10.51-1.33-15.79-1.66-1.93-.12-1.92,2.88,0,3,21.32,1.32,42.42,6.47,61.91,15.2,16.72,7.49,34.83,17.81,40.14,36.66,4.53,16.09-.53,33.83-10.29,46.99-11.02,14.85-28.64,23.52-46.17,28.06-18.68,4.84-38.56,5.91-57.74,4.37-19.57-1.57-39.08-6.41-56.5-15.6-16.41-8.66-30.52-21.24-40.48-36.95-9.55-15.08-15.14-32.82-14.22-50.77.48-9.34,2.57-19.14,8.27-26.76,5.38-7.19,13.7-11.13,22.28-13.06,9.27-2.08,18.9-2.07,28.35-1.75,11.35.38,22.67,1.59,33.85,3.62,5.38.98,10.72,2.15,16.01,3.5,1.87.48,2.67-2.42.8-2.89h0Z"/>
      <path class="cls-6" d="M236.26,263.01c25.77-8.7,51.96-16.17,78.45-22.36,7.47-1.75,14.96-3.39,22.47-4.93,1.89-.39,1.09-3.28-.8-2.89-26.64,5.48-53.02,12.23-79.02,20.23-7.33,2.26-14.63,4.61-21.89,7.06-1.82.61-1.04,3.51.8,2.89h0Z"/>
      <path class="cls-6" d="M223.26,256.22c22.5-7.16,45.12-13.94,67.85-20.31,6.42-1.8,12.84-3.56,19.27-5.3,1.86-.5,1.07-3.4-.8-2.89-22.79,6.15-45.48,12.7-68.05,19.64-6.37,1.96-12.73,3.95-19.08,5.97-1.83.58-1.05,3.48.8,2.89h0Z"/>
      <path class="cls-8" d="M748.43,295.95c-1.07-3.69-3.08-7.09-6.18-9.31,2.07-2.02,4.12-4.06,6.12-6.16.94-.99.22-2.46-1.06-2.56-6.82-.53-13.57-1.66-20.2-3.37-.96-.25-1.87.46-1.9,1.45-.18,6.58.14,13.17.98,19.7.1.81.62,1.49,1.5,1.5.73,0,1.6-.7,1.5-1.5-.75-5.9-1.07-11.84-.99-17.79,5.22,1.26,10.51,2.16,15.85,2.72-1.6,1.63-3.22,3.25-4.86,4.83-.4.16-.71.48-.89.85-2.4,2.28-4.84,4.52-7.34,6.69-1.46,1.27.67,3.39,2.12,2.12,2.37-2.07,4.69-4.19,6.97-6.35,6.13,3.94,6.93,12.65,6.45,19.35-.7,9.87-3.34,19.69-7.5,28.65-2.38,5.13-5.28,10-8.62,14.55-1.14,1.56,1.46,3.06,2.59,1.51,6.29-8.58,10.98-18.32,13.76-28.59,1.4-5.16,2.33-10.47,2.74-15.8.32-4.16.13-8.46-1.04-12.49Z"/>
      <path class="cls-6" d="M196.67,125.94c1.77,4.33,4.26,8.24,7.49,11.62.63.66,1.93.56,2.36-.3,7.3-14.76,15.71-28.96,25.14-42.46,1.11-1.59-1.49-3.09-2.59-1.51-9.43,13.5-17.83,27.7-25.14,42.46.79-.1,1.57-.2,2.36-.3-2.85-2.99-5.15-6.47-6.72-10.3-.72-1.76-3.62-.99-2.89.8h0Z"/>
      <path class="cls-6" d="M421.48,313.55c-4.75,5.31-9.23,10.85-13.46,16.57-2.61-2.2-5.23-4.4-7.84-6.6-1.47-1.24-3.6.88-2.12,2.12,2.73,2.3,5.46,4.6,8.19,6.9-2.84,3.95-5.55,8-8.12,12.12-1.02,1.64,1.57,3.15,2.59,1.51,2.49-3.99,5.1-7.89,7.83-11.7,2.71,2.29,5.43,4.57,8.14,6.86,1.47,1.24,3.6-.88,2.12-2.12-2.83-2.38-5.66-4.77-8.5-7.15,4.17-5.66,8.6-11.14,13.29-16.38,1.28-1.44-.83-3.56-2.12-2.12Z"/>
    </g>
  </g>
  <g id="Arm_1" data-name="Arm 1">
    <path class="cls-7" d="M131.04,232.12c.35.53,5.85,8.86,3.87,18.11-2.25,10.51-13,15.6-23.79,21.61-4.92,2.74-9.79,4.52-13,5.62-2.64.9-5.11,1.61-7.36,2.18-5.26,6.49-11.83,14.68-19.32,24.19-1.28,1.63-2.59,3.3-3.92,5-6.85,8.75-19.44,24.86-33.17,43.42-16.57,22.42-26.58,37.32-34.35,47.96v-83.35c14.42-13.12,28.85-26.24,43.27-39.36,7.97-7.25,15.93-14.49,23.9-21.74.19-.33.41-.63.61-.94,1.32-3.93,3.13-8.69,5.63-13.97.57-1.2,2.42-5.03,5.24-9.85,6.9-11.76,11.88-16.13,13.77-17.69.35-.29.98-.77,2.22-1.73,4.01-3.08,10.33-7.93,18.82-13.82,18.07-12.53,21.71-12.92,24.2-11.74.6.28,1.99,1.06,2.72,2.58,2.06,4.3-3.06,10.69-5.51,13.68-9.54,11.64-19.59,15.9-18.16,17.09,3.43,2.85,8.57,4.3,14.33,12.75Z"/>
    <path class="cls-13" d="M79.73,307.26c-7.53,13.03-14.92,24.93-21.9,35.65-3.69,5.64-7.25,10.94-10.67,15.91-6.44,9.37-12.39,17.55-17.63,24.53-11.74,15.68-21.14,28.17-29.53,37.79v-118.94c12.71-12.21,25.38-24.25,38-36.13.98,2.81,2.61,6.86,5.27,11.43,1.11,1.9,2.4,3.92,3.89,5.95,2.2,3.01,4.84,6.09,8.01,9.08.89.83,1.78,1.62,2.66,2.37,4.74,4.02,9.48,6.89,13.61,8.93,3.22,1.58,6.07,2.68,8.29,3.43Z"/>
  </g>
  <g id="Arm_3" data-name="Arm 3">
    <path class="cls-11" d="M541.56,463.71c-2.5,2.71-5.05,5.05-7.51,7.05-2.47,1.99-4.85,3.66-7.05,5.03-6.53,13.16-11.98,25.62-16.53,37.2-3.45,8.76-6.39,17.02-8.9,24.71h-50.07c8.33-14.93,16.66-29.86,24.98-44.8,6.21-11.12,12.41-22.24,18.61-33.36.06-3.83.31-8.37.95-13.46.17-1.32.72-5.53,1.89-10.99,2.88-13.33,6.23-19.03,7.54-21.11.24-.38.69-1.04,1.57-2.34,2.84-4.18,7.32-10.77,13.54-19.02,13.24-17.55,16.57-19.07,19.31-18.73.65.08,2.22.39,3.39,1.6,3.3,3.44.44,11.11-.95,14.72-5.41,14.04-13.62,21.24-11.89,21.92,4.15,1.63,9.49,1.4,17.6,7.62.5.39,8.33,6.58,9.35,15.98,1.15,10.69-7.46,18.89-15.83,27.98Z"/>
    <path class="cls-2" d="M521.47,514.75c-2.43,8-4.9,15.66-7.37,22.95h-78.68c4.16-6.41,8.33-12.78,12.5-19.13,2.49-3.81,4.98-7.6,7.48-11.39,4.94-7.48,9.88-14.92,14.81-22.32,1.38,2.09,3.44,4.92,6.27,8.04,4.02,4.41,9.6,9.36,17.08,13.5,6.04,3.33,11.87,5.36,16.91,6.59,4.4,1.07,8.21,1.53,11,1.76Z"/>
  </g>
  <g id="Arm_4" data-name="Arm 4">
    <path class="cls-9" d="M794.88,537.7h-61.57c-1.52-4.69-2.99-9.6-4.4-14.82-2.97-10.94-6.97-24.04-12.52-38.84-3.62-9.66-7.89-20.05-12.95-31.05-2.68-5.84-5.59-11.86-8.75-18.03-4.42-2.7-9.63-6.53-14.7-11.91-8.48-8.99-17.2-17.08-16.17-27.78.91-9.42,8.66-15.7,9.16-16.09,8.04-6.32,13.37-6.16,17.51-7.84,1.72-.7-6.58-7.8-12.16-21.77-1.43-3.59-4.39-11.23-1.13-14.7,1.16-1.23,2.72-1.56,3.38-1.65,2.73-.37,6.08,1.1,19.53,18.5,6.32,8.17,10.88,14.7,13.77,18.85.9,1.29,1.35,1.94,1.6,2.33,1.33,2.05,4.75,7.72,7.78,21.01,1.24,5.45,1.84,9.65,2.03,10.97.7,5.08,1,9.61,1.11,13.45,3.7,6.45,7.4,12.91,11.11,19.36,19.12,33.34,38.25,66.67,57.37,100.01Z"/>
    <path class="cls-14" d="M814.7,537.7h-94.1c-4.78-13.33-9.56-26.64-14.34-39.96-1.2-3.37-2.41-6.72-3.61-10.07-3.96-11.02-7.92-22.04-11.87-33.06,3.43-.19,7.75-.61,12.66-1.62,4.85-.98,10.27-2.52,15.97-4.93,7.32-3.07,13.33-6.79,18.1-10.37,3.71-2.75,6.67-5.43,8.91-7.63,15.78,25.91,27.22,44.33,35.64,57.61,2.37,3.74,4.5,7.08,6.42,10.07,2.84,4.41,5.22,8.06,7.22,11.09,1.31,1.99,7.67,11.56,16.33,24.8.92,1.4,1.81,2.76,2.67,4.07Z"/>
  </g>
  <g id="Arm_2" data-name="Arm 2">
    <path class="cls-12" d="M348.89,426.29c-3.12,4.91-6.25,9.81-9.38,14.71-15.03,31.15-31.89,63.5-50.82,96.7h-62.45c5.07-7.65,10.2-15.32,15.4-23.03,18.74-27.75,37.45-54.53,56.06-80.36-.71-2.91-1.79-7.48-2.98-13.11-6.23-29.43-5.04-38.4-2.88-45.11,1.68-5.22,2.99-9.3,6.73-11.07,11.28-5.37,30.86,16.83,32.4,18.61,6.42,7.4,9.43,14.97,11.52,19.95,3.8,9,5.54,17.02,6.4,22.71Z"/>
    <g>
      <path class="cls-6" d="M315,267.73l.88,13.25-7.65.5-.88-13.23c-.14-1.92,1.19-3.64,3.04-4.01.15-.03.33-.04.51-.06,2.12-.16,3.94,1.45,4.09,3.55Z"/>
      <path class="cls-15" d="M327.15,302.22l.12,1.92c1.07,11.93,2.14,23.87,3.21,35.8l-28.83,1.94c-.53-11.96-1.07-23.95-1.61-35.92l-.12-1.92c-.19-2.75,1.86-5.13,4.6-5.39l-1.1-16.56c-.03-.15.1-.29.26-.3l4.56-.31,7.65-.5,4.56-.31c.16,0,.29.1.3.26l1.12,16.56c2.74-.1,5.09,1.99,5.28,4.73Z"/>
      <path class="cls-15" d="M330.47,339.94c.62,6.99,1.24,14,1.88,20.98.89,10.04,1.78,20.05,2.69,30.08.47,5.48.97,10.97,1.46,16.44.28,3.18.58,6.36.86,9.54.71,8.01,1.44,16,2.15,24.01,1.1,12.3,2.2,24.61,3.3,36.91.59,8.99-6.2,16.77-15.2,17.38l-2.39.14c-9,.62-16.77-6.2-17.38-15.18-.11-2.36-.2-4.69-.31-7.05-.45-9.99-.9-19.98-1.33-29.97-.74-16.48-1.48-32.95-2.23-49.43-.75-17.31-1.55-34.62-2.32-51.92l28.83-1.94Z"/>
      <polygon class="cls-6" points="335.62 339.61 337.03 360.52 339.5 397.72 340.15 407.21 340.37 410.54 342.4 440.8 339.51 441 323.85 442.05 306.19 443.24 303.29 443.44 300.55 402.56 296.5 342.22 301.65 341.88 330.47 339.94 335.62 339.61"/>
    </g>
    <path class="cls-12" d="M336,432.06c2.62.06,7.07-.27,10.6-3.21,7.04-5.88,4.97-17.68,3.99-23.28-1.97-11.23-8.06-19.19-12.22-23.6-1.57,1.26-3.93,3.2-6.71,5.68-9.03,8.08-13.55,12.12-15.07,16.7-2.33,7.03-.59,16.87,6.2,22.74,5.05,4.37,10.98,4.89,13.2,4.97Z"/>
    <path class="cls-12" d="M307.8,378.12c-.34,4.54-2.89,5.45-7.4,14.27-3.93,7.7-4.11,11.68-5.68,11.64-2.57-.07-4.15-10.61-4.61-15.03-.69-6.65-1.3-13.44,2.81-19.23.98-1.38,3.9-5.48,7.34-5.18,4.3.38,7.98,7.49,7.54,13.52Z"/>
  </g>
  <g id="Arm_5" data-name="Arm 5">
    <path class="cls-11" d="M949.74,472.54v65.16h-12.23c-5.24-2.24-8.8-5.55-10.59-7.42-14.78-16.93-29.69-34.72-44.62-53.4-15.89-19.87-30.83-39.54-44.88-58.9-11.46-15.79-22.33-31.36-32.63-46.68-1.06-1.23-2.12-2.47-3.18-3.7-2.7-3.14-5.4-6.29-8.11-9.43-.03-.04-.06-.07-.08-.1.05-5.76.63-13.94,3.11-23.39.54-2.06,1.16-4.53,2.04-7.27.84-2.64,1.93-5.54,3.42-8.57.4-.84.84-1.69,1.33-2.55.54-.99,1.13-1.99,1.78-3,1.13-1.75,14.04-21.44,25.27-23.26,1.01-.17,2.01-.19,2.99-.03.39.06.78.15,1.17.27.19.06.37.12.55.2,3.58,1.4,5.39,5.11,7.68,9.8,1.46,3,2.78,6.53,3.55,12.6.87,6.76,1.05,16.66,0,32.47-.38,5.74-.8,10.42-1.08,13.4,22.08,22.92,44.41,46.77,66.9,71.58,12.84,14.17,25.37,28.25,37.6,42.22Z"/>
    <g>
      <path class="cls-8" d="M804.44,196.3l1.01,13.25,7.64-.59-1.01-13.22c-.14-1.92-1.7-3.43-3.58-3.54-.16,0-.33,0-.51.02-2.12.15-3.69,1.99-3.55,4.09Z"/>
      <path class="cls-2" d="M797.32,232.17l.16,1.92c.64,11.96,1.27,23.93,1.91,35.89l28.81-2.17c-1.17-11.92-2.34-23.86-3.51-35.78l-.16-1.92c-.2-2.75-2.57-4.82-5.32-4.68l-1.26-16.55c0-.15-.14-.28-.3-.26l-4.56.34-7.64.59-4.56.34c-.16.01-.28.14-.26.3l1.24,16.55c-2.73.29-4.76,2.69-4.56,5.44Z"/>
      <path class="cls-2" d="M799.38,269.98c.38,7.01.76,14.03,1.12,21.04.54,10.06,1.09,20.1,1.61,30.16.31,5.49.6,11,.89,16.49.17,3.19.33,6.38.5,9.57.44,8.03.85,16.04,1.28,24.07.66,12.34,1.32,24.67,1.98,37.01.69,8.98,8.52,15.72,17.52,15.05l2.39-.2c9-.67,15.72-8.52,15.05-17.5-.22-2.35-.47-4.67-.69-7.02-.97-9.95-1.94-19.9-2.94-29.85-1.61-16.42-3.21-32.83-4.82-49.24-1.72-17.24-3.39-34.49-5.08-51.73l-28.81,2.17Z"/>
      <polygon class="cls-8" points="794.25 270.38 795.82 291.28 798.65 328.45 799.36 337.94 799.62 341.27 801.91 371.51 804.79 371.3 820.45 370.11 838.09 368.78 841 368.56 837.9 327.71 833.33 267.41 828.19 267.81 799.38 269.98 794.25 270.38"/>
    </g>
    <path class="cls-11" d="M807,361.95c-2.59.43-7.04.74-10.95-1.68-7.81-4.82-7.43-16.79-7.26-22.47.35-11.4,5.25-20.14,8.74-25.1,1.73,1.02,4.35,2.61,7.45,4.67,10.09,6.72,15.13,10.07,17.29,14.39,3.31,6.63,2.98,16.61-2.9,23.39-4.38,5.05-10.17,6.4-12.36,6.8Z"/>
    <path class="cls-11" d="M827.25,304.55c.98,4.45,3.64,4.99,9.35,13.07,4.99,7.06,5.72,10.98,7.28,10.71,2.53-.43,2.61-11.09,2.43-15.53-.26-6.68-.63-13.49-5.51-18.63-1.17-1.23-4.63-4.87-8-4.08-4.2.99-6.84,8.55-5.54,14.46Z"/>
  </g>
</svg>