<?xml version="1.0" encoding="UTF-8"?>
<svg id="_0049_THK_Zusammenarbeit-2" data-name="0049_THK_Zusammenarbeit-2" xmlns="http://www.w3.org/2000/svg" viewBox="0 0 764.72 486.52">
  <defs>
    <style>
      .cls-1 {
        fill: #42210b;
      }

      .cls-1, .cls-2, .cls-3, .cls-4, .cls-5, .cls-6, .cls-7, .cls-8, .cls-9, .cls-10, .cls-11, .cls-12, .cls-13, .cls-14, .cls-15, .cls-16, .cls-17, .cls-18, .cls-19, .cls-20, .cls-21, .cls-22, .cls-23, .cls-24, .cls-25, .cls-26, .cls-27 {
        stroke-width: 0px;
      }

      .cls-2 {
        fill: #a5678d;
      }

      .cls-3 {
        fill: #308fc9;
      }

      .cls-4 {
        fill: #dec1a8;
      }

      .cls-5 {
        fill: #64abd6;
      }

      .cls-6 {
        fill: #e6710a;
      }

      .cls-7 {
        fill: #873567;
      }

      .cls-8 {
        fill: #c39ab3;
      }

      .cls-9 {
        fill: #000;
      }

      .cls-10 {
        fill: #73bbe7;
      }

      .cls-11 {
        fill: #fcd9bd;
      }

      .cls-12 {
        fill: #dcbd92;
      }

      .cls-13 {
        fill: #96cced;
      }

      .cls-14 {
        fill: #b47d49;
      }

      .cls-15 {
        fill: #236289;
      }

      .cls-16 {
        fill: #b9ddf3;
      }

      .cls-17 {
        fill: #f3ebf0;
      }

      .cls-18 {
        fill: #825832;
      }

      .cls-19 {
        fill: #308fc9;
      }

      .cls-20 {
        fill: #ec9447;
      }

      .cls-21 {
        fill: #64abd6;
      }

      .cls-22 {
        fill: #b9ddf3;
      }

      .cls-23 {
        fill: #ccc;
      }

      .cls-24 {
        fill: #fff;
      }

      .cls-25 {
        fill: #e1ccd9;
      }

      .cls-26 {
        fill: #5a89a6;
      }

      .cls-27 {
        fill: #f2b885;
      }
    </style>
  </defs>
  <g id="Personen">
    <g id="Person_3" data-name="Person 3">
      <g id="Gesicht">
        <g id="Kopf">
          <path class="cls-14" d="M557.75,82.39c3.04-11.19-3.31-22.98-14.46-26.51h0c-11.43-3.62-23.75,2.78-27.37,14.21l-1.58,4.99c-2.1.15-3.94,1.66-4.38,3.82l-.36,1.76c-.37,1.85.39,3.66,1.8,4.75-1.25,9.37,4.37,18.63,13.67,21.58h0c.31.1.62.18.93.27l-.35,20.55c-.08,4.66,3.67,8.53,8.33,8.61,4.66.08,8.53-3.67,8.61-8.32l.38-22.29c0-.1,0-.2-.01-.3,5.02-2.55,9.14-6.85,11.34-12.38.42.13.85.22,1.31.23,2.64.04,4.84-2.08,4.88-4.72l.03-1.8c.03-1.95-1.12-3.65-2.79-4.43Z"/>
        </g>
        <g id="Augen">
          <rect class="cls-9" x="520.91" y="73.59" width="3.48" height="4.09" rx="1.74" ry="1.74" transform="translate(1022.97 244.68) rotate(-169.56)"/>
          <rect class="cls-9" x="537.73" y="76.69" width="3.48" height="4.09" rx="1.74" ry="1.74" transform="translate(1055.76 253.86) rotate(-169.57)"/>
        </g>
        <g id="Schatten">
          <path class="cls-18" d="M525.98,107.24c1.4.39,3.24.76,5.4.84,2.55.09,4.71-.25,6.28-.62-3.94,3.38-7.89,6.75-11.83,10.13.04-1.53.07-3.07.09-4.63.03-1.92.05-3.83.06-5.72Z"/>
          <path class="cls-18" d="M556.76,85.46c.34,0,.8,1.38.41,2.62-.28.89-1.02,1.77-1.3,1.65-.55-.24.31-4.29.9-4.27Z"/>
        </g>
        <g id="Nase">
          <path class="cls-9" d="M528.68,90.22c-.53,0-1.03-.12-1.46-.36-.44-.25-.73-.6-.82-.97-.19-.86.22-1.59,1.25-2.23l.12-.07c.45-.28,1.13-.71,1.57-1.53.15-.28.27-.73.35-1.04l.04-.14c.07-.37.13-.69.2-1.01.06-.31.13-.61.19-.98.01-.08.09-.13.17-.12.08.02.13.09.12.17-.07.37-.13.68-.19.99-.07.32-.13.63-.2,1.01l-.04.15c-.08.32-.21.79-.38,1.1-.47.89-1.22,1.35-1.67,1.64l-.12.07c-.92.57-1.28,1.2-1.13,1.92.06.29.31.57.67.78.66.38,1.58.42,2.46.13.08-.03.16.02.19.09.03.08-.02.16-.09.19-.42.14-.83.21-1.24.21Z"/>
        </g>
        <g id="Mund_Bart" data-name="Mund + Bart">
          <ellipse class="cls-24" cx="526.92" cy="96.05" rx="1.31" ry="5.42" transform="translate(303.82 582.98) rotate(-75.71)"/>
          <path class="cls-1" d="M534.39,96c-2.96-1.83-4.07-3.92-5.94-3.72-.44.05-1.03.24-1.68.83-.33-.76-.73-1.14-1.07-1.32-1.43-.79-2.98.82-5.93,1.59-1.33.35-2.47.4-3.28.38.56.63,1.36,1.33,2.44,1.8,3.42,1.49,6.8-.57,7.59-1.09.67.78,3.62,3.98,7.96,3.88,1.37-.03,2.52-.38,3.37-.75-.9-.29-2.13-.77-3.47-1.59Z"/>
        </g>
        <g id="Augenbrauen">
          <path class="cls-1" d="M543.79,76.98c-.33-.58-.99-1.58-2.18-2.41-1.49-1.05-2.99-1.26-3.67-1.31-.59-1-.56-1.49-.39-1.75.6-.9,3.67-.33,5.74,1.29,1.4,1.09,2.76,2.99,2.24,3.8-.27.42-.99.47-1.75.39Z"/>
          <path class="cls-1" d="M526.56,73.89c-.33-.58-.99-1.58-2.18-2.41-1.49-1.05-2.99-1.26-3.67-1.31-.59-1-.56-1.49-.39-1.75.6-.9,3.67-.33,5.74,1.29,1.4,1.09,2.76,2.99,2.24,3.8-.27.42-.99.47-1.75.39Z"/>
        </g>
        <g id="Haare">
          <path class="cls-1" d="M561.2,56.2c-1.2-1.88-3.87-1.32-7.72-2.18-5.7-1.27-5.35-3.73-11.38-5.91-1.6-.58-7.53-2.58-14.34-.82-2.4.62-6.19,1.6-8.23,4.96-1.34,2.2-1.65,4.98-1.24,7.17-.91,1.56-1.78,3.35-2.36,4.7,0,0-1.46,3.4-1.71,10.23,0,.09.08.36.13.67.11.6,1.44-4.97,3.65-8.94.45-.8.71-1.42,1.11-2.06.3-.48.57-.84.8-1.15,4.8,5.76,18.78,7.45,29.2,5.34,1.19,1.98,2.83,4.32,2.75,7.69-.11,4.86-2.81,9.21-2.87,9.08,0,0,1.44-.92,4.11-1.87,2.62-.94,3.77-.94,4.68-1.09,0,0,1.58-7.29,1.68-9.17.07-1.28.07-5.27-1.3-8.24,1.14-.85,2.03-1.81,2.58-2.89.15-.3,1.76-3.47.45-5.53Z"/>
        </g>
      </g>
      <g id="Körper">
        <g id="Körper-2" data-name="Körper">
          <path class="cls-14" d="M610.46,471.74c-3.28-1.91-5.31-5.43-5.1-9.22.3-5.5.47-12.28.22-19.99-.3-9.26-1.2-16.2-1.63-20.88-2.1-22.78-5.06-44.18-8.56-64.09.12-1.88-.16-3.7-.78-5.38.07-1.08.02-2.14-.17-3.14h.02c.08-14.77-.52-31.03-2.23-48.49-2.01-20.63-5.2-39.35-8.88-55.89-.02,0-.02.02-.04.02,0-.02,0-.06-.02-.08-4.3-14.69-8.32-32.43-10.61-52.75-2.65-23.51-2.29-44.3-.87-61.24-8.98-2.55-21.33-5.09-36.15-5.32-14.59-.22-26.85,1.87-35.83,4.1.86,19.87.62,42.3-1.64,66.74-1.49,16.08-3.67,31.05-6.24,44.82-3.56,17.22-6.52,37.28-7.74,59.7-.96,17.72-.67,34,.29,48.54h.02c-.1.73-.1,1.49-.07,2.26-.62,1.81-.86,3.78-.62,5.79-2.35,20.15-4.13,41.68-5.03,64.46-.55,13.97-.74,27.47-.63,40.46,0,1.11-.29,2.19-.87,3.13-.25.41-.54.85-.87,1.31-1.82,2.54-2.69,2.76-2.81,3.6-.37,2.67,7.43,8.12,15.14,6.86.76-.12,7.84-1.28,8.94-6.1.33-1.44.04-2.8-.39-3.88-.49-1.25-.59-2.61-.24-3.91,3.42-12.74,6.52-27.04,8.8-42.75,3.31-22.84,4.13-43.52,3.75-61.23h-.02c.37-1.3.53-2.66.47-4.06.23-.68.41-1.38.53-2.09,4.24-8.56,8.47-18.2,12.24-28.93,7.53-21.47,11.23-41.3,12.94-57.87.82-.16,1.71-.35,2.65-.57,2.45,17.09,7.22,37.87,16.41,60.29,4.33,10.52,9.05,19.93,13.73,28.26.13.59.31,1.17.51,1.73-.1,1.73.12,3.4.66,4.96h-.02c.61,17.72,2.57,38.32,7.11,60.93,3.11,15.5,6.96,29.58,11.03,42.11.57,1.76.47,3.65-.2,5.37-.75,1.91-1.36,4.68-.2,7.32,2.12,4.83,8.51,5.41,11.33,5.66,7,.63,15.59-2.26,15.77-5.85.08-1.77-1.89-3.42-4.11-4.71Z"/>
          <path class="cls-14" d="M608.28,188.67c-.23-.55-.46-1.06-.68-1.59-.1-.26-.21-.52-.34-.78-5.14-11.91-8.06-17.95-13.81-28.03-3.54-6.21-6.64-13.24-14.05-25.29-.01-.02-.02.02-.04.02-2.26-4.34-7.32-7.06-12.88-6.43-7.04.8-12.14,6.69-11.4,13.15.19,1.65.73,3.15,1.56,4.5-.02,0-.02.02-.04.02,8.82,16.03,19.76,31.42,32.16,46.35-1.99,17.74-3.98,35.47-5.98,53.21-.08.12-.14.24-.21.36-2.2,2.4-3.99,4.26-5.32,5.59,0,0-1.86,1.77-4.18,5.79-.59,1.03-1.23,2.27-.74,3.25.15.29.39.55.78.77,1.29.73,4.25-1.02,6.81-3.17,1.2-1.01,2.71,3.46,1.57,6.26-2.15,5.25-7.42,7.26-5.48,9.75,2.3,2.94,9.35-1.41,13.41-7.76,2.75-4.31,3.8-8.32,4.06-9.88.29-1.78.34-3.42.28-4.84.25-.64.48-1.4.64-2.18.11-.57.16-1.06.19-1.4,4.48-17.64,8.94-35.29,13.41-52.93.12-.58.39-2.05.19-3.83.05-.43.07-.76.09-.92Z"/>
          <path class="cls-14" d="M512.71,132.87c-3.84-4.62-12.98-3.23-16.92-1.75-7.05,2.64-8.34,3.64-28.01,16.43,0,0-12.41,8.07-23.98,16.92-15.65-5.75-31.65-10.51-47.25-16.38-3.03-2.33-5.34-4.23-6.94-5.58,0,0-1.91-1.71-6.11-3.7-1.07-.51-2.36-1.04-3.3-.48-.28.17-.52.44-.71.83-.63,1.35,1.35,4.15,3.7,6.53,1.1,1.12-3.24,2.98-6.11,2.06-5.41-1.72-7.83-6.82-10.15-4.68-2.74,2.52,2.15,9.2,8.81,12.74,4.52,2.4,8.6,3.13,10.17,3.26,2.01.16,3.8.04,5.32-.18,16.13,8.26,32.28,16.51,48.41,24.77.81.37,3.5,1.5,6.62.96,2.13-.27,4.25-1.06,5.99-1.73,17.81-6.78,31.59-14.63,33.81-15.9,18.02-10.25,22.81-12.7,27.3-18.69,1.89-2.52,3.49-10.47-.64-15.45Z"/>
        </g>
        <g id="Schuhe">
          <path class="cls-1" d="M500.65,472.89c-.5-2.31-1.25-4.27-1.92-5.81-.37.14-.78.3-1.25.45h0c-2.36.79-5.8,1.6-9.98,1.49-4.62-.15-8.25-1.36-10.45-2.3-.29.08-.56.15-.84.24h-.02c-4.86,1.36-9.71,3.48-15.91,5.16-14.21,3.85-14.71,6.49-14.71,6.49l-.05,2.83,55.79.94.05-2.83c.03-1.77-.13-4.08-.7-6.65Z"/>
          <path class="cls-1" d="M625.19,474.89c-6.49-2-11.48-4.45-16.57-5.96-.31.11-.64.24-1,.36h0c-2.27.79-5.54,1.59-9.51,1.59-4.4-.03-7.93-1.04-10.27-1.95-.33-.13-.62-.25-.9-.36-.71,1.52-1.54,3.45-2.12,5.74-.64,2.56-.88,4.86-.91,6.62l-.05,2.83,55.79.94.05-2.83s-.4-2.65-14.49-6.98Z"/>
        </g>
        <g id="Hose">
          <path class="cls-15" d="M613.18,460.38c-4.71-.37-10.04-.53-15.89-.27-6.25.29-11.88,1.01-16.79,1.89-8.82-40.09-17.87-80.14-27.12-120.13-5.61-24.19-11.3-48.36-17.06-72.52l.36-39.99c15.7.3,29.49-1.02,40.84-2.84,9.23,27.34,17.98,58.95,24.51,94.41,9.78,52.96,12.03,100.39,11.14,139.45Z"/>
          <path class="cls-26" d="M536.33,269.35c-3.94,22.84-7.8,45.69-11.6,68.57-6.88,41.48-13.53,83-19.94,124.56-4.38-1.07-9.68-2.04-15.73-2.44-5.53-.37-10.49-.21-14.69.18-3.69-36.18-5.2-80.46-.41-130.55,3.83-40.12,10.9-75.54,18.75-105.43,11.24,2.42,24.85,4.47,40.38,5.03,1.22.05,2.41.08,3.6.1l-.36,39.99Z"/>
        </g>
        <g id="Oberteil">
          <path class="cls-6" d="M576.4,178.67l25.39-24.55-21.85-22.6c-1.47-1.52-3.16-2.68-4.98-3.51,0,0,0,0,0-.01-.08-.04-.17-.07-.25-.11-.12-.05-.24-.11-.36-.16-2.68-1.15-6.41-2.4-11-2.95-4.33-.52-8.04-.26-10.77.14-.8,1-7.26,8.7-18.13,9.13l1.71,123.13c21,.4,38.8-2.31,52.15-5.34-.68-19.74-3.22-35.42-5.42-46.11-2.35-11.4-4.62-18.62-6.48-27.06Z"/>
          <path class="cls-20" d="M534.45,134.05c-.42.02-.84.03-1.28.02-10.97-.16-17.51-7.68-18.45-8.8-2.27-.28-5.08-.44-8.28-.18-4,.32-7.34,1.2-9.84,2.06,0,0,0,0,0,0-1.07.33-2.12.77-3.14,1.34l-27.49,15.26,18.08,32.58,14.12-7.84c-.07.74-.14,1.48-.21,2.2-1.25,11.89-3.36,18.44-6.82,36.44-3.28,17.08-5.46,31.65-6.91,42.64,12.9,3.49,29.82,6.77,49.8,7.38.71.02,1.42.04,2.13.06l-1.71-123.13Z"/>
        </g>
      </g>
    </g>
    <g id="Person_4" data-name="Person 4">
      <g id="Stuhl">
        <rect class="cls-27" x="688.19" y="319.17" width="14.22" height="147.97" rx="6.75" ry="6.75" transform="translate(1390.6 786.32) rotate(180)"/>
        <g>
          <rect class="cls-20" x="638.44" y="237.37" width="113.73" height="91.41" rx="4.76" ry="4.76"/>
          <path class="cls-20" d="M761.18,350.53h-131.77c-1.95,0-3.54,1.58-3.54,3.54v16.74c0,1.95,1.58,3.54,3.54,3.54h24.22c.83,5.41,5.5,9.56,11.14,9.56h20.78v13.06h19.47v-13.06h20.78c5.65,0,10.31-4.15,11.14-9.56h24.22c1.95,0,3.54-1.58,3.54-3.54v-16.74c0-1.95-1.58-3.54-3.54-3.54Z"/>
          <path class="cls-20" d="M752.16,473.82v-13.24c0-1.12-.9-2.02-2.02-2.02h-45.11v-5h-19.47v5h-45.11c-1.12,0-2.02.9-2.02,2.02v5.43c0,.22.05.44.11.64v7.17c-2.13,1.13-3.58,3.37-3.58,5.95,0,3.72,3.02,6.74,6.74,6.74s6.74-3.02,6.74-6.74c0-2.58-1.45-4.82-3.58-5.95v-5.79h17.24v5.79c-2.13,1.13-3.58,3.37-3.58,5.95,0,3.72,3.02,6.74,6.74,6.74s6.74-3.02,6.74-6.74c0-2.58-1.45-4.82-3.58-5.95v-5.79h17.13v5h19.47v-5h17.24v5.79c-2.13,1.13-3.58,3.37-3.58,5.95,0,3.72,3.02,6.74,6.74,6.74s6.74-3.02,6.74-6.74c0-2.58-1.45-4.82-3.58-5.95v-5.79h17.24v5.79c-2.13,1.13-3.58,3.37-3.58,5.95,0,3.72,3.02,6.74,6.74,6.74s6.74-3.02,6.74-6.74c0-2.58-1.45-4.82-3.58-5.95Z"/>
        </g>
        <circle class="cls-6" cx="641.71" cy="479.78" r="4.48"/>
        <circle class="cls-6" cx="665.27" cy="479.78" r="4.48"/>
        <circle class="cls-6" cx="725.44" cy="479.78" r="4.48"/>
        <circle class="cls-6" cx="749" cy="479.78" r="4.48"/>
      </g>
      <g id="Gesicht-2" data-name="Gesicht">
        <g id="Haare-2" data-name="Haare">
          <path class="cls-20" d="M707.39,203.76c.31,2.25-.34,4.49-1.88,5.63-2.32,1.7-6.66.91-9.02-2.77-.21,2.64-1.7,4.94-3.84,5.8-3.05,1.22-7.24-.55-8.84-4.56-.17.49-1.55,4.22-5.28,5.45-3.6,1.19-7.91-.46-10.27-4.19-1.56,2.62-4.48,4.15-7.5,3.92-3.16-.24-5.9-2.34-6.97-5.35-.34.38-2.74,2.9-6.51,2.76-4.37-.15-6.69-3.72-6.89-4.02-2.19-1.79-3.17-4.63-2.49-7.23.79-3.08,3.55-4.38,3.92-4.56-.44-.41-2.59-2.47-2.67-5.72-.08-2.97,1.58-5.77,4.29-7.33-2.02-1.26-3.07-3.57-2.67-5.8.52-2.9,3.22-4.09,3.42-4.17-.79-1.96-.38-4.1.98-5.36,1.25-1.15,2.83-1.14,3.24-1.13-.15-.35-1.62-3.99.41-7.22,1.92-3.06,5.97-4.37,9.57-2.94.01-.35.32-5.49,4.78-8.09,3.34-1.94,7.63-1.67,10.85.74,1.6-1.87,4.11-2.66,6.44-2.03,2.55.7,4.42,3,4.6,5.7.51-.1,6.39-1.05,10.67,3.31,3.56,3.63,3.36,8.26,3.32,9.01,2.02.18,3.79,1.46,4.59,3.31,1.22,2.83-.54,5.33-.63,5.45.22.1,1.71.76,2.19,2.37.44,1.49-.16,3.17-1.52,4.2.28.15,3.67,2.03,4.08,6.04.43,4.23-2.86,6.82-3.04,6.96,2.7.12,5.02,1.86,5.81,4.29.9,2.8-.38,6.01-3.13,7.51Z"/>
        </g>
        <path class="cls-11" d="M695.13,180.34c2.98-10.6-2.95-21.86-13.51-25.3h0c-10.84-3.53-22.59,2.45-26.12,13.29l-1.54,4.73c-2,.12-3.76,1.55-4.19,3.59l-.35,1.67c-.37,1.75.35,3.48,1.67,4.52-1.26,8.89,4.01,17.74,12.82,20.61h0c.29.1.59.18.88.26l-.43,17.01c-.11,4.43,3.42,8.14,7.84,8.25,4.42.11,8.14-3.42,8.25-7.84l.43-17.13c.01-.59-.04-1.17-.15-1.73,4.87-2.37,8.9-6.46,11.05-11.77.4.13.81.22,1.25.23,2.51.06,4.61-1.94,4.68-4.45l.04-1.71c.05-1.86-1.04-3.49-2.63-4.24Z"/>
        <g id="Schatten-2" data-name="Schatten">
          <path class="cls-4" d="M694.19,183.26c.32.01.75,1.32.36,2.49-.27.84-.98,1.67-1.25,1.56-.52-.23.33-4.07.89-4.05Z"/>
          <path class="cls-4" d="M680.96,202.18c-1.17.64-2.88,1.41-5.06,1.84-2.69.54-4.97.35-6.43.11,3.74,2.68,7.48,5.36,11.22,8.04.09-3.33.18-6.66.27-9.99Z"/>
        </g>
        <g id="Augenbrauen-2" data-name="Augenbrauen">
          <path class="cls-20" d="M666.2,171.55c-.42-.48-1.23-1.28-2.49-1.82-1.59-.69-3.02-.59-3.67-.51-.75-.82-.81-1.28-.7-1.55.38-.96,3.35-1.02,5.59.08,1.51.74,3.15,2.25,2.83,3.1-.17.44-.83.63-1.55.7Z"/>
          <path class="cls-20" d="M675.63,172.78c.62-.11,1.76-.23,3.09.14,1.67.46,2.73,1.43,3.18,1.9,1.09-.17,1.43-.49,1.52-.77.3-.99-1.98-2.9-4.41-3.44-1.64-.36-3.86-.22-4.14.65-.14.45.26,1.01.77,1.52Z"/>
        </g>
        <g id="Mund">
          <path class="cls-9" d="M668.07,195.75c-.59,0-1.17-.1-1.73-.29-.07-.03-.11-.11-.09-.18.02-.07.11-.11.18-.09,1.2.42,2.51.36,3.88-.17,1.27-.5,2.55-1.39,3.8-2.65.05-.06.14-.05.2,0,.06.05.06.14,0,.2-1.28,1.29-2.59,2.21-3.9,2.72-.8.31-1.58.47-2.33.47Z"/>
        </g>
        <g id="Augen-2" data-name="Augen">
          <rect class="cls-9" x="660.2" y="171.71" width="3.31" height="3.89" rx="1.65" ry="1.65" transform="translate(1278.9 469.4) rotate(-169.09)"/>
          <rect class="cls-9" x="676.16" y="174.78" width="3.31" height="3.89" rx="1.65" ry="1.65" transform="translate(1309.94 478.52) rotate(-169.09)"/>
        </g>
        <g id="Nase-2" data-name="Nase">
          <path class="cls-9" d="M667.49,187.56c-.52,0-1-.12-1.41-.36-.41-.24-.69-.58-.77-.93-.17-.82.22-1.51,1.21-2.12l.11-.07c.43-.26,1.08-.66,1.5-1.43.14-.26.26-.69.34-.98l.04-.13c.07-.35.13-.64.19-.94.06-.3.13-.59.19-.95.02-.08.09-.13.17-.11.08.01.13.09.11.16-.07.36-.13.66-.2.95-.06.3-.13.59-.19.95l-.04.14c-.08.3-.21.75-.37,1.04-.46.84-1.17,1.28-1.6,1.54l-.11.07c-.88.54-1.23,1.13-1.08,1.82.06.27.29.55.63.75.64.37,1.49.42,2.33.14.08-.02.15.02.18.09.02.07-.02.15-.09.18-.39.13-.78.19-1.15.19Z"/>
        </g>
        <path class="cls-20" d="M696.33,160.91c-1.58-2.65-3.59-4.37-5.05-5.41.47-2.55-.78-5.07-2.94-6.12-2.52-1.22-5.79-.21-7.3,2.46-.71-2.33-2.92-3.85-5.25-3.7-1.53.1-2.89.92-3.77,2.13-1.43-.26-3.16.16-4.66,1.35-.32-.16-3.31-1.64-6.85.11-3.94,1.95-4.84,6.08-4.88,6.31-1.65.48-2.99,1.9-3.34,3.55-.36,1.68.37,3.28,1.82,3.96.46,1.39,2.07,1.89,3.36,1.2,1.14-.61,1.8-2.04,1.41-3.27.69,1.92,2.52,3.02,4.52,2.78,2.37-.29,3.8-2.33,3.95-2.55.17,0,1.65.06,3.31-.71.11,1.51.77,2.97,1.95,4.03,2.08,1.86,5.22,2.03,7.51.39-.48,2.89.94,4.64,2.23,5.26,2.46,1.17,4.65-.02,5.5.06.2.02-1.04,2.8,1.04,5.11,1.09,1.21,3.79,2.27,5.71,1.72,1.11-.35,3.4-1.29,4.6-2.69,3.51-4.11-.51-12.03-2.85-15.96Z"/>
      </g>
      <g id="Körper-3" data-name="Körper">
        <g id="Körper-4" data-name="Körper">
          <path class="cls-11" d="M668.59,290.97c-.51,8.78-1.01,17.56-1.51,26.34-2.91,2.81-6.31,5.9-10.24,9.14-.01.01-.02.01-.03.02-6.72,4.22-10.92,4.08-18.65,6.45-3.02.92-21.53,6.61-29,20.39-.19.34-.36.68-.52,1.02-12.04,4.54-22.84,7.06-31.29,8.51-.43.46-.85.92-1.27,1.38.79,16.74.54,36.17-1.89,57.65-1.72,15.1-4.25,28.89-7.13,41.22-.4,1.73-.15,3.53.63,5.12.87,1.78,1.68,4.38.79,6.99-1.64,4.81-7.71,5.87-10.38,6.35-6.65,1.16-15.12-.9-15.58-4.32-.22-1.69,1.53-3.43,3.55-4.85,2.99-2.1,4.64-5.63,4.13-9.24-.73-5.24-1.45-11.72-1.84-19.13-.47-8.89-.17-15.61-.14-20.12.08-11.97.32-18.86.89-32.02.92-20.99,1.38-31.48,1.98-33.03,7.25-18.57,28.71-27.85,42.88-33.98,15.06-6.51,21.02-5.54,33.57-13.7,10.01-6.5,16.84-14.03,21.15-19.57,6.63-.21,13.26-.41,19.9-.62Z"/>
          <g>
            <path class="cls-11" d="M710.1,314.9c-2.87-15.39-18.25-23.14-21.22-24.56-6.76.21-13.53.42-20.29.63-.51,8.78-1.01,17.56-1.51,26.34-2.07,2.54-5.4,6.09-10.24,9.14-.01.01-.02.01-.03.02-6.72,4.22-10.92,4.08-18.65,6.45-3.02.92-21.53,6.61-29,20.39-.19.34-.36.68-.52,1.02-2.19,4.52-2.47,8.76-2.81,17.82-1.14,30.47-1.71,45.71-.81,57.3.97,12.49-.45,25.06-.22,37.59.02,1.03-.25,2.04-.8,2.92-.24.39-.52.8-.83,1.24-1.72,2.4-2.56,2.62-2.66,3.4-.33,2.49,7.2,7.38,14.59,6.04.74-.13,7.51-1.36,8.53-5.87.3-1.35,0-2.61-.41-3.59-.48-1.15-.59-2.42-.27-3.63,3.16-11.91,6-25.26,8.04-39.9,2.96-21.29,3.56-40.52,3.02-56.96h-.02c.12-.4.21-.81.28-1.22,9.69-2.1,18.08-4.7,25.08-7.26,19.53-7.15,45.79-16.76,50.49-35.95.31-1.3,1.3-5.79.26-11.36Z"/>
            <path class="cls-11" d="M688.88,290.34l17.24-66.51c-10.14-2.27-21.9-4.26-35.03-5.35-12.26-1.01-23.44-1.04-33.27-.57,3.63,24.56,7.25,49.12,10.88,73.68l40.19-1.25Z"/>
          </g>
        </g>
        <g id="Schuhe-2" data-name="Schuhe">
          <path class="cls-15" d="M587.73,475.46c6.26-1.81,11.1-4.09,16.01-5.46.07.02.12.04.2.07.02.01.06.02.09.03,1.09.43,2.47.89,4.12,1.26,1.65.36,3.56.64,5.68.68,3.79.03,6.94-.7,9.18-1.46.32-.09.62-.21.9-.31.24-.09.47-.19.69-.27.68,1.46,1.41,3.34,1.95,5.55.57,2.46.76,4.69.76,6.39v2.7h-53.62v-2.7s.43-2.55,14.03-6.48Z"/>
          <path class="cls-15" d="M532.21,474.11c6.26-1.8,11.1-4.08,16.02-5.46.04.02.08.04.13.05.24.09.49.19.75.28h.01c2.16.8,5.33,1.65,9.2,1.71,4.12.05,7.5-.84,9.74-1.66h.01c.17-.06.34-.11.5-.19.18-.06.34-.13.51-.2.68,1.47,1.42,3.35,1.95,5.55.57,2.47.76,4.69.76,6.4v2.7h-53.62v-2.7s.43-2.55,14.03-6.49Z"/>
        </g>
        <g id="Hose-2" data-name="Hose">
          <path class="cls-2" d="M585.56,366.19c-1.97,6.18-4.26,14.45-5.99,24.39-2.31,13.3-2.56,23.48-2.73,31.27-.24,11.41.19,26.61,2.78,44.55-6.02-1.83-13.66-3.58-22.61-4.32-7.61-.63-14.36-.39-19.95.17,4.17-24.03,6.23-43.57,7.33-56.68,3.13-37.19,1.11-48.47,11.18-61.29,9.11-11.59,22.12-17.25,35.09-22.87,7.13-3.09,12.79-4.72,24.07-8.86,6.23-2.28,9.67-2.84,14-5.35,7.43-4.31,12.02-10.27,14.72-14.58,9.11,1.06,18.21,2.13,27.32,3.19.65,4.67,1.09,12.33-1.78,20.68-7.36,21.44-30.97,31.32-51.08,39.74-7.57,3.17-18.52,7.12-32.37,9.98Z"/>
          <path class="cls-7" d="M691.42,290.7c1.94,1.06,21.59,12.27,22.59,32.52.42,8.49-2.62,14.74-3.28,16.03-7.9,15.62-27.73,20.69-35.53,22.68-.8.2-33.79,8.68-35.53,11.93-1.12,2.1-.08,2.13-1.82,15.56-.95,7.33-2.07,15.35-2.57,18.69,0,0-1.81,12.31-2.62,26.36-.46,7.99-.71,18.85.17,31.92-5.47-1.24-11.77-2.34-18.79-2.99-7.06-.65-13.49-.72-19.12-.5,4.06-19.79,4.86-35.82,4.82-46.89-.05-14.82-1.61-26.42,2.59-43.61,2.65-10.85,4.02-16.23,8.42-21.71,10.59-13.18,32.63-19.78,38.25-21.5,2.18-.67,8.78-2.56,14.71-8.17,1.55-1.47,2.67-2.82,3.36-3.72.46-7.14.92-14.28,1.38-21.42,7.65-1.73,15.3-3.46,22.96-5.19Z"/>
        </g>
        <g id="Oberteil_Arme" data-name="Oberteil + Arme">
          <path class="cls-11" d="M650.32,229.11c-.02,1.53-.35,2.98-.92,4.31h-.02s0,.05-.03.09c-8.26,19.5-16.53,39.03-24.82,58.56-.02.07-.05.16-.1.23-.07.19-.19.46-.32.8-.86,2.08-1.67,3.79-1.92,4.3-.58,1.15-1.97,3.93-4.49,5.16-3.11,1.52-7.71.55-9.87-1.88-2.87-3.24-1.12-8.76.45-13.71,6.43-20.3,11.44-41.06,19.13-60.94.1-.26.18-.54.25-.8.02-.05.03-.09.05-.14,1.64-4.38,6.01-7.48,11.06-7.42,6.46.07,11.6,5.2,11.53,11.45Z"/>
          <path class="cls-17" d="M637.8,217.01c1.27,19.78,2.37,32.69,3.16,40.96.17,1.71.5,5.04.88,9.67.73,8.59,1.25,16.92,1.62,24.97,5.74,1.76,14.58,3.71,25.43,3.3.63-.02,1.26-.06,1.88-.11-.17-23.86-.34-47.73-.5-71.59-2.56-.26-6.84-1.07-11.15-3.91-1.83-1.2-3.26-2.51-4.36-3.67-5.66.13-11.32.26-16.97.38Z"/>
          <path class="cls-25" d="M670.28,224.2c-.61,23.9-1.21,47.79-1.82,71.69,4.39-.13,9.66-.66,15.49-2.04,3.63-.86,6.89-1.91,9.74-3,.36-2.03.74-4.07,1.13-6.13.98-5.18,2.02-10.25,3.11-15.22,3.71-6.08,7.42-12.15,11.13-18.23.37-9.36.75-18.72,1.12-28.08-3.69-1-7.63-1.93-11.78-2.77-2.94-.59-5.8-1.09-8.55-1.51-2.34,1.74-6.78,4.51-12.92,5.29-2.55.32-4.81.23-6.65,0Z"/>
          <path class="cls-17" d="M622.54,216.56h28.46v28.99c0,7.85-6.38,14.23-14.23,14.23h0c-7.85,0-14.23-6.38-14.23-14.23v-28.99h0Z" transform="translate(1164.33 667) rotate(-161.4)"/>
          <g id="Unterarme">
            <path class="cls-11" d="M611.12,217.7c4.09,6.2,8.67,12.68,13.8,19.34,5.55,7.2,11.06,13.74,16.38,19.64,2.68,2.95,6.98,3.68,10.27,1.86,4.01-2.22,4.68-7.23,3.62-10.35-.34-1.01-.84-1.78-1.27-2.31v-.02c-12.55-11.41-25.1-22.83-37.64-34.24-.05-.08-.1-.13-.15-.21-.35-1.04-.82-2.31-1.49-3.72-.15-.32-.64-1.32-1.38-2.59-1.82-3.1-3.13-4.25-3.63-4.66-.09-.08-.26-.2-.59-.46-1.06-.81-2.72-2.09-4.96-3.64-4.76-3.3-5.72-3.4-6.38-3.09-.16.07-.52.28-.72.68-.54,1.13.81,2.81,1.45,3.6,2.51,3.07,5.16,4.19,4.78,4.5-.9.75-2.26,1.13-3.77,3.36-.09.14-1.54,2.33-1.02,4.77.59,2.77,3.43,4.11,6.27,5.69,2.42,1.35,4.66,1.89,6.15,2.13.09-.1.18-.19.27-.29Z"/>
            <path class="cls-11" d="M663.53,321.32c-2.39-.97-4.22-4.56-2.89-4.69,2.84-.28,5.67-1.04,6-2.27.1-.36.08-.67,0-.93-.3-.88-1.44-1.24-2.43-1.49-3.84-.98-6.03-.9-6.03-.9-1.8.01-4.35,0-7.61-.12-4.02-2.87-8.16-5.73-12.46-8.58-6.13-4.06-12.21-7.87-18.2-11.43l-.05-.05c-.23-.14-.47-.28-.7-.42,0,0-.07-.04-.14-.07-5.13-2.66-9.07,0-9.07,0-3.08,2.08-3.35,5.78-3.36,5.99-.16,2.96,1.46,4.99,1.79,5.39,1.1,1.33,2.39,1.96,3.08,2.25,11.98,5.34,23.96,10.67,35.94,16.01.95,1.19,2.31,2.62,4.17,3.93,1.1.78,4.18,2.53,8.46,3.42,6.3,1.31,13.16-.4,12.74-3.56-.36-2.67-4.73-.65-9.23-2.47Z"/>
          </g>
          <g>
            <path class="cls-11" d="M709.1,226.53c-.94-.14-2.05-.04-2.05-.04-.67.06-1.33.19-1.97.39v.02s-.05,0-.09.01c-18.75,5.65-37.53,11.29-56.31,16.96-.07.02-.16.03-.22.07-.25.07-.51.13-.76.22-2.75,1-4.89,3.7-5.34,7.1-.62,4.68,2.24,8.91,6.38,9.45.68.09,1.35.08,2.01-.05,0,0,.18-.03.26-.04,19.23-3.66,38.43-7.35,57.66-11.03.25-.06.51-.1.75-.14.05-.02.09-.01.13-.03,1.43-1.67,4.51-5.79,4.56-11.47.05-5.74-3.01-11.12-5.01-11.42Z"/>
            <path class="cls-25" d="M674.25,228.77l5.48,28.21,29.33-5.7c8.62-10.49,9.23-21.8,4.51-26.16-.63-.58-3.47-3-10-2.05l-29.33,5.7Z"/>
          </g>
        </g>
      </g>
    </g>
    <g id="Person_2" data-name="Person 2">
      <g>
        <rect class="cls-27" x="234.27" y="302.49" width="13.85" height="159.97" rx="6.92" ry="6.92"/>
        <g>
          <rect class="cls-20" x="185.81" y="219.46" width="110.77" height="89.04" rx="4.64" ry="4.64"/>
          <path class="cls-20" d="M305.37,348.88h-128.34c-1.9,0-3.45,1.54-3.45,3.45v16.3c0,1.9,1.54,3.45,3.45,3.45h23.59c.81,5.27,5.35,9.32,10.85,9.32h20.24v12.72h18.96v-12.72h20.24c5.5,0,10.04-4.04,10.85-9.32h23.59c1.9,0,3.45-1.54,3.45-3.45v-16.3c0-1.9-1.54-3.45-3.45-3.45Z"/>
          <path class="cls-20" d="M296.47,468.96v-6.99c.07-.2.11-.4.11-.62v-5.29c0-1.09-.88-1.97-1.97-1.97h-43.94v-4.87h-18.96v4.87h-43.94c-1.09,0-1.97.88-1.97,1.97v12.89c-2.07,1.1-3.49,3.29-3.49,5.8,0,3.63,2.94,6.57,6.57,6.57s6.57-2.94,6.57-6.57c0-2.51-1.41-4.69-3.49-5.8v-5.64h16.79v5.64c-2.07,1.1-3.49,3.29-3.49,5.8,0,3.63,2.94,6.57,6.57,6.57s6.57-2.94,6.57-6.57c0-2.51-1.41-4.69-3.49-5.8v-5.64h16.79v4.87h18.96v-4.87h16.68v5.64c-2.07,1.1-3.49,3.29-3.49,5.8,0,3.63,2.94,6.57,6.57,6.57s6.57-2.94,6.57-6.57c0-2.51-1.41-4.69-3.49-5.8v-5.64h16.79v5.64c-2.07,1.1-3.49,3.29-3.49,5.8,0,3.63,2.94,6.57,6.57,6.57s6.57-2.94,6.57-6.57c0-2.51-1.41-4.69-3.49-5.8Z"/>
        </g>
        <circle class="cls-6" cx="293.39" cy="474.76" r="4.37"/>
        <circle class="cls-6" cx="270.44" cy="474.76" r="4.37"/>
        <circle class="cls-6" cx="211.84" cy="474.76" r="4.37"/>
        <circle class="cls-6" cx="188.89" cy="474.76" r="4.37"/>
      </g>
      <g id="Körper-5" data-name="Körper">
        <g id="Körper-6" data-name="Körper">
          <path class="cls-11" d="M386.54,467.56c-2.91-2.04-4.52-5.48-4.02-9,.72-5.1,1.41-11.41,1.79-18.63.46-8.66.17-15.21.14-19.6-.08-11.22-.41-22.43-.99-33.64-.28-5.33-.62-10.66-1.01-15.98-.38-5.08-.05-10.77-1.23-15.7-1.13-4.7-4.26-7.13-8.06-9.63-4.69-3.08-9.17-6.48-13.91-9.5-7.74-4.92-15.72-9.44-23.92-13.54-5.55-2.78-17.98-8.74-32.42-10.9-2.81-13.34-5.24-28.15-6.86-44.27-2.16-21.47-2.46-41.09-1.78-58.32-8.44-2.29-20.04-4.51-33.91-4.48-13.66.02-25.1,2.22-33.47,4.48,1.12,19.19,1.22,40.53-.48,63.61-.85,11.6-2.09,22.64-3.59,33.08,3.96,14.04,10.21,20.49,15.5,23.69.23.14.51.3,1.08.62,2.79,1.59,8.48,4.54,21.87,9.99,19.67,8,24.01,8.38,43.43,16.23,2.09.85,4.7,1.93,8.46,3.17,7.62,2.53,14.5,3.9,22.32,5.41,8.2,1.58,15.44,2.98,21.6,3.8-.44,14.83,0,31.61,2.08,49.91,1.67,14.7,4.14,28.14,6.94,40.15.39,1.68.15,3.44-.61,4.99-.85,1.72-1.64,4.26-.77,6.81,1.59,4.68,7.51,5.72,10.11,6.18,6.47,1.14,14.72-.87,15.17-4.21.22-1.64-1.49-3.34-3.46-4.72Z"/>
          <path class="cls-11" d="M330.93,466.41c-.3-.43-.57-.83-.8-1.2-.54-.86-.81-1.85-.79-2.85.22-11.75.17-23.97-.21-36.61-.35-11.35-.96-22.69-1.83-34-.33-4.35-.67-9.57-1.44-16.34-1.53-13.48-2.36-20.3-5.07-24.76-3.55-5.82-8.91-8.43-19.62-13.63-16.69-8.11-23.8-6.82-29.76-14.16-4.3-5.3-5.32-11.79-5.4-16.87l-43.18-.44c-1.97,2.94-5,8.34-5.95,15.68-.44,3.44-1.5,15.6,5.99,24.77,3.24,3.97,9.64,6.43,22.29,11.19,8.46,3.18,17.48,6.52,30.45,9.7,8.91,2.18,17.35,3.68,25.2,4.73-.35,15.31.33,32.97,3.03,52.39,1.98,14.26,4.76,27.26,7.83,38.86.31,1.18.21,2.41-.26,3.54-.4.96-.69,2.19-.4,3.5.99,4.39,7.59,5.59,8.3,5.72,7.2,1.31,14.53-3.46,14.21-5.88-.1-.76-.92-.97-2.59-3.32Z"/>
        </g>
        <g id="Schuhe-3" data-name="Schuhe">
          <path class="cls-15" d="M345.97,470.56c-6.1-1.76-10.81-3.99-15.6-5.32-.07.02-.12.04-.19.07-.02,0-.06.02-.09.03-1.06.42-2.41.86-4.02,1.23-1.61.36-3.47.62-5.53.66-3.69.03-6.76-.68-8.94-1.42-.32-.09-.6-.2-.87-.31-.23-.09-.46-.18-.67-.26-.66,1.42-1.37,3.25-1.9,5.41-.56,2.4-.74,4.57-.74,6.22v2.63h52.22v-2.63s-.42-2.48-13.67-6.31Z"/>
          <path class="cls-15" d="M400.04,469.25c-6.1-1.75-10.81-3.98-15.61-5.32-.04.02-.08.04-.12.05-.23.09-.48.18-.73.27h0c-2.11.78-5.2,1.61-8.96,1.67-4.02.05-7.3-.81-9.49-1.62h0c-.16-.06-.34-.11-.49-.18-.17-.06-.34-.12-.5-.19-.66,1.43-1.38,3.26-1.9,5.41-.56,2.41-.74,4.57-.74,6.23v2.63h52.22v-2.63s-.42-2.48-13.67-6.32Z"/>
        </g>
        <g id="Hose-3" data-name="Hose">
          <path class="cls-3" d="M353.77,370.32c-1.14,11.15-1.67,24.42-.61,39.3,1.32,18.53,4.75,34.42,8.4,47.01,2.12-1.34,7.02-4.04,13.8-4.25,5.9-.18,10.41,1.6,12.65,2.67,1.73-13.35,3.18-31.41,2.21-52.76-1.37-30.45-2.06-45.67-12.93-59.51-8.98-11.43-20.87-16.76-41.39-25.96-13.49-6.05-25.35-9.68-33.91-11.89-12,.35-23.99.7-35.99,1.05,1.05,3.52,2.84,8.52,5.91,14.05,11.28,20.35,29.92,29.9,45.05,37.42,8.54,4.24,20.93,9.41,36.8,12.88Z"/>
          <path class="cls-5" d="M222.82,305.54c-2.17,2.59-6.57,8.56-8.03,17.39-.3,1.82-1.85,12.13,3.05,21.38,2.68,5.06,8.03,11.18,42.3,21.84,8.17,2.54,19.79,5.9,34.06,9.16.42,10.36,1.23,21.35,2.55,32.88,2,17.47,4.87,33.54,8.14,48.05,2.99-1.03,7.4-2.17,12.83-2.24,6.59-.09,11.84,1.43,15.07,2.65,2.33-18.01,3.29-33.55,3.67-45.81.71-23.19.46-33.5-3.87-45-2.35-6.24-4.29-11.39-9.06-16.8-8.37-9.49-20.69-14.37-37.25-20.94-7.36-2.92-13.85-5.06-17.6-11.58-2.21-3.84-2.65-7.79-2.67-10.54-6.17-.07-12.35-.14-18.53-.2-8.22-.09-16.44-.16-24.65-.24Z"/>
        </g>
        <g id="Oberteil_Arme-2" data-name="Oberteil + Arme">
          <g>
            <path class="cls-11" d="M394.23,253.92c-2.21-1.88-4.26,2.89-9.17,4.67-2.61.94-6.66-.62-5.69-1.68,2.07-2.27,3.79-4.92,3.17-6.14-.19-.36-.42-.6-.68-.74-.88-.49-2.05.05-3.01.55-3.79,1.98-5.48,3.62-5.48,3.62-1.3,1.19-3.12,2.8-5.47,4.78-13.85,2.98-27.71,5.97-41.56,8.95-6.37-16.55-12.75-33.1-19.14-49.66-.02,0-.02.02-.04.02-1.77-4.6-6.54-7.89-12.18-7.89-7.15,0-12.93,5.31-12.93,11.85,0,1.67.38,3.24,1.05,4.67-.02,0-.02.02-.04.02,9.52,17.66,19.03,35.33,28.55,52.99.11.27.29.65.53,1.09,1.11,1.98,3.85,5.29,7.52,6.15.08.02.15.05.23.07.84.19,2.54.44,4.76-.31,16.01-5.82,32.02-11.63,48.03-17.45.6.08,1.2.06,1.77-.04.9.01,1.87-.02,2.9-.15,1.44-.17,5.17-.99,9.24-3.36,5.99-3.49,10.25-9.81,7.64-12.03Z"/>
            <path class="cls-13" d="M295.36,207.28h3.76c8.4,0,15.22,6.82,15.22,15.22v28.86h-34.2v-28.86c0-8.4,6.82-15.22,15.22-15.22Z" transform="translate(-67.28 139.53) rotate(-23.81)"/>
          </g>
          <g>
            <path class="cls-16" d="M273.05,321.27c-4.45.3-10.07.46-18.24.6-11.02.17-25.85.27-43.57,0,2.66-10.2,5.9-23.45,9.1-39.09,3.43-16.74,5.1-25.2,5.8-34.2.74-9.52.66-23.59-3.81-41.12,2.61-.65,4.83-1.07,6.53-1.34,2.4-.39,3.79-.5,4.55-.54.39-.02,1.52-.09,3-.07,1.39.02,2.96.1,4.7.31.9,1.04,7.14,7.97,17.41,7.94.38,0,.74,0,1.11-.04l13.42,107.55Z"/>
            <path class="cls-13" d="M316.3,306.79c-6.7,4.18-17.35,9.79-31.36,12.83-3.76.82-7.15,1.31-11.89,1.64l-13.42-107.55c10.21-.53,16.17-7.88,16.91-8.83,2.95-.05,6.24.06,9.78.4,4.27.41,8.11,1.11,11.45,1.9-.55,1.44-1.45,4.07-2.09,7.46-.63,3.4-1.09,9.3,1.63,27.8.49,3.35.99,6.16,1.53,8.76,2.62,12.56,5.38,22.69,7.32,28.81,2.54,8.02,5.83,17.06,10.14,26.76Z"/>
          </g>
          <g>
            <path class="cls-11" d="M290.36,232.19c-.45-.35,2.59-1.78,5.39-5.48.72-.95,2.22-2.98,1.53-4.28-.24-.46-.68-.68-.87-.76-.78-.33-1.9-.17-7.31,3.91-2.54,1.92-4.43,3.49-5.63,4.48-.37.31-.56.47-.66.56-.56.5-2.04,1.91-4.03,5.61-.81,1.52-1.33,2.72-1.49,3.1-.46,1.08-.83,2.09-1.14,3.01-8.05,8.21-16.09,16.42-24.14,24.63-4.03-15.62-7.78-31.44-11.21-47.48-.15-.72-.31-1.45-.46-2.18-.01-.02-.01-.06-.02-.07-.3-.91-.71-1.8-1.26-2.64-3.63-5.61-11.44-7-17.43-3.12-5.07,3.28-7.23,9.26-5.6,14.42.01.02.01.06.02.07.03.1.24.66.27.75,7.09,19.51,13.97,39.04,20.62,58.58.18.98.57,2.48,1.51,4.07.6,1.02,1.28,1.83,1.66,2.21.95.93,2.53,1.58,4.33,1.79.23.09.47.18.71.25,1.26.36,2.33.29,2.82.25,3.88-.31,6.3-3.11,6.93-3.88,9.72-13.09,19.45-26.18,29.17-39.27,1.51-.45,3.31-1.15,5.2-2.3,3.25-1.98,6.5-3.68,7.07-6.95.5-2.87-1.3-5.37-1.41-5.53-1.87-2.53-3.47-2.92-4.57-3.75Z"/>
            <path class="cls-16" d="M253.43,242.91l-32.02,12.02-10.14-27.02c-.62-1.9-2.04-7.14.41-11.63,1.24-2.28,3.49-4.4,4.25-5.11,1.41-1.33,2.72-2.29,3.7-2.94,1.47-.67,2.9-.79,4.06-1.23,7.84-2.94,16.66,1.06,19.6,8.9l10.14,27.01Z"/>
          </g>
        </g>
      </g>
      <g id="Gesicht-3" data-name="Gesicht">
        <g id="Kopf-2" data-name="Kopf">
          <path class="cls-11" d="M284.85,166.17l-.33-1.76c-.4-2.15-2.21-3.69-4.29-3.87l-1.49-4.99c-3.41-11.43-15.55-18-26.98-14.59-11.15,3.32-17.66,14.95-14.82,26.12-1.67.75-2.85,2.42-2.85,4.36v1.79c0,2.63,2.15,4.78,4.78,4.78.46,0,.89-.09,1.31-.21,2.12,5.61,6.22,10,11.26,12.6-.13.58-.2,1.19-.2,1.8v17.94c0,4.63,3.79,8.42,8.42,8.42s8.42-3.79,8.42-8.42v-17.81c.31-.08.62-.16.93-.25h0c9.3-2.77,15.04-11.89,13.96-21.23,1.42-1.05,2.21-2.84,1.87-4.69Z"/>
        </g>
        <g id="Schatten-3" data-name="Schatten">
          <path class="cls-4" d="M237.88,170.15c-.34,0-.81,1.36-.45,2.6.26.89.98,1.78,1.27,1.66.55-.23-.24-4.27-.82-4.26Z"/>
          <path class="cls-4" d="M268.12,192.33c-1.4.36-3.23.7-5.38.74-2.54.05-4.68-.33-6.23-.72,3.86,3.42,7.73,6.85,11.59,10.27-.01-1.52-.02-3.06-.02-4.6,0-1.91.01-3.81.04-5.68Z"/>
        </g>
        <g id="Augen-3" data-name="Augen">
          <rect class="cls-9" x="270.23" y="158.92" width="3.46" height="4.07" rx="1.73" ry="1.73" transform="translate(-22.77 46.93) rotate(-9.47)"/>
          <rect class="cls-9" x="253.46" y="161.72" width="3.46" height="4.07" rx="1.73" ry="1.73" transform="translate(-23.46 44.21) rotate(-9.47)"/>
        </g>
        <path class="cls-9" d="M265.79,175.35c-.42,0-.85-.08-1.28-.23-.07-.03-.11-.11-.09-.18.03-.07.11-.11.18-.09.87.31,1.78.27,2.45-.09.37-.2.62-.48.68-.77.17-.72-.19-1.35-1.09-1.93l-.12-.08c-.44-.29-1.17-.77-1.63-1.65-.16-.31-.28-.79-.36-1.1l-.03-.13c-.07-.39-.12-.7-.18-1.01-.06-.31-.12-.62-.18-1-.01-.08.04-.15.12-.16.08-.01.15.04.16.12.06.38.12.69.18,1,.06.31.12.62.18,1l.03.12c.08.3.19.76.33,1.04.42.82,1.09,1.25,1.53,1.54l.12.08c1.01.66,1.41,1.39,1.21,2.24-.09.37-.39.71-.82.95-.41.22-.89.34-1.4.34Z"/>
        <g id="Mund-2" data-name="Mund">
          <path class="cls-24" d="M259.62,179.92c.06.23.91,3.52,3.96,4.57,2.67.91,5.86-.29,7.53-3.03-1.27.39-3.78.97-6.83.35-2.09-.42-3.67-1.25-4.66-1.88Z"/>
        </g>
        <g id="Augenbrauen-3" data-name="Augenbrauen">
          <path class="cls-1" d="M250.92,161.94c.33-.57,1.01-1.55,2.21-2.36,1.5-1.02,2.99-1.2,3.67-1.24.61-.99.58-1.47.42-1.73-.58-.91-3.65-.39-5.73,1.18-1.41,1.06-2.8,2.93-2.3,3.74.26.42.98.48,1.73.42Z"/>
          <path class="cls-1" d="M268.1,159.15c.33-.57,1.01-1.55,2.21-2.36,1.5-1.02,2.99-1.2,3.67-1.24.61-.99.58-1.47.42-1.73-.58-.91-3.65-.39-5.73,1.18-1.41,1.06-2.8,2.93-2.3,3.74.26.42.98.48,1.73.42Z"/>
        </g>
        <path class="cls-12" d="M278.84,149.62c-.56-1.35-1.4-3.15-2.27-4.71.45-2.18.19-4.94-1.11-7.15-1.97-3.37-5.73-4.41-8.1-5.07-6.74-1.87-12.67.02-14.27.57-6.04,2.07-5.73,4.51-11.42,5.68-3.84.79-6.49.19-7.71,2.04-1.34,2.02.21,5.2.35,5.5.53,1.09,1.4,2.06,2.52,2.92-1.41,2.94-1.47,6.9-1.43,8.17.06,1.87,1.51,9.15,1.51,9.15.9.16,2.04.18,4.64,1.16,2.65.99,4.06,1.93,4.06,1.93-.06.13-2.68-4.24-2.71-9.08-.02-3.36,1.65-5.65,2.87-7.6,10.32,2.27,24.26.83,29.13-4.82.23.31.49.67.78,1.16.39.65.64,1.26,1.07,2.07,2.13,3.99,3.36,9.55,3.48,8.95.06-.31.15-.57.14-.67-.14-6.8-1.53-10.2-1.53-10.2Z"/>
      </g>
    </g>
    <g id="Person_1" data-name="Person 1">
      <g id="Stuhl-2" data-name="Stuhl">
        <rect class="cls-27" x="84.53" y="314.51" width="14.22" height="147.97" rx="6.75" ry="6.75"/>
        <g>
          <rect class="cls-20" x="34.77" y="232.71" width="113.73" height="91.41" rx="4.76" ry="4.76"/>
          <path class="cls-20" d="M157.52,345.86H25.75c-1.95,0-3.54,1.58-3.54,3.54v16.74c0,1.95,1.58,3.54,3.54,3.54h24.22c.83,5.41,5.5,9.56,11.14,9.56h20.78v13.06h19.47v-13.06h20.78c5.65,0,10.31-4.15,11.14-9.56h24.22c1.95,0,3.54-1.58,3.54-3.54v-16.74c0-1.95-1.58-3.54-3.54-3.54Z"/>
          <path class="cls-20" d="M148.38,469.15v-7.17c.07-.2.11-.41.11-.64v-5.43c0-1.12-.9-2.02-2.02-2.02h-45.11v-5h-19.47v5h-45.11c-1.12,0-2.02.9-2.02,2.02v13.24c-2.13,1.13-3.58,3.37-3.58,5.95,0,3.72,3.02,6.74,6.74,6.74s6.74-3.02,6.74-6.74c0-2.58-1.45-4.82-3.58-5.95v-5.79h17.24v5.79c-2.13,1.13-3.58,3.37-3.58,5.95,0,3.72,3.02,6.74,6.74,6.74s6.74-3.02,6.74-6.74c0-2.58-1.45-4.82-3.58-5.95v-5.79h17.24v5h19.47v-5h17.13v5.79c-2.13,1.13-3.58,3.37-3.58,5.95,0,3.72,3.02,6.74,6.74,6.74s6.74-3.02,6.74-6.74c0-2.58-1.45-4.82-3.58-5.95v-5.79h17.24v5.79c-2.13,1.13-3.58,3.37-3.58,5.95,0,3.72,3.02,6.74,6.74,6.74s6.74-3.02,6.74-6.74c0-2.58-1.45-4.82-3.58-5.95Z"/>
        </g>
        <circle class="cls-6" cx="145.22" cy="475.11" r="4.48"/>
        <circle class="cls-6" cx="121.66" cy="475.11" r="4.48"/>
        <circle class="cls-6" cx="61.5" cy="475.11" r="4.48"/>
        <circle class="cls-6" cx="37.93" cy="475.11" r="4.48"/>
      </g>
      <g id="Körper-7" data-name="Körper">
        <g id="Körper-8" data-name="Körper">
          <path class="cls-11" d="M119,287.09c.51,8.78,1.01,17.56,1.51,26.34,2.91,2.81,6.31,5.9,10.24,9.14.01.01.02.01.03.02,6.72,4.22,10.92,4.08,18.65,6.45,3.02.92,21.53,6.61,29,20.39.19.34.36.68.52,1.02,12.04,4.54,22.84,7.06,31.29,8.51.43.46.85.92,1.27,1.38-.79,16.74-.54,36.17,1.89,57.65,1.72,15.1,4.25,28.89,7.13,41.22.4,1.73.15,3.53-.63,5.12-.87,1.78-1.68,4.38-.79,6.99,1.64,4.81,7.71,5.87,10.38,6.35,6.65,1.16,15.12-.9,15.58-4.32.22-1.69-1.53-3.43-3.55-4.85-2.99-2.1-4.64-5.63-4.13-9.24.73-5.24,1.45-11.72,1.84-19.13.47-8.89.17-15.61.14-20.12-.08-11.97-.32-18.86-.89-32.02-.92-20.99-1.38-31.48-1.98-33.03-7.25-18.57-28.71-27.85-42.88-33.98-15.06-6.51-21.02-5.54-33.57-13.7-10.01-6.5-16.84-14.03-21.15-19.57-6.63-.21-13.26-.41-19.9-.62Z"/>
          <g>
            <path class="cls-11" d="M77.49,311.02c2.87-15.39,18.25-23.14,21.22-24.56,6.76.21,13.53.42,20.29.63.51,8.78,1.01,17.56,1.51,26.34,2.07,2.54,5.4,6.09,10.24,9.14.01.01.02.01.03.02,6.72,4.22,10.92,4.08,18.65,6.45,3.02.92,21.53,6.61,29,20.39.19.34.36.68.52,1.02,2.19,4.52,2.47,8.76,2.81,17.82,1.14,30.47,1.71,45.71.81,57.3-.97,12.49.45,25.06.22,37.59-.02,1.03.25,2.04.8,2.92.24.39.52.8.83,1.24,1.72,2.4,2.56,2.62,2.66,3.4.33,2.49-7.2,7.38-14.59,6.04-.74-.13-7.51-1.36-8.53-5.87-.3-1.35,0-2.61.41-3.59.48-1.15.59-2.42.27-3.63-3.16-11.91-6-25.26-8.04-39.9-2.96-21.29-3.56-40.52-3.02-56.96h.02c-.12-.4-.21-.81-.28-1.22-9.69-2.1-18.08-4.7-25.08-7.26-19.53-7.15-45.79-16.76-50.49-35.95-.31-1.3-1.3-5.79-.26-11.36Z"/>
            <path class="cls-11" d="M98.71,286.45l-17.24-66.51c10.14-2.27,21.9-4.26,35.03-5.35,12.26-1.01,23.44-1.04,33.27-.57-3.63,24.56-7.25,49.12-10.88,73.68l-40.19-1.25Z"/>
          </g>
        </g>
        <g id="Schuhe-4" data-name="Schuhe">
          <path class="cls-1" d="M199.21,470.79c-6.26-1.81-11.1-4.09-16.01-5.46-.07.02-.12.04-.2.07-.02.01-.06.02-.09.03-1.09.43-2.47.89-4.12,1.26-1.65.36-3.56.64-5.68.68-3.79.03-6.94-.7-9.18-1.46-.32-.09-.62-.21-.9-.31-.24-.09-.47-.19-.69-.27-.68,1.46-1.41,3.34-1.95,5.55-.57,2.46-.76,4.69-.76,6.39v2.7h53.62v-2.7s-.43-2.55-14.03-6.48Z"/>
          <path class="cls-1" d="M254.72,469.45c-6.26-1.8-11.1-4.08-16.02-5.46-.04.02-.08.04-.13.05-.24.09-.49.19-.75.28h-.01c-2.16.8-5.33,1.65-9.2,1.71-4.12.05-7.5-.84-9.74-1.66h-.01c-.17-.06-.34-.11-.5-.19-.18-.06-.34-.13-.51-.2-.68,1.47-1.42,3.35-1.95,5.55-.57,2.47-.76,4.69-.76,6.4v2.7h53.62v-2.7s-.43-2.55-14.03-6.49Z"/>
        </g>
        <g id="Hose-4" data-name="Hose">
          <path class="cls-7" d="M206.65,360.09c.79,14.95,1.97,30.58,3.64,46.82,1.77,17.12,3.94,33.48,6.38,49.01,3.79-.57,7.93-1.03,12.39-1.28,3.54-.2,6.89-.24,10.02-.18,3.08-22.14,3.6-40.55,3.46-53.56-.34-31.81-.72-47.98-11.18-61.29-9.11-11.59-22.12-17.25-35.09-22.87-7.13-3.09-12.79-4.72-24.07-8.86-6.23-2.28-9.67-2.84-14-5.35-7.43-4.31-12.02-10.27-14.72-14.58-9.11,1.06-18.21,2.13-27.32,3.19-.81,5.17-1.2,12.74,1.78,20.68,6.2,16.54,22.87,24.41,47,34.43,10.3,4.28,24.39,9.46,41.72,13.85Z"/>
          <path class="cls-2" d="M95.52,286.03c-1.94,1.06-21.59,12.27-22.59,32.52-.42,8.49,2.63,14.74,3.28,16.03,7.9,15.62,27.73,20.69,35.53,22.68.8.2,33.79,8.68,35.53,11.93,1.12,2.1.08,2.13,1.82,15.56.81,6.24,1.66,12.47,2.57,18.69,1.29,8.89,2.68,17.77,4.18,26.63,1.04,6.14,1.85,12.32,2.92,18.46.33,1.89.61,3.32.8,4.28.45,2.3.87,4.23,1.2,5.65,3.37-.61,7.08-1.13,11.11-1.46,4.21-.34,8.11-.43,11.66-.36,0-.06.18-6.5.18-6.56.27-9.69.42-14.57.51-16.6.3-7.21.62-8.46,1.3-21.54.02-.45.05-.9.07-1.35.49-14.18,1.3-28.84-.98-42.86-1.24-7.65-3.49-15.56-8.42-21.71-10.59-13.18-32.63-19.78-38.25-21.5-2.18-.67-8.78-2.56-14.71-8.17-1.55-1.47-2.67-2.82-3.36-3.72-.46-7.14-.92-14.28-1.38-21.42-7.65-1.73-15.3-3.46-22.95-5.19Z"/>
        </g>
        <g id="Oberteil_Arme-3" data-name="Oberteil + Arme">
          <path class="cls-19" d="M149.13,212.34c-1.27,19.78-2.37,32.69-3.16,40.96-.17,1.71-.5,5.04-.88,9.67-.73,8.59-1.25,16.92-1.62,24.97-5.74,1.76-14.58,3.71-25.43,3.3-.63-.02-1.26-.06-1.88-.11.17-23.86.34-47.73.5-71.59,2.56-.26,6.84-1.07,11.15-3.91,1.83-1.2,3.26-2.51,4.36-3.67,5.66.13,11.32.26,16.97.38Z"/>
          <path class="cls-5" d="M116.65,219.54c.61,23.9,1.21,47.79,1.82,71.69-4.39-.13-9.66-.66-15.49-2.04-3.63-.86-6.89-1.91-9.74-3-.36-2.03-.74-4.07-1.13-6.13-.98-5.18-2.02-10.25-3.11-15.22-3.71-6.08-7.42-12.15-11.13-18.23-.37-9.36-.75-18.72-1.12-28.08,3.69-1,7.63-1.93,11.78-2.77,2.94-.59,5.8-1.09,8.55-1.51,2.34,1.74,6.78,4.51,12.92,5.29,2.55.32,4.81.23,6.65,0Z"/>
          <g>
            <path class="cls-12" d="M224.28,298.81c-1.33-.56-4.71-1.8-9.22-1.47-1.53.11-2.85.21-4,.35-4.24-1.91-8.58-3.8-13.06-5.65-6.28-2.59-12.47-4.97-18.56-7.16-.26-.87-.53-1.74-.8-2.59-6.43-20.3-11.44-41.06-19.13-60.94-.1-.26-.18-.54-.25-.8-.02-.05-.03-.09-.05-.14-1.64-4.38-6.01-7.48-11.06-7.42-6.46.07-11.6,5.2-11.53,11.45.02,1.53.35,2.98.92,4.31h.02s0,.05.02.09c8.26,19.5,16.53,39.03,24.82,58.56.02.07.05.16.1.23.07.19.19.46.32.8.86,2.08,1.67,3.79,1.92,4.3.58,1.15,1.97,3.93,4.49,5.15.5.24,1.04.42,1.61.54.54.21,1.01.32,1.34.39l34.42,7.89c-.03.15-.07.31-.1.46.99.36,2.32.73,3.93.87.77.07,1.47.06,2.1.03.41.09.82.19,1.24.28,1.4-.13,2.68-.36,3.81-.66.54-.04,1.08-.08,1.62-.12,2.22.27,3.98.55,5.15.75.75.13,4.92.81,6.52-.23.06-.04.11-.08.15-.11.22-.18,1.3-1.06,1.46-2.37.49-3.88-7.67-6.57-8.2-6.8Z"/>
            <path class="cls-19" d="M150.16,211.89h0c7.85,0,14.23,6.38,14.23,14.23v28.99h-28.46v-28.99c0-7.85,6.38-14.23,14.23-14.23Z" transform="translate(-66.63 60.08) rotate(-18.6)"/>
          </g>
          <g>
            <path class="cls-12" d="M77.83,221.86c.94-.14,2.05-.04,2.05-.04.67.06,1.33.19,1.97.39v.02s.05,0,.09.01c18.75,5.65,37.53,11.29,56.31,16.96.07.02.16.03.22.07.25.07.51.13.76.22,2.75,1,4.89,3.7,5.34,7.1.62,4.68-2.24,8.91-6.38,9.45-.68.09-1.35.08-2.01-.05,0,0-.18-.03-.26-.04-19.23-3.66-38.43-7.35-57.66-11.03-.25-.06-.51-.1-.75-.14-.05-.02-.09-.01-.13-.03-1.43-1.67-4.51-5.79-4.56-11.47-.05-5.74,3.01-11.12,5.01-11.42Z"/>
            <path class="cls-5" d="M112.68,224.1l-5.48,28.21-29.33-5.7c-8.62-10.49-9.23-21.8-4.51-26.16.63-.58,3.47-3,10-2.05l29.33,5.7Z"/>
          </g>
          <path class="cls-12" d="M157.28,188.48c-.68-2.23-2.86-3.37-3-3.44-2.25-1.13-3.53-.83-4.61-1.03-.45-.09,1.21-2.21,1.87-5.86.17-.94.51-2.93-.45-3.61-.34-.24-.73-.24-.9-.23-.68.04-1.42.56-3.81,5.43-1.13,2.28-1.91,4.08-2.4,5.23-.15.36-.23.53-.27.64-.22.56-.77,2.1-.85,5.46-.03,1.38.03,2.42.05,2.75.11,1.8.37,3.31.6,4.41.09.03.18.06.26.08-5.13,15.17-10.25,30.34-15.38,45.5v.02c-.11.67-.18,1.59.01,2.63.59,3.24,3.6,7.29,8.19,7.29,3.76,0,7.17-2.73,8.08-6.61,1.79-7.74,3.43-16.13,4.79-25.12,1.2-7.99,2.03-15.57,2.6-22.72.86-.84,1.81-1.93,2.68-3.32,1.61-2.59,3.32-4.97,2.54-7.5Z"/>
        </g>
      </g>
      <g id="Gesicht-4" data-name="Gesicht">
        <g id="Haare-3" data-name="Haare">
          <path class="cls-1" d="M101.55,222.7c4.18-1.2,5.86-2.47,12.01-5.66,3.82-1.97,9.41-4.71,16.5-7.62,3.71-2.21,9.83-6.72,13.24-14.55,5.71-13.11,1.44-30.07-10.87-42.57-2.08-1.91-7.69-6.55-16.35-7.9-3.22-.5-10.16-1.06-17.72,2.48-9.62,4.51-13.87,12.68-15.04,15.15-3.85,8.27-4.33,14.83-4.05,19.31.5,7.92,3.4,9.65,2.61,17.11-.74,6.94-3.64,9.09-2.53,14.84.22,1.12,1.16,5.98,5.12,8.92,5.25,3.89,12.31,1.86,17.07.49Z"/>
        </g>
        <path class="cls-12" d="M137.51,173.66l-.35-1.67c-.43-2.05-2.2-3.47-4.19-3.59l-1.54-4.73c-3.53-10.84-15.28-16.82-26.12-13.29h0c-10.56,3.44-16.49,14.69-13.51,25.3-1.59.75-2.68,2.38-2.63,4.24l.04,1.71c.06,2.51,2.17,4.51,4.68,4.45.44-.01.85-.1,1.25-.23,2.16,5.3,6.18,9.4,11.06,11.77-.11.56-.16,1.14-.15,1.73l.43,17.13c.11,4.43,3.82,7.95,8.25,7.84s7.95-3.82,7.84-8.25l-.43-17.01c.29-.08.59-.17.88-.26h0c8.82-2.87,14.08-11.72,12.82-20.61,1.33-1.04,2.04-2.77,1.67-4.52Z"/>
        <g id="Schatten-4" data-name="Schatten">
          <path class="cls-14" d="M92.75,178.59c-.32.01-.75,1.32-.36,2.49.27.84.98,1.67,1.25,1.56.52-.23-.33-4.07-.89-4.05Z"/>
          <path class="cls-14" d="M122.17,199.06c-1.33.38-3.07.75-5.12.84-2.43.11-4.47-.2-5.97-.54,3.77,3.18,7.55,6.36,11.32,9.53-.05-1.45-.09-2.92-.13-4.4-.04-1.83-.08-3.64-.1-5.43Z"/>
        </g>
        <g id="Augenbrauen-4" data-name="Augenbrauen">
          <path class="cls-1" d="M120.73,166.88c.42-.48,1.23-1.28,2.49-1.82,1.59-.69,3.02-.59,3.67-.51.75-.82.81-1.28.7-1.55-.38-.96-3.35-1.02-5.59.08-1.51.74-3.15,2.25-2.83,3.1.17.44.83.63,1.55.7Z"/>
          <path class="cls-1" d="M111.3,168.11c-.62-.11-1.76-.23-3.09.14-1.67.46-2.73,1.43-3.18,1.9-1.09-.17-1.43-.49-1.52-.77-.3-.99,1.98-2.9,4.41-3.44,1.64-.36,3.86-.22,4.14.65.14.45-.26,1.01-.77,1.52Z"/>
        </g>
        <g id="Mund-3" data-name="Mund">
          <path class="cls-9" d="M118.86,191.08c-.75,0-1.54-.16-2.33-.47-1.31-.51-2.62-1.43-3.9-2.72-.05-.06-.05-.14,0-.2.05-.05.14-.05.2,0,1.25,1.26,2.53,2.16,3.8,2.65,1.37.53,2.67.59,3.88.17.07-.03.15.01.18.09.03.07-.01.15-.09.18-.56.19-1.14.29-1.73.29Z"/>
        </g>
        <g id="Augen-4" data-name="Augen">
          <rect class="cls-9" x="107.47" y="170.12" width="3.31" height="3.89" rx="1.65" ry="1.65" transform="translate(-30.59 23.76) rotate(-10.91)"/>
          <rect class="cls-9" x="123.42" y="167.04" width="3.31" height="3.89" rx="1.65" ry="1.65" transform="translate(-29.71 26.72) rotate(-10.91)"/>
        </g>
        <g id="Nase-3" data-name="Nase">
          <path class="cls-9" d="M119.44,182.89c-.37,0-.76-.06-1.15-.19-.07-.02-.11-.1-.09-.18.02-.07.11-.11.18-.09.83.27,1.71.22,2.33-.14.34-.2.58-.47.63-.75.14-.69-.21-1.28-1.08-1.82l-.12-.07c-.43-.26-1.14-.7-1.6-1.54-.16-.29-.28-.74-.36-1.04l-.04-.13c-.07-.36-.13-.65-.19-.94-.06-.3-.13-.6-.2-.97-.01-.08.04-.15.11-.16.08-.02.15.04.16.11.07.36.13.66.2.96.06.29.12.58.19.94l.03.12c.08.29.2.72.34.98.42.77,1.07,1.17,1.5,1.43l.12.07c.99.6,1.38,1.3,1.21,2.11-.07.35-.35.69-.77.93-.41.24-.9.36-1.41.36Z"/>
        </g>
        <path class="cls-1" d="M129.99,153.62c-3.89-3.43-8.23-4.39-10.97-4.64.04-.63.05-1.21.03-1.69-2.5-.84-7.52-2.14-13.63-.95-1.17.23-10.06,2.1-16,10.01-1.89,2.52-3.56,4.36-3.88,7.3-.69,6.44,5.32,11.34,6.19,12.03,4.25-1.78,6.45,2.27,6.52,2.16,1.02-1.76,1.22-3.95,3.25-7.42,2.85-4.88,6.68-3.65,12.49-10.04,2.39-2.64,3.37-4.82,3.64-5.47.53.75,1.41,1.86,2.76,2.89,2.55,1.97,4.64,2.04,6.63,3.02,1.79.88,4.09,2.79,5.82,7.43.66.15,1.53.26,2.55.16.37-.04.7-.1,1.01-.18.01-1.16-.02-8.96-6.41-14.59Z"/>
      </g>
    </g>
  </g>
  <g id="Pc_Tisch" data-name="Pc + Tisch">
    <g id="Tisch">
      <path class="cls-23" d="M497.78,307.1H6.16c-3.4,0-6.16,2.76-6.16,6.16v3.45c0,3.4,2.76,6.16,6.16,6.16h18.02c.66,53.1,1.32,106.2,1.98,159.3,2.71.06,5.41.13,8.12.19.71-53.16,1.43-106.33,2.14-159.49h433.33c.66,53.1,1.32,106.2,1.98,159.3,2.71.06,5.41.13,8.12.19.71-53.16,1.43-106.33,2.14-159.49h15.79c3.4,0,6.16-2.76,6.16-6.16v-3.45c0-3.4-2.76-6.16-6.16-6.16Z"/>
    </g>
    <g id="PC">
      <g>
        <path class="cls-7" d="M354.79,305.07h79.5c4.42,0,8.01,3.59,8.01,8.01h-95.52c0-4.42,3.59-8.01,8.01-8.01Z"/>
        <polygon class="cls-2" points="469.74 197.54 463.3 285.73 329.97 285.73 336.4 197.54 469.74 197.54"/>
        <path class="cls-7" d="M404.43,312.75l-22.15-2.01c1.87-11.89,3.72-23.85,5.54-35.86,2.01-13.28,3.97-26.49,5.88-39.64h13.1c-.48,13.29-.93,27.83-1.35,41.25-.38,12.14-.72,24.23-1.03,36.27Z"/>
      </g>
    </g>
  </g>
  <g id="Sprechblasen">
    <path class="cls-8" d="M341.37,18.49c-35.1,2.69-70.19,5.38-105.29,8.07-3.06,23.24-6.11,46.47-9.17,69.7,24.02,1.77,48.05,3.55,72.07,5.32l-4.97,29.47,20.4-28.33c3.97.29,7.95.59,11.92.88,5.01-28.37,10.03-56.74,15.04-85.11Z"/>
    <path class="cls-27" d="M469.13,66.25l-28.7-17.5c-1.22-16.25-2.44-32.5-3.66-48.74-38.32.11-76.64.23-114.96.34,5.03,27.22,10.07,54.45,15.1,81.67,35.12-2.97,70.23-5.95,105.35-8.92-.23-3.12-.47-6.24-.7-9.35l27.58,2.51Z"/>
  </g>
  <g id="Glühbirnen">
    <g>
      <g>
        <rect class="cls-3" x="167.39" y="126.45" width="23.2" height="5.73" transform="translate(-33.99 70.99) rotate(-20.53)"/>
        <path class="cls-10" d="M185.07,70.94c3.12,8.49.16,12.12-2.49,29.77-.51,3.41,2.64,12.27,3.4,14.77l-21.35,8c-1.07-2.38-4.51-11.13-7.14-13.37-13.6-11.57-18.21-12.36-21.44-20.81-5.71-14.98-.4-28.85,14.97-34.65,15.4-5.72,28.52,1.25,34.05,16.29Z"/>
        <rect class="cls-3" x="159.32" y="115.91" width="31.75" height="6.53" rx="3.26" ry="3.26" transform="translate(-30.67 69.01) rotate(-20.53)"/>
        <rect class="cls-3" x="161.35" y="121.35" width="31.75" height="6.53" rx="3.26" ry="3.26" transform="translate(-32.45 70.07) rotate(-20.53)"/>
        <rect class="cls-10" x="144.76" y="35.54" width="2.5" height="11.42" transform="translate(-5.19 53.83) rotate(-20.53)"/>
        <rect class="cls-10" x="194.95" y="65.69" width="11.42" height="2.5" transform="translate(-10.73 74.65) rotate(-20.54)"/>
        <rect class="cls-10" x="115.97" y="95.27" width="11.42" height="2.5" transform="translate(-26.13 48.82) rotate(-20.54)"/>
        <rect class="cls-10" x="120.05" y="58.47" width="2.5" height="11.42" transform="translate(12.65 148) rotate(-65.53)"/>
        <rect class="cls-10" x="174.51" y="42.46" width="11.42" height="2.5" transform="translate(65.81 189.65) rotate(-65.54)"/>
      </g>
      <g>
        <path class="cls-22" d="M155.34,60.65c-.79.18-1.58.42-2.35.71-9.95,3.73-15,14.82-11.27,24.77.89,2.38,2.2,4.47,3.81,6.24,0,0,0,0,0,0l3.56-1.33s0,0,0-.01c-1.85-1.68-3.32-3.84-4.22-6.36-3.01-8.45,1.73-17.8,10.33-20.39.45-.13.91-.25,1.36-.34,0,0,0,0,0,0l-1.23-3.28s0,0,0,0Z"/>
        <path class="cls-21" d="M145.51,92.52l-.11-.09c-1.65-1.81-2.93-3.91-3.81-6.24-3.75-10,1.34-21.19,11.35-24.93.78-.29,1.57-.53,2.36-.72l.04-.02.11.05.02.06,1.25,3.33-.08.12h-.06c-.43.09-.88.2-1.33.33-4.13,1.24-7.48,4.06-9.45,7.94-1.96,3.87-2.24,8.23-.8,12.29.86,2.42,2.31,4.6,4.18,6.31l.05.05-.03.14-.06.03-3.63,1.36ZM155.27,60.8c-.75.18-1.5.41-2.24.69-9.87,3.7-14.9,14.74-11.2,24.61.86,2.29,2.11,4.35,3.73,6.14l3.31-1.24c-1.83-1.71-3.26-3.88-4.11-6.28-1.46-4.12-1.18-8.55.81-12.48,1.99-3.94,5.4-6.81,9.6-8.07.42-.12.83-.23,1.24-.32l-1.14-3.05Z"/>
      </g>
    </g>
    <g>
      <g>
        <rect class="cls-3" x="604.96" y="111.24" width="23.2" height="5.73" transform="translate(67.53 -188.77) rotate(18.4)"/>
        <path class="cls-10" d="M657.97,72.51c-2.91,8.56-7.49,9.53-20.65,21.6-2.54,2.33-5.65,11.2-6.63,13.62l-21.63-7.2c.67-2.53,3.49-11.5,2.85-14.88-3.31-17.55-6.4-21.06-3.6-29.66,4.97-15.24,17.81-22.69,33.42-17.55,15.57,5.23,21.4,18.89,16.25,34.07Z"/>
        <rect class="cls-3" x="604.1" y="100.56" width="31.75" height="6.53" rx="3.26" ry="3.26" transform="translate(64.46 -190.38) rotate(18.4)"/>
        <rect class="cls-3" x="602.27" y="106.07" width="31.75" height="6.53" rx="3.26" ry="3.26" transform="translate(66.11 -189.52) rotate(18.4)"/>
        <rect class="cls-10" x="640.54" y="23.62" width="11.42" height="2.5" transform="translate(418.74 630.26) rotate(-71.61)"/>
        <rect class="cls-10" x="671.36" y="73.49" width="2.5" height="11.42" transform="translate(385.15 692.42) rotate(-71.6)"/>
        <rect class="cls-10" x="591.34" y="46.87" width="2.5" height="11.42" transform="translate(355.65 598.27) rotate(-71.6)"/>
        <rect class="cls-10" x="611.37" y="21.47" width="2.5" height="11.42" transform="translate(52.68 277.2) rotate(-26.6)"/>
        <rect class="cls-10" x="665.6" y="47.03" width="11.42" height="2.5" transform="translate(49.41 305.64) rotate(-26.6)"/>
      </g>
      <g>
        <path class="cls-22" d="M641.31,45.83c-.73-.35-1.49-.66-2.28-.92-10.09-3.35-20.98,2.1-24.34,12.19-.8,2.41-1.1,4.86-.95,7.25,0,0,0,0,0,0l3.61,1.2s0,0,0,0c-.38-2.47-.17-5.07.72-7.6,2.97-8.47,12.54-12.76,20.85-9.37.44.18.86.37,1.27.59,0,0,0,0,0,0l1.11-3.32s0,0,0,0Z"/>
        <path class="cls-21" d="M617.38,65.68l-.07-.02-3.7-1.23v-.1c-.16-2.46.17-4.91.96-7.29,1.63-4.91,5.08-8.89,9.71-11.21,4.63-2.32,9.88-2.69,14.79-1.06.79.26,1.55.57,2.29.92h.05s.05.13.05.13l-.03.06-1.12,3.36-.14.04-.04-.04c-.4-.21-.82-.4-1.25-.57-3.99-1.63-8.37-1.55-12.34.24-3.96,1.78-6.92,5-8.34,9.05-.85,2.42-1.09,5.03-.71,7.54v.07s-.1.09-.1.09ZM613.86,64.25l3.35,1.11c-.35-2.48-.09-5.06.75-7.47,1.45-4.12,4.46-7.39,8.48-9.2,4.03-1.81,8.48-1.9,12.54-.24.4.16.79.34,1.16.53l1.03-3.09c-.7-.33-1.43-.62-2.17-.87-4.85-1.61-10.03-1.24-14.6,1.05-4.57,2.29-7.97,6.22-9.58,11.06-.77,2.32-1.09,4.71-.95,7.12Z"/>
      </g>
    </g>
  </g>
</svg>