<?xml version="1.0" encoding="UTF-8"?>
<svg id="_0050_THK_Kollaboratives_Arbeiten" data-name="0050_THK_Kollaboratives_Arbeiten" xmlns="http://www.w3.org/2000/svg" viewBox="0 0 907.68 496.17">
  <defs>
    <style>
      .cls-1 {
        fill: #42210b;
      }

      .cls-1, .cls-2, .cls-3, .cls-4, .cls-5, .cls-6, .cls-7, .cls-8, .cls-9, .cls-10, .cls-11, .cls-12, .cls-13, .cls-14, .cls-15, .cls-16, .cls-17, .cls-18, .cls-19, .cls-20, .cls-21, .cls-22, .cls-23, .cls-24, .cls-25 {
        stroke-width: 0px;
      }

      .cls-2 {
        fill: #a5678d;
      }

      .cls-3 {
        fill: #308fc9;
      }

      .cls-4 {
        fill: #dec1a8;
      }

      .cls-5 {
        fill: #dddddc;
      }

      .cls-6 {
        fill: #64abd6;
      }

      .cls-7 {
        fill: #e6710a;
      }

      .cls-8 {
        fill: #873567;
      }

      .cls-9 {
        fill: #c39ab3;
      }

      .cls-10 {
        fill: #000;
      }

      .cls-11 {
        fill: #fcd9bd;
      }

      .cls-12 {
        fill: #96cced;
      }

      .cls-13 {
        fill: #b47d49;
      }

      .cls-14 {
        fill: #236289;
      }

      .cls-15 {
        fill: #825832;
      }

      .cls-16 {
        fill: #308fc9;
      }

      .cls-17 {
        fill: #ec9447;
      }

      .cls-18 {
        fill: #98c7e4;
      }

      .cls-19 {
        fill: #603813;
      }

      .cls-20 {
        fill: #ccc;
      }

      .cls-21 {
        fill: #cbe3f1;
      }

      .cls-22 {
        fill: #f9dbc2;
      }

      .cls-23 {
        fill: #fff;
      }

      .cls-24 {
        fill: #e1ccd9;
      }

      .cls-25 {
        fill: #f2b885;
      }
    </style>
  </defs>
  <g id="Person_Frau_links" data-name="Person Frau links">
    <g id="Gesicht">
      <path class="cls-1" d="M99.63,127.59c-.38.43-2.47,2.67-5.91,2.85-4.38.22-7.02-3.11-7.24-3.39-5.03.3-9.04-3.03-9.38-6.77-.24-2.59,1.29-5.22,3.79-6.85-5.15-.21-9.43-3.93-10.22-8.77-.82-5.04,2.36-10.03,7.49-11.59-4.37-.67-7.63-4.33-7.68-8.6-.05-4.19,3.02-7.89,7.29-8.73-2.17-3.86-2.02-8.51.41-11.98,2.92-4.18,8.68-5.97,13.94-4.17.02-.51.48-7.78,6.97-11.46,4.87-2.75,11.12-2.35,15.82,1.04,2.34-2.64,6-3.76,9.38-2.87,3.71.99,6.43,4.23,6.7,8.07.73-.13,9.32-1.49,15.55,4.69,5.18,5.14,4.89,11.69,4.83,12.76,4.24,1.93,7.11,5.91,7.51,10.42.41,4.64-1.86,9.16-5.9,11.72,3.48,1.59,5.77,4.92,5.9,8.6.14,4-2.31,7.73-6.17,9.38,3.05,1.94,4.12,5.69,2.68,8.6-1.21,2.43-4,3.91-6.97,3.65-.64,2.47-2.65,4.39-5.18,4.92-2.72.58-5.57-.55-7.16-2.84-.93,1.2-2.36,2.64-4.04,2.58-1.63-.06-2.36-1.48-3.47-2.32-5.37-4.06-17.44,7.3-25.95,3.33-.81-.38-1.9-1.04-2.99-2.28Z"/>
      <g id="Schatten">
        <path class="cls-19" d="M87.55,94.14c-.45,0-1.1,1.78-.6,3.4.35,1.16,1.32,2.33,1.71,2.17.75-.29-.32-5.59-1.11-5.58Z"/>
        <path class="cls-19" d="M128.29,123.18c-1.89.48-4.35.92-7.25.97-3.42.07-6.3-.43-8.4-.95,5.21,4.48,10.41,8.96,15.62,13.45-.02-1.99-.02-4-.02-6.03,0-2.5.02-4.98.05-7.44Z"/>
      </g>
      <g id="Kopf">
        <path class="cls-13" d="M148.32,95.06c1.47,12.22-6.29,24.15-18.82,27.78-.42.12-.84.23-1.26.33v23.15c0,6.15-5.03,11.19-11.18,11.19h-.33c-6.15,0-11.19-5.04-11.19-11.19v-23.16c0-.86.1-1.7.29-2.51-6.78-3.4-12.32-9.14-15.17-16.47-.54.16-1.1.24-1.69.24h-.18c-3.49,0-6.34-2.86-6.34-6.35v-2.16c0-2.6,1.58-4.84,3.82-5.81-3.82-14.63,4.97-29.83,19.98-34.18,2.76-.8,5.54-1.18,8.29-1.18,12.59,0,24.29,8,28.06,20.28l1.99,6.5c2.81.23,5.25,2.27,5.79,5.09l.44,2.31c.46,2.41-.59,4.77-2.5,6.14Z"/>
      </g>
      <g id="Augenbrauen">
        <path class="cls-1" d="M113.58,78.74c-.88-.16-2.47-.33-4.34.17-2.35.62-3.82,1.95-4.45,2.59-1.54-.24-2.02-.68-2.15-1.07-.43-1.35,2.75-3.96,6.17-4.69,2.31-.49,5.44-.27,5.84.92.21.62-.35,1.39-1.07,2.08Z"/>
        <path class="cls-1" d="M127.69,77.16c.64-.59,1.87-1.57,3.71-2.14,2.31-.71,4.31-.38,5.2-.18,1.14-1.01,1.29-1.63,1.17-2.02-.42-1.36-4.58-1.87-7.84-.68-2.21.81-4.68,2.63-4.33,3.84.18.63,1.09.98,2.09,1.18Z"/>
      </g>
      <g id="Augen">
        <path class="cls-10" d="M111.31,88.38h0c-1.27.21-2.47-.63-2.69-1.86l-.13-.78c-.21-1.23.65-2.4,1.92-2.61h0c1.27-.21,2.47.63,2.69,1.86l.13.78c.21,1.23-.65,2.4-1.92,2.61Z"/>
        <path class="cls-10" d="M133.91,84.72h0c-1.27.21-2.47-.63-2.69-1.86l-.13-.78c-.21-1.23.65-2.4,1.92-2.61h0c1.27-.21,2.47.63,2.69,1.86l.13.78c.21,1.23-.65,2.4-1.92,2.61Z"/>
      </g>
      <g id="Nase">
        <path class="cls-10" d="M125.13,100.87c-.55,0-1.13-.1-1.7-.29-.07-.02-.1-.09-.08-.16.02-.07.09-.1.16-.08,1.2.41,2.47.36,3.39-.14.49-.27.83-.64.92-1.03.24-.97-.25-1.82-1.49-2.6l-.16-.1c-.62-.4-1.57-.99-2.17-2.14-.21-.4-.37-1.02-.47-1.43l-.05-.18c-.09-.5-.17-.91-.24-1.32-.08-.41-.16-.82-.24-1.31-.01-.07.03-.13.1-.14.07-.01.13.03.14.1.08.49.16.9.24,1.31.08.41.16.82.24,1.31l.04.17c.1.4.26,1,.45,1.38.58,1.09,1.48,1.66,2.08,2.04l.16.1c1.34.84,1.87,1.78,1.6,2.87-.11.45-.49.88-1.04,1.19-.54.3-1.2.45-1.89.45Z"/>
      </g>
      <g id="Mund">
        <path class="cls-10" d="M124.11,112.07c-1.12,0-2.26-.24-3.44-.72-1.82-.74-3.63-2.03-5.38-3.84-.05-.05-.05-.13,0-.18.05-.05.13-.05.18,0,1.72,1.78,3.5,3.05,5.29,3.78,1.92.78,3.78.91,5.51.37.08-.02.14.02.16.08.02.07-.02.14-.08.16-.73.23-1.48.34-2.24.34Z"/>
      </g>
      <path class="cls-1" d="M81.8,87.88c.33.41,1.28,1.47,2.93,1.96,2.03.6,3.72-.07,4.16-.26.4.46,1.49,1.59,3.32,2.1,2.29.63,4.18-.15,4.69-.38,1.91-.93,3.09-2.82,2.99-4.81-.12-2.54-2.27-3.92-2.47-4.05.88-.12,4.78-.74,7.68-4.17,2.84-3.36,2.77-7.08,2.73-7.97,3.12,3.07,7.57,4.16,11.32,2.78,3.5-1.29,5.08-4.26,5.47-5.06,4.31,4.39,9.71,6.06,13.28,4.3.3-.15,4-2.04,4.03-5.31.02-1.37-.61-2.44-1.04-3.03.02-.27.11-2.66-1.89-4.3-2.16-1.78-4.81-1.07-5.01-1.01-1.63-1.33-4.39-3.24-8.27-4.49-4.69-1.51-8.75-1.34-11-1.07-2.51-.03-6.21.22-10.41,1.58-5.23,1.7-8.87,4.36-10.93,6.13-2.07,1.3-6.52,4.47-9.57,10.31-2.95,5.65-3.04,10.83-2.93,13.22.3,1.18.61,2.36.91,3.54Z"/>
    </g>
    <g id="Körper">
      <g id="Körper-2" data-name="Körper">
        <path class="cls-13" d="M174.79,449.63c.12-3.21.34-6.44.7-9.71.93-8.33,1.66-16.67,2.28-25.02.8-11.34.97-22.76.93-34.13-.09-22.33-1.23-44.94-5.63-66.88-2.94-14.67-8.38-28.78-16.44-41.39-5.58-8.73-11.17-17.46-16.76-26.18-.7-1.09-1.4-2.18-2.09-3.27,8.5-29.06,17.01-58.12,25.51-87.18-13.31-3.43-28.76-6.54-46.07-8.51-16.15-1.84-30.93-2.34-43.94-2.12,3.78,32.6,7.56,65.2,11.34,97.81-3.35,6.69-6.7,13.38-10.04,20.08-7.8,15.6-15.78,29.67-20.42,46.57-6.8,24.78-9.76,50.6-11.13,76.2-.27,5.07-.47,10.15-.6,15.22-.41,15.59,1.17,31.7-.75,47.18-1.98,15.94-3.81,31.9-5.56,47.87h38.57c1.15-8.18,2.15-16.79,2.93-25.82.78-8.99,1.28-17.61,1.55-25.84,5.28-21.18,10.49-42.59,15.62-64.25,5.24-22.11,10.31-44.03,15.19-65.76.27-.16.54-.35.75-.58,0,0,7.52,0,7.53,0,6.27,44.56,12.53,89.16,18.8,133.74-.63,15.15-.84,31.35-.43,48.49h38.46c-.07-8.61-.16-17.22-.29-25.83-.11-7.02-.28-13.83-.02-20.71Z"/>
      </g>
      <g id="Hose">
        <path class="cls-17" d="M113.82,242.72v78.64c-9.88,39.48-19.05,81.85-26.96,126.87-2.83,16.24-5.39,32.23-7.71,47.94H27.71c1.37-10.82,2.39-20.68,3.18-29.5.7-7.99,2.84-33.31,6.36-70.88,5.5-58.06,7.8-75.64,15.61-97.1,3.69-10.14,7.91-19.23,12.23-27.22,2.49-4.63,5.03-8.9,7.5-12.8,3.39-5.37,6.69-10.03,9.66-13.97.5-.66.98-1.3,1.46-1.92h.89c9.74-.03,19.49-.03,29.23-.06Z"/>
        <path class="cls-7" d="M185.44,496.17h-55.87c-.7-17.73-1.69-35.84-3-54.31-3-42.46-7.42-82.68-12.75-120.51v-78.64c8,0,16.03-.03,24.06-.03h.74c.49.58.96,1.16,1.45,1.74,26.44,32.16,36.22,61.04,40.37,79.78,3.93,17.78,4.25,40.44,4.95,85.75.46,29.28.06,50.93,0,56.72-.12,8.74-.14,18.57.04,29.5Z"/>
      </g>
      <g id="Arme">
        <path class="cls-13" d="M264.12,186.14c-17.3,21.34-34.57,42.65-51.87,63.99l-.03.02c-.72,1.4-1.77,2.69-3.1,3.71,0,0-.02.02-.03.03-.03.02-.06.05-.09.06-1.34,1.06-2.94,1.83-4.72,2.19-4.44.91-8.8-.91-11.33-4.34-.22-.31-.43-.66-.62-.98-.08-.08-.14-.2-.19-.29-15.81-24.01-31.59-48.03-47.37-72.02-.04-.06-.05-.09-.05-.12h-.03c-1.09-1.63-1.89-3.49-2.31-5.53-1.71-8.33,3.65-16.47,12.01-18.18,6.55-1.34,13.01,1.71,16.28,7.14.04.06.05.12.1.18.16.32.33.68.53,1,11.11,20.95,22.21,41.88,33.29,62.83,15.3-16.52,30.6-33.04,45.92-49.58.52-1.53,1.5-2.93,2.89-4.01,3.82-2.94,9.34-2.23,12.31,1.62,2.94,3.82,2.23,9.33-1.59,12.28Z"/>
        <path class="cls-13" d="M93.42,283.33c-3.23.4-6.46-1.48-7.86-4.64-25.44-8.98-50.88-17.95-76.32-26.93l-.03-.02c-1.56-.29-3.11-.93-4.48-1.91C1.57,247.56-.09,243.96,0,240.34c-.06-2.18.53-4.34,1.7-6.2.2-.33.46-.64.68-.94.05-.11.14-.21.2-.29,16.5-23.54,33.01-47.07,49.5-70.57.04-.06.06-.08.09-.1l-.02-.02c1.13-1.62,2.56-3.05,4.3-4.19,7.11-4.65,16.66-2.68,21.33,4.47,3.66,5.59,3.2,12.72-.65,17.76-.03.06-.09.1-.12.16-.24.27-.51.56-.74.86-15.74,18.47-31.46,36.93-47.22,55.37,8.2,3.94,16.52,8.05,24.95,12.35,12.69,6.47,24.91,12.98,36.64,19.49.97-.05,2.74,0,4.61.94.57.28,4.45,2.32,4.71,6.21.23,3.53-2.63,7.21-6.54,7.69Z"/>
      </g>
      <g id="Oberteil">
        <path class="cls-25" d="M196.89,194.13l-32.34,19.94-9.45-15.34c-.8,2.84-1.58,5.67-2.31,8.46-2.59,9.79-4.89,19.63-4.89,19.63-1.28,5.5-2.5,10.94-3.62,16.24-7,2.43-17.49,5.22-30.47,5.6v-94.64c1.31.32,2.69.55,4.16.71,13.11,1.31,22.28-5.41,24.2-6.88,7.03,1.47,14.09,2.95,21.14,4.42.04,0,.08,0,.11.02,5.09.66,9.86,3.53,12.74,8.21l20.73,33.63Z"/>
        <path class="cls-22" d="M113.81,154.02v94.64c-.83.03-1.66.06-2.49.06-14.36.1-25.96-2.84-33.47-5.4-.16-10.65-.52-21.68-1.12-33.06-.32-6.14-.61-10.55-.77-12.82-.14-2.23-.29-4.71-.46-7.48l-12.74,12.53-26.38-26.84,28.23-27.75c2.52-2.48,5.61-4.04,8.86-4.67.06-.02.11-.03.17-.04l6.81.06c5.15.04,10.31.08,15.46.13,1.44,1.63,7.55,8.25,17.9,10.64Z"/>
      </g>
    </g>
    <g id="Stift">
      <g id="Stift-2" data-name="Stift">
        <path class="cls-7" d="M134.91,227.79l-2.24,5.76-3.33-1.29,2.24-5.76c.27-.71.95-1.14,1.66-1.14.22,0,.44.04.65.12.91.35,1.37,1.39,1.02,2.31Z"/>
        <path class="cls-22" d="M96.54,300.11l14.5,5.63c-1.96,5.41-3.92,10.82-5.89,16.23-1.52,3.91-5.93,5.85-9.84,4.33l-1.05-.41c-3.91-1.52-5.84-5.93-4.33-9.84,2.2-5.31,4.4-10.62,6.61-15.94Z"/>
        <path class="cls-22" d="M134.72,234.49l-2.79,7.21c1.18.5,1.75,1.84,1.29,3.04l-.33.83c-1.9,5.25-3.81,10.5-5.72,15.75l-12.53-4.88c2.14-5.16,4.27-10.31,6.41-15.47l.32-.83c.47-1.2,1.81-1.81,3.02-1.37l2.79-7.21c.03-.07.11-.1.17-.07l1.99.77,3.33,1.29,1.99.77c.06.03.09.1.06.17Z"/>
        <polygon class="cls-25" points="129.42 262.19 112.3 306.23 111.04 305.74 96.54 300.11 95.28 299.62 112.4 255.57 114.64 256.44 127.17 261.32 129.42 262.19"/>
      </g>
      <path class="cls-13" d="M106.44,270.93c-1.75-.72-7.95-2-9.72-2.22-2.42-.29-4.72-.48-6.88-.58-.67,1.73-1.4,3.52-2.19,5.35-.8,1.85-1.62,3.63-2.44,5.32,1.23,1.88,3.71,3.71,7.07,6.22,4.83,3.6,9.54,4.67,11.43,5.01.76.14,11.89,3.05,14.18-1.54.77-1.55.21-3.29.09-3.64,0,0-.04-.11-.09-.23-1.1-2.6-6.72-4.97-6.72-4.97-1.87-.79-4.27-1.7-7.14-2.53.8-2.07,1.61-4.14,2.41-6.2Z"/>
    </g>
  </g>
  <g id="Tafel">
    <g id="Hintergrund">
      <rect class="cls-20" x="319.05" y="0" width="423.1" height="337.59" rx="19.42" ry="19.42"/>
      <rect class="cls-5" x="331.01" y="12.89" width="399.2" height="311.81"/>
    </g>
    <g id="Große_Pfeile" data-name="Große Pfeile">
      <polygon class="cls-7" points="534.51 45.26 522.91 53.77 506.92 65.5 503.24 68.19 503.24 56.56 446.48 56.56 461.88 45.26 446.48 33.96 503.24 33.96 503.24 22.32 506.92 25.01 522.91 36.75 534.51 45.26"/>
      <polygon class="cls-3" points="617.8 45.26 605.76 54.1 590.21 65.5 586.54 68.2 586.54 56.57 529.45 56.57 529.45 56.47 544.72 45.26 529.45 34.06 529.45 33.97 586.54 33.97 586.54 22.33 590.21 25.02 605.76 36.43 617.8 45.26"/>
      <polygon class="cls-12" points="700.64 45.26 673.04 65.51 669.37 68.2 669.37 56.57 612.61 56.57 628.01 45.26 612.61 33.97 669.37 33.97 669.37 22.33 673.04 25.02 700.64 45.26"/>
      <polygon class="cls-8" points="451.67 45.26 439.63 54.1 424.08 65.5 420.41 68.19 420.41 56.56 363.33 56.56 363.33 33.96 420.41 33.96 420.41 22.32 424.08 25.02 439.63 36.43 451.67 45.26"/>
    </g>
    <g>
      <g id="Kästen">
        <g>
          <rect class="cls-2" x="622.98" y="213.79" width="18.78" height="24.38"/>
          <rect class="cls-2" x="622.98" y="241.8" width="18.78" height="24.38"/>
        </g>
        <g>
          <g>
            <rect class="cls-12" x="363.33" y="213.79" width="40.2" height="24.38"/>
            <rect class="cls-12" x="363.33" y="241.8" width="40.2" height="24.38"/>
          </g>
          <g>
            <rect class="cls-12" x="641.82" y="213.79" width="58.82" height="24.38"/>
            <rect class="cls-12" x="641.82" y="241.8" width="58.82" height="24.38"/>
          </g>
          <g>
            <rect class="cls-12" x="407.48" y="213.79" width="103.8" height="24.38"/>
            <rect class="cls-12" x="407.48" y="241.8" width="103.8" height="24.38"/>
          </g>
          <g>
            <rect class="cls-12" x="515.4" y="213.79" width="103.8" height="24.38"/>
            <rect class="cls-12" x="515.4" y="241.8" width="103.8" height="24.38"/>
          </g>
        </g>
      </g>
      <g id="Zeilen">
        <g>
          <rect class="cls-3" x="415.34" y="221.68" width="86.05" height="1"/>
          <rect class="cls-3" x="415.34" y="229.37" width="86.05" height="1"/>
          <rect class="cls-3" x="415.34" y="225.42" width="86.05" height="1"/>
        </g>
        <g>
          <rect class="cls-3" x="524.3" y="249.65" width="86.05" height="1"/>
          <rect class="cls-3" x="524.3" y="257.33" width="86.05" height="1"/>
          <rect class="cls-3" x="524.3" y="253.38" width="86.05" height="1"/>
        </g>
        <g>
          <rect class="cls-3" x="415.34" y="249.65" width="86.05" height="1"/>
          <rect class="cls-3" x="415.34" y="257.33" width="86.05" height="1"/>
          <rect class="cls-3" x="415.34" y="253.38" width="86.05" height="1"/>
        </g>
      </g>
      <g>
        <rect class="cls-3" x="524.3" y="221.79" width="86.05" height="1"/>
        <rect class="cls-3" x="524.3" y="229.48" width="86.05" height="1"/>
        <rect class="cls-3" x="524.3" y="225.53" width="86.05" height="1"/>
      </g>
    </g>
    <g id="Spalten">
      <rect class="cls-14" x="669.98" y="272.43" width="2.5" height="42.84"/>
      <rect class="cls-14" x="566.05" y="272.43" width="2.5" height="42.84"/>
      <rect class="cls-14" x="457.12" y="272.43" width="2.5" height="42.84"/>
    </g>
    <g id="Blaue_Pfeile" data-name="Blaue Pfeile">
      <polygon class="cls-14" points="408.61 77.15 408.61 81.47 405.02 77.88 405.02 119.14 402.02 119.14 402.02 77.88 398.44 81.47 398.44 77.15 403.52 72.07 408.61 77.15"/>
      <polygon class="cls-14" points="483.75 77.15 483.75 81.47 480.17 77.88 480.17 119.14 477.17 119.14 477.17 77.88 473.58 81.47 473.58 77.15 478.67 72.07 483.75 77.15"/>
      <polygon class="cls-14" points="558.9 77.15 558.9 81.47 555.31 77.88 555.31 119.14 552.31 119.14 552.31 77.88 548.72 81.47 548.72 77.15 553.81 72.07 558.9 77.15"/>
      <polygon class="cls-14" points="491.91 144.9 491.91 149.22 488.32 145.63 488.32 171.55 485.32 171.55 485.32 145.63 481.73 149.22 481.73 144.9 486.82 139.82 491.91 144.9"/>
      <polygon class="cls-14" points="507.53 163.05 507.53 167.37 503.95 163.78 503.95 189.67 500.95 189.67 500.95 163.78 497.36 167.37 497.36 163.05 502.45 157.96 507.53 163.05"/>
      <polygon class="cls-14" points="525.49 178.9 525.49 183.22 521.9 179.63 521.9 205.55 518.9 205.55 518.9 179.63 515.31 183.22 515.31 178.9 520.4 173.82 525.49 178.9"/>
      <polygon class="cls-14" points="634.04 77.15 634.04 81.47 630.45 77.88 630.45 119.14 627.45 119.14 627.45 77.88 623.87 81.47 623.87 77.15 628.95 72.07 634.04 77.15"/>
    </g>
    <g id="Orange_Pfeile" data-name="Orange Pfeile">
      <polygon class="cls-7" points="554.48 304.06 549.4 309.15 545.08 309.15 548.67 305.56 363.32 305.56 363.32 302.56 548.67 302.56 545.08 298.98 549.4 298.98 554.48 304.06"/>
      <rect class="cls-7" x="622.98" y="302.57" width="77.66" height="3"/>
    </g>
    <g id="Lila_Pfeile" data-name="Lila Pfeile">
      <polygon class="cls-8" points="449.22 283.19 444.14 288.28 439.82 288.28 443.41 284.69 363.32 284.69 363.32 281.69 443.41 281.69 439.82 278.11 444.14 278.11 449.22 283.19"/>
      <polygon class="cls-8" points="610.28 283.19 605.19 288.28 600.87 288.28 604.46 284.69 524.37 284.69 524.37 281.69 604.46 281.69 600.87 278.11 605.19 278.11 610.28 283.19"/>
      <polygon class="cls-8" points="637.46 198.13 637.46 202.45 632.37 207.53 627.29 202.45 627.29 198.13 630.87 201.72 630.87 184 633.87 184 633.87 201.72 637.46 198.13"/>
    </g>
    <g id="Persondarstellung">
      <g>
        <path class="cls-2" d="M678.02,156.84l-.1,8.17h-32.31l.1-8.17c0-5.7,5.17-10.49,12.15-11.84,1.28-.25,2.62-.38,4-.38.56,0,1.11.02,1.65.06.29.02.58.05.87.08.5.06,1,.14,1.49.23,6.99,1.35,12.15,6.14,12.15,11.84Z"/>
        <path class="cls-2" d="M670.37,136.19c0,3.82-1.83,7.13-4.51,8.81-.47.29-.97.54-1.49.73-.28.1-.57.19-.87.26-.53.12-1.09.19-1.65.19-1.45,0-2.81-.42-4-1.17-2.68-1.68-4.51-5-4.51-8.81,0-5.51,3.81-9.98,8.51-9.98.56,0,1.12.06,1.65.19.3.07.59.15.87.26,3.47,1.26,6,5.05,6,9.54Z"/>
      </g>
      <g>
        <path class="cls-17" d="M550.49,155.85l-.1,8.17h-32.31l.1-8.17c0-5.7,5.17-10.49,12.15-11.84,1.28-.25,2.62-.38,4-.38.56,0,1.11.02,1.65.06.29.02.58.05.87.08.5.06,1,.14,1.49.23,6.99,1.35,12.15,6.14,12.15,11.84Z"/>
        <path class="cls-17" d="M542.85,135.2c0,3.82-1.83,7.13-4.51,8.81-.47.29-.97.54-1.49.73-.28.1-.57.19-.87.26-.53.12-1.09.19-1.65.19-1.45,0-2.81-.42-4-1.17-2.68-1.68-4.51-5-4.51-8.81,0-5.51,3.81-9.98,8.51-9.98.56,0,1.12.06,1.65.19.3.07.59.15.87.26,3.47,1.26,6,5.05,6,9.54Z"/>
      </g>
      <g>
        <path class="cls-8" d="M470.43,155.85l-.1,8.17h-32.31l.1-8.17c0-5.7,5.17-10.49,12.15-11.84,1.28-.25,2.62-.38,4-.38.56,0,1.11.02,1.65.06.29.02.58.05.87.08.5.06,1,.14,1.49.23,6.99,1.35,12.15,6.14,12.15,11.84Z"/>
        <path class="cls-8" d="M462.79,135.2c0,3.82-1.83,7.13-4.51,8.81-.47.29-.97.54-1.49.73-.28.1-.57.19-.87.26-.53.12-1.09.19-1.65.19-1.45,0-2.81-.42-4-1.17-2.68-1.68-4.51-5-4.51-8.81,0-5.51,3.81-9.98,8.51-9.98.56,0,1.12.06,1.65.19.3.07.59.15.87.26,3.47,1.26,6,5.05,6,9.54Z"/>
      </g>
      <g>
        <path class="cls-3" d="M657.26,163.62l-.12,10.2h-40.36l.12-10.2c0-7.12,6.45-13.1,15.18-14.79,1.6-.31,3.27-.47,5-.47.7,0,1.38.03,2.06.08.36.03.73.06,1.08.1.63.07,1.25.17,1.86.29,8.73,1.68,15.18,7.67,15.18,14.79Z"/>
        <path class="cls-3" d="M647.71,137.83c0,4.77-2.28,8.91-5.63,11.01-.59.37-1.21.67-1.86.91-.35.13-.72.24-1.08.32-.67.15-1.36.23-2.06.23-1.81,0-3.51-.53-5-1.46-3.35-2.1-5.63-6.24-5.63-11.01,0-6.89,4.76-12.47,10.63-12.47.7,0,1.39.08,2.06.23.37.08.73.19,1.08.32,4.34,1.57,7.49,6.31,7.49,11.92Z"/>
      </g>
      <g>
        <path class="cls-14" d="M598.05,195.35l-.12,10.2h-40.36l.12-10.2c0-7.12,6.45-13.1,15.18-14.79,1.6-.31,3.27-.47,5-.47.7,0,1.38.03,2.06.08.36.03.73.06,1.08.1.63.07,1.25.17,1.86.29,8.73,1.68,15.18,7.67,15.18,14.79Z"/>
        <path class="cls-14" d="M588.5,169.56c0,4.77-2.28,8.91-5.63,11.01-.59.37-1.21.67-1.86.91-.35.13-.72.24-1.08.32-.67.15-1.36.23-2.06.23-1.81,0-3.51-.53-5-1.46-3.35-2.1-5.63-6.24-5.63-11.01,0-6.89,4.76-12.47,10.63-12.47.7,0,1.39.08,2.06.23.37.08.73.19,1.08.32,4.34,1.57,7.49,6.31,7.49,11.92Z"/>
      </g>
    </g>
    <g id="Text_Zeilen" data-name="Text Zeilen">
      <g>
        <rect class="cls-8" x="641.83" y="183.5" width="58.81" height="1"/>
        <rect class="cls-8" x="641.77" y="196.27" width="58.81" height="1"/>
        <rect class="cls-8" x="641.77" y="189.89" width="58.81" height="1"/>
      </g>
      <g>
        <rect class="cls-8" x="411.69" y="88.72" width="31.71" height="1"/>
        <rect class="cls-8" x="411.66" y="101.5" width="31.71" height="1"/>
        <rect class="cls-8" x="411.66" y="107.84" width="20.21" height="1"/>
        <rect class="cls-8" x="411.66" y="95.11" width="31.71" height="1"/>
      </g>
      <g>
        <rect class="cls-8" x="486.82" y="88.72" width="31.71" height="1"/>
        <rect class="cls-8" x="486.79" y="101.5" width="24.49" height="1"/>
        <rect class="cls-8" x="486.79" y="95.11" width="31.71" height="1"/>
      </g>
      <g>
        <rect class="cls-8" x="561.95" y="88.72" width="31.71" height="1"/>
        <rect class="cls-8" x="561.92" y="101.5" width="31.71" height="1"/>
        <rect class="cls-8" x="561.92" y="95.11" width="31.71" height="1"/>
      </g>
      <g>
        <rect class="cls-3" x="438.02" y="181.52" width="55.51" height="1"/>
        <rect class="cls-3" x="438.02" y="189.21" width="55.51" height="1"/>
        <rect class="cls-3" x="438.02" y="185.25" width="55.51" height="1"/>
      </g>
      <g>
        <rect class="cls-3" x="372.04" y="155.19" width="55.51" height="1"/>
        <rect class="cls-3" x="372.04" y="162.88" width="55.51" height="1"/>
        <rect class="cls-3" x="372.04" y="158.92" width="55.51" height="1"/>
      </g>
    </g>
  </g>
  <g id="Person_Frau_rechts" data-name="Person Frau rechts">
    <g id="Person">
      <g id="Haare">
        <path class="cls-17" d="M228.81,175.88c5.67-1.48,7.97-3.13,16.37-7.21,5.21-2.53,12.83-6.02,22.48-9.7,5.07-2.86,13.47-8.71,18.33-19.15,8.13-17.46,2.96-40.45-13.19-57.7-2.74-2.64-10.14-9.08-21.75-11.19-4.31-.78-13.65-1.78-23.95,2.74-13.11,5.74-19.11,16.61-20.77,19.9-5.47,11-6.34,19.83-6.11,25.87.4,10.69,4.25,13.12,2.93,23.13-1.23,9.32-5.21,12.12-3.91,19.9.25,1.51,1.36,8.09,6.6,12.19,6.93,5.42,16.52,2.92,22.97,1.24Z"/>
      </g>
      <g id="Körper-3" data-name="Körper">
        <path class="cls-11" d="M308.07,487.41c-.1,3.48-.27,6.46-.44,8.76h-41.43c-.19-1.35-.47-3.31-.8-5.65-2.5-17.63-4.23-30.46-4.99-36.02-1.4-10.29-1.81-12.85-5.77-41.08-3.14-22.32-6.27-44.63-9.41-66.95h-8.13c-.25.25-.51.46-.82.63-7.11,30.3-12.59,54.23-16.39,70.95-2.97,13.07-8.34,36.84-16.33,68.61-1,3.99-1.84,7.28-2.41,9.51h-38.29c.06-2.02.14-5.07.22-8.78.55-25.38.07-33.15.29-46.81.53-33.72,4.62-59.75,6.63-71.32.58-3.33,1.17-6.53,1.79-9.58,5.45-26.59,12.2-42.31,16.39-48.96.42-.65.81-1.28,1.11-1.75.13-.28.3-.52.5-.78,6.37-12.74,12.74-25.49,19.11-38.23-2.34-20.2-4.68-40.4-7.03-60.6-1.67-14.43-3.34-28.87-5.02-43.31-.06-.56-.13-1.11-.19-1.67,14.05-.23,30,.31,47.44,2.3,15.9,1.81,30.36,4.51,43.16,7.56,2.24.53,4.43,1.07,6.56,1.62-3.7,12.65-7.4,25.29-11.1,37.94-5.48,18.72-10.96,37.44-16.44,56.16l24.48,38.25-.15.13c.21.17.38.38.55.59v.03c.49,1.02,1.06,2.01,1.06,2.01,9.22,88.8,15.39,153.58,15.75,162.1.31,7.29.1,14.34.1,14.34Z"/>
        <g id="Arme-2" data-name="Arme">
          <path class="cls-11" d="M406.31,200.59c-.04.88-.12,1.71-.21,2.49v.03c-.47,2.09-1.63,4.03-3.45,5.43-.31.38-.61.75-.91,1.13-18.37,22.65-36.71,45.29-55.08,67.93l-.02.03c-.79,1.52-1.93,2.92-3.38,4.04-.12.09-.25.19-.37.27-.16.12-.32.23-.48.33-1.28.87-2.74,1.49-4.34,1.82-4.8.99-9.5-.98-12.23-4.68-.25-.34-.46-.72-.68-1.06-.08-.09-.15-.22-.2-.31-14.1-21.42-28.18-42.84-42.24-64.24,3.7-12.65,7.4-25.29,11.1-37.94-2.13-.55-4.32-1.09-6.56-1.62,5.97-.1,11.51,3.03,14.52,8.05.05.06.06.12.11.19.18.35.36.73.57,1.08,11.99,22.61,23.98,45.2,35.95,67.81,15.07-16.27,30.14-32.54,45.23-48.84.05-1.37.17-3.46.43-6,.8-7.65,1.52-13.7,5.63-18.93,1.48-1.88,2.63-3.36,4.43-3.52,5.44-.5,10.11,11.56,10.48,12.52,1.51,4,1.6,7.56,1.71,9.92.07,1.44.06,2.81-.01,4.07Z"/>
          <path class="cls-11" d="M287.26,174.24c2.24.53,4.43,1.07,6.56,1.62-3.7,12.65-7.4,25.29-11.1,37.94l-8.88-13.5c-.05-.06-.06-.1-.07-.13h-.03c-1.17-1.76-2.04-3.77-2.49-5.97-1.84-8.99,3.94-17.78,12.96-19.63,1.03-.21,2.04-.32,3.05-.33Z"/>
          <path class="cls-11" d="M215.9,191.24c-.04.07-.09.11-.13.18-.25.3-.52.63-.75.96-18.26,23.6-36.51,47.16-54.8,70.72.96,13.29,1.74,26.96,2.3,41.01.57,14.39.89,28.41.99,42.02.03-.01.07-.01.1-.02,2.78,4.75,5.04,8.3,6.63,10.74,0,0,1.87,2.69,3.74,8.31.48,1.44.95,3.15.09,4.25-.26.32-.63.59-1.17.76-1.8.59-5.04-2.36-7.69-5.69-1.24-1.57-4.28,3.63-3.56,7.41,1.34,7.11,7.41,10.97,4.35,13.58-3.62,3.08-11.32-4.15-14.76-13.13-2.34-6.09-2.63-11.36-2.55-13.38.19-4.44,1.33-7.98,2.25-10.22.05,0,.1-.02.15-.03.35-.08-11.37-64.72-11.93-69.81-1.34-12.23-2.35-22.83,3.26-33.83,12.6-24.74,30.23-48.73,45.56-71.89.04-.06.06-.08.09-.1l-.02-.03c1.13-1.8,2.6-3.42,4.42-4.73,7.44-5.38,17.83-3.73,23.22,3.73,4.23,5.85,4.1,13.56.21,19.19Z"/>
        </g>
      </g>
      <g id="Hose-2" data-name="Hose">
        <path class="cls-6" d="M243.59,269.22v.4s-.02.12-.02.12l-.02.23-2.84,76.51-.27,7.51c-13.83,57.17-23.1,104.03-29.09,136.92-.33,1.79-.63,3.55-.95,5.27-7.96,0-39.57,0-47.53,0-.44,0-10.24,0-10.68,0,.38-4.32,1.01-11.25,1.4-15.68,1.08-12.38,2.5-27.94,4.19-46.18,1.8-19.19,3.29-34.88,4.92-48.33.35-2.94.7-5.77,1.07-8.5v-.02c.6-4.38,1.22-8.5,1.88-12.46.69-4.12,1.44-8.05,2.25-11.82h0c1.81-8.38,3.98-16.05,6.73-23.68,5.31-14.76,15.07-36.42,34.08-60.35h.12c10.55.03,21.09.05,31.62.08l3.15-.03Z"/>
        <path class="cls-16" d="M317.9,492.53s-.01,1.39-.04,3.65h-62.39c-.42-4.04-.84-8.08-1.27-12.12-4.57-43.38-9.17-86.74-13.77-130.08l.28-7.51,2.84-76.51.02-.35v-.4h.02l22.95-.16h.67s.06.07.1.11c29.63,35.43,40.48,67.3,45.04,87.88,4.24,19.19,4.59,43.66,5.34,92.55.27,17.24.27,32.04.21,42.93Z"/>
      </g>
      <g id="Oberteil-2" data-name="Oberteil">
        <path class="cls-18" d="M243.59,269.14c7.84,0,15.73-.03,23.61-.03l26.62-94.19c-9.92-2.39-19.84-4.79-29.76-7.18-1.99,3.21-4.94,7.22-9.19,11.15-2.88,2.66-5.7,4.69-8.17,6.22-1.04,28.01-2.08,56.02-3.12,84.04Z"/>
        <path class="cls-21" d="M196.67,163.38l12.2,105.83c10.51-.03,21.03-.03,31.55-.07h3.17l3.12-84.04-.18.17c-2.39-2.38-4.94-5.19-7.48-8.49-3.38-4.38-5.97-8.6-7.94-12.32-11.48-.36-22.95-.72-34.43-1.09Z"/>
      </g>
      <g id="Gesicht-2" data-name="Gesicht">
        <g id="Kopf-2" data-name="Kopf">
          <path class="cls-11" d="M276.52,117.08c1.4,12.02-6.02,23.75-17.99,27.32-.4.12-.8.23-1.2.33v23.62c0,2.88-2.36,5.24-5.24,5.24h-11.2c-2.89,0-5.25-2.36-5.25-5.24v-24.72c0-.5.04-.99.11-1.47-6.41-3.36-11.63-8.97-14.34-16.13-.54.17-1.1.25-1.69.25-3.38,0-6.14-2.77-6.14-6.15v-2.3c0-2.5,1.5-4.66,3.65-5.62-3.65-14.39,4.74-29.34,19.09-33.62,2.63-.79,5.3-1.16,7.92-1.16,12.03,0,23.21,7.86,26.81,19.94l1.9,6.39c2.7.23,5.02,2.23,5.53,5.01l.42,2.27c.44,2.37-.56,4.68-2.38,6.04Z"/>
        </g>
        <g id="Schatten-2" data-name="Schatten">
          <path class="cls-4" d="M257.38,144.73c-1.81.47-4.16.9-6.93.95-3.27.06-6.02-.42-8.02-.93,4.97,4.41,9.95,8.82,14.92,13.22-.02-1.96-.02-3.94-.02-5.93,0-2.46.02-4.9.05-7.32Z"/>
          <path class="cls-4" d="M218.45,116.17c-.43,0-1.05,1.75-.58,3.35.34,1.14,1.26,2.29,1.63,2.14.71-.29-.31-5.49-1.06-5.48Z"/>
        </g>
        <g id="Augenbrauen-2" data-name="Augenbrauen">
          <path class="cls-17" d="M243.82,102.47c-.84-.13-2.37-.26-4.15.27-2.24.67-3.64,2-4.23,2.64-1.48-.2-1.94-.62-2.06-1-.43-1.32,2.59-3.95,5.85-4.74,2.21-.53,5.2-.39,5.6.77.21.6-.32,1.37-1,2.06Z"/>
          <path class="cls-17" d="M257.1,101.66c.56-.64,1.64-1.73,3.35-2.47,2.14-.93,4.07-.81,4.94-.7,1-1.1,1.08-1.73.93-2.09-.52-1.29-4.52-1.36-7.53.14-2.03,1.01-4.23,3.05-3.79,4.19.23.59,1.13.84,2.09.93Z"/>
        </g>
        <g id="Augen-2" data-name="Augen">
          <rect class="cls-10" x="238.49" y="105.31" width="4.46" height="5.24" rx="2.23" ry="2.23" transform="translate(-14.48 41.07) rotate(-9.47)"/>
          <rect class="cls-10" x="260.08" y="101.71" width="4.46" height="5.24" rx="2.23" ry="2.23" transform="translate(-13.59 44.57) rotate(-9.47)"/>
        </g>
        <g id="Nase-2" data-name="Nase">
          <path class="cls-10" d="M254.37,122.8c-.53,0-1.08-.1-1.63-.29-.06-.02-.1-.09-.08-.16.02-.06.1-.1.16-.08,1.15.41,2.31.36,3.2-.12.49-.27.82-.64.91-1.02.23-.95-.24-1.79-1.42-2.55l-.15-.1c-.6-.39-1.5-.98-2.08-2.1-.2-.39-.35-1.01-.45-1.41l-.04-.17c-.08-.49-.16-.88-.23-1.28-.08-.41-.15-.81-.23-1.3-.01-.07.03-.13.1-.14.06-.01.13.03.14.1.08.49.16.89.23,1.3.07.4.15.79.23,1.27l.04.16c.1.39.24.99.43,1.36.55,1.07,1.42,1.63,1.99,2.01l.15.1c1.28.83,1.78,1.75,1.53,2.82-.11.45-.48.89-1.03,1.19-.52.28-1.13.43-1.77.43Z"/>
        </g>
        <g id="Mund-2" data-name="Mund">
          <path class="cls-10" d="M255.33,133.32c-1.07,0-2.17-.24-3.29-.71-1.74-.73-3.47-2-5.14-3.78-.05-.05-.04-.13,0-.18.05-.05.13-.04.18,0,1.64,1.75,3.34,3,5.05,3.72,1.83.77,3.6.89,5.26.37.07-.02.14.02.16.08.02.07-.02.14-.08.16-.7.22-1.41.33-2.14.33Z"/>
        </g>
        <g id="Haare-2" data-name="Haare">
          <path class="cls-17" d="M277.6,103.66c-.41.09-.87.16-1.36.2-1.37.11-2.55-.07-3.43-.29-2.17-6.31-5.2-8.95-7.58-10.2-2.66-1.39-5.46-1.55-8.83-4.29-1.77-1.43-2.92-2.94-3.62-3.95-.39.86-1.77,3.77-5.09,7.24-8.04,8.41-13.15,6.63-17.16,13.1-2.85,4.61-3.2,7.55-4.63,9.89-.1.15-2.92-5.38-8.71-3.13-1.15-.96-9.08-7.76-7.93-16.41.52-3.94,2.84-6.37,5.47-9.7,8.26-10.44,20.31-12.66,21.89-12.93,6.16-1.05,12.29,0,18,2.42,5.29,2.24,11.84,5.44,15.91,9.56,4.82,4.88,7.3,11.66,7.08,18.48Z"/>
        </g>
      </g>
    </g>
    <g id="Stift-3" data-name="Stift">
      <path class="cls-14" d="M406.94,137.67l-.82,6.13-3.54-.48.82-6.12c.11-.89.88-1.55,1.76-1.55.07,0,.16.01.24.02.98.12,1.67,1.02,1.54,2Z"/>
      <path class="cls-3" d="M409.31,154.54l-.12.89c-.61,5.54-1.22,11.1-1.83,16.64l-13.34-1.77c.86-5.51,1.72-11.04,2.58-16.55l.12-.89c.17-1.27,1.32-2.17,2.6-2.04l1.02-7.66c0-.07.07-.12.14-.11l2.11.28,3.54.48,2.11.28c.07.01.12.07.11.14l-1.01,7.66c1.26.21,2.14,1.38,1.98,2.65Z"/>
      <path class="cls-3" d="M407.36,172.07c-.36,3.25-.72,6.51-1.08,9.75-.52,4.67-1.03,9.32-1.54,13.98-.29,2.54-.57,5.1-.85,7.64-.17,1.48-.32,2.96-.49,4.44,0,.01-.03.31-.04.32-.39,3.55-1.1,9.98-1.2,10.84-1.23,11.33-1.31,12.82-1.89,17.16-.56,4.16-4.38,7.09-8.54,6.54l-1.11-.15c-4.17-.55-7.09-4.38-6.54-8.53.17-1.09.34-2.16.51-3.25.71-4.6,1.43-9.21,2.15-13.81,1.18-7.59,2.36-15.19,3.54-22.78,1.25-7.98,2.48-15.95,3.72-23.93l13.34,1.77Z"/>
      <polygon class="cls-14" points="409.74 172.39 408.45 182.08 406.16 199.29 405.58 203.68 405.37 205.22 403.51 219.23 402.17 219.05 394.92 218.09 386.75 217.01 385.41 216.83 387.92 197.91 391.63 169.98 394.01 170.3 407.36 172.07 409.74 172.39"/>
      <path class="cls-11" d="M399.36,207.22c2.28.94,4.44.42,4.8.29.01,0,.03-.01.03-.01,0,0,.66-.24,1.23-.8,3.09-3.04,3.92-8.14,3.92-8.14.82-5.02-.53-9.27-1.44-11.52-.83.28-2.09.72-3.61,1.32-4.92,1.95-7.38,2.92-8.7,4.57-2.02,2.53-2.79,6.83-.89,10.26,1.41,2.55,3.76,3.66,4.66,4.03Z"/>
    </g>
  </g>
  <g id="Hand_auf_der_Schulter" data-name="Hand auf der Schulter">
    <path class="cls-13" d="M289.54,170.77c.28,3.17-2.03,5.45-2.44,5.86-2.29,2.27-5.16,2.42-5.86,2.44h-3.6c-4.57,0-8.31-3.73-8.31-8.3v-1.76c-1.47-.36-2.94-.71-4.41-1.07.25-.35.64-.85,1.19-1.37.57-.54,2.77-2.53,7.65-3.13,1.45-.18,10.61-1.3,14.41,3.91.34.47,1.21,1.68,1.36,3.42Z"/>
  </g>
  <g id="Person:_Mann_rechts" data-name="Person: Mann rechts">
    <g id="Körper-4" data-name="Körper">
      <g id="Körper-5" data-name="Körper">
        <path class="cls-15" d="M892.5,496.15c-12.44,0-24.87-.02-37.3-.02-.39-9.37-.8-18.84-3.4-27.85-2.54-8.83-7.1-16.92-11.26-25.11-15.2-29.9-25.61-62.23-30.71-95.39-3.24.58-4.22,4.69-4.53,7.97-2.09,22-6.07,43.92-13.4,64.77-8.71,24.76-22.36,49.77-17.88,75.64l-36.83.02c1.12,0,1.72-36.12,1.75-39.44.13-13.33-.08-26.67-.19-40-.21-26.47-.06-53.09,3.92-79.32.93-6.13,1.46-13.3,3.75-19.09,2.21-5.58,2.38-12.21,3.19-18.17,1.83-13.56,3.51-27.14,4.73-40.77.66-7.38,1.19-14.77,1.53-22.18,1.1-23.37.96-46.8-.43-70.16,31.19-8.37,64.57-8.37,95.75.01-1.12,21.19-.85,42.46.79,63.62,0,0,2.31,31.27,9.01,62.98,2.34,11.08,4.82,18.98,6.89,24.8,1.74,4.87,3.38,8.33,3.54,9.12,4.88,25.51,9.76,51.07,12.04,76.94,2.7,30.62,1.78,61.78,9.1,91.63h-.06Z"/>
      </g>
      <g id="Arm_rechts" data-name="Arm rechts">
        <path class="cls-15" d="M905.06,255.53c-5.56,23.56-11.1,47.14-16.66,70.7-.02.45-.08,1.1-.22,1.86-.18,1.04-.47,2.06-.8,2.92h0c.12,1.9.09,4.07-.25,6.44-.3,2.08-1.61,7.43-5.17,13.23-5.26,8.54-14.54,14.48-17.66,10.62-2.64-3.26,4.33-6.05,7.07-13.08,1.45-3.74-.66-9.65-2.23-8.29-3.36,2.91-7.25,5.31-8.98,4.36-.52-.28-.85-.62-1.05-1-.68-1.29.14-2.96.9-4.34,3-5.41,5.43-7.8,5.43-7.8,1.73-1.8,4.05-4.28,6.9-7.5.1-.18.21-.36.32-.54,2.25-23.63,4.51-47.25,6.75-70.88-16.85-19.59-31.72-39.82-43.81-60.95.03,0,.02-.03.05-.03-1.13-1.77-1.89-3.75-2.18-5.94-1.12-8.58,5.53-16.53,14.87-17.75,7.37-.96,14.17,2.53,17.27,8.26.02,0,.03-.06.05-.03,10.13,15.85,14.4,25.13,19.25,33.32,7.87,13.24,11.88,21.2,18.95,36.86,0,.02,0,.03.02.04.16.35.32.7.48,1.06t0,.02c.46,1.15.72,2.3.85,3.36.01.01,0,.02,0,.02.3,2.35-.02,4.29-.16,5.06Z"/>
      </g>
      <g id="Hose-3" data-name="Hose">
        <path class="cls-2" d="M807.1,352.52c-4.73,30.58-9.34,61.17-13.88,91.79-2.56,17.29-5.09,34.57-7.59,51.87h-62.8c.17-19.7,1-40.32,2.69-61.74,3.03-38.78,8.37-74.31,14.78-106.17,2.46-12.21,5.07-23.88,7.78-34.99.88.18,1.76.35,2.67.52,14.47,2.74,31.7,4.91,51.16,5.29,1.2.03,2.39.04,3.57.04.41,0,.81,0,1.22,0l.1,12.6v.43l.19,24.13.04,5.23v1.36s.06,5.34.06,5.34l.03,4.3Z"/>
        <path class="cls-8" d="M843.07,496.17c-3.85-15.75-7.74-31.49-11.65-47.22-8-32.16-16.1-64.31-24.32-96.43l-.03-4.3-.05-5.34v-1.36s-.05-5.23-.05-5.23l-.19-24.13v-.43l-.1-12.6c20.84.05,39.1-2.02,54.13-4.68.04,0,.08,0,.12-.02,2.53,7.11,5.02,14.43,7.49,21.98.08.25.16.5.25.75,1.24,3.83,2.48,7.72,3.71,11.66.13.4.25.81.38,1.2,1.57,5.05,3.1,10.19,4.62,15.43,6.73,23.12,12.95,47.98,18.28,74.46,5.34,26.52,9.25,52.01,12.02,76.27h-64.61Z"/>
      </g>
      <g id="Oberteil-3" data-name="Oberteil">
        <path class="cls-9" d="M867.59,266.64c3.17,14.18,6.9,34.97,8.25,61.21-17.69,4.33-41.3,8.34-69.24,8.28l-5.04-163.73c14.45-.81,22.87-11.2,23.92-12.55,3.62-.59,8.54-1.03,14.32-.43,6.13.64,11.14,2.23,14.74,3.7.26.09.52.2.77.32,2.44,1.06,4.71,2.58,6.7,4.57l29.57,29.57-33.22,33.22c2.66,11.19,5.84,20.73,9.23,35.84Z"/>
        <path class="cls-15" d="M737.94,217.3c-2.92,1.73-21.08,12.48-44.61,21.9-4.33,1.73-10.39,4.14-15.18,1.24-6.94-4.18-7.82-12.94-5.8-16.8.88-1.69,2.31-3,2.31-3,0,0,.34-.33.7-.63,16.57-13.84,37.84-28.18,37.84-28.18,25.87-17.44,27.56-18.81,36.88-22.48,5.21-2.05,17.34-4.11,22.54,1.95,5.61,6.53,3.66,17.13,1.2,20.53-5.83,8.06-12.14,11.43-35.88,25.47Z"/>
        <path class="cls-24" d="M806.6,336.13c-.94,0-1.89-.02-2.83-.03-26.59-.35-49.17-4.35-66.4-8.69,1.68-14.65,4.25-34.07,8.23-56.86,4.19-24.01,6.86-32.77,8.25-48.62.09-.96.16-1.93.24-2.92l-18.61,10.74-24.78-42.93,36.22-20.91c1.34-.77,2.72-1.39,4.14-1.84h0c3.32-1.21,7.74-2.44,13.05-2.96,4.25-.42,7.99-.28,11.02.05,1.28,1.47,10.14,11.33,24.74,11.29.57,0,1.13,0,1.69-.05l5.04,163.73Z"/>
      </g>
    </g>
    <g id="Gesicht-3" data-name="Gesicht">
      <g id="Kopf-3" data-name="Kopf">
        <path class="cls-15" d="M834.16,113.12v2.46c0,3.6-2.95,6.55-6.55,6.55-.62,0-1.23-.09-1.8-.26-2.65,7-7.57,12.62-13.65,16.25v27.27c0,1.94-1.58,3.52-3.52,3.52h-15.49c-1.94,0-3.52-1.58-3.52-3.52v-23.16c-1.12-.2-2.24-.47-3.36-.8-12.76-3.8-20.66-16.31-19.17-29.11-1.94-1.44-3-3.91-2.54-6.43l.45-2.42c.55-2.95,3.03-5.09,5.89-5.33l2.03-6.81c3.83-12.87,15.74-21.24,28.56-21.24,2.8,0,5.63.39,8.44,1.23,15.29,4.55,24.22,20.49,20.33,35.82,2.29,1.02,3.9,3.32,3.9,5.98Z"/>
      </g>
      <g id="Schatten-3" data-name="Schatten">
        <path class="cls-19" d="M828.98,111.36c.46,0,1.12,1.87.61,3.57-.36,1.22-1.34,2.44-1.74,2.28-.76-.31.33-5.85,1.13-5.84Z"/>
        <path class="cls-19" d="M812.16,138.03c-1.88.49-4.32.93-7.2.99-3.4.07-6.25-.44-8.33-.97,5.17,4.58,10.34,9.16,15.5,13.74-.02-2.04-.02-4.09-.02-6.16,0-2.56.02-5.09.05-7.6Z"/>
      </g>
      <g id="Bund_Bart" data-name="Bund + Bart">
        <ellipse class="cls-23" cx="787.9" cy="125.77" rx="1.74" ry="7.21" transform="translate(483.99 863.51) rotate(-76.68)"/>
        <path class="cls-10" d="M803.48,128.34c-1.16.52-2.72,1.03-4.58,1.1-5.91.24-10.01-4.05-10.95-5.11-1.09.75-5.64,3.62-10.32,1.66-1.48-.61-2.59-1.55-3.37-2.39,1.09,0,2.65-.09,4.46-.6,3.99-1.12,6.08-3.35,8.04-2.31.47.25,1.03.73,1.5,1.77.88-.82,1.67-1.08,2.27-1.16,2.55-.3,4.11,2.51,8.18,4.94,1.85,1.1,3.55,1.73,4.77,2.1Z"/>
      </g>
      <g id="Augen-3" data-name="Augen">
        <rect class="cls-10" x="802.87" y="99.79" width="4.75" height="5.58" rx="2.38" ry="2.38" transform="translate(1582.65 336.22) rotate(-170.53)"/>
        <rect class="cls-10" x="779.87" y="95.95" width="4.75" height="5.58" rx="2.38" ry="2.38" transform="translate(1537.59 324.82) rotate(-170.53)"/>
      </g>
      <g id="Nase-3" data-name="Nase">
        <path class="cls-10" d="M790.71,118.41c-.68,0-1.33-.15-1.88-.45-.58-.32-.98-.78-1.1-1.26-.27-1.13.26-2.11,1.63-3l.16-.11c.61-.4,1.54-1,2.12-2.14.2-.39.36-1.02.46-1.44l.05-.19c.08-.5.16-.92.24-1.35.08-.43.16-.86.25-1.38.01-.07.08-.12.14-.1.07.01.11.08.1.14-.09.52-.17.95-.25,1.39-.08.42-.16.84-.24,1.35l-.05.2c-.11.43-.27,1.08-.48,1.49-.62,1.2-1.58,1.82-2.21,2.24l-.16.1c-1.27.82-1.76,1.71-1.52,2.73.1.41.45.81.97,1.1.95.52,2.19.56,3.42.13.06-.02.14.01.16.08s-.01.14-.08.16c-.58.21-1.17.31-1.74.31Z"/>
      </g>
      <g id="Augenbrauen-3" data-name="Augenbrauen">
        <path class="cls-10" d="M787.54,96.27c-.46-.78-1.38-2.13-3.03-3.24-2.06-1.4-4.1-1.65-5.04-1.7-.83-1.35-.8-2.02-.57-2.38.8-1.25,5-.54,7.86,1.62,1.93,1.46,3.83,4.02,3.15,5.13-.36.58-1.34.66-2.38.57Z"/>
        <path class="cls-10" d="M811.1,100.09c-.46-.78-1.38-2.13-3.03-3.24-2.06-1.4-4.1-1.65-5.04-1.7-.83-1.35-.8-2.02-.57-2.38.8-1.25,5-.54,7.86,1.62,1.93,1.46,3.83,4.02,3.15,5.13-.36.58-1.34.66-2.38.57Z"/>
      </g>
      <g id="Haare-3" data-name="Haare">
        <path class="cls-10" d="M831.45,85.63c.95,3.46.99,7.1.94,8.48-.09,2.56-2.08,12.54-2.08,12.54-1.24.22-2.8.25-6.36,1.59-3.31,1.24-5.21,2.42-5.52,2.62.42-.46,3.63-6.16,3.66-12.43.02-3.95-1.66-6.82-3.19-9.25-1.53.61-3.42,1.02-5.59.84-4.83-.39-7.75-3.45-8.39-4.15-.45.48-3.95,4.17-9.48,3.82-5.34-.34-8.31-4.18-8.73-4.74-2.52,1.04-5.36.71-7.4-.91-.73-.58-1.25-1.24-1.63-1.89-.17.25-.34.52-.53.83-.54.89-.88,1.74-1.47,2.84-2.92,5.48-4.61,13.1-4.78,12.28-.08-.42-.2-.78-.2-.91.19-9.33,2.11-13.99,2.11-13.99.62-1.51,1.49-3.41,2.44-5.22-.93-.92-1.98-2.39-2.09-4.42-.15-2.79,1.56-5.46,4.28-6.63.33-.57,1.83-3.08,5.03-4.09,3.56-1.12,6.49.47,6.98.75.48-.67,2.14-2.83,5.24-3.74,3.2-.95,5.83.04,6.57.35.2-.19,1.54-1.44,3.57-1.27,2.02.17,3.13,1.61,3.3,1.83.53-.15,4.04-1.09,7.35,1.08,2.72,1.79,3.51,4.51,3.69,5.19.58-.27,2.45-1.06,4.79-.53,2.71.61,4.14,2.55,4.47,3.02.63.2,4.35,1.48,5.92,5.24,1.55,3.71.39,8.45-2.9,10.87Z"/>
      </g>
    </g>
    <g id="Arm_links_Stift" data-name="Arm links + Stift">
      <g id="Icon:_Stift" data-name="Icon: Stift">
        <path class="cls-8" d="M782.85,226.46l-2.23,5.76-3.33-1.29,2.23-5.76c.28-.71.96-1.14,1.67-1.14.22,0,.44.04.65.12.91.35,1.37,1.39,1.01,2.31Z"/>
        <path class="cls-2" d="M744.49,298.78l14.5,5.63c-1.97,5.41-3.93,10.82-5.9,16.23-1.51,3.91-5.92,5.85-9.83,4.33l-1.05-.41c-3.91-1.52-5.85-5.93-4.33-9.84,2.2-5.31,4.4-10.62,6.61-15.94Z"/>
        <path class="cls-2" d="M782.67,233.16l-2.79,7.21c1.18.5,1.75,1.84,1.29,3.04l-.33.83c-1.9,5.25-3.81,10.5-5.72,15.75l-12.53-4.88c2.14-5.16,4.27-10.31,6.41-15.47l.32-.83c.47-1.2,1.81-1.81,3.02-1.37l2.79-7.22c.03-.06.11-.09.17-.06l1.99.77,3.33,1.29,1.98.77c.07.03.1.1.07.17Z"/>
        <polygon class="cls-8" points="777.36 260.86 760.25 304.9 758.99 304.41 744.49 298.78 743.23 298.29 760.35 254.24 762.59 255.11 775.12 259.99 777.36 260.86"/>
      </g>
      <path class="cls-15" d="M768.32,288.79c-2.68,5.38-15.71,1.97-16.6,1.81-2.22-.41-7.73-1.66-13.39-5.87-3.91-2.91-6.79-5.06-8.24-7.24-17.69-12.57-35.38-25.17-53.07-37.75-1.11-.86-5.17-4.23-5.72-9.73-.07-.7-.2-2.21.27-4.01,1.58-5.96,8.79-10.92,15.45-9.71,3.17.58,5.31,2.42,6.04,3.07,16.69,14.87,32.23,30.99,48.71,46.08.58.05,1.17.12,1.77.19,2.07.25,9.33,1.75,11.38,2.59-.94,2.42-1.88,4.84-2.83,7.27,3.37.98,6.18,2.04,8.37,2.96,0,0,6.57,2.77,7.86,5.82.06.13.11.26.11.26.14.41.8,2.45-.11,4.26Z"/>
    </g>
  </g>
</svg>