<?xml version="1.0" encoding="UTF-8"?>
<svg id="_0051_THK_Datenchaos" data-name="0051_THK_Datenchaos" xmlns="http://www.w3.org/2000/svg" viewBox="0 0 659.05 483.18">
  <defs>
    <style>
      .cls-1 {
        fill: #42210b;
      }

      .cls-1, .cls-2, .cls-3, .cls-4, .cls-5, .cls-6, .cls-7, .cls-8, .cls-9, .cls-10, .cls-11, .cls-12, .cls-13, .cls-14, .cls-15, .cls-16, .cls-17, .cls-18, .cls-19, .cls-20, .cls-21, .cls-22, .cls-23, .cls-24 {
        stroke-width: 0px;
      }

      .cls-2 {
        fill: #a5678d;
      }

      .cls-3 {
        fill: #308fc9;
      }

      .cls-4 {
        fill: #dddddc;
      }

      .cls-5 {
        fill: #e6710a;
      }

      .cls-6 {
        fill: #e0bf70;
      }

      .cls-7 {
        fill: #873567;
      }

      .cls-8 {
        fill: #c39ab3;
      }

      .cls-9 {
        fill: #000;
      }

      .cls-10 {
        fill: #73bbe7;
      }

      .cls-11 {
        fill: #96cced;
      }

      .cls-12 {
        fill: #b47d49;
      }

      .cls-13 {
        fill: #236289;
      }

      .cls-14 {
        fill: #b9ddf3;
      }

      .cls-15 {
        fill: #f3ebf0;
      }

      .cls-16 {
        fill: #ec9447;
      }

      .cls-17 {
        fill: #efa360;
      }

      .cls-18 {
        fill: #64abd6;
      }

      .cls-19 {
        fill: #ccc;
      }

      .cls-20 {
        fill: #cbe3f1;
      }

      .cls-21 {
        fill: #f9dbc2;
      }

      .cls-22 {
        fill: #08c;
      }

      .cls-23 {
        fill: #e1ccd9;
      }

      .cls-24 {
        fill: #f2b885;
      }
    </style>
  </defs>
  <g id="Regal">
    <g id="Regal-2" data-name="Regal">
      <rect class="cls-14" x="274.09" width="312.62" height="449.7"/>
      <polygon class="cls-19" points="571.74 449.7 571.74 472.76 541.76 472.76 541.76 456.18 319.04 456.18 319.04 472.76 289.06 472.76 289.06 449.7 571.74 449.7"/>
      <rect class="cls-19" x="290.14" y="18.65" width="280.53" height="83.57"/>
      <rect class="cls-19" x="290.14" y="109.94" width="280.53" height="83.57"/>
      <rect class="cls-19" x="290.14" y="201.23" width="280.53" height="83.57"/>
      <rect class="cls-19" x="290.14" y="292.52" width="280.53" height="138.53"/>
    </g>
    <g id="Türen">
      <rect class="cls-10" x="431.53" y="294.57" width="136.92" height="134.43"/>
      <rect class="cls-22" x="439.14" y="314.87" width="4.09" height="22.48"/>
      <g>
        <path class="cls-13" d="M414.72,287.71c-2.14,2.27-5.18,4.26-9.1,5.98l-.85,4.05c.99-.21,2.1-.57,3.34-1.07,1.24-.51,2.34-1.07,3.29-1.68l-3.38,16.1h4.59l4.89-23.38h-2.78Z"/>
        <path class="cls-13" d="M386.7,251.59c-1.4,1.48-3.37,2.78-5.92,3.89l-.56,2.64c.64-.14,1.37-.37,2.17-.7.81-.33,1.52-.69,2.14-1.09l-2.2,10.48h2.98l3.19-15.21h-1.8Z"/>
        <path class="cls-13" d="M382.4,289.13c-2.62,2.79-6.33,5.22-11.13,7.31l-1.05,4.97c1.21-.26,2.57-.7,4.09-1.32,1.52-.62,2.86-1.31,4.02-2.06l-4.13,19.71h5.6l5.99-28.62h-3.39Z"/>
        <path class="cls-13" d="M430.69,269.06c-.99-1.12-2.26-1.68-3.8-1.68s-2.91.59-4.16,1.76c-1.25,1.17-2.28,2.95-3.07,5.36-.64,1.97-.97,3.91-.97,5.82,0,2.11.5,3.73,1.5,4.85,1,1.11,2.28,1.68,3.82,1.68s2.93-.58,4.16-1.73c1.23-1.16,2.2-2.82,2.93-4.99.73-2.17,1.09-4.23,1.09-6.18,0-2.13-.5-3.76-1.49-4.87ZM427.87,277.82c-.55,2.52-1.19,4.22-1.91,5.07-.54.64-1.15.96-1.85.96-.52,0-.94-.21-1.27-.63-.33-.41-.5-1.13-.5-2.16,0-1.26.23-2.89.7-4.9.55-2.31,1.2-3.93,1.95-4.85.52-.64,1.1-.95,1.76-.95.52,0,.95.21,1.28.63.34.42.5,1.11.5,2.06,0,1.17-.22,2.75-.66,4.76Z"/>
        <path class="cls-13" d="M403.42,274.76c-1.12-1.26-2.56-1.9-4.31-1.9s-3.3.66-4.71,1.99c-1.41,1.33-2.57,3.36-3.48,6.07-.74,2.24-1.11,4.43-1.11,6.6,0,2.4.57,4.23,1.7,5.5,1.13,1.26,2.58,1.9,4.33,1.9s3.32-.65,4.71-1.96c1.4-1.31,2.51-3.19,3.32-5.66.82-2.46,1.23-4.79,1.23-7,0-2.42-.56-4.26-1.69-5.53ZM400.23,284.69c-.63,2.86-1.35,4.77-2.17,5.75-.61.73-1.3,1.09-2.09,1.09-.59,0-1.07-.23-1.45-.7-.38-.47-.56-1.29-.56-2.44,0-1.44.26-3.29.8-5.56.61-2.62,1.35-4.46,2.21-5.5.58-.72,1.24-1.07,1.99-1.07.59,0,1.07.24,1.45.72.38.47.57,1.25.57,2.33,0,1.33-.25,3.13-.75,5.4Z"/>
        <path class="cls-13" d="M403.3,302.31c-1.21-1.36-2.75-2.04-4.62-2.04s-3.55.72-5.06,2.14c-1.52,1.42-2.76,3.59-3.73,6.5-.78,2.4-1.19,4.76-1.19,7.09,0,2.57.61,4.52,1.83,5.89,1.21,1.36,2.75,2.03,4.63,2.03s3.56-.7,5.05-2.1c1.5-1.41,2.69-3.44,3.57-6.08.88-2.63,1.32-5.14,1.32-7.51,0-2.59-.61-4.57-1.81-5.93ZM399.88,312.96c-.67,3.07-1.44,5.12-2.32,6.16-.65.78-1.41,1.17-2.25,1.17-.62,0-1.15-.26-1.54-.76-.4-.5-.6-1.38-.6-2.63,0-1.53.28-3.52.84-5.95.67-2.81,1.45-4.78,2.37-5.89.62-.77,1.33-1.15,2.14-1.15.64,0,1.15.26,1.55.76.4.51.61,1.36.61,2.51,0,1.43-.27,3.35-.81,5.78Z"/>
        <path class="cls-13" d="M414.33,262.44c-1.91,2.03-4.61,3.8-8.11,5.33l-.76,3.61c.88-.19,1.87-.51,2.98-.96,1.1-.45,2.08-.95,2.93-1.5l-3.01,14.35h4.08l4.37-20.84h-2.47Z"/>
        <path class="cls-13" d="M414.7,245.64c-.77-.86-1.74-1.29-2.93-1.29s-2.24.45-3.2,1.35c-.96.9-1.75,2.27-2.36,4.12-.5,1.52-.75,3.01-.75,4.48,0,1.63.38,2.87,1.16,3.73.77.86,1.75,1.29,2.93,1.29s2.26-.45,3.2-1.34c.95-.89,1.7-2.17,2.26-3.84.56-1.67.83-3.26.83-4.76,0-1.64-.38-2.89-1.14-3.75ZM412.53,252.38c-.42,1.94-.92,3.24-1.47,3.91-.41.49-.89.74-1.42.74-.4,0-.73-.16-.98-.48-.25-.32-.38-.87-.38-1.66,0-.97.18-2.23.54-3.77.42-1.78.92-3.03,1.5-3.73.39-.49.84-.73,1.35-.73.4,0,.73.16.99.49.26.32.38.85.38,1.58,0,.9-.17,2.12-.51,3.66Z"/>
        <path class="cls-13" d="M399.6,249.33c-1.81,1.92-4.39,3.61-7.71,5.07l-.72,3.43c.83-.18,1.78-.48,2.83-.91,1.05-.43,1.98-.91,2.79-1.42l-2.86,13.64h3.88l4.14-19.8h-2.35Z"/>
        <path class="cls-13" d="M384.33,271.5c-.85-.95-1.93-1.43-3.24-1.43s-2.48.5-3.55,1.49c-1.06,1-1.93,2.52-2.61,4.56-.56,1.68-.83,3.33-.83,4.96,0,1.8.42,3.18,1.28,4.13.85.95,1.93,1.43,3.25,1.43s2.5-.5,3.55-1.48c1.05-.99,1.88-2.4,2.5-4.25.62-1.85.92-3.61.92-5.27,0-1.81-.42-3.2-1.26-4.15ZM381.92,278.96c-.47,2.15-1.01,3.59-1.63,4.32-.46.54-.98.82-1.57.82-.45,0-.81-.18-1.09-.53-.28-.35-.42-.96-.42-1.84,0-1.08.2-2.47.6-4.18.46-1.97,1.02-3.35,1.66-4.13.44-.54.93-.81,1.49-.81.45,0,.81.18,1.09.54.28.36.42.94.42,1.75,0,1-.19,2.35-.57,4.05Z"/>
        <path class="cls-13" d="M424.75,301.79c-1.63,1.72-3.93,3.24-6.9,4.53l-.65,3.08c.75-.16,1.59-.43,2.53-.82.94-.39,1.78-.81,2.49-1.27l-2.56,12.21h3.48l3.71-17.73h-2.1Z"/>
      </g>
      <polygon class="cls-10" points="420.3 445.28 292.24 429 292.24 294.57 420.3 310.84 420.3 445.28"/>
      <rect class="cls-22" x="408.94" y="330.79" width="4.09" height="22.48"/>
    </g>
    <g id="Regalboden_unten" data-name="Regalboden unten">
      <g>
        <g>
          <rect class="cls-5" x="322.27" y="216.73" width="48.63" height="28.38" transform="translate(23.77 -32.21) rotate(5.51)"/>
          <path class="cls-16" d="M372.47,215.84l-.32,3.29-48.41-4.67.59-6.09,20.19,1.95c1.73,1.11,3.45,2.22,5.18,3.33l22.77,2.2Z"/>
        </g>
        <g>
          <g>
            <rect class="cls-16" x="316.09" y="221.08" width="48.63" height="28.38" transform="translate(24.16 -31.59) rotate(5.51)"/>
            <path class="cls-24" d="M366.3,220.19l-.32,3.29-48.41-4.67.59-6.09,20.19,1.95c1.73,1.11,3.45,2.22,5.18,3.33l22.77,2.2Z"/>
          </g>
          <rect class="cls-4" x="338.01" y="237.29" width="20.63" height="6.88" transform="translate(24.72 -32.33) rotate(5.51)"/>
        </g>
      </g>
      <g>
        <rect class="cls-20" x="309.8" y="227.96" width="67.18" height="59.45"/>
        <rect class="cls-18" x="326.52" y="261.19" width="33.73" height="13.6"/>
        <rect class="cls-4" x="329.98" y="267.99" width="26.67" height="4.36"/>
      </g>
      <g>
        <g>
          <path class="cls-8" d="M570.75,222.94c-1.99-.39-4.45-.71-7.26-.74-.36-.01-.72-.01-1.09,0-.3.01-.62.01-.91.03-.93.03-1.81.09-2.65.19-.34.03-.67.07-1,.13-.32.03-.65.08-.96.14-.74.12-1.43.24-2.08.38-.45-.45-.9-.9-1.35-1.35-.66-.66-1.33-1.33-1.99-1.99-1.41-1.41-2.84-2.84-4.25-4.25-.41-.41-.82-.82-1.23-1.23-1.36-1.36-2.73-2.73-4.1-4.09,1.32-.21,2.79-.39,4.38-.5h.02c.06-.03.13-.07.19-.12h11.37l1.3,1.28,1.36,1.34,1.08,1.06,4.27,4.19,1.63,1.59-.14.63,3.39,3.33Z"/>
          <g>
            <path class="cls-8" d="M554.79,223.69v56.87s-.01,0-.02.01l-.12-56.88h.14Z"/>
            <path class="cls-8" d="M557.85,209.53v13.02c-.32.03-.65.08-.96.14-.74.12-1.43.24-2.08.38-.45-.45-.9-.9-1.35-1.35-.66-.66-1.33-1.33-1.99-1.99-1.41-1.41-2.84-2.84-4.25-4.25-.41-.41-.82-.82-1.23-1.23-1.36-1.36-2.73-2.73-4.1-4.09,1.32-.21,2.79-.39,4.38-.5h.02c.06-.03.13-.07.19-.12h-5.97c1.77-.36,4.17-.72,7.04-.83.36-.01.72-.02,1.09-.02.17-.01.32-.01.49-.01.54,0,1.08.01,1.6.03.46.01.91.03,1.35.06.38.02.73.05,1.09.08.48.04.93.08,1.37.15,1.09.13,2.06.29,2.91.46.14.02.27.04.4.07Z"/>
            <rect class="cls-8" x="556.76" y="233.71" width="1.09" height="38.92"/>
            <path class="cls-2" d="M554.77,280.57c-1.74.25-3.83.44-6.19.41-3.38-.06-6.17-.54-8.07-.99v-70.45l6.55,6.55,4.27,4.28,1.99,1.99,1.34,1.34.12,56.88Z"/>
            <path class="cls-2" d="M554.79,293.99l-14.29-14.01c1.91.45,4.69.93,8.07.99,2.36.03,4.45-.16,6.19-.41l.02,13.43Z"/>
            <path class="cls-8" d="M572.15,223.55c-2.12-.43-5.11-.87-8.72-.86h-.07c-.69,0-1.36.02-2,.05-.89.04-1.74.1-2.53.19-.33.04-.65.07-.96.12-.32.04-.65.08-.95.14-.77.12-1.48.24-2.1.37v.14h-.14l-1.34-1.34-1.99-1.99-4.27-4.28-6.55-6.55h5.97c-.06.04-.13.08-.19.12h-.02c-1.59.12-3.06.29-4.38.5,1.36,1.36,2.73,2.73,4.1,4.09.41.41.82.82,1.23,1.23,1.41,1.41,2.84,2.84,4.25,4.25.66.66,1.33,1.33,1.99,1.99.45.45.9.9,1.35,1.35.65-.14,1.34-.26,2.08-.38.31-.05.64-.1.96-.14.32-.05.66-.09,1-.13.84-.09,1.72-.16,2.65-.19.29-.02.61-.02.91-.03.37-.01.73-.01,1.09,0,2.81.03,5.27.36,7.26.74l-3.39-3.33.14-.63,4.65,4.57Z"/>
            <path class="cls-7" d="M570.75,222.94c-1.99-.39-4.45-.71-7.26-.74-.36-.01-.72-.01-1.09,0-.3.01-.62.01-.91.03-.93.03-1.81.09-2.65.19-.34.03-.67.07-1,.13-.32.03-.65.08-.96.14-.74.12-1.43.24-2.08.38-.45-.45-.9-.9-1.35-1.35-.66-.66-1.33-1.33-1.99-1.99-1.41-1.41-2.84-2.84-4.25-4.25-.41-.41-.82-.82-1.23-1.23-1.36-1.36-2.73-2.73-4.1-4.09,1.32-.21,2.79-.39,4.38-.5h.02c.7-.04,1.42-.08,2.17-.1.37,0,.73-.01,1.11-.01h.18c.47,0,.94.01,1.4.02h.01c.95.02,1.86.07,2.73.15,1.26.09,2.42.24,3.5.41.12.01.22.02.32.04l.14.14,1.38,1.36h.01s.62.61.62.61l1.25,1.23,4.63,4.55,1.62,1.59,3.39,3.33Z"/>
            <path class="cls-8" d="M563.42,222.69h-.07c-.69,0-1.36.02-2,.05-.89.04-1.74.1-2.53.19-.33.04-.65.07-.96.12-.32.04-.65.08-.95.14-.77.12-1.48.24-2.1.37v70.44c1.92.46,4.7.94,8.08,1.01,3.97.05,7.18-.51,9.27-1.01v-70.44c-2.12-.43-5.11-.87-8.72-.86ZM563.48,285.86c-2.7,0-4.88-2.19-4.88-4.88s2.18-4.87,4.88-4.87,4.87,2.18,4.87,4.87-2.18,4.88-4.87,4.88ZM570.18,272.63h-13.42v-38.92h13.42v38.92Z"/>
            <rect class="cls-8" x="556.76" y="233.71" width="13.42" height="38.92"/>
            <path class="cls-8" d="M568.35,280.97c0,2.69-2.18,4.88-4.87,4.88s-4.88-2.19-4.88-4.88,2.18-4.87,4.88-4.87,4.87,2.18,4.87,4.87Z"/>
          </g>
        </g>
        <rect class="cls-7" x="556.76" y="233.71" width="13.42" height="38.92"/>
        <rect class="cls-2" x="559.13" y="236.63" width="8.67" height="6.38"/>
        <path class="cls-2" d="M568.35,280.97c0,2.69-2.18,4.88-4.87,4.88s-4.88-2.19-4.88-4.88,2.18-4.87,4.88-4.87,4.87,2.18,4.87,4.87Z"/>
      </g>
      <g>
        <g>
          <polygon class="cls-8" points="537.31 209.96 551.6 223.98 534.12 224.12 519.96 209.96 537.31 209.96"/>
          <g>
            <path class="cls-8" d="M537.31,209.96v70.45c-2.08.49-5.29,1.06-9.26,1-3.38-.06-6.17-.54-8.08-1v-70.45c2.09-.42,5.05-.86,8.63-.86,3.61-.01,6.61.43,8.72.86Z"/>
            <polygon class="cls-2" points="519.96 209.96 534.12 224.12 534.26 294.43 519.96 280.41 519.96 209.96"/>
            <path class="cls-7" d="M537.18,210.58l13.04,12.79c-2.24-.44-5.08-.79-8.35-.74-2.95.05-5.52.42-7.6.86-4.3-4.3-8.61-8.61-12.91-12.91,2.2-.35,4.78-.61,7.67-.62,3.09-.01,5.84.26,8.15.62Z"/>
            <path class="cls-8" d="M551.6,223.98v70.45c-2.08.49-5.29,1.06-9.27,1-3.38-.06-6.17-.54-8.08-1v-70.45c2.09-.42,5.05-.86,8.63-.86,3.61-.01,6.61.43,8.72.86Z"/>
          </g>
        </g>
        <rect class="cls-7" x="536.22" y="234.15" width="13.41" height="38.91"/>
        <rect class="cls-2" x="538.59" y="237.06" width="8.67" height="6.38"/>
        <circle class="cls-2" cx="542.93" cy="281.41" r="4.88"/>
      </g>
      <g>
        <g>
          <polygon class="cls-8" points="515.84 210.86 530.13 224.89 512.64 225.02 498.49 210.86 515.84 210.86"/>
          <g>
            <path class="cls-8" d="M515.84,210.86v70.45c-2.08.49-5.29,1.06-9.26,1-3.38-.06-6.17-.54-8.08-1v-70.45c2.09-.42,5.05-.86,8.63-.86,3.61-.01,6.61.43,8.72.86Z"/>
            <polygon class="cls-2" points="498.49 210.86 512.64 225.02 512.78 295.33 498.49 281.31 498.49 210.86"/>
            <path class="cls-7" d="M515.7,211.49l13.04,12.79c-2.24-.44-5.08-.79-8.35-.74-2.95.05-5.52.42-7.6.86-4.3-4.3-8.61-8.61-12.91-12.91,2.2-.35,4.78-.61,7.67-.62,3.09-.01,5.84.26,8.15.62Z"/>
            <path class="cls-8" d="M530.13,224.89v70.45c-2.08.49-5.29,1.06-9.27,1-3.38-.06-6.17-.54-8.08-1v-70.45c2.09-.42,5.05-.86,8.63-.86,3.61-.01,6.61.43,8.72.86Z"/>
          </g>
        </g>
        <rect class="cls-7" x="514.75" y="235.05" width="13.41" height="38.91"/>
        <rect class="cls-2" x="517.12" y="237.97" width="8.67" height="6.38"/>
        <circle class="cls-2" cx="521.45" cy="282.31" r="4.88"/>
      </g>
      <g>
        <path class="cls-24" d="M483.38,220.94v65.65c2.09.45,5.31.98,9.3.93,3.4-.05,6.2-.51,8.11-.93v-65.65c-2.1-.39-5.07-.8-8.66-.8-3.62-.01-6.64.4-8.75.8Z"/>
        <rect class="cls-16" x="484.9" y="265.39" width="14.3" height="13.27"/>
        <rect class="cls-5" x="483.34" y="260.26" width="17.41" height="2.32"/>
        <rect class="cls-5" x="483.38" y="256.41" width="17.41" height="2.32"/>
      </g>
      <g>
        <path class="cls-7" d="M482.45,235v51.79c-1.53.36-3.89.78-6.81.73-2.49-.04-4.54-.4-5.94-.73v-51.79c1.54-.31,3.71-.63,6.34-.63,2.65,0,4.86.32,6.41.63Z"/>
        <ellipse class="cls-2" cx="476.08" cy="271.81" rx="4.43" ry="5.52"/>
        <rect class="cls-2" x="469.7" y="279.2" width="12.75" height="1.83"/>
        <rect class="cls-2" x="469.7" y="246.56" width="12.75" height="1.83"/>
        <rect class="cls-2" x="469.7" y="244.04" width="12.75" height="1.83"/>
        <rect class="cls-2" x="469.7" y="241.51" width="12.75" height="1.83"/>
      </g>
      <g>
        <path class="cls-11" d="M469.5,239.53l-10.46,48.66c-1.51.03-3.81-.06-6.55-.69-2.33-.54-4.18-1.29-5.43-1.89l10.46-48.66c1.51.02,3.62.16,6.09.69,2.49.53,4.5,1.28,5.89,1.89Z"/>
        <ellipse class="cls-22" cx="456.08" cy="272.84" rx="5.3" ry="4.26" transform="translate(93.49 661.39) rotate(-77.87)"/>
        <rect class="cls-13" x="453.52" y="274.52" width="1.76" height="12.26" transform="translate(84.53 665.92) rotate(-77.87)"/>
        <rect class="cls-13" x="460.11" y="243.84" width="1.76" height="12.26" transform="translate(119.73 648.14) rotate(-77.87)"/>
        <rect class="cls-13" x="460.62" y="241.47" width="1.76" height="12.26" transform="translate(122.45 646.77) rotate(-77.87)"/>
        <rect class="cls-13" x="461.13" y="239.1" width="1.76" height="12.26" transform="translate(125.17 645.39) rotate(-77.87)"/>
      </g>
      <g>
        <path class="cls-13" d="M526.05,211.98c-.91.97-2.22,1.83-3.91,2.57l-.37,1.74c.43-.08.9-.24,1.43-.46.53-.22,1.01-.46,1.41-.72l-.76,3.63-.13.63-.56,2.65h1.96l.22-1.06.14-.63,1.75-8.35h-1.19Z"/>
        <path class="cls-13" d="M514.03,196.48c-.6.63-1.45,1.19-2.54,1.67l-.24,1.13c.27-.06.59-.16.93-.3.35-.14.65-.3.92-.47l-.94,4.5h1.28l1.37-6.53h-.77Z"/>
        <path class="cls-13" d="M512.19,212.59c-1.13,1.19-2.72,2.24-4.79,3.14l-.45,2.13c.52-.1,1.11-.29,1.76-.57.65-.26,1.23-.56,1.73-.88l-.97,4.65c.66.66,1.33,1.33,1.99,1.99l2.19-10.46h-1.46Z"/>
        <path class="cls-13" d="M532.91,203.98c-.43-.48-.97-.72-1.63-.72s-1.25.25-1.78.76c-.54.5-.98,1.27-1.32,2.3-.28.84-.42,1.68-.42,2.5,0,.91.22,1.6.64,2.08.43.48.98.72,1.64.72s1.26-.25,1.79-.74c.53-.5.95-1.21,1.26-2.14.31-.93.47-1.81.47-2.65,0-.92-.21-1.61-.64-2.09ZM531.7,207.74c-.24,1.08-.51,1.81-.82,2.18-.23.27-.5.41-.79.41-.22,0-.4-.09-.54-.27-.14-.18-.21-.49-.21-.93,0-.54.1-1.24.3-2.1.24-.99.51-1.69.84-2.08.22-.27.47-.41.76-.41.22,0,.41.09.55.27.14.18.22.48.22.89,0,.5-.09,1.18-.28,2.04Z"/>
        <path class="cls-13" d="M521.21,206.42c-.48-.54-1.1-.81-1.85-.81s-1.41.28-2.02.85c-.61.57-1.1,1.44-1.49,2.61-.32.96-.48,1.9-.48,2.83,0,1.03.25,1.81.73,2.36.49.54,1.11.81,1.86.81s1.43-.28,2.02-.84c.6-.56,1.08-1.37,1.43-2.43.35-1.05.53-2.06.53-3.01,0-1.04-.24-1.83-.72-2.37ZM519.84,210.69c-.27,1.23-.58,2.05-.93,2.47-.26.31-.56.47-.9.47-.26,0-.46-.1-.62-.3-.16-.2-.24-.55-.24-1.05,0-.62.11-1.41.34-2.39.26-1.12.58-1.91.95-2.36.25-.31.53-.46.85-.46.26,0,.46.1.62.31.16.2.24.54.24,1,0,.57-.11,1.34-.32,2.32Z"/>
        <path class="cls-13" d="M521.15,218.25c-.51-.59-1.18-.88-1.98-.88s-1.52.31-2.18.92c-.43.41-.82.95-1.14,1.65-.17.35-.31.72-.45,1.14-.32,1-.5,1.98-.51,2.94.31-.05.64-.1.96-.14.32-.05.66-.09,1-.13.05-.52.16-1.12.31-1.81.29-1.2.63-2.05,1.03-2.52.26-.34.57-.49.91-.49.27,0,.49.1.67.32.17.22.26.58.26,1.07,0,.62-.12,1.45-.35,2.48-.06.27-.13.53-.19.76.29-.02.61-.02.91-.03.37-.01.73-.01,1.09,0,.29-.96.43-1.88.43-2.75,0-1.11-.26-1.96-.77-2.55Z"/>
        <path class="cls-13" d="M525.89,201.14c-.82.87-1.98,1.63-3.48,2.29l-.33,1.55c.38-.08.8-.22,1.28-.41.47-.19.89-.41,1.26-.65l-1.29,6.16h1.75l1.87-8.94h-1.06Z"/>
        <path class="cls-13" d="M526.05,193.93c-.33-.37-.75-.55-1.26-.55s-.96.19-1.37.58c-.41.39-.75.98-1.01,1.77-.22.65-.32,1.29-.32,1.92,0,.7.16,1.23.5,1.6.33.37.75.56,1.26.56s.97-.19,1.37-.57c.41-.38.73-.93.97-1.65.24-.72.36-1.4.36-2.04,0-.7-.16-1.24-.49-1.61ZM525.11,196.82c-.18.83-.39,1.39-.63,1.68-.18.21-.38.32-.61.32-.17,0-.31-.07-.42-.21-.11-.14-.16-.37-.16-.71,0-.42.08-.96.23-1.62.18-.76.39-1.3.64-1.6.17-.21.36-.31.58-.31.17,0,.31.07.42.21.11.14.16.37.16.68,0,.39-.07.91-.22,1.57Z"/>
        <path class="cls-13" d="M519.56,195.51c-.78.83-1.88,1.55-3.31,2.17l-.31,1.47c.36-.08.76-.21,1.21-.39.45-.19.85-.39,1.2-.61l-1.23,5.85h1.67l1.78-8.5h-1.01Z"/>
        <path class="cls-13" d="M513.01,205.03c-.36-.41-.83-.61-1.39-.61s-1.07.21-1.52.64c-.46.43-.83,1.08-1.12,1.96-.24.72-.36,1.43-.36,2.13,0,.77.18,1.36.55,1.77.36.41.83.61,1.39.61s1.07-.21,1.52-.64c.45-.42.81-1.03,1.07-1.83.26-.79.39-1.55.39-2.26,0-.78-.18-1.37-.54-1.78ZM511.98,208.23c-.2.92-.43,1.54-.7,1.86-.2.23-.42.35-.67.35-.19,0-.35-.08-.47-.23-.12-.15-.18-.41-.18-.79,0-.46.09-1.06.26-1.79.2-.85.44-1.44.71-1.77.19-.23.4-.35.64-.35.19,0,.35.08.47.23.12.15.18.4.18.75,0,.43-.08,1.01-.24,1.74Z"/>
        <path class="cls-13" d="M505.78,209.82c-.07.07-.15.16-.23.23-.31.29-.66.57-1.07.83-.06.04-.13.08-.19.12h-.02c-.44.27-.91.53-1.46.77l-.27,1.32c.31-.07.68-.19,1.08-.36.41-.17.76-.35,1.07-.55l-.7,3.4c.41.41.82.82,1.23,1.23l1.25-5.93h0s.18-.86.18-.86l.04-.21h-.9Z"/>
      </g>
    </g>
    <g id="Vor_dem_Regal" data-name="Vor dem Regal">
      <g>
        <path class="cls-13" d="M618.78,238.06c-1.79,1.9-4.34,3.57-7.62,5.01l-.72,3.4c.83-.18,1.76-.48,2.8-.9,1.04-.43,1.96-.9,2.76-1.41l-2.83,13.49h3.84l4.1-19.59h-2.32Z"/>
        <path class="cls-13" d="M657.8,234.73c-.83-.94-1.9-1.41-3.19-1.41s-2.44.49-3.48,1.47c-1.05.98-1.91,2.47-2.58,4.49-.54,1.65-.82,3.27-.82,4.88,0,1.77.42,3.13,1.26,4.07.84.93,1.91,1.4,3.2,1.4s2.46-.49,3.49-1.45c1.03-.97,1.85-2.37,2.45-4.18.61-1.82.91-3.54.91-5.18,0-1.79-.42-3.15-1.25-4.08ZM655.44,242.07c-.46,2.11-1,3.53-1.6,4.25-.45.53-.97.8-1.55.8-.43,0-.79-.17-1.06-.52-.28-.35-.42-.95-.42-1.81,0-1.06.19-2.42.59-4.1.46-1.94,1-3.29,1.63-4.06.43-.53.92-.8,1.47-.8.43,0,.79.18,1.07.53.28.35.42.93.42,1.73,0,.98-.18,2.31-.56,3.99Z"/>
        <path class="cls-13" d="M605.93,237.27c-.94-1.06-2.14-1.59-3.61-1.59s-2.76.55-3.95,1.66c-1.18,1.11-2.16,2.81-2.91,5.09-.62,1.87-.93,3.71-.93,5.53,0,2.01.48,3.54,1.43,4.61.95,1.06,2.16,1.59,3.63,1.59s2.78-.55,3.95-1.65c1.17-1.1,2.1-2.68,2.78-4.74.69-2.06,1.03-4.02,1.03-5.87,0-2.03-.47-3.57-1.41-4.63ZM603.26,245.59c-.53,2.39-1.13,4-1.82,4.81-.51.61-1.09.91-1.75.91-.5,0-.9-.19-1.21-.59-.32-.4-.47-1.08-.47-2.05,0-1.21.22-2.76.67-4.66.51-2.2,1.13-3.73,1.85-4.61.49-.6,1.04-.9,1.66-.9.5,0,.9.2,1.22.6.32.4.48,1.05.48,1.95,0,1.11-.21,2.62-.63,4.52Z"/>
        <path class="cls-13" d="M631.08,229.78c-1.6,1.7-3.86,3.19-6.79,4.47l-.64,3.03c.74-.16,1.57-.43,2.5-.8.92-.38,1.74-.8,2.45-1.26l-2.52,12.03h3.42l3.66-17.46h-2.07Z"/>
        <path class="cls-13" d="M654.18,256.72c-.64-.72-1.46-1.08-2.45-1.08s-1.88.38-2.68,1.13c-.8.75-1.46,1.9-1.98,3.45-.42,1.27-.63,2.52-.63,3.76,0,1.36.32,2.41.97,3.12.64.72,1.46,1.08,2.46,1.08s1.89-.38,2.68-1.12c.8-.75,1.42-1.82,1.89-3.22.47-1.4.7-2.73.7-3.99,0-1.37-.32-2.42-.96-3.14ZM652.36,262.36c-.35,1.63-.77,2.72-1.23,3.27-.35.41-.74.62-1.19.62-.34,0-.61-.14-.82-.4-.21-.27-.32-.73-.32-1.39,0-.82.15-1.87.45-3.16.35-1.49.77-2.54,1.26-3.12.33-.41.7-.61,1.13-.61.34,0,.61.14.83.41.21.27.32.71.32,1.33,0,.75-.14,1.78-.43,3.07Z"/>
        <path class="cls-13" d="M640.59,238.51c-1.52,1.61-3.67,3.03-6.46,4.24l-.61,2.88c.7-.15,1.49-.4,2.37-.76.88-.36,1.66-.76,2.34-1.19l-2.4,11.43h3.25l3.47-16.59h-1.97Z"/>
        <path class="cls-13" d="M627.66,274.35c-1.79,1.9-4.34,3.57-7.62,5.01l-.72,3.4c.83-.18,1.76-.48,2.8-.9,1.04-.43,1.96-.9,2.76-1.41l-2.83,13.49h3.84l4.1-19.59h-2.32Z"/>
        <path class="cls-13" d="M603.22,257.32c-1.37,1.44-3.29,2.71-5.78,3.8l-.54,2.58c.63-.13,1.33-.36,2.12-.68.79-.32,1.49-.68,2.09-1.07l-2.14,10.23h2.91l3.11-14.86h-1.76Z"/>
        <path class="cls-13" d="M600.58,275.54c-2.2,2.33-5.31,4.37-9.33,6.13l-.88,4.17c1.01-.22,2.15-.59,3.42-1.11,1.27-.52,2.39-1.1,3.37-1.73l-3.46,16.52h4.69l5.02-23.98h-2.84Z"/>
        <path class="cls-13" d="M618.19,263.5c-.94-1.06-2.14-1.59-3.61-1.59s-2.76.55-3.95,1.66c-1.18,1.11-2.16,2.81-2.91,5.09-.62,1.87-.93,3.71-.93,5.53,0,2.01.48,3.54,1.43,4.61.95,1.06,2.16,1.59,3.63,1.59s2.78-.55,3.95-1.65c1.17-1.1,2.1-2.68,2.78-4.74.69-2.06,1.03-4.02,1.03-5.87,0-2.03-.47-3.57-1.41-4.63ZM615.52,271.82c-.53,2.39-1.13,4-1.82,4.81-.51.61-1.09.91-1.75.91-.5,0-.9-.19-1.21-.59-.32-.4-.47-1.08-.47-2.05,0-1.21.22-2.76.67-4.66.51-2.2,1.13-3.73,1.85-4.61.49-.6,1.04-.9,1.66-.9.5,0,.9.2,1.22.6.32.4.48,1.05.48,1.95,0,1.11-.21,2.62-.63,4.52Z"/>
        <path class="cls-13" d="M618.09,286.58c-1.01-1.14-2.3-1.71-3.87-1.71s-2.97.6-4.24,1.79-2.32,3.01-3.12,5.45c-.66,2.01-.99,3.98-.99,5.94,0,2.15.51,3.79,1.54,4.94,1.01,1.14,2.3,1.7,3.88,1.7s2.98-.58,4.23-1.76c1.26-1.18,2.25-2.88,2.99-5.09.74-2.2,1.11-4.3,1.11-6.29,0-2.17-.51-3.83-1.52-4.97ZM615.22,295.5c-.56,2.57-1.21,4.29-1.95,5.16-.54.66-1.18.98-1.88.98-.52,0-.96-.22-1.29-.64-.34-.42-.5-1.16-.5-2.2,0-1.28.24-2.95.71-4.99.56-2.36,1.22-4,1.99-4.94.52-.65,1.12-.96,1.79-.96.53,0,.96.22,1.3.63.34.43.51,1.14.51,2.1,0,1.2-.23,2.81-.68,4.85Z"/>
        <path class="cls-13" d="M646.99,221.31c-.68-.77-1.55-1.15-2.61-1.15s-2,.4-2.86,1.21c-.86.8-1.56,2.03-2.11,3.68-.45,1.35-.67,2.69-.67,4.01,0,1.46.35,2.57,1.04,3.33.69.77,1.56,1.15,2.62,1.15s2.02-.39,2.86-1.19c.85-.8,1.52-1.94,2.02-3.43.5-1.49.75-2.91.75-4.25,0-1.47-.34-2.58-1.03-3.35ZM645.05,227.33c-.38,1.73-.82,2.9-1.31,3.49-.37.44-.79.66-1.27.66-.36,0-.65-.14-.88-.43-.23-.29-.34-.78-.34-1.48,0-.87.16-1.99.48-3.37.37-1.59.82-2.7,1.34-3.34.35-.43.75-.65,1.21-.65.36,0,.65.14.88.43s.35.76.35,1.42c0,.81-.16,1.9-.46,3.27Z"/>
        <path class="cls-13" d="M603.38,302.43c-.46-.52-1.05-.78-1.76-.78s-1.35.27-1.93.81c-.58.54-1.05,1.37-1.42,2.48-.3.91-.45,1.81-.45,2.7,0,.98.23,1.73.69,2.25.47.52,1.06.78,1.77.78s1.36-.27,1.93-.81c.57-.54,1.03-1.31,1.36-2.32.34-1.01.5-1.96.5-2.87,0-.99-.23-1.74-.69-2.26ZM602.07,306.49c-.26,1.17-.55,1.96-.89,2.35-.25.3-.54.45-.85.45-.24,0-.44-.1-.59-.29-.16-.19-.23-.52-.23-1,0-.59.11-1.34.33-2.28.25-1.07.56-1.82.91-2.25.24-.3.51-.44.81-.44.24,0,.44.1.59.29.16.19.23.51.23.96,0,.55-.1,1.28-.31,2.21Z"/>
        <path class="cls-13" d="M630.38,294.9c-1.79,1.9-4.34,3.57-7.62,5.01l-.72,3.4c.83-.18,1.76-.48,2.8-.9,1.04-.43,1.96-.9,2.76-1.41l-2.83,13.49h3.84l4.1-19.59h-2.32Z"/>
        <path class="cls-13" d="M629.78,255.33c-.64-.72-1.46-1.08-2.45-1.08s-1.88.38-2.68,1.13c-.8.75-1.46,1.9-1.98,3.45-.42,1.27-.63,2.52-.63,3.76,0,1.36.32,2.41.97,3.12.64.72,1.46,1.08,2.46,1.08s1.89-.38,2.68-1.12c.8-.75,1.42-1.82,1.89-3.22.47-1.4.7-2.73.7-3.99,0-1.37-.32-2.42-.96-3.14ZM627.97,260.98c-.35,1.63-.77,2.72-1.23,3.27-.35.41-.74.62-1.19.62-.34,0-.61-.14-.82-.4-.21-.27-.32-.73-.32-1.39,0-.82.15-1.87.45-3.16.35-1.49.77-2.54,1.26-3.12.33-.41.7-.61,1.13-.61.34,0,.61.14.83.41.21.27.32.71.32,1.33,0,.75-.14,1.78-.43,3.07Z"/>
        <path class="cls-13" d="M641.05,259.13c-1.79,1.9-4.34,3.57-7.62,5.01l-.72,3.4c.83-.18,1.76-.48,2.8-.9,1.04-.43,1.96-.9,2.76-1.41l-2.83,13.49h3.84l4.1-19.59h-2.32Z"/>
      </g>
      <g>
        <rect class="cls-8" x="551.36" y="391.62" width="93.82" height="83.02" transform="translate(1196.55 866.26) rotate(180)"/>
        <g>
          <rect class="cls-7" x="545.59" y="375.94" width="105.58" height="19.72" transform="translate(1196.75 771.61) rotate(180)"/>
          <path class="cls-7" d="M545.74,375.94h105.42c-4.15-1.72-8.3-3.44-12.44-5.16-13.42.01-26.85.02-40.27.04-13.42-.01-26.85-.02-40.27-.04-4.15,1.72-8.29,3.44-12.44,5.16Z"/>
        </g>
        <rect class="cls-2" x="574.72" y="438.03" width="47.11" height="18.99" transform="translate(1196.55 895.05) rotate(180)"/>
        <rect class="cls-4" x="579.76" y="447.52" width="37.24" height="6.08" transform="translate(1196.75 901.13) rotate(180)"/>
      </g>
      <g>
        <rect class="cls-24" x="551.44" y="290.79" width="93.82" height="83.02" transform="translate(1196.71 664.61) rotate(180)"/>
        <g>
          <rect class="cls-16" x="497.37" y="303.17" width="105.58" height="19.72" transform="translate(1121.18 39.89) rotate(124.8)"/>
          <path class="cls-5" d="M512.03,350.62l60.16-86.57c-3.78,2.43-7.56,4.85-11.34,7.27-7.65,11.03-15.3,22.06-22.95,33.09-7.67,11.02-15.34,22.03-23.01,33.05-.95,4.39-1.91,8.77-2.87,13.16Z"/>
        </g>
        <rect class="cls-16" x="574.8" y="337.2" width="47.11" height="18.99" transform="translate(1196.71 693.39) rotate(180)"/>
        <rect class="cls-4" x="579.83" y="346.7" width="37.24" height="6.08" transform="translate(1196.91 699.48) rotate(180)"/>
      </g>
      <g>
        <path class="cls-10" d="M567.36,479.05c3.86.29,7.73.59,11.59.88-.77-.53-1.55-1.05-2.32-1.58-3.09.23-6.18.47-9.27.7Z"/>
        <polygon class="cls-14" points="495.37 436.47 495.37 483.18 578.95 483.18 578.95 479.93 577.18 479.8 567.36 479.05 576.25 478.38 578.95 478.18 578.95 469.4 569.69 468.37 556.12 466.85 578.95 466.85 578.95 436.47 495.37 436.47"/>
        <path class="cls-11" d="M495.37,436.47v46.71h-26.87v-10.22c4.89-.26,9.78-.52,14.66-.79l-14.66-1.33v-34.38h26.87Z"/>
        <polygon class="cls-17" points="457.87 408.73 457.87 417.36 462.83 417.95 457.87 418.53 457.87 430.24 466.92 430.9 457.87 431.56 457.87 436.47 480.79 436.47 480.79 408.73 457.87 408.73"/>
        <polygon class="cls-24" points="480.79 408.73 480.79 436.47 561.12 436.47 561.12 418.76 543.48 417.33 561.12 416.82 561.12 408.73 480.79 408.73"/>
        <polygon class="cls-14" points="486.54 361.93 486.54 389.68 566.88 389.68 566.88 385.43 558.21 384.23 566.88 383.72 566.88 361.93 486.54 361.93"/>
        <polygon class="cls-11" points="463.62 373.89 471.94 374.62 463.62 375.32 463.62 389.68 486.54 389.68 486.54 361.93 463.62 361.93 463.62 373.89"/>
        <polygon class="cls-23" points="472.37 389.68 472.37 408.73 552.7 408.73 552.7 402.08 542.87 401.09 552.7 400.1 552.7 389.68 472.37 389.68"/>
        <polygon class="cls-8" points="449.44 405.76 457.26 406.31 449.44 406.87 449.44 408.73 472.37 408.73 472.37 389.68 449.44 389.68 449.44 405.76"/>
        <path class="cls-10" d="M562.28,380.07c-5.04.41-11.51,1.42-18.73,3.83-6.24,2.08-11.37,4.66-15.32,7-.45-1.18-1.42-3.28-3.48-5.23-2.37-2.25-4.92-3.08-6.17-3.41,6.82.02,13.98-.13,21.43-.5,7.78-.38,15.22-.97,22.28-1.7Z"/>
        <path class="cls-2" d="M472.37,389.68c3.81,1.9,10.06,4.43,18.16,5.21,8.77.85,15.86-.71,20.06-1.98-3.52.05-7.37-.05-11.5-.4-4.49-.37-8.62-.97-12.33-1.67-4.8-.39-9.59-.78-14.39-1.17Z"/>
        <path class="cls-16" d="M550.94,422.6c-.77.5-2.26,1.61-3.31,3.6-.77,1.45-1,2.8-1.08,3.64-2.17-.96-4.54-1.9-7.09-2.76-5.59-1.89-10.78-2.98-15.3-3.6,8.93-.29,17.85-.59,26.78-.88Z"/>
        <path class="cls-16" d="M525.48,413.47c-.86.28-3.7,1.33-5.6,4.3-1.43,2.25-1.6,4.46-1.61,5.44-3.19-1.61-7.7-3.6-13.31-5.18-10.29-2.89-18.07-2.63-18.07-3.05,0-.42,7.53-.95,38.59-1.51Z"/>
        <path class="cls-10" d="M575.01,430.42c1.31,2.02,2.63,4.03,3.94,6.05-4.07,1.85-10.6,4.22-18.95,4.74-6.77.42-12.41-.52-16.33-1.5,4.83.03,11.94-.53,19.89-3.47,4.68-1.73,8.5-3.87,11.45-5.82Z"/>
        <path class="cls-10" d="M569.21,445.47c-8.91.74-20.4,2.61-33.1,7.2-8.12,2.94-15.04,6.37-20.72,9.66-.73-1.81-2.42-5.31-6.06-8.34-4.38-3.66-9.04-4.5-10.98-4.74,23.62-1.26,47.24-2.52,70.86-3.78Z"/>
        <path class="cls-10" d="M485.15,452.22c-3.4.06-7.16.31-11.22.83-3.61.47-6.94,1.1-9.94,1.8,1.32-1.27,2.7-2.55,4.15-3.84.79-.7,1.57-1.38,2.35-2.04,4.89,1.08,9.78,2.17,14.66,3.25Z"/>
        <path class="cls-20" d="M483.16,451.75c-3.4.06-7.16.31-11.22.83-3.61.47-6.94,1.1-9.94,1.8,1.32-1.27,2.7-2.55,4.15-3.84.79-.7,1.57-1.38,2.35-2.04,4.89,1.08,9.78,2.17,14.66,3.25Z"/>
        <path class="cls-20" d="M575.14,429.86l3.81,6.63c-4.23,1.62-10.53,3.47-18.33,3.81-6.42.28-11.83-.54-15.79-1.45,4.68.03,11.55-.51,19.24-3.36,4.53-1.68,8.23-3.74,11.07-5.63Z"/>
        <path class="cls-20" d="M569.73,444.46c-8.91.74-20.4,2.61-33.1,7.2-8.12,2.94-15.04,6.37-20.72,9.66-.73-1.81-2.42-5.31-6.06-8.34-4.38-3.66-9.04-4.5-10.98-4.74,23.62-1.26,47.24-2.52,70.86-3.78Z"/>
        <polygon class="cls-10" points="509.85 462.33 495.37 465.54 487.29 462.33 495.37 462.81 509.85 462.33"/>
        <polygon class="cls-10" points="567.54 459.21 538.56 459.83 539.62 459.21 567.54 459.21"/>
        <polygon class="cls-10" points="530.75 474.4 530.75 475.28 504.58 474.84 530.75 474.4"/>
        <polygon class="cls-10" points="495.37 444.99 495.37 446.57 488.69 445.47 495.37 444.99"/>
        <polygon class="cls-10" points="495.37 436.47 468.5 444.99 468.5 436.47 495.37 436.47"/>
        <path class="cls-21" d="M550.94,422.6c-.77.47-2,1.34-3.07,2.81-.97,1.32-1.43,2.59-1.67,3.42-1.98-.89-4.14-1.76-6.5-2.55-5.24-1.76-10.09-2.68-14.22-3.16,8.49-.18,16.97-.35,25.46-.53Z"/>
        <path class="cls-21" d="M525.48,413.47c-.99.3-3.37,1.17-5.36,3.51-1.69,2-2.25,4.07-2.46,5.09-3.41-1.69-7.58-3.43-12.47-4.83-6.71-1.92-12.73-2.62-17.47-2.81,12.58-.32,25.17-.64,37.75-.97Z"/>
        <polygon class="cls-16" points="491.59 424.88 480.79 427.08 475.43 424.88 481.05 425.32 491.59 424.88"/>
        <polygon class="cls-2" points="477.81 402.67 472.58 403.46 470.61 403.07 472.58 404.34 477.81 402.67"/>
        <polygon class="cls-2" points="510.38 400.56 510.38 401.7 490.89 401.7 510.38 400.56"/>
        <polygon class="cls-2" points="475.43 394.59 472.36 395.47 469.33 394.59 472.38 394.59 475.43 394.59"/>
        <polygon class="cls-10" points="553.2 374.62 522.72 373.89 522.72 374.62 553.2 374.62"/>
        <polygon class="cls-10" points="513.76 367.7 497.82 368.1 513.76 368.49 513.76 367.7"/>
        <polygon class="cls-10" points="496.44 379.03 486.3 381.01 478.2 380.02 486.1 380.02 496.44 379.03"/>
        <path class="cls-15" d="M472.37,389.68c4.19,1.64,10.33,3.51,17.95,4.04,8.5.59,15.48-.73,20.06-1.98-3.52.05-7.37-.05-11.5-.4-4.49-.37-8.62-.97-12.33-1.67h-14.18Z"/>
        <path class="cls-20" d="M560.45,379.62c-4.67.38-10.69,1.32-17.38,3.56-5.79,1.93-10.55,4.32-14.22,6.5-.41-1.09-1.32-3.05-3.23-4.85-2.2-2.09-4.57-2.86-5.73-3.16,6.33.02,12.97-.12,19.89-.46,7.22-.36,14.12-.9,20.68-1.58Z"/>
        <path class="cls-2" d="M469.78,399.57c-2.96.47-6.24,1.17-9.75,2.22-2.18.65-4.2,1.36-6.06,2.09-.5-.79-1.02-1.6-1.58-2.41-.56-.82-1.12-1.61-1.67-2.37,3.32.14,6.68.25,10.1.33,3.02.07,6.01.12,8.96.15Z"/>
        <path class="cls-15" d="M469.78,398.94c-2.96.47-6.24,1.17-9.75,2.22-2.18.65-4.2,1.36-6.06,2.09-.5-.79-1.02-1.6-1.58-2.41-.56-.82-1.12-1.61-1.67-2.37,3.32.14,6.68.25,10.1.33,3.02.07,6.01.12,8.96.15Z"/>
        <path class="cls-12" d="M480.79,408.73l-22.92,8.6v-8.6h22.92Z"/>
        <path class="cls-10" d="M556.12,466.85c7.61.85,15.22,1.7,22.83,2.55-1.84-.85-3.69-1.7-5.53-2.55h-17.3Z"/>
        <path class="cls-16" d="M457.87,418.53c.53-.33,1.07-.65,1.6-.98,1.12.13,2.24.26,3.36.4l-4.96.58Z"/>
        <polygon class="cls-16" points="457.87 431.56 459.47 430.36 466.92 430.9 457.87 431.56"/>
        <polygon class="cls-2" points="449.44 406.87 451.25 405.89 457.26 406.31 449.44 406.87"/>
        <polygon class="cls-10" points="463.62 375.32 465.26 374.04 471.94 374.62 463.62 375.32"/>
        <polygon class="cls-10" points="566.88 385.43 564.5 383.86 558.21 384.23 566.88 385.43"/>
        <polygon class="cls-2" points="552.7 402.08 549.53 400.42 542.87 401.09 552.7 402.08"/>
        <polygon class="cls-16" points="561.12 418.76 557.44 416.93 543.48 417.33 561.12 418.76"/>
        <path class="cls-20" d="M533.78,361.93c-5.52.3-15.29-.04-25.06-5.58-2.6-1.47-4.82-3.1-6.68-4.69-.35,1.29-1.27,3.94-3.69,6.32-3.21,3.17-6.99,3.8-8.25,3.95h43.68Z"/>
      </g>
    </g>
    <g id="Regalboden_mitte" data-name="Regalboden mitte">
      <g>
        <path class="cls-2" d="M306.8,118.83v77.34c-1.74.53-4.44,1.16-7.78,1.09-2.84-.06-5.18-.6-6.79-1.09v-77.34c1.76-.46,4.24-.94,7.24-.94,3.03-.01,5.55.47,7.32.94Z"/>
        <rect class="cls-7" x="292.24" y="129.32" width="14.56" height="2.53"/>
        <rect class="cls-7" x="292.24" y="133.49" width="14.56" height="2.53"/>
        <rect class="cls-7" x="292.24" y="180.08" width="14.56" height="6.86"/>
      </g>
      <g>
        <path class="cls-16" d="M336.55,134.31l3.54,61.72c-1.37.51-3.49,1.13-6.16,1.23-2.27.08-4.16-.24-5.47-.56l-3.54-61.72c1.38-.45,3.34-.95,5.74-1.08,2.42-.15,4.45.12,5.88.42Z"/>
        <rect class="cls-24" x="325.45" y="143.01" width="11.64" height="2.03" transform="translate(-7.7 19.2) rotate(-3.28)"/>
        <rect class="cls-24" x="325.64" y="146.35" width="11.64" height="2.03" transform="translate(-7.89 19.22) rotate(-3.28)"/>
        <rect class="cls-24" x="327.87" y="183.52" width="11.64" height="5.49" transform="translate(-10.12 19.41) rotate(-3.28)"/>
      </g>
      <g>
        <path class="cls-7" d="M324.3,125.19l4.04,70.52c-2.05.61-5.24,1.36-9.22,1.53-3.39.14-6.21-.19-8.15-.53l-4.04-70.52c2.07-.54,5.01-1.15,8.59-1.35,3.61-.22,6.64.05,8.78.36Z"/>
        <ellipse class="cls-2" cx="318.49" cy="175.82" rx="6.05" ry="7.53" transform="translate(-9.54 18.52) rotate(-3.28)"/>
        <rect class="cls-2" x="310.44" y="185.89" width="17.39" height="2.5" transform="translate(-10.19 18.58) rotate(-3.28)"/>
        <rect class="cls-2" x="307.9" y="141.43" width="17.39" height="2.5" transform="translate(-7.65 18.36) rotate(-3.28)"/>
        <rect class="cls-2" x="307.7" y="138" width="17.39" height="2.5" transform="translate(-7.45 18.34) rotate(-3.28)"/>
        <rect class="cls-2" x="307.5" y="134.56" width="17.39" height="2.5" transform="translate(-7.26 18.32) rotate(-3.28)"/>
      </g>
      <g>
        <path class="cls-11" d="M335.91,126.48l6.56,71.52c2.15.3,5.47.58,9.5.15,3.43-.37,6.22-1.13,8.11-1.76l-6.56-71.52c-2.16-.23-5.21-.4-8.84-.07-3.66.32-6.67,1.05-8.77,1.68Z"/>
        <ellipse class="cls-22" cx="349.38" cy="176.51" rx="6.15" ry="7.65" transform="translate(-14.66 32.65) rotate(-5.24)"/>
        <rect class="cls-13" x="341.59" y="186.72" width="17.68" height="2.54" transform="translate(-15.7 32.79) rotate(-5.24)"/>
        <rect class="cls-13" x="337.46" y="141.64" width="17.68" height="2.54" transform="translate(-11.6 32.22) rotate(-5.24)"/>
        <rect class="cls-13" x="337.14" y="138.15" width="17.68" height="2.54" transform="translate(-11.29 32.18) rotate(-5.24)"/>
        <rect class="cls-13" x="336.82" y="134.67" width="17.68" height="2.54" transform="translate(-10.97 32.14) rotate(-5.24)"/>
      </g>
      <g>
        <path class="cls-13" d="M456.9,115.73c-1.79,1.9-4.34,3.57-7.62,5.01l-.72,3.4c.83-.18,1.76-.48,2.8-.9,1.04-.43,1.96-.9,2.76-1.41l-2.83,13.49h3.84l4.1-19.59h-2.32Z"/>
        <path class="cls-13" d="M470.28,100.11c-.83-.94-1.9-1.41-3.19-1.41s-2.44.49-3.48,1.47c-1.05.98-1.91,2.47-2.58,4.49-.54,1.65-.82,3.27-.82,4.88,0,1.77.42,3.13,1.26,4.07.84.93,1.91,1.4,3.2,1.4s2.46-.49,3.49-1.45c1.03-.97,1.85-2.37,2.45-4.18.61-1.82.91-3.54.91-5.18,0-1.79-.42-3.15-1.25-4.08ZM467.92,107.45c-.46,2.11-1,3.53-1.6,4.25-.45.53-.97.8-1.55.8-.43,0-.79-.17-1.06-.52-.28-.35-.42-.95-.42-1.81,0-1.06.19-2.42.59-4.1.46-1.94,1-3.29,1.63-4.06.43-.53.92-.8,1.47-.8.43,0,.79.18,1.07.53.28.35.42.93.42,1.73,0,.98-.18,2.31-.56,3.99Z"/>
        <path class="cls-13" d="M447.43,104.88c-.94-1.06-2.14-1.59-3.61-1.59s-2.76.55-3.95,1.66c-1.18,1.11-2.16,2.81-2.91,5.09-.62,1.87-.93,3.71-.93,5.53,0,2.01.48,3.54,1.43,4.61.95,1.06,2.16,1.59,3.63,1.59s2.78-.55,3.95-1.65c1.17-1.1,2.1-2.68,2.78-4.74.69-2.06,1.03-4.02,1.03-5.87,0-2.03-.47-3.57-1.41-4.63ZM444.76,113.2c-.53,2.39-1.13,4-1.82,4.81-.51.61-1.09.91-1.75.91-.5,0-.9-.19-1.21-.59-.32-.4-.47-1.08-.47-2.05,0-1.21.22-2.76.67-4.66.51-2.2,1.13-3.73,1.85-4.61.49-.6,1.04-.9,1.66-.9.5,0,.9.2,1.22.6.32.4.48,1.05.48,1.95,0,1.11-.21,2.62-.63,4.52Z"/>
        <path class="cls-13" d="M456.57,94.56c-1.6,1.7-3.86,3.19-6.79,4.47l-.64,3.03c.74-.16,1.57-.43,2.5-.8.92-.38,1.74-.8,2.45-1.26l-2.52,12.03h3.42l3.66-17.46h-2.07Z"/>
        <path class="cls-13" d="M456.88,80.48c-.64-.72-1.46-1.08-2.45-1.08s-1.88.38-2.68,1.13c-.8.75-1.46,1.9-1.98,3.45-.42,1.27-.63,2.52-.63,3.76,0,1.36.32,2.41.97,3.12.64.72,1.46,1.08,2.46,1.08s1.89-.38,2.68-1.12c.8-.75,1.42-1.82,1.89-3.22.47-1.4.7-2.73.7-3.99,0-1.37-.32-2.42-.96-3.14ZM455.06,86.13c-.35,1.63-.77,2.72-1.23,3.27-.35.41-.74.62-1.19.62-.34,0-.61-.14-.82-.4-.21-.27-.32-.73-.32-1.39,0-.82.15-1.87.45-3.16.35-1.49.77-2.54,1.26-3.12.33-.41.7-.61,1.13-.61.34,0,.61.14.83.41.21.27.32.71.32,1.33,0,.75-.14,1.78-.43,3.07Z"/>
        <path class="cls-13" d="M444.23,83.58c-1.52,1.61-3.67,3.03-6.46,4.24l-.61,2.88c.7-.15,1.49-.4,2.37-.76.88-.36,1.66-.76,2.34-1.19l-2.4,11.43h3.25l3.47-16.59h-1.97Z"/>
        <path class="cls-13" d="M506.74,124.35c-1.79,1.9-4.34,3.57-7.62,5.01l-.72,3.4c.83-.18,1.76-.48,2.8-.9,1.04-.43,1.96-.9,2.76-1.41l-2.83,13.49h3.84l4.1-19.59h-2.32Z"/>
        <path class="cls-13" d="M482.3,107.31c-1.37,1.44-3.29,2.71-5.78,3.8l-.54,2.58c.63-.13,1.33-.36,2.12-.68.79-.32,1.49-.68,2.09-1.07l-2.14,10.23h2.91l3.11-14.86h-1.76Z"/>
        <path class="cls-13" d="M479.65,125.53c-2.2,2.33-5.31,4.37-9.33,6.13l-.88,4.17c1.01-.22,2.15-.59,3.42-1.11,1.27-.52,2.39-1.1,3.37-1.73l-3.46,16.52h4.69l5.02-23.98h-2.84Z"/>
        <path class="cls-13" d="M497.27,113.49c-.94-1.06-2.14-1.59-3.61-1.59s-2.76.55-3.95,1.66c-1.18,1.11-2.16,2.81-2.91,5.09-.62,1.87-.93,3.71-.93,5.53,0,2.01.48,3.54,1.43,4.61.95,1.06,2.16,1.59,3.63,1.59s2.78-.55,3.95-1.65c1.17-1.1,2.1-2.68,2.78-4.74.69-2.06,1.03-4.02,1.03-5.87,0-2.03-.47-3.57-1.41-4.63ZM494.6,121.81c-.53,2.39-1.13,4-1.82,4.81-.51.61-1.09.91-1.75.91-.5,0-.9-.19-1.21-.59-.32-.4-.47-1.08-.47-2.05,0-1.21.22-2.76.67-4.66.51-2.2,1.13-3.73,1.85-4.61.49-.6,1.04-.9,1.66-.9.5,0,.9.2,1.22.6.32.4.48,1.05.48,1.95,0,1.11-.21,2.62-.63,4.52Z"/>
        <path class="cls-13" d="M497.17,136.57c-1.01-1.14-2.3-1.71-3.87-1.71s-2.97.6-4.24,1.79c-1.27,1.19-2.32,3.01-3.12,5.45-.66,2.01-.99,3.98-.99,5.94,0,2.15.51,3.79,1.54,4.94,1.01,1.14,2.3,1.7,3.88,1.7s2.98-.58,4.23-1.76c1.26-1.18,2.25-2.88,2.99-5.09.74-2.2,1.11-4.3,1.11-6.29,0-2.17-.51-3.83-1.52-4.97ZM494.3,145.5c-.56,2.57-1.21,4.29-1.95,5.16-.54.66-1.18.98-1.88.98-.52,0-.96-.22-1.29-.64-.34-.42-.5-1.16-.5-2.2,0-1.28.24-2.95.71-4.99.56-2.36,1.22-4,1.99-4.94.52-.65,1.12-.96,1.79-.96.53,0,.96.22,1.3.63.34.43.51,1.14.51,2.1,0,1.2-.23,2.81-.68,4.85Z"/>
        <path class="cls-13" d="M469.5,118.81c-.68-.77-1.55-1.15-2.61-1.15s-2,.4-2.86,1.21c-.86.8-1.56,2.03-2.11,3.68-.45,1.35-.67,2.69-.67,4.01,0,1.46.35,2.57,1.04,3.33.69.77,1.56,1.15,2.62,1.15s2.02-.39,2.86-1.19c.85-.8,1.52-1.94,2.02-3.43.5-1.49.75-2.91.75-4.25,0-1.47-.34-2.58-1.03-3.35ZM467.56,124.84c-.38,1.73-.82,2.9-1.31,3.49-.37.44-.79.66-1.27.66-.36,0-.65-.14-.88-.43-.23-.29-.34-.78-.34-1.48,0-.87.16-1.99.48-3.37.37-1.59.82-2.7,1.34-3.34.35-.43.75-.65,1.21-.65.36,0,.65.14.88.43s.35.76.35,1.42c0,.81-.16,1.9-.46,3.27Z"/>
        <path class="cls-13" d="M482.46,152.42c-.46-.52-1.05-.78-1.76-.78s-1.35.27-1.93.81c-.58.54-1.05,1.37-1.42,2.48-.3.91-.45,1.81-.45,2.7,0,.98.23,1.73.69,2.25.47.52,1.06.78,1.77.78s1.36-.27,1.93-.81c.57-.54,1.03-1.31,1.36-2.32.34-1.01.5-1.96.5-2.87,0-.99-.23-1.74-.69-2.26ZM481.15,156.49c-.26,1.17-.55,1.96-.89,2.35-.25.3-.54.45-.85.45-.24,0-.44-.1-.59-.29-.16-.19-.23-.52-.23-1,0-.59.11-1.34.33-2.28.25-1.07.56-1.82.91-2.25.24-.3.51-.44.81-.44.24,0,.44.1.59.29.16.19.23.51.23.96,0,.55-.1,1.28-.31,2.21Z"/>
        <path class="cls-13" d="M509.46,144.89c-1.79,1.9-4.34,3.57-7.62,5.01l-.72,3.4c.83-.18,1.76-.48,2.8-.9,1.04-.43,1.96-.9,2.76-1.41l-2.83,13.49h3.84l4.1-19.59h-2.32Z"/>
        <path class="cls-13" d="M481.98,95.3c-.64-.72-1.46-1.08-2.45-1.08s-1.88.38-2.68,1.13c-.8.75-1.46,1.9-1.98,3.45-.42,1.27-.63,2.52-.63,3.76,0,1.36.32,2.41.97,3.12.64.72,1.46,1.08,2.46,1.08s1.89-.38,2.68-1.12c.8-.75,1.42-1.82,1.89-3.22.47-1.4.7-2.73.7-3.99,0-1.37-.32-2.42-.96-3.14ZM480.16,100.94c-.35,1.63-.77,2.72-1.23,3.27-.35.41-.74.62-1.19.62-.34,0-.61-.14-.82-.4-.21-.27-.32-.73-.32-1.39,0-.82.15-1.87.45-3.16.35-1.49.77-2.54,1.26-3.12.33-.41.7-.61,1.13-.61.34,0,.61.14.83.41.21.27.32.71.32,1.33,0,.75-.14,1.78-.43,3.07Z"/>
        <path class="cls-13" d="M469.45,75.8c-1.79,1.9-4.34,3.57-7.62,5.01l-.72,3.4c.83-.18,1.76-.48,2.8-.9,1.04-.43,1.96-.9,2.76-1.41l-2.83,13.49h3.84l4.1-19.59h-2.32Z"/>
      </g>
      <g>
        <rect class="cls-20" x="464.9" y="138.55" width="67.18" height="59.45"/>
        <rect class="cls-18" x="481.62" y="171.77" width="33.73" height="13.6"/>
        <rect class="cls-4" x="485.08" y="178.57" width="26.67" height="4.36"/>
      </g>
      <g>
        <rect class="cls-10" x="501.68" y="154.54" width="75.6" height="14.12" transform="translate(381.26 -378.88) rotate(57.01)"/>
        <path class="cls-3" d="M565.93,189.37l-41.1-63.31c2.65,1.82,5.3,3.64,7.95,5.46,5.23,8.07,10.45,16.13,15.68,24.2,5.24,8.06,10.48,16.11,15.72,24.17.58,3.16,1.17,6.32,1.75,9.48Z"/>
      </g>
      <g>
        <polygon class="cls-17" points="374.96 175.85 374.96 182.44 378.74 182.89 374.96 183.33 374.96 192.26 381.86 192.77 374.96 193.27 374.96 197.02 392.45 197.02 392.45 175.85 374.96 175.85"/>
        <polygon class="cls-24" points="392.45 175.85 392.45 197.02 453.73 197.02 453.73 183.51 440.28 182.41 453.73 182.03 453.73 175.85 392.45 175.85"/>
        <polygon class="cls-23" points="386.02 161.32 386.02 175.85 447.31 175.85 447.31 170.78 439.81 170.02 447.31 169.27 447.31 161.32 386.02 161.32"/>
        <polygon class="cls-8" points="368.53 173.59 374.5 174.01 368.53 174.43 368.53 175.85 386.02 175.85 386.02 161.32 368.53 161.32 368.53 173.59"/>
        <path class="cls-2" d="M386.02,161.32c2.91,1.45,7.68,3.38,13.86,3.98,6.69.65,12.1-.54,15.31-1.51-2.69.04-5.62-.04-8.78-.3-3.43-.28-6.58-.74-9.41-1.27-3.66-.3-7.32-.6-10.98-.9Z"/>
        <path class="cls-16" d="M445.97,186.43c-.59.38-1.73,1.23-2.53,2.75-.59,1.11-.76,2.14-.82,2.78-1.66-.74-3.46-1.45-5.41-2.11-4.26-1.44-8.23-2.27-11.67-2.75,6.81-.22,13.62-.45,20.43-.67Z"/>
        <path class="cls-16" d="M426.54,179.47c-.66.21-2.82,1.01-4.27,3.28-1.09,1.72-1.22,3.4-1.23,4.15-2.43-1.23-5.87-2.75-10.16-3.95-7.85-2.2-13.78-2.01-13.78-2.33,0-.32,5.74-.72,29.44-1.16Z"/>
        <path class="cls-21" d="M445.97,186.43c-.59.36-1.52,1.02-2.34,2.14-.74,1-1.09,1.98-1.27,2.61-1.51-.68-3.16-1.34-4.96-1.94-4-1.34-7.7-2.05-10.85-2.41,6.48-.13,12.95-.27,19.43-.4Z"/>
        <path class="cls-21" d="M426.54,179.47c-.76.23-2.57.9-4.09,2.68-1.29,1.52-1.72,3.11-1.88,3.89-2.6-1.29-5.79-2.62-9.51-3.68-5.12-1.47-9.71-2-13.33-2.14,9.6-.25,19.2-.49,28.8-.74Z"/>
        <polygon class="cls-16" points="400.69 188.18 392.45 189.85 388.36 188.18 392.65 188.51 400.69 188.18"/>
        <polygon class="cls-2" points="390.17 171.23 386.18 171.83 384.68 171.53 386.18 172.5 390.17 171.23"/>
        <polygon class="cls-2" points="415.02 169.62 415.02 170.49 400.15 170.49 415.02 169.62"/>
        <polygon class="cls-2" points="388.36 165.07 386.02 165.74 383.7 165.07 386.03 165.07 388.36 165.07"/>
        <path class="cls-15" d="M386.02,161.32c3.2,1.25,7.88,2.68,13.69,3.08,6.48.45,11.81-.56,15.31-1.51-2.69.04-5.62-.04-8.78-.3-3.43-.28-6.58-.74-9.41-1.27h-10.81Z"/>
        <path class="cls-2" d="M384.05,168.86c-2.26.36-4.76.9-7.44,1.69-1.66.49-3.2,1.03-4.62,1.59-.38-.6-.78-1.22-1.21-1.84-.43-.63-.85-1.23-1.27-1.81,2.53.1,5.1.19,7.7.25,2.3.06,4.58.1,6.83.12Z"/>
        <path class="cls-15" d="M384.05,168.38c-2.26.36-4.76.9-7.44,1.69-1.66.49-3.2,1.03-4.62,1.59-.38-.6-.78-1.22-1.21-1.84-.43-.63-.85-1.23-1.27-1.81,2.53.1,5.1.19,7.7.25,2.3.06,4.58.1,6.83.12Z"/>
        <path class="cls-12" d="M392.45,175.85l-17.49,6.56v-6.56h17.49Z"/>
        <path class="cls-16" d="M374.96,183.33c.41-.25.82-.5,1.22-.75.85.1,1.71.2,2.56.3l-3.79.44Z"/>
        <polygon class="cls-2" points="368.53 174.43 369.91 173.68 374.5 174.01 368.53 174.43"/>
        <polygon class="cls-2" points="447.31 170.78 444.89 169.51 439.81 170.02 447.31 170.78"/>
        <polygon class="cls-16" points="453.73 183.51 450.92 182.11 440.28 182.41 453.73 183.51"/>
      </g>
    </g>
    <g id="Regalboden_oben" data-name="Regalboden oben">
      <g>
        <path class="cls-16" d="M292.63,25.59v77.68c1.75.54,4.46,1.16,7.81,1.1,2.85-.06,5.2-.6,6.82-1.1V25.59c-1.76-.46-4.26-.95-7.28-.95-3.04-.01-5.57.47-7.35.95Z"/>
        <rect class="cls-24" x="292.63" y="36.12" width="14.63" height="2.54"/>
        <rect class="cls-24" x="292.63" y="40.32" width="14.63" height="2.54"/>
        <rect class="cls-24" x="292.63" y="87.11" width="14.63" height="6.89"/>
      </g>
      <g>
        <path class="cls-13" d="M273.13,110.98c-1.79,1.9-4.34,3.57-7.62,5.01l-.72,3.4c.83-.18,1.76-.48,2.8-.9,1.04-.43,1.96-.9,2.76-1.41l-2.83,13.49h3.84l4.1-19.59h-2.32Z"/>
        <path class="cls-13" d="M314.71,105.88c-.83-.94-1.9-1.41-3.19-1.41s-2.44.49-3.48,1.47c-1.05.98-1.91,2.47-2.58,4.49-.54,1.65-.82,3.27-.82,4.88,0,1.77.42,3.13,1.26,4.07.84.93,1.91,1.4,3.2,1.4s2.46-.49,3.49-1.45c1.03-.97,1.85-2.37,2.45-4.18.61-1.82.91-3.54.91-5.18,0-1.79-.42-3.15-1.25-4.08ZM312.35,113.22c-.46,2.11-1,3.53-1.6,4.25-.45.53-.97.8-1.55.8-.43,0-.79-.17-1.06-.52-.28-.35-.42-.95-.42-1.81,0-1.06.19-2.42.59-4.1.46-1.94,1-3.29,1.63-4.06.43-.53.92-.8,1.47-.8.43,0,.79.18,1.07.53.28.35.42.93.42,1.73,0,.98-.18,2.31-.56,3.99Z"/>
        <path class="cls-13" d="M285.45,104.54c-1.6,1.7-3.86,3.19-6.79,4.47l-.64,3.03c.74-.16,1.57-.43,2.5-.8.92-.38,1.74-.8,2.45-1.26l-2.52,12.03h3.42l3.66-17.46h-2.07Z"/>
        <path class="cls-13" d="M311.09,127.87c-.64-.72-1.46-1.08-2.45-1.08s-1.88.38-2.68,1.13c-.8.75-1.46,1.9-1.98,3.45-.42,1.27-.63,2.52-.63,3.76,0,1.36.32,2.41.97,3.12.64.72,1.46,1.08,2.46,1.08s1.89-.38,2.68-1.12c.8-.75,1.42-1.82,1.89-3.22.47-1.4.7-2.73.7-3.99,0-1.37-.32-2.42-.96-3.14ZM309.27,133.52c-.35,1.63-.77,2.72-1.23,3.27-.35.41-.74.62-1.19.62-.34,0-.61-.14-.82-.4-.21-.27-.32-.73-.32-1.39,0-.82.15-1.87.45-3.16.35-1.49.77-2.54,1.26-3.12.33-.41.7-.61,1.13-.61.34,0,.61.14.83.41.21.27.32.71.32,1.33,0,.75-.14,1.78-.43,3.07Z"/>
        <path class="cls-13" d="M297.5,109.67c-1.52,1.61-3.67,3.03-6.46,4.24l-.61,2.88c.7-.15,1.49-.4,2.37-.76.88-.36,1.66-.76,2.34-1.19l-2.4,11.43h3.25l3.47-16.59h-1.97Z"/>
        <path class="cls-13" d="M284.57,145.51c-1.79,1.9-4.34,3.57-7.62,5.01l-.72,3.4c.83-.18,1.76-.48,2.8-.9,1.04-.43,1.96-.9,2.76-1.41l-2.83,13.49h3.84l4.1-19.59h-2.32Z"/>
        <path class="cls-13" d="M260.13,128.48c-1.37,1.44-3.29,2.71-5.78,3.8l-.54,2.58c.63-.13,1.33-.36,2.12-.68.79-.32,1.49-.68,2.09-1.07l-2.14,10.23h2.91l3.11-14.86h-1.76Z"/>
        <path class="cls-13" d="M257.48,146.69c-2.2,2.33-5.31,4.37-9.33,6.13l-.88,4.17c1.01-.22,2.15-.59,3.42-1.11s2.39-1.1,3.37-1.73l-3.46,16.52h4.69l5.02-23.98h-2.84Z"/>
        <path class="cls-13" d="M275.1,134.65c-.94-1.06-2.14-1.59-3.61-1.59s-2.76.55-3.95,1.66c-1.18,1.11-2.16,2.81-2.91,5.09-.62,1.87-.93,3.71-.93,5.53,0,2.01.48,3.54,1.43,4.61.95,1.06,2.16,1.59,3.63,1.59s2.78-.55,3.95-1.65c1.17-1.1,2.1-2.68,2.78-4.74.69-2.06,1.03-4.02,1.03-5.87,0-2.03-.47-3.57-1.41-4.63ZM272.43,142.98c-.53,2.39-1.13,4-1.82,4.81-.51.61-1.09.91-1.75.91-.5,0-.9-.19-1.21-.59-.32-.4-.47-1.08-.47-2.05,0-1.21.22-2.76.67-4.66.51-2.2,1.13-3.73,1.85-4.61.49-.6,1.04-.9,1.66-.9.5,0,.9.2,1.22.6.32.4.48,1.05.48,1.95,0,1.11-.21,2.62-.63,4.52Z"/>
        <path class="cls-13" d="M275,157.74c-1.01-1.14-2.3-1.71-3.87-1.71s-2.97.6-4.24,1.79-2.32,3.01-3.12,5.45c-.66,2.01-.99,3.98-.99,5.94,0,2.15.51,3.79,1.54,4.94,1.01,1.14,2.3,1.7,3.88,1.7s2.98-.58,4.23-1.76c1.26-1.18,2.25-2.88,2.99-5.09.74-2.2,1.11-4.3,1.11-6.29,0-2.17-.51-3.83-1.52-4.97ZM272.13,166.66c-.56,2.57-1.21,4.29-1.95,5.16-.54.66-1.18.98-1.88.98-.52,0-.96-.22-1.29-.64-.34-.42-.5-1.16-.5-2.2,0-1.28.24-2.95.71-4.99.56-2.36,1.22-4,1.99-4.94.52-.65,1.12-.96,1.79-.96.53,0,.96.22,1.3.63.34.43.51,1.14.51,2.1,0,1.2-.23,2.81-.68,4.85Z"/>
        <path class="cls-13" d="M303.9,92.46c-.68-.77-1.55-1.15-2.61-1.15s-2,.4-2.86,1.21c-.86.8-1.56,2.03-2.11,3.68-.45,1.35-.67,2.69-.67,4.01,0,1.46.35,2.57,1.04,3.33.69.77,1.56,1.15,2.62,1.15s2.02-.39,2.86-1.19c.85-.8,1.52-1.94,2.02-3.43.5-1.49.75-2.91.75-4.25,0-1.47-.34-2.58-1.03-3.35ZM301.96,98.49c-.38,1.73-.82,2.9-1.31,3.49-.37.44-.79.66-1.27.66-.36,0-.65-.14-.88-.43-.23-.29-.34-.78-.34-1.48,0-.87.16-1.99.48-3.37.37-1.59.82-2.7,1.34-3.34.35-.43.75-.65,1.21-.65.36,0,.65.14.88.43s.35.76.35,1.42c0,.81-.16,1.9-.46,3.27Z"/>
        <path class="cls-13" d="M260.29,173.58c-.46-.52-1.05-.78-1.76-.78s-1.35.27-1.93.81c-.58.54-1.05,1.37-1.42,2.48-.3.91-.45,1.81-.45,2.7,0,.98.23,1.73.69,2.25.47.52,1.06.78,1.77.78s1.36-.27,1.93-.81c.57-.54,1.03-1.31,1.36-2.32.34-1.01.5-1.96.5-2.87,0-.99-.23-1.74-.69-2.26ZM258.98,177.65c-.26,1.17-.55,1.96-.89,2.35-.25.3-.54.45-.85.45-.24,0-.44-.1-.59-.29-.16-.19-.23-.52-.23-1,0-.59.11-1.34.33-2.28.25-1.07.56-1.82.91-2.25.24-.3.51-.44.81-.44.24,0,.44.1.59.29.16.19.23.51.23.96,0,.55-.1,1.28-.31,2.21Z"/>
        <path class="cls-13" d="M287.29,166.05c-1.79,1.9-4.34,3.57-7.62,5.01l-.72,3.4c.83-.18,1.76-.48,2.8-.9,1.04-.43,1.96-.9,2.76-1.41l-2.83,13.49h3.84l4.1-19.59h-2.32Z"/>
        <path class="cls-13" d="M286.69,126.48c-.64-.72-1.46-1.08-2.45-1.08s-1.88.38-2.68,1.13c-.8.75-1.46,1.9-1.98,3.45-.42,1.27-.63,2.52-.63,3.76,0,1.36.32,2.41.97,3.12.64.72,1.46,1.08,2.46,1.08s1.89-.38,2.68-1.12c.8-.75,1.42-1.82,1.89-3.22.47-1.4.7-2.73.7-3.99,0-1.37-.32-2.42-.96-3.14ZM284.88,132.13c-.35,1.63-.77,2.72-1.23,3.27-.35.41-.74.62-1.19.62-.34,0-.61-.14-.82-.4-.21-.27-.32-.73-.32-1.39,0-.82.15-1.87.45-3.16.35-1.49.77-2.54,1.26-3.12.33-.41.7-.61,1.13-.61.34,0,.61.14.83.41.21.27.32.71.32,1.33,0,.75-.14,1.78-.43,3.07Z"/>
        <path class="cls-13" d="M297.96,130.29c-1.79,1.9-4.34,3.57-7.62,5.01l-.72,3.4c.83-.18,1.76-.48,2.8-.9,1.04-.43,1.96-.9,2.76-1.41l-2.83,13.49h3.84l4.1-19.59h-2.32Z"/>
      </g>
      <g>
        <path class="cls-16" d="M323.29,25.59v77.68c-1.61.5-3.97,1.04-6.82,1.1-3.35.06-6.06-.55-7.81-1.1V29.82l14.63-4.23Z"/>
        <rect class="cls-24" x="308.65" y="36.12" width="14.63" height="2.54"/>
        <rect class="cls-24" x="308.65" y="40.32" width="14.63" height="2.54"/>
        <rect class="cls-24" x="308.65" y="87.11" width="14.63" height="6.89"/>
        <polygon class="cls-16" points="261.11 117.03 308.65 103.27 323.28 103.27 275.74 117.03 261.11 117.03"/>
        <path class="cls-5" d="M323.29,25.59l-14.63,4.23-32.92,9.53h-14.62l47.54-13.76c1.78-.47,4.3-.96,7.35-.94,3.02,0,5.51.48,7.28.94Z"/>
        <path class="cls-16" d="M261.11,39.35v77.68c1.75.54,4.46,1.16,7.81,1.1,2.85-.06,5.2-.6,6.82-1.1V39.35c-1.76-.46-4.26-.95-7.28-.95-3.04-.01-5.57.47-7.35.95Z"/>
        <polygon class="cls-16" points="275.74 39.35 323.28 25.59 323.28 103.27 275.74 117.03 275.74 39.35"/>
        <rect class="cls-24" x="261.11" y="50.04" width="14.63" height="2.54"/>
        <rect class="cls-24" x="261.11" y="54.24" width="14.63" height="2.54"/>
        <rect class="cls-24" x="261.11" y="101.02" width="14.63" height="6.89"/>
      </g>
      <g>
        <path class="cls-16" d="M324.68,25.59v77.68c1.75.54,4.46,1.16,7.81,1.1,2.85-.06,5.2-.6,6.82-1.1V25.59c-1.76-.46-4.26-.95-7.28-.95-3.04-.01-5.57.47-7.35.95Z"/>
        <rect class="cls-24" x="324.68" y="36.12" width="14.63" height="2.54"/>
        <rect class="cls-24" x="324.68" y="40.32" width="14.63" height="2.54"/>
        <rect class="cls-24" x="324.68" y="87.11" width="14.63" height="6.89"/>
      </g>
      <g>
        <g>
          <path class="cls-24" d="M547.96,27.66v76.25c2.42.53,6.17,1.14,10.8,1.08,3.94-.06,7.2-.59,9.42-1.08V27.66c-2.44-.45-5.89-.93-10.06-.93-4.21-.01-7.71.46-10.17.93Z"/>
          <rect class="cls-16" x="549.73" y="79.29" width="16.61" height="15.41"/>
          <rect class="cls-5" x="547.92" y="73.33" width="20.23" height="2.69"/>
          <rect class="cls-5" x="547.96" y="68.86" width="20.23" height="2.69"/>
        </g>
        <g>
          <path class="cls-7" d="M546.89,43.98v60.15c-1.77.42-4.52.9-7.91.85-2.89-.05-5.27-.47-6.9-.85v-60.15c1.79-.36,4.31-.73,7.37-.73,3.08-.01,5.65.37,7.44.73Z"/>
          <ellipse class="cls-2" cx="539.48" cy="86.75" rx="5.15" ry="6.41"/>
          <rect class="cls-2" x="532.08" y="95.33" width="14.81" height="2.13"/>
          <rect class="cls-2" x="532.08" y="57.42" width="14.81" height="2.13"/>
          <rect class="cls-2" x="532.08" y="54.49" width="14.81" height="2.13"/>
          <rect class="cls-2" x="532.08" y="51.56" width="14.81" height="2.13"/>
        </g>
        <g>
          <path class="cls-8" d="M531.91,50l-6.49,54.56c-1.78.17-4.51.29-7.82-.15-2.82-.38-5.1-1.03-6.65-1.57l6.49-54.56c1.78-.12,4.29-.16,7.28.19,3.01.35,5.48.99,7.2,1.53Z"/>
          <rect class="cls-7" x="514.1" y="85.62" width="11.11" height="11.97" transform="translate(367.33 596.8) rotate(-83.22)"/>
          <rect class="cls-2" x="519.73" y="75.5" width="1.94" height="14.58" transform="translate(377.01 590.07) rotate(-83.22)"/>
          <rect class="cls-2" x="520.08" y="72.29" width="1.94" height="14.58" transform="translate(380.51 587.59) rotate(-83.22)"/>
        </g>
        <g>
          <path class="cls-13" d="M516.04,53.18l-6.2,51.24c-1.28.21-3.23.39-5.58.06-2-.28-3.61-.84-4.71-1.31l6.2-51.24c1.28-.15,3.07-.26,5.19,0,2.14.25,3.88.79,5.1,1.25Z"/>
          <rect class="cls-3" x="509.1" y="55.17" width="1.69" height="10.37" transform="translate(388.8 559.36) rotate(-83.1)"/>
          <rect class="cls-3" x="508.77" y="57.93" width="1.69" height="10.37" transform="translate(385.75 561.46) rotate(-83.1)"/>
          <rect class="cls-3" x="503.42" y="90.23" width="4.58" height="10.37" transform="translate(350.25 586) rotate(-83.1)"/>
        </g>
      </g>
      <g>
        <path class="cls-8" d="M387.63,39.49l7.7,64.75c2.11.2,5.36.35,9.28-.17,3.34-.45,6.05-1.23,7.89-1.87l-7.7-64.75c-2.12-.14-5.09-.19-8.64.23-3.57.41-6.5,1.17-8.54,1.81Z"/>
        <rect class="cls-7" x="395.08" y="82.27" width="14.21" height="13.18" transform="translate(-7.68 48.11) rotate(-6.78)"/>
        <rect class="cls-2" x="392.29" y="77.25" width="17.3" height="2.3" transform="translate(-6.45 47.89) rotate(-6.78)"/>
        <rect class="cls-2" x="391.87" y="73.45" width="17.3" height="2.3" transform="translate(-6.01 47.81) rotate(-6.78)"/>
      </g>
      <g>
        <path class="cls-16" d="M340.82,25.54v77.68c1.75.54,4.46,1.16,7.81,1.1,2.85-.06,5.2-.6,6.82-1.1V25.54c-1.76-.46-4.26-.95-7.28-.95-3.04-.01-5.57.47-7.35.95Z"/>
        <rect class="cls-24" x="340.82" y="36.08" width="14.63" height="2.54"/>
        <rect class="cls-24" x="340.82" y="40.27" width="14.63" height="2.54"/>
        <rect class="cls-24" x="340.82" y="87.06" width="14.63" height="6.89"/>
      </g>
      <g>
        <path class="cls-16" d="M356.85,25.54v77.68c1.75.54,4.46,1.16,7.81,1.1,2.85-.06,5.2-.6,6.82-1.1V25.54c-1.76-.46-4.26-.95-7.28-.95-3.04-.01-5.57.47-7.35.95Z"/>
        <rect class="cls-24" x="356.85" y="36.08" width="14.63" height="2.54"/>
        <rect class="cls-24" x="356.85" y="40.27" width="14.63" height="2.54"/>
        <rect class="cls-24" x="356.85" y="87.06" width="14.63" height="6.89"/>
      </g>
      <g>
        <path class="cls-16" d="M372.88,25.54v77.68c1.75.54,4.46,1.16,7.81,1.1,2.85-.06,5.2-.6,6.82-1.1V25.54c-1.76-.46-4.26-.95-7.28-.95-3.04-.01-5.57.47-7.35.95Z"/>
        <rect class="cls-24" x="372.88" y="36.08" width="14.63" height="2.54"/>
        <rect class="cls-24" x="372.88" y="40.27" width="14.63" height="2.54"/>
        <rect class="cls-24" x="372.88" y="87.06" width="14.63" height="6.89"/>
      </g>
      <g>
        <path class="cls-13" d="M406.52,43.27l7.36,60.81c1.51.24,3.84.46,6.63.07,2.37-.34,4.29-1,5.59-1.55l-7.36-60.81c-1.52-.18-3.64-.31-6.16,0-2.54.3-4.61.93-6.05,1.48Z"/>
        <rect class="cls-3" x="407.59" y="50.77" width="12.3" height="2.01" transform="translate(-3.22 50.06) rotate(-6.9)"/>
        <rect class="cls-3" x="407.99" y="54.06" width="12.3" height="2.01" transform="translate(-3.62 50.13) rotate(-6.9)"/>
        <rect class="cls-3" x="412.62" y="90.67" width="12.3" height="5.43" transform="translate(-8.18 50.97) rotate(-6.9)"/>
      </g>
    </g>
  </g>
  <g id="Person">
    <g id="Körper">
      <g id="Körper-2" data-name="Körper">
        <path class="cls-6" d="M147.12,321.56c0,.07,0,.15-.02.22.55,26.83.71,54.36.4,82.57-.13,11.58-.33,23.16-.61,34.73-.15,6.05-.31,12.1-.5,18.16-.08,2.56-.91,5.22-.42,7.78.39,2.02,3.03,3.47,1.57,5.7-.82,1.25-2.35,1.82-3.79,2.22-2.67.75-5.48,1.22-8.21.75-8.1-1.41-5.09-5.25-4.84-10.71.1-2.13-1-4.51-1.29-6.62-1.05-7.58-2.09-15.16-3.12-22.74-1.91-13.93-3.1-20.51-4.29-31.44-3.28-30.34-3.7-57.97-2.71-82.05-4.66-33.15-9.32-66.31-13.98-99.46h-5.59c-.17.16-.36.31-.56.43-7.55,32.6-15.06,65.2-22.6,97.8-1.57,23.97-4.86,51.24-11.05,80.9-2.67,12.81-5.77,25.54-9.3,38.14-1.63,5.83-3.35,11.63-5.16,17.4-.8,2.55-2.03,5.22-2.52,7.85-.18.96-1.12,2.24-.96,3.23.21,1.24,2.06,1.54,2.13,2.79.02.28-.11.56-.24.81-1.77,3.46-5.6,5.76-9.49,5.71-2.67-.04-8.06-1.92-8.79-5-1.04-4.35,3.48-1.82,3.65-4.53,1.36-21.79,3.05-44.08,5.11-66.84,2.54-27.99,5.49-55.19,8.78-81.57.01-.04.01-.09.02-.13-.02-.07-.02-.14-.02-.2-.01-.07-.01-.13-.01-.2-.14-12.86.03-23.7.22-31.74,1.4-53.85,12.01-81.38,17.09-89.47.29-.45.55-.88.76-1.21.1-.19.22-.36.34-.52,4.39-8.78,8.79-17.57,13.18-26.35l-7.74-70.56c5.32-.54,18.4-1.66,31.98-.6,6.78.53,13.21,1.56,13.75,1.65,1.41.22,5.72.94,10.81,2.12.15.03.27.06.31.07,3.92.91,7.03,1.78,9.4,2.48-6.33,21.62-12.65,43.23-18.98,64.84l16.87,26.35-.11.09c.14.12.26.26.39.42.32.71.73,1.39.73,1.39,16.86,28.55,11.86,99.55,11.86,99.55-.43,5.87-1.12,14.26-2.38,24.37,0,.24-.01.48-.02.72-.01.23-.03.46-.05.69v.03Z"/>
      </g>
      <g id="Hose">
        <path class="cls-16" d="M32.25,450.07c2.91-.53,7.54-1.02,13.04,0,4.69.88,8.33,2.52,10.75,3.84,3.66-16.06,8.95-40.21,14.59-69.86,5.29-27.77,7.26-41.28,11.34-63.66,4.12-22.66,10.51-54.95,20.04-94.34l2.17-58.4-2.17.02c-7.31-.06-14.62-.12-21.93-.18-13.06,16.55-19.76,31.51-23.42,41.71-6.42,17.91-8.21,36-11.6,72.21-1.18,12.56-2.15,23.28-2.9,31.81-.63,6.95-1.23,13.91-1.84,20.89-3.31,39.15-5.99,77.82-8.08,115.96Z"/>
        <path class="cls-5" d="M102.01,226.05c3.17,29.85,6.34,59.73,9.49,89.62,4.85,46.1,9.65,92.18,14.42,138.25,3.39-.88,7.69-1.67,12.66-1.92,5.26-.27,9.84.17,13.44.76,1.82-59.2,3-103.35,3.22-118.65.09-6.5.14-12.61.14-12.61.05-7.5.05-17.7-.14-29.58-.52-33.69-.76-50.54-3.68-63.77-3.14-14.19-10.63-36.18-31.1-60.62l-16.28.1-2.17,58.4Z"/>
      </g>
      <g id="Arme">
        <path class="cls-6" d="M259.23,78.35c-1.21,1.08-2.64,1.23-3.17,1.26-7.56,6.17-15.47,12.4-23.72,18.66-8.08,6.13-16.03,11.94-23.84,17.46,0,0,0,0,0,0-.87.83-2.26,1.92-4.19,2.66-.79.3-1.52.49-2.18.61-.07.03-.17.03-.24.03-20.78,2.37-41.54,4.71-62.29,7.06-.05.01-.07.01-.1,0v.02c-3.63.49-7.27.97-10.9,1.46-.24-.35-5.03-7.75-1.3-15.54,2.95-6.17,9.04-7.95,9.98-8.21.05,0,.1,0,.15,0,.26,0,.55,0,.82-.02,20.15-.37,40.27-.76,60.41-1.11.41-.25.84-.46,1.28-.63h.02c17.05-9.71,34.11-19.4,51.16-29.1.46-2.6,2.69-4.41,5.03-4.33,2.79.1,4.36,2.83,4.68,4.8.05.33.45,3.1-1.59,4.92Z"/>
        <path class="cls-6" d="M78.57,57.5c.04.06.25,0,.34-.02,3.57-.94,5.57-1.46,6.23-.84.48.45.24,1.51,0,2.06-.52,1.16-1.68,1.45-3.72,2.43-1.96.94-1.67,1.05-3.65,2.06-1.71.87-4.41,2.04-8.16,2.95,0,0-.01,0-.02-.02-7.82,5.41-15.99,10.85-24.48,16.29-3.25,2.09-6.48,4.13-9.69,6.12,4.61,1.37,10.88,3.06,18.38,4.62,13.98,2.9,19.66,2.4,23.44,6.81,2.07,2.41,5.03,7.96,1.29,21.03-2.94-.69-8.8-2.06-16.25-3.79-2.83-.66-19.11-4.43-38.16-11.17-5.87-2.07-10.97-4.06-13.29-8.02h0c-2.14-3.54-2.47-7.36-1.49-9.88.88-2.27,2.62-3.87,2.62-3.87,0,0,.55-.5,1.19-.93,2.61-1.74,40.86-19.27,51.37-24.07.57-1.54,2.04-3.27,4.01-5.61,2.85-3.39,6.04-4.94,7.34-5.51.53-.22,8-4.17,10.41-1.27.81.98.7,2.32.67,2.59-.05.49-.29,1.78-4.32,4.91-2.19,1.7-4.17,2.91-4.05,3.13Z"/>
      </g>
      <g id="Oberteil">
        <path class="cls-7" d="M104.2,167.7c5.4,0,10.84-.02,16.27-.02l18.34-64.57c-3.28-1.52-7.56-3.11-12.71-4.06-2.84-.53-5.47-.77-7.79-.86-.65,1.05-1.5,2.3-2.58,3.64-1.05,1.3-2.29,2.66-3.75,4.01-1.98,1.83-3.93,3.21-5.63,4.26-.72,19.2-1.43,38.4-2.15,57.6Z"/>
        <path class="cls-2" d="M71.81,96.85c2.82,23.63,5.64,47.27,8.46,70.9,7.24-.02,14.49-.02,21.74-.05h2.18l2.15-57.6-.13.11c-1.65-1.63-3.4-3.56-5.15-5.82-2.33-3-4.11-5.9-5.47-8.45-3.25-.55-7.34-.96-12.06-.77-4.61.18-8.58.89-11.72,1.66Z"/>
      </g>
      <g id="Schuhe">
        <path class="cls-1" d="M125.59,478.04v2.69h53.07v-2.69s-.43-2.52-13.88-6.42c-6.21-1.78-10.98-4.04-15.86-5.4-2.12.86-5.59,1.95-9.99,2.02-4.76.05-8.49-1.14-10.65-2.02-.67,1.45-1.4,3.3-1.93,5.49-.57,2.45-.76,4.64-.76,6.32Z"/>
        <path class="cls-1" d="M53.07,478.35v2.69H0v-2.69s.43-2.52,13.88-6.42c6.21-1.78,10.98-4.04,15.86-5.4,2.12.86,5.59,1.95,9.99,2.02,4.76.05,8.49-1.14,10.65-2.02.67,1.45,1.4,3.3,1.93,5.49.57,2.45.76,4.64.76,6.32Z"/>
      </g>
      <g id="Hand">
        <path class="cls-6" d="M256.07,79.61c.77,0,1.82-.07,3-.41.85-.25,1.55-.57,2.1-.87v-9.19c1.92-.66,4.61-1.49,6.23-2.85.33-.28.53-.61.6-.96,0,0,.12-.62-.24-1.21-.88-1.41-8.86-.03-14.35,5.23-1.94,1.86-2.23,2.92-2.3,3.6-.37,3.67,4.68,6.5,4.95,6.65Z"/>
      </g>
    </g>
    <g id="Gesicht">
      <path class="cls-1" d="M94.82,83.27c-.27.31-1.74,1.94-4.17,2.07-3.09.16-4.96-2.26-5.11-2.46-3.55.22-6.38-2.2-6.62-4.92-.17-1.88.91-3.79,2.67-4.98-3.63-.16-6.66-2.85-7.21-6.37-.58-3.66,1.67-7.28,5.28-8.41-3.08-.49-5.38-3.15-5.42-6.24-.03-3.05,2.13-5.73,5.14-6.34-1.53-2.8-1.42-6.18.29-8.7,2.06-3.04,6.12-4.33,9.83-3.03.02-.37.34-5.65,4.92-8.32,3.43-2,7.84-1.71,11.16.76,1.65-1.92,4.24-2.73,6.62-2.08,2.62.72,4.53,3.07,4.73,5.86.52-.09,6.57-1.08,10.97,3.4,3.65,3.73,3.45,8.49,3.4,9.27,2.99,1.4,5.02,4.29,5.3,7.57.29,3.37-1.31,6.65-4.16,8.51,2.46,1.16,4.07,3.57,4.16,6.24.1,2.9-1.63,5.61-4.35,6.81,2.15,1.41,2.91,4.13,1.89,6.24-.85,1.76-2.82,2.84-4.92,2.65-.45,1.8-1.87,3.18-3.65,3.57-1.92.42-3.93-.4-5.05-2.06-.66.87-1.66,1.92-2.85,1.88-1.15-.04-1.66-1.08-2.45-1.69-3.79-2.94-12.31,5.3-18.31,2.42-.57-.28-1.34-.76-2.11-1.65Z"/>
      <g id="Kopf">
        <path class="cls-6" d="M129.17,59.65c1.03,8.88-4.45,17.54-13.28,20.17-.3.09-.59.17-.89.24v16.93c0,4.4-3.6,8-8,8s-8.01-3.6-8.01-8v-17.05c0-.59.06-1.16.18-1.71-4.78-2.48-8.68-6.65-10.69-11.97-.4.12-.82.18-1.25.18-2.49,0-4.54-2.04-4.54-4.54v-1.7c0-1.85,1.12-3.44,2.71-4.15-2.7-10.62,3.49-21.66,14.09-24.82,1.94-.58,3.91-.86,5.85-.86,8.88,0,17.13,5.81,19.79,14.73l1.41,4.72c1.99.17,3.7,1.64,4.08,3.69l.31,1.68c.32,1.75-.42,3.46-1.76,4.46Z"/>
      </g>
      <g id="Schatten">
        <path class="cls-12" d="M86.29,58.98c-.32,0-.77,1.3-.43,2.47.25.84.93,1.69,1.21,1.58.53-.21-.23-4.06-.78-4.05Z"/>
        <path class="cls-12" d="M115.04,80.07c-1.33.35-3.07.66-5.12.7-2.42.05-4.44-.31-5.92-.69,3.67,3.26,7.35,6.51,11.02,9.76-.01-1.45-.02-2.91-.02-4.38,0-1.82.01-3.62.04-5.4Z"/>
      </g>
      <g id="Augenbrauen">
        <path class="cls-1" d="M121.2,45.03c-.55-.3-1.59-.76-2.96-.82-1.72-.08-3.02.51-3.59.82-.98-.5-1.2-.9-1.2-1.2.02-1.02,2.76-2.13,5.23-1.89,1.67.16,3.72.98,3.72,1.89,0,.47-.55.88-1.2,1.2Z"/>
        <path class="cls-1" d="M104.47,47.55c-.59-.22-1.67-.54-3.04-.43-1.72.15-2.93.9-3.45,1.28-1.04-.37-1.31-.74-1.34-1.03-.11-1.02,2.46-2.47,4.94-2.56,1.67-.06,3.82.49,3.93,1.39.06.47-.43.94-1.03,1.34Z"/>
      </g>
      <g id="Nase">
        <path class="cls-9" d="M112.05,63.23c-.43,0-.88-.09-1.32-.26-.06-.03-.1-.1-.07-.16.03-.06.1-.1.16-.07.83.33,1.68.32,2.34,0,.36-.18.61-.44.68-.71.19-.68-.13-1.3-.97-1.88l-.11-.08c-.41-.29-1.09-.76-1.49-1.62-.14-.3-.24-.75-.3-1.06l-.03-.13c-.05-.36-.09-.66-.14-.95-.05-.3-.09-.61-.14-.97,0-.07.04-.13.11-.14.08-.01.13.04.14.11.05.36.09.67.14.97.04.29.09.59.14.94l.03.12c.06.29.16.73.28,1,.37.79,1,1.23,1.41,1.52l.11.08c.94.65,1.29,1.36,1.07,2.15-.09.34-.39.66-.81.87-.37.18-.78.27-1.22.27Z"/>
      </g>
      <g id="Augen">
        <rect class="cls-9" x="116.67" y="47.83" width="3.29" height="3.86" rx="1.65" ry="1.65" transform="translate(-5.48 15.85) rotate(-7.49)"/>
        <rect class="cls-9" x="100.09" y="50.01" width="3.29" height="3.86" rx="1.65" ry="1.65" transform="translate(-5.9 13.71) rotate(-7.49)"/>
      </g>
      <g id="Mund">
        <path class="cls-9" d="M111.72,71.61s-.02,0-.04,0c-.07-.02-.1-.09-.08-.16.35-1.14,1.13-2.08,2.33-2.79,1.1-.65,2.5-1.08,4.18-1.28.06-.01.13.04.14.11,0,.07-.04.13-.11.14-1.64.19-3.01.61-4.08,1.24-1.14.68-1.89,1.57-2.22,2.65-.02.05-.07.09-.12.09Z"/>
      </g>
      <path class="cls-1" d="M82.23,54.43c.24.3.9,1.07,2.07,1.42,1.43.44,2.62-.05,2.94-.19.28.34,1.05,1.16,2.35,1.52,1.62.46,2.95-.11,3.31-.28,1.35-.67,2.18-2.05,2.11-3.49-.09-1.85-1.6-2.85-1.74-2.94.62-.09,3.37-.54,5.42-3.03,2-2.44,1.96-5.14,1.93-5.79,2.2,2.23,5.34,3.02,7.99,2.02,2.47-.94,3.58-3.09,3.86-3.67,3.04,3.18,6.85,4.4,9.37,3.12.21-.11,2.82-1.48,2.85-3.86.01-.99-.43-1.77-.73-2.2.01-.19.08-1.93-1.33-3.12-1.53-1.29-3.39-.78-3.54-.73-1.15-.96-3.1-2.35-5.83-3.26-3.31-1.1-6.17-.97-7.76-.78-1.77-.02-4.38.16-7.35,1.15-3.69,1.23-6.26,3.17-7.71,4.45-1.46.94-4.6,3.25-6.75,7.48-2.08,4.1-2.14,7.86-2.07,9.6.21.86.43,1.71.64,2.57Z"/>
    </g>
  </g>
</svg>