<?xml version="1.0" encoding="UTF-8"?>
<svg id="_0054_THK_Recht" data-name="0054_THK_Recht" xmlns="http://www.w3.org/2000/svg" viewBox="0 0 381.03 508.52">
  <defs>
    <style>
      .cls-1 {
        fill: #a5678d;
      }

      .cls-1, .cls-2, .cls-3, .cls-4, .cls-5, .cls-6, .cls-7, .cls-8, .cls-9, .cls-10, .cls-11, .cls-12, .cls-13, .cls-14, .cls-15 {
        stroke-width: 0px;
      }

      .cls-2 {
        fill: #206289;
      }

      .cls-3 {
        fill: #dec1a8;
      }

      .cls-4 {
        fill: #873567;
      }

      .cls-5 {
        fill: #000;
      }

      .cls-6 {
        fill: #fcd9bd;
      }

      .cls-7 {
        fill: #236289;
      }

      .cls-8 {
        fill: #ec9447;
      }

      .cls-9 {
        fill: #e5e6e5;
      }

      .cls-10 {
        fill: #98c7e4;
      }

      .cls-11 {
        fill: #603813;
      }

      .cls-12 {
        fill: #ccc;
      }

      .cls-13 {
        fill: #cbe3f1;
      }

      .cls-14 {
        fill: #fff;
      }

      .cls-15 {
        fill: #e1ccd9;
      }
    </style>
  </defs>
  <g id="Gesetzeszeichen">
    <path class="cls-2" d="M344.69,211.68c-8.42-11.06-18.8-18.84-31.12-23.32-12.31-4.49-33.56-9.33-63.74-14.56-20.86-3.78-33.45-6.31-37.81-7.59-7.66-2.56-13.57-6.39-17.82-11.52-4.17-4.94-6.84-10.82-7.99-17.67-1.79-10.76.57-20.8,7.16-30.16,6.58-9.33,19.11-15.57,37.61-18.65,15.65-2.61,28.52-.12,38.61,7.46,10.08,7.58,17.38,19.22,21.84,35l38.2-13.65c-5.91-19.73-13.23-35.03-21.95-45.95-8.69-10.93-20.7-18.74-35.97-23.42-15.27-4.74-32.25-5.48-50.89-2.37-12.37,2.06-23.62,6.09-33.75,12.1-10.13,6.04-17.78,12.58-23.06,19.68-7.04,9.23-12.01,20.17-14.88,32.82-2.84,12.64-3.14,25.93-.82,39.82,2.55,15.27,7.82,28.7,15.82,40.36,6.45,9.42,14.4,16.71,23.9,21.91-8.51,9.32-14.75,20.32-18.66,32.93-4.23,13.64-5.81,27.56-4.67,41.67.05.71.06,1.38.18,2.08.21,2.63.57,5.29,1.02,7.98,3.01,18.03,8.74,32.56,17.19,43.6,8.42,11.08,18.81,18.85,31.14,23.35,12.32,4.45,33.59,9.33,63.72,14.57,20.87,3.74,33.5,6.27,37.83,7.57,7.64,2.52,13.6,6.36,17.81,11.49,4.21,4.91,6.88,10.83,8.03,17.7,1.79,10.75-.6,20.78-7.2,30.14-6.53,9.35-19.08,15.55-37.57,18.64-15.68,2.61-28.56.14-38.64-7.44-10.07-7.55-17.34-19.23-21.79-34.97l-38.22,13.6c5.89,19.75,13.19,35.09,21.92,46.01,8.74,10.92,20.74,18.7,36.01,23.41,15.27,4.68,32.21,5.49,50.86,2.38,12.38-2.07,23.64-6.12,33.74-12.13,10.14-6.01,17.84-12.55,23.07-19.68,7.04-9.21,12-20.14,14.89-32.79,2.88-12.65,3.14-25.93.82-39.82-2.55-15.27-7.79-28.73-15.79-40.37-6.48-9.38-14.46-16.7-23.91-21.93,8.51-9.31,14.7-20.29,18.66-32.96,4.23-13.61,5.78-27.53,4.63-41.65,0-.69-.09-1.4-.2-2.08-.2-2.65-.55-5.3-1-7.99-3.01-18.02-8.71-32.55-17.18-43.59ZM321.61,269.38c1.8,12.67-.83,24.48-7.82,35.39-5.96,9.29-15.65,15.81-29.08,19.57-5.49-.95-11.36-1.93-17.61-2.93-23.16-3.6-37.85-7.29-44.15-11.07-.46-.3-.9-.58-1.35-.85-8.27-5.56-13.36-14.02-15.25-25.34-.11-.65-.22-1.31-.29-1.97-1.66-12.58.99-24.25,7.93-35.05,5.92-9.25,15.62-15.8,28.95-19.58,5.52,1.01,11.42,1.97,17.74,2.95,23.1,3.58,37.85,7.27,44.15,11.05.45.28.9.58,1.35.85,8.23,5.57,13.31,14.02,15.2,25.36.09.56.17,1.04.23,1.61Z"/>
  </g>
  <g id="Gesicht">
    <g id="Haare">
      <path class="cls-8" d="M163.07,86.59c-4.78-.86-6.79-2.09-14-4.94-4.47-1.76-11-4.18-19.21-6.61-4.37-2.04-11.69-6.36-16.37-14.69-7.83-13.93-5-33.29,7.28-48.58,2.1-2.36,7.82-8.16,17.29-10.63,3.52-.92,11.18-2.33,19.99.76,11.21,3.93,16.86,12.54,18.44,15.16,5.22,8.76,6.49,16.01,6.68,21.02.34,8.87-2.69,11.12-.97,19.33,1.6,7.64,5.08,9.71,4.49,16.22-.11,1.27-.61,6.78-4.69,10.5-5.4,4.92-13.49,3.46-18.93,2.48Z"/>
    </g>
    <g id="Kopf">
      <path class="cls-6" d="M172.03,37.35c-.16-2.07-1.54-3.75-3.38-4.41,2.12-12.13-5.76-23.99-17.91-26.63h0c-12.45-2.7-24.85,5.28-27.56,17.73l-1.18,5.43c-2.21.36-4.01,2.15-4.26,4.47l-.2,1.9c-.21,1.99.77,3.82,2.36,4.83-.38,9.3,5.5,17.93,14.43,20.89l-.84,18.94c-.22,5,3.69,9.27,8.68,9.49s9.27-3.68,9.49-8.68l.86-19.34c.02-.54,0-1.07-.08-1.59,6.41-2.98,11.52-8.6,13.62-15.77.46.1.93.15,1.41.11h0c2.8-.21,4.91-2.68,4.7-5.47l-.15-1.91Z"/>
    </g>
    <g id="Schatten">
      <path class="cls-3" d="M167.89,36.28c.36-.02.98,1.39.69,2.73-.21.97-.9,1.97-1.22,1.87-.61-.19-.09-4.56.53-4.61Z"/>
      <path class="cls-3" d="M134.33,61.57c1.63.52,3.92,1.06,6.71,1.15,2.83.09,5.19-.32,6.86-.74-4.68,3.42-9.36,6.85-14.04,10.27.02-.43.34-7.58.35-8.01,0-.05.12-2.63.12-2.68Z"/>
    </g>
    <g id="Augenbrauen">
      <path class="cls-8" d="M135.44,26.41c-.52-.48-1.51-1.28-2.98-1.75-1.85-.58-3.43-.32-4.14-.15-.92-.82-1.05-1.33-.95-1.65.32-1.11,3.61-1.52,6.23-.54,1.76.66,3.76,2.15,3.49,3.13-.14.51-.86.79-1.65.95Z"/>
      <path class="cls-8" d="M146.07,26.72c.68-.19,1.93-.45,3.45-.19,1.91.32,3.2,1.28,3.75,1.76,1.2-.31,1.54-.71,1.6-1.03.22-1.13-2.52-3-5.3-3.32-1.87-.22-4.32.19-4.54,1.19-.11.52.4,1.1,1.03,1.6Z"/>
    </g>
    <g id="Mund">
      <path class="cls-14" d="M135.83,52.2c-.02.55,3.58,1.91,6.68.6,2.56-1.08,4.09-3.68,3.74-4.09-.3-.36-1.9,1.12-5.49,2.27-3.16,1.02-4.92.84-4.93,1.22Z"/>
    </g>
    <g id="Augen">
      <rect class="cls-5" x="129" y="27.07" width="3.7" height="4.35" rx="1.85" ry="1.85" transform="translate(258.57 70.04) rotate(-174.88)"/>
      <rect class="cls-5" x="147.09" y="28.69" width="3.7" height="4.35" rx="1.85" ry="1.85" transform="translate(294.54 74.89) rotate(-174.88)"/>
    </g>
    <g id="Nase">
      <path class="cls-5" d="M138.32,44.08c-.44,0-.86-.08-1.24-.25-.48-.22-.83-.56-.95-.94-.28-.88.08-1.69,1.1-2.47l.12-.09c.45-.34,1.13-.86,1.51-1.77.13-.31.21-.81.27-1.14l.02-.14c.04-.4.07-.73.11-1.07.04-.34.07-.67.11-1.08,0-.08.06-.14.15-.13.08,0,.13.08.13.15-.04.41-.07.74-.11,1.08-.04.34-.07.67-.11,1.08l-.03.15c-.06.34-.15.87-.29,1.21-.41.98-1.16,1.55-1.6,1.89l-.12.09c-.92.7-1.25,1.41-1.01,2.16.1.3.39.58.8.77.75.34,1.71.3,2.62-.1.07-.03.15,0,.19.07.03.07,0,.15-.07.19-.54.24-1.09.36-1.61.36Z"/>
    </g>
    <g id="Haare-2" data-name="Haare">
      <path class="cls-8" d="M174.75,19.08c-.68-3.23-2.75-5.1-5.14-7.68-7.49-8.12-17.6-9.2-18.93-9.32-6.93-.64-12.37,1.37-15.05,2.59.04.52.1,1.12.21,1.78-2.97.5-8.03,1.98-12.21,6.49-6.47,6.99-5.63,15.67-5.49,16.96.35.05.73.08,1.14.08,1.14,0,2.1-.22,2.81-.46,1.4-5.35,3.75-7.73,5.64-8.92,2.11-1.32,4.42-1.63,7.04-4.11,1.38-1.3,2.24-2.64,2.74-3.53.04-.28.08-.57.12-.85.14.28.27.57.43.85.38.69,1.71,3.01,4.67,5.67,7.18,6.46,11.3,4.65,15.03,9.76,2.65,3.63,3.13,6.05,4.46,7.89.09.12,2.08-4.64,7.01-3.13.89-.86,7.03-7,5.53-14.08Z"/>
    </g>
  </g>
  <g id="Körper">
    <g id="Körper-2" data-name="Körper">
      <path class="cls-6" d="M200.79,394.35c-1.08-.34-2.39.76-3.36,1.77-6.19-5.16-15.74-13.14-27.44-22.89-8.41-7-13.6-11.53-19.27-16.22.9-9.14,1.75-18.21,2.54-27.19.04-.15.09-.3.12-.45,3.14-13.83,5.48-25.56,7.14-34.26,11-58.38,5.96-90.52,2.35-100.41-.2-.55-.39-1.08-.54-1.48-.06-.23-.15-.43-.24-.64,0,0,0-.01-.01-.02-2.69-10.48-5.38-20.96-8.08-31.45l-42.61-9.18-24.3,24.49.22.29c-.22.24-.38.4-.38.4-25.9,25.82-40.19,102.98-40.19,102.98-1.17,6.39-2.75,15.54-4.2,26.67-1.47,5.67.43,11.42,4.43,15.14,1.18,1.79,2.74,3.36,4.67,4.57.54.33,1.06.63,1.62.88,20.94,13.7,42.54,27.43,64.77,41.14-1.14,14.52-1.84,29.86-1.95,45.97-.18,27.99,1.48,53.62,4.06,76.46-2.15.33-3.6,1.1-3.84,2.24-.28,1.31,1.08,2.83,3.42,4.13.12.41.28.82.49,1.23,1.59,3.09,5.43,5.14,8.94,4.04,1.28-.4,2.41-1.2,3.27-2.22,3.32-.05,5.71-.91,6.03-2.41.33-1.54-1.59-3.35-4.71-4.78,3.6-23.81,6.95-48.23,10.02-73.25,1.38-11.24,2.67-22.38,3.88-33.41,13.71,8.23,27.31,16.25,40.78,24.04.55.44,1.14.81,1.76,1.1.06,4.07.96,5.25,1.78,5.58,2.64,1.05,8.67-5.1,10.32-12.09,1.04-4.41.57-10.13-1.5-10.77ZM76.18,305.15c12.85-30.99,25.71-62,38.56-92.98.02-.02.04-.04.07-.06l6.04,1.3c.14.22.29.42.49.6.56,36.88,1.09,73.76,1.65,110.64-.49,3.29-.95,6.65-1.4,10.07-15.74-11.28-30.99-21.07-45.4-29.56Z"/>
      <path class="cls-6" d="M154.02,161.1c8.66-25.48,17.32-50.97,25.99-76.45-10.4-2.42-22.33-4.57-35.6-5.89-14.21-1.41-27.14-1.58-38.4-1.14,1.8,24.76,3.6,49.53,5.4,74.29l42.61,9.18Z"/>
      <path class="cls-6" d="M107.66,77.25c-5.03-.74-9.81,1.67-12.05,5.69-.03.04-.04.09-.07.13-.11.24-.22.5-.36.74-7.3,14.99-14.6,29.97-21.89,44.96-5.57-5.36-11.31-10.76-17.24-16.19-8.61-7.89-17.12-15.41-25.49-22.55-2.13,2.28-4.25,4.56-6.38,6.84,14.2,16.96,28.4,33.93,42.59,50.89h.02c.67,1.13,1.61,2.14,2.76,2.91,2.7,1.82,6.02,2.02,8.81.84,1.74-.58,3.24-1.66,4.26-3.13.16-.23.3-.49.43-.73.06-.06.1-.15.13-.21,10.96-17.79,21.89-35.59,32.82-53.37.03-.04.03-.06.04-.09h.02c.75-1.21,1.28-2.57,1.51-4.05.93-6.05-3.49-11.72-9.92-12.67Z"/>
    </g>
    <g id="Schuhe">
      <path class="cls-11" d="M141.89,504.63v2.96s-58.52,0-58.52,0v-2.96s.47-2.78,15.31-7.08c6.84-1.97,12.11-4.46,17.49-5.95,2.33.94,6.16,2.15,11.01,2.23,5.24.05,9.36-1.26,11.75-2.23.73,1.6,1.55,3.64,2.12,6.06.63,2.7.84,5.11.84,6.97Z"/>
      <path class="cls-11" d="M211.23,395.77l2.76,1.09-21.48,54.43-2.76-1.09s-2.41-1.46-.96-16.84c.68-7.09.3-12.9.88-18.45,1.73-1.82,4.26-4.94,6.12-9.42,1.97-4.86,2.27-9.17,2.24-11.74,1.76-.1,3.96-.1,6.41.25,2.74.41,5.06,1.1,6.79,1.78Z"/>
    </g>
    <g id="Hose">
      <path class="cls-9" d="M187.84,369.66c-3.91,6.01-7.82,12.03-11.73,18.05-.93,1.42-1.86,2.86-2.79,4.28-4.57,7.04-9.15,14.08-13.72,21.12-13.81-9.33-27.61-18.68-41.44-27.98-11.84-7.97-24.04-15.42-35.7-23.61-9.54-6.7-18.38-14.4-26.34-22.93-7.62-8.17-15.17-15.8-15.74-27.45-.34-6.99-3.66-17.61,9.67-58.53,8.36-25.68,12.54-38.52,20.33-52.18,7.07-12.4,19.5-30.84,40.4-48.97,6.64,1.43,13.27,2.89,19.89,4.31l-13.59,63.05c-10.15,27.62-20.03,57.07-29.26,88.33,24.46,17.96,50.05,34.36,76.38,49.44,6.13,3.51,12.31,6.95,18.52,10.32,2.36,1.28,4.25,2.29,5.12,2.75Z"/>
      <path class="cls-12" d="M154.07,469.38c-16.42-1.96-32.84-3.91-49.27-5.84,5.67-42.39,10.01-88.65,11.98-138.35,1.45-37.45,1.41-72.99.31-106.35l13.58-63.05c8.04,1.76,16.09,3.49,24.13,5.25,5.19,10.91,12.04,28.15,15.07,50.15,2.55,18.54,1.36,33.04-4.26,80.53-3.67,30.72-6.33,51.39-7.14,57.92-3.44,27.66-6.63,68.01-4.4,119.74Z"/>
    </g>
    <g id="Oberteil_Arm" data-name="Oberteil + Arm">
      <path class="cls-1" d="M142.52,85.26c-10.73-1.21-16.93-8.18-18.21-9.69-3.02-.09-6.16-.11-9.42-.06-2.81.05-5.52.16-8.16.31-6.27-1.39-12.97,1.55-16.02,7.52l-14.74,28.85,27.74,14.18,1.91-3.73c.34,7.82.47,15.25.47,15.25.08,4.63.11,9.2.09,13.64,5.19,3.16,13.12,7.2,23.46,9.75l16.35-75.86c-1.11.03-2.25-.03-3.45-.15Z"/>
      <path class="cls-4" d="M180.1,84.06c-5.07,20.33-8.76,33.84-11.28,42.69-.49,1.71-1.49,5.23-2.83,10.15-2.45,9.02-4.64,17.8-6.61,26.31-6.46.75-16.28,1.11-27.77-1.45-.67-.14-1.33-.31-1.99-.48l16.35-75.86c8.72-.13,14.76-4.38,16.19-5.44,5.98,1.37,11.95,2.73,17.93,4.1Z"/>
      <g>
        <path class="cls-6" d="M163.93,93.74c-1.37,1.01-2.47,2.26-3.31,3.63l.02.02s-.04.03-.07.08c-12.38,20.03-24.77,40.07-37.15,60.14-.05.07-.12.15-.15.24-.17.26-.36.53-.51.8-1.68,3.07-1.52,6.93.7,9.93,3.04,4.11,8.84,4.97,12.95,1.93.67-.5,1.26-1.07,1.76-1.72,0,0,.14-.17.21-.25,14.32-18.9,28.61-37.8,42.92-56.71.17-.26.38-.51.56-.74.03-.05.07-.08.1-.14,2.91-4.31,2.94-10.17-.32-14.57-4.17-5.63-12.07-6.78-17.68-2.63Z"/>
        <path class="cls-4" d="M170.3,82.16h2.06c7.95,0,14.4,6.45,14.4,14.4v32.47h-30.86v-32.47c0-7.95,6.45-14.4,14.4-14.4Z" transform="translate(104.4 -84.21) rotate(38.93)"/>
      </g>
    </g>
  </g>
  <g id="Buch_Arm" data-name="Buch + Arm">
    <g id="Buch">
      <polygon class="cls-7" points="0 90.23 40.81 63.89 69.35 138.37 28.54 164.71 0 90.23"/>
      <polygon class="cls-10" points="45.42 67.41 41.11 70.19 7.98 91.57 33.35 157.76 29.05 160.54 2.87 92.23 40.3 68.07 45.42 67.41"/>
      <polygon class="cls-15" points="41.11 70.19 66.48 136.38 33.35 157.76 7.98 91.57 41.11 70.19"/>
      <polygon class="cls-13" points="45.42 67.41 71.6 135.72 34.16 159.88 7.98 91.57 41.11 70.19 45.42 67.41"/>
      <polygon class="cls-7" points="89.15 148.74 28.54 164.71 0 90.23 60.61 74.27 89.15 148.74"/>
      <polygon class="cls-10" points="57.79 75.01 58.75 73.21 14.02 85.03 10.07 87.58 57.79 75.01"/>
      <polygon class="cls-13" points="58.75 73.21 59.29 74.61 57.79 75.01 58.75 73.21"/>
      <path class="cls-13" d="M48.71,109.37c-1.06-.92-2.25-1.47-3.56-1.66-1.31-.19-3.51-.23-6.6-.12-2.14.06-3.43.07-3.89.03-.81-.09-1.47-.35-2-.77-.51-.4-.9-.93-1.15-1.58-.4-1.03-.37-2.07.08-3.13.46-1.06,1.57-1.93,3.33-2.62,1.49-.58,2.81-.6,3.97-.06,1.15.54,2.11,1.54,2.88,3.01l3.49-2.14c-.99-1.83-2.03-3.19-3.12-4.09-1.08-.9-2.43-1.42-4.04-1.57-1.61-.15-3.3.12-5.08.82-1.18.46-2.21,1.09-3.08,1.89-.88.81-1.5,1.61-1.87,2.42-.5,1.06-.77,2.24-.79,3.55-.02,1.31.22,2.63.74,3.95.57,1.46,1.37,2.67,2.4,3.66.83.8,1.77,1.35,2.81,1.67-.65,1.1-1.04,2.31-1.16,3.64-.14,1.43,0,2.84.4,4.21.02.07.03.14.06.2.07.26.17.51.26.77.67,1.72,1.54,3.04,2.6,3.95,1.06.92,2.25,1.47,3.56,1.66,1.31.19,3.51.23,6.59.12,2.14-.06,3.44-.07,3.89-.03.81.09,1.47.35,2,.77.52.4.9.93,1.16,1.58.4,1.02.37,2.06-.09,3.13-.45,1.06-1.56,1.93-3.33,2.62-1.49.58-2.82.6-3.97.06-1.15-.54-2.11-1.54-2.87-3l-3.49,2.13c.99,1.83,2.03,3.19,3.11,4.09,1.09.9,2.43,1.42,4.04,1.57,1.6.15,3.29-.12,5.07-.81,1.18-.46,2.21-1.09,3.08-1.89.88-.8,1.5-1.61,1.87-2.42.51-1.06.77-2.24.79-3.55.02-1.31-.22-2.63-.74-3.95-.57-1.46-1.36-2.68-2.39-3.66-.83-.79-1.77-1.35-2.81-1.67.65-1.1,1.03-2.31,1.16-3.64.14-1.43,0-2.84-.4-4.21-.01-.07-.04-.14-.06-.2-.07-.26-.16-.51-.26-.77-.67-1.72-1.53-3.04-2.6-3.95ZM47.62,115.55c.44,1.21.42,2.44-.04,3.66-.4,1.04-1.22,1.89-2.47,2.53-.56.02-1.16.04-1.8.07-2.36.12-3.89.06-4.59-.18-.05-.02-.1-.04-.15-.06-.93-.38-1.61-1.11-2.03-2.19-.02-.06-.05-.12-.07-.19-.42-1.21-.4-2.42.06-3.63.39-1.04,1.22-1.88,2.46-2.53.57-.01,1.17-.04,1.81-.07,2.36-.12,3.89-.06,4.59.18.05.02.1.04.15.06.93.38,1.6,1.11,2.02,2.19.02.05.04.1.06.15Z"/>
    </g>
    <g id="Arm">
      <path class="cls-6" d="M138.25,164.36c-.48-4.25-3.77-7.49-7.8-8.09-.08,0-.16-.02-.24-.03-.43-.03-.85-.06-1.28-.09h-.1c-7.55-.67-15.47-1.21-23.73-1.54-.86-.03-4.68-.18-9.99-.29-6.95-.14-16.29-.26-27.33.05-.56.14-1.12.28-1.68.41,0,0,0,0,0,0-2.23-.2-5.1-.67-8.32-1.71-1.93-.63-3.91-1.38-5.71-2.34-1.87-1-3.81-2.37-6.02-2.08-2.04.26-3.54,1.95-4.41,3.74-.71,1.47-1.12,3.19-.62,4.78.02.06.04.12.06.18.41,1.12,1.25,2.07,2.21,2.83,1.84,1.48,4.09,2.37,6.34,3.09,1.17.37,2.36.71,3.56.93.43.12.81.18,1.06.22.43.06.86.08,1.27.07.31.01.63.02.94.01,1.68-.04,3.43-.53,4.89-1.4,21.57,3.69,43.13,7.39,64.7,11.08,1.26.41,2.62.57,4,.42,5.08-.57,8.76-5.16,8.19-10.24Z"/>
    </g>
  </g>
</svg>