<?xml version="1.0" encoding="UTF-8"?>
<svg id="_0055_THK_Urheberrecht" data-name="0055_THK_Urheberrecht" xmlns="http://www.w3.org/2000/svg" viewBox="0 0 648.51 523.24">
  <defs>
    <style>
      .cls-1 {
        fill: #eee;
      }

      .cls-1, .cls-2, .cls-3, .cls-4, .cls-5, .cls-6, .cls-7, .cls-8, .cls-9, .cls-10, .cls-11, .cls-12, .cls-13, .cls-14, .cls-15, .cls-16, .cls-17, .cls-18, .cls-19, .cls-20, .cls-21, .cls-22, .cls-23, .cls-24 {
        stroke-width: 0px;
      }

      .cls-2 {
        fill: #42210b;
      }

      .cls-3 {
        fill: #308fc9;
      }

      .cls-4 {
        fill: #206289;
      }

      .cls-5 {
        fill: #dec1a8;
      }

      .cls-6 {
        fill: #9d9d9c;
      }

      .cls-7 {
        fill: #dddddc;
      }

      .cls-8 {
        fill: #706f6f;
      }

      .cls-9 {
        fill: #64abd6;
      }

      .cls-10 {
        fill: #e6710a;
      }

      .cls-25 {
        fill: #b9ddf3;
        stroke: #64abd6;
        stroke-width: .25px;
      }

      .cls-25, .cls-26 {
        stroke-miterlimit: 10;
      }

      .cls-11 {
        fill: #603813;
      }

      .cls-12 {
        fill: #000;
      }

      .cls-13 {
        fill: #73bbe7;
      }

      .cls-14 {
        fill: #fcd9bd;
      }

      .cls-15 {
        fill: #b47d49;
      }

      .cls-16 {
        fill: #236289;
      }

      .cls-17 {
        fill: #825832;
      }

      .cls-18 {
        fill: #ec9447;
      }

      .cls-19 {
        fill: #e5e6e5;
      }

      .cls-26 {
        fill: none;
        stroke: #73bbe7;
        stroke-width: 2.5px;
      }

      .cls-20 {
        fill: #98c7e4;
      }

      .cls-21 {
        fill: #ccc;
      }

      .cls-22 {
        fill: #cbe3f1;
      }

      .cls-23 {
        fill: #f9dbc2;
      }

      .cls-24 {
        fill: #fff;
      }
    </style>
  </defs>
  <g id="Person_links" data-name="Person links">
    <g>
      <path class="cls-15" d="M220.2,330.11c-1.74-1.77-1.99-5.65-.76-5.26,2.62.84,5.42,1.25,6.18.29.22-.29.33-.56.35-.83.07-.9-.8-1.65-1.58-2.25-3.03-2.34-5-3.11-5-3.11-1.45-.62-3.45-1.49-5.94-2.67-8.58-11.59-17.46-23.16-26.67-34.7-.72-.9-1.44-1.8-2.16-2.7-3.62-15.42-7.27-30.83-10.91-46.25-.02,0-.03.01-.04.01-.92-3.92-4.89-7.41-10.21-8.53-6.75-1.42-13.08,1.54-14.14,6.6-.28,1.3-.17,2.58.23,3.83-.02,0-.02.01-.04,0,1.68,4.3,3.37,8.59,5.05,12.89,1.69,4.3,3.37,8.59,5.06,12.89l5.06,12.89c.3.78,1.01,3.29,2.53,6.44.21.44.58,1.19,1.12,2.18,2.33,4.26,5.45,8.65,6.21,9.68,6.3,8.47,14.45,15.88,22.03,23.15,2.18,2.09,4.38,4.16,6.59,6.22,2.19,2.03,3.64,3.77,5.15,6.35,2.09,3.57,5.25,6.51,8.95,8.37,2.05,1.03,9.1,3.96,10.15.24.71-2.5-3.94-2.39-7.22-5.72Z"/>
      <path class="cls-15" d="M185.76,510.41c.25,2.15-6.1,6.39-12.28,5.25-.61-.12-6.28-1.17-7.08-5.06-.24-1.17.02-2.26.38-3.11.41-1,.52-2.09.26-3.14-2.52-10.3-4.77-21.84-6.32-34.5-2.26-18.41-2.56-35.05-1.95-49.27h.02c-.27-1.05-.38-2.14-.3-3.27-.18-.55-.31-1.11-.39-1.69-3.26-6.95-6.48-14.77-9.33-23.46-5.67-17.39-8.3-33.38-9.38-46.72-.66-.15-1.37-.31-2.12-.51-2.27,13.69-6.47,30.3-14.25,48.16-3.66,8.38-7.62,15.85-11.52,22.46-.5,2.07-1.62,3.9-3.14,5.3-7.3,14.29-15.64,29.25-25.17,44.67-1.98,3.21-4.77,8.1-9.05,14.19-3.57,5.07-6.96,9.34-9.81,12.73-1.96,2.33-2.37,5.57-1.18,8.38.8,1.9,1.27,3.92.36,5.01-1.85,2.23-8.77-.08-12.95-3.86-1.69-1.53-5.52-4.98-4.54-9.11.53-2.25,2.26-3.74,3.67-4.6,1.26-.78,2.24-1.95,2.72-3.35,3.44-10.01,7.78-20.91,13.28-32.37,8.02-16.71,16.72-30.88,24.9-42.55h.01c.07-.19.15-.39.23-.59.93-12.34,1.81-24.81,2.61-37.39,1.13-17.63,2.1-35.04,2.92-52.24.46-6.21,1.31-15.7,2.96-27.32.83-5.79,1.58-9.93,1.77-11.24,2.97-20.74,4.15-39.84,4.31-56.82,7.62-1.51,17.98-2.77,30.19-1.96,12.39.83,22.62,3.52,30.03,6.08-2.37,13.26-4.12,31.22-1.97,52.23,1.53,15.02,4.67,27.91,7.97,38.22,4,14.88,7.59,33.48,8.61,55.04.69,14.48.1,27.59-1.08,39h-.02c.07.58.06,1.19.01,1.81.47,1.47.63,3.05.4,4.66,1.54,16.23,2.59,33.56,2.91,51.89.2,11.23.11,22.08-.2,32.51-.03.89.19,1.77.64,2.53.2.33.42.69.68,1.07,1.42,2.07,2.12,2.26,2.19,2.94Z"/>
    </g>
    <g id="Hose">
      <path class="cls-3" d="M138.91,347.92c2.76,18.42,5.46,36.85,8.12,55.29,4.8,33.45,9.42,66.93,13.84,100.43,3.54-.79,7.82-1.47,12.68-1.69,4.45-.2,8.43.02,11.8.41,3.6-29.01,5.59-64.56,2.62-104.89-2.37-32.3-7.44-60.88-13.22-85.04-9.07,1.75-20.05,3.16-32.53,3.33-.98.02-1.94.02-2.89.02l-.41,32.14Z"/>
      <path class="cls-9" d="M139.36,315.77c-.13,10.72-.27,21.43-.4,32.14-.46,20.04-4.94,35.32-8.63,45.01-2.5,6.56-5.34,14-9,20.18-6.91,12.99-15.17,27.04-25.06,41.69-9.88,14.61-19.81,27.52-29.27,38.76-2.61-2.15-5.83-4.5-9.67-6.76-4.21-2.47-8.17-4.23-11.56-5.49,6.95-11.69,15.49-27.49,23.68-46.94,4.1-9.73,7.79-18.41,11.38-30.57,6.44-21.78,5.36-30.15,10.98-56.01,1.82-8.35,4.76-20.51,9.46-35.14,6.41.91,13.21,1.68,20.38,2.24,6.16.48,12.07.76,17.7.89Z"/>
    </g>
    <g id="Schuhe">
      <path class="cls-8" d="M71.08,509.96c-3.2-4.42-5.22-8.4-7.76-11.84-.26-.08-.53-.16-.82-.25h0c-1.84-.59-4.33-1.66-6.87-3.59-2.81-2.15-4.59-4.5-5.65-6.22-.15-.24-.28-.46-.4-.67-1.19.63-2.65,1.47-4.14,2.66-1.65,1.33-2.91,2.69-3.79,3.81l-1.4,1.8,35.36,27.58,1.4-1.8s1.02-1.9-5.92-11.49Z"/>
      <path class="cls-8" d="M164.01,512.08c.44-1.85,1.08-3.41,1.64-4.64.3.12.62.25.99.38h0c1.88.68,4.63,1.39,7.99,1.37,3.71-.04,6.66-.95,8.44-1.67.23.07.45.13.67.2h.02c3.88,1.17,7.74,2.97,12.69,4.43,11.35,3.35,11.7,5.47,11.7,5.47v2.28s-44.85-.22-44.85-.22v-2.28c.02-1.42.19-3.27.69-5.33Z"/>
    </g>
    <g id="Gesicht">
      <path class="cls-15" d="M158.4,193.24c.42,8.6-5.42,16.57-14.1,18.53-.35.08-.71.15-1.06.2v.06l-1.1,16.03c-.28,4.14-3.9,7.29-8.04,7.01-4.14-.28-7.29-3.9-7.01-8.04l1.1-16.03c.04-.6.15-1.19.34-1.74-4.54-2.69-8.1-7.01-9.71-12.34-.39.09-.8.12-1.21.09-2.4-.16-4.24-2.26-4.07-4.67l.11-1.63c.12-1.79,1.3-3.25,2.88-3.82-1.91-10.39,4.79-20.62,15.19-22.96,1.45-.33,2.91-.48,4.34-.48,9.09,0,17.35,6.29,19.42,15.51l1.04,4.64c1.91.29,3.47,1.83,3.69,3.82l.19,1.63c.19,1.71-.63,3.32-2,4.19Z"/>
      <g id="Schatten">
        <path class="cls-17" d="M143.29,211.97c-1.34.21-3.02.35-4.96.24-2.29-.14-4.22-.59-5.65-1.05,3.32,3.37,6.64,6.75,9.96,10.12.08-1.39.18-2.8.27-4.21.12-1.71.25-3.41.38-5.09Z"/>
        <path class="cls-17" d="M117.19,189.76c-.31-.02-.83,1.2-.57,2.35.19.83.79,1.69,1.06,1.6.52-.17.05-3.92-.48-3.95Z"/>
      </g>
      <g id="Augen">
        <rect class="cls-12" x="131.84" y="183.12" width="3.18" height="3.73" rx="1.59" ry="1.59" transform="translate(-17.29 13.79) rotate(-5.56)"/>
        <rect class="cls-12" x="147.35" y="181.61" width="3.18" height="3.73" rx="1.59" ry="1.59" transform="translate(-17.07 15.29) rotate(-5.56)"/>
      </g>
      <g id="Nase">
        <path class="cls-12" d="M142.6,196.26c-.44,0-.91-.1-1.37-.3-.06-.03-.09-.1-.06-.16.03-.06.1-.09.16-.06.77.34,1.62.36,2.25.07.35-.16.6-.4.68-.66.2-.65-.09-1.25-.88-1.84l-.1-.08c-.38-.29-1.02-.77-1.38-1.61-.12-.29-.2-.73-.25-1.03l-.02-.13c-.04-.36-.07-.66-.1-.95-.03-.28-.07-.57-.1-.91,0-.07.04-.13.11-.14.08,0,.13.04.14.11.03.34.07.62.1.91.03.29.07.59.1.94l.02.12c.05.28.12.71.24.97.33.78.92,1.22,1.31,1.51l.1.08c.88.66,1.2,1.35.96,2.12-.1.33-.4.62-.81.82-.33.15-.7.23-1.09.23Z"/>
      </g>
      <g id="Mund">
        <path class="cls-24" d="M136.46,200.05c.04.22.61,3.28,3.34,4.42,2.38,1,5.38.1,7.08-2.3-1.18.28-3.52.65-6.27-.11-1.89-.52-3.28-1.37-4.15-2.01Z"/>
      </g>
      <g id="Augenbrauen">
        <path class="cls-2" d="M145.52,181.58c.34-.5,1.02-1.36,2.17-2.03,1.44-.84,2.81-.91,3.44-.91.62-.86.62-1.31.49-1.56-.48-.87-3.31-.59-5.32.72-1.35.88-2.74,2.51-2.33,3.28.21.4.87.5,1.56.49Z"/>
        <path class="cls-2" d="M129.63,183.06c.34-.5,1.02-1.36,2.17-2.03,1.44-.84,2.81-.91,3.44-.91.62-.86.62-1.31.49-1.56-.48-.87-3.31-.59-5.32.72-1.35.88-2.74,2.51-2.33,3.28.21.4.87.5,1.56.49Z"/>
      </g>
      <path class="cls-11" d="M155.94,173.54c-.42-1.27-1.08-2.97-1.78-4.45.54-1.96.48-4.51-.57-6.61-1.59-3.21-4.96-4.39-7.09-5.14-6.05-2.13-11.59-.77-13.09-.37-5.66,1.51-5.53,3.77-10.8,4.48-3.56.48-5.95-.23-7.18,1.38-1.35,1.77-.14,4.77-.02,5.05.42,1.03,1.15,1.97,2.12,2.83-1.47,2.6-1.78,6.22-1.82,7.39-.06,1.71.81,8.46.81,8.46.81.2,1.86.3,4.17,1.35,2.36,1.07,3.59,2.02,3.59,2.02-.07.11-2.18-4.05-1.91-8.48.19-3.07,1.86-5.07,3.1-6.78,9.3,2.73,22.14,2.27,26.94-2.59.19.3.4.65.64,1.11.32.62.51,1.2.85,1.96,1.7,3.78,2.48,8.94,2.62,8.41.08-.28.17-.52.17-.6.3-6.23-.77-9.43-.77-9.43Z"/>
    </g>
    <g id="Tasche">
      <path class="cls-6" d="M93.06,375.96l-2.9,42.36c-.27,4.01-3.76,7.05-7.77,6.78l-75.61-5.17c-4.02-.27-7.05-3.76-6.78-7.77l2.9-42.36c-.51,7.49,5.15,13.98,12.64,14.49l63.02,4.31c7.49.51,13.98-5.15,14.49-12.64Z"/>
      <path class="cls-21" d="M93.95,363.06l-.88,12.9c-.51,7.49-7,13.15-14.49,12.64l-63.02-4.31c-7.49-.51-13.15-7-12.64-14.49l.88-12.9c.19-2.74,2.56-4.81,5.3-4.62l80.22,5.48c2.74.19,4.82,2.56,4.63,5.3Z"/>
      <rect class="cls-1" x="37.72" y="382.99" width="18.67" height="7.19" transform="translate(26.47 -2.31) rotate(3.91)"/>
      <path class="cls-21" d="M69.67,353.1l-5.39-.37c-2.45-5.79-7.98-9.72-14.25-10.14-6.25-.42-12.24,2.72-15.45,8.11l-5.38-.37c3.89-7.95,12.21-12.8,21.01-12.26,8.91.55,16.64,6.52,19.45,15.02Z"/>
      <path class="cls-6" d="M38.84,353.06l-.09,1.24-13.8-.94.09-1.24c.08-1.14,1.06-2,2.2-1.92l9.68.66c1.13.08,2,1.06,1.92,2.2Z"/>
      <path class="cls-6" d="M73.54,355.43l-.09,1.24-13.8-.94.09-1.24c.08-1.14,1.06-2,2.2-1.92l9.68.66c1.13.08,2,1.06,1.92,2.2Z"/>
    </g>
    <path class="cls-15" d="M79.96,295.48c-7.61,12.12-15.21,24.23-22.83,36.36.08.83.17,1.53.24,2.1.61,4.93,1.12,6.69.35,9.31-.25.87-.48,1.65-1.11,2.51-1.79,2.46-5.66,3.99-9.06,2.72-4.21-1.58-4.98-6.47-5.11-7.26-.54-3.43.95-6.17,2.18-8.53.63-1.2,1.32-2.23,2.01-3.09,6.26-13.86,12.52-27.71,18.77-41.56.4-.8,1.99-3.72,5.33-4.72.42-.13,1.34-.4,2.51-.33,3.88.25,7.82,4.11,7.88,8.38,0,.77-.09,2.3-1.16,4.11Z"/>
    <g>
      <path class="cls-6" d="M174.74,312.43c-8.26,3.29-21.64,7.44-38.52,7.68-14.91.21-27.03-2.71-35.03-5.32,1.12-30.17,2.24-60.35,3.36-90.52,2.72-.8,5.75-1.56,9.05-2.17,4.09-.76,7.87-1.16,11.24-1.35l.17-6.61,1.46,6.54c2.73-.11,5.6-.09,8.6.09,3.09.19,6.01.52,8.77.96l1.67-5.57.24,5.9c7.32,1.34,13.34,3.39,17.75,5.2-.37,11.48-.04,24.73,1.68,39.33,2.08,17.71,5.71,33.13,9.56,45.84Z"/>
      <path class="cls-7" d="M134.33,220.71c-1.91,3.14-3.83,6.28-5.74,9.42l-3.58-16c.36-.16.86-.33,1.45-.43.61-.11,1.14-.11,1.55-.08l6.32,7.09,1.99.14c2.26-2.16,4.52-4.31,6.79-6.47.38,0,.85.03,1.39.15.56.12,1.02.29,1.38.46-1.6,5.33-3.19,10.67-4.79,16.01-1.59-3.38-3.17-6.76-4.76-10.14l-1.99-.14Z"/>
    </g>
    <g>
      <path class="cls-22" d="M211.96,311.25c-2.39,1.49-5.04,3.31-7.81,5.49-2.42,1.9-4.52,3.77-6.34,5.51-5.4-6.67-10.8-13.33-16.2-19.99-4.84-5.45-9.25-10.56-11.18-17.63-2-7.34-5.73-13.88-8.19-21.02-3.31-9.62-4.85-16.77-5.77-23.92-.17-1.29-.29-2.37-.36-3.11-.39-3.87.33-13.08,5.29-15.45,3.74-1.79,8.54,1.16,9.31,1.62,6.82,4.13,8.41,12.26,9.97,21.38,1.68,9.85,3.45,21.73,4.98,35.36.09.1.17.22.25.33,8.68,10.48,17.37,20.96,26.05,31.44Z"/>
      <path class="cls-20" d="M184.14,341.12c-11.52,3.32-26.94,6.49-45.24,6.8-26.25.45-47.51-5.17-61.28-10.05,3.24-10.41,6.99-25.32,8.58-43.52,3.04-34.83-3.61-61.73,8.79-68.99,4.65-2.72,16.69-5.45,20.71-5.79,3.54-.3,6.53-.2,8.66-.05.12,5.86.5,13.41,1.55,22.17.45,3.77,1.19,9.81,2.82,17.51,1.36,6.4,3.48,14.68,6.92,24.14,3.61-9.61,7.26-22.02,9.15-36.76,1.31-10.25,1.5-19.49,1.17-27.4,2.61-.26,5.74-.39,9.27-.13,3.63.26,6.8.86,9.39,1.52-.1,4.53-.24,13.4.03,21.38.09,2.73.2,4.6.27,5.65.37,5.76.9,9.71,1.05,10.71,1.06,7.57,2.7,13.85,4.34,19.88.95,3.49,4.34,18.42,10.95,48.32.95,4.3,1.94,9.16,2.88,14.61Z"/>
      <path class="cls-16" d="M159,222.12c-4.52-2.37-9.04-4.74-13.56-7.12.53,8,.57,17.29-.46,27.56-1.64,16.43-5.48,30.22-9.33,40.76-3.98-10.93-7.9-24.99-9.74-41.64-1.12-10.18-1.26-19.45-.9-27.55-4.48,2.44-8.96,4.89-13.44,7.33,2.15,1.03,4.29,2.07,6.44,3.1-1.61.85-3.22,1.71-4.84,2.56.38,3.52.96,7.47,1.88,11.74,0,0,1.48,6.94,3.83,13.69,4.95,14.24,13.52,26.86,16.28,30.78l3.25,64.59,1-.05-3.25-64.59c5.03-6.58,11.47-16.6,16.04-29.97,3.35-9.8,4.74-18.63,5.3-25.53-1.63-.83-3.25-1.66-4.88-2.48,2.13-1.07,4.26-2.14,6.39-3.21Z"/>
      <g id="Krawatte">
        <polyline class="cls-3" points="133.04 228.62 130.34 235.41 130.36 270.76 135.31 288.44 140.86 268.8 139.33 235.44 136.73 228.87"/>
        <path class="cls-3" d="M132.01,224.62c-.08.44-.18,1.3.12,2.3.24.8.64,1.37.91,1.7.34.18.88.4,1.56.48.95.12,1.72-.08,2.13-.23.31-.31.74-.8,1.07-1.52.44-.95.5-1.82.49-2.3-.66-1.4-1.31-2.8-1.97-4.2l-1.99-.14-2.32,3.91Z"/>
      </g>
      <g id="Knöpfe">
        <circle class="cls-4" cx="140.72" cy="301.1" r="1.83"/>
        <circle class="cls-4" cx="139.92" cy="288.68" r="1.83"/>
        <circle class="cls-4" cx="141.24" cy="313.52" r="1.83"/>
      </g>
      <path class="cls-22" d="M103.72,251.9c-4.55,10.44-6.83,15.66-8.48,18.95-3.06,6.12-7.41,14.36-13.19,23.92-.04.18-.09.36-.14.54-6.79,12.21-13.59,24.43-20.38,36.64-1.73-1.46-4.06-3.21-7.02-4.86-3.36-1.87-6.43-3.01-8.79-3.72,9.83-19,17.43-32.81,20.04-36.89.11-.18.26-.37.43-.58,4.28-16.22,8.88-29.34,12.72-39.17.62-1.59,8.53-21.35,17.65-23.11,4.57-.89,8.11.67,8.11.67,1.35.54,3.36,1.6,4.65,3.65,2.69,4.27.47,10.04-5.6,23.95Z"/>
    </g>
  </g>
  <g id="Person_rechts" data-name="Person rechts">
    <g id="Gesicht-2" data-name="Gesicht">
      <path class="cls-14" d="M572.57,191.38c-.03-1.68-1.08-3.12-2.54-3.73,2.28-9.68-3.51-19.61-13.2-22.31h0c-9.94-2.77-20.34,3.08-23.11,13l-1.21,4.32c-1.8.19-3.34,1.54-3.65,3.41l-.25,1.52c-.27,1.6.45,3.14,1.69,4.03-.8,8.07,4.31,15.86,12.4,18.11h0c.27.07.54.12.81.18l.27,15.38c.07,4,3.4,7.22,7.4,7.15h.02c4-.07,7.22-3.4,7.15-7.41l-.27-15.46c0-.54-.08-1.06-.21-1.57,4.31-2.32,7.78-6.17,9.53-11.04.37.1.75.17,1.15.16h0c2.27-.04,4.09-1.93,4.05-4.2l-.03-1.54Z"/>
      <g>
        <path class="cls-5" d="M543.47,209.92c1.22.29,2.81.55,4.67.56,2.2,0,4.04-.35,5.38-.72-3.29,3.01-6.58,6.03-9.87,9.04-.01-1.31-.03-2.64-.06-3.97-.03-1.65-.07-3.29-.12-4.91Z"/>
        <path class="cls-5" d="M569.28,190.32c.29,0,.73,1.16.43,2.24-.21.77-.82,1.55-1.07,1.45-.48-.19.14-3.69.65-3.69Z"/>
      </g>
      <g>
        <rect class="cls-12" x="552.72" y="183.3" width="3" height="3.51" rx="1.5" ry="1.5" transform="translate(1075.27 449.46) rotate(-171.56)"/>
        <rect class="cls-12" x="538.17" y="181.14" width="3" height="3.51" rx="1.5" ry="1.5" transform="translate(1046.65 443.04) rotate(-171.56)"/>
      </g>
      <path class="cls-12" d="M545.18,195.23c-.42,0-.82-.09-1.17-.27-.38-.2-.65-.49-.73-.81-.19-.73.14-1.37,1.01-1.95l.1-.07c.38-.26.95-.64,1.3-1.35.12-.24.21-.64.27-.9l.03-.12c.05-.32.09-.59.14-.86.04-.27.09-.54.14-.86.01-.07.06-.12.14-.11.07.01.12.07.11.14-.05.33-.09.6-.14.87-.04.27-.09.54-.14.86l-.03.13c-.06.27-.16.69-.29.96-.38.77-1.01,1.2-1.38,1.45l-.1.07c-.77.52-1.07,1.07-.91,1.68.06.25.28.48.6.65.58.3,1.38.32,2.12.04.07-.02.14,0,.16.07s0,.14-.07.16c-.39.15-.78.22-1.16.22Z"/>
      <g>
        <path class="cls-2" d="M542.98,181.28c-.3-.49-.9-1.33-1.94-2.01-1.32-.86-2.61-.99-3.2-1.02-.54-.84-.53-1.26-.39-1.49.49-.79,3.15-.39,4.98.93,1.23.9,2.46,2.49,2.04,3.19-.22.37-.84.43-1.49.38Z"/>
        <path class="cls-2" d="M557.88,183.43c-.3-.49-.9-1.33-1.94-2.01-1.32-.86-2.61-.99-3.2-1.02-.54-.84-.53-1.26-.39-1.49.49-.79,3.15-.39,4.98.93,1.23.9,2.46,2.49,2.04,3.19-.22.37-.84.43-1.49.38Z"/>
      </g>
      <g id="Bart">
        <ellipse class="cls-24" cx="543.94" cy="200.29" rx="1.13" ry="4.66" transform="translate(232.55 689.19) rotate(-77.72)"/>
        <path class="cls-2" d="M550.36,200.02c-2.6-1.48-3.61-3.24-5.22-3.02-.38.05-.88.24-1.42.76-.31-.64-.67-.95-.96-1.1-1.25-.63-2.54.79-5.05,1.54-1.13.34-2.11.42-2.81.43.5.52,1.21,1.1,2.15,1.47,2.99,1.18,5.83-.69,6.49-1.16.6.65,3.23,3.31,6.96,3.1,1.18-.07,2.15-.4,2.88-.75-.78-.22-1.86-.59-3.03-1.27Z"/>
        <g id="Haare">
          <path class="cls-2" d="M566.68,169.63c-1.96-.41-4.65.6-5.4,2.44-1.18,2.87,3.46,5.04,3.52,10.2.05,4.17-2.14,7.99-2.2,7.88,0,0,1.21-.83,3.48-1.73,2.23-.88,3.22-.92,3.99-1.07,0,0,1.14-6.3,1.17-7.92.03-1.7-.23-8.89-4.57-9.8Z"/>
          <path class="cls-2" d="M538,166.09c-1.05-.32-3.39,4.43-4.45,7.14,0,0-1.16,2.96-1.17,8.83,0,.08.08.3.14.57.11.51,1.09-4.3,2.87-7.78.36-.7.57-1.24.9-1.8.89-1.53,1.41-1.8,1.84-2.65.85-1.69.56-4.09-.13-4.3Z"/>
        </g>
      </g>
      <g id="Mütze">
        <path class="cls-18" d="M535.61,162.83c5.53-7.17,14.82-10.2,23.19-7.65,7.45,2.27,13.08,8.64,14.62,16.47-5.61-.26-12.4-1.03-19.94-2.83-7-1.68-13-3.86-17.87-5.99Z"/>
        <path class="cls-10" d="M575.01,175.45c-.36,1.53-1.02,2.66-1.47,3.31-.77.36-1.53.72-2.3,1.09v-1.09s.05-.02.08-.03c-3.46-.11-6.45-.54-8.95-1.07-7.72-1.62-10.9-4.19-19.07-6.2-3.03-.75-5.83-1.19-8.31-1.45l-.63,1.3-2.14-1.54c-.22-.57-.66-1.93-.33-3.63.36-1.92,1.46-3.11,1.89-3.52,5.89-.12,10.46.7,13.51,1.46,6.19,1.54,8.81,3.47,15.63,5.36,5.1,1.42,9.41,1.95,12.17,2.17.15.8.29,2.19-.08,3.84Z"/>
      </g>
      <g id="Maske">
        <path class="cls-8" d="M562.07,180.88c-8.5-.15-17.15-1.09-25.1-4.26-.34-.14-4.01-1.63-4.01-1.84-.33,1.09-.65,2.47-.77,4.11-.11,1.39-.05,2.62.07,3.63.37.91,1.34,2.92,3.52,4.53,2.6,1.92,5.32,2.05,6.26,2.05,1.5-1.65,3.01-3.3,4.51-4.94.88,2.14,1.76,4.29,2.64,6.43,3.85,1.1,7.9,1.1,11.78.11,2.31-.59,4.53-1.45,6.72-2.37.57-.24,1.13-.49,1.7-.74.6-.25.71-.19.84-.84.23-1.17.42-2.35.57-3.53.1-.73.19-1.46.29-2.19,0,.1-8.34-.14-9.02-.15ZM543.09,183.94c-.39,1.3-2.25,1.89-4.14,1.31-1.89-.58-3.1-2.1-2.71-3.4.4-1.3,2.25-1.88,4.14-1.31,1.9.58,3.11,2.1,2.71,3.4ZM554.02,187.46c-1.93-.16-3.41-1.36-3.3-2.69s1.76-2.27,3.69-2.12c1.93.16,3.41,1.36,3.3,2.69-.11,1.33-1.76,2.27-3.69,2.12Z"/>
      </g>
    </g>
    <g id="Körper">
      <g id="Körper-2" data-name="Körper">
        <path class="cls-14" d="M609.86,286.1c-3.94,1.09-8.08-.92-9.23-4.52-.1-.31-.17-.62-.22-.93-10.34-13.55-19.31-27.44-26.31-41.83.02,0,.02-.02.03-.02-.63-1.14-1.01-2.4-1.1-3.77-.33-5.35,4.12-9.98,9.96-10.35,4.61-.29,8.68,2.16,10.36,5.84.02,0,.02-.03.03-.02,5.61,10.23,7.87,16.15,10.53,21.42,4.6,9.09,6.75,14.28,10.96,25.66-.12.86-.89,7.36-5.01,8.5Z"/>
        <path class="cls-14" d="M624.05,504.65c-2.77-1.48-4.54-4.32-4.47-7.45.09-4.54.04-10.13-.39-16.48-.51-7.62-1.45-13.32-1.94-17.16-2.38-18.71-5.44-36.26-8.9-52.57.05-1.55-.24-3.04-.8-4.41.02-.89-.05-1.77-.23-2.59h.02c-.19-11.95-1.1-25.36-3.23-39.9-2.95-20.12-7.56-37.69-12.4-52.31-2.71-10.97-5.14-23.25-6.85-36.7-2.39-18.71-2.89-35.72-2.46-50.44-7.49-1.85-17.76-3.59-30-3.35-12.06.23-22.12,2.31-29.48,4.4,1.27,16.35,1.72,34.84.55,55.05-.77,13.29-2.15,25.69-3.87,37.11-2.45,14.29-4.33,30.9-4.69,49.42-.29,14.63.41,28.04,1.62,40h.02c-.06.6-.04,1.23,0,1.86-.46,1.51-.6,3.14-.34,4.79-1.37,16.67-2.22,34.46-2.32,53.27-.06,11.53.17,22.66.64,33.36.04.91-.18,1.81-.63,2.6-.2.34-.42.71-.68,1.1-1.43,2.15-2.15,2.35-2.22,3.04-.23,2.21,6.36,6.48,12.7,5.23.63-.12,6.44-1.28,7.21-5.29.23-1.2-.05-2.31-.43-3.18-.44-1.02-.56-2.14-.31-3.22,2.46-10.6,4.62-22.47,6.05-35.48,2.09-18.92,2.17-35.98,1.36-50.57h-.02c.27-1.08.36-2.21.27-3.36.17-.56.3-1.15.38-1.74,3.26-7.17,6.47-15.24,9.29-24.19,5.6-17.91,8.1-34.35,9.04-48.05.68-.16,1.4-.33,2.17-.54,2.51,14.01,7.04,31,15.27,49.22,3.87,8.54,8.04,16.17,12.14,22.89.12.49.29.95.47,1.41-.04,1.43.2,2.8.69,4.07h-.02c1.01,14.58,3.21,31.5,7.61,50.01,3.01,12.69,6.59,24.18,10.31,34.39.52,1.43.5,2.99-.01,4.43-.56,1.6-.99,3.9.04,6.04,1.89,3.92,7.18,4.21,9.52,4.34,5.8.32,12.81-2.3,12.85-5.27.02-1.46-1.66-2.77-3.53-3.77Z"/>
        <path class="cls-14" d="M528.86,224.11c-4.61-1.81-10.68,2.84-12.94,5.48-4.05,4.72-4.59,5.96-13.74,23.03,0,0-4.65,8.67-9.11,18.41-10.66-5.79-21.57-11.15-32.1-17.17-2.17-2.3-3.8-4.14-4.93-5.46,0,0-1.34-1.64-4.5-3.82-.81-.56-1.79-1.16-2.63-.82-.25.1-.48.29-.69.59-.69,1.02.56,3.56,2.16,5.81.75,1.05-3.03,2-5.26.88-4.19-2.11-5.5-6.58-7.67-5.15-2.57,1.69.55,7.77,5.51,11.53,3.37,2.55,6.6,3.68,7.87,3.99,1.62.4,3.1.54,4.37.55,12.08,8.85,24.17,17.68,36.25,26.53.73.49,3.51,2.22,6.86,1.47.43-.1,1.35-.31,2.31-.94.86-.56,1.59-1.34,2.17-2.26.83-.8,1.56-1.66,2.21-2.41,10.19-12,17.04-23.16,18.15-24.96,8.97-14.59,11.46-18.27,12.32-24.38.37-2.58-1.64-8.95-6.61-10.9Z"/>
      </g>
      <g id="Schuhe-2" data-name="Schuhe">
        <path class="cls-2" d="M636.3,506.83c-5.41-1.46-9.61-3.34-13.86-4.44-.25.1-.52.22-.82.33h0c-1.85.72-4.53,1.47-7.81,1.58-3.64.1-6.58-.63-8.54-1.32-.27-.09-.52-.19-.76-.27-.55,1.27-1.17,2.89-1.59,4.79-.46,2.12-.59,4.03-.56,5.48l.04,2.34,46.11-.81-.04-2.34s-.41-2.17-12.17-5.34Z"/>
        <path class="cls-2" d="M533.39,508.72c-.48-1.89-1.15-3.49-1.75-4.74-.3.13-.64.27-1.02.4h0c-1.93.72-4.74,1.48-8.2,1.51-3.82,0-6.86-.88-8.7-1.6-.24.07-.46.14-.69.22h-.02c-3.97,1.26-7.92,3.14-12.99,4.71-11.63,3.58-11.96,5.77-11.96,5.77l.04,2.34,46.1-.81-.04-2.34c-.03-1.46-.22-3.35-.76-5.46Z"/>
      </g>
      <g id="Oberteil">
        <g>
          <path class="cls-6" d="M593.33,228.17l-23.88,19.38-.71-.85c-1.6-1.89-2.58-4.1-2.98-6.38l21.22-17.23c2.01.81,3.85,2.11,5.33,3.87l1.02,1.2Z"/>
          <polygon class="cls-8" points="598.7 234.54 574.81 253.93 569.45 247.55 593.33 228.17 598.7 234.54"/>
          <polygon class="cls-6" points="603.81 240.62 579.91 260 574.81 253.93 598.7 234.54 603.81 240.62"/>
          <polygon class="cls-8" points="609.02 246.82 585.44 266.57 579.91 260 603.81 240.62 609.02 246.82"/>
          <path class="cls-8" d="M586.98,223.09l-21.22,17.23c-.84-4.66.79-9.64,4.66-12.88l2.6-2.17c4-3.35,9.41-4.02,13.97-2.18Z"/>
        </g>
        <g>
          <path class="cls-6" d="M539.7,242.65c-.46,1.94-1.36,3.81-2.7,5.46l-1.24,1.52-24.31-18.85,1.72-2.1c1.18-1.43,2.6-2.57,4.14-3.39l22.4,17.36Z"/>
          <polygon class="cls-8" points="535.76 249.63 530.47 256.07 506.16 237.24 511.44 230.78 535.76 249.63"/>
          <polygon class="cls-6" points="530.47 256.07 525.44 262.22 501.13 243.38 506.16 237.24 530.47 256.07"/>
          <polygon class="cls-8" points="525.44 262.22 520.54 268.2 496.71 248.78 501.13 243.38 525.44 262.22"/>
          <path class="cls-8" d="M539.7,242.65l-22.4-17.36c4.73-2.53,10.76-2.15,15.15,1.44l2.61,2.13c4.19,3.42,5.82,8.83,4.64,13.78Z"/>
        </g>
        <g>
          <path class="cls-8" d="M583.2,239.67h-60.79c-.21-2.56-.5-5.21-.89-7.94h61.79c-.27,2.84-.26,5.5-.11,7.94Z"/>
          <path class="cls-6" d="M584.2,247.6h-61.36c-.06-2.54-.2-5.18-.43-7.93h60.79c.18,2.97.58,5.63,1,7.93Z"/>
          <path class="cls-6" d="M587.4,263.48h-65.17c.12-1.18.23-2.41.32-3.71.1-1.37.17-2.78.22-4.23h62.9c.54,2.92,1.11,5.5,1.73,7.94Z"/>
          <path class="cls-6" d="M591.89,279.35h-72.15c.53-2.98,1-5.52,1.39-7.94h68.47c.73,2.49,1.5,5.06,2.29,7.94Z"/>
          <path class="cls-6" d="M595.67,295.23h-78.5c.25-1.71.51-3.46.79-5.24.15-.94.29-1.84.43-2.7h75.55c.57,2.37,1.16,5.02,1.73,7.94Z"/>
          <path class="cls-6" d="M598.23,311.1h-83.21c.31-2.53.65-5.18,1.02-7.94h81.05c.4,2.5.79,5.15,1.14,7.94Z"/>
          <path class="cls-8" d="M593.21,325.61c-10.03,2.26-22.42,4.14-36.64,4.36-.59.01-1.18.01-1.76.01-15.88.07-29.49-1.98-40.07-4.37h78.47Z"/>
          <path class="cls-8" d="M599.48,324.08c-1.97.52-4.06,1.03-6.27,1.53h-78.47c-.43-.1-.85-.19-1.27-.29.2-2.12.44-4.4.7-6.83.26-2.33.54-4.8.85-7.39h83.21c.29,2.36.56,4.83.8,7.39.17,1.82.32,3.68.45,5.59Z"/>
          <path class="cls-8" d="M597.09,303.16h-81.05c.35-2.55.72-5.19,1.13-7.93h78.5c.49,2.45.97,5.1,1.42,7.93Z"/>
          <path class="cls-8" d="M593.94,287.29h-75.55c.49-3.01.94-5.61,1.35-7.94h72.15c.59,2.1,1.19,4.37,1.8,6.89.08.34.17.69.25,1.05Z"/>
          <path class="cls-8" d="M589.6,271.41h-68.47c.45-2.67.81-5.18,1.1-7.93h65.17c.69,2.74,1.42,5.29,2.2,7.93Z"/>
          <path class="cls-8" d="M585.67,255.54h-62.9c.1-2.51.13-5.16.07-7.94h61.36c.41,2.25.83,4.16,1.08,5.69.13.77.26,1.52.39,2.25Z"/>
          <path class="cls-6" d="M584.94,222.41c-.51,1.91-1.14,4.74-1.53,8.21-.04.37-.08.74-.1,1.11h-61.79c-.36-2.53-.8-5.13-1.33-7.8,2.04-.78,4.78-1.59,8.07-1.97,2.63-.31,4.96-.26,6.84-.09.81.9,6.43,6.91,15.49,6.73.36-.01.71-.02,1.06-.05,8.96-.66,14.08-7.19,14.71-8.04,2.25-.41,5.3-.73,8.89-.42,4.1.35,7.41,1.4,9.69,2.32Z"/>
        </g>
      </g>
      <g id="Hose-2" data-name="Hose">
        <path class="cls-19" d="M557.06,339.98c-2.6,18.93-5.14,37.88-7.63,56.83-4.5,34.38-8.81,68.78-12.92,103.21-3.65-.76-8.05-1.4-13.06-1.57-4.58-.15-8.67.13-12.12.57-4.08-29.71-6.59-66.16-4.06-107.57,2.02-33.17,6.85-62.56,12.48-87.41,9.35,1.67,20.65,2.98,33.49,3,1.01,0,2,0,2.98-.02l.84,32.96Z"/>
        <path class="cls-21" d="M625.97,495.22c-3.9-.17-8.31-.15-13.13.23-5.15.41-9.79,1.17-13.81,2.03-8.43-32.79-17.04-65.54-25.82-98.22-5.32-19.77-10.71-39.53-16.16-59.28l-.84-32.96c12.97-.2,24.33-1.68,33.65-3.5,8.4,22.27,16.53,48.06,22.94,77.1,9.58,43.36,12.79,82.39,13.18,114.6Z"/>
      </g>
      <path class="cls-14" d="M607.44,271c-.76-.09-2.27-.15-4.14.71-13.48,6.6-26.95,13.2-40.43,19.8-.09,0-.18.02-.28.02-2.68-.47-4.79-.9-6.31-1.24,0,0-2.06-.51-5.88-.34-.98.04-2.13.15-2.59.93-.14.23-.21.52-.19.88.06,1.23,2.59,2.51,5.23,3.34,1.23.39-1.2,3.43-3.65,3.87-4.61.83-8.35-1.95-9.21.5-1.02,2.9,5.13,5.89,11.35,5.9,4.22,0,7.48-1.04,8.67-1.55,1.37-.59,2.53-1.28,3.49-1.96.56-.11,1.18-.28,1.79-.52.45-.17.81-.35,1.06-.49,14.25-4.7,28.51-9.41,42.76-14.11.82-.31,3.84-1.56,5.16-4.72.17-.4.53-1.28.57-2.43.15-3.82-3.22-8.09-7.39-8.59Z"/>
    </g>
  </g>
  <g id="Netz">
    <path class="cls-23" d="M519.4,58.67l-.87-2.34c-1.88.7-3.67,1.36-5.41,2-2.7-3.71-5.56-7.3-8.6-10.71-2.48-2.79-5.09-5.47-7.79-8.06,1.76-.44,3.52-.87,5.28-1.3l-.59-2.43c-2.29.56-4.58,1.13-6.87,1.69-4.53-4.15-9.32-8.03-14.36-11.56l-1.44,2.05c4.5,3.16,8.8,6.58,12.88,10.24-3.7.92-7.38,1.85-11,2.78-2.95.75-5.95,1.52-9.03,2.31-5.78-6.34-11.85-12.44-18.15-18.27,1.68-.45,3.36-.91,5.03-1.36l-.64-2.42c-2.19.58-4.38,1.19-6.57,1.77-1.6-1.45-3.2-2.88-4.83-4.29l-1.64,1.89c1.21,1.05,2.4,2.11,3.59,3.18-6.98,1.88-13.96,3.79-20.95,5.73-6.92-6.52-14.06-12.81-21.37-18.85l-.29-1.7c-.49.08-.97.18-1.46.26-.77-.63-1.52-1.26-2.29-1.88l-1.57,1.95c.21.17.42.35.63.52-9.31,1.67-18.6,3.53-27.86,5.59-6.68-5.24-13.48-10.33-20.41-15.21l-1.44,2.04c6.35,4.47,12.59,9.1,18.73,13.88-7.36,1.68-14.69,3.49-21.98,5.41-7.7-6.62-15.51-13.09-23.44-19.36l-1.55,1.96c7.46,5.89,14.81,11.97,22.06,18.17-7.14,1.92-14.24,3.95-21.29,6.1-8.19-7.01-16.51-13.85-24.98-20.46l-1.54,1.97c8.02,6.26,15.91,12.74,23.68,19.36-9.36,2.9-18.69,6.02-27.96,9.35-6.34-6.64-12.69-13.27-19.02-19.86l-1.8,1.73c6.08,6.33,12.17,12.69,18.26,19.06-7.12,2.59-14.19,5.3-21.21,8.13-5.98-5.95-11.97-11.85-17.98-17.71l-1.74,1.79c5.75,5.6,11.48,11.25,17.2,16.94-7.96,3.24-15.87,6.62-23.67,10.15l.52,1.14-.86.9c6.54,6.25,13.06,12.58,19.54,18.97-2.56.86-5.13,1.71-7.69,2.57l.8,2.37c2.95-.99,5.92-1.98,8.88-2.97,6.24,6.17,12.43,12.39,18.58,18.65-4.55,1.58-8.94,3.13-13.07,4.6l.84,2.35c4.46-1.59,9.22-3.27,14.16-4.99,6.52,6.67,12.98,13.4,19.36,20.14-5.4,1.35-10.95,2.71-16.53,4.05l.29,1.19v1.27h.15l.14-.03c6.06-1.46,12.08-2.93,17.92-4.39.74.78,1.48,1.56,2.22,2.34,5.9,6.28,11.77,12.64,17.61,19.05-5.41,1.13-10.82,2.23-16.23,3.28l.47,2.45c5.9-1.14,11.8-2.35,17.7-3.59,6.2,6.82,12.35,13.7,18.44,20.63-3.68.79-7.36,1.56-11.04,2.3l.49,2.45c4.15-.83,8.29-1.69,12.44-2.59,6.6,7.54,13.14,15.11,19.57,22.72l.95-.81.26,1.22c9.06-1.93,18.14-4.12,27.14-6.54,2.59,3,5.17,6,7.74,9.01l1.9-1.62c-2.31-2.71-4.64-5.41-6.97-8.12,4.66-1.28,9.29-2.6,13.88-4,3.01-.91,6.01-1.86,9.01-2.83,1.63,1.78,3.28,3.57,4.9,5.36l1.85-1.68c-1.37-1.51-2.77-3.02-4.14-4.53,7.99-2.62,15.92-5.45,23.76-8.44.03.04.06.09.09.13l.56-.38c1.15-.44,2.32-.87,3.47-1.32l-.91-2.33c-.75.29-1.51.57-2.27.86-4.66-6.8-9.45-13.52-14.35-20.16,0,0,0,0,0,0,6.96-2.29,13.92-4.7,20.86-7.18,3.36,4.51,6.68,9.05,9.92,13.63l2.04-1.45c-3.11-4.38-6.28-8.73-9.5-13.06,6.52-2.35,13-4.79,19.44-7.3.57.87,1.15,1.74,1.72,2.61l2.1-1.36c-.47-.73-.96-1.45-1.43-2.17,1.37-.54,2.76-1.06,4.12-1.6l-.92-2.32c-1.53.61-3.07,1.19-4.61,1.79-4.22-6.33-8.59-12.57-13.1-18.71,7.16-2.45,14.28-4.97,21.37-7.55,1.9,2.79,3.78,5.6,5.61,8.44l2.1-1.36c-1.73-2.67-3.49-5.32-5.27-7.96,4.28-1.57,8.55-3.16,12.81-4.78l-.89-2.34c-4.44,1.69-8.91,3.35-13.39,4.99-5.56-8.09-11.4-16.01-17.5-23.71,3-1.03,5.99-2.06,8.96-3.09,3.57-1.24,7.11-2.49,10.58-3.72,5.05,6.87,9.82,13.95,14.25,21.2l2.13-1.3c-4.34-7.1-9-14.03-13.92-20.77,2.69-.96,5.35-1.91,7.95-2.85,3.78-1.36,7.7-2.79,12-4.37,1.52,2.15,3,4.32,4.4,6.55l2.12-1.33c-1.3-2.08-2.67-4.11-4.08-6.12,1.54-.57,3.12-1.15,4.76-1.76ZM450.61,25.84c6.34,5.8,12.45,11.88,18.28,18.2-3.71.96-7.53,1.97-11.51,3.02-3.28.87-6.58,1.76-9.89,2.65-5.78-6.21-11.76-12.26-17.91-18.14,7.02-1.94,14.04-3.85,21.04-5.74ZM447.67,53.57c6.36,6.93,12.51,14.09,18.43,21.45-3.92,1.33-7.86,2.67-11.82,3.98-3.63,1.22-7.29,2.43-10.95,3.64-6.84-8.01-13.92-15.79-21.25-23.33l.34-.1c3.47-.98,6.94-1.95,10.38-2.9,4.41-1.22,8.8-2.42,13.16-3.61.24-.06.48-.13.72-.19.33.35.66.7.99,1.06ZM344.84,96.95c3.75,4,7.51,8.04,11.27,12.06-7.18,2-14.47,3.98-21.72,5.91-2.8-3-5.6-6-8.4-8.98-4.14-4.4-8.32-8.79-12.51-13.18,7.06-2.36,14.09-4.68,20.94-6.89,3.48,3.69,6.96,7.39,10.42,11.08ZM346.66,95.24c-3.19-3.4-6.41-6.81-9.61-10.22.6-.19,1.2-.39,1.8-.59l1.5-.48c7.06-2.26,13.66-4.35,20.18-6.38,3.03-.94,6.08-1.89,9.13-2.82.13.14.27.27.4.4,7.45,7.67,14.74,15.53,21.87,23.55-2.72.81-5.44,1.62-8.15,2.41-6.68,1.97-13.63,3.97-20.65,5.94l-1.16.33c-1.05.29-2.09.58-3.14.87-4.05-4.34-8.11-8.7-12.16-13.01ZM372.35,73.93c4.12-1.26,8.26-2.52,12.42-3.77l3.84-1.15c1.62-.48,3.24-.96,4.86-1.44.2.2.4.4.59.6,7.37,7.58,14.58,15.36,21.64,23.29-2.63.82-5.25,1.63-7.87,2.43-4.8,1.48-9.53,2.91-13.26,4.02-7.23-8.17-14.64-16.18-22.21-23.99ZM396.19,66.78c3.61-1.06,7.22-2.12,10.82-3.17,4.13-1.19,8.24-2.36,12.33-3.52,7.38,7.55,14.52,15.36,21.41,23.39-3.74,1.22-7.49,2.43-11.27,3.64-2.39.77-4.79,1.53-7.2,2.29-1.32.42-2.64.83-3.95,1.24-7.21-8.13-14.59-16.1-22.13-23.87ZM406.31,61.21c-4.03,1.17-8.07,2.36-12.11,3.55-5.93-6.07-11.99-12.04-18.16-17.92.51-.15,1.02-.3,1.52-.45,7.02-2.07,14.08-4.11,21.16-6.14,6.36,5.78,12.58,11.72,18.61,17.82-3.66,1.04-7.33,2.09-11.02,3.15ZM391.48,65.56c-1.19.35-2.39.71-3.58,1.06l-3.85,1.15c-4.58,1.37-9.14,2.75-13.68,4.15-5.94-6.08-12.02-12.06-18.2-17.95,7.04-2.13,14.07-4.24,21.09-6.31,6.18,5.87,12.26,11.84,18.21,17.9ZM367.68,72.75c-2.63.81-5.27,1.62-7.89,2.44-6.53,2.03-13.14,4.12-20.2,6.38l-1.5.48c-.98.32-1.96.63-2.93.95-5.78-6.14-11.58-12.28-17.39-18.42,10.54-3.32,21.1-6.58,31.66-9.79,6.2,5.88,12.3,11.87,18.26,17.95ZM332.53,83.86c-6.87,2.22-13.9,4.53-20.96,6.9-5.92-6.19-11.89-12.35-17.89-18.49,7.13-2.3,14.28-4.59,21.43-6.85,5.82,6.15,11.63,12.29,17.41,18.44ZM324.17,107.65c2.5,2.65,4.99,5.32,7.48,7.99-7.93,2.1-16.19,4.22-24.62,6.33-6.44-6.82-12.96-13.61-19.54-20.36,8.27-2.87,15.95-5.49,23.38-7.98,4.46,4.66,8.9,9.33,13.31,14.01ZM358.03,111.07c7.04,7.54,14.08,15.1,21.11,22.69-7.42,1.92-14.87,3.77-22.34,5.54-6.79-7.49-13.62-14.93-20.48-22.31,7.26-1.93,14.55-3.92,21.71-5.92ZM381.08,135.85c6.15,6.63,12.27,13.27,18.39,19.92-7.48,2.11-14.99,4.11-22.53,6.01-6.04-6.82-12.12-13.61-18.23-20.36,7.48-1.78,14.93-3.65,22.36-5.57ZM383.83,135.14c7.81-2.05,15.59-4.17,23.32-6.37,2.71-.77,5.43-1.57,8.14-2.36,5.25,6.55,10.38,13.18,15.39,19.91-9.43,3.05-18.95,5.95-28.53,8.68-6.1-6.63-12.21-13.25-18.33-19.86ZM406.47,126.37c-8.14,2.32-16.34,4.55-24.57,6.69-7.05-7.6-14.1-15.18-21.15-22.74.63-.18,1.26-.35,1.89-.53l1.16-.33c7.03-1.97,13.99-3.98,20.68-5.95,3.08-.9,6.17-1.81,9.27-2.74,6.78,7.69,13.4,15.54,19.84,23.53-2.38.69-4.75,1.39-7.12,2.07ZM396.39,99.99c3.55-1.06,7.84-2.36,12.18-3.7,2.98-.91,5.97-1.84,8.96-2.77,6.8,7.7,13.44,15.56,19.92,23.55-7.07,2.23-14.16,4.39-21.25,6.48-6.44-7.99-13.04-15.85-19.81-23.56ZM420.14,92.7c.96-.3,1.92-.6,2.89-.91,2.41-.76,4.83-1.52,7.21-2.29,4.11-1.31,8.2-2.64,12.27-3.96,6.53,7.7,12.82,15.61,18.86,23.71-7.1,2.41-14.22,4.75-21.36,7.02-6.46-7.99-13.09-15.85-19.87-23.56ZM432.13,53.91c-3.45.96-6.92,1.93-10.39,2.91l-1.65.46s-.02-.02-.03-.04c-5.99-6.09-12.18-12.02-18.5-17.8,8.39-2.4,16.79-4.76,25.21-7.09,6.18,5.86,12.18,11.9,17.98,18.1-4.19,1.14-8.39,2.29-12.62,3.46ZM403.65,11.94c7.18,5.9,14.2,12.04,21,18.4-8.44,2.34-16.87,4.71-25.27,7.12-7.65-6.91-15.52-13.59-23.6-20.01,9.27-2.04,18.57-3.87,27.87-5.51ZM372.64,18.16c8.18,6.45,16.16,13.15,23.9,20.11-6.58,1.89-13.15,3.8-19.69,5.72-.97.29-1.94.58-2.91.86-7.68-7.26-15.51-14.37-23.49-21.29,7.36-1.92,14.76-3.73,22.19-5.4ZM347.52,24.34c8.04,6.94,15.93,14.06,23.66,21.34-7.03,2.08-14.06,4.19-21.09,6.32-7.8-7.37-15.76-14.58-23.89-21.6,7.06-2.14,14.17-4.15,21.32-6.06ZM323.21,31.29s.09-.03.13-.04c8.16,7.01,16.16,14.21,23.98,21.58-10.49,3.19-20.99,6.44-31.47,9.75-6.93-7.31-13.87-14.62-20.82-21.9,9.34-3.34,18.74-6.48,28.18-9.38ZM313.2,63.41c-7.17,2.27-14.33,4.56-21.48,6.87-6.78-6.92-13.59-13.8-20.44-20.62,7.01-2.81,14.06-5.51,21.16-8.08,6.93,7.26,13.84,14.54,20.75,21.82ZM245.9,60.44c7.54-3.39,15.18-6.64,22.87-9.76,6.8,6.77,13.56,13.6,20.29,20.46-8.04,2.61-16.05,5.24-24.04,7.9-6.34-6.26-12.72-12.47-19.13-18.6ZM267.02,81.01c7.98-2.65,15.98-5.28,24-7.88,6.01,6.14,11.99,12.31,17.92,18.51-7.42,2.49-15.1,5.11-23.39,8-6.13-6.26-12.31-12.47-18.53-18.63ZM310.25,125.39c-.42-.44-.84-.89-1.26-1.33,8.43-2.11,16.69-4.24,24.59-6.33,6.84,7.35,13.66,14.77,20.43,22.23-8.37,1.96-16.75,3.83-25.14,5.6-6.17-6.79-12.38-13.52-18.62-20.17ZM330.83,147.7c8.38-1.78,16.75-3.66,25.11-5.63,6.13,6.77,12.23,13.57,18.29,20.41-8.31,2.07-16.65,4.02-25,5.84-6.08-6.92-12.21-13.8-18.4-20.62ZM369.31,191.61c-5.99-7.08-12.07-14.13-18.21-21.15,8.35-1.83,16.68-3.79,24.99-5.88,6.16,6.97,12.29,13.97,18.35,20.99-8.34,2.22-16.74,4.24-25.13,6.04ZM412.07,180.56c-4.95,1.5-9.94,2.93-14.96,4.29-6.05-7.01-12.16-14-18.31-20.96,7.55-1.92,15.08-3.94,22.57-6.06,6.22,6.76,12.41,13.51,18.58,20.26-2.62.84-5.25,1.68-7.88,2.47ZM446.71,168.71c-7.96,3.03-16.03,5.89-24.14,8.54-6.15-6.73-12.32-13.46-18.51-20.2,9.47-2.72,18.88-5.59,28.2-8.62,4.94,6.68,9.76,13.44,14.46,20.27ZM433.99,145.26c-.26.09-.53.17-.79.25-4.99-6.7-10.09-13.33-15.3-19.86,7.09-2.09,14.17-4.26,21.24-6.5,5.09,6.32,10.07,12.73,14.93,19.2-6.68,2.38-13.38,4.7-20.08,6.9ZM476.13,130.15c-6.49,2.52-13.03,4.97-19.6,7.33-4.84-6.45-9.78-12.84-14.84-19.14,7.1-2.26,14.18-4.6,21.23-7,4.55,6.16,8.96,12.43,13.2,18.8ZM485.31,100.84c-7.12,2.59-14.27,5.11-21.45,7.57-6.02-8.09-12.29-16-18.79-23.71,3.35-1.1,6.69-2.2,9.99-3.32,4.2-1.39,8.38-2.81,12.53-4.22l.1-.04s.03-.01.05-.02c6.12,7.71,11.99,15.63,17.57,23.73ZM478.38,70.79c-3.24,1.13-6.5,2.25-9.78,3.38-6.12-7.65-12.49-15.09-19.09-22.28-.03-.03-.06-.07-.09-.1,2.87-.77,5.75-1.55,8.6-2.3,4.44-1.18,8.67-2.29,12.77-3.35,1.77,1.96,3.53,3.94,5.24,5.94,4.23,4.94,8.29,10.04,12.21,15.26-3.24,1.15-6.52,2.3-9.85,3.46ZM499.35,63.36c-2.82,1.02-5.72,2.06-8.65,3.1-4.08-5.48-8.34-10.84-12.77-16.01-1.45-1.69-2.92-3.36-4.41-5.02,2.63-.68,5.21-1.34,7.75-1.98,4.14-1.06,8.36-2.12,12.6-3.17,3.07,2.87,6.01,5.88,8.8,9.01,2.83,3.18,5.5,6.51,8.03,9.95-4.04,1.49-7.75,2.84-11.34,4.13Z"/>
    <path class="cls-10" d="M404.03,198.37c12.55-5.26,24.07-11.42,34.24-18.32,4.18-2.84,8.16-5.81,11.83-8.84.88-.73,1.73-1.44,2.57-2.17,1.82-1.57,3.61-3.2,5.32-4.83,3.37-3.21,6.58-6.58,9.54-10.04.93-1.08,1.86-2.2,2.75-3.31,1.11-1.38,2.21-2.81,3.28-4.24,2.7-3.64,5.19-7.38,7.83-11.77,1.05-1.75,2.13-3.6,3.29-5.65,1.05-1.85,2.14-3.79,3.27-5.85,1.24-2.24,2.54-4.62,3.94-7.18l2.66-4.86c1.83-3.32,3.83-6.93,6.04-10.88l.75-1.32c.44-.78.88-1.56,1.34-2.37,2.88-5.07,5.69-9.92,8.61-14.88,1.14-1.93,2.32-3.94,3.56-6.01,1.64-2.75,3.36-5.6,5.18-8.6.65-1.08,1.29-2.12,1.92-3.16l.86-1.4h0s.18-.3.18-.3c1.5-2.43,2.94-4.77,4.31-6.98,3.5-5.64,7.05-11.26,10.84-17.17l1.03-1.6-1.88-.31c-7.56-1.25-14.74-2.48-21.95-3.78-8.82-1.59-16.94-3.11-24.81-4.66-10.49-2.06-21.28-4.29-32.05-6.63-.21-.05-.43-.1-.64-.14v-.25h-1.12c-2.53-.55-5.1-1.12-7.69-1.7-5.17-1.16-9.7-2.2-13.85-3.17-5.59-1.31-10.83-2.56-15.58-3.72l-.33-.08c-4.33-1.05-8.31-2.03-11.99-2.95l-.4-.1c-.18-.04-.36-.09-.53-.13l-.7-.17h0s-6.41-1.58-6.41-1.58c-4.29-1.05-7.85-1.9-11.23-2.67l-.14-.03c-3.76-.85-7.07-1.53-10.12-2.08l-.37-.08c-7.03-1.26-13.3-1.96-20.33-2.27-1.7-.08-3.29-.12-4.86-.14-4.38-.07-8.88.04-13.37.32-5.06.33-10.11.88-15.03,1.62-4.75.72-9.55,1.65-14.24,2.74-3.8.88-7.73,1.92-11.66,3.09-4.92,1.45-10.02,3.17-15.14,5.11-10.03,3.8-20.25,8.5-30.43,13.99-3.87.36-7.14,1.67-9.65,4.07-16.76,16.06,13.67,67.85,52.76,108.64,32.13,33.52,71.92,61.5,94.39,61.5,2.58,0,4.93-.38,7.01-1.15l.44,1.15c.17-.06.32-.13.49-.19l230.37,240.37,4.57-4.38-228.62-238.54ZM451.02,167.16c-.82.71-1.67,1.42-2.53,2.13-3.28,2.71-6.82,5.37-10.52,7.93-2.02-3.6-4.08-7.17-6.2-10.71.8-.22,1.6-.43,2.39-.66,6.43-1.86,12.77-4.09,18.97-6.67.8,1.3,1.6,2.61,2.39,3.92-1.47,1.38-2.97,2.74-4.5,4.07ZM403.77,169.5c-2.37-7.43-6.26-15.75-11.3-24.49,6.52-1.41,13.04-2.93,19.54-4.56,5.55,7.99,10.85,16.16,15.9,24.49-7.93,2.01-16.03,3.49-24.16,4.39l.02.17ZM423.8,47.9c4.54,4.63,9,9.33,13.35,14.11,1.57,1.71,3.11,3.45,4.66,5.19l-1.15.37c-3.01.98-6.02,1.95-9.03,2.93-4.06,1.31-8.11,2.63-12.16,3.95-5.73-6.41-11.6-12.69-17.6-18.82-.31-.32-.63-.63-.94-.94,3.56-1.09,7.12-2.17,10.68-3.23,4.05-1.21,8.12-2.39,12.19-3.56ZM438.16,100.39c-6.33,2.02-12.7,4-19.09,5.94-6.23-7.8-12.69-15.42-19.36-22.85l11.28-3.66c2.56-.83,5.13-1.66,7.7-2.49,6.68,7.51,13.18,15.2,19.47,23.06ZM400.07,57.38c5.72,5.84,11.31,11.82,16.79,17.92-2.22.71-4.43,1.43-6.64,2.15l-12.35,4.01c-4.11-4.53-8.3-8.99-12.57-13.36-2.12-2.17-4.27-4.32-6.44-6.46,6.44-2.08,12.9-4.12,19.35-6.11.61.62,1.24,1.23,1.85,1.86ZM376.86,59.66c-7.11-6.95-14.44-13.7-21.95-20.23,4.67-1.61,9.36-3.16,14.06-4.64,1.9-.6,3.82-1.17,5.73-1.75,7.36,6.65,14.55,13.49,21.53,20.48-6.46,2-12.92,4.04-19.36,6.14ZM374.17,60.53c-7.09,2.31-14.16,4.68-21.19,7.1-7.01-6.7-14.23-13.18-21.66-19.44,6.9-2.74,13.87-5.35,20.88-7.81,7.52,6.5,14.85,13.23,21.97,20.15ZM376.19,62.5c2.47,2.42,4.91,4.87,7.33,7.34,3.99,4.08,7.9,8.24,11.75,12.46-4.07,1.32-8.14,2.64-12.2,3.97-2.98.96-5.96,1.93-8.94,2.9-2.71-2.95-5.46-5.88-8.25-8.76-3.56-3.67-7.19-7.28-10.86-10.84,7.03-2.41,14.1-4.77,21.18-7.07ZM383.83,88.65c4.42-1.44,8.85-2.88,13.27-4.31,6.68,7.4,13.14,14.99,19.38,22.77-7.16,2.16-14.35,4.26-21.54,6.3-6.09-7.6-12.41-15.01-18.96-22.22,2.62-.85,5.23-1.7,7.85-2.54ZM418.17,109.21c5.8,7.32,11.41,14.8,16.8,22.43-7.25,2.11-14.56,4.1-21.9,5.95-5.26-7.52-10.74-14.88-16.44-22.07,7.19-2.05,14.37-4.15,21.54-6.32ZM420.74,108.44c6.38-1.94,12.74-3.93,19.07-5.95,5.81,7.32,11.44,14.79,16.88,22.39-4.77,1.58-9.54,3.11-14.32,4.57-1.61.49-3.24.97-4.86,1.45-5.39-7.64-10.98-15.13-16.77-22.46ZM442.35,101.67c1.18-.38,2.36-.75,3.54-1.14,6.19-2.01,12.39-4.08,18.58-6.18,5.63,7.2,11.1,14.52,16.36,21.96-7.16,2.71-14.4,5.29-21.67,7.73-5.42-7.59-11.03-15.06-16.82-22.38ZM445.12,98.16c-1.47.48-2.95.95-4.42,1.42-6.27-7.87-12.74-15.57-19.41-23.09,3.7-1.21,7.4-2.41,11.11-3.61,3.01-.98,6.01-1.96,9.02-2.93l2.2-.71c6.6,7.49,13.02,15.18,19.22,23.03-5.91,2.01-11.82,3.97-17.73,5.89ZM446.21,68.39l10.95-3.55c3.63-1.18,7.26-2.36,10.9-3.53,6.47,7.3,12.66,14.87,18.55,22.65-7.07,2.54-14.16,5.02-21.26,7.45-6.18-7.85-12.57-15.53-19.14-23.02ZM470.65,60.47c6.5-2.12,13.01-4.23,19.52-6.34,5.95,7.09,11.31,14.67,16,22.64-5.68,2.14-11.38,4.24-17.1,6.31-5.85-7.77-12-15.32-18.42-22.61ZM468.85,58.42c-1.65-1.84-3.31-3.67-4.99-5.47-4.03-4.33-8.19-8.57-12.43-12.72,6.64-1.77,13.28-3.5,19.93-5.17,5.12,4.41,9.97,9.13,14.51,14.13.86.95,1.7,1.91,2.54,2.88-6.52,2.11-13.05,4.23-19.56,6.35ZM462.03,54.65c1.42,1.52,2.82,3.07,4.21,4.62-3.29,1.06-6.58,2.12-9.86,3.2l-11.98,3.89c-1.79-2.02-3.59-4.04-5.41-6.03-4.07-4.46-8.25-8.86-12.48-13.2,7.34-2.1,14.72-4.15,22.11-6.14,4.59,4.45,9.07,9,13.41,13.67ZM424.55,45.08c-6.72-6.83-13.64-13.49-20.71-19.97,7.19-1.75,14.42-3.35,21.66-4.8,7.23,5.95,14.26,12.17,21.04,18.64-7.36,1.99-14.69,4.03-21.99,6.13ZM421.8,45.87c-3.65,1.05-7.28,2.12-10.91,3.19-3.99,1.19-7.98,2.4-11.96,3.62-6.95-7-14.1-13.84-21.43-20.5,7.75-2.3,15.57-4.42,23.44-6.38,7.13,6.5,14.09,13.2,20.87,20.05ZM375.32,30.23c-6.48-5.82-13.07-11.51-19.8-17.03,8.31-1.96,16.7-3.63,25.12-5.01,6.12,5.07,12.15,10.27,18.07,15.61-7.85,1.97-15.65,4.12-23.39,6.43ZM372.53,31.09c-1.44.44-2.88.87-4.31,1.32-5.18,1.63-10.35,3.35-15.49,5.14-7.07-6.08-14.31-11.97-21.71-17.66,1.67-.52,3.33-1.03,5-1.53,5.43-1.6,10.92-3.06,16.43-4.42,6.82,5.56,13.51,11.28,20.07,17.14ZM350.01,38.51c-7,2.48-13.97,5.1-20.87,7.86-7.42-6.17-15.02-12.13-22.81-17.84,7.18-2.8,14.45-5.39,21.78-7.73,7.46,5.7,14.76,11.6,21.9,17.7ZM326.5,47.43c-5.27,2.14-10.5,4.35-15.68,6.64-8.63-6.58-17.16-12.28-25.18-16.75,5.89-2.72,11.87-5.29,17.92-7.71,7.83,5.7,15.48,11.64,22.94,17.81ZM328.68,49.25c7.41,6.21,14.64,12.65,21.65,19.3-5.29,1.83-10.56,3.68-15.81,5.56-7.05-6.55-14.27-12.71-21.44-18.3,5.15-2.27,10.36-4.45,15.6-6.56ZM352.36,70.49c3.97,3.82,7.89,7.7,11.72,11.66,2.51,2.59,4.98,5.22,7.42,7.87-5.36,1.74-10.73,3.49-16.09,5.22-2.13-2.35-4.29-4.67-6.48-6.95-4.02-4.19-8.15-8.29-12.36-12.26,5.24-1.87,10.5-3.71,15.78-5.54ZM373.37,92.04c6.55,7.17,12.87,14.55,18.96,22.11-5.76,1.63-11.53,3.21-17.29,4.76-5.49-7.28-11.48-14.56-17.8-21.64,5.37-1.74,10.75-3.49,16.12-5.24ZM394.04,116.27c5.7,7.16,11.17,14.5,16.44,21.99-6.43,1.59-12.88,3.09-19.32,4.47-4.18-7.04-9.07-14.34-14.5-21.66,5.79-1.56,11.59-3.16,17.39-4.8ZM414.61,139.79c7.34-1.87,14.65-3.86,21.89-5.98,5.31,7.59,10.42,15.33,15.32,23.21-6,2.48-12.12,4.63-18.34,6.42-1.01.29-2.02.57-3.03.84-5.03-8.33-10.31-16.5-15.84-24.49ZM457.38,161.32c-.63-1.05-1.27-2.1-1.92-3.14,2.97-1.29,5.91-2.64,8.81-4.08-2.19,2.47-4.5,4.89-6.9,7.23ZM468.48,149.1c-4.67,2.52-9.46,4.83-14.34,6.92-4.84-7.79-9.89-15.45-15.13-22.97,1.36-.41,2.73-.81,4.08-1.22,5.04-1.54,10.08-3.16,15.11-4.83,4.39,6.19,8.67,12.46,12.81,18.82-.83,1.1-1.68,2.21-2.54,3.28ZM482.5,127.98c-1.15,2.03-2.21,3.86-3.25,5.59-2.25,3.74-4.38,7-6.64,10.12-3.86-5.91-7.84-11.75-11.92-17.51,7.25-2.45,14.47-5.04,21.62-7.75,1.03,1.47,2.06,2.93,3.07,4.4-.99,1.8-1.95,3.51-2.88,5.15ZM486.72,120.39c-.66-.96-1.34-1.92-2.01-2.88,1.52-.58,3.04-1.17,4.55-1.76-.89,1.62-1.73,3.15-2.55,4.64ZM492.35,110.12l-1.24,2.27-.02-.04c-2.6,1.04-5.22,2.05-7.84,3.05-5.23-7.42-10.67-14.73-16.27-21.9,7.08-2.42,14.15-4.91,21.2-7.44,3.39,4.55,6.68,9.16,9.85,13.85-2.07,3.69-3.95,7.09-5.68,10.22ZM500.5,95.52c-.38.66-.74,1.31-1.11,1.95-2.83-4.16-5.76-8.26-8.76-12.31,5.62-2.04,11.22-4.11,16.8-6.21.44.77.88,1.54,1.3,2.32-2.77,4.71-5.47,9.38-8.23,14.24ZM510.2,78.79c-.13-.24-.27-.48-.41-.72.36-.13.71-.27,1.07-.4-.22.38-.44.75-.66,1.12ZM517.88,58.12c.77,1.35,1.51,2.73,2.23,4.18l-.31.5c-.64,1.04-1.28,2.09-1.93,3.17-1.74,2.87-3.38,5.6-4.96,8.24-1.45.56-2.92,1.1-4.37,1.65-4.65-7.94-9.95-15.49-15.82-22.57,3.45-1.12,6.9-2.24,10.36-3.37l7.37-2.39c2.77,3.32,5.27,6.88,7.42,10.59ZM508.26,45.01c.15.16.28.31.42.47l-6.37,2.07c-3.77,1.22-7.54,2.45-11.31,3.67-1.08-1.26-2.17-2.5-3.28-3.72-4.22-4.64-8.7-9.04-13.41-13.18,5.25-1.31,10.51-2.6,15.75-3.85,3.85,2.2,7.5,4.73,10.86,7.53,2.58,2.14,5.05,4.5,7.34,7ZM472.01,32.33c-3.14-2.67-6.38-5.23-9.71-7.66,7.44,1.59,14.85,3.13,22.15,4.59-4.14,1-8.29,2.03-12.44,3.07ZM448.46,21.63c2.31.52,4.6,1.02,6.86,1.52l.73.17c4.48,3.04,8.8,6.31,12.96,9.76-6.56,1.66-13.12,3.37-19.66,5.12-6.66-6.42-13.57-12.6-20.68-18.51,2.06-.4,4.11-.8,6.17-1.17,4.09.96,8.54,1.97,13.61,3.11ZM426.21,17.64c-.68-.56-1.37-1.1-2.05-1.66,1.53.37,3.1.74,4.71,1.12-.89.17-1.77.36-2.66.53ZM398.3,9.63l7.3,1.8.72.29.09-.09c3.67.92,7.63,1.9,11.94,2.94l.13.12h.04c1.51,1.18,3,2.38,4.5,3.58-7.15,1.46-14.28,3.06-21.37,4.8-5.8-5.27-11.72-10.4-17.72-15.41,1.24-.19,2.48-.39,3.72-.57,3.22.73,6.6,1.54,10.65,2.53ZM352.11,2.52c1.55.02,3.12.06,4.79.14,6.8.3,12.87.97,19.64,2.17h.04c.51.42,1,.84,1.51,1.25-8.39,1.42-16.75,3.14-25.03,5.13-3.57-2.9-7.17-5.75-10.8-8.56,3.31-.15,6.61-.19,9.85-.14ZM324.12,4.44c4.69-.71,9.51-1.23,14.34-1.56,3.89,2.97,7.73,6.02,11.55,9.1-4.93,1.23-9.84,2.56-14.7,3.99-2.25.66-4.5,1.35-6.74,2.06-5.18-3.93-10.43-7.77-15.75-11.5,3.75-.81,7.53-1.51,11.29-2.09ZM298.55,10.19c3.7-1.1,7.39-2.08,10.98-2.92,5.46,3.79,10.84,7.69,16.15,11.7-7.32,2.38-14.59,4.99-21.76,7.82-5.91-4.27-11.91-8.41-18.01-12.4,4.28-1.57,8.52-2.98,12.65-4.2ZM283,15.47c6.15,3.99,12.21,8.14,18.16,12.41-6.17,2.49-12.26,5.14-18.26,7.95-9.48-5.01-18.16-8.17-25.37-8.89,8.53-4.42,17.07-8.27,25.47-11.48ZM398.23,193.33c-11.19,10.72-53.73-9.7-99.24-57.17-45.5-47.48-64.1-90.85-52.91-101.57,1.95-1.87,4.85-2.79,8.55-2.79,17.55,0,53.11,20.75,90.69,59.96,45.5,47.48,64.09,90.85,52.91,101.57ZM402.18,196.44h0c4.95-5.26,5.32-13.96,2.28-24.69,8.35-.94,16.68-2.48,24.82-4.58,2.26,3.78,4.47,7.6,6.63,11.45-9.92,6.63-21.1,12.57-33.28,17.64-.15.06-.3.12-.45.18Z"/>
  </g>
  <g id="Gedankenblase">
    <path class="cls-22" d="M124.99,111.97c2.1,1.09,3.22,3.32,2.81,5.27-.52,2.52-3.53,4.39-6.62,3.46.55,1.98.14,4.04-1.13,5.14-1.86,1.61-5.6,1.21-7.73-1.78-.44,2.62-2.8,4.46-5.33,4.26-2.32-.18-4.26-2.05-4.56-4.47-1.69,2.15-4.81,2.34-6.57.69-1.54-1.44-1.79-4.04-.38-5.93-2.87.61-5.43-1.46-5.58-3.82-.13-2.03,1.53-4.12,3.97-4.48-1.75-1.56-2.09-4.05-1.02-5.71,1.29-2,4.5-2.57,6.73-.71-.09-2,.68-3.92,2.16-4.82,2.2-1.36,5.88-.43,7.73,2.79.83-2.28,3.03-3.64,5.08-3.35,2.53.35,4.53,3.18,3.79,6.21,2.16-2.08,5.61-1.83,7.37.32,1.63,1.99,1.39,5.13-.7,6.95Z"/>
    <path class="cls-22" d="M257,82.13c7.56,3.53,11.59,10.72,10.13,17.03-1.88,8.14-12.72,14.19-23.85,11.19,1.99,6.41.51,13.05-4.07,16.61-6.69,5.2-20.17,3.91-27.85-5.75-1.58,8.47-10.1,14.42-19.18,13.77-8.35-.59-15.35-6.62-16.41-14.43-6.09,6.96-17.31,7.56-23.67,2.23-5.56-4.66-6.45-13.04-1.36-19.17-10.32,1.98-19.57-4.71-20.1-12.35-.46-6.56,5.53-13.31,14.31-14.48-6.29-5.03-7.51-13.08-3.67-18.43,4.64-6.47,16.19-8.32,24.22-2.3-.34-6.48,2.46-12.65,7.77-15.58,7.93-4.39,21.17-1.39,27.82,9,2.97-7.38,10.92-11.76,18.28-10.83,9.1,1.14,16.33,10.29,13.65,20.05,7.77-6.71,20.2-5.92,26.53,1.02,5.88,6.44,5.01,16.57-2.54,22.44Z"/>
    <path class="cls-22" d="M112.05,143.88c.98.51,1.5,1.54,1.31,2.45-.24,1.17-1.64,2.05-3.08,1.61.26.92.07,1.88-.53,2.39-.87.75-2.61.56-3.6-.83-.2,1.22-1.31,2.08-2.48,1.99-1.08-.09-1.99-.95-2.12-2.08-.79,1-2.24,1.09-3.06.32-.72-.67-.83-1.88-.18-2.76-1.33.29-2.53-.68-2.6-1.78-.06-.94.71-1.92,1.85-2.09-.81-.73-.97-1.89-.47-2.66.6-.93,2.09-1.2,3.13-.33-.04-.93.32-1.82,1.01-2.25,1.03-.63,2.74-.2,3.6,1.3.38-1.06,1.41-1.69,2.36-1.56,1.18.16,2.11,1.48,1.76,2.89,1-.97,2.61-.85,3.43.15.76.93.65,2.39-.33,3.23Z"/>
    <g id="Glühbirne">
      <g>
        <rect class="cls-3" x="191.99" y="112.65" width="14.19" height="3.51"/>
        <path class="cls-13" d="M215.1,82.26c-.03,5.53-2.51,6.98-7.82,16.53-1.03,1.84-1.12,7.6-1.22,9.19h-13.95c-.1-1.6-.2-7.35-1.22-9.19-5.31-9.55-7.78-10.99-7.82-16.53-.06-9.81,5.96-16.61,16.01-16.64,10.05.03,16.07,6.83,16.01,16.64Z"/>
        <rect class="cls-3" x="189.38" y="105.78" width="19.43" height="3.99" rx="2" ry="2"/>
        <rect class="cls-3" x="189.38" y="109.33" width="19.43" height="3.99" rx="2" ry="2"/>
        <line class="cls-26" x1="199.09" y1="60.36" x2="199.09" y2="53.37"/>
        <line class="cls-26" x1="228.38" y1="83.31" x2="221.4" y2="83.31"/>
        <line class="cls-26" x1="176.78" y1="83.31" x2="169.79" y2="83.31"/>
        <line class="cls-26" x1="182.48" y1="67.17" x2="177.54" y2="62.23"/>
        <line class="cls-26" x1="215.7" y1="68.08" x2="220.63" y2="63.14"/>
      </g>
      <path class="cls-25" d="M200.27,69.98c-.49-.06-.99-.1-1.5-.1-6.5,0-11.78,5.27-11.78,11.78,0,1.55.3,3.04.85,4.39,0,0,0,0,0,0h2.33s0,0,0,0c-.7-1.36-1.08-2.91-1.05-4.55.09-5.49,4.81-9.83,10.29-9.47.29.02.57.05.85.09,0,0,0,0,0,0v-2.14s0,0,0,0Z"/>
    </g>
  </g>
</svg>