<?xml version="1.0" encoding="UTF-8"?>
<svg id="_0058_THK_PID" data-name="0058_THK_PID" xmlns="http://www.w3.org/2000/svg" viewBox="0 0 306.74 497.23">
  <defs>
    <style>
      .cls-1 {
        fill: #42210b;
      }

      .cls-1, .cls-2, .cls-3, .cls-4, .cls-5, .cls-6, .cls-7, .cls-8, .cls-9, .cls-10, .cls-11, .cls-12, .cls-13, .cls-14 {
        stroke-width: 0px;
      }

      .cls-2 {
        fill: #a5678d;
      }

      .cls-3 {
        fill: #e6710a;
      }

      .cls-4 {
        fill: #873567;
      }

      .cls-5 {
        fill: #000;
      }

      .cls-6 {
        fill: #73bbe7;
      }

      .cls-7 {
        fill: #b47d49;
      }

      .cls-8 {
        fill: #236289;
      }

      .cls-9 {
        fill: #ec9447;
      }

      .cls-10 {
        fill: #b9ddf3;
      }

      .cls-11 {
        fill: #98c7e4;
      }

      .cls-12 {
        fill: #603813;
      }

      .cls-13 {
        fill: #fff;
      }

      .cls-14 {
        fill: #f2b885;
      }
    </style>
  </defs>
  <g id="Person">
    <g id="Gesicht">
      <path class="cls-1" d="M136.01,63.04c-.96-.14-2.15-1.46-2.89-3.29-.23-.57-.39-1.13-.49-1.66.53-.05,1.03-.19,1.5-.4.4,1.88,1.04,3.67,1.88,5.35Z"/>
      <path class="cls-1" d="M179.87,57.94c-.08.57-.26,1.19-.51,1.82-.69,1.69-1.76,2.95-2.68,3.25.88-1.75,1.53-3.64,1.93-5.61.39.24.81.42,1.26.54Z"/>
      <path class="cls-7" d="M186.15,51.24v1.88c0,2.75-2.25,5-5,5-.44,0-.87-.06-1.28-.18-.45-.12-.87-.3-1.26-.54-.4,1.97-1.05,3.86-1.93,5.61-2.39,4.77-6.41,8.6-11.32,10.74,0,.09,0,.17,0,.26v18.79c0,4.85-3.97,8.83-8.82,8.83s-8.83-3.98-8.83-8.83v-18.79s0-.06,0-.08c-5.09-2.1-9.26-6-11.72-10.89-.84-1.68-1.48-3.47-1.88-5.35-.47.21-.97.35-1.5.4-.17.02-.33.03-.5.03-2.75,0-5-2.25-5-5v-1.88c0-2.75,2.25-5,5-5,.52,0,1.01.1,1.49.25v-4.63c0-12.5,10.22-22.72,22.72-22.72s22.72,10.22,22.72,22.72v4.85c.64-.3,1.34-.47,2.09-.47,2.75,0,5,2.25,5,5Z"/>
      <g id="Schatten">
        <path class="cls-12" d="M181.88,49.89c.35,0,.85,1.43.47,2.72-.28.93-1.03,1.86-1.33,1.74-.58-.24.25-4.47.86-4.46Z"/>
        <path class="cls-12" d="M165.27,73.78c-1.36.6-3.21,1.26-5.48,1.62-2.65.42-4.91.29-6.51.07,4.02,2.99,8.04,5.98,12.06,8.98,0-.99,0-1.85,0-2.55,0-.57,0-.62,0-3.19,0-1.79,0-1.97,0-2.37-.01-1.09-.04-1.97-.06-2.56Z"/>
        <path class="cls-12" d="M131.09,49.89c-.35,0-.85,1.43-.47,2.72.28.93,1.03,1.86,1.33,1.74.58-.24-.25-4.47-.86-4.46Z"/>
      </g>
      <g id="Augennbrauen">
        <path class="cls-1" d="M169.26,41.56c-.61-.33-1.75-.83-3.27-.9-1.9-.09-3.33.57-3.96.9-1.08-.55-1.33-1-1.32-1.32.02-1.13,3.04-2.35,5.77-2.08,1.84.18,4.1,1.09,4.1,2.08,0,.52-.61.97-1.32,1.32Z"/>
        <path class="cls-1" d="M150.69,41.51c-.61-.33-1.75-.83-3.27-.9-1.9-.09-3.33.57-3.96.9-1.08-.55-1.33-1-1.32-1.32.02-1.13,3.04-2.35,5.77-2.08,1.84.18,4.1,1.09,4.1,2.08,0,.52-.61.97-1.32,1.32Z"/>
      </g>
      <g id="Augen">
        <rect class="cls-5" x="145.46" y="43.04" width="3.63" height="4.26" rx="1.81" ry="1.81"/>
        <rect class="cls-5" x="163.63" y="42.99" width="3.63" height="4.26" rx="1.81" ry="1.81"/>
      </g>
      <g id="Mund">
        <path class="cls-13" d="M149.52,62.05c.12.43,1.11,3.68,4.25,4.93,2.98,1.19,6.66.08,8.88-2.82-1.76.35-4.72.69-8.21-.15-2.07-.5-3.72-1.27-4.93-1.96Z"/>
      </g>
      <g id="NAse">
        <path class="cls-5" d="M157.41,58.63c-.6,0-1.23-.17-1.83-.5-.06-.03-.08-.11-.05-.17.03-.06.11-.08.17-.05.86.48,1.8.6,2.57.33.42-.15.73-.4.85-.69.3-.72.04-1.45-.8-2.21l-.11-.1c-.43-.39-1.08-.99-1.39-1.98-.11-.34-.15-.85-.18-1.19v-.15c-.01-.41-.02-.74-.03-1.07,0-.33-.01-.67-.01-1.07,0-.07.06-.12.12-.12s.12.06.12.12c0,.4,0,.73.01,1.06,0,.33.01.67.01,1.07v.14c.04.33.08.82.18,1.13.3.92.91,1.49,1.32,1.87l.11.1c.93.85,1.21,1.66.86,2.49-.15.36-.52.66-1,.83-.29.1-.61.15-.94.15Z"/>
      </g>
      <g id="Haare">
        <path class="cls-1" d="M181.02,45.59c-.02.31-.06.58-.1.8-.34.08-.67.16-1.01.23-.33.08-.66.16-1,.24-3-3.61-6.11-7.74-9.15-12.4-1.7-2.6-3.23-5.14-4.61-7.6-1.15,1.7-3.12,4.13-6.24,5.97-.86.51-2.71,1.51-11.02,3.51-7.34,1.76-8.09,1.51-9.32,2.8-2.54,2.68-1.93,6.5-4.61,7.51-1.01.38-2.03.19-2.74-.04-.75-1.93-1.77-6.48-.74-11.95.16-.87.39-1.76.66-2.68,1.16-3.75,4.19-7.46,5.68-8.94,4.49-4.49,8.7-6.47,11.64-7.37.75-.24,1.41-.4,1.98-.52.86-.18,1.51-.27,1.95-.33,2.02-.27,7.34-.89,12.77,1.12,1.22.45,2.31.99,3.31,1.59,3.66,2.17,5.92,5,7.05,6.47,6.37,8.27,5.89,17.99,5.48,21.58Z"/>
        <path class="cls-1" d="M171.76,12.63c-.43,1.91-1.52,3.2-2.7,4.37-1.11-.7-2.36-1.34-3.75-1.86-5.43-2.01-10.75-1.39-12.77-1.12-.45.06-1.1.14-1.95.33-.72.14-1.6.37-2.61.72-.86-1.18-1.26-2.52-1.66-4.11-1.21-4.78,2.25-7.61,3.34-8.48C152.75,0,157.45-.07,159.63.02c2.22.1,6.13.63,9.59,3.96,1.04,1,3.61,3.94,2.54,8.65Z"/>
        <path class="cls-3" d="M169.06,17c-.18.18-.39.37-.58.54-1-.6-2.1-1.14-3.31-1.59-5.43-2.01-10.75-1.39-12.77-1.12-.45.06-1.1.14-1.95.33-.57.12-1.23.28-1.98.52-.17-.19-.34-.4-.49-.6,1.01-.35,1.89-.58,2.61-.72.86-.18,1.51-.27,1.95-.33,2.02-.26,7.34-.89,12.77,1.12,1.39.52,2.64,1.16,3.75,1.86Z"/>
      </g>
    </g>
    <g id="Körper">
      <path class="cls-7" d="M236.55,485.15c-.03.73-.23,1.44-.69,2.13-.93,1.38-2.44,2.25-3.95,2.96-2.14,1-4.46,1.77-6.82,1.69-2.36-.08-4.79-1.12-6.06-3.11-1.02-1.59-1.04-3.36-1.38-5.14s-.81-3.55-1.22-5.31c-.63-2.74-1.17-5.63-2.23-8.25-3.19-7.81-23.16-108.66-51.49-247.11-1.26-.09-2.53-.18-3.79-.27-14.3,58.65-13.97,119.7-18.62,179.89-1.41,18.28-3.29,36.51-5.58,54.7-.71,5.64-1.46,11.27-2.24,16.9-.39,2.81-.79,5.63-1.21,8.44-.31,2.1-.35,4.47-2.45,5.63-.96.52-2.07.65-3.16.73-2.18.16-4.37.17-6.56.04-2.15-.13-7.03-.61-6.49-3.66.35-1.99,1.05-3.9,1.34-5.92,1.03-7.4.57-15.03-.03-22.44-1.07-13.09.08-34.24-.07-51.35-.3-34.79-1.11-69.57-2.43-104.33-.79-20.88-1.77-41.87.78-62.61,2.55-20.74,8.84-41.44,21.29-58.22,3.54-4.77,7.75-9.72,7.79-15.65.02-2.39-.66-4.72-1.34-7.01-5.8-19.68-11.6-39.35-17.39-59.03,22.77-6.5,46.66-9.07,70.29-7.57-2.39,20.45-4.78,40.9-7.16,61.35-.53,4.56-1.06,9.18-.34,13.71,1.07,6.72,4.77,12.66,8.05,18.62,6.44,11.69,11.53,24.13,15.12,36.98,9.27,33.21,8.4,68.26,10.15,102.69,1.05,20.52,3.05,40.98,5.06,61.44,2.81,28.64,3.81,57.52,8.42,85.93.42,2.6,1.7,5.1,2.68,7.52.71,1.75,1.83,3.74,1.75,5.65Z"/>
      <g id="Hose">
        <path class="cls-4" d="M234.63,464.09c-3.07-.56-7.95-1.07-13.76,0-4.94.92-8.79,2.65-11.33,4.05-3.86-16.94-9.44-42.41-15.39-73.69-5.58-29.29-7.66-43.54-11.96-67.15-4.35-23.9-11.08-57.96-21.14-99.5l-2.29-61.6,2.29.02c7.76.03,15.52.06,23.29.08,13.65,17.33,20.69,33,24.54,43.71,6.77,18.84,8.65,37.94,12.24,76.16,1.24,13.25,2.26,24.56,3.06,33.56.67,7.33,1.3,14.67,1.94,22.04,3.5,41.29,6.32,82.08,8.52,122.3Z"/>
        <path class="cls-2" d="M161.05,227.81c-3.35,31.49-6.68,63-10.01,94.52-5.11,48.62-10.18,97.22-15.21,145.82-3.58-.93-8.11-1.77-13.36-2.02-5.55-.28-10.37.18-14.17.8-1.92-62.44-3.17-109.01-3.4-125.14-.1-6.85-.15-13.3-.15-13.3-.05-7.91-.05-18.67.15-31.19.55-35.53.8-53.31,3.88-67.26,3.31-14.96,11.21-38.16,32.8-63.93l17.17.11,2.29,61.6Z"/>
      </g>
      <g id="Arme">
        <path class="cls-7" d="M125.49,98.74c-5.12-.28-9.68,2.77-11.54,7.26-.03.05-.03.1-.06.14-.09.27-.18.56-.29.82-5.21,14.74-10.41,29.48-15.62,44.21-2.23-3.71-4.5-7.44-6.83-11.2-5.76-9.28-11.53-18.2-17.26-26.75-.02-.74-.17-2.09-1.01-3.46-.26-.42-2.06-3.25-5.05-3.2-2.72.05-5.35,2.47-5.46,5.49-.09,2.49,1.55,4.84,4.05,5.71,8.17,18.12,16.33,36.25,24.5,54.37,0,.03,0,.06-.01.09-.26,4.77,3.4,8.85,8.18,9.11,2.4.13,4.6-.74,6.25-2.23.19-.14.39-.28.57-.44,1.73-1.48,2.73-3.49,2.97-5.59,8.88-19.13,17.73-38.26,26.59-57.36.03-.05.03-.07.03-.1h.02c.64-1.36,1.04-2.86,1.12-4.46.35-6.51-4.63-12.09-11.16-12.44Z"/>
        <path class="cls-7" d="M270.62,112.04c-.93-2.54-4.05-4.27-6.92-3.46-2.36.68-4.03,2.94-4.03,5.56-12.14,11.23-24.28,22.46-36.42,33.68-.01-.03-.03-.05-.04-.08-7.88-15.14-12.98-31.56-19.54-47.31-.06-.13-.28-.67-.33-.8-.03-.05-.03-.1-.06-.14-2.11-4.38-6.83-7.17-11.92-6.62-6.91.75-10.65,8.03-10.47,13.03.1,2.75,1.38,4.74,1.83,5.44,6.86,10.83,3.17,9.49,11.54,24.87,3.34,6.13,6.06,10.49,8.99,15.16,2.19,3.5,3.31,5.29,4.65,7.06,2.5,3.3,4.97,6.93,8.24,9.54,1.74,1.39,3.95,2.37,6.13,2.28.09,0,.18,0,.27,0,.04,0,.08-.02.12-.02.22-.02.44-.06.66-.11.07-.02.15-.03.22-.05.11-.03.22-.04.33-.07,1.1-.34,2.07-1.02,2.89-1.87.36-.35.65-.68.85-.9,6.4-7.43,12.86-15.1,19.35-23.04,6.74-8.24,13.21-16.39,19.43-24.42.68-.25,1.9-.8,2.91-2.01.31-.37,2.38-2.94,1.35-5.73Z"/>
      </g>
      <g id="Oberteil">
        <path class="cls-14" d="M158.96,166.75c-5.7,0-11.43-.02-17.16-.02l-19.35-68.1c7.21-1.73,14.42-3.46,21.62-5.19,1.45,2.32,3.59,5.22,6.68,8.06,2.09,1.93,4.14,3.39,5.94,4.5.76,20.25,1.51,40.5,2.27,60.76Z"/>
        <path class="cls-9" d="M192.84,91.03c-2.88,25.26-5.77,50.51-8.65,75.77-7.63-.02-15.28-.02-22.93-.05h-2.3l-2.26-60.76.13.12c1.73-1.72,3.59-3.75,5.44-6.14,2.46-3.17,4.33-6.22,5.77-8.91,8.27-.01,16.53-.03,24.8-.04Z"/>
      </g>
      <g id="Schuhe">
        <path class="cls-1" d="M136.4,494.07v2.83h-55.97v-2.83s.45-2.66,14.64-6.77c6.54-1.88,11.59-4.26,16.73-5.69,2.23.9,5.89,2.06,10.53,2.13,5.02.05,8.95-1.2,11.23-2.13.7,1.53,1.48,3.49,2.03,5.79.6,2.58.8,4.89.8,6.67Z"/>
        <path class="cls-1" d="M212.89,494.39v2.83h55.97v-2.83s-.45-2.66-14.64-6.77c-6.54-1.88-11.59-4.26-16.73-5.69-2.23.9-5.89,2.06-10.53,2.13-5.02.05-8.95-1.2-11.23-2.13-.7,1.53-1.48,3.49-2.03,5.79-.6,2.58-.8,4.89-.8,6.67Z"/>
      </g>
    </g>
  </g>
  <g id="Blatt_links" data-name="Blatt links">
    <polygon class="cls-11" points="84.43 135.02 61.9 207.11 0 187.77 27.44 99.97 73.64 114.42 84.43 135.02"/>
    <polygon class="cls-6" points="84.43 135.02 68.73 130.11 73.64 114.42 84.43 135.02"/>
    <g>
      <path class="cls-8" d="M30.41,134.83l.81-1.44c1.69-.18,3.08-.58,4.16-1.19l1.05.33-4.63,8.29-1.74-.54,3.19-5.71c-.43.12-.92.2-1.45.25-.53.04-1,.05-1.39.01Z"/>
      <path class="cls-8" d="M35.79,139.3l1.72.37c-.03.08-.05.14-.06.18-.13.41-.13.74-.01,1.01.12.26.32.44.62.53.41.13.84.05,1.3-.24.46-.29.79-.77,1.01-1.46.13-.41.13-.75,0-1.01-.12-.27-.34-.45-.65-.55-.22-.07-.46-.09-.7-.05-.24.04-.5.13-.76.28l-1.39-.55,2.75-4.09,4.43,1.39-.82,1.47-2.93-.92-.83,1.23c.19-.02.38-.03.56-.01.18.01.35.05.52.1.67.21,1.16.61,1.45,1.2.29.59.32,1.26.08,2.03-.19.61-.53,1.16-1.02,1.66-.49.5-1.05.82-1.69.97-.64.15-1.25.13-1.84-.05-.75-.23-1.29-.67-1.62-1.31s-.38-1.36-.13-2.18Z"/>
      <path class="cls-8" d="M42.64,141.44l1.72.37c-.03.08-.05.14-.06.18-.13.41-.13.74-.01,1.01.12.26.32.44.62.53.41.13.84.05,1.3-.24.46-.29.79-.77,1.01-1.46.13-.41.13-.75,0-1.01-.12-.27-.34-.45-.65-.55-.22-.07-.46-.09-.7-.05-.24.04-.5.13-.76.28l-1.39-.55,2.75-4.09,4.43,1.39-.82,1.47-2.93-.92-.83,1.23c.19-.02.38-.03.56-.01.18.01.35.05.52.1.67.21,1.16.61,1.45,1.2.29.59.32,1.26.08,2.03-.19.61-.53,1.16-1.02,1.66-.49.5-1.05.82-1.69.97-.64.15-1.25.13-1.84-.05-.75-.23-1.29-.67-1.62-1.31s-.38-1.36-.13-2.18Z"/>
      <path class="cls-8" d="M49.99,142.11l3.35,1.05-.87,1.56-3.35-1.05.87-1.56Z"/>
      <path class="cls-8" d="M52.55,147.31l4.6-8.24,2.38.74c.66.21,1.08.35,1.26.43.35.15.66.33.91.53.25.2.46.44.63.72.17.28.3.58.38.92.08.34.11.71.09,1.11s-.1.82-.24,1.26c-.3.95-.74,1.74-1.34,2.36-.59.62-1.23,1.06-1.92,1.33-.53.21-1.15.28-1.86.24-.4-.03-1-.17-1.78-.41l-3.11-.97ZM55.1,146.55l.92.29c.67.21,1.16.32,1.48.33.32.01.65-.06.96-.2.46-.21.89-.55,1.31-1.02s.74-1.06.96-1.8c.2-.63.24-1.13.14-1.51-.1-.38-.29-.67-.55-.86-.19-.14-.55-.29-1.08-.46l-1.05-.33-3.1,5.56Z"/>
      <path class="cls-8" d="M61.42,150.08l4.6-8.24,6.54,2.04-.77,1.38-4.72-1.48-1.05,1.87,4.56,1.43-.77,1.38-4.57-1.43-1.3,2.22,5.13,1.6-.77,1.38-6.89-2.15Z"/>
      <path class="cls-8" d="M24,154.61l-1.64-.51.36-.65c-.41.2-.78.32-1.12.36-.34.04-.71,0-1.09-.13-.66-.21-1.13-.6-1.4-1.18-.27-.58-.27-1.31,0-2.19.32-1.02.9-1.86,1.73-2.5s1.73-.82,2.68-.52c.86.27,1.4.81,1.61,1.63l1.72-3.09,1.73.54-4.6,8.24ZM20.83,150.77c-.14.46-.14.85.01,1.18.15.33.39.55.73.65.31.1.64.08.98-.05.34-.13.66-.39.96-.78s.51-.79.64-1.19c.14-.46.14-.87-.02-1.24-.16-.36-.4-.59-.73-.7-.5-.16-1.01,0-1.51.45-.5.46-.85,1.02-1.06,1.67Z"/>
      <path class="cls-8" d="M29.3,150.94c-.24-.3-.4-.61-.47-.92-.07-.32-.06-.63.05-.96.12-.38.35-.73.68-1.05.34-.32.76-.53,1.26-.62.5-.09,1.02-.05,1.57.12.79.25,1.33.64,1.65,1.19.31.55.37,1.13.18,1.76-.14.44-.38.79-.73,1.04-.35.25-.81.4-1.37.47.29.33.48.69.56,1.06.08.37.06.76-.07,1.16-.21.67-.61,1.21-1.21,1.62-.86.59-1.83.72-2.9.39-.78-.24-1.33-.67-1.66-1.28-.33-.61-.38-1.27-.16-1.98.18-.59.51-1.07.99-1.43.47-.36,1.03-.55,1.65-.57ZM28.37,153.5c-.1.33-.09.62.03.86.12.24.33.41.62.5.45.14.85.05,1.22-.27.37-.32.62-.71.76-1.17.09-.3.08-.57-.05-.82-.13-.25-.33-.42-.62-.51-.36-.11-.73-.05-1.12.2-.38.25-.66.65-.83,1.2ZM30.42,149.67c-.09.28-.07.53.04.75s.31.38.58.46c.31.1.62.06.92-.1.31-.16.51-.4.61-.71.09-.28.07-.54-.04-.77-.12-.23-.31-.39-.58-.47-.32-.1-.62-.07-.92.09-.3.16-.5.41-.61.75Z"/>
      <path class="cls-8" d="M34.06,153.36l3.35,1.05-.87,1.56-3.35-1.05.87-1.56Z"/>
      <path class="cls-8" d="M36.62,158.56l4.6-8.24,2.38.74c.66.21,1.08.35,1.26.43.35.15.66.33.91.53.25.2.46.44.63.72s.3.58.38.92.11.71.09,1.11c-.02.4-.1.82-.24,1.26-.3.95-.74,1.74-1.33,2.36-.59.62-1.23,1.06-1.92,1.33-.53.21-1.15.28-1.86.24-.4-.03-1-.17-1.78-.41l-3.11-.97ZM39.18,157.8l.92.29c.67.21,1.16.32,1.48.33.33.01.65-.06.97-.2.46-.21.89-.55,1.31-1.02.42-.46.74-1.06.97-1.8.2-.63.24-1.13.14-1.51s-.29-.67-.55-.86c-.19-.14-.55-.29-1.08-.46l-1.05-.33-3.1,5.56Z"/>
      <path class="cls-8" d="M48.03,156.57l.8-1.44c1.69-.18,3.08-.58,4.16-1.19l1.05.33-4.63,8.29-1.74-.54,3.19-5.71c-.43.12-.92.2-1.45.25-.53.04-1,.05-1.39.01Z"/>
      <path class="cls-8" d="M55.33,156.61l.83-1.49,5.82,1.82-.64,1.15c-.46.18-1.01.5-1.64.96-.63.46-1.25.99-1.86,1.61-.61.62-1.14,1.22-1.58,1.81-.62.81-1.04,1.43-1.26,1.85l-1.64-.51c.21-.42.57-.97,1.08-1.66.62-.84,1.32-1.63,2.09-2.36.77-.73,1.63-1.39,2.58-1.99l-3.77-1.18Z"/>
      <path class="cls-8" d="M63.84,160.4l-1.61-.78c.39-.78.9-1.3,1.54-1.58.63-.28,1.33-.3,2.08-.07.82.26,1.4.68,1.73,1.27s.39,1.23.17,1.92c-.11.35-.29.68-.54.98-.25.31-.61.6-1.05.88-.32.2-.83.46-1.52.79-.69.33-1.16.56-1.39.69-.23.13-.46.27-.68.42l3.06.96-.82,1.47-5.36-1.68c.19-.42.45-.79.77-1.12s.68-.62,1.08-.86c.4-.24,1.11-.62,2.14-1.12.77-.38,1.26-.64,1.47-.76.38-.22.66-.44.83-.63.18-.2.29-.39.35-.57.09-.3.08-.56-.04-.8-.12-.24-.31-.4-.58-.48-.27-.08-.54-.06-.81.09-.27.14-.54.47-.81.98Z"/>
      <path class="cls-8" d="M67.61,163.84l3.35,1.05-.87,1.56-3.35-1.05.87-1.56Z"/>
      <path class="cls-8" d="M27.47,169.28l1.59.8c-.51.66-1.1,1.1-1.76,1.32-.66.22-1.35.22-2.06,0-.81-.25-1.38-.7-1.71-1.33-.33-.63-.36-1.38-.09-2.23.22-.69.57-1.3,1.05-1.83.48-.53,1.07-.88,1.76-1.05.69-.17,1.39-.15,2.08.07.75.24,1.29.62,1.62,1.15.33.53.42,1.13.27,1.79l-1.7-.34c.07-.37.04-.67-.08-.89-.13-.22-.33-.38-.62-.47-.33-.1-.68-.08-1.05.08-.37.16-.71.46-1.01.91-.31.45-.53.89-.67,1.32-.12.38-.12.7,0,.96.12.26.32.44.6.52.28.09.57.07.89-.05.32-.12.61-.36.88-.71Z"/>
      <path class="cls-8" d="M35.68,167.48l-.66,1.18-1.22-.38-2.67,4.79-1.73-.54,2.67-4.79-.96-.3.66-1.18.96.3.34-.61c.28-.5.5-.83.66-.99.22-.21.48-.35.8-.42.32-.07.69-.03,1.13.11.53.17,1.06.44,1.58.81l-.72,1.13c-.37-.27-.68-.44-.94-.52-.2-.06-.36-.05-.5.05-.09.06-.22.25-.39.57l-.24.42,1.22.38Z"/>
      <path class="cls-8" d="M36.34,166.9l.83-1.49,5.82,1.82-.64,1.15c-.46.18-1.01.5-1.64.96-.63.46-1.25.99-1.86,1.61-.61.62-1.14,1.22-1.58,1.81-.62.81-1.04,1.43-1.25,1.85l-1.64-.51c.21-.42.57-.97,1.08-1.66.62-.84,1.32-1.63,2.09-2.36.77-.73,1.63-1.39,2.58-1.99l-3.77-1.18Z"/>
      <path class="cls-8" d="M41.77,171.99l3.35,1.05-.87,1.56-3.35-1.05.87-1.56Z"/>
      <path class="cls-8" d="M44.29,177.18l4.6-8.24,3.01.94c.65.2,1.11.37,1.35.49.42.2.74.43.99.71.25.27.4.59.46.94s.04.71-.08,1.07c-.15.49-.42.87-.81,1.14-.38.27-.89.41-1.52.42.41.27.7.6.85,1,.16.4.17.8.04,1.2-.17.53-.47.98-.92,1.37-.45.38-.97.59-1.57.64-.59.04-1.35-.08-2.27-.37l-4.16-1.3ZM46.84,176.42l1.75.55c.73.23,1.24.34,1.52.32.28-.02.53-.11.75-.28.22-.17.36-.37.44-.61.09-.29.06-.57-.1-.83-.16-.26-.49-.47-.99-.62l-2.17-.68-1.2,2.15ZM48.84,172.84l1.38.43c.62.19,1.08.29,1.38.29.3,0,.55-.08.75-.24.2-.16.33-.35.41-.58.07-.22.06-.43-.02-.61-.08-.19-.24-.34-.46-.46-.12-.07-.44-.18-.94-.33l-1.41-.44-1.09,1.95Z"/>
      <path class="cls-8" d="M53.12,179.94l4.6-8.24,1.81.57-4.6,8.24-1.82-.57Z"/>
    </g>
  </g>
  <g id="Blatt_Rechts" data-name="Blatt Rechts">
    <polygon class="cls-10" points="297.13 125.99 306.74 199.36 243.74 207.61 232.04 118.26 279.06 112.1 297.13 125.99"/>
    <polygon class="cls-6" points="297.13 125.99 281.15 128.08 279.06 112.1 297.13 125.99"/>
    <g>
      <path class="cls-8" d="M242.76,154.6l.78-9.41,2.47-.31c.69-.08,1.13-.13,1.32-.13.38,0,.73.03,1.04.11.31.08.6.21.87.39.27.18.51.41.73.68.21.27.39.6.54.97.14.37.24.79.3,1.25.12.99.04,1.89-.24,2.7s-.68,1.48-1.2,2c-.4.4-.93.73-1.6.99-.38.14-.98.26-1.79.36l-3.23.4ZM244.77,152.85l.96-.12c.69-.09,1.19-.19,1.49-.31.3-.12.56-.32.79-.58.33-.38.59-.87.77-1.47.19-.59.23-1.27.14-2.04-.08-.65-.25-1.13-.5-1.43-.25-.3-.54-.49-.86-.56-.23-.05-.62-.04-1.17.03l-1.09.14-.52,6.34Z"/>
      <path class="cls-8" d="M252.13,149.78c-.07-.54-.06-1.12.03-1.74.11-.83.35-1.57.71-2.22.36-.65.85-1.18,1.47-1.61s1.35-.69,2.2-.8c1.13-.14,2.09.1,2.88.72.79.62,1.25,1.51,1.39,2.67.12.97,0,1.93-.33,2.89-.34.96-.87,1.73-1.59,2.32-.72.58-1.57.94-2.56,1.06-.85.11-1.59,0-2.22-.32-.63-.31-1.1-.74-1.41-1.29s-.5-1.11-.58-1.69ZM253.98,149.52c.08.63.33,1.13.77,1.51.44.38.97.53,1.59.45.51-.06.98-.29,1.4-.69.43-.39.75-.95.98-1.67.22-.72.29-1.4.21-2.05-.09-.72-.35-1.26-.79-1.63-.44-.36-.96-.51-1.56-.43-.92.11-1.62.64-2.09,1.57-.47.93-.64,1.91-.52,2.93Z"/>
      <path class="cls-8" d="M261.86,152.23l.78-9.41,1.88-.23-.78,9.41-1.89.23Z"/>
      <path class="cls-8" d="M266.02,149.96l1.78-.22-.15,1.78-1.78.22.15-1.78ZM266.44,144.92l1.77-.22-.15,1.78-1.77.22.15-1.78Z"/>
      <path class="cls-8" d="M269.72,148.59l1.73-.37c0,.08.01.15.02.19.05.43.19.73.4.92.22.19.48.26.78.23.43-.05.79-.3,1.08-.75.3-.45.4-1.03.31-1.75-.05-.43-.19-.73-.41-.93-.22-.19-.5-.27-.82-.23-.23.03-.45.11-.66.25-.21.13-.4.33-.57.57l-1.49.07.81-4.86,4.61-.57-.13,1.68-3.04.38-.25,1.47c.17-.1.33-.18.5-.24.17-.06.34-.1.51-.12.7-.09,1.3.08,1.81.49.51.42.81,1.02.91,1.81.08.63,0,1.28-.24,1.93-.24.65-.62,1.18-1.13,1.58-.52.4-1.08.64-1.7.71-.78.1-1.45-.08-2.02-.52-.56-.44-.9-1.09-1.02-1.93Z"/>
      <path class="cls-8" d="M282.87,142.59l-1.67.35c-.08-.36-.2-.6-.35-.73-.16-.13-.36-.18-.59-.15-.3.04-.56.19-.77.46-.29.39-.5.98-.6,1.78.36-.3.75-.48,1.18-.53.71-.09,1.32.08,1.84.51.52.43.83,1.06.93,1.89.08.66,0,1.31-.25,1.94s-.59,1.11-1.04,1.44c-.45.33-.94.53-1.47.59-.51.06-.99,0-1.43-.21-.44-.21-.81-.54-1.09-1s-.48-1.11-.58-1.93c-.2-1.64-.01-3.07.57-4.31.58-1.23,1.47-1.92,2.66-2.07.68-.08,1.25.04,1.7.36.45.33.77.87.96,1.62ZM278.79,147.4c.06.48.2.83.42,1.03s.47.29.76.26c.35-.04.63-.24.84-.6.28-.48.38-1.09.29-1.83-.06-.48-.19-.81-.41-1.02-.22-.2-.46-.29-.73-.26-.23.03-.45.14-.66.35-.21.2-.36.5-.45.89-.08.39-.1.78-.05,1.17Z"/>
      <path class="cls-8" d="M284.19,147.7l1.78-.22-.15,1.78-1.78.22.15-1.78Z"/>
      <path class="cls-8" d="M293.56,141.27l-1.67.35c-.08-.36-.2-.6-.35-.73-.16-.13-.35-.18-.59-.15-.3.04-.56.19-.77.46-.29.39-.5.98-.6,1.78.36-.3.75-.48,1.19-.53.71-.09,1.32.08,1.84.51.52.43.83,1.06.93,1.89.08.66,0,1.31-.25,1.94-.25.63-.59,1.11-1.04,1.44-.45.33-.94.53-1.47.59-.51.06-.99,0-1.43-.21-.44-.21-.81-.54-1.09-1-.28-.46-.48-1.11-.58-1.93-.2-1.64-.01-3.07.57-4.31.58-1.23,1.47-1.92,2.66-2.07.68-.08,1.25.04,1.7.36s.77.87.96,1.62ZM289.47,146.07c.06.48.2.83.42,1.03.22.21.47.29.76.26.35-.04.63-.24.84-.6.28-.48.38-1.09.29-1.83-.06-.48-.19-.81-.41-1.02-.21-.2-.46-.29-.73-.26-.23.03-.45.14-.66.35-.21.2-.36.5-.45.89-.08.39-.1.78-.05,1.17Z"/>
      <path class="cls-8" d="M251.05,167.03l1.67-.35c.08.35.2.6.35.73.16.13.36.18.59.15.3-.04.56-.19.76-.46.3-.39.5-.98.61-1.78-.36.3-.75.47-1.18.53-.71.09-1.32-.08-1.84-.5-.52-.42-.83-1.05-.93-1.89-.12-.93.08-1.8.57-2.6.5-.8,1.23-1.26,2.21-1.38.86-.11,1.55.12,2.08.69.53.57.87,1.39,1,2.45.2,1.65.01,3.08-.57,4.31-.59,1.23-1.47,1.92-2.66,2.06-.7.09-1.28-.04-1.74-.39-.47-.35-.77-.88-.91-1.59ZM255.14,162.22c-.06-.48-.2-.83-.42-1.03-.22-.2-.47-.29-.76-.25-.35.04-.63.24-.84.6-.28.48-.38,1.09-.29,1.83.06.48.2.82.41,1.02.21.2.46.29.73.26.23-.03.45-.15.66-.35.21-.2.36-.5.44-.9.08-.39.1-.78.06-1.17Z"/>
      <path class="cls-8" d="M261.35,166l-3.61.45.13-1.54,4.24-6.41,1.55-.19-.49,5.92,1.11-.14-.13,1.57-1.11.14-.16,1.92-1.69.21.16-1.92ZM261.48,164.43l.24-2.93-2.07,3.16,1.83-.23Z"/>
      <path class="cls-8" d="M267.35,160.75l-1.79-.04c.04-.87.29-1.56.75-2.08.46-.52,1.08-.82,1.86-.92.85-.11,1.55.04,2.1.44.55.4.86.96.95,1.67.04.36.01.74-.09,1.12-.1.38-.3.8-.6,1.24-.21.31-.56.76-1.06,1.35-.49.59-.82.99-.98,1.2-.16.21-.31.44-.45.67l3.18-.39-.13,1.68-5.57.69c0-.46.08-.9.24-1.33s.37-.84.63-1.23c.27-.39.76-1.02,1.49-1.9.54-.67.88-1.1,1.02-1.3.25-.36.42-.67.5-.92s.11-.47.08-.66c-.04-.31-.16-.55-.36-.72-.21-.17-.45-.24-.73-.2-.29.04-.52.17-.71.41-.19.24-.3.65-.34,1.23Z"/>
      <path class="cls-8" d="M271.33,166.82l3.36-10.04,1.25-.16-3.36,10.04-1.26.16Z"/>
      <path class="cls-8" d="M279.16,163.79l-3.61.45.13-1.54,4.24-6.41,1.55-.19-.49,5.92,1.11-.14-.13,1.57-1.11.14-.16,1.92-1.69.21.16-1.92ZM279.29,162.23l.24-2.93-2.07,3.16,1.83-.23Z"/>
      <path class="cls-8" d="M283.04,162.54l1.73-.37c0,.08.01.15.02.19.05.43.19.73.4.92.22.19.48.26.78.23.42-.05.79-.3,1.08-.75.3-.45.4-1.03.31-1.75-.05-.43-.19-.73-.41-.93-.22-.19-.5-.27-.82-.23-.23.03-.45.11-.66.25s-.4.33-.57.57l-1.49.07.81-4.86,4.61-.57-.13,1.68-3.04.38-.24,1.46c.17-.1.33-.18.5-.24.17-.06.34-.1.51-.12.7-.09,1.3.08,1.81.49s.81,1.02.91,1.81c.08.63,0,1.28-.24,1.93s-.62,1.18-1.13,1.58c-.52.4-1.08.64-1.7.71-.78.1-1.45-.08-2.02-.52-.56-.44-.9-1.09-1.02-1.93Z"/>
      <path class="cls-8" d="M262.17,178.06l.14-1.64c1.46-.87,2.56-1.8,3.3-2.8l1.1-.14-.79,9.46-1.81.22.54-6.52c-.34.29-.75.56-1.22.82-.46.26-.89.46-1.26.59Z"/>
      <path class="cls-8" d="M268.98,180.41l1.67-.35c.08.35.19.6.35.72.16.13.35.18.59.15.3-.04.56-.19.76-.46.3-.39.5-.98.61-1.78-.36.3-.75.47-1.18.53-.71.09-1.32-.08-1.84-.5-.52-.43-.83-1.05-.93-1.89-.12-.93.08-1.8.57-2.6.5-.8,1.23-1.26,2.21-1.38.86-.11,1.55.12,2.09.69.53.57.86,1.39,1,2.45.2,1.65.01,3.08-.57,4.31-.59,1.23-1.47,1.92-2.66,2.06-.7.09-1.28-.04-1.74-.39-.47-.35-.77-.88-.91-1.59ZM273.07,175.6c-.06-.48-.2-.83-.42-1.03-.22-.2-.47-.29-.76-.25-.35.04-.63.24-.84.6-.28.48-.38,1.09-.29,1.83.06.48.2.81.41,1.02.22.2.46.29.73.26.23-.03.45-.15.66-.35.21-.2.36-.5.44-.9.08-.39.1-.78.06-1.17Z"/>
      <path class="cls-8" d="M278.16,175.01l-1.79-.05c.04-.87.29-1.56.75-2.08s1.08-.82,1.86-.92c.85-.11,1.55.04,2.1.44.55.4.86.96.95,1.67.04.36.02.74-.09,1.12-.11.38-.3.8-.6,1.24-.21.31-.56.76-1.06,1.35-.49.59-.82.99-.98,1.2-.16.21-.31.44-.45.67l3.18-.39-.13,1.68-5.57.69c0-.46.08-.9.24-1.33.16-.43.37-.84.63-1.23.27-.39.76-1.02,1.49-1.91.54-.67.88-1.1,1.03-1.3.25-.36.42-.67.5-.92.08-.25.11-.47.08-.66-.04-.31-.16-.55-.37-.72-.21-.17-.45-.24-.73-.2-.28.04-.52.17-.7.41-.19.24-.3.65-.34,1.23Z"/>
    </g>
    <path class="cls-7" d="M258.3,111.65c-.24.72-.14,1.43,0,2.41.15,1.07.38,2.7,1.67,4.02,1.49,1.52,3.45,1.65,4.02,1.67h2.47c3.14,0,5.7-2.56,5.7-5.69v-1.11c.41-.13.82-.26,1.24-.39,0-.26-.04-.69-.25-1.17-1-2.3-4.46-2.75-5.56-2.89-3.44-.43-8.4.45-9.29,3.16Z"/>
  </g>
  <g id="Blatt_mitte" data-name="Blatt mitte">
    <polygon class="cls-10" points="137.88 139.6 125.92 225.93 51.79 215.66 66.36 110.52 121.69 118.19 137.88 139.6"/>
    <polygon class="cls-6" points="137.88 139.6 119.08 136.99 121.69 118.19 137.88 139.6"/>
    <g>
      <path class="cls-8" d="M76.24,150.86l-1.72-.5c.26-.83.68-1.43,1.26-1.81.58-.38,1.26-.52,2.04-.41.85.12,1.49.44,1.91.97.42.53.58,1.15.49,1.86-.05.36-.17.71-.38,1.06-.2.34-.5.69-.89,1.04-.29.25-.74.59-1.37,1.03-.63.44-1.05.74-1.26.91-.21.16-.41.34-.6.53l3.17.44-.56,1.59-5.56-.77c.12-.44.31-.85.57-1.23.26-.38.57-.72.93-1.03.36-.31,1-.79,1.93-1.46.7-.51,1.14-.84,1.33-.99.34-.28.58-.54.72-.76.14-.22.22-.43.25-.62.04-.31-.01-.57-.17-.79-.15-.22-.37-.34-.65-.38-.28-.04-.55.03-.79.22-.24.19-.46.55-.64,1.1Z"/>
      <path class="cls-8" d="M83.31,156.36l-3.6-.5.52-1.45,5.75-5.1,1.55.21-2,5.59,1.11.15-.53,1.48-1.11-.15-.65,1.81-1.69-.23.65-1.81ZM83.84,154.88l.99-2.77-2.81,2.52,1.82.25Z"/>
      <path class="cls-8" d="M87.37,157.06l1.77.25-.6,1.68-1.77-.25.6-1.68Z"/>
      <path class="cls-8" d="M92,154.11l.56-1.55c1.64-.46,2.94-1.08,3.91-1.86l1.09.15-3.21,8.94-1.8-.25,2.21-6.16c-.41.19-.87.35-1.39.48-.52.13-.97.21-1.37.24Z"/>
      <path class="cls-8" d="M101.12,154.31l-1.72-.51c.26-.83.68-1.43,1.26-1.81.58-.38,1.26-.52,2.04-.41.85.12,1.49.44,1.91.97s.58,1.15.49,1.86c-.05.36-.17.71-.38,1.06-.2.34-.5.69-.89,1.04-.29.25-.74.59-1.37,1.03-.63.44-1.05.74-1.25.91-.21.16-.41.34-.6.53l3.17.44-.56,1.59-5.56-.77c.12-.44.31-.85.57-1.23.26-.38.57-.72.93-1.03.36-.31,1-.79,1.93-1.46.7-.51,1.14-.84,1.33-.99.34-.28.58-.54.72-.76.14-.22.22-.43.25-.62.04-.31-.01-.57-.17-.79-.15-.22-.37-.34-.65-.38-.28-.04-.55.03-.79.22-.24.19-.46.55-.64,1.1Z"/>
      <path class="cls-8" d="M106.32,153.94l.57-1.61,6.04.84-.45,1.24c-.43.25-.91.66-1.46,1.21-.55.55-1.07,1.19-1.57,1.89-.5.71-.92,1.39-1.27,2.04-.48.9-.79,1.58-.93,2.03l-1.71-.24c.14-.45.4-1.05.79-1.81.48-.94,1.04-1.82,1.67-2.67.64-.84,1.38-1.64,2.22-2.38l-3.91-.54Z"/>
      <path class="cls-8" d="M112.32,159.25c.13-.92.41-1.83.86-2.73.54-1.1,1.15-1.89,1.83-2.37.68-.48,1.38-.67,2.11-.57.74.1,1.31.46,1.71,1.06.4.6.53,1.42.39,2.44-.13.94-.44,1.9-.93,2.9-.49.99-1.07,1.73-1.74,2.2-.67.47-1.37.66-2.11.56s-1.31-.46-1.72-1.06c-.41-.6-.54-1.41-.4-2.43ZM114.03,159.85c-.07.49-.04.85.09,1.07.13.22.32.35.57.38.33.05.65-.07.95-.34.4-.36.82-1.13,1.26-2.31.34-.93.56-1.68.63-2.24.06-.46.03-.8-.1-1.02s-.32-.35-.57-.39c-.32-.04-.62.07-.91.34-.42.39-.84,1.12-1.26,2.2-.36.93-.58,1.7-.66,2.31Z"/>
      <path class="cls-8" d="M117.62,163.18l5.84-8.83,1.25.17-5.84,8.84-1.25-.17Z"/>
      <path class="cls-8" d="M69.02,171.92l3.18-8.88,2.47.34c.69.1,1.12.17,1.31.21.37.09.7.21.98.37.28.16.53.36.74.6.21.24.39.53.53.85.14.32.23.68.27,1.08s.03.83-.03,1.28c-.14.99-.45,1.83-.93,2.55-.48.71-1.04,1.25-1.67,1.62-.49.29-1.08.47-1.8.54-.4.04-1.01,0-1.82-.11l-3.23-.45ZM71.42,170.75l.96.13c.69.1,1.2.12,1.52.08.32-.04.63-.16.92-.36.42-.29.79-.69,1.12-1.22.33-.53.55-1.17.66-1.93.09-.65.05-1.15-.11-1.51-.16-.36-.39-.61-.69-.76-.21-.1-.59-.2-1.14-.27l-1.09-.15-2.14,5.99Z"/>
      <path class="cls-8" d="M84.5,172l-3.63-.5-1.38,1.87-1.94-.27,6.44-8.43,2.09.29.22,9.36-1.79-.25-.03-2.06ZM84.48,170.44l-.02-3.76-2.72,3.38,2.74.38Z"/>
      <path class="cls-8" d="M88.36,170.35l3.48.48-.6,1.68-3.48-.48.6-1.68Z"/>
      <path class="cls-8" d="M93.59,175.32l-1.88-.26,3.18-8.89,3.72.52c.66.09,1.17.24,1.54.45.36.21.63.51.81.9.17.39.23.84.16,1.34-.06.46-.21.9-.45,1.31s-.51.73-.8.96c-.3.23-.6.39-.92.48-.32.09-.74.14-1.25.14-.3,0-.86-.06-1.67-.17l-1.21-.17-1.21,3.39ZM95.33,170.46l.58.08c.99.14,1.67.17,2.02.09.35-.08.64-.24.87-.49.23-.25.37-.54.41-.87.03-.22,0-.41-.07-.56-.08-.16-.2-.28-.37-.37s-.56-.18-1.17-.26l-1.35-.19-.92,2.56Z"/>
      <path class="cls-8" d="M100.16,176.23l3.18-8.88,1.88.26-3.18,8.89-1.89-.26Z"/>
      <path class="cls-8" d="M104.7,172.62l3.48.48-.6,1.68-3.48-.48.6-1.68Z"/>
      <path class="cls-8" d="M108.03,177.32l3.18-8.89,1.89.26-1.35,3.78,4.77-3.3,2.52.35-4.6,3.02,2.25,5.98-2.13-.3-1.66-4.67-2,1.31-.97,2.72-1.89-.26Z"/>
      <path class="cls-8" d="M118.19,174.49l3.48.48-.6,1.68-3.48-.48.6-1.68Z"/>
      <path class="cls-8" d="M64.71,186.95l3.18-8.89,6.78.94-.53,1.49-4.9-.68-.72,2.02,4.74.66-.53,1.49-4.74-.66-.92,2.4,5.32.74-.54,1.48-7.15-.99Z"/>
      <path class="cls-8" d="M73.24,188.14l3.18-8.89,6.79.94-.53,1.48-4.9-.68-.72,2.02,4.74.66-.53,1.48-4.74-.66-.92,2.4,5.32.74-.54,1.48-7.15-.99Z"/>
      <path class="cls-8" d="M82.67,185.2l3.48.48-.6,1.68-3.48-.48.6-1.68Z"/>
      <path class="cls-8" d="M89.71,188.52l-3.6-.5.52-1.45,5.75-5.1,1.55.21-2,5.59,1.11.15-.53,1.48-1.11-.15-.65,1.81-1.69-.23.65-1.81ZM90.24,187.04l.99-2.77-2.81,2.52,1.82.25Z"/>
      <path class="cls-8" d="M93.59,188.52l1.75.03c0,.5.08.85.24,1.06.16.21.39.34.7.38.41.06.76-.03,1.07-.27.31-.24.49-.57.55-1,.05-.37-.02-.69-.2-.93-.19-.25-.46-.4-.83-.45-.09-.01-.19-.02-.29-.02l.52-1.45c.06.02.12.03.18.04.48.07.86,0,1.14-.21.28-.21.45-.52.51-.94.04-.3-.01-.54-.16-.73-.14-.19-.35-.31-.63-.35-.26-.04-.5.03-.73.19s-.44.46-.62.9l-1.59-.55c.3-.65.66-1.12,1.08-1.43.64-.46,1.36-.64,2.18-.52.84.12,1.45.44,1.82.97.37.53.51,1.12.42,1.77-.07.47-.26.88-.6,1.23-.33.34-.75.57-1.26.68.36.26.61.56.74.91s.18.7.13,1.06c-.09.67-.42,1.26-.98,1.76-.76.68-1.66.95-2.69.81-.77-.11-1.38-.42-1.82-.93-.44-.51-.66-1.18-.65-2.01Z"/>
      <path class="cls-8" d="M102.06,184.62l.57-1.61,6.04.84-.44,1.24c-.43.25-.91.66-1.46,1.21-.55.55-1.07,1.19-1.57,1.89-.5.71-.92,1.39-1.27,2.04-.48.9-.79,1.58-.94,2.03l-1.71-.24c.14-.45.4-1.05.79-1.81.48-.93,1.04-1.82,1.67-2.67.64-.84,1.38-1.64,2.22-2.38l-3.91-.54Z"/>
      <path class="cls-8" d="M109.07,187.74l.56-1.55c1.64-.46,2.94-1.08,3.91-1.86l1.09.15-3.21,8.94-1.8-.25,2.21-6.16c-.41.19-.87.35-1.39.48-.52.13-.97.21-1.37.24Z"/>
      <path class="cls-8" d="M122.25,187.88l-1.7-.1c.02-.37-.04-.63-.15-.8s-.3-.26-.53-.3c-.3-.04-.59.04-.86.25-.38.3-.73.82-1.04,1.56.42-.2.85-.27,1.28-.21.71.1,1.26.42,1.65.97.39.55.53,1.23.41,2.07-.09.66-.34,1.26-.74,1.81s-.86.92-1.38,1.12c-.52.2-1.04.27-1.57.2-.51-.07-.95-.26-1.33-.58-.38-.31-.64-.73-.79-1.25-.15-.52-.17-1.2-.06-2.02.23-1.64.78-2.97,1.66-4.01.88-1.04,1.92-1.48,3.1-1.31.68.09,1.2.36,1.55.79.35.43.52,1.04.51,1.81ZM117.07,191.47c-.07.48-.02.85.14,1.11.16.26.38.4.66.44.35.05.67-.07.97-.36.4-.39.65-.95.75-1.69.07-.47.02-.84-.13-1.09-.16-.25-.37-.4-.64-.44-.23-.03-.47.02-.73.16-.26.14-.48.39-.66.75-.18.36-.3.73-.36,1.12Z"/>
    </g>
    <path class="cls-7" d="M73.14,108.75c.24.72.14,1.43,0,2.41-.15,1.07-.38,2.7-1.67,4.02-1.49,1.52-3.45,1.65-4.02,1.67h-2.47c-3.14,0-5.7-2.56-5.7-5.69v-1.11c-.41-.13-.82-.26-1.24-.39,0-.26.04-.69.25-1.17,1-2.3,4.46-2.75,5.56-2.89,3.44-.43,8.4.45,9.29,3.16Z"/>
  </g>
</svg>