<?xml version="1.0" encoding="UTF-8"?>
<svg id="_0059_THK_Qualitätskontrolle" data-name="0059_THK_Qualitätskontrolle" xmlns="http://www.w3.org/2000/svg" viewBox="0 0 943.25 526.85">
  <defs>
    <style>
      .cls-1 {
        fill: #dceef9;
      }

      .cls-1, .cls-2, .cls-3, .cls-4, .cls-5, .cls-6, .cls-7, .cls-8, .cls-9, .cls-10, .cls-11, .cls-12, .cls-13, .cls-14, .cls-15, .cls-16, .cls-17, .cls-18, .cls-19, .cls-20, .cls-21 {
        stroke-width: 0px;
      }

      .cls-2 {
        fill: #eee;
      }

      .cls-3 {
        fill: #a5678d;
      }

      .cls-4 {
        fill: #308fc9;
      }

      .cls-5 {
        fill: #206289;
      }

      .cls-6 {
        fill: #356186;
      }

      .cls-7 {
        fill: #dec1a8;
      }

      .cls-8, .cls-11 {
        fill: #dddddc;
      }

      .cls-9 {
        fill: #64abd6;
      }

      .cls-10 {
        fill: #e6710a;
      }

      .cls-11 {
        opacity: .8;
      }

      .cls-12 {
        fill: #873567;
      }

      .cls-13 {
        fill: #000;
      }

      .cls-14 {
        fill: #73bbe7;
      }

      .cls-15 {
        fill: #fcd9bd;
      }

      .cls-16 {
        fill: #236289;
      }

      .cls-17 {
        fill: #825832;
      }

      .cls-18 {
        fill: #ec9447;
      }

      .cls-19 {
        fill: #b9ddf3;
      }

      .cls-20 {
        fill: #ccc;
      }

      .cls-21 {
        fill: #fff;
      }
    </style>
  </defs>
  <g id="Hintergrund">
    <g id="Hintergrund-2" data-name="Hintergrund">
      <path class="cls-8" d="M943.25,526.85H0c.05-114.27,80.89-215.15,204.21-275.45,3.31-1.63,6.66-3.22,10.03-4.78,2.39-1.11,4.8-2.2,7.22-3.28,1.49-.67,2.99-1.32,4.5-1.97.02-.01.03-.02.05-.02,6.73-2.93,13.58-5.73,20.53-8.41.28-.11.55-.22.83-.32,2.23-.86,4.47-1.7,6.72-2.53.76-.28,1.52-.56,2.29-.85h.02c5.55-2.02,11.16-3.97,16.83-5.84.05-.01.09-.03.14-.04,3.91-1.29,7.85-2.54,11.82-3.74.81-.26,1.62-.5,2.43-.74,1.83-.56,3.67-1.1,5.52-1.64.02,0,.04-.01.07-.02.3-.08.6-.17.9-.26,6.45-1.86,12.98-3.62,19.58-5.28.37-.1.74-.19,1.11-.29.36-.08.71-.17,1.07-.26,2.88-.72,5.78-1.41,8.69-2.09.43-.1.86-.2,1.29-.3,22.9-5.27,46.56-9.33,70.85-12.08,24.4-2.77,49.42-4.2,74.92-4.2,127.03,0,242.33,35.62,327.13,93.54,89.04,60.82,144.46,146.25,144.5,240.85Z"/>
    </g>
    <g id="Klemmbrett">
      <polygon class="cls-19" points="823.76 52.41 802.42 251.74 798.75 286 777.74 482.25 777.6 483.58 774.86 509.16 774.01 517.1 772.96 526.85 361.35 526.85 361.5 525.42 367.64 468.1 387.59 281.74 387.88 279.04 389.57 263.3 389.58 263.13 391.19 248.11 391.82 242.26 391.82 242.25 393.06 230.63 393.34 228.05 396.7 196.66 401.54 151.43 416.81 8.84 502.5 18.01 740.11 43.45 823.76 52.41"/>
      <rect class="cls-4" x="599.46" y="-85.4" width="42.97" height="238.98" transform="translate(520.95 647.87) rotate(-83.89)"/>
    </g>
    <g id="Zeilen">
      <g id="Zeilen_1" data-name="Zeilen 1">
        <g>
          <rect class="cls-5" x="647.92" y="72.1" width="5" height="191.14" transform="translate(414.46 796.54) rotate(-83.89)"/>
          <rect class="cls-5" x="644.17" y="107.12" width="5" height="191.13" transform="translate(376.3 824.1) rotate(-83.89)"/>
        </g>
        <rect class="cls-1" x="465.72" y="130.59" width="58.06" height="58.06" transform="translate(19.8 -51.76) rotate(6.11)"/>
        <polygon class="cls-6" points="532.7 145.6 493.1 177.53 485.7 183.5 465.66 158.66 473.06 152.69 487.13 170.13 526.73 138.19 532.7 145.6"/>
      </g>
      <g id="Zeilen_2" data-name="Zeilen 2">
        <g id="Zeilen-2" data-name="Zeilen">
          <rect class="cls-5" x="637.37" y="170.63" width="5" height="191.13" transform="translate(307.07 874.09) rotate(-83.89)"/>
          <rect class="cls-5" x="600.36" y="235.53" width="5" height="124.23" transform="translate(242.72 865.4) rotate(-83.89)"/>
        </g>
        <rect class="cls-1" x="455.18" y="229.11" width="58.06" height="58.06" transform="translate(30.23 -50.08) rotate(6.11)"/>
        <polygon class="cls-6" points="522.15 244.12 482.55 276.06 475.15 282.03 455.11 257.18 462.51 251.21 476.58 268.66 516.18 236.72 522.15 244.12"/>
      </g>
      <g id="Zeilen_3" data-name="Zeilen 3">
        <g>
          <rect class="cls-5" x="557.97" y="331.02" width="5" height="52.65" transform="translate(145.49 876.59) rotate(-83.89)"/>
          <rect class="cls-5" x="554.18" y="366.08" width="5" height="52.57" transform="translate(107.29 904.11) rotate(-83.89)"/>
        </g>
        <rect class="cls-1" x="444.63" y="327.64" width="58.06" height="58.06" transform="translate(40.66 -48.4) rotate(6.11)"/>
        <polygon class="cls-6" points="511.6 342.65 472.01 374.59 464.6 380.56 444.56 355.71 451.97 349.74 466.04 367.19 505.63 335.24 511.6 342.65"/>
      </g>
      <g id="Zeilen_4" data-name="Zeilen 4">
        <g>
          <rect class="cls-5" x="581.67" y="398.78" width="5" height="121.52" transform="translate(65.04 991.47) rotate(-83.89)"/>
          <rect class="cls-5" x="612.52" y="402.7" width="5" height="191.13" transform="translate(54.12 1056.75) rotate(-83.89)"/>
        </g>
        <rect class="cls-1" x="434.08" y="426.17" width="58.06" height="58.06" transform="translate(51.09 -46.72) rotate(6.11)"/>
        <polygon class="cls-6" points="501.05 441.18 461.46 473.11 454.05 479.08 434.01 454.24 441.42 448.27 455.49 465.71 495.08 433.77 501.05 441.18"/>
      </g>
    </g>
    <g id="Lupe">
      <g id="Zeilen-3" data-name="Zeilen">
        <path class="cls-5" d="M736.7,409.45l-1.6,14.92-131.15-14.04c-.74-2.56-1.34-5.14-1.82-7.74-.34-1.81-.61-3.63-.81-5.45-.08-.73-.16-1.47-.22-2.2h0s135.6,14.51,135.6,14.51Z"/>
        <path class="cls-5" d="M741.44,365.19l-1.6,14.91-135.77-14.54c.33-1.15.7-2.29,1.09-3.43.44-1.29.92-2.56,1.43-3.83.98-2.44,2.09-4.84,3.33-7.19l131.52,14.08Z"/>
      </g>
      <path class="cls-11" d="M758.73,400.74c-2.81,17.53-11.49,34.25-25.85,46.93-32.9,29.04-83.11,25.94-112.16-6.95-2.14-2.41-4.09-4.9-5.86-7.49-2.23-3.23-4.18-6.57-5.89-10.01-2.07-4.18-3.74-8.49-5.02-12.89-.74-2.56-1.34-5.14-1.82-7.74-.34-1.81-.61-3.63-.81-5.45-.08-.73-.16-1.47-.22-2.2h0c-.14-1.6-.23-3.18-.27-4.77-.05-2.1-.02-4.19.09-6.29.07-1.29.17-2.56.3-3.84.5-4.89,1.45-9.74,2.85-14.48.33-1.15.7-2.29,1.09-3.43.44-1.29.92-2.56,1.43-3.83.98-2.44,2.09-4.84,3.33-7.19.44-.84.89-1.67,1.36-2.49,1.83-3.18,3.88-6.25,6.17-9.2,3-3.86,6.41-7.51,10.21-10.87,9.73-8.59,20.97-14.37,32.72-17.4,16.26-4.19,33.53-3.13,49.14,3.05,11.29,4.46,21.73,11.57,30.31,21.3,16.38,18.55,22.55,42.58,18.9,65.24Z"/>
      <path class="cls-16" d="M781.05,479.33l-3.31,2.92-.73.65-20.08-22.72-4.98-5.65h0c2.04-2.19,3.96-4.47,5.75-6.8.36-.47.72-.95,1.07-1.44,6.36-8.54,11.15-17.91,14.36-27.73,7.52-22.97,6.36-48.3-3.81-70.74-1.44-3.17-3.05-6.28-4.85-9.34-3.1-5.26-6.75-10.3-10.94-15.06-29.13-32.97-75.53-41.61-113.6-24.32-1.18.53-2.35,1.09-3.52,1.68-.24.12-.49.25-.73.38-1.3.67-2.58,1.37-3.86,2.1h-.01c-2.96,1.69-5.85,3.55-8.66,5.58-2.59,1.88-5.11,3.88-7.54,6.04-7.54,6.65-13.79,14.2-18.76,22.34-2.02,3.3-3.81,6.7-5.4,10.18-1.9,4.14-3.5,8.4-4.79,12.75v.03c-.25.8-.48,1.6-.69,2.41-.19.69-.37,1.38-.54,2.08-1.1,4.42-1.87,8.9-2.34,13.43-.38,3.63-.54,7.28-.51,10.94,0,1.19.04,2.39.1,3.59.04.83.09,1.66.15,2.49v.04c.28,4.03.82,8.03,1.61,12.01h0s.01.04.01.05c.07.35.14.69.21,1.04h0c.91,4.31,2.11,8.57,3.6,12.75,1.31,3.69,2.87,7.32,4.65,10.87,3.7,7.38,8.41,14.42,14.14,20.91,2.34,2.65,4.8,5.15,7.35,7.47,1.08.99,2.17,1.95,3.28,2.87,1.19,1,2.4,1.96,3.63,2.9.46.34.92.68,1.38,1.02,5.35,3.91,11.02,7.23,16.93,9.91,21.95,10.06,47.01,11.61,70.05,4.34,9.72-3.05,19.07-7.67,27.68-13.87l17.88,20.22,7.19,8.14h0l-4.05,3.58,15.66,17.73,8.61,9.75h40.41l-41.98-47.52ZM732.88,447.67c-32.9,29.04-83.11,25.94-112.16-6.95-2.14-2.41-4.09-4.9-5.86-7.49-2.23-3.23-4.18-6.57-5.89-10.01-2.07-4.18-3.74-8.49-5.02-12.89-.74-2.56-1.34-5.14-1.82-7.74-.34-1.81-.61-3.63-.81-5.45-.08-.73-.16-1.47-.22-2.2h0c-.14-1.6-.23-3.18-.27-4.77-.05-2.1-.02-4.19.09-6.29.07-1.29.17-2.56.3-3.84.5-4.89,1.45-9.74,2.85-14.48.33-1.15.7-2.29,1.09-3.43.44-1.29.92-2.56,1.43-3.83.98-2.44,2.09-4.84,3.33-7.19.44-.84.89-1.67,1.36-2.49,1.83-3.18,3.88-6.25,6.17-9.2,3-3.86,6.41-7.51,10.21-10.87,9.73-8.59,20.97-14.37,32.72-17.4,16.26-4.19,33.53-3.13,49.14,3.05,11.29,4.46,21.73,11.57,30.31,21.3,16.38,18.55,22.55,42.58,18.9,65.24-2.81,17.53-11.49,34.25-25.85,46.93Z"/>
    </g>
  </g>
  <g id="Person">
    <g id="Hiterteil_Jacke" data-name="Hiterteil Jacke">
      <path class="cls-3" d="M197.93,426.18c25.78,3.52,56.95,5.71,92.18,3.94,27.49-1.38,52.11-4.92,73.28-9.19-2.19-23.85-6.17-50.95-13.13-80.37-5.75-24.28-12.58-46.16-19.63-65.45-37.32.02-74.64.04-111.96.05-5.1,20.99-9.76,44.08-13.39,69.07-4.3,29.57-6.49,57.07-7.35,81.94Z"/>
    </g>
    <g id="Gesicht">
      <g id="Kopf">
        <path class="cls-17" d="M250.23,168.26c-.67.22-6.32,1.93-11.31-1.55-4.11-2.87-6.12-8.11-5.1-13.3-1.07-.55-4.98-2.74-6.87-7.54-2.43-6.17.46-11.65.89-12.42-.36-.42-3.85-4.73-2.44-10.2,1.12-4.35,4.9-7.67,9.56-8.39-.2-.39-2.99-5.89-.03-11.12,2.44-4.3,7.71-6.56,12.96-5.4-.05-1.03.01-2.82.95-4.65,2.34-4.52,7.93-5.14,8.92-5.25,4.73-.52,8.28,1.81,9.31,2.55.33-.34,3.77-3.69,8.76-2.88,4.58.74,6.8,4.4,7.09,4.9,1.18,0,6.83.16,11.31,4.63,5.65,5.65,4.56,13.28,4.43,14.08.47.09,6.59,1.42,8.98,7.32,1.75,4.31.79,9.33-2.44,12.86.43.29,3.97,2.8,4.21,7.32.19,3.6-1.8,7.06-5.1,8.87,1.7,4.56.97,9.52-2,12.86-2.56,2.89-5.9,3.58-7.09,3.77-.6,2.27-1.8,5.18-4.43,6.87-3.1,1.98-6.11.95-10.37.68-12.79-.82-17.55,6.46-24.23,3.15-1.71-.85-4.11-2.67-5.97-7.16Z"/>
      </g>
      <g id="Kopf-2" data-name="Kopf">
        <path class="cls-15" d="M299.66,137.24c1.4,12.04-6.03,23.8-18.02,27.37h-.01c-.39.12-.79.23-1.2.33v22.96c0,2.99-1.22,5.71-3.19,7.68-1.96,1.97-4.68,3.19-7.67,3.19-5.97,0-10.86-4.89-10.86-10.87v-23.13c0-.8.09-1.58.26-2.33-6.49-3.36-11.78-9.01-14.52-16.23-.54.16-1.11.25-1.7.25-3.38,0-6.15-2.77-6.15-6.16v-2.31c0-2.5,1.51-4.67,3.66-5.63-.58-2.28-.85-4.57-.85-6.83,0-12.05,7.87-23.25,19.97-26.86,14.75-4.39,30.4,4.08,34.8,18.82l1.91,6.41c2.69.23,5.03,2.23,5.54,5.01l.42,2.27c.44,2.38-.57,4.7-2.39,6.06Z"/>
      </g>
      <g id="Schatten">
        <path class="cls-7" d="M241.47,136.33c-.43,0-1.05,1.76-.58,3.35.34,1.14,1.26,2.29,1.64,2.14.71-.29-.31-5.5-1.06-5.5Z"/>
        <path class="cls-7" d="M280.47,164.94c-1.81.47-4.17.9-6.94.96-3.28.06-6.03-.42-8.04-.93,4.98,4.42,9.97,8.83,14.95,13.25-.02-1.97-.02-3.94-.02-5.94,0-2.47.02-4.91.05-7.33Z"/>
      </g>
      <g id="Augen">
        <rect class="cls-13" x="283.19" y="121.84" width="4.47" height="5.25" rx="2.23" ry="2.23" transform="translate(-16.59 48.65) rotate(-9.47)"/>
        <rect class="cls-13" x="261.56" y="125.45" width="4.47" height="5.25" rx="2.23" ry="2.23" transform="translate(-17.47 45.14) rotate(-9.47)"/>
      </g>
      <g id="Nase">
        <path class="cls-13" d="M277.46,143.01c-.53,0-1.09-.1-1.65-.29-.08-.03-.13-.12-.1-.2.03-.08.12-.13.2-.1,1.12.4,2.31.36,3.18-.12.48-.26.81-.63.9-1.01.22-.94-.24-1.76-1.41-2.52l-.15-.1c-.56-.37-1.51-.98-2.09-2.12-.2-.39-.35-1.01-.45-1.41l-.04-.18c-.08-.5-.16-.9-.23-1.3-.08-.4-.15-.81-.23-1.29-.01-.09.04-.17.13-.18.09-.01.17.04.18.13.08.48.16.88.23,1.29.08.4.15.81.23,1.29l.04.17c.1.39.24.98.43,1.34.55,1.06,1.41,1.63,1.99,2l.15.1c1.3.84,1.8,1.78,1.55,2.86-.11.46-.49.91-1.05,1.21-.53.29-1.14.43-1.79.43Z"/>
      </g>
      <g id="Mund">
        <path class="cls-21" d="M269.5,148.93c.07.3,1.17,4.54,5.11,5.89,3.44,1.18,7.56-.38,9.72-3.91-1.63.5-4.88,1.25-8.81.45-2.7-.55-4.73-1.62-6.01-2.43Z"/>
      </g>
      <g id="Augenbrauen">
        <path class="cls-17" d="M258.28,125.74c.43-.74,1.3-2,2.85-3.05,1.94-1.31,3.86-1.55,4.74-1.6.78-1.27.75-1.9.54-2.24-.75-1.17-4.71-.51-7.39,1.52-1.81,1.37-3.61,3.78-2.96,4.83.33.54,1.26.62,2.24.54Z"/>
        <path class="cls-17" d="M280.45,122.14c.43-.74,1.3-2,2.85-3.05,1.94-1.31,3.86-1.55,4.74-1.6.78-1.27.75-1.9.54-2.24-.75-1.17-4.71-.51-7.39,1.52-1.81,1.37-3.61,3.78-2.96,4.83.33.54,1.26.62,2.24.54Z"/>
      </g>
      <g id="Haare">
        <path class="cls-17" d="M234.37,130.8c.34.43,1.3,1.53,2.97,2.04,2.05.63,3.77-.07,4.22-.27,2.36.55,4.84-.21,6.46-1.99,1.71-1.88,2.18-4.6,1.22-6.98,3.05.45,6.03-.99,7.43-3.55,1.8-3.3.01-6.65-.11-6.87.34.3,4.32,3.59,9.42,2.22,4.22-1.13,6.12-4.62,6.43-5.21,1.25,2.41,3.66,3.99,6.32,4.1,3.62.16,5.85-2.47,6.1-2.77,1.15,2.44,3.87,3.72,6.4,3.06,2.68-.7,4.06-3.3,4.09-5.54.02-1.42-.62-2.55-1.05-3.17.02-.28.11-2.77-1.91-4.48-2.19-1.85-4.87-1.11-5.08-1.05-1.65-1.39-4.45-3.38-8.37-4.68-4.75-1.58-8.86-1.39-11.14-1.12-2.54-.03-6.29.23-10.55,1.65-5.3,1.77-8.99,4.55-11.08,6.4-2.09,1.35-6.6,4.66-9.69,10.75-2.99,5.89-3.08,11.29-2.97,13.78.31,1.23.62,2.46.92,3.69Z"/>
      </g>
    </g>
    <g id="Körper">
      <g id="Körper-2" data-name="Körper">
        <path class="cls-15" d="M361.88,526.85h-32.23c-4.19-23.64-5.95-45.24-6.42-64.01h.03c-.5-1.48-.77-3.05-.77-4.67-.3-.78-.54-1.57-.72-2.39-4.38-7.9-8.78-16.62-12.94-26.2-.1-.25-.21-.49-.32-.74-.03-.09-.07-.17-.11-.26-.79-1.83-1.56-3.7-2.33-5.59-9.85-24.42-15.2-47.13-18.07-66.19-.19-.03-.39-.06-.59-.09-.02-.01-.05-.01-.07-.01-.77-.12-1.58-.26-2.44-.42-1.91,19.88-6.3,44.16-15.73,70.58-.47,1.31-.94,2.6-1.43,3.88-4.06,10.85-8.48,20.68-12.92,29.52-.52,3.03-1.94,5.77-4,7.94-8.02,18.78-17.17,38.4-27.61,58.65h-34.01c1.1-2.96,2.25-5.94,3.45-8.96,9.88-24.79,20.99-46.01,31.59-63.57.1-.3.18-.6.28-.9-.24-7.71-.39-15.61-.4-23.71-.01-.22-.01-.44-.01-.67-.01-9.59.14-19.45.49-29.57.58-16.79,1.67-32.89,3.12-48.23.62-6.48,1.29-12.83,2.03-19.03.32-2.73.66-5.43,1-8.1h-.03c-1.63-15.54-2.92-31.88-3.75-48.95-.05-1.18-.11-2.35-.16-3.54h0c-.05-1.11-.1-2.22-.14-3.33-.18-4.6-.33-9.15-.43-13.66-.12-4.47-.19-8.9-.23-13.28v-.43h0c-.08-9.54,0-18.86.23-27.93v-.02c.17-7.48.45-14.81.81-21.96.07-1.6.15-3.19.24-4.77.22-.06.45-.12.68-.18,5.08-1.36,11.02-2.68,17.7-3.69.71-.12,1.43-.22,2.15-.31,2.96-.42,6.05-.77,9.27-1.04.54-.04,1.08-.09,1.62-.12.04-.01.07-.01.11-.01,3.72-.27,7.61-.43,11.64-.43,3.43-.01,6.76.1,9.97.28,1.16.07,2.31.15,3.43.24,2.41.19,4.75.43,7.01.71h0c.44.05.88.11,1.31.17,2.09.27,4.11.57,6.07.9.77.13,1.53.26,2.28.41.01-.01.02-.01.03,0,4.89.88,9.31,1.92,13.22,2.96.14.04.28.07.41.11-.17,3.71-.3,7.52-.39,11.42v.03c-.11,4.54-.15,9.21-.12,13.99.02,3.25.06,6.56.15,9.92.34,13.07.64,25.92,2.66,39.87.58,4.03,1.37,8.6,2.47,13.65.76,3.49,1.66,7.2,2.75,11.12.07.24.13.48.21.72.6,2.17,1.27,4.4,2,6.68,1.41,4.44,3.05,9.1,4.97,13.94.15.4.31.8.48,1.2.35.88.71,1.77,1.09,2.67.61,1.47,1.25,2.96,1.92,4.46.04.11.09.21.14.32.25.56.49,1.12.72,1.67,1.26,2.93,2.35,5.65,3.31,8.15h0c.92,2.42,1.72,4.63,2.4,6.58,1.87,5.38,3.01,8.71,4.01,13.5.38,1.86.77,4.23,1.55,8.96.51,3.09.99,6.17,1.45,9.26.47,3.18.9,6.36,1.31,9.54.43,3.27.82,6.55,1.18,9.82.37,3.37.71,6.73,1.02,10.1.94,10.17,1.56,19.98,1.91,29.39.02.39.03.78.04,1.17.32,8.89.41,17.43.32,25.57.13.85.2,1.73.2,2.62.81,2.08,1.17,4.33,1,6.65,3.41,20.79,6.35,42.89,8.55,66.21.04.37.19.86.38,1.43Z"/>
        <path class="cls-15" d="M417.14,243.19c-2.85-2.43-5.49,3.73-11.83,6.02-3.37,1.22-8.59-.79-7.34-2.17,2.67-2.93,4.89-6.35,4.09-7.92-.24-.47-.54-.77-.88-.96-1.13-.63-2.64.06-3.89.72-4.88,2.56-7.07,4.67-7.07,4.67-1.68,1.53-4.02,3.62-7.05,6.17-19.64,4.22-39.29,8.47-58.93,12.69.14-20.61.26-41.22.38-61.84-.02-.01-.03,0-.06,0,.04-5.78-4.32-12.02-11.39-15.4-8.96-4.28-18.81-2.29-22.03,4.44-.82,1.72-1.11,3.55-.97,5.43-.03-.01-.03,0-.06,0,3.26,23.85,6.52,47.7,9.78,71.55.02.34.05.84.13,1.44.87,6.78,5.3,12.17,8.74,14.73,5.07,3.77,11.44,3.97,18.64,3.03,23.65-3.06,53-17.85,61.95-22.51.78.1,1.55.07,2.29-.06,1.16.02,2.41-.03,3.73-.19,1.86-.22,6.67-1.27,11.91-4.33,7.73-4.5,13.23-12.65,9.86-15.52Z"/>
      </g>
      <g id="Hose">
        <path class="cls-9" d="M279.65,425.89c-.47,1.54-.94,3.1-1.44,4.69-2.61,8.41-5.6,17.41-9.51,25.19-8.64,19.34-19.14,40.34-31.91,62.35-1.71,2.96-3.43,5.87-5.16,8.73h-48.89c4.52-10.72,9.11-22.56,13.53-35.45,7.5-21.87,11.88-39.11,13.34-45.03,1.61-6.5,2.88-12.17,3.94-17.36l.18-.93c4.27-21.22,5.01-34.42,11-63.22.81-3.91,1.79-8.47,2.99-13.62.51-2.19,1.05-4.5,1.63-6.9.91-3.8,1.93-7.85,3.05-12.12.74-2.88,1.54-5.85,2.39-8.92.91-3.29,1.87-6.7,2.9-10.2,1.78.2,3.62.39,5.5.56,4.59.42,9.47.74,14.62.92,8.14.3,16.95.24,26.33-.34.18-.01.37-.03.56-.04.12,0,.23-.01.35-.02v.02c.09,1.67.19,3.35.28,5.02,0,.07.01.14.01.2.1,1.9.21,3.79.32,5.68.06,1.1.12,2.19.18,3.29v.04c.05.96.1,1.91.16,2.86.35,6.42.71,12.83,1.07,19.24.03.6.07,1.2.1,1.8.08,1.46.16,2.91.24,4.37h0c.07,1.24.14,2.46.21,3.69,0,.14,0,.28.02.42,1.24,28.63-3.67,50.86-7.99,65.08Z"/>
        <path class="cls-4" d="M370.55,526.85h-47.44c-6.05-29.29-12.21-58.57-18.47-87.81-.69-3.24-1.39-6.47-2.09-9.71-4.91-22.86-9.88-45.7-14.91-68.52-.03-.13-.06-.27-.09-.4l-.21-3.71h0s-.25-4.59-.25-4.59l-.07-1.3-1.09-19.51-.22-3.97h0s-.12-2.23-.12-2.23l-.32-5.67-.07-1.24v-.02l-.22-3.97h.07c1.35-.08,2.7-.18,4.09-.31,2.66-.22,5.26-.47,7.82-.76,1.18-.13,2.35-.27,3.51-.42,3.83-.48,7.53-1.02,11.11-1.63,1.74-.29,3.45-.59,5.13-.92.16-.03.33-.06.49-.09.72-.13,1.44-.27,2.14-.41,1.55-.31,3.08-.62,4.57-.95,1.7-.37,3.37-.75,4.99-1.13.35-.09.7-.17,1.05-.26.12-.02.24-.05.36-.08.36-.09.71-.17,1.06-.26,1.43-.35,2.82-.71,4.18-1.07.49,1.57.98,3.15,1.47,4.75.45,1.47.9,2.96,1.34,4.46.33,1.09.65,2.18.98,3.28.02.08.04.15.07.23h0c8.78,29.91,16.91,64.25,22.65,102.56.03.15.05.31.07.47.26,1.69.51,3.4.75,5.11,2.02,14.18,3.59,27.97,4.76,41.33,1.82,20.66,2.71,40.3,2.91,58.75Z"/>
      </g>
      <g id="Oberteil">
        <path class="cls-2" d="M286.83,331.24c-5.73.39-12.98.59-23.53.77-14.22.21-33.34.34-56.2,0,3.44-13.15,7.61-30.24,11.74-50.42,4.42-21.59,6.58-32.51,7.49-44.12.96-12.28.85-30.43-4.91-53.03,3.37-.84,6.23-1.38,8.42-1.73,3.1-.5,4.88-.64,5.86-.7.5-.03,1.96-.11,3.87-.09,1.79.02,3.82.13,6.06.4,1.16,1.34,9.2,10.28,22.46,10.25.49,0,.96-.01,1.43-.05l17.31,138.73Z"/>
        <path class="cls-20" d="M342.61,312.57c-8.64,5.39-22.38,12.63-40.44,16.55-2.75.6-5.4,1.03-5.4,1.03-4.28.68-7.91.97-10.59,1.09-5.55-46.24-11.11-92.48-16.66-138.72,13.17-.69,20.85-10.16,21.81-11.38,3.8-.06,8.04.07,12.62.52,5.51.53,10.46,1.43,14.77,2.45-.71,1.86-1.87,5.25-2.7,9.62-.82,4.38-1.41,12,2.1,35.86.63,4.32,1.28,7.95,1.98,11.3,3.38,16.21,6.94,29.26,9.44,37.16,3.28,10.34,7.52,22,13.08,34.52Z"/>
      </g>
      <g id="Jacke">
        <path class="cls-3" d="M257.23,175.58c-1.44,51.7-1.13,106.55,1.63,164.19,1.5,31.44,3.64,61.92,6.3,91.4-13.85-.15-28.34-.65-43.41-1.59-12.79-.8-25.12-1.87-36.96-3.13,1.29-14.44,3.49-36.78,7.09-64.08,8.1-61.4,11.17-56.16,12.21-81.15,1.74-41.55-5.55-84.69,8.33-92.55,1.84-1.05,10.39-5.06,15.41-7.36,8.07-3.7,10.33-4.43,12.69-5.08,3.53-.96,9.13-1.88,16.69-.64Z"/>
        <path class="cls-12" d="M380.7,258.1c-1.43-4.7-2.43-9.05-3.13-12.92-17.84,5.82-35.68,11.64-53.52,17.47,1.17-18.79,1.65-35.34,1.78-49.19.13-13.31-.04-25.23-8.24-32.9-.92-.86-6.69-6.32-12.17-4.8-7.28,2.02-10.51,14.86-10.93,20.43-.08,1.08-.19,2.63-.28,4.49-.07,1.43-.24,5.29-.19,10.56.14,14.95.99,24.99.99,24.99,1.66,19.71,4.61,29.45,6.21,34.14,2.14,6.31,3.68,8.91,5.99,11.08,2.3,2.17,7.51,5.95,20.24,5.68,22.95-.48,48.99-13.65,57.22-18.01-1.35-3.24-2.72-6.91-3.96-11.01Z"/>
        <path class="cls-3" d="M364.7,420.93c-7.81,2.3-16.79,4.45-26.79,6.04-10.83,1.72-20.74,2.45-29.42,2.63-8.43-85.06-16.86-170.12-25.29-255.18,4.65-.81,10.65-1.4,17.6-.95,5.24.34,9.82,1.2,13.59,2.17-.79,9.09-1.28,22.35.66,38.11,2.26,18.27,6.51,31.21,10.74,43.42,1.7,4.91,8.04,26.02,20.49,68.33,6.31,21.45,13.85,52.95,18.4,95.44Z"/>
        <g id="Knöpfe">
          <circle class="cls-21" cx="249.29" cy="251.23" r="1.46"/>
          <circle class="cls-21" cx="248.29" cy="271.39" r="1.46"/>
          <circle class="cls-21" cx="248.59" cy="291.35" r="1.46"/>
          <circle class="cls-21" cx="249.08" cy="312.13" r="1.46"/>
          <circle class="cls-21" cx="250.3" cy="332.45" r="1.46"/>
          <circle class="cls-21" cx="250.8" cy="352.96" r="1.46"/>
          <circle class="cls-21" cx="251.64" cy="375.01" r="1.46"/>
          <circle class="cls-21" cx="252.29" cy="395.48" r="1.46"/>
        </g>
        <path class="cls-12" d="M258.94,181.31c-.08-.26-.15-.51-.23-.77v-9.82c-.85.15-1.66.3-2.44.47v.02s0-.01,0-.02l-16.18,4.63,10.13,8.18-6.82,12.85c4.03,12.55,8.07,25.1,12.1,37.65,2.4-14.27,4.8-28.54,7.2-42.81-1.3-3.13-2.58-6.59-3.76-10.37Z"/>
        <path class="cls-12" d="M300.16,174.85l-16.36-3.94s0,0,0,0c-1.05-.2-2.17-.4-3.36-.57v12.03h.9c-.95,3.41-2.02,6.52-3.1,9.29,3.67,14.74,7.34,29.48,11.02,44.22,2.83-13.29,5.66-26.59,8.49-39.88l-7.35-12.55,9.78-8.6Z"/>
      </g>
    </g>
    <g id="Tablett">
      <polygon class="cls-16" points="425.7 262.69 340.61 305.24 340.61 254.42 425.7 211.87 425.7 262.69"/>
      <polygon class="cls-14" points="423.4 261.43 343.94 300.82 343.94 254.99 423.4 215.59 423.4 261.43"/>
      <polygon class="cls-4" points="428.44 244.91 422.07 248.71 422.07 229.06 428.44 225.26 428.44 244.91"/>
    </g>
    <g id="Arm_Stift" data-name="Arm + Stift">
      <g>
        <path class="cls-10" d="M357.29,259.71l-1.69,4.36-2.52-.98,1.69-4.35c.21-.53.72-.86,1.27-.86.16,0,.32.03.48.09.69.27,1.04,1.05.77,1.74Z"/>
        <path class="cls-18" d="M357.15,264.78l-2.11,5.44c.89.37,1.32,1.39.98,2.3l-.25.62c-1.44,3.96-2.88,7.93-4.32,11.89l-9.46-3.67c1.61-3.9,3.22-7.79,4.84-11.69l.24-.63c.35-.91,1.37-1.36,2.28-1.03l2.11-5.45c.02-.05.08-.07.12-.05l1.5.58,2.52.98,1.5.58s.07.07.05.13Z"/>
        <path class="cls-18" d="M339.27,318.58c-1.48,4.09-2.96,8.17-4.45,12.26-1.15,2.95-4.48,4.41-7.43,3.27l-.79-.31c-2.95-1.15-4.42-4.48-3.27-7.43,1.66-4.01,3.33-8.03,4.99-12.04l10.95,4.25Z"/>
        <polygon class="cls-10" points="353.14 285.69 340.22 318.95 339.27 318.58 328.32 314.33 327.37 313.96 340.29 280.7 341.99 281.36 351.45 285.03 353.14 285.69"/>
      </g>
      <path class="cls-15" d="M349.33,296.43c-1.43-1.6-3.63-1.68-7.07-1.75-1.87-.04-4.55.08-7.73.83.42-1.05.83-2.11,1.25-3.16-1.06-.05-2.68-.08-4.66.08-2.56.21-4.18.62-6.98,1.16-1.65.32-4.07.75-7.06,1.16-17.88-4.4-35.75-8.8-53.63-13.2-2.52-7.34-5.04-14.69-7.57-22.03-2.94-8.51-5.36-15.38-6.98-19.95-5.04-14.2-7.89-21.86-11.44-33.84-.79-2.65-1.41-4.83-1.8-6.24-.19-.89-.6-2.3-1.58-3.71-4.38-6.3-16.83-7.83-22.32-2.15-3.05,3.15-3.35,7.9-3.5,10.19-.03.51-.23,3.82.82,7.53,3.64,12.95,9.74,25.53,14.91,37.9,4.55,10.87,9.17,21.7,13.85,32.52,1.98,4.59,3.3,9.38,6.56,13.31,5.47,6.57,13.25,8.52,21.27,9.95,9.18,1.64,18.49,2.63,27.77,3.47,8.82.79,17.66,1.39,26.5,1.84.4.11.97.25,1.66.36.1.02.21.03.31.04.78.14,1.67.27,2.64.38,3.02.33,8.77.97,15.03-1.19,2.86-.99,10.03-3.46,10.95-8.62.04-.22.48-3.01-1.19-4.88Z"/>
      <path class="cls-12" d="M316.03,288.92c-17.59-3.22-35.18-6.45-52.77-9.67-5.36-15.03-9.4-27.34-12.13-35.89-3.69-11.56-8.7-22.69-12.2-34.32-3.39-11.27-5.74-22.24-13.34-23.89-3.44-.75-6.96.18-6.96.18-2.32.69-4.51,1.9-6.2,3.31-1.97,2.72-4.55,6.88-6.28,12.36-1.94,6.16-4.52,19.41,11.42,52.98,5.76,12.11,14.6,28.29,27.97,45.94,0,0,0,0,.01-.01,0,.01.03.03.03.04,2.18,2.56,4.86,3.78,6.46,4.18,6.76,1.69,29.11,5.67,59.56,10.3-.12-3.53.01-8.25,1.02-13.7.88-4.79,2.19-8.78,3.39-11.81Z"/>
    </g>
  </g>
</svg>