<?xml version="1.0" encoding="UTF-8"?>
<svg id="_0060_THK_Recherche" data-name="0060_THK_Recherche" xmlns="http://www.w3.org/2000/svg" viewBox="0 0 478.28 460.9">
  <defs>
    <style>
      .cls-1 {
        fill: #a5678d;
      }

      .cls-1, .cls-2, .cls-3, .cls-4, .cls-5, .cls-6, .cls-7, .cls-8, .cls-9, .cls-10, .cls-11, .cls-12, .cls-13, .cls-14, .cls-15, .cls-16, .cls-17, .cls-18 {
        stroke-width: 0px;
      }

      .cls-2 {
        fill: #308fc9;
      }

      .cls-3 {
        fill: #eee;
        opacity: .8;
      }

      .cls-4 {
        fill: #dec1a8;
      }

      .cls-19 {
        fill: none;
        stroke: #98c7e4;
        stroke-miterlimit: 10;
        stroke-width: 2.5px;
      }

      .cls-5 {
        fill: #64abd6;
      }

      .cls-6 {
        fill: #e6710a;
      }

      .cls-7 {
        fill: #873567;
      }

      .cls-8 {
        fill: #c39ab3;
      }

      .cls-9 {
        fill: #000;
      }

      .cls-10 {
        fill: #73bbe7;
      }

      .cls-11 {
        fill: #fcd9bd;
      }

      .cls-12 {
        fill: #dcbd92;
      }

      .cls-13 {
        fill: #236289;
      }

      .cls-14 {
        fill: #ec9447;
      }

      .cls-15 {
        fill: #e5e6e5;
      }

      .cls-16 {
        fill: #ccc;
      }

      .cls-17 {
        fill: #cbe3f1;
      }

      .cls-18 {
        fill: #f2b885;
      }
    </style>
  </defs>
  <g id="Stuhl">
    <rect class="cls-18" x="104.61" y="257.02" width="17.3" height="180.07" rx="8.21" ry="8.21"/>
    <rect class="cls-14" x="44.06" y="157.48" width="138.39" height="111.24" rx="5.79" ry="5.79"/>
    <path class="cls-14" d="M193.44,295.18H33.09c-2.38,0-4.31,1.93-4.31,4.31v20.37c0,2.38,1.93,4.31,4.31,4.31h29.48c1.01,6.59,6.69,11.64,13.56,11.64h25.29v15.89h23.69v-15.89h25.29c6.87,0,12.55-5.05,13.56-11.64h29.48c2.38,0,4.31-1.93,4.31-4.31v-20.37c0-2.38-1.93-4.31-4.31-4.31Z"/>
    <path class="cls-14" d="M182.32,445.21v-8.73c.08-.25.14-.5.14-.78v-6.6c0-1.36-1.1-2.46-2.46-2.46h-54.89v-6.09h-23.69v6.09h-54.89c-1.36,0-2.46,1.1-2.46,2.46v4.78h0v11.33c-2.59,1.38-4.36,4.1-4.36,7.24,0,4.53,3.67,8.2,8.2,8.2s8.2-3.67,8.2-8.2c0-3.14-1.77-5.87-4.36-7.24v-7.05h20.98v7.05c-2.59,1.38-4.36,4.1-4.36,7.24,0,4.53,3.67,8.2,8.2,8.2s8.2-3.67,8.2-8.2c0-3.14-1.77-5.87-4.36-7.24v-7.05h20.98v6.09h23.69v-6.09h20.84v7.05c-2.59,1.38-4.36,4.1-4.36,7.24,0,4.53,3.67,8.2,8.2,8.2s8.2-3.67,8.2-8.2c0-3.14-1.77-5.87-4.36-7.24v-7.05h20.98v7.05c-2.59,1.38-4.36,4.1-4.36,7.24,0,4.53,3.67,8.2,8.2,8.2s8.2-3.67,8.2-8.2c0-3.14-1.77-5.87-4.36-7.24Z"/>
    <circle class="cls-6" cx="178.47" cy="452.46" r="5.46"/>
    <circle class="cls-6" cx="149.8" cy="452.46" r="5.46"/>
    <circle class="cls-6" cx="76.59" cy="452.46" r="5.46"/>
    <circle class="cls-6" cx="47.91" cy="452.46" r="5.46"/>
  </g>
  <g id="Person">
    <g id="Gesicht">
      <path class="cls-12" d="M183.26,126.37c-6.42-29.93-4.07-52.72-20.35-66.72-9.23-7.94-19.89-9.61-19.89-9.61-3.91-.61-12.36-1.29-21.56,3.01-2.05.96-10.78,5.3-18.3,18.44-8.26,14.41-8.52,27.99-9.2,35.4-3.86,42.09-36.49,53.95-31.59,72.49,8.8,33.31,127.58,44.86,142.66,12.75,6.27-13.35-11.99-20.17-21.77-65.76Z"/>
      <path class="cls-11" d="M167.07,91.13c1.54,10.82-4.89,21.59-15.62,25.08-.36.12-.72.23-1.08.33l.53,20.69c.13,5.38-4.16,9.9-9.55,10.03-5.38.14-9.9-4.16-10.03-9.54l-.53-20.85c-.02-.72.04-1.42.18-2.1-5.92-2.87-10.82-7.85-13.44-14.3-.49.16-1,.25-1.53.26-3.05.07-5.61-2.36-5.69-5.41l-.05-2.08c-.06-2.26,1.25-4.24,3.17-5.16-3.62-12.9,3.62-26.6,16.48-30.79,2.57-.84,5.18-1.23,7.75-1.23,10.63,0,20.58,6.78,24.03,17.4l1.87,5.73c2.43.15,4.57,1.9,5.1,4.4l.43,2.03c.45,2.14-.41,4.26-2.02,5.51Z"/>
      <g id="Schatten">
        <path class="cls-4" d="M114.62,91.63c-.39.01-.91,1.61-.44,3.04.33,1.02,1.19,2.04,1.52,1.89.64-.28-.4-4.95-1.08-4.93Z"/>
        <path class="cls-4" d="M150.42,116.54c-1.62.46-3.74.91-6.24,1.02-2.95.13-5.44-.24-7.26-.66,4.59,3.87,9.18,7.73,13.77,11.6-.06-1.77-.11-3.55-.15-5.35-.05-2.22-.09-4.43-.12-6.61Z"/>
      </g>
      <g id="Mund">
        <path class="cls-9" d="M146.39,106.78c-.91,0-1.86-.19-2.83-.57-1.59-.62-3.18-1.73-4.73-3.3-.05-.05-.05-.13,0-.18.05-.05.13-.05.18,0,1.53,1.54,3.09,2.63,4.64,3.24,1.67.65,3.27.72,4.75.21.06-.02.14.01.16.08.02.07-.01.14-.08.16-.68.23-1.38.35-2.1.35Z"/>
      </g>
      <g id="Augenbrauen">
        <path class="cls-12" d="M137.19,78.88c-.76-.14-2.14-.28-3.76.17-2.03.56-3.32,1.74-3.87,2.31-1.33-.21-1.74-.59-1.85-.94-.36-1.2,2.4-3.52,5.37-4.18,2-.44,4.7-.26,5.04.79.18.55-.31,1.23-.94,1.85Z"/>
        <path class="cls-12" d="M148.67,77.38c.51-.58,1.49-1.55,3.04-2.22,1.94-.84,3.68-.72,4.47-.62.91-.99.99-1.55.85-1.89-.47-1.16-4.08-1.24-6.81.1-1.84.91-3.83,2.74-3.44,3.77.2.54,1.01.77,1.89.85Z"/>
      </g>
      <g id="Augen">
        <rect class="cls-9" x="132.53" y="81.32" width="4.03" height="4.73" rx="2.01" ry="2.01" transform="translate(-13.4 26.97) rotate(-10.91)"/>
        <rect class="cls-9" x="151.94" y="77.58" width="4.03" height="4.73" rx="2.01" ry="2.01" transform="translate(-12.35 30.58) rotate(-10.91)"/>
      </g>
      <g id="Nase">
        <path class="cls-9" d="M147.1,98.82c-.45,0-.92-.08-1.38-.23-.07-.02-.1-.09-.08-.16.02-.07.09-.1.16-.08,1.04.34,2.09.28,2.88-.18.43-.25.72-.59.79-.94.18-.86-.26-1.6-1.34-2.26l-.14-.09c-.55-.34-1.38-.85-1.93-1.86-.19-.35-.34-.9-.44-1.26l-.04-.16c-.09-.45-.16-.8-.24-1.16-.08-.36-.15-.72-.24-1.16-.01-.07.03-.13.1-.15.06-.01.13.03.15.1.08.43.16.79.24,1.15.08.36.15.72.24,1.16l.04.15c.1.35.24.88.42,1.21.52.95,1.31,1.44,1.84,1.76l.14.09c1.18.72,1.66,1.55,1.45,2.52-.09.42-.42.82-.91,1.1-.49.28-1.08.43-1.7.43Z"/>
      </g>
      <path class="cls-12" d="M159.94,61.24c-4.73-4.17-10.02-5.34-13.35-5.64.05-.77.06-1.47.04-2.06-3.04-1.03-9.15-2.61-16.58-1.16-1.42.28-12.25,2.56-19.47,12.18-2.3,3.06-4.34,5.31-4.72,8.88-.84,7.83,6.48,13.8,7.54,14.64,5.17-2.17,7.85,2.77,7.93,2.62,1.24-2.14,1.49-4.81,3.96-9.03,3.47-5.94,8.13-4.44,15.2-12.22,2.91-3.21,4.1-5.87,4.43-6.66.64.91,1.72,2.26,3.35,3.52,3.11,2.4,5.64,2.48,8.07,3.67,2.18,1.07,4.97,3.39,7.08,9.04.8.18,1.86.32,3.1.19.45-.05.85-.12,1.22-.21.02-1.41-.03-10.9-7.8-17.76Z"/>
      <path class="cls-7" d="M171.18,81.08l-.99-5.14c-.35-1.8-2.1-2.99-3.9-2.64l-18.6,3.59c-.87.17-1.62.67-2.12,1.4-.5.74-.68,1.62-.51,2.49l.21,1.08-3.48.69-.21-1.1c-.35-1.8-2.1-2.98-3.9-2.64l-18.6,3.58c-1.8.35-2.98,2.1-2.64,3.9l.99,5.14c.17.87.67,1.62,1.4,2.12.56.38,1.2.57,1.86.57.21,0,.42-.02.63-.06l18.6-3.58c1.8-.35,2.98-2.09,2.64-3.9l-.59-3.06,3.48-.69.59,3.08c.17.87.67,1.62,1.4,2.12.56.38,1.2.58,1.86.58.21,0,.42-.02.63-.06l18.6-3.58c1.8-.35,2.98-2.09,2.64-3.9ZM139.73,89.5l-18.6,3.58c-.61.12-1.23-.01-1.74-.36-.52-.35-.87-.88-.98-1.48l-.99-5.14c-.24-1.26.58-2.48,1.84-2.73l18.6-3.58c.15-.03.29-.04.44-.04,1.09,0,2.07.78,2.29,1.89l.99,5.14c.24,1.26-.58,2.48-1.84,2.73ZM168.35,83.99l-18.6,3.58c-.61.12-1.23-.01-1.74-.36-.52-.35-.87-.88-.98-1.48l-.99-5.14c-.12-.61.01-1.23.36-1.74s.88-.87,1.48-.98l18.6-3.59c.15-.03.29-.04.44-.04,1.09,0,2.07.78,2.29,1.89l.99,5.14c.24,1.26-.58,2.48-1.84,2.73Z"/>
    </g>
    <g id="Körper">
      <path class="cls-11" d="M299.17,449.35c-.56,4.17-10.86,6.68-18.95,5.26-3.26-.57-10.64-1.87-12.64-7.72-1.08-3.18-.1-6.35.97-8.5.95-1.94,1.25-4.13.76-6.24-3.5-15-6.58-31.79-8.67-50.16-2.96-26.13-3.27-49.79-2.31-70.15-6.67-2.5-15.02-6.07-25.5-11.1-5.52-2.66-16.87-8.1-28.98-14.55-3.75-2.76-8.06-4.88-12.41-6.6-1.48-.59-2.99-1.13-4.49-1.66-.03-.01-.06-.02-.09-.03-5.18-2.12-11.32-4.41-18.6-6.95-.28-.1-.55-.19-.83-.29.25-.16.49-.32.74-.48.31-.2.61-.4.9-.61.17-.11.34-.22.51-.34.34-.24.68-.47,1.01-.72.62-.43,1.22-.87,1.8-1.31,4.14-3.13,7.61-6.37,10.48-9.46.18-.18.34-.36.5-.54.69-.74,1.35-1.52,2.02-2.29.08-.09.16-.18.23-.27,1.75-2.08,3.2-4.02,4.41-5.75,0-.01.01-.01.01-.01.11-.16.22-.32.33-.48,18.04,2.7,33.56,10.17,40.5,13.63,12.69,6.33,24.96,13.5,36.74,21.39,2.55,1.71,5.08,3.45,7.58,5.22,3.9,2.76,7.82,4.5,10.54,8.71,2.13,3.32,3.2,7.19,3.22,11.12.02,4.38.41,8.77.69,13.15.59,9.19,1.22,18.38,1.67,27.58.12,2.39.22,4.78.31,7.17.35,9.36.55,18.72.62,28.08.04,5.49.4,13.67-.17,24.49-.48,9.01-1.35,16.89-2.24,23.27-.62,4.39,1.39,8.69,5.02,11.24,2.46,1.73,4.6,3.85,4.32,5.9Z"/>
      <g>
        <path class="cls-11" d="M221.53,423.97c.48-3.32.26-23.27-.18-63.17-.39-35.12-.86-21.26-3.75-45.28-.88-7.31-1.95-14.87-5.87-21.1-2.05-3.25-4.78-5.95-7.88-8.23-3.75-2.76-8.06-4.88-12.41-6.6-1.48-.59-2.99-1.13-4.49-1.66-.03-.01-.06-.02-.09-.03-5.18-2.12-11.32-4.41-18.6-6.95-.28-.1-.55-.19-.83-.29.25-.16.49-.32.74-.48.31-.2.61-.4.9-.61.51-.35,1.02-.7,1.52-1.06,4.42-3.19,8.55-6.8,12.28-10.77.18-.18.34-.36.5-.54.69-.74,1.35-1.52,2.02-2.29.08-.09.16-.18.23-.27,1.75-2.08,3.2-4.02,4.41-5.75,0-.01.01-.01.01-.01-1.73-2.3-3.5-4.62-5.29-6.94-4.92-6.38-9.85-12.54-14.77-18.49-16.3-.51-32.6-1.02-48.91-1.52-7.12,5.34-15.74,13.74-21.23,26.1-2.83,6.37-6.08,13.68-3.8,21.48,2.7,9.27,12.1,13.49,17.32,17.04,22.41,15.26,47.86,25.97,74.36,31.7-1.18,38.4,2.96,76.96,12.28,114.24.67,2.68,1.37,5.42,1.08,8.16-.3,2.96-1.34,6.07.81,8.56,1.83,2.12,5.04,3.26,7.72,3.87,7.21,1.64,16.48-.25,17.13-3.72.29-1.56-1.29-2.7-2.69-4.47-5.12-6.49-3.26-15.87-2.52-20.92Z"/>
        <path class="cls-11" d="M169.98,223.46c4.41-29.89,8.82-59.78,13.24-89.66-11.97-.57-25.58-.53-40.49.7-15.98,1.32-30.29,3.74-42.63,6.51,6.99,26.98,13.98,53.96,20.98,80.94l48.91,1.52Z"/>
      </g>
    </g>
    <g id="Schuhe">
      <path class="cls-13" d="M311.72,445.57c-7.62-2.19-13.5-4.97-19.5-6.64-.05.03-.1.05-.15.06-.29.11-.6.23-.91.34h-.01c-2.63.98-6.49,2.01-11.19,2.08-5.02.06-9.12-1.02-11.85-2.02h-.01c-.2-.08-.42-.14-.61-.23-.22-.08-.42-.15-.62-.24-.83,1.79-1.73,4.08-2.38,6.76-.7,3.01-.93,5.7-.93,7.79v3.29h65.24v-3.29s-.52-3.1-17.07-7.9Z"/>
      <path class="cls-13" d="M244.16,447.21c-7.62-2.2-13.5-4.98-19.49-6.64-.09.03-.15.05-.24.09-.03.01-.08.03-.11.04-1.32.52-3.01,1.08-5.02,1.54-2.01.44-4.33.77-6.91.83-4.61.04-8.45-.85-11.17-1.78-.39-.11-.75-.25-1.09-.38-.29-.11-.57-.23-.84-.33-.83,1.78-1.71,4.06-2.38,6.76-.7,3-.93,5.7-.93,7.77v3.29h65.24v-3.29s-.52-3.1-17.07-7.89Z"/>
    </g>
    <g id="Hose">
      <path class="cls-2" d="M253.22,312.49c.96,18.2,2.39,37.22,4.43,56.98,2.15,20.84,4.79,40.74,7.76,59.64,4.61-.69,9.65-1.25,15.08-1.55,4.31-.24,8.38-.3,12.19-.22,3.75-26.94,4.38-49.35,4.21-65.18-.41-38.7-.87-58.39-13.6-74.59-11.09-14.11-26.92-20.99-42.71-27.83-8.68-3.77-15.56-5.74-29.29-10.78-7.58-2.78-11.77-3.46-17.04-6.51-9.04-5.24-14.63-12.49-17.92-17.74-11.08,1.29-22.16,2.59-33.24,3.88-.99,6.29-1.46,15.5,2.16,25.17,7.55,20.13,27.83,29.7,57.2,41.9,12.54,5.21,29.68,11.51,50.77,16.85Z"/>
      <path class="cls-5" d="M117.99,222.38c-2.36,1.3-26.27,14.93-27.49,39.57-.51,10.33,3.19,17.94,3.99,19.51,9.61,19.01,33.74,25.18,43.23,27.6.97.25,41.12,10.57,43.23,14.52,1.36,2.55.1,2.59,2.21,18.93.98,7.59,2.02,15.17,3.12,22.75,1.57,10.82,3.27,21.62,5.08,32.4,1.26,7.48,2.25,14.99,3.56,22.46.4,2.3.74,4.04.98,5.21.55,2.79,1.06,5.14,1.46,6.88,4.1-.74,8.62-1.37,13.52-1.77,5.12-.42,9.87-.53,14.19-.44,0-.07.22-7.91.22-7.98.33-11.79.51-17.73.61-20.2.37-8.77.75-10.29,1.59-26.21.03-.55.06-1.1.08-1.65.6-17.26,1.58-35.09-1.19-52.15-1.51-9.31-4.25-18.94-10.25-26.41-12.88-16.04-39.71-24.07-46.54-26.16-2.66-.81-10.69-3.11-17.9-9.94-1.88-1.78-3.24-3.44-4.09-4.53-.56-8.69-1.12-17.37-1.68-26.06-9.31-2.11-18.62-4.21-27.93-6.32Z"/>
    </g>
    <g id="Tisch">
      <rect class="cls-16" y="241.95" width="478.28" height="19.69" rx="6.7" ry="6.7"/>
      <path class="cls-16" d="M39.77,460.9c-3.38-.08-6.76-.16-10.14-.24-.83-66.66-1.66-133.32-2.48-199.98h15.31c-.9,66.74-1.79,133.48-2.69,200.22Z"/>
      <path class="cls-16" d="M448.18,460.9c-3.38-.08-6.76-.16-10.14-.24-.83-66.66-1.66-133.32-2.48-199.98h15.31c-.9,66.74-1.79,133.48-2.69,200.22Z"/>
    </g>
    <g id="Oberarme">
      <path class="cls-11" d="M167.99,147.43c.02,1.86.42,3.63,1.12,5.25h.03s0,.06.03.11c10.06,23.73,20.11,47.5,30.2,71.26.03.09.06.2.12.28.09.23.23.56.39.97,1.04,2.53,2.03,4.62,2.34,5.23.7,1.4,2.4,4.78,5.46,6.27,3.78,1.84,9.38.67,12.01-2.29,3.5-3.95,1.36-10.67-.55-16.69-7.83-24.7-13.93-49.97-23.28-74.16-.12-.31-.21-.66-.3-.97-.03-.06-.03-.11-.06-.17-2-5.32-7.31-9.1-13.46-9.03-7.86.08-14.12,6.33-14.04,13.93Z"/>
      <path class="cls-11" d="M110.15,155.64c.26,1.67.14,3.33-.3,4.9h-.03s0,.06-.01.11c-6.29,22.99-12.58,46-18.9,69.02-.02.08-.03.19-.08.28-.07.3-.14.63-.24.93-1.14,3.37-4.35,6.07-8.47,6.72-5.67.89-10.9-2.45-11.69-7.46-.13-.82-.14-1.64,0-2.45,0,0,.03-.22.04-.32,3.86-23.5,7.75-46.98,11.64-70.49.07-.3.11-.62.15-.92.02-.06.01-.11.03-.16,1.16-5.11,5.82-9.38,11.89-10.34,7.76-1.22,14.89,3.35,15.97,10.19Z"/>
    </g>
    <g id="Oberteil">
      <path class="cls-16" d="M209.28,177.86l-11.25-33.44c-2.24-6.66-8.2-11.06-14.8-11.7,0,0,0-.02,0-.02-.07,0-.15,0-.22,0-.67-.06-1.34-.07-2.02-.05-6.14-.14-12.28-.28-18.42-.42-1.33,1.42-3.08,3.01-5.3,4.47-5.25,3.45-10.46,4.44-13.57,4.75-.2,29.04-.41,58.08-.61,87.12.76.05,1.53.11,2.29.13,13.2.5,23.97-1.87,30.95-4.01.45-9.79,1.09-19.93,1.98-30.38.2-2.37.38-4.44.54-6.22l30.43-10.24Z"/>
      <path class="cls-15" d="M143.7,141.46c-2.24.28-4.99.39-8.09,0-7.47-.95-12.87-4.31-15.72-6.43-3.35.51-6.83,1.12-10.41,1.84-5.06,1.02-9.84,2.16-14.34,3.37,0,.01.01.03.01.05-6.38.81-11.97,5.39-13.7,11.96l-9.26,35.16,33.82,8.9,2.14-8.12c.09.38.18.75.26,1.12,2.1,9.07,3.94,18.2,3.94,18.2,1.02,5.1,1.98,10.13,2.86,15.05,3.47,1.33,7.43,2.6,11.85,3.65,7.09,1.68,13.51,2.32,18.85,2.48-.74-29.08-1.48-58.16-2.22-87.24Z"/>
    </g>
    <g id="Unterarme">
      <path class="cls-11" d="M156.9,229.29c-1.68-.62-5.96-1.98-11.53-1.38-3.87.42-6.73.72-8.6,1.64,0,.06-.01.13-.02.19-18.49-3.53-36.98-7.07-55.47-10.6h-.02c-.83-.02-1.94.05-3.17.46-3.81,1.26-8.19,5.55-7.43,11.08.63,4.53,4.48,8.18,9.31,8.64,9.63.87,20.02,1.46,31.08,1.6,8.66.11,16.91-.08,24.71-.46,1.7.89,3.52,1.77,5.48,2.63,1.33.58,2.62,1.11,3.88,1.59,1.33-1.87,3.33-3.94,6.1-4.45.74-.14,2.62.29,6.44.68,6.42.66,7.78-.32,8.25-.72.26-.22,1.53-1.35,1.65-2.96.33-4.76-9.96-7.68-10.64-7.93Z"/>
      <path class="cls-11" d="M275.79,228.76c-1.56-.79-5.57-2.59-11.07-2.57-2.43,0-4.45,0-6.1.19-5.69-1.2-11.52-2.34-17.5-3.39-8.82-1.55-17.45-2.83-25.86-3.89l-.07-.03c-.33-.04-.66-.08-.99-.12,0,0-.09,0-.19-.01-7.02-.47-10.12,4.41-10.12,4.41-2.43,3.82-.92,8.07-.83,8.31,1.26,3.38,4.05,4.86,4.62,5.15,1.88.94,3.62,1.03,4.53,1.01,14.44.11,28.88.23,43.32.34.79.25,1.68.47,2.65.62,1.35.21,2.57.25,3.58.21,2.37,0,4.74-.01,7.11-.02,2.67.52,4.78,1.01,6.19,1.35.9.22,5.9,1.4,7.94.28.08-.04.14-.08.2-.12.29-.19,1.66-1.17,1.98-2.75.92-4.66-8.75-8.63-9.38-8.95Z"/>
    </g>
  </g>
  <g id="Suche">
    <g>
      <path class="cls-19" d="M357.4,78.61c0,14.15-3.8,27.42-10.44,38.83-13.31,22.9-38.04,38.33-66.39,38.52-.18,0-.35,0-.53,0s-.35,0-.53,0c-28.35-.19-53.08-15.62-66.39-38.52-6.64-11.41-10.44-24.68-10.44-38.83s3.85-27.58,10.56-39.04C226.59,16.79,251.25,1.44,279.52,1.26c.18,0,.35,0,.53,0s.35,0,.53,0c28.26.18,52.93,15.53,66.27,38.32,6.71,11.46,10.56,24.8,10.56,39.04Z"/>
      <ellipse class="cls-19" cx="280.04" cy="78.61" rx="40.82" ry="77.36"/>
      <line class="cls-19" x1="280.04" y1="1.25" x2="280.04" y2="155.96"/>
      <path class="cls-19" d="M357.4,78.61c0,14.15-3.8,27.42-10.44,38.83h-133.84c-6.64-11.41-10.44-24.68-10.44-38.83s3.85-27.58,10.56-39.04h133.6c6.71,11.46,10.56,24.8,10.56,39.04Z"/>
      <line class="cls-19" x1="202.69" y1="78.4" x2="357.4" y2="78.61"/>
    </g>
    <rect class="cls-17" x="262.75" y="33.38" width="171.59" height="33.92" rx="12" ry="12"/>
    <g>
      <circle class="cls-3" cx="405.35" cy="38.13" r="17.74"/>
      <path class="cls-10" d="M427.91,54.21l-.75.82h0s-4.59-4.2-4.59-4.2l-1.14-1.04c.37-.49.71-1,1.02-1.51.07-.1.13-.21.19-.32,1.11-1.88,1.88-3.9,2.32-5.97,1.03-4.85.24-10-2.32-14.35-.36-.62-.76-1.22-1.19-1.8-.75-1.01-1.6-1.96-2.56-2.84-6.87-6.28-16.93-6.88-24.4-2.06-.88.57-1.73,1.21-2.53,1.94-.49.44-.96.9-1.41,1.4-1.39,1.52-2.5,3.2-3.34,4.97-.34.72-.63,1.45-.88,2.19-.4,1.19-.68,2.42-.85,3.66-.13.93-.19,1.86-.18,2.79,0,.75.05,1.5.13,2.24.26,2.21.88,4.37,1.86,6.4.35.72.74,1.43,1.19,2.12.92,1.43,2.03,2.76,3.34,3.96,1.09,1,2.27,1.86,3.5,2.57,1.18.68,2.41,1.23,3.67,1.65,4.7,1.57,9.85,1.34,14.39-.65,1.92-.83,3.73-1.98,5.35-3.44l4.09,3.74,1.64,1.5h0s-.75.82-.75.82l29.67,27.13,4.19-4.59-29.67-27.13ZM394.34,49.83c-.49-.45-.94-.91-1.36-1.4-.53-.61-1-1.25-1.42-1.91-1.28-2.02-2.08-4.27-2.38-6.57-.06-.43-.1-.85-.12-1.28h0c-.01-.27-.02-.53-.02-.79-.01-2.26.44-4.52,1.37-6.63.3-.69.65-1.36,1.06-2.01.53-.85,1.14-1.67,1.85-2.44,1.8-1.97,3.97-3.39,6.3-4.27,3.23-1.21,6.77-1.37,10.1-.45,2.4.66,4.69,1.89,6.65,3.69,3.75,3.43,5.53,8.2,5.28,12.9-.19,3.64-1.6,7.24-4.25,10.14-6.08,6.65-16.4,7.11-23.04,1.03Z"/>
    </g>
  </g>
  <g id="PC">
    <g>
      <path class="cls-8" d="M286.92,247.54h-142.11c0-4.74,3.84-8.57,8.57-8.57h124.96c4.74,0,8.57,3.84,8.57,8.57Z"/>
      <path class="cls-7" d="M291.95,239.41h99.33c5.52,0,10.01,4.48,10.01,10.01h-119.34c0-5.52,4.48-10.01,10.01-10.01Z"/>
      <polygon class="cls-1" points="435.56 105.07 427.52 215.26 260.93 215.26 268.97 105.07 435.56 105.07"/>
      <path class="cls-7" d="M353.96,249.01l-27.67-2.51c2.34-14.86,4.65-29.79,6.92-44.81,2.51-16.59,4.96-33.1,7.35-49.53h16.37c-.61,16.6-1.17,34.77-1.68,51.53-.47,15.17-.89,30.28-1.28,45.32Z"/>
    </g>
  </g>
</svg>