<?xml version="1.0" encoding="UTF-8"?>
<svg id="_0061_THK_Personenbezogene_Daten" data-name="0061_THK_Personenbezogene_Daten" xmlns="http://www.w3.org/2000/svg" xmlns:xlink="http://www.w3.org/1999/xlink" viewBox="0 0 943.25 516.31">
  <defs>
    <style>
      .cls-1 {
        fill: #dceef9;
      }

      .cls-1, .cls-2, .cls-3, .cls-4, .cls-5, .cls-6, .cls-7, .cls-8, .cls-9, .cls-10, .cls-11, .cls-12, .cls-13, .cls-14, .cls-15, .cls-16, .cls-17, .cls-18, .cls-19, .cls-20, .cls-21, .cls-22, .cls-23, .cls-24, .cls-25, .cls-26, .cls-27 {
        stroke-width: 0px;
      }

      .cls-2 {
        fill: #eee;
      }

      .cls-3 {
        fill: #42210b;
      }

      .cls-4 {
        fill: #a5678d;
      }

      .cls-5 {
        fill: #308fc9;
      }

      .cls-28 {
        fill: none;
        stroke: #236289;
        stroke-miterlimit: 10;
        stroke-width: 5px;
      }

      .cls-6 {
        fill: #85bae3;
      }

      .cls-29 {
        clip-path: url(#clippath);
      }

      .cls-7 {
        fill: #dec1a8;
      }

      .cls-8 {
        fill: #dddddc;
      }

      .cls-9 {
        fill: #64abd6;
      }

      .cls-10 {
        fill: #e6710a;
      }

      .cls-11 {
        fill: #e0bf70;
      }

      .cls-12 {
        fill: #873567;
      }

      .cls-13 {
        fill: #000;
      }

      .cls-14 {
        fill: #73bbe7;
      }

      .cls-15 {
        fill: #fcd9bd;
      }

      .cls-16 {
        fill: #96cced;
      }

      .cls-17 {
        fill: #b47d49;
      }

      .cls-18 {
        fill: #236289;
      }

      .cls-19 {
        fill: #825832;
      }

      .cls-20 {
        fill: #ec9447;
      }

      .cls-21 {
        fill: #b9ddf3;
      }

      .cls-22 {
        fill: #98c7e4;
      }

      .cls-23 {
        fill: #ccc;
      }

      .cls-24 {
        fill: #cbe3f1;
      }

      .cls-25 {
        fill: #fff;
      }

      .cls-26 {
        fill: #376185;
      }

      .cls-27 {
        fill: #f2b885;
      }
    </style>
    <clipPath id="clippath">
      <circle class="cls-28" cx="602.57" cy="161.66" r="76"/>
    </clipPath>
  </defs>
  <g id="Hintergrund">
    <path class="cls-8" d="M943.25,516.31H0c.05-114.27,80.89-215.15,204.21-275.45,3.31-1.63,6.66-3.22,10.03-4.78,2.39-1.11,4.8-2.2,7.22-3.28,1.49-.67,2.99-1.32,4.5-1.97.01,0,.01-.01.02-.01,0-.01.02-.01.03-.01,6.73-2.93,13.58-5.73,20.53-8.41.28-.11.55-.22.83-.32,2.23-.86,4.46-1.7,6.71-2.53h.01c.76-.28,1.52-.56,2.29-.85h.02c5.55-2.02,11.16-3.97,16.83-5.84.05,0,.09-.03.14-.04,3.91-1.29,7.85-2.54,11.82-3.74.81-.26,1.62-.5,2.43-.74,1.83-.56,3.67-1.1,5.52-1.64.02,0,.04-.01.07-.02.3-.08.6-.17.9-.26h.01c6.45-1.86,12.97-3.62,19.57-5.28.37-.1.74-.19,1.11-.29.36-.08.71-.17,1.07-.26,2.88-.72,5.78-1.41,8.69-2.09.43-.1.86-.2,1.29-.3,22.9-5.27,46.56-9.33,70.85-12.08.52-.06,1.03-.12,1.55-.17,23.91-2.66,48.41-4.03,73.37-4.03,127.03,0,242.33,35.62,327.13,93.54,2.02,1.38,4.02,2.77,6,4.18,85.52,60.52,138.46,144.22,138.5,236.67Z"/>
    <g id="Blatt">
      <g id="Blatt-2" data-name="Blatt">
        <g id="Blatt-3" data-name="Blatt">
          <polygon class="cls-21" points="818.78 148.54 804.75 279.64 799.32 330.29 792.35 395.39 780.5 506.08 779.41 516.31 362.88 516.31 368.31 465.61 389.21 270.4 389.5 267.7 391.1 252.75 393.47 230.57 394.68 219.29 394.96 216.7 398.25 185.95 418.16 0 725.51 32.91 816.72 145.98 818.78 148.54"/>
          <polygon class="cls-6" points="819.03 146.23 714.58 135.05 725.76 30.59 819.03 146.23"/>
        </g>
        <g id="Zeilen">
          <rect class="cls-26" x="593.8" y="140.11" width="5" height="275.33" transform="translate(256.63 841.12) rotate(-83.89)"/>
          <rect class="cls-26" x="508.89" y="196.9" width="5" height="188.21" transform="translate(167.6 768.51) rotate(-83.89)"/>
          <rect class="cls-26" x="506.5" y="219.26" width="5" height="188.21" transform="translate(143.23 786.11) rotate(-83.89)"/>
          <rect class="cls-26" x="703.3" y="246.45" width="5" height="131.01" transform="translate(320.48 980.54) rotate(-83.89)"/>
          <rect class="cls-26" x="700.91" y="268.81" width="5" height="131.01" transform="translate(296.11 998.13) rotate(-83.89)"/>
        </g>
        <g id="_3._Haken" data-name="3. Haken">
          <rect class="cls-26" x="609.28" y="333.11" width="5" height="279.27" transform="translate(76.6 1030.72) rotate(-83.89)"/>
          <rect class="cls-1" x="402.34" y="417.83" width="36.58" height="36.58" transform="translate(48.82 -42.3) rotate(6.11)"/>
          <polygon class="cls-18" points="444.53 427.29 419.58 447.41 414.92 451.17 402.3 435.52 406.96 431.76 415.82 442.74 440.77 422.62 444.53 427.29"/>
        </g>
        <g id="_2._Haken" data-name="2. Haken">
          <rect class="cls-26" x="613.68" y="292.02" width="5" height="279.27" transform="translate(121.38 998.38) rotate(-83.89)"/>
          <rect class="cls-1" x="406.74" y="376.73" width="36.58" height="36.58" transform="translate(44.47 -43) rotate(6.11)"/>
          <polygon class="cls-18" points="448.93 386.19 423.98 406.31 419.32 410.07 406.7 394.42 411.36 390.66 420.22 401.64 445.17 381.52 448.93 386.19"/>
        </g>
        <g id="_1_Haken" data-name="1 Haken">
          <rect class="cls-26" x="618.08" y="250.94" width="5" height="279.27" transform="translate(166.16 966.05) rotate(-83.89)"/>
          <rect class="cls-1" x="411.14" y="335.61" width="36.58" height="36.58" transform="translate(40.11 -43.7) rotate(6.11)"/>
          <polygon class="cls-18" points="453.33 345.07 428.39 365.19 423.72 368.95 411.1 353.29 415.76 349.53 424.63 360.52 449.57 340.4 453.33 345.07"/>
        </g>
      </g>
      <g>
        <g class="cls-29">
          <g id="Hintergrund-2" data-name="Hintergrund">
            <circle class="cls-16" cx="602.1" cy="160.46" r="83.86"/>
          </g>
          <g id="Körper">
            <path class="cls-15" d="M640.9,246.56l-97.17-16.43c1.75-11.21,3.15-22.02,4.27-32.35,5.55-.52,11.93-.87,19.02-.83,1.17,0,2.35.02,3.55.05,3.53.09,7.21.27,11.03.58.26.02.52.04.78.07.08,0,.15,0,.23.02.68.06,1.38.12,2.08.19,4.35.41,8.86.99,13.52,1.76,3.48.59,6.86,1.25,10.12,1.97.85.19,1.68.38,2.51.58.1.02.2.05.3.07.53.13,1.05.26,1.57.38,2.33.57,4.57,1.17,6.77,1.79,1.71.49,3.38.99,5,1.51,8.68,2.73,16.18,5.75,22.41,8.58-2.18,10.01-4.21,20.71-5.98,32.06Z"/>
          </g>
          <g id="Oberteil">
            <path class="cls-24" d="M591.04,238.13l-48.66-8.23c2-10.96,3.44-22.62,4.13-35,2.64-.84,6.61-1.75,11.5-1.67,2.39.04,4.56.3,6.46.67,1.93.37,3.6.86,4.91,1.31.2.31.59.94,1.19,1.79,1.57,2.18,4.58,5.79,9.15,8.87,1.25.85,2.63,1.66,4.12,2.39,2.66,1.3,5.7,2.35,9.12,2.92.58.1,1.17.18,1.75.24l-3.68,26.7Z"/>
            <path class="cls-22" d="M643.66,247.02l-52.61-8.9,3.67-26.71c4.48.5,8.56.03,12.1-.9,1.99-.52,3.83-1.21,5.47-1.93,3.12-1.38,5.57-2.98,7.19-4.18,1.12-.85,1.85-1.5,2.14-1.75,2.04-.02,4.53.08,7.37.47h0c2.3.32,4.82.8,7.49,1.58,2,.57,3.85,1.23,5.54,1.94.79.32,1.55.66,2.27,1,2.06.98,3.82,1.96,5.3,2.88.07.04.12.08.18.12-2.01,8.09-4.32,19.18-5.74,32.57-.13,1.26-.25,2.53-.37,3.82Z"/>
          </g>
          <g id="Gesicht">
            <path class="cls-15" d="M641.43,148.55l-.04-2.54c-.05-3.11-2.21-5.71-5.1-6.46l-.9-7.31c-2.06-16.82-17.51-28.89-34.33-26.82h0c-16.4,2.01-28.27,16.75-26.94,33.07-2.52.65-4.56,2.72-5.02,5.43l-.42,2.51c-.62,3.68,1.88,7.2,5.56,7.82.64.11,1.27.12,1.89.05,1.64,8.3,6.3,15.39,12.69,20.22-.22.62-.4,1.26-.52,1.93l-3.62,21.43c-1.04,6.15,3.14,12.04,9.29,13.08l1.22.21c6.15,1.04,12.04-3.14,13.08-9.29l3.49-20.63c.45-.04.91-.08,1.36-.13,13.68-1.68,23.9-13.08,24.6-26.41,2.23-1.14,3.75-3.48,3.71-6.14Z"/>
            <g id="Schatten">
              <path class="cls-7" d="M611.8,181.23c-2.05.18-4.69.21-7.71-.24-3.57-.53-6.47-1.56-8.56-2.49,4.6,5.71,9.2,11.42,13.8,17.13.82-4.8,1.64-9.6,2.47-14.41Z"/>
              <path class="cls-7" d="M574.71,143.01c-.47-.07-1.46,1.72-1.24,3.54.16,1.3.95,2.72,1.38,2.63.83-.18.68-6.03-.14-6.16Z"/>
            </g>
            <g id="Augen">
              <rect class="cls-13" x="598" y="135.25" width="4.92" height="5.78" rx="2.46" ry="2.46" transform="translate(.31 -1.34) rotate(.13)"/>
              <rect class="cls-13" x="622.15" y="135.3" width="4.92" height="5.78" rx="2.46" ry="2.46" transform="translate(.31 -1.39) rotate(.13)"/>
            </g>
            <path class="cls-13" d="M613.32,156.88c-.81,0-1.66-.23-2.47-.68-.06-.03-.08-.11-.05-.17.03-.06.11-.08.17-.05,1.18.66,2.46.82,3.52.46.58-.2,1.01-.55,1.19-.95.42-1,.07-2-1.08-3.05l-.15-.14c-.58-.53-1.45-1.33-1.87-2.66-.15-.46-.2-1.15-.23-1.6l-.02-.21c0-.55,0-1-.01-1.45,0-.45-.02-.9-.01-1.44,0-.07.06-.12.12-.12h0c.07,0,.12.06.12.12,0,.54,0,.99.01,1.44,0,.45.02.9.01,1.44l.02.2c.03.44.08,1.11.22,1.54.4,1.27,1.24,2.04,1.8,2.56l.15.14c1.24,1.14,1.61,2.23,1.14,3.34-.2.47-.69.87-1.33,1.09-.39.13-.81.2-1.25.2Z"/>
            <g id="Mund_Bart" data-name="Mund + Bart">
              <path class="cls-25" d="M621.14,164.17c.4.86-1.94,2.35-4.17,3-3.38.99-7.46.32-9.3-1.25-.38-.32-.98-.83-.73-1.31.5-.98,4.07-1.07,6.86-1.13,3.89-.09,6.94-.17,7.35.69Z"/>
              <path class="cls-3" d="M616.2,159.83c-.52.17-1.17.57-1.83,1.55-.76-.98-1.52-1.39-2.12-1.57-2.55-.75-4.63,1.85-9.21,3.63-2.07.8-3.91,1.15-5.23,1.32,1.09.74,2.6,1.52,4.49,1.92,6,1.26,10.93-2.42,12.06-3.33.96.92,5.12,4.67,10.26,3.48,1.62-.37,2.92-1.14,3.86-1.87-1.12-.18-2.69-.55-4.45-1.38-3.89-1.83-5.64-4.47-7.82-3.74Z"/>
            </g>
            <g id="Augenbrauen">
              <path class="cls-3" d="M619.69,131.97c.85-.41,2.42-1.02,4.48-1.02,2.58,0,4.48.97,5.31,1.47,1.5-.68,1.86-1.27,1.87-1.71.04-1.53-3.98-3.37-7.68-3.18-2.5.13-5.62,1.22-5.68,2.57-.03.7.77,1.35,1.71,1.87Z"/>
              <path class="cls-3" d="M594.66,132.77c.78-.52,2.26-1.34,4.3-1.62,2.56-.35,4.57.36,5.46.73,1.39-.87,1.67-1.51,1.62-1.94-.17-1.52-4.4-2.8-8.04-2.11-2.46.47-5.41,1.97-5.28,3.32.07.7.94,1.23,1.94,1.62Z"/>
            </g>
            <g id="Haare">
              <path class="cls-3" d="M636.93,123.95c-.46-2.02-1.21-4.73-2.06-7.12,1.14-2.94,1.43-6.88.14-10.29-1.97-5.19-6.97-7.53-10.15-9.02-8.99-4.21-17.75-2.97-20.12-2.58-8.95,1.46-9.1,4.96-17.34,5.25-5.57.2-9.13-1.27-11.29,1.03-2.35,2.52-.94,7.33-.81,7.79.48,1.65,1.46,3.22,2.82,4.69-2.66,3.78-3.67,9.31-3.91,11.1-.35,2.63-.05,13.17-.05,13.17.6.22,1.29.4,2.24.76,1.98.76,2.96,1.14,3.98,1.96,1.14.91,1.78,1.92,2.79,3.5.5.79.87,1.47,1.12,1.97-.06-.94-.14-2.33-.21-4-.24-5.65-.38-8.94-.11-11.17.58-4.87,3.44-7.65,5.66-10.03,13.93,5.68,33.91,6.99,42.1.21.25.48.52,1.06.81,1.8.4,1,.6,1.92,1.01,3.15,2.03,6.09,2.44,14.17,2.75,13.36.16-.42.34-.77.36-.9,1.42-9.56.27-14.65.27-14.65Z"/>
            </g>
          </g>
          <g id="Jacke">
            <rect class="cls-23" x="636.68" y="199.01" width="29.55" height="44.53" rx="14.41" ry="14.41" transform="translate(1320.18 59.54) rotate(147.64)"/>
            <rect class="cls-23" x="527.03" y="191.61" width="29.55" height="44.53" rx="14.41" ry="14.41" transform="translate(374.43 -344.06) rotate(51.76)"/>
            <path class="cls-8" d="M582.3,194.47l-.7,3.1-1.88,8.29-6.64,29.22-32.38-5.47c3.34-13.49,4.72-25.52,5.24-35.24,6.42-1.59,11.94-2.4,16.69-2.67,9.02-.51,15.26.95,19.67,2.76Z"/>
            <path class="cls-23" d="M585.03,214.94c-2.62,6.95-5.25,13.89-7.87,20.84l-14.37-2.43c-.65-5.6-1.31-11.2-1.96-16.8l11.14-13.7-4.94-5.91-2.54-3.04-1.84-2.19-.82-.98c6.47-.77,13.27-1.29,20.38-1.46,1.33-.03,2.65-.05,3.95-.06-.49,2.88-.97,5.76-1.46,8.64-.69-.06-1.39-.12-2.08-.19.05.62.11,1.39.2,2.28,0,0,.08.88.18,1.77.25,2.27.53,4.45.86,6.55.36,2.33.76,4.56,1.19,6.68Z"/>
            <path class="cls-8" d="M652.38,200.78s-.03.1-.04.14c-.37,1.15-.73,2.33-1.08,3.55-.58,1.93-1.14,3.95-1.68,6.05-2.44,9.3-4.61,20.25-5.77,32.63-.12,1.27-.23,2.55-.32,3.85l-33.48-5.66,2.27-32.75.41-5.97.4-5.79.02-.34s.06,0,.09-.01c3.56-.36,6.84-.48,9.76-.45,0,0,.02,0,.03,0,5.1.04,9.06.51,11.41.8,4.6.55,10.79,1.65,17.96,3.94Z"/>
            <path class="cls-23" d="M619.86,208.76l6.26,16.51c-2.33,5.87-4.65,11.73-6.98,17.6l-13.62-2.3c-.63-8.15-1.25-16.3-1.88-24.45,1.05-1.74,2.11-3.61,3.17-5.61.9-1.7,1.8-3.5,2.67-5.39.11-.23.57-1.29,1.22-2.72.05-.11.09-.2.11-.25-.84-.19-1.67-.39-2.51-.58.56-3.32,1.13-6.65,1.69-9.97,1.32.28,2.7.62,4.13,1.04,3.36.98,6.31,2.17,8.85,3.39l10.33,4.41-4.32,2.68h0s-4.51,2.79-4.51,2.79l-4.61,2.85Z"/>
          </g>
        </g>
        <circle class="cls-28" cx="602.57" cy="161.66" r="76"/>
      </g>
    </g>
    <g>
      <rect class="cls-20" x="686.3" y="395.39" width="137.44" height="110.7"/>
      <path class="cls-8" d="M762.67,459.93c0,4.22-3.42,7.65-7.65,7.65s-7.65-3.42-7.65-7.65c0-1,.24-.81.34-2.26.25-3.7-1.58-5.26-2.65-10.23-.33-1.56-.47-2.34-.47-3.12,0-5.76,4.67-10.43,10.43-10.43s10.43,4.67,10.43,10.43c0,.78-.14,1.56-.48,3.13-1.07,4.97-2.89,6.53-2.64,10.23.1,1.44.34,1.25.34,2.25Z"/>
      <path class="cls-27" d="M806.28,356.05v39.34h-18.56v-39.34c0-18.03-14.67-32.7-32.7-32.7s-32.7,14.67-32.7,32.7v39.34h-18.55v-39.34c0-28.26,22.99-51.26,51.25-51.26s51.26,23,51.26,51.26Z"/>
    </g>
  </g>
  <g id="Hiterteil_Jacke" data-name="Hiterteil Jacke">
    <path class="cls-4" d="M197.93,415.64c25.78,3.52,56.95,5.71,92.18,3.94,27.49-1.38,52.11-4.92,73.28-9.19-2.19-23.85-6.17-50.95-13.13-80.37-5.75-24.28-12.58-46.16-19.63-65.45-37.32.02-74.64.04-111.96.05-5.1,20.99-9.76,44.08-13.39,69.07-4.3,29.57-6.49,57.07-7.35,81.94Z"/>
  </g>
  <g>
    <path class="cls-3" d="M261.59,80.95c2.16-1.73,5.75-4.03,10.41-4.39,10.93-.85,19.34,9.58,20.74,11.37,7.9,10.15,6.67,21.28,14.35,24.21,1.07.41,4.88,1.64,4.76,2.84-.08.85-2.08.87-2.35,1.94-.37,1.48,3.16,2.62,5.09,5.61,2.17,3.35,1.31,7.48,1.02,8.88-.39,1.87-1.25,4.02-8.42,11.66-6.08,6.47-8.32,7.97-9.31,11.79-.73,2.83-.37,5.38,0,6.97-1.25-1.16-2.75-2.34-3.4-1.93-.92.59.68,3.94-.22,4.53-1.15.75-4.91-3.97-5.86-3.35-.98.64,2.85,6.69,1.69,7.7-.96.83-4.21-2.71-8.59-5.12-10.19-5.59-25.93-4.72-33.34,1.82-.74.65-3.55,3.26-4.17,2.77-.57-.45,1.62-2.83.83-4.64-1.24-2.85-8.75-1.87-8.94-3.41-.06-.49.7-.6,1.19-1.67.86-1.88-.32-4.1-.58-4.58-.89-1.68-2.17-2.5-3.97-3.7-7.42-4.92-7.97-5.67-8.14-6.53-.44-2.18,1.94-3.02,2.73-5.88,1.4-5.09-4.56-8.08-6.23-13.72-2.24-7.61,6.11-10.59,18.77-33.23,3.21-5.74,5.38-10.39,10.43-11.88,4.47-1.32,8.88.52,11.5,1.96Z"/>
    <g id="Kopf">
      <path class="cls-11" d="M299.66,126.7c1.4,12.04-6.03,23.8-18.02,27.37h-.01c-.39.12-.79.23-1.2.33v22.96c0,2.99-1.22,5.71-3.19,7.68-1.96,1.97-4.68,3.19-7.67,3.19-5.97,0-10.86-4.89-10.86-10.87v-23.13c0-.8.09-1.58.26-2.33-6.49-3.36-11.78-9.01-14.52-16.23-.54.16-1.11.25-1.7.25-3.38,0-6.15-2.77-6.15-6.16v-2.31c0-2.5,1.51-4.67,3.66-5.63-.58-2.28-.85-4.57-.85-6.83,0-12.05,7.87-23.25,19.97-26.86,14.75-4.39,30.4,4.08,34.8,18.82l1.91,6.41c2.69.23,5.03,2.23,5.54,5.01l.42,2.27c.44,2.38-.57,4.7-2.39,6.06Z"/>
    </g>
    <g id="Schatten-2" data-name="Schatten">
      <path class="cls-17" d="M241.47,125.79c-.43,0-1.05,1.76-.58,3.35.34,1.14,1.26,2.29,1.64,2.14.71-.29-.31-5.5-1.06-5.5Z"/>
      <path class="cls-17" d="M280.47,154.39c-1.81.47-4.17.9-6.94.96-3.28.06-6.03-.42-8.04-.93,4.98,4.42,9.97,8.83,14.95,13.25-.02-1.97-.02-3.94-.02-5.94,0-2.47.02-4.91.05-7.33Z"/>
    </g>
    <g id="Augen-2" data-name="Augen">
      <rect class="cls-13" x="283.19" y="111.3" width="4.47" height="5.25" rx="2.23" ry="2.23" transform="translate(-14.85 48.51) rotate(-9.47)"/>
      <rect class="cls-13" x="261.56" y="114.91" width="4.47" height="5.25" rx="2.23" ry="2.23" transform="translate(-15.74 45) rotate(-9.47)"/>
    </g>
    <g id="Nase">
      <path class="cls-13" d="M277.46,132.47c-.53,0-1.09-.1-1.65-.29-.08-.03-.13-.12-.1-.2.03-.08.12-.13.2-.1,1.12.4,2.31.36,3.18-.12.48-.26.81-.63.9-1.01.22-.94-.24-1.76-1.41-2.52l-.15-.1c-.56-.37-1.51-.98-2.09-2.12-.2-.39-.35-1.01-.45-1.41l-.04-.18c-.08-.5-.16-.9-.23-1.3-.08-.4-.15-.81-.23-1.29-.01-.09.04-.17.13-.18.09-.01.17.04.18.13.08.48.16.88.23,1.29.08.4.15.81.23,1.29l.04.17c.1.39.24.98.43,1.34.55,1.06,1.41,1.63,1.99,2l.15.1c1.3.84,1.8,1.78,1.55,2.86-.11.46-.49.91-1.05,1.21-.53.29-1.14.43-1.79.43Z"/>
    </g>
    <g id="Mund">
      <path class="cls-25" d="M269.51,138.39c.07.3,1.17,4.54,5.11,5.89,3.44,1.18,7.56-.38,9.72-3.91-1.63.5-4.88,1.25-8.81.45-2.7-.55-4.73-1.62-6.01-2.43Z"/>
    </g>
    <g id="Augenbrauen-2" data-name="Augenbrauen">
      <path class="cls-19" d="M258.29,115.19c.43-.74,1.3-2,2.85-3.05,1.94-1.31,3.86-1.55,4.74-1.6.78-1.27.75-1.9.54-2.24-.75-1.17-4.71-.51-7.39,1.52-1.81,1.37-3.61,3.78-2.96,4.83.33.54,1.26.62,2.24.54Z"/>
      <path class="cls-19" d="M280.45,111.6c.43-.74,1.3-2,2.85-3.05,1.94-1.31,3.86-1.55,4.74-1.6.78-1.27.75-1.9.54-2.24-.75-1.17-4.71-.51-7.39,1.52-1.81,1.37-3.61,3.78-2.96,4.83.33.54,1.26.62,2.24.54Z"/>
    </g>
    <path class="cls-3" d="M267.95,92.99c5.3-1.19,9.81,1.29,11.64,2.33,8.7,4.95,7.61,12.66,16.79,17.13,2.34,1.14,3.36,1.1,4.49,2.49,2.85,3.51,2.27,10.98.29,16.12-.51,1.32-1.61,3.8-.62,6.16.23.55.91,1.89,1.49,1.83,1.98-.18,6.19-17.02.52-31.11-5.49-13.65-20.02-29.33-35.45-27.46-6.5.79-10.88,4.7-19.64,12.51-9.05,8.07-19.08,17.02-19.98,30.59-.51,7.7,2.1,14.04,3.3,16.86,3.28,7.71,7.52,11.02,8.86,11.99,1.75,1.27,4.56,2.92,5.21,2.26.74-.75-2.33-3.31-4-8.69-1.6-5.17-.03-6.9-2.26-11.12-1.37-2.6-2.48-2.91-2.61-4.69-.16-2.31,1.52-4.46,5.39-7.65,9.04-7.46,12.64-6.26,15.12-10.77,1.68-3.06.64-4.7,1-7.77,0,0,.15-1.77,1.09-3.88,1.67-3.78,5.74-6.32,9.36-7.13Z"/>
  </g>
  <g id="Körper-2" data-name="Körper">
    <g id="Körper-3" data-name="Körper">
      <path class="cls-11" d="M361.88,516.31h-32.23c-4.19-23.64-5.95-45.24-6.42-64.01h.03c-.5-1.48-.77-3.05-.77-4.67-.3-.78-.54-1.57-.72-2.39-4.38-7.9-8.78-16.62-12.94-26.2-.1-.25-.21-.49-.32-.74-.03-.09-.07-.17-.11-.26-.79-1.83-1.56-3.7-2.33-5.59-9.85-24.42-15.2-47.13-18.07-66.19-.19-.03-.39-.06-.59-.09-.02-.01-.05-.01-.07-.01-.77-.12-1.58-.26-2.44-.42-1.91,19.88-6.3,44.16-15.73,70.58-.47,1.31-.94,2.6-1.43,3.88-4.06,10.85-8.48,20.68-12.92,29.52-.52,3.03-1.94,5.77-4,7.94-8.02,18.78-17.17,38.4-27.61,58.65h-34.01c1.1-2.96,2.25-5.94,3.45-8.96,9.88-24.79,20.99-46.01,31.59-63.57.1-.3.18-.6.28-.9-.24-7.71-.39-15.61-.4-23.71-.01-.22-.01-.44-.01-.67-.01-9.59.14-19.45.49-29.57.58-16.79,1.67-32.89,3.12-48.23.62-6.48,1.29-12.83,2.03-19.03.32-2.73.66-5.43,1-8.1h-.03c-1.63-15.54-2.92-31.88-3.75-48.95-.05-1.18-.11-2.35-.16-3.54h0c-.05-1.11-.1-2.22-.14-3.33-.18-4.6-.33-9.15-.43-13.66-.12-4.47-.19-8.9-.23-13.28v-.43h0c-.08-9.54,0-18.86.23-27.93v-.02c.17-7.48.45-14.81.81-21.96.07-1.6.15-3.19.24-4.77.22-.06.45-.12.68-.18,5.08-1.36,11.02-2.68,17.7-3.69.71-.12,1.43-.22,2.15-.31,2.96-.42,6.05-.77,9.27-1.04.54-.04,1.08-.09,1.62-.12.04-.01.07-.01.11-.01,3.72-.27,7.61-.43,11.64-.43,3.43-.01,6.76.1,9.97.28,1.16.07,2.31.15,3.43.24,2.41.19,4.75.43,7.01.71h0c.44.05.88.11,1.31.17,2.09.27,4.11.57,6.07.9.77.13,1.53.26,2.28.41.01-.01.02-.01.03,0,4.89.88,9.31,1.92,13.22,2.96.14.04.28.07.41.11-.17,3.71-.3,7.52-.39,11.42v.03c-.11,4.54-.15,9.21-.12,13.99.02,3.25.06,6.56.15,9.92.34,13.07.64,25.92,2.66,39.87.58,4.03,1.37,8.6,2.47,13.65.76,3.49,1.66,7.2,2.75,11.12.07.24.13.48.21.72.6,2.17,1.27,4.4,2,6.68,1.41,4.44,3.05,9.1,4.97,13.94.15.4.31.8.48,1.2.35.88.71,1.77,1.09,2.67.61,1.47,1.25,2.96,1.92,4.46.04.11.09.21.14.32.25.56.49,1.12.72,1.67,1.26,2.93,2.35,5.65,3.31,8.15h0c.92,2.42,1.72,4.63,2.4,6.58,1.87,5.38,3.01,8.71,4.01,13.5.38,1.86.77,4.23,1.55,8.96.51,3.09.99,6.17,1.45,9.26.47,3.18.9,6.36,1.31,9.54.43,3.27.82,6.55,1.18,9.82.37,3.37.71,6.73,1.02,10.1.94,10.17,1.56,19.98,1.91,29.39.02.39.03.78.04,1.17.32,8.89.41,17.43.32,25.57.13.85.2,1.73.2,2.62.81,2.08,1.17,4.33,1,6.65,3.41,20.79,6.35,42.89,8.55,66.21.04.37.19.86.38,1.43Z"/>
      <path class="cls-11" d="M417.14,232.65c-2.85-2.43-5.49,3.73-11.83,6.02-3.37,1.22-8.59-.79-7.34-2.17,2.67-2.93,4.89-6.35,4.09-7.92-.24-.47-.54-.77-.88-.96-1.13-.63-2.64.06-3.89.72-4.88,2.56-7.07,4.67-7.07,4.67-1.68,1.53-4.02,3.62-7.05,6.17-19.64,4.22-39.29,8.47-58.93,12.69.14-20.61.26-41.22.38-61.84-.02-.01-.03,0-.06,0,.04-5.78-4.32-12.02-11.39-15.4-8.96-4.28-18.81-2.29-22.03,4.44-.82,1.72-1.11,3.55-.97,5.43-.03-.01-.03,0-.06,0,3.26,23.85,6.52,47.7,9.78,71.55.02.34.05.84.13,1.44.87,6.78,5.3,12.17,8.74,14.73,5.07,3.77,11.44,3.97,18.64,3.03,23.65-3.06,53-17.85,61.95-22.51.78.1,1.55.07,2.29-.06,1.16.02,2.41-.03,3.73-.19,1.86-.22,6.67-1.27,11.91-4.33,7.73-4.5,13.23-12.65,9.86-15.52Z"/>
    </g>
    <g id="Hose">
      <path class="cls-9" d="M279.65,415.35c-.47,1.54-.94,3.1-1.44,4.69-2.61,8.41-5.6,17.41-9.51,25.19-8.64,19.34-19.14,40.34-31.91,62.35-1.71,2.96-3.43,5.87-5.16,8.73h-48.89c4.52-10.72,9.11-22.56,13.53-35.45,7.5-21.87,11.88-39.11,13.34-45.03,1.61-6.5,2.88-12.17,3.94-17.36l.18-.93c4.27-21.22,5.01-34.42,11-63.22.81-3.91,1.79-8.47,2.99-13.62.51-2.19,1.05-4.5,1.63-6.9.91-3.8,1.93-7.85,3.05-12.12.74-2.88,1.54-5.85,2.39-8.92.91-3.29,1.87-6.7,2.9-10.2,1.78.2,3.62.39,5.5.56,4.59.42,9.47.74,14.62.92,8.14.3,16.95.24,26.33-.34.18-.01.37-.03.56-.04.12,0,.23-.01.35-.02v.02c.09,1.67.19,3.35.28,5.02,0,.07.01.14.01.2.1,1.9.21,3.79.32,5.68.06,1.1.12,2.19.18,3.29v.04c.05.96.1,1.91.16,2.86.35,6.42.71,12.83,1.07,19.24.03.6.07,1.2.1,1.8.08,1.46.16,2.91.24,4.37h0c.07,1.24.14,2.46.21,3.69,0,.14,0,.28.02.42,1.24,28.63-3.67,50.86-7.99,65.08Z"/>
      <path class="cls-5" d="M370.55,516.31h-47.44c-6.05-29.29-12.21-58.57-18.47-87.81-.69-3.24-1.39-6.47-2.09-9.71-4.91-22.86-9.88-45.7-14.91-68.52-.03-.13-.06-.27-.09-.4l-.21-3.71h0s-.25-4.59-.25-4.59l-.07-1.3-1.09-19.51-.22-3.97h0s-.12-2.23-.12-2.23l-.32-5.67-.07-1.24v-.02l-.22-3.97h.07c1.35-.08,2.7-.18,4.09-.31,2.66-.22,5.26-.47,7.82-.76,1.18-.13,2.35-.27,3.51-.42,3.83-.48,7.53-1.02,11.11-1.63h.01c1.74-.29,3.44-.59,5.12-.92.16-.03.33-.06.49-.09.72-.13,1.44-.27,2.14-.41,1.55-.31,3.08-.62,4.57-.95,1.7-.37,3.37-.75,4.99-1.13.35-.09.7-.17,1.05-.26.12-.02.24-.05.36-.08.36-.09.71-.17,1.06-.26,1.43-.35,2.82-.71,4.18-1.07.49,1.57.98,3.15,1.47,4.75h0c.45,1.48.9,2.96,1.34,4.46.33,1.09.65,2.18.98,3.28.02.08.04.15.07.23h0c8.78,29.91,16.91,64.25,22.65,102.56.03.15.05.31.07.47.26,1.69.51,3.4.75,5.11,2.02,14.18,3.59,27.97,4.76,41.33.24,2.7.46,5.38.67,8.05,1.37,17.73,2.07,34.66,2.24,50.7Z"/>
    </g>
    <g id="Oberteil-2" data-name="Oberteil">
      <path class="cls-2" d="M286.83,320.7c-5.73.39-12.98.59-23.53.77-14.22.21-33.34.34-56.2,0,3.44-13.15,7.61-30.24,11.74-50.42,4.42-21.59,6.58-32.51,7.49-44.12.96-12.28.85-30.43-4.91-53.03,3.37-.84,6.23-1.38,8.42-1.73,3.1-.5,4.88-.64,5.86-.7.5-.03,1.96-.11,3.87-.09,1.79.02,3.82.13,6.06.4,1.16,1.34,9.2,10.28,22.46,10.25.49,0,.96-.01,1.43-.05l17.31,138.73Z"/>
      <path class="cls-23" d="M342.61,302.03c-8.64,5.39-22.38,12.63-40.44,16.55-2.75.6-5.4,1.03-5.4,1.03-4.28.68-7.91.97-10.59,1.09-5.55-46.24-11.11-92.48-16.66-138.72,13.17-.69,20.85-10.16,21.81-11.38,3.8-.06,8.04.07,12.62.52,5.51.53,10.46,1.43,14.77,2.45-.71,1.86-1.87,5.25-2.7,9.62-.82,4.38-1.41,12,2.1,35.86.63,4.32,1.28,7.95,1.98,11.3,3.38,16.21,6.94,29.26,9.44,37.16,3.28,10.34,7.52,22,13.08,34.52Z"/>
    </g>
    <g id="Jacke-2" data-name="Jacke">
      <path class="cls-4" d="M257.23,165.04c-1.44,51.7-1.13,106.55,1.63,164.19,1.5,31.44,3.64,61.92,6.3,91.4-13.85-.15-28.34-.65-43.41-1.59-12.79-.8-25.12-1.87-36.96-3.13,1.29-14.44,3.49-36.78,7.09-64.08,8.1-61.4,11.17-56.16,12.21-81.15,1.74-41.55-5.55-84.69,8.33-92.55,1.84-1.05,10.39-5.06,15.41-7.36,8.07-3.7,10.33-4.43,12.69-5.08,3.53-.96,9.13-1.88,16.69-.64Z"/>
      <path class="cls-12" d="M380.7,247.56c-1.43-4.7-2.43-9.05-3.13-12.92-17.84,5.82-35.68,11.64-53.52,17.47,1.17-18.79,1.65-35.34,1.78-49.19.13-13.31-.04-25.23-8.24-32.9-.92-.86-6.69-6.32-12.17-4.8-7.28,2.02-10.51,14.86-10.93,20.43-.08,1.08-.19,2.63-.28,4.49-.07,1.43-.24,5.29-.19,10.56.14,14.95.99,24.99.99,24.99,1.66,19.71,4.61,29.45,6.21,34.14,2.14,6.31,3.68,8.91,5.99,11.08,2.3,2.17,7.51,5.95,20.24,5.68,22.95-.48,48.99-13.65,57.22-18.01-1.35-3.24-2.72-6.91-3.96-11.01Z"/>
      <path class="cls-4" d="M364.7,410.39c-7.81,2.3-16.79,4.45-26.79,6.04-10.83,1.72-20.74,2.45-29.42,2.63-8.43-85.06-16.86-170.12-25.29-255.18,4.65-.81,10.65-1.4,17.6-.95,5.24.34,9.82,1.2,13.59,2.17-.79,9.09-1.28,22.35.66,38.11,2.26,18.27,6.51,31.21,10.74,43.42,1.7,4.91,8.04,26.02,20.49,68.33,6.31,21.45,13.85,52.95,18.4,95.44Z"/>
      <g id="Knöpfe">
        <circle class="cls-25" cx="249.29" cy="240.69" r="1.46"/>
        <circle class="cls-25" cx="248.29" cy="260.85" r="1.46"/>
        <circle class="cls-25" cx="248.59" cy="280.81" r="1.46"/>
        <circle class="cls-25" cx="249.08" cy="301.59" r="1.46"/>
        <circle class="cls-25" cx="250.31" cy="321.91" r="1.46"/>
        <circle class="cls-25" cx="250.8" cy="342.42" r="1.46"/>
        <circle class="cls-25" cx="251.64" cy="364.47" r="1.46"/>
        <circle class="cls-25" cx="252.29" cy="384.93" r="1.46"/>
      </g>
      <path class="cls-12" d="M258.94,170.77c-.08-.26-.15-.51-.23-.77v-9.82c-.85.15-1.66.3-2.44.47v.02s0-.01,0-.02l-16.18,4.63,10.13,8.18-6.82,12.85c4.03,12.55,8.07,25.1,12.1,37.65,2.4-14.27,4.8-28.54,7.2-42.81-1.3-3.13-2.58-6.59-3.76-10.37Z"/>
      <path class="cls-12" d="M300.16,164.31l-16.36-3.94s0,0,0,0c-1.05-.2-2.17-.4-3.36-.57v12.03h.9c-.95,3.41-2.02,6.52-3.1,9.29,3.67,14.74,7.34,29.48,11.02,44.22,2.83-13.29,5.66-26.59,8.49-39.88l-7.35-12.55,9.78-8.6Z"/>
    </g>
  </g>
  <g id="Tablett">
    <polygon class="cls-18" points="425.7 252.15 340.61 294.7 340.61 243.88 425.7 201.33 425.7 252.15"/>
    <polygon class="cls-14" points="423.4 250.89 343.94 290.28 343.94 244.45 423.4 205.05 423.4 250.89"/>
    <polygon class="cls-5" points="428.44 234.37 422.07 238.17 422.07 218.52 428.44 214.72 428.44 234.37"/>
  </g>
  <g id="Arm_Stift" data-name="Arm + Stift">
    <g>
      <path class="cls-10" d="M357.29,249.17l-1.69,4.36-2.52-.98,1.69-4.35c.21-.53.72-.86,1.27-.86.16,0,.32.03.48.09.69.27,1.04,1.05.77,1.74Z"/>
      <path class="cls-20" d="M357.15,254.24l-2.11,5.44c.89.37,1.32,1.39.98,2.3l-.25.62c-1.44,3.96-2.88,7.93-4.32,11.89l-9.46-3.67c1.61-3.9,3.22-7.79,4.84-11.69l.24-.63c.35-.91,1.37-1.36,2.28-1.03l2.11-5.45c.02-.05.08-.07.12-.05l1.5.58,2.52.98,1.5.58s.07.07.05.13Z"/>
      <path class="cls-20" d="M339.27,308.04c-1.48,4.09-2.96,8.17-4.45,12.26-1.15,2.95-4.48,4.41-7.43,3.27l-.79-.31c-2.95-1.15-4.42-4.48-3.27-7.43,1.66-4.01,3.33-8.03,4.99-12.04l10.95,4.25Z"/>
      <polygon class="cls-10" points="353.14 275.15 340.22 308.41 339.27 308.04 328.32 303.79 327.37 303.42 340.29 270.16 341.99 270.82 351.45 274.49 353.14 275.15"/>
    </g>
    <path class="cls-11" d="M349.33,285.89c-1.43-1.6-3.63-1.68-7.07-1.75-1.87-.04-4.55.08-7.73.83.42-1.05.83-2.11,1.25-3.16-1.06-.05-2.68-.08-4.66.08-2.56.21-4.18.62-6.98,1.16-1.65.32-4.07.75-7.06,1.16-17.88-4.4-35.75-8.8-53.63-13.2-2.52-7.34-5.04-14.69-7.57-22.03-2.94-8.51-5.36-15.38-6.98-19.95-5.04-14.2-7.89-21.86-11.44-33.84-.79-2.65-1.41-4.83-1.8-6.24-.19-.89-.6-2.3-1.58-3.71-4.38-6.3-16.83-7.83-22.32-2.15-3.05,3.15-3.35,7.9-3.5,10.19-.03.51-.23,3.82.82,7.53,3.64,12.95,9.74,25.53,14.91,37.9,4.55,10.87,9.17,21.7,13.85,32.52,1.98,4.59,3.3,9.38,6.56,13.31,5.47,6.57,13.25,8.52,21.27,9.95,9.18,1.64,18.49,2.63,27.77,3.47,8.82.79,17.66,1.39,26.5,1.84.4.11.97.25,1.66.36.1.02.21.03.31.04.78.14,1.67.27,2.64.38,3.02.33,8.77.97,15.03-1.19,2.86-.99,10.03-3.46,10.95-8.62.04-.22.48-3.01-1.19-4.88Z"/>
    <path class="cls-12" d="M316.03,278.38c-17.59-3.22-35.18-6.45-52.77-9.67-5.36-15.03-9.4-27.34-12.13-35.89-3.69-11.56-8.7-22.69-12.2-34.32-3.39-11.27-5.74-22.24-13.34-23.89-3.44-.75-6.96.18-6.96.18-2.32.69-4.51,1.9-6.2,3.31-1.97,2.72-4.55,6.88-6.28,12.36-1.94,6.16-4.52,19.41,11.42,52.98,5.76,12.11,14.6,28.29,27.97,45.94,0,0,0,0,.01-.01,0,.01.03.03.03.04,2.18,2.56,4.86,3.78,6.46,4.18,6.76,1.69,29.11,5.67,59.56,10.3-.12-3.53.01-8.25,1.02-13.7.88-4.79,2.19-8.78,3.39-11.81Z"/>
  </g>
</svg>