<?xml version="1.0" encoding="UTF-8"?>
<svg id="_0062_THK_Ethik" data-name="0062_THK_Ethik" xmlns="http://www.w3.org/2000/svg" viewBox="0 0 941.68 452.04">
  <defs>
    <style>
      .cls-1 {
        fill: #42210b;
      }

      .cls-1, .cls-2, .cls-3, .cls-4, .cls-5, .cls-6, .cls-7, .cls-8, .cls-9, .cls-10, .cls-11, .cls-12, .cls-13, .cls-14, .cls-15, .cls-16, .cls-17, .cls-18, .cls-19, .cls-20, .cls-21, .cls-22, .cls-23, .cls-24, .cls-25, .cls-26 {
        stroke-width: 0px;
      }

      .cls-2 {
        fill: #a5678d;
      }

      .cls-3 {
        fill: #308fc9;
      }

      .cls-4 {
        fill: #dec1a8;
      }

      .cls-27 {
        fill: none;
        stroke: #000;
        stroke-linecap: round;
        stroke-miterlimit: 10;
        stroke-width: .25px;
      }

      .cls-5 {
        fill: #706f6f;
      }

      .cls-6 {
        fill: #64abd6;
      }

      .cls-7 {
        fill: #e6710a;
      }

      .cls-8 {
        fill: #cae08f;
      }

      .cls-9 {
        fill: #e0bf70;
      }

      .cls-10 {
        fill: #873567;
      }

      .cls-11 {
        fill: #c39ab3;
      }

      .cls-12 {
        fill: #000;
      }

      .cls-13 {
        fill: #fcd9bd;
      }

      .cls-14 {
        fill: #dcbd92;
      }

      .cls-15 {
        fill: #b47d49;
      }

      .cls-16 {
        fill: #236289;
      }

      .cls-17 {
        fill: #e4c769;
      }

      .cls-18 {
        fill: #ec9447;
      }

      .cls-19 {
        fill: #e5e6e5;
      }

      .cls-20 {
        fill: #98c7e4;
      }

      .cls-21 {
        fill: #603813;
      }

      .cls-22 {
        fill: #ccc;
      }

      .cls-23 {
        fill: #cbe3f1;
      }

      .cls-24 {
        fill: #fff;
      }

      .cls-25 {
        fill: #e1ccd9;
      }

      .cls-26 {
        fill: #f2b885;
      }
    </style>
  </defs>
  <g id="Erde">
    <path class="cls-8" d="M622.62,363.25c-2.22,17.34-54.35,13.73-126.39,49.88-9.78,4.91-22.86,11.48-35.29,18.84-10.64,6.29-20.8,13.16-28,20.07h-94.59c-9.28-8.9-20.9-16.8-33.5-21.95-44.52-18.18-80.42,6.57-113.15-14.96-10.24-6.74-18.09-16.65-22.33-26.45-.64-1.47-1.19-2.95-1.66-4.41,25.08-7.55,50.71-14.19,76.79-19.86,17.03,2.97,37.37,6.2,61.55,8.82,78.48,8.49,119.97,12.98,161.29-4.99,20.27-8.82,31.35-19.07,42.09-27.25,36.32,1.29,72.07,4.38,107.13,9.17,4.29,4.5,6.58,9.05,6.06,13.09Z"/>
    <path class="cls-20" d="M509.43,340.99c-10.74,8.18-21.83,18.43-42.1,27.25-41.31,17.97-82.8,13.48-161.29,4.99-24.18-2.62-44.52-5.85-61.55-8.82,72.26-15.72,148.11-24.1,226.33-24.1,12.93,0,25.8.23,38.6.68Z"/>
    <path class="cls-8" d="M161.05,452.04H0c38.49-19.96,78.95-37.55,121.1-52.51,6.6,4.77,12.98,10.27,18.84,16.6,12.43,13.41,17.47,25.12,21.11,35.91Z"/>
    <path class="cls-20" d="M748.99,377.1c-14.36,7.57-31.67,19.95-55.36,37.03-21.77,15.69-36.29,27.98-47.17,37.91h-213.52c7.2-6.91,17.36-13.78,28-20.07,12.43-7.36,25.51-13.93,35.29-18.84,72.04-36.15,124.16-32.54,126.38-49.88.52-4.04-1.76-8.59-6.06-13.09,45.4,6.21,89.63,15.26,132.43,26.94Z"/>
    <path class="cls-20" d="M941.68,452.04h-53.85c-9.06-12.59-19.34-26.2-30.71-38.72,29.1,11.66,57.32,24.6,84.55,38.72Z"/>
    <path class="cls-20" d="M338.35,452.04h-177.3c-3.64-10.79-8.68-22.5-21.11-35.91-5.86-6.33-12.24-11.83-18.84-16.6,12.33-4.38,24.82-8.54,37.42-12.46,3.06-.95,6.11-1.89,9.19-2.8.47,1.46,1.02,2.94,1.66,4.41,4.24,9.8,12.09,19.71,22.33,26.45,32.73,21.53,68.63-3.22,113.15,14.96,12.6,5.15,24.22,13.05,33.5,21.95Z"/>
    <path class="cls-8" d="M887.84,452.04h-241.38c10.88-9.93,25.41-22.22,47.17-37.91,23.68-17.08,41-29.46,55.36-37.03,37.19,10.15,73.3,22.27,108.14,36.22,11.37,12.52,21.65,26.13,30.71,38.72Z"/>
  </g>
  <g id="Person_1" data-name="Person 1">
    <g id="Gesicht">
      <path class="cls-12" d="M162.82,105.33c3.9-1.01,5.48-2.15,11.26-4.96,3.58-1.74,8.82-4.14,15.46-6.67,3.48-1.96,9.26-5.99,12.6-13.17,5.59-12,2.04-27.81-9.07-39.67-1.88-1.82-6.97-6.25-14.95-7.7-2.97-.54-9.38-1.22-16.46,1.88-9.02,3.95-13.14,11.42-14.28,13.68-3.76,7.57-4.36,13.63-4.2,17.79.28,7.35,2.92,9.02,2.02,15.9-.85,6.41-3.58,8.34-2.69,13.68.17,1.04.93,5.56,4.54,8.38,4.77,3.73,11.36,2.01,15.79.85Z"/>
      <path class="cls-17" d="M197.27,60.75l-.29-1.56c-.35-1.91-1.95-3.26-3.8-3.43l-1.31-4.41c-3.02-10.12-13.76-15.93-23.88-12.91-8.3,2.47-13.69,10.15-13.69,18.42,0,1.55.19,3.13.59,4.69-1.49.65-2.54,2.14-2.54,3.87v1.58c0,2.32,1.9,4.23,4.23,4.23.41,0,.8-.08,1.17-.19,1.88,4.96,5.5,8.84,9.96,11.15-.12.51-.19,1.05-.19,1.6v15.88c0,4.1,3.36,7.45,7.46,7.45s7.46-3.35,7.46-7.45v-15.78c.27-.07.55-.12.82-.2,7.56-2.26,12.47-9.26,12.47-16.79,0-.66-.04-1.33-.12-2,1.26-.93,1.96-2.52,1.66-4.15Z"/>
      <g id="Augenbrauen">
        <path class="cls-12" d="M173.07,55.27c-.56-.16-1.6-.38-2.86-.17-1.58.27-2.65,1.06-3.11,1.45-.99-.26-1.27-.59-1.32-.86-.18-.94,2.1-2.48,4.39-2.74,1.55-.18,3.58.17,3.76.99.09.43-.33.91-.86,1.32Z"/>
        <path class="cls-12" d="M182.05,54.21c.43-.4,1.26-1.05,2.48-1.42,1.54-.47,2.84-.23,3.43-.09.77-.67.88-1.09.8-1.36-.25-.92-2.98-1.29-5.16-.5-1.47.53-3.13,1.75-2.92,2.56.11.42.7.66,1.36.8Z"/>
        <g id="Schatten">
          <path class="cls-15" d="M182.46,83.92c-1.24.32-2.86.62-4.76.66-2.25.04-4.14-.29-5.52-.64,3.42,3.03,6.84,6.06,10.26,9.09-.01-1.35-.02-2.71-.01-4.08,0-1.69.01-3.37.03-5.03Z"/>
          <path class="cls-15" d="M155.7,64.28c-.3,0-.72,1.21-.4,2.3.23.78.87,1.57,1.12,1.47.49-.2-.21-3.78-.73-3.77Z"/>
        </g>
      </g>
      <g id="Nase">
        <path class="cls-12" d="M180.39,68.88c-.37,0-.75-.07-1.13-.2-.06-.02-.1-.09-.08-.16.02-.06.09-.1.16-.08.77.27,1.58.24,2.17-.08.33-.18.55-.42.61-.68.15-.64-.16-1.2-.96-1.71l-.1-.07c-.39-.25-1.04-.68-1.44-1.46-.14-.27-.24-.69-.31-.97l-.03-.13c-.06-.34-.11-.61-.16-.88-.05-.28-.11-.56-.16-.9-.01-.07.03-.13.1-.14.07-.01.13.03.14.1.06.34.11.62.16.9.05.27.1.54.16.87l.03.12c.07.27.17.67.29.91.37.73.96,1.11,1.36,1.37l.1.07c.9.58,1.25,1.23,1.07,1.98-.08.32-.34.63-.73.84-.36.2-.79.3-1.24.3Z"/>
      </g>
      <g id="Augen">
        <rect class="cls-12" x="184.3" y="54.84" width="3.33" height="3.91" rx="1.66" ry="1.66" transform="translate(-7.46 36.92) rotate(-11.12)"/>
        <rect class="cls-12" x="169.06" y="57.29" width="3.33" height="3.91" rx="1.66" ry="1.66" transform="translate(-8.22 34.03) rotate(-11.12)"/>
      </g>
      <g id="Mund">
        <path class="cls-12" d="M179.71,76.45c-.74,0-1.5-.16-2.28-.49-1.2-.5-2.4-1.38-3.55-2.61-.05-.05-.04-.13,0-.18.05-.05.13-.05.18,0,1.13,1.2,2.29,2.06,3.46,2.55,1.25.53,2.46.61,3.59.25.07-.02.14.02.16.08.02.07-.02.14-.08.16-.48.15-.98.23-1.48.23Z"/>
      </g>
      <path class="cls-12" d="M190.77,42.02c-3.52-3.26-7.52-4.25-10.05-4.55.05-.58.07-1.12.07-1.57-2.3-.84-6.92-2.16-12.6-1.2-1.09.18-9.37,1.71-15.05,8.89-1.81,2.29-3.4,3.95-3.76,6.67-.79,5.94,4.67,10.62,5.46,11.28,3.98-1.55,5.92,2.26,5.99,2.15.98-1.6,1.22-3.63,3.18-6.8,2.76-4.45,6.27-3.22,11.8-9.01,2.28-2.38,3.23-4.39,3.5-4.98.47.71,1.27,1.75,2.48,2.74,2.32,1.88,4.25,1.99,6.07,2.95,1.64.86,3.72,2.68,5.22,7.01.6.15,1.41.28,2.35.2.34-.03.65-.08.94-.14.04-1.07.19-8.3-5.6-13.66Z"/>
    </g>
    <g id="Körper">
      <g id="Körper-2" data-name="Körper">
        <path class="cls-9" d="M234.41,397.23c-1.14-1.4-1.75-3.18-2.18-4.91-1.19-4.74-1.19-9.57-1.31-14.43-.11-4.35-.39-8.72-.66-13.07-.36-5.73-.83-11.44-1.38-17.15-.22-2.32-.77-4.87-.55-7.2,1.25-13.53.82-34.39-7.09-65.9,0-.11.02-.22.02-.34,0,0,0-.01,0-.02.11-10.37-.02-19.11-.17-25.59-1.13-43.45-9.69-65.66-13.79-72.18-.23-.36-.44-.71-.61-.98-.08-.15-.17-.29-.27-.42,0,0,0,0,0,0-3.54-7.08-7.08-14.17-10.62-21.25,2.27-19.56,4.54-39.12,6.8-58.68-7.81-.13-16.67.17-26.37,1.28-10.38,1.18-19.66,3.05-27.64,5.1,5.1,17.44,10.21,34.87,15.31,52.31l-13.61,21.26.09.07c-.11.1-.21.21-.31.33v.02c-.27.57-.59,1.12-.59,1.12-13.6,23.04-9.57,80.31-9.57,80.31.35,4.74.9,11.51,1.92,19.66,0,.04,0,.07,0,.11,0,.05,0,.09,0,.14,0,.2.03.4.04.6,0,.12.01.25.03.37,0,.04,0,.09,0,.13-.45,21.64-.57,43.86-.33,66.62.09,8.57.24,17.13.44,25.69.1,4.22.21,8.44.33,12.66.11,3.76.39,7.36-.83,11-.73,2.18-2.95,4.7-2.1,7.11.87,2.47,4.56,2.89,8.42,3.33,2.39.27,6.52,1.09,8.2-1.25.75-1.04.69-2.46.35-3.7-.5-1.86-1.24-3.5-1.21-5.45.02-1.45.24-2.9.45-4.33.67-4.43,1.46-8.83,1.93-13.28,1.41-13.29,3.42-28.31,4.58-33.53,6.58-29.78,2.19-47.17,2.19-66.2h0c3.76-26.74,7.52-53.5,11.28-80.24,0,0,0,0,0,0h4.52c.13.13.28.26.44.35,6.08,26.29,12.15,52.59,18.23,78.88,1.27,19.35,3.92,41.35,8.91,65.29,3.6,17.23,7.9,33.02,12.44,47.23,1.19,3.74,1.11,7.72.12,11.52-.29,1.13-.34,2.33.16,3.39,1.8,3.79,9.33,3.09,13.52,1.22,1.19-.53,2.75-1.25,3.1-2.66.46-1.83-1.66-3.1-2.63-4.31Z"/>
        <path class="cls-17" d="M153.91,100.77c-3.93-.8-7.81,1.03-9.77,4.29-.03.03-.03.07-.06.1-.1.2-.2.41-.32.6-7.87,14.85-15.74,29.68-23.59,44.52-14.82,4.7-29.63,9.39-44.45,14.09-2.8-.22-4.97-.46-6.49-.65-2.26-.13-3.96.01-5.06.16-.83.11-1.81.29-2.14.99-.1.21-.14.46-.1.77.15,1.04,2.41,1.94,4.72,2.45,1.08.24-.77,3.02-2.83,3.59-3.88,1.07-7.29-1.03-7.84,1.14-.66,2.56,4.83,4.64,10.16,4.17,2.64-.23,5.06-1.1,7.3-1.99,1.45-.58,2.62-1.16,3.42-1.59,0,0,0,0,0,0,.53-.1.98-.24,1.26-.33,6.73-2.12,13.85-2.74,20.65-4.62,7.86-2.18,15.92-4.15,23.97-5.31,2.76-.4,5.64-1.16,7.57-3.17.81-.84,1.41-1.86,2.01-2.87,8.45-14.37,18.2-28.1,27.36-42.04.03-.03.03-.05.05-.07.65-.98,1.13-2.1,1.38-3.32,1.02-5-2.19-9.88-7.21-10.91Z"/>
        <path class="cls-17" d="M272.37,194.63c-1.99-2.91-4.27-4.7-5.33-5.38-1.75-1.14-3.42-1.78-4.68-2.15-.18-.19-.36-.39-.54-.58-9.83-10.71-19.67-21.42-29.5-32.13-.72-.79-1.45-1.58-2.04-2.48-.73-1.12-1.23-2.37-1.72-3.61-5.2-13.2-10.4-26.39-15.61-39.59-1.35-3.43-2.88-7.08-5.97-9.08-2.86-1.86-6.82-1.86-9.68,0-2.87,1.85-4.49,5.46-3.97,8.83.34,2.24,1.51,4.24,2.62,6.22,5.49,9.79,9.94,20.12,14.93,30.17,2.9,5.85,6.01,11.65,10.17,16.67,4.37,5.28,9.79,9.58,15.08,13.95,4.58,3.78,9.1,7.64,13.55,11.57,1.75,1.55,5.08,4.29,7.82,7.1.2.52.41,1.05.62,1.58.38.94.77,1.85,1.16,2.74,0,0,.64,1.7,2.62,4.33.51.67,1.14,1.43,1.92,1.38.23-.01.47-.1.72-.29.84-.64.51-3.05-.18-5.32-.32-1.06,3.01-.81,4.52.71,2.83,2.86,2.69,6.85,4.84,6.27,2.55-.69,1.67-6.49-1.35-10.9Z"/>
      </g>
      <g id="Schuhe">
        <path class="cls-21" d="M170.84,401.3c-5.49-1.59-9.73-3.58-14.04-4.79-.26.1-.54.21-.84.32h0c-1.9.7-4.64,1.42-7.99,1.47-3.71.03-6.69-.76-8.68-1.5-.28-.1-.53-.2-.76-.29-.58,1.29-1.24,2.93-1.71,4.87-.5,2.16-.67,4.1-.67,5.59v2.39s47.01,0,47.01,0v-2.39s-.38-2.23-12.3-5.68Z"/>
        <path class="cls-21" d="M250.94,402.46c-5.49-1.59-9.73-3.58-14.04-4.79-.26.1-.54.21-.84.32h0c-1.9.7-4.64,1.42-7.99,1.47-3.71.03-6.69-.76-8.68-1.5-.28-.1-.53-.2-.76-.29-.58,1.29-1.24,2.93-1.71,4.87-.5,2.16-.67,4.1-.67,5.59v2.39s47.01,0,47.01,0v-2.39s-.38-2.23-12.3-5.68Z"/>
      </g>
      <g id="Hose">
        <path class="cls-7" d="M246.13,385.02c-5.6-.36-12.22-.4-19.62.33-7.1.7-13.36,1.95-18.62,3.33-1.14-17.24-2.9-37.31-5.67-59.64-1.36-11.01-3.81-29.43-7.79-52.15-4.74-27.01-10.24-52.42-16.17-76.11v-47.19c6.02.02,12.05.02,18.07.04,5.39,7,12.95,18.28,18.51,33.55,4.68,12.87,6.06,23.42,9.36,58.26.93,9.98,1.71,18.52,2.31,25.36.85,9.58,1.45,16.54,1.5,17.17.99,11.5,5.37,37.74,18.12,97.06Z"/>
        <path class="cls-18" d="M178.25,153.59v47.19c-3.25,22.63-5.91,46.77-7.65,72.3-2.84,41.49-2.82,79.96-1.12,114.77-5.6-1.21-12.64-2.25-20.78-2.33-7.53-.07-14.11.69-19.45,1.66,4.37-67.04,6.11-96.03,6.06-99.22,0-.54-.07-4.65-.11-10.23-.04-6.05-.04-14.25.11-23.8.42-27.18.61-40.78,2.97-51.45,2.53-11.45,8.57-29.19,25.09-48.91,4.97,0,9.94.02,14.89.02Z"/>
      </g>
      <g id="Oberteil">
        <path class="cls-22" d="M202.46,93.88c-.52,15.71-1.07,25.97-1.5,32.55-.1,1.36-.27,4.01-.46,7.69-.36,6.83-.58,13.45-.67,19.83-4.51,1.53-11.47,3.3-20.08,3.24-.5,0-1-.02-1.5-.04v-56.78c6.21-1.44,9.88-5.41,10.74-6.39,4.49-.04,8.98-.08,13.47-.12Z"/>
        <path class="cls-19" d="M178.25,100.38v56.78c-7.79-.23-14.08-1.9-18.28-3.36-.67-3.18-1.4-6.45-2.17-9.74,0,0-1.38-5.91-2.93-11.78-3.59-13.62-8.79-29.16-9.65-31.71.84-.36,1.67-.73,2.51-1.07,4.51-.94,9.02-1.88,13.5-2.82,1.15.88,6.66,4.91,14.52,4.12.88-.1,1.71-.23,2.49-.42Z"/>
      </g>
      <g id="Jacke">
        <path class="cls-2" d="M232.44,151.71c-1.54-2.62-2.44-5.38-3.44-8.69-1.78-5.86-3.78-11.67-6.11-17.34-4.84-11.75-13.61-33.04-21.48-32.14-3.96.45-6.28,6.35-6.98,8.13-4.05,10.3.12,21.93,4.99,31.18,5.48,10.41,12.91,19.99,20.8,28.67,10.17,11.2,21.21,21.6,31.4,32.81,1.55-1.96,3.43-4.08,5.67-6.25,1.95-1.89,3.87-3.49,5.64-4.85-6.2-5.96-12.45-11.87-18.48-18-3.06-3.11-5.97-6.35-8.96-9.52-1.26-1.34-2.24-2.66-3.04-4.02Z"/>
        <path class="cls-10" d="M223.99,195.19c-3.5,1.23-8.97,2.68-15.78,2.67-6.76,0-12.18-1.45-15.67-2.67-2.06-20.88-4.12-41.76-6.17-62.64h0s-3.82-38.76-3.82-38.76h0s-.02-.2-.02-.2c.02,0,.04,0,.06-.02.18-.03.43-.07.75-.12,1.96-.3,5.3-.71,9.43-.69,3.84.02,7.28.4,10.21.91-.91,7.29-1.22,15.69-.22,24.87.22,2.05.5,4.03.82,5.94h0c1.46,8.77,3.81,16.08,6,21.62,3.16,9.13,6.24,18.79,9.15,29h0c1.22,4.34,2.42,8.76,3.58,13.28.09.35.19.72.28,1.08.48,1.92.97,3.83,1.43,5.73Z"/>
        <path class="cls-11" d="M157.2,99.63c-13.91-8.56-23.57,14.82-27.4,24.13-2.08,5.06-4.01,10.2-6.37,15.14-1.23,2.58-2.6,5.07-4.09,7.5s-3.48,3.02-6.06,3.77c-9.91,2.87-19.82,5.74-29.72,8.64-.02,0-.27.09-.27.08.99,1.7,2.1,3.96,2.96,6.75.97,3.17,1.3,5.98,1.39,8.11-.04-.87,20.97-6.13,23.04-6.74,3.71-1.08,7.45-2.09,11.12-3.29,3.07-1,6.76-1.27,9.42-3.22,1.39-1.02,2.38-2.47,3.35-3.89,3.61-5.29,7.26-10.56,10.79-15.91,7.15-10.85,5.46-8.3,9.67-15.29,2.06-3.42,4.02-6.8,5.89-10.11,3.18-5.55,1.36-12.56-3.72-15.68Z"/>
        <path class="cls-2" d="M166.46,95.23l-2.09,37.53v.03c-1.16,20.81-2.31,41.63-3.47,62.44-3.52,1.26-9.19,2.8-16.26,2.63-6.02-.14-10.9-1.46-14.17-2.63,1.47-7.66,3.08-15.49,4.85-23.48,1.69-7.65,3.45-15.09,5.27-22.34h0c.28-1.09.56-2.16.84-3.22,2.38-6.04,4.95-14.3,6.19-24.35,1.14-9.23.8-17.22.11-23.36,0-.04,0-.07,0-.1,3.17-1.4,5.94-2.3,8.36-2.85,4.6-1.06,7.94-.85,10.38-.29Z"/>
        <g id="Knöpfe">
          <circle class="cls-24" cx="160.12" cy="143.08" r=".93"/>
          <circle class="cls-24" cx="159.14" cy="155.86" r=".93"/>
          <circle class="cls-24" cx="158.52" cy="168.46" r=".93"/>
          <circle class="cls-24" cx="157.83" cy="181.47" r=".93"/>
        </g>
        <path class="cls-11" d="M167.52,99.13v-7.18c-.56.15-1.08.32-1.59.48h0s-3.37.85-10.35,2.65l.5.43,5.78,4.93-.61,1.07-3.94,6.97c.94,3.23,1.88,6.46,2.83,9.7,1.4,4.81,2.79,9.6,4.2,14.4,0-.03,0-.06.02-.08v-.03c1.77-8.97,3.53-17.95,5.28-26.93-.74-1.94-1.47-4.08-2.14-6.4Z"/>
        <path class="cls-11" d="M187.08,99.31l4.17-3.67,2.03-1.79-.33-.07-5.4-1.3c-1.55-.47-3.16-.88-4.82-1.22-.1-.02-.2-.04-.3-.06v2.81c-.18.91-.39,1.86-.63,2.83-.13.5-.26,1.01-.4,1.52-.62,2.27-1.32,4.34-2.05,6.17,2.34,9.35,4.67,18.71,6.99,28.06,0-.02,0-.03,0-.05h0c1.7-8.01,3.41-15.99,5.11-23.99.09-.42.18-.85.27-1.27l-1.22-2.08-3.45-5.9Z"/>
      </g>
    </g>
  </g>
  <g id="Person_4" data-name="Person 4">
    <g>
      <g id="Gesicht-2" data-name="Gesicht">
        <path class="cls-21" d="M797.14,93.72c.32,2.35-.35,4.7-1.91,5.89-2.36,1.78-6.78.96-9.18-2.9-.22,2.77-1.73,5.17-3.9,6.07-3.1,1.28-7.37-.57-9-4.77-.18.52-1.57,4.42-5.37,5.7-3.66,1.25-8.04-.48-10.45-4.39-1.58,2.74-4.56,4.34-7.63,4.11-3.21-.25-6-2.45-7.09-5.6-.35.39-2.79,3.04-6.62,2.89-4.45-.16-6.81-3.89-7.01-4.21-2.23-1.88-3.22-4.85-2.54-7.57.81-3.23,3.61-4.59,3.99-4.77-.45-.43-2.63-2.59-2.72-5.98-.08-3.11,1.61-6.04,4.36-7.67-2.05-1.32-3.13-3.74-2.72-6.08.53-3.04,3.28-4.28,3.48-4.37-.8-2.05-.39-4.29,1-5.61,1.27-1.21,2.88-1.19,3.29-1.18-.15-.36-1.65-4.18.42-7.56,1.96-3.21,6.08-4.58,9.74-3.08.01-.37.33-5.75,4.86-8.47,3.4-2.04,7.76-1.74,11.04.78,1.63-1.96,4.19-2.79,6.55-2.13,2.59.73,4.49,3.14,4.68,5.97.51-.1,6.5-1.1,10.85,3.46,3.62,3.8,3.42,8.65,3.38,9.44,2.06.19,3.85,1.52,4.67,3.47,1.24,2.97-.55,5.59-.64,5.7.23.1,1.74.79,2.23,2.48.45,1.56-.16,3.32-1.54,4.4.28.15,3.73,2.13,4.15,6.33.44,4.43-2.9,7.14-3.09,7.29,2.74.12,5.1,1.95,5.91,4.49.92,2.94-.38,6.29-3.18,7.86Z"/>
        <path class="cls-14" d="M782.95,63.14c-.59-.05-1.15.03-1.67.22l.35-3.81c.91-9.82-6.38-18.6-16.2-19.51s-18.6,6.38-19.51,16.2l-.34,3.63c-.36-.15-.74-.27-1.15-.31-2.16-.2-4.1,1.41-4.3,3.57l-.14,1.47c-.2,2.16,1.41,4.1,3.57,4.3.56.05,1.1-.02,1.61-.19.72,5.9,4.34,11.03,9.5,13.74,0,.02,0,.04,0,.07l-1.37,14.77c-.35,3.81,2.48,7.22,6.29,7.58,3.81.35,7.22-2.48,7.58-6.29l1.37-14.77c0-.07,0-.14,0-.21,5.49-1.81,9.9-6.22,11.6-11.88.55.4,1.21.68,1.94.75,2.16.2,4.1-1.41,4.3-3.57l.14-1.47c.2-2.16-1.41-4.1-3.57-4.3Z"/>
        <g id="Augenbrauen-2" data-name="Augenbrauen">
          <path class="cls-21" d="M773.98,58.56c-.46-.3-1.32-.78-2.5-.95-1.49-.21-2.66.2-3.18.42-.81-.51-.97-.88-.94-1.13.1-.89,2.56-1.62,4.68-1.22,1.43.27,3.15,1.15,3.07,1.94-.04.41-.55.72-1.13.94Z"/>
          <path class="cls-21" d="M759.74,57.24c-.46-.3-1.32-.78-2.5-.95-1.49-.21-2.66.2-3.18.42-.81-.51-.97-.88-.94-1.13.1-.89,2.56-1.62,4.68-1.22,1.43.27,3.15,1.15,3.07,1.94-.04.41-.55.72-1.13.94Z"/>
        </g>
        <g id="Augen-2" data-name="Augen">
          <rect class="cls-12" x="755.36" y="58.18" width="2.86" height="3.36" rx="1.43" ry="1.43" transform="translate(8.74 -69.5) rotate(5.29)"/>
          <rect class="cls-12" x="769.36" y="59.48" width="2.86" height="3.36" rx="1.43" ry="1.43" transform="translate(8.92 -70.78) rotate(5.29)"/>
        </g>
        <g id="Nase-2" data-name="Nase">
          <path class="cls-12" d="M763.48,71.47c-.54,0-1.12-.19-1.64-.54-.06-.04-.07-.12-.03-.17.04-.06.12-.07.17-.03.62.43,1.36.59,1.97.44.33-.08.59-.25.71-.47.29-.54.13-1.11-.46-1.77l-.08-.09c-.29-.32-.78-.86-.96-1.67-.06-.28-.06-.68-.05-.95v-.12c.03-.32.05-.58.07-.85.02-.26.04-.52.07-.84,0-.07.06-.12.14-.11.07,0,.12.07.11.14-.03.31-.05.57-.07.83-.02.26-.04.52-.07.84v.11c0,.26,0,.64.05.89.16.74.61,1.23.9,1.55l.08.09c.67.74.84,1.41.5,2.05-.15.28-.46.49-.87.59-.17.04-.35.06-.53.06Z"/>
        </g>
        <g id="Mund-2" data-name="Mund">
          <path class="cls-12" d="M763.82,77.75c-1.03,0-2.06-.17-3.08-.5-1.48-.48-2.89-1.3-4.18-2.43-.05-.05-.06-.12-.01-.18.04-.05.12-.06.18-.01,1.27,1.11,2.65,1.91,4.09,2.38,1.56.51,3.15.62,4.71.33.06-.01.13.03.15.1.01.07-.03.13-.1.15-.58.11-1.17.16-1.75.16Z"/>
        </g>
        <g id="Schatten-2" data-name="Schatten">
          <path class="cls-15" d="M768.55,83.62c-.97.45-2.51,1.02-4.48,1.2-2.13.19-3.87-.18-4.93-.49,2.88,2.57,5.77,5.14,8.65,7.71.25-2.8.51-5.61.76-8.41Z"/>
          <path class="cls-15" d="M783.25,66.07c.28.03.57,1.18.17,2.17-.28.71-.94,1.39-1.17,1.27-.44-.23.52-3.5,1-3.45Z"/>
          <path class="cls-15" d="M743.34,62.37c-.28-.02-.77,1.06-.57,2.11.15.75.67,1.54.92,1.46.47-.14.13-3.53-.35-3.57Z"/>
        </g>
        <path class="cls-21" d="M785.67,52.74c2.2-1.07,2.88-3.55,1.69-5.54-1.02-1.71-3.25-2.76-5.41-2.49-.97-1.17-2.56-2.77-4.92-4.09-3.5-1.95-10.51-5.33-13.82-2.77-.29.22-.54.5-.77.8-.21-.49-.52-.97-.98-1.35-1.72-1.41-4.79-1.01-7.12,1.26-.2-.1-4.38-2.24-8.36.19-2.81,1.71-4.35,4.99-3.92,8.33-1.77.73-3.1,2.46-3.34,4.34-.24,1.92.7,3.6,2.35,4.19,1.19,1.15,2.72,1.51,3.79.94.23-.12.65-.4.99-1.03.7.2,2.92.76,5.47-.22,2.42-.93,3.69-2.67,4.1-3.3.28-.01,3.67-.25,5.99-3.41.76-1.03,1.18-2.07,1.4-3.01.06.05.11.12.17.16,2.09,1.69,4.41.83,4.43.99.12.66-.78,2.31.37,4.24.6,1.01,2.18,2.17,4.63,1.91-1.28,1.71-.95,4.13.76,5.8,1.67,1.63,4.28,2.16,6.29,1.26-.12,1.94,1.06,3.58,2.24,3.87,1.36.34,3.41-.93,3.5-3.41,2.27-.02,3.96-1.56,3.96-3.51,0-1.79-1.44-3.54-3.47-4.18Z"/>
      </g>
      <g id="Körper-3" data-name="Körper">
        <g>
          <path class="cls-14" d="M793.35,412.55c-2.64-2.28-2.86-6.22-2.88-9.71-.15-25.65-.29-51.3-.44-76.95-.08-14.27-.16-28.56.52-42.81.68-14.1,2.11-28.16,2.26-42.28.31-28.3-4.75-57.11-18.26-81.97-9.26-.95-18.51-1.9-27.77-2.84-1.34-.14-2.74-.26-3.97.28-.97.43-1.71,1.23-2.42,2.02-5.28,5.83-10.36,11.87-14.48,18.57-13.29,21.63-15.46,48.07-17.29,73.39-3.07,42.57-6.14,85.13-9.21,127.7-.48,6.59-.94,13.22-2.25,19.71-.63,3.12-1.77,4.88-.13,7.44,1.6,2.51,6.34,4.31,9.1,3.21,3-1.2,4.1-4.79,4.84-7.94.91-3.91,1.83-7.82,2.74-11.73,3.62-15.45,7.24-30.92,9.92-46.56,3.58-20.86,5.5-41.98,8.92-62.86,4.34-26.57,11.09-52.67,17.82-78.73,1.21.23,2.42.46,3.63.7,16.41,64.68,7.81,133.61,23.3,198.51.93,3.89,1.87,8.29-.3,11.65,2.72,6.1,12.75,6.84,16.33,1.21Z"/>
          <path class="cls-14" d="M760.29,97.9c-10.78.23-20.48,1.26-28.88,2.61,3.58,18.4,7.17,36.79,10.75,55.19l32.77,3.03c4.19-19.88,8.38-39.76,12.57-59.64-8.01-.88-17.15-1.41-27.21-1.2Z"/>
          <path class="cls-14" d="M736.2,100.08c-4.09-.6-7.98,1.5-9.82,4.97-.03.04-.03.08-.06.11-.09.21-.18.43-.29.64-7.36,15.97-14.72,31.91-22.06,47.88-6.34,3.49-12.81,7.19-19.38,11.12-5.13,3.07-10.1,6.15-14.92,9.23-.54-.24-1.12-.47-1.76-.68-1.91-.61-3.65-.81-5.03-.84-2.31-.37-4.07-.4-5.21-.37-.87.03-1.89.11-2.3.79-.12.2-.19.46-.18.78.04,1.09,2.27,2.25,4.59,3.02,1.09.36-1.11,3.02-3.29,3.38-4.09.69-7.37-1.82-8.17.34-.94,2.56,4.47,5.27,9.98,5.35,3.74.05,6.64-.84,7.71-1.28,1.14-.47,2.12-1.03,2.95-1.58,13.93-5.8,27.87-11.6,41.8-17.41h.01c.88-.22,1.73-.63,2.45-1.24.48-.41.88-.89,1.2-1.41.49-.42.92-.91,1.28-1.46.13-.2.24-.42.35-.63.05-.05.08-.13.11-.18,8.95-15.39,17.88-30.77,26.8-46.14.03-.04.03-.06.03-.08h.02c.61-1.05,1.05-2.22,1.24-3.5.77-5.21-2.82-10.06-8.05-10.83Z"/>
          <path class="cls-14" d="M876.03,192.51c-.02-.42-.16-1.53-3.43-4.39-1.78-1.55-3.4-2.68-3.29-2.85.03-.05.22,0,.28.03,2.24,1.03,4.67,1.37,5.26.46.18-.27.29-.84.29-1.08-.01-.8-.7-1.46-1.43-1.93-2.87-1.82-4.67-2.34-4.67-2.34-.91-.46-1.88-.91-2.91-1.35-1.4-.6-2.75-1.12-4.03-1.57,0,0,0,.01-.01.02-6.39-4.97-13.06-9.99-20.01-15.03-7.08-5.14-14.06-10-20.89-14.61l-.06-.06c-.11-.07-.21-.14-.32-.22,0-.01-.01-.02-.02-.03-10.05-14.81-20.12-29.59-30.19-44.4-.14-.18-.27-.39-.39-.58-.03-.03-.04-.07-.07-.1-2.38-3.12-6.56-4.56-10.5-3.29-5.03,1.62-7.77,6.99-6.15,12,.39,1.22,1.02,2.31,1.79,3.25h.02s.01.03.04.06c11.33,13.69,22.68,27.4,34.03,41.1.04.05.08.12.14.16.14.18.29.38.45.56.33.36.71.67,1.1.95.24.34.5.66.81.96.75.74,1.63,1.27,2.56,1.6h.01c14.33,7.75,28.66,15.49,42.99,23.23,0,0,0,0,0,0,.41,1.34,1.57,2.89,3.14,4.98,2.26,3.01,4.9,4.49,5.97,5.04.43.22,6.6,3.94,8.78,1.59.74-.79.71-1.93.7-2.17Z"/>
        </g>
        <g>
          <path class="cls-21" d="M712.53,403.01s0,0,0,0c-.3-1.09-.63-2.87-.39-5.05.21-1.91.8-3.4,1.26-4.36-5.84-.54-11.68-1.08-17.51-1.62.38,1.05,1.05,3.34.46,6.12-.25,1.17-.66,2.13-1.05,2.87,0,0-.02-.01-.03-.01-4.14.75-8.28,2.25-13.56,3.26-11.45,2.2-12,4.26-12,4.26l-.21,2.23,43.99,4.07.21-2.23c.13-1.4.14-3.23-.15-5.3-.23-1.64-.63-3.06-1.02-4.23Z"/>
          <path class="cls-21" d="M794.79,416.49c-.13-1.4-.45-3.2-1.12-5.18-.6-1.77-1.35-3.25-2.02-4.4-.04.02-.09.04-.13.07-.06-.64-.09-1.33-.04-2.08.11-1.92.62-3.44,1.03-4.42-5.86-.23-11.72-.47-17.58-.7.44,1.02,1.23,3.28.78,6.09-.17,1.08-.49,1.99-.82,2.73-.12-.03-.24-.07-.35-.1-3.94,1.5-7.72,3.74-12.73,5.69-10.85,4.26-11.02,6.39-11.02,6.39l.21,2.23,43.99-4.07-.21-2.23Z"/>
        </g>
        <g>
          <path class="cls-19" d="M759.46,102.93c-8.15.06-13.43-4.6-14.53-5.62-2.27.21-4.63.47-7.06.81-3.29.45-6.42,1-9.37,1.59-4.03.43-7.69,3.09-9.14,7.15l-8.27,23.01,22.13,7.96,1.74-4.85c.02.1.03.2.05.3,1.04,6.18,1.9,12.38,1.9,12.38.47,3.46.91,6.88,1.3,10.22,4.18,1.9,10.48,4.21,18.46,5.19l5.4-58.33c-.83.12-1.69.18-2.6.2Z"/>
          <path class="cls-22" d="M808.49,122.79l-14.1-20.05c-2.19-3.11-5.73-4.71-9.28-4.59-3.8-.32-7.6-.64-11.4-.96-.98.92-5.12,4.65-11.64,5.54l-5.4,58.33c.51.07,1.02.13,1.53.18,8.84.88,16.16-.27,20.94-1.42.71-6.55,1.55-13.33,2.58-20.31.55-3.77.98-6.47,1.2-7.86.19-1.17.39-2.47.6-3.89l5.92,8.42,19.05-13.4Z"/>
        </g>
        <g id="Hosenanzug">
          <path class="cls-18" d="M759.54,130c-2.05-.37-4.27-.7-6.64-.93-1.36-.13-2.68-.23-3.96-.29-1.98-10.65-3.97-21.3-5.95-31.95-.52-.03-1.17-.03-1.91.07-.69.09-1.27.25-1.74.4l5.85,31.41c-.97,4.57-1.83,9.69-2.38,15.31-.4,4.05-.59,7.87-.65,11.45-.17-.02-.34-.03-.51-.05-18.84,18.69-26.74,36.34-30.43,47.87-3.44,10.73-4.93,24.69-7.95,52.57-1.06,9.83-1.84,18.28-2.38,24.51,0,0-.44,5.07-.86,10.45-.99,12.71-3.51,50.1-6.73,100.26,2.71,1.03,6.32,2.12,10.67,2.65,5.15.62,9.54.25,12.7-.27,6.54-37.68,13.54-75.88,21.04-114.58,4.8-24.78,9.72-49.3,14.74-73.55l3.97-42.87h.1s3.01-32.47,3.01-32.47Z"/>
          <path class="cls-7" d="M795.41,255.59c-.08-36.1-.49-47.07-4.08-60.74-4.26-16.22-10.96-28.52-15.83-36.23-1.23-.12-2.45-.23-3.68-.35.58-3.57,1.08-7.39,1.43-11.43.46-5.32.62-10.28.58-14.83l10.54-34.04c-.44-.21-1-.44-1.67-.61-.72-.18-1.37-.26-1.89-.28-3.48,11.25-6.97,22.5-10.45,33.75-1.18-.15-2.39-.28-3.63-.4-2.52-.23-4.93-.37-7.19-.43l-2.49,26.87s-.07,0-.1,0l-4.49,48.48c3.84,24.9,7.08,51.54,9.38,79.73,1.59,19.53.98,31.61,3.05,54.32,2.24,24.55,5.54,44.5,8.02,57.68,2.9.47,6.58.8,10.83.57,4.56-.25,8.41-1.08,11.36-1.94-.02-32.03.05-64.05.19-96.06.03-5.71.06-11.97.09-17.68.03-7.1.04-15.98.03-26.37Z"/>
          <path class="cls-26" d="M765.72,152.8c-2.31.21-5.12.3-8.29.01-3.29-.29-6.14-.91-8.43-1.56-.23-2.07-.33-4.68-.04-7.65.27-2.75.82-5.12,1.4-7.01,2.39.6,5.22,1.13,8.43,1.42,3.1.28,5.9.27,8.29.13.19,2.07.26,4.6-.01,7.46-.26,2.8-.79,5.23-1.35,7.2Z"/>
          <circle class="cls-26" cx="747.31" cy="131.2" r="1.46"/>
          <circle class="cls-26" cx="771.5" cy="133.72" r="1.46"/>
          <path class="cls-26" d="M797.51,401.49c-3.88.75-8.42,1.37-13.5,1.6-4.96.23-9.44.04-13.31-.34-.4-1.2-.81-2.87-.91-4.91-.1-2.06.16-3.78.45-5.02,4.09.15,8.51.16,13.21-.06,4.87-.22,9.42-.65,13.6-1.2.47.9,1.15,2.48,1.31,4.56.19,2.45-.44,4.38-.85,5.36Z"/>
          <path class="cls-26" d="M718.46,395.09c-4.11.2-8.88.16-14.14-.36-4.7-.47-8.92-1.24-12.59-2.11-.31-1.06-.69-2.81-.5-4.99.2-2.23.91-3.92,1.42-4.91,3.74.94,8.17,1.78,13.16,2.25,5.09.48,9.66.46,13.56.22.31,1.05.67,2.72.52,4.77-.17,2.33-.91,4.11-1.44,5.13Z"/>
        </g>
      </g>
    </g>
  </g>
  <g id="Person_2" data-name="Person 2">
    <g id="Gesicht-3" data-name="Gesicht">
      <g id="Kopf">
        <path class="cls-13" d="M372.83,44.98c1.31,8.94-3.96,17.86-12.82,20.78-.36.12-.72.23-1.08.33v.05l.32,11.06.1,3.41.07,2.36c.12,4.35-3.33,8.01-7.68,8.13-4.35.13-8.01-3.33-8.13-7.68l-.07-2.33-.09-3.12-.33-11.38c-.02-.64.05-1.26.18-1.86-5.01-2.35-9.16-6.49-11.38-11.89-.4.12-.81.22-1.25.23-2.52.07-4.65-1.93-4.72-4.45l-.05-1.72c-.05-1.88,1.04-3.52,2.63-4.28-3.03-10.65,2.89-21.99,13.5-25.49,10.88-3.59,22.73,2.38,26.32,13.27l1.56,4.75c2.01.11,3.79,1.54,4.23,3.59l.36,1.69c.38,1.76-.33,3.5-1.67,4.55Z"/>
      </g>
      <g id="Augenbrauen-3" data-name="Augenbrauen">
        <rect class="cls-12" x="344.27" y="36.97" width="3.33" height="3.91" rx="1.66" ry="1.66" transform="translate(-1.01 67.43) rotate(-11.12)"/>
        <rect class="cls-12" x="360.31" y="33.82" width="3.33" height="3.91" rx="1.66" ry="1.66" transform="translate(-.11 70.46) rotate(-11.12)"/>
      </g>
      <path class="cls-27" d="M354.77,41.86c.14.72.26,1.19.4,1.91.08.27.22.83.4,1.15.49.88,1.26,1.3,1.68,1.56,1.11.67,1.29,1.37,1.16,1.97-.16.79-1.52,1.54-3.16,1.01"/>
      <g id="Mund-3" data-name="Mund">
        <path class="cls-24" d="M350.64,54.34c.06.22.97,3.36,3.93,4.28,2.59.8,5.62-.44,7.15-3.12-1.21.41-3.6,1.03-6.55.52-2.02-.35-3.56-1.1-4.53-1.68Z"/>
      </g>
      <g id="Schatten-3" data-name="Schatten">
        <path class="cls-4" d="M329.49,45.56c-.32.01-.74,1.33-.36,2.51.28.84.99,1.68,1.26,1.56.53-.23-.35-4.09-.91-4.07Z"/>
        <path class="cls-4" d="M358.97,66.08c-1.37.35-3.12.68-5.15.75-2.41.09-4.46-.19-6.01-.52,3.81,3.18,7.61,6.36,11.42,9.55-.05-1.46-.1-2.94-.14-4.42-.05-1.8-.09-3.58-.12-5.35Z"/>
      </g>
      <g id="Augenbrauen-4" data-name="Augenbrauen">
        <path class="cls-18" d="M358.22,34.15c.3-.56.93-1.52,2.05-2.33,1.42-1.02,2.84-1.24,3.49-1.29.55-.96.52-1.43.35-1.68-.58-.86-3.52-.28-5.47,1.29-1.32,1.06-2.6,2.89-2.1,3.66.26.4.95.44,1.68.35Z"/>
        <path class="cls-18" d="M341.79,37.31c.3-.56.93-1.52,2.05-2.33,1.42-1.02,2.84-1.24,3.49-1.29.55-.96.52-1.43.35-1.68-.58-.86-3.52-.28-5.47,1.29-1.32,1.06-2.6,2.89-2.1,3.66.26.4.95.44,1.68.35Z"/>
      </g>
      <path class="cls-18" d="M368.55,25.46c-.44-1.06-1.06-2.41-1.73-3.68.66-.64,1.4-1.67,1.48-3.11.1-1.97-1.1-3.86-3.02-4.68-.23-.4-1.28-2.17-3.54-2.88-2.51-.79-4.58.33-4.92.53-.34-.47-1.5-1.99-3.69-2.64-2.25-.66-4.11.03-4.63.25-.14-.13-1.09-1.01-2.52-.89-1.42.12-2.2,1.13-2.32,1.29-.37-.11-2.85-.77-5.18.76-1.92,1.26-2.48,3.18-2.61,3.66-.41-.19-1.72-.75-3.37-.38-1.91.43-2.92,1.8-3.15,2.13-.45.15-3.07,1.05-4.17,3.69-1.09,2.62-.26,5.93,2.06,7.65-.68,2.44-.71,5.03-.67,6,.06,1.81,1.46,8.84,1.46,8.84.87.16,1.98.18,4.48,1.12,2.56.96,3.92,1.87,3.92,1.87-.06.12-2.59-4.1-2.62-8.78-.02-2.79,1.17-4.81,2.25-6.53,1.08.42,2.41.72,3.94.6,3.41-.28,5.47-2.43,5.92-2.93.31.34,2.79,2.94,6.68,2.7,3.76-.24,5.86-2.95,6.15-3.34,1.78.73,3.78.5,5.22-.64.52-.41.88-.88,1.15-1.34.12.18.25.37.38.6.38.62.62,1.22,1.04,2,2.06,3.86,3.25,9.23,3.37,8.66.06-.3.14-.56.14-.64-.13-6.58-1.48-9.87-1.48-9.87Z"/>
    </g>
    <g id="Körper-4" data-name="Körper">
      <g id="Hinterteil_Jacke" data-name="Hinterteil Jacke">
        <path class="cls-20" d="M343.45,77.97l.09,3.12c-1.27.04-2.54.08-3.81.12.18-1.03.36-2.06.54-3.09l3.18-.15Z"/>
        <path class="cls-20" d="M363.01,80.5c-1.22.04-2.44.08-3.66.11l-.1-3.41c1.24-.06,2.49-.12,3.73-.18.01,1.16.02,2.32.03,3.48Z"/>
      </g>
      <g id="Körper-5" data-name="Körper">
        <path class="cls-13" d="M451.2,181.52c-2-1.67-2.65-5.7-1.32-5.41,2.82.61,5.79.76,6.48-.33.21-.32.29-.62.28-.9-.02-.94-1.01-1.64-1.87-2.18-3.4-2.14-5.53-2.74-5.53-2.74-1.58-.49-3.75-1.2-6.46-2.18-6.34-6.96-12.68-13.92-19.03-20.88-3.23-3.54-6.4-7.16-9.7-10.64-3.91-4.14-5.98-10.77-8.07-15.98-2.13-5.3-3.59-10.84-5.35-16.27-1.54-4.76-3.35-9.48-5.95-13.77-2.13-3.51-6.01-9.68-10.81-9.26-7.8.67-8.16,10.63-6.51,16.23,2.06,7,5.18,13.6,7.99,20.32,4.75,11.32,6.89,22.55,16.6,30.84,5.66,4.83,11.44,9.51,17.24,14.18,2.9,2.34,5.81,4.67,8.7,7.02,2.06,1.67,7.59,4.67,8.62,7.07.21.49.49.91.81,1.31.43.77.93,1.58,1.55,2.4.82,1.09,3.24,3.73,7.08,5.91,5.66,3.22,12.8,3.69,13.37.52.48-2.68-4.36-2.09-8.12-5.24Z"/>
        <path class="cls-13" d="M433.58,373.09c-.15-.7-.9-.82-2.59-2.84-.31-.37-.58-.72-.82-1.04-.55-.75-.87-1.64-.93-2.57-.73-10.92-1.74-22.25-3.09-33.94-2.13-18.51-5.26-36.89-8.46-55.24-2.63-15.06-1.79-30.85-3.74-46.1-1.55-12.12-3.79-29.17-10.05-49.62-7.21-23.53-11.7-25.36-16.61-42.37-3.76-13.01-6.99-32.29-3.34-58.04-7.99-2.05-18.94-3.95-31.95-3.55-12.82.39-23.49,2.89-31.28,5.37,1.2,20.2,2.5,40.52,3.88,60.97.54,7.99,1.1,15.98,1.66,23.96.28,3.98.57,7.96.86,11.93.22,3.05.82,6.19.3,9.24-.23,1.33-.63,2.6-.84,3.94-.55,3.63-.89,7.29-1.24,10.94-1.07,11.29-1.82,22.62-2.13,33.96-.24,9.03-.26,22.55,1.07,39.28-.06.21-.13.43-.19.64-7.35,13-14.98,28.67-21.66,46.92-4.57,12.51-7.99,24.32-10.57,35.11-.36,1.51-1.26,2.83-2.5,3.77-1.38,1.05-3.03,2.77-3.36,5.17-.6,4.41,3.74,7.62,5.66,9.04,4.75,3.52,12.2,5.22,13.9,2.72.84-1.24.15-3.29-.88-5.19-1.52-2.82-1.43-6.23.38-8.87,2.63-3.82,5.73-8.62,8.94-14.27,3.85-6.79,6.26-12.17,8-15.72,8.38-17.05,15.56-33.5,21.73-49.15,1.45-1.62,2.42-3.64,2.73-5.85,3.41-7.29,6.77-15.49,9.74-24.6,6.31-19.42,8.99-37.17,9.97-51.68.81.13,1.56.23,2.26.31,2.49,13.81,6.85,30.23,14.53,47.79,3.34,7.6,7.73,14.61,11.27,22.08,3.9,8.23,2.83,17.64,3.75,26.41,1.1,10.52,3.03,21.02,5.33,31.34,2.91,13.05,6.42,24.86,10.1,35.35.38,1.07.38,2.22.04,3.3-.29.93-.45,2.09-.08,3.28,1.23,3.98,7.25,4.51,7.9,4.56,6.56.57,12.76-4.5,12.28-6.72Z"/>
        <path class="cls-13" d="M318.55,83.18c-3.18.18-5.66,2.53-6.91,3.71-.27.26-2.01,1.93-3.29,4.43-1.35,2.64-2.38,5.46-3.46,8.21-2.06,5.23-4.02,10.49-5.96,15.77-2.68,7.28-5.31,14.59-7.91,21.9-2.47,6.95-4.87,13.94-7.27,20.91-1.26,3.66-2.51,7.33-3.75,11-2.06,6.09-4.11,12.19-6.16,18.28-.61,1.82-1.22,3.64-1.83,5.46-.33.99-.66,1.98-.99,2.97-.17.51-.32,1.1-.49,1.66-3.72,2.5-5.25,3.21-6.59,5.3-.45.7-.85,1.33-1.07,2.28-.63,2.73.64,6.33,3.57,7.92,3.64,1.98,7.49-.43,8.12-.82,2.71-1.69,3.71-4.37,4.61-6.65.05-.11.08-.23.12-.34.3-.58.5-1.22.59-1.89.1-.38.18-.76.25-1.11,3.32-6.8,6.64-13.61,9.99-20.39,2.19-4.45,4.4-8.9,6.63-13.33,1.2-2.38,2.4-4.76,3.66-7.1.98-1.8,2.01-3.58,2.93-5.41.93-1.85,1.63-3.78,2.42-5.69,1.74-4.17,3.51-8.33,5.31-12.48,3.62-8.36,7.34-16.67,11.17-24.94,1.97-4.25,3.96-8.49,5.98-12.71.3-.63.6-1.26.9-1.89,0-.02.02-.05.02-.07.29-.85.5-1.74.58-2.68.12-1.49-3.93-12.72-11.17-12.31Z"/>
      </g>
      <g id="Schuhe-2" data-name="Schuhe">
        <path class="cls-5" d="M313.89,384.27c-3.79-4.28-6.3-8.24-9.29-11.56-.27-.05-.57-.11-.88-.18h0c-1.98-.43-4.68-1.29-7.53-3.04-3.15-1.96-5.24-4.23-6.53-5.91-.18-.23-.34-.45-.49-.66-1.18.78-2.62,1.8-4.05,3.2-1.58,1.55-2.77,3.1-3.56,4.36l-1.28,2.02,39.69,25.18,1.28-2.02s.87-2.08-7.35-11.38Z"/>
        <path class="cls-5" d="M411.05,377.05c.27-1.98.78-3.67,1.24-5,.32.1.68.2,1.07.3h0c2.03.51,4.97.98,8.48.62,3.87-.42,6.85-1.66,8.64-2.6.25.04.48.09.72.14h.02c4.16.83,8.38,2.31,13.69,3.33,12.18,2.34,12.76,4.52,12.76,4.52l.22,2.38-46.8,4.32-.22-2.38c-.14-1.48-.15-3.43.16-5.63Z"/>
      </g>
      <g id="Hose-2" data-name="Hose">
        <path class="cls-3" d="M368.2,208.34c4.75,18.94,9.44,37.89,14.08,56.86,8.41,34.41,16.62,68.86,24.64,103.36,3.61-1.18,8-2.32,13.06-3.05,4.62-.66,8.8-.84,12.35-.77.81-30.62-.73-67.91-7.92-109.69-5.75-33.45-13.94-62.76-22.42-87.37-9.28,2.74-20.59,5.33-33.6,6.78-1.02.12-2.02.22-3.02.31l2.83,33.57Z"/>
        <path class="cls-6" d="M365.41,174.76c.95,11.2,1.89,22.38,2.84,33.57,1.56,20.95-1.57,37.34-4.43,47.83-1.94,7.1-4.15,15.14-7.34,21.97-5.89,14.25-13.08,29.75-21.91,46.03-8.82,16.25-17.87,30.72-26.6,43.4-2.94-1.98-6.54-4.11-10.77-6.07-4.64-2.15-8.95-3.58-12.61-4.55,6.06-12.91,13.36-30.25,19.94-51.37,5-16.07,7.83-28.7,8.77-33.04,5.38-24.74,4.58-33.14,9.29-59.62,1.55-8.69,4.14-21.85,8.34-37.94,9.65.8,21.32,1.04,34.48-.21Z"/>
      </g>
      <g id="Oberteil-2" data-name="Oberteil">
        <path class="cls-26" d="M400.64,173.04c-10.02,2.34-21.74,4.41-34.91,5.53-13.27,1.13-25.26,1.07-35.59.46-3.44-32.06-6.89-64.12-10.33-96.19,6.79,2.27,18.13,5.13,32.28,4.29,13-.77,23.19-4.36,29.52-7.16,6.34,31.02,12.69,62.04,19.03,93.07Z"/>
      </g>
      <g id="Jacke-2" data-name="Jacke">
        <path class="cls-23" d="M411.61,133.8s.09-.04.14-.06c-5.61-14.28-9.86-29.19-15.78-43.32-2.64-6.31-6.13-12.76-12.93-15.07-3.78.28-5.6,1.92-6.24,2.58-3.42,3.53-2.43,9.68-1.96,12.5.12.75.31,1.57.69,3.21.57,2.47,1.2,4.93,1.97,7.47,1.49,4.95,4.09,11.02,6.49,16.89,5.42,13.25,6.83,18.33,11.37,24.6,1.38,1.91,2.97,3.84,2.97,3.84,3.23,3.28,6.47,6.56,9.7,9.84,6.34,6.43,12.68,12.86,19.01,19.29,1.72-2,3.72-4.17,6.05-6.39,2.67-2.56,5.25-4.71,7.6-6.51-9.69-9.62-19.39-19.25-29.08-28.88Z"/>
        <path class="cls-20" d="M356.41,209.31c-7.65.83-17.28,1.02-28.23-.81-6.71-1.12-12.69-2.8-17.84-4.62.98-5.59,1.98-12.37,2.7-20.14.27-2.88.47-5.61.62-8.18,0,0,.53-8.93.43-17.93-.3-25.21-11.09-63.31.43-73.26,2.22-1.92,5.88-2.77,13.19-4.47,5.78-1.34,10.72-1.73,14.22-1.82.78,21.73,2.42,45.31,5.33,70.43,2.51,21.72,5.66,42.03,9.16,60.8Z"/>
        <path class="cls-20" d="M414.7,196.65c-6.1,2.42-12.94,4.76-20.49,6.77-4.31,1.15-8.45,2.08-12.4,2.84-5.18-19.12-8.78-36.43-11.32-51.29-4.44-25.96-5.96-45.99-6.43-52.95-.68-9.98-.96-18.51-1.08-25,2.57-.76,5.78-1.49,9.51-1.83,4.12-.38,7.72-.19,10.56.17.07,10.57,1.08,19.29,2.11,25.69.92,5.76,1.91,9.95,2.18,11.07,1.88,7.79,4.23,14.18,6.55,20.3,1.35,3.54,6.4,18.77,16.33,49.29,1.43,4.39,2.95,9.36,4.49,14.94Z"/>
        <path class="cls-23" d="M326.34,91.53c-1.03-2-2.83-3.58-4.75-4.81-2.12-1.36-4.57-2.42-7.08-2.22-4.36.33-7.53,4.21-9.76,7.98-5.27,8.91-8.34,18.91-11.09,28.89-2.73,9.93-4.12,20.26-7.89,29.89-3.91,9.98-8.66,19.67-12.7,29.61-.77,1.89-1.53,3.78-2.29,5.67-.39.97-.78,1.93-1.16,2.9-.33.82-1.01,1.91-1.05,2.77,1.48.47,3.05.71,4.54,1.17s2.99,1.01,4.45,1.62c1.45.62,2.88,1.31,4.26,2.07.37.2,4.12,2.29,4.03,2.5,13.85-31.98,28.37-63.71,39.82-96.62,1.17-3.37,2.31-7.06,1.11-10.41-.12-.34-.27-.67-.43-.99Z"/>
      </g>
    </g>
  </g>
  <g id="Person_3" data-name="Person 3">
    <g id="Gesicht-4" data-name="Gesicht">
      <path class="cls-1" d="M535.36,18.55c-3,.08-5.28,2.62-5.11,5.33.15,2.39,2.17,4.45,4.78,4.66-.19.09-4.43,2.24-4.78,6.77-.27,3.59,2.02,7.08,5.66,8.44-.15.42-.74,2.18.11,3.89.98,1.97,3.48,3.09,6.11,2.55.45.86,1.76,3.05,4.44,4.33,4.37,2.08,8.6-.07,9.11-.33.3.14,6,2.71,10.66-.56,2.24-1.57,3.18-3.74,3.55-4.78.36.01,4.06.1,6.33-2.89,1.57-2.07,1.49-4.36,1.44-5,2.72-1.96,3.95-5.27,3.11-8.22-.94-3.3-4.03-4.61-4.44-4.78,2.21-2.16,3.03-5.35,2.11-8.22-1.26-3.93-5.12-5.13-5.44-5.22.05-.25.55-3.27-1.67-5.44-1.69-1.65-4.27-2.14-6.55-1.22-.26-.55-1.58-3.12-4.55-4.11-2.84-.94-6.08-.07-8.33,2.22-1.41-1.41-3.52-1.85-5.33-1.11-1.96.8-3.19,2.83-3,5-2.53-1.02-5.43-.34-7.22,1.67-1.69,1.9-2.08,4.66-1,7Z"/>
      <path class="cls-15" d="M575.82,30.6h0c-.61,0-1.19.15-1.72.39v-3.99c0-10.28-8.41-18.7-18.7-18.7s-18.7,8.41-18.7,18.7v3.81c-.39-.12-.79-.21-1.22-.21-2.26,0-4.12,1.85-4.12,4.12v1.54c0,2.26,1.85,4.12,4.12,4.12.59,0,1.14-.13,1.65-.35,1.31,6.05,5.57,11.03,11.18,13.35,0,.02,0,.05,0,.07v15.46c0,3.99,3.27,7.26,7.26,7.26h0c3.99,0,7.26-3.27,7.26-7.26v-15.46c0-.07,0-.14-.01-.21,5.52-2.41,9.68-7.41,10.9-13.45.61.37,1.32.59,2.09.59h0c2.26,0,4.12-1.85,4.12-4.12v-1.54c0-2.26-1.85-4.12-4.12-4.12Z"/>
      <g id="Schatten-4" data-name="Schatten">
        <path class="cls-21" d="M562.8,53.28c-1.12.49-2.64,1.04-4.51,1.33-2.18.35-4.04.24-5.36.06,3.31,2.46,6.61,4.92,9.92,7.39,0-.81,0-1.52,0-2.1,0-.47,0-.51,0-2.62,0-1.47,0-1.62,0-1.95-.01-.89-.03-1.62-.05-2.11Z"/>
        <path class="cls-21" d="M576.42,33.61c.29,0,.7,1.17.39,2.24-.23.76-.85,1.53-1.09,1.43-.48-.19.21-3.68.71-3.67Z"/>
        <path class="cls-21" d="M534.63,33.61c-.29,0-.7,1.17-.39,2.24.23.76.85,1.53,1.09,1.43.48-.19-.21-3.68-.71-3.67Z"/>
      </g>
      <g id="Augenbrauen-5" data-name="Augenbrauen">
        <path class="cls-1" d="M565.34,25.54c-.46-.25-1.33-.63-2.48-.69-1.44-.07-2.53.43-3.01.69-.82-.42-1.01-.76-1-1,.02-.86,2.31-1.78,4.38-1.58,1.4.14,3.12.82,3.11,1.58,0,.39-.46.74-1,1Z"/>
        <path class="cls-1" d="M551.57,25.54c-.46-.25-1.33-.63-2.48-.69-1.44-.07-2.53.43-3.01.69-.82-.42-1.01-.76-1-1,.02-.86,2.31-1.78,4.38-1.58,1.4.14,3.12.82,3.11,1.58,0,.39-.46.74-1,1Z"/>
      </g>
      <g id="Augen-3" data-name="Augen">
        <rect class="cls-12" x="547.6" y="26.7" width="2.76" height="3.24" rx="1.38" ry="1.38"/>
        <rect class="cls-12" x="561.13" y="26.7" width="2.76" height="3.24" rx="1.38" ry="1.38"/>
      </g>
      <g id="Nase-3" data-name="Nase">
        <path class="cls-12" d="M556.2,38.86c-.46,0-.95-.13-1.41-.38-.06-.03-.08-.11-.05-.17.03-.06.11-.08.17-.05.64.35,1.36.45,1.92.25.31-.11.54-.29.63-.51.23-.54.03-1.08-.6-1.65l-.08-.08c-.31-.28-.82-.76-1.06-1.51-.08-.26-.11-.65-.13-.91v-.12c0-.31-.01-.57-.02-.82,0-.25,0-.51,0-.81,0-.07.06-.12.12-.12s.12.06.12.12c0,.3,0,.55,0,.81,0,.25,0,.51,0,.81v.11c.03.25.06.62.13.85.22.69.69,1.12.99,1.4l.09.08c.7.64.93,1.29.66,1.93-.12.28-.4.51-.78.65-.23.08-.47.12-.72.12Z"/>
      </g>
      <g id="Mund-4" data-name="Mund">
        <path class="cls-12" d="M556.46,44.89c-.71,0-1.43-.08-2.15-.25-1.46-.33-2.89-.99-4.23-1.96-.06-.04-.07-.12-.03-.17s.12-.07.17-.03c1.31.95,2.7,1.59,4.13,1.92,1.55.35,3.07.32,4.54-.1.06-.02.14.02.15.09.02.07-.02.14-.09.15-.82.23-1.66.35-2.51.35Z"/>
      </g>
      <path class="cls-1" d="M535.08,15.2c-1.23,1.45-1.38,3.5-.42,5,1.11,1.73,3.48,2.39,5.47,1.42.14.38.74,1.79,2.22,2.44,1.7.75,3.88.19,5.33-1.44.1.08,1.54,1.18,3.3.58,1.7-.57,2.21-2.21,2.25-2.36.17.11,2.03,1.29,4.16.44,1.9-.75,2.52-2.52,2.61-2.78,1.15.11,2.23-.44,2.72-1.39.55-1.06.12-2.12.06-2.28.04.05.98,1.22,2.44,1.03,1.06-.14,1.95-.95,2.22-2.03,2.09-.66,3.48-2.58,3.44-4.64-.04-2.36-1.96-4.43-4.5-4.66-.41-2.39-2.3-4.22-4.58-4.5-1.94-.24-3.88.68-5.03,2.36-.5-.3-2.94-1.68-6.05-.94-3.45.82-5.03,3.61-5.28,4.05-1.23-1.18-3.08-1.43-4.55-.64-1.42.77-2.22,2.35-2,3.97-1.65-.75-3.56-.32-4.58.94-1.23,1.52-.99,4.01.75,5.41Z"/>
      <g id="Brille">
        <path class="cls-24" d="M564.93,19.04c-4.91,0-8.92,3.83-9.24,8.66h-1.65c-.32-4.82-4.34-8.66-9.24-8.66s-9.28,4.16-9.28,9.27,4.16,9.28,9.28,9.28,9.05-3.95,9.26-8.89h1.63c.2,4.93,4.27,8.89,9.26,8.89s9.28-4.16,9.28-9.28-4.16-9.27-9.28-9.27ZM544.79,36.59c-4.56,0-8.28-3.71-8.28-8.28s3.71-8.27,8.28-8.27,8.28,3.71,8.28,8.27-3.71,8.28-8.28,8.28ZM564.93,36.59c-4.56,0-8.28-3.71-8.28-8.28s3.71-8.27,8.28-8.27,8.28,3.71,8.28,8.27-3.71,8.28-8.28,8.28Z"/>
      </g>
    </g>
    <g id="Körper-6" data-name="Körper">
      <g id="Körper-7" data-name="Körper">
        <path class="cls-15" d="M528.34,73.27c-5.4-1.71-11.91,3.71-14.27,6.72-4.22,5.38-4.73,6.76-13.73,25.9,0,0-6.51,13.83-11.25,26.94-10.23,11.82-20.46,23.64-30.68,35.46-1.57.53-3.42,1.54-5.75,2.8-4.4,2.38-6.85,5.56-7.78,6.86-.37.53-6.46,7.9-3.81,11.24.9,1.13,2.4,1.31,2.71,1.34.06,0,.12.01.2.01.96.02,3.59-.6,6.22-3.66,0,0,2.45-2.85,4.27-4.25.16-.12.3-.1.33-.1.45.2,1.04.45,5.31,2.19.78-1.11,2.48-3.3,3.26-4.56.18-.3.34-.58.52-.88,6.93-6.09,13.86-12.18,20.78-18.27,3.46-3.05,6.93-6.09,10.39-9.14,3.27-2.87,6.84-5.5,9.36-9.07,7.11-10.05,14.37-19.9,20.31-30.75,9-16.42,11.53-20.58,12.01-27.29.2-2.83-2.59-9.67-8.41-11.51Z"/>
        <path class="cls-15" d="M663.92,178.82c-.59-1.36-2.21-4.72-5.75-7.72-2.41-2.04-4.19-3.56-5.79-4.18-10.39-13.75-20.77-27.5-31.16-41.25,0,0,0,0,0,0-4.32-10.93-6.79-16.45-11.77-25.7-3.05-5.68-5.63-12.07-12.06-23.1,0-.02-.02.02-.04.02-1.92-3.96-6.57-6.58-11.85-6.22-6.68.45-11.77,5.51-11.38,11.3.1,1.48.54,2.84,1.26,4.07-.02,0-.02.02-.04.02,3.52,6.09,8.1,13.88,13.63,22.88,0,0,5.99,9.74,18.92,22.82,0,0,0,0,0,0,3.75,5.71,7.23,10.34,10.04,13.86,0,0,4.89,6.12,11.85,13.59.3.32.59.63.59.63.97,1.03,1.98,2.05,7.7,7.99,2.76,2.88,5.53,5.75,8.29,8.62.01.02.03.04.04.05.09.26.17.51.26.77.47,1.29,1,2.56,1.5,3.72,5.15-.57,5.23-.59,5.39-.57,1.51.15,1.85,2.29,3.8,5.47,0,0,2.51,4,4.96,4.52.07.02.13.02.19.03.29.03,1.69.15,2.72-.7,3.05-2.52-1.07-10.38-1.3-10.93Z"/>
        <path class="cls-15" d="M627.13,370.01c-2.91-1.63-4.73-4.68-4.61-8,.18-4.82.23-10.77-.1-17.52-.4-8.11-1.29-14.18-1.73-18.27-1.98-18.07-5.31-35.95-8.02-53.91-2.59-17.19-2.06-34.74-4.05-52.05-.99-8.66-2.26-17.29-3.8-25.87-1.44-8.02-3.68-15.94-4.91-23.98-1.23-8-2.12-15.95-3.92-23.86-1.27-5.54-2.79-11.03-4.53-16.44-.52-1.61-1.06-3.21-1.58-4.82-3.45-10.7-6.09-27.49-1.67-53.65-7.91-2.1-18.77-4.15-31.76-4.12-12.79.02-23.51,2.04-31.34,4.12,1.23,16.95,1.48,36.68-.45,58.52-1.53,17.35-5.34,34.29-7.55,51.53-1.71,13.36-2.77,26.81-3.16,40.28-.51,17.57,1.41,35.21.22,52.75-1.21,17.82-2.76,35.54-3.17,53.42-.28,12.25-.24,24.08.05,35.47.02.97-.22,1.92-.72,2.75-.22.36-.46.75-.75,1.16-1.55,2.26-2.32,2.46-2.41,3.19-.28,2.35,6.63,7.01,13.37,5.79.67-.12,6.85-1.24,7.75-5.48.27-1.27-.01-2.46-.4-3.39-.45-1.09-.56-2.28-.27-3.43,2.8-11.22,5.32-23.79,7.08-37.59,1.95-15.23,1.86-30.58,2.29-45.9.4-14.46,6.63-25.16,11.16-38.77,6.28-18.93,9.23-36.36,10.49-50.9.72-.15,1.49-.33,2.32-.54,2.4,14.94,6.88,33.08,15.28,52.6,5.35,12.41,12.65,22.93,13.94,36.66,1.49,15.84,3.35,31.48,6.75,47.05,2.96,13.54,6.53,25.82,10.29,36.74.53,1.53.47,3.19-.09,4.71-.63,1.69-1.12,4.12-.07,6.42,1.93,4.21,7.54,4.61,10.01,4.79,6.14.44,13.63-2.21,13.73-5.36.05-1.55-1.7-2.97-3.67-4.07Z"/>
      </g>
      <g id="Schuhe-3" data-name="Schuhe">
        <path class="cls-16" d="M640.69,373.72c-5.71-1.64-10.12-3.72-14.61-4.97-.27.11-.56.22-.88.34-1.97.71-4.83,1.47-8.33,1.53-3.84.03-6.97-.81-9.02-1.56-.28-.11-.55-.22-.79-.31-.61,1.34-1.29,3.04-1.77,5.07-.52,2.25-.71,4.27-.71,5.82v2.48h48.91v-2.48s-.4-2.32-12.8-5.92Z"/>
        <path class="cls-16" d="M531.53,373.82c-.48-2.02-1.16-3.72-1.78-5.07-.33.13-.69.27-1.08.41-2.05.72-5.06,1.49-8.73,1.45-4.05-.07-7.25-1.08-9.2-1.87-.24.07-.49.14-.73.21-4.24,1.26-8.47,3.21-13.88,4.77-12.4,3.6-12.8,5.92-12.8,5.92v2.48h48.91v-2.48c0-1.56-.17-3.57-.7-5.82Z"/>
      </g>
      <g id="Hose-3" data-name="Hose">
        <path class="cls-2" d="M559.17,193.74c-3.11,20.07-6.16,40.15-9.15,60.25-5.42,36.46-10.63,72.95-15.64,109.46-3.85-.88-8.51-1.64-13.82-1.91-4.85-.24-9.19-.02-12.87.38-3.76-31.65-5.75-70.44-2.29-114.41,2-25.45,5.52-48.79,9.74-69.7,1.62-8.02,3.35-15.69,5.13-22.98,9.89,1.96,21.85,3.57,35.47,3.82.9.01,1.79.02,2.67.02l.53,24.4.23,10.67Z"/>
        <path class="cls-10" d="M629.35,360.02c-4.13-.26-8.81-.33-13.92,0-5.48.34-10.4,1.05-14.69,1.9-8.32-35.01-16.84-69.97-25.55-104.88-5.27-21.11-10.6-42.21-16.02-63.3l-.23-10.67-.53-24.4c13.96.09,26.2-1.3,36.23-3.07,2.56,7.18,5.09,14.71,7.54,22.57,5.69,18.19,10.98,38.16,15.34,59.8,9.35,46.27,12.03,87.81,11.83,122.05Z"/>
      </g>
      <g id="Oberteil-3" data-name="Oberteil">
        <path class="cls-11" d="M592.18,110.27h0s20.64-13.05,20.64-13.05l-14.44-22.84c-2.7-4.27-7.33-6.6-12.05-6.61,0,0-.02,0-.03,0h-.02c-1.61-.47-3.47-.88-5.56-1.12-3.86-.44-7.13-.12-9.44.29-.67.85-5.81,7.2-14.67,8.16h-.04l.04,2.43,1.72,105.55h.61c17.19.04,31.89-2.27,43.24-4.9.78-.19,1.54-.37,2.28-.55-.88-17.28-3.34-30.98-5.43-40.33-2.56-11.46-4.95-18.05-6.85-27.02Z"/>
        <path class="cls-25" d="M556.61,77.52l-.04-2.43c-.7.08-1.41.13-2.16.13-9.62.03-15.46-6.46-16.31-7.43-1.61-.43-4.23-.92-7.43-.58-.81.09-1.58.22-2.29.38h-.01s-.03,0-.05.01c-5.01-.73-10.25,1.27-13.4,5.64l-15.95,22.15,24.5,17.64h0c-1.08,7.73-2.56,13.93-4.82,26.83-2.62,15.01-4.32,27.81-5.43,37.47.63.16,1.27.32,1.92.47,11.09,2.67,25.29,5.03,41.84,5.25.45,0,.9,0,1.35,0l-1.72-105.55Z"/>
      </g>
    </g>
  </g>
</svg>