<?xml version="1.0" encoding="UTF-8"?>
<svg id="_0064_THK_3-2-1-Regel" data-name="0064_THK_3-2-1-Regel" xmlns="http://www.w3.org/2000/svg" viewBox="0 0 652.78 508.37">
  <defs>
    <style>
      .cls-1 {
        fill: #42210b;
      }

      .cls-1, .cls-2, .cls-3, .cls-4, .cls-5, .cls-6, .cls-7, .cls-8, .cls-9, .cls-10, .cls-11, .cls-12, .cls-13, .cls-14, .cls-15, .cls-16 {
        stroke-width: 0px;
      }

      .cls-2 {
        fill: #308fc9;
      }

      .cls-3 {
        fill: #206289;
      }

      .cls-4 {
        fill: #dddddc;
      }

      .cls-5 {
        fill: #e6710a;
      }

      .cls-6 {
        fill: #873567;
      }

      .cls-7 {
        fill: #000;
      }

      .cls-8 {
        fill: #73bbe7;
      }

      .cls-9 {
        fill: #dcbd92;
      }

      .cls-10 {
        fill: #b47d49;
      }

      .cls-11 {
        fill: #ec9447;
      }

      .cls-12 {
        fill: #64abd6;
      }

      .cls-13 {
        fill: #cbe3f1;
      }

      .cls-14 {
        fill: #fff;
      }

      .cls-15 {
        fill: #e1ccd9;
      }

      .cls-16 {
        fill: #f2b885;
      }
    </style>
  </defs>
  <g id="Person">
    <g id="Körper">
      <g id="Körper-2" data-name="Körper">
        <path class="cls-9" d="M384.89,260.83c-2.97,3.26-7.9,3.8-11.03,1.16-.27-.22-.51-.47-.73-.72-17.24-6.46-33.42-14.03-48.08-23.18.01-.01,0-.02.02-.03-1.23-.68-2.31-1.61-3.17-2.82-3.38-4.71-1.98-11.5,3.15-15.19,4.05-2.91,9.17-3,12.81-.6.01-.01,0-.04.02-.03,11.01,6.14,16.47,10.27,21.94,13.56,9.43,5.68,14.37,9.2,24.76,17.2.39.85,3.42,7.24.32,10.66Z"/>
        <path class="cls-9" d="M263.09,250.57c-1.8,1.06-12.97,7.67-27.44,13.47-2.67,1.07-6.39,2.54-9.34.76-4.27-2.57-4.81-7.96-3.57-10.33.54-1.04,1.42-1.84,1.42-1.84,0,0,.21-.2.43-.39,10.19-8.51,23.27-17.33,23.27-17.33,15.92-10.73,16.96-11.57,22.69-13.83,3.21-1.26,10.66-2.53,13.87,1.2,3.45,4.02,2.25,10.54.74,12.63-3.59,4.96-7.47,7.03-22.07,15.66Z"/>
        <path class="cls-9" d="M369.07,498.17c-2.71-1.52-4.42-4.37-4.3-7.47.17-4.5.21-10.05-.1-16.36-.37-7.57-1.2-13.24-1.62-17.06-2.03-18.61-4.75-36.07-7.89-52.32.07-1.54-.19-3.02-.71-4.39.04-.89-.02-1.75-.17-2.57-.14-12.09-.85-25.37-2.5-39.64-.99-8.62-2.26-17.21-3.83-25.75-1.12-6.07-1.85-12.25-3.78-18.14-.93-2.84-2.51-5.31-3.54-8.09-1.79-4.8-2.38-10.25-3.28-15.28-1.26-7.1-2.29-14.23-3.07-21.4-2.04-18.61-2.24-35.49-1.56-50.09-7.38-1.96-17.52-3.87-29.64-3.85-11.94.02-21.94,1.9-29.26,3.85.98,16.25,1.09,34.6-.42,54.63-.49,6.46-1.13,12.9-1.93,19.33-.37,3.01-.78,6.01-1.22,9.01-.38,2.57-.48,5.15-1.35,7.61-.77,2.19-1.43,4.41-1.96,6.67-.53,2.24-.5,4.56-.79,6.84-.48,3.87-.9,7.74-1.26,11.62-.76,8.19-1.25,16.41-1.48,24.63-.42,14.36.01,27.66.93,39.71-.07.6-.06,1.22-.02,1.85-.48,1.49-.65,3.1-.42,4.74-1.65,16.51-2.8,34.15-3.23,52.81-.26,11.43-.22,22.48.05,33.11.02.91-.2,1.79-.67,2.57-.2.33-.43.7-.7,1.08-1.45,2.11-2.16,2.29-2.25,2.98-.26,2.19,6.19,6.54,12.48,5.41.62-.11,6.39-1.15,7.23-5.12.25-1.18,0-2.29-.37-3.17-.42-1.02-.52-2.13-.25-3.2,2.62-10.47,4.96-22.21,6.61-35.09,2.4-18.73,2.78-35.67,2.21-50.14.28-1.07.4-2.19.33-3.33.18-.56.32-1.13.4-1.72,3.35-7.06,6.68-15.01,9.61-23.84,5.86-17.67,8.62-33.94,9.79-47.52.67-.14,1.39-.31,2.16-.5,2.24,13.95,6.43,30.88,14.26,49.1,3.69,8.55,7.68,16.18,11.62,22.93.11.48.27.95.44,1.41-.06,1.42.15,2.78.59,4.05.74,14.49,2.63,31.32,6.66,49.75,2.76,12.64,6.1,24.1,9.6,34.3.49,1.43.44,2.98-.09,4.39-.59,1.58-1.05,3.85-.06,5.99,1.8,3.93,7.04,4.31,9.35,4.47,5.73.41,12.72-2.06,12.82-5.01.05-1.45-1.59-2.77-3.43-3.8Z"/>
      </g>
      <g id="Schuhe">
        <path class="cls-1" d="M381.16,500.54c-5.34-1.54-9.45-3.48-13.64-4.64-.25.1-.52.2-.82.31-1.84.67-4.51,1.38-7.77,1.42-3.59.03-6.5-.75-8.43-1.45-.27-.1-.52-.2-.75-.29-.56,1.24-1.2,2.84-1.65,4.72-.49,2.1-.65,3.99-.65,5.44v2.32h45.66v-2.32s-.37-2.17-11.95-5.52Z"/>
        <path class="cls-1" d="M279.25,500.62c-.44-1.88-1.08-3.48-1.65-4.72-.3.12-.64.25-1.02.39-1.92.67-4.72,1.38-8.15,1.35-3.78-.06-6.77-1-8.59-1.74-.23.07-.46.13-.69.2h0c-3.96,1.17-7.9,2.98-12.95,4.44-11.58,3.35-11.95,5.52-11.95,5.52v2.32h45.65v-2.32c0-1.45-.16-3.33-.66-5.44Z"/>
      </g>
      <g id="Hose">
        <path class="cls-11" d="M305.63,333.61c-2.91,18.74-5.75,37.49-8.54,56.25-5.06,34.03-9.92,68.09-14.6,102.17-3.6-.82-7.95-1.53-12.9-1.78-4.53-.23-8.58-.02-12.01.35-3.52-29.55-5.36-65.75-2.14-106.8,2.58-32.87,7.88-61.95,13.88-86.51,9.23,1.82,20.39,3.32,33.11,3.56,1,.02,1.98.03,2.95.03l.26,32.72Z"/>
        <path class="cls-5" d="M371.14,488.84c-3.85-.24-8.22-.3-13,0-5.11.32-9.71.99-13.71,1.77-7.77-32.68-15.72-65.32-23.85-97.9-4.92-19.71-9.91-39.41-14.96-59.1l-.26-32.72c12.85.03,24.11-1.24,33.37-2.88,7.93,22.24,15.52,47.98,21.36,76.9,8.73,43.19,11.23,81.96,11.04,113.93Z"/>
      </g>
      <g id="Oberteil">
        <path class="cls-16" d="M302.23,222.95c-.35.02-.69.03-1.04.03-8.98.02-14.43-6.04-15.22-6.95-1.98-.4-5.27-.82-9.23-.11-3.91.7-6.83,2.21-8.54,3.26h0s-21.01,12.13-21.01,12.13l14.38,24.91,11.43-6.6c-.01,1.25-.04,2.51-.1,3.79-.49,9.57-2.46,14.94-5.07,29.9-2.45,14.02-4.03,25.97-5.07,34.98,10.6,2.67,24.49,5.13,40.85,5.35.58,0,1.16.02,1.74.02l-3.1-100.71Z"/>
        <path class="cls-11" d="M335.14,248.38l11.44,5.78,13.42-26.56-22.41-11.33c-1.35-.68-2.77-1.1-4.19-1.29,0,0,0,0,0-.01-2.52-.51-5.8-.91-9.61-.72-2.62.13-4.93.52-6.85.97-.64.83-5.82,7.22-14.71,7.72l3.1,100.71c17.18.04,31.71-2.43,42.59-5.09-.83-16.14-3.12-28.93-5.07-37.65-3.04-13.54-5.8-19.81-7.7-32.54Z"/>
      </g>
      <g id="Unterarme">
        <g id="Tabelle_Person" data-name="Tabelle Person">
          <g>
            <polygon class="cls-8" points="325.23 254.97 333.62 319.76 277.33 327.06 266.98 247.21 308.22 241.87 325.23 254.97"/>
            <polygon class="cls-2" points="310.17 256.93 308.22 241.87 325.23 254.97 310.17 256.93"/>
          </g>
          <g>
            <rect class="cls-3" x="279.01" y="266.41" width="38.29" height="1" transform="translate(-31.92 40.66) rotate(-7.41)"/>
            <rect class="cls-3" x="279.78" y="272.38" width="38.29" height="1" transform="translate(-32.68 40.81) rotate(-7.41)"/>
            <rect class="cls-3" x="280.5" y="277.89" width="38.29" height="1" transform="translate(-33.39 40.95) rotate(-7.41)"/>
            <rect class="cls-3" x="281.21" y="283.41" width="38.29" height="1" transform="translate(-34.09 41.08) rotate(-7.41)"/>
            <rect class="cls-3" x="281.93" y="288.92" width="38.29" height="1" transform="translate(-34.79 41.22) rotate(-7.41)"/>
            <rect class="cls-3" x="283.41" y="300.4" width="38.29" height="1" transform="translate(-36.26 41.51) rotate(-7.41)"/>
            <rect class="cls-3" x="282.67" y="294.66" width="38.29" height="1" transform="translate(-35.53 41.37) rotate(-7.41)"/>
            <rect class="cls-3" x="284.16" y="306.14" width="38.26" height="1" transform="translate(-37 41.65) rotate(-7.41)"/>
            <rect class="cls-3" x="284.89" y="311.76" width="38.29" height="1" transform="translate(-37.71 41.79) rotate(-7.41)"/>
          </g>
        </g>
        <path class="cls-9" d="M282.6,291.93s-.04-.1-.06-.16c-.34-.76-1.78-2.61-5.15-3.56,0,0-3.14-.88-4.9-1.81-.15-.08-.19-.2-.19-.2-.27-1.61-.54-3.23-.81-4.85-1.19-.4-2.59-.78-4.19-1.05-.69-.12-1.35-.2-1.99-.26-10.08-9.24-19.61-19.09-29.82-28.2-.45-.4-1.76-1.53-3.72-1.89-4.1-.75-8.53,2.31-9.5,5.97-.29,1.11-.21,2.04-.17,2.47.34,3.38,2.83,5.45,3.52,5.99,11.57,8.22,23.14,16.46,34.71,24.69.96.89,2.23,1.84,3.77,2.98,3.48,2.59,6.87,3.36,8.23,3.61.55.1,8.57,2.2,10.21-1.11.56-1.12.15-2.37.06-2.62Z"/>
        <path class="cls-9" d="M378.78,247.2c-.85-.11-2.56-.18-4.7.73-14.89,6.78-29.77,13.56-44.66,20.34-.36-.03-.72-.05-1.11-.07-.32-.01-1.34-.05-2.68.02-3.28.16-4.76.74-5.3.97-.1.04-.27.12-.62.28-1.1.51-2.84,1.32-5.04,2.47-4.68,2.46-5.17,3.19-5.2,3.85,0,.16,0,.54.25.87.69.92,2.62.54,3.53.35,3.54-.74,5.57-2.4,5.66-1.97.23,1.05-.04,2.31,1.12,4.47.07.13,1.24,2.23,3.43,2.84,2.49.69,4.77-1.04,7.26-2.67.19-.12.36-.25.54-.38.23-.1.43-.19.58-.27,16.2-4.92,32.39-9.86,48.59-14.78.93-.33,4.36-1.65,5.91-5.05.2-.43.61-1.37.68-2.62.23-4.14-3.53-8.79-8.24-9.38Z"/>
      </g>
    </g>
    <g id="Gesicht">
      <path class="cls-9" d="M323.39,183.43l-.27-1.47c-.33-1.79-1.84-3.07-3.57-3.22l-1.24-4.15c-2.84-9.51-12.94-14.98-22.45-12.14h0c-9.27,2.76-14.68,12.43-12.32,21.73-1.4.62-2.38,2.01-2.38,3.64v1.49c0,2.19,1.79,3.97,3.97,3.97.39,0,.75-.07,1.11-.18,1.75,4.62,5.11,8.26,9.25,10.43-.04.28-.06.56-.06.85v10.78c0,3.47,2.84,6.3,6.3,6.3h1.42c3.47,0,6.3-2.83,6.3-6.3v-9.99c.26-.07.52-.11.77-.19,7.74-2.31,12.52-9.9,11.62-17.66,1.18-.88,1.84-2.37,1.56-3.9Z"/>
      <g id="Augen">
        <rect class="cls-7" x="297.26" y="179.72" width="2.88" height="3.39" rx="1.44" ry="1.44" transform="translate(-25.78 51.61) rotate(-9.47)"/>
        <rect class="cls-7" x="311.22" y="177.4" width="2.88" height="3.39" rx="1.44" ry="1.44" transform="translate(-25.2 53.88) rotate(-9.47)"/>
      </g>
      <g id="Mund">
        <path class="cls-14" d="M313.21,194.89c.21.61-.99,1.75-2.25,2.3-2.78,1.2-6.48-.23-6.48-.23h0s2-1.62,4.04-2.28c1.97-.64,4.43-.54,4.68.22Z"/>
      </g>
      <g id="Nase">
        <path class="cls-7" d="M307.53,191.08c-.35,0-.71-.06-1.07-.19-.06-.02-.1-.09-.08-.16.02-.06.1-.1.16-.08.72.26,1.48.23,2.03-.07.3-.17.51-.4.57-.63.14-.59-.15-1.12-.9-1.6l-.1-.06c-.37-.24-.98-.64-1.36-1.38-.13-.26-.23-.65-.3-.92l-.03-.11c-.05-.33-.1-.59-.15-.86-.05-.25-.1-.51-.15-.82-.01-.07.03-.13.1-.14.07-.01.13.03.14.1.05.31.1.56.15.81.05.27.1.53.15.85l.03.11c.06.25.16.63.28.86.35.68.91,1.04,1.27,1.28l.1.06c.83.54,1.17,1.17,1.01,1.87-.07.31-.33.6-.69.8-.34.19-.74.28-1.17.28Z"/>
      </g>
      <path class="cls-1" d="M314.8,193.81c-2.43-.68-3.69-2.03-4.88-1.4-.28.15-.62.45-.91,1.08-.53-.49-1.01-.66-1.38-.71-1.55-.19-2.49,1.52-4.97,3-1.12.67-2.15,1.05-2.89,1.27.7.32,1.65.63,2.78.67,3.59.14,6.08-2.47,6.64-3.1.64.44,3.41,2.2,6.27,1.01.9-.37,1.57-.94,2.05-1.45-.67,0-1.61-.06-2.71-.36Z"/>
      <g id="Schatten">
        <path class="cls-10" d="M284.31,186.75c-.28,0-.68,1.13-.37,2.16.22.74.82,1.48,1.06,1.38.46-.19-.2-3.55-.68-3.55Z"/>
        <path class="cls-10" d="M309.47,205.2c-1.17.3-2.69.58-4.48.62-2.12.04-3.89-.27-5.19-.6,3.22,2.85,6.43,5.7,9.65,8.55,0-1.27-.01-2.55-.01-3.83,0-1.59.01-3.17.03-4.73Z"/>
      </g>
      <g id="Augenbrauen">
        <path class="cls-1" d="M309.29,175.41c.44-.34,1.26-.88,2.44-1.13,1.48-.32,2.68,0,3.22.19.78-.57.91-.95.86-1.21-.16-.88-2.69-1.44-4.79-.88-1.42.38-3.07,1.39-2.94,2.17.07.4.61.68,1.21.86Z"/>
        <path class="cls-1" d="M294.51,178.27c.39-.39,1.14-1.03,2.28-1.43,1.43-.5,2.66-.32,3.22-.21.7-.66.78-1.06.71-1.3-.27-.85-2.85-1.1-4.86-.28-1.36.55-2.88,1.76-2.65,2.52.12.39.68.6,1.3.71Z"/>
      </g>
      <path class="cls-1" d="M318.39,169.66c-.46-1.13-1.16-2.62-1.89-3.92.37-1.81.16-4.11-.92-5.95-1.64-2.81-4.76-3.67-6.74-4.22-5.61-1.55-10.54.02-11.88.48-5.03,1.72-4.77,3.75-9.5,4.73-3.2.66-5.4.16-6.42,1.7-1.11,1.68.17,4.33.29,4.58.44.9,1.17,1.71,2.1,2.43-1.17,2.44-1.22,5.74-1.19,6.8.05,1.55,1.26,7.61,1.26,7.61.37.07.79.1,1.37.22,1.22.24,1.82.37,2.49.74.75.41,1.21.93,1.95,1.75.37.41.65.77.84,1.03-.13-.54-.31-1.33-.51-2.29-.69-3.24-1.09-5.12-1.15-6.44-.14-2.87,1.24-4.76,2.29-6.35,8.6,1.92,20.27.73,24.33-3.99.19.26.41.56.65.96.33.54.53,1.05.89,1.72,1.77,3.32,2.8,7.95,2.9,7.45.05-.26.12-.48.12-.55-.11-5.66-1.28-8.49-1.28-8.49Z"/>
    </g>
  </g>
  <g id="Kleine_Gedankenblasen" data-name="Kleine Gedankenblasen">
    <path class="cls-13" d="M282.91,100.55c2.63,1.37,4.03,4.16,3.53,6.6-.65,3.16-4.42,5.51-8.3,4.34.69,2.48.18,5.06-1.42,6.44-2.33,2.02-7.02,1.52-9.69-2.23-.55,3.29-3.51,5.59-6.67,5.34-2.91-.23-5.34-2.57-5.71-5.6-2.12,2.7-6.02,2.93-8.23.86-1.93-1.81-2.24-5.06-.47-7.44-3.59.77-6.81-1.83-6.99-4.79-.16-2.54,1.92-5.16,4.98-5.62-2.19-1.95-2.61-5.07-1.28-7.15,1.62-2.51,5.63-3.23,8.43-.89-.12-2.51.86-4.91,2.7-6.04,2.76-1.7,7.37-.54,9.68,3.49,1.03-2.86,3.8-4.56,6.36-4.2,3.17.44,5.68,3.99,4.75,7.78,2.7-2.6,7.03-2.29,9.23.39,2.05,2.5,1.74,6.43-.88,8.7Z"/>
    <path class="cls-13" d="M283.61,139.71c1.23.64,1.88,1.94,1.64,3.08-.3,1.47-2.06,2.56-3.86,2.02.32,1.16.08,2.36-.66,3-1.08.94-3.27.71-4.51-1.04-.26,1.53-1.64,2.6-3.11,2.49-1.35-.11-2.49-1.2-2.66-2.61-.99,1.26-2.8,1.37-3.83.4-.9-.84-1.04-2.36-.22-3.46-1.67.36-3.17-.85-3.26-2.23-.07-1.18.9-2.4,2.32-2.62-1.02-.91-1.22-2.36-.59-3.33.75-1.17,2.62-1.5,3.92-.42-.05-1.17.4-2.28,1.26-2.81,1.29-.79,3.43-.25,4.51,1.63.48-1.33,1.77-2.12,2.96-1.96,1.47.21,2.65,1.86,2.21,3.62,1.26-1.21,3.27-1.07,4.3.18.95,1.16.81,2.99-.41,4.05Z"/>
    <path class="cls-13" d="M368.2,175.6c-2.63,1.37-4.03,4.16-3.53,6.6.65,3.16,4.42,5.51,8.3,4.34-.69,2.48-.18,5.06,1.42,6.44,2.33,2.02,7.02,1.52,9.69-2.23.55,3.29,3.51,5.59,6.67,5.34,2.91-.23,5.34-2.57,5.71-5.6,2.12,2.7,6.02,2.93,8.23.86,1.93-1.81,2.24-5.06.47-7.44,3.59.77,6.81-1.83,6.99-4.79.16-2.54-1.92-5.16-4.98-5.62,2.19-1.95,2.61-5.07,1.28-7.15-1.62-2.51-5.63-3.23-8.43-.89.12-2.51-.86-4.91-2.7-6.04-2.76-1.7-7.37-.54-9.68,3.49-1.03-2.86-3.8-4.56-6.36-4.2-3.17.44-5.68,3.99-4.75,7.78-2.7-2.6-7.03-2.29-9.23.39-2.05,2.5-1.74,6.43.88,8.7Z"/>
    <path class="cls-13" d="M338.52,152.56c-1.23.64-1.88,1.94-1.64,3.08.3,1.47,2.06,2.56,3.86,2.02-.32,1.16-.08,2.36.66,3,1.08.94,3.27.71,4.51-1.04.26,1.53,1.64,2.6,3.11,2.49,1.35-.11,2.49-1.2,2.66-2.61.99,1.26,2.8,1.37,3.83.4.9-.84,1.04-2.36.22-3.46,1.67.36,3.17-.85,3.26-2.23.07-1.18-.9-2.4-2.32-2.62,1.02-.91,1.22-2.36.59-3.33-.75-1.17-2.62-1.5-3.92-.42.05-1.17-.4-2.28-1.26-2.81-1.29-.79-3.43-.25-4.51,1.63-.48-1.33-1.77-2.12-2.96-1.96-1.47.21-2.65,1.86-2.21,3.62-1.26-1.21-3.27-1.07-4.3.18-.95,1.16-.81,2.99.41,4.05Z"/>
  </g>
  <g id="_3x" data-name="3x">
    <path class="cls-13" d="M209.5,132.05c12.54,5.85,19.21,17.76,16.79,28.22-3.11,13.49-21.08,23.53-39.53,18.55,3.3,10.62.85,21.64-6.75,27.53-11.1,8.61-33.43,6.49-46.17-9.53-2.62,14.05-16.74,23.89-31.8,22.83-13.85-.98-25.45-10.97-27.2-23.92-10.1,11.53-28.68,12.53-39.23,3.69-9.21-7.72-10.68-21.62-2.26-31.78C16.25,170.93.93,159.85.04,147.18c-.76-10.87,9.16-22.06,23.72-24.01-10.42-8.34-12.45-21.68-6.08-30.55,7.7-10.73,26.83-13.78,40.14-3.82-.56-10.73,4.08-20.96,12.88-25.83,13.15-7.27,35.09-2.3,46.11,14.92,4.93-12.23,18.1-19.48,30.3-17.95,15.09,1.89,27.06,17.05,22.62,33.23,12.88-11.12,33.49-9.81,43.97,1.69,9.74,10.68,8.3,27.46-4.21,37.19Z"/>
    <g>
      <g>
        <polygon class="cls-8" points="149.46 108.42 143.86 161.57 97.68 156.7 104.58 91.2 138.41 94.76 149.46 108.42"/>
        <polygon class="cls-2" points="137.11 107.11 138.41 94.76 149.46 108.42 137.11 107.11"/>
      </g>
      <g>
        <rect class="cls-3" x="125.15" y="97.12" width="1" height="31.32" transform="translate(.32 225.92) rotate(-83.98)"/>
        <rect class="cls-3" x="124.64" y="102.02" width="1" height="31.32" transform="translate(-5.01 229.8) rotate(-83.98)"/>
        <rect class="cls-3" x="124.16" y="106.54" width="1" height="31.32" transform="translate(-9.93 233.37) rotate(-83.98)"/>
        <rect class="cls-3" x="123.68" y="111.06" width="1" height="31.32" transform="translate(-14.86 236.94) rotate(-83.98)"/>
        <rect class="cls-3" x="123.21" y="115.58" width="1" height="31.32" transform="translate(-19.78 240.52) rotate(-83.98)"/>
        <rect class="cls-3" x="122.22" y="125" width="1" height="31.32" transform="translate(-30.04 247.96) rotate(-83.98)"/>
        <rect class="cls-3" x="122.71" y="120.29" width="1" height="31.32" transform="translate(-24.91 244.24) rotate(-83.98)"/>
        <rect class="cls-3" x="121.71" y="129.72" width="1" height="31.3" transform="translate(-35.17 251.68) rotate(-83.98)"/>
        <rect class="cls-3" x="121.23" y="134.33" width="1" height="31.32" transform="translate(-40.19 255.33) rotate(-83.98)"/>
      </g>
    </g>
    <g>
      <g>
        <polygon class="cls-8" points="81.01 109.72 87.88 162.72 41.83 168.69 33.36 103.37 67.1 99 81.01 109.72"/>
        <polygon class="cls-2" points="68.7 111.32 67.1 99 81.01 109.72 68.7 111.32"/>
      </g>
      <g>
        <rect class="cls-3" x="43.21" y="118.98" width="31.32" height="1" transform="translate(-14.91 8.58) rotate(-7.41)"/>
        <rect class="cls-3" x="43.84" y="123.87" width="31.32" height="1" transform="translate(-15.53 8.71) rotate(-7.41)"/>
        <rect class="cls-3" x="44.42" y="128.38" width="31.32" height="1" transform="translate(-16.11 8.82) rotate(-7.41)"/>
        <rect class="cls-3" x="45.01" y="132.89" width="31.32" height="1" transform="translate(-16.69 8.93) rotate(-7.41)"/>
        <rect class="cls-3" x="45.59" y="137.4" width="31.32" height="1" transform="translate(-17.26 9.05) rotate(-7.41)"/>
        <rect class="cls-3" x="46.81" y="146.79" width="31.32" height="1" transform="translate(-18.46 9.28) rotate(-7.41)"/>
        <rect class="cls-3" x="46.2" y="142.09" width="31.32" height="1" transform="translate(-17.86 9.16) rotate(-7.41)"/>
        <rect class="cls-3" x="47.42" y="151.49" width="31.3" height="1" transform="translate(-19.07 9.4) rotate(-7.41)"/>
        <rect class="cls-3" x="48.01" y="156.09" width="31.32" height="1" transform="translate(-19.65 9.51) rotate(-7.41)"/>
      </g>
    </g>
    <g>
      <g>
        <polygon class="cls-8" points="123.57 136.03 117.97 189.19 71.79 184.32 78.69 118.81 112.52 122.38 123.57 136.03"/>
        <polygon class="cls-2" points="111.22 134.73 112.52 122.38 123.57 136.03 111.22 134.73"/>
      </g>
      <g>
        <rect class="cls-3" x="99.26" y="124.74" width="1" height="31.32" transform="translate(-50.32 224.9) rotate(-83.98)"/>
        <rect class="cls-3" x="98.75" y="129.64" width="1" height="31.32" transform="translate(-55.65 228.77) rotate(-83.98)"/>
        <rect class="cls-3" x="98.27" y="134.16" width="1" height="31.32" transform="translate(-60.58 232.34) rotate(-83.98)"/>
        <rect class="cls-3" x="97.79" y="138.68" width="1" height="31.32" transform="translate(-65.5 235.92) rotate(-83.98)"/>
        <rect class="cls-3" x="97.32" y="143.2" width="1" height="31.32" transform="translate(-70.43 239.49) rotate(-83.98)"/>
        <rect class="cls-3" x="96.32" y="152.62" width="1" height="31.32" transform="translate(-80.68 246.94) rotate(-83.98)"/>
        <rect class="cls-3" x="96.82" y="147.91" width="1" height="31.32" transform="translate(-75.55 243.21) rotate(-83.98)"/>
        <rect class="cls-3" x="95.82" y="157.34" width="1" height="31.3" transform="translate(-85.82 250.65) rotate(-83.98)"/>
        <rect class="cls-3" x="95.34" y="161.95" width="1" height="31.32" transform="translate(-90.83 254.31) rotate(-83.98)"/>
      </g>
    </g>
  </g>
  <g id="_1x" data-name="1x">
    <path class="cls-13" d="M635.5,214.71c12.54,5.85,19.21,17.76,16.79,28.22-3.11,13.49-21.08,23.53-39.53,18.55,3.3,10.62.85,21.64-6.75,27.53-11.1,8.61-33.43,6.49-46.17-9.53-2.62,14.05-16.74,23.89-31.8,22.83-13.85-.98-25.45-10.97-27.2-23.92-10.1,11.53-28.68,12.53-39.23,3.69-9.21-7.72-10.68-21.62-2.26-31.78-17.11,3.28-32.43-7.8-33.32-20.47-.76-10.87,9.16-22.06,23.72-24.01-10.42-8.34-12.45-21.68-6.08-30.55,7.7-10.73,26.83-13.78,40.14-3.82-.56-10.73,4.08-20.96,12.88-25.83,13.15-7.27,35.09-2.3,46.11,14.92,4.93-12.23,18.1-19.48,30.3-17.95,15.09,1.89,27.06,17.05,22.62,33.23,12.88-11.12,33.49-9.81,43.97,1.69,9.74,10.68,8.3,27.46-4.21,37.19Z"/>
    <path class="cls-2" d="M543.24,190.03l-.15-.25h-.01c-6.99-11.72-19.74-19.05-33.38-19.14h-.26s-.27,0-.27,0c-13.64.09-26.4,7.42-33.38,19.14h-.01l-.15.25c-3.5,5.97-5.34,12.8-5.34,19.76,0,3.46.46,6.88,1.35,10.19.89,3.31,2.21,6.49,3.94,9.46l.14.25h.01c6.97,11.78,19.75,19.15,33.44,19.24h.26s0,0,0,0,0,0,0,0h.26c13.69-.09,26.47-7.46,33.44-19.25h.01l.14-.25c3.46-5.94,5.28-12.74,5.28-19.65s-1.85-13.79-5.34-19.76ZM547.43,213.09c-.05.56-.09,1.12-.17,1.68-.04.32-.11.64-.16.96-.08.5-.15,1-.25,1.5-.07.34-.16.67-.23,1.01-.11.47-.21.95-.33,1.41-.09.34-.2.68-.31,1.02-.14.45-.26.91-.41,1.36-.12.34-.25.68-.38,1.02-.16.44-.32.87-.49,1.3-.14.34-.3.67-.45,1.01-.19.42-.37.84-.57,1.26-.16.33-.35.66-.52.99-.19.36-.38.73-.58,1.08h-14.85c1.62-5.48,2.55-11.75,2.6-18.42l17.25.02c0,.67-.02,1.34-.07,2-.02.27-.06.53-.08.8ZM476.3,228.68c-.2-.35-.39-.72-.58-1.08-.17-.33-.36-.66-.52-.99-.2-.41-.38-.84-.57-1.26-.15-.34-.31-.67-.45-1.01-.18-.43-.33-.87-.49-1.31-.13-.34-.26-.68-.38-1.02-.15-.45-.28-.91-.41-1.36-.1-.34-.21-.68-.31-1.02-.12-.47-.22-.94-.33-1.41-.08-.34-.17-.67-.23-1.01-.1-.5-.17-1-.25-1.5-.05-.32-.11-.64-.16-.96-.07-.56-.12-1.12-.17-1.68-.02-.27-.06-.53-.08-.8-.05-.7-.06-1.4-.07-2.1l17.25.02c.04,6.69.98,12.99,2.6,18.48h-14.85ZM471.45,206.45c.05-.56.09-1.12.17-1.68.04-.33.11-.65.16-.98.08-.5.15-1,.25-1.49.07-.35.16-.69.24-1.04.11-.47.21-.94.33-1.4.09-.35.21-.7.32-1.05.13-.45.26-.9.41-1.34.12-.35.26-.7.39-1.05.16-.43.31-.86.49-1.28.15-.35.31-.7.47-1.05.19-.41.36-.82.56-1.23.17-.35.37-.69.55-1.03.19-.35.37-.71.57-1.05h14.82c-1.63,5.47-2.58,11.75-2.63,18.42l-17.24-.02c.01-.64.02-1.28.06-1.92.02-.27.06-.54.08-.81ZM542.51,190.78c.2.35.38.7.57,1.05.18.34.38.68.55,1.03.2.4.38.82.56,1.23.16.35.33.69.47,1.05.18.42.33.85.49,1.28.13.35.27.7.39,1.05.15.44.28.89.41,1.34.1.35.22.7.32,1.05.12.46.22.93.33,1.4.08.35.17.69.24,1.04.1.49.17.99.25,1.49.05.33.12.65.16.98.07.56.12,1.12.17,1.68.02.27.06.54.08.81.04.67.06,1.34.07,2.02l-17.25-.02c-.05-6.7-.99-12.99-2.63-18.48h14.82ZM529.32,209.26l-19.38-.03v-18.45h16.74c1.64,5.46,2.6,11.76,2.65,18.48ZM509.94,189.78v-18.12c6.94.33,13,7.5,16.43,18.12h-16.43ZM508.94,189.78h-16.43c3.43-10.62,9.49-17.79,16.43-18.12v18.12ZM508.94,190.78v18.45l-19.38-.03c.05-6.7,1.01-12.98,2.65-18.43h16.74ZM489.55,210.2l19.39.03v18.45h-16.77c-1.63-5.46-2.58-11.76-2.62-18.48ZM508.94,229.68v18.22c-6.96-.33-13.04-7.54-16.46-18.22h16.46ZM509.94,229.68h16.46c-3.42,10.68-9.5,17.89-16.46,18.22v-18.22ZM509.94,228.68v-18.45l19.39.03c-.04,6.7-.99,12.98-2.62,18.42h-16.77ZM541.9,189.78h-14.52c-2.73-8.55-7.14-15-12.38-17.72,11.03,1.65,20.96,8.12,26.9,17.72ZM503.86,172.06c-5.24,2.72-9.65,9.17-12.37,17.72h-14.52c5.93-9.6,15.86-16.07,26.89-17.72ZM476.91,229.68h14.55c2.72,8.61,7.15,15.09,12.41,17.82-11.07-1.65-21.03-8.16-26.96-17.82ZM515.01,247.5c5.26-2.73,9.68-9.22,12.41-17.82h14.55c-5.92,9.66-15.88,16.17-26.96,17.82Z"/>
    <g>
      <path class="cls-8" d="M596.21,250.34v17h-94.63v-13.2c0-3.11,1.43-6.58,3.56-9.54,2.56-3.55,6.13-6.36,9.48-6.96-.34-1.42-.51-2.9-.51-4.42,0-10.56,8.56-19.13,19.13-19.13,6.67,0,12.54,3.41,15.96,8.58,2.4-2.02,5.49-3.23,8.87-3.23,6.76,0,12.38,4.86,13.55,11.28,1.32-1.07,2.66-1.65,4.37-1.77,7.11-.49,15.98,7.41,19.08,15.65.73,1.93,1.14,3.88,1.14,5.74Z"/>
      <path class="cls-2" d="M522.86,260.34v11.01h61.31v-8.55c0-2.02-.92-4.26-2.31-6.18-1.66-2.3-3.97-4.12-6.14-4.51.22-.92.33-1.88.33-2.86,0-6.84-5.55-12.39-12.39-12.39-4.32,0-8.12,2.21-10.34,5.56-1.55-1.31-3.56-2.09-5.75-2.09-4.38,0-8.02,3.15-8.78,7.31-.85-.69-1.73-1.07-2.83-1.15-4.61-.32-10.35,4.8-12.36,10.14-.47,1.25-.74,2.51-.74,3.72Z"/>
    </g>
  </g>
  <g id="_2x" data-name="2x">
    <path class="cls-13" d="M477.53,65.93c9.94,4.64,15.22,14.08,13.31,22.37-2.46,10.69-16.7,18.65-31.33,14.7,2.61,8.41.67,17.15-5.35,21.82-8.79,6.82-26.49,5.14-36.59-7.55-2.08,11.13-13.27,18.94-25.2,18.09-10.97-.78-20.17-8.7-21.56-18.96-8,9.14-22.73,9.93-31.09,2.92-7.3-6.12-8.47-17.13-1.79-25.18-13.56,2.6-25.7-6.18-26.41-16.22-.6-8.61,7.26-17.48,18.8-19.02-8.26-6.61-9.87-17.18-4.82-24.21,6.1-8.5,21.27-10.92,31.81-3.03-.44-8.51,3.24-16.61,10.21-20.47,10.42-5.76,27.81-1.82,36.54,11.82,3.91-9.69,14.35-15.44,24.01-14.23,11.96,1.5,21.45,13.51,17.93,26.33,10.21-8.81,26.54-7.77,34.85,1.34,7.72,8.46,6.58,21.76-3.33,29.48Z"/>
    <g id="Diskette">
      <polygon id="Form" class="cls-8" points="436.76 31.93 416.1 84 361.46 62.32 386.19 0 430.58 17.61 436.76 31.93"/>
      <g id="Details">
        <rect class="cls-2" x="374.79" y="41.09" width="41.99" height="28.82" transform="translate(48.37 -142.05) rotate(21.64)"/>
        <g>
          <rect class="cls-4" x="398" y="33.12" width="1" height="31.07" transform="translate(206.31 401.12) rotate(-68.36)"/>
          <rect class="cls-4" x="396.19" y="37.68" width="1" height="31.07" transform="translate(200.93 402.32) rotate(-68.36)"/>
          <rect class="cls-4" x="394.38" y="42.25" width="1" height="31.07" transform="translate(195.55 403.52) rotate(-68.36)"/>
          <rect class="cls-4" x="392.57" y="46.81" width="1" height="31.07" transform="translate(190.16 404.72) rotate(-68.36)"/>
        </g>
        <rect class="cls-4" x="393.63" y="10.24" width="33.55" height="16.58" transform="translate(35.76 -150.05) rotate(21.64)"/>
        <rect class="cls-3" x="413.68" y="13.44" width="10.22" height="13.4" transform="translate(36.95 -153.03) rotate(21.64)"/>
      </g>
    </g>
    <g id="Usb_Stick" data-name="Usb Stick">
      <g id="Stick">
        <path class="cls-3" d="M340.13,38.58h32.88v57.25c0,6.22-5.05,11.26-11.26,11.26h-10.36c-6.22,0-11.26-5.05-11.26-11.26v-57.25h0Z" transform="translate(14.3 196.52) rotate(-31.41)"/>
        <circle class="cls-12" cx="369.51" cy="94.01" r="4.39"/>
      </g>
      <g id="Kappe">
        <rect class="cls-8" x="322.14" y="25" width="22.16" height="18.67" transform="translate(30.94 178.7) rotate(-31.41)"/>
        <g>
          <rect class="cls-4" x="325.95" y="35.89" width="6.8" height="3.26" transform="translate(28.71 177.15) rotate(-31.41)"/>
          <rect class="cls-4" x="334.55" y="30.64" width="6.8" height="3.26" transform="translate(32.71 180.87) rotate(-31.41)"/>
        </g>
        <rect class="cls-4" x="327.38" y="42.2" width="22.16" height="1.43" transform="translate(27.24 182.69) rotate(-31.41)"/>
      </g>
    </g>
  </g>
  <g id="Text">
    <g>
      <path class="cls-6" d="M135.6,176.38l7.39-.89c.3,2.1.85,3.55,1.65,4.35.8.81,1.86,1.21,3.18,1.21,1.75,0,3.21-.59,4.37-1.77,1.15-1.18,1.73-2.69,1.73-4.54,0-1.61-.47-2.89-1.4-3.83-.93-.94-2.19-1.41-3.76-1.41-.39,0-.81.04-1.24.11l1.34-6.42c.27.04.53.05.78.05,2.06,0,3.63-.52,4.7-1.57,1.07-1.05,1.61-2.47,1.61-4.26,0-1.27-.36-2.27-1.09-3.01-.72-.73-1.68-1.1-2.86-1.1-1.11,0-2.1.41-2.98,1.22-.88.82-1.58,2.21-2.1,4.18l-7.04-1.4c.89-2.9,2.14-5.13,3.73-6.69,2.42-2.33,5.39-3.49,8.92-3.49s6.37,1.01,8.25,3.02c1.88,2.01,2.82,4.43,2.82,7.24,0,2.04-.6,3.89-1.8,5.53-1.2,1.65-2.85,2.86-4.94,3.63,1.67.88,2.89,2.01,3.68,3.41.79,1.4,1.18,2.86,1.18,4.38,0,2.9-1.03,5.57-3.09,8-2.81,3.33-6.44,5-10.88,5-3.33,0-6.08-.95-8.23-2.86s-3.47-4.61-3.93-8.1Z"/>
      <path class="cls-6" d="M178.74,178.66l-7.09,8h-9.46l13.19-14.61-7.25-13.91h8.19l4.16,8.14,7.23-8.14h9.38l-13.24,14.8,7.2,13.73h-8.19l-4.11-8Z"/>
    </g>
    <g>
      <path class="cls-6" d="M560.1,207.77l1.45-6.88c6.64-2.9,11.78-6.28,15.42-10.13h4.7l-8.3,39.62h-7.76l5.72-27.29c-1.61,1.04-3.47,1.99-5.57,2.85-2.1.86-3.99,1.47-5.65,1.83Z"/>
      <path class="cls-6" d="M599.51,222.38l-7.09,8h-9.46l13.19-14.61-7.25-13.91h8.19l4.16,8.14,7.23-8.14h9.38l-13.24,14.8,7.2,13.73h-8.19l-4.11-8Z"/>
    </g>
    <g>
      <path class="cls-6" d="M408.38,88.94l-7.55-1.13c.61-3.65,2.03-6.45,4.26-8.39,2.23-1.94,5.02-2.91,8.37-2.91,3.67,0,6.55.99,8.65,2.98,2.09,1.99,3.14,4.51,3.14,7.57,0,1.56-.32,3.12-.97,4.69-.65,1.57-1.7,3.21-3.17,4.93-1.06,1.22-2.79,2.94-5.18,5.17s-3.99,3.75-4.77,4.57c-.78.82-1.53,1.68-2.24,2.59h13.65l-1.45,7.04h-23.93c.25-1.93.82-3.77,1.71-5.52.89-1.75,1.99-3.37,3.32-4.88,1.33-1.5,3.75-3.93,7.28-7.28,2.65-2.54,4.32-4.2,5.02-4.97,1.25-1.4,2.11-2.61,2.58-3.63.46-1.02.7-1.94.7-2.77,0-1.32-.39-2.4-1.17-3.22-.78-.82-1.77-1.24-2.97-1.24s-2.28.46-3.2,1.38c-.91.92-1.6,2.59-2.07,5.01Z"/>
      <path class="cls-6" d="M439.78,108.03l-7.09,8h-9.46l13.19-14.61-7.25-13.91h8.19l4.16,8.14,7.23-8.14h9.38l-13.24,14.8,7.2,13.73h-8.19l-4.11-8Z"/>
    </g>
    <g id="Hintergrund">
      <polygon class="cls-15" points="603.36 278.62 596.08 314.53 478.68 314.53 485.96 278.62 603.36 278.62"/>
      <polygon class="cls-15" points="153.46 192.86 146.18 228.78 28.78 228.78 36.06 192.86 153.46 192.86"/>
      <polygon class="cls-15" points="577.23 42.03 569.95 77.94 452.55 77.94 459.83 42.03 577.23 42.03"/>
    </g>
    <g>
      <path class="cls-6" d="M41.8,206.85l1.79-8.59h1.77l-.76,3.65,3.97-3.65h2.37l-3.86,3.37,2.83,5.22h-2l-2.12-4.09-1.67,1.46-.55,2.63h-1.78Z"/>
      <path class="cls-6" d="M50.72,204.27c0-1.15.33-2.07.98-2.76s1.5-1.03,2.56-1.03c.92,0,1.63.25,2.15.76s.77,1.19.77,2.04c0,1.01-.32,1.88-.97,2.61s-1.51,1.1-2.59,1.1c-.59,0-1.11-.12-1.56-.35s-.79-.57-1.01-1-.33-.89-.33-1.38ZM55.51,203.07c0-.4-.12-.72-.35-.96s-.53-.36-.9-.36-.69.11-.97.34-.5.55-.66.98-.23.82-.23,1.18c0,.45.12.8.36,1.06s.55.39.91.39c.46,0,.85-.2,1.16-.59.45-.56.67-1.24.67-2.04Z"/>
      <path class="cls-6" d="M59.05,200.63h1.59l-.13.64c.34-.28.66-.48.96-.6s.62-.18.96-.18c.65,0,1.18.22,1.57.67s.59,1.12.59,2.01c0,1.12-.34,2.07-1.03,2.84-.59.66-1.28.99-2.08.99s-1.45-.33-1.87-1l-.67,3.23h-1.68l1.79-8.6ZM60.07,204.2c0,.48.12.86.35,1.13s.51.4.83.4c.28,0,.54-.1.8-.3s.47-.54.64-1,.25-.9.25-1.3c0-.46-.11-.82-.33-1.07s-.51-.37-.85-.37c-.32,0-.61.11-.88.34s-.47.56-.61,1.01-.22.83-.22,1.16Z"/>
      <path class="cls-6" d="M66.44,200.63h1.68l-1.3,6.22h-1.68l1.3-6.22ZM66.93,198.26h1.68l-.32,1.52h-1.68l.32-1.52Z"/>
      <path class="cls-6" d="M74.53,204.26h-4.22c0,.07,0,.12,0,.15,0,.41.12.75.35,1s.52.38.86.38c.56,0,.99-.29,1.31-.87l1.51.25c-.29.61-.68,1.06-1.17,1.36s-1.04.45-1.65.45c-.84,0-1.52-.26-2.04-.79s-.79-1.23-.79-2.1.24-1.61.71-2.27c.64-.9,1.56-1.35,2.76-1.35.76,0,1.37.24,1.82.71s.67,1.13.67,1.98c0,.41-.04.77-.12,1.1ZM73.11,203.24c0-.07,0-.13,0-.17,0-.46-.1-.81-.31-1.04s-.48-.35-.83-.35-.66.13-.93.39-.46.65-.56,1.16h2.63Z"/>
      <path class="cls-6" d="M76.47,200.63h1.59l-.16.81c.4-.34.77-.59,1.12-.74s.71-.22,1.09-.22c.51,0,.92.15,1.21.44s.44.68.44,1.17c0,.22-.06.63-.19,1.24l-.73,3.52h-1.68l.74-3.53c.11-.53.16-.84.16-.94,0-.21-.06-.38-.19-.51s-.3-.18-.53-.18c-.25,0-.52.1-.82.31s-.54.48-.71.82c-.12.24-.27.74-.42,1.48l-.53,2.55h-1.68l1.3-6.22Z"/>
      <path class="cls-6" d="M91.56,206.85h-1.59l.14-.67c-.3.29-.6.5-.9.63s-.63.19-1,.19c-.64,0-1.17-.22-1.57-.66s-.6-1.09-.6-1.95c0-1,.28-1.9.84-2.7s1.31-1.21,2.23-1.21c.84,0,1.46.33,1.88,1l.67-3.22h1.68l-1.79,8.59ZM87.67,204.32c0,.45.11.79.34,1.04s.5.38.83.38c.3,0,.59-.1.85-.31s.47-.53.63-.96.24-.84.24-1.24c0-.45-.12-.81-.36-1.09s-.52-.42-.84-.42c-.49,0-.9.27-1.21.82s-.47,1.14-.47,1.78Z"/>
      <path class="cls-6" d="M99.2,204.26h-4.22c0,.07,0,.12,0,.15,0,.41.12.75.35,1s.52.38.86.38c.56,0,.99-.29,1.31-.87l1.51.25c-.29.61-.68,1.06-1.17,1.36s-1.04.45-1.65.45c-.84,0-1.52-.26-2.04-.79s-.79-1.23-.79-2.1.24-1.61.71-2.27c.64-.9,1.56-1.35,2.76-1.35.76,0,1.37.24,1.82.71s.67,1.13.67,1.98c0,.41-.04.77-.12,1.1ZM97.78,203.24c0-.07,0-.13,0-.17,0-.46-.1-.81-.31-1.04s-.48-.35-.83-.35-.66.13-.93.39-.46.65-.56,1.16h2.63Z"/>
      <path class="cls-6" d="M101.02,200.63h1.57l-.25,1.21c.59-.9,1.22-1.35,1.9-1.35.24,0,.5.06.78.18l-.64,1.38c-.15-.05-.31-.08-.49-.08-.29,0-.58.11-.88.33s-.53.51-.7.88-.33.94-.5,1.74l-.41,1.95h-1.68l1.3-6.22Z"/>
      <path class="cls-6" d="M107.86,206.85l1.8-8.59h2.31c.64,0,1.06,0,1.24.03.36.04.67.11.95.22s.53.26.76.46.43.43.59.71.29.6.38.96.13.76.13,1.19c0,.93-.18,1.75-.53,2.46s-.8,1.29-1.33,1.71c-.41.33-.94.57-1.59.73-.37.09-.93.13-1.69.13h-3.03ZM109.91,205.47h.9c.65,0,1.12-.04,1.41-.12s.56-.23.8-.45c.35-.32.64-.74.88-1.27s.36-1.15.36-1.86c0-.61-.1-1.07-.3-1.37s-.44-.51-.73-.61c-.2-.07-.56-.11-1.08-.11h-1.03l-1.21,5.79Z"/>
      <path class="cls-6" d="M118.85,202.39l-1.64-.14c.19-.55.51-.99.98-1.3s1.08-.47,1.85-.47,1.39.16,1.78.48.57.72.57,1.18c0,.19-.02.39-.05.6s-.15.77-.35,1.66c-.16.74-.25,1.26-.25,1.56,0,.27.05.56.14.88h-1.63c-.07-.23-.11-.46-.12-.7-.25.27-.53.48-.85.63s-.64.22-.97.22c-.52,0-.94-.17-1.28-.51s-.5-.77-.5-1.3c0-.59.18-1.07.55-1.42s1.03-.57,1.98-.64c.8-.07,1.34-.15,1.61-.24.07-.23.11-.42.11-.56,0-.18-.07-.33-.22-.45s-.36-.18-.64-.18c-.3,0-.54.06-.71.18s-.29.3-.35.52ZM120.45,203.95c-.1.03-.24.05-.4.08-.84.1-1.39.25-1.65.45-.18.14-.28.33-.28.57,0,.2.07.36.21.5s.33.2.56.2c.25,0,.49-.06.72-.18s.39-.28.5-.47.21-.5.3-.91l.05-.22Z"/>
      <path class="cls-6" d="M123.58,201.88l.26-1.25h.82l.21-1,1.93-1.16-.45,2.16h1.03l-.26,1.25h-1.03l-.54,2.61c-.1.47-.15.74-.15.81,0,.13.04.23.12.3s.23.11.45.11c.07,0,.26-.01.56-.04l-.26,1.25c-.29.06-.59.09-.89.09-.59,0-1.03-.11-1.29-.34s-.4-.55-.4-.95c0-.19.07-.63.22-1.32l.52-2.5h-.81Z"/>
      <path class="cls-6" d="M133.21,204.26h-4.22c0,.07,0,.12,0,.15,0,.41.12.75.35,1s.52.38.86.38c.56,0,.99-.29,1.31-.87l1.51.25c-.29.61-.68,1.06-1.17,1.36s-1.04.45-1.65.45c-.84,0-1.52-.26-2.04-.79s-.79-1.23-.79-2.1.24-1.61.71-2.27c.64-.9,1.56-1.35,2.76-1.35.76,0,1.37.24,1.82.71s.67,1.13.67,1.98c0,.41-.04.77-.12,1.1ZM131.79,203.24c0-.07,0-.13,0-.17,0-.46-.1-.81-.31-1.04s-.48-.35-.83-.35-.66.13-.93.39-.46.65-.56,1.16h2.63Z"/>
      <path class="cls-6" d="M135.15,200.63h1.59l-.16.81c.4-.34.77-.59,1.12-.74s.71-.22,1.09-.22c.51,0,.92.15,1.21.44s.44.68.44,1.17c0,.22-.06.63-.19,1.24l-.73,3.52h-1.68l.74-3.53c.11-.53.16-.84.16-.94,0-.21-.06-.38-.19-.51s-.3-.18-.53-.18c-.25,0-.52.1-.82.31s-.54.48-.71.82c-.12.24-.27.74-.42,1.48l-.53,2.55h-1.68l1.3-6.22Z"/>
      <path class="cls-6" d="M55.21,223.38h-1.14c-.32-.75-.56-1.5-.71-2.26s-.23-1.46-.23-2.1c0-.8.13-1.6.38-2.4s.65-1.62,1.17-2.45c.33-.53.87-1.21,1.6-2.04h1.28c-.75.88-1.32,1.7-1.73,2.47s-.71,1.61-.91,2.51-.3,1.79-.3,2.66c0,.59.04,1.16.13,1.71s.24,1.19.45,1.91Z"/>
      <path class="cls-6" d="M58.11,214.63h1.68l-1.3,6.22h-1.68l1.3-6.22ZM58.6,212.26h1.68l-.32,1.52h-1.68l.32-1.52Z"/>
      <path class="cls-6" d="M61.47,214.63h1.59l-.16.81c.4-.34.77-.59,1.12-.74s.71-.22,1.09-.22c.51,0,.92.15,1.21.44s.44.68.44,1.17c0,.22-.06.63-.19,1.24l-.73,3.52h-1.68l.74-3.53c.11-.53.16-.84.16-.94,0-.21-.06-.38-.19-.51s-.3-.18-.53-.18c-.25,0-.52.1-.82.31s-.54.48-.71.82c-.12.24-.27.74-.42,1.48l-.53,2.55h-1.68l1.3-6.22Z"/>
      <path class="cls-6" d="M67.44,220.85l1.8-8.59h1.68l-.94,4.47,2.19-2.1h2.19l-2.5,2.26,1.33,3.96h-1.68l-.86-2.88-1.14,1.01-.39,1.87h-1.68Z"/>
      <path class="cls-6" d="M74.14,220.85l1.8-8.59h1.68l-1.79,8.59h-1.68Z"/>
      <path class="cls-6" d="M77.87,219.23h1.66l-.34,1.62h-1.66l.34-1.62Z"/>
      <path class="cls-6" d="M84.72,217.48c0-.51.08-1.04.23-1.61.2-.75.5-1.41.91-1.96s.92-.99,1.54-1.32,1.33-.48,2.12-.48c1.06,0,1.92.33,2.58.99s.98,1.54.98,2.62c0,.91-.21,1.78-.64,2.63s-1,1.5-1.73,1.96-1.56.69-2.48.69c-.8,0-1.47-.18-2.02-.54s-.93-.81-1.15-1.35-.34-1.08-.34-1.63ZM86.46,217.45c0,.59.18,1.08.54,1.48s.83.6,1.42.6c.48,0,.93-.16,1.37-.47s.8-.79,1.09-1.43.43-1.26.43-1.87c0-.68-.18-1.21-.54-1.59s-.83-.58-1.39-.58c-.86,0-1.57.4-2.11,1.21s-.81,1.69-.81,2.65Z"/>
      <path class="cls-6" d="M94.69,214.63h1.57l-.25,1.21c.59-.9,1.22-1.35,1.9-1.35.24,0,.5.06.78.18l-.64,1.38c-.15-.05-.31-.08-.49-.08-.29,0-.58.11-.88.33s-.53.51-.7.88-.33.94-.5,1.74l-.41,1.95h-1.68l1.3-6.22Z"/>
      <path class="cls-6" d="M99.45,214.63h1.68l-1.3,6.22h-1.68l1.3-6.22ZM99.95,212.26h1.68l-.32,1.52h-1.68l.32-1.52Z"/>
      <path class="cls-6" d="M101.4,221.18l1.78.26c0,.18.03.32.09.41s.15.17.28.23.31.1.54.1c.36,0,.64-.07.86-.21.16-.11.29-.29.39-.53.06-.15.14-.48.24-1l.06-.29c-.58.48-1.18.73-1.8.73s-1.11-.21-1.5-.64-.59-1.06-.59-1.89c0-.73.13-1.4.4-2.01s.64-1.07,1.12-1.38.97-.47,1.47-.47c.41,0,.79.11,1.14.33s.61.53.8.92l.23-1.1h1.58l-1.08,5.19c-.18.83-.32,1.43-.45,1.78s-.26.64-.42.85-.35.39-.59.53-.52.25-.84.31-.68.09-1.05.09c-.88,0-1.54-.15-1.99-.45s-.67-.8-.67-1.5c0-.07,0-.16.02-.25ZM103.38,218.17c0,.47.11.83.32,1.08s.48.37.8.37c.29,0,.58-.11.85-.33s.49-.54.63-.95.22-.81.22-1.19c0-.44-.12-.8-.36-1.07s-.51-.4-.83-.4-.58.12-.83.36-.46.61-.62,1.1c-.12.38-.19.73-.19,1.03Z"/>
      <path class="cls-6" d="M110.12,214.63h1.68l-1.3,6.22h-1.68l1.3-6.22ZM110.61,212.26h1.68l-.32,1.52h-1.68l.32-1.52Z"/>
      <path class="cls-6" d="M113.48,214.63h1.59l-.16.81c.4-.34.77-.59,1.12-.74s.71-.22,1.09-.22c.51,0,.92.15,1.21.44s.44.68.44,1.17c0,.22-.06.63-.19,1.24l-.73,3.52h-1.68l.74-3.53c.11-.53.16-.84.16-.94,0-.21-.06-.38-.19-.51s-.3-.18-.53-.18c-.25,0-.52.1-.82.31s-.54.48-.71.82c-.12.24-.27.74-.42,1.48l-.53,2.55h-1.68l1.3-6.22Z"/>
      <path class="cls-6" d="M121.85,216.39l-1.64-.14c.19-.55.51-.99.98-1.3s1.08-.47,1.85-.47,1.39.16,1.78.48.57.72.57,1.18c0,.19-.02.39-.05.6s-.15.77-.35,1.66c-.16.74-.25,1.26-.25,1.56,0,.27.05.56.14.88h-1.63c-.07-.23-.11-.46-.12-.7-.25.27-.53.48-.85.63s-.64.22-.97.22c-.52,0-.94-.17-1.28-.51s-.5-.77-.5-1.3c0-.59.18-1.07.55-1.42s1.03-.57,1.98-.64c.8-.07,1.34-.15,1.61-.24.07-.23.11-.42.11-.56,0-.18-.07-.33-.22-.45s-.36-.18-.64-.18c-.3,0-.54.06-.71.18s-.29.3-.35.52ZM123.45,217.95c-.1.03-.24.05-.4.08-.84.1-1.39.25-1.65.45-.18.14-.28.33-.28.57,0,.2.07.36.21.5s.33.2.56.2c.25,0,.49-.06.72-.18s.39-.28.5-.47.21-.5.3-.91l.05-.22Z"/>
      <path class="cls-6" d="M126.14,220.85l1.8-8.59h1.68l-1.79,8.59h-1.68Z"/>
      <path class="cls-6" d="M130.42,212.12h1.14c.32.74.56,1.5.71,2.26s.23,1.46.23,2.1c0,.8-.13,1.6-.38,2.4s-.65,1.62-1.17,2.46c-.34.53-.87,1.21-1.6,2.04h-1.28c.74-.88,1.32-1.7,1.72-2.46s.71-1.6.91-2.51.3-1.8.3-2.67c0-.59-.04-1.16-.13-1.71s-.23-1.19-.45-1.91Z"/>
    </g>
    <g>
      <path class="cls-6" d="M478.2,56.09h-1.45l-1.25-6.22h1.65l.44,2.71c.12.73.19,1.22.22,1.46.03-.07.17-.32.41-.76s.39-.7.44-.79l1.55-2.62h1.82l-3.83,6.22Z"/>
      <path class="cls-6" d="M487.82,53.5h-4.22c0,.07,0,.12,0,.15,0,.41.12.75.35,1s.53.38.87.38c.56,0,.99-.29,1.31-.87l1.51.25c-.29.61-.69,1.06-1.18,1.36s-1.04.45-1.65.45c-.84,0-1.52-.26-2.04-.79s-.79-1.23-.79-2.1.24-1.61.71-2.27c.64-.9,1.56-1.35,2.76-1.35.76,0,1.37.24,1.82.71s.67,1.13.67,1.98c0,.41-.04.77-.12,1.1ZM486.4,52.48c0-.07,0-.13,0-.17,0-.46-.1-.81-.31-1.04s-.48-.35-.83-.35-.66.13-.94.39-.46.65-.56,1.16h2.63Z"/>
      <path class="cls-6" d="M489.64,49.87h1.57l-.25,1.21c.59-.9,1.22-1.35,1.9-1.35.24,0,.5.06.78.18l-.64,1.38c-.15-.05-.31-.08-.49-.08-.29,0-.58.11-.88.33s-.53.51-.7.88-.33.94-.5,1.74l-.41,1.95h-1.68l1.3-6.22Z"/>
      <path class="cls-6" d="M492.89,54.35l1.63-.26c.14.34.32.59.54.73s.51.21.88.21.69-.09.92-.26c.16-.12.24-.26.24-.43,0-.11-.04-.21-.12-.3-.09-.09-.32-.19-.7-.32-1.02-.34-1.64-.6-1.89-.8-.38-.3-.57-.7-.57-1.2s.18-.92.55-1.27c.51-.5,1.27-.74,2.28-.74.8,0,1.41.15,1.82.44s.67.69.78,1.19l-1.55.27c-.08-.23-.21-.4-.4-.51-.25-.15-.55-.23-.9-.23s-.61.06-.76.18-.23.25-.23.4.08.29.23.39c.1.06.41.17.94.33.82.24,1.37.47,1.65.7.39.32.59.71.59,1.17,0,.59-.25,1.1-.74,1.54s-1.2.65-2.1.65-1.59-.17-2.08-.5-.82-.79-1-1.39Z"/>
      <path class="cls-6" d="M504,53.75l1.63.26c-.27.73-.67,1.28-1.2,1.66s-1.14.57-1.83.57c-.79,0-1.42-.24-1.89-.71s-.7-1.12-.7-1.95c0-.68.14-1.31.42-1.92s.71-1.08,1.27-1.42,1.19-.52,1.86-.52c.73,0,1.32.19,1.76.57s.68.89.74,1.51l-1.6.17c-.04-.35-.15-.6-.32-.77s-.4-.25-.68-.25c-.32,0-.63.12-.91.36s-.5.6-.65,1.09-.22.93-.22,1.36c0,.37.09.65.27.85s.4.3.67.3.53-.1.78-.29.45-.49.59-.88Z"/>
      <path class="cls-6" d="M508.16,56.09h-1.68l1.8-8.59h1.68l-.64,3.06c.38-.3.73-.51,1.06-.64s.68-.2,1.05-.2c.5,0,.9.14,1.2.43s.44.67.44,1.14c0,.25-.05.64-.16,1.16l-.76,3.64h-1.68l.78-3.71c.08-.4.12-.66.12-.77,0-.21-.06-.37-.19-.5s-.3-.19-.53-.19c-.28,0-.55.1-.81.29-.34.26-.59.57-.77.95-.1.21-.23.69-.39,1.46l-.52,2.47Z"/>
      <path class="cls-6" d="M515.08,49.87h1.68l-1.3,6.22h-1.68l1.3-6.22ZM515.57,47.5h1.68l-.32,1.52h-1.68l.32-1.52Z"/>
      <path class="cls-6" d="M523.17,53.5h-4.22c0,.07,0,.12,0,.15,0,.41.12.75.35,1s.53.38.87.38c.56,0,.99-.29,1.31-.87l1.51.25c-.29.61-.69,1.06-1.18,1.36s-1.04.45-1.65.45c-.84,0-1.52-.26-2.04-.79s-.79-1.23-.79-2.1.24-1.61.71-2.27c.64-.9,1.56-1.35,2.76-1.35.76,0,1.37.24,1.82.71s.67,1.13.67,1.98c0,.41-.04.77-.12,1.1ZM521.76,52.48c0-.07,0-.13,0-.17,0-.46-.1-.81-.31-1.04s-.48-.35-.83-.35-.66.13-.94.39-.46.65-.56,1.16h2.63Z"/>
      <path class="cls-6" d="M529.54,56.09h-1.59l.14-.67c-.3.29-.61.5-.9.63s-.63.19-1,.19c-.64,0-1.17-.22-1.57-.66s-.6-1.09-.6-1.95c0-1,.28-1.9.84-2.7s1.31-1.21,2.23-1.21c.84,0,1.46.33,1.88,1l.67-3.22h1.68l-1.79,8.59ZM525.65,53.56c0,.45.11.79.34,1.04s.5.38.83.38c.3,0,.59-.1.85-.31s.47-.53.63-.96.24-.84.24-1.24c0-.45-.12-.81-.36-1.09s-.52-.42-.84-.42c-.49,0-.9.27-1.21.82s-.47,1.14-.47,1.78Z"/>
      <path class="cls-6" d="M537.18,53.5h-4.22c0,.07,0,.12,0,.15,0,.41.12.75.35,1s.53.38.87.38c.56,0,.99-.29,1.31-.87l1.51.25c-.29.61-.69,1.06-1.18,1.36s-1.04.45-1.65.45c-.84,0-1.52-.26-2.04-.79s-.79-1.23-.79-2.1.24-1.61.71-2.27c.64-.9,1.56-1.35,2.76-1.35.76,0,1.37.24,1.82.71s.67,1.13.67,1.98c0,.41-.04.77-.12,1.1ZM535.76,52.48c0-.07,0-.13,0-.17,0-.46-.1-.81-.31-1.04s-.48-.35-.83-.35-.66.13-.94.39-.46.65-.56,1.16h2.63Z"/>
      <path class="cls-6" d="M539.12,49.87h1.59l-.16.81c.4-.34.77-.59,1.12-.74s.71-.22,1.09-.22c.51,0,.91.15,1.21.44s.44.68.44,1.17c0,.22-.06.63-.19,1.24l-.73,3.52h-1.68l.74-3.53c.11-.53.16-.84.16-.94,0-.21-.06-.38-.19-.51s-.3-.18-.53-.18c-.25,0-.52.1-.82.31s-.54.48-.71.82c-.12.24-.27.74-.42,1.48l-.53,2.55h-1.68l1.3-6.22Z"/>
      <path class="cls-6" d="M551.18,53.5h-4.22c0,.07,0,.12,0,.15,0,.41.12.75.35,1s.53.38.87.38c.56,0,.99-.29,1.31-.87l1.51.25c-.29.61-.69,1.06-1.18,1.36s-1.04.45-1.65.45c-.84,0-1.52-.26-2.04-.79s-.79-1.23-.79-2.1.24-1.61.71-2.27c.64-.9,1.56-1.35,2.76-1.35.76,0,1.37.24,1.82.71s.67,1.13.67,1.98c0,.41-.04.77-.12,1.1ZM549.76,52.48c0-.07,0-.13,0-.17,0-.46-.1-.81-.31-1.04s-.48-.35-.83-.35-.66.13-.94.39-.46.65-.56,1.16h2.63Z"/>
      <path class="cls-6" d="M469.04,67.31l1.68-.09c.02.54.12.9.28,1.08.26.3.73.46,1.43.46.58,0,1-.1,1.25-.31s.39-.46.39-.75c0-.25-.11-.47-.32-.64-.15-.13-.56-.34-1.22-.63s-1.15-.53-1.46-.72-.55-.44-.72-.75-.26-.67-.26-1.08c0-.72.26-1.32.79-1.8s1.28-.71,2.27-.71,1.79.24,2.34.71.86,1.1.91,1.89l-1.69.08c-.04-.41-.19-.72-.45-.94s-.63-.33-1.12-.33-.84.09-1.05.26-.31.39-.31.65c0,.25.1.45.29.61.19.16.62.39,1.27.67.99.43,1.62.77,1.89,1.04.4.39.6.89.6,1.51,0,.76-.3,1.41-.9,1.94s-1.43.81-2.5.81c-.74,0-1.38-.12-1.92-.37s-.92-.59-1.14-1.03-.33-.95-.31-1.52Z"/>
      <path class="cls-6" d="M478.01,63.87h1.59l-.13.64c.34-.28.66-.48.96-.6s.62-.18.96-.18c.65,0,1.18.22,1.57.67s.6,1.12.6,2.01c0,1.12-.34,2.07-1.03,2.84-.59.66-1.28.99-2.08.99s-1.45-.33-1.87-1l-.67,3.23h-1.68l1.79-8.6ZM479.02,67.44c0,.48.12.86.35,1.13s.52.4.84.4c.28,0,.54-.1.8-.3s.47-.54.64-1,.26-.9.26-1.3c0-.46-.11-.82-.33-1.07s-.51-.37-.85-.37c-.32,0-.61.11-.88.34s-.47.56-.61,1.01-.22.83-.22,1.16Z"/>
      <path class="cls-6" d="M490.15,67.5h-4.22c0,.07,0,.12,0,.15,0,.41.12.75.35,1s.53.38.87.38c.56,0,.99-.29,1.31-.87l1.51.25c-.29.61-.69,1.06-1.18,1.36s-1.04.45-1.65.45c-.84,0-1.52-.26-2.04-.79s-.79-1.23-.79-2.1.24-1.61.71-2.27c.64-.9,1.56-1.35,2.76-1.35.76,0,1.37.24,1.82.71s.67,1.13.67,1.98c0,.41-.04.77-.12,1.1ZM488.73,66.48c0-.07,0-.13,0-.17,0-.46-.1-.81-.31-1.04s-.48-.35-.83-.35-.66.13-.94.39-.46.65-.56,1.16h2.63Z"/>
      <path class="cls-6" d="M492.07,63.87h1.68l-1.3,6.22h-1.68l1.3-6.22ZM492.56,61.5h1.68l-.32,1.52h-1.68l.32-1.52Z"/>
      <path class="cls-6" d="M498.32,67.75l1.63.26c-.27.73-.67,1.28-1.2,1.66s-1.14.57-1.83.57c-.79,0-1.42-.24-1.89-.71s-.7-1.12-.7-1.95c0-.68.14-1.31.42-1.92s.71-1.08,1.27-1.42,1.19-.52,1.86-.52c.73,0,1.32.19,1.76.57s.68.89.74,1.51l-1.6.17c-.04-.35-.15-.6-.32-.77s-.4-.25-.68-.25c-.32,0-.63.12-.91.36s-.5.6-.65,1.09-.22.93-.22,1.36c0,.37.09.65.27.85s.4.3.67.3.53-.1.78-.29.45-.49.59-.88Z"/>
      <path class="cls-6" d="M502.48,70.09h-1.68l1.8-8.59h1.68l-.64,3.06c.38-.3.73-.51,1.06-.64s.68-.2,1.05-.2c.5,0,.9.14,1.2.43s.44.67.44,1.14c0,.25-.05.64-.16,1.16l-.76,3.64h-1.68l.78-3.71c.08-.4.12-.66.12-.77,0-.21-.06-.37-.19-.5s-.3-.19-.53-.19c-.28,0-.55.1-.81.29-.34.26-.59.57-.77.95-.1.21-.23.69-.39,1.46l-.52,2.47Z"/>
      <path class="cls-6" d="M514.16,67.5h-4.22c0,.07,0,.12,0,.15,0,.41.12.75.35,1s.53.38.87.38c.56,0,.99-.29,1.31-.87l1.51.25c-.29.61-.69,1.06-1.18,1.36s-1.04.45-1.65.45c-.84,0-1.52-.26-2.04-.79s-.79-1.23-.79-2.1.24-1.61.71-2.27c.64-.9,1.56-1.35,2.76-1.35.76,0,1.37.24,1.82.71s.67,1.13.67,1.98c0,.41-.04.77-.12,1.1ZM512.74,66.48c0-.07,0-.13,0-.17,0-.46-.1-.81-.31-1.04s-.48-.35-.83-.35-.66.13-.94.39-.46.65-.56,1.16h2.63Z"/>
      <path class="cls-6" d="M515.98,63.87h1.57l-.25,1.21c.59-.9,1.22-1.35,1.9-1.35.24,0,.5.06.78.18l-.64,1.38c-.15-.05-.31-.08-.49-.08-.29,0-.58.11-.88.33s-.53.51-.7.88-.33.94-.5,1.74l-.41,1.95h-1.68l1.3-6.22Z"/>
      <path class="cls-6" d="M520.69,63.87h1.58l-.16.76c.62-.6,1.27-.9,1.95-.9.47,0,.83.1,1.08.29s.42.46.49.81c.21-.31.52-.57.93-.79s.82-.32,1.25-.32c.5,0,.88.13,1.16.4s.42.62.42,1.05c0,.21-.05.59-.16,1.11l-.8,3.8h-1.68l.8-3.8c.1-.48.15-.75.15-.81,0-.17-.05-.31-.16-.41s-.26-.15-.46-.15c-.42,0-.79.22-1.12.66-.24.32-.44.88-.61,1.68l-.59,2.82h-1.68l.79-3.76c.09-.43.13-.71.13-.84,0-.16-.06-.3-.17-.4s-.26-.16-.46-.16c-.18,0-.37.05-.57.16s-.37.26-.51.45-.27.44-.38.74c-.05.14-.12.46-.23.96l-.6,2.86h-1.68l1.3-6.22Z"/>
      <path class="cls-6" d="M536.18,67.5h-4.22c0,.07,0,.12,0,.15,0,.41.12.75.35,1s.53.38.87.38c.56,0,.99-.29,1.31-.87l1.51.25c-.29.61-.69,1.06-1.18,1.36s-1.04.45-1.65.45c-.84,0-1.52-.26-2.04-.79s-.79-1.23-.79-2.1.24-1.61.71-2.27c.64-.9,1.56-1.35,2.76-1.35.76,0,1.37.24,1.82.71s.67,1.13.67,1.98c0,.41-.04.77-.12,1.1ZM534.76,66.48c0-.07,0-.13,0-.17,0-.46-.1-.81-.31-1.04s-.48-.35-.83-.35-.66.13-.94.39-.46.65-.56,1.16h2.63Z"/>
      <path class="cls-6" d="M542.54,70.09h-1.59l.14-.67c-.3.29-.61.5-.9.63s-.63.19-1,.19c-.64,0-1.17-.22-1.57-.66s-.6-1.09-.6-1.95c0-1,.28-1.9.84-2.7s1.31-1.21,2.23-1.21c.84,0,1.46.33,1.88,1l.67-3.22h1.68l-1.79,8.59ZM538.65,67.56c0,.45.11.79.34,1.04s.5.38.83.38c.3,0,.59-.1.85-.31s.47-.53.63-.96.24-.84.24-1.24c0-.45-.12-.81-.36-1.09s-.52-.42-.84-.42c-.49,0-.9.27-1.21.82s-.47,1.14-.47,1.78Z"/>
      <path class="cls-6" d="M545.42,63.87h1.68l-1.3,6.22h-1.68l1.3-6.22ZM545.91,61.5h1.68l-.32,1.52h-1.68l.32-1.52Z"/>
      <path class="cls-6" d="M553.51,67.5h-4.22c0,.07,0,.12,0,.15,0,.41.12.75.35,1s.53.38.87.38c.56,0,.99-.29,1.31-.87l1.51.25c-.29.61-.69,1.06-1.18,1.36s-1.04.45-1.65.45c-.84,0-1.52-.26-2.04-.79s-.79-1.23-.79-2.1.24-1.61.71-2.27c.64-.9,1.56-1.35,2.76-1.35.76,0,1.37.24,1.82.71s.67,1.13.67,1.98c0,.41-.04.77-.12,1.1ZM552.1,66.48c0-.07,0-.13,0-.17,0-.46-.1-.81-.31-1.04s-.48-.35-.83-.35-.66.13-.94.39-.46.65-.56,1.16h2.63Z"/>
      <path class="cls-6" d="M555.45,63.87h1.59l-.16.81c.4-.34.77-.59,1.12-.74s.71-.22,1.09-.22c.51,0,.91.15,1.21.44s.44.68.44,1.17c0,.22-.06.63-.19,1.24l-.73,3.52h-1.68l.74-3.53c.11-.53.16-.84.16-.94,0-.21-.06-.38-.19-.51s-.3-.18-.53-.18c-.25,0-.52.1-.82.31s-.54.48-.71.82c-.12.24-.27.74-.42,1.48l-.53,2.55h-1.68l1.3-6.22Z"/>
    </g>
    <g>
      <path class="cls-6" d="M493.03,292.61l1.79-8.59h1.77l-.76,3.65,3.97-3.65h2.37l-3.86,3.37,2.83,5.22h-2l-2.12-4.09-1.67,1.46-.55,2.63h-1.78Z"/>
      <path class="cls-6" d="M501.95,290.02c0-1.15.32-2.07.97-2.76s1.51-1.03,2.56-1.03c.92,0,1.63.25,2.15.76s.77,1.19.77,2.04c0,1.01-.32,1.88-.97,2.61s-1.51,1.1-2.59,1.1c-.59,0-1.11-.12-1.56-.35s-.79-.57-1.01-1-.33-.89-.33-1.38ZM506.74,288.82c0-.4-.12-.72-.35-.96s-.53-.36-.9-.36-.69.11-.97.34-.5.55-.66.98-.23.82-.23,1.18c0,.45.12.8.36,1.06s.55.39.91.39c.46,0,.85-.2,1.16-.59.45-.56.67-1.24.67-2.04Z"/>
      <path class="cls-6" d="M510.28,286.38h1.59l-.13.64c.34-.28.66-.48.96-.6s.62-.18.96-.18c.65,0,1.18.22,1.57.67s.6,1.12.6,2.01c0,1.12-.34,2.07-1.03,2.84-.59.66-1.28.99-2.08.99s-1.45-.33-1.87-1l-.67,3.23h-1.68l1.79-8.6ZM511.29,289.95c0,.48.12.86.35,1.13s.52.4.84.4c.28,0,.54-.1.8-.3s.47-.54.64-1,.26-.9.26-1.3c0-.46-.11-.82-.33-1.07s-.51-.37-.85-.37c-.32,0-.61.11-.88.34s-.47.56-.61,1.01-.22.83-.22,1.16Z"/>
      <path class="cls-6" d="M517.66,286.38h1.68l-1.3,6.22h-1.68l1.3-6.22ZM518.16,284.02h1.68l-.32,1.52h-1.68l.32-1.52Z"/>
      <path class="cls-6" d="M525.76,290.02h-4.22c0,.07,0,.12,0,.15,0,.41.12.75.35,1s.53.38.87.38c.56,0,.99-.29,1.31-.87l1.51.25c-.29.61-.69,1.06-1.18,1.36s-1.04.45-1.65.45c-.84,0-1.52-.26-2.04-.79s-.79-1.23-.79-2.1.24-1.61.71-2.27c.64-.9,1.56-1.35,2.76-1.35.76,0,1.37.24,1.82.71s.67,1.13.67,1.98c0,.41-.04.77-.12,1.1ZM524.34,288.99c0-.07,0-.13,0-.17,0-.46-.1-.81-.31-1.04s-.48-.35-.83-.35-.66.13-.94.39-.46.65-.56,1.16h2.63Z"/>
      <path class="cls-6" d="M526.75,290.98h1.69l-.28,1.34c-.16.77-.42,1.32-.77,1.64s-.81.49-1.37.5l.16-.78c.28-.06.5-.17.65-.34s.27-.41.34-.75h-.77l.35-1.62Z"/>
      <path class="cls-6" d="M538.79,292.61h-1.59l.14-.67c-.3.29-.61.5-.9.63s-.63.19-1,.19c-.64,0-1.17-.22-1.57-.66s-.6-1.09-.6-1.95c0-1,.28-1.9.84-2.7s1.31-1.21,2.23-1.21c.84,0,1.46.33,1.88,1l.67-3.22h1.68l-1.79,8.59ZM534.9,290.07c0,.45.11.79.34,1.04s.5.38.83.38c.3,0,.59-.1.85-.31s.47-.53.63-.96.24-.84.24-1.24c0-.45-.12-.81-.36-1.09s-.52-.42-.84-.42c-.49,0-.9.27-1.21.82s-.47,1.14-.47,1.78Z"/>
      <path class="cls-6" d="M541.67,286.38h1.68l-1.3,6.22h-1.68l1.3-6.22ZM542.16,284.02h1.68l-.32,1.52h-1.68l.32-1.52Z"/>
      <path class="cls-6" d="M549.76,290.02h-4.22c0,.07,0,.12,0,.15,0,.41.12.75.35,1s.53.38.87.38c.56,0,.99-.29,1.31-.87l1.51.25c-.29.61-.69,1.06-1.18,1.36s-1.04.45-1.65.45c-.84,0-1.52-.26-2.04-.79s-.79-1.23-.79-2.1.24-1.61.71-2.27c.64-.9,1.56-1.35,2.76-1.35.76,0,1.37.24,1.82.71s.67,1.13.67,1.98c0,.41-.04.77-.12,1.1ZM548.34,288.99c0-.07,0-.13,0-.17,0-.46-.1-.81-.31-1.04s-.48-.35-.83-.35-.66.13-.94.39-.46.65-.56,1.16h2.63Z"/>
      <path class="cls-6" d="M559.77,290.02h-4.22c0,.07,0,.12,0,.15,0,.41.12.75.35,1s.53.38.87.38c.56,0,.99-.29,1.31-.87l1.51.25c-.29.61-.69,1.06-1.18,1.36s-1.04.45-1.65.45c-.84,0-1.52-.26-2.04-.79s-.79-1.23-.79-2.1.24-1.61.71-2.27c.64-.9,1.56-1.35,2.76-1.35.76,0,1.37.24,1.82.71s.67,1.13.67,1.98c0,.41-.04.77-.12,1.1ZM558.35,288.99c0-.07,0-.13,0-.17,0-.46-.1-.81-.31-1.04s-.48-.35-.83-.35-.66.13-.94.39-.46.65-.56,1.16h2.63Z"/>
      <path class="cls-6" d="M563.25,290.86l-1.55,1.75h-2.06l2.88-3.19-1.58-3.04h1.79l.91,1.78,1.58-1.78h2.04l-2.89,3.23,1.57,2.99h-1.79l-.9-1.75Z"/>
      <path class="cls-6" d="M567.48,287.63l.26-1.25h.82l.21-1,1.93-1.16-.45,2.16h1.03l-.26,1.25h-1.03l-.54,2.61c-.1.47-.15.74-.15.81,0,.13.04.23.12.3s.23.11.45.11c.07,0,.26-.01.56-.04l-.26,1.25c-.29.06-.59.09-.89.09-.59,0-1.03-.11-1.29-.34s-.4-.55-.4-.95c0-.19.07-.63.22-1.32l.52-2.5h-.81Z"/>
      <path class="cls-6" d="M577.11,290.02h-4.22c0,.07,0,.12,0,.15,0,.41.12.75.35,1s.53.38.87.38c.56,0,.99-.29,1.31-.87l1.51.25c-.29.61-.69,1.06-1.18,1.36s-1.04.45-1.65.45c-.84,0-1.52-.26-2.04-.79s-.79-1.23-.79-2.1.24-1.61.71-2.27c.64-.9,1.56-1.35,2.76-1.35.76,0,1.37.24,1.82.71s.67,1.13.67,1.98c0,.41-.04.77-.12,1.1ZM575.69,288.99c0-.07,0-.13,0-.17,0-.46-.1-.81-.31-1.04s-.48-.35-.83-.35-.66.13-.94.39-.46.65-.56,1.16h2.63Z"/>
      <path class="cls-6" d="M578.93,286.38h1.57l-.25,1.21c.59-.9,1.22-1.35,1.9-1.35.24,0,.5.06.78.18l-.64,1.38c-.15-.05-.31-.08-.49-.08-.29,0-.58.11-.88.33s-.53.51-.7.88-.33.94-.5,1.74l-.41,1.95h-1.68l1.3-6.22Z"/>
      <path class="cls-6" d="M583.72,286.38h1.59l-.16.81c.4-.34.77-.59,1.12-.74s.71-.22,1.09-.22c.51,0,.91.15,1.21.44s.44.68.44,1.17c0,.22-.06.63-.19,1.24l-.73,3.52h-1.68l.74-3.53c.11-.53.16-.84.16-.94,0-.21-.06-.38-.19-.51s-.3-.18-.53-.18c-.25,0-.52.1-.82.31s-.54.48-.71.82c-.12.24-.27.74-.42,1.48l-.53,2.55h-1.68l1.3-6.22Z"/>
      <path class="cls-6" d="M498.94,306.93l1.78.26c0,.18.03.32.09.41s.15.17.29.23.31.1.54.1c.36,0,.64-.07.86-.21.16-.11.29-.29.39-.53.06-.15.14-.48.24-1l.06-.29c-.58.48-1.18.73-1.8.73s-1.11-.21-1.5-.64-.59-1.06-.59-1.89c0-.73.13-1.4.4-2.01s.64-1.07,1.12-1.38.97-.47,1.47-.47c.41,0,.79.11,1.14.33s.61.53.8.92l.23-1.1h1.58l-1.08,5.19c-.18.83-.32,1.43-.45,1.78s-.26.64-.42.85-.35.39-.59.53-.52.25-.84.31-.68.09-1.05.09c-.88,0-1.54-.15-1.99-.45s-.67-.8-.67-1.5c0-.07,0-.16.02-.25ZM500.93,303.93c0,.47.11.83.32,1.08s.48.37.8.37c.29,0,.58-.11.85-.33s.49-.54.63-.95.22-.81.22-1.19c0-.44-.12-.8-.36-1.07s-.51-.4-.83-.4-.58.12-.83.36-.46.61-.62,1.1c-.12.38-.19.73-.19,1.03Z"/>
      <path class="cls-6" d="M512.42,304.02h-4.22c0,.07,0,.12,0,.15,0,.41.12.75.36,1s.52.38.86.38c.56,0,.99-.29,1.31-.87l1.51.25c-.29.61-.68,1.06-1.17,1.36s-1.04.45-1.65.45c-.84,0-1.52-.26-2.04-.79s-.79-1.23-.79-2.1.24-1.61.71-2.27c.64-.9,1.56-1.35,2.76-1.35.76,0,1.37.24,1.82.71s.67,1.13.67,1.98c0,.41-.04.77-.12,1.1ZM511,302.99c0-.07,0-.13,0-.17,0-.46-.1-.81-.31-1.04s-.48-.35-.83-.35-.66.13-.93.39-.46.65-.56,1.16h2.63Z"/>
      <path class="cls-6" d="M512.82,304.87l1.63-.26c.14.34.32.59.54.73s.51.21.88.21.69-.09.92-.26c.16-.12.24-.26.24-.43,0-.11-.04-.21-.12-.3-.09-.09-.32-.19-.7-.32-1.02-.34-1.64-.6-1.89-.8-.38-.3-.57-.7-.57-1.2s.18-.92.55-1.27c.51-.5,1.27-.74,2.28-.74.8,0,1.41.15,1.82.44s.67.69.78,1.19l-1.55.27c-.08-.23-.21-.4-.4-.51-.25-.15-.55-.23-.9-.23s-.6.06-.76.18-.23.25-.23.4.08.29.23.39c.1.06.41.17.94.33.82.24,1.37.47,1.65.7.39.32.59.71.59,1.17,0,.59-.25,1.1-.74,1.54s-1.2.65-2.1.65-1.59-.17-2.08-.5-.82-.79-1-1.39Z"/>
      <path class="cls-6" d="M520.96,300.38h1.59l-.13.64c.34-.28.66-.48.96-.6s.62-.18.96-.18c.65,0,1.18.22,1.57.67s.59,1.12.59,2.01c0,1.12-.34,2.07-1.03,2.84-.59.66-1.28.99-2.08.99s-1.45-.33-1.87-1l-.67,3.23h-1.68l1.79-8.6ZM521.97,303.95c0,.48.12.86.36,1.13s.51.4.83.4c.28,0,.54-.1.8-.3s.47-.54.64-1,.25-.9.25-1.3c0-.46-.11-.82-.33-1.07s-.51-.37-.85-.37c-.32,0-.61.11-.88.34s-.47.56-.61,1.01-.22.83-.22,1.16Z"/>
      <path class="cls-6" d="M533.1,304.02h-4.22c0,.07,0,.12,0,.15,0,.41.12.75.36,1s.52.38.86.38c.56,0,.99-.29,1.31-.87l1.51.25c-.29.61-.68,1.06-1.17,1.36s-1.04.45-1.65.45c-.84,0-1.52-.26-2.04-.79s-.79-1.23-.79-2.1.24-1.61.71-2.27c.64-.9,1.56-1.35,2.76-1.35.76,0,1.37.24,1.82.71s.67,1.13.67,1.98c0,.41-.04.77-.12,1.1ZM531.68,302.99c0-.07,0-.13,0-.17,0-.46-.1-.81-.31-1.04s-.48-.35-.83-.35-.66.13-.93.39-.46.65-.56,1.16h2.63Z"/>
      <path class="cls-6" d="M535.02,300.38h1.68l-1.3,6.22h-1.68l1.3-6.22ZM535.51,298.02h1.68l-.32,1.52h-1.68l.32-1.52Z"/>
      <path class="cls-6" d="M541.27,304.26l1.63.26c-.27.73-.67,1.28-1.2,1.66s-1.14.57-1.83.57c-.79,0-1.42-.24-1.89-.71s-.7-1.12-.7-1.95c0-.68.14-1.31.42-1.92s.71-1.08,1.27-1.42,1.19-.52,1.86-.52c.73,0,1.32.19,1.76.57s.68.89.74,1.51l-1.6.17c-.04-.35-.14-.6-.32-.77s-.4-.25-.68-.25c-.32,0-.63.12-.91.36s-.5.6-.65,1.09-.23.93-.23,1.36c0,.37.09.65.27.85s.4.3.67.3.53-.1.78-.29.45-.49.59-.88Z"/>
      <path class="cls-6" d="M545.43,306.61h-1.68l1.8-8.59h1.68l-.64,3.06c.38-.3.73-.51,1.06-.64s.68-.2,1.05-.2c.5,0,.9.14,1.2.43s.44.67.44,1.14c0,.25-.05.64-.16,1.16l-.76,3.64h-1.68l.78-3.71c.08-.4.12-.66.12-.77,0-.21-.06-.37-.19-.5s-.3-.19-.53-.19c-.28,0-.55.1-.81.29-.34.26-.59.57-.77.95-.1.21-.23.69-.39,1.46l-.52,2.47Z"/>
      <path class="cls-6" d="M557.11,304.02h-4.22c0,.07,0,.12,0,.15,0,.41.12.75.36,1s.52.38.86.38c.56,0,.99-.29,1.31-.87l1.51.25c-.29.61-.68,1.06-1.17,1.36s-1.04.45-1.65.45c-.84,0-1.52-.26-2.04-.79s-.79-1.23-.79-2.1.24-1.61.71-2.27c.64-.9,1.56-1.35,2.76-1.35.76,0,1.37.24,1.82.71s.67,1.13.67,1.98c0,.41-.04.77-.12,1.1ZM555.69,302.99c0-.07,0-.13,0-.17,0-.46-.1-.81-.31-1.04s-.48-.35-.83-.35-.66.13-.93.39-.46.65-.56,1.16h2.63Z"/>
      <path class="cls-6" d="M558.93,300.38h1.57l-.25,1.21c.59-.9,1.22-1.35,1.9-1.35.24,0,.5.06.78.18l-.64,1.38c-.15-.05-.31-.08-.49-.08-.29,0-.58.11-.88.33s-.53.51-.7.88-.33.94-.5,1.74l-.41,1.95h-1.68l1.3-6.22Z"/>
      <path class="cls-6" d="M562.82,301.63l.26-1.25h.82l.21-1,1.93-1.16-.45,2.16h1.03l-.26,1.25h-1.03l-.54,2.61c-.1.47-.15.74-.15.81,0,.13.04.23.12.3s.23.11.45.11c.07,0,.26-.01.56-.04l-.26,1.25c-.29.06-.59.09-.89.09-.59,0-1.03-.11-1.29-.34s-.4-.55-.4-.95c0-.19.07-.63.22-1.32l.52-2.5h-.81Z"/>
      <path class="cls-6" d="M571.03,300.38h1.68l-1.3,6.22h-1.68l1.3-6.22ZM571.52,298.02h1.68l-.32,1.52h-1.68l.32-1.52Z"/>
      <path class="cls-6" d="M572.84,304.87l1.63-.26c.14.34.32.59.54.73s.51.21.88.21.69-.09.92-.26c.16-.12.24-.26.24-.43,0-.11-.04-.21-.12-.3-.09-.09-.32-.19-.7-.32-1.02-.34-1.64-.6-1.89-.8-.38-.3-.57-.7-.57-1.2s.18-.92.55-1.27c.51-.5,1.27-.74,2.28-.74.8,0,1.41.15,1.82.44s.67.69.78,1.19l-1.55.27c-.08-.23-.21-.4-.4-.51-.25-.15-.55-.23-.9-.23s-.6.06-.76.18-.23.25-.23.4.08.29.23.39c.1.06.41.17.94.33.82.24,1.37.47,1.65.7.39.32.59.71.59,1.17,0,.59-.25,1.1-.74,1.54s-1.2.65-2.1.65-1.59-.17-2.08-.5-.82-.79-1-1.39Z"/>
      <path class="cls-6" d="M580.16,301.63l.26-1.25h.82l.21-1,1.93-1.16-.45,2.16h1.03l-.26,1.25h-1.03l-.54,2.61c-.1.47-.15.74-.15.81,0,.13.04.23.12.3s.23.11.45.11c.07,0,.26-.01.56-.04l-.26,1.25c-.29.06-.59.09-.89.09-.59,0-1.03-.11-1.29-.34s-.4-.55-.4-.95c0-.19.07-.63.22-1.32l.52-2.5h-.81Z"/>
    </g>
  </g>
</svg>