<?xml version="1.0" encoding="UTF-8"?>
<svg id="G-0067_BUW_Forschergruppen_Labor" xmlns="http://www.w3.org/2000/svg" viewBox="0 0 945.56 457.64">
  <defs>
    <style>
      .cls-1 {
        fill: #42210b;
      }

      .cls-1, .cls-2, .cls-3, .cls-4, .cls-5, .cls-6, .cls-7, .cls-8, .cls-9, .cls-10, .cls-11, .cls-12, .cls-13, .cls-14, .cls-15, .cls-16, .cls-17, .cls-18, .cls-19, .cls-20, .cls-21, .cls-22, .cls-23, .cls-24, .cls-25, .cls-26, .cls-27, .cls-28, .cls-29, .cls-30 {
        stroke-width: 0px;
      }

      .cls-2 {
        fill: #a5678d;
      }

      .cls-3 {
        fill: #308fc9;
      }

      .cls-4 {
        fill: #dec1a8;
      }

      .cls-5 {
        fill: #9d9d9c;
      }

      .cls-6 {
        fill: #dddddc;
      }

      .cls-7 {
        fill: #e6710a;
      }

      .cls-8 {
        fill: #873567;
      }

      .cls-9 {
        fill: #c39ab3;
      }

      .cls-10 {
        fill: #000;
      }

      .cls-11 {
        fill: #73bbe7;
      }

      .cls-12 {
        fill: #fcd9bd;
      }

      .cls-13 {
        fill: #b47d49;
      }

      .cls-14 {
        fill: #236289;
      }

      .cls-15 {
        fill: #b9ddf3;
      }

      .cls-16 {
        fill: #308fc9;
      }

      .cls-17 {
        fill: #ec9447;
      }

      .cls-18 {
        fill: #98c7e4;
      }

      .cls-19 {
        fill: #bfe1f2;
      }

      .cls-20 {
        fill: #cbe3f1;
      }

      .cls-21 {
        fill: #64abd6;
      }

      .cls-22 {
        fill: #98c7e4;
      }

      .cls-23 {
        fill: #603813;
      }

      .cls-24 {
        fill: #ccc;
      }

      .cls-25 {
        fill: #cbe3f1;
      }

      .cls-26 {
        fill: #f9dbc2;
      }

      .cls-27 {
        fill: #08c;
      }

      .cls-28 {
        fill: #fff;
      }

      .cls-29 {
        fill: #e1ccd9;
      }

      .cls-30 {
        fill: #f2b885;
      }
    </style>
  </defs>
  <g id="Boden">
    <rect class="cls-5" y="232.99" width="944.6" height="224.66"/>
  </g>
  <g id="Gruppe:_Lila" data-name="Gruppe: Lila">
    <g id="Tisch">
      <rect class="cls-15" x="2.71" y="203.84" width="251.11" height="146.89"/>
      <path class="cls-3" d="M260.11,204.77H101.7s-98.8,0-98.8,0v-6.8s257.21,0,257.21,0c1.72,0,3.13,1.43,3.13,3.18v.44c0,1.75-1.41,3.18-3.13,3.18Z"/>
      <rect class="cls-28" x="98.77" y="204.77" width="2.5" height="145.43"/>
      <rect class="cls-28" x="2.71" y="231.51" width="251.63" height="2.5"/>
      <rect class="cls-28" x="168.14" y="217" width="21.52" height="3.47"/>
      <rect class="cls-28" x="12.09" y="217" width="21.52" height="3.47"/>
      <rect class="cls-28" x="97.1" y="288.91" width="21.52" height="3.47" transform="translate(-182.78 398.5) rotate(-90)"/>
      <rect class="cls-28" x="81.41" y="288.91" width="21.52" height="3.47" transform="translate(-198.47 382.81) rotate(-90)"/>
    </g>
    <g id="Stativ">
      <g id="Stativ-2" data-name="Stativ">
        <path class="cls-14" d="M175.78,144.59v.8c0,.42-.34.76-.76.76h-31.79c-.44,2.22-2.11,3.98-4.27,4.55v40.46h8.83c.88,0,1.6.71,1.6,1.59v1.24h-.08c1.11.19,1.95,1.16,1.95,2.32v1.51h-28.01v-1.51c0-1.16.84-2.13,1.95-2.32h-.07v-1.24c0-.88.71-1.59,1.59-1.59h9.18v-40.46c-2.16-.57-3.84-2.33-4.28-4.55h-4.17v1.35c0,.72-.58,1.3-1.3,1.3h-.19c-.72,0-1.3-.58-1.3-1.3v-5.38c0-.72.58-1.3,1.3-1.3h.19c.72,0,1.3.58,1.3,1.3v1.71h4.16c.44-2.22,2.12-3.99,4.29-4.56v-3.34c0-.38.3-.68.67-.68h1.71c.38,0,.68.3.68.68v3.34c2.16.57,3.84,2.34,4.28,4.56h31.78c.42,0,.76.34.76.76Z"/>
        <circle class="cls-3" cx="137.43" cy="144.99" r="3.85"/>
      </g>
      <g id="Reagenzglas">
        <path class="cls-6" d="M179.84,163.68c-.38-6.07-4.62-11.08-10.29-12.63v-8.41h1.23v-3.03h-9.89v3.03h1.24v8.41c-4.59,1.25-8.23,4.77-9.66,9.27-.44,1.34-.67,2.78-.67,4.27,0,7.76,6.28,14.05,14.04,14.05s14.04-6.29,14.04-14.05c0-.31-.01-.61-.04-.91ZM165.84,177.6c-7.18,0-13-5.82-13-13.01,0-.74.06-1.46.18-2.16.11-.7.28-1.38.51-2.04h.01c3.39.11,5.55-1.18,8.59-1.64.28-.04.57-.08.87-.11.3-.02.6-.04.93-.05,1.38-.02,2.61.15,3.74.46,2.54.67,4.49,1.95,6.26,2.81,1.35.65,2.95,1.23,4.86,1.62.04.36.05.74.05,1.11,0,7.19-5.82,13.01-13,13.01Z"/>
        <path class="cls-8" d="M178.84,164.59c0,7.18-5.82,13.01-13,13.01s-13-5.82-13-13.01c0-1.47.24-2.89.7-4.21,3.39.11,5.55-1.18,8.59-1.63.56-.09,1.16-.14,1.8-.16,1.38-.03,2.61.15,3.74.45,2.54.67,4.49,1.95,6.26,2.81,1.35.66,2.95,1.23,4.86,1.62.03.36.05.74.05,1.11Z"/>
        <g>
          <circle class="cls-29" cx="160.3" cy="167.1" r=".82"/>
          <circle class="cls-29" cx="162.03" cy="170.46" r=".54"/>
          <circle class="cls-29" cx="161.12" cy="163.47" r=".54"/>
        </g>
        <g>
          <circle class="cls-29" cx="167.13" cy="153.32" r=".82"/>
          <circle class="cls-29" cx="170.08" cy="155.67" r=".54"/>
          <circle class="cls-29" cx="166.38" cy="149.66" r=".54"/>
        </g>
      </g>
    </g>
    <g id="Person:_Mann" data-name="Person: Mann">
      <g id="Körper">
        <g id="Kittel_hinterteil" data-name="Kittel hinterteil">
          <path class="cls-24" d="M259.15,148.35c-4.11.33-8.22.65-12.33.98-.3-1.54-.6-3.07-.89-4.61,1.84-.48,4.09-.91,6.68-1.09,2.83-.2,5.3-.05,7.31.21-.03.25-.07.51-.1.77-.18,1.3-.4,2.54-.65,3.74Z"/>
          <path class="cls-24" d="M211.2,277.22c12.19,2.31,27.16,4.16,44.28,4.17,18.35,0,34.29-2.11,47.07-4.67-6.56-25.6-13.12-51.2-19.68-76.8l-56.64.68-15.02,76.63Z"/>
        </g>
        <g id="Körper-2" data-name="Körper">
          <path class="cls-12" d="M313.39,146.96c-.37.49-.85.92-1.44,1.27-1.16.69-2.51.96-3.79,1.35-4.4,1.33-8.15,4.37-12.1,6.61-5.95,3.38-12.08,6.43-18.42,9.01-.8.38-1.69.6-2.62.62.1,6.82.52,14.11,1.36,21.8,1.07,9.81,2.68,18.78,4.51,26.79.02.04.04.07.06.11.78,1.55,1.56,3.11,2.34,4.66,0,0,0,.02.03.02,2.37,9.88,4.48,21.08,5.89,33.43,1.21,10.47,1.73,20.21,1.82,29.07.13.6.17,1.24.14,1.89.39,1,.57,2.09.52,3.22,2.3,11.91,4.29,24.71,5.78,38.36.31,2.8.92,6.96,1.19,12.51.23,4.62.2,8.69.07,11.99-.08,2.28,1.17,4.37,3.16,5.48,1.34.76,2.54,1.73,2.51,2.79-.07,2.16-5.2,3.97-9.4,3.67-1.69-.12-5.53-.4-6.85-3.28-.72-1.57-.39-3.24.04-4.39.39-1.04.43-2.17.07-3.22-2.57-7.48-5.02-15.89-7.05-25.15-2.95-13.53-4.33-25.87-4.86-36.49-.34-.93-.5-1.93-.46-2.98-.13-.33-.24-.67-.32-1.02-2.89-4.95-5.82-10.55-8.52-16.81-5.79-13.47-8.86-25.98-10.5-36.25-.62.05-1.15.06-1.49.06-.83,10.07-2.86,22.2-7.23,35.4-2.16,6.47-4.59,12.3-7.05,17.48-.06.43-.16.85-.29,1.26.05.84-.03,1.66-.23,2.44.41,10.62.12,23.04-1.63,36.77-1.21,9.45-2.93,18.06-4.85,25.74-.2.78-.12,1.6.18,2.34.27.64.46,1.46.27,2.32-.61,2.91-4.84,3.67-5.3,3.76-4.62.83-9.35-2.36-9.15-3.97.06-.5.58-.64,1.65-2.18.19-.29.36-.55.51-.8.34-.57.51-1.22.49-1.88-.2-7.8-.23-15.9-.04-24.28.31-13.68,1.16-26.62,2.37-38.73-.16-1.19-.05-2.35.3-3.43-.03-.48-.03-.95.02-1.4-.73-8.72-1.06-18.49-.67-29.12.49-13.11,1.98-24.9,3.86-35.1.04-.26.09-.53.14-.79h.04c-.03.16-.05.31-.08.46.86-.06,1.72-.13,2.58-.19-.8-.11-1.64-.2-2.5-.27,1.4-8.29,2.56-17.3,3.29-26.96.59-7.82.84-15.29.84-22.37-2.11,1.3-4.81,2.88-8.41,5.01-1.32.78-9.51,5.63-20.13,9.88-1.95.78-4.68,1.86-6.84.56-3.13-1.89-3.53-5.84-2.62-7.58.4-.76,1.04-1.35,1.04-1.35,0,0,.15-.15.32-.29,7.47-6.24,17.07-12.71,17.07-12.71,11.67-7.87,12.43-8.48,16.63-10.14.62-.24,1.47-.49,2.42-.67,0-.14-.01-.27-.02-.4,5.37-1.42,12.7-2.81,21.46-2.82,7.94-.02,14.72,1.1,19.93,2.36,7.11-3.28,11.3-4.6,15.08-6.22,5.12-2.19,8.57-3.49,13.56-5.07-1.11-9.11-2.21-18.22-3.31-27.33-1.11-1.18-2.03-2.12-2.73-2.81,0,0-1.12-1.06-2.54-3.46-.36-.61-.75-1.35-.46-1.94.09-.18.23-.34.46-.47.78-.45,2.56.59,4.11,1.86.72.6,1.6-2.09.9-3.76-1.31-3.14-4.49-4.32-3.33-5.82,1.36-1.77,5.61.8,8.08,4.59,1.68,2.57,2.33,4.97,2.49,5.91.29,1.69.22,3.16.08,4.25v.03c.55,5.79,3.16,12.03,4.64,17.66,1.12,4.29,6.38,14.51,2.93,19.11Z"/>
        </g>
        <g id="Schuhe">
          <path class="cls-1" d="M310.75,356.89c-3.92-1.13-6.93-2.55-10.01-3.41-.18.07-.38.15-.6.23-1.34.49-3.3,1.01-5.7,1.05-2.63.03-4.76-.55-6.17-1.07h0c-.2-.07-.38-.14-.54-.21-.41.92-.88,2.09-1.21,3.47-.36,1.54-.48,2.92-.48,3.99v1.69h33.48v-1.69s-.27-1.59-8.76-4.05Z"/>
          <path class="cls-1" d="M236.02,356.95c-.33-1.38-.8-2.55-1.22-3.47-.22.09-.47.19-.75.28-1.4.51-3.46,1.03-5.97,1-2.77-.05-4.96-.74-6.3-1.28-.17.05-.33.1-.5.15-2.9.86-5.8,2.19-9.5,3.26-8.49,2.46-8.76,4.05-8.76,4.05v1.69h33.48v-1.69c0-1.07-.12-2.45-.48-3.99Z"/>
        </g>
        <g id="Hose">
          <path class="cls-2" d="M255.36,234.48c-2.13,13.74-4.22,27.49-6.26,41.25-3.71,24.95-7.28,49.93-10.7,74.93-2.64-.6-5.83-1.12-9.46-1.31-3.32-.17-6.29-.02-8.81.26-2.58-21.67-3.93-48.22-1.57-78.32,1.89-24.11,5.78-45.43,10.18-63.44,6.77,1.34,14.96,2.43,24.28,2.61.73.02,1.45.02,2.16.02l.19,23.99Z"/>
          <path class="cls-8" d="M303.4,348.31c-2.83-.18-6.03-.22-9.53,0-3.75.24-7.12.72-10.05,1.3-5.7-23.96-11.53-47.9-17.49-71.79-3.61-14.46-7.27-28.9-10.97-43.34l-.19-23.99c9.42.02,17.68-.91,24.47-2.11,1.05,2.95,2.29,6.55,3.64,10.67.65,2,2.66,8.21,4.77,15.68,0,0,4.19,14.85,7.26,30.03,6.4,31.67,8.23,60.11,8.1,83.55Z"/>
        </g>
        <g id="Oberteil">
          <path class="cls-29" d="M255.14,227.19c-.42,0-.85,0-1.28-.01-11.99-.16-22.18-1.96-29.95-3.92.76-6.61,1.92-15.37,3.72-25.65,1.87-10.71,2.97-14.66,3.72-21.93.81-7.81.92-16.46-.13-25.91,1.06-.54,2.68-1.21,4.76-1.53,2.06-.32,3.8-.17,4.97.02.58.67,4.58,5.11,11.16,5.09.26,0,.51,0,.77-.02l2.27,73.85Z"/>
          <path class="cls-9" d="M286.37,223.45c-7.98,1.95-18.63,3.76-31.23,3.73l-2.27-73.85c6.52-.37,10.32-5.05,10.79-5.66,1.58-.28,3.82-.49,6.46-.19,2.56.29,4.62.97,6.07,1.57-.39,5.21-.61,13.18.78,22.72,1.4,9.49,3.44,14.07,5.68,24.08,1.43,6.39,3.11,15.77,3.72,27.61Z"/>
        </g>
        <g id="Kittel">
          <g id="Rechts">
            <path class="cls-24" d="M301.32,138.87c3.47,3.84,6.94,7.69,10.4,11.53-5.86,4.26-11.3,7.22-15.66,9.25-6.94,3.24-12.18,4.92-17.49,6.1-.96.21-1.75.37-2.31.48-5.31,1.3-10.18-.06-12.15-3.23-2.44-3.92.43-9.22.77-9.81,1.66-2.97,4.95-6.02,25.65-11.61,4.54-1.23,8.3-2.14,10.79-2.72Z"/>
            <path class="cls-6" d="M302.54,276.71c-8.57,1.69-18.52,3.17-29.63,3.97l-13.3-135.01c4.1-1.14,7.46-1.31,9.07-1.38,1.99-.1,4.7-.08,7.91.38-.77,5.59-1.26,12.97-.32,21.56,1.03,9.43,3.42,17.15,5.62,22.7,3.8,10.96,7.45,22.89,10.71,35.72,4.76,18.7,7.9,36.19,9.95,52.05Z"/>
            <path class="cls-24" d="M259.91,143.84c-.27,1.75-.65,3.69-1.22,5.76-.51,1.87-1.1,3.57-1.69,5.09,1.92,7.71,3.84,15.41,5.76,23.12,1.48-6.95,2.96-13.9,4.44-20.85l-3.84-6.56,5.11-4.5-8.56-2.06Z"/>
            <path class="cls-24" d="M287.04,232.77l-10.19,1.17c-1.24.14-2.37-.76-2.51-1.99l-1.64-14.31c4.56-.44,9.13-.88,13.69-1.32.88,4.65,1.76,9.3,2.64,13.95.14,1.24-.76,2.37-1.99,2.51Z"/>
            <path class="cls-24" d="M302.57,146.2c-1.85-10.08-3.7-20.15-5.55-30.23,2.05-.1,4.38-.31,6.91-.72,2.21-.36,4.21-.81,5.98-1.29,1.78,10.3,3.56,20.6,5.34,30.91.32,3.02-2.25,5.76-5.74,6.13h-.06c-3.49.37-6.57-1.78-6.89-4.8Z"/>
          </g>
          <g id="Links">
            <path class="cls-24" d="M211.2,181.01c-4.87-2.66-9.74-5.31-14.61-7.97,5.8-4.83,11.05-9.03,15.57-12.58,10.23-8.02,13.93-10.46,19.24-10.91.88-.07,9.51-.71,11.66,3.63,2.08,4.2-3.23,10.41-4.8,12.24-1.55,1.82-3.88,4.03-12.66,8.72-3.51,1.88-8.39,4.32-14.41,6.86Z"/>
            <path class="cls-6" d="M246.37,147.03l-7.48,133.7c-10.29-.7-19.58-1.99-27.69-3.51.91-13.62,2.5-28.5,5.1-44.39,2.63-16.07,5.92-30.83,9.45-44.14,1.96-4.94,4.08-11.69,5.1-19.9.94-7.58.66-14.15.08-19.18,7.56-3.3,12.38-3.27,15.44-2.57Z"/>
            <path class="cls-24" d="M245.93,144.72c.31,1.66.72,3.44,1.25,5.33.56,1.99,1.18,3.82,1.82,5.47-1.46,7.42-2.91,14.85-4.37,22.27-1.93-6.62-3.86-13.23-5.79-19.85l3.74-6.62-5.18-4.42,8.52-2.19Z"/>
            <g id="Knöpfe">
              <circle class="cls-28" cx="241.14" cy="186.45" r=".77"/>
              <circle class="cls-28" cx="240.34" cy="196.97" r=".77"/>
              <circle class="cls-28" cx="239.83" cy="207.35" r=".77"/>
              <circle class="cls-28" cx="239.26" cy="218.07" r=".77"/>
              <circle class="cls-28" cx="238.81" cy="228.87" r=".77"/>
              <circle class="cls-28" cx="238.13" cy="239.51" r=".77"/>
              <circle class="cls-28" cx="237.53" cy="251.06" r=".77"/>
              <circle class="cls-28" cx="236.83" cy="261.68" r=".77"/>
            </g>
            <path class="cls-24" d="M222.85,233.72l10.22.87c1.24.11,2.34-.82,2.45-2.07.18-4.78.36-9.57.54-14.35-4.55-.43-9.1-.85-13.65-1.28-.54,4.79-1.08,9.59-1.62,14.38-.11,1.24.82,2.34,2.07,2.45Z"/>
            <g id="Unterarm">
              <path class="cls-12" d="M203.92,174.52c8.13,7.24,15.65,15.14,23.76,22.4,1.13,1.01,3.13,2.75,2.78,4.54-.35,1.8-2.94,3.24-4.56,2.86-.47-.11-1.23-.53-1.89-1.06-.27-.22-.48-.42-.63-.57-8.9-6.33-17.8-12.66-26.7-18.99-.5-.39-2.33-1.91-2.58-4.39-.03-.32-.09-1,.12-1.81.71-2.69,3.96-4.93,6.97-4.38,1.43.26,2.4,1.09,2.72,1.39Z"/>
              <path class="cls-24" d="M203.47,172.64l22.81,19.14c-1.26.99-2.81,2.37-4.37,4.19-1.78,2.07-3.01,4.05-3.83,5.58-11.82-9.51-20.35-16.74-22.81-19.14-.51-.49-1.59-1.59-1.72-3.38-.14-1.93.9-3.76,1.71-4.91l.04-.05c2.25-2.68,5.91-3.33,8.16-1.44Z"/>
            </g>
          </g>
        </g>
      </g>
      <g id="Gesicht">
        <g id="Haare">
          <path class="cls-24" d="M238.68,113.22c-.2.12-1.75,1.05-2.01,2.92-.21,1.5.48,3.03,1.78,3.93-.25.14-2.75,1.6-3.04,4.47-.25,2.44,1.21,4.87,3.65,5.97-.11.29-.51,1.49.08,2.66.67,1.35,2.39,2.12,4.19,1.75.31.59,1.21,2.09,3.05,2.97,2.99,1.43,5.9-.05,6.24-.23.2.1,4.11,1.86,7.31-.38,1.53-1.07,2.18-2.57,2.44-3.27.54-.07,2.11-.36,3.49-1.7,1.49-1.45,1.78-3.19,1.84-3.7.12-.12,2.44-2.72,1.47-5.83-.56-1.8-1.91-2.77-2.39-3.08.26-.66,1.02-2.84.22-5.43-.64-2.05-1.92-3.28-2.5-3.78-.21-.59-.8-1.99-2.24-3.13-1.37-1.08-2.77-1.36-3.4-1.44-2.94-.43-5.89-.86-8.83-1.29-1.9.89-3.81,1.78-5.71,2.66-.63.07-1.98.31-3.25,1.32-2.11,1.68-2.35,4.15-2.39,4.61Z"/>
        </g>
        <g id="Kopf">
          <path class="cls-12" d="M269.25,124.3v1.06c0,1.56-1.27,2.83-2.82,2.83-.53,0-1.01-.15-1.43-.4-.84,4.13-3.69,7.57-7.48,9.22,0,.05,0,.09,0,.14v10.6c0,2.74-2.24,4.98-4.98,4.98s-4.98-2.24-4.98-4.98v-10.64c-3.85-1.59-6.77-5.01-7.67-9.15-.35.15-.73.23-1.13.23-1.55,0-2.82-1.27-2.82-2.83v-1.06c0-1.55,1.27-2.82,2.82-2.82.29,0,.58.04.84.13v-2.6c0-7.05,5.77-12.82,12.82-12.82,3.52,0,6.73,1.44,9.05,3.77,2.33,2.32,3.77,5.52,3.77,9.05v2.73c.36-.17.76-.26,1.18-.26.78,0,1.48.32,1.99.83.51.51.83,1.21.83,1.99Z"/>
        </g>
        <g id="Schatten">
          <path class="cls-4" d="M257.5,136.99c-.76.34-1.81.71-3.09.91-1.49.24-2.77.16-3.67.04,2.27,1.69,4.54,3.38,6.8,5.06,0-.56,0-1.04,0-1.44,0-.32,0-.35,0-1.8,0-1.01,0-1.11,0-1.34,0-.61-.02-1.11-.04-1.44Z"/>
          <path class="cls-4" d="M266.84,123.54c.2,0,.48.81.26,1.54-.16.52-.58,1.05-.75.98-.33-.13.14-2.52.49-2.52Z"/>
          <path class="cls-4" d="M238.18,123.54c-.2,0-.48.81-.26,1.54.16.52.58,1.05.75.98.33-.13-.14-2.52-.49-2.52Z"/>
        </g>
        <g id="Augenbrauen">
          <path class="cls-24" d="M244.46,117.85c.31-.24.9-.62,1.74-.79,1.05-.21,1.91.02,2.29.16.55-.4.65-.67.62-.85-.11-.63-1.9-1.04-3.4-.66-1.01.26-2.19.96-2.1,1.52.05.29.43.49.85.62Z"/>
          <path class="cls-24" d="M256.18,117.42c.38-.09,1.08-.19,1.91,0,1.05.23,1.73.8,2.02,1.08.67-.14.87-.35.91-.52.16-.62-1.31-1.73-2.83-1.99-1.03-.18-2.39-.02-2.54.53-.08.28.19.62.52.91Z"/>
        </g>
        <g id="Augen">
          <rect class="cls-10" x="246.27" y="119.14" width="2.05" height="2.41" rx="1.02" ry="1.02"/>
          <rect class="cls-10" x="256.33" y="119.14" width="2.05" height="2.41" rx="1.02" ry="1.02"/>
        </g>
        <g id="Mund">
          <ellipse class="cls-28" cx="252.49" cy="132.19" rx="3.34" ry="1.42"/>
        </g>
        <g id="Bart">
          <path class="cls-6" d="M252.43,130.77c-.55.46-3.76,3.03-7.71,2.23-1.2-.24-2.16-.74-2.86-1.2.83-.11,2-.34,3.31-.86,2.9-1.15,4.21-2.81,5.83-2.34.4.12.92.39,1.43,1.09v1.08Z"/>
          <path class="cls-6" d="M252.29,130.77c.55.46,3.76,3.03,7.71,2.23,1.2-.24,2.16-.74,2.86-1.2-.83-.11-2-.34-3.31-.86-2.9-1.15-4.21-2.81-5.83-2.34-.4.12-.92.39-1.43,1.09v1.08Z"/>
        </g>
        <g id="Nase">
          <path class="cls-10" d="M252.66,128.2c-.35,0-.71-.1-1.06-.29-.06-.03-.08-.11-.05-.17.03-.06.11-.08.17-.05.47.26.99.33,1.4.18.22-.08.39-.21.45-.36.16-.38.02-.77-.44-1.19l-.06-.06c-.23-.21-.62-.57-.8-1.14-.06-.2-.09-.49-.1-.69v-.08c0-.24-.01-.42-.01-.61,0-.19,0-.38,0-.6,0-.07.06-.12.12-.12s.12.06.12.12c0,.22,0,.41,0,.6,0,.19,0,.38,0,.6v.07c.02.18.04.46.1.63.16.51.51.82.73,1.03l.06.06c.53.49.7.98.5,1.47-.09.22-.31.4-.6.5-.17.06-.36.09-.55.09Z"/>
        </g>
        <g id="Haare-2" data-name="Haare">
          <path class="cls-24" d="M238.78,114.26c1.2,1.17,2.85,1.08,3.17,1.05.55.6,1.09.93,1.45,1.12,1.95.98,4.3.48,5.83-.57.51-.35.87-.72,1.09-.97.69.24,1.98.56,3.48.2.37-.09,3.06-.74,3.66-2.86.17-.62.12-1.18.04-1.56.35.16,1.54.66,2.88.22,1.58-.51,2.93-2.18,2.68-4.09-.21-1.57-1.45-2.87-3.08-3.2-.21-.3-1.17-1.62-3.02-2.03-1.83-.4-3.25.38-3.57.56-.52-.21-2.24-.81-4.31-.22-1.99.57-3.1,1.89-3.45,2.35-.18-.07-1.44-.57-2.77.11-1.34.68-1.68,1.99-1.72,2.18-.37.14-2.23.9-3.02,2.9-.06.15-1.14,3.02.69,4.8Z"/>
        </g>
      </g>
      <g id="Klemmmappe">
        <g>
          <rect class="cls-29" x="230" y="177.14" width="35.34" height="50.12" transform="translate(7.54 -8.89) rotate(2.09)"/>
          <rect class="cls-8" x="246.81" y="167.13" width="3.71" height="20.63" transform="translate(62.27 419.47) rotate(-87.91)"/>
        </g>
        <g>
          <path class="cls-9" d="M259.99,201.5c-.15,4.23-2.43,7.89-5.76,9.99-.7-1.69-1.4-3.39-2.11-5.08-.11-.26-.22-.53-.33-.79,1.19-1.08,1.96-2.61,2.02-4.34.12-3.4-2.53-6.26-5.93-6.38s-6.26,2.53-6.38,5.93c-.06,1.69.56,3.25,1.63,4.4-.95,1.9-1.91,3.8-2.86,5.7-3.12-2.34-5.09-6.13-4.93-10.32.25-6.81,5.97-12.12,12.77-11.87s12.12,5.97,11.87,12.77Z"/>
          <path class="cls-9" d="M253.83,213.35c-.4-.97-.8-1.93-1.2-2.9-.2-.48-.4-.97-.6-1.45-.4-.96-.79-1.92-1.19-2.88-.46-1.11-.92-2.22-1.38-3.33l.09-2.49.05-1.43-3.81-.14-.06,1.62-.08,2.3c-.41.81-.82,1.63-1.23,2.44-.49.97-.97,1.94-1.46,2.91-.17.33-.34.67-.5,1-.14.27-.28.55-.42.82-.54,1.09-1.09,2.18-1.64,3.27l2.27.08,4.5.17h.27s6.49.25,6.49.25c-.03-.08-.07-.16-.1-.24Z"/>
          <rect class="cls-9" x="247.01" y="195.65" width="1.43" height="4.87" transform="translate(40.74 438.43) rotate(-87.91)"/>
          <path class="cls-2" d="M247.18,213.13h0s-6.34-.23-6.34-.23c1.36-2.71,2.72-5.41,4.08-8.12.4.07.8.19,1.2.37,1.19.55,1.51,1.28,2.47,1.47.48.1,1.12.06,1.97-.39.98,2.38,1.97,4.76,2.96,7.13l-6.34-.23Z"/>
          <circle class="cls-2" cx="248.71" cy="204.72" r=".41"/>
          <circle class="cls-2" cx="248.14" cy="203.24" r=".27"/>
          <circle class="cls-29" cx="245.69" cy="208.52" r=".41"/>
          <circle class="cls-29" cx="246.5" cy="210.25" r=".27"/>
          <circle class="cls-29" cx="246.17" cy="206.7" r=".27"/>
          <circle class="cls-2" cx="248.28" cy="194.9" r=".41"/>
          <circle class="cls-2" cx="249.09" cy="196.63" r=".27"/>
          <circle class="cls-2" cx="248.76" cy="193.08" r=".27"/>
        </g>
        <path class="cls-12" d="M230.19,196.05c-.85-.15-2.56-.55-3.5-.66-1.28-.15-2.49-.25-3.64-.31-.35.92-.74,1.86-1.16,2.83-.42.98-.86,1.92-1.29,2.81.65.99,1.96,1.96,3.73,3.28,2.55,1.9,5.04,2.47,6.04,2.65.4.07,6.28,1.61,7.49-.81.41-.82.11-1.74.05-1.92-.01-.03-.03-.07-.05-.12-.25-.56-1.31-1.91-3.78-2.61,0,0-2.3-.65-3.59-1.33-.11-.06-.14-.15-.14-.15,0,0,0,0,0-.01,0-.31-.02-.72-.16-3.65Z"/>
      </g>
    </g>
    <g id="Person:_Frau" data-name="Person: Frau">
      <g id="Körper-3" data-name="Körper">
        <g id="Figur">
          <path class="cls-13" d="M116.07,180.42c-6.48-6.36-11.77-13.83-17.69-20.72-.05-.06-.25-.29-.3-.35-.02-.02-.03-.04-.05-.06-.97-1.01-2.25-1.66-3.61-1.86.02-.13.03-.27.05-.4-5.28-.26-11.43-.21-18.23.49-7.35.75-13.81,2.09-19.23,3.55h0c-2.02.45-3.71,1.86-4.49,3.75-.01.02-.02.05-.03.07-.05.14-.09.3-.15.44-2.78,7.86-5.56,15.71-8.32,23.56-1.03-1.94-2.1-3.89-3.19-5.85-2.83-5.08-5.66-9.97-8.48-14.67,0-.25-.03-.62-.13-1.04-.31-1.29-.97-1.71-2.49-3.55-.62-.76-1.47-1.86-2.65-2.9-.32-.28-.92-.77-1.48-.62-.15.04-.3.13-.43.3-.46.55.12,2.1.92,3.5.37.66-1.88.99-3.11.21-2.31-1.47-2.81-4.15-4.15-3.44-1.59.84-.14,4.55,2.53,7.03,1.81,1.67,3.62,2.52,4.34,2.77,1.04.37,2.01.54,2.81.61,3.95,10.03,7.89,20.06,11.84,30.1h0c.02.1.04.19.08.28.03.11.07.22.11.33.64,1.65,2.19,2.86,4.07,2.96.08,0,.16,0,.25,0,.16,0,.31,0,.47-.03.04,0,.09-.01.13-.01.15-.02.29-.04.43-.08.15-.03.3-.07.44-.12.01-.01.03-.01.05-.02.13-.04.26-.1.38-.15.49-.22.93-.53,1.31-.9.06-.05.12-.11.17-.17.08-.08.15-.16.21-.25.12-.14.22-.29.32-.44.06-.09.11-.18.15-.27.07-.14.13-.29.19-.44,0-.01.02-.03.03-.05.03-.04.04-.08.05-.12,4.04-8.71,8.08-17.42,12.11-26.11,2.12,7.23,4.23,14.47,6.35,21.7l-9.46,14.79.06.05c-.08.07-.15.15-.22.23h0c-.19.4-.41.79-.41.79-9.47,16.02-6.66,55.87-6.66,55.87.24,3.29.63,8.01,1.33,13.68,0,.21.01.42.03.63,0,.1.02.2.03.3v.02c-.31,15.05-.4,30.5-.23,46.33.13,11.69.39,23.18.78,34.44,0,.04,0,.11-.01.2-.16.97-1.54,1.19-1.62,1.69-.06.35.52.93,3.02,1.92h.01c.82.17,1.75.26,2.74.26,1.05,0,2.03-.1,2.88-.29,1.32-.29,2.98-1.21,2.89-1.89-.07-.56-1.31-.81-1.31-1.6,0-.09.02-.15.02-.18.57-4.07,1.44-10.39,2.5-18.14,1.07-7.81,1.74-11.5,2.41-17.64,1.84-17.03,2.08-32.54,1.52-46.05,2.61-18.61,5.23-37.22,7.84-55.82h0s3.15,0,3.15,0c.08.09.19.18.31.25,4.23,18.28,8.44,36.55,12.67,54.83,0-.07-.01-.13-.01-.2h.03c.01.18.03.35.06.52-.03-.11-.05-.21-.08-.32.76,11.17,2.4,27.21,6.21,45.46,4.26,20.41,9.79,36.64,10.07,37.2.01.03.04.08.06.16.1.69-1.51,1.07-1.58,1.78-.08.82,1.95,1.64,2.15,1.7.99.3,2.25.48,3.62.48,1.1,0,2.13-.12,3.01-.32,1.08-.24,2.83-1.14,2.75-1.86-.1-.83-2.59-.84-2.87-2.24-.04-.16-.03-.28-.02-.33.07-1.47-1.34-20.37-2.83-36.82-1.42-15.7-3.07-30.96-4.93-45.75,0-.03,0-.07,0-.1.02-.08.02-.14.02-.22h0c.08-7.23-.02-13.31-.12-17.82-.79-30.23-6.74-45.68-9.6-50.22-.16-.25-.3-.49-.42-.68-.06-.11-.12-.2-.19-.29-2.47-4.93-4.93-9.86-7.4-14.79.98-8.6,1.96-17.19,2.95-25.79,3.68,3.87,5.5,7.4,13.62,13.99,4.24,3.43,9.92,8.04,13.21,6.23,1.24-.68,1.93-2.17,2.05-3.39.3-2.79-2.26-4.79-5.61-8.08ZM30.84,165.26c.62.48.98,1.11,1.06,1.25.07.13.13.26.18.39-.47-.6-.88-1.15-1.24-1.64Z"/>
        </g>
        <g id="Schuhe-2" data-name="Schuhe">
          <path class="cls-1" d="M64.43,371.5v1.51h-29.78v-1.51s.24-1.41,7.79-3.6c3.48-1,6.17-2.27,8.9-3.03,1.19.48,3.14,1.09,5.6,1.13,2.67.03,4.76-.64,5.98-1.13.37.81.79,1.85,1.08,3.08.32,1.37.43,2.6.43,3.55Z"/>
          <path class="cls-1" d="M105.13,371.67v1.51h29.78v-1.51s-.24-1.41-7.79-3.6c-3.48-1-6.17-2.27-8.9-3.03-1.19.48-3.14,1.09-5.6,1.13-2.67.03-4.76-.64-5.98-1.13-.37.81-.79,1.85-1.08,3.08-.32,1.37-.43,2.6-.43,3.55Z"/>
        </g>
        <g id="Kittel_hinterteil-2" data-name="Kittel hinterteil">
          <path class="cls-24" d="M39.85,268.19c10.3,1.95,22.94,3.51,37.39,3.52,15.5,0,28.96-1.78,39.75-3.95-5.54-21.62-11.08-43.24-16.62-64.86l-47.83.57-12.68,64.71Z"/>
          <path class="cls-24" d="M80.35,159.36c-3.47.28-6.94.55-10.41.83-.25-1.3-.5-2.59-.75-3.89,1.55-.4,3.45-.77,5.64-.92,2.39-.17,4.48-.04,6.17.18-.03.21-.06.43-.09.65-.15,1.09-.34,2.15-.55,3.16Z"/>
        </g>
        <g id="Hose-2" data-name="Hose">
          <path class="cls-8" d="M116.79,355.8c-1.63-.3-4.23-.57-7.32,0-2.63.49-4.68,1.41-6.03,2.16-2.05-9.01-5.02-22.57-8.19-39.21-2.97-15.59-4.08-23.17-6.36-35.73-2.31-12.72-5.9-30.84-11.25-52.95l-1.22-32.78h1.22c4.08.03,8.15.05,12.23.06,7.38,9.21,11.16,17.56,13.23,23.25,3.59,9.93,4.6,20.12,6.51,40.53.66,7.05,1.21,13.07,1.63,17.86.36,3.9.69,7.81,1.03,11.73,1.86,21.97,3.36,43.68,4.54,65.08Z"/>
          <path class="cls-2" d="M77.64,230.06c-1.78,16.76-3.56,33.52-5.33,50.3-2.72,25.87-5.42,51.74-8.09,77.6-1.9-.49-4.32-.94-7.11-1.08-2.95-.15-5.52.1-7.54.43-1.02-33.23-1.68-58.01-1.81-66.59-.05-3.65-.08-7.08-.08-7.08-.03-4.21-.03-9.93.08-16.6.29-18.91.43-28.37,2.07-35.79,1.76-7.96,5.97-20.31,17.46-34.02l9.14.06,1.22,32.78Z"/>
        </g>
        <g id="Oberteil-2" data-name="Oberteil">
          <path class="cls-29" d="M76.44,197.32c-3.03,0-6.08-.01-9.13-.01l-10.3-36.24c3.84-.92,7.67-1.84,11.51-2.76.77,1.24,1.91,2.78,3.56,4.29,1.11,1.02,2.2,1.8,3.16,2.39.4,10.78.8,21.55,1.21,32.33Z"/>
          <path class="cls-9" d="M94.46,157.03c-1.53,13.44-3.07,26.88-4.6,40.32-4.06-.01-8.13-.01-12.2-.03h-1.22l-1.21-32.33.07.06c.92-.91,1.91-2,2.89-3.26,1.31-1.69,2.31-3.31,3.07-4.74,4.4,0,8.8-.01,13.2-.02Z"/>
        </g>
        <g id="Kittel-2" data-name="Kittel">
          <g id="Links-2" data-name="Links">
            <path class="cls-24" d="M65.22,170.88c-.93,2.14-1.92,4.31-2.98,6.52-1.37,2.87-1.55,3.25-1.77,3.73-2.01,4.27-3.08,7.42-3.88,9.55-1.11,2.94-2.91,7.08-5.88,12.17-.04.18-.1.35-.19.49-1.14,1.9-2.25,2.73-2.57,2.91l-.05.03c-2.62,1.38-5.86.38-7.24-2.23l-14.01-26.46c1.33-.33,3-.87,4.8-1.8,2.06-1.05,3.62-2.25,4.72-3.24,2.32,4.38,4.64,8.77,6.96,13.15.83-3.97,1.74-7.25,2.53-9.76,1.14-3.65,1.97-5.59,2.44-6.62,1.21-2.65,2.47-4.78,3.47-6.31,2.15-2.79,6.27-3.53,9.62-1.89,3.72,1.83,5.63,6.19,4.03,9.76Z"/>
            <path class="cls-6" d="M69.56,158.25l-6.32,112.9c-8.69-.59-16.54-1.68-23.38-2.96.77-11.5,2.11-24.06,4.31-37.49,2.22-13.57,5-26.03,7.98-37.28,1.66-4.17,3.45-9.87,4.31-16.81.8-6.4.56-11.95.07-16.2,6.38-2.79,10.46-2.76,13.04-2.17Z"/>
            <path class="cls-24" d="M69.18,156.3c.27,1.4.61,2.91,1.06,4.5.47,1.68,1,3.23,1.54,4.62-1.23,6.27-2.46,12.54-3.69,18.81-1.63-5.59-3.26-11.18-4.89-16.76l3.16-5.59-4.37-3.73,7.2-1.85Z"/>
            <g id="Knöpfe-2" data-name="Knöpfe">
              <circle class="cls-28" cx="65.14" cy="191.54" r=".65"/>
              <circle class="cls-28" cx="64.46" cy="200.43" r=".65"/>
              <circle class="cls-28" cx="64.03" cy="209.19" r=".65"/>
              <circle class="cls-28" cx="63.55" cy="218.25" r=".65"/>
              <circle class="cls-28" cx="63.17" cy="227.36" r=".65"/>
              <circle class="cls-28" cx="62.59" cy="236.35" r=".65"/>
              <circle class="cls-28" cx="62.09" cy="246.1" r=".65"/>
              <circle class="cls-28" cx="61.5" cy="255.07" r=".65"/>
            </g>
            <path class="cls-24" d="M49.7,231.46l8.63.73c1.05.09,1.98-.7,2.07-1.74.15-4.04.3-8.08.45-12.12-3.84-.36-7.68-.72-11.53-1.08-.46,4.05-.91,8.09-1.37,12.14-.09,1.05.7,1.98,1.74,2.07Z"/>
          </g>
          <g id="Rechts-2" data-name="Rechts">
            <path class="cls-24" d="M120.73,185.15c-5.03.24-9.37.37-14.4.61-2.68-2.25-5.39-4.51-8.13-6.77-3.86-3.18-7.7-6.3-11.52-9.34-2-3.57-2.7-7.16-.55-9.77,2.14-2.59,5.81-2.84,6.57-2.88,4.69-.2,7.99,3.58,15.45,12.29,5.44,6.34,9.26,11.84,12.58,15.86Z"/>
            <path class="cls-6" d="M116.99,267.76c-7.24,1.43-15.64,2.68-25.02,3.35l-11.24-114.01c2.02-.51,4.83-.99,8.18-.85,2.57.1,4.77.54,6.47,1-.66,4-1.29,10.01-.58,17.21.78,7.93,2.77,13.47,4.74,19.17,3.21,9.26,6.29,19.33,9.05,30.17,4.02,15.79,6.67,30.56,8.4,43.96Z"/>
            <path class="cls-24" d="M80.99,155.56c-.22,1.48-.55,3.11-1.03,4.87-.43,1.58-.93,3.02-1.43,4.3,1.62,6.51,3.24,13.02,4.86,19.53,1.25-5.87,2.5-11.74,3.75-17.61l-3.24-5.54,4.32-3.8-7.22-1.74Z"/>
            <path class="cls-24" d="M103.9,230.66l-8.61.99c-1.05.12-2-.64-2.12-1.68l-1.38-12.08c3.85-.37,7.71-.74,11.56-1.11.74,3.93,1.49,7.85,2.23,11.78.12,1.05-.64,2-1.68,2.12Z"/>
            <g id="Unterarm-2" data-name="Unterarm">
              <path class="cls-13" d="M119.15,194.11c-.67.16-1.36.17-1.99.04h-.01c-11-.49-22-.99-33-1.49-1.02.98-2.52,1.2-3.69.55-1.41-.78-1.92-2.61-1.3-3.91.69-1.43,2.47-1.61,2.73-1.63.85-.07,1.53.18,1.88.35,5.44-.66,11.06-1.26,16.85-1.76,5.75-.5,11.34-.89,16.77-1.17h.05c.21-.02.42-.03.64-.05.04,0,.08,0,.12,0,2.03.05,2.68,1.43,3.18,3.5.6,2.47.24,4.98-2.24,5.57Z"/>
              <path class="cls-13" d="M77.35,188.01c1.04-.21,2.12-.42,3.64-.43,1.18,0,2.56.18,3.23.37.09.76.19,1.55.32,2.36.13.82.27,1.62.42,2.38-.69.62-1.87,1.1-3.47,1.75-2.3.94-4.29.88-5.08.82-.32-.02-5.07-.01-5.5-2.08-.15-.7.25-1.33.34-1.46.15-.23.61-.81,3.43-1.32,1.53-.27,2.83-.36,2.83-.5,0-.04-.12-.07-.17-.08-1.31-.29-3.27-.43-3.32-.67-.05-.24,1.3-.74,3.33-1.15Z"/>
              <path class="cls-24" d="M117.75,194.42c-9.97.51-19.94,1.02-29.91,1.53.14-1.73.2-3.7.1-5.87-.09-1.89-.3-3.61-.56-5.15,10.18-.43,20.36-1.67,30.54-1.29,2.11.08,3.96,1.98,3.92,4.94.03,2.01.12,4.2-1.83,5.24-.96.51-1.85.57-2.25.59Z"/>
            </g>
          </g>
        </g>
      </g>
      <g id="Gesicht-2" data-name="Gesicht">
        <g id="Haare-3" data-name="Haare">
          <path class="cls-1" d="M66.95,145.13c.6,1.18.1,2.56-.9,3.04-1.08.52-2.61-.09-3.04-1.46-2.28.12-3.93-1.44-3.94-2.93,0-1.47,1.61-2.43,1.69-2.48-2.42-.21-4.27-2.11-4.39-4.28-.09-1.73.93-3.42,2.59-4.28-.19-.2-1.77-1.84-1.46-4.28.3-2.36,2.12-3.56,2.36-3.71-1.23-1.61-1.36-3.77-.34-5.4,1.17-1.88,3.65-2.68,5.85-1.8,0-.22.2-3.36,2.93-4.95,2.04-1.19,4.67-1.02,6.64.45.98-1.14,2.52-1.63,3.94-1.24,1.56.43,2.7,1.83,2.81,3.49.31-.06,3.91-.65,6.53,2.03,2.17,2.22,2.05,5.05,2.03,5.51,1.78.83,2.98,2.55,3.15,4.5.17,2.01-.78,3.96-2.48,5.06,1.46.69,2.42,2.13,2.48,3.71.06,1.73-.97,3.34-2.59,4.05,1.28.84,1.73,2.46,1.13,3.71-.51,1.05-1.68,1.69-2.93,1.58-.25,1.73-1.7,2.86-3.04,2.7-.93-.11-1.74-.83-2.14-1.8-1.07.61-2.32.68-3.15.11-1.22-.84-1.56-3.11-.11-4.84-4.91.11-9.83.23-14.74.34l1.13,3.15Z"/>
        </g>
        <g id="Kopf-2" data-name="Kopf">
          <path class="cls-13" d="M90.91,135.85v1c0,1.46-1.2,2.66-2.67,2.66-.49,0-.96-.14-1.35-.38-.79,3.91-3.48,7.14-7.05,8.7.01.05.01.09.01.14v10c0,2.58-2.11,4.69-4.7,4.69s-4.69-2.11-4.69-4.69v-10.04c-3.63-1.5-6.39-4.73-7.23-8.65-.33.15-.69.23-1.07.23-1.46,0-2.66-1.2-2.66-2.66v-1c0-1.46,1.2-2.66,2.66-2.66.27,0,.54.04.79.12v-2.45c0-6.65,5.44-12.09,12.09-12.09,3.33,0,6.35,1.36,8.54,3.55,2.19,2.19,3.55,5.22,3.55,8.54v2.58c.34-.16.71-.25,1.11-.25.73,0,1.4.3,1.89.78.48.49.78,1.15.78,1.88Z"/>
        </g>
        <g id="Schatten-2" data-name="Schatten">
          <path class="cls-23" d="M88.63,135.13c.19,0,.45.76.25,1.45-.15.49-.55.99-.71.93-.31-.13.13-2.38.46-2.38Z"/>
          <path class="cls-23" d="M79.79,147.85c-.72.32-1.71.67-2.92.86-1.41.22-2.61.15-3.47.04,2.14,1.59,4.28,3.18,6.42,4.78,0-.53,0-.98,0-1.36,0-.3,0-.33,0-1.7,0-.95,0-1.05,0-1.26,0-.58-.02-1.05-.03-1.36Z"/>
          <path class="cls-23" d="M61.6,135.13c-.19,0-.45.76-.25,1.45.15.49.55.99.71.93.31-.13-.13-2.38-.46-2.38Z"/>
        </g>
        <g id="Augenbrauen-2" data-name="Augenbrauen">
          <path class="cls-1" d="M81.91,130.7c-.32-.17-.93-.44-1.74-.48-1.01-.05-1.77.3-2.11.48-.58-.29-.71-.53-.7-.7.01-.6,1.62-1.25,3.07-1.11.98.09,2.18.58,2.18,1.11,0,.28-.33.52-.7.7Z"/>
          <path class="cls-1" d="M72.03,130.67c-.32-.17-.93-.44-1.74-.48-1.01-.05-1.77.3-2.11.48-.58-.29-.71-.53-.7-.7.01-.6,1.62-1.25,3.07-1.11.98.09,2.18.58,2.18,1.11,0,.28-.33.52-.7.7Z"/>
        </g>
        <g id="Augen-2" data-name="Augen">
          <rect class="cls-10" x="69.25" y="131.49" width="1.93" height="2.27" rx=".97" ry=".97"/>
          <rect class="cls-10" x="78.92" y="131.46" width="1.93" height="2.27" rx=".97" ry=".97"/>
        </g>
        <g id="Gesicht-3" data-name="Gesicht">
          <path class="cls-28" d="M71.41,141.6c.07.23.59,1.96,2.26,2.62,1.59.63,3.54.04,4.73-1.5-.93.19-2.51.37-4.37-.08-1.1-.27-1.98-.68-2.62-1.04Z"/>
        </g>
        <g id="Nase-2" data-name="Nase">
          <path class="cls-10" d="M75.61,139.84c-.33,0-.68-.09-1-.27-.06-.03-.08-.11-.05-.17.03-.06.11-.08.17-.05.44.24.93.31,1.32.17.21-.07.36-.19.42-.33.15-.36.02-.72-.41-1.11l-.06-.05c-.22-.2-.58-.54-.76-1.08-.06-.19-.08-.46-.1-.65v-.08c0-.22-.01-.4-.01-.57,0-.18,0-.35,0-.57,0-.07.06-.12.12-.12s.12.06.12.12c0,.21,0,.39,0,.56,0,.18,0,.35,0,.57v.07c.02.17.04.43.09.59.15.48.47.77.69.97l.06.05c.51.46.66.93.47,1.39-.09.21-.29.38-.57.47-.16.06-.34.08-.52.08Z"/>
        </g>
        <g id="Haare-4" data-name="Haare">
          <path class="cls-1" d="M89.61,129.63c-.39,1.07-1.34,1.7-2.39,1.58-.74.62-1.81.34-2.29-.49-.42-.74-.3-1.76.34-2.32-1.05.83-2.45.82-3.48,0-1.22-.98-1.32-2.62-1.32-2.79-.14-.08-1.7-.96-2.23-2.94-.39.06-.83.05-1.29-.05.58,1.44.11,3.1-1.13,4.01-1.26.93-3.04.86-4.24-.19.12,1.65-.78,2.56-1.53,2.83-1.45.53-2.62-.26-3.1-.26-.11,0,.43,1.63-.86,2.81-.68.62-2.25,1.07-3.3.66-.61-.26-1.84-.91-2.44-1.76-1.75-2.5.94-6.73,2.47-8.81,1.03-1.4,2.25-2.26,3.13-2.76-.13-1.46.71-2.81,1.98-3.28,1.48-.55,3.26.19,3.97,1.77.53-1.26,1.85-2,3.15-1.79,1.41.23,2.48,1.53,2.42,3.03.43.08.8.23,1.12.43.29-.58.61-.93.66-.98.05-.15.56-1.69,1.89-1.99,1.31-.29,2.85.72,3.5,2.51.23.02,2.42.23,3.79,2.43,1.52,2.46.59,5.08.54,5.22.76.84,1.01,2.1.64,3.14Z"/>
        </g>
      </g>
      <g id="Reagenzglas-2" data-name="Reagenzglas">
        <path class="cls-5" d="M71.09,177.7h7.49v32.78c0,2.07-1.68,3.75-3.75,3.75h0c-2.07,0-3.75-1.68-3.75-3.75v-32.78h0Z" transform="translate(-38.51 19.45) rotate(-11.8)"/>
        <rect class="cls-5" x="66.36" y="175.45" width="8.95" height="2.66" transform="translate(-34.67 18.23) rotate(-11.8)"/>
        <path class="cls-8" d="M78.55,213.22l-.19.04c-1.66.35-3.29-.72-3.64-2.38l-6.22-29.76c.45.05,1.14.08,1.94-.11.9-.22,1.26-.56,2.23-.86.46-.14,1.14-.3,2.03-.33,2.07,9.92,4.15,19.84,6.22,29.76.35,1.66-.72,3.29-2.38,3.64Z"/>
        <circle class="cls-29" cx="75.32" cy="202.94" r="1.06"/>
        <circle class="cls-29" cx="77.57" cy="207.3" r=".7"/>
        <circle class="cls-29" cx="76.38" cy="198.23" r=".7"/>
        <path class="cls-13" d="M84.22,187.95c.09.76.19,1.55.32,2.37.13.83.27,1.62.43,2.38-.68.62-1.87,1.1-3.47,1.75-2.3.94-4.29.88-5.08.82-.32-.02-5.07-.01-5.51-2.08-.15-.7.25-1.34.34-1.46.15-.23.61-.81,3.43-1.32.94-.17,1.88-.39,2.83-.5,1.52-.18,3.74-.65,6.71-1.96Z"/>
      </g>
    </g>
  </g>
  <g id="Gruppe:_Blau" data-name="Gruppe: Blau">
    <g>
      <rect class="cls-15" x="694.45" y="203.35" width="250.14" height="146.89" transform="translate(1639.03 553.58) rotate(180)"/>
      <path class="cls-3" d="M688.15,204.28h157.94s98.51,0,98.51,0v-6.8s-256.45,0-256.45,0c-1.71,0-3.12,1.43-3.12,3.18v.44c0,1.75,1.4,3.18,3.12,3.18Z"/>
      <rect class="cls-28" x="847" y="204.28" width="2.5" height="145.43"/>
      <rect class="cls-28" x="693.92" y="231.02" width="251.63" height="2.5"/>
      <rect class="cls-28" x="758.61" y="216.51" width="21.52" height="3.47" transform="translate(1538.74 436.48) rotate(180)"/>
      <rect class="cls-28" x="914.65" y="216.51" width="21.52" height="3.47" transform="translate(1850.83 436.48) rotate(180)"/>
      <rect class="cls-28" x="829.64" y="288.41" width="21.52" height="3.47" transform="translate(550.26 1130.55) rotate(-90)"/>
      <rect class="cls-28" x="845.34" y="288.41" width="21.52" height="3.47" transform="translate(565.95 1146.24) rotate(-90)"/>
    </g>
    <g id="Person:_Mann-2" data-name="Person: Mann">
      <g id="Körper-4" data-name="Körper">
        <g id="Kittel_hinterteil-3" data-name="Kittel hinterteil">
          <path class="cls-24" d="M868.81,187.52c-4.11.33-8.22.65-12.33.98-.3-1.54-.6-3.07-.89-4.61,1.84-.48,4.09-.91,6.68-1.09,2.83-.2,5.3-.05,7.31.21-.03.25-.07.51-.1.77-.18,1.3-.4,2.54-.65,3.74Z"/>
          <path class="cls-24" d="M820.86,316.39c12.19,2.31,27.16,4.16,44.28,4.17,18.35,0,34.29-2.11,47.07-4.67-6.56-25.6-13.12-51.2-19.68-76.8l-56.64.68-15.02,76.63Z"/>
        </g>
        <g id="Körper-5" data-name="Körper">
          <path class="cls-12" d="M923.05,186.13c-.37.49-.85.92-1.44,1.27-1.16.69-2.51.96-3.79,1.35-4.4,1.33-8.15,4.37-12.1,6.61-5.95,3.38-12.08,6.43-18.42,9.01-.8.38-1.69.6-2.62.62.1,6.82.52,14.11,1.36,21.8,1.07,9.81,2.68,18.78,4.51,26.79.02.04.04.07.06.11.78,1.55,1.56,3.11,2.34,4.66,0,0,0,.02.03.02,2.37,9.88,4.48,21.08,5.89,33.43,1.21,10.47,1.73,20.21,1.82,29.07.13.6.17,1.24.14,1.89.39,1,.57,2.09.52,3.22,2.3,11.91,4.29,24.71,5.78,38.36.31,2.8.92,6.96,1.19,12.51.23,4.62.2,8.69.07,11.99-.08,2.28,1.17,4.37,3.16,5.48,1.34.76,2.54,1.73,2.51,2.79-.07,2.16-5.2,3.97-9.4,3.67-1.69-.12-5.53-.4-6.85-3.28-.72-1.57-.39-3.24.04-4.39.39-1.04.43-2.17.07-3.22-2.57-7.48-5.02-15.89-7.05-25.15-2.95-13.53-4.33-25.87-4.86-36.49-.34-.93-.5-1.93-.46-2.98-.13-.33-.24-.67-.32-1.02-2.89-4.95-5.82-10.55-8.52-16.81-5.79-13.47-8.86-25.98-10.5-36.25-.62.05-1.15.06-1.49.06-.83,10.07-2.86,22.2-7.23,35.4-2.16,6.47-4.59,12.3-7.05,17.48-.06.43-.16.85-.29,1.26.05.84-.03,1.66-.23,2.44.41,10.62.12,23.04-1.63,36.77-1.21,9.45-2.93,18.06-4.85,25.74-.2.78-.12,1.6.18,2.34.27.64.46,1.46.27,2.32-.61,2.91-4.84,3.67-5.3,3.76-4.62.83-9.35-2.36-9.15-3.97.06-.5.58-.64,1.65-2.18.19-.29.36-.55.51-.8.34-.57.51-1.22.49-1.88-.2-7.8-.23-15.9-.04-24.28.31-13.68,1.16-26.62,2.37-38.73-.16-1.19-.05-2.35.3-3.43-.03-.48-.03-.95.02-1.4-.73-8.72-1.06-18.49-.67-29.12.49-13.11,1.98-24.9,3.86-35.1.04-.26.09-.53.14-.79h.04c-.03.16-.05.31-.08.46.86-.06,1.72-.13,2.58-.19-.8-.11-1.64-.2-2.5-.27,1.4-8.29,2.56-17.3,3.29-26.96.59-7.82.84-15.29.84-22.37-2.11,1.3-4.81,2.88-8.41,5.01-1.32.78-9.51,5.63-20.13,9.88-1.95.78-4.68,1.86-6.84.56-3.13-1.89-3.53-5.84-2.62-7.58.4-.76,1.04-1.35,1.04-1.35,0,0,.15-.15.32-.29,7.47-6.24,17.07-12.71,17.07-12.71,11.67-7.87,12.43-8.48,16.63-10.14.62-.24,1.47-.49,2.42-.67,0-.14-.01-.27-.02-.4,5.37-1.42,12.7-2.81,21.46-2.82,7.94-.02,14.72,1.1,19.93,2.36,7.11-3.28,11.3-4.6,15.08-6.22,5.12-2.19,8.57-3.49,13.56-5.07-1.11-9.11-2.21-18.22-3.31-27.33-1.11-1.18-2.03-2.12-2.73-2.81,0,0-1.12-1.06-2.54-3.46-.36-.61-.75-1.35-.46-1.94.09-.18.23-.34.46-.47.78-.45,2.56.59,4.11,1.86.72.6,1.6-2.09.9-3.76-1.31-3.14-4.49-4.32-3.33-5.82,1.36-1.77,5.61.8,8.08,4.59,1.68,2.57,2.33,4.97,2.49,5.91.29,1.69.22,3.16.08,4.25v.03c.55,5.79,3.16,12.03,4.64,17.66,1.12,4.29,6.38,14.51,2.93,19.11Z"/>
        </g>
        <g id="Schuhe-3" data-name="Schuhe">
          <path class="cls-1" d="M920.41,396.07c-3.92-1.13-6.93-2.55-10.01-3.41-.18.07-.38.15-.6.23-1.34.49-3.3,1.01-5.7,1.05-2.63.03-4.76-.55-6.17-1.07h0c-.2-.07-.38-.14-.54-.21-.41.92-.88,2.09-1.21,3.47-.36,1.54-.48,2.92-.48,3.99v1.69h33.48v-1.69s-.27-1.59-8.76-4.05Z"/>
          <path class="cls-1" d="M845.68,396.13c-.33-1.38-.8-2.55-1.22-3.47-.22.09-.47.19-.75.28-1.4.51-3.46,1.03-5.97,1-2.77-.05-4.96-.74-6.3-1.28-.17.05-.33.1-.5.15-2.9.86-5.8,2.19-9.5,3.26-8.49,2.46-8.76,4.05-8.76,4.05v1.69h33.48v-1.69c0-1.07-.12-2.45-.48-3.99Z"/>
        </g>
        <g id="Hose-3" data-name="Hose">
          <path class="cls-21" d="M865.02,273.66c-2.13,13.74-4.22,27.49-6.26,41.25-3.71,24.95-7.28,49.93-10.7,74.93-2.64-.6-5.83-1.12-9.46-1.31-3.32-.17-6.29-.02-8.81.26-2.58-21.67-3.93-48.22-1.57-78.32,1.89-24.11,5.78-45.43,10.18-63.44,6.77,1.34,14.96,2.43,24.28,2.61.73.02,1.45.02,2.16.02l.19,23.99Z"/>
          <path class="cls-16" d="M913.06,387.49c-2.83-.18-6.03-.22-9.53,0-3.75.24-7.12.72-10.05,1.3-5.7-23.96-11.53-47.9-17.49-71.79-3.61-14.46-7.27-28.9-10.97-43.34l-.19-23.99c9.42.02,17.68-.91,24.47-2.11,1.05,2.95,2.29,6.55,3.64,10.67.65,2,2.66,8.21,4.77,15.68,0,0,4.19,14.85,7.26,30.03,6.4,31.67,8.23,60.11,8.1,83.55Z"/>
        </g>
        <g id="Oberteil-3" data-name="Oberteil">
          <path class="cls-20" d="M864.8,266.36c-.42,0-.85,0-1.28-.01-11.99-.16-22.18-1.96-29.95-3.92.76-6.61,1.92-15.37,3.72-25.65,1.87-10.71,2.97-14.66,3.72-21.93.81-7.81.92-16.46-.13-25.91,1.06-.54,2.68-1.21,4.76-1.53,2.06-.32,3.8-.17,4.97.02.58.67,4.58,5.11,11.16,5.09.26,0,.51,0,.77-.02l2.27,73.85Z"/>
          <path class="cls-18" d="M896.03,262.63c-7.98,1.95-18.63,3.76-31.23,3.73l-2.27-73.85c6.52-.37,10.32-5.05,10.79-5.66,1.58-.28,3.82-.49,6.46-.19,2.56.29,4.62.97,6.07,1.57-.39,5.21-.61,13.18.78,22.72,1.4,9.49,3.44,14.07,5.68,24.08,1.43,6.39,3.11,15.77,3.72,27.61Z"/>
        </g>
        <g id="Kittel-3" data-name="Kittel">
          <g id="Rechts-3" data-name="Rechts">
            <path class="cls-24" d="M910.98,178.04c3.47,3.84,6.94,7.69,10.4,11.53-5.86,4.26-11.3,7.22-15.66,9.25-6.94,3.24-12.18,4.92-17.49,6.1-.96.21-1.75.37-2.31.48-5.31,1.3-10.18-.06-12.15-3.23-2.44-3.92.43-9.22.77-9.81,1.66-2.97,4.95-6.02,25.65-11.61,4.54-1.23,8.3-2.14,10.79-2.72Z"/>
            <path class="cls-6" d="M912.2,315.88c-8.57,1.69-18.52,3.17-29.63,3.97l-13.3-135.01c4.1-1.14,7.46-1.31,9.07-1.38,1.99-.1,4.7-.08,7.91.38-.77,5.59-1.26,12.97-.32,21.56,1.03,9.43,3.42,17.15,5.62,22.7,3.8,10.96,7.45,22.89,10.71,35.72,4.76,18.7,7.9,36.19,9.95,52.05Z"/>
            <path class="cls-24" d="M869.57,183.01c-.27,1.75-.65,3.69-1.22,5.76-.51,1.87-1.1,3.57-1.69,5.09,1.92,7.71,3.84,15.41,5.76,23.12,1.48-6.95,2.96-13.9,4.44-20.85l-3.84-6.56,5.11-4.5-8.56-2.06Z"/>
            <path class="cls-24" d="M896.7,271.95l-10.19,1.17c-1.24.14-2.37-.76-2.51-1.99l-1.64-14.31c4.56-.44,9.13-.88,13.69-1.32.88,4.65,1.76,9.3,2.64,13.95.14,1.24-.76,2.37-1.99,2.51Z"/>
            <path class="cls-24" d="M912.23,185.37c-1.85-10.08-3.7-20.15-5.55-30.23,2.05-.1,4.38-.31,6.91-.72,2.21-.36,4.21-.81,5.98-1.29l5.34,30.91c.32,3.02-2.25,5.76-5.74,6.13h-.06c-3.49.37-6.57-1.78-6.89-4.8Z"/>
          </g>
          <g id="Links-3" data-name="Links">
            <path class="cls-24" d="M820.86,220.19c-4.87-2.66-9.74-5.31-14.61-7.97,5.8-4.83,11.05-9.03,15.57-12.58,10.23-8.02,13.93-10.46,19.24-10.91.88-.07,9.51-.71,11.66,3.63,2.08,4.2-3.23,10.41-4.8,12.24-1.55,1.82-3.88,4.03-12.66,8.72-3.51,1.88-8.39,4.32-14.41,6.86Z"/>
            <path class="cls-6" d="M856.03,186.2l-7.48,133.7c-10.29-.7-19.58-1.99-27.69-3.51.91-13.62,2.5-28.5,5.1-44.39,2.63-16.07,5.92-30.83,9.45-44.14,1.96-4.94,4.08-11.69,5.1-19.9.94-7.58.66-14.15.08-19.18,7.56-3.3,12.38-3.27,15.44-2.57Z"/>
            <path class="cls-24" d="M855.59,183.89c.31,1.66.72,3.44,1.25,5.33.56,1.99,1.18,3.82,1.82,5.47-1.46,7.42-2.91,14.85-4.37,22.27-1.93-6.62-3.86-13.23-5.79-19.85l3.74-6.62-5.18-4.42,8.52-2.19Z"/>
            <g id="Knöpfe-3" data-name="Knöpfe">
              <circle class="cls-28" cx="850.81" cy="225.62" r=".77"/>
              <circle class="cls-28" cx="850" cy="236.15" r=".77"/>
              <circle class="cls-28" cx="849.49" cy="246.53" r=".77"/>
              <circle class="cls-28" cx="848.92" cy="257.25" r=".77"/>
              <circle class="cls-28" cx="848.47" cy="268.04" r=".77"/>
              <circle class="cls-28" cx="847.79" cy="278.68" r=".77"/>
              <circle class="cls-28" cx="847.19" cy="290.24" r=".77"/>
              <circle class="cls-28" cx="846.49" cy="300.85" r=".77"/>
            </g>
            <path class="cls-24" d="M832.52,272.89l10.22.87c1.24.11,2.34-.82,2.45-2.07.18-4.78.36-9.57.54-14.35-4.55-.43-9.1-.85-13.65-1.28-.54,4.79-1.08,9.59-1.62,14.38-.11,1.24.82,2.34,2.07,2.45Z"/>
            <g id="Unterarm-3" data-name="Unterarm">
              <path class="cls-12" d="M813.58,213.69c8.13,7.24,15.65,15.14,23.76,22.4,1.13,1.01,3.13,2.75,2.78,4.54-.35,1.8-2.94,3.24-4.56,2.86-.47-.11-1.23-.53-1.89-1.06-.27-.22-.48-.42-.63-.57-8.9-6.33-17.8-12.66-26.7-18.99-.5-.39-2.33-1.91-2.58-4.39-.03-.32-.09-1,.12-1.81.71-2.69,3.96-4.93,6.97-4.38,1.43.26,2.4,1.09,2.72,1.39Z"/>
              <path class="cls-24" d="M813.13,211.81l22.81,19.14c-1.26.99-2.81,2.37-4.37,4.19-1.78,2.07-3.01,4.05-3.83,5.58-11.82-9.51-20.35-16.74-22.81-19.14-.51-.49-1.59-1.59-1.72-3.38-.14-1.93.9-3.76,1.71-4.91l.04-.05c2.25-2.68,5.91-3.33,8.16-1.44Z"/>
            </g>
          </g>
        </g>
      </g>
      <g id="Gesicht-4" data-name="Gesicht">
        <g id="Haare-5" data-name="Haare">
          <path class="cls-24" d="M848.34,152.39c-.2.12-1.75,1.05-2.01,2.92-.21,1.5.48,3.03,1.78,3.93-.25.14-2.75,1.6-3.04,4.47-.25,2.44,1.21,4.87,3.65,5.97-.11.29-.51,1.49.08,2.66.67,1.35,2.39,2.12,4.19,1.75.31.59,1.21,2.09,3.05,2.97,2.99,1.43,5.9-.05,6.24-.23.2.1,4.11,1.86,7.31-.38,1.53-1.07,2.18-2.57,2.44-3.27.54-.07,2.11-.36,3.49-1.7,1.49-1.45,1.78-3.19,1.84-3.7.12-.12,2.44-2.72,1.47-5.83-.56-1.8-1.91-2.77-2.39-3.08.26-.66,1.02-2.84.22-5.43-.64-2.05-1.92-3.28-2.5-3.78-.21-.59-.8-1.99-2.24-3.13-1.37-1.08-2.77-1.36-3.4-1.44-2.94-.43-5.89-.86-8.83-1.29-1.9.89-3.81,1.78-5.71,2.66-.63.07-1.98.31-3.25,1.32-2.11,1.68-2.35,4.15-2.39,4.61Z"/>
        </g>
        <g id="Kopf-3" data-name="Kopf">
          <path class="cls-12" d="M878.91,163.47v1.06c0,1.56-1.27,2.83-2.82,2.83-.53,0-1.01-.15-1.43-.4-.84,4.13-3.69,7.57-7.48,9.22,0,.05,0,.09,0,.14v10.6c0,2.74-2.24,4.98-4.98,4.98s-4.98-2.24-4.98-4.98v-10.64c-3.85-1.59-6.77-5.01-7.67-9.15-.35.15-.73.23-1.13.23-1.55,0-2.82-1.27-2.82-2.83v-1.06c0-1.55,1.27-2.82,2.82-2.82.29,0,.58.04.84.13v-2.6c0-7.05,5.77-12.82,12.82-12.82,3.52,0,6.73,1.44,9.05,3.77,2.33,2.32,3.77,5.52,3.77,9.05v2.73c.36-.17.76-.26,1.18-.26.78,0,1.48.32,1.99.83.51.51.83,1.21.83,1.99Z"/>
        </g>
        <g id="Schatten-3" data-name="Schatten">
          <path class="cls-4" d="M867.16,176.16c-.76.34-1.81.71-3.09.91-1.49.24-2.77.16-3.67.04,2.27,1.69,4.54,3.38,6.8,5.06,0-.56,0-1.04,0-1.44,0-.32,0-.35,0-1.8,0-1.01,0-1.11,0-1.34,0-.61-.02-1.11-.04-1.44Z"/>
          <path class="cls-4" d="M876.5,162.71c.2,0,.48.81.26,1.54-.16.52-.58,1.05-.75.98-.33-.13.14-2.52.49-2.52Z"/>
          <path class="cls-4" d="M847.84,162.71c-.2,0-.48.81-.26,1.54.16.52.58,1.05.75.98.33-.13-.14-2.52-.49-2.52Z"/>
        </g>
        <g id="Augenbrauen-3" data-name="Augenbrauen">
          <path class="cls-24" d="M854.12,157.02c.31-.24.9-.62,1.74-.79,1.05-.21,1.91.02,2.29.16.55-.4.65-.67.62-.85-.11-.63-1.9-1.04-3.4-.66-1.01.26-2.19.96-2.1,1.52.05.29.43.49.85.62Z"/>
          <path class="cls-24" d="M865.85,156.6c.38-.09,1.08-.19,1.91,0,1.05.23,1.73.8,2.02,1.08.67-.14.87-.35.91-.52.16-.62-1.31-1.73-2.83-1.99-1.03-.18-2.39-.02-2.54.53-.08.28.19.62.52.91Z"/>
        </g>
        <g id="Augen-3" data-name="Augen">
          <rect class="cls-10" x="855.94" y="158.31" width="2.05" height="2.41" rx="1.02" ry="1.02"/>
          <rect class="cls-10" x="865.99" y="158.31" width="2.05" height="2.41" rx="1.02" ry="1.02"/>
        </g>
        <g id="Mund-2" data-name="Mund">
          <ellipse class="cls-28" cx="862.16" cy="171.36" rx="3.34" ry="1.42"/>
        </g>
        <g id="Bart-2" data-name="Bart">
          <path class="cls-6" d="M862.1,169.94c-.55.46-3.76,3.03-7.71,2.23-1.2-.24-2.16-.74-2.86-1.2.83-.11,2-.34,3.31-.86,2.9-1.15,4.21-2.81,5.83-2.34.4.12.92.39,1.43,1.09v1.08Z"/>
          <path class="cls-6" d="M861.95,169.94c.55.46,3.76,3.03,7.71,2.23,1.2-.24,2.16-.74,2.86-1.2-.83-.11-2-.34-3.31-.86-2.9-1.15-4.21-2.81-5.83-2.34-.4.12-.92.39-1.43,1.09v1.08Z"/>
        </g>
        <g id="Nase-3" data-name="Nase">
          <path class="cls-10" d="M862.33,167.38c-.35,0-.71-.1-1.06-.29-.06-.03-.08-.11-.05-.17.03-.06.11-.08.17-.05.47.26.99.33,1.4.18.22-.08.39-.21.45-.36.16-.38.02-.77-.44-1.19l-.06-.06c-.23-.21-.62-.57-.8-1.14-.06-.2-.09-.49-.1-.68v-.08c0-.24-.01-.42-.01-.61,0-.19,0-.38,0-.6,0-.07.06-.12.12-.12s.12.06.12.12c0,.22,0,.41,0,.6,0,.19,0,.38,0,.6v.07c.02.18.04.46.1.63.16.51.51.82.73,1.03l.06.06c.53.49.7.98.5,1.47-.09.22-.31.4-.6.5-.17.06-.36.09-.55.09Z"/>
        </g>
        <g id="Haare-6" data-name="Haare">
          <path class="cls-24" d="M848.45,153.43c1.2,1.17,2.85,1.08,3.17,1.05.55.6,1.09.93,1.45,1.12,1.95.98,4.3.48,5.83-.57.51-.35.87-.72,1.09-.97.69.24,1.98.56,3.48.2.37-.09,3.06-.74,3.66-2.86.17-.62.12-1.18.04-1.56.35.16,1.54.66,2.88.22,1.58-.51,2.93-2.18,2.68-4.09-.21-1.57-1.45-2.87-3.08-3.2-.21-.3-1.17-1.62-3.02-2.03-1.83-.4-3.25.38-3.57.56-.52-.21-2.24-.81-4.31-.22-1.99.57-3.1,1.89-3.45,2.35-.18-.07-1.44-.57-2.77.11-1.34.68-1.68,1.99-1.72,2.18-.37.14-2.23.9-3.02,2.9-.06.15-1.14,3.02.69,4.8Z"/>
        </g>
      </g>
      <g id="Klemmmappe-2" data-name="Klemmmappe">
        <g>
          <rect class="cls-20" x="839.66" y="216.31" width="35.34" height="50.12" transform="translate(9.37 -31.09) rotate(2.09)"/>
          <rect class="cls-16" x="856.47" y="206.3" width="3.71" height="20.63" transform="translate(610.56 1066.48) rotate(-87.91)"/>
        </g>
        <g>
          <path class="cls-18" d="M869.66,240.68c-.15,4.23-2.43,7.89-5.76,9.99-.7-1.69-1.4-3.39-2.11-5.08-.11-.26-.22-.53-.33-.79,1.19-1.08,1.96-2.61,2.02-4.34.12-3.4-2.53-6.26-5.93-6.38s-6.26,2.53-6.38,5.93c-.06,1.69.56,3.25,1.63,4.4-.95,1.9-1.91,3.8-2.86,5.7-3.12-2.34-5.09-6.13-4.93-10.32.25-6.81,5.97-12.12,12.77-11.87s12.12,5.97,11.87,12.77Z"/>
          <path class="cls-18" d="M863.49,252.53c-.4-.97-.8-1.93-1.2-2.9-.2-.48-.4-.97-.6-1.45-.4-.96-.79-1.92-1.19-2.88-.46-1.11-.92-2.22-1.38-3.33l.09-2.49.05-1.43-3.81-.14-.06,1.62-.08,2.3c-.41.81-.82,1.63-1.23,2.44-.49.97-.97,1.94-1.46,2.91-.17.33-.34.67-.5,1-.14.27-.28.55-.42.82-.54,1.09-1.09,2.18-1.64,3.27l2.27.08,4.5.17h.27s6.49.25,6.49.25c-.03-.08-.07-.16-.1-.24Z"/>
          <rect class="cls-18" x="856.67" y="234.83" width="1.43" height="4.87" transform="translate(589.03 1085.43) rotate(-87.91)"/>
          <path class="cls-21" d="M856.84,252.3h0s-6.34-.23-6.34-.23c1.36-2.71,2.72-5.41,4.08-8.12.4.07.8.19,1.2.37,1.19.55,1.51,1.28,2.47,1.47.48.1,1.12.06,1.97-.39.98,2.38,1.97,4.76,2.96,7.13l-6.34-.23Z"/>
          <circle class="cls-21" cx="858.37" cy="243.89" r=".41"/>
          <circle class="cls-21" cx="857.8" cy="242.41" r=".27"/>
          <circle class="cls-20" cx="855.35" cy="247.7" r=".41"/>
          <circle class="cls-20" cx="856.16" cy="249.42" r=".27"/>
          <circle class="cls-20" cx="855.83" cy="245.87" r=".27"/>
          <circle class="cls-21" cx="857.94" cy="234.07" r=".41"/>
          <circle class="cls-21" cx="858.76" cy="235.8" r=".27"/>
          <circle class="cls-21" cx="858.42" cy="232.25" r=".27"/>
        </g>
        <path class="cls-12" d="M839.85,235.22c-.85-.15-2.56-.55-3.5-.66-1.28-.15-2.49-.25-3.64-.31-.35.92-.74,1.86-1.16,2.83-.42.98-.86,1.92-1.29,2.81.65.99,1.96,1.96,3.73,3.28,2.55,1.9,5.04,2.47,6.04,2.65.4.07,6.28,1.61,7.49-.81.41-.82.11-1.74.05-1.92-.01-.03-.03-.07-.05-.12-.25-.56-1.31-1.91-3.78-2.61,0,0-2.3-.65-3.59-1.33-.11-.06-.14-.15-.14-.15,0,0,0,0,0-.01,0-.31-.02-.72-.16-3.65Z"/>
      </g>
    </g>
    <g id="Stativ-3" data-name="Stativ">
      <g id="Stativ-4" data-name="Stativ">
        <path class="cls-14" d="M795.71,144.24v.8c0,.42-.34.76-.76.76h-31.77c-.44,2.21-2.12,3.99-4.29,4.56v40.46h8.84c.88,0,1.59.71,1.59,1.59v1.24c1.07.23,1.87,1.18,1.87,2.32v1.51h-28v-1.51c0-1.14.8-2.09,1.87-2.32v-1.24c0-.88.71-1.59,1.59-1.59h9.18v-40.46c-2.17-.57-3.85-2.35-4.29-4.56h-4.16v1.36c0,.72-.58,1.3-1.3,1.3h-.19c-.72,0-1.3-.58-1.3-1.3v-5.38c0-.72.58-1.3,1.3-1.3h.19c.72,0,1.3.58,1.3,1.3v1.7h4.16c.44-2.21,2.12-3.98,4.29-4.55v-3.35c0-.37.3-.67.68-.67h1.71c.37,0,.67.3.67.67v3.35c2.17.57,3.85,2.34,4.29,4.55h31.77c.42,0,.76.34.76.76Z"/>
        <circle class="cls-3" cx="757.36" cy="144.64" r="3.85"/>
      </g>
      <g id="Reagenzglas-3" data-name="Reagenzglas">
        <path class="cls-6" d="M799.78,163.33c-.38-6.07-4.62-11.08-10.29-12.63v-8.41h1.23v-3.03h-9.89v3.03h1.24v8.41c-4.59,1.25-8.23,4.77-9.66,9.27-.44,1.34-.67,2.78-.67,4.27,0,7.76,6.28,14.05,14.04,14.05s14.04-6.29,14.04-14.05c0-.31-.01-.61-.04-.91ZM785.78,177.25c-7.18,0-13-5.82-13-13.01,0-.74.06-1.46.18-2.16.11-.7.28-1.38.51-2.04h.01c3.39.11,5.55-1.18,8.59-1.64.28-.04.57-.08.87-.11.3-.02.6-.04.93-.05,1.38-.02,2.61.15,3.74.46,2.54.67,4.49,1.95,6.26,2.81,1.35.65,2.95,1.23,4.86,1.62.04.36.05.74.05,1.11,0,7.19-5.82,13.01-13,13.01Z"/>
        <path class="cls-27" d="M798.78,164.24c0,7.18-5.82,13.01-13,13.01s-13-5.82-13-13.01c0-1.47.24-2.89.7-4.21,3.39.11,5.55-1.18,8.59-1.63.56-.09,1.16-.14,1.8-.16,1.38-.03,2.61.15,3.74.45,2.54.67,4.49,1.95,6.26,2.81,1.35.66,2.95,1.23,4.86,1.62.03.36.05.74.05,1.11Z"/>
        <g>
          <circle class="cls-25" cx="780.23" cy="166.76" r=".82"/>
          <circle class="cls-25" cx="781.97" cy="170.12" r=".54"/>
          <circle class="cls-25" cx="781.06" cy="163.12" r=".54"/>
        </g>
        <g>
          <circle class="cls-27" cx="787.06" cy="152.97" r=".82"/>
          <circle class="cls-27" cx="790.02" cy="155.32" r=".54"/>
          <circle class="cls-27" cx="786.32" cy="149.32" r=".54"/>
        </g>
      </g>
    </g>
    <g id="Person:_Frau-2" data-name="Person: Frau">
      <g id="Körper-6" data-name="Körper">
        <g id="Figur-2" data-name="Figur">
          <path class="cls-13" d="M733.2,184.2c-6.48-6.36-11.77-13.83-17.69-20.72-.05-.06-.25-.29-.3-.35-.02-.02-.03-.04-.05-.06-.97-1.01-2.25-1.66-3.61-1.86.02-.13.03-.27.05-.4-5.28-.26-11.43-.21-18.23.49-7.35.75-13.81,2.09-19.23,3.55h0c-2.02.45-3.71,1.86-4.49,3.75-.01.02-.02.05-.03.07-.05.14-.09.3-.15.44-2.78,7.86-5.56,15.71-8.32,23.56-1.03-1.94-2.1-3.89-3.19-5.85-2.83-5.08-5.66-9.97-8.48-14.67,0-.25-.03-.62-.13-1.04-.31-1.29-.97-1.71-2.49-3.55-.62-.76-1.47-1.86-2.65-2.9-.32-.28-.92-.77-1.48-.62-.15.04-.3.13-.43.3-.46.55.12,2.1.92,3.5.37.66-1.88.99-3.11.21-2.31-1.47-2.81-4.15-4.15-3.44-1.59.84-.14,4.55,2.53,7.03,1.81,1.67,3.62,2.52,4.34,2.77,1.04.37,2.01.54,2.81.61,3.95,10.03,7.89,20.06,11.84,30.1h0c.02.1.04.19.08.28.03.11.07.22.11.33.64,1.65,2.19,2.86,4.07,2.96.08,0,.16,0,.25,0,.16,0,.31,0,.47-.03.04,0,.09-.01.13-.01.15-.02.29-.04.43-.08.15-.03.3-.07.44-.12.01-.01.03-.01.05-.02.13-.04.26-.1.38-.15.49-.22.93-.53,1.31-.9.06-.05.12-.11.17-.17.08-.08.15-.16.21-.25.12-.14.22-.29.32-.44.06-.09.11-.18.15-.27.07-.14.13-.29.19-.44,0-.01.02-.03.03-.05.03-.04.04-.08.05-.12,4.04-8.71,8.08-17.42,12.11-26.11,2.12,7.23,4.23,14.47,6.35,21.7l-9.46,14.79.06.05c-.08.07-.15.15-.22.23h0c-.19.4-.41.79-.41.79-9.47,16.02-6.66,55.87-6.66,55.87.24,3.29.63,8.01,1.33,13.68,0,.21.01.42.03.63,0,.1.02.2.03.3v.02c-.31,15.05-.4,30.5-.23,46.33.13,11.69.39,23.18.78,34.44,0,.04,0,.11-.01.2-.16.97-1.54,1.19-1.62,1.69-.06.35.52.93,3.02,1.92h.01c.82.17,1.75.26,2.74.26,1.05,0,2.03-.1,2.88-.29,1.32-.29,2.98-1.21,2.89-1.89-.07-.56-1.31-.81-1.31-1.6,0-.09.02-.15.02-.18.57-4.07,1.44-10.39,2.5-18.14,1.07-7.81,1.74-11.5,2.41-17.64,1.84-17.03,2.08-32.54,1.52-46.05,2.61-18.61,5.23-37.22,7.84-55.82h0s3.15,0,3.15,0c.08.09.19.18.31.25,4.23,18.28,8.44,36.55,12.67,54.83,0-.07-.01-.13-.01-.2h.03c.01.18.03.35.06.52-.03-.11-.05-.21-.08-.32.76,11.17,2.4,27.21,6.21,45.46,4.26,20.41,9.79,36.64,10.07,37.2.01.03.04.08.06.16.1.69-1.51,1.07-1.58,1.78-.08.82,1.95,1.64,2.15,1.7.99.3,2.25.48,3.62.48,1.1,0,2.13-.12,3.01-.32,1.08-.24,2.83-1.14,2.75-1.86-.1-.83-2.59-.84-2.87-2.24-.04-.16-.03-.28-.02-.33.07-1.47-1.34-20.37-2.83-36.82-1.42-15.7-3.07-30.96-4.93-45.75,0-.03,0-.07,0-.1.02-.08.02-.14.02-.22h0c.08-7.23-.02-13.31-.12-17.82-.79-30.23-6.74-45.68-9.6-50.22-.16-.25-.3-.49-.42-.68-.06-.11-.12-.2-.19-.29-2.47-4.93-4.93-9.86-7.4-14.79.98-8.6,1.96-17.19,2.95-25.79,3.68,3.87,5.5,7.4,13.62,13.99,4.24,3.43,9.92,8.04,13.21,6.23,1.24-.68,1.93-2.17,2.05-3.39.3-2.79-2.26-4.79-5.61-8.08ZM647.97,169.05c.62.48.98,1.11,1.06,1.25.07.13.13.26.18.39-.47-.6-.88-1.15-1.24-1.64Z"/>
        </g>
        <g id="Schuhe-4" data-name="Schuhe">
          <path class="cls-1" d="M681.56,375.29v1.51h-29.78v-1.51s.24-1.41,7.79-3.6c3.48-1,6.17-2.27,8.9-3.03,1.19.48,3.14,1.09,5.6,1.13,2.67.03,4.76-.64,5.98-1.13.37.81.79,1.85,1.08,3.08.32,1.37.43,2.6.43,3.55Z"/>
          <path class="cls-1" d="M722.26,375.46v1.51h29.78v-1.51s-.24-1.41-7.79-3.6c-3.48-1-6.17-2.27-8.9-3.03-1.19.48-3.14,1.09-5.6,1.13-2.67.03-4.76-.64-5.98-1.13-.37.81-.79,1.85-1.08,3.08-.32,1.37-.43,2.6-.43,3.55Z"/>
        </g>
        <g id="Kittel_hinterteil-4" data-name="Kittel hinterteil">
          <path class="cls-24" d="M656.98,271.98c10.3,1.95,22.94,3.51,37.39,3.52,15.5,0,28.96-1.78,39.75-3.95-5.54-21.62-11.08-43.24-16.62-64.86l-47.83.57-12.68,64.71Z"/>
          <path class="cls-24" d="M697.48,163.15c-3.47.28-6.94.55-10.41.83-.25-1.3-.5-2.59-.75-3.89,1.55-.4,3.45-.77,5.64-.92,2.39-.17,4.48-.04,6.17.18-.03.21-.06.43-.09.65-.15,1.09-.34,2.15-.55,3.16Z"/>
        </g>
        <g id="Hose-4" data-name="Hose">
          <path class="cls-16" d="M733.92,359.58c-1.63-.3-4.23-.57-7.32,0-2.63.49-4.68,1.41-6.03,2.16-2.05-9.01-5.02-22.57-8.19-39.21-2.97-15.59-4.08-23.17-6.36-35.73-2.31-12.72-5.9-30.84-11.25-52.95l-1.22-32.78h1.22c4.08.03,8.15.05,12.23.06,7.38,9.21,11.16,17.56,13.23,23.25,3.59,9.93,4.6,20.12,6.51,40.53.66,7.05,1.21,13.07,1.63,17.86.36,3.9.69,7.81,1.03,11.73,1.86,21.97,3.36,43.68,4.54,65.08Z"/>
          <path class="cls-21" d="M694.77,233.85c-1.78,16.76-3.56,33.52-5.33,50.3-2.72,25.87-5.42,51.74-8.09,77.6-1.9-.49-4.32-.94-7.11-1.08-2.95-.15-5.52.1-7.54.43-1.02-33.23-1.68-58.01-1.81-66.59-.05-3.65-.08-7.08-.08-7.08-.03-4.21-.03-9.93.08-16.6.29-18.91.43-28.37,2.07-35.79,1.76-7.96,5.97-20.31,17.46-34.02l9.14.06,1.22,32.78Z"/>
        </g>
        <g id="Oberteil-4" data-name="Oberteil">
          <path class="cls-20" d="M693.57,201.11c-3.03,0-6.08-.01-9.13-.01l-10.3-36.24c3.84-.92,7.67-1.84,11.51-2.76.77,1.24,1.91,2.78,3.56,4.29,1.11,1.02,2.2,1.8,3.16,2.39.4,10.78.8,21.55,1.21,32.33Z"/>
          <path class="cls-18" d="M711.59,160.81c-1.53,13.44-3.07,26.88-4.6,40.32-4.06-.01-8.13-.01-12.2-.03h-1.22l-1.21-32.33.07.06c.92-.91,1.91-2,2.89-3.26,1.31-1.69,2.31-3.31,3.07-4.74,4.4,0,8.8-.01,13.2-.02Z"/>
        </g>
        <g id="Kittel-4" data-name="Kittel">
          <g id="Links-4" data-name="Links">
            <path class="cls-24" d="M682.35,174.66c-.93,2.14-1.92,4.31-2.98,6.52-1.37,2.87-1.55,3.25-1.77,3.73-2.01,4.27-3.08,7.42-3.88,9.55-1.11,2.94-2.91,7.08-5.88,12.17-.04.18-.1.35-.19.49-1.14,1.9-2.25,2.73-2.57,2.91l-.05.03c-2.62,1.38-5.86.38-7.24-2.23l-14.01-26.46c1.33-.33,3-.87,4.8-1.8,2.06-1.05,3.62-2.25,4.72-3.24,2.32,4.38,4.64,8.77,6.96,13.15.83-3.97,1.74-7.25,2.53-9.76,1.14-3.65,1.97-5.59,2.44-6.62,1.21-2.65,2.47-4.78,3.47-6.31,2.15-2.79,6.27-3.53,9.62-1.89,3.72,1.83,5.63,6.19,4.03,9.76Z"/>
            <path class="cls-6" d="M686.69,162.04l-6.32,112.9c-8.69-.59-16.54-1.68-23.38-2.96.77-11.5,2.11-24.06,4.31-37.49,2.22-13.57,5-26.03,7.98-37.28,1.66-4.17,3.45-9.87,4.31-16.81.8-6.4.56-11.95.07-16.2,6.38-2.79,10.46-2.76,13.04-2.17Z"/>
            <path class="cls-24" d="M686.31,160.09c.27,1.4.61,2.91,1.06,4.5.47,1.68,1,3.23,1.54,4.62-1.23,6.27-2.46,12.54-3.69,18.81-1.63-5.59-3.26-11.18-4.89-16.76l3.16-5.59-4.37-3.73,7.2-1.85Z"/>
            <g id="Knöpfe-4" data-name="Knöpfe">
              <circle class="cls-28" cx="682.27" cy="195.33" r=".65"/>
              <circle class="cls-28" cx="681.59" cy="204.21" r=".65"/>
              <circle class="cls-28" cx="681.16" cy="212.98" r=".65"/>
              <circle class="cls-28" cx="680.68" cy="222.03" r=".65"/>
              <circle class="cls-28" cx="680.3" cy="231.15" r=".65"/>
              <circle class="cls-28" cx="679.72" cy="240.14" r=".65"/>
              <circle class="cls-28" cx="679.22" cy="249.89" r=".65"/>
              <circle class="cls-28" cx="678.63" cy="258.85" r=".65"/>
            </g>
            <path class="cls-24" d="M666.83,235.24l8.63.73c1.05.09,1.98-.7,2.07-1.74.15-4.04.3-8.08.45-12.12-3.84-.36-7.68-.72-11.53-1.08-.46,4.05-.91,8.09-1.37,12.14-.09,1.05.7,1.98,1.74,2.07Z"/>
          </g>
          <g id="Rechts-4" data-name="Rechts">
            <path class="cls-24" d="M737.87,188.93c-5.03.24-9.37.37-14.4.61-2.68-2.25-5.39-4.51-8.13-6.77-3.86-3.18-7.7-6.3-11.52-9.34-2-3.57-2.7-7.16-.55-9.77,2.14-2.59,5.81-2.84,6.57-2.88,4.69-.2,7.99,3.58,15.45,12.29,5.44,6.34,9.26,11.84,12.58,15.86Z"/>
            <path class="cls-6" d="M734.12,271.55c-7.24,1.43-15.64,2.68-25.02,3.35l-11.24-114.01c2.02-.51,4.83-.99,8.18-.85,2.57.1,4.77.54,6.47,1-.66,4-1.29,10.01-.58,17.21.78,7.93,2.77,13.47,4.74,19.17,3.21,9.26,6.29,19.33,9.05,30.17,4.02,15.79,6.67,30.56,8.4,43.96Z"/>
            <path class="cls-24" d="M698.12,159.34c-.22,1.48-.55,3.11-1.03,4.87-.43,1.58-.93,3.02-1.43,4.3,1.62,6.51,3.24,13.02,4.86,19.53,1.25-5.87,2.5-11.74,3.75-17.61l-3.24-5.54,4.32-3.8-7.22-1.74Z"/>
            <path class="cls-24" d="M721.03,234.45l-8.61.99c-1.05.12-2-.64-2.12-1.68l-1.38-12.08c3.85-.37,7.71-.74,11.56-1.11.74,3.93,1.49,7.85,2.23,11.78.12,1.05-.64,2-1.68,2.12Z"/>
            <g id="Unterarm-4" data-name="Unterarm">
              <path class="cls-13" d="M736.28,197.9c-.67.16-1.36.17-1.99.04h-.01c-11-.49-22-.99-33-1.49-1.02.98-2.52,1.2-3.69.55-1.41-.78-1.92-2.61-1.3-3.91.69-1.43,2.47-1.61,2.73-1.63.85-.07,1.53.18,1.88.35,5.44-.66,11.06-1.26,16.85-1.76,5.75-.5,11.34-.89,16.77-1.17h.05c.21-.02.42-.03.64-.05.04,0,.08,0,.12,0,2.03.05,2.68,1.43,3.18,3.5.6,2.47.24,4.98-2.24,5.57Z"/>
              <path class="cls-13" d="M694.48,191.8c1.04-.21,2.12-.42,3.64-.43,1.18,0,2.56.18,3.23.37.09.76.19,1.55.32,2.36.13.82.27,1.62.42,2.38-.69.62-1.87,1.1-3.47,1.75-2.3.94-4.29.88-5.08.82-.32-.02-5.07-.01-5.5-2.08-.15-.7.25-1.33.34-1.46.15-.23.61-.81,3.43-1.32,1.53-.27,2.83-.36,2.83-.5,0-.04-.12-.07-.17-.08-1.31-.29-3.27-.43-3.32-.67-.05-.24,1.3-.74,3.33-1.15Z"/>
              <path class="cls-24" d="M734.88,198.21c-9.97.51-19.94,1.02-29.91,1.53.14-1.73.2-3.7.1-5.87-.09-1.89-.3-3.61-.56-5.15,10.18-.43,20.36-1.67,30.54-1.29,2.11.08,3.96,1.98,3.92,4.94.03,2.01.12,4.2-1.83,5.24-.96.51-1.85.57-2.25.59Z"/>
            </g>
          </g>
        </g>
      </g>
      <g id="Gesicht-5" data-name="Gesicht">
        <g id="Haare-7" data-name="Haare">
          <path class="cls-1" d="M684.08,148.91c.6,1.18.1,2.56-.9,3.04-1.08.52-2.61-.09-3.04-1.46-2.28.12-3.93-1.44-3.94-2.93,0-1.47,1.61-2.43,1.69-2.48-2.42-.21-4.27-2.11-4.39-4.28-.09-1.73.93-3.42,2.59-4.28-.19-.2-1.77-1.84-1.46-4.28.3-2.36,2.12-3.56,2.36-3.71-1.23-1.61-1.36-3.77-.34-5.4,1.17-1.88,3.65-2.68,5.85-1.8,0-.22.2-3.36,2.93-4.95,2.04-1.19,4.67-1.02,6.64.45.98-1.14,2.52-1.63,3.94-1.24,1.56.43,2.7,1.83,2.81,3.49.31-.06,3.91-.65,6.53,2.03,2.17,2.22,2.05,5.05,2.03,5.51,1.78.83,2.98,2.55,3.15,4.5.17,2.01-.78,3.96-2.48,5.06,1.46.69,2.42,2.13,2.48,3.71.06,1.73-.97,3.34-2.59,4.05,1.28.84,1.73,2.46,1.13,3.71-.51,1.05-1.68,1.69-2.93,1.58-.25,1.73-1.7,2.86-3.04,2.7-.93-.11-1.74-.83-2.14-1.8-1.07.61-2.32.68-3.15.11-1.22-.84-1.56-3.11-.11-4.84-4.91.11-9.83.23-14.74.34l1.13,3.15Z"/>
        </g>
        <g id="Kopf-4" data-name="Kopf">
          <path class="cls-13" d="M708.04,139.64v1c0,1.46-1.2,2.66-2.67,2.66-.49,0-.96-.14-1.35-.38-.79,3.91-3.48,7.14-7.05,8.7.01.05.01.09.01.14v10c0,2.58-2.11,4.69-4.7,4.69s-4.69-2.11-4.69-4.69v-10.04c-3.63-1.5-6.39-4.73-7.23-8.65-.33.15-.69.23-1.07.23-1.46,0-2.66-1.2-2.66-2.66v-1c0-1.46,1.2-2.66,2.66-2.66.27,0,.54.04.79.12v-2.45c0-6.65,5.44-12.09,12.09-12.09,3.33,0,6.35,1.36,8.54,3.55,2.19,2.19,3.55,5.22,3.55,8.54v2.58c.34-.16.71-.25,1.11-.25.73,0,1.4.3,1.89.78.48.49.78,1.15.78,1.88Z"/>
        </g>
        <g id="Schatten-4" data-name="Schatten">
          <path class="cls-23" d="M705.76,138.92c.19,0,.45.76.25,1.45-.15.49-.55.99-.71.93-.31-.13.13-2.38.46-2.38Z"/>
          <path class="cls-23" d="M696.92,151.63c-.72.32-1.71.67-2.92.86-1.41.22-2.61.15-3.47.04,2.14,1.59,4.28,3.18,6.42,4.78,0-.53,0-.98,0-1.36,0-.3,0-.33,0-1.7,0-.95,0-1.05,0-1.26,0-.58-.02-1.05-.03-1.36Z"/>
          <path class="cls-23" d="M678.73,138.92c-.19,0-.45.76-.25,1.45.15.49.55.99.71.93.31-.13-.13-2.38-.46-2.38Z"/>
        </g>
        <g id="Augenbrauen-4" data-name="Augenbrauen">
          <path class="cls-1" d="M699.05,134.49c-.32-.17-.93-.44-1.74-.48-1.01-.05-1.77.3-2.11.48-.58-.29-.71-.53-.7-.7.01-.6,1.62-1.25,3.07-1.11.98.09,2.18.58,2.18,1.11,0,.28-.33.52-.7.7Z"/>
          <path class="cls-1" d="M689.16,134.46c-.32-.17-.93-.44-1.74-.48-1.01-.05-1.77.3-2.11.48-.58-.29-.71-.53-.7-.7.01-.6,1.62-1.25,3.07-1.11.98.09,2.18.58,2.18,1.11,0,.28-.33.52-.7.7Z"/>
        </g>
        <g id="Augen-4" data-name="Augen">
          <rect class="cls-10" x="686.38" y="135.27" width="1.93" height="2.27" rx=".97" ry=".97"/>
          <rect class="cls-10" x="696.05" y="135.25" width="1.93" height="2.27" rx=".97" ry=".97"/>
        </g>
        <g id="Gesicht-6" data-name="Gesicht">
          <path class="cls-28" d="M688.54,145.39c.07.23.59,1.96,2.26,2.62,1.59.63,3.54.04,4.73-1.5-.93.19-2.51.37-4.37-.08-1.1-.27-1.98-.68-2.62-1.04Z"/>
        </g>
        <g id="Nase-4" data-name="Nase">
          <path class="cls-10" d="M692.74,143.63c-.33,0-.68-.09-1-.27-.06-.03-.08-.11-.05-.17.03-.06.11-.08.17-.05.44.24.93.31,1.32.17.21-.07.36-.19.42-.33.15-.36.02-.72-.41-1.11l-.06-.05c-.22-.2-.58-.54-.76-1.08-.06-.19-.08-.46-.1-.65v-.08c0-.22-.01-.4-.01-.57,0-.18,0-.35,0-.57,0-.07.06-.12.12-.12s.12.06.12.12c0,.21,0,.39,0,.56,0,.18,0,.35,0,.57v.07c.02.17.04.43.09.59.15.48.47.77.69.97l.06.05c.51.46.66.93.47,1.39-.09.21-.29.38-.57.47-.16.06-.34.08-.52.08Z"/>
        </g>
        <g id="Haare-8" data-name="Haare">
          <path class="cls-1" d="M706.74,133.41c-.39,1.07-1.34,1.7-2.39,1.58-.74.62-1.81.34-2.29-.49-.42-.74-.3-1.76.34-2.32-1.05.83-2.45.82-3.48,0-1.22-.98-1.32-2.62-1.32-2.79-.14-.08-1.7-.96-2.23-2.94-.39.06-.83.05-1.29-.05.58,1.44.11,3.1-1.13,4.01-1.26.93-3.04.86-4.24-.19.12,1.65-.78,2.56-1.53,2.83-1.45.53-2.62-.26-3.1-.26-.11,0,.43,1.63-.86,2.81-.68.62-2.25,1.07-3.3.66-.61-.26-1.84-.91-2.44-1.76-1.75-2.5.94-6.73,2.47-8.81,1.03-1.4,2.25-2.26,3.13-2.76-.13-1.46.71-2.81,1.98-3.28,1.48-.55,3.26.19,3.97,1.77.53-1.26,1.85-2,3.15-1.79,1.41.23,2.48,1.53,2.42,3.03.43.08.8.23,1.12.43.29-.58.61-.93.66-.98.05-.15.56-1.69,1.89-1.99,1.31-.29,2.85.72,3.5,2.51.23.02,2.42.23,3.79,2.43,1.52,2.46.59,5.08.54,5.22.76.84,1.01,2.1.64,3.14Z"/>
        </g>
      </g>
      <g id="Reagenzglas-4" data-name="Reagenzglas">
        <path class="cls-5" d="M688.22,181.49h7.49v32.78c0,2.07-1.68,3.75-3.75,3.75h0c-2.07,0-3.75-1.68-3.75-3.75v-32.78h0Z" transform="translate(-26.23 145.79) rotate(-11.8)"/>
        <rect class="cls-5" x="683.49" y="179.24" width="8.95" height="2.66" transform="translate(-22.39 144.56) rotate(-11.8)"/>
        <path class="cls-27" d="M695.68,217.01l-.19.04c-1.66.35-3.29-.72-3.64-2.38l-6.22-29.76c.45.05,1.14.08,1.94-.11.9-.22,1.26-.56,2.23-.86.46-.14,1.14-.3,2.03-.33,2.07,9.92,4.15,19.84,6.22,29.76.35,1.66-.72,3.29-2.38,3.64Z"/>
        <circle class="cls-19" cx="692.45" cy="206.73" r="1.06"/>
        <circle class="cls-19" cx="694.7" cy="211.08" r=".7"/>
        <circle class="cls-19" cx="693.52" cy="202.01" r=".7"/>
        <path class="cls-13" d="M701.35,191.73c.09.76.19,1.55.32,2.37.13.83.27,1.62.43,2.38-.68.62-1.87,1.1-3.47,1.75-2.3.94-4.29.88-5.08.82-.32-.02-5.07-.01-5.51-2.08-.15-.7.25-1.34.34-1.46.15-.23.61-.81,3.43-1.32.94-.17,1.88-.39,2.83-.5,1.52-.18,3.74-.65,6.71-1.96Z"/>
      </g>
    </g>
  </g>
  <g id="Gruppe:_Orange" data-name="Gruppe: Orange">
    <g id="Person:_Mann-3" data-name="Person: Mann">
      <g id="Körper-7" data-name="Körper">
        <g id="Kittel_Hinterteil" data-name="Kittel Hinterteil">
          <path class="cls-24" d="M390.83,44.43c3.62.29,7.24.57,10.86.86.26-1.35.52-2.7.79-4.06-1.62-.42-3.6-.8-5.88-.96-2.49-.17-4.67-.04-6.43.19.03.22.06.45.09.68.16,1.14.35,2.24.58,3.29Z"/>
          <path class="cls-24" d="M433.05,157.89c-10.73,2.03-23.91,3.66-38.98,3.67-16.16,0-30.19-1.85-41.44-4.12,5.78-22.54,11.55-45.08,17.33-67.62l49.87.6,13.22,67.46Z"/>
        </g>
        <g id="Körper-8" data-name="Körper">
          <path class="cls-12" d="M445.38,75.85c-1.9,1.15-4.31.19-6.03-.5-9.34-3.74-16.55-8.01-17.71-8.69-3.16-1.87-5.55-3.26-7.41-4.41,0,3.11.05,6.31.17,9.59.14,3.85.24,6.67.57,10.1.68,7.27,1.63,9.64,3.15,20.66.29,2.14.51,3.87.63,4.91,1.34,8.84,2.36,18.82,2.67,29.76.2,6.79.11,13.6-.26,20.38-.39,7.16.47,14.21.97,21.33.52,7.42.89,14.84,1.07,22.28.16,7.38.14,14.52-.03,21.38-.02.58.13,1.15.43,1.66.13.21.28.45.45.69.94,1.36,1.4,1.48,1.45,1.93.17,1.41-3.99,4.22-8.06,3.49-.4-.07-4.13-.75-4.67-3.3-.16-.77,0-1.49.24-2.05.27-.66.34-1.37.17-2.06-1.7-6.76-3.21-14.34-4.27-22.66-.87-6.79-1.38-13.62-1.53-20.46-.11-4.92.99-10.04-.37-14.87-1.49-5.33-4.44-10.4-6.21-15.69-3.78-11.41-5.56-21.92-6.32-30.68-.43-.09-.9-.2-1.39-.33-1.45,9-4.15,19.94-9.21,31.7-1.38,3.19-2.88,6.33-4.5,9.4-1.44,2.73-3.23,5.07-3.51,8.21-1.13,12.91.46,19.33-4.46,32.84,0,0-6.2,17.03-7.05,22.28-.25,1.54-.1,2.72-.1,2.72.27,2.24,1.26,2.76,1.05,3.83-.35,1.8-3.61,2.85-6.03,2.89-.3,0-4.86.01-6-2.67-.5-1.18-.18-2.54-.07-3.01.33-1.41,1.08-2.34,1.28-2.6,1.89-2.49,1.42-7.33,1.56-12.79.05-2.06.4-5.04,1.05-11.01,1.19-10.9,3.42-21.65,4.92-32.51,1.43-10.37,1.15-20.93,2.35-31.35,1.24-10.88,3.1-20.74,5.21-29.43,0,0,0-.03,0-.04,2.46-7.76,4.75-17.09,6.08-27.77.81-6.55,1.15-12.65,1.18-18.18-3.7,2.45-6.29,3.9-8.64,5.47-5.42,3.63-8.55,5.4-15.46,8.95-.56,0-4.75.01-5.8-2.51-1.01-2.42-.05-5.2,2.15-6.21.19-.09.38-.15.57-.21,4.43-4.33,9.06-8.46,13.92-12.31,2.06-1.63,3.95-3.7,7.26-5.38,3.51-1.79,6.84-2.5,8.98-2.95,2.57-.55,4.49-.66,7.55-1.01,2.8-.32,5.62-.48,8.44-.47,7.71,0,14.17,1.23,18.89,2.49,0,.12,0,.23-.02.35.84.16,1.59.37,2.14.59,3.7,1.45,4.37,2,14.64,8.92,0,0,8.45,5.7,15.03,11.2.14.12.28.25.28.25,0,0,.57.52.92,1.19.8,1.53.45,5.01-2.31,6.67Z"/>
        </g>
        <g id="Schuhe-5" data-name="Schuhe">
          <path class="cls-1" d="M351.96,228.09c.29-1.21.7-2.25,1.07-3.06.19.08.41.17.66.25,1.23.45,3.05.91,5.26.88,2.44-.04,4.37-.65,5.55-1.13.15.04.29.09.44.13,2.55.76,5.11,1.93,8.36,2.87,7.47,2.17,7.71,3.57,7.71,3.57v1.49h-29.48v-1.49c0-.94.11-2.16.42-3.51Z"/>
          <path class="cls-1" d="M411.19,228.09c.29-1.21.7-2.25,1.07-3.06.19.08.41.17.66.25,1.23.45,3.05.91,5.26.88,2.44-.04,4.37-.65,5.55-1.13.15.04.29.09.44.13,2.55.76,5.11,1.93,8.36,2.87,7.47,2.17,7.71,3.57,7.71,3.57v1.49h-29.48v-1.49c0-.94.11-2.16.42-3.51Z"/>
        </g>
        <g id="Hose-5" data-name="Hose">
          <path class="cls-3" d="M394.17,120.27c1.88,12.1,3.71,24.2,5.52,36.32,3.27,21.97,6.41,43.96,9.42,65.96,2.32-.53,5.13-.99,8.33-1.15,2.92-.15,5.54-.02,7.76.23,2.27-19.08,3.46-42.45,1.38-68.95-1.66-21.22-5.09-39.99-8.96-55.85-5.96,1.18-13.17,2.14-21.37,2.3-.64.02-1.28.02-1.9.02l-.17,21.12Z"/>
          <path class="cls-11" d="M351.87,220.48c2.49-.16,5.31-.19,8.39,0,3.3.21,6.27.64,8.85,1.15,5.02-21.1,10.15-42.17,15.4-63.21,3.18-12.73,6.4-25.44,9.66-38.15l.17-21.12c-8.29.02-15.57-.8-21.54-1.86-5.12,14.36-10.02,30.97-13.79,49.65-5.63,27.88-7.25,52.92-7.13,73.55Z"/>
        </g>
        <g id="Oberteil-5" data-name="Oberteil">
          <path class="cls-17" d="M394.37,113.84c.37,0,.75,0,1.12-.01,10.56-.14,19.53-1.73,26.37-3.45-.67-5.82-1.69-13.53-3.27-22.58-1.65-9.43-2.61-12.91-3.28-19.3-.72-6.87-.81-14.49.12-22.81-.94-.47-2.36-1.07-4.19-1.35-1.82-.28-3.35-.15-4.38.02-.51.59-4.03,4.5-9.82,4.48-.23,0-.45,0-.67-.02l-2,65.02Z"/>
          <path class="cls-30" d="M366.87,110.56c7.02,1.72,16.4,3.31,27.5,3.29l2-65.02c-5.74-.32-9.08-4.45-9.5-4.98-1.39-.24-3.36-.44-5.69-.17-2.25.25-4.07.85-5.34,1.38.35,4.59.54,11.6-.69,20-1.23,8.35-3.03,12.39-5,21.2-1.26,5.63-2.74,13.89-3.28,24.31Z"/>
        </g>
        <g id="Kittel-5" data-name="Kittel">
          <g id="Links-5" data-name="Links">
            <path class="cls-24" d="M357.02,73.04c-1.55-1.33-3.42-2.77-5.62-4.18-2.04-1.3-3.98-2.33-5.73-3.14,2.48-2.6,4.66-4.62,6.22-6.01,0,0,8.61-7.64,16.17-11.46,2.17-1.1,4.47-2.06,4.47-2.06.79-.33,1.46-.6,1.93-.78,4.4-1.95,8.83-1.54,11.03.9,2.72,3.02,1.06,8.05.87,8.62-.98,2.83-3.35,5.99-20.42,14.07-3.74,1.77-6.86,3.15-8.92,4.04Z"/>
            <path class="cls-6" d="M352.63,157.45c7.55,1.49,16.31,2.79,26.09,3.49l11.71-118.86c-2.43-.2-5.59-.21-9.19.43-2.34.42-4.38,1.03-6.07,1.66,1.13,6.76.96,12.26.6,16.01-.25,2.57-.62,4.6-.84,5.74-1.01,5.33-2.53,9.68-4.11,14.25-3.34,9.65-6.56,20.15-9.43,31.45-4.19,16.46-6.96,31.86-8.76,45.83Z"/>
            <path class="cls-24" d="M390.16,40.46c.23,1.54.58,3.24,1.08,5.07.45,1.65.97,3.15,1.49,4.48-1.69,6.79-3.38,13.57-5.07,20.36-1.3-6.12-2.61-12.24-3.91-18.36l3.38-5.78-4.5-3.96,7.53-1.81Z"/>
            <g id="Unterarm-5" data-name="Unterarm">
              <path class="cls-12" d="M381.58,93.24c-2.65-.53-4.56-1.6-5.25-2.08-1.22-.85-2.11-1.79-2.7-2.55-.02,0-.03-.02-.04-.03-8.36-4.76-16.71-9.53-25.06-14.28-.48-.3-2.21-1.47-2.65-3.62-.05-.27-.17-.87-.05-1.6.38-2.42,3.04-4.66,5.72-4.45.48.04,1.44.2,2.5.97,7.62,5.85,15.24,11.69,22.86,17.53,1.43.04,2.59.03,3.46.02,0,0,1.35-.06,3.73.53.61.16,1.32.37,1.51.91.06.17.07.36.01.58-.2.76-1.94,1.25-3.7,1.43-.82.09.33,2.3,1.81,2.89,2.78,1.11,5.48-.16,5.71,1.49.28,1.95-3.96,3.04-7.86,2.26Z"/>
              <path class="cls-24" d="M352.93,64.35l22.44,15.13c-1.2,1.35-2.5,2.95-3.8,4.79-1.13,1.61-2.08,3.15-2.88,4.55-7.58-5.23-15.15-10.45-22.73-15.68-2.09-1.66-2.24-4.97-.32-7.38l.03-.04c1.92-2.42,5.17-3.03,7.26-1.37Z"/>
            </g>
            <path class="cls-24" d="M366.28,118.76l8.97,1.03c1.09.12,2.08-.66,2.21-1.76l1.44-12.6c-4.02-.39-8.04-.77-12.05-1.16-.78,4.09-1.55,8.19-2.33,12.28-.12,1.09.67,2.08,1.76,2.21Z"/>
            <g id="Knöpfe-5" data-name="Knöpfe">
              <circle class="cls-28" cx="406.69" cy="77.98" r=".67"/>
              <circle class="cls-28" cx="407.4" cy="87.24" r=".67"/>
              <circle class="cls-28" cx="407.84" cy="96.38" r=".67"/>
              <circle class="cls-28" cx="408.34" cy="105.82" r=".67"/>
              <circle class="cls-28" cx="408.74" cy="115.33" r=".67"/>
              <circle class="cls-28" cx="409.34" cy="124.69" r=".67"/>
              <circle class="cls-28" cx="409.87" cy="134.86" r=".67"/>
              <circle class="cls-28" cx="410.48" cy="144.21" r=".67"/>
            </g>
          </g>
          <g id="Rechts-5" data-name="Rechts">
            <path class="cls-24" d="M433.05,73.19c4.29-2.34,8.57-4.68,12.86-7.01-5.11-4.25-9.73-7.95-13.71-11.07-9.01-7.06-12.27-9.21-16.94-9.6-.77-.07-8.37-.62-10.26,3.2-1.83,3.7,2.84,9.16,4.22,10.78,1.37,1.6,3.42,3.55,11.15,7.68,3.09,1.65,7.38,3.8,12.69,6.04Z"/>
            <path class="cls-6" d="M402.08,43.27l6.59,117.71c9.06-.61,17.24-1.76,24.38-3.09-.8-11.99-2.2-25.09-4.49-39.08-2.32-14.15-5.21-27.14-8.32-38.86-1.73-4.35-3.59-10.29-4.49-17.52-.83-6.67-.58-12.46-.07-16.89-6.65-2.9-10.9-2.88-13.59-2.26Z"/>
            <g id="Unterarm-6" data-name="Unterarm">
              <path class="cls-12" d="M439.46,67.47c-7.16,6.38-13.78,13.33-20.92,19.72-1,.89-2.75,2.42-2.44,4,.31,1.58,2.59,2.85,4.01,2.52.41-.1,1.08-.47,1.67-.93.24-.19.43-.37.55-.5,7.84-5.57,15.67-11.15,23.5-16.72.44-.34,2.05-1.68,2.27-3.86.03-.28.08-.88-.11-1.59-.63-2.37-3.49-4.34-6.13-3.86-1.26.23-2.11.96-2.4,1.22Z"/>
              <path class="cls-24" d="M439.85,65.82l-20.08,16.85c1.11.87,2.47,2.09,3.85,3.69,1.57,1.82,2.65,3.56,3.37,4.91,10.41-8.37,17.91-14.74,20.08-16.85.45-.44,1.4-1.4,1.51-2.98.12-1.7-.79-3.31-1.51-4.32l-.04-.04c-1.98-2.36-5.2-2.93-7.19-1.26Z"/>
            </g>
            <path class="cls-24" d="M402.47,41.24c-.28,1.46-.64,3.03-1.1,4.69-.5,1.76-1.04,3.36-1.6,4.82,1.28,6.54,2.57,13.07,3.85,19.61,1.7-5.83,3.4-11.65,5.1-17.48l-3.3-5.83,4.56-3.89-7.5-1.93Z"/>
            <path class="cls-24" d="M422.79,119.59l-9,.76c-1.09.09-2.06-.73-2.16-1.82-.16-4.21-.32-8.42-.47-12.64,4.01-.37,8.01-.75,12.02-1.12.48,4.22.95,8.44,1.43,12.66.09,1.09-.73,2.06-1.82,2.16Z"/>
          </g>
        </g>
      </g>
      <g id="Klemmmappe-3" data-name="Klemmmappe">
        <g>
          <rect class="cls-30" x="381.64" y="70.47" width="33.21" height="47.1" transform="translate(805.67 131.94) rotate(172.03)"/>
          <rect class="cls-7" x="385.24" y="69.23" width="19.39" height="3.49" transform="translate(-6.02 55.41) rotate(-7.97)"/>
        </g>
        <g>
          <path class="cls-17" d="M393.56,105.04c.28-.95.56-1.88.84-2.83.14-.47.28-.95.42-1.41.28-.94.55-1.87.84-2.81.32-1.08.65-2.16.97-3.25l-.32-2.32-.18-1.33,3.55-.5.21,1.51.3,2.14c.46.72.92,1.45,1.38,2.16.55.86,1.09,1.72,1.64,2.58.19.29.38.59.56.89.16.24.31.49.47.73.61.97,1.23,1.93,1.85,2.9l-2.11.29-4.19.59-.25.04-6.04.85c.02-.08.05-.16.07-.23Z"/>
          <rect class="cls-17" x="395.51" y="89.51" width="4.57" height="1.35" transform="translate(-8.66 55.99) rotate(-7.97)"/>
          <path class="cls-7" d="M399.76,104.19h0s5.9-.83,5.9-.83c-1.53-2.4-3.06-4.8-4.6-7.2-.36.1-.73.26-1.09.47-1.06.63-1.29,1.34-2.17,1.61-.44.14-1.05.17-1.88-.18-.69,2.32-1.38,4.64-2.08,6.95l5.9-.83Z"/>
          <circle class="cls-26" cx="400.7" cy="99.74" r=".39"/>
          <circle class="cls-26" cx="400.11" cy="101.43" r=".26"/>
          <circle class="cls-26" cx="400.08" cy="98.08" r=".26"/>
          <path class="cls-17" d="M386.66,94.55c.55,3.94,3.03,7.14,6.35,8.79.49-1.65.99-3.3,1.48-4.95.08-.26.15-.51.23-.77-1.22-.89-2.08-2.25-2.31-3.87-.44-3.17,1.76-6.09,4.93-6.53s6.09,1.76,6.54,4.93c.22,1.58-.22,3.09-1.1,4.27,1.07,1.68,2.15,3.37,3.22,5.05,2.7-2.49,4.17-6.22,3.62-10.13-.89-6.34-6.74-10.76-13.08-9.87-6.34.89-10.76,6.74-9.87,13.08Z"/>
          <circle class="cls-7" cx="397.52" cy="96.47" r=".39"/>
          <circle class="cls-7" cx="397.91" cy="95.04" r=".26"/>
          <circle class="cls-7" cx="396.97" cy="87.25" r=".39"/>
          <circle class="cls-7" cx="396.38" cy="88.94" r=".26"/>
          <circle class="cls-7" cx="396.34" cy="85.6" r=".26"/>
        </g>
        <path class="cls-12" d="M416.33,86.43c.75-.13,2.26-.48,3.08-.58,1.12-.14,2.19-.22,3.2-.27.31.81.65,1.64,1.02,2.49.37.86.75,1.69,1.14,2.48-.57.87-1.73,1.73-3.29,2.89-2.24,1.67-4.43,2.17-5.32,2.33-.36.06-5.53,1.42-6.59-.72-.36-.72-.1-1.53-.04-1.69.01-.03.02-.07.04-.11.22-.49,1.15-1.68,3.33-2.3,0,0,2.02-.57,3.16-1.17.1-.05.12-.13.12-.13,0,0,0,0,0-.01,0-.28.02-.64.14-3.21Z"/>
      </g>
      <g id="Gesicht-7" data-name="Gesicht">
        <g id="Haare-9" data-name="Haare">
          <path class="cls-24" d="M408.85,13.51c.18.1,1.54.92,1.77,2.57.19,1.32-.42,2.67-1.57,3.46.22.12,2.42,1.41,2.68,3.93.22,2.15-1.07,4.29-3.21,5.25.09.26.45,1.32-.07,2.35-.59,1.19-2.1,1.86-3.69,1.54-.27.52-1.06,1.84-2.68,2.61-2.64,1.26-5.19-.04-5.5-.2-.18.08-3.62,1.64-6.44-.34-1.35-.95-1.92-2.26-2.15-2.88-.47-.07-1.86-.32-3.07-1.5-1.31-1.28-1.56-2.81-1.62-3.26-.1-.11-2.15-2.4-1.3-5.14.49-1.59,1.69-2.44,2.1-2.71-.23-.58-.9-2.5-.19-4.78.56-1.8,1.69-2.89,2.2-3.33.18-.52.7-1.75,1.97-2.76,1.2-.95,2.44-1.19,2.99-1.27,2.59-.38,5.18-.76,7.78-1.14,1.68.78,3.35,1.56,5.03,2.35.56.06,1.74.28,2.86,1.17,1.86,1.48,2.07,3.65,2.1,4.06Z"/>
        </g>
        <g id="Kopf-5" data-name="Kopf">
          <path class="cls-12" d="M411.26,23.27v.93c0,1.37-1.12,2.48-2.48,2.48-.35,0-.69-.07-.99-.21-.79,3.66-3.36,6.67-6.76,8.07v9.37c0,2.41-1.97,4.39-4.38,4.39s-4.38-1.98-4.38-4.39v-9.33s0-.08,0-.12c-3.34-1.45-5.85-4.48-6.59-8.13-.37.22-.8.35-1.26.35-1.37,0-2.48-1.11-2.48-2.48v-.93c0-.69.28-1.31.73-1.76.45-.45,1.07-.73,1.75-.73.37,0,.72.08,1.04.23v-2.4c0-3.11,1.27-5.93,3.32-7.97,2.04-2.05,4.86-3.32,7.96-3.32,6.21,0,11.29,5.08,11.29,11.29v2.28c.23-.07.48-.11.74-.11,1.36,0,2.48,1.12,2.48,2.49Z"/>
        </g>
        <g id="Schatten-5" data-name="Schatten">
          <path class="cls-4" d="M392.29,34.44c.67.3,1.59.62,2.72.8,1.32.21,2.44.14,3.23.03-2,1.49-3.99,2.97-5.99,4.46,0-.49,0-.92,0-1.27,0-.28,0-.31,0-1.58,0-.89,0-.98,0-1.18,0-.54.02-.98.03-1.27Z"/>
          <path class="cls-4" d="M384.06,22.6c-.18,0-.42.71-.23,1.35.14.46.51.93.66.86.29-.12-.12-2.22-.43-2.22Z"/>
          <path class="cls-4" d="M409.29,22.6c.18,0,.42.71.23,1.35-.14.46-.51.93-.66.86-.29-.12.12-2.22.43-2.22Z"/>
        </g>
        <g id="Haare-10" data-name="Haare">
          <path class="cls-24" d="M408.76,14.42c-1.05,1.03-2.51.95-2.79.93-.48.53-.96.82-1.28.98-1.72.87-3.79.42-5.13-.5-.45-.31-.77-.64-.96-.85-.61.21-1.74.49-3.06.17-.32-.08-2.7-.65-3.22-2.51-.15-.54-.1-1.04-.03-1.37-.31.14-1.35.58-2.54.19-1.39-.45-2.58-1.92-2.36-3.6.18-1.38,1.28-2.52,2.72-2.82.18-.26,1.03-1.43,2.66-1.78,1.61-.35,2.86.33,3.14.49.46-.18,1.97-.72,3.8-.19,1.75.5,2.73,1.67,3.04,2.07.16-.07,1.27-.5,2.44.09,1.18.6,1.47,1.75,1.51,1.92.32.13,1.96.8,2.66,2.56.05.13,1,2.66-.6,4.22Z"/>
        </g>
        <g id="Augenbrauen-5" data-name="Augenbrauen">
          <path class="cls-24" d="M399.62,17.28c.33-.11.93-.25,1.68-.16.94.12,1.58.57,1.86.79.58-.17.74-.37.76-.53.09-.55-1.28-1.41-2.64-1.52-.91-.07-2.1.17-2.19.66-.04.25.21.53.53.76Z"/>
          <path class="cls-24" d="M390.47,17.58c.29-.18.84-.48,1.59-.56.94-.11,1.67.16,1.99.31.52-.31.62-.54.61-.7-.05-.56-1.59-1.06-2.93-.83-.9.15-1.99.68-1.96,1.18.02.26.34.46.7.61Z"/>
        </g>
        <g id="Mund-3" data-name="Mund">
          <ellipse class="cls-28" cx="396.69" cy="30.21" rx="2.94" ry="1.25"/>
        </g>
        <g id="Augen-5" data-name="Augen">
          <rect class="cls-10" x="400.37" y="18.72" width="1.8" height="2.12" rx=".9" ry=".9" transform="translate(802.53 39.56) rotate(180)"/>
          <rect class="cls-10" x="391.52" y="18.72" width="1.8" height="2.12" rx=".9" ry=".9" transform="translate(784.83 39.56) rotate(-180)"/>
        </g>
        <g id="Bart-3" data-name="Bart">
          <path class="cls-6" d="M396.74,28.96c.49.4,3.31,2.67,6.79,1.96,1.06-.21,1.9-.65,2.51-1.06-.74-.1-1.76-.3-2.92-.75-2.55-1.01-3.7-2.47-5.13-2.06-.35.1-.81.34-1.26.96v.96Z"/>
          <path class="cls-6" d="M396.87,28.96c-.49.4-3.31,2.67-6.79,1.96-1.06-.21-1.9-.65-2.51-1.06.74-.1,1.76-.3,2.92-.75,2.55-1.01,3.7-2.47,5.13-2.06.35.1.81.34,1.26.96v.96Z"/>
        </g>
        <g id="Nase-5" data-name="Nase">
          <path class="cls-10" d="M396.54,26.72c-.17,0-.33-.03-.49-.08-.26-.09-.45-.25-.54-.45-.18-.43-.03-.88.44-1.31l.05-.05c.2-.18.5-.46.64-.9.05-.15.07-.39.08-.55v-.07c0-.19,0-.35.01-.52,0-.16,0-.33,0-.53,0-.07.06-.12.12-.12s.12.06.12.12c0,.2,0,.36,0,.53,0,.16,0,.33,0,.53v.08c-.02.17-.04.43-.1.61-.16.51-.5.82-.71,1.01l-.05.05c-.53.48-.47.82-.38,1.03.05.13.2.24.39.31.36.13.82.06,1.22-.16.06-.03.14-.01.17.05s.01.14-.05.17c-.31.17-.63.26-.94.26Z"/>
        </g>
      </g>
    </g>
    <g id="Stativ-5" data-name="Stativ">
      <g id="Stativ-6" data-name="Stativ">
        <path class="cls-14" d="M510.6,58.12v.8c0,.42-.34.76-.76.76h-31.77c-.44,2.21-2.12,3.99-4.29,4.56v40.46h8.84c.88,0,1.59.71,1.59,1.59v1.24c1.07.23,1.87,1.18,1.87,2.32v1.51h-28v-1.51c0-1.14.8-2.09,1.87-2.32v-1.24c0-.88.71-1.59,1.59-1.59h9.18v-40.46c-2.17-.57-3.85-2.35-4.29-4.56h-4.16v1.36c0,.72-.58,1.3-1.3,1.3h-.19c-.72,0-1.3-.58-1.3-1.3v-5.38c0-.72.58-1.3,1.3-1.3h.19c.72,0,1.3.58,1.3,1.3v1.7h4.16c.44-2.21,2.12-3.98,4.29-4.55v-3.35c0-.37.3-.67.68-.67h1.71c.37,0,.67.3.67.67v3.35c2.17.57,3.85,2.34,4.29,4.55h31.77c.42,0,.76.34.76.76Z"/>
        <circle class="cls-3" cx="472.25" cy="58.52" r="3.85"/>
      </g>
      <g id="Reagenzglas-5" data-name="Reagenzglas">
        <path class="cls-6" d="M514.66,77.21c-.38-6.07-4.62-11.08-10.29-12.63v-8.41h1.23v-3.03h-9.89v3.03h1.24v8.41c-4.59,1.25-8.23,4.77-9.66,9.27-.44,1.34-.67,2.78-.67,4.27,0,7.76,6.28,14.05,14.04,14.05s14.04-6.29,14.04-14.05c0-.31-.01-.61-.04-.91ZM500.66,91.13c-7.18,0-13-5.82-13-13.01,0-.74.06-1.46.18-2.16.11-.7.28-1.38.51-2.04h.01c3.39.11,5.55-1.18,8.59-1.64.28-.04.57-.08.87-.11.3-.02.6-.04.93-.05,1.38-.02,2.61.15,3.74.46,2.54.67,4.49,1.95,6.26,2.81,1.35.65,2.95,1.23,4.86,1.62.04.36.05.74.05,1.11,0,7.19-5.82,13.01-13,13.01Z"/>
        <path class="cls-7" d="M513.66,78.12c0,7.18-5.82,13.01-13,13.01s-13-5.82-13-13.01c0-1.47.24-2.89.7-4.21,3.39.11,5.55-1.18,8.59-1.63.56-.09,1.16-.14,1.8-.16,1.38-.03,2.61.15,3.74.45,2.54.67,4.49,1.95,6.26,2.81,1.35.66,2.95,1.23,4.86,1.62.03.36.05.74.05,1.11Z"/>
        <g>
          <circle class="cls-26" cx="495.12" cy="80.64" r=".82"/>
          <circle class="cls-26" cx="496.85" cy="84" r=".54"/>
          <circle class="cls-26" cx="495.94" cy="77" r=".54"/>
        </g>
        <g>
          <circle class="cls-7" cx="501.95" cy="66.85" r=".82"/>
          <circle class="cls-7" cx="504.91" cy="69.2" r=".54"/>
          <circle class="cls-7" cx="501.2" cy="63.2" r=".54"/>
        </g>
      </g>
    </g>
    <g id="Tisch-2" data-name="Tisch">
      <rect class="cls-15" x="350.6" y="116.64" width="246.19" height="116.81"/>
      <path class="cls-3" d="M604.33,113.74v.35c0,1.4-.7,2.55-1.55,2.55h-258.11c-.88,0-1.6-1.15-1.6-2.55v-.35c0-1.4.72-2.54,1.6-2.54h258.11c.85,0,1.55,1.14,1.55,2.54Z"/>
      <rect class="cls-28" x="472.44" y="116.64" width="2.5" height="116.4"/>
      <rect class="cls-28" x="350.18" y="137.79" width="122.21" height="2.5"/>
      <rect class="cls-28" x="401.95" y="126.42" width="17.23" height="2.77" transform="translate(821.12 255.62) rotate(180)"/>
      <rect class="cls-28" x="458.8" y="183.97" width="17.23" height="2.77" transform="translate(282.05 652.77) rotate(-90)"/>
      <rect class="cls-28" x="472.44" y="116.64" width="2.5" height="116.4"/>
      <rect class="cls-28" x="475" y="137.79" width="122.21" height="2.5"/>
      <rect class="cls-28" x="528.21" y="126.42" width="17.23" height="2.77"/>
      <rect class="cls-28" x="471.36" y="183.97" width="17.23" height="2.77" transform="translate(294.62 665.33) rotate(-90)"/>
    </g>
    <g id="Person:_Frau-3" data-name="Person: Frau">
      <g id="Körper-9" data-name="Körper">
        <g id="Figur-3" data-name="Figur">
          <path class="cls-13" d="M533.06,68.73c6.48-6.36,11.77-13.83,17.69-20.72.05-.06.25-.29.3-.35.02-.02.03-.04.05-.06.97-1.01,2.25-1.66,3.61-1.86-.02-.13-.03-.27-.05-.4,5.28-.26,11.43-.21,18.23.49,7.35.75,13.81,2.09,19.23,3.55h0c2.02.45,3.71,1.86,4.49,3.75.01.02.02.05.03.07.05.14.09.3.15.44,2.78,7.86,5.56,15.71,8.32,23.56,1.03-1.94,2.1-3.89,3.19-5.85,2.83-5.08,5.66-9.97,8.48-14.67,0-.25.03-.62.13-1.04.31-1.29.97-1.71,2.49-3.55.62-.76,1.47-1.86,2.65-2.9.32-.28.92-.77,1.48-.62.15.04.3.13.43.3.46.55-.12,2.1-.92,3.5-.37.66,1.88.99,3.11.21,2.31-1.47,2.81-4.15,4.15-3.44,1.59.84.14,4.55-2.53,7.03-1.81,1.67-3.62,2.52-4.34,2.77-1.04.37-2.01.54-2.81.61-3.95,10.03-7.89,20.06-11.84,30.1h0c-.02.1-.04.19-.08.28-.03.11-.07.22-.11.33-.64,1.65-2.19,2.86-4.07,2.96-.08,0-.16,0-.25,0-.16,0-.31,0-.47-.03-.04,0-.09-.01-.13-.01-.15-.02-.29-.04-.43-.08-.15-.03-.3-.07-.44-.12-.01-.01-.03-.01-.05-.02-.13-.04-.26-.1-.38-.15-.49-.22-.93-.53-1.31-.9-.06-.05-.12-.11-.17-.17-.08-.08-.15-.16-.21-.25-.12-.14-.22-.29-.32-.44-.06-.09-.11-.18-.15-.27-.07-.14-.13-.29-.19-.44,0-.01-.02-.03-.03-.05-.03-.04-.04-.08-.05-.12-4.04-8.71-8.08-17.42-12.11-26.11-2.12,7.23-4.23,14.47-6.35,21.7l9.46,14.79-.06.05c.08.07.15.15.22.23h0c.19.4.41.79.41.79,9.47,16.02,6.66,55.87,6.66,55.87-.24,3.29-.63,8.01-1.33,13.68,0,.21-.01.42-.03.63,0,.1-.02.2-.03.3v.02c.31,15.05.4,30.5.23,46.33-.13,11.69-.39,23.18-.78,34.44,0,.04,0,.11.01.2.16.97,1.54,1.19,1.62,1.69.06.35-.52.93-3.02,1.92h-.01c-.82.17-1.75.26-2.74.26-1.05,0-2.03-.1-2.88-.29-1.32-.29-2.98-1.21-2.89-1.89.07-.56,1.31-.81,1.31-1.6,0-.09-.02-.15-.02-.18-.57-4.07-1.44-10.39-2.5-18.14-1.07-7.81-1.74-11.5-2.41-17.64-1.84-17.03-2.08-32.54-1.52-46.05-2.61-18.61-5.23-37.22-7.84-55.82h0s-3.15,0-3.15,0c-.08.09-.19.18-.31.25-4.23,18.28-8.44,36.55-12.67,54.83,0-.07.01-.13.01-.2h-.03c-.01.18-.03.35-.06.52.03-.11.05-.21.08-.32-.76,11.17-2.4,27.21-6.21,45.46-4.26,20.41-9.79,36.64-10.07,37.2-.01.03-.04.08-.06.16-.1.69,1.51,1.07,1.58,1.78.08.82-1.95,1.64-2.15,1.7-.99.3-2.25.48-3.62.48-1.1,0-2.13-.12-3.01-.32-1.08-.24-2.83-1.14-2.75-1.86.1-.83,2.59-.84,2.87-2.24.04-.16.03-.28.02-.33-.07-1.47,1.34-20.37,2.83-36.82,1.42-15.7,3.07-30.96,4.93-45.75,0-.03,0-.07,0-.1-.02-.08-.02-.14-.02-.22h0c-.08-7.23.02-13.31.12-17.82.79-30.23,6.74-45.68,9.6-50.22.16-.25.3-.49.42-.68.06-.11.12-.2.19-.29,2.47-4.93,4.93-9.86,7.4-14.79-.98-8.6-1.96-17.19-2.95-25.79-3.68,3.87-5.5,7.4-13.62,13.99-4.24,3.43-9.92,8.04-13.21,6.23-1.24-.68-1.93-2.17-2.05-3.39-.3-2.79,2.26-4.79,5.61-8.08ZM618.29,53.57c-.62.48-.98,1.11-1.06,1.25-.07.13-.13.26-.18.39.47-.6.88-1.15,1.24-1.64Z"/>
        </g>
        <g id="Schuhe-6" data-name="Schuhe">
          <path class="cls-1" d="M584.7,259.82v1.51h29.78v-1.51s-.24-1.41-7.79-3.6c-3.48-1-6.17-2.27-8.9-3.03-1.19.48-3.14,1.09-5.6,1.13-2.67.03-4.76-.64-5.98-1.13-.37.81-.79,1.85-1.08,3.08-.32,1.37-.43,2.6-.43,3.55Z"/>
          <path class="cls-1" d="M543.99,259.99v1.51h-29.78v-1.51s.24-1.41,7.79-3.6c3.48-1,6.17-2.27,8.9-3.03,1.19.48,3.14,1.09,5.6,1.13,2.67.03,4.76-.64,5.98-1.13.37.81.79,1.85,1.08,3.08.32,1.37.43,2.6.43,3.55Z"/>
        </g>
        <g id="Kittel_hinterteil-5" data-name="Kittel hinterteil">
          <path class="cls-24" d="M609.27,156.5c-10.3,1.95-22.94,3.51-37.39,3.52-15.5,0-28.96-1.78-39.75-3.95,5.54-21.62,11.08-43.24,16.62-64.86l47.83.57,12.68,64.71Z"/>
          <path class="cls-24" d="M568.78,47.68c3.47.28,6.94.55,10.41.83.25-1.3.5-2.59.75-3.89-1.55-.4-3.45-.77-5.64-.92-2.39-.17-4.48-.04-6.17.18.03.21.06.43.09.65.15,1.09.34,2.15.55,3.16Z"/>
        </g>
        <g id="Hose-6" data-name="Hose">
          <path class="cls-17" d="M532.34,244.11c1.63-.3,4.23-.57,7.32,0,2.63.49,4.68,1.41,6.03,2.16,2.05-9.01,5.02-22.57,8.19-39.21,2.97-15.59,4.08-23.17,6.36-35.73,2.31-12.72,5.9-30.84,11.25-52.95l1.22-32.78h-1.22c-4.08.03-8.15.05-12.23.06-7.38,9.21-11.16,17.56-13.23,23.25-3.59,9.93-4.6,20.12-6.51,40.53-.66,7.05-1.21,13.07-1.63,17.86-.36,3.9-.69,7.81-1.03,11.73-1.86,21.97-3.36,43.68-4.54,65.08Z"/>
          <path class="cls-7" d="M571.49,118.37c1.78,16.76,3.56,33.52,5.33,50.3,2.72,25.87,5.42,51.74,8.09,77.6,1.9-.49,4.32-.94,7.11-1.08,2.95-.15,5.52.1,7.54.43,1.02-33.23,1.68-58.01,1.81-66.59.05-3.65.08-7.08.08-7.08.03-4.21.03-9.93-.08-16.6-.29-18.91-.43-28.37-2.07-35.79-1.76-7.96-5.97-20.31-17.46-34.02l-9.14.06-1.22,32.78Z"/>
        </g>
        <g id="Oberteil-6" data-name="Oberteil">
          <path class="cls-17" d="M572.69,85.63c3.03,0,6.08-.01,9.13-.01l10.3-36.24c-3.84-.92-7.67-1.84-11.51-2.76-.77,1.24-1.91,2.78-3.56,4.29-1.11,1.02-2.2,1.8-3.16,2.39-.4,10.78-.8,21.55-1.21,32.33Z"/>
          <path class="cls-30" d="M554.66,45.34c1.53,13.44,3.07,26.88,4.6,40.32,4.06-.01,8.13-.01,12.2-.03h1.22l1.21-32.33-.07.06c-.92-.91-1.91-2-2.89-3.26-1.31-1.69-2.31-3.31-3.07-4.74-4.4,0-8.8-.01-13.2-.02Z"/>
        </g>
        <g id="Kittel-6" data-name="Kittel">
          <g id="Links-6" data-name="Links">
            <path class="cls-24" d="M583.91,59.19c.93,2.14,1.92,4.31,2.98,6.52,1.37,2.87,1.55,3.25,1.77,3.73,2.01,4.27,3.08,7.42,3.88,9.55,1.11,2.94,2.91,7.08,5.88,12.17.04.18.1.35.19.49,1.14,1.9,2.25,2.73,2.57,2.91l.05.03c2.62,1.38,5.86.38,7.24-2.23l14.01-26.46c-1.33-.33-3-.87-4.8-1.8-2.06-1.05-3.62-2.25-4.72-3.24-2.32,4.38-4.64,8.77-6.96,13.15-.83-3.97-1.74-7.25-2.53-9.76-1.14-3.65-1.97-5.59-2.44-6.62-1.21-2.65-2.47-4.78-3.47-6.31-2.15-2.79-6.27-3.53-9.62-1.89-3.72,1.83-5.63,6.19-4.03,9.76Z"/>
            <path class="cls-6" d="M579.57,46.56l6.32,112.9c8.69-.59,16.54-1.68,23.38-2.96-.77-11.5-2.11-24.06-4.31-37.49-2.22-13.57-5-26.03-7.98-37.28-1.66-4.17-3.45-9.87-4.31-16.81-.8-6.4-.56-11.95-.07-16.2-6.38-2.79-10.46-2.76-13.04-2.17Z"/>
            <path class="cls-24" d="M579.94,44.61c-.27,1.4-.61,2.91-1.06,4.5-.47,1.68-1,3.23-1.54,4.62,1.23,6.27,2.46,12.54,3.69,18.81,1.63-5.59,3.26-11.18,4.89-16.76l-3.16-5.59,4.37-3.73-7.2-1.85Z"/>
            <g id="Knöpfe-6" data-name="Knöpfe">
              <circle class="cls-28" cx="583.98" cy="79.85" r=".65"/>
              <circle class="cls-28" cx="584.67" cy="88.74" r=".65"/>
              <circle class="cls-28" cx="585.09" cy="97.51" r=".65"/>
              <circle class="cls-28" cx="585.58" cy="106.56" r=".65"/>
              <circle class="cls-28" cx="585.96" cy="115.68" r=".65"/>
              <circle class="cls-28" cx="586.53" cy="124.66" r=".65"/>
              <circle class="cls-28" cx="587.04" cy="134.42" r=".65"/>
              <circle class="cls-28" cx="587.63" cy="143.38" r=".65"/>
            </g>
            <path class="cls-24" d="M599.43,119.77l-8.63.73c-1.05.09-1.98-.7-2.07-1.74-.15-4.04-.3-8.08-.45-12.12,3.84-.36,7.68-.72,11.53-1.08.46,4.05.91,8.09,1.37,12.14.09,1.05-.7,1.98-1.74,2.07Z"/>
          </g>
          <g id="Rechts-6" data-name="Rechts">
            <path class="cls-24" d="M528.39,73.46c5.03.24,9.37.37,14.4.61,2.68-2.25,5.39-4.51,8.13-6.77,3.86-3.18,7.7-6.3,11.52-9.34,2-3.57,2.7-7.16.55-9.77-2.14-2.59-5.81-2.84-6.57-2.88-4.69-.2-7.99,3.58-15.45,12.29-5.44,6.34-9.26,11.84-12.58,15.86Z"/>
            <path class="cls-6" d="M532.14,156.07c7.24,1.43,15.64,2.68,25.02,3.35l11.24-114.01c-2.02-.51-4.83-.99-8.18-.85-2.57.1-4.77.54-6.47,1,.66,4,1.29,10.01.58,17.21-.78,7.93-2.77,13.47-4.74,19.17-3.21,9.26-6.29,19.33-9.05,30.17-4.02,15.79-6.67,30.56-8.4,43.96Z"/>
            <path class="cls-24" d="M568.14,43.87c.22,1.48.55,3.11,1.03,4.87.43,1.58.93,3.02,1.43,4.3-1.62,6.51-3.24,13.02-4.86,19.53-1.25-5.87-2.5-11.74-3.75-17.61l3.24-5.54-4.32-3.8,7.22-1.74Z"/>
            <path class="cls-24" d="M545.23,118.97l8.61.99c1.05.12,2-.64,2.12-1.68l1.38-12.08c-3.85-.37-7.71-.74-11.56-1.11-.74,3.93-1.49,7.85-2.23,11.78-.12,1.05.64,2,1.68,2.12Z"/>
            <g id="Unterarm-7" data-name="Unterarm">
              <path class="cls-13" d="M529.98,82.42c.67.16,1.36.17,1.99.04h.01c11-.49,22-.99,33-1.49,1.02.98,2.52,1.2,3.69.55,1.41-.78,1.92-2.61,1.3-3.91-.69-1.43-2.47-1.61-2.73-1.63-.85-.07-1.53.18-1.88.35-5.44-.66-11.06-1.26-16.85-1.76-5.75-.5-11.34-.89-16.77-1.17h-.05c-.21-.02-.42-.03-.64-.05-.04,0-.08,0-.12,0-2.03.05-2.68,1.43-3.18,3.5-.6,2.47-.24,4.98,2.24,5.57Z"/>
              <path class="cls-13" d="M571.78,76.32c-1.04-.21-2.12-.42-3.64-.43-1.18,0-2.56.18-3.23.37-.09.76-.19,1.55-.32,2.36-.13.82-.27,1.62-.42,2.38.69.62,1.87,1.1,3.47,1.75,2.3.94,4.29.88,5.08.82.32-.02,5.07-.01,5.5-2.08.15-.7-.25-1.33-.34-1.46-.15-.23-.61-.81-3.43-1.32-1.53-.27-2.83-.36-2.83-.5,0-.04.12-.07.17-.08,1.31-.29,3.27-.43,3.32-.67.05-.24-1.3-.74-3.33-1.15Z"/>
              <path class="cls-24" d="M531.37,82.73c9.97.51,19.94,1.02,29.91,1.53-.14-1.73-.2-3.7-.1-5.87.09-1.89.3-3.61.56-5.15-10.18-.43-20.36-1.67-30.54-1.29-2.11.08-3.96,1.98-3.92,4.94-.03,2.01-.12,4.2,1.83,5.24.96.51,1.85.57,2.25.59Z"/>
            </g>
          </g>
        </g>
      </g>
      <g id="Gesicht-8" data-name="Gesicht">
        <g id="Haare-11" data-name="Haare">
          <path class="cls-1" d="M582.18,33.44c-.6,1.18-.1,2.56.9,3.04,1.08.52,2.61-.09,3.04-1.46,2.28.12,3.93-1.44,3.94-2.93,0-1.47-1.61-2.43-1.69-2.48,2.42-.21,4.27-2.11,4.39-4.28.09-1.73-.93-3.42-2.59-4.28.19-.2,1.77-1.84,1.46-4.28-.3-2.36-2.12-3.56-2.36-3.71,1.23-1.61,1.36-3.77.34-5.4-1.17-1.88-3.65-2.68-5.85-1.8,0-.22-.2-3.36-2.93-4.95-2.04-1.19-4.67-1.02-6.64.45-.98-1.14-2.52-1.63-3.94-1.24-1.56.43-2.7,1.83-2.81,3.49-.31-.06-3.91-.65-6.53,2.03-2.17,2.22-2.05,5.05-2.03,5.51-1.78.83-2.98,2.55-3.15,4.5-.17,2.01.78,3.96,2.48,5.06-1.46.69-2.42,2.13-2.48,3.71-.06,1.73.97,3.34,2.59,4.05-1.28.84-1.73,2.46-1.13,3.71.51,1.05,1.68,1.69,2.93,1.58.25,1.73,1.7,2.86,3.04,2.7.93-.11,1.74-.83,2.14-1.8,1.07.61,2.32.68,3.15.11,1.22-.84,1.56-3.11.11-4.84,4.91.11,9.83.23,14.74.34l-1.13,3.15Z"/>
        </g>
        <g id="Kopf-6" data-name="Kopf">
          <path class="cls-13" d="M558.22,24.16v1c0,1.46,1.2,2.66,2.67,2.66.49,0,.96-.14,1.35-.38.79,3.91,3.48,7.14,7.05,8.7-.01.05-.01.09-.01.14v10c0,2.58,2.11,4.69,4.7,4.69s4.69-2.11,4.69-4.69v-10.04c3.63-1.5,6.39-4.73,7.23-8.65.33.15.69.23,1.07.23,1.46,0,2.66-1.2,2.66-2.66v-1c0-1.46-1.2-2.66-2.66-2.66-.27,0-.54.04-.79.12v-2.45c0-6.65-5.44-12.09-12.09-12.09-3.33,0-6.35,1.36-8.54,3.55-2.19,2.19-3.55,5.22-3.55,8.54v2.58c-.34-.16-.71-.25-1.11-.25-.73,0-1.4.3-1.89.78-.48.49-.78,1.15-.78,1.88Z"/>
        </g>
        <g id="Schatten-6" data-name="Schatten">
          <path class="cls-23" d="M560.5,23.44c-.19,0-.45.76-.25,1.45.15.49.55.99.71.93.31-.13-.13-2.38-.46-2.38Z"/>
          <path class="cls-23" d="M569.34,36.16c.72.32,1.71.67,2.92.86,1.41.22,2.61.15,3.47.04-2.14,1.59-4.28,3.18-6.42,4.78,0-.53,0-.98,0-1.36,0-.3,0-.33,0-1.7,0-.95,0-1.05,0-1.26,0-.58.02-1.05.03-1.36Z"/>
          <path class="cls-23" d="M587.52,23.44c.19,0,.45.76.25,1.45-.15.49-.55.99-.71.93-.31-.13.13-2.38.46-2.38Z"/>
        </g>
        <g id="Augenbrauen-6" data-name="Augenbrauen">
          <path class="cls-1" d="M567.21,19.01c.32-.17.93-.44,1.74-.48,1.01-.05,1.77.3,2.11.48.58-.29.71-.53.7-.7-.01-.6-1.62-1.25-3.07-1.11-.98.09-2.18.58-2.18,1.11,0,.28.33.52.7.7Z"/>
          <path class="cls-1" d="M577.1,18.99c.32-.17.93-.44,1.74-.48,1.01-.05,1.77.3,2.11.48.58-.29.71-.53.7-.7-.01-.6-1.62-1.25-3.07-1.11-.98.09-2.18.58-2.18,1.11,0,.28.33.52.7.7Z"/>
        </g>
        <g id="Augen-6" data-name="Augen">
          <rect class="cls-10" x="577.95" y="19.8" width="1.93" height="2.27" rx=".97" ry=".97" transform="translate(1157.83 41.87) rotate(-180)"/>
          <rect class="cls-10" x="568.28" y="19.77" width="1.93" height="2.27" rx=".97" ry=".97" transform="translate(1138.49 41.81) rotate(-180)"/>
        </g>
        <g id="Gesicht-9" data-name="Gesicht">
          <path class="cls-28" d="M577.72,29.91c-.07.23-.59,1.96-2.26,2.62-1.59.63-3.54.04-4.73-1.5.93.19,2.51.37,4.37-.08,1.1-.27,1.98-.68,2.62-1.04Z"/>
        </g>
        <g id="Nase-6" data-name="Nase">
          <path class="cls-10" d="M573.52,28.15c-.18,0-.35-.03-.52-.08-.27-.1-.48-.27-.57-.47-.19-.46-.04-.93.47-1.39l.06-.05c.21-.2.54-.49.69-.97.05-.16.07-.42.09-.59v-.08c0-.2,0-.38.01-.56,0-.18,0-.35,0-.56,0-.07.06-.12.12-.12s.12.06.12.12c0,.21,0,.39,0,.57,0,.18,0,.35,0,.56v.09c-.02.18-.04.46-.1.65-.17.54-.54.88-.76,1.08l-.06.05c-.43.39-.56.75-.41,1.11.06.14.21.26.42.33.39.13.88.07,1.32-.17.06-.03.14-.01.17.05.03.06.01.14-.05.17-.33.18-.67.27-1,.27Z"/>
        </g>
        <g id="Haare-12" data-name="Haare">
          <path class="cls-1" d="M559.52,17.94c.39,1.07,1.34,1.7,2.39,1.58.74.62,1.81.34,2.29-.49.42-.74.3-1.76-.34-2.32,1.05.83,2.45.82,3.48,0,1.22-.98,1.32-2.62,1.32-2.79.14-.08,1.7-.96,2.23-2.94.39.06.83.05,1.29-.05-.58,1.44-.11,3.1,1.13,4.01,1.26.93,3.04.86,4.24-.19-.12,1.65.78,2.56,1.53,2.83,1.45.53,2.62-.26,3.1-.26.11,0-.43,1.63.86,2.81.68.62,2.25,1.07,3.3.66.61-.26,1.84-.91,2.44-1.76,1.75-2.5-.94-6.73-2.47-8.81-1.03-1.4-2.25-2.26-3.13-2.76.13-1.46-.71-2.81-1.98-3.28-1.48-.55-3.26.19-3.97,1.77-.53-1.26-1.85-2-3.15-1.79-1.41.23-2.48,1.53-2.42,3.03-.43.08-.8.23-1.12.43-.29-.58-.61-.93-.66-.98-.05-.15-.56-1.69-1.89-1.99-1.31-.29-2.85.72-3.5,2.51-.23.02-2.42.23-3.79,2.43-1.52,2.46-.59,5.08-.54,5.22-.76.84-1.01,2.1-.64,3.14Z"/>
        </g>
      </g>
      <g id="Reagenzglas-6" data-name="Reagenzglas">
        <path class="cls-5" d="M574.29,66.01h0c2.07,0,3.75,1.68,3.75,3.75v32.78h-7.49v-32.78c0-2.07,1.68-3.75,3.75-3.75Z" transform="translate(1119.19 284.25) rotate(-168.2)"/>
        <rect class="cls-5" x="573.82" y="63.76" width="8.95" height="2.66" transform="translate(1131.04 247.12) rotate(-168.2)"/>
        <path class="cls-7" d="M570.58,101.53l.19.04c1.66.35,3.29-.72,3.64-2.38l6.22-29.76c-.45.05-1.14.08-1.94-.11-.9-.22-1.26-.56-2.23-.86-.46-.14-1.14-.3-2.03-.33-2.07,9.92-4.15,19.84-6.22,29.76-.35,1.66.72,3.29,2.38,3.64Z"/>
        <circle class="cls-30" cx="573.81" cy="91.25" r="1.06"/>
        <circle class="cls-30" cx="571.56" cy="95.61" r=".7"/>
        <circle class="cls-30" cx="572.74" cy="86.54" r=".7"/>
        <path class="cls-13" d="M564.91,76.26c-.09.76-.19,1.55-.32,2.37-.13.83-.27,1.62-.43,2.38.68.62,1.87,1.1,3.47,1.75,2.3.94,4.29.88,5.08.82.32-.02,5.07-.01,5.51-2.08.15-.7-.25-1.34-.34-1.46-.15-.23-.61-.81-3.43-1.32-.94-.17-1.88-.39-2.83-.5-1.52-.18-3.74-.65-6.71-1.96Z"/>
      </g>
    </g>
  </g>
  <g id="Pfeile">
    <path class="cls-22" d="M302.92,28.37l-19.47,22.4-2.32-13.81c-9.09,2.95-22.48,8.47-36.33,19.01-14.4,10.96-23.48,22.91-28.75,31.07l12.76,5.78-26.64,13.1-7.76-28.66,12.46,5.63c1.25-5.83,3.63-13.44,8.38-21.39,14.11-23.62,37.59-30.76,41.39-31.85,8.9-2.56,16.87-2.91,22.82-2.63l-2.26-13.48,25.72,14.83Z"/>
    <path class="cls-22" d="M752.98,77.26l-7.76,28.66-26.64-13.1,12.77-5.78c-5.27-8.16-14.36-20.11-28.75-31.07-13.85-10.54-27.25-16.06-36.33-19.01l-2.32,13.81-19.47-22.4,25.71-14.83-2.26,13.48c5.96-.28,13.93.07,22.82,2.63,3.81,1.09,27.28,8.23,41.4,31.85,4.75,7.95,7.13,15.56,8.38,21.39l12.45-5.63Z"/>
    <path class="cls-22" d="M537.26,356.33l-11.27,27.46-6.46-12.04c-4.54,3.87-11.06,8.46-19.66,11.88-25.58,10.16-48.55,1.55-52.24.1-8.62-3.38-15.15-7.95-19.7-11.8l-6.41,12.08-11.4-27.41,29.09-5.94-6.57,12.37c9.01,3.19,23,6.95,40.41,7.01,18.09.06,32.57-3.9,41.72-7.17l-6.62-12.35,29.11,5.81Z"/>
  </g>
</svg>