<?xml version="1.0" encoding="UTF-8"?>
<svg id="G-0063_BUW_Gruppe_Wissenschaft" xmlns="http://www.w3.org/2000/svg" viewBox="0 0 637.24 512.73">
  <defs>
    <style>
      .cls-1 {
        fill: #42210b;
      }

      .cls-1, .cls-2, .cls-3, .cls-4, .cls-5, .cls-6, .cls-7, .cls-8, .cls-9, .cls-10, .cls-11, .cls-12, .cls-13, .cls-14, .cls-15, .cls-16, .cls-17, .cls-18, .cls-19, .cls-20, .cls-21, .cls-22, .cls-23, .cls-24, .cls-25, .cls-26 {
        stroke-width: 0px;
      }

      .cls-2 {
        fill: #a5678d;
      }

      .cls-3 {
        fill: #308fc9;
      }

      .cls-4 {
        fill: #206289;
      }

      .cls-5 {
        fill: #dec1a8;
      }

      .cls-6 {
        fill: #08c;
      }

      .cls-7 {
        fill: #dddddc;
      }

      .cls-8 {
        fill: #64abd6;
      }

      .cls-9 {
        fill: #e6710a;
      }

      .cls-10 {
        fill: #873567;
      }

      .cls-11 {
        fill: #c39ab3;
      }

      .cls-12 {
        fill: #000;
      }

      .cls-13 {
        fill: #73bbe7;
      }

      .cls-14 {
        fill: #fcd9bd;
      }

      .cls-15 {
        fill: #dcbd92;
      }

      .cls-16 {
        fill: #b47d49;
      }

      .cls-17 {
        fill: #ec9447;
      }

      .cls-18 {
        fill: #b9ddf3;
      }

      .cls-19 {
        fill: #98c7e4;
      }

      .cls-20 {
        fill: #603813;
      }

      .cls-21 {
        fill: #ccc;
      }

      .cls-22 {
        fill: #cbe3f1;
      }

      .cls-23 {
        fill: #f9dbc2;
      }

      .cls-24 {
        fill: #fff;
      }

      .cls-25 {
        fill: #e1ccd9;
      }

      .cls-26 {
        fill: #f2b885;
      }
    </style>
  </defs>
  <g id="Person:_Links" data-name="Person: Links">
    <g id="Körper">
      <g id="Kittel_hinterteil" data-name="Kittel hinterteil">
        <path class="cls-21" d="M75.93,300.42c19.25,3.65,42.88,6.57,69.9,6.58,28.98.01,54.14-3.33,74.31-7.38-10.36-40.42-20.71-80.84-31.07-121.25l-89.43,1.07-23.71,120.98Z"/>
        <path class="cls-21" d="M151.64,96.96c-6.49.51-12.98,1.03-19.47,1.54-.47-2.43-.94-4.85-1.41-7.27,2.9-.75,6.45-1.43,10.54-1.72,4.46-.31,8.38-.07,11.53.33-.05.4-.1.8-.16,1.21-.29,2.05-.64,4.02-1.03,5.91Z"/>
      </g>
      <g id="Figur">
        <path class="cls-14" d="M223.16,484.26c.15.82-1.15,1.71-2.12,2.38-1.44.98-2.86,1.31-3.71,1.44l-12.44-.29c-1.23-.37-2.23-.84-2.92-1.38-.63-.49-1.15-1.11-1.09-1.78.14-1.45,3.16-2.04,3-3.2-.01-.13-.06-.22-.08-.26-.49-.98-10.84-31.06-18.9-69.71-7.07-33.89-10.15-63.67-11.59-84.89.04.17.08.33.12.5-.05-.33-.09-.66-.11-.99h-.04c.01.16.02.33.03.49-7.91-34.21-15.8-68.42-23.71-102.62-.22-.13-.42-.28-.59-.46h-5.86s-.01.01-.01.01c-4.89,34.77-9.78,69.58-14.67,104.36,1.05,25.27.6,54.26-2.84,86.09-1.25,11.48-2.5,18.37-4.5,32.99-.73,5.34-2.43,17.34-4.67,33.9-.01.05-.03.14-.04.27-.05,1.47,2.31,1.99,2.44,3.07.15,1.3-2.99,2.98-5.38,3.51-1.59.35-3.43.55-5.4.55s-3.64-.18-5.17-.5c-2.64-.55-5.79-2.33-5.62-3.56.15-1.05,2.67-1.31,3.01-3.17.03-.16.04-.29.04-.37-.73-21.06-1.22-42.53-1.46-64.39-.32-29.61-.16-58.5.43-86.65-.01-.09-.02-.18-.03-.27-.02-.24-.04-.48-.05-.72-.01-.25-.02-.5-.02-.75-1.33-10.61-2.05-19.41-2.5-25.58,0,0-5.24-74.49,12.45-104.45,0-.01.42-.72.76-1.46v-.02c.14-.15.26-.3.41-.42l-.11-.1,17.7-27.65c-3.96-13.54-7.93-27.07-11.88-40.6-10.17,15.47-20.34,30.96-30.54,46.44-.04.07-.09.16-.15.22-.15.25-.31.53-.49.77-1.97,2.68-5.37,4.1-8.84,3.39-1.16-.24-2.21-.69-3.13-1.32-.21-.14-.42-.28-.62-.44-.11-.08-.21-.17-.31-.26-.9-.75-1.62-1.67-2.13-2.66h-.02c-13.5-16.66-26.98-33.3-40.48-49.94-2.98-2.31-3.54-6.61-1.24-9.59,2.32-3.01,6.62-3.56,9.6-1.26,1.09.84,1.85,1.93,2.26,3.12,11.95,12.92,23.89,25.8,35.83,38.69,8.65-16.35,17.31-32.67,25.98-49.03.15-.24.29-.52.41-.78.04-.04.05-.09.08-.13,2.18-3.62,6.17-5.88,10.47-5.81,9.26-2.21,19.73-4.17,31.24-5.48,12.6-1.43,24.13-1.82,34.29-1.66-.05.4-.09.81-.14,1.21,1.1.37,2.17.92,3.17,1.64,1.31.95,2.38,2.12,3.19,3.42v.02s.03.03.06.08c11.99,18.92,24,37.86,36,56.82.05.06.11.14.14.22.17.25.35.5.5.76,1.63,2.91,1.52,6.58-.55,9.46-2.85,3.94-8.36,4.82-12.3,1.97-.65-.47-1.21-1-1.69-1.62,0,0-.13-.16-.2-.24-10.66-13.74-21.3-27.48-31.95-41.23-1.69,14.61-3.39,29.22-5.08,43.82,4.61,9.22,9.22,18.44,13.83,27.65.13.17.25.35.35.55.22.35.5.8.8,1.27,5.34,8.48,16.46,37.37,17.94,93.88.2,8.43.37,19.81.22,33.31,0,.07,0,.14-.01.21,0,.07,0,.13,0,.21,0,.02,0,.04,0,.06,3.45,27.7,6.56,56.26,9.22,85.66,2.91,32.16,5.39,67.38,5.32,69.57,0,.06,0,.17.02.33.41,2.09,5.78,1.8,6.07,3.38Z"/>
      </g>
      <g id="Schuhe">
        <path class="cls-1" d="M122.03,493.89v2.82h-55.68v-2.82s.45-2.64,14.57-6.74c6.51-1.87,11.53-4.24,16.64-5.66,2.22.9,5.86,2.05,10.48,2.12,4.99.05,8.91-1.2,11.18-2.12.7,1.52,1.47,3.47,2.02,5.76.6,2.57.8,4.86.8,6.64Z"/>
        <path class="cls-1" d="M197.97,493.89v2.82h55.68v-2.82s-.45-2.64-14.57-6.74c-6.51-1.87-11.53-4.24-16.64-5.66-2.22.9-5.86,2.05-10.48,2.12-4.99.05-8.91-1.2-11.18-2.12-.7,1.52-1.47,3.47-2.02,5.76-.6,2.57-.8,4.86-.8,6.64Z"/>
      </g>
      <g id="Hose">
        <path class="cls-10" d="M219.79,464.18c-3.05-.56-7.91-1.07-13.69,0-4.92.92-8.75,2.64-11.28,4.03-3.84-16.85-9.39-42.19-15.31-73.31-5.55-29.14-7.62-43.32-11.9-66.8-4.32-23.78-11.02-57.66-21.03-98.99l-2.28-61.28,2.28.02c7.71-.02,15.42-.04,23.14-.06,13.61,17.31,20.62,32.95,24.45,43.63,6.74,18.81,8.61,37.79,12.17,75.77,1.24,13.18,2.25,24.43,3.04,33.38.67,7.29,1.3,14.6,1.93,21.92,3.48,41.08,6.29,81.66,8.48,121.68Z"/>
        <path class="cls-2" d="M146.59,229.11c-3.33,31.33-6.65,62.67-9.96,94.04-5.09,48.37-10.13,96.72-15.13,145.07-3.56-.92-8.07-1.76-13.29-2.01-5.52-.28-10.32.18-14.1.8-1.91-62.12-3.15-108.45-3.38-124.5-.1-6.82-.15-13.23-.15-13.23-.05-7.87-.05-18.57.15-31.03.55-35.35.8-53.03,3.86-66.91,3.3-14.89,11.16-37.96,32.63-63.61l17.08.11,2.28,61.28Z"/>
      </g>
      <g id="Oberteil">
        <path class="cls-25" d="M144.32,167.92c-5.67,0-11.37-.02-17.07-.02-6.4-22.94-12.79-45.87-19.19-68.81,3.21-.88,6.69-1.72,10.42-2.44,3.9-.75,7.59-1.29,11.03-1.67.69,1.1,1.58,2.41,2.71,3.82,1.1,1.36,2.4,2.79,3.93,4.21,2.08,1.92,4.12,3.37,5.9,4.47.75,20.15,1.5,40.3,2.25,60.45Z"/>
        <path class="cls-11" d="M178.24,91.85l-8.82,76.12c-7.6-.02-15.2-.02-22.81-.05h-2.29l-2.25-60.45.13.12c1.73-1.71,3.57-3.73,5.41-6.1,2.44-3.15,4.31-6.19,5.74-8.86,3.25-.61,6.99-1.11,11.14-1.3,5.2-.25,9.84.04,13.75.52Z"/>
      </g>
      <g id="Kittel">
        <g id="Rechts">
          <path class="cls-21" d="M223.14,157.62c-6.58,2.11-13.16,4.23-19.74,6.34-6.07-8.07-12.25-16.19-18.53-24.35-6.86-8.91-13.7-17.69-20.53-26.34-3.06-8.52-3.52-16.27,1.43-20.18,4.93-3.89,12.31-2.05,13.84-1.63,8.98,2.47,14.42,10.03,27.6,34.83,4.34,8.16,9.81,18.75,15.91,31.32Z"/>
          <path class="cls-7" d="M220.14,299.62c-13.53,2.66-29.24,5-46.78,6.26l-21-213.15c6.48-1.79,11.77-2.07,14.32-2.18,3.15-.16,7.43-.12,12.49.61-1.22,8.82-1.99,20.48-.51,34.04,1.62,14.89,5.4,27.07,8.87,35.84,6,17.31,11.76,36.13,16.91,56.4,7.52,29.52,12.48,57.14,15.71,82.18Z"/>
          <path class="cls-21" d="M152.83,89.84c-.42,2.76-1.03,5.82-1.93,9.1-.81,2.96-1.73,5.64-2.67,8.03,3.03,12.17,6.06,24.34,9.09,36.5,2.34-10.97,4.67-21.95,7.01-32.92l-6.07-10.36,8.07-7.1-13.51-3.25Z"/>
          <path class="cls-21" d="M195.66,230.25l-16.09,1.84c-1.95.22-3.74-1.19-3.96-3.15l-2.59-22.59c7.2-.69,14.41-1.39,21.61-2.08,1.39,7.34,2.78,14.68,4.17,22.02.22,1.95-1.19,3.74-3.15,3.96Z"/>
        </g>
        <g id="Links">
          <path class="cls-21" d="M125.87,120.15c-2.43,4.31-4.99,8.7-7.67,13.15-5.48,9.1-3.28,5.78-12.58,19.89-4.41,6.69-9.98,14.89-16.68,24.18h-.01c-1.31,2.85-2.67,4.29-3.13,4.68l-.08.06c-4.36,3.41-10.65,2.64-14.07-1.72l-34.49-44.06c2.34-1.05,5.22-2.6,8.24-4.89,3.43-2.61,5.91-5.34,7.62-7.53,7.51,9.61,15.03,19.21,22.55,28.82,3.04-8.48,7.13-18.12,12.73-28.34,4.51-8.24,9.21-15.42,13.7-21.55,4.95-5.55,13.08-6.74,19.03-3.09,6.6,4.07,8.97,13.18,4.84,20.4Z"/>
          <path class="cls-7" d="M131.46,94.88l-11.81,211.07c-16.24-1.1-30.91-3.15-43.72-5.54,1.44-21.5,3.95-44.99,8.06-70.09,4.15-25.38,9.34-48.67,14.91-69.69,3.1-7.8,6.44-18.46,8.06-31.42,1.49-11.97,1.04-22.34.13-30.28,11.93-5.21,19.55-5.16,24.37-4.06Z"/>
          <path class="cls-21" d="M130.76,91.23c.5,2.62,1.14,5.44,1.98,8.42.89,3.15,1.87,6.03,2.87,8.64-2.3,11.72-4.6,23.44-6.9,35.16-3.05-10.45-6.1-20.89-9.14-31.34l5.91-10.45-8.18-6.98,13.46-3.45Z"/>
          <g id="Knöpfe">
            <circle class="cls-24" cx="123.21" cy="157.12" r="1.21"/>
            <circle class="cls-24" cx="121.93" cy="173.73" r="1.21"/>
            <circle class="cls-24" cx="121.13" cy="190.12" r="1.21"/>
            <circle class="cls-24" cx="120.23" cy="207.04" r="1.21"/>
            <circle class="cls-24" cx="119.52" cy="224.09" r="1.21"/>
            <circle class="cls-24" cx="118.44" cy="240.89" r="1.21"/>
            <circle class="cls-24" cx="117.5" cy="259.13" r="1.21"/>
            <circle class="cls-24" cx="116.39" cy="275.88" r="1.21"/>
          </g>
          <path class="cls-21" d="M94.33,231.74l16.14,1.37c1.96.17,3.7-1.3,3.87-3.26.28-7.55.57-15.11.85-22.66-7.18-.67-14.37-1.34-21.55-2.01-.85,7.57-1.71,15.13-2.56,22.7-.17,1.96,1.3,3.7,3.26,3.87Z"/>
        </g>
        <g id="Unterarm">
          <path class="cls-14" d="M221.9,163.44v.03c-3.57,20.54-7.13,41.09-10.71,61.64.04,0,.08,0,.12.02.66,1.62,1.48,4.18,1.62,7.39.06,1.46-.15,5.27-1.84,9.68-2.49,6.49-8.06,11.71-10.67,9.48-2.22-1.88,2.17-4.67,3.14-9.81.52-2.73-1.67-6.49-2.57-5.36-1.92,2.41-4.26,4.54-5.56,4.12-.39-.13-.66-.32-.85-.56-.62-.79-.28-2.03.07-3.07,1.35-4.06,2.7-6,2.7-6,1.15-1.77,2.79-4.34,4.79-7.77.03,0,.05,0,.08.02.07-9.84.3-19.97.72-30.38.43-11.02,1.06-21.72,1.83-32.08v-.1c.02-.41.05-.81.08-1.22,0-.07.02-.15.02-.23.58-3.82,3.68-6.95,7.72-7.4,4.84-.53,9.19,2.98,9.72,7.82.15,1.31-.01,2.61-.41,3.78Z"/>
          <path class="cls-21" d="M223.56,162.37c-1.84,18.57-3.67,37.15-5.51,55.72-3.16-.75-6.79-1.41-10.83-1.81-3.52-.35-6.76-.45-9.67-.4,2.05-18.94,4.09-37.88,6.14-56.82.91-5.46,6.07-9.15,11.53-8.24l.1.02c5.46.91,9.15,6.07,8.24,11.53Z"/>
        </g>
      </g>
    </g>
    <g id="Reagenzglas">
      <path class="cls-7" d="M63.91,174.37c-1.42-3.1-2.84-6.2-4.25-9.3-1.35-2.97-2.71-5.92-4.05-8.88,0,0,0,0,0-.02-2.54-5.5-5.04-11.01-7.56-16.51-1.16-2.54-2.33-5.07-3.48-7.61-1.2-2.61-2.4-5.23-3.59-7.85h-.02v-18.54h-17.98v18.51c-.44.96-.88,1.92-1.32,2.88h0c-.26.57-.51,1.12-.77,1.68-.84,1.84-1.68,3.67-2.52,5.5h0c-.26.56-.51,1.12-.76,1.67-.78,1.72-1.57,3.43-2.35,5.15-.6,1.31-1.2,2.62-1.8,3.93-.21.46-.42.92-.63,1.37-4.26,9.33-8.53,18.66-12.8,27.99h31.96v.02h31.95Z"/>
      <rect class="cls-7" x="20.46" y="98.9" width="22.99" height="6.76"/>
      <path class="cls-9" d="M31.96,173.37h0s-29.95-.01-29.95-.01c5.95-13.01,11.91-26.02,17.86-39.03,1.88.27,3.81.76,5.73,1.56,5.73,2.38,7.35,5.76,11.92,6.51,2.29.37,5.32.09,9.22-2.19,5.06,11.05,10.12,22.11,15.17,33.16h-29.95Z"/>
      <circle class="cls-9" cx="37.73" cy="133.39" r="1.96"/>
      <circle class="cls-9" cx="34.78" cy="126.52" r="1.29"/>
      <g>
        <circle class="cls-23" cx="24.15" cy="151.88" r="1.96"/>
        <circle class="cls-23" cx="28.28" cy="159.89" r="1.29"/>
        <circle class="cls-23" cx="26.11" cy="143.2" r="1.29"/>
      </g>
      <path class="cls-14" d="M21.68,107.51h3.75c3.43,0,6.21,2.78,6.21,6.21v3.34c0,3.43-2.78,6.21-6.21,6.21h-3.75v-15.76h0Z"/>
    </g>
    <g id="Gesicht">
      <g id="Haare">
        <path class="cls-1" d="M108.83,47.62c.94-5.54,2.7-14.75,10.79-22.35,7.08-6.66,15.36-8.32,17.61-8.71,3.49-.61,11.05-1.38,19.39,2.13,10.28,4.33,15.08,12.45,16.82,15.48,11.66,20.4,2.45,49.67-8.22,52.16-.91.21-2.23.35-4.83.15-4.79-.37-7.61-2.3-16.12-2.47-12.85-.26-17.05,5.39-24.71,2.45-10.98-4.22-13-25.49-10.74-38.84Z"/>
      </g>
      <g id="Gesicht-2" data-name="Gesicht">
        <g id="Kopf">
          <path class="cls-14" d="M171.37,53v1.87c0,2.74-2.24,4.98-4.97,4.98-.92,0-1.79-.25-2.53-.7-1.49,7.3-6.51,13.34-13.18,16.25,0,.08,0,.17,0,.25v18.7c0,4.83-3.95,8.78-8.78,8.78s-8.78-3.95-8.78-8.78v-18.78c-6.78-2.8-11.93-8.82-13.52-16.14-.61.27-1.29.42-1.99.42-2.74,0-4.98-2.24-4.98-4.98v-1.87c0-2.74,2.24-4.98,4.98-4.98.51,0,1.01.08,1.48.22v-4.57c0-12.43,10.17-22.61,22.6-22.61,6.22,0,11.87,2.54,15.97,6.64s6.64,9.76,6.64,15.97v4.81c.63-.3,1.34-.46,2.08-.46,1.37,0,2.61.56,3.51,1.46.9.9,1.46,2.15,1.46,3.52Z"/>
        </g>
        <g id="Schatten">
          <path class="cls-5" d="M167.12,51.66c.35,0,.85,1.42.47,2.71-.27.92-1.02,1.85-1.32,1.73-.58-.23.25-4.45.86-4.44Z"/>
          <path class="cls-5" d="M150.59,75.43c-1.35.6-3.19,1.25-5.46,1.61-2.63.42-4.88.29-6.48.07,4,2.98,8,5.95,12,8.93,0-.98,0-1.84,0-2.54,0-.57,0-.62,0-3.17,0-1.78,0-1.96,0-2.35-.01-1.08-.04-1.96-.06-2.55Z"/>
          <path class="cls-5" d="M116.59,51.66c-.35,0-.85,1.42-.47,2.71.27.92,1.02,1.85,1.32,1.73.58-.23-.25-4.45-.86-4.44Z"/>
        </g>
        <g id="Augenbrauen">
          <path class="cls-1" d="M154.57,43.37c-.61-.33-1.74-.83-3.25-.9-1.89-.09-3.31.56-3.94.9-1.08-.55-1.32-.99-1.31-1.31.02-1.12,3.03-2.34,5.74-2.07,1.83.18,4.08,1.08,4.08,2.07,0,.51-.61.96-1.31,1.31Z"/>
          <path class="cls-1" d="M136.09,43.32c-.61-.33-1.74-.83-3.25-.9-1.89-.09-3.31.56-3.94.9-1.08-.55-1.32-.99-1.31-1.31.02-1.12,3.03-2.34,5.74-2.07,1.83.18,4.08,1.08,4.08,2.07,0,.51-.61.96-1.31,1.31Z"/>
        </g>
        <g id="Augen">
          <rect class="cls-12" x="130.88" y="44.84" width="3.61" height="4.24" rx="1.81" ry="1.81"/>
          <rect class="cls-12" x="148.96" y="44.79" width="3.61" height="4.24" rx="1.81" ry="1.81"/>
          <g id="Mund">
            <path class="cls-24" d="M134.92,63.75c.12.43,1.1,3.66,4.23,4.9,2.97,1.18,6.62.08,8.84-2.81-1.75.35-4.7.69-8.16-.15-2.06-.5-3.7-1.26-4.9-1.95Z"/>
          </g>
        </g>
        <g id="Nase">
          <path class="cls-12" d="M142.78,60.35c-.6,0-1.23-.17-1.82-.5-.06-.03-.08-.11-.05-.17.03-.06.11-.08.17-.05.86.48,1.79.59,2.55.33.42-.14.73-.39.85-.68.3-.72.04-1.44-.79-2.2l-.11-.1c-.4-.37-1.07-.98-1.39-1.97-.11-.34-.15-.85-.18-1.19v-.15c-.01-.41-.02-.74-.03-1.07,0-.33-.01-.66-.01-1.06,0-.07.06-.12.12-.12s.12.06.12.12c0,.4,0,.73.01,1.06,0,.33.01.66.01,1.06v.14c.04.33.08.82.18,1.13.29.92.91,1.49,1.32,1.86l.11.1c.92.84,1.2,1.65.85,2.48-.15.36-.51.66-1,.82-.29.1-.61.15-.93.15Z"/>
        </g>
      </g>
      <g id="Brille">
        <rect class="cls-24" x="140.21" y="47.09" width="3.16" height="1" transform="translate(-.21 .62) rotate(-.25)"/>
        <path class="cls-24" d="M137.38,53.63h-16.24c-1.61,0-2.92-1.31-2.92-2.92v-4.49c0-1.61,1.31-2.92,2.92-2.92h16.24c1.61,0,2.92,1.31,2.92,2.92v4.49c0,1.61-1.31,2.92-2.92,2.92ZM121.14,44.29c-1.06,0-1.92.86-1.92,1.92v4.49c0,1.06.86,1.92,1.92,1.92h16.24c1.06,0,1.92-.86,1.92-1.92v-4.49c0-1.06-.86-1.92-1.92-1.92h-16.24Z"/>
        <path class="cls-24" d="M162.35,53.63h-16.24c-1.61,0-2.92-1.31-2.92-2.92v-4.49c0-1.61,1.31-2.92,2.92-2.92h16.24c1.61,0,2.92,1.31,2.92,2.92v4.49c0,1.61-1.31,2.92-2.92,2.92ZM146.12,44.29c-1.06,0-1.92.86-1.92,1.92v4.49c0,1.06.86,1.92,1.92,1.92h16.24c1.06,0,1.92-.86,1.92-1.92v-4.49c0-1.06-.86-1.92-1.92-1.92h-16.24Z"/>
      </g>
      <g id="Haare-2" data-name="Haare">
        <path class="cls-1" d="M168.04,46.84c-.74-.07-1.48-.13-2.22-.19-2.01-.91-4.9-2.53-7.66-5.37-4.55-4.69-6.05-9.96-6.58-12.42-5.92,8.93-11.1,11.4-14.9,11.88-4.27.54-8.32-.91-11.88,2.02-2.02,1.66-2.39,3.52-5.14,5.08-2.23,1.27-4.51,1.48-6.07,1.46.2-2.84.8-7.06,2.75-11.78.74-1.79,1.99-4.77,4.43-7.85,6.69-8.46,16.45-10.26,17.72-10.48,6.7-1.13,12.14.42,14.84,1.41-.04.2-.09.41-.13.61,2.4.62,8.14,2.62,12.08,8.46,5.2,7.7,3.09,15.95,2.76,17.17Z"/>
      </g>
    </g>
  </g>
  <g>
    <g id="Körper-2" data-name="Körper">
      <g id="Kittel_hinterteil-2" data-name="Kittel hinterteil">
        <path class="cls-21" d="M525.69,100.35c-7.6.6-15.19,1.21-22.79,1.81-.55-2.84-1.1-5.68-1.65-8.52,3.39-.88,7.55-1.68,12.34-2.02,5.22-.37,9.8-.08,13.5.39-.06.47-.12.94-.19,1.42-.33,2.39-.74,4.7-1.21,6.91Z"/>
        <path class="cls-21" d="M437.06,338.52c22.53,4.27,50.2,7.69,81.83,7.7,33.92.01,63.38-3.89,86.99-8.64-12.12-47.31-24.25-94.63-36.37-141.94l-104.68,1.26-27.76,141.62Z"/>
      </g>
      <g id="Figur-2" data-name="Figur">
        <path class="cls-15" d="M618.2,157.09c-2.09,5.36-10.89,5.52-12.05,5.56-14.67-7.14-21.33-10.7-32.88-18.05-4.97-3.17-10.46-6.08-18.26-11,.23,12.36,1,25.51,2.52,39.34,1.98,18.1,4.94,34.67,8.32,49.51v1.63c.82,2.57,1.96,6.24,3.23,10.68,6.84,23.76,10.3,44.14,12.16,58.33,1.99,15.12,3.48,33.23,3.39,53.72,5.65,36.32,9.75,64.65,11.88,80.34,2.36,17.43,2.04,20.06,2.19,23.11.42,8.55.36,16.07.14,22.17-.16,4.21,2.15,8.07,5.82,10.13,2.49,1.39,4.71,3.18,4.64,5.15-.12,3.99-9.6,7.34-17.37,6.78-3.13-.22-10.22-.74-12.66-6.06-1.33-2.9-.71-5.98.08-8.12.72-1.91.79-4.01.12-5.95-6.72-19.57-13.01-46.48-13.01-46.48-6.67-12.74-12.89-34.64-10.42-74.83-5.35-9.14-10.76-19.49-15.76-31.07-10.54-24.52-16.21-47.33-19.26-66.15-.99.04-1.98.08-2.97.12h0c-1.57,18.44-5.31,40.55-13.28,64.57-3.98,11.97-8.48,22.74-13.03,32.31,5.39,39.73,1.34,61.79-3.98,74.8,0,0-3.53,25.84-8.96,47.56-.36,1.45-.23,2.96.34,4.34.49,1.18.84,2.68.5,4.29-1.13,5.37-8.95,6.78-9.8,6.93-8.53,1.54-17.27-4.36-16.92-7.32.12-.94,1.08-1.19,3.05-4.05.36-.51.67-1.01.94-1.46.64-1.06.95-2.26.91-3.49-.36-14.4-.41-29.37-.06-44.87.06-2.79.18-9.29.77-22.31.67-14.72,1.87-34.46,4.19-58.19-1.37-16.03-2.01-34.09-1.23-53.82.94-24.1,3.8-45.68,7.32-64.2v-1.28c2.65-15.55,4.85-32.49,6.22-50.67,1.08-14.21,1.54-27.81,1.55-40.69-3.56,2.28-7.97,5.02-13.56,8.52-.46.28-.68.42-.91.56-9.15,5.68-20.91,12.13-35.8,18.64-5.32-5.02-10.64-10.04-15.96-15.06.27-.25.47-.44.57-.54l30.93-24.29c10.59-7.55,16.24-11.62,20.19-14.21,3.96-2.58,6.22-3.69,10.07-5.32.94-.4,2.15-.8,3.52-1.14,0-.17-.02-.33-.03-.5,11.19-2.4,24.54-4.45,39.65-5.22,15.27-.78,28.89-.07,40.36,1.2,0,.08-.01.15-.01.23,1.5.35,2.87.97,4.09,1.81.01-.02.03-.02.03-.04,18.32,11.26,35.71,25.09,52.46,40.71.41.11.82.24,1.21.42,4.67,2.02,6.81,7.81,4.82,12.92Z"/>
      </g>
      <g id="Schuhe-2" data-name="Schuhe">
        <path class="cls-20" d="M621.05,485.76c-7.24-2.07-12.81-4.71-18.49-6.28-.33.13-.7.27-1.11.42-2.49.89-6.12,1.86-10.53,1.92-4.87.04-8.82-1.01-11.42-1.96-.35-.14-.7-.27-1-.39-.78,1.68-1.63,3.85-2.26,6.4-.66,2.85-.88,5.41-.88,7.38v3.13h61.88v-3.13s-.51-2.94-16.19-7.49Z"/>
        <path class="cls-20" d="M482.93,485.88c-.6-2.55-1.46-4.72-2.24-6.4-.42.16-.87.33-1.38.52-2.6.91-6.41,1.87-11.04,1.83-5.13-.08-9.17-1.36-11.65-2.34-.31.09-.6.17-.92.27h-.02c-5.37,1.59-10.7,4.04-17.54,6.01-15.69,4.56-16.19,7.49-16.19,7.49v3.13h61.87v-3.13c0-1.97-.22-4.53-.89-7.38Z"/>
      </g>
      <g id="Hose-2" data-name="Hose">
        <path class="cls-8" d="M518.68,259.54c-3.94,25.4-7.79,50.81-11.58,76.24-6.86,46.12-13.45,92.28-19.78,138.47-4.88-1.11-10.77-2.08-17.49-2.42-6.14-.3-11.63-.03-16.28.48-4.77-40.05-7.27-89.11-2.89-144.74,3.49-44.55,10.68-83.95,18.82-117.24,12.5,2.47,27.64,4.49,44.87,4.82,1.35.03,2.68.04,3.99.04l.35,44.34Z"/>
        <path class="cls-3" d="M607.47,469.91c-5.22-.33-11.14-.4-17.62,0-6.92.44-13.16,1.34-18.58,2.4-10.53-44.29-21.31-88.53-32.32-132.69-6.67-26.72-13.43-53.41-20.27-80.09l-.35-44.34c17.41.04,32.68-1.69,45.23-3.91,10.74,30.14,21.04,65.02,28.95,104.22,11.83,58.53,15.21,111.08,14.96,154.41Z"/>
      </g>
      <g id="Oberteil-2" data-name="Oberteil">
        <path class="cls-22" d="M518.26,246.06c-.78,0-1.58-.01-2.36-.02-22.17-.29-40.99-3.62-55.36-7.25,1.4-12.21,3.55-28.4,6.87-47.4,3.46-19.8,5.48-27.1,6.88-40.53,1.5-14.43,1.71-30.41-.25-47.88,1.96-1,4.96-2.24,8.8-2.83,3.81-.59,7.02-.31,9.19.04,1.07,1.23,8.46,9.45,20.62,9.41.48,0,.95-.01,1.41-.04l4.2,136.49Z"/>
        <path class="cls-19" d="M575.98,239.16c-14.74,3.61-34.43,6.95-57.72,6.9l-4.2-136.49c12.05-.67,19.07-9.34,19.94-10.46,2.92-.51,7.05-.91,11.94-.36,4.72.53,8.54,1.78,11.22,2.89-.73,9.63-1.13,24.35,1.45,41.98,2.58,17.53,6.35,26.01,10.5,44.51,2.64,11.82,5.76,29.15,6.88,51.03Z"/>
      </g>
      <g id="Kittel-2" data-name="Kittel">
        <g id="Rechts-2" data-name="Rechts">
          <path class="cls-21" d="M596.19,159.99c8.17-4.98,16.34-9.95,24.51-14.93-8.57-10.79-16.63-18.92-22.85-24.65-1.93-1.78-8.85-8.1-18.9-14.68-6.55-4.29-10.03-5.82-13.69-6.78-4.47-1.17-11.07-2.9-16.61.18-5.96,3.31-9.69,11.64-8.68,18.78.85,5.97,5.15,10.95,38.54,31.58,7.4,4.57,13.57,8.16,17.67,10.51Z"/>
          <path class="cls-7" d="M605.88,337.59c-15.84,3.12-34.23,5.86-54.76,7.33l-24.59-249.51c4.23-.86,10-1.58,16.81-1.1,5.67.4,10.45,1.52,14.13,2.66-1.03,8.67-1.84,21.35-.16,36.44,1.97,17.74,6.32,30.24,10.38,41.96,7.02,20.26,13.77,42.3,19.8,66.02,8.81,34.56,14.61,66.89,18.39,96.2Z"/>
          <path class="cls-21" d="M527.09,92.02c-.49,3.23-1.21,6.81-2.26,10.65-.95,3.46-2.03,6.61-3.12,9.4,3.55,14.24,7.1,28.49,10.64,42.73,2.73-12.85,5.47-25.69,8.2-38.54l-7.1-12.13,9.45-8.31-15.81-3.81Z"/>
          <path class="cls-21" d="M577.22,256.39l-18.84,2.16c-2.29.26-4.37-1.4-4.64-3.68l-3.03-26.45c8.43-.81,16.87-1.63,25.3-2.44,1.63,8.59,3.25,17.18,4.88,25.78.26,2.29-1.4,4.37-3.68,4.64Z"/>
        </g>
        <g id="Links-2" data-name="Links">
          <path class="cls-21" d="M440.87,159.56c-9.57-4.13-19.14-8.26-28.7-12.4,12.19-10.37,23.03-18.89,31.76-25.49,19-14.35,26.48-18.46,36.23-18.95,1.63-.08,17.61-.72,21.31,7.43,3.58,7.89-6.61,19.02-9.62,22.31-2.98,3.26-7.42,7.21-23.93,15.32-6.61,3.25-15.76,7.46-27.05,11.78Z"/>
          <path class="cls-7" d="M502.06,97.91l-13.83,247.09c-19.02-1.29-36.19-3.69-51.18-6.48,1.69-25.17,4.62-52.67,9.43-82.05,4.86-29.71,10.93-56.98,17.46-81.58,3.63-9.13,7.54-21.61,9.43-36.78,1.74-14.01,1.22-26.15.16-35.45,13.97-6.1,22.89-6.04,28.53-4.75Z"/>
          <path class="cls-21" d="M501.25,93.64c.58,3.06,1.34,6.37,2.32,9.85,1.04,3.69,2.19,7.06,3.36,10.12-2.69,13.72-5.39,27.44-8.08,41.16-3.57-12.23-7.14-24.46-10.7-36.69l6.92-12.23-9.57-8.17,15.75-4.04Z"/>
          <g id="Knöpfe-2" data-name="Knöpfe">
            <circle class="cls-24" cx="489.98" cy="209.41" r="1.41"/>
            <circle class="cls-24" cx="488.92" cy="229.22" r="1.41"/>
            <circle class="cls-24" cx="488.09" cy="249.17" r="1.41"/>
            <circle class="cls-24" cx="486.83" cy="268.84" r="1.41"/>
            <circle class="cls-24" cx="485.72" cy="290.19" r="1.41"/>
            <circle class="cls-24" cx="484.43" cy="309.8" r="1.41"/>
          </g>
          <path class="cls-21" d="M458.6,258.13l18.89,1.6c2.3.19,4.33-1.52,4.53-3.82.33-8.84.66-17.68.99-26.53-8.41-.79-16.82-1.57-25.23-2.36-1,8.86-2,17.71-3,26.57-.2,2.3,1.52,4.33,3.82,4.53Z"/>
        </g>
        <g id="Unterarme">
          <path class="cls-15" d="M426.39,149.49c15.22,13.16,29.35,27.55,44.53,40.74,2.12,1.84,5.85,4.99,5.26,8.32-.6,3.33-5.35,6.06-8.34,5.42-.87-.19-2.28-.95-3.53-1.91-.51-.39-.91-.76-1.18-1.03-16.62-11.44-33.24-22.91-49.86-34.35-.94-.71-4.36-3.47-4.89-8.04-.07-.58-.2-1.84.17-3.35,1.24-4.99,7.19-9.21,12.76-8.28,2.65.44,4.46,1.95,5.07,2.49Z"/>
          <path class="cls-15" d="M606.08,147.95c-15.83,12.52-31.65,25.05-47.48,37.57-3.65.73-6.15,4.14-5.63,7.88.53,3.86,4.09,6.54,7.94,5.99.88-.13,2.34-.79,3.65-1.66.54-.36.96-.7,1.25-.94,17.39-10.25,34.76-20.52,52.15-30.77.99-.64,4.6-3.15,5.44-7.68.11-.58.33-1.83.06-3.35-.89-5.06-6.52-9.7-12.14-9.16-1.02.1-3.02.46-5.23,2.12Z"/>
          <path class="cls-21" d="M608.39,145.29c-15.54,10.82-31.08,21.65-46.61,32.47,2.57,2.8,5.35,6.11,8.14,9.94,2.43,3.34,4.47,6.54,6.18,9.47,15.74-11.21,31.48-22.42,47.22-33.63,4.34-3.55,4.54-10.49.44-15.51l-.07-.09c-4.1-5.02-10.94-6.2-15.29-2.65Z"/>
          <path class="cls-21" d="M425.51,146.04l42.68,34.74c-2.31,1.87-5.12,4.46-7.96,7.86-3.23,3.88-5.44,7.56-6.92,10.42-22.1-17.25-38.06-30.38-42.68-34.74-.96-.9-2.98-2.89-3.27-6.2-.31-3.57,1.56-6.98,3.03-9.12l.07-.09c4.09-5.02,10.83-6.31,15.04-2.88Z"/>
        </g>
      </g>
    </g>
    <g id="Buch">
      <path class="cls-11" d="M511.54,154.76v1.44h-38.35l2.1-1.44c1.95.03,4.94-.03,8.56-.49,8.14-1.04,10.98-3.09,16.37-2.95,2.7.07,6.6.7,11.33,3.44Z"/>
      <path class="cls-2" d="M511.54,155.74v57.57c-11.85-1.99-23.71-3.99-35.56-5.98-.93-17.2-1.86-34.39-2.79-51.59h38.35Z"/>
      <path class="cls-10" d="M523.1,154.18v59.13c-1.18.46-3,1.01-5.26,1.08-2.79.09-5.01-.58-6.3-1.08v-59.13c1.38-.39,3.28-.79,5.55-.81,2.49-.03,4.55.39,6,.81Z"/>
      <path class="cls-11" d="M523.1,154.76v1.44h38.35l-2.1-1.44c-1.95.03-4.94-.03-8.56-.49-8.14-1.04-10.98-3.09-16.37-2.95-2.7.07-6.6.7-11.33,3.44Z"/>
      <path class="cls-2" d="M523.1,155.74v57.57c11.85-1.99,23.71-3.99,35.56-5.98.93-17.2,1.86-34.39,2.79-51.59h-38.35Z"/>
      <path class="cls-25" d="M531.66,174.7c6.97-.39,13.95-.78,20.92-1.17.19-3.63.38-7.26.57-10.89h-21.49v12.05Z"/>
      <path class="cls-15" d="M475,189.09c-1.19-.56-2.58-1.11-4.14-1.59-2.49-.76-4.75-1.12-6.62-1.27-.83,1.61-1.72,3.27-2.68,4.97-.97,1.72-1.95,3.36-2.92,4.92,1,1.95,3.22,3.99,6.22,6.76,4.32,3.99,8.78,5.51,10.58,6.04.73.21,11.23,4.19,13.92-.03.82-1.29.58-2.89.46-3.52-.54-3.01-3.27-4.68-5.58-6.09-2.76-1.68-5.64-2.41-7.27-2.81-.66-.17-1.21-.28-1.6-.36-.13-2.34-.26-4.68-.39-7.01Z"/>
      <path class="cls-15" d="M551.41,185.62c2.53,0,6.2-.05,10.97-.29,1.37,3.49,2.75,6.98,4.12,10.47-1.19,1.73-3.22,4.25-6.37,6.5-1.43,1.02-5.4,3.32-10.95,4.52-8.17,1.76-17.1-.39-16.58-4.49.44-3.47,6.14-.89,11.95-3.3,3.09-1.28,5.43-5.96,3.7-6.12-3.69-.34-7.38-1.29-7.81-2.89-.13-.47-.11-.87,0-1.21.39-1.15,1.86-1.62,3.13-1.96,4.98-1.31,7.83-1.24,7.83-1.24Z"/>
    </g>
    <g id="Gesicht-3" data-name="Gesicht">
      <g id="Gesicht-4" data-name="Gesicht">
        <g id="Kopf-2" data-name="Kopf">
          <path class="cls-15" d="M546.62,54.01v2.05c0,3.01-2.46,5.48-5.47,5.48-1.01,0-1.96-.28-2.78-.77-1.62,8.02-7.15,14.67-14.49,17.87,0,.09,0,.19,0,.28v20.56c0,5.3-4.34,9.65-9.65,9.65s-9.66-4.35-9.66-9.65v-20.65c-7.46-3.09-13.13-9.71-14.86-17.75-.67.29-1.41.46-2.19.46-3.01,0-5.48-2.47-5.48-5.48v-2.05c0-3.01,2.47-5.47,5.48-5.47.56,0,1.11.09,1.62.25v-5.04c0-13.67,11.19-24.85,24.86-24.85,6.84,0,13.05,2.8,17.56,7.3,4.5,4.5,7.3,10.72,7.3,17.55v5.3c.7-.33,1.47-.51,2.28-.51,1.5,0,2.87.62,3.86,1.61,1,.99,1.61,2.35,1.61,3.86Z"/>
        </g>
        <g id="Mund-2" data-name="Mund">
          <ellipse class="cls-24" cx="514.51" cy="68.44" rx="6.18" ry="2.08"/>
        </g>
        <g id="Schatten-2" data-name="Schatten">
          <path class="cls-16" d="M541.94,52.53c.39,0,.93,1.56.51,2.98-.3,1.02-1.12,2.04-1.45,1.9-.63-.26.27-4.89.94-4.88Z"/>
          <path class="cls-16" d="M523.77,78.67c-1.48.66-3.51,1.38-6,1.77-2.9.46-5.37.31-7.12.07,4.4,3.27,8.79,6.55,13.19,9.82,0-1.08,0-2.02,0-2.79,0-.62,0-.68,0-3.49,0-1.96,0-2.16,0-2.59-.01-1.19-.04-2.16-.07-2.8Z"/>
          <path class="cls-16" d="M486.39,52.53c-.39,0-.93,1.56-.51,2.98.3,1.02,1.12,2.04,1.45,1.9.63-.26-.27-4.89-.94-4.88Z"/>
        </g>
        <g id="Nase-2" data-name="Nase">
          <path class="cls-12" d="M514.35,61.38c-.65,0-1.35-.19-2-.55-.06-.03-.08-.11-.05-.17.03-.06.11-.08.17-.05.94.52,1.97.66,2.82.36.46-.16.81-.44.94-.76.33-.8.05-1.59-.87-2.44l-.12-.11c-.47-.43-1.17-1.08-1.52-2.16-.12-.37-.16-.93-.19-1.3v-.16c-.01-.45-.02-.81-.03-1.17,0-.36-.01-.73-.01-1.17,0-.07.06-.12.12-.12s.12.06.12.12c0,.44,0,.8.01,1.16,0,.36.01.73.01,1.17v.15c.04.36.08.9.19,1.24.32,1.02,1,1.64,1.45,2.05l.12.11c1.01.92,1.32,1.81.93,2.72-.16.39-.56.72-1.09.9-.32.11-.67.17-1.02.17Z"/>
        </g>
        <g id="Augen-2" data-name="Augen">
          <rect class="cls-12" x="521.52" y="44.02" width="3.97" height="4.66" rx="1.99" ry="1.99"/>
          <rect class="cls-12" x="502.09" y="44.02" width="3.97" height="4.66" rx="1.99" ry="1.99"/>
        </g>
        <g id="Augenbrauen-2" data-name="Augenbrauen">
          <rect class="cls-20" x="518.74" y="36.89" width="9.52" height="2.66" rx=".81" ry=".81" transform="translate(-1.2 24.14) rotate(-2.64)"/>
          <rect class="cls-20" x="499.32" y="36.89" width="9.52" height="2.66" rx=".81" ry=".81" transform="translate(2.29 -23.17) rotate(2.64)"/>
        </g>
        <g id="Bart">
          <path class="cls-20" d="M514.43,66.24c-.8.67-5.45,4.4-11.19,3.23-1.74-.35-3.13-1.07-4.14-1.74,1.21-.16,2.91-.49,4.81-1.24,4.2-1.66,6.1-4.08,8.45-3.4.58.17,1.33.57,2.07,1.57v1.57Z"/>
          <path class="cls-20" d="M514.23,66.24c.8.67,5.45,4.4,11.19,3.23,1.74-.35,3.13-1.07,4.14-1.74-1.21-.16-2.91-.49-4.81-1.24-4.2-1.66-6.1-4.08-8.45-3.4-.58.17-1.33.57-2.07,1.57v1.57Z"/>
        </g>
      </g>
      <g id="Haare-3" data-name="Haare">
        <path class="cls-20" d="M493.4,35.77c-2.27,7.16-.89,12.99-.89,14.17,0,.18-3.04-.71-3.45-1.22-2.82-3.47-2.59-10.41-2.23-12.03,1.48-6.64,3.84-10.93,7.46-12.88,1.08-.58,2.54.81,3.1,1.92,1.27,2.51-2.34,4.87-3.99,10.04Z"/>
        <path class="cls-20" d="M534.56,35.38c1.04,9.37,2,13.16,2.62,14.47l1.73-.78c1.42-2.53,1.2-10.31.76-12.53-1.53-7.66-5.17-13.49-6-13.12-.17.07-.05,1.78.3,5.17.43,4.17.38,4.9.59,6.79Z"/>
        <path class="cls-20" d="M536.84,21.28c1.16,3.48.24,7.58-1.44,9.76-7.82,10.17-42.39,2.05-45.32-9.74-.09-.36-1.04-4.16.89-6.05,1.76-1.73,4.5-.47,8.86-.44,6.45.04,6.68-2.69,13.73-3.54,1.87-.23,8.75-.92,15.65,2.66,2.43,1.26,6.27,3.25,7.64,7.37Z"/>
      </g>
    </g>
  </g>
  <g id="Person:_Mitte" data-name="Person: Mitte">
    <g id="Körper-3" data-name="Körper">
      <g>
        <g id="Kittel_hinterteil-3" data-name="Kittel hinterteil">
          <g id="Kittel_hinterteil-4" data-name="Kittel hinterteil">
            <path class="cls-21" d="M244.01,306.86c20.19,3.82,44.97,6.89,73.31,6.9,30.39.01,56.78-3.49,77.93-7.74-10.86-42.39-21.73-84.78-32.59-127.17l-93.79,1.13-24.87,126.88Z"/>
          </g>
          <path class="cls-21" d="M323.42,93.48c-6.81.54-13.61,1.08-20.42,1.62-.49-2.54-.99-5.09-1.48-7.63,3.04-.79,6.77-1.5,11.06-1.81,4.68-.33,8.78-.08,12.1.35-.05.42-.11.84-.17,1.27-.3,2.15-.67,4.21-1.08,6.2Z"/>
        </g>
        <g id="Figur-3" data-name="Figur">
          <g id="Körper-4" data-name="Körper">
            <path class="cls-16" d="M397.68,500.06c.2,1.25-3,3.06-5.37,3.62-1.73.41-3.76.64-5.94.64-2.69,0-5.17-.36-7.11-.95-1.59-.48-4.39-2.06-4.21-3.31.18-1.24,3.18-1.49,3.28-2.99.03-.49-.26-.87-.32-.96-1.16-1.72-11.82-34.99-19.71-72.79-7.38-35.36-10.62-66.48-12.15-89.02.04.17.08.35.12.52-.06-.34-.1-.69-.12-1.04h-.04c0,.17.02.33.03.5-8.3-35.87-16.57-71.75-24.86-107.62-.23-.13-.44-.29-.62-.48h-6.15s0,.01,0,.01c-5.13,36.48-10.26,72.98-15.39,109.45,1.1,26.51.63,56.91-2.98,90.3-1.3,12.04-2.61,19.27-4.71,34.6-2.08,15.2-3.79,27.58-4.9,35.55,0,0,0,.1-.02.24-.03.3-.07.52-.08.53-.08.47,2.46,1.71,2.62,2.73.19,1.22-2.91,3.07-5.64,3.68-1.67.37-3.61.58-5.67.58s-3.81-.19-5.42-.52c-2.93-.6-6.1-2.55-5.89-3.74.18-1.04,3.11-2.45,3.13-2.94,0-.01,0-.16.02-.36.01-.18.03-.32.04-.41-.76-22.08-1.28-44.6-1.53-67.53-.33-31.05-.16-61.36.45-90.88,0-.03,0-.06,0-.09-.03-.25-.06-.5-.06-.75-.01-.03-.01-.05-.01-.08-.02-.3-.03-.6-.03-.91-1.38-11.12-2.14-20.35-2.61-26.82,0,0-5.5-78.13,13.05-109.55,0,0,.45-.75.8-1.53v-.02c.14-.15.28-.31.43-.44l-.12-.1,18.57-29c-6.96-23.79-13.93-47.57-20.89-71.35,10.62-2.86,23.3-5.49,37.71-6.96,13.33-1.37,25.38-1.47,35.73-.97-3.01,26.43-6.03,52.85-9.05,79.28,4.83,9.65,9.66,19.3,14.48,28.96,0,.01.02.02.03.03.13.19.26.37.36.58.24.37.53.84.84,1.33,5.6,8.9,17.27,39.2,18.81,98.46.21,8.85.4,20.78.24,34.94,0,.07,0,.15,0,.22,0,.07,0,.14-.02.22,0,.04,0,.09.02.13v.02c3.63,29.02,6.87,58.95,9.67,89.75,2.03,22.33,5.94,69.08,5.55,72.53-.02.15-.08.55.06,1.04.73,2.5,5.37,2.23,5.6,3.67Z"/>
          </g>
          <g id="Arme_Hände" data-name="Arme + Hände">
            <path class="cls-16" d="M293.64,110.64c-.09,1.66-.5,3.22-1.17,4.65h-.03s0,.05-.03.1c-9.65,20.81-19.29,41.66-28.96,62.5,0,.03-.02.06-.04.09-.55,1.56-1.55,2.98-2.97,4.07-3.95,3.05-9.63,2.29-12.68-1.66-.83-1.07-1.38-2.29-1.66-3.53v-.02c-7.91-20.09-15.81-40.18-23.72-60.27-2.56-1.04-4.16-3.57-3.93-6.16.27-3.15,3.14-5.54,5.97-5.45,3.12.1,4.85,3.14,5.1,3.59.8,1.47.89,2.89.88,3.66,5.54,9.2,11.09,18.78,16.63,28.75,2.13,3.84,4.21,7.65,6.25,11.44,5.43-15.39,10.87-30.77,16.31-46.17.12-.27.21-.57.3-.85.03-.05.04-.1.06-.15,1.95-4.69,6.71-7.86,12.05-7.57,6.82.36,12.01,6.18,11.64,12.98Z"/>
            <path class="cls-16" d="M224.75,102.38c.88.99,1.77,2.06,2.67,3.22.53.68,1.03,1.36,1.49,2.02-1.3,3.43-2.6,6.85-3.9,10.28-1.8.01-4.54-.18-7.65-1.28-1.41-.5-4.96-2.15-8.51-5.44-5.23-4.85-8.08-12.14-4.96-13.78,2.64-1.39,3.62,3.86,8.14,6.74,2.4,1.53,6.82.88,6.08-.41-1.57-2.75-2.7-5.79-1.8-6.87.27-.32.55-.5.85-.59.99-.29,2.04.51,2.9,1.23,3.35,2.84,4.69,4.86,4.69,4.86Z"/>
            <path class="cls-16" d="M396.16,131.72c-2.58,6.89-5.15,13.78-7.73,20.67-2.04,5.46-3.45,11.81-6.17,16.94-.36.68-.78,1.34-1.37,1.82-4.78,3.87-12.21-1.73-15.24-5.22-3.77-4.33-6.27-9.56-9.13-14.48-12.87-22.11-11.05-28.67-19.09-42.83-.43-.76-1.67-2.9-1.64-5.76.06-5.23,4.31-12.62,11.55-13.08,5.34-.33,10.12,2.82,12.11,7.49.02.05.02.1.06.15.05.14.25.71.31.86,5.6,15.44,9.87,31.43,16.37,46.52.18-.29.36-.58.55-.87,3.78-5.84,7.62-11.42,11.5-16.74,2.64,1.51,5.28,3.01,7.93,4.52Z"/>
          </g>
        </g>
        <g id="Schuhe-3" data-name="Schuhe">
          <path class="cls-1" d="M292.2,509.44v2.96h-58.4v-2.96s.47-2.77,15.28-7.06c6.83-1.96,12.09-4.45,17.45-5.94,2.33.94,6.15,2.15,10.99,2.22,5.23.05,9.34-1.26,11.72-2.22.73,1.6,1.54,3.64,2.12,6.04.63,2.7.84,5.1.84,6.96Z"/>
          <path class="cls-1" d="M372.01,509.77v2.96h58.4v-2.96s-.47-2.77-15.28-7.06c-6.83-1.96-12.09-4.45-17.45-5.94-2.33.94-6.15,2.15-10.99,2.22-5.23.05-9.34-1.26-11.72-2.22-.73,1.6-1.54,3.64-2.12,6.04-.63,2.7-.84,5.1-.84,6.96Z"/>
        </g>
        <g id="Hose-3" data-name="Hose">
          <path class="cls-9" d="M394.92,478.66c-3.2-.58-8.3-1.12-14.36,0-5.16.97-9.17,2.77-11.83,4.23-4.03-17.67-9.85-44.25-16.06-76.89-5.82-30.57-7.99-45.43-12.48-70.06-4.54-24.94-11.56-60.47-22.06-103.82l-2.39-64.27,2.39.03c8.04-.07,16.09-.13,24.13-.2,14.37,18.22,21.75,34.67,25.77,45.9,7.07,19.71,9.03,39.62,12.77,79.47,1.3,13.82,2.36,25.62,3.19,35.01.7,7.65,1.36,15.31,2.02,23,3.65,43.08,6.59,85.64,8.89,127.61Z"/>
          <path class="cls-17" d="M318.14,232.12c-3.49,32.85-6.97,65.73-10.44,98.62-5.34,50.73-10.62,101.44-15.87,152.15-3.73-.97-8.46-1.84-13.94-2.11-5.79-.29-10.82.19-14.79.84-2.01-65.15-3.3-113.74-3.54-130.57-.1-7.15-.15-13.87-.15-13.87-.05-8.26-.05-19.48.15-32.55.57-37.07.84-55.62,4.05-70.18,3.46-15.61,11.7-39.82,34.23-66.71l17.91.11,2.39,64.27Z"/>
        </g>
        <g id="Oberteil-3" data-name="Oberteil">
          <path class="cls-23" d="M315.74,167.9c-5.95,0-11.93-.03-17.9-.03l-20.19-71.06c3.1-1.24,6.76-2.48,10.92-3.49,4.3-1.04,8.23-1.62,11.65-1.93.72,1.16,1.66,2.53,2.84,4,1.15,1.43,2.52,2.93,4.13,4.41,2.18,2.01,4.32,3.54,6.19,4.69.79,21.13,1.58,42.26,2.36,63.39Z"/>
          <path class="cls-26" d="M351.09,88.9c-3.01,26.35-6.02,52.7-9.03,79.06-7.97-.03-15.94-.03-23.92-.05h-2.4l-2.36-63.39.14.13c1.81-1.79,3.75-3.92,5.67-6.4,2.56-3.3,4.52-6.49,6.02-9.29,4.09-.47,8.7-.78,13.74-.76,4.41.02,8.48.3,12.14.71Z"/>
        </g>
        <g id="Kittel-3" data-name="Kittel">
          <g id="Links-3" data-name="Links">
            <path class="cls-21" d="M297.31,118.02c-2.17,4.02-4.47,8.1-6.88,12.24-3.15,5.4-3.56,6.1-4.09,7.01-4.61,8-7.22,14-9.13,18.03-2.64,5.56-6.82,13.35-13.46,22.79-.11.36-.26.69-.46.96-2.54,3.52-4.83,4.96-5.5,5.26l-.09.04c-5.34,2.28-11.52-.2-13.8-5.53l-23.05-53.98c2.65-.43,6-1.22,9.67-2.73,4.18-1.72,7.43-3.81,9.76-5.57,3.82,8.94,7.63,17.88,11.45,26.82,2.26-7.62,4.59-13.88,6.52-18.65,2.82-6.95,4.77-10.6,5.85-12.53,2.8-4.99,5.61-8.94,7.81-11.77,4.65-5.09,12.82-5.88,19.1-2.12,6.98,4.18,10,13,6.3,19.73Z"/>
            <path class="cls-7" d="M302.25,91.3l-12.39,221.37c-17.04-1.16-32.42-3.3-45.85-5.81,1.51-22.55,4.14-47.18,8.45-73.51,4.36-26.62,9.79-51.05,15.64-73.09,3.25-8.18,6.76-19.36,8.45-32.95,1.56-12.55,1.09-23.43.14-31.76,12.51-5.46,20.5-5.41,25.56-4.26Z"/>
            <path class="cls-21" d="M301.52,87.47c.52,2.74,1.2,5.7,2.08,8.83.93,3.3,1.96,6.33,3.01,9.06-2.41,12.29-4.83,24.59-7.24,36.88-3.2-10.96-6.39-21.91-9.59-32.87l6.2-10.96-8.58-7.32,14.11-3.62Z"/>
            <g id="Knöpfe-3" data-name="Knöpfe">
              <circle class="cls-24" cx="293.6" cy="156.58" r="1.27"/>
              <circle class="cls-24" cx="292.26" cy="174" r="1.27"/>
              <circle class="cls-24" cx="291.42" cy="191.19" r="1.27"/>
              <circle class="cls-24" cx="290.48" cy="208.94" r="1.27"/>
              <circle class="cls-24" cx="289.73" cy="226.81" r="1.27"/>
              <circle class="cls-24" cx="288.6" cy="244.43" r="1.27"/>
              <circle class="cls-24" cx="287.61" cy="263.56" r="1.27"/>
              <circle class="cls-24" cx="286.45" cy="281.13" r="1.27"/>
            </g>
            <path class="cls-21" d="M263.31,234.84l16.92,1.44c2.06.17,3.88-1.36,4.06-3.42.3-7.92.59-15.84.89-23.77-7.53-.7-15.07-1.41-22.6-2.11-.9,7.94-1.79,15.87-2.69,23.81-.17,2.06,1.36,3.88,3.42,4.06Z"/>
          </g>
          <g id="Rechts-3" data-name="Rechts">
            <path class="cls-21" d="M398.84,145.84c-4.16,6.25-8.32,12.49-12.49,18.74-1.48,2.23-2.97,4.45-4.45,6.68-1.39,2.1-2.67,5.26-5.08,6.31-1.13.49-2.41.46-3.63.27-3.21-.49-6.21-2.07-8.53-4.33-2.57-2.52-3.77-5.8-5.29-8.99-3.29-6.9-6.51-13.83-9.67-20.79-3.46-7.6-2.94-6.64-4.3-9.49-8.49-17.79-11.85-19.36-12.26-26.38-.33-5.67,1.3-14.35,7.43-17.68,5.98-3.25,13.22.23,14.06.59,8.44,3.67,10.99,13.18,16.66,34.94,1.54,5.92,2.79,11.43,3.86,16.54,1.49-2.23,3.11-4.58,4.87-7.02,2.51,1.69,5.38,3.48,8.58,5.32,3.7,2.1,7.14,3.85,10.23,5.29Z"/>
            <path class="cls-7" d="M395.26,306.03c-14.19,2.79-30.67,5.25-49.06,6.57l-22.03-223.54c3.96-1,9.47-1.93,16.04-1.67,5.04.2,9.34,1.05,12.69,1.97-1.29,7.84-2.53,19.63-1.15,33.75,1.52,15.54,5.43,26.42,9.3,37.59,6.29,18.15,12.34,37.9,17.74,59.15,7.89,30.96,13.09,59.93,16.48,86.19Z"/>
            <path class="cls-21" d="M324.67,86.02c-.44,2.89-1.08,6.1-2.03,9.54-.85,3.1-1.82,5.92-2.8,8.42,3.18,12.76,6.36,25.52,9.54,38.28,2.45-11.51,4.9-23.02,7.35-34.52l-6.36-10.87,8.47-7.44-14.17-3.41Z"/>
            <path class="cls-21" d="M369.59,233.28l-16.87,1.93c-2.05.23-3.92-1.25-4.15-3.3l-2.71-23.7c7.56-.73,15.11-1.46,22.67-2.18,1.46,7.7,2.92,15.4,4.37,23.09.23,2.05-1.25,3.92-3.3,4.15Z"/>
          </g>
        </g>
      </g>
    </g>
    <g id="Mikrofon">
      <path class="cls-4" d="M395,106.84l-11.47,43.39c-1,3.79-4.89,6.05-8.68,5.05l-1.34-.35c-3.79-1-6.05-4.89-5.05-8.68l11.47-43.39,15.06,3.98Z"/>
      <path class="cls-6" d="M401.95,90.91c-.15.57-.34,1.11-.58,1.62-2.06,4.58-7.18,7.13-12.19,5.8-5.01-1.32-8.2-6.07-7.73-11.06.05-.56.15-1.13.3-1.7.09-.35.2-.69.33-1.02,1.86-4.95,7.21-7.78,12.43-6.4,5.22,1.38,8.47,6.49,7.65,11.71-.06.35-.13.7-.22,1.05Z"/>
      <rect class="cls-13" x="377.48" y="96.79" width="21.93" height="8.17" transform="translate(38.66 -95.89) rotate(14.8)"/>
      <path class="cls-18" d="M401.95,90.91c-.15.57-.34,1.11-.58,1.62l-19.91-5.26c.05-.56.15-1.13.3-1.7.09-.35.2-.69.33-1.02l20.08,5.31c-.06.35-.13.7-.22,1.05Z"/>
      <g id="Hand">
        <path class="cls-16" d="M386.73,127.58c.26.36.56.69.9.99,2.36,2.08,5.49,2.67,8.45,3.47,1-1.48,2.09-3.58,2.6-6.23.85-4.44,1.37-12.15-5.57-11.45-3.57.36-6.78,3.72-7.57,7.12-.48,2.06-.06,4.39,1.2,6.11Z"/>
      </g>
    </g>
    <g id="Gesicht-5" data-name="Gesicht">
      <g id="Haare-4" data-name="Haare">
        <path class="cls-1" d="M297.14,65.57c1.17,2.31.19,5.01-1.77,5.96-2.12,1.03-5.11-.17-5.96-2.87-4.47.24-7.71-2.82-7.72-5.74,0-2.88,3.15-4.76,3.31-4.85-4.75-.42-8.38-4.14-8.6-8.38-.18-3.39,1.82-6.7,5.07-8.38-.38-.38-3.47-3.6-2.87-8.38.58-4.63,4.15-6.97,4.63-7.28-2.41-3.15-2.66-7.4-.66-10.59,2.3-3.68,7.16-5.25,11.47-3.53.02-.43.39-6.59,5.74-9.71,4.01-2.33,9.15-1.99,13.02.88,1.92-2.24,4.94-3.19,7.72-2.43,3.06.84,5.29,3.59,5.52,6.84.6-.11,7.67-1.27,12.8,3.97,4.26,4.35,4.03,9.9,3.97,10.81,3.49,1.63,5.85,5,6.18,8.83.34,3.93-1.53,7.76-4.85,9.93,2.87,1.35,4.75,4.17,4.85,7.28.11,3.39-1.9,6.55-5.07,7.94,2.51,1.64,3.39,4.82,2.21,7.28-.99,2.06-3.29,3.31-5.74,3.09-.49,3.4-3.34,5.6-5.96,5.3-1.82-.21-3.42-1.62-4.19-3.53-2.1,1.19-4.55,1.34-6.18.22-2.39-1.65-3.06-6.09-.22-9.49-9.63.22-19.27.44-28.9.66l2.21,6.18Z"/>
      </g>
      <g id="Gesicht-6" data-name="Gesicht">
        <g id="Kopf-3" data-name="Kopf">
          <path class="cls-16" d="M344.11,47.38v1.96c0,2.87-2.35,5.22-5.22,5.22-.97,0-1.87-.27-2.64-.73-1.56,7.65-6.83,13.99-13.83,17.04,0,.09,0,.17,0,.26v19.61c0,5.07-4.14,9.21-9.21,9.21s-9.21-4.14-9.21-9.21v-19.7c-7.12-2.94-12.52-9.25-14.18-16.91-.64.27-1.34.43-2.08.43-2.87,0-5.22-2.35-5.22-5.22v-1.96c0-2.87,2.35-5.22,5.22-5.22.54,0,1.05.08,1.54.24v-4.81c0-13.04,10.67-23.71,23.72-23.71,6.52,0,12.45,2.67,16.74,6.96s6.97,10.23,6.97,16.75v5.05c.66-.31,1.39-.48,2.17-.48,1.44,0,2.74.59,3.69,1.53.94.95,1.53,2.25,1.53,3.69Z"/>
        </g>
        <g id="Schatten-3" data-name="Schatten">
          <path class="cls-20" d="M339.65,45.97c.37,0,.89,1.49.49,2.84-.29.97-1.07,1.94-1.39,1.82-.6-.25.26-4.66.9-4.66Z"/>
          <path class="cls-20" d="M322.32,70.9c-1.41.63-3.35,1.31-5.72,1.69-2.76.44-5.12.3-6.79.07,4.19,3.12,8.39,6.24,12.58,9.37,0-1.03,0-1.93,0-2.66,0-.59,0-.65,0-3.33,0-1.87,0-2.06,0-2.47-.01-1.13-.04-2.06-.07-2.67Z"/>
          <path class="cls-20" d="M286.66,45.97c-.37,0-.89,1.49-.49,2.84.29.97,1.07,1.94,1.39,1.82.6-.25-.26-4.66-.9-4.66Z"/>
        </g>
        <g id="Augenbrauen-3" data-name="Augenbrauen">
          <path class="cls-1" d="M326.48,37.28c-.64-.34-1.83-.87-3.41-.94-1.98-.09-3.47.59-4.13.94-1.13-.57-1.38-1.04-1.38-1.38.02-1.18,3.18-2.45,6.02-2.18,1.92.19,4.28,1.13,4.28,2.18,0,.54-.64,1.01-1.38,1.38Z"/>
          <path class="cls-1" d="M307.1,37.23c-.64-.34-1.83-.87-3.41-.94-1.98-.09-3.47.59-4.13.94-1.13-.57-1.38-1.04-1.38-1.38.02-1.18,3.18-2.45,6.02-2.18,1.92.19,4.28,1.13,4.28,2.18,0,.54-.64,1.01-1.38,1.38Z"/>
        </g>
        <g id="Augen-3" data-name="Augen">
          <rect class="cls-12" x="301.65" y="38.82" width="3.79" height="4.45" rx="1.89" ry="1.89"/>
          <rect class="cls-12" x="320.61" y="38.77" width="3.79" height="4.45" rx="1.89" ry="1.89"/>
        </g>
        <g id="Mund-3" data-name="Mund">
          <g id="Mund-4" data-name="Mund">
            <path class="cls-24" d="M305.88,58.66c.13.45,1.16,3.84,4.44,5.14,3.11,1.24,6.95.09,9.27-2.94-1.83.36-4.93.72-8.56-.15-2.16-.52-3.88-1.33-5.14-2.04Z"/>
          </g>
        </g>
        <g id="Nase-3" data-name="Nase">
          <g id="Nase-4" data-name="Nase">
            <path class="cls-12" d="M314.12,55.08c-.63,0-1.29-.18-1.91-.52-.06-.03-.08-.11-.05-.17.03-.06.11-.08.17-.05.9.5,1.88.62,2.68.35.44-.15.77-.41.89-.72.32-.76.05-1.52-.83-2.32l-.11-.1c-.45-.41-1.12-1.03-1.45-2.06-.11-.36-.16-.89-.18-1.24v-.15c-.01-.43-.02-.77-.03-1.12,0-.35-.01-.69-.01-1.11,0-.07.06-.12.12-.12s.12.06.12.12c0,.42,0,.76.01,1.11,0,.35.01.69.01,1.11v.14c.04.34.08.86.18,1.19.31.97.95,1.56,1.38,1.95l.11.11c.97.88,1.26,1.73.89,2.6-.16.37-.54.68-1.04.86-.31.11-.64.16-.98.16Z"/>
          </g>
        </g>
      </g>
      <g id="Haare-5" data-name="Haare">
        <path class="cls-1" d="M341.56,35.18c-.75,2.09-2.63,3.34-4.68,3.1-1.45,1.22-3.55.67-4.49-.96-.83-1.45-.58-3.46.68-4.55-2.06,1.63-4.82,1.6-6.84-.02-2.39-1.93-2.58-5.14-2.59-5.47-.27-.15-3.34-1.9-4.37-5.79-.77.14-1.63.13-2.53-.07,1.14,2.82.23,6.07-2.2,7.86-2.49,1.83-5.97,1.68-8.32-.37.23,3.23-1.53,5.01-3.01,5.55-2.83,1.03-5.12-.52-6.07-.52-.22,0,.85,3.2-1.69,5.52-1.33,1.22-4.41,2.1-6.47,1.29-1.19-.51-3.61-1.79-4.78-3.46-3.43-4.89,1.84-13.19,4.83-17.27,2.03-2.75,4.42-4.43,6.14-5.41-.25-2.87,1.4-5.51,3.89-6.43,2.91-1.08,6.4.38,7.79,3.48,1.03-2.49,3.62-3.93,6.17-3.52,2.77.45,4.86,3.01,4.74,5.95.84.16,1.57.45,2.19.83.58-1.15,1.21-1.82,1.3-1.91.1-.29,1.11-3.32,3.72-3.91,2.55-.58,5.59,1.41,6.85,4.92.46.03,4.75.45,7.43,4.77,2.98,4.82,1.17,9.95,1.06,10.23,1.49,1.65,1.99,4.11,1.25,6.16Z"/>
      </g>
    </g>
  </g>
</svg>