<?xml version="1.0" encoding="UTF-8"?>
<svg id="G-0136_BUW_ff_Gruppe_Durchblick" xmlns="http://www.w3.org/2000/svg" viewBox="0 0 604.31 542.71">
  <defs>
    <style>
      .cls-1 {
        fill: #42210b;
      }

      .cls-1, .cls-2, .cls-3, .cls-4, .cls-5, .cls-6, .cls-7, .cls-8, .cls-9, .cls-10, .cls-11, .cls-12, .cls-13, .cls-14, .cls-15, .cls-16, .cls-17, .cls-18, .cls-19, .cls-20, .cls-21, .cls-22, .cls-23, .cls-24, .cls-25, .cls-26, .cls-27, .cls-28 {
        stroke-width: 0px;
      }

      .cls-2 {
        fill: #a5678d;
      }

      .cls-3 {
        fill: #308fc9;
      }

      .cls-4 {
        fill: #dec1a8;
      }

      .cls-29 {
        fill: none;
        stroke: #000;
        stroke-linecap: round;
        stroke-miterlimit: 10;
        stroke-width: .25px;
      }

      .cls-5 {
        fill: #dddddc;
      }

      .cls-6 {
        fill: #64abd6;
      }

      .cls-7 {
        fill: #e6710a;
      }

      .cls-8 {
        fill: #e0bf70;
      }

      .cls-9 {
        fill: #873567;
      }

      .cls-10 {
        fill: #c39ab3;
      }

      .cls-11 {
        fill: #000;
      }

      .cls-12 {
        fill: #73bbe7;
      }

      .cls-13 {
        fill: #fcd9bd;
      }

      .cls-14 {
        fill: #96cced;
      }

      .cls-15 {
        fill: #b47d49;
      }

      .cls-16 {
        fill: #236289;
      }

      .cls-17 {
        fill: #b9ddf3;
      }

      .cls-18 {
        fill: #308fc9;
      }

      .cls-19 {
        fill: #ec9447;
      }

      .cls-20 {
        fill: #98c7e4;
      }

      .cls-21 {
        fill: #603813;
      }

      .cls-22 {
        fill: #ccc;
      }

      .cls-23 {
        fill: #cbe3f1;
      }

      .cls-24 {
        fill: #f9dbc2;
      }

      .cls-25 {
        fill: #fff;
      }

      .cls-26 {
        fill: #e1ccd9;
      }

      .cls-27 {
        fill: #dec1a8;
      }

      .cls-28 {
        fill: #f2b885;
      }
    </style>
  </defs>
  <g id="Person:_Links" data-name="Person: Links">
    <g id="Gesicht">
      <g id="Haare">
        <path class="cls-1" d="M106.74,33.28c.92-5.43,2.65-14.46,10.59-21.93,6.95-6.53,15.07-8.16,17.27-8.54,3.43-.6,10.84-1.36,19.02,2.09,10.08,4.24,14.8,12.21,16.5,15.19,11.44,20.01,2.4,48.72-8.06,51.17-.9.21-2.18.34-4.73.14-4.7-.36-7.46-2.25-15.81-2.42-12.61-.26-16.73,5.29-24.23,2.4-10.77-4.14-12.75-25.01-10.54-38.1Z"/>
      </g>
      <g id="Kopf">
        <path class="cls-27" d="M168.09,38.56v1.82c0,2.69-2.2,4.89-4.87,4.89-.91,0-1.76-.25-2.49-.7-1.45,7.16-6.37,13.1-12.92,15.95.01.09.01.17.01.25v18.34c0,4.73-3.88,8.61-8.61,8.61s-8.61-3.88-8.61-8.61v-18.42c-6.65-2.75-11.72-8.66-13.28-15.84-.6.27-1.25.41-1.95.41-2.69,0-4.87-2.2-4.87-4.89v-1.82c0-2.69,2.19-4.89,4.87-4.89.51,0,.99.08,1.45.22v-4.49c0-12.19,9.98-22.17,22.17-22.17,6.1,0,11.64,2.5,15.66,6.51,4.02,4.02,6.51,9.56,6.51,15.66v4.73c.62-.3,1.32-.46,2.05-.46,1.34,0,2.55.55,3.44,1.44.88.88,1.44,2.1,1.44,3.45Z"/>
      </g>
      <g id="Augenbrauen">
        <path class="cls-1" d="M151.61,29.11c-.6-.32-1.71-.81-3.19-.88-1.85-.08-3.25.55-3.87.88-1.06-.54-1.29-.97-1.29-1.29.02-1.1,2.97-2.29,5.63-2.03,1.79.17,4,1.06,4,2.03,0,.5-.6.94-1.29,1.29Z"/>
        <path class="cls-1" d="M133.48,29.07c-.6-.32-1.71-.81-3.19-.88-1.85-.08-3.25.55-3.87.88-1.06-.54-1.29-.97-1.29-1.29.02-1.1,2.97-2.29,5.63-2.03,1.79.17,4,1.06,4,2.03,0,.5-.6.94-1.29,1.29Z"/>
      </g>
      <g id="Augen">
        <rect class="cls-11" x="128.38" y="30.56" width="3.54" height="4.16" rx="1.77" ry="1.77"/>
        <rect class="cls-11" x="146.11" y="30.51" width="3.54" height="4.16" rx="1.77" ry="1.77"/>
      </g>
      <g id="Mund">
        <path class="cls-25" d="M132.34,49.11c.12.42,1.08,3.59,4.15,4.81,2.91,1.16,6.5.08,8.67-2.75-1.71.34-4.61.68-8.01-.14-2.02-.49-3.63-1.24-4.81-1.91Z"/>
      </g>
      <g id="Nase">
        <path class="cls-29" d="M139.39,37.14c0,.78.03,1.3.03,2.08.03.3.06.91.18,1.28.33,1.02,1.04,1.61,1.43,1.97,1.02.93,1.06,1.7.81,2.3-.33.8-1.9,1.3-3.51.41"/>
      </g>
      <g id="Schatten">
        <path class="cls-15" d="M163.92,37.24c.34,0,.83,1.39.46,2.66-.27.91-1,1.82-1.3,1.7-.57-.23.24-4.36.84-4.36Z"/>
        <path class="cls-15" d="M147.71,60.56c-1.32.58-3.13,1.23-5.35,1.58-2.58.41-4.79.28-6.35.07,3.92,2.92,7.84,5.84,11.77,8.76,0-.96,0-1.8,0-2.49,0-.56,0-.6,0-3.11,0-1.75,0-1.93,0-2.31-.01-1.06-.04-1.93-.06-2.5Z"/>
        <path class="cls-15" d="M114.36,37.24c-.34,0-.83,1.39-.46,2.66.27.91,1,1.82,1.3,1.7.57-.23-.24-4.36-.84-4.36Z"/>
      </g>
      <g id="Haare-2" data-name="Haare">
        <path class="cls-1" d="M164.82,32.51c-.72-.07-1.45-.12-2.18-.19-1.97-.9-4.81-2.49-7.51-5.26-4.47-4.61-5.94-9.77-6.46-12.18-5.8,8.75-10.89,11.18-14.61,11.65-4.19.53-8.17-.9-11.66,1.98-1.97,1.62-2.34,3.46-5.03,4.99-2.19,1.25-4.43,1.45-5.96,1.44.19-2.79.79-6.93,2.7-11.56.72-1.76,1.96-4.69,4.34-7.7,6.6-8.34,16.63-10.15,17.39-10.27,8.18-1.32,20.36.67,26.28,10.27,4.27,6.93,3.17,14.4,2.7,16.85Z"/>
      </g>
    </g>
    <g id="Körper">
      <g id="Körper-2" data-name="Körper">
        <path class="cls-27" d="M213.66,458.88c-.18-.11-.61-.39-.75-.88-.07-.25-.04-.47-.03-.5.08-.57-.49-8.41-1.63-24.1-.53-7.29-1.85-24.82-3.56-43.72-2.61-28.83-5.66-56.85-9.04-84.01-.01-.02-.01-.04-.01-.07.01-.08.01-.14.01-.21.01-.07.01-.14.01-.21.14-13.23-.02-24.4-.22-32.66-1.45-55.43-12.36-83.77-17.6-92.09-.29-.46-.56-.91-.78-1.25-.09-.19-.21-.36-.34-.53-4.52-9.04-9.04-18.08-13.56-27.13,1.66-14.33,3.33-28.65,4.99-42.98,10.45,13.49,20.88,26.97,31.34,40.45.07.08.2.23.2.23.46.61,1.02,1.13,1.66,1.59,3.87,2.8,9.26,1.92,12.06-1.95,2.03-2.81,2.14-6.42.54-9.26-.14-.27-.32-.51-.49-.75-.03-.08-.1-.15-.14-.22-11.76-18.59-23.55-37.17-35.32-55.73-.02-.04-.04-.07-.07-.08l.02-.02c-.81-1.27-1.85-2.42-3.14-3.35-.97-.71-2.02-1.24-3.11-1.6l.13-1.19c-9.96-.17-21.27.22-33.63,1.64-11.28,1.28-21.51,3.19-30.6,5.35-4.23-.08-8.17,2.16-10.31,5.71-.03.04-.04.09-.08.13-.13.25-.25.52-.41.76-8.5,16.04-17,32.06-25.49,48.1-11.71-12.65-23.41-25.28-35.14-37.95-.4-1.17-1.14-2.24-2.21-3.06-2.93-2.27-7.14-1.71-9.42,1.23-2.26,2.93-1.71,7.15,1.22,9.41,13.24,16.33,26.46,32.64,39.71,48.98h.01c.56,1.09,1.37,2.09,2.4,2.87.06.03.1.08.15.11.14.11.3.22.45.32.91.62,1.93,1.06,3.07,1.29,3.4.7,6.73-.7,8.68-3.33.17-.23.32-.51.48-.75.07-.06.11-.14.14-.22,10-15.18,19.99-30.37,29.96-45.54,3.88,13.28,7.77,26.54,11.65,39.82l-17.36,27.13.11.1c-.15.12-.28.27-.4.41v.02c-.34.72-.75,1.43-.75,1.43-17.35,29.39-12.21,102.46-12.21,102.46.44,6.05,1.15,14.68,2.44,25.08,0,.24.01.5.02.74s.03.49.06.73c0,.08.01.17.02.24-.56,27.61-.73,55.96-.41,84.99.23,21.44.72,42.5,1.43,63.15,0,.09,0,.21-.03.36-.09.31-.31.49-.39.56-1.66,1.41-2.49,2.11-2.56,2.57-.18,1.14,2.78,2.96,5.53,3.5,1.5.3,3.22.47,5.05.47s3.73-.19,5.27-.53c.28-.06,5.35-1.5,5.31-3.45-.01-.56-.47-1.71-1.25-2.09-.19-.09-.62-.24-.9-.67-.12-.19-.18-.39-.2-.52,1.03-7.42,2.63-19.02,4.58-33.26,1.43-10.43,4.03-28.83,4.41-32.36,3.37-31.23,3.81-59.66,2.79-84.45,4.8-34.11,9.6-68.25,14.39-102.36,0,0,0-.01.01-.01h5.75c.17.18.36.32.57.45,7.76,33.53,15.49,67.05,23.26,100.59-.01-.14-.02-.28-.03-.41h.04c-.02-.2-.03-.41-.03-.61-.02-.2-.02-.41-.02-.61,0-.65.04-1.29.13-1.92-.08.62-.12,1.26-.12,1.91,0,.21,0,.42.01.62.01.21.03.41.04.61h-.01c.02.31.06.62.11.93-.04-.18-.09-.34-.12-.52,1.61,24.68,5,52.77,11.37,83.33,0,0,7.2,34.53,18.32,67.75,0,0,.08.24.19.57.22.64.22.64.22.65.17.76-2.89,1.62-3.06,2.81-.17,1.17,2.43,2.65,3.94,3.11,1.81.55,4.12.88,6.64.88,2.05,0,3.96-.22,5.57-.6,2.33-.54,5.2-2.27,5.01-3.39-.17-.97-2.71-1.9-4.52-3.04ZM170.11,307.39s.01.06.02.08h.02c.41,2.62,1.53,5,3.15,6.94-1.66-1.96-2.79-4.38-3.19-7.02Z"/>
      </g>
      <g id="Schuhe">
        <path class="cls-1" d="M119.69,471.02v2.77h-54.62v-2.77s.44-2.59,14.29-6.61c6.39-1.84,11.31-4.16,16.32-5.56,2.18.88,5.75,2.01,10.28,2.08,4.89.05,8.74-1.17,10.96-2.08.69,1.49,1.44,3.4,1.98,5.65.59,2.52.78,4.77.78,6.51Z"/>
        <path class="cls-1" d="M194.19,471.02v2.77h54.62v-2.77s-.44-2.59-14.29-6.61c-6.39-1.84-11.31-4.16-16.32-5.56-2.18.88-5.75,2.01-10.28,2.08-4.89.05-8.74-1.17-10.96-2.08-.69,1.49-1.44,3.4-1.98,5.65-.59,2.52-.78,4.77-.78,6.51Z"/>
      </g>
      <g id="Hose">
        <path class="cls-9" d="M215.59,441.88c-2.99-.55-7.76-1.05-13.43,0-4.82.9-8.58,2.59-11.06,3.96-3.77-16.53-9.21-41.38-15.02-71.91-5.44-28.59-7.47-42.49-11.67-65.53-4.24-23.32-10.81-56.56-20.63-97.1l-2.23-60.11,2.23.02c7.56-.02,15.13-.04,22.69-.06,13.35,16.98,20.22,32.32,23.98,42.8,6.61,18.45,8.45,37.07,11.94,74.32,1.21,12.93,2.21,23.97,2.98,32.75.65,7.15,1.27,14.32,1.89,21.51,3.41,40.29,6.17,80.1,8.32,119.35Z"/>
        <path class="cls-2" d="M143.79,211.3c-3.27,30.73-6.52,61.48-9.77,92.24-4.99,47.44-9.93,94.88-14.84,142.3-3.49-.9-7.91-1.72-13.03-1.97-5.42-.27-10.12.18-13.83.78-1.88-60.93-3.09-106.38-3.32-122.12-.1-6.69-.14-12.97-.14-12.97-.05-7.72-.05-18.21.14-30.44.53-34.67.78-52.02,3.79-65.64,3.23-14.6,10.94-37.24,32.01-62.39l16.75.11,2.23,60.11Z"/>
      </g>
      <g id="Oberteil">
        <path class="cls-26" d="M141.56,151.28c-5.56,0-11.16-.02-16.74-.02-6.32-22.56-12.63-45.11-18.95-67.67,2.68-1,5.89-1.97,9.56-2.7,4.4-.87,8.35-1.14,11.62-1.16.67,1.08,1.55,2.36,2.66,3.74,1.08,1.34,2.35,2.74,3.86,4.12,2.04,1.88,4.04,3.31,5.79,4.39.74,19.76,1.47,39.53,2.21,59.29Z"/>
        <path class="cls-10" d="M174.83,76.66l-8.65,74.67c-7.45-.02-14.91-.02-22.37-.05h-2.25l-2.21-59.29.13.12c.85-.84,1.72-1.75,2.61-2.75,0,0,1.52-1.7,2.69-3.24,2.68-3.5,4.8-8.11,5.44-9.52,3.16-.58,6.91-1.04,11.15-1.1,5.23-.08,9.78.47,13.46,1.16Z"/>
      </g>
      <g id="Unterarm">
        <path class="cls-27" d="M153.91,174.89s.02.07.03.1c-1.01,1.39-2.71,3.4-5.31,5.18-1.18.81-4.47,2.62-9.01,3.5-6.69,1.3-13.93-.61-13.43-3.95.41-2.82,5.02-.62,9.79-2.49,2.54-.99,4.53-4.76,3.12-4.93-3-.33-5.99-1.17-6.31-2.49-.1-.39-.08-.71.02-.98.33-.93,1.55-1.29,2.59-1.54,4.08-.99,6.4-.88,6.4-.88,2.07.04,5.05.07,8.95-.04.01.02.02.06.03.08,8.22-5.06,16.77-10.14,25.63-15.2,9.4-5.36,18.62-10.4,27.64-15.16l.08-.06c2.51,5.37,5.01,10.74,7.51,16.12-19.25,7.57-38.48,15.14-57.74,22.73Z"/>
      </g>
    </g>
    <g id="Reangenzglas">
      <path class="cls-5" d="M31.35,157.6h0s-31.35-.01-31.35-.01c4.19-9.16,8.38-18.31,12.56-27.46.2-.45.41-.91.62-1.35.59-1.28,1.17-2.58,1.77-3.86.76-1.68,1.54-3.36,2.31-5.05.24-.54.49-1.08.74-1.63h0c.83-1.8,1.65-3.6,2.48-5.41.25-.55.5-1.08.75-1.64h0c.43-.95.86-1.89,1.29-2.83v-18.16h-2.45v-6.63h22.55v6.63h-2.45v18.18h.01c1.17,2.56,2.35,5.14,3.53,7.69,1.14,2.5,2.28,4.99,3.42,7.47,2.47,5.39,4.93,10.8,7.42,16.19,0,.01.01.01.01.02,1.32,2.9,2.64,5.79,3.97,8.7,1.39,3.04,2.79,6.08,4.18,9.12h-31.34Z"/>
      <path class="cls-7" d="M31.34,156.63h0s-29.37-.01-29.37-.01c5.84-12.76,11.68-25.52,17.52-38.28,1.84.26,3.73.75,5.62,1.53,5.62,2.33,7.21,5.65,11.69,6.39,2.24.37,5.22.09,9.04-2.15,4.96,10.84,9.92,21.68,14.88,32.53h-29.37Z"/>
      <g>
        <circle class="cls-7" cx="37" cy="117.41" r="1.92"/>
        <circle class="cls-7" cx="34.11" cy="110.67" r="1.27"/>
        <circle class="cls-24" cx="23.69" cy="135.54" r="1.92"/>
        <circle class="cls-24" cx="27.74" cy="143.4" r="1.27"/>
        <circle class="cls-24" cx="25.61" cy="127.03" r="1.27"/>
      </g>
      <path class="cls-27" d="M24.94,107.49c-.54.02-2.54.08-4.08-1.26-1.8-1.57-1.77-4.02-1.75-6.25.02-1.97.07-5.84,2.63-7.35,1.2-.71,2.49-.64,3.19-.6.68.04,2.78.18,4.41,1.9,1.58,1.66,1.67,3.68,1.68,4.19v3.27c0,.44-.07,2.58-1.79,4.3-1.67,1.67-3.73,1.77-4.3,1.79Z"/>
    </g>
  </g>
  <g id="Person:_Rechts" data-name="Person: Rechts">
    <g id="Körper-3" data-name="Körper">
      <g id="Körper-4" data-name="Körper">
        <path class="cls-8" d="M588.37,162.4c-4.37,1.29-8.52-1.7-11.51-3.86-16.16-11.68-27.86-23.37-29.74-25.24-3.33-3.32-6.12-6.08-8.49-8.47.01,6.21.13,12.59.38,19.12,0,0,.41,10.74,1.14,20.07,1.54,19.7,5.8,38.95,8.64,58.45,2.64,18.17,4.05,36.59,4.58,54.94.57,19.9-1.61,39.77-.6,59.67.96,18.82,3.03,37.57,3.77,56.42.2,5.02.35,10.03.46,15.03.34,15.12.29,29.74-.07,43.8-.03,1.2.28,2.38.88,3.4.28.44.57.93.93,1.43,1.91,2.79,2.86,3.04,2.97,3.95.35,2.9-8.19,8.66-16.51,7.15-.83-.14-8.46-1.53-9.57-6.77-.33-1.57.01-3.04.49-4.19.56-1.35.7-2.82.34-4.23-3.47-13.85-6.57-29.38-8.74-46.43-1.5-11.74-2.49-23.54-2.94-35.37-.43-11.06.25-22.14-.28-33.18-.28-5.78-3.81-11.15-6.01-16.4-2.71-6.43-5.17-12.98-7.38-19.6-7.75-23.39-11.41-44.91-12.96-62.88-.88-.19-1.83-.41-2.85-.66-2.96,18.45-8.5,40.86-18.87,64.96-3.38,7.84-7.14,15.51-11.23,23-1.89,3.45-4.03,6.44-4.73,10.34-2.01,11.13-2,22.7-3.4,33.95-1.51,12.12-3.58,24.16-6.19,36.09-3.65,16.71-8.07,31.89-12.7,45.38-.65,1.89-.57,3.94.12,5.81.77,2.08,1.38,5.08.08,7.91-2.38,5.2-9.31,5.7-12.36,5.92-7.58.54-16.84-2.73-16.96-6.63-.07-1.91,2.1-3.66,4.53-5.02,3.58-2.01,5.84-5.78,5.68-9.89-.22-5.95-.28-13.29.13-21.63.5-10.03,1.59-17.52,2.14-22.57,1.53-13.95,3.38-27.87,5.59-41.73,2.34-14.71,5.75-29.13,6.15-44.07.39-15.06,1.44-30.1,3.16-45.07,2.55-22.29,6.35-42.49,10.63-60.32,5.18-16.15,9.87-35.26,12.51-56.96,1.15-9.46,1.8-18.47,2.09-26.94-1.02,1.53-2.07,3.06-3.13,4.61-7.61,11.04-15.27,20.74-22.56,29.14-5.42-2.61-10.83-5.23-16.25-7.84,6.18-14.68,9.3-21.36,15.85-33.01,3.8-6.75,7.1-14.38,15.06-27.47.01-.02.01.02.03.02.06,0,2.29-3.05,3.88-4.48,1.11-.97,2.94-2.11,6.12-2.48,5.48-.96,11.61-1.8,18.29-2.34,3.69-.3,7.56-.52,11.58-.61.08,0,.15,0,.23-.01.54-.01,1.09-.02,1.65-.02,2.74-.04,5.56-.02,8.43.06,3.57.1,7.03.3,10.36.56.61.04,1.2.1,1.79.15.07,0,.13.01.2.01,4.11.38,8.03.85,11.72,1.41,3.01.45,5.88.95,8.6,1.48,5.25-1.05,11.85,1.97,14.81,4.08,6.41,4.58,7.42,5.95,23.61,24.21,0,0,13.32,15.01,23.09,28.75.22.3.41.61.41.61,0,0,.82,1.28,1.13,2.73.71,3.34-1.92,9.85-8.24,11.73Z"/>
        <path class="cls-8" d="M602.52,84.06c-.88,2.13-1.96,3.88-2.95,5.24.13,1.48.07,3.07.01,4.54-.39,10.18-.01,20.37-.18,30.55-.12,7.91-.72,15.82-.97,23.74-.13,3.8-.22,7.05-2.55,9.83-3.29,3.94-10.15,5.79-14.48,3.25-1.32-.77-2.1-1.72-2.47-2.17-2.83-3.49-2.42-7.77-2.27-8.91,3.36-19.41,6.7-38.82,10.07-58.23-.01-.38,0-.91.08-1.53.1-.76.25-1.53.44-2.18h0c-.7-3.66-1.32-6.5-1.79-8.53,0,0-.69-2.58-.55-7.4.03-1.23.15-2.67,1.12-3.27.29-.18.65-.28,1.11-.25,1.55.06,3.19,3.21,4.3,6.5.51,1.54,4.28-1.59,4.79-4.68.95-5.81-2.62-10.46.45-11.6,3.63-1.35,7.49,6.32,7.63,14.14.1,5.32-1.15,9.43-1.78,10.94Z"/>
      </g>
      <g id="Schuhe-2" data-name="Schuhe">
        <path class="cls-21" d="M397.6,463.41c7.06-2.03,12.5-4.6,18.05-6.13.33.13.68.26,1.08.41,2.44.87,5.97,1.82,10.28,1.88,4.76.04,8.61-.99,11.15-1.91.35-.14.68-.26.98-.38.77,1.64,1.6,3.76,2.2,6.25.64,2.78.86,5.28.86,7.2v3.05h-60.41v-3.05s.49-2.87,15.81-7.32Z"/>
        <path class="cls-21" d="M532.43,463.53c.59-2.49,1.43-4.61,2.18-6.25.41.16.85.33,1.34.5,2.54.89,6.26,1.83,10.78,1.78,5.01-.07,8.95-1.32,11.37-2.29.3.08.59.17.9.26h.02c5.24,1.55,10.44,3.95,17.12,5.87,15.32,4.45,15.81,7.32,15.81,7.32v3.05h-60.4v-3.05c0-1.92.21-4.42.87-7.2Z"/>
      </g>
      <g id="Hose-2" data-name="Hose">
        <path class="cls-18" d="M497.53,242.57c3.85,24.79,7.61,49.6,11.3,74.42,6.69,45.02,13.13,90.08,19.31,135.18,4.76-1.08,10.52-2.03,17.07-2.36,5.99-.3,11.36-.03,15.89.47,4.65-39.09,7.1-86.99,2.83-141.3-3.41-43.49-10.42-81.96-18.37-114.45-12.21,2.41-26.98,4.39-43.8,4.71-1.32.03-2.61.04-3.9.04l-.34,43.29Z"/>
        <path class="cls-6" d="M410.86,447.94c5.1-.32,10.88-.39,17.2,0,6.76.42,12.84,1.31,18.13,2.35,10.28-43.24,20.8-86.42,31.55-129.53,6.51-26.08,13.11-52.14,19.79-78.19l.34-43.29c-17,.04-31.9-1.65-44.15-3.81-10.49,29.43-20.53,63.47-28.26,101.74-11.55,57.14-14.85,108.44-14.61,150.73Z"/>
      </g>
      <g id="Oberteil-2" data-name="Oberteil">
        <path class="cls-20" d="M497.93,229.41c.76,0,1.54-.01,2.31-.02,21.64-.29,40.02-3.54,54.04-7.08-1.37-11.92-3.46-27.73-6.7-46.27-3.38-19.33-5.35-26.46-6.71-39.56-1.47-14.09-1.67-29.69.24-46.74-1.92-.97-4.84-2.19-8.59-2.77-3.72-.57-6.86-.3-8.97.04-1.04,1.2-8.25,9.22-20.13,9.19-.47,0-.92-.01-1.38-.04l-4.1,133.25Z"/>
        <path class="cls-23" d="M441.59,222.68c14.39,3.53,33.61,6.79,56.34,6.73l4.1-133.25c-11.76-.66-18.61-9.11-19.46-10.21-2.85-.5-6.88-.89-11.65-.35-4.61.52-8.34,1.74-10.95,2.83.71,9.4,1.1,23.77-1.41,40.98-2.52,17.11-6.2,25.39-10.25,43.45-2.58,11.54-5.62,28.46-6.71,49.81Z"/>
      </g>
      <g id="Jacke">
        <g id="Rechts">
          <path class="cls-22" d="M553,147.22c9.04-8.3,18.09-16.6,27.13-24.9-6.49-8.74-12.8-15.08-17.47-19.32-7.93-7.2-12.9-11.61-20.82-13.84-1.72-.48-16.64-4.68-21.92,2.18-4.68,6.07.94,17.23,4.03,23.37,3.41,6.78,7.44,11.17,13.82,18.02,5.98,6.42,11.4,11.27,15.24,14.49Z"/>
          <path class="cls-5" d="M513.75,84.79c-.42,49.67-.84,99.34-1.26,149.02,7.13,1.11,16.53,1.85,27.45.77,8.65-.85,16.07-2.63,21.98-4.49-4.38-31.72-9.56-54.94-13.59-70.6-1.8-6.99-5.04-18.91-6.57-35.45-1.35-14.52-.82-26.58-.15-34.61-13.64-5.95-22.34-5.9-27.85-4.64Z"/>
          <path class="cls-22" d="M520.58,92.55l6.75,11.94-14.09,36.05c-1.41-13.47-2.83-26.95-4.23-40.41,1.14-2.98,2.27-6.28,3.28-9.88.12-.44.24-.88.35-1.33.14-.51.28-1.03.4-1.53-.59-.06-1.18-.11-1.79-.15.03-.31.04-.61.04-.92v-6.44c1.15.23,2.23.49,3.25.75l15.39,3.95-4.97,4.24-4.38,3.74Z"/>
        </g>
        <g id="Links">
          <path class="cls-22" d="M421.14,133.52c5.07,2.12,10.4,4.56,15.93,7.35,6.23,3.15,11.95,6.38,17.15,9.56,8.83-19.81,12.28-27.11,13.55-29.48.36-.66,2.21-4.21,4.37-9.11,0,0,0-.01,0-.01.71-1.62,1.27-2.98,1.65-3.93,2.3-5.71,4.05-18.49-1.5-22.63-4.06-3.02-10.67-.43-13.96.86-3.9,1.53-11.65,5.41-24.7,25.32-3.5,5.34-7.98,12.75-12.5,22.06Z"/>
          <path class="cls-5" d="M427.02,231.95c6.12,1.67,13.92,3.22,23.04,3.72,9.85.53,18.33-.34,24.9-1.49,4.97-50.61,9.94-101.23,14.91-151.84-4.03-.61-9.5-1.03-15.9-.34-6.29.68-11.46,2.23-15.23,3.66,1.24,7.96,2.38,19.72,1.08,33.77-1.68,18.08-6.48,30.85-10.13,40.96-5.87,16.25-13.83,39.88-22.66,71.55Z"/>
          <path class="cls-22" d="M494.58,98.6c-3.46,13.91-6.93,27.81-10.39,41.72-2.67-12.54-5.34-25.08-8.01-37.62l6.93-11.84-4.11-3.62-5.11-4.5,15.43-3.71c.98-.12,2.02-.24,3.13-.33v7.61c0,.1,0,.2.01.3-.55,0-1.11.01-1.65.02.04.19.09.38.14.56.18.73.36,1.48.57,2.23.93,3.38,1.98,6.46,3.05,9.18Z"/>
        </g>
      </g>
      <g id="Unterarm-2" data-name="Unterarm">
        <path class="cls-8" d="M502.23,188.04c-5.65-.39-9.9-2.1-11.46-2.9-2.28-1.18-4.08-2.54-5.45-3.78-19.36-2.92-38.72-5.86-58.09-8.79-2.66-.48-4.26-1.66-5-2.32-4.12-3.65-4.58-10.77-1.56-14.77.92-1.21,1.96-1.88,2.44-2.19,3.79-2.41,7.98-1.51,9.1-1.24,18.59,5.49,37.22,10.97,55.81,16.45,3.82-.39,6.81-.78,8.98-1.09,0,0,2.8-.49,7.9.1,1.3.15,2.83.41,3.37,1.48.17.33.24.72.18,1.2-.2,1.64-3.7,3.11-7.3,3.97-1.69.4,1.29,4.69,4.52,5.52,6.09,1.55,11.35-1.81,12.28,1.55,1.09,3.98-7.41,7.38-15.73,6.81Z"/>
      </g>
    </g>
    <g id="Gesicht-2" data-name="Gesicht">
      <g id="Kopf-2" data-name="Kopf">
        <path class="cls-8" d="M532.87,42.02v2.01c0,2.93-2.41,5.34-5.34,5.34-.62,0-1.22-.11-1.77-.31-1.76,7.75-7.25,14.12-14.47,17.1v20.15c0,.31-.01.61-.04.92-.06.53-.14,1.05-.29,1.55-1.09,4-4.76,6.96-9.1,6.96-4.84,0-8.85-3.7-9.36-8.42-.02-.23-.04-.48-.04-.71-.01-.1-.01-.2-.01-.3v-20.07c0-.09,0-.18.01-.27-6.98-3.04-12.27-9.26-14.01-16.81-.42.12-.86.18-1.32.18-2.94,0-5.34-2.4-5.34-5.34v-2c0-1.47.6-2.81,1.57-3.78.96-.96,2.3-1.57,3.77-1.57.23,0,.46.01.69.06v-4.79c0-6.67,2.73-12.73,7.13-17.13s10.46-7.13,17.13-7.13c13.35,0,24.27,10.92,24.27,24.26v4.9c.38-.09.76-.13,1.17-.13,2.93,0,5.34,2.4,5.34,5.34Z"/>
      </g>
      <g id="Schatten-2" data-name="Schatten">
        <path class="cls-15" d="M475.74,40.55c-.38,0-.91,1.52-.5,2.91.29.99,1.1,1.99,1.42,1.86.62-.25-.27-4.77-.92-4.77Z"/>
        <path class="cls-15" d="M511.29,66.16c-1.42.68-3.42,1.46-5.93,1.88-2.86.48-5.29.32-6.95.07,4.29,3.2,8.58,6.39,12.88,9.59,0-1.06,0-1.98,0-2.72,0-.61,0-.66,0-3.4,0-1.55,0-1.97,0-2.3,0-.1,0-.15,0-.23,0-.63,0-1.57,0-2.88Z"/>
        <path class="cls-15" d="M528.41,40.67c.38,0,.91,1.52.5,2.91-.29.99-1.1,1.99-1.42,1.86-.62-.25.27-4.77.92-4.77Z"/>
      </g>
      <path class="cls-29" d="M502.47,39.69c0,.85-.03,1.42-.03,2.27-.03.33-.06.99-.19,1.4-.36,1.12-1.14,1.77-1.57,2.16-1.12,1.02-1.16,1.86-.88,2.51.37.87,2.08,1.42,3.84.45"/>
      <g id="Augen-2" data-name="Augen">
        <rect class="cls-11" x="490.88" y="32.18" width="3.88" height="4.55" rx="1.94" ry="1.94" transform="translate(985.64 68.91) rotate(180)"/>
        <rect class="cls-11" x="509.84" y="32.18" width="3.88" height="4.55" rx="1.94" ry="1.94" transform="translate(1023.56 68.91) rotate(180)"/>
      </g>
      <g id="Augenbrauen-2" data-name="Augenbrauen">
        <rect class="cls-1" x="488.17" y="25.22" width="9.3" height="2.59" rx=".79" ry=".79" transform="translate(983.9 75.69) rotate(-177.36)"/>
        <rect class="cls-1" x="507.13" y="25.22" width="9.3" height="2.59" rx=".79" ry=".79" transform="translate(1024.24 29.45) rotate(177.36)"/>
      </g>
      <g id="Mund_Bart" data-name="Mund + Bart">
        <ellipse class="cls-25" cx="501.6" cy="56.01" rx="6.03" ry="2.03"/>
        <path class="cls-1" d="M516.63,55.33c-.98.65-2.33,1.35-4.03,1.69-5.41,1.09-9.8-2.24-10.82-3.07-1.02.83-5.42,4.17-10.82,3.07-1.7-.34-3.05-1.04-4.05-1.69,1.18-.17,2.84-.49,4.7-1.22,4.1-1.63,5.96-3.98,8.25-3.32.55.15,1.24.52,1.92,1.4.69-.88,1.37-1.25,1.92-1.4,2.29-.66,4.15,1.69,8.25,3.32,1.86.73,3.5,1.05,4.69,1.22Z"/>
      </g>
      <path class="cls-1" d="M526.45,36.77c-.41.5-3.37,1.37-3.37,1.19,0-1.16,1.35-6.85-.87-13.84-.94-2.94-2.53-4.95-3.44-6.61-10.37,6.42-29.54,9.22-36.49,3.14-.1,1.28-.13,1.98-.25,3.1-1.02,9.14-1.95,12.84-2.56,14.13l-1.69-.76c-1.38-2.47-1.17-10.06-.74-12.24.65-3.25,1.69-6.17,2.73-8.39-.57-1.99-.67-4.37.04-6.5,1.34-4.01,5.08-5.96,7.45-7.19,6.73-3.49,13.45-2.82,15.29-2.6,6.88.83,7.1,3.49,13.4,3.46,4.26-.02,6.93-1.26,8.64.43,1.88,1.85.95,5.56.87,5.9-.33,1.34-1.08,2.63-2.18,3.85,2.48,2.24,4.19,5.97,5.35,11.19.35,1.58.57,8.36-2.18,11.74Z"/>
    </g>
  </g>
  <g id="Person:_Mitte" data-name="Person: Mitte">
    <g id="Körper-5" data-name="Körper">
      <g id="Körper-6" data-name="Körper">
        <path class="cls-13" d="M426.02,533.23c-.13,4.36-10.47,8.01-18.95,7.41-3.4-.24-11.14-.81-13.81-6.61-1.46-3.16-.77-6.52.09-8.85.78-2.09.86-4.38.13-6.49-5.18-15.08-10.11-32.02-14.19-50.7-5.95-27.25-8.74-52.12-9.84-73.53h.02c-.67-1.88-1-3.88-.9-5.98-.27-.67-.49-1.37-.65-2.09-5.84-9.97-11.74-21.26-17.19-33.89-11.57-26.93-17.76-51.97-21.08-72.57-1.13.29-2.2.53-3.18.74-1.74,20.07-5.81,44.13-14.47,70.24-4.36,13.06-9.26,24.81-14.22,35.24-.13.87-.32,1.71-.6,2.54.11,1.69-.06,3.34-.49,4.92h.03c.82,21.41.24,46.44-3.29,74.12-2.43,19.05-5.9,36.4-9.77,51.88-.39,1.58-.24,3.22.38,4.72.53,1.29.92,2.93.54,4.69-1.24,5.86-9.76,7.4-10.68,7.56-9.31,1.68-18.85-4.75-18.46-7.99.12-1.02,1.18-1.29,3.33-4.41.39-.56.73-1.11,1.03-1.59.69-1.15,1.03-2.47,1-3.8-.4-15.71-.45-32.03-.07-48.94.62-27.57,2.33-53.65,4.76-78.05-.33-2.42-.1-4.8.6-7-.07-.94-.03-1.86.07-2.75h-.02c-1.33-17.82-1.97-37.47-1.35-58.69.71-25.06,3-47.92,6.06-68.17.02,0,.03.02.06.02,0,0,0-.05,0-.05,1.45-27.55,6.29-44.89,8.65-58.48,1.8-10.34,3.4-25.55,1.69-45.09-4.26,2.63-9.71,5.81-16.95,10.09-2.66,1.57-19.17,11.34-40.57,19.91-3.94,1.58-9.44,3.76-13.8,1.13-6.31-3.8-7.11-11.76-5.27-15.28.8-1.53,2.1-2.72,2.1-2.72,0,0,.31-.3.64-.58,15.07-12.58,34.4-25.62,34.4-25.62,23.52-15.86,25.06-17.1,33.53-20.44,1.26-.5,2.97-.99,4.89-1.35-.01-.28-.03-.54-.04-.81,10.81-2.87,25.6-5.66,43.24-5.68,11.84-.02,22.41,1.2,31.36,2.87,1.78-.99,3.79-1.68,5.96-1.97,6.71-.87,12.89,2.3,15.71,7.51.02,0,.02-.04.04-.02,9.21,14.41,13.09,22.85,17.5,30.29,0,0,1.51,2.58,7.76,13.76,9.73,17.42,12.37,22.78,10.56,28.46-.24.75-1.91,5.76-6.23,7.2-4.41,1.47-10.22-1.25-14.34-7.03-8.77-10.03-16.97-20.22-24.48-30.65.33,9.24,1.05,19.03,2.3,29.32,2.94,24.17,8.13,45.49,13.91,63.56.02.02.02.08.02.1.03,0,.03-.02.06-.02,4.79,19.92,9.03,42.49,11.88,67.4,2.42,21.09,3.48,40.72,3.68,58.6h-.02c.24,1.2.35,2.5.29,3.81.77,2.01,1.15,4.2,1.04,6.47,4.64,24.01,8.66,49.82,11.66,77.32.61,5.65,1.84,14.03,2.39,25.21.46,9.33.4,17.52.14,24.18-.17,4.6,2.34,8.81,6.36,11.04,2.71,1.53,5.13,3.48,5.06,5.62Z"/>
      </g>
      <g id="Schuhe-3" data-name="Schuhe">
        <path class="cls-1" d="M438.84,531.12c-7.89-2.28-13.97-5.14-20.16-6.86-.38.15-.77.3-1.21.46-2.72.99-6.67,2.03-11.49,2.11-5.31.05-9.61-1.1-12.45-2.14-.4-.14-.76-.29-1.1-.42-.84,1.84-1.78,4.2-2.44,6.98-.73,3.11-.97,5.89-.97,8.04v3.43h67.49v-3.43s-.54-3.21-17.66-8.16Z"/>
        <path class="cls-1" d="M288.2,531.25c-.65-2.78-1.6-5.14-2.44-6.98-.45.18-.94.38-1.5.57-2.83.99-6.97,2.05-12.04,2-5.59-.08-10.01-1.48-12.7-2.57-.34.1-.68.19-1.02.3h-.01c-5.85,1.73-11.68,4.41-19.13,6.56-17.11,4.95-17.66,8.16-17.66,8.16v3.43h67.47v-3.43c0-2.14-.24-4.93-.97-8.04Z"/>
      </g>
      <g id="Hose-3" data-name="Hose">
        <path class="cls-19" d="M327.19,284.4c-4.3,27.7-8.5,55.41-12.63,83.15-7.48,50.3-14.67,100.64-21.58,151.02-5.32-1.21-11.75-2.27-19.07-2.63-6.69-.33-12.69-.04-17.75.52-5.2-43.67-7.93-97.19-3.16-157.86,3.81-48.59,11.64-91.56,20.52-127.87,13.64,2.69,30.15,4.9,48.93,5.26,1.47.04,2.92.05,4.36.05l.38,48.36Z"/>
        <path class="cls-7" d="M424.02,513.83c-5.7-.36-12.15-.44-19.21,0-7.55.47-14.35,1.46-20.26,2.62-11.49-48.3-23.24-96.55-35.25-144.71-7.28-29.14-14.65-58.25-22.11-87.35l-.38-48.36c18.99.05,35.64-1.84,49.32-4.26,11.71,32.88,22.94,70.91,31.57,113.66,12.9,63.84,16.59,121.15,16.32,168.4Z"/>
      </g>
      <g id="Oberteil-3" data-name="Oberteil">
        <path class="cls-28" d="M326.74,269.69c-.85,0-1.71-.01-2.58-.02-24.18-.32-44.7-3.95-60.37-7.9,1.53-13.32,3.87-30.97,7.48-51.7,3.81-21.83,6.26-29.77,7.51-44.19.09-1.02.17-2.02.23-3.03-6.32,3.77-12.34,5.34-15.25,5.99-7.42-11.33-14.82-22.67-22.24-34,0-.11,20.01-13.34,21.75-14.4,4.08-2.45,8.43-4.45,12.96-5.94h0c2.67-.95,5.77-1.85,9.25-2.54,4.75-.95,9.04-1.29,12.65-1.34,1.16,1.34,9.22,10.3,22.48,10.27.53,0,1.04-.01,1.55-.06l4.58,148.86Z"/>
        <path class="cls-19" d="M382.18,206.51c2.89,12.89,6.28,31.8,7.51,55.66-16.08,3.94-37.55,7.58-62.95,7.52l-4.58-148.86c13.13-.73,20.79-10.18,21.74-11.4,3.58-.15,7.74-.11,12.34.38,4.92.52,9.26,1.41,12.92,2.39,0,.07-.01.14-.01.21.11.02.23.04.34.08,8.28,2.1,16.49,12.61,19.28,16.38,3.77,5.1,8.64,12.73,12.62,23.04-9.71,5.05-19.4,10.11-29.09,15.19,2.67,13.53,6.14,22.73,9.88,39.43Z"/>
      </g>
      <path class="cls-13" d="M412.32,191.12c-5.05,21.42-10.08,42.86-15.14,64.28-.02.41-.07.99-.2,1.69-.17.94-.42,1.88-.72,2.65.11,1.71.08,3.69-.23,5.85-.28,1.9-1.46,6.77-4.71,12.04-4.78,7.76-13.21,13.17-16.05,9.66-2.4-2.97,3.94-5.5,6.42-11.91,1.33-3.39-.6-8.78-2.02-7.53-3.05,2.64-6.59,4.83-8.17,3.97-.46-.25-.77-.57-.95-.92-.62-1.17.12-2.69.82-3.95,2.73-4.92,4.94-7.1,4.94-7.1,1.58-1.64,3.71-3.92,6.31-6.88.08-.14.17-.29.25-.43,2.09-21.91,4.18-43.82,6.26-65.73.36-3.01,1.59-4.85,2.29-5.73,3.81-4.83,11.72-5.77,16.37-2.64,1.4.94,2.22,2.06,2.6,2.58,2.93,4.08,2.18,8.82,1.93,10.08Z"/>
    </g>
    <g id="Gesicht-3" data-name="Gesicht">
      <g id="Haare-3" data-name="Haare">
        <path class="cls-22" d="M293.57,39.98c-.4.23-3.52,2.11-4.05,5.89-.43,3.03.97,6.1,3.59,7.92-.5.28-5.54,3.22-6.13,9-.49,4.92,2.45,9.82,7.35,12.03-.21.59-1.02,3.01.15,5.37,1.36,2.73,4.81,4.27,8.44,3.53.62,1.19,2.43,4.22,6.14,5.99,6.04,2.88,11.89-.09,12.59-.46.41.19,8.29,3.74,14.73-.77,3.09-2.16,4.4-5.17,4.91-6.6,1.08-.15,4.26-.73,7.04-3.43,3.01-2.92,3.58-6.43,3.71-7.47.23-.25,4.92-5.49,2.97-11.76-1.13-3.63-3.86-5.58-4.81-6.2.52-1.33,2.06-5.73.44-10.95-1.28-4.13-3.87-6.62-5.04-7.62-.42-1.19-1.6-4.01-4.51-6.31-2.76-2.18-5.59-2.73-6.84-2.9-5.93-.87-11.87-1.74-17.8-2.61-3.84,1.79-7.67,3.58-11.51,5.37-1.28.14-3.99.63-6.55,2.67-4.25,3.38-4.74,8.36-4.81,9.3Z"/>
      </g>
      <g id="Kopf-3" data-name="Kopf">
        <path class="cls-13" d="M355.18,62.31v2.13c0,3.13-2.55,5.69-5.68,5.69-1.06,0-2.05-.29-2.9-.8-1.69,8.33-7.43,15.24-15.06,18.56.01.1.01.2.01.3v21.38c0,5.52-4.52,10.04-10.04,10.04s-10.04-4.52-10.04-10.04v-21.47c-7.76-3.21-13.65-10.09-15.45-18.46-.71.32-1.47.49-2.28.49-3.13,0-5.69-2.56-5.69-5.69v-2.13c0-3.13,2.56-5.69,5.69-5.69.59,0,1.16.09,1.69.25v-5.23c0-14.2,11.63-25.83,25.83-25.83,7.11,0,13.56,2.91,18.25,7.59,4.69,4.68,7.59,11.14,7.59,18.24v5.51c.72-.34,1.53-.53,2.38-.53,1.57,0,2.98.64,4.01,1.67,1.03,1.04,1.67,2.47,1.67,4.02Z"/>
      </g>
      <g id="Schatten-3" data-name="Schatten">
        <path class="cls-4" d="M331.5,87.94c-1.54.68-3.65,1.43-6.24,1.84-3.01.48-5.58.33-7.41.08,4.57,3.4,9.14,6.8,13.71,10.21,0-1.12,0-2.1,0-2.9,0-.65,0-.7,0-3.63,0-2.04,0-2.24,0-2.69-.01-1.24-.05-2.25-.07-2.91Z"/>
        <path class="cls-4" d="M350.32,60.78c.4,0,.97,1.62.53,3.1-.31,1.06-1.17,2.12-1.51,1.98-.66-.27.28-5.08.98-5.08Z"/>
        <path class="cls-4" d="M292.57,60.78c-.4,0-.97,1.62-.53,3.1.31,1.06,1.17,2.12,1.51,1.98.66-.27-.28-5.08-.98-5.08Z"/>
      </g>
      <g id="Augenbrauen-3" data-name="Augenbrauen">
        <path class="cls-22" d="M315.19,49.19c-.76-.21-2.16-.48-3.85-.17-2.13.39-3.55,1.48-4.16,2.01-1.34-.33-1.72-.76-1.8-1.13-.26-1.26,2.77-3.38,5.86-3.78,2.08-.27,4.82.15,5.08,1.26.13.57-.43,1.23-1.13,1.8Z"/>
        <path class="cls-22" d="M335.12,48.28c-.57-.55-1.65-1.46-3.29-2.01-2.05-.69-3.82-.42-4.61-.25-1.01-.94-1.14-1.5-1.03-1.86.38-1.23,4.06-1.62,6.96-.48,1.95.77,4.15,2.47,3.83,3.56-.16.57-.97.87-1.86,1.03Z"/>
      </g>
      <g id="Augen-3" data-name="Augen">
        <rect class="cls-11" x="329.14" y="51.91" width="4.13" height="4.85" rx="2.06" ry="2.06"/>
        <rect class="cls-11" x="308.87" y="51.91" width="4.13" height="4.85" rx="2.06" ry="2.06"/>
      </g>
      <g id="Mund-2" data-name="Mund">
        <path class="cls-25" d="M329.34,76.04c-1.62,3.02-4.65,4.96-7.93,5.03-3.82.07-6.3-2.42-6.73-2.86,2.13-.43,4.37-.83,6.7-1.18,2.77-.42,5.43-.74,7.96-.98Z"/>
      </g>
      <g id="Nase-2" data-name="Nase">
        <path class="cls-29" d="M320.99,60.01c0,.91.03,1.51.03,2.42.03.35.07,1.06.21,1.49.38,1.19,1.22,1.88,1.67,2.3,1.19,1.09,1.24,1.98.94,2.68-.39.93-2.22,1.51-4.09.47"/>
      </g>
      <g id="Haare-4" data-name="Haare">
        <path class="cls-22" d="M293.78,42.07c2.42,2.35,5.74,2.17,6.39,2.13,1.11,1.22,2.2,1.88,2.93,2.25,3.94,1.98,8.67.96,11.74-1.15,1.03-.71,1.75-1.46,2.19-1.96,1.4.48,3.99,1.13,7.01.4.74-.18,6.17-1.49,7.37-5.76.35-1.25.23-2.38.08-3.15.7.32,3.1,1.33,5.81.45,3.19-1.04,5.91-4.39,5.4-8.23-.42-3.16-2.92-5.78-6.22-6.45-.41-.6-2.36-3.26-6.09-4.08-3.7-.81-6.55.76-7.19,1.13-1.05-.42-4.51-1.64-8.7-.44-4.01,1.15-6.25,3.82-6.96,4.73-.36-.15-2.9-1.15-5.59.21-2.69,1.37-3.38,4.01-3.47,4.39-.74.29-4.5,1.82-6.09,5.86-.12.3-2.29,6.09,1.38,9.67Z"/>
      </g>
    </g>
    <g id="Icon">
      <g id="Klemmmappe">
        <path class="cls-17" d="M352.24,132.85l-18.02,3.37-51.19,9.56-18.46,3.45,23.24,124.36,87.68-16.38-23.25-124.36ZM287.18,169.28l.04.22h-.01s-.04-.22-.04-.22h.01Z"/>
        <rect class="cls-12" x="282.72" y="137.04" width="52.08" height="9.36" transform="translate(-20.78 59.13) rotate(-10.59)"/>
      </g>
      <g id="Tabelle">
        <path class="cls-3" d="M362.1,229.63l-14.05-75.18-.2-1.08-1.09.2-69.35,12.97-1.09.2.21,1.09,14.05,75.18.2,1.08,1.08-.21,69.36-12.96,1.08-.21-.2-1.08ZM359.65,222.53l-.14.02-30.2,5.65-1.16-6.22,30.34-5.66,1.16,6.21ZM291.27,185.14l27.88-5.22,1.16,6.21-27.88,5.22h-.01l-1.16-6.21h.01ZM291.06,184.04l-1.16-6.21,27.89-5.22,1.16,6.22-27.89,5.21ZM292.63,192.43l27.89-5.21,1.16,6.21-27.89,5.22h-.01l-1.16-6.21h.01ZM294,199.74l27.88-5.22,1.16,6.22-27.88,5.21h-.01s-1.16-6.21-1.16-6.21h.01ZM295.36,207.04l27.89-5.22,1.06,5.69-27.88,5.22h-.02l-1.06-5.69h.01ZM296.64,213.82l27.88-5.21,1.07,5.69-27.89,5.21.21,1.08,27.88-5.21,1.06,5.71-27.88,5.21h-.01l-1.07-5.7-.2-1.08-1.06-5.69h.01ZM299.18,227.4l27.88-5.21,1.16,6.21-27.88,5.22h-.02l-1.16-6.22h.02ZM358.3,215.25l-.14.02-30.21,5.63-1.06-5.7,30.34-5.67,1.07,5.73ZM357.01,208.43l-30.34,5.67-1.06-5.69,30.34-5.67,1.06,5.69ZM355.74,201.65l-30.33,5.67-1.06-5.69,30.33-5.67,1.06,5.69ZM354.48,194.86l-30.34,5.67-1.16-6.21,30.34-5.67,1.16,6.21ZM353.11,187.57l-30.33,5.67-1.16-6.22,30.33-5.67,1.16,6.22ZM351.75,180.26l-30.34,5.67-1.16-6.21,30.34-5.67,1.16,6.21ZM350.38,172.95l-30.33,5.67-1.16-6.21,30.33-5.67,1.16,6.21ZM349.02,165.66l-30.34,5.67-1.18-6.36,30.33-5.67,1.19,6.36ZM346.96,154.66l.66,3.56-30.33,5.67-.04-.22-.62-3.29v-.04s30.33-5.67,30.33-5.67ZM317.58,171.53l-27.88,5.22h-.01l-1.18-6.36h.01l27.88-5.22,1.18,6.36ZM315.53,160.53v.06s.63,3.28.63,3.28l.04.22-27.89,5.22-.04-.23-.61-3.28v-.06s27.87-5.21,27.87-5.21ZM278.26,171.19l-.66-3.57,8.96-1.67v.06s.62,3.28.62,3.28l.04.22h-.01s-8.85,1.66-8.85,1.66l-.1.02ZM279.66,178.61l-1.18-6.35.09-.02,8.85-1.65h.02s1.18,6.34,1.18,6.34h-.01l-8.87,1.66h-.09ZM281.03,185.92l-1.17-6.22h.1s8.85-1.67,8.85-1.67h.01l1.16,6.22h-.01l-8.85,1.66h-.09ZM282.39,193.22l-1.16-6.21h.09s8.87-1.67,8.87-1.67h.01l1.16,6.21h-.01l-8.87,1.66h-.09ZM283.75,200.52l-1.16-6.21h.1s8.85-1.67,8.85-1.67h.01l1.16,6.21h-.01l-8.85,1.66h-.1ZM285.12,207.83l-1.16-6.22h.09s8.87-1.67,8.87-1.67h.01l1.16,6.22h-.01l-8.87,1.66h-.09ZM286.38,214.61l-1.06-5.69h.09s8.87-1.67,8.87-1.67h.01l1.07,5.69h-.02l-8.85,1.66h-.1ZM287.65,221.39l-1.06-5.69h.09s8.87-1.67,8.87-1.67h.01l1.06,5.69h-.01l-8.87,1.66h-.09ZM288.92,228.19l-1.06-5.71h.09s8.87-1.67,8.87-1.67h.01l1.06,5.7h-.01l-8.87,1.66-.09.02ZM290.29,235.5l-1.17-6.22.1-.02,8.85-1.65h.02s1.16,6.21,1.16,6.21h-.01l-8.87,1.66-.09.02ZM291.65,242.79l-1.16-6.21.09-.02,8.87-1.66h.01l1.16,6.21-8.96,1.68ZM301.7,240.91h-.01l-1.16-6.21h.01l27.88-5.22,1.16,6.22-27.88,5.21ZM330.67,235.51l-1.16-6.22,30.2-5.65.14-.02,1.16,6.22-30.34,5.67Z"/>
        <polygon class="cls-14" points="291.35 191.55 291.34 191.55 282.48 193.2 282.39 193.22 281.23 187 281.31 186.99 290.18 185.33 290.19 185.33 291.35 191.55"/>
        <polygon class="cls-14" points="347.63 158.22 317.3 163.89 317.25 163.67 316.63 160.37 316.62 160.33 346.96 154.66 347.63 158.22"/>
        <polygon class="cls-14" points="316.2 164.09 288.31 169.31 288.27 169.07 287.66 165.79 287.65 165.74 315.53 160.53 315.54 160.58 316.16 163.87 316.2 164.09"/>
        <polygon class="cls-14" points="300.61 241.11 291.65 242.79 290.49 236.58 290.58 236.56 299.44 234.9 299.45 234.9 300.61 241.11"/>
        <polygon class="cls-14" points="299.26 233.82 299.24 233.82 290.38 235.48 290.29 235.5 289.12 229.27 289.22 229.25 298.07 227.61 298.09 227.59 299.26 233.82"/>
        <polygon class="cls-14" points="297.88 226.51 297.87 226.51 289.01 228.17 288.92 228.19 287.86 222.48 287.95 222.47 296.81 220.81 296.82 220.81 297.88 226.51"/>
        <polygon class="cls-14" points="287.23 169.5 287.22 169.52 278.36 171.16 278.26 171.19 277.6 167.61 286.57 165.95 286.58 166 287.18 169.28 287.23 169.5"/>
        <polygon class="cls-14" points="288.62 176.94 288.61 176.94 279.74 178.6 279.66 178.61 278.47 172.27 278.56 172.25 287.42 170.6 287.44 170.59 288.62 176.94"/>
        <polygon class="cls-14" points="296.61 219.72 296.6 219.72 287.74 221.38 287.65 221.39 286.59 215.7 286.68 215.69 295.54 214.03 295.55 214.03 296.61 219.72"/>
        <polygon class="cls-14" points="295.35 212.94 295.33 212.94 286.48 214.59 286.38 214.61 285.32 208.91 285.4 208.9 294.27 207.24 294.28 207.24 295.35 212.94"/>
        <polygon class="cls-14" points="294.08 206.16 294.07 206.16 285.21 207.82 285.12 207.83 283.96 201.61 284.05 201.6 292.91 199.94 292.92 199.94 294.08 206.16"/>
        <polygon class="cls-14" points="292.71 198.85 292.7 198.85 283.85 200.51 283.75 200.52 282.59 194.31 282.69 194.3 291.54 192.64 291.55 192.64 292.71 198.85"/>
        <polygon class="cls-14" points="289.98 184.25 289.97 184.25 281.12 185.91 281.03 185.92 279.86 179.7 279.95 179.69 288.81 178.03 288.82 178.03 289.98 184.25"/>
      </g>
      <path class="cls-13" d="M291.94,226.65c-2.43,4.89-14.28,1.79-15.1,1.64-2.01-.36-7.03-1.5-12.17-5.33-3.54-2.64-6.17-4.59-7.47-6.57-16.09-11.44-32.18-22.9-48.27-34.33-1.01-.78-4.7-3.85-5.2-8.85-.07-.63-.19-2.01.24-3.65,1.44-5.42,7.99-9.93,14.05-8.82,2.88.52,4.83,2.2,5.48,2.79,15.14,13.51,29.27,28.13,44.24,41.83.54.06,1.09.14,1.66.24,2.35.41,4.43.97,6.19,1.56.4,2.39.81,4.78,1.2,7.16,0,0,.06.17.29.29,2.6,1.37,7.24,2.67,7.24,2.67,4.97,1.4,7.12,4.13,7.62,5.26.04.09.07.17.1.24.12.38.72,2.22-.1,3.87Z"/>
    </g>
    <g id="Brille">
      <path class="cls-16" d="M347.16,49.67h-20.62c-2,0-3.63,1.64-3.63,3.64v1.18l-3.84.02v-1.21c0-2-1.62-3.64-3.63-3.64h-20.62c-2,0-3.63,1.64-3.63,3.64v5.69c0,2,1.63,3.63,3.63,3.63h20.62c2,0,3.63-1.63,3.63-3.63v-3.38l3.84-.02v3.4c0,2,1.62,3.63,3.63,3.63h20.62c2,0,3.63-1.63,3.63-3.63v-5.69c0-2-1.62-3.64-3.63-3.64ZM317.98,59c0,1.39-1.13,2.52-2.52,2.52h-20.62c-1.38,0-2.52-1.13-2.52-2.52v-5.69c0-1.39,1.14-2.53,2.52-2.53h20.62c1.39,0,2.52,1.14,2.52,2.53v5.69ZM349.68,59c0,1.39-1.14,2.52-2.52,2.52h-20.62c-1.39,0-2.52-1.13-2.52-2.52v-5.69c0-1.39,1.13-2.53,2.52-2.53h20.62c1.38,0,2.52,1.14,2.52,2.53v5.69Z"/>
    </g>
  </g>
</svg>