<?xml version="1.0" encoding="UTF-8"?>
<svg id="G-0158_BUW_Haus_Name" xmlns="http://www.w3.org/2000/svg" viewBox="0 0 944.05 566.29">
  <defs>
    <style>
      .cls-1 {
        fill: #eee;
      }

      .cls-1, .cls-2, .cls-3, .cls-4, .cls-5, .cls-6, .cls-7, .cls-8, .cls-9, .cls-10, .cls-11, .cls-12 {
        stroke-width: 0px;
      }

      .cls-2 {
        fill: #42210b;
      }

      .cls-3 {
        fill: #a5678d;
      }

      .cls-4 {
        fill: #64abd6;
      }

      .cls-5 {
        fill: #e6710a;
      }

      .cls-6 {
        fill: #873567;
      }

      .cls-7 {
        fill: #fcd9bd;
      }

      .cls-8 {
        fill: #f3ebf0;
      }

      .cls-9 {
        fill: #308fc9;
      }

      .cls-10 {
        fill: #ec9447;
      }

      .cls-11 {
        fill: #603813;
      }

      .cls-12 {
        fill: #e1ccd9;
      }
    </style>
  </defs>
  <g id="Hintergrund">
    <rect class="cls-8" width="944.05" height="566.29"/>
    <g id="Tür">
      <rect class="cls-3" x="460.29" width="411.61" height="566.29"/>
      <rect class="cls-1" x="474.37" width="383.45" height="566.29"/>
      <polygon class="cls-3" points="858.09 0 858.09 566.29 572.35 566.29 572.35 38.96 740.41 0 858.09 0"/>
      <g>
        <ellipse class="cls-6" cx="595.18" cy="399.57" rx="8.51" ry="18.96"/>
        <ellipse class="cls-6" cx="595.18" cy="399.57" rx="3.11" ry="6.92"/>
        <ellipse class="cls-6" cx="629.63" cy="406.49" rx="3.11" ry="6.92"/>
        <path class="cls-6" d="M595.18,392.65l34.45,6.92v13.84c-11.48-2.31-22.97-4.61-34.45-6.92v-13.84Z"/>
        <ellipse class="cls-6" cx="595.18" cy="453.72" rx="4.6" ry="10.25"/>
      </g>
    </g>
  </g>
  <g id="Schild">
    <path class="cls-12" d="M166.71,185.57c-1.16-1.3-2.69-1.94-4.59-1.94s-3.45.64-4.6,1.96c-1.18,1.31-1.76,3.27-1.76,5.92s.6,4.55,1.81,5.88c1.19,1.35,2.7,2.01,4.55,2.01s3.36-.66,4.55-1.99c1.17-1.32,1.76-3.31,1.76-5.98s-.57-4.58-1.72-5.86ZM166.71,185.57c-1.16-1.3-2.69-1.94-4.59-1.94s-3.45.64-4.6,1.96c-1.18,1.31-1.76,3.27-1.76,5.92s.6,4.55,1.81,5.88c1.19,1.35,2.7,2.01,4.55,2.01s3.36-.66,4.55-1.99c1.17-1.32,1.76-3.31,1.76-5.98s-.57-4.58-1.72-5.86ZM166.71,185.57c-1.16-1.3-2.69-1.94-4.59-1.94s-3.45.64-4.6,1.96c-1.18,1.31-1.76,3.27-1.76,5.92s.6,4.55,1.81,5.88c1.19,1.35,2.7,2.01,4.55,2.01s3.36-.66,4.55-1.99c1.17-1.32,1.76-3.31,1.76-5.98s-.57-4.58-1.72-5.86ZM166.71,185.57c-1.16-1.3-2.69-1.94-4.59-1.94s-3.45.64-4.6,1.96c-1.18,1.31-1.76,3.27-1.76,5.92s.6,4.55,1.81,5.88c1.19,1.35,2.7,2.01,4.55,2.01s3.36-.66,4.55-1.99c1.17-1.32,1.76-3.31,1.76-5.98s-.57-4.58-1.72-5.86ZM166.71,185.57c-1.16-1.3-2.69-1.94-4.59-1.94s-3.45.64-4.6,1.96c-1.18,1.31-1.76,3.27-1.76,5.92s.6,4.55,1.81,5.88c1.19,1.35,2.7,2.01,4.55,2.01s3.36-.66,4.55-1.99c1.17-1.32,1.76-3.31,1.76-5.98s-.57-4.58-1.72-5.86ZM249.7,185.41l-3.09,8.49h6.23l-3.14-8.49ZM249.7,185.41l-3.09,8.49h6.23l-3.14-8.49ZM166.71,185.57c-1.16-1.3-2.69-1.94-4.59-1.94s-3.45.64-4.6,1.96c-1.18,1.31-1.76,3.27-1.76,5.92s.6,4.55,1.81,5.88c1.19,1.35,2.7,2.01,4.55,2.01s3.36-.66,4.55-1.99c1.17-1.32,1.76-3.31,1.76-5.98s-.57-4.58-1.72-5.86ZM166.71,185.57c-1.16-1.3-2.69-1.94-4.59-1.94s-3.45.64-4.6,1.96c-1.18,1.31-1.76,3.27-1.76,5.92s.6,4.55,1.81,5.88c1.19,1.35,2.7,2.01,4.55,2.01s3.36-.66,4.55-1.99c1.17-1.32,1.76-3.31,1.76-5.98s-.57-4.58-1.72-5.86ZM249.7,185.41l-3.09,8.49h6.23l-3.14-8.49ZM249.7,185.41l-3.09,8.49h6.23l-3.14-8.49ZM166.71,185.57c-1.16-1.3-2.69-1.94-4.59-1.94s-3.45.64-4.6,1.96c-1.18,1.31-1.76,3.27-1.76,5.92s.6,4.55,1.81,5.88c1.19,1.35,2.7,2.01,4.55,2.01s3.36-.66,4.55-1.99c1.17-1.32,1.76-3.31,1.76-5.98s-.57-4.58-1.72-5.86ZM166.71,185.57c-1.16-1.3-2.69-1.94-4.59-1.94s-3.45.64-4.6,1.96c-1.18,1.31-1.76,3.27-1.76,5.92s.6,4.55,1.81,5.88c1.19,1.35,2.7,2.01,4.55,2.01s3.36-.66,4.55-1.99c1.17-1.32,1.76-3.31,1.76-5.98s-.57-4.58-1.72-5.86ZM249.7,185.41l-3.09,8.49h6.23l-3.14-8.49ZM249.7,185.41l-3.09,8.49h6.23l-3.14-8.49ZM166.71,185.57c-1.16-1.3-2.69-1.94-4.59-1.94s-3.45.64-4.6,1.96c-1.18,1.31-1.76,3.27-1.76,5.92s.6,4.55,1.81,5.88c1.19,1.35,2.7,2.01,4.55,2.01s3.36-.66,4.55-1.99c1.17-1.32,1.76-3.31,1.76-5.98s-.57-4.58-1.72-5.86ZM166.71,185.57c-1.16-1.3-2.69-1.94-4.59-1.94s-3.45.64-4.6,1.96c-1.18,1.31-1.76,3.27-1.76,5.92s.6,4.55,1.81,5.88c1.19,1.35,2.7,2.01,4.55,2.01s3.36-.66,4.55-1.99c1.17-1.32,1.76-3.31,1.76-5.98s-.57-4.58-1.72-5.86ZM249.7,185.41l-3.09,8.49h6.23l-3.14-8.49ZM249.7,185.41l-3.09,8.49h6.23l-3.14-8.49ZM166.71,185.57c-1.16-1.3-2.69-1.94-4.59-1.94s-3.45.64-4.6,1.96c-1.18,1.31-1.76,3.27-1.76,5.92s.6,4.55,1.81,5.88c1.19,1.35,2.7,2.01,4.55,2.01s3.36-.66,4.55-1.99c1.17-1.32,1.76-3.31,1.76-5.98s-.57-4.58-1.72-5.86ZM166.71,185.57c-1.16-1.3-2.69-1.94-4.59-1.94s-3.45.64-4.6,1.96c-1.18,1.31-1.76,3.27-1.76,5.92s.6,4.55,1.81,5.88c1.19,1.35,2.7,2.01,4.55,2.01s3.36-.66,4.55-1.99c1.17-1.32,1.76-3.31,1.76-5.98s-.57-4.58-1.72-5.86ZM249.7,185.41l-3.09,8.49h6.23l-3.14-8.49ZM249.7,185.41l-3.09,8.49h6.23l-3.14-8.49ZM166.71,185.57c-1.16-1.3-2.69-1.94-4.59-1.94s-3.45.64-4.6,1.96c-1.18,1.31-1.76,3.27-1.76,5.92s.6,4.55,1.81,5.88c1.19,1.35,2.7,2.01,4.55,2.01s3.36-.66,4.55-1.99c1.17-1.32,1.76-3.31,1.76-5.98s-.57-4.58-1.72-5.86ZM118.16,135.41v112.6h198.02v-112.6H118.16ZM284.2,180.06h16.97v3.87h-12.35v5.09h11.5v3.85h-11.5v6.24h12.8v3.86h-17.42v-22.91ZM264.31,182.83c1.97-2.1,4.55-3.16,7.77-3.16,2.79,0,5.06.83,6.82,2.49,1.05.97,1.82,2.38,2.35,4.21l-4.59,1.1c-.26-1.19-.83-2.13-1.69-2.81-.87-.69-1.9-1.03-3.12-1.03-1.71,0-3.08.6-4.15,1.81-1.04,1.23-1.58,3.2-1.58,5.94,0,2.9.52,4.96,1.57,6.19,1.03,1.22,2.4,1.83,4.05,1.83,1.23,0,2.29-.39,3.18-1.16.89-.78,1.51-2.02,1.9-3.7l4.48,1.43c-.67,2.5-1.83,4.35-3.43,5.56-1.6,1.23-3.62,1.83-6.08,1.83-3.04,0-5.54-1.05-7.5-3.13-1.95-2.06-2.93-4.9-2.93-8.51,0-3.82.98-6.77,2.95-8.89ZM148.65,202.97h-16.14v-22.72h4.64v18.86h11.5v3.86ZM170.21,200.23c-2.01,2.08-4.71,3.13-8.07,3.13s-6.12-1.05-8.13-3.13c-2-2.06-3.02-4.92-3.02-8.58,0-2.33.36-4.29,1.05-5.87.53-1.17,1.23-2.22,2.13-3.14.91-.93,1.89-1.62,2.97-2.07,1.42-.6,3.08-.9,4.94-.9,3.36,0,6.07,1.05,8.09,3.14,2.03,2.1,3.04,5.02,3.04,8.73s-.99,6.59-3,8.69ZM187.61,202.97h-4.94l-8.2-22.91h5.03l5.8,16.96,5.6-16.96h4.9l-8.19,22.91ZM215.59,202.97h-17.42v-22.91h16.99v3.87h-12.37v5.09h11.5v3.85h-11.5v6.24h12.8v3.86ZM235.76,202.97h-16.12v-22.72h4.62v18.86h11.5v3.86ZM254.34,197.76h-9.16l-1.9,5.21h-4.9l8.92-22.91h4.9l9.16,22.91h-5.03l-1.99-5.21ZM246.61,193.9h6.23l-3.14-8.49-3.09,8.49ZM162.12,183.63c-1.9,0-3.45.64-4.6,1.96-1.18,1.31-1.76,3.27-1.76,5.92s.6,4.55,1.81,5.88c1.19,1.35,2.7,2.01,4.55,2.01s3.36-.66,4.55-1.99c1.17-1.32,1.76-3.31,1.76-5.98s-.57-4.58-1.72-5.86c-1.16-1.3-2.69-1.94-4.59-1.94ZM166.71,185.57c-1.16-1.3-2.69-1.94-4.59-1.94s-3.45.64-4.6,1.96c-1.18,1.31-1.76,3.27-1.76,5.92s.6,4.55,1.81,5.88c1.19,1.35,2.7,2.01,4.55,2.01s3.36-.66,4.55-1.99c1.17-1.32,1.76-3.31,1.76-5.98s-.57-4.58-1.72-5.86ZM249.7,185.41l-3.09,8.49h6.23l-3.14-8.49ZM249.7,185.41l-3.09,8.49h6.23l-3.14-8.49ZM166.71,185.57c-1.16-1.3-2.69-1.94-4.59-1.94s-3.45.64-4.6,1.96c-1.18,1.31-1.76,3.27-1.76,5.92s.6,4.55,1.81,5.88c1.19,1.35,2.7,2.01,4.55,2.01s3.36-.66,4.55-1.99c1.17-1.32,1.76-3.31,1.76-5.98s-.57-4.58-1.72-5.86ZM166.71,185.57c-1.16-1.3-2.69-1.94-4.59-1.94s-3.45.64-4.6,1.96c-1.18,1.31-1.76,3.27-1.76,5.92s.6,4.55,1.81,5.88c1.19,1.35,2.7,2.01,4.55,2.01s3.36-.66,4.55-1.99c1.17-1.32,1.76-3.31,1.76-5.98s-.57-4.58-1.72-5.86ZM249.7,185.41l-3.09,8.49h6.23l-3.14-8.49ZM249.7,185.41l-3.09,8.49h6.23l-3.14-8.49ZM166.71,185.57c-1.16-1.3-2.69-1.94-4.59-1.94s-3.45.64-4.6,1.96c-1.18,1.31-1.76,3.27-1.76,5.92s.6,4.55,1.81,5.88c1.19,1.35,2.7,2.01,4.55,2.01s3.36-.66,4.55-1.99c1.17-1.32,1.76-3.31,1.76-5.98s-.57-4.58-1.72-5.86ZM166.71,185.57c-1.16-1.3-2.69-1.94-4.59-1.94s-3.45.64-4.6,1.96c-1.18,1.31-1.76,3.27-1.76,5.92s.6,4.55,1.81,5.88c1.19,1.35,2.7,2.01,4.55,2.01s3.36-.66,4.55-1.99c1.17-1.32,1.76-3.31,1.76-5.98s-.57-4.58-1.72-5.86ZM249.7,185.41l-3.09,8.49h6.23l-3.14-8.49ZM249.7,185.41l-3.09,8.49h6.23l-3.14-8.49ZM166.71,185.57c-1.16-1.3-2.69-1.94-4.59-1.94s-3.45.64-4.6,1.96c-1.18,1.31-1.76,3.27-1.76,5.92s.6,4.55,1.81,5.88c1.19,1.35,2.7,2.01,4.55,2.01s3.36-.66,4.55-1.99c1.17-1.32,1.76-3.31,1.76-5.98s-.57-4.58-1.72-5.86ZM166.71,185.57c-1.16-1.3-2.69-1.94-4.59-1.94s-3.45.64-4.6,1.96c-1.18,1.31-1.76,3.27-1.76,5.92s.6,4.55,1.81,5.88c1.19,1.35,2.7,2.01,4.55,2.01s3.36-.66,4.55-1.99c1.17-1.32,1.76-3.31,1.76-5.98s-.57-4.58-1.72-5.86ZM249.7,185.41l-3.09,8.49h6.23l-3.14-8.49ZM249.7,185.41l-3.09,8.49h6.23l-3.14-8.49ZM166.71,185.57c-1.16-1.3-2.69-1.94-4.59-1.94s-3.45.64-4.6,1.96c-1.18,1.31-1.76,3.27-1.76,5.92s.6,4.55,1.81,5.88c1.19,1.35,2.7,2.01,4.55,2.01s3.36-.66,4.55-1.99c1.17-1.32,1.76-3.31,1.76-5.98s-.57-4.58-1.72-5.86ZM166.71,185.57c-1.16-1.3-2.69-1.94-4.59-1.94s-3.45.64-4.6,1.96c-1.18,1.31-1.76,3.27-1.76,5.92s.6,4.55,1.81,5.88c1.19,1.35,2.7,2.01,4.55,2.01s3.36-.66,4.55-1.99c1.17-1.32,1.76-3.31,1.76-5.98s-.57-4.58-1.72-5.86ZM166.71,185.57c-1.16-1.3-2.69-1.94-4.59-1.94s-3.45.64-4.6,1.96c-1.18,1.31-1.76,3.27-1.76,5.92s.6,4.55,1.81,5.88c1.19,1.35,2.7,2.01,4.55,2.01s3.36-.66,4.55-1.99c1.17-1.32,1.76-3.31,1.76-5.98s-.57-4.58-1.72-5.86ZM166.71,185.57c-1.16-1.3-2.69-1.94-4.59-1.94s-3.45.64-4.6,1.96c-1.18,1.31-1.76,3.27-1.76,5.92s.6,4.55,1.81,5.88c1.19,1.35,2.7,2.01,4.55,2.01s3.36-.66,4.55-1.99c1.17-1.32,1.76-3.31,1.76-5.98s-.57-4.58-1.72-5.86ZM166.71,185.57c-1.16-1.3-2.69-1.94-4.59-1.94s-3.45.64-4.6,1.96c-1.18,1.31-1.76,3.27-1.76,5.92s.6,4.55,1.81,5.88c1.19,1.35,2.7,2.01,4.55,2.01s3.36-.66,4.55-1.99c1.17-1.32,1.76-3.31,1.76-5.98s-.57-4.58-1.72-5.86Z"/>
    <circle class="cls-10" cx="127.52" cy="144.54" r="4.98"/>
    <circle class="cls-10" cx="127.52" cy="238.41" r="4.98"/>
    <circle class="cls-10" cx="306.6" cy="144.54" r="4.98"/>
  </g>
  <g id="Person:_Frau" data-name="Person: Frau">
    <g id="Körper">
      <g>
        <g id="Arme">
          <path class="cls-7" d="M567.85,283.02c-.86,2.65-2.62,8.04-7.61,10.76-4.01,2.17-8.27,1.63-11.37,1.04-16.07-3.05-40.26-15-45-17.36,0,0-10.58-5.6-38.84-15.09-.11-.03-.25-.08-.36-.12-.39-.12-.81-.23-1.2-.38-1.12-.46-2.17-1.09-3.13-1.87-.55-.33-1.05-.71-1.5-1.12h-.04c-23.97-14.77-47.95-29.52-71.92-44.28-1.14-.56-2.23-1.09-3.26-1.58-3.46-1.64-6.25-2.88-8.34-3.78,0,0-3.08-1.22-7.8-4.92-1.2-.94-2.56-2.12-2.45-3.53.04-.42.21-.85.56-1.3,1.2-1.5,5.57-.83,9.68.51,1.92.62,1.57-5.46-1.14-8.25-5.11-5.25-12.39-5.11-11.26-9.02,1.33-4.63,11.86-2.83,19.79,2.82,5.38,3.83,8.57,8.12,9.62,9.87,1.93,3.2,2.96,6.24,3.53,8.55,12.76,5.22,25.82,10.81,39.11,16.8,10.96,4.94,21.57,9.93,31.84,14.95.75,0,1.48.08,2.21.25,0,0,.28.05.42.08,30.46,6.89,60.89,13.82,91.35,20.74.39.12.81.19,1.19.27.06.02.13.04.21.06.69.2,10.24,11.95,5.71,25.9Z"/>
          <path class="cls-7" d="M386.88,214.6c-1.23-.36-2.32-.91-3.26-1.58,1.03.49,2.12,1.02,3.26,1.58Z"/>
          <path class="cls-7" d="M469.55,265.41c-1.09,2.55-2.64,4.77-4.5,6.62l-.04-.02s-.03.08-.11.14c-27.06,27.15-54.14,54.33-81.25,81.5-.09.1-.2.24-.33.32-.34.37-.7.77-1.08,1.12-2.84,2.56-6.57,3.95-10.4,3.85-6.18,1.22-12.38-1.59-15.62-6.79-.06-.11-.13-.23-.19-.34-.33-.62-.65-1.23-.97-1.85l-.05-.16c-8.22-15.76-16.44-32.16-24.58-49.17-8.21-17.16-15.89-33.98-23.06-50.39-1.06-.73-2.9-2.22-4.11-4.73-.38-.77-2.84-6.08.04-10.41,2.61-3.93,8.63-5.52,13.17-2.86,3.75,2.2,5.65,6.81,4.58,11.3,16.84,25.79,33.69,51.59,50.53,77.38,20.91-25.39,41.84-50.76,62.79-76.16.34-.37.66-.79.97-1.17.07-.06.1-.14.18-.2,5.72-6.23,15-8.49,23.2-4.98,10.48,4.48,15.29,16.56,10.83,27Z"/>
        </g>
        <g id="Körper-2" data-name="Körper">
          <path class="cls-7" d="M582.5,566.29h-65.9c-2.14-15.28-4.29-30.57-6.44-45.85-1.58-11.27-3.16-22.53-4.74-33.79-1.17-8.27-2.32-16.52-3.49-24.78,0,0,0-.02-.02-.02h-10.01c-.3.3-.65.57-1.03.79-1.91,8.23-3.82,16.49-5.71,24.72-3.6,15.57-7.2,31.13-10.79,46.69-2.48,10.75-4.96,21.5-7.45,32.24h-65.83c.03-.78.07-1.54.1-2.31,1.29-28.8,4.07-53.01,7.53-73.04,6.54-37.93,15.52-60.8,21.42-71.22.43-.75.84-1.45,1.23-2.08.52-.8.98-1.58,1.38-2.18.17-.33.37-.63.59-.93.01,0,.02-.03.03-.04,7.25-14.49,14.5-28.99,21.74-43.48.63-1.26,1.26-2.52,1.89-3.78,0-.12-.03-.24-.04-.36-3-25.91-6-51.81-9.01-77.71h0c-1.54-13.28-3.08-26.54-4.62-39.81-.41-3.57-.83-7.15-1.24-10.72-.08-.66-.15-1.32-.23-1.98,5.88-.1,12.03-.09,18.43.08.91,0,1.82.04,2.74.07,3.47.1,7.01.24,10.63.44.23.01.47.02.71.04.19.01.37.02.57.03h.01c2.47.14,4.98.3,7.52.49,1.65.12,3.32.25,5,.39,4.27.36,8.63.79,13.06,1.29,6.28.71,12.38,1.54,18.29,2.47,3.54.54,7.02,1.12,10.42,1.73.23.05.45.09.68.13.27.05.55.1.82.15.88.16,1.75.32,2.61.48t.02,0s.02,0,.03,0c.75.14,1.51.29,2.26.44h.01c.9.17,1.79.35,2.68.53h.01c1.85.37,3.66.75,5.46,1.14h.01c6.37,1.35,12.43,2.79,18.2,4.28-.57,1.95-1.14,3.9-1.71,5.85-3.72,12.72-7.45,25.45-11.18,38.18-7,23.95-14.01,47.91-21.03,71.87-.04.16-.09.33-.14.49l2.06,3.22,28.22,44.09-.2.17c.27.2.47.45.7.72v.03c.59,1.27,1.3,2.48,1.3,2.48.68,1.15,1.35,2.34,1.98,3.57,4.23,8.07,7.62,17.7,10.32,28.24,2.82,10.98,4.9,22.95,6.42,35.17,1.48,11.84,2.43,23.91,3.01,35.52.85,16.95.93,32.94.72,45.85Z"/>
        </g>
        <g id="Hose">
          <path class="cls-4" d="M495.98,366.77v105c-1.28,5.08-2.52,10.2-3.78,15.34-2.67,10.95-5.29,22.06-7.85,33.33-.47,2.04-.94,4.09-1.4,6.14-2.93,12.99-5.8,26.19-8.58,39.59-.01.04-.02.08-.02.12h-80.13c1.72-18.05,3.21-33.06,4.62-45.85,1.24-11.24,2.43-20.77,3.68-29.13,3.1-20.97,6.56-34.67,12.06-49.8,2.77-7.57,5.75-14.7,8.86-21.39,3.83-8.27,7.84-15.86,11.83-22.74,1.25-2.14,2.49-4.21,3.74-6.23,3.36-5.46,6.67-10.41,9.81-14.86,1.47-2.07,2.89-4.03,4.26-5.86.92-1.24,1.83-2.43,2.7-3.56h1.18c1.11,0,2.22-.01,3.33-.01,2.11,0,4.21,0,6.32-.02,2.52,0,5.05,0,7.58-.02h.18c2.86,0,5.72,0,8.58-.02,4.26,0,8.53,0,12.8-.03h.23Z"/>
          <path class="cls-9" d="M591.16,566.29h-83.81c-1.54-15.53-3.22-30.82-5.02-45.85-1.36-11.33-2.78-22.51-4.27-33.54-.67-5.08-1.37-10.11-2.08-15.13v-105c10.68,0,21.4-.03,32.13-.03h.99c.9,1.07,1.77,2.13,2.62,3.19h0c14.97,18.34,25.89,35.83,33.9,51.81,2.52,5.02,4.75,9.88,6.73,14.58,6.39,15.12,10.19,28.45,12.59,39.26.66,2.96,1.23,6.02,1.75,9.24,1.6,9.98,2.57,21.4,3.23,35.62.58,12.71.92,27.66,1.24,45.85Z"/>
        </g>
        <g id="Oberteil">
          <path class="cls-10" d="M495.75,249.53v126.34c-1.11.04-2.22.08-3.33.08-19.16.13-34.66-3.8-44.69-7.21-.21-14.21-.68-28.94-1.49-44.13-.43-8.2-.81-14.09-1.03-17.12-.16-2.56-.33-5.37-.51-8.46l-14.39,16.9-38.25-32.57,34.26-40.24c5.35-6.28,13.35-9.03,20.99-8.01,8.17.06,16.36.13,24.54.2,1.92,2.18,10.07,11.02,23.9,14.22Z"/>
          <path class="cls-5" d="M495.75,249.53v126.34c17.33-.51,31.33-4.23,40.68-7.47.4-1.77.79-3.55,1.18-5.34,0,0,.62-2.85,1.15-5.41.81-3.93,3.29-20.62,6.15-43.45,4.83-3.14,12.35-8.97,18.36-18.63,10.46-16.79,9.32-33.81,8.67-39.63-5.4-3.82-13.2-8.39-23.32-11.52-5.53-1.71-10.63-2.64-15.01-3.14-2.56,1.96-14.81,10.93-32.31,9.18-1.96-.21-3.8-.51-5.55-.94Z"/>
        </g>
      </g>
    </g>
    <g id="Haare">
      <path class="cls-7" d="M550.72,172.04v3.33c0,4.89-4,8.89-8.89,8.89-.85,0-1.67-.12-2.45-.35-3.94,10.42-11.57,18.58-20.93,23.42.24,1.08.37,2.2.37,3.35v33.37c0,8.62-7.06,15.68-15.68,15.68s-15.67-7.06-15.67-15.68v-33.13c-.58-.14-1.15-.3-1.73-.47-17.31-5.15-28.03-22.12-26.01-39.49-2.63-1.96-4.08-5.31-3.45-8.73l.61-3.28c.74-4.02,4.11-6.91,8-7.24l2.75-9.24c5.21-17.46,21.36-28.83,38.75-28.83,3.79,0,7.64.55,11.45,1.68,20.74,6.18,32.87,27.81,27.59,48.61,3.11,1.38,5.29,4.5,5.29,8.11Z"/>
      <path class="cls-2" d="M540.76,244.06c.99.64,7.36,4.91,8.65,13.31,1.37,8.92-4.13,15.17-4.85,15.97-.91-5.39-2.91-8.87-4.64-11.09-3.13-4.01-6.37-5.17-7.53-9.13-.87-2.95-.09-5.81.72-7.8,2.55-.42,5.11-.83,7.66-1.25Z"/>
      <path class="cls-2" d="M467.06,243.99c-1.02.6-7.57,4.6-9.21,12.93-1.75,8.86,3.48,15.33,4.17,16.16,1.14-5.35,3.28-8.74,5.11-10.88,3.3-3.88,6.59-4.9,7.92-8.8.99-2.91.34-5.8-.39-7.83-2.53-.53-5.07-1.05-7.6-1.58Z"/>
      <rect class="cls-6" x="529.4" y="242.7" width="14.22" height="3.09" rx="1.55" ry="1.55" transform="translate(-40.53 123.73) rotate(-12.68)"/>
      <rect class="cls-6" x="464.19" y="242.82" width="14.22" height="3.09" rx="1.55" ry="1.55" transform="translate(862.54 603.22) rotate(-164.88)"/>
      <path class="cls-2" d="M541.13,208c-.76.68-1.61,1.33-2.55,1.94.48.25,3.57,1.93,4.5,5.68,1.05,4.24-1.56,7.47-1.84,7.8.37.24,2.76,1.87,3.15,4.93.32,2.54-.85,5.08-3.02,6.62,2.15-.25,3.98,1.38,4.04,3.26.05,1.62-1.22,3.18-3.03,3.47-1.69,1.18-4.69,2.83-8.51,2.76-1.47-.03-5.45-.11-6.38-2.43-.57-1.42.26-3.01.67-3.69-.28-.06-3.32-.75-4.6-3.75-1.39-3.26.64-6.16.74-6.3-1.08-.55-3.15-1.79-4.63-4.22-2.86-4.69-1.07-9.76-.8-10.48-.54-.78-1.11-1.77-1.59-2.98-8.74,3.59-17.99,3.07-25.58,1.55-.46.94-.97,1.73-1.45,2.36.24.72,1.81,5.86-1.24,10.43-1.58,2.36-3.71,3.52-4.81,4.02.1.15,2,3.13.47,6.33-1.41,2.94-4.48,3.5-4.76,3.55.38.69,1.14,2.32.51,3.71-1.03,2.28-5,2.19-6.47,2.16-3.82-.09-6.75-1.88-8.39-3.12-1.79-.37-2.99-1.98-2.87-3.59.13-1.88,2.03-3.44,4.16-3.09-2.09-1.63-3.15-4.23-2.72-6.74.51-3.05,2.98-4.57,3.35-4.8-.26-.34-2.74-3.68-1.5-7.87,1.08-3.71,4.24-5.25,4.73-5.48-4.45-3.18-6.74-7.13-7.24-10.21-.14-.12-.26-.25-.38-.38-4.86-5.18-6.72-10.92-8.53-16.5-.18-.56-3-9.45-3.1-18.35-.24-22.19,16.42-51.9,38.68-56.23,5.03-.98,9.99-.53,19.9.48,11.35,1.14,17.26,1.68,23.25,4.55,17.95,8.6,22.82,31.13,23.37,33.86,2.8,13.95-1.05,28.04-2.34,32.89-1.67,6.3-3.2,9.06-3.77,15.1-.95,10,1.71,18.48,4.19,24.21-6.59-3.86-10.84-7.92-13.61-11.45Z"/>
    </g>
    <g id="Nagel">
      <path class="cls-10" d="M266.12,240.92l-9.06-1.12,7.76-4.68c26.59-5.98,49.2-11.07,75.79-17.05l1.3,5.8-75.79,17.05Z"/>
      <path class="cls-5" d="M346.61,226.07l-2.45.55s-.04,0-.06,0c-.99.1-2.67-2.78-3.3-5.45-.65-2.8-.35-6.22.6-6.54.02-.01.04-.02.05-.02l2.45-.55c-.44.1-.74.83-.89,1.88-.19,1.31-.13,3.1.25,4.68.35,1.5,1.04,3.07,1.75,4.14.57.87,1.16,1.41,1.6,1.31Z"/>
      <path class="cls-10" d="M346.61,226.07c-.44.1-1.03-.44-1.6-1.31-.71-1.07-1.4-2.64-1.75-4.14-.38-1.58-.44-3.38-.25-4.68.15-1.04.45-1.78.89-1.88.98-.21,2.6,2.77,3.22,5.37.69,2.84.48,6.41-.52,6.64Z"/>
      <path class="cls-7" d="M320.11,228.77c.43,2.07.8,4.4,1.02,6.95.19,2.19.25,4.23.22,6.09-1.51,1.35-4.2,3.41-8.09,4.75-3.52,1.21-6.6,1.35-8.55,1.28-1.5-2.26-3.47-5.45-5.51-9.42-4.5-8.79-4.19-11.47-4-12.51.86-4.67,4.57-7.3,5.19-7.73.69-.47,6.06-4.04,11.54-1.42,3.88,1.86,5.28,5.61,5.59,6.5-.34.09-.85.26-1.34.64-1.07.83-1.46,2.04-1.06,3.18.51,1.42,2.3,2.34,4.99,1.69Z"/>
    </g>
    <g id="Hammer">
      <rect class="cls-11" x="351.52" y="165.71" width="48.98" height="9.2" transform="translate(153.06 517.7) rotate(-81.68)"/>
      <path class="cls-2" d="M407.28,146.46c.01-.14-1.17-.91-1.33-1.03-3.71-2.99-7.88-5.16-12.67-5.79-.26-.03-.53-.06-.79-.02-.64.1-1.08.59-1.56.98-.52.43-1.04.86-1.53,1.32-.98.92-1.87,1.93-2.62,3.05-1.31,1.96-2.02,3.82-2.42,5.2-3.51-.51-7.01-1.03-10.52-1.54.13.02.15-2.12.14-2.31-.03-1.22-.22-2.8-1.01-3.78-1.09-1.34-3.4-1.64-5.01-1.76-.81-.06-1.63-.06-2.44-.03-.17,0-2.32.1-2.32.09.59-4.02,1.18-8.03,1.76-12.05.54.17,1.41.43,2.5.66,6.14,1.3,12.56-.04,18.79.17,5.28.17,10.76,1.3,14.88,4.61,1.84,1.47,3.32,3.35,4.37,5.46.52,1.06.94,2.17,1.24,3.31.28,1.06.65,2.38.54,3.48Z"/>
      <rect class="cls-6" x="364.75" y="179.61" width="11.51" height="56.61" transform="translate(34.01 -51.45) rotate(8.32)"/>
      <path class="cls-7" d="M375.28,209.24c2.71,1.17,6.6,2.91,11.6,5.36,3.08-3.1,6.15-6.2,9.23-9.3-.48-2.4-1.49-6.02-3.82-9.88-1.6-2.64-10.42-10.45-10.42-10.45-.92,2.79-4.23,14.2-4.56,15.35-.01.05-1.78-.24-2.04-.32-4.1-1.33-8.48-2.01-9.68-.51-.35.44-.52.88-.56,1.3-.12,1.41,1.24,2.59,2.45,3.53,4.72,3.7,7.8,4.92,7.8,4.92Z"/>
    </g>
  </g>
</svg>