<?xml version="1.0" encoding="UTF-8"?>
<svg id="G-0102_BUW_Dr_H" xmlns="http://www.w3.org/2000/svg" viewBox="0 0 689.82 530.74">
  <defs>
    <style>
      .cls-1 {
        fill: #eee;
      }

      .cls-1, .cls-2, .cls-3, .cls-4, .cls-5, .cls-6, .cls-7, .cls-8, .cls-9, .cls-10, .cls-11, .cls-12, .cls-13, .cls-14, .cls-15, .cls-16, .cls-17, .cls-18, .cls-19 {
        stroke-width: 0px;
      }

      .cls-2 {
        fill: #42210b;
      }

      .cls-3 {
        fill: #a5678d;
      }

      .cls-20 {
        font-family: Arial-BoldItalicMT, Arial;
        font-size: 10.88px;
        font-style: italic;
        font-weight: 700;
      }

      .cls-20, .cls-5 {
        fill: #e6710a;
      }

      .cls-21 {
        stroke: #000;
        stroke-linecap: round;
        stroke-width: .25px;
      }

      .cls-21, .cls-22 {
        fill: none;
        stroke-miterlimit: 10;
      }

      .cls-4 {
        fill: #64abd6;
      }

      .cls-6 {
        fill: #e0bf70;
      }

      .cls-7 {
        fill: #873567;
      }

      .cls-22 {
        stroke: #fff;
      }

      .cls-8 {
        fill: #000;
      }

      .cls-9 {
        fill: #73bbe7;
      }

      .cls-10 {
        fill: #96cced;
      }

      .cls-11 {
        fill: #b47d49;
      }

      .cls-12 {
        fill: #236289;
      }

      .cls-13 {
        fill: #b9ddf3;
      }

      .cls-14 {
        fill: #ec9447;
      }

      .cls-15 {
        fill: #603813;
      }

      .cls-16 {
        fill: #fff;
      }

      .cls-17 {
        fill: #e1ccd9;
      }

      .cls-18 {
        fill: #dddddc;
        opacity: .5;
      }

      .cls-19 {
        fill: #f2b885;
      }
    </style>
  </defs>
  <g id="Person:_Frau" data-name="Person: Frau">
    <g id="Haare">
      <path class="cls-15" d="M332.81,103.16c5.53-1.44,7.78-3.06,15.99-7.04,5.08-2.47,12.53-5.88,21.95-9.47,4.95-2.79,13.15-8.51,17.9-18.7,7.94-17.05,2.89-39.5-12.88-56.35-2.68-2.58-9.9-8.87-21.24-10.93-4.21-.77-13.33-1.73-23.38,2.67-12.8,5.61-18.66,16.22-20.28,19.43-5.34,10.74-6.19,19.36-5.97,25.26.39,10.44,4.15,12.81,2.86,22.59-1.2,9.1-5.09,11.84-3.82,19.43.25,1.47,1.32,7.9,6.44,11.9,6.77,5.29,16.13,2.85,22.43,1.21Z"/>
    </g>
    <g id="Gesicht">
      <g id="Kopf">
        <path class="cls-6" d="M379.42,45.74c1.36,11.74-5.88,23.2-17.58,26.67-.38.12-.78.22-1.16.31v21.32c-1.76.84-3.74,1.57-5.94,2.09-1.12.27-2.28.47-3.54.59-4.5.45-8.46-.21-11.67-1.25-.02-.12-.02-.24-.02-.36v-22.55c0-.77.08-1.53.24-2.25-6.32-3.28-11.48-8.79-14.14-15.83-.52.15-1.08.23-1.65.23-3.3,0-6-2.7-6-6v-2.25c0-2.45,1.48-4.55,3.58-5.49-3.58-14.05,4.62-28.65,18.63-32.84,2.57-.77,5.17-1.13,7.73-1.13,11.74,0,22.67,7.68,26.18,19.48l1.86,6.24c2.62.23,4.9,2.18,5.39,4.88l.41,2.22c.43,2.31-.55,4.57-2.32,5.89Z"/>
      </g>
      <g id="Schatten">
        <path class="cls-11" d="M322.7,44.85c-.42,0-1.02,1.71-.56,3.27.33,1.11,1.23,2.24,1.59,2.09.7-.28-.3-5.36-1.03-5.36Z"/>
        <path class="cls-11" d="M360.72,72.74c-1.76.46-4.06.88-6.77.93-3.2.06-5.88-.41-7.83-.91,4.86,4.3,9.72,8.61,14.57,12.91-.01-1.92-.02-3.84-.02-5.79,0-2.4.02-4.79.05-7.15Z"/>
      </g>
      <g id="Augenbrauen">
        <path class="cls-2" d="M347.49,31.27c-.83-.1-2.32-.16-4.04.43-2.16.74-3.47,2.1-4.02,2.75-1.45-.14-1.92-.53-2.06-.89-.47-1.27,2.36-3.96,5.52-4.87,2.13-.61,5.06-.6,5.49.52.23.58-.26,1.35-.89,2.06Z"/>
        <path class="cls-2" d="M360.12,30.58c.52-.65,1.54-1.74,3.18-2.53,2.06-.99,3.94-.93,4.8-.86.94-1.11,1-1.72.84-2.08-.55-1.24-4.46-1.17-7.35.4-1.95,1.06-4.02,3.12-3.55,4.22.24.57,1.13.78,2.08.84Z"/>
      </g>
      <g id="Augen">
        <rect class="cls-8" x="342.27" y="34.24" width="4.35" height="5.11" rx="2.18" ry="2.18" transform="translate(-1.36 57.17) rotate(-9.47)"/>
        <rect class="cls-8" x="363.36" y="30.73" width="4.35" height="5.11" rx="2.18" ry="2.18" transform="translate(-.5 60.59) rotate(-9.47)"/>
      </g>
      <g id="Nase">
        <path class="cls-21" d="M355.89,40.97c.16.95.29,1.57.45,2.51.09.36.25,1.09.47,1.52.6,1.17,1.59,1.74,2.13,2.1,1.43.92,1.63,1.84,1.44,2.62-.24,1.03-2.05,1.96-4.17,1.2"/>
      </g>
      <g id="Mund">
        <path class="cls-21" d="M348.67,57.62c1.09,1.16,2.83,2.76,4.98,3.66,2.35.99,4.16.7,5.22.36"/>
      </g>
      <path class="cls-15" d="M380.46,32.64c-.4.09-.85.16-1.33.2-1.34.11-2.49-.07-3.34-.29-2.13-6.15-5.09-8.74-7.41-9.96-2.59-1.35-5.33-1.51-8.62-4.18-1.74-1.41-2.87-2.9-3.53-3.9-.38.84-1.74,3.69-4.97,7.08-7.85,8.21-12.85,6.46-16.76,12.79-2.78,4.5-3.12,7.37-4.52,9.66-.09.15-2.85-5.25-8.5-3.05-1.12-.94-8.88-7.58-7.75-16.03.51-3.86,2.77-6.22,5.33-9.47,2.21-2.81,9.37-10.48,21.37-12.63,1.41-.25,20.09-3.26,32.07,10.38,6.54,7.44,7.69,15.98,7.96,19.41Z"/>
      <g id="Mund-2" data-name="Mund">
        <path class="cls-21" d="M348.67,57.62c1.09,1.16,2.83,2.76,4.98,3.66,2.35.99,4.16.7,5.22.36"/>
      </g>
      <g id="Brille">
        <line class="cls-22" x1="352.89" y1="36.8" x2="356.57" y2="36.17"/>
        <rect class="cls-22" x="327.86" y="34.42" width="24.89" height="11.02" rx="2.86" ry="2.86" transform="translate(-1.93 56.53) rotate(-9.47)"/>
        <rect class="cls-22" x="356.95" y="29.56" width="24.89" height="11.02" rx="2.86" ry="2.86" transform="translate(-.74 61.25) rotate(-9.47)"/>
      </g>
    </g>
    <g id="Körper">
      <g id="Körper-2" data-name="Körper">
        <path class="cls-6" d="M535.9,35.22c-2.91-1.27-3.53,4.38-8.1,7.82-2.43,1.82-7.18,1.48-6.5.06,1.44-3.04,2.4-6.36,1.35-7.43-.3-.33-.63-.49-.94-.56-1.07-.23-2.13.7-2.98,1.54-3.32,3.29-4.58,5.54-4.58,5.54-.66,1.16-1.39,2.38-2.19,3.61-.72,1.12-1.44,2.17-2.16,3.16-.01.01-.02.03-.05.05-.15.23-.31.45-.48.68-.02.02-.04.04-.05.06-.42.66-.66,1.27-.82,1.7-8.86,7.21-17.89,14.8-27.05,22.78-7.96,6.95-15.61,13.85-22.97,20.69-.25.23-2.25-.2-2.64-.24-1.04-.09-2.08-.19-3.12-.28-2-.18-4.01-.36-6.01-.54-4.01-.36-8.01-.72-12.02-1.07-8.01-.71-16.03-1.43-24.04-2.14-7.89-.7-15.78-1.9-23.71-2.02-6.55-.1-13.12.23-19.66.69-5.13.36-10.24.79-15.37,1.14-9.69.66-19.36,2.5-29.07,2.12-2.05-.08-7.94-.39-13.27,3.14-1.81,1.19-3.06,2.5-3.81,3.42-.02.01-.05.02-.08.07-14.94,19.37-29.91,38.75-44.88,58.16-.05.06-.13.14-.17.23-.2.24-.43.5-.62.77-.02.04-.05.06-.06.09-21.51,5.52-43,11.05-64.51,16.58-3.96-.54-7.02-1.05-9.16-1.44,0,0-2.53-.54-7.19-.16-1.2.08-2.59.27-3.12,1.23-.15.28-.23.64-.2,1.08.13,1.49,3.26,2.95,6.5,3.84,1.53.43-1.33,4.23-4.3,4.87-5.59,1.2-10.25-2.03-11.22.99-1.13,3.59,6.49,6.97,14.08,6.72,5.15-.16,9.07-1.57,10.51-2.25,1.25-.59,2.35-1.25,3.31-1.91,1.43.07,2.8-.28,3.48-.45,9.71-2.47,19.86-2.8,29.64-4.93,8.24-1.79,14.75-2.82,25.59-4.53,5.98-.94,10.91-1.63,14.22-2.07h.11c3.8-.5,6.84-3.12,8.01-6.46,14.73-15.72,29.42-31.46,44.13-47.21,4.86,16.54,9.69,33.08,14.54,49.63l-19.32,30.2.12.11c-.16.13-.29.29-.44.48-.37.8-.84,1.58-.84,1.58-19.31,32.72-13.59,114.07-13.59,114.07.72,10.25,2.27,20.43,2.67,30.7.38,9.9-.2,19.89-.31,29.79-.22,21.1-.22,42.21,0,63.31,0,.21,0,.43,0,.64.23,21.09.67,42.18,1.35,63.26.06,1.91,1.14,6.68-.24,8.17-.25.27-3.12,2.3-2.88,2.66,2.28,3.32,8.73,4.2,12.34,4.59,2.64.29,13.49.32,11.02-5.27-.37-.83-1.13-1.46-1.98-1.77-.17-.06-.36-.13-.44-.29-.06-.12-.05-.26-.03-.4,1.69-12.48,3.45-24.95,5.16-37.43,2.19-15.97,3.55-23.49,4.9-36.03,3.76-34.76,4.25-66.42,3.11-94.01,5.33-37.98,10.68-75.98,16.03-113.98h6.38c.2.2.42.36.66.5,8.61,37.26,17,74.58,25.89,111.78.77,11.9,2,25.97,4.03,41.73,1.51,11.74,4.13,29.71,8.63,51.25,5.95,28.48,13.24,54.16,20.86,76.78-.02,0-.04.01-.05.02-.88.34-2.94,1.47-3.14,2.49-.31,1.55,2.83,3.09,4.03,3.65,4.55,2.13,10.09,1.85,14.82.5,6.61-1.89,3.68-6.21-1.07-7.13-3.51-25.13-3.84-51.39-6.13-76.82-2.91-32.07-6.29-63.24-10.06-93.46-.01-.05-.01-.1-.02-.15.01-.08.02-.15.02-.23.01-.07.01-.15.01-.22.16-14.75-.04-27.16-.24-36.38-1.61-61.7-13.76-93.25-19.59-102.51-.33-.51-.63-1-.87-1.39-.1-.22-.24-.41-.37-.61-.01-.01-.02-.02-.03-.04-5.02-10.05-10.05-20.1-15.07-30.16,2.2-19.06,4.41-38.11,6.63-57.17.41.03.83.05,1.25.02.02.01.05.02.1.01,23.52-.13,47.03-.24,70.58-.38,3.73-.02,6.79.03,9.85-2.48,3.83-3.15,6.95-7.87,10.23-11.61,4.12-4.68,8.24-9.37,12.35-14.05s8.23-9.37,12.35-14.05c1.99-2.26,3.97-4.52,5.96-6.79.87-.99,4.81-6.79,5.96-6.79.08,0,.17-.01.27,0,1.9-.13,4.8-.56,8.01-1.98,1.46-.64,5.1-2.68,8.6-6.46,5.16-5.57,7.59-13.54,4.15-15.03ZM388.9,354.72c-.5-.45-.98-.96-1.41-1.49.44.52.91,1.03,1.41,1.49ZM384.04,345.59h.02c.19,1.23.51,2.41.97,3.53-.47-1.12-.8-2.29-.99-3.53Z"/>
      </g>
      <g id="Schuhe">
        <path class="cls-15" d="M327.89,527.66v3.08h-60.81v-3.08s.49-2.89,15.91-7.36c7.11-2.04,12.59-4.63,18.17-6.18,2.42.98,6.4,2.23,11.44,2.32,5.45.05,9.73-1.31,12.21-2.32.76,1.66,1.61,3.79,2.21,6.29.65,2.81.87,5.31.87,7.25Z"/>
        <path class="cls-15" d="M410.82,527.66v3.08h60.81v-3.08s-.49-2.89-15.91-7.36c-7.11-2.04-12.59-4.63-18.17-6.18-2.42.98-6.4,2.23-11.44,2.32-5.45.05-9.73-1.31-12.21-2.32-.76,1.66-1.61,3.79-2.21,6.29-.65,2.81-.87,5.31-.87,7.25Z"/>
      </g>
      <g id="Hose">
        <path class="cls-10" d="M447.14,485.13c-17.11,1.61-34.22,3.21-51.33,4.85-3.51-44.3-9.24-92.25-18.12-143.16-6.73-38.36-14.55-74.46-22.97-108.1v-67.02c8.55.03,17.11.03,25.66.05,7.66,9.94,18.39,25.96,26.29,47.65,6.65,18.28,8.61,33.26,13.29,82.74,3,32.01,4.82,53.59,5.42,60.4,2.56,28.85,8.15,70.53,21.74,122.59Z"/>
        <path class="cls-13" d="M354.73,171.7v67.02c-4.55,32.23-8.31,66.5-10.87,102.68-3.79,53.45-4.39,103.39-3.02,149.18-17.9-1.01-35.82-2.02-53.75-3.02,6.13-55.66,7.06-96.9,6.65-125.02-.05-4.93-.38-23.37,0-48.33.6-38.6.87-57.92,4.22-73.07,3.6-16.26,12.18-41.46,35.63-69.47,7.06,0,14.11.03,21.14.03Z"/>
      </g>
      <g id="Oberteil">
        <path class="cls-5" d="M389.12,86.89c-.73,22.31-1.53,36.89-2.13,46.23-.13,1.93-.38,5.7-.65,10.93-.51,9.69-.82,19.09-.95,28.16-6.39,2.18-16.28,4.68-28.53,4.6-.7,0-1.41-.02-2.12-.05v-80.64c2.2-.51,4.18-1.25,5.94-2.09,5.24-2.52,8.4-5.95,9.32-6.99,6.37-.06,12.74-.11,19.13-.16Z"/>
        <path class="cls-14" d="M354.73,96.13v80.64c-11.07-.33-20-2.7-25.96-4.76-.95-4.53-1.99-9.16-3.07-13.85,0,0-1.97-8.39-4.17-16.73-5.09-19.34-12.48-41.41-13.7-45.03,1.19-.51,2.36-1.04,3.56-1.53,6.41-1.33,12.8-2.67,19.17-4.01.99.75,4.17,3.09,8.96,4.61,3.22,1.04,7.18,1.7,11.67,1.25,1.26-.13,2.42-.33,3.54-.59Z"/>
      </g>
      <g id="Jacke">
        <path class="cls-4" d="M337.98,88.81l-2.96,53.29v.05c-1.64,29.56-3.28,59.13-4.93,88.69-5,1.78-13.06,3.97-23.1,3.74-8.56-.2-15.48-2.09-20.13-3.74,2.09-10.88,4.37-22,6.88-33.35,2.41-10.86,4.9-21.44,7.48-31.73v-.02c.41-1.53.8-3.05,1.2-4.55,2.13-5.4,4.37-12.06,6.16-19.81-8.58,7.27-19.72,17.48-32.34,31.26-.02-.01-.03-.03-.06-.05-1.68,1.57-3.67,2.45-5.18,2.81-19.84,4.62-39.67,9.25-59.51,13.87.05-3.03-.2-7.05-1.33-11.61-.99-4.02-2.39-7.31-3.67-9.81l50.86-11.86c6.87-9.71,13.07-18,18.21-24.67,11.26-14.61,8.62-11.17,16.06-20.06,3.63-4.36,7.26-8.55,10.84-12.59.67-.75,1.99-2.17,4.12-3.42,2.01-1.19,3.78-1.65,4.78-1.9,8.4-2.13,12.55-2.75,12.55-2.75,3.8-.57,8.55-1.21,14.06-1.79Z"/>
        <path class="cls-4" d="M514.42,68.76c-23.31,22.77-40.35,39.35-44.64,43.62-.45.45-1.67,1.65-3.6,2.27-.13.05-.27.08-.4.1-.55.09-1.11.19-1.64.26-15.38,2.49-28.51,3.82-38.6,4.6-18.15,1.39-29.07,1.15-36.27-.34.07.87.16,1.76.26,2.64.31,2.9.7,5.72,1.15,8.43h0c2.08,12.46,5.42,22.84,8.53,30.7,4.48,12.96,8.86,26.69,12.99,41.19h0c1.74,6.16,3.44,12.45,5.08,18.86.13.51.27,1.02.4,1.54.69,2.73,1.37,5.44,2.03,8.14-4.97,1.74-12.74,3.81-22.41,3.8-9.6-.01-17.31-2.07-22.26-3.8-2.92-29.66-5.85-59.32-8.77-88.98h0s-5.43-55.05-5.43-55.05h0s-.02-.29-.02-.29c.02-.01.06-.01.08-.02.24-.05.62-.1,1.06-.17,7.04-1.11,13.4-.98,13.4-.98,5.52.09,10.43.82,14.46,1.69,11.74,1.46,23.6,2.87,35.57,4.23,10.47,1.18,20.87,2.31,31.19,3.37,14.04-13.97,28.08-27.94,42.12-41.91,2.14,2.83,4.74,5.91,7.86,9.05,2.73,2.74,5.38,5.08,7.87,7.05Z"/>
        <path class="cls-12" d="M342.53,103.44c-2.49,12.75-4.99,25.51-7.5,38.24v.05s-.01.07-.02.12c-2-6.81-3.98-13.63-5.98-20.45-1.34-4.59-2.68-9.18-4.02-13.77l5.6-9.89.85-1.53-8.21-7-.71-.61,14.7-3.79c.72-.19,1.47-.36,2.26-.54v8.43c-.15.01-.3.02-.45.04.1.42.22.84.35,1.27.04.12.07.24.1.36.77,2.68,1.6,5.17,2.45,7.48.19.54.38,1.07.58,1.58Z"/>
        <path class="cls-12" d="M372.17,102.98l1.72,2.96c-.13.59-.24,1.2-.38,1.79-2.41,11.37-4.83,22.7-7.26,34.06h0s-.01.06-.01.08c-3.19-12.81-6.38-25.65-9.59-38.46-.12-.47-.23-.92-.35-1.39,1.04-2.61,2.03-5.54,2.91-8.77.2-.73.38-1.44.57-2.16.34-1.36.63-2.69.89-3.97v-3.89c.22.02.44.06.66.08l6.6,1.58,7.68,1.85.47.11-2.89,2.54-5.93,5.22,4.9,8.36Z"/>
        <g id="Knöpfe">
          <circle class="cls-16" cx="328.98" cy="156.78" r="1.32"/>
          <circle class="cls-16" cx="327.59" cy="174.92" r="1.32"/>
          <circle class="cls-16" cx="326.72" cy="192.81" r="1.32"/>
          <path class="cls-16" d="M327.05,211.29c0,.73-.59,1.32-1.32,1.32s-1.32-.59-1.32-1.32.59-1.32,1.32-1.32,1.32.59,1.32,1.32Z"/>
        </g>
      </g>
    </g>
  </g>
  <g id="Icons">
    <g id="Buch">
      <g id="Buch-2" data-name="Buch">
        <g id="Seiten">
          <path class="cls-3" d="M105.46,362.84l-97.1-.34.49-142.05,7.87.03-.47,135.44c14.85.14,30.69.79,47.39,2.15,14.69,1.2,28.65,2.83,41.81,4.76Z"/>
          <path class="cls-3" d="M228.14,221.21l-.49,142.05-97.53-.34c13.18-1.84,27.15-3.38,41.85-4.47,16.71-1.25,32.55-1.79,47.4-1.82l.47-135.44,8.3.03Z"/>
          <path class="cls-17" d="M117,220.61v.22l-.37,143.74c-3.65-.61-7.37-1.19-11.16-1.74-13.16-1.93-27.13-3.56-41.82-4.76-16.69-1.36-32.53-2-47.38-2.14l.47-135.44.03-8.47c15.14.12,31.37.78,48.51,2.21,18.39,1.53,35.78,3.75,51.72,6.38Z"/>
          <path class="cls-17" d="M219.71,212.74l-.03,8.47-.47,135.42v.02c-14.85.04-30.69.57-47.4,1.82-1.37.11-2.75.21-4.11.31-4.1.34-8.14.7-12.11,1.09-1.1.11-2.19.22-3.29.34-1.08.12-2.17.22-3.25.35-2.99.33-5.95.68-8.89,1.04-1.62.2-3.24.41-4.83.62-1.75.22-3.48.45-5.2.7-.06.01-.12.01-.17.02-3.58.5-7.12,1.02-10.58,1.57l.37-143.9c15.89-2.5,33.07-4.6,51.43-6,17.15-1.3,33.37-1.85,48.53-1.88Z"/>
          <path class="cls-7" d="M119.76,220.61l-.37,143.9c-.06.01-.1.01-.16.02-.43.07-.87.14-1.3.2h-.27c-.34-.06-.68-.11-1.02-.16l.37-143.74v-.22c.47.07.92.14,1.37.22.45-.07.92-.15,1.39-.22Z"/>
        </g>
        <g id="Text">
          <path class="cls-7" d="M38.7,275.19l-6.67.02.09-.25c.35-.01.59-.04.71-.09.19-.08.32-.18.41-.31.14-.2.28-.57.43-1.1l1.57-5.48c.13-.45.2-.78.2-1,0-.17-.06-.3-.18-.39-.12-.09-.35-.14-.69-.14-.08,0-.14,0-.18,0l.08-.25h3.67s-.05.23-.05.23c-.41,0-.7.04-.88.12-.17.08-.32.21-.43.39-.08.12-.21.49-.39,1.12l-1.54,5.39c-.12.41-.18.69-.18.85,0,.11.06.21.18.3.08.07.25.1.51.1h.87c.63,0,1.13-.09,1.51-.25.27-.12.53-.3.75-.54.12-.13.34-.46.65-.99l.17-.3h.25s-.87,2.56-.87,2.56Z"/>
          <path class="cls-7" d="M46.36,271.38c-.01.66-.2,1.32-.56,1.96-.36.64-.86,1.15-1.5,1.52-.64.37-1.25.55-1.84.54-.61-.01-1.1-.21-1.47-.61-.38-.39-.56-.9-.55-1.51.01-.65.21-1.3.6-1.95.39-.65.9-1.16,1.53-1.53.63-.37,1.24-.55,1.83-.54s1.06.21,1.43.6c.37.39.55.9.54,1.51ZM45.27,270.9c0-.41-.09-.73-.28-.95-.2-.22-.46-.34-.77-.34-.65-.01-1.26.44-1.82,1.36-.56.92-.85,1.84-.87,2.76,0,.42.09.75.3.98.21.23.47.35.8.36.62.01,1.22-.44,1.78-1.36.56-.92.85-1.85.87-2.81Z"/>
          <path class="cls-7" d="M47.66,269.72l2.3-.29-1.07,3.19c.82-1.29,1.56-2.19,2.21-2.7.37-.29.67-.43.89-.42.15,0,.26.05.34.14.08.09.12.22.11.38-.01.29-.1.57-.26.83-.11.2-.27.29-.47.28-.1,0-.19-.04-.26-.11s-.11-.17-.12-.31c0-.08-.02-.14-.05-.17-.03-.04-.08-.06-.12-.06-.08,0-.15.01-.21.05-.12.06-.3.22-.54.5-.38.42-.8.97-1.26,1.64-.2.29-.37.61-.51.97-.2.5-.32.8-.35.9l-.24.83-1.01-.04,1.38-4.07c.16-.47.24-.81.25-1.01,0-.08-.03-.15-.09-.2-.09-.07-.2-.11-.35-.12-.09,0-.26.01-.51.04l-.04-.25Z"/>
          <path class="cls-7" d="M53.23,273.07c-.04.22-.07.4-.08.55-.02.39.1.74.36,1.03s.59.45.99.47c.32.02.63-.03.93-.15.3-.11.75-.38,1.35-.8l.13.2c-1.1.98-2.13,1.45-3.08,1.4-.65-.03-1.12-.26-1.43-.69-.31-.42-.45-.88-.42-1.37.03-.66.27-1.32.72-1.99.44-.67.98-1.18,1.62-1.53.63-.35,1.28-.51,1.93-.47.47.02.81.14,1.03.34.22.2.32.43.3.69-.02.37-.18.71-.49,1.03-.41.42-.99.74-1.75.97-.5.15-1.21.26-2.11.31ZM53.29,272.75c.66-.04,1.2-.14,1.62-.3.56-.21.98-.48,1.27-.81.29-.32.44-.64.46-.94,0-.19-.04-.34-.15-.46-.11-.12-.27-.19-.49-.2-.45-.02-.94.19-1.47.64-.53.45-.94,1.14-1.23,2.07Z"/>
          <path class="cls-7" d="M60.86,270.02l-1.09,2.92c.44-.67.8-1.17,1.1-1.51.46-.52.9-.88,1.32-1.1.24-.12.5-.18.75-.16.22.02.4.1.53.25.13.15.19.34.18.56-.02.22-.09.49-.22.84l-.6,1.65c.82-1.29,1.58-2.18,2.26-2.68.38-.27.74-.4,1.09-.37.2.02.36.1.48.25.12.15.17.37.15.66-.02.26-.08.52-.18.8l-.93,2.52c-.2.55-.31.85-.31.91,0,.06.01.12.05.16.02.03.06.05.1.05s.12-.03.24-.11c.27-.17.52-.41.77-.71l.21.16c-.12.17-.34.4-.64.68-.3.29-.56.48-.77.57s-.39.14-.56.12c-.15-.01-.28-.08-.38-.19s-.14-.25-.13-.4c.02-.21.14-.63.37-1.26l.77-2.08c.17-.48.27-.74.28-.8.02-.08.03-.16.04-.24,0-.11,0-.2-.05-.26-.05-.07-.11-.1-.17-.11-.19-.01-.39.07-.61.24-.65.51-1.28,1.26-1.89,2.23-.4.64-.79,1.47-1.18,2.49l-1-.08,1.44-3.92c.16-.42.24-.71.25-.85,0-.12,0-.21-.05-.27s-.1-.09-.17-.1c-.15-.01-.3.03-.48.12-.28.15-.65.49-1.11,1.03-.46.53-.83,1.05-1.09,1.55-.13.23-.45.99-.97,2.28l-.98-.08,1.55-4.2.2-.54c.04-.08.06-.14.06-.18,0-.1-.03-.19-.11-.27-.08-.08-.19-.13-.33-.14-.06,0-.22,0-.48.04l-.04-.25,2.32-.24Z"/>
          <path class="cls-7" d="M74.31,271.25l-1.81,4.49c-.12.3-.19.48-.19.55,0,.07,0,.13.04.18s.08.08.14.08c.07,0,.15-.02.25-.08.27-.17.56-.43.85-.76l.21.18c-.35.43-.74.77-1.18,1.04-.32.2-.62.29-.9.26-.18-.02-.32-.09-.42-.21-.1-.12-.15-.26-.13-.42.02-.16.1-.43.25-.79l1.18-2.86c.19-.47.3-.76.31-.89.01-.1-.02-.18-.08-.25-.06-.07-.15-.11-.27-.12-.1-.01-.3,0-.61,0l.03-.26,2.32-.12ZM74.51,268.62c.18.02.33.1.45.24.11.14.16.3.14.49-.02.18-.1.33-.25.44-.14.12-.31.16-.49.14-.18-.02-.33-.1-.44-.24-.12-.14-.16-.31-.14-.49.02-.18.1-.33.24-.45.14-.11.3-.16.49-.14Z"/>
          <path class="cls-7" d="M78,271.68l-.64,1.46c.55-.5,1.02-.84,1.43-1.02.4-.18.8-.24,1.19-.19.39.05.71.24.94.59.24.34.33.76.27,1.26-.12.97-.63,1.9-1.54,2.8-.91.9-1.89,1.29-2.93,1.16-.22-.03-.41-.08-.57-.14-.16-.07-.34-.18-.54-.33l-.69,1.64c-.14.32-.21.53-.23.63-.01.1,0,.18.04.26.04.07.12.14.23.19.11.05.33.1.67.14l-.09.24-3.1-.38.1-.24c.41.03.7,0,.85-.11.16-.11.35-.43.58-.97l2.38-5.56c.15-.35.22-.57.24-.66.01-.12,0-.21-.07-.29-.06-.07-.16-.12-.3-.14-.13-.02-.31-.02-.54-.02l.03-.26,2.3-.06ZM75.82,276.76c.23.36.58.57,1.04.62.23.03.47,0,.72-.1s.51-.26.77-.48c.26-.22.5-.49.72-.79.22-.3.43-.67.63-1.1.2-.43.32-.86.38-1.29.04-.35,0-.63-.14-.84-.14-.21-.31-.32-.53-.35-.47-.06-.98.16-1.51.64-.53.49-.95,1.08-1.25,1.78l-.82,1.9Z"/>
          <path class="cls-7" d="M86.71,272.86l-.69,1.96-.24-.03c.06-.59,0-1.04-.19-1.33-.19-.3-.45-.47-.79-.52-.27-.04-.5,0-.68.13-.18.13-.29.29-.32.5-.02.14,0,.29.04.43.04.14.16.34.34.61.48.7.78,1.22.9,1.56.12.34.16.65.12.93-.06.46-.31.83-.74,1.13-.43.3-.93.41-1.51.32-.32-.04-.67-.17-1.06-.38-.14-.07-.25-.12-.32-.13-.2-.03-.36.05-.49.24l-.24-.03.7-2.07.24.03c-.07.67,0,1.16.21,1.47.21.31.53.5.97.56.33.05.61,0,.83-.17s.35-.37.39-.65c.02-.18.01-.34-.04-.5-.09-.28-.29-.68-.62-1.2-.33-.52-.53-.9-.61-1.15-.08-.25-.1-.49-.07-.72.06-.42.27-.76.62-1.01.35-.25.77-.34,1.26-.27.14.02.27.05.38.09.06.02.2.09.41.21.21.12.36.18.43.19.19.03.36-.05.52-.24l.25.04Z"/>
          <path class="cls-7" d="M93.42,274.08l-1.77,3.72c-.26.55-.41.91-.43,1.06-.01.08,0,.14.01.18.02.04.06.07.11.07.07.01.16,0,.26-.06s.37-.29.81-.7l.17.18c-.43.49-.85.84-1.26,1.04-.27.13-.51.17-.73.14-.17-.03-.3-.1-.38-.21-.08-.11-.11-.24-.08-.4.02-.15.08-.34.18-.58.12-.31.43-.98.94-2.01-.94,1.1-1.7,1.84-2.27,2.22-.58.38-1.08.54-1.5.47-.2-.03-.36-.13-.48-.29-.12-.16-.16-.35-.12-.56.05-.33.23-.81.53-1.46l.9-1.93c.22-.46.34-.75.36-.87,0-.05,0-.1-.03-.14-.03-.04-.07-.07-.11-.08-.09-.01-.19,0-.29.05-.1.05-.35.26-.74.63l-.18-.18c.41-.45.82-.77,1.22-.95.31-.14.58-.2.82-.16.16.03.29.1.37.22.09.12.12.26.09.42-.04.24-.19.64-.47,1.22l-.96,2.02c-.26.55-.41.9-.43,1.05-.01.08,0,.15.05.21.05.06.12.1.21.11.14.02.34-.02.6-.13.25-.11.62-.38,1.08-.81.47-.43.86-.85,1.18-1.24.32-.39.7-1.04,1.14-1.95l.22-.47,1,.16Z"/>
          <path class="cls-7" d="M96.84,274.53l-1.4,2.79c.51-.62.93-1.08,1.26-1.38.51-.46.99-.78,1.43-.95.26-.1.51-.12.76-.07.22.04.39.14.5.31.12.17.16.36.12.58-.04.21-.14.48-.31.81l-.77,1.57c.96-1.19,1.8-2,2.54-2.42.41-.23.78-.31,1.13-.25.2.04.35.14.45.3.1.16.13.39.07.67-.05.25-.14.51-.27.78l-1.19,2.4c-.26.52-.39.82-.41.88-.01.06,0,.12.03.17.02.04.05.06.1.07s.13-.02.25-.08c.28-.15.56-.35.84-.63l.19.18c-.14.15-.38.36-.71.61-.33.25-.61.42-.82.49s-.41.09-.57.06c-.15-.03-.27-.1-.35-.23-.08-.12-.11-.26-.08-.41.04-.21.21-.61.5-1.21l.98-1.98c.22-.46.35-.71.36-.76.03-.08.05-.16.06-.24.02-.11.01-.2-.02-.27-.04-.07-.09-.11-.16-.12-.18-.03-.39.02-.63.17-.7.44-1.41,1.11-2.12,2.01-.47.59-.94,1.37-1.44,2.35l-.99-.18,1.85-3.74c.2-.4.32-.68.34-.82.02-.12.01-.21-.02-.27-.04-.07-.09-.1-.16-.12-.14-.03-.31,0-.49.07-.29.12-.7.42-1.21.9-.51.48-.93.95-1.25,1.42-.15.22-.56.94-1.21,2.16l-.97-.18,1.99-4,.26-.52c.05-.08.07-.14.08-.17.02-.1,0-.19-.08-.28s-.18-.15-.31-.18c-.06-.01-.22-.01-.48,0v-.25s2.31,0,2.31,0Z"/>
        </g>
        <g id="Zeilen">
          <path class="cls-7" d="M104.65,244.33c-8.69-1.81-17.52-3.28-26.24-4.38-7.75-.98-15.62-1.68-23.37-2.1-7.43-.4-14.96-.55-22.39-.43l-.02-1.16c7.45-.11,15.01.03,22.47.44,7.79.42,15.68,1.13,23.46,2.11,8.75,1.1,17.61,2.58,26.34,4.39l-.24,1.14Z"/>
          <path class="cls-7" d="M104.59,261.56c-8.69-1.81-17.52-3.28-26.24-4.38-7.75-.98-15.62-1.68-23.37-2.1-7.43-.4-14.97-.55-22.39-.43l-.02-1.16c7.45-.11,15.01.03,22.47.44,7.79.42,15.68,1.13,23.46,2.11,8.75,1.1,17.61,2.58,26.34,4.39l-.24,1.14Z"/>
          <path class="cls-7" d="M104.47,296.04c-8.69-1.81-17.52-3.28-26.24-4.38-7.75-.98-15.62-1.68-23.37-2.1-7.43-.4-14.96-.55-22.39-.44l-.02-1.16c7.45-.11,15.01.03,22.47.44,7.78.42,15.68,1.13,23.46,2.11,8.76,1.1,17.62,2.58,26.34,4.39l-.24,1.14Z"/>
          <path class="cls-7" d="M104.41,313.26c-8.69-1.81-17.52-3.28-26.24-4.38-7.75-.98-15.61-1.68-23.37-2.1-7.43-.4-14.97-.55-22.39-.43l-.02-1.16c7.45-.11,15.01.03,22.47.44,7.79.42,15.68,1.13,23.46,2.11,8.75,1.1,17.61,2.58,26.34,4.39l-.24,1.14Z"/>
          <path class="cls-7" d="M104.35,330.47c-8.69-1.81-17.52-3.28-26.24-4.38-7.75-.98-15.62-1.68-23.37-2.1-7.43-.4-14.96-.55-22.39-.44l-.02-1.16c7.45-.11,15.01.03,22.47.44,7.78.42,15.68,1.13,23.46,2.11,8.76,1.1,17.62,2.58,26.34,4.39l-.24,1.14Z"/>
          <path class="cls-7" d="M131.65,244.42l-.23-1.14c8.73-1.75,17.6-3.17,26.37-4.21,7.79-.93,15.68-1.58,23.47-1.95,7.46-.35,15.02-.44,22.47-.28l-.03,1.16c-7.43-.16-14.96-.07-22.39.28-7.76.36-15.63,1.02-23.39,1.94-8.73,1.04-17.57,2.45-26.27,4.2Z"/>
          <path class="cls-7" d="M131.59,261.66l-.23-1.14c8.73-1.75,17.6-3.17,26.37-4.21,7.79-.93,15.68-1.58,23.47-1.95,7.46-.35,15.02-.44,22.47-.28l-.03,1.16c-7.43-.16-14.96-.07-22.39.28-7.76.36-15.63,1.02-23.39,1.94-8.73,1.04-17.57,2.45-26.27,4.2Z"/>
          <path class="cls-7" d="M131.53,278.9l-.23-1.14c8.73-1.75,17.6-3.17,26.37-4.21,7.79-.93,15.69-1.58,23.47-1.95,7.46-.35,15.02-.44,22.47-.28l-.03,1.16c-7.43-.16-14.96-.07-22.39.28-7.76.36-15.63,1.02-23.39,1.94-8.73,1.04-17.57,2.45-26.27,4.2Z"/>
          <path class="cls-7" d="M131.47,296.14l-.23-1.14c8.73-1.75,17.6-3.17,26.37-4.21,7.79-.93,15.69-1.58,23.47-1.95,7.46-.35,15.02-.44,22.47-.28l-.03,1.16c-7.43-.16-14.96-.07-22.39.28-7.76.36-15.63,1.02-23.39,1.94-8.73,1.04-17.57,2.45-26.27,4.2Z"/>
          <path class="cls-7" d="M131.42,313.35l-.23-1.14c8.73-1.75,17.6-3.17,26.37-4.21,7.79-.93,15.68-1.58,23.47-1.95,7.46-.35,15.02-.44,22.47-.28l-.03,1.16c-7.42-.16-14.96-.07-22.39.28-7.76.36-15.63,1.02-23.39,1.94-8.73,1.04-17.57,2.45-26.27,4.2Z"/>
          <path class="cls-7" d="M131.36,330.56l-.23-1.14c8.73-1.75,17.6-3.17,26.37-4.21,7.79-.93,15.69-1.58,23.47-1.95,7.46-.35,15.02-.45,22.47-.28l-.03,1.16c-7.43-.16-14.96-.07-22.39.28-7.76.36-15.63,1.02-23.39,1.94-8.73,1.04-17.57,2.45-26.27,4.2Z"/>
        </g>
      </g>
      <g id="Scanner">
        <path class="cls-9" d="M130.12,199.56l-124.99-.43c-2.49,0-4.51,2.01-4.52,4.49L0,381.14c0,2.49,2,4.52,4.49,4.52l124.99.43c2.49,0,4.51-2,4.52-4.49l.61-177.52c0-2.48-2-4.51-4.49-4.52ZM128.41,375.47c0,2.48-2.03,4.49-4.52,4.49l-113.78-.39c-2.49,0-4.49-2.03-4.49-4.52l.57-165.9c0-2.48,2.03-4.5,4.52-4.49l113.78.39c2.49,0,4.49,2.04,4.49,4.52l-.57,165.9Z"/>
        <rect class="cls-18" x="-20.15" y="230.91" width="174.91" height="122.78" rx="4.5" ry="4.5" transform="translate(-225.23 358.6) rotate(-89.8)"/>
        <path class="cls-9" d="M87.44,226.87v3.07s24.53.08,24.53.08l-.09,24.67h3.21s.1-27.73.1-27.73l-27.74-.1ZM111.68,310.72l-.08,24.49-24.54-.08v3.26s27.73.1,27.73.1l.1-27.74h-3.21ZM19.88,226.63l-.1,27.74h3.21s.09-24.66.09-24.66l24.54.08v-3.07s-27.73-.1-27.73-.1ZM22.71,334.9l.08-24.49h-3.21s-.1,27.73-.1,27.73l27.74.1v-3.26s-24.52-.08-24.52-.08Z"/>
        <circle class="cls-9" cx="67.08" cy="358.98" r="8.99"/>
      </g>
    </g>
    <g id="PC">
      <g id="Form">
        <path class="cls-19" d="M475.2,200.13l.05,154.96,214.57-.07-.05-154.96-214.57.07ZM683.19,328.1l-201.32.07-.04-121.12,201.32-.07.04,121.12Z"/>
        <path class="cls-5" d="M660.01,385.99l-153.71.05c0-3.55,1.44-6.78,3.77-9.12,2.33-2.33,5.56-3.77,9.11-3.77h45.23s-.01-18.15-.01-18.15h35.81s.01,18.12.01,18.12h46.9c7.12-.02,12.89,5.75,12.89,12.87Z"/>
        <rect class="cls-1" x="481.85" y="207.01" width="201.33" height="121.13"/>
      </g>
      <g id="Zeilen-2" data-name="Zeilen">
        <rect class="cls-5" x="496.69" y="222.71" width="79.51" height="1.16"/>
        <rect class="cls-5" x="496.7" y="235.21" width="79.51" height="1.16"/>
        <rect class="cls-5" x="496.7" y="246.75" width="79.51" height="1.16"/>
        <rect class="cls-5" x="496.7" y="258.29" width="79.51" height="1.16"/>
        <rect class="cls-5" x="496.71" y="269.83" width="79.51" height="1.16"/>
        <rect class="cls-5" x="496.72" y="293.88" width="79.51" height="1.16"/>
        <rect class="cls-5" x="496.71" y="281.85" width="79.51" height="1.16"/>
        <rect class="cls-5" x="496.72" y="305.9" width="79.45" height="1.16"/>
        <rect class="cls-5" x="496.73" y="317.67" width="79.51" height="1.16"/>
        <rect class="cls-5" x="588.8" y="222.32" width="79.51" height="1.16"/>
        <rect class="cls-5" x="588.81" y="269.44" width="79.51" height="1.16"/>
        <rect class="cls-5" x="588.82" y="293.49" width="79.51" height="1.16"/>
        <rect class="cls-5" x="588.82" y="281.47" width="79.51" height="1.16"/>
        <rect class="cls-5" x="588.82" y="305.51" width="79.45" height="1.16"/>
        <rect class="cls-5" x="588.83" y="317.28" width="79.51" height="1.16"/>
      </g>
      <g id="Lorem_ipsum_Rahmen" data-name="Lorem ipsum + Rahmen">
        <path class="cls-5" d="M668.34,235.3h-.02v-.14l-79.51.04v.03h-.06v23.79h.07v.06l79.5-.02v-.15h.04v-23.6ZM589.92,257.91v-21.55s77.25-.04,77.25-.04v21.56s-77.25.02-77.25.02Z"/>
        <rect class="cls-19" x="587.8" y="234.24" width="3.06" height="3.06"/>
        <rect class="cls-19" x="587.81" y="256.97" width="3.06" height="3.06"/>
        <rect class="cls-19" x="666.23" y="256.94" width="3.06" height="3.06"/>
        <rect class="cls-19" x="666.22" y="234.22" width="3.06" height="3.06"/>
        <rect class="cls-19" x="666.22" y="245.57" width="3.06" height="3.06"/>
        <rect class="cls-19" x="627.03" y="256.95" width="3.06" height="3.06"/>
        <rect class="cls-19" x="627.01" y="234.23" width="3.06" height="3.06"/>
        <rect class="cls-19" x="587.8" y="245.6" width="3.06" height="3.06"/>
        <text class="cls-20" transform="translate(593.53 250.79) rotate(-.02)"><tspan x="0" y="0">Lorem ipsum</tspan></text>
      </g>
    </g>
  </g>
</svg>