<?xml version="1.0" encoding="UTF-8"?>
<svg id="G-0157_BUW_Druchblick_Poser" xmlns="http://www.w3.org/2000/svg" viewBox="0 0 564.64 530.74">
  <defs>
    <style>
      .cls-1 {
        fill: #dec1a8;
      }

      .cls-1, .cls-2, .cls-3, .cls-4, .cls-5, .cls-6, .cls-7, .cls-8, .cls-9 {
        stroke-width: 0px;
      }

      .cls-10 {
        stroke-width: .25px;
      }

      .cls-10, .cls-11 {
        fill: none;
        stroke: #000;
        stroke-linecap: round;
        stroke-miterlimit: 10;
      }

      .cls-2 {
        fill: #e6710a;
      }

      .cls-11 {
        stroke-width: 2px;
      }

      .cls-3 {
        fill: #000;
      }

      .cls-4 {
        fill: #fcd9bd;
      }

      .cls-5 {
        fill: #236289;
      }

      .cls-6 {
        fill: #ec9447;
      }

      .cls-7 {
        fill: #ccc;
      }

      .cls-8 {
        fill: #fff;
      }

      .cls-9 {
        fill: #f2b885;
      }
    </style>
  </defs>
  <g id="Körper">
    <g id="Oberkörper">
      <path class="cls-4" d="M551.25,372.77c-6.02,4.34-13.72,4.47-32.6,0-31.68-7.51-46.5-16.91-82.64-30.62-15.43-5.85-13.13-4.29-37.73-13.3-24.52-8.98-44.27-16.92-57.21-22.26-.65,9.42-1.27,22.62-1.07,38.41.31,24.13,2.86,42.79,5.13,63.68,3.96,36.32,9.48,70.24,15.85,101.53-79.19,1.95-158.38,3.89-237.57,5.85,4.11-29.03,7.53-59.59,9.95-91.59,2.48-32.97,3.72-64.76,3.95-95.23-4.49,6.5-9.61,13.88-15.48,22.36-4.14,5.97-29.81,43.11-67.12,82.49-6.86,7.25-16.49,17.34-28.39,16C9.1,448.17-.46,431.94.02,422.63c.2-4.06,1.8-7.9,1.8-7.9,0,0,.38-.93.81-1.86,19.82-41.73,48.32-88.63,48.32-88.63,25.63-42.18,33.45-55.45,41.77-65.76,2.48-3.07,5.25-6.85,9.8-10.93,17.04-15.29,37.88-18.36,46.54-19.52,3.4-.46,3.74-.34,16.7-.93,31.95-1.46,38.88-2.59,63.7-3.71,20.48-.92,36.02-1.07,39.3-1.1,74.67-.63,105.68,8.09,116.65,11.46,2.18.67,7.35,2.1,13.88,4.7,12.31,4.88,25.63,12.61,68.71,36.77,0,0,47.86,26.85,85.62,53.46.84.59,1.62,1.23,1.62,1.23,0,0,3.28,2.55,5.45,5.98,4.98,7.88,4.63,26.71-9.43,36.85Z"/>
    </g>
    <g id="Oberteil">
      <path class="cls-9" d="M242.04,520.23c-18.48,1.42-38.04,2.36-58.57,2.59-28.45.34-55.14-.7-79.81-2.59,2.23-14.67,5.45-37.03,10.2-64.2,8.59-49.2,13.74-68.32,17.31-100.78-4.45,6.88-9.16,14.17-14.1,21.81-14.42-7.45-31.59-17.9-49.32-32.47-13.77-11.31-24.91-22.67-33.78-32.89,9.23-12.19,17.76-21.94,24.47-29.18,10.21-10.99,20.89-22.4,36.91-33.83,7.43-5.31,13.81-9.05,16.38-10.52,6.46-3.71,13.93-7.5,22.43-11.05.13.07.28.14.46.24,4.81-2.12,11.17-4.32,18.86-5.5,9.78-1.51,18.04-.81,23.6.1,2.73,3.18,21.69,24.26,52.91,24.17,1.23,0,2.43-.03,3.64-.11l8.44,274.2Z"/>
      <path class="cls-6" d="M436.19,242.24c-2.39,14.7-7.03,33.95-16.47,55.1-8.09,18.08-17.44,32.47-25.58,43.24-9.57-2.05-23.46-5.9-38.96-13.61-2.92-1.45-5.83-2.9-8.72-4.41.43,3.58.91,7.21,1.45,10.89,6.64,45.01,16.32,66.76,26.96,114.24,4.24,18.89,8.91,43.28,12.57,72.55-22.68,1.98-47.41,3.21-73.91,3.18-25.58-.04-49.5-1.26-71.49-3.18-2.82-91.39-5.62-182.79-8.44-274.2,30.91-1.73,48.95-23.98,51.18-26.84,7.46-1.33,18.08-2.34,30.62-.93,6.25.7,11.87,1.91,16.79,3.29,13.77-.35,30.9.39,50.2,3.99,21.95,4.09,40.1,10.62,53.8,16.7Z"/>
    </g>
    <g id="Hosenträger">
      <path class="cls-2" d="M151.56,220.25c-6.94,44.91-6.85,81.57-5.4,107.06,1.09,19.31,3.12,34.62,13.3,98.03,6.62,41.28,12.4,75.97,16.72,101.53,1.83.97,4.82,2.24,8.67,2.6,6.18.57,10.94-1.54,12.98-2.6-8.4-40.58-15.25-76.65-20.74-107.09-11.64-64.56-13.18-81.79-13.92-94.01-2.56-42.51,1.39-78.87,6.27-106.31-2.25-.51-5.38-.98-9.09-.8-3.62.17-6.62.9-8.78,1.59Z"/>
      <path class="cls-2" d="M325.12,218.23c6.67,51.38,10.02,116.73,1.29,191.41-5.22,44.61-13.79,84.4-23.34,118.66-1.65.88-6.05,2.95-11.82,2.31-4.48-.5-7.68-2.39-9.23-3.46,10.22-34.17,19.57-74.01,25.55-118.82,10.01-74.92,7.54-140.57,1.55-192.03,1.86-.4,4.69-.79,8.11-.39,3.47.41,6.17,1.48,7.89,2.32Z"/>
    </g>
  </g>
  <g id="Gesicht">
    <g id="Haare">
      <path class="cls-7" d="M166.32,55.75c-.95.55-8.28,4.98-9.54,13.87-1.01,7.13,2.28,14.37,8.46,18.64-1.17.66-13.05,7.58-14.42,21.18-1.16,11.57,5.76,23.11,17.31,28.3-.5,1.38-2.4,7.09.36,12.64,3.2,6.42,11.32,10.04,19.87,8.31,1.47,2.79,5.72,9.93,14.45,14.09,14.21,6.77,27.98-.21,29.62-1.08.97.46,19.52,8.81,34.68-1.81,7.27-5.09,10.36-12.17,11.56-15.53,2.55-.35,10.03-1.73,16.56-8.07,7.08-6.88,8.42-15.13,8.73-17.57.55-.59,11.58-12.92,6.99-27.67-2.66-8.55-9.08-13.14-11.32-14.59,1.23-3.14,4.84-13.48,1.03-25.77-3.02-9.73-9.11-15.58-11.86-17.93-.99-2.8-3.77-9.43-10.62-14.85-6.49-5.13-13.15-6.43-16.11-6.83-13.97-2.05-27.93-4.09-41.9-6.14-9.03,4.21-18.06,8.43-27.09,12.64-3.01.34-9.39,1.49-15.41,6.29-10,7.96-11.15,19.68-11.32,21.89Z"/>
    </g>
    <g>
      <rect class="cls-4" x="208.46" y="145.64" width="47.24" height="97.54" rx="23.62" ry="23.62"/>
      <rect class="cls-4" x="170.71" y="22.41" width="121.64" height="151.21" rx="60.82" ry="60.82"/>
      <rect class="cls-4" x="153.35" y="94.94" width="26.78" height="31.8" rx="13.39" ry="13.39"/>
      <rect class="cls-4" x="284.53" y="94.94" width="26.78" height="31.8" rx="13.39" ry="13.39"/>
      <path class="cls-1" d="M255.58,168.62c-3.63,1.6-8.59,3.37-14.68,4.33-7.09,1.13-13.14.77-17.43.18,10.76,8.01,21.51,16.01,32.27,24.02,0-2.65.01-4.95.01-6.82,0-1.52,0-1.66,0-8.53,0-4.79,0-5.28-.01-6.33-.04-2.91-.11-5.28-.17-6.85Z"/>
      <path class="cls-1" d="M299.88,104.71c.94,0,2.28,3.82,1.25,7.29-.74,2.49-2.75,4.99-3.56,4.66-1.55-.63.67-11.96,2.3-11.95Z"/>
      <path class="cls-1" d="M163.95,104.71c-.94,0-2.28,3.82-1.25,7.29.74,2.49,2.75,4.99,3.56,4.66,1.55-.63-.67-11.96-2.3-11.95Z"/>
    </g>
    <g id="Augenbrauen">
      <path class="cls-7" d="M216.86,78.03c-1.63-.88-4.69-2.23-8.74-2.42-5.09-.23-8.91,1.52-10.6,2.42-2.89-1.47-3.55-2.66-3.53-3.53.06-3.02,8.15-6.29,15.44-5.58,4.92.48,10.98,2.91,10.97,5.58,0,1.38-1.64,2.59-3.53,3.53Z"/>
      <path class="cls-7" d="M267.36,75.22c-1.18-1.43-3.5-3.84-7.19-5.53-4.63-2.13-8.83-1.95-10.73-1.75-2.13-2.45-2.29-3.81-1.94-4.6,1.19-2.78,9.91-2.76,16.4.64,4.38,2.29,9.08,6.83,8.07,9.3-.53,1.28-2.49,1.78-4.6,1.94Z"/>
    </g>
    <g id="Nase">
      <path class="cls-10" d="M230.84,102.9c0,2.14.07,3.55.07,5.69.07.81.16,2.49.49,3.51.9,2.8,2.86,4.42,3.92,5.41,2.8,2.56,2.91,4.65,2.21,6.3-.92,2.18-5.22,3.56-9.62,1.12"/>
    </g>
    <g id="Augen">
      <rect class="cls-3" x="250.02" y="83.83" width="9.71" height="11.41" rx="4.86" ry="4.86"/>
      <line class="cls-11" x1="201.04" y1="91.24" x2="212.87" y2="91.24"/>
    </g>
    <g id="Mund">
      <path class="cls-8" d="M254.08,134.34c0,.94-.16,12.53-9.04,18.32-8.48,5.53-21.37,3.48-29.45-6.03,5.13-.4,11.49-1.35,18.55-3.48,8.34-2.51,15.03-5.87,19.95-8.81Z"/>
    </g>
    <g id="Haare-2" data-name="Haare">
      <path class="cls-7" d="M166.81,60.68c5.68,5.54,13.5,5.12,15.05,5,2.6,2.86,5.18,4.43,6.89,5.29,9.27,4.66,20.4,2.27,27.63-2.71,2.43-1.67,4.12-3.43,5.15-4.61,3.29,1.13,9.39,2.66,16.49.94,1.75-.42,14.52-3.51,17.34-13.55.82-2.94.55-5.6.18-7.41,1.65.76,7.3,3.12,13.67,1.05,7.5-2.44,13.91-10.34,12.7-19.38-1-7.44-6.88-13.6-14.63-15.17-.98-1.41-5.55-7.68-14.33-9.61-8.7-1.91-15.42,1.78-16.92,2.66-2.48-.99-10.6-3.86-20.47-1.03-9.44,2.71-14.71,8.98-16.38,11.14-.85-.35-6.82-2.71-13.15.51-6.33,3.22-7.95,9.44-8.16,10.33-1.75.67-10.59,4.28-14.33,13.78-.28.7-5.4,14.33,3.25,22.76Z"/>
    </g>
    <g id="Brille">
      <path class="cls-5" d="M292.43,78.47h-48.5c-4.76,0-8.63,3.88-8.63,8.63v2.72l-8.84.03v-2.75c0-4.76-3.86-8.63-8.63-8.63h-48.5c-4.76,0-8.63,3.88-8.63,8.63v13.4c0,4.76,3.88,8.63,8.63,8.63h48.5c4.77,0,8.63-3.88,8.63-8.63v-7.87l8.84-.03v7.9c0,4.76,3.88,8.63,8.63,8.63h48.5c4.76,0,8.63-3.88,8.63-8.63v-13.4c0-4.76-3.88-8.63-8.63-8.63ZM223.67,100.51c0,3.22-2.62,5.84-5.84,5.84h-48.5c-3.22,0-5.84-2.62-5.84-5.84v-13.4c0-3.22,2.62-5.84,5.84-5.84h48.5c3.22,0,5.84,2.62,5.84,5.84v13.4ZM298.28,100.51c0,3.22-2.62,5.84-5.84,5.84h-48.5c-3.22,0-5.84-2.62-5.84-5.84v-13.4c0-3.22,2.62-5.84,5.84-5.84h48.5c3.22,0,5.84,2.62,5.84,5.84v13.4Z"/>
    </g>
  </g>
  <g id="Arme">
    <path class="cls-4" d="M242.72,416.11c-4.09,3.31-8.9,3.56-12.65,3.64-7.56.15-20.38-.2-38.08-3.49-80.78,20.6-140.6,33.64-155.47,35.16-4.91.5-15.15,1.49-23.68-4.7-1.21-.88-3.84-2.82-6.04-6.14-7.28-10.99-4.97-29.58,6.46-38.5,5.48-4.3,11.58-5.09,13.5-5.29,19.43-1.97,78.53-5.61,158.51-9.3,4.35-2.75,7.92-5.26,10.61-7.23,5.48-4.03,7.6-6.05,8.38-6.83.74-.71,3.4-2.79,5.72-6.51,2.51-4.03,4.28-11.35,9.79-12.33,2.22-.4,4.46.53,5.75,1.7,2.69,2.47,2.13,6.93,1.69,10.07-1.1,7.92-4.8,9.81-3.52,12.43,1.41,2.9,6.39.73,12.54,3.36,6.81,2.93,12.57,10.68,12.75,19.11.03.99.08,9.69-6.26,14.84Z"/>
    <path class="cls-4" d="M563.81,356.74c-2.57,9.64-10.06,16.01-15.36,18.65-44.86,22.25-89.69,44.55-134.55,66.8-3,3.38-6.89,7.42-11.67,11.72-7.24,6.5-13.82,12.43-23.38,16.96-11.16,5.29-31.11,10.91-38.44,2.72-.36-.4-2.52-2.89-2.65-6.39-.08-2.3.59-6.95,14.95-17.53,4.52-3.33,11.13-7.8,19.77-12.26-1.16-4.69-2.33-9.36-3.49-14.03,2.73-1.44,6.61-3.33,11.45-5.23.46-.17,1.66-.64,3.17-1.17,3.78-1.35,7.31-2.39,10.45-3.19,43.16-27.88,84.1-59.1,127.35-86.84,1.67-1.07,6.79-4.2,13.8-4.46,8.4-.34,19.47,3.5,25.47,13.45.71,1.19,5.96,10.21,3.14,20.83Z"/>
  </g>
</svg>