<?xml version="1.0" encoding="UTF-8"?>
<svg id="G-0104_BUW_Dr_M" xmlns="http://www.w3.org/2000/svg" viewBox="0 0 693.77 542.71">
  <defs>
    <style>
      .cls-1 {
        fill: #eee;
      }

      .cls-1, .cls-2, .cls-3, .cls-4, .cls-5, .cls-6, .cls-7, .cls-8, .cls-9, .cls-10, .cls-11, .cls-12, .cls-13, .cls-14, .cls-15, .cls-16, .cls-17, .cls-18, .cls-19, .cls-20 {
        stroke-width: 0px;
      }

      .cls-2 {
        fill: #42210b;
      }

      .cls-3 {
        fill: #a5678d;
      }

      .cls-4 {
        fill: #308fc9;
      }

      .cls-5 {
        fill: #206289;
      }

      .cls-6 {
        fill: #dec1a8;
      }

      .cls-7 {
        fill: #64abd6;
      }

      .cls-8 {
        fill: #e6710a;
      }

      .cls-9 {
        fill: #873567;
      }

      .cls-10 {
        fill: #000;
      }

      .cls-11 {
        fill: #fcd9bd;
      }

      .cls-12 {
        fill: #236289;
      }

      .cls-13 {
        fill: #ec9447;
      }

      .cls-14 {
        fill: #e5e6e5;
      }

      .cls-15 {
        fill: #98c7e4;
      }

      .cls-16 {
        fill: #603813;
      }

      .cls-17 {
        fill: #ccc;
      }

      .cls-18 {
        fill: #e1ccd9;
      }

      .cls-19 {
        fill: #dec1a8;
      }

      .cls-20 {
        fill: #f2b885;
      }
    </style>
  </defs>
  <g id="Gesicht">
    <g id="Haare">
      <path class="cls-16" d="M331.87,74.6c1.2,2.38.2,5.16-1.82,6.13-2.19,1.05-5.26-.17-6.13-2.95-4.6.25-7.94-2.9-7.95-5.9,0-2.96,3.25-4.9,3.41-4.99-4.89-.43-8.62-4.26-8.85-8.63-.19-3.49,1.87-6.9,5.22-8.63-.35-.35-3.63-3.67-2.95-8.63.69-4.98,4.79-7.29,5.21-7.53.3-1.86,1.21-5.85,4.39-9.61,2.24-2.64,4.71-4.11,6.28-4.89.02-.44.41-6.79,5.9-9.99,4.12-2.4,9.41-2.05,13.39.91,1.98-2.3,5.08-3.28,7.95-2.5,3.15.86,5.44,3.69,5.68,7.04,1.3-.12,8.1-.64,13.17,4.09,5.44,5.08,6.67,14.15,2.49,21.97.58.44,2.32,1.87,2.98,4.42.46,1.79.17,3.29-.02,4.03,2.95,1.39,4.89,4.29,4.99,7.49.12,3.49-1.96,6.74-5.22,8.17,2.58,1.69,3.49,4.96,2.27,7.49-1.02,2.12-3.39,3.41-5.9,3.18-.5,3.5-3.43,5.76-6.13,5.45-1.87-.22-3.52-1.66-4.31-3.63-2.16,1.22-4.69,1.38-6.36.23-2.46-1.69-3.14-6.27-.23-9.76-9.91.23-19.83.45-29.74.68l2.27,6.36Z"/>
    </g>
    <g id="Kopf">
      <path class="cls-11" d="M380.34,56.21v2.04c0,3-2.45,5.46-5.45,5.46-1,0-1.95-.27-2.76-.75-1.64,7.98-7.14,14.59-14.44,17.77.01.1.01.18.01.27v20.47c0,5.28-4.32,9.6-9.6,9.6s-9.61-4.32-9.61-9.6v-20.55c-7.43-3.07-13.07-9.66-14.8-17.66-.67.29-1.41.45-2.17.45-3,0-5.46-2.46-5.46-5.46v-2.04c0-2.99,2.46-5.45,5.46-5.45.56,0,1.1.08,1.61.25v-5.02c0-13.6,11.13-24.73,24.75-24.73,6.81,0,12.99,2.78,17.47,7.26,4.49,4.49,7.27,10.67,7.27,17.47v5.27c.69-.32,1.46-.5,2.27-.5,1.5,0,2.87.61,3.85,1.6.99.99,1.6,2.35,1.6,3.85Z"/>
    </g>
    <g id="Augenbrauen">
      <path class="cls-2" d="M361.99,45.6c-.66-.36-1.91-.91-3.56-.98-2.07-.09-3.63.62-4.31.98-1.18-.6-1.44-1.08-1.44-1.44.02-1.23,3.31-2.56,6.28-2.27,2,.19,4.47,1.18,4.46,2.27,0,.56-.67,1.05-1.44,1.44Z"/>
      <path class="cls-2" d="M342.26,45.6c-.66-.36-1.91-.91-3.56-.98-2.07-.09-3.63.62-4.31.98-1.18-.6-1.44-1.08-1.44-1.44.02-1.23,3.31-2.56,6.28-2.27,2,.19,4.47,1.18,4.46,2.27,0,.56-.67,1.05-1.44,1.44Z"/>
    </g>
    <g id="Augen">
      <rect class="cls-10" x="336.56" y="47.26" width="3.95" height="4.64" rx="1.98" ry="1.98"/>
      <rect class="cls-10" x="355.97" y="47.26" width="3.95" height="4.64" rx="1.98" ry="1.98"/>
    </g>
    <g id="Schatten">
      <path class="cls-19" d="M357.41,80.96c-1.28.69-3.22,1.54-5.71,1.98-2.88.51-5.3.25-6.84-.04,4.29,3.16,8.57,6.32,12.86,9.49.05-1.1.07-2.04.09-2.73.02-1.29,0-2.18-.02-3.95-.02-1.49-.04-1.85-.06-2.14-.08-1.09-.21-1.99-.32-2.6Z"/>
      <path class="cls-6" d="M375.68,54.74c.38,0,.93,1.55.51,2.97-.3,1.01-1.12,2.03-1.45,1.89-.63-.26.27-4.87.94-4.86Z"/>
      <path class="cls-6" d="M320.38,54.74c-.38,0-.93,1.55-.51,2.97.3,1.01,1.12,2.03,1.45,1.89.63-.26-.27-4.87-.94-4.86Z"/>
    </g>
    <g id="Nase">
      <path class="cls-10" d="M348.9,64.67c-.66,0-1.35-.19-2-.55-.07-.04-.1-.13-.06-.2.04-.07.13-.1.2-.06.92.51,1.96.64,2.78.36.45-.16.79-.43.92-.74.33-.78.05-1.57-.86-2.4l-.12-.11c-.44-.4-1.17-1.08-1.52-2.16-.12-.37-.16-.93-.19-1.3v-.16c-.01-.45-.02-.81-.03-1.17,0-.36-.01-.72-.01-1.16,0-.08.07-.15.15-.15s.15.07.15.15c0,.43,0,.79.01,1.16,0,.36.01.72.01,1.16v.15c.04.36.08.89.19,1.24.32,1,.99,1.62,1.44,2.03l.12.11c1.01.92,1.32,1.82.94,2.73-.16.39-.57.72-1.1.91-.32.11-.67.17-1.03.17Z"/>
    </g>
    <g id="Mund">
      <path class="cls-10" d="M349.26,73.3c-1.02,0-2.05-.12-3.08-.35-2.09-.48-4.13-1.42-6.05-2.81-.07-.05-.08-.14-.03-.21s.14-.08.21-.03c1.88,1.36,3.88,2.29,5.94,2.76,2.22.5,4.41.46,6.52-.14.08-.02.16.02.18.1.02.08-.02.16-.1.18-1.17.33-2.37.5-3.58.5Z"/>
    </g>
    <g id="Haare-2" data-name="Haare">
      <path class="cls-16" d="M377.58,43.33c-.78,2.15-2.71,3.44-4.81,3.2-1.49,1.24-3.67.68-4.62-1-.86-1.48-.61-3.56.69-4.67-2.13,1.67-4.96,1.65-7.03-.02-2.46-1.98-2.65-5.29-2.66-5.63-.29-.16-3.44-1.96-4.5-5.96-.79.13-1.68.12-2.6-.08,1.18,2.9.24,6.26-2.26,8.1-2.57,1.87-6.15,1.73-8.56-.38.23,3.32-1.58,5.16-3.09,5.71-2.91,1.06-5.28-.53-6.25-.53-.23,0,.87,3.28-1.74,5.67-1.37,1.25-4.54,2.15-6.65,1.33-1.23-.53-3.71-1.84-4.92-3.56-3.52-5.04,1.89-13.58,4.97-17.77,2.09-2.83,4.55-4.56,6.32-5.57-.25-2.95,1.43-5.67,4-6.62,2.99-1.11,6.59.39,8.01,3.58,1.06-2.56,3.73-4.05,6.35-3.62,2.85.47,5,3.09,4.87,6.12.86.17,1.61.47,2.26.85.6-1.17,1.24-1.86,1.34-1.96.1-.3,1.13-3.42,3.82-4.02,2.63-.59,5.76,1.46,7.06,5.06.47.04,4.87.47,7.63,4.91,3.07,4.96,1.21,10.24,1.1,10.53,1.53,1.7,2.04,4.23,1.29,6.33Z"/>
    </g>
  </g>
  <g id="Körper">
    <g id="Körper-2" data-name="Körper">
      <path class="cls-11" d="M434.08,177.04c-3.57,1.52-7.52.74-10.22-1.7-.25-.21-.48-.48-.69-.72-.08-.05-.16-.14-.22-.2-13.72-13.75-27.43-27.51-41.13-41.25-1.93,16.65-3.87,33.3-5.79,49.93,5.04,10.08,10.08,20.17,15.12,30.25,0,.01.01.01.01.02.14.19.27.37.38.6.25.38.55.87.87,1.39,5.85,9.29,18.02,40.91,19.63,102.76.23,9.23.42,21.68.25,36.45,0,.08,0,.16-.01.24,0,.02.01.04,0,.06,0,.06,0,.11-.01.17,0,.02,0,.05.01.07,3.77,30.31,7.18,61.58,10.09,93.75,2.36,26.14,4.3,51.75,5.86,76.77-4.78.24-9.56.47-14.34.7-7.63-22.68-14.95-48.42-20.91-76.95-7.11-34.09-10.87-65.42-12.68-92.95.04.19.08.37.13.56-.05-.35-.1-.69-.12-1.05h.01c-.01-.11-.01-.23-.02-.33-.01.11,0,.23.01.33h-.05c.01.17.02.32.04.49-8.66-37.43-17.28-74.86-25.95-112.29-.24-.14-.45-.31-.64-.5h-6.41s-.01.01-.01.01c-5.35,38.06-10.7,76.16-16.05,114.22,1.15,27.66.64,59.39-3.12,94.23-1.36,12.56-2.72,20.11-4.92,36.12-2.17,15.86-3.95,28.78-5.11,37.11-.02.24-.06.5-.11.8-5.87-.08-11.74-.15-17.6-.23,0-.26.02-.54.06-.8-.79-23.05-1.33-46.54-1.59-70.48-.36-32.4-.17-64.03.47-94.84-.01-.1-.02-.18-.02-.28-.02-.26-.05-.54-.06-.81s-.02-.55-.02-.82c-1.46-11.61-2.25-21.25-2.74-27.99,0,0-5.74-81.54,13.63-114.33,0,0,.47-.78.84-1.59v-.02c.14-.16.29-.32.44-.47l-.12-.1,19.37-30.28c-3.92-13.41-7.85-26.81-11.78-40.22-7.76,16.76-15.54,33.52-23.31,50.29-.04.08-.07.19-.13.27-.12.29-.25.61-.41.91-1.7,3.21-5.15,5.29-9.02,5.09-5.33-.29-9.4-4.84-9.11-10.15.05-.87.2-1.71.49-2.51,0,0,.07-.21.11-.32,8.2-23.3,16.43-46.57,24.66-69.85.13-.3.23-.62.33-.91.02-.06.02-.11.06-.17,1.23-2.96,3.51-5.35,6.34-6.75.24-.12.49-.24.75-.33,1.29-.33,2.62-.66,3.96-.98,10.25-2.45,21.83-4.63,34.6-6.09,13.79-1.56,26.42-1.99,37.54-1.82-.05.43-.1.85-.14,1.28,1.58.72,3.01,1.74,4.2,3.05.05.04.06.08.11.13.19.24.41.5.62.74,15.72,19.06,31.42,38.09,47.13,57.16.06.08.2.26.2.26.55.66.98,1.4,1.33,2.2,2.09,4.9-.18,10.56-5.08,12.66Z"/>
    </g>
    <g id="Oberteil">
      <path class="cls-17" d="M417.58,129.46l-24.47,20.83-9.21-10.81c-.12,1.97-.23,3.77-.33,5.41-.13,1.95-.38,5.71-.66,10.95-.51,9.72-.81,19.15-.96,28.23-6.41,2.19-16.33,4.71-28.59,4.62-.7,0-1.42-.04-2.13-.06v-80.83c8.85-2.04,14.07-7.69,15.29-9.09,5.24-.05,10.49-.1,15.73-.13.01,0,.02-.01.04-.01,4.87-.62,9.96,1.13,13.36,5.14l21.93,25.75Z"/>
      <path class="cls-14" d="M351.23,107.81v80.83c-11.08-.32-20.04-2.7-26.02-4.78-.96-4.53-1.99-9.17-3.08-13.87,0,0-1.97-8.42-4.18-16.77-.04-.13-.07-.28-.11-.41l-1.78,6.88-31.42-8.12,8.44-32.66c1.5-5.8,6.23-9.95,11.78-11.02,3.94-1.18,8.13-2.32,12.55-3.34,3.3-.76,6.51-1.43,9.6-2.01,1.64,1.25,9.47,6.99,20.67,5.88,1.25-.14,2.42-.33,3.55-.61Z"/>
    </g>
    <g id="Hosenanzug">
      <g id="Links">
        <path class="cls-7" d="M351.23,145.6v45.01h-.14v59.39c-3.81,33.95-7.45,68.25-10.9,102.91-4.98,50.2-9.45,99.75-13.4,148.64-1.74.25-3.59.47-5.52.63-3.52.33-7.36.54-11.43.54-3.57-.01-6.95-.17-10.1-.43-2.32-.2-4.53-.45-6.59-.74-1.78-63.69-2.95-110.82-3.2-127.44-.11-7.46-.14-14.48-.14-14.48-.06-8.62-.06-20.33.14-33.97.61-38.7.88-58.06,4.24-73.25,3.61-16.3,12.21-41.55,35.71-69.63h.7c-.37-4.92-.58-10.21-.55-15.81.04-7.79.56-14.94,1.33-21.34l-12.05-42.41c.62-.27,1.41-.55,2.34-.76,1-.24,1.9-.32,2.6-.35,4.08,14.38,8.17,28.76,12.25,43.14,1.76-.08,3.57-.12,5.46-.11,3.3.02,6.39.19,9.26.44Z"/>
        <path class="cls-12" d="M329.82,507.8c.07,3.22-.73,5.76-1.33,7.23-2.44.35-5.04.64-7.81.86-.43.05-.86.07-1.3.1-3.25.25-6.71.37-10.35.35-3.12-.02-6.08-.16-8.9-.37-.74-.05-1.48-.11-2.2-.18-2.27-.2-4.43-.47-6.47-.75-.56-1.41-1.3-3.77-1.31-6.78-.01-3.08.75-5.51,1.31-6.93.55.08,1.11.17,1.68.25,2.07.29,4.28.54,6.59.74,3.15.26,6.53.42,10.1.43,4.07,0,7.91-.2,11.43-.54,1.92-.17,3.77-.38,5.52-.63.59-.08,1.15-.17,1.71-.25.56,1.4,1.27,3.64,1.33,6.49Z"/>
      </g>
      <g id="Rechts">
        <path class="cls-4" d="M433.38,500.77c-2.16.47-4.41.91-6.71,1.33-2.95.54-6.01,1.03-9.17,1.47-3.61.5-7.09.9-10.45,1.19-1.73.16-3.42.29-5.08.39-4.91-17.64-11.18-42.48-16.77-72.57-5.73-30.92-6.43-47.6-11.1-74.24-6.75-38.45-14.58-74.62-23.01-108.35v-67.18h.14v-37.23c3.12-.2,6.43-.32,9.92-.32,1.72,0,3.4.02,5.04.08,3.37-15.9,6.71-31.8,10.07-47.7.72-.04,1.62-.02,2.64.14.94.16,1.74.39,2.38.62l-10.15,48.12c.64,6.25,1.05,13.08,1.09,20.45.04,5.59-.16,10.9-.5,15.88,1.7,0,3.39.01,5.09.01,7.68,9.96,18.44,26.02,26.36,47.76,6.66,18.32,8.62,33.35,13.33,82.93,1.34,14.27,2.44,26.48,3.31,36.22.68,7.86,1.43,16.46,2.13,24.32,3.71,42.22,7.52,84.44,11.45,126.66Z"/>
        <path class="cls-12" d="M437.92,513.77c-2.35.68-4.9,1.35-7.62,1.96-.87.2-1.76.39-2.66.57-2.56.51-5.24.99-8.06,1.37-2.85.39-5.61.68-8.24.87-1.03.08-2.04.14-3.02.19-2.48.13-4.85.18-7.07.17-.69-1.59-1.48-3.85-1.88-6.63-.39-2.81-.25-5.22-.02-6.95.86-.05,1.74-.1,2.63-.17,1.66-.11,3.34-.24,5.08-.39,3.36-.3,6.84-.69,10.45-1.19,3.16-.44,6.22-.93,9.17-1.47,2.3-.42,4.55-.86,6.71-1.33.9-.19,1.77-.38,2.64-.59.76,1.18,1.9,3.26,2.39,6.1.57,3.34-.06,6.07-.49,7.48Z"/>
      </g>
      <circle class="cls-15" cx="368.14" cy="149.19" r="2.02"/>
      <circle class="cls-15" cx="334.58" cy="148.79" r="2.02"/>
      <path class="cls-15" d="M362.62,176.13c-3.15.59-7,1.06-11.39,1.07-4.56.01-8.55-.47-11.79-1.07-.58-2.82-1.05-6.38-1.03-10.5.03-3.82.48-7.13,1.03-9.81,3.36.51,7.32.89,11.76.88,4.29,0,8.14-.38,11.41-.88.52,2.82.94,6.29.93,10.25,0,3.88-.42,7.28-.93,10.06Z"/>
    </g>
    <g id="Unterarme">
      <path class="cls-11" d="M292.37,197.53c-4.22,3.25-10.28,2.45-13.53-1.77-.88-1.15-1.48-2.45-1.78-3.77v-.02c-8.4-21.33-16.79-42.66-25.18-64-.02.01-.06.01-.08.02-.7-.62-1.45-1.33-2.17-2.15-1.84-2.08-3.07-4.16-3.88-5.88-1.76-2.71-2.78-4.91-3.38-6.38-.45-1.11-.91-2.44-.29-3.34.19-.28.47-.5.88-.67,1.4-.55,4.1,1.6,6.37,4.11,1.06,1.17,3.19-3.09,2.44-6.04-1.43-5.54-6.43-8.28-4.14-10.5,2.7-2.62,9.15,2.7,12.34,9.6,2.16,4.69,2.66,8.84,2.7,10.44.08,3.31-.55,6.03-1.13,7.85,5.51,9.2,11.02,18.75,16.53,28.65,5.86,10.56,11.37,20.91,16.54,31.04l.07.1c.2.39.41.79.6,1.18.04.07.07.16.11.23,1.64,3.92.53,8.6-3,11.31Z"/>
      <path class="cls-11" d="M432.6,179.29c-1.42.29-2.85.24-4.17-.07h-.02l-67.18-5.59c-1.48,1.24-3.99,2.15-7.39,3.39-4.87,1.78-9.04,1.49-10.69,1.31-.67-.08-10.59-.43-11.35-4.79-.26-1.48.63-2.77.82-3.03.33-.47,1.35-1.65,7.27-2.48,3.22-.44,5.95-.53,5.95-.81,0-.08-.25-.17-.35-.18-3.37-.49-6.44-1.93-6.43-3.43,0-.45.3-1.21.48-1.47.62-.92,1.91-1.17,3.12-1.16,4.68.06,7.15.81,7.15.81,1.41.17,2.87.37,4.38.63,2.07.36,4.02.78,5.84,1.23v.02c11.14-.93,22.63-1.7,34.46-2.28,12.06-.6,23.78-.96,35.16-1.12l.11-.02c.44,0,.88-.01,1.33-.01h.25c4.24.26,7.94,3.33,8.83,7.69,1.05,5.22-2.35,10.31-7.57,11.36Z"/>
    </g>
    <g id="Schuhe">
      <path class="cls-16" d="M324.18,539.61v3.09h-60.96v-3.09s.5-2.89,15.96-7.37c7.12-2.05,12.61-4.65,18.21-6.2.01.01.04.01.05.01.45-1.08.88-2.45,1.07-4.07.29-2.47-.1-4.62-.59-6.21.72.07,1.46.13,2.2.18,2.82.21,5.78.35,8.9.37,3.64.02,7.11-.1,10.35-.35.44-.02.87-.05,1.3-.1-.26,1.11-.47,2.41-.49,3.89-.06,3.02.63,5.42,1.18,6.89h-.01c.69,1.56,1.41,3.48,1.95,5.68.64,2.82.87,5.33.87,7.26Z"/>
      <path class="cls-16" d="M465.78,539.61v3.09h-60.96v-3.09c0-1.93.23-4.44.88-7.26.57-2.4,1.37-4.47,2.11-6.09.33-1.03.63-2.28.73-3.73.08-1.4-.02-2.68-.24-3.8.98-.05,1.99-.11,3.02-.19,2.63-.19,5.39-.48,8.24-.87,2.82-.38,5.51-.86,8.06-1.37.91-.18,1.79-.37,2.66-.57-.17,1.02-.26,2.19-.23,3.48.11,3.02.92,5.39,1.54,6.82,5.6,1.58,11.73,3.61,18.21,6.22,5.88,2.37,11.2,4.88,15.96,7.37Z"/>
    </g>
  </g>
  <g id="Werkzeug">
    <path class="cls-5" d="M331.42,135.78c-2.85-3.77-7.33-5.59-11.71-5.23l6.6,8.72-11.33,8.57-6.6-8.72c-1.54,4.12-1.01,8.92,1.84,12.69,3.16,4.17,8.3,5.96,13.11,5.04l28.05,37.08c-2.2,4.38-1.88,9.81,1.28,13.98,2.85,3.77,7.33,5.59,11.71,5.23l-6.78-8.96,11.33-8.57,6.78,8.96c1.54-4.12,1.01-8.92-1.84-12.69-3.16-4.17-8.3-5.96-13.11-5.04l-28.05-37.08c2.2-4.38,1.88-9.81-1.28-13.98Z"/>
    <rect class="cls-4" x="341.75" y="147.37" width="3.73" height="46.49" transform="translate(-33.35 241.84) rotate(-37.11)"/>
    <path class="cls-11" d="M349.83,161.79c1.4.16,2.86.37,4.38.63,2.07.36,4.02.77,5.84,1.23.12,1.6.28,3.26.49,4.97.21,1.73.44,3.4.7,5.01-1.48,1.25-3.99,2.15-7.39,3.39-4.88,1.78-9.05,1.5-10.7,1.31-.67-.07-10.59-.42-11.35-4.79-.25-1.47.64-2.77.83-3.03.34-.47,1.35-1.65,7.27-2.48,3.56-.5,5.38-.53,5.95-.81,2.27-1.13,3.39-3.54,3.98-5.42Z"/>
  </g>
  <g id="Helm">
    <path class="cls-8" d="M379.34,34.34l-.85,4.54c-5.72-.39-11.91-1.01-18.5-1.95-.1,0-.2-.02-.29-.04-.89-.12-1.8-.26-2.73-.4-.96-.15-1.91-.3-2.9-.47-.13,0-.26-.03-.41-.06-1.91-.31-3.86-.66-5.83-1.04-1.4-.26-2.78-.55-4.15-.82h0s-.24-.06-.24-.06c-.95-.19-1.89-.4-2.82-.6s-1.84-.42-2.75-.63c-.16-.03-.31-.06-.46-.1-6.38-1.49-12.3-3.12-17.7-4.81l.84-4.52c1.01-5.44,3.94-10.12,8.06-13.6,1.37-1.19,2.9-2.24,4.55-3.12l3.72,9.67-.68-11.1-.1-1.61,5.5-.05v.06s1.13,18.55,1.13,18.55l4.13-22.16,16.35,3.05-4.1,21.99,7.68-16.75.02-.04,5.11,2.03-.67,1.45-4.44,9.7,6.68-7.39c1.21,1.41,2.27,2.92,3.14,4.51,2.66,4.78,3.74,10.27,2.71,15.77Z"/>
    <path class="cls-13" d="M382.57,37.76l-1.41,7.54c-1.16-.03-2.34-.06-3.53-.11-.78-.03-1.57-.07-2.37-.1-.81-.04-1.62-.08-2.43-.13-1.63-.1-3.31-.22-5-.37-.86-.07-1.71-.15-2.58-.24-.87-.09-1.74-.17-2.62-.26-1.76-.2-3.56-.42-5.38-.68h-.02c-.52-.06-1.03-.14-1.56-.22h-.06s-.26-.14-.26-.14l-.05.08c-.93-.14-1.87-.27-2.81-.43-.35-.07-.73-.12-1.1-.19h-.02c-1.49-.24-2.99-.52-4.5-.81-.92-.17-1.83-.36-2.75-.55-.42-.08-.85-.18-1.27-.26-.91-.21-1.81-.39-2.69-.6v-.04s-.08.02-.08.02h-.03c-.56-.15-1.1-.27-1.65-.39-1.12-.26-2.2-.54-3.3-.82-1.08-.28-2.15-.55-3.2-.84-2.32-.62-4.55-1.26-6.71-1.95-2.19-.67-4.32-1.37-6.37-2.07-1.15-.38-2.26-.78-3.35-1.17l1.41-7.54c1.09.39,2.2.79,3.35,1.17,5.37,1.87,11.27,3.64,17.63,5.2.16.05.3.07.46.1.91.23,1.82.45,2.75.66.93.21,1.87.42,2.82.62l.24.05v.02c1.36.27,2.74.57,4.15.83,1.96.39,3.92.73,5.83,1.03.14.03.27.05.41.06.99.17,1.94.31,2.9.45.93.14,1.84.27,2.73.38.1.02.19.04.29.04,6.61.86,12.83,1.34,18.58,1.55,1.19.03,2.37.07,3.54.1Z"/>
    <path class="cls-8" d="M382.36,38.89l-1.25,6.71c-1.16-.05-2.33-.1-3.52-.17-.78-.04-1.57-.09-2.36-.14-.81-.05-1.62-.1-2.42-.17-1.63-.12-3.3-.27-4.99-.43-.85-.08-1.7-.17-2.57-.26-.87-.09-1.73-.19-2.61-.29-1.76-.21-3.55-.45-5.37-.72h-.02c-.52-.07-1.03-.14-1.56-.23h-.06s-.26-.13-.26-.13l-.05.07c-.93-.14-1.87-.28-2.8-.44-.35-.07-.73-.12-1.1-.19h-.02c-1.49-.25-2.99-.53-4.5-.81-.92-.17-1.83-.36-2.75-.55-.42-.08-.85-.18-1.27-.25-.91-.2-1.81-.39-2.69-.59v-.04s-.08.02-.08.02h-.03c-.56-.14-1.1-.26-1.65-.38-1.12-.26-2.2-.53-3.3-.8-1.08-.27-2.15-.54-3.2-.81-2.32-.6-4.56-1.22-6.72-1.87-2.2-.64-4.33-1.31-6.39-1.98-1.15-.36-2.26-.74-3.36-1.11l1.25-6.71c1.1.37,2.21.75,3.36,1.11,5.39,1.77,11.3,3.48,17.67,5,.16.05.3.07.46.1.91.22,1.82.44,2.75.65.93.21,1.87.42,2.82.61l.24.05v.02c1.36.27,2.74.56,4.15.82,1.96.38,3.92.73,5.83,1.04.14.03.27.05.41.06.99.17,1.94.31,2.9.46.92.14,1.83.28,2.73.39.1.02.19.04.29.04,6.61.9,12.81,1.46,18.54,1.76,1.19.06,2.36.11,3.52.16Z"/>
    <path class="cls-13" d="M346.86,0l-4.13,22.16-1.13-18.55c1.76-1.21,3.5-2.4,5.26-3.61Z"/>
    <path class="cls-13" d="M336.88,16.31l-3.72-9.67c.97-1.01,1.96-2.03,2.94-3.04l.1,1.61.68,11.1Z"/>
    <path class="cls-13" d="M366.78,8.29l-7.68,16.75,4.1-21.99c1.19,1.74,2.38,3.5,3.58,5.24Z"/>
    <path class="cls-13" d="M373.48,14.05l-6.68,7.39,4.44-9.7.67-1.45c.52,1.25,1.05,2.51,1.57,3.76Z"/>
  </g>
  <g id="Stift">
    <rect class="cls-8" x="283.5" y="85.21" width="2.19" height="7.75" rx="1.09" ry="1.09" transform="translate(227.76 -203.66) rotate(61.63)"/>
    <path class="cls-13" d="M284.82,91.77l-4.17,2.26c.36.69.1,1.55-.6,1.92l-.48.26c-14.42,8.21-28.83,16.4-43.23,24.6-2.26,1.22-5.09.38-6.31-1.89l-.32-.6c-1.23-2.27-.38-5.09,1.87-6.31,14.76-7.55,29.52-15.11,44.29-22.66l.49-.26c.69-.37,1.54-.13,1.93.55l4.17-2.25s.1,0,.11.04l2.28,4.22s.01.1-.04.11Z"/>
    <rect class="cls-8" x="250.4" y="90.07" width="11.17" height="28.92" transform="translate(226.34 -170.38) rotate(61.63)"/>
    <path class="cls-11" d="M247.09,121.93c.29.74.78,1.8,1.66,2.85.43.52.77.81,1.13,1.16.75.72,1.77,1.81,2.87,3.42,1.49-.46,3.06-.91,4.72-1.33,1.71-.43,3.37-.79,4.94-1.09.66-1.88.64-4.64.63-8.38-.02-5.17-1.69-9.03-2.46-10.87-.86-2.04-3.42-7.55-7.72-10.07-.92-.54-2.75-1.58-4.19-.82-.65.34-.97.92-1.07,1.1-.83,1.52.04,3.22,2,8.31,1.09,2.84,2.2,5.89,1.74,8.95-.01.07-.02.16-.05.29-.59,3.12-2.49,5.17-4.2,6.47Z"/>
  </g>
  <g id="Icon">
    <g id="Tafel">
      <polygon class="cls-18" points="223.99 208.46 223.99 339.17 212.62 339.17 212.62 341.62 16.25 341.62 16.25 339.17 4.9 339.17 4.9 208.46 223.99 208.46"/>
      <polygon class="cls-9" points="212.62 338.58 212.62 344.86 132.01 344.86 161.61 395.6 150.61 395.6 121.01 344.86 107.87 344.86 78.26 395.6 67.26 395.6 96.86 344.86 16.25 344.86 16.25 338.58 212.62 338.58"/>
      <path class="cls-3" d="M228.88,206.58v134.47c0,1.66-1.35,3.02-3.01,3.02h-13.24v-4.9h11.37v-130.72H4.9v130.72h11.36v4.9H3.02c-1.67,0-3.02-1.36-3.02-3.02v-134.47c0-1.66,1.35-3.02,3.02-3.02h222.85c1.66,0,3.01,1.36,3.01,3.02Z"/>
      <g id="Krahn">
        <path class="cls-3" d="M140.86,238.23c0,.55-.13,1.09-.38,1.59h-.01c-.57,1.13-1.78,1.86-3.06,1.86-1.9,0-3.45-1.55-3.45-3.45,0-.5.11-.99.31-1.46.57-1.22,1.8-1.99,3.14-1.99,1.9,0,3.45,1.55,3.45,3.45Z"/>
        <path class="cls-3" d="M125.2,270.54c0,.3-.24.55-.54.55s-.55-.25-.55-.55.25-.54.55-.54.54.24.54.54Z"/>
        <path class="cls-3" d="M135.09,270.54c0,.3-.24.55-.54.55s-.55-.25-.55-.55.25-.54.55-.54.54.24.54.54Z"/>
        <path class="cls-3" d="M94.92,224.55c0,.57-.29,1.11-.76,1.43-.27.19-.62.3-.98.3-.43,0-.84-.16-1.16-.45-.37-.32-.57-.79-.57-1.28,0-.57.27-1.11.74-1.43.19-.13.41-.23.64-.27,1.04-.22,2.09.63,2.09,1.71Z"/>
        <path class="cls-3" d="M84.72,235.96c0,.3-.08.6-.23.85-.31.55-.88.9-1.52.9-.96,0-1.74-.79-1.74-1.74,0-.2.05-.41.12-.6.24-.68.9-1.13,1.62-1.13.96,0,1.74.78,1.74,1.73Z"/>
        <path class="cls-3" d="M115.45,289.95c0,.55-.12,1.08-.37,1.57-.58,1.16-1.77,1.89-3.08,1.89-1.91,0-3.45-1.54-3.45-3.45,0-.31.04-.62.12-.92.06-.2.13-.39.21-.57.57-1.19,1.79-1.96,3.12-1.96,1.54,0,2.91,1.04,3.33,2.53.08.3.12.61.12.92Z"/>
        <path class="cls-3" d="M151.93,233.02l-57-15.3-.25-.06c-.08-.02-.16-.04-.23-.05-.18-.04-.37-.06-.55-.07-.24-.04-.49-.05-.73-.05-3.88,0-7.05,3.17-7.05,7.06v.1l-3.31,2.28-2.01,4.37-1.34-.61-3.32,7.23-3.76-1.72-3.06,6.68c-.04.07-.07.13-.1.2l-.27.59c-.51,1.17-.78,2.45-.78,3.74,0,.53.05,1.05.13,1.58l-6.26,5.4c-.23.14-.42.33-.56.54-.24.33-.3.73-.38,1.21-.02.12-.04.21-.04.27-.35,3.69-.68,7.38-1.03,11.07-.02.1-.04.21-.04.32,0,1.16.94,2.09,2.09,2.09s2.09-.93,2.09-2.08l1.03-10.68,4.76-4.13c1.78,2.51,4.66,4,7.79,4,.1,0,.18,0,.27-.01l-.58,6.08-7.81,6.74-.02.02c-.54.39-.86,1.02-.86,1.68,0,1.15.94,2.09,2.09,2.09.57,0,1.11-.24,1.49-.63l7.89-6.82c.3-.3.61-.6.91-.9.1-.13.2-.32.29-.56.08-.26.11-.48.11-.64.25-2.6.49-5.22.74-7.82l.04-.39c1.76-.93,3.12-2.4,4-4.18.07-.13.13-.25.2-.38l.18-.38,3.07-6.7-4-1.84,3.32-7.23-1.21-.55c.38-.8.76-1.61,1.15-2.41l1.53-1.06c.07.05.16.08.24.11.12.04.24.07.36.11l.12.04s.01,0,.02.01c.02,0,.1.02.14.04l36.63,9.84c-6.28,12.77-12.56,25.52-18.85,38.29-4.3,1.1-7.42,4.69-7.95,9.08-.04,3.5-.07,7.01-.11,10.52h-4.34v5.77h-5.91v5.55h2.76v18.44h36.68v-18.44h2.77v-5.55h-5.91v-5.77h-4.35c-.06-3.51-.12-7.02-.17-10.52-.11-1.03-.38-1.98-.79-2.91l6.12-12.43h3.19l6.16,2.75,6.38-14.31-1.96-.87,4.53-10.16c.24-.06.45-.16.66-.27.48-.3.84-.7,1.05-1.19l.68-2.42c.1.02.2.05.3.06.42.08.85.12,1.28.12,3.88,0,7.05-3.17,7.05-7.05,0-3.3-2.23-6.11-5.41-6.87ZM64.74,255.95l-.66.57-.1.94-.98,10.32c0,.49-.41.9-.9.9s-.9-.41-.9-.9c0-.05.01-.11.01-.16l1.02-10.28h0c.01-.23.02-.45.05-.67,0-.19.01-.37.02-.56,0-.3.16-.59.45-.78l.84-.72,4.98-4.31.25-.22.13-.11h0s.88-.76.88-.76l.37-.32.84-.73s.08-.1.14-.13c.05-.05.11-.08.17-.11.11-.06.25-.08.38-.08.06,0,.12,0,.18.01.18.04.33.13.45.25.17.16.26.38.26.63h0c0,.07-.01.16-.04.23h0c-.02.08-.05.16-.1.23-.01.02-.04.06-.06.08l-7.72,6.66ZM81.44,252.74l-.12,1.18-.17,1.68-.08.86-.62,6.33-.07.74-.04.51c0,.25-.11.49-.29.64l-.36.33-.63.55-7.55,6.52c-.11.12-.33.3-.66.3-.49,0-.9-.41-.9-.9,0-.31.14-.57.41-.74l.27-.18v-.06l7.23-6.23.54-.47.21-.23.1-.97.54-5.74.14-1.47.13-1.34.04-.31.1-1.02v-.14c0-.5.39-.9.9-.9.31,0,.59.16.74.39.07.08.11.19.13.31h0c0,.07.01.13.01.19v.13ZM82.89,253.98c-.14.12-.29.23-.42.33v-.02l.12-1.25c.05-.17.05-.32.05-.43,0-1.17-.91-2.09-2.08-2.09s-2.09.94-2.1,2.2l-.13,1.41h0s-.16,1.66-.16,1.66h-.01c-2.87.13-5.61-1.21-7.25-3.56l.6-.53.3-.25,1.16-.99.23-.22.11-.1c.11-.12.2-.25.27-.39h0c.08-.14.14-.29.18-.44.05-.18.08-.38.08-.56,0-1.16-.94-2.09-2.09-2.09-.64,0-1.23.29-1.62.76l-.78.67c0-.19.01-.41.02-.64.07-1.07.31-2.45.67-3.3l15.24,7.01c-.49.99-1.47,2.04-2.39,2.82ZM88.2,244.77l-2.44,5.29-15.22-6.99,2.42-5.3,2.68,1.23,9.63,4.42,2.93,1.35ZM84.69,241.85l-7.45-3.43,2.82-6.14.25.12-.72,1.55c-.35.6-.54,1.29-.54,2.01,0,2.16,1.76,3.92,3.92,3.92.37,0,.74-.05,1.09-.16.11-.02.23-.06.33-.11.14-.05.27-.12.42-.19t.02-.01c.13-.07.26-.14.38-.24.32-.22.61-.49.85-.8h0c.06-.07.11-.13.16-.2.41-.84.81-1.67,1.22-2.51l.07.04-2.82,6.15ZM88.2,231.16c-.44.98-.9,1.96-1.35,2.93-.39.86-.79,1.71-1.18,2.57l-.25.51c-.45.93-1.4,1.52-2.45,1.52-.47,0-.91-.12-1.29-.33h-.01c-.85-.45-1.42-1.35-1.42-2.39,0-.35.06-.68.2-1.01,0-.02.01-.05.02-.08.05-.11.1-.23.17-.35l1.25-2.71,1.87-4.09,2.45-1.68,5.41-3.73c.12-.08.23-.16.36-.22.12-.06.26-.12.39-.16.13-.05.27-.07.42-.08.12-.02.25-.04.38-.04h.3c.07.02.14.04.21.06.01.01.02.01.04.01.14.01.29.06.42.12.04.01.07.02.1.04.11.04.2.08.29.14.07.02.13.07.19.12.06.04.12.08.18.13.08.06.16.13.23.2.17.17.31.36.42.56.07.12.13.23.17.35.01.02.02.05.02.07.05.12.08.25.11.38.01.01.01.02.01.04.01.04.01.08.02.13.01.12.02.25.02.38,0,.12-.01.24-.02.36-.06.44-.23.86-.49,1.22-.06.1-.13.18-.21.26-.05.06-.11.12-.17.16l-.25.22s-.01,0-.02.01c-.06.06-.13.1-.2.14-.04.02-.07.04-.11.06-2.08,1.4-4.14,2.79-6.22,4.18ZM102.4,289.24c.29-3.75,2.68-6.94,6.1-8.24-.97,1.96-1.92,3.91-2.89,5.86-.06.19-.12.37-.19.56-.04.1-.07.2-.11.3-.01.04-.02.08-.04.12-.13.43-.23.87-.29,1.33-.02.27-.05.53-.05.8,0,3.88,3.17,7.03,7.05,7.03,2.97,0,5.65-1.88,6.62-4.61l2.59-5.24c.2.67.33,1.37.39,2.09.01.23.02.48.02.73,0,2.63-1.05,5.04-2.81,6.8-.17.17-.36.35-.55.51-.18.16-.38.3-.59.45-.18.12-.36.25-.54.37-.26.17-.54.32-.82.47-.43.2-.88.39-1.36.55h-5.92c-.47-.14-.92-.35-1.35-.55-.18-.1-.36-.19-.53-.29-.11-.06-.21-.13-.32-.2-.04-.01-.06-.05-.1-.05-.14-.11-.29-.2-.42-.3-.14-.11-.27-.2-.41-.31-.13-.1-.25-.2-.37-.32-.13-.1-.25-.22-.36-.33-.22-.2-.41-.41-.59-.63-.06-.07-.12-.16-.18-.23-.12-.17-.24-.3-.35-.47-.05-.06-.1-.13-.13-.2-.1-.14-.19-.3-.27-.44-.08-.13-.16-.27-.23-.42-.24-.45-.43-.93-.6-1.42-.06-.18-.12-.38-.17-.6-.08-.3-.14-.62-.19-.93-.04-.23-.06-.47-.07-.69-.02-.24-.04-.5-.04-.76s.01-.5.02-.73ZM121.68,294.79v4.32h-3.92c.7-.44,1.34-.97,1.91-1.54.17-.16.32-.32.49-.5.02-.05.05-.07.07-.1.14-.17.29-.35.43-.53.29-.39.54-.78.76-1.18.08-.16.17-.31.25-.48ZM102.37,294.91c.14.25.29.51.44.76.1.18.22.35.33.5.01.02.02.05.05.06.08.14.18.26.27.38.05.06.11.13.16.2.13.16.26.3.39.43.31.35.64.67,1.01.99.19.16.38.31.59.45s.41.27.62.42h-3.87v-4.2ZM129.17,327.68h-34.29v-17.25h34.29v17.25ZM131.94,306.08v3.17h-39.82v-3.17h39.82ZM126.03,300.31v4.57h-27.99v-4.57h13.09l.05-.02h1.7l2.27.02h10.89ZM121.27,284.28l-3.76,7.64c-.82,2.32-3.05,3.88-5.52,3.88-3.22,0-5.85-2.62-5.85-5.84,0-.24.02-.45.05-.7.07-.63.25-1.27.55-1.88l.3-.7,3.71-7.54,21.38-43.44h0c.56-1.19,1.5-2.13,2.64-2.69.19-.11.39-.2.61-.27.13-.05.26-.1.39-.13.53-.16,1.07-.24,1.64-.24.45,0,.9.05,1.31.16.14.02.27.06.42.11,1.84.57,3.3,2.03,3.87,3.87.05.14.08.28.11.42.11.42.16.86.16,1.31,0,.22-.01.43-.05.63-.07.69-.27,1.36-.6,1.99l-1.85,3.76-11.41,23.19h-4.71s-.05,0-.07.01c-.18.01-.35.04-.53.07-.96.25-1.68.96-1.98,1.82-.04.12-.07.24-.1.37-.02.14-.04.29-.04.44,0,.18.02.35.06.51.02.17.08.33.14.49.05.12.12.24.18.36.06.1.13.19.19.29.51.61,1.27,1.03,2.14,1.06h2.04l-5.43,11.04ZM142.92,248.54c.04.24.12.48.23.69l-4.53,10.16-2.17-.97-4.22,9.46c-.51-.01-1.04-.01-1.55-.01l11.25-22.84.04-.08,1.55.41-.54,1.98c-.07.27-.11.5-.11.72,0,.17.01.35.05.48ZM128.62,272.05v.02s-.07-.02-.07-.02h-3.88c-.84,0-1.52-.68-1.52-1.52,0-.21.04-.42.12-.6.07-.18.18-.33.32-.48.27-.26.64-.43,1.08-.43h.6s3.01-.01,3.01-.01h5.43s.85.01.85.01c.22,0,.42.04.6.12.18.07.35.18.48.31.14.14.25.3.32.48.07.18.12.38.12.6,0,.84-.68,1.52-1.52,1.52h-5.94ZM142.19,262.3l-5.4,12.12-2.63-1.17h.39c1.49,0,2.71-1.22,2.71-2.71,0-.12-.01-.24-.02-.36-.01-.06-.02-.13-.04-.19-.01-.1-.04-.19-.07-.29-.02-.07-.05-.13-.07-.19-.05-.11-.1-.2-.14-.3-.08-.13-.17-.26-.26-.37,0-.01-.01-.01-.01-.02-.1-.11-.19-.22-.3-.3-.08-.08-.18-.16-.29-.23-.02-.02-.06-.05-.11-.07-.11-.06-.23-.12-.35-.18h-.01c-.32-.14-.67-.22-1.04-.22h-.99l3.49-7.82,1.09.48,3.18,1.42.87.39ZM140.72,260.32l-1-.44,4.29-9.61c.1.06.19.12.3.18.08.05.18.1.27.13.01,0,.04.01.05.02.1.02.19.06.3.08.02.01.06.01.08.02l-4.29,9.61ZM147.26,247.63l-.23.81c-.08.38-.32.7-.68.92-.16.1-.35.17-.54.19-.22.02-.42.01-.61-.04-.37-.08-.68-.31-.9-.63,0-.01-.01-.01-.01-.02-.12-.17-.18-.35-.22-.54-.01-.08-.02-.17-.02-.26,0-.12.02-.25.07-.48l.2-.73.32-1.18,2.93.79-.32,1.17ZM148.99,245.59c-.16-.04-.3-.07-.45-.12-.23-.06-.47-.12-.69-.18l-4.02-1.07-1.31-.36h-.01l1.21-2.44h0c.12-.25.23-.5.32-.76.05-.12.1-.25.13-.38.04-.13.07-.26.11-.39,0-.01.01-.02.01-.02.12-.54.18-1.07.18-1.62s-.06-1.08-.18-1.59c-.05-.17-.1-.33-.14-.5-.13-.44-.31-.86-.53-1.27-.21-.39-.47-.76-.75-1.11-.29-.36-.62-.68-.97-.97-.35-.29-.72-.54-1.11-.75-.41-.22-.82-.39-1.27-.53-.17-.05-.33-.1-.5-.14-.51-.12-1.04-.18-1.59-.18-.26,0-.51.01-.76.04-.24.04-.49.07-.73.12h-.01c-.17.04-.32.07-.48.12-.32.1-.62.22-.92.35-.3.14-.6.3-.87.47-.27.18-.54.37-.79.58-.13.11-.25.22-.37.33-.6.57-1.09,1.25-1.46,2.02l-2.41,4.91-36.82-9.89,3.25-2.25c.16-.08.31-.18.45-.29.14-.11.29-.22.41-.35.75-.73,1.19-1.73,1.19-2.81,0-1-.37-1.92-1-2.63-.08-.08-.17-.17-.25-.25-.33-.32-.74-.57-1.18-.76h-.01c-.33-.13-.68-.23-1.06-.26-.13-.01-.26-.02-.41-.02-.81,0-1.59.24-2.23.7l-3.58,2.46c.42-3.21,3.51-5.63,6.88-4.99.13.02.26.05.38.08h.01l56.99,15.31c2.66.62,4.51,2.96,4.51,5.7,0,3.65-3.33,6.58-7.15,5.7Z"/>
        <circle class="cls-3" cx="79.45" cy="264.02" r=".42"/>
        <circle class="cls-3" cx="63.23" cy="256.13" r=".42"/>
      </g>
    </g>
    <g id="PC">
      <g id="Form">
        <path class="cls-20" d="M472.54,203.76l-.2,159.77,91.91.12,36.92.05,92.4.12.2-159.79-221.23-.27ZM686.79,336.06l-207.58-.26.16-124.89,207.58.26-.16,124.89Z"/>
        <path class="cls-8" d="M662.78,395.71l-158.48-.2c0-7.32,5.95-13.27,13.28-13.27h.02l46.63.06.02-18.7,36.92.05-.02,18.7,48.37.06c7.33.01,13.28,5.96,13.27,13.3Z"/>
        <rect class="cls-1" x="520.62" y="169.69" width="124.9" height="207.59" transform="translate(308.85 856.21) rotate(-89.93)"/>
      </g>
      <g id="Würfel">
        <path class="cls-8" d="M622.51,249.73l-39.03-19.55-39.05,19.67-.56.29v.64l-.07,49.68,40.13,21.41,39.09-21.55.06-49.66v-.66l-.56-.29ZM582.83,320.05l-37.94-20.24.06-48.43,37.94,20.26-.06,48.42ZM583.44,270.68h-.01l-37.84-20.2,37.9-19.07,37.84,18.95-37.88,20.32Z"/>
        <polygon class="cls-20" points="621.33 250.36 583.44 270.68 583.43 270.68 545.6 250.48 583.49 231.41 621.33 250.36"/>
        <polygon class="cls-13" points="582.89 271.63 582.83 320.05 544.89 299.81 544.95 251.38 582.89 271.63"/>
      </g>
    </g>
  </g>
</svg>