<?xml version="1.0" encoding="UTF-8"?>
<svg id="G-0103_BUW_Dr_L" xmlns="http://www.w3.org/2000/svg" viewBox="0 0 689.18 542.71">
  <defs>
    <style>
      .cls-1 {
        fill: #eee;
      }

      .cls-1, .cls-2, .cls-3, .cls-4, .cls-5, .cls-6, .cls-7, .cls-8, .cls-9, .cls-10, .cls-11, .cls-12, .cls-13, .cls-14, .cls-15, .cls-16, .cls-17, .cls-18, .cls-19, .cls-20 {
        stroke-width: 0px;
      }

      .cls-2 {
        fill: #a5678d;
      }

      .cls-3 {
        fill: #308fc9;
      }

      .cls-21 {
        stroke: #000;
        stroke-linecap: round;
        stroke-width: .25px;
      }

      .cls-21, .cls-22 {
        fill: none;
        stroke-miterlimit: 10;
      }

      .cls-4 {
        fill: #dddddc;
      }

      .cls-5 {
        fill: #64abd6;
      }

      .cls-6 {
        fill: #e6710a;
      }

      .cls-22 {
        stroke: #fff;
        stroke-width: 2.5px;
      }

      .cls-7 {
        fill: #873567;
      }

      .cls-8 {
        fill: #c39ab3;
      }

      .cls-9 {
        fill: #000;
      }

      .cls-10 {
        fill: #dcbd92;
      }

      .cls-11 {
        fill: #236289;
      }

      .cls-12 {
        fill: #825832;
      }

      .cls-13 {
        fill: #98c7e4;
      }

      .cls-14 {
        fill: #603813;
      }

      .cls-15 {
        fill: #ccc;
      }

      .cls-16 {
        fill: #cbe3f1;
      }

      .cls-17 {
        fill: #f9dbc2;
      }

      .cls-18 {
        fill: #fff;
      }

      .cls-19 {
        fill: #e1ccd9;
      }

      .cls-20 {
        fill: #f2b885;
      }
    </style>
  </defs>
  <g id="Person:_Mann" data-name="Person: Mann">
    <g id="Körper">
      <g id="Kittel:_Hintergrund" data-name="Kittel: Hintergrund">
        <path class="cls-15" d="M340.76,108.44c-8.33.66-16.66,1.32-24.99,1.98-.6-3.11-1.21-6.22-1.81-9.34,3.72-.96,8.28-1.84,13.53-2.21,5.73-.4,10.75-.09,14.8.43-.06.51-.13,1.03-.21,1.55-.37,2.63-.82,5.16-1.33,7.58Z"/>
        <path class="cls-15" d="M243.58,369.6c24.71,4.68,55.04,8.43,89.73,8.45,37.19.02,69.49-4.27,95.38-9.47-13.29-51.88-26.59-103.76-39.88-155.64l-114.79,1.38-30.44,155.29Z"/>
      </g>
      <g id="Körper-2" data-name="Körper">
        <path class="cls-10" d="M277.67,223.84c-3.03,4.58-14.47.01-15.26-.24-1.97-.61-6.84-2.37-11.48-6.83-3.22-3.09-5.6-5.36-6.66-7.5-14.63-13.41-29.25-26.82-43.89-40.22-.91-.92-4.21-4.43-4.09-9.48.01-.64.06-2.03.7-3.61,2.1-5.24,9.2-8.91,15.1-7.06,2.82.88,4.55,2.79,5.14,3.47,13.45,15.38,25.74,31.74,38.99,47.28.52.12,1.05.25,1.58.38,1.85.46,5.2,1.7,6.87,2.2-.45,5.92-.52,6.74-.59,7.38,0,.01.01.04.01.04,0,0,.02.18.25.33,2.43,1.69,6.89,3.56,6.89,3.56,4.8,2.02,6.59,5.01,6.96,6.19.02.09.05.19.06.26.08.39.45,2.3-.58,3.84Z"/>
        <path class="cls-10" d="M450.47,103.31c-2.43,4.64-6.86,6.94-9.61,8.04-10.21,5.56-20.85,11.13-31.93,16.65-10.44,5.2-20.68,10.07-30.68,14.63,0-.02-.02-.02-.02-.05-1.64.77-3.42,1.23-5.33,1.26.24,13.81,1.07,28.59,2.77,44.19,2.18,19.88,5.44,38.05,9.14,54.3.29-.02.04,1.6,0,1.78-1.26,1.84-2.82,3.97-4.73,6.27,5.09-.81,8.67-.37,9.57,1.56.04.02.04.08.04.11.02,0,.02-.04.05-.04,4.81,20.03,9.08,42.73,11.94,67.76,1.38,12.01,2.38,24.06,2.99,36.13.78,15.45,1.63,30.42,4.36,45.67,2.67,14.89,4.98,29.84,6.94,44.84.89,6.78,1.7,13.57,2.45,20.37.61,5.67,1.85,14.09,2.41,25.34.46,9.39.39,17.63.14,24.31-.18,4.62,2.36,8.85,6.39,11.11,2.72,1.52,5.15,3.49,5.09,5.65-.14,4.37-10.53,8.05-19.05,7.44-3.43-.25-11.2-.81-13.89-6.65-1.45-3.18-.77-6.56.09-8.9.79-2.1.87-4.4.14-6.52-5.21-15.15-10.18-32.19-14.28-50.97-3.1-14.2-5.51-28.54-7.24-42.97-.8-6.68-1.17-13.4-1.7-20.1-.47-6-.31-13.61-2.61-19.22-2.23-5.44-6.01-10.61-8.7-15.87-3.01-5.89-5.84-11.88-8.45-17.96-11.64-27.07-17.86-52.23-21.19-72.96-1.14.29-2.22.54-3.22.75-1.73,20.17-5.84,44.36-14.55,70.62-2.6,7.81-5.52,15.51-8.74,23.08-2.63,6.19-5.91,12.27-6.44,19.09-.5,6.36.19,12.92.17,19.3-.04,14.71-.8,29.41-2.28,44.04-.4,3.99-.86,7.97-1.37,11.94-2.45,19.14-5.93,36.59-9.82,52.15-.4,1.59-.25,3.24.38,4.75.53,1.3.92,2.95.55,4.7-1.25,5.9-9.82,7.44-10.75,7.61-9.35,1.69-18.95-4.78-18.55-8.03.12-1.03,1.18-1.31,3.34-4.43.39-.58.73-1.11,1.04-1.62.7-1.15,1.03-2.46.99-3.82-.4-15.79-.45-32.2-.06-49.19.36-16.08.98-32.16,1.99-48.21.51-8.03,1.11-16.06,1.84-24.07.68-7.52,1.65-14.75,1.17-22.28-1.11-17.55-1.42-35.15-.92-52.73.71-25.2,3.02-48.18,6.1-68.54.02,0,.02.02.05.02,0-.02,0-.07.02-.11.28-.74.94-1.31,1.93-1.72-.02-.02-.05-.04-.07-.06-.02-.22-.86-2.29.07-2.33h.08c2.84-16.79,5.19-35.05,6.66-54.63,1.37-18.06,1.84-35.21,1.67-51.28-5.29,3.27-13.05,6.65-27.38,13.12-2.83,1.27-20.4,9.22-42.73,15.43-4.1,1.14-9.85,2.71-13.91-.39-5.88-4.5-5.81-12.55-3.6-15.85.98-1.45,2.41-2.5,2.41-2.5,0,0,.34-.26.7-.5,16.45-10.92,37.2-21.83,37.2-21.83,7.07-3.75,15.38-7.59,24.87-11.03,7.73-2.8,14.99-4.87,21.6-6.42,10.9-2.88,25.68-5.63,43.28-5.67,16.08-.04,29.81,2.23,40.37,4.79,14.41-6.66,22.92-9.33,30.57-12.62,10.38-4.45,17.37-7.06,27.48-10.26-2.23-18.48-4.47-36.94-6.72-55.42-2.24-2.39-4.1-4.27-5.53-5.68,0,0-2.28-2.13-5.14-7-.73-1.24-1.51-2.75-.93-3.94.18-.35.47-.68.94-.94,1.56-.91,5.16,1.19,8.31,3.77,1.46,1.21,3.25-4.23,1.84-7.62-2.66-6.37-9.1-8.76-6.77-11.8,2.76-3.6,11.38,1.62,16.38,9.3,3.4,5.21,4.72,10.07,5.05,11.97.58,3.41.45,6.38.15,8.58.01.04.01.06.01.09,10.54,31.94,16.77,56.12,16.87,64.21.02,1.34.06,4.58-1.73,7.99Z"/>
      </g>
      <g id="Schhuhe">
        <path class="cls-14" d="M445.33,531.06c-7.94-2.28-14.04-5.16-20.28-6.89-.37.14-.77.29-1.21.46-2.74.98-6.71,2.04-11.54,2.11-5.34.05-9.67-1.11-12.52-2.15-.39-.15-.77-.29-1.1-.42-.86,1.84-1.79,4.22-2.48,7.02-.72,3.12-.97,5.93-.97,8.09v3.43h67.86v-3.43s-.55-3.22-17.76-8.22Z"/>
        <path class="cls-14" d="M293.88,531.19c-.66-2.79-1.6-5.18-2.45-7.02-.46.18-.96.37-1.51.57-2.85,1-7.03,2.05-12.11,2-5.62-.08-10.06-1.49-12.77-2.57-.34.09-.66.19-1.01.29h-.02c-5.88,1.75-11.73,4.43-19.23,6.59-17.2,5-17.76,8.22-17.76,8.22v3.43h67.84v-3.43c0-2.16-.24-4.96-.98-8.09Z"/>
      </g>
      <g id="Hose">
        <path class="cls-5" d="M333.08,283c-4.32,27.85-8.54,55.71-12.7,83.6-7.52,50.57-14.75,101.19-21.69,151.84-5.35-1.22-11.81-2.28-19.18-2.65-6.73-.33-12.76-.04-17.85.52-5.23-43.91-7.97-97.72-3.17-158.71,3.83-48.85,11.71-92.06,20.63-128.56,13.71,2.71,30.31,4.93,49.2,5.29,1.48.04,2.94.05,4.38.05l.38,48.62Z"/>
        <path class="cls-3" d="M430.44,513.68c-5.73-.36-12.22-.44-19.32,0-7.59.48-14.43,1.47-20.37,2.64-11.55-48.56-23.36-97.07-35.44-145.49-7.32-29.29-14.73-58.56-22.23-87.82l-.38-48.62c19.09.05,35.83-1.85,49.59-4.28,11.78,33.05,23.07,71.3,31.74,114.28,12.97,64.18,16.68,121.81,16.41,169.31Z"/>
      </g>
      <g id="Oberteil">
        <path class="cls-16" d="M332.62,268.21c-.86,0-1.73-.01-2.59-.02-24.31-.32-44.95-3.97-60.7-7.95,1.54-13.39,3.89-31.14,7.53-51.98,3.79-21.71,6.01-29.72,7.54-44.44,1.65-15.82,1.87-33.35-.27-52.5,2.15-1.09,5.44-2.46,9.65-3.11,4.18-.64,7.7-.34,10.07.05,1.17,1.35,9.27,10.36,22.61,10.32.53,0,1.04-.01,1.55-.05l4.61,149.67Z"/>
        <path class="cls-13" d="M395.91,260.65c-16.17,3.96-37.75,7.62-63.29,7.57l-4.61-149.67c13.21-.74,20.91-10.24,21.86-11.47,3.2-.56,7.73-1,13.09-.39,5.18.58,9.37,1.96,12.3,3.17-.8,10.56-1.24,26.7,1.59,46.04,2.83,19.22,6.97,28.52,11.51,48.8,2.9,12.96,6.31,31.97,7.54,55.95Z"/>
      </g>
      <g id="Kittel">
        <g id="Rechts">
          <path class="cls-15" d="M447.3,112.6s0,.01-.01.01c-5.93,4.32-11.66,7.97-17,11.06,0,0-7.55,4.36-14.72,7.67-13.16,6.08-43.11,19.92-56,8.43-4.82-4.29-8.62-13.34-7.2-21.51.1-.55.41-2.32,1.19-4.11,4.54-10.46,20.76-12.33,50.8-19.43,4.57-1.08,12.16-2.92,21.66-5.46-2.84-15.48-5.68-30.97-8.52-46.46,4.16-.2,8.88-.62,14.02-1.46,4.47-.73,8.52-1.64,12.12-2.61,3.61,20.88,7.22,41.75,10.82,62.63.5,4.73-2.5,9.13-7.16,11.21Z"/>
          <path class="cls-4" d="M428.69,368.58c-17.37,3.42-37.54,6.42-60.05,8.04l-26.96-273.6c8.32-2.3,15.11-2.66,18.38-2.8,4.04-.2,9.53-.16,16.03.78-1.57,11.32-2.55,26.29-.65,43.69,2.08,19.11,6.93,34.75,11.38,46.01,7.7,22.22,15.1,46.38,21.71,72.4,9.66,37.89,16.02,73.34,20.17,105.48Z"/>
          <path class="cls-15" d="M342.3,99.3c-.54,3.54-1.33,7.47-2.48,11.68-1.04,3.8-2.22,7.24-3.42,10.31,3.89,15.62,7.78,31.24,11.67,46.86,3-14.09,6-28.17,9-42.26l-7.79-13.3,10.36-9.11-17.34-4.18Z"/>
          <path class="cls-15" d="M397.27,279.54l-20.65,2.36c-2.51.29-4.8-1.53-5.08-4.04l-3.32-29c9.25-.89,18.5-1.78,27.74-2.67,1.78,9.42,3.57,18.84,5.35,28.27.29,2.51-1.53,4.8-4.04,5.08Z"/>
        </g>
        <g id="Links">
          <path class="cls-15" d="M292.95,145.19c-3.71,3.09-9.13,6.72-28.26,13.1-7.57,2.52-17.98,5.7-30.7,8.7l23.89,25.69c-2.79,1.69-6.24,4.07-9.83,7.33-4.1,3.73-7.06,7.39-9.1,10.27-21.39-22.08-36.73-38.76-41.08-44.19-1.04-1.29-2.61-3.89-2.61-7.23,0-2.54.99-8.67,18.05-19.03,7.14-4.34,8.63-4.27,29.19-13.46,5.98-2.67,14.01-6.25,25.31-10.63,9.79-3.8,12.86-4.62,16.85-4.6,7.9.06,19.75,3.55,22.05,11.24,2.72,9.09-10,19.68-13.76,22.81Z"/>
          <path class="cls-4" d="M314.86,105.77l-15.16,270.94c-20.85-1.41-39.68-4.04-56.12-7.11,1.85-27.6,5.07-57.75,10.34-89.97,5.33-32.58,11.99-62.48,19.14-89.45,3.98-10.01,8.27-23.7,10.34-40.33,1.91-15.36,1.34-28.67.17-38.87,15.32-6.69,25.1-6.62,31.28-5.21Z"/>
          <path class="cls-15" d="M313.96,101.09c.64,3.36,1.46,6.98,2.54,10.8,1.14,4.04,2.4,7.75,3.69,11.09-2.95,15.05-5.91,30.09-8.86,45.14-3.91-13.41-7.83-26.82-11.74-40.23l7.59-13.41-10.5-8.96,17.27-4.43Z"/>
          <path class="cls-15" d="M267.2,281.45l20.71,1.76c2.52.21,4.75-1.67,4.96-4.19.36-9.7.73-19.39,1.09-29.09-9.22-.86-18.44-1.72-27.66-2.59-1.1,9.71-2.19,19.42-3.29,29.14-.21,2.52,1.67,4.75,4.19,4.96Z"/>
        </g>
        <g id="Knöpfe">
          <circle class="cls-18" cx="304.27" cy="185.66" r="1.55"/>
          <circle class="cls-18" cx="302.63" cy="206.99" r="1.55"/>
          <circle class="cls-18" cx="301.6" cy="228.02" r="1.55"/>
          <circle class="cls-18" cx="300.45" cy="249.75" r="1.55"/>
          <circle class="cls-18" cx="299.53" cy="271.63" r="1.55"/>
          <circle class="cls-18" cx="298.15" cy="293.19" r="1.55"/>
          <circle class="cls-18" cx="296.94" cy="316.6" r="1.55"/>
          <circle class="cls-18" cx="295.52" cy="338.11" r="1.55"/>
        </g>
      </g>
    </g>
    <g id="Gesicht">
      <g id="Kopf">
        <path class="cls-10" d="M363.71,57.63v2.25c0,3.3-2.7,6-6,6-1.11,0-2.15-.31-3.04-.84-1.79,8.8-7.84,16.08-15.89,19.6.01.09.01.2.01.29v22.54c0,5.82-4.76,10.59-10.58,10.59s-10.59-4.76-10.59-10.59v-22.64c-8.18-3.38-14.4-10.65-16.31-19.47-.73.33-1.54.51-2.39.51-3.3,0-6-2.7-6-6v-2.25c0-3.3,2.7-6,6-6,.62,0,1.21.09,1.78.27v-5.52c0-15,12.26-27.26,27.25-27.26,7.5,0,14.31,3.07,19.25,8.01,4.94,4.94,8.01,11.76,8.01,19.25v5.8c.77-.35,1.6-.55,2.5-.55,1.65,0,3.15.67,4.23,1.77,1.1,1.08,1.77,2.58,1.77,4.23Z"/>
      </g>
      <g id="Schatten">
        <path class="cls-12" d="M358.59,56.01c.42,0,1.02,1.71.56,3.27-.33,1.11-1.23,2.23-1.59,2.09-.7-.28.3-5.36,1.03-5.36Z"/>
        <path class="cls-12" d="M338.66,84.67c-1.63.72-3.85,1.51-6.58,1.94-3.18.5-5.89.35-7.81.08,4.82,3.59,9.64,7.18,14.46,10.77,0-1.19,0-2.22,0-3.06,0-.68,0-.74,0-3.82,0-2.15,0-2.37,0-2.84-.02-1.3-.05-2.37-.07-3.07Z"/>
        <path class="cls-12" d="M297.67,56.01c-.42,0-1.02,1.71-.56,3.27.33,1.11,1.23,2.23,1.59,2.09.7-.28-.3-5.36-1.03-5.36Z"/>
      </g>
      <g id="Nase">
        <path class="cls-21" d="M327.52,55.11c0,.96.03,1.59.03,2.55.03.37.07,1.12.22,1.57.4,1.26,1.28,1.98,1.76,2.43,1.26,1.15,1.3,2.08.99,2.82-.41.98-2.34,1.59-4.31.5"/>
      </g>
      <g id="Augen">
        <rect class="cls-9" x="336.19" y="46.67" width="4.35" height="5.11" rx="2.18" ry="2.18"/>
        <rect class="cls-9" x="314.89" y="46.67" width="4.35" height="5.11" rx="2.18" ry="2.18"/>
      </g>
      <g id="Augenbrauen">
        <rect class="cls-14" x="333.14" y="38.86" width="10.44" height="2.91" rx=".89" ry=".89" transform="translate(-1.5 15.62) rotate(-2.64)"/>
        <rect class="cls-14" x="311.85" y="38.86" width="10.44" height="2.91" rx=".89" ry=".89" transform="translate(2.19 -14.55) rotate(2.64)"/>
      </g>
      <g id="Mund_Bart" data-name="Mund + Bart">
        <ellipse class="cls-18" cx="328.51" cy="73.45" rx="6.77" ry="2.28"/>
        <path class="cls-14" d="M345,72.67c-1.11.73-2.63,1.52-4.54,1.9-6.05,1.24-11-2.5-12.14-3.44-1.13.91-6.08,4.68-12.16,3.44-1.91-.38-3.43-1.17-4.54-1.9,1.32-.18,3.18-.54,5.27-1.37,4.6-1.83,6.69-4.47,9.26-3.73.61.18,1.39.59,2.17,1.59.77-1,1.53-1.42,2.16-1.59,2.57-.74,4.66,1.9,9.26,3.73,2.09.83,3.95,1.19,5.27,1.37Z"/>
      </g>
      <path class="cls-14" d="M355.27,52.22l-1.9.85c-.68-1.44-1.73-5.6-2.88-15.87-.13-1.25-.18-2.04-.28-3.48-7.81,6.83-29.32,3.69-40.97-3.51-1.04,1.85-2.83,4.11-3.88,7.42-2.49,7.85-.98,14.25-.98,15.54,0,.21-3.32-.78-3.78-1.33-3.1-3.81-2.84-11.41-2.45-13.19,1.31-5.86,3.23-10.03,6-12.56-1.21-1.37-2.05-2.82-2.43-4.32-.09-.4-1.13-4.56.98-6.64,1.92-1.9,4.93-.52,9.7-.48,7.07.04,7.33-2.95,15.06-3.89,2.05-.25,9.6-1,17.17,2.91,2.67,1.39,6.87,3.57,8.37,8.08.8,2.39.71,5.06.05,7.3,1.16,2.5,2.33,5.78,3.07,9.43.48,2.44.73,10.98-.84,13.75Z"/>
    </g>
    <g id="Stethoskop">
      <path class="cls-3" d="M324.74,159.1c-.48,1.33-.42,2.77.18,4.06.54,1.17,1.49,2.07,2.65,2.59-.47.2-.83.53-.98.97-.14.38-.12.8.05,1.21-1.72-.73-3.09-2.05-3.88-3.76-.88-1.87-.97-3.96-.25-5.9,1.18-3.21,2.46-6.77,3.69-10.18.99-2.76,1.95-5.42,2.79-7.73l2.24.83c-.84,2.3-1.8,4.96-2.79,7.71-1.23,3.42-2.51,6.98-3.7,10.2Z"/>
      <path class="cls-11" d="M333.6,169.29c-.45,1.21-2.37,1.61-4.3.91-1.32-.48-2.31-1.37-2.65-2.26-.17-.41-.19-.84-.05-1.21.15-.44.51-.77.98-.97.85-.39,2.09-.4,3.34.06,1.92.71,3.14,2.26,2.69,3.48Z"/>
      <path class="cls-11" d="M347.99,174.58c-.14.39-.45.7-.85.9-.85.46-2.15.5-3.45.01-1.93-.72-3.14-2.28-2.7-3.48.45-1.21,2.38-1.63,4.32-.91,1.23.46,2.17,1.25,2.57,2.09.22.47.28.96.12,1.39Z"/>
      <path class="cls-3" d="M364.55,153.42c-.85,2.31-1.84,4.95-2.86,7.7-1.27,3.4-2.59,6.94-3.77,10.15-.71,1.95-2.13,3.48-4.01,4.34-1.01.46-2.1.7-3.17.7-.93,0-1.85-.17-2.75-.51-.28-.11-.55-.21-.84-.32.4-.2.71-.51.85-.9.17-.44.11-.92-.12-1.39.32.13.65.26.97.38,1.33.51,2.77.46,4.07-.13s2.28-1.65,2.76-2.98c1.18-3.22,2.5-6.77,3.78-10.18,1.03-2.74,2.02-5.38,2.85-7.68h0s2.24.81,2.24.81Z"/>
      <path class="cls-11" d="M365.11,153.63l-.57-.21-2.24-.83h0s-.57-.2-.57-.2c1.8-4.89,1.9-10.07.27-14.56-1.59-4.4-4.63-7.61-8.58-9.04-3.94-1.46-8.35-.98-12.4,1.33-4.15,2.37-7.43,6.38-9.22,11.27l-.55-.2h-.01l-2.24-.83-.55-.21c2.09-5.68,5.93-10.34,10.81-13.14,4.69-2.69,9.83-3.35,14.54-1.89.75-1.83,1.24-4.13,1.44-6.86.27-3.7.27-6.92.27-9.75,0-7-11.98-12.91-26.16-12.91s-26.09,5.87-26.18,12.84v.07c0,4.66,0,9.94.66,16.05.39,3.57,1.19,6.72,2.37,9.4.71-.25,1.46-.38,2.25-.38,3.9,0,7.07,3.17,7.07,7.07s-3.17,7.07-7.07,7.07-7.07-3.17-7.07-7.07c0-1.8.67-3.45,1.8-4.7-1.49-3.14-2.46-6.82-2.91-11-.67-6.31-.67-11.7-.67-16.44v-.07c.07-9.21,13.11-16.41,29.75-16.41s29.75,7.24,29.75,16.48c0,2.9,0,6.18-.29,10.01-.24,3.12-.79,5.8-1.7,7.99,3.76,2.1,6.65,5.61,8.28,10.08,1.92,5.29,1.83,11.34-.26,17.03Z"/>
      <circle class="cls-3" cx="308.45" cy="140.66" r="4.1"/>
    </g>
    <g id="Scan">
      <g id="Hintergrund">
        <rect class="cls-7" x="264.16" y="167.08" width="137.85" height="109.83"/>
      </g>
      <g id="Scan-2" data-name="Scan">
        <polyline class="cls-22" points="270 189.53 270 173.07 288.04 173.07"/>
        <polyline class="cls-22" points="396.58 189.53 396.58 173.07 378.55 173.07"/>
        <polyline class="cls-22" points="269.8 254.83 269.8 271.28 287.83 271.28"/>
        <polyline class="cls-22" points="396.38 254.83 396.38 271.28 378.35 271.28"/>
        <path class="cls-18" d="M373.96,228.09c-5.62,3.36-13.48,7.09-23.19,9.31,1.45,2.22,2.38,4.04,3.16,5.55.04.06.06.13.09.19,5.18-1.37,10.21-3.24,15.01-5.6,1.17-.58,2.58-.09,3.16,1.07.58,1.17.09,2.58-1.07,3.16-4.59,2.25-9.39,4.09-14.3,5.49.12.11.24.21.37.31,1.97,1.49,4.81,2.08,8.43,1.76,1.3-.12,2.45.84,2.56,2.13.12,1.3-.84,2.44-2.13,2.56-.78.07-1.53.11-2.26.11-3.81,0-6.97-.93-9.43-2.79-1.12-.85-1.96-1.77-2.64-2.77-.75-1.07-1.33-2.23-1.97-3.47-.14-.27-.28-.55-.44-.84-.73-1.43-1.62-3.05-2.92-4.98-.21-.31-.41-.6-.64-.9-1.07-1.5-2.23-2.92-3.48-4.27-.06-.07-.12-.13-.18-.2h-17.01c-.11.11-.21.21-.32.32-1.36,1.32-2.61,2.75-3.69,4.28-.17.21-.32.42-.46.64-1.46,2.13-2.25,3.82-2.92,5.31-.02.05-.04.08-.06.13-.66,1.45-1.29,2.84-2.38,4.19-.24.29-.5.6-.79.9-3.07,3.12-7.83,4.6-14.18,4.36-1.3-.05-2.31-1.14-2.26-2.44.05-1.31,1.14-2.32,2.44-2.28,4.02.15,7.15-.48,9.3-1.88-5.05-1.39-9.96-3.25-14.67-5.54-1.17-.57-1.66-1.98-1.08-3.15.57-1.18,1.98-1.66,3.15-1.1,5.05,2.46,10.36,4.4,15.82,5.77.12-.25.24-.51.37-.78.62-1.38,1.37-3.03,2.66-5.06-10.06-2.22-18.13-6.02-23.77-9.36-1.12-.67-1.49-2.11-.83-3.23.66-1.12,2.11-1.5,3.23-.84,5.7,3.37,14.02,7.26,24.45,9.23,1.08-1.27,2.24-2.46,3.48-3.58l.67-.6h6.33l.02-2.04c-16.46-.73-29.16-6.58-37.08-11.52-1.11-.68-1.44-2.15-.75-3.24.7-1.11,2.15-1.45,3.25-.75,7.4,4.61,19.27,10.08,34.61,10.8l.06-6.69c-17.12-.97-29.25-8.93-35.12-13.76-1-.83-1.16-2.31-.33-3.31.84-1.01,2.32-1.15,3.33-.33,5.39,4.45,16.5,11.73,32.17,12.69l.05-6.67c-13.63-1-23.09-7.92-26.69-11.02-.98-.85-1.1-2.35-.25-3.32.86-.99,2.35-1.11,3.34-.25,3.2,2.76,11.58,8.89,23.64,9.87v-2.19s-8.3-6.51-8.3-6.51c-1.53-1.2-1.8-3.43-.6-4.96,1.21-1.54,3.43-1.8,4.96-.6l7.45,5.84,7.09-5.79c1.51-1.24,3.74-1.01,4.98.5,1.24,1.51,1.01,3.74-.51,4.98l-7.98,6.53v2.18c11.79-1.1,20-7.11,23.17-9.83.99-.86,2.48-.74,3.33.25.86.98.74,2.48-.25,3.32-3.58,3.08-12.89,9.89-26.29,10.99l-.05,6.7c16.12-1.06,27.51-8.97,31.87-12.55,1.01-.83,2.5-.67,3.33.33.83,1.01.67,2.5-.33,3.32-4.76,3.89-17.24,12.56-34.9,13.62l-.06,6.67c15.29-.78,27.06-6.25,34.5-10.92,1.1-.7,2.56-.37,3.24.74.7,1.1.37,2.56-.74,3.25-7.96,5-20.63,10.87-37.02,11.65l-.02,2.04h7.45l.7.71c1.04,1.06,2.02,2.17,2.95,3.31,10.06-2.03,18.15-5.8,23.82-9.19,1.12-.67,2.57-.31,3.23.81.67,1.12.31,2.57-.81,3.23Z"/>
        <path class="cls-18" d="M336.36,259.36h-6.54c-1.3,0-2.36-1.06-2.36-2.36s1.06-2.36,2.36-2.36h6.54c1.3,0,2.36,1.06,2.36,2.36s-1.06,2.36-2.36,2.36Z"/>
        <path class="cls-18" d="M338.72,248.64c0,.22-.04.44-.08.64-.28.99-1.19,1.72-2.28,1.72h-6.54c-1.07,0-1.99-.72-2.26-1.71-.06-.2-.09-.42-.09-.65,0-1.3,1.06-2.36,2.36-2.36h6.54c1.3,0,2.36,1.06,2.36,2.36Z"/>
        <path class="cls-18" d="M338.72,240.27c0,1.31-1.06,2.36-2.36,2.36h-6.54c-1.3,0-2.36-1.05-2.36-2.36,0-1.18.88-2.17,2.03-2.33.11-.01.21-.02.33-.02h6.54c.07,0,.14,0,.2.01,1.2.11,2.16,1.12,2.16,2.35Z"/>
      </g>
    </g>
  </g>
  <g id="Icons">
    <g id="Diagramm">
      <polygon class="cls-7" points="188.95 394.09 0 393.97 .11 204.52 1.29 204.52 1.18 392.79 188.95 392.91 188.95 394.09"/>
      <rect class="cls-8" x="11" y="253.45" width="36.64" height="128.28"/>
      <rect class="cls-7" x="55.24" y="277.79" width="36.64" height="103.97"/>
      <rect class="cls-2" x="99.5" y="253.5" width="36.64" height="128.28"/>
      <rect class="cls-19" x="143.76" y="231.54" width="36.64" height="150.27"/>
      <g id="Pfeil">
        <polygon class="cls-7" points="136.17 208.2 134.1 215.5 131.66 212.52 94.97 241.06 47.73 224.87 11.3 242.32 10.79 241.26 47.66 223.61 94.75 239.74 130.9 211.6 128.6 208.81 136.17 208.2"/>
      </g>
    </g>
    <g id="PC">
      <g id="Form">
        <path class="cls-20" d="M471.73,205.07v157.04s217.45,0,217.45,0v-157.04s-217.45,0-217.45,0ZM682.47,334.84h-204.03s0-122.76,0-122.76h204.03s0,122.76,0,122.76Z"/>
        <path class="cls-6" d="M658.95,393.49h-155.77c0-3.61,1.46-6.86,3.83-9.23,2.36-2.36,5.62-3.82,9.23-3.82h45.83v-18.38h36.28v18.38h47.53c7.22,0,13.06,5.85,13.06,13.05Z"/>
        <rect class="cls-1" x="478.44" y="212.08" width="204.03" height="122.76"/>
      </g>
      <g id="Tabelle">
        <g id="Hintergrund-2" data-name="Hintergrund">
          <rect class="cls-17" x="532.32" y="317.89" width="12.68" height="8.84"/>
          <rect class="cls-17" x="546.17" y="221.9" width="39.22" height="5.14"/>
          <rect class="cls-17" x="532.32" y="248.77" width="12.68" height="9.01"/>
          <rect class="cls-17" x="532.32" y="258.96" width="12.68" height="9.01"/>
          <rect class="cls-17" x="532.32" y="228.22" width="12.68" height="9.18"/>
          <rect class="cls-17" x="532.32" y="279.32" width="12.68" height="8.28"/>
          <rect class="cls-17" x="586.57" y="221.9" width="42.47" height="5.14"/>
          <rect class="cls-17" x="532.32" y="238.58" width="12.68" height="9.01"/>
          <rect class="cls-17" x="532.32" y="221.9" width="12.68" height="5.14"/>
          <rect class="cls-17" x="532.32" y="307.71" width="12.68" height="9"/>
          <rect class="cls-17" x="532.32" y="298.23" width="12.68" height="8.3"/>
          <rect class="cls-17" x="532.32" y="288.78" width="12.68" height="8.28"/>
          <rect class="cls-17" x="532.32" y="269.14" width="12.68" height="9"/>
        </g>
        <g id="Tabelle-2" data-name="Tabelle">
          <path class="cls-6" d="M531.14,220.72v107.19h99.08v-107.19h-99.08ZM544.99,326.73h-12.68v-8.84h12.68v8.84ZM544.99,316.71h-12.68v-9h12.68v9ZM544.99,306.53h-12.68v-8.3h12.68v8.3ZM544.99,297.05h-12.68v-8.28h12.68v8.28ZM544.99,287.6h-12.68v-8.28h12.68v8.28ZM544.99,278.14h-12.68v-9h12.68v9ZM544.99,267.97h-12.68v-9.01h12.68v9.01ZM544.99,257.78h-12.68v-9.01h12.68v9.01ZM544.99,247.59h-12.68v-9.01h12.68v9.01ZM544.99,237.4h-12.68v-9.18h12.68v9.18ZM544.99,227.04h-12.68v-5.14h12.68v5.14ZM585.39,326.73h-39.22v-8.84h39.22v8.84ZM585.39,316.71h-39.22v-9h39.22v9ZM585.39,306.53h-39.22v-8.3h39.22v8.3ZM585.39,297.05h-39.22v-8.28h39.22v8.28ZM585.39,287.6h-39.22v-8.28h39.22v8.28ZM585.39,278.14h-39.22v-9h39.22v9ZM585.39,267.97h-39.22v-9.01h39.22v9.01ZM585.39,257.78h-39.22v-9.01h39.22v9.01ZM585.39,247.59h-39.22v-9.01h39.22v9.01ZM585.39,237.41h-39.22v-9.2h39.22v9.2ZM585.39,227.04h-39.22v-5.14h39.22v5.14ZM629.04,326.73h-42.47v-8.84h42.47v8.84ZM629.04,316.71h-42.47v-9h42.47v9ZM629.04,306.53h-42.47v-8.3h42.47v8.3ZM629.04,297.05h-42.47v-8.28h42.47v8.28ZM629.04,287.6h-42.47v-8.28h42.47v8.28ZM629.04,278.14h-42.47v-9h42.47v9ZM629.04,267.97h-42.47v-9.01h42.47v9.01ZM629.04,257.78h-42.47v-9.01h42.47v9.01ZM629.04,247.59h-42.47v-9h42.47v9ZM629.04,237.41h-42.47v-9.2h42.47v9.2ZM629.04,227.04h-42.47v-5.14h42.47v5.14Z"/>
        </g>
      </g>
    </g>
  </g>
</svg>