<?xml version="1.0" encoding="UTF-8"?>
<svg id="G-0129_BUW_Ziel_FDM" xmlns="http://www.w3.org/2000/svg" viewBox="0 0 944.6 461.19">
  <defs>
    <style>
      .cls-1 {
        fill: #a5678d;
      }

      .cls-1, .cls-2, .cls-3, .cls-4, .cls-5, .cls-6, .cls-7, .cls-8, .cls-9, .cls-10, .cls-11, .cls-12, .cls-13, .cls-14, .cls-15, .cls-16, .cls-17, .cls-18, .cls-19, .cls-20, .cls-21, .cls-22, .cls-23 {
        stroke-width: 0px;
      }

      .cls-2 {
        fill: #dddddc;
      }

      .cls-3 {
        fill: #64abd6;
      }

      .cls-4 {
        fill: #e6710a;
      }

      .cls-5 {
        fill: #cae08f;
      }

      .cls-6 {
        fill: #873567;
      }

      .cls-7 {
        fill: #603813;
      }

      .cls-8 {
        fill: #95c11f;
      }

      .cls-9 {
        fill: #000;
      }

      .cls-10 {
        fill: #e5f0c7;
      }

      .cls-11 {
        fill: #fcd9bd;
      }

      .cls-12 {
        fill: #dcbd92;
      }

      .cls-13 {
        fill: #b47d49;
      }

      .cls-14 {
        fill: #236289;
      }

      .cls-15 {
        fill: #b9ddf3;
      }

      .cls-16 {
        fill: #308fc9;
      }

      .cls-17 {
        fill: #ec9447;
      }

      .cls-18 {
        fill: #e5e6e5;
      }

      .cls-19 {
        fill: #98c7e4;
      }

      .cls-20 {
        fill: #603813;
      }

      .cls-21 {
        fill: #ccc;
      }

      .cls-22 {
        fill: #dec1a8;
      }

      .cls-23 {
        fill: #5a89a6;
      }
    </style>
  </defs>
  <g id="Hintergrund">
    <path class="cls-21" d="M407.13,136.19H1.46v-36.9c42.34-26.01,70.57-26.05,83.47-24.61,5.31.59,10.12,1.67,53.61,18.29,46.14,17.63,45.27,18.14,51.36,18.96,41.51,5.53,60.14-21.52,98.76-16.63,26.27,3.33,26.7,17.16,69.42,30.59,19.68,6.19,37.65,8.95,49.05,10.29Z"/>
    <rect class="cls-15" x="0" y="136.19" width="944.6" height="323.29"/>
    <path class="cls-18" d="M944.6,459.48H0V181.27c135.06,15.38,275.71,28.35,421.65,38.2,13.78.93,27.61,1.83,41.48,2.7,11.18.71,22.4,1.39,33.64,2.06,7.67.45,15.35.9,23.06,1.33.28.02.57.03.85.05,2.21.13,4.43.25,6.64.37,1.38.08,2.75.16,4.13.23.04,0,.08.01.12.01.27.02.55.03.84.04.17,0,.35.02.52.03,2.36.14,4.71.27,7.07.39.01,0,.02,0,.03,0,2.83.16,5.66.31,8.49.46,1.43.08,2.85.16,4.28.23,1.29.07,2.59.14,3.88.21.41.02.81.04,1.22.06,0,0,0,0,0,0,1.17.06,2.35.12,3.52.18,2.87.15,5.74.3,8.61.44,2.17.12,4.33.22,6.5.33.14,0,.29,0,.43.02,1.12.06,2.23.12,3.34.17.49.02.97.05,1.46.07,7.14.37,14.27.71,21.38,1.04,1.49.08,2.97.15,4.46.21.36.03.72.04,1.08.05h0c1.31.07,2.62.13,3.93.19,8.58.4,17.14.79,25.67,1.16,1.07.05,2.14.09,3.21.14,1.04.05,2.08.09,3.12.14.78.03,1.55.07,2.32.1,1.16.05,2.32.1,3.47.15l5.88.24h.01c2.81.12,5.6.24,8.4.35.24,0,.48.02.72.03,1.62.07,3.22.13,4.83.2.27.01.55.02.82.03.87.04,1.74.07,2.61.1.6.03,1.19.05,1.78.07,1.98.08,3.95.16,5.92.23.4.02.79.04,1.19.05h.01c.95.04,1.91.08,2.87.11,1.9.08,3.8.15,5.7.22,1.36.06,2.72.11,4.08.16,1.08.04,2.16.08,3.24.12.63.02,1.27.05,1.9.07.75.03,1.5.06,2.25.08,2.67.1,5.33.2,7.99.29,2.47.09,4.93.18,7.39.26.61.02,1.21.04,1.81.06.8.03,1.6.06,2.4.09,3.35.12,6.69.23,10.03.35,2.44.08,4.86.16,7.29.24h.01c1.39.05,2.77.09,4.15.13,1.07.04,2.13.07,3.19.1.54.02,1.07.04,1.61.05h.01c3.99.13,7.97.25,11.96.37,7.43.23,14.86.45,22.27.65.39.02.78.03,1.17.03,1.91.06,3.82.11,5.72.16,51.86,1.42,103.03,2.38,153.51,2.92.21,31.58.42,63.16.63,94.75.12,17.88.24,35.76.36,53.65h0c.15,23.03.3,46.05.46,69.08,0,.73.01,1.47.01,2.2Z"/>
    <path class="cls-10" d="M944.6,136.19H251.5c35.51-10.31,88.52-27.09,151.64-52.69,64.2-26.04,65.25-31.34,90.45-35.91,92.58-16.8,119.41,47.31,201.52,32.59,69.34-12.43,86.68-64.7,141-53.87,11.85,2.36,45.66,11.75,80.48,23.94,11.76,4.12,21.42,7.78,28.02,10.34v75.6Z"/>
    <path class="cls-19" d="M944.6,136.19H251.5c35.51,2.66,88.52,7,151.64,13.61,64.2,6.73,65.25,8.1,90.45,9.28,92.58,4.34,119.41-12.23,201.52-8.42,69.34,3.21,86.68,16.72,141,13.92,11.85-.61,45.66-3.04,80.48-6.19,11.76-1.06,21.42-2.01,28.02-2.67v-19.54Z"/>
    <path class="cls-21" d="M944.6,334.43v125.05H1.46v-125.05c25.52-4.36,60.54-9.34,102.39-12.16,39.91-2.69,87.3-3.51,155.63,1.33,109.18,7.73,110.6,18.49,190.22,23.94,12.95.89,24.92,1.48,36.07,1.83,1.31.04,2.62.08,3.91.1.21,0,.41.02.62.02,1.08.03,2.16.05,3.22.07,5.94.14,11.63.2,17.12.19,5.68,0,11.13-.07,16.39-.19.48,0,.96-.02,1.43-.03,3.37-.09,6.65-.19,9.87-.32,3.91-.16,7.71-.35,11.42-.56.7-.04,1.39-.08,2.08-.11.64-.04,1.27-.08,1.91-.12h.01c3.76-.24,7.43-.5,11.02-.78.86-.06,1.71-.13,2.55-.2.56-.05,1.12-.09,1.67-.14.28-.02.56-.04.84-.07,3.58-.29,7.08-.61,10.54-.94.26-.02.51-.04.77-.07.34-.03.69-.06,1.03-.09.35-.04.71-.08,1.06-.11,1.2-.12,2.38-.23,3.57-.35.2-.02.4-.04.6-.06,5.47-.55,10.85-1.12,16.19-1.69.84-.08,1.68-.17,2.52-.27.73-.07,1.45-.15,2.18-.23.86-.08,1.71-.18,2.57-.26,1.62-.18,3.25-.35,4.88-.51,6.53-.68,13.1-1.33,19.85-1.92,1.62-.14,3.24-.27,4.88-.4.39-.03.78-.07,1.18-.09,1.5-.12,3.01-.24,4.54-.35,2.13-.16,4.28-.3,6.46-.44,1.4-.09,2.82-.17,4.25-.25,1.87-.11,3.76-.21,5.68-.3h.17c1.59-.08,3.19-.15,4.82-.21.84-.03,1.68-.06,2.53-.09,2.41-.09,4.85-.16,7.34-.21,1.36-.04,2.73-.06,4.12-.08h.26c1.5-.03,3.02-.05,4.55-.06h.17c1.3,0,2.6-.02,3.92-.02,1.53,0,3.05.01,4.57.03,1.2,0,2.4.02,3.6.04h.12c.14,0,.29,0,.43,0,3.05.05,6.08.13,9.11.24,3.78.13,7.56.3,11.34.49,4.57.23,9.16.51,13.78.81,2.15.14,4.32.28,6.49.44.19.01.39.03.58.04h.01c.76.05,1.52.1,2.28.15,5.89.41,11.85.84,17.94,1.25,7.01.48,14.18.94,21.59,1.34,3.59.19,7.25.37,10.96.52,1.02.04,2.05.08,3.09.12.89.04,1.78.07,2.68.1,22.89.79,48.19.69,77.65-1.59,28.3-2.19,51.56-5.31,67.09-7.67.28-.04.56-.08.83-.12Z"/>
    <path class="cls-2" d="M1.46,457.28h943.14v-69.03c-25.52-2.41-60.54-5.16-102.39-6.72-39.91-1.49-87.29-1.94-155.63.73-109.18,4.27-110.59,10.21-190.21,13.22-120.39,4.55-155.31-5.07-240.76-5.14-54.81-.04-104.53,5.69-186.22,2.2-28.81-1.23-52.39-2.99-67.92-4.3v69.03Z"/>
  </g>
  <g id="Bäume">
    <g>
      <rect class="cls-20" x="105.52" y="254.66" width="13.97" height="72.12"/>
      <path class="cls-8" d="M168.88,228.98c-4.66,11.17-29.25,27.03-57,26.77-27.44-.25-51.01-16.28-55.54-26.77C27.85,162.89,87.77-.23,112.61,0c28.5.26,83.3,164.21,56.27,228.98Z"/>
    </g>
    <g>
      <rect class="cls-20" x="197.31" y="263.43" width="13.97" height="72.12"/>
      <path class="cls-5" d="M252.68,241.06c-4,9.59-25.1,23.2-48.92,22.98-23.55-.22-43.78-13.97-47.66-22.98-24.46-56.72,26.97-196.72,48.29-196.52,24.46.22,71.49,140.93,48.29,196.52Z"/>
    </g>
  </g>
  <g id="Person:_Links" data-name="Person: Links">
    <g id="Arme">
      <path class="cls-13" d="M535.74,324.78c.04.73-.01,1.47-.16,2.21-.19.98-.48,1.67-.63,2.02-2.52,5.4-4.62,11-7.5,16.21-2.84,5.15-1.86,4.23-7.13,14.86-4.81,9.68-9.68,18.89-14.54,27.6.02.05.04.11.06.15,2.53,6.16.33,13.74-3.45,18.73-4.24,5.61-11.87,9.73-13.33,7.91-1.97-2.46,3.28-4.53,5.38-9.82,1.11-2.81-.45-7.26-1.64-6.23-2.54,2.18-5.47,3.96-6.78,3.24-.38-.22-.64-.47-.78-.76-.5-.98.12-2.22.7-3.26.78-1.37,2.05-3.41,4.12-5.85.86-1,1.12-1.19,2.89-3.04,1.3-1.37,2.39-2.54,3.23-3.46,2.81-9.88,5.92-20.08,9.38-30.55,3.4-10.28,6.92-20.16,10.48-29.62-12.07-19.89-24.1-39.79-36.15-59.66-.03-.05-.04-.08-.04-.1h-.03c-.87-1.42-1.49-3.02-1.78-4.75-1.18-7.11,3.6-13.84,10.73-15.03,5.59-.93,10.96,1.86,13.56,6.56.03.05.04.11.07.15.14.28.27.59.42.86,10.67,22.06,21.33,44.09,31.98,66.15.04.1.13.3.13.3.38.77.62,1.58.76,2.43.16.93.17,1.84.07,2.73Z"/>
      <path class="cls-13" d="M428.28,253.51c-1.62,7.05-8.21,11.51-14.72,10.02-1.6-.36-3.04-1.05-4.29-1.98v-.02s-.05-.02-.09-.06c-18.41-13.47-36.83-26.95-55.26-40.46-.06-.04-.15-.08-.22-.16-.25-.16-.51-.34-.75-.53-2.37-1.95-3.65-5.13-3.25-8.49-1.29-18.16-2.56-36.33-3.84-54.49-1.07-1.09-2.35-2.64-3.42-4.72-1.55-3.02-3.23-5.82-2.15-8.56.95-2.42,3.48-3.49,3.64-3.55,2.61-1.05,4-.6,5.21-.73.51-.05-1.14-2.56-1.55-6.67-.1-1.06-.3-3.29.83-3.96.4-.24.83-.2,1.01-.18.75.11,1.52.76,3.75,6.37,1.04,2.63,1.75,4.7,2.19,6.01.14.41.21.62.24.74.2.64.67,2.39.46,6.14-.09,1.52-.25,2.68-.3,3.05-.16,1.13-.37,2.15-.57,3.04,2.41,8.65,4.73,17.61,6.9,26.91,2.07,8.79,3.91,17.4,5.54,25.82,18.21,10.71,36.4,21.42,54.61,32.15.25.16.52.31.77.45.05.04.09.06.14.09,4.18,2.79,6.37,8.26,5.11,13.78Z"/>
    </g>
    <g id="Körper">
      <path class="cls-13" d="M505.35,453.46c-.02.77-.05,1.5-.08,2.2h-40.05c-.1-.73-.21-1.46-.31-2.2-.77-5.5-1.54-10.99-2.32-16.49-2.21-15.75-4.42-31.5-6.63-47.25-.51-3.62-1.02-7.23-1.53-10.85h-.01s-6.36,0-6.36,0c-.19.2-.41.36-.65.5-.85,3.69-1.71,7.38-2.56,11.07-4.86,21.01-9.71,42.02-14.56,63.03-.17.73-.34,1.46-.51,2.2h-39.67c.02-.75.04-1.49.05-2.2,0-.25,0-.49.02-.73.65-24.87,3.02-44.81,5.99-60.35,4.37-22.79,10.04-36.09,13.49-41.57.32-.51.62-1,.86-1.38.11-.22.25-.41.38-.6l.03-.03c4.99-10,10-19.99,14.99-29.99-3.2-27.62-6.4-55.24-9.61-82.86,11.03-.18,23.55.25,37.23,1.8,14.66,1.67,27.75,4.31,39.03,7.21-7.21,24.62-14.41,49.24-21.62,73.85l19.22,30.03-.12.1c.17.15.29.3.43.46v.03c.38.8.84,1.56.84,1.56,3.7,6.27,6.47,14.32,8.54,23.24.85,3.66,1.58,7.46,2.21,11.35.23,1.41.44,2.86.64,4.3.34,2.39.64,4.81.91,7.23.23,2.13.44,4.26.63,6.38.73,8.34,1.11,16.62,1.27,24.25.21,10.15.05,19.17-.17,25.72Z"/>
    </g>
    <g id="Hose">
      <path class="cls-17" d="M450.66,318.52v66.63c-.41,1.66-.83,3.32-1.24,4.99-4.99,20.24-9.76,41.36-14.2,63.31-.15.73-.29,1.47-.44,2.2h-49.68c.07-.72.14-1.46.21-2.2.16-1.71.32-3.47.49-5.25,2.52-26.66,4.25-43.24,6.35-55.73,1.79-10.56,3.84-18.19,6.86-26.52,2.73-7.49,5.8-14.3,8.96-20.41,5.46-10.55,11.19-19.02,15.94-25.33.42-.56.84-1.1,1.24-1.63h.75c8.25-.03,16.51-.03,24.76-.06Z"/>
      <path class="cls-4" d="M511.23,455.65h-52.34c-.06-.74-.13-1.47-.2-2.2-2.06-21.93-4.54-43.08-7.35-63.43-.22-1.63-.45-3.25-.68-4.87v-66.63c6.78,0,13.59-.02,20.39-.02h.63c.41.5.82.99,1.22,1.48,1.13,1.36,2.21,2.71,3.26,4.06,1.08,1.39,2.13,2.78,3.15,4.16,3.9,5.28,7.27,10.43,10.21,15.41,5.25,8.91,9.08,17.26,11.88,24.77,2.33,6.2,3.97,11.84,5.15,16.75.09.38.18.75.26,1.11.1.45.2.89.3,1.32,1.35,6.11,2.19,12.9,2.77,21.37.44,6.53.71,14.08.92,23.1h0c.15,6.36.27,13.44.39,21.42.02.73.03,1.46.04,2.2Z"/>
    </g>
    <g id="Oberteil">
      <path class="cls-3" d="M450.65,243.4v80.17c-.7.02-1.4.05-2.11.05-12.16.08-21.99-2.41-28.36-4.58-.13-9.01-.43-18.36-.94-28-.27-5.2-.52-8.94-.65-10.86-.23-3.51-.48-7.76-.75-12.89-1.62-.2-3.24-.68-4.78-1.45l-29.98-15.03,14.28-28.5,23.84,11.95c4.76.04,9.53.08,14.29.12,1.22,1.38,6.39,6.99,15.16,9.02Z"/>
      <path class="cls-16" d="M521.03,277.38l-27.4,16.88-8.01-12.99c-.67,2.41-1.33,4.81-1.95,7.17-2.19,8.29-4.14,16.63-4.14,16.63-1.09,4.66-2.12,9.26-3.07,13.76-5.93,2.06-14.81,4.41-25.81,4.74v-80.17c1.11.27,2.28.46,3.52.59,11.11,1.11,18.88-4.57,20.51-5.82,6.02,1.26,12.07,2.53,18.11,3.78,4.27.59,8.26,3.01,10.68,6.94l17.56,28.49Z"/>
    </g>
    <g id="Kopf">
      <path class="cls-13" d="M463.26,221.31c-.35.1-.71.2-1.06.29.07,6.01.13,12.03.2,18.05-6.51-.93-13.02-1.85-19.53-2.78v-16.16c0-.47.04-.94.11-1.39-6.26-3.28-11.26-8.97-13.43-16.24l-2.82-9.47c-3.91-13.11,3.63-27.04,16.74-30.95,2.35-.7,4.72-1.03,7.06-1.03,10.72,0,20.68,7.01,23.89,17.77l4.09,13.72c3.56,11.94-3.3,24.63-15.25,28.19Z"/>
    </g>
    <g id="Haare">
      <path class="cls-7" d="M437.83,225.46c-.33.38-2.1,2.34-5.03,2.5-3.73.19-5.98-2.72-6.16-2.97-4.28.26-7.69-2.66-7.99-5.93-.2-2.27,1.1-4.57,3.22-6.01-4.38-.19-8.03-3.44-8.7-7.69-.7-4.42,2.01-8.79,6.37-10.15-3.72-.59-6.5-3.8-6.54-7.54-.04-3.68,2.57-6.91,6.21-7.65-1.84-3.38-1.72-7.45.35-10.5,2.49-3.66,7.39-5.23,11.87-3.65.02-.45.41-6.82,5.93-10.04,4.14-2.41,9.47-2.06,13.47.91,1.99-2.32,5.11-3.3,7.99-2.51,3.16.86,5.47,3.71,5.71,7.08.62-.11,7.93-1.31,13.24,4.11,4.41,4.5,4.16,10.24,4.11,11.18,3.61,1.69,6.05,5.18,6.39,9.13.35,4.07-1.59,8.02-5.02,10.27,2.97,1.4,4.91,4.31,5.02,7.53.12,3.5-1.97,6.78-5.25,8.22,2.6,1.7,3.51,4.99,2.28,7.53-1.03,2.13-3.41,3.43-5.93,3.2-.55,2.17-2.26,3.84-4.41,4.31-2.32.5-4.74-.48-6.09-2.49-.79,1.06-2.01,2.32-3.44,2.26-1.39-.05-2.01-1.3-2.95-2.04-4.57-3.55-14.85,6.4-22.09,2.92-.69-.33-1.62-.91-2.55-1.99Z"/>
    </g>
  </g>
  <g id="Person:_Mitte" data-name="Person: Mitte">
    <g id="Körper-2" data-name="Körper">
      <path class="cls-11" d="M644.31,236c-1.09,9.74-2.66,20.2-4.88,31.26-2.83,14.12-6.28,26.98-9.92,38.49,1.21,10.44,2.67,20.39,4.3,29.84.32.99.79,2.5,1.3,4.33,3.37,12.05,4.04,21.62,5.02,40.53.69,13.29,1.04,19.94,1.04,21.46.04,15.39-1.38,53.85-1.24,55.37,0,.05.05.48.05,1.07.01.36,0,.73-.03,1.1v.03h-30.26c-.34-.72-.69-1.46-1.03-2.2-4.09-8.89-8.1-18.74-11.7-29.55-5.57-16.8-9.12-32.69-11.32-47.08-1-6.56-1.72-12.82-2.24-18.71-.93-.2-1.92-.42-2.99-.69-.98,6.13-2.23,12.69-3.84,19.58-3.44,14.8-8.49,31.18-15.89,48.39-2.23,5.17-4.55,10.11-6.91,14.81-2.14,4.29-4.33,8.38-6.51,12.27-.19.33-.37.66-.56.98-.42.74-.84,1.47-1.26,2.2h-30.18c-.05-.35-.08-.7-.1-1.06-.01-.1-.01-.19-.01-.29-.02-.29-.03-.57-.02-.85.01-.92.1-1.83.26-2.7.02-1.35.04-2.7.07-4.11.1-5.49.29-11.16.59-16.99.54-10.73,1.44-22.01,2.79-33.77.67-5.83,1.42-11.53,2.23-17.09,1.95-13.19,4.28-25.58,6.84-37.12.54-2.46,1.1-4.87,1.67-7.25.13-.56.26-1.11.39-1.66.02,0,.02.02.05.02,5.39-16.89,10.27-36.9,13.04-59.63,1.27-10.43,1.96-20.32,2.24-29.58-1.48-.66-2.76-1.59-3.85-2.71-.01.02-.03,0-.04.04-7.47-7.32-15.18-15.39-22.99-24.24-9.39-10.67-17.69-21.1-24.99-31-4.5-5.5-9.2-11.06-14.08-16.68-6.3-7.24-12.58-14.16-18.78-20.75-1.54-.64-3.4-1.61-5.29-3.07-3.15-2.44-6.32-4.58-6.52-8.04-.18-3.04,1.98-5.42,2.11-5.57,2.25-2.41,3.95-2.62,5.18-3.36.52-.31-2.47-2.16-4.94-6.32-.63-1.08-1.95-3.36-1.09-4.63.31-.44.79-.62.99-.69.85-.25,1.99.05,7.13,4.92,2.42,2.29,4.19,4.14,5.32,5.32.35.36.52.55.62.66.53.58,1.9,2.22,3.52,6.3.66,1.67,1.06,2.97,1.19,3.38.67,2.26,1.04,4.22,1.26,5.67-.06.05-.13.1-.19.15,6.67,4.29,13.71,9.22,20.92,14.87,5.99,4.69,11.45,9.36,16.41,13.9,13.21,10.16,19.14,15.08,29.19,24.81,2.65,2.57,5.51,5.07,8.88,8.12-.01-.28-.03-.55-.04-.83,10.22-2.71,24.26-5.35,41.04-5.33,16.53.03,30.37,2.64,40.5,5.33,2.52.76,7.28,2.6,11.34,7.07,7.75,8.54,6.44,19.54,6.21,21.28Z"/>
    </g>
    <g id="Hose-2" data-name="Hose">
      <path class="cls-14" d="M653.75,459.48h-56.79c-.11-.73-.21-1.46-.33-2.2-.68-4.65-1.37-9.31-2.06-13.96-3.11-20.9-6.27-41.79-9.48-62.66-.78-5.07-1.56-10.14-2.35-15.21l.03-3.64.03-4.53v-1.19s.05-4.41.05-4.41l.09-11.39.07-9.08v-.38s.09-10.68.09-10.68c.35,0,.69,0,1.04,0,1,0,2.02,0,3.04-.03,16.56-.31,31.24-2.16,43.55-4.48.77-.15,1.52-.29,2.27-.44,2.22,9.07,4.37,18.58,6.39,28.52.08.39.16.77.23,1.16,2.3,11.34,4.43,23.23,6.32,35.65,2.62,17.16,4.78,35.33,6.28,54.42.6,7.57,1.07,15.02,1.43,22.34.03.74.07,1.47.1,2.2Z"/>
      <path class="cls-23" d="M583.1,320.15l-.08,10.68v.38s-.08,9.08-.08,9.08l-.09,11.39-.04,4.41v1.19s-.04,4.53-.04,4.53l-.03,3.64c-1.31,5.11-2.62,10.23-3.92,15.34-5.66,22.14-11.25,44.3-16.78,66.46-.83,3.34-1.67,6.69-2.5,10.03-.18.73-.36,1.47-.54,2.2h-43.74c.04.33.09.65.16.96h-.95c.03-.16.06-.32.11-.48-.02-.16-.03-.32-.05-.48h-13.71c.11-.73.22-1.46.34-2.2,1.14-7.38,2.41-14.88,3.83-22.49.74-4.03,1.52-8.09,2.35-12.18.16-.77.31-1.54.47-2.31,2.66-12.97,5.57-25.47,8.67-37.48,3.37-13.07,6.96-25.58,10.69-37.49.74-2.38,1.49-4.74,2.24-7.08,1.62-5.02,3.26-9.92,4.92-14.72.7-2.05,1.41-4.08,2.13-6.09.15-.43.3-.86.45-1.28.03,0,.07,0,.1.02,12.79,2.26,28.36,4.02,46.09,3.97Z"/>
    </g>
    <g id="Oberteil-2" data-name="Oberteil">
      <path class="cls-6" d="M635.1,295.83c3.39,19.41,5.58,35.95,7.02,48.42-14.68,3.7-33.9,7.1-56.55,7.4-.8,0-1.61.02-2.41.02l4.14-134.45.15-4.96c.48.03.96.04,1.45.04,2.52.01,4.84-.33,6.95-.89,8.27-2.18,13.24-7.71,14.11-8.72,4.72-.04,14.29.53,24.34,6.21,6.44,3.64,10.78,8.08,13.41,11.27-.18,3.88-1.06,11.71-5.95,19.99-4.57,7.75-10.46,12.19-13.68,14.28,5.29,30.7,7.02,41.39,7.02,41.39Z"/>
      <path class="cls-1" d="M587.45,212.26l-.15,4.96-4.14,134.45c-23.78.06-43.89-3.35-58.95-7.04,1.14-22.34,4.32-40.05,7.02-52.12,4.19-18.73,10.73-45.46,10.73-45.46-6.06-3.34-13.81-8.4-21.65-15.88-7.27-6.95-12.42-13.88-15.96-19.46,1.98-3.54,4.77-7.78,8.65-12.14,4.76-5.34,9.6-9.09,13.47-11.63,3.14,2.1,6.36,4.21,9.64,6.31,3.47,2.23,6.91,4.39,10.31,6.49,2.78.18,5.6.34,8.48.47,4.16.19,8.22.31,12.19.37.6.77,4.08,5.07,10.07,7.98,2.87,1.4,6.31,2.47,10.29,2.7Z"/>
    </g>
    <g id="Kopf-2" data-name="Kopf">
      <path class="cls-11" d="M597.83,186.05c-.36.11-.73.21-1.09.3v20.96c0,1.46-.32,2.85-.89,4.1-2.11.56-4.43.9-6.95.89-.49,0-.97,0-1.45-.04-3.98-.23-7.42-1.3-10.29-2.7-.17-.72-.26-1.48-.26-2.25v-21.12c0-.73.08-1.43.23-2.12-6.49-3.35-11.66-9.22-13.9-16.73l-2.89-9.72c-4.02-13.46,3.72-27.76,17.18-31.77,2.41-.72,4.84-1.06,7.24-1.06,11.01,0,21.23,7.19,24.53,18.24l4.19,14.08c3.66,12.26-3.38,25.28-15.65,28.94Z"/>
    </g>
    <g id="Haare-2" data-name="Haare">
      <path class="cls-12" d="M580.73,118.23c2.07-1.66,5.52-3.86,9.99-4.21,10.48-.82,18.56,9.19,19.9,10.91,7.58,9.74,6.4,20.42,13.77,23.23,1.02.39,4.68,1.57,4.57,2.72-.08.82-2,.84-2.25,1.87-.35,1.42,3.03,2.51,4.89,5.38,2.08,3.22,1.26,7.18.98,8.52-.37,1.8-1.19,3.86-8.08,11.19-5.83,6.21-7.99,7.65-8.94,11.32-.68,2.64.58,6.56,0,6.69-.06.01-.1-.02-.3-.18-1.37-1.09-1.7-1.5-2.25-1.57-.15-.02-.62-.07-.87.18-.47.49.11,1.77.27,2.55.12.61-.11,1.4-.72,1.5-.41.07-.8-.21-1.13-.47-1.06-.84-2.12-1.69-3.17-2.53-.25-.2-.61-.41-.87-.21-.18.14-.19.45-.19.59.02,1.45,1.9,6.87,1.72,6.97-.09.05-.88-1.11-1.47-1.96-1.26-1.81-2.32-3.15-3.71-4.33-1.13-.96-1.74-1.21-2.15-1-.32.17-.51.5-.65.84-.7,1.68-.34,3.62-.79,5.38-.07.29-.22.62-.51.67-.28.05-.52-.18-.72-.38-1.39-1.46-3.15-2.76-5.17-2.85s-4.18,1.51-4.05,3.52c.03.47-.04,1.17-.5,1.1-.18-.03-.31-.2-.41-.36-.78-1.18-1.55-2.35-2.33-3.53-.52-.79-1.18-1.67-2.13-1.72-.94-.05-1.7.77-2.11,1.62s-.62,1.8-1.2,2.54c-.25.32-.61.61-1.01.59-.68-.03-1.01-.82-1.31-1.43-1.03-2.06-4.42-3.09-6.9-3.01-3.66.11-6.38,2.71-6.85,3.56,0,0-.12.22-.17.2-.19-.06,1.47-2.89.73-4.59-1.19-2.74-8.39-1.79-8.58-3.27-.06-.47.68-.57,1.15-1.6.82-1.8-.31-3.94-.56-4.4-.86-1.61-2.08-2.4-3.81-3.55-7.12-4.72-7.64-5.44-7.81-6.27-.42-2.09,1.86-2.9,2.62-5.65,1.35-4.88-4.38-7.75-5.98-13.17-2.15-7.3,5.87-10.17,18.01-31.89,3.08-5.5,5.16-9.97,10.01-11.4,4.29-1.26,8.52.5,11.04,1.88Z"/>
    </g>
  </g>
  <g id="Person:_Rechts" data-name="Person: Rechts">
    <g id="Körper-3" data-name="Körper">
      <path class="cls-22" d="M758.01,453.05c-.13,1.78-.28,3.77-.45,5.94-.07.71-.13,1.45-.19,2.2h-36.55c-.1-.73-.2-1.46-.31-2.2-3.54-25.22-7.09-50.44-10.63-75.66-.74-5.24-1.47-10.47-2.21-15.71,0,0,0,0,0,0h-6.35c-.19.19-.41.36-.65.5-1.21,5.22-2.42,10.45-3.62,15.67-5.8,25.07-11.58,50.14-17.38,75.21-.17.74-.34,1.47-.51,2.2h-35.94c0-.26.01-.52,0-.77.01-.48.01-.96.01-1.43.05-6.71.16-12.63.28-17.6.08-3.09.19-6.11.32-9.05.82-18.25,2.58-33.6,4.77-46.29,4.15-24.04,9.84-38.54,13.58-45.14.27-.48.53-.92.78-1.32.33-.51.62-1,.87-1.38.11-.21.24-.4.38-.59,5-9.99,10-19.99,14.99-29.98-3.2-27.59-6.39-55.18-9.59-82.77,11.01-.18,23.51.25,37.18,1.8,14.65,1.67,27.72,4.3,38.98,7.2-7.19,24.59-14.39,49.18-21.59,73.77l19.19,29.98-.12.11c.17.13.3.29.44.46v.02c.38.8.83,1.57.83,1.57.43.73.85,1.48,1.25,2.26,5.47,10.44,8.72,25.02,10.61,40.19,4.24,33.94,1.64,70.82,1.64,70.82Z"/>
      <path class="cls-22" d="M750.75,255.02c-1.16,1.44-3.86,4.78-7.7,4.93-2.65.11-4.76-1.34-5.99-2.3-11.58-9-24.58-35.7-32.64-51.63-.02-.03-.11-.22-.12-.24-.32-.57-.54-1.17-.67-1.8-3.56-3.93-7.15-7.97-10.75-12.13-5.28-6.09-10.33-12.12-15.16-18.08-1.29-.42-2.92-1.11-4.6-2.27-2.56-1.77-5.14-3.3-5.45-5.99-.27-2.36,1.31-4.32,1.41-4.44,1.64-1.98,2.96-2.22,3.89-2.85.39-.26-2.03-1.57-4.14-4.72-.54-.81-1.67-2.53-1.05-3.56.22-.36.59-.52.74-.58.66-.23,1.56-.05,5.79,3.52,1.98,1.68,3.45,3.05,4.38,3.92.29.27.43.4.51.48.44.44,1.58,1.65,3.03,4.77.59,1.27.96,2.27,1.07,2.59.49,1.34.83,2.56,1.07,3.56,10.38,9.02,20.76,18.03,31.14,27.04,1.5,1.3,3.01,2.61,4.51,3.91,1.19,1.68,2.38,3.31,3.55,4.88,6.57,8.82,12.26,15.4,12.26,15.4,13.79,16.02,18.64,15.97,19.16,22.79.52,6.75-3.83,12.29-4.24,12.8Z"/>
      <path class="cls-22" d="M694.39,336.78c-.36,2.98-3.32,5.59-6.64,5.37-2.75-.18-5.14-2.25-5.81-5.09-19.73-11.48-39.47-22.95-59.2-34.42l-.02-.02c-1.25-.49-2.44-1.26-3.43-2.3-.26-.27-.5-.55-.71-.84-2.6-2.68-3.49-6.75-1.93-10.4.34-.79.77-1.52,1.31-2.17,0,0,.14-.18.21-.27,15.55-18.89,31.11-37.75,46.68-56.62.22-.24.42-.5.61-.74.05-.04.07-.09.11-.13,3.64-3.95,9.51-5.38,14.71-3.16,6.64,2.84,9.69,10.5,6.87,17.12-.7,1.61-1.68,3.02-2.86,4.19h-.02s-.02.04-.07.08c-14.78,14.82-29.57,29.67-44.38,44.51,6.77,4.97,13.63,10.14,20.56,15.51,9.53,7.38,18.66,14.72,27.4,21.97.8.11,2.27.43,3.67,1.51.43.33,3.34,2.63,2.94,5.9Z"/>
    </g>
    <g id="Hose-3" data-name="Hose">
      <path class="cls-3" d="M703.9,307.35v66.55c-.81,3.22-1.6,6.46-2.4,9.72-5.82,23.94-11.32,49.09-16.33,75.37-.14.73-.28,1.46-.41,2.2h-47.89c.06-.72.13-1.46.19-2.2.14-1.45.28-2.95.42-4.47.49-5.45,1.04-11.34,1.63-17.64.02-.25.05-.5.07-.74,2.16-22.76,3.73-38.12,5.48-49.86,1.97-13.29,4.16-21.97,7.65-31.56,1.75-4.8,3.64-9.32,5.61-13.56,2.43-5.24,4.97-10.05,7.5-14.41.79-1.36,1.58-2.67,2.37-3.95,2.13-3.46,4.23-6.6,6.22-9.42.93-1.31,1.83-2.55,2.7-3.71.58-.79,1.16-1.54,1.71-2.26h.74c3.64-.01,7.28-.02,10.93-.03,4.55,0,9.1,0,13.66-.03h.15Z"/>
      <path class="cls-16" d="M764.61,461.19h-51.04c-.05-.74-.11-1.47-.17-2.2-2.16-26.24-4.94-51.42-8.18-75.5-.43-3.22-.87-6.41-1.32-9.59v-66.55c6.77,0,13.56-.02,20.36-.02h.63c.57.68,1.12,1.35,1.66,2.02,9.49,11.62,16.41,22.71,21.49,32.84,6.73,13.42,10.25,25.14,12.24,34.12.42,1.88.78,3.82,1.11,5.86,2.28,14.27,2.55,33.15,3.08,66.69.06,3.51.1,6.9.12,10.13.01.74.02,1.47.02,2.2Z"/>
    </g>
    <g id="Kopf-3" data-name="Kopf">
      <path class="cls-22" d="M734.96,179.8l-2.9,9.73c-2.25,7.52-7.43,13.4-13.92,16.76.15.68.23,1.39.23,2.12v21.16c0,5.46-4.47,9.93-9.93,9.93s-9.94-4.47-9.94-9.93v-21.01c-.37-.08-.73-.18-1.09-.29-12.29-3.66-19.34-16.7-15.68-28.98l4.21-14.1c3.29-11.07,13.53-18.27,24.55-18.27,2.4,0,4.85.34,7.26,1.06,13.49,4.02,21.23,18.33,17.21,31.82Z"/>
    </g>
    <g id="Oberteil-3" data-name="Oberteil">
      <path class="cls-17" d="M703.75,233.04v80.07c-.7.03-1.4.06-2.11.06-12.14.08-21.96-2.41-28.32-4.58-.14-9-.43-18.34-.95-27.97-.27-5.19-.51-8.92-.65-10.85-.11-1.63-.22-3.41-.33-5.37l-9.12,10.72-24.24-20.64,21.72-25.51c3.38-3.98,8.45-5.72,13.3-5.07,5.18.04,10.37.08,15.55.13,1.22,1.38,6.39,6.98,15.15,9.01Z"/>
      <path class="cls-4" d="M703.76,233.04v80.08c10.98-.33,19.86-2.68,25.78-4.73.25-1.12.5-2.25.75-3.38.4-1.83.68-3.18.73-3.43.38-1.83,1.82-8.37,5.95-26.81,3.3-2.31,8.88-6.88,13.3-14.47,4.86-8.34,5.9-16.18,6.15-20.29-4.15-3.35-10.54-7.59-19.15-10.2-3.45-1.04-6.66-1.65-9.51-1.99-1.62,1.24-9.39,6.93-20.48,5.82-1.24-.14-2.41-.32-3.52-.6Z"/>
    </g>
    <g id="Haare-3" data-name="Haare">
      <path class="cls-9" d="M732.29,229.57c.63.41,4.67,3.11,5.48,8.43.87,5.65-2.61,9.61-3.08,10.12-.58-3.42-1.84-5.62-2.94-7.03-1.98-2.54-4.04-3.28-4.77-5.79-.55-1.87-.06-3.68.46-4.95,1.62-.26,3.24-.53,4.86-.79Z"/>
      <rect class="cls-6" x="725.08" y="228.71" width="9.01" height="1.96" rx=".98" ry=".98" transform="translate(-32.63 165.77) rotate(-12.68)"/>
      <path class="cls-9" d="M685.57,229.53c-.65.38-4.79,2.91-5.84,8.19-1.11,5.61,2.2,9.72,2.64,10.24.72-3.39,2.08-5.54,3.24-6.9,2.09-2.46,4.17-3.1,5.02-5.58.63-1.85.22-3.68-.25-4.96-1.61-.33-3.21-.67-4.82-1Z"/>
      <rect class="cls-6" x="683.76" y="228.79" width="9.01" height="1.96" rx=".98" ry=".98" transform="translate(1292.76 631.12) rotate(-164.88)"/>
      <path class="cls-9" d="M732.64,206.88c-.41.34-.85.67-1.33.98.31.16,2.26,1.23,2.85,3.6.67,2.69-.99,4.74-1.16,4.95.23.15,1.75,1.18,1.99,3.13.2,1.6-.54,3.21-1.91,4.19,1.36-.16,2.52.87,2.56,2.07.03,1.02-.78,2.01-1.92,2.2-1.07.74-2.98,1.79-5.4,1.74-.93,0-3.45-.06-4.04-1.54-.36-.9.17-1.91.43-2.33-.18-.04-2.11-.48-2.92-2.38-.88-2.07.4-3.9.47-4-.69-.34-2-1.13-2.94-2.67-1.81-2.97-.67-6.19-.5-6.64-.35-.51-.73-1.17-1.04-1.97-5.52,2.39-11.4,2.14-16.25,1.21-.28.53-.58.98-.85,1.34.15.47,1.15,3.72-.79,6.61-1,1.5-2.35,2.24-3.05,2.56.06.09,1.27,1.98.3,4.01-.89,1.86-2.84,2.22-3.01,2.25.24.43.72,1.46.32,2.35-.65,1.45-3.17,1.39-4.1,1.37-2.42-.06-4.28-1.19-5.32-1.98-1.13-.24-1.9-1.25-1.82-2.28.09-1.19,1.29-2.17,2.64-1.96-1.33-1.03-2-2.67-1.73-4.27.33-1.93,1.89-2.89,2.13-3.03-.17-.22-1.74-2.34-.96-5,.69-2.34,2.69-3.32,3.01-3.47-2.53-1.8-3.95-4-4.46-5.84-.27-.25-.53-.51-.79-.79-3.08-3.28-4.26-6.92-5.4-10.46-.12-.35-1.91-5.99-1.97-11.63-.15-14.06,10.41-32.89,24.52-35.64,3.18-.62,6.33-.33,12.61.31,7.19.72,10.94,1.06,14.73,2.88,11.38,5.45,14.47,19.73,14.82,21.46,1.77,8.84-.67,17.78-1.49,20.85-1.06,3.99-2.02,5.74-2.39,9.57-.6,6.33,1.09,11.71,2.66,15.35-4.08-2.39-6.74-4.9-8.5-7.1Z"/>
    </g>
  </g>
</svg>