<?xml version="1.0" encoding="UTF-8"?>
<svg id="G-0148_BUW_Gruppe_Love_Repositorium_Mann" xmlns="http://www.w3.org/2000/svg" viewBox="0 0 345.28 510.78">
  <defs>
    <style>
      .cls-1 {
        fill: #dec1a8;
      }

      .cls-1, .cls-2, .cls-3, .cls-4, .cls-5, .cls-6, .cls-7, .cls-8, .cls-9, .cls-10, .cls-11, .cls-12, .cls-13, .cls-14 {
        stroke-width: 0px;
      }

      .cls-15 {
        fill: none;
        stroke: #000;
        stroke-linecap: round;
        stroke-miterlimit: 10;
        stroke-width: .25px;
      }

      .cls-2 {
        fill: #dddddc;
      }

      .cls-3 {
        fill: #64abd6;
      }

      .cls-4 {
        fill: #e6710a;
      }

      .cls-5 {
        fill: #000;
      }

      .cls-6 {
        fill: #fcd9bd;
      }

      .cls-7 {
        fill: #236289;
      }

      .cls-8 {
        fill: #b9ddf3;
      }

      .cls-9 {
        fill: #e4c769;
      }

      .cls-10 {
        fill: #ec9447;
      }

      .cls-11 {
        fill: #603813;
      }

      .cls-12 {
        fill: #ccc;
      }

      .cls-13 {
        fill: #fff;
      }

      .cls-14 {
        fill: #f2b885;
      }
    </style>
  </defs>
  <g id="Körper">
    <g id="Körper-2" data-name="Körper">
      <path class="cls-6" d="M315.66,501.58c-.13,4.23-10.17,7.79-18.41,7.19-3.32-.24-10.84-.78-13.43-6.42-1.41-3.08-.75-6.34.09-8.61.76-2.03.84-4.25.13-6.31-5.03-14.64-9.83-31.11-13.79-49.27-5.79-26.49-8.5-50.67-9.57-71.48h.03c-.67-1.83-.98-3.79-.89-5.83-.25-.65-.46-1.32-.62-2.01-5.67-9.69-11.41-20.66-16.7-32.94-11.25-26.18-17.28-50.51-20.49-70.54-1.1.28-2.13.52-3.09.72-1.7,19.51-5.66,42.89-14.08,68.27-4.22,12.69-8.99,24.11-13.81,34.25-.12.84-.32,1.66-.57,2.45.1,1.65-.07,3.27-.48,4.81h.03c.79,20.8.24,45.13-3.2,72.04-2.37,18.5-5.74,35.37-9.5,50.41-.38,1.54-.24,3.14.37,4.6.51,1.25.88,2.85.53,4.55-1.21,5.69-9.5,7.19-10.39,7.35-9.05,1.63-18.32-4.62-17.94-7.77.12-.99,1.15-1.26,3.23-4.28.38-.55.71-1.08,1-1.56.67-1.11,1-2.39.97-3.69-.39-15.27-.44-31.14-.07-47.56.61-26.8,2.27-52.14,4.64-75.87-.33-2.35-.1-4.66.58-6.8-.07-.91-.04-1.81.06-2.67h-.03c-1.28-17.32-1.9-36.42-1.3-57.05.68-24.35,2.91-46.57,5.89-66.26.02,0,.02.03.05.03,0-.03-.01-.08.02-.1,3.54-16.98,6.56-36,8.39-56.8,2.58-29.29,2.26-55.74.61-78.48,10.51-2.79,24.87-5.5,42.03-5.53,17.42-.02,31.98,2.72,42.59,5.53-1.33,19.94-1.34,44.38,2.24,71.96,3.1,23.83,8.17,44.6,13.51,61.78.03.03.03.08.03.1.03,0,.03-.02.05-.02,4.65,19.36,8.78,41.3,11.55,65.51,2.36,20.49,3.38,39.58,3.58,56.95h-.02c.24,1.17.34,2.42.27,3.69.76,1.95,1.13,4.09,1.02,6.3,4.51,23.34,8.41,48.43,11.33,75.16.6,5.49,1.79,13.63,2.32,24.51.45,9.06.39,17.03.15,23.5-.17,4.46,2.28,8.55,6.17,10.73,2.64,1.48,4.99,3.38,4.92,5.46Z"/>
      <path class="cls-6" d="M178.09,122.67c-7.68,4.28-13.99,4.62-38.25,6.98-.25.02-.62.06-1.09.1-21.56,1.99-36.84,1.61-42.82.75-.62-.09-3.08-.46-6.42-.64,0,0-2.31-.12-4.68-.1-21.33.27-42.66-.86-63.98-.43-2.98.06-8.15.23-10.05-2.81-1.89-3.04-.09-8.58,2.72-10.19.81-.47,2.47-.87,4.13-1,.68-.06,1.25-.05,1.66-.03,35.07-5.03,52.75-6.53,62.22-6.73,1.57-.03,4.44-.06,8.43-.47,10.23-1.06,15.03-3.34,26.62-5.82,2.89-.62,7.36-1.5,12.97-2.28,27.24-4.29,29.1-4.75,37.94-4.2,4.94.3,15.41,3.19,17.32,9.99,2.05,7.32-3.48,15.08-6.72,16.88Z"/>
    </g>
    <g id="Schuhe">
      <path class="cls-11" d="M328.11,499.52c-7.67-2.2-13.58-4.99-19.61-6.66-.35.14-.74.28-1.17.44-2.64.95-6.49,1.97-11.16,2.04-5.16.05-9.35-1.07-12.11-2.07-.38-.15-.74-.28-1.06-.41-.83,1.78-1.73,4.08-2.39,6.78-.7,3.02-.93,5.73-.93,7.82v3.32h65.6v-3.32s-.54-3.11-17.17-7.94Z"/>
      <path class="cls-11" d="M181.7,499.65c-.64-2.7-1.55-5-2.37-6.78-.44.17-.92.35-1.46.55-2.76.97-6.79,1.98-11.71,1.94-5.44-.08-9.72-1.44-12.34-2.49-.33.09-.64.18-.98.28h-.02c-5.69,1.69-11.34,4.29-18.59,6.37-16.63,4.83-17.17,7.94-17.17,7.94v3.32h65.59v-3.32c0-2.09-.23-4.8-.95-7.82Z"/>
    </g>
    <g id="Hose">
      <path class="cls-10" d="M219.6,259.72c-4.18,26.92-8.26,53.86-12.27,80.82-7.27,48.89-14.26,97.82-20.97,146.79-5.17-1.18-11.42-2.2-18.54-2.56-6.51-.32-12.33-.03-17.26.51-5.05-42.45-7.71-94.46-3.07-153.43,3.7-47.23,11.32-89,19.94-124.28,13.25,2.62,29.3,4.76,47.56,5.11,1.43.03,2.84.05,4.23.05l.37,47.01Z"/>
      <path class="cls-4" d="M313.71,482.72c-5.54-.35-11.81-.43-18.68,0-7.34.46-13.95,1.42-19.69,2.55-11.17-46.95-22.59-93.84-34.26-140.65-7.07-28.32-14.24-56.62-21.49-84.9l-.37-47.01c18.46.05,34.64-1.79,47.94-4.14,11.39,31.95,22.3,68.92,30.68,110.47,12.54,62.05,16.13,117.75,15.86,163.68Z"/>
    </g>
    <g id="Oberteile">
      <path class="cls-14" d="M219.16,245.42c-.83,0-1.67-.01-2.5-.02-23.5-.31-43.45-3.84-58.68-7.68,1.49-12.94,3.76-30.11,7.28-50.25,3.67-20.99,5.81-28.73,7.29-42.96,1.59-15.3,1.81-32.24-.26-50.75,2.08-1.06,5.26-2.38,9.33-3,4.04-.62,7.44-.33,9.74.05,1.13,1.3,8.96,10.01,21.86,9.98.51,0,1-.01,1.5-.05l4.45,144.69Z"/>
      <path class="cls-10" d="M280.34,238.11c-15.63,3.83-36.5,7.37-61.18,7.31l-4.45-144.69c12.77-.72,20.21-9.9,21.13-11.09,3.09-.54,7.47-.97,12.65-.38,5.01.57,9.06,1.89,11.89,3.07,1.42,3.68,2.76,7.84,3.81,12.47,2.71,11.84,2.59,22.31,1.77,30.15,2.41,16.22,4.77,32.58,7.08,49.06,2.54,18.17,4.97,36.2,7.29,54.09Z"/>
    </g>
  </g>
  <g id="Repositorium">
    <g id="Repositorium-2" data-name="Repositorium">
      <path class="cls-7" d="M31.13,112.67l-.58,2.54-.57,2.52c-3.05-1.48-4.7-2.7-4.7-3.58,0-.04,0-.09.01-.13h.01c.21-.9,2.25-1.33,5.83-1.35Z"/>
      <path class="cls-7" d="M189.37,151.25v.02c-.23.88-2.27,1.3-5.82,1.32l.56-2.51.58-2.55c3.22,1.56,4.88,2.83,4.68,3.72Z"/>
      <path class="cls-7" d="M16.33,177.86l-.58,2.54-.57,2.52c-3.2-1.55-4.86-2.82-4.68-3.71v-.02c.21-.88,2.25-1.31,5.83-1.33Z"/>
      <path class="cls-7" d="M174.58,216.44v.02c-.24.87-2.28,1.3-5.83,1.32l.57-2.51.58-2.55c3.21,1.55,4.88,2.83,4.68,3.72Z"/>
      <path class="cls-3" d="M187.86,133.56l-3.17,13.97-.58,2.55-.56,2.51c-12.3.06-42.71-4.83-77.84-12.8-35.12-7.97-64.64-16.69-75.73-22.06l.57-2.52.58-2.54,3.17-13.98c11.09,5.37,40.62,14.1,75.73,22.07,35.11,7.97,65.5,12.84,77.83,12.8Z"/>
      <path class="cls-3" d="M173.07,198.74l-3.17,13.98-.58,2.55-.57,2.51c-12.31.05-42.71-4.83-77.84-12.8-35.12-7.97-64.65-16.7-75.73-22.06l.57-2.52.58-2.54,3.17-13.98c11.09,5.36,40.62,14.1,75.73,22.06,35.12,7.98,65.52,12.85,77.84,12.8Z"/>
      <path class="cls-8" d="M174.58,216.46l-10.48,46.13c-.9,3.96-40.67,2.16-85.98-8.12C32.81,244.18-.88,229.3.02,225.34l10.47-46.13h.01c-.18.89,1.48,2.16,4.68,3.71,11.08,5.36,40.61,14.09,75.73,22.06,35.13,7.97,65.53,12.85,77.84,12.8,3.55-.02,5.59-.45,5.82-1.32h.01Z"/>
      <path class="cls-8" d="M204.17,86.09l-10.47,46.13c-.21.89-2.26,1.33-5.84,1.34-12.33.04-42.72-4.83-77.83-12.8-35.11-7.97-64.64-16.7-75.73-22.07-3.22-1.55-4.88-2.83-4.68-3.72l10.47-46.13c-.78,3.97,35.18,15.5,80.42,25.77,45.19,10.26,82.58,15.39,83.66,11.48Z"/>
      <path class="cls-8" d="M189.37,151.27l-10.47,46.13c-.21.89-2.25,1.32-5.83,1.34-12.32.05-42.72-4.82-77.84-12.8-35.11-7.96-64.64-16.7-75.73-22.06-3.22-1.56-4.88-2.83-4.68-3.72l10.47-46.14s-.01.09-.01.13c0,.88,1.65,2.1,4.7,3.58,11.09,5.37,40.61,14.09,75.73,22.06,35.13,7.97,65.54,12.86,77.84,12.8,3.55-.02,5.59-.44,5.82-1.32Z"/>
      <path class="cls-7" d="M204.17,86.07v.02c-1.08,3.91-38.47-1.22-83.66-11.48-45.24-10.27-81.2-21.8-80.42-25.77v-.02c.9-3.96,37.97,3.22,83.28,13.5,45.31,10.29,81.7,19.79,80.8,23.75Z"/>
    </g>
    <g id="Krone">
      <polygon class="cls-9" points="108.59 11.31 111.3 70.04 31.28 73.73 28.58 15 49.55 35.07 68.58 13.15 89.56 33.22 108.59 11.31"/>
      <circle class="cls-2" cx="50.37" cy="52.77" r="3.3"/>
      <circle class="cls-2" cx="90.34" cy="50.93" r="3.3"/>
      <circle class="cls-2" cx="70.37" cy="51.85" r="3.3"/>
    </g>
  </g>
  <g id="Arme">
    <path class="cls-6" d="M269.06,115.79c-.07.11-.32.54-.81,1.26-2.66,3.91-5.57,6.41-7.7,7.95-4.84,3.26-11.74,6.64-22.47,13.96-4.19,2.85-5.32,3.83-7.78,5.62-2.28,1.65-3.93,2.73-4.77,3.29-2.23,1.49-6.36,4.45-14.68,10.97-3.61,3.28-8.27,3.08-9.51,2.99-21.25-2.51-42.5-4.99-63.75-7.49-.36.02-.86.04-1.46,0-1.46.23-3.12.42-4.96.55-3.96.27-7.57.52-11.77-.43-4.92-1.11-12.75-4.32-13.05-8.8-.01-.22-.08-1.56.76-2.72,1.48-2.03,4.72-1.99,9.22-1.87,2.1.06,4.95.26,8.31.91-.55-.22-1.39-.58-2.38-1.08-2.4-1.22-4-2.05-4.19-3.4-.03-.16-.12-.96.37-1.58.4-.51,1.47-1.23,10.66.96,2.26.53,3.56.85,5.38,1.45,1.82.61,3.41,1.26,4.75,1.87,19.85-.39,39.7-.77,59.55-1.16,15.93-16.99,32.63-32.25,50.41-45.07,0,.02.03.02.03.04.73-.57,1.87-1.33,3.4-1.84,3.43-1.14,6.44-.23,7.77.17.56.17,8.62,2.81,10.82,10.64,1.74,6.18-1.4,11.52-2.15,12.81Z"/>
    <path class="cls-10" d="M250.64,93.11c1.43-.88,3.69-1.95,6.49-2.03,7.24-.2,14.91,7.48,16.58,15.56,1.67,8.06-3.04,14.69-7.76,21.34-3.49,4.91-10.71,13.47-23.94,19.95-8.25-9.86-16.51-19.71-24.76-29.57,5.72-5.33,12.38-10.92,20.05-16.43,4.58-3.29,9.05-6.22,13.35-8.82Z"/>
    <path class="cls-6" d="M24.75,116.49c-1.88-.28-4.41-.61-7.44-.85-1.88,3.99-3.76,7.98-5.64,11.97,1.53,1.33,3.71,3.09,6.51,4.91,3.3,2.15,6.31,4.11,10.42,5.32,4.81,1.4,13.19,2.36,15.67-1.43.12-.19.85-1.33.69-2.76-.28-2.51-3.1-4.04-7.07-6.11-1.85-.96-4.42-2.16-7.65-3.22,1.67.15,3.1.21,4.21.24,3.13.08,4.06-.12,4.62-.81.07-.09.54-.67.46-1.4-.14-1.35-2.04-2.18-3.68-2.82-5.65-2.2-10.62-2.98-11.11-3.05Z"/>
  </g>
  <g id="Gesicht">
    <g id="Haare">
      <path class="cls-12" d="M188.63,19.87c-.39.23-3.39,2.04-3.91,5.68-.41,2.92.93,5.88,3.46,7.63-.48.27-5.34,3.1-5.9,8.67-.48,4.74,2.36,9.46,7.09,11.59-.21.57-.98,2.9.15,5.18,1.31,2.63,4.64,4.11,8.14,3.4.6,1.14,2.34,4.07,5.92,5.77,5.82,2.77,11.46-.09,12.13-.44.4.19,7.99,3.61,14.2-.74,2.98-2.09,4.24-4.98,4.73-6.36,1.04-.15,4.11-.71,6.78-3.31,2.9-2.82,3.45-6.19,3.57-7.2.22-.24,4.74-5.29,2.86-11.33-1.09-3.5-3.72-5.38-4.64-5.98.5-1.28,1.98-5.52.42-10.55-1.24-3.98-3.73-6.38-4.86-7.34-.41-1.15-1.55-3.86-4.35-6.08-2.66-2.1-5.39-2.63-6.6-2.8-5.72-.84-11.44-1.68-17.16-2.51-3.7,1.73-7.4,3.45-11.09,5.18-1.23.14-3.84.61-6.31,2.57-4.09,3.26-4.56,8.06-4.64,8.96Z"/>
    </g>
    <g id="Kopf">
      <path class="cls-6" d="M248,44.36v2.06c0,3.01-2.47,5.48-5.48,5.48-1.02,0-1.97-.28-2.79-.78-1.63,8.04-7.16,14.7-14.51,17.91.01.09.01.19.01.28v20.6c0,5.32-4.35,9.67-9.67,9.67s-9.68-4.35-9.68-9.67v-20.69c-7.48-3.09-13.15-9.72-14.89-17.78-.68.3-1.42.46-2.19.46-3.02,0-5.48-2.47-5.48-5.48v-2.06c0-3.02,2.46-5.48,5.48-5.48.56,0,1.11.09,1.62.25v-5.05c0-13.69,11.21-24.9,24.91-24.9,6.85,0,13.07,2.8,17.58,7.32,4.52,4.51,7.32,10.74,7.32,17.58v5.31c.7-.33,1.47-.51,2.29-.51,1.5,0,2.88.62,3.87,1.61.99.99,1.61,2.36,1.61,3.87Z"/>
    </g>
    <g id="Schatten">
      <path class="cls-1" d="M225.18,69.11c-1.49.66-3.52,1.38-6.01,1.77-2.9.46-5.38.32-7.14.07,4.4,3.28,8.81,6.56,13.21,9.84,0-1.08,0-2.03,0-2.79,0-.62,0-.68,0-3.49,0-1.96,0-2.16,0-2.59-.01-1.19-.04-2.16-.07-2.8Z"/>
      <path class="cls-1" d="M243.31,42.88c.39,0,.94,1.56.51,2.99-.3,1.02-1.13,2.04-1.46,1.91-.64-.26.27-4.9.94-4.89Z"/>
      <path class="cls-1" d="M187.66,42.88c-.39,0-.94,1.56-.51,2.99.3,1.02,1.13,2.04,1.46,1.91.64-.26-.27-4.9-.94-4.89Z"/>
    </g>
    <g id="Augenbrauen">
      <path class="cls-12" d="M200.79,30.95c.76,0,2.12-.09,3.63-.81,1.88-.89,2.93-2.26,3.37-2.91,1.33-.03,1.8.28,1.96.6.56,1.1-1.74,3.84-4.51,4.98-1.87.77-4.53,1.06-5.04.09-.26-.5.09-1.25.6-1.96Z"/>
      <path class="cls-12" d="M222.39,27.24c.42.63,1.27,1.71,2.7,2.55,1.79,1.06,3.51,1.17,4.3,1.16.76,1.09.77,1.65.6,1.96-.6,1.08-4.15.71-6.65-.95-1.69-1.12-3.41-3.16-2.89-4.13.27-.5,1.09-.62,1.96-.6Z"/>
    </g>
    <g id="Augen">
      <rect class="cls-5" x="203.37" y="34.33" width="3.98" height="4.67" rx="1.99" ry="1.99"/>
      <rect class="cls-5" x="222.9" y="34.33" width="3.98" height="4.67" rx="1.99" ry="1.99"/>
    </g>
    <g id="Nase">
      <path class="cls-15" d="M215.04,42.13c0,.88.03,1.46.03,2.33.03.33.07,1.02.2,1.44.37,1.15,1.17,1.81,1.61,2.22,1.15,1.05,1.19,1.9.91,2.58-.38.89-2.14,1.46-3.94.46"/>
    </g>
    <g id="Mund">
      <path class="cls-13" d="M222.37,55.3c-.34,3.23-2.82,5.83-5.99,6.32-3.07.47-6.13-1.15-7.48-3.99,1.82.16,4.29.19,7.15-.33,2.61-.48,4.75-1.27,6.32-2Z"/>
    </g>
    <g id="Brille">
      <path class="cls-7" d="M240.27,32.21h-19.86c-1.91,0-3.47,1.55-3.47,3.46v1.18h-3.76s0-1.18,0-1.18c0-1.91-1.55-3.46-3.46-3.46h-19.86c-1.91,0-3.47,1.55-3.47,3.46v5.49c0,1.91,1.56,3.46,3.47,3.46h19.86c1.91,0,3.46-1.55,3.46-3.46v-3.3h3.76s0,3.3,0,3.3c0,1.91,1.56,3.46,3.47,3.46h19.86c1.91,0,3.46-1.55,3.46-3.46v-5.49c0-1.91-1.55-3.46-3.46-3.46ZM212.18,41.16c0,1.36-1.1,2.46-2.46,2.46h-19.86c-1.36,0-2.47-1.1-2.47-2.46v-5.49c0-1.36,1.11-2.46,2.47-2.46h19.86c1.36,0,2.46,1.1,2.46,2.46v5.49ZM242.73,41.16c0,1.36-1.1,2.46-2.46,2.46h-19.86c-1.36,0-2.47-1.1-2.47-2.46v-5.49c0-1.36,1.11-2.46,2.47-2.46h19.86c1.36,0,2.46,1.1,2.46,2.46v5.49Z"/>
    </g>
    <g id="Haare-2" data-name="Haare">
      <path class="cls-12" d="M188.83,24.85c2.33,2.27,5.53,2.1,6.16,2.05,1.07,1.17,2.12,1.81,2.82,2.17,3.8,1.91,8.35.93,11.32-1.11.99-.68,1.69-1.4,2.11-1.89,1.35.46,3.85,1.09,6.75.38.72-.17,5.95-1.44,7.1-5.55.34-1.2.23-2.29.07-3.03.67.31,2.99,1.28,5.6.43,3.07-1,5.7-4.23,5.2-7.94-.41-3.05-2.82-5.57-5.99-6.21-.4-.58-2.27-3.14-5.87-3.93-3.56-.78-6.31.73-6.93,1.09-1.02-.4-4.34-1.58-8.38-.42-3.86,1.11-6.02,3.68-6.71,4.56-.35-.14-2.79-1.11-5.38.21-2.59,1.32-3.25,3.86-3.34,4.23-.72.28-4.33,1.75-5.87,5.64-.11.29-2.21,5.87,1.33,9.32Z"/>
    </g>
  </g>
</svg>