<?xml version="1.0" encoding="UTF-8"?>
<svg id="G-0156_BUW_Durchblick_nachdenklich" xmlns="http://www.w3.org/2000/svg" viewBox="0 0 509.83 534.73">
  <defs>
    <style>
      .cls-1 {
        fill: #42210b;
      }

      .cls-1, .cls-2, .cls-3, .cls-4, .cls-5, .cls-6, .cls-7, .cls-8, .cls-9, .cls-10 {
        stroke-width: 0px;
      }

      .cls-2 {
        fill: #a5678d;
      }

      .cls-3 {
        fill: #dddddc;
      }

      .cls-4 {
        fill: #e0bf70;
      }

      .cls-11 {
        fill: none;
        stroke: #000;
        stroke-linecap: round;
        stroke-miterlimit: 10;
      }

      .cls-5 {
        fill: #000;
      }

      .cls-6 {
        fill: #b47d49;
      }

      .cls-7 {
        fill: #98c7e4;
      }

      .cls-8 {
        fill: #ccc;
      }

      .cls-9 {
        fill: #cbe3f1;
      }

      .cls-10 {
        fill: #e1ccd9;
      }
    </style>
  </defs>
  <g id="Körper">
    <g id="Oberkörper">
      <path class="cls-4" d="M497.07,272.31c-2.2,10.2-10.78,18.16-21.5,19.75-29.14,1.4-60.07,1.97-92.59,1.4-15.37-.26-30.37-.79-44.98-1.51-.37,42.09,1.49,88.34,6.92,137.96,2.33,21.21,5.16,41.66,8.35,61.27,1.82,11.23,3.76,22.16,5.81,32.86H115.35c1.28-9.83,2.49-19.86,3.56-30.03,1.7-15.47,3.16-31.33,4.39-47.56,2.58-34.22,3.87-67.08,4.13-98.44-4.2,9.56-9.33,20.92-15.58,34.85-3.11,6.93-22.38,50.06-53.19,97.72-5.68,8.77-13.64,21-26.14,21.91-18.09,1.31-31.03-13.55-32.34-23.2-.57-4.23.35-8.48.35-8.48,0,0,.21-1.04.47-2.06,12.39-46.73,32.7-100.45,32.7-100.45,18.27-48.31,23.76-63.46,30.35-75.66,2.21-4.1,4.3-8.28,7.99-13.13,15.5-20.43,38.12-28.45,52.82-31.94,13.41-3.56,29.26-7.07,47.28-9.68,7.47-1.08,15.29-2,23.46-2.71,17.1-1.47,21.5-.84,35.72-1.63,14.86-.83,31.95-3.43,66.15-8.64,7.28-1.11,13.29-2.06,17.34-2.71.03-.04-.04-.12.01-.12,38.15,2.11,58.44,6.08,77.66,7.77,33.2,2.94,51.29,5.94,90.1,13.91,10.98,5.19,16.94,17.16,14.49,28.53Z"/>
    </g>
    <g id="Oberteil">
      <path class="cls-9" d="M236.78,529.22c-26.65,1.28-55.74,1.41-86.9-.34-19.03-1.07-37.16-2.74-54.3-4.83,1.01-6.53,2.67-16.93,4.8-29.82.8-4.86,1.66-9.78,2.52-14.76,9.28-53.19,14.73-72.77,18.48-108.84,4.03-38.74,4.58-81.69-.68-128.57,5.26-2.71,13.31-6.03,23.64-7.62,10.21-1.57,18.85-.83,24.66.12.52.58,1.57,1.78,3.14,3.35,4.09,4.03,11.71,10.58,22.44,15.43,8.18,3.75,18.2,6.52,29.82,6.49,1.26,0,2.52-.03,3.78-.12l7.16,232.89c.48,12.21.96,24.41,1.44,36.62Z"/>
      <path class="cls-7" d="M385.99,524.05c-24.6,2.69-51.12,4.67-79.35,5.51-24.61.73-47.95.53-69.86-.34-.3-6.38-.59-12.77-.89-19.16l-.55-17.46-.25-7.87-.49-16.39-.43-14.17-6-194.46c9.62-.55,18.05-2.98,25.18-6.21,4.03-1.81,7.66-3.9,10.85-6.03,6.09-4.03,10.67-8.27,13.65-11.37,2.06-2.18,3.35-3.81,3.87-4.46,4.3-.77,9.59-1.45,15.71-1.63,4.95-.15,10.45-.03,16.36.65,4.43.49,8.55,1.23,12.36,2.12,1.78.4,3.5.83,5.13,1.29,4.7,1.32,8.76,2.77,12.21,4.18.15.06.28.12.43.18-1.35,17.77-2.28,41.97-.49,70.68.34,5.38.77,10.88,1.32,16.57.25,2.83.52,5.72.86,8.61.61,5.5,1.35,11.16,2.18,16.91,6.92,47.07,17.06,69.85,28.19,119.54,3.29,14.7,6.83,32.56,9.99,53.31Z"/>
    </g>
    <g id="Jacke">
      <path class="cls-8" d="M427.99,223.9c.73,29.68,1.46,59.36,2.19,89.04-29.61-1.42-52.41-4.05-64.57-6.01-13.06-2.11-24.71-4.78-24.71-4.78-4.28-.98-7.83-1.88-10.3-2.53-24.03-5.02-40.94-19.91-42.49-36.54-1.91-20.57,20.36-36.42,22.89-38.17,0,0,2.68-1.84,5.6-3.31,23.5-11.89,98.05.1,111.38,2.31Z"/>
      <path class="cls-8" d="M106.91,414.56c-31.53-15-63.06-30-94.59-45,12.66-24.79,24.24-44.98,33.06-59.7,22.01-36.74,30.16-44.97,38.68-51.24,3.41-2.51,38.71-27.63,58.66-15.27,19.77,12.25,13.68,52.33,11.88,64.16-.29,1.93-.65,3.97-1.15,6.21-5.99,26.97-17.09,41.27-29.35,63.73-4.59,8.41-10.92,20.94-17.19,37.11Z"/>
      <path class="cls-3" d="M195.96,228.41l-.37,6.79-1.01,18.14-13.44,239.93c-.54,13.8-1.07,27.6-1.61,41.39-16.66.26-35.3-.33-55.55-2.39-19.12-1.94-36.57-4.89-52.11-8.23,3.34-14.91,6.88-30.05,10.63-45.41,3.62-14.82,7.32-29.32,11.07-43.47,9.75-24.5,20.26-58.02,25.33-98.78,4.67-37.63,3.26-70.22.4-95.22,37.54-16.36,61.49-16.2,76.65-12.76Z"/>
      <path class="cls-8" d="M209.02,270.59c-7.24,36.84-14.47,73.7-21.71,110.55-9.57-32.85-19.17-65.69-28.74-98.54l18.59-32.85-25.71-21.93,42.31-10.87c2.29-.59,4.71-1.17,7.25-1.73v24.37c-.68.06-1.35.11-2.03.15.33,1.22.66,2.43,1.01,3.66.33,1.19.68,2.38,1.02,3.54,1.67,5.68,3.44,11.07,5.25,16.17.91,2.57,1.84,5.05,2.76,7.47Z"/>
      <path class="cls-3" d="M400.54,524.05c-15.93,3.25-33.79,6.08-53.33,7.89-19.93,1.85-38.34,2.34-54.87,2.04-1.35-14-2.7-28-4.05-42.01l-10.95-111.11-13.13-133.4-1.26-12.73-1.29-13.07c7.47-2.06,14.42-3.5,20.66-4.49,10.76-1.72,19.28-2.15,24.35-2.37,9.9-.49,23.34-.37,39.26,1.91,0,.09-.03.21-.03.31-.37,2.55-.71,5.16-1.01,7.87-.52,4.27-.98,8.73-1.38,13.34-1.81,20.48-2.49,44.33-.52,70.84.37,4.8.8,9.68,1.35,14.67.06.65.15,1.32.22,1.97.34,2.89.71,5.75,1.08,8.58,5.63,42.03,16.51,76.68,26.59,102.13,9.68,27.95,19.15,57.16,28.32,87.62Z"/>
      <path class="cls-8" d="M280.24,245.14l19.07,32.57c-7.35,34.49-14.68,69-22.03,103.5-9.53-38.25-19.06-76.51-28.6-114.76,2.96-7.51,5.84-15.95,8.4-25.24.57-2.08,1.1-4.14,1.6-6.17-2.28.18-4.57.36-6.85.54v-24.08c4.05.26,7.83.65,11.32,1.11l42.46,10.23-25.38,22.32Z"/>
    </g>
    <g id="Arme">
      <path class="cls-4" d="M247.1,512.46c-14.97,2.84-27.22,1.31-31.82.29-5.8-1.3-10.78-3.19-14.87-5.15h-.08c-1.73-.11-3.16-.35-4.16-.55-54.2-.86-108.4-1.78-162.6-2.65-3.15-.18-14.91-1.26-22.89-10.7-1.01-1.22-3.19-3.83-4.6-7.76-4.64-12.99,2.38-31.29,16.2-37.49,6.6-2.97,12.88-2.26,15.05-1.99,53.44,6.75,106.27,17.87,159.7,24.79,9.57-3.59,17-6.63,22.36-8.89,0,0,6.96-3.18,20.64-5.14,3.51-.51,7.65-.88,9.8,1.56.64.72,1.1,1.7,1.27,3,.61,4.39-7.51,10.61-16.28,15.31-4.11,2.21,6.57,11.34,15.55,11.27,16.92-.12,28.31-12.48,33.02-4.36,5.58,9.61-14.24,24.29-36.29,28.47Z"/>
      <path class="cls-4" d="M509.58,268.34c-.21,1.56-.69,4.93-2.67,8.6-6.52,12.16-24.8,19.24-38.68,13.13-2.51-1.1-7.32-3.71-11.56-9.82-29.62-44.99-59.25-89.98-88.86-134.95-8.23-1.96-14.84-3.38-19.83-4.38,0,0-7.53-1.31-19.94-7.42-3.18-1.57-6.81-3.59-7.21-6.82-.12-.97.06-2.03.64-3.2,1.99-3.96,12.21-4.52,22.11-3.44,4.63.5.97-13.06-6.49-18.09-14.03-9.43-30.41-5.68-29.72-15.04.83-11.07,25.46-12,46.04-3.01,13.96,6.1,23.21,14.29,26.42,17.73,4.17,4.46,7.26,8.95,9.56,12.95,1.13,1.11,2.28,2.39,3.34,3.73,1.08,1.35,1.86,2.58,2.39,3.45,35.7,40.79,71.36,81.62,107.06,122.4,1.97,2.46,9.07,11.9,7.4,24.17Z"/>
    </g>
  </g>
  <g id="Gesicht">
    <g id="Kopf">
      <path class="cls-4" d="M312.55,128.02v5.4c0,7.93-6.49,14.4-14.42,14.4-2.67,0-5.16-.73-7.3-2-4.35,21.42-19.26,39.13-39.01,47.39.01.12.01.25.01.37v54.12c0,13.97-11.45,25.41-25.42,25.41-8.19,0-15.52-3.94-20.16-10-1.81-5.1-3.58-10.49-5.25-16.17v-53.36c0-.21,0-.41.01-.61-19.22-8.26-33.76-25.5-38.28-46.36-1.75.77-3.7,1.2-5.74,1.2-7.93,0-14.42-6.48-14.42-14.4v-5.4c0-7.93,6.49-14.42,14.42-14.42,1.49,0,2.93.22,4.27.65v-13.24c0-35.99,29.45-65.43,65.44-65.43,17.99,0,34.36,7.36,46.22,19.22,11.86,11.86,19.22,28.21,19.22,46.2v13.91c1.82-.84,3.85-1.31,5.99-1.31,3.96,0,7.57,1.62,10.18,4.24,2.62,2.61,4.24,6.21,4.24,10.18Z"/>
    </g>
    <g id="Schatten">
      <path class="cls-6" d="M300.24,124.05c1.02.01,2.46,4.11,1.35,7.84-.79,2.68-2.96,5.37-3.83,5.01-1.67-.68.72-12.87,2.48-12.86Z"/>
      <path class="cls-6" d="M154.2,124.05c-1.02.01-2.46,4.11-1.35,7.84.79,2.68,2.96,5.37,3.83,5.01,1.67-.68-.72-12.87-2.48-12.86Z"/>
      <path class="cls-6" d="M251.53,192.94c-3.9,1.73-9.25,3.62-15.79,4.66-7.62,1.21-14.13.83-18.75.19,11.57,8.62,23.15,17.23,34.72,25.85,0-2.85.01-5.33.01-7.34,0-1.64,0-1.78,0-9.18,0-5.16,0-5.68-.01-6.82-.04-3.13-.12-5.69-.18-7.37Z"/>
    </g>
    <g id="Augenbrauen">
      <path class="cls-1" d="M263.49,93.34c-1.21-1.58-3.61-4.27-7.5-6.24-4.89-2.48-9.41-2.46-11.47-2.32-2.19-2.72-2.3-4.19-1.9-5.03,1.4-2.94,10.77-2.56,17.61,1.36,4.61,2.65,9.48,7.71,8.29,10.33-.62,1.36-2.75,1.82-5.03,1.9Z"/>
      <path class="cls-1" d="M208.99,94.87c-1.76-.94-5.05-2.4-9.41-2.6-5.47-.25-9.59,1.63-11.41,2.6-3.11-1.58-3.82-2.87-3.8-3.8.06-3.25,8.76-6.76,16.61-6,5.29.51,11.82,3.13,11.81,6,0,1.49-1.76,2.79-3.8,3.8Z"/>
    </g>
    <g id="Nase">
      <path class="cls-11" d="M225.67,121.97c0,2.3.08,3.82.08,6.13.08.88.17,2.68.53,3.78.96,3.01,3.08,4.76,4.22,5.83,3.01,2.75,3.13,5,2.38,6.78-.99,2.35-5.62,3.83-10.36,1.2"/>
    </g>
    <g id="Augen">
      <rect class="cls-5" x="246.45" y="101.46" width="10.45" height="12.28" rx="5.23" ry="5.23"/>
      <rect class="cls-5" x="193.33" y="101.46" width="10.45" height="12.28" rx="5.23" ry="5.23"/>
    </g>
    <g id="Mund">
      <path class="cls-11" d="M244.4,163.4c-3.47.68-7.05,1.45-10.73,2.32-5.1,1.21-9.97,2.53-14.6,3.9"/>
    </g>
    <g id="Haare">
      <path class="cls-1" d="M291.9,115.9c-5.34-.07-9.87-26.1-11.07-36.92-.33-3-.41-4.9-.69-8.34-18.64,16.29-69.84,8.93-97.92-8.16-2.13,4.64-6.16,10.22-9.75,17.52-10.49,21.27-7.35,36.88-11.09,36.92-4.39.06-10.9-17.44-8.35-34.19,1.89-12.4,8.01-26.4,15.34-31.86-2.28-2.87-3.88-5.87-4.65-8.96-.23-.94-2.72-10.95,2.33-15.94,4.63-4.54,11.85-1.23,23.32-1.16,16.98.1,17.59-7.08,36.14-9.34,4.93-.59,23.05-2.4,41.21,7,6.41,3.31,16.52,8.56,20.11,19.39,1.38,4.14,1.64,8.6,1.12,12.79,5.11,6.21,10.63,15.89,12.32,27.04,2.54,16.75-3.96,34.26-8.35,34.2Z"/>
    </g>
  </g>
  <g id="Icon">
    <rect class="cls-10" x="265.03" y="0" width="113.01" height="58.28" rx="20.46" ry="20.46"/>
    <g id="Punkte">
      <circle class="cls-2" cx="349.13" cy="29.14" r="6.51"/>
      <circle class="cls-2" cx="321.54" cy="29.14" r="6.51"/>
      <circle class="cls-2" cx="293.95" cy="29.14" r="6.51"/>
    </g>
  </g>
</svg>