<?xml version="1.0" encoding="UTF-8"?>
<svg id="G-0166_BUW_Durchblick_Tabelle" xmlns="http://www.w3.org/2000/svg" viewBox="0 0 261.71 542.71">
  <defs>
    <style>
      .cls-1 {
        fill: #42210b;
      }

      .cls-1, .cls-2, .cls-3, .cls-4, .cls-5, .cls-6, .cls-7, .cls-8, .cls-9, .cls-10, .cls-11, .cls-12, .cls-13, .cls-14 {
        stroke-width: 0px;
      }

      .cls-2 {
        fill: #dddddc;
      }

      .cls-3 {
        fill: #64abd6;
      }

      .cls-4 {
        fill: #e6710a;
      }

      .cls-5 {
        fill: #e0bf70;
      }

      .cls-6 {
        fill: #000;
      }

      .cls-7 {
        fill: #b47d49;
      }

      .cls-8 {
        fill: #308fc9;
      }

      .cls-9 {
        fill: #ec9447;
      }

      .cls-10 {
        fill: #98c7e4;
      }

      .cls-11 {
        fill: #ccc;
      }

      .cls-12 {
        fill: #cbe3f1;
      }

      .cls-13 {
        fill: #fff;
      }

      .cls-14 {
        fill: #f2b885;
      }
    </style>
  </defs>
  <g id="Körper">
    <g id="Kittel:_Hinterteil" data-name="Kittel: Hinterteil">
      <path class="cls-11" d="M135.82,95.75c-8.57.68-17.15,1.36-25.72,2.04-.62-3.2-1.24-6.41-1.86-9.61,3.83-.99,8.52-1.89,13.93-2.27,5.89-.41,11.06-.1,15.24.44-.07.53-.14,1.06-.21,1.6-.38,2.7-.84,5.31-1.37,7.8Z"/>
      <path class="cls-11" d="M35.8,364.54c25.43,4.82,56.65,8.68,92.35,8.69,38.28.02,71.52-4.39,98.17-9.75-13.68-53.4-27.37-106.79-41.05-160.19l-118.14,1.42-31.33,159.83Z"/>
    </g>
    <g id="Körper-2" data-name="Körper">
      <path class="cls-5" d="M257.15,165.33c-3.53,4.02-12.09,3.18-16.86,1.77-.61-.18-1.05-.34-1.24-.4-14.83-5.32-38.34-18.3-38.34-18.3-15.71-8.67-20.97-12.64-28.15-17.88-1.4-1.02-2.63-2.11-3.72-3.26-.15,14.99.58,31.94,2.91,50.4,3.19,25.38,8.63,47.5,14.39,65.78.03.02.03.08.03.1,4.95,20.62,9.37,43.96,12.34,69.72,2.98,25.85,1.83,52,6.37,77.7,4.32,24.44,8.16,48.9,10.86,73.59.64,5.85,1.91,14.52,2.48,26.09.47,9.64.4,18.13.15,25.02-.18,4.76,2.42,9.11,6.58,11.43,2.8,1.58,5.31,3.6,5.24,5.81-.15,4.51-10.84,8.29-19.61,7.66-3.53-.26-11.54-.83-14.3-6.84-1.5-3.27-.8-6.75.1-9.16.8-2.16.88-4.53.13-6.71-5.35-15.6-10.47-33.14-14.69-52.47-3.27-14.98-5.8-30.13-7.59-45.36-1.48-12.6-.15-26.69-4.44-38.8-4.27-12.05-12.37-23.44-17.5-35.35-11.99-27.86-18.38-53.77-21.81-75.09-1.17.3-2.28.55-3.29.77-1.81,20.77-6.03,45.66-14.98,72.68-6.29,18.9-15.93,34.52-15.51,55.03.45,21.98-.91,44.06-3.7,65.85-2.52,19.71-6.1,37.67-10.1,53.68-.41,1.64-.26,3.33.39,4.88.55,1.34.94,3.03.56,4.85-1.28,6.06-10.11,7.65-11.06,7.82-9.63,1.74-19.5-4.92-19.09-8.27.13-1.05,1.21-1.34,3.43-4.56.41-.58.75-1.14,1.06-1.65.72-1.19,1.06-2.55,1.03-3.93-.41-16.25-.47-33.15-.07-50.64.59-26.22,2.58-52.37,4.56-78.51,1.84-24.24-1.26-48.7-.36-73.08,1.04-28.06,4.29-53.21,8.35-74.85h.08c2.93-17.28,5.33-36.08,6.86-56.23,1.49-19.69,1.94-38.3,1.67-55.68-6.15,6.01-12.94,11.91-18.02,16.31-10.31,7.85-25.55,18.16-41.42,23.77-3.51,1.24-9.05,3.12-13.47.45-4.43-2.68-7.14-9.53-5.46-15.03.39-1.24.93-2.21,1.36-2.87,0,0,.32-.31.66-.59,15.59-13.03,35.6-26.51,35.6-26.51,17.99-12.13,23.55-16,28.77-18.58,3.04-1.5,5.93-2.57,5.93-2.57,5.21-2.01,10.03-3.27,15.15-4.25,16.75-3.21,34.61-3.87,34.61-3.87,13.92-.52,25.61-.95,41.01,1.8,8.41,1.5,15.3,3.48,20.18,5.08,0-.03,0-.05.01-.06.5-.7,13.31,7.94,33.56,20.74,8.03,5.08,10.08,6.28,12.49,7.84,1.22.79,2.13,1.41,2.64,1.75,17.43,11.75,20.97,14.32,23.11,18.98,1.68,3.66,3.31,10.41.13,14.04Z"/>
    </g>
    <g id="Schuhe">
      <path class="cls-1" d="M243.44,530.72c-8.17-2.35-14.45-5.32-20.86-7.1-.39.15-.8.31-1.25.48-2.82,1.03-6.9,2.1-11.89,2.18-5.5.05-9.94-1.14-12.89-2.22-.41-.15-.79-.3-1.14-.44-.86,1.9-1.84,4.35-2.53,7.23-.75,3.22-1,6.1-1,8.32v3.54h69.83v-3.54s-.56-3.32-18.27-8.44Z"/>
      <path class="cls-1" d="M87.57,530.85c-.68-2.88-1.65-5.32-2.53-7.23-.46.19-.98.39-1.55.59-2.93,1.03-7.21,2.12-12.46,2.07-5.79-.09-10.36-1.53-13.14-2.66-.35.1-.7.2-1.05.31h-.01c-6.05,1.79-12.09,4.56-19.8,6.79-17.71,5.12-18.27,8.44-18.27,8.44v3.54h69.82v-3.54c0-2.22-.25-5.1-1-8.32Z"/>
    </g>
    <g id="Hose">
      <path class="cls-3" d="M127.91,275.41c-4.45,28.66-8.79,57.34-13.07,86.04-7.74,52.05-15.18,104.14-22.33,156.28-5.5-1.25-12.16-2.35-19.74-2.73-6.93-.34-13.13-.04-18.37.54-5.38-45.19-8.2-100.57-3.27-163.35,3.94-50.28,12.05-94.75,21.23-132.32,14.11,2.79,31.19,5.07,50.63,5.44,1.52.04,3.02.05,4.51.05l.39,50.05Z"/>
      <path class="cls-8" d="M228.11,512.83c-5.9-.37-12.58-.45-19.88,0-7.81.49-14.85,1.51-20.96,2.71-11.89-49.98-24.05-99.91-36.47-149.74-7.53-30.15-15.16-60.27-22.88-90.39l-.39-50.05c19.65.05,36.88-1.9,51.04-4.41,12.12,34.02,23.74,73.38,32.67,117.62,13.35,66.06,17.17,125.36,16.89,174.26Z"/>
    </g>
    <g id="Oberteil">
      <path class="cls-12" d="M127.44,260.19c-.88,0-1.78-.01-2.66-.02-25.02-.33-46.26-4.09-62.47-8.18,1.58-13.78,4-32.05,7.75-53.5,3.9-22.35,6.18-30.59,7.76-45.73,1.69-16.28,1.93-34.32-.28-54.03,2.69-.78,5.73-1.52,9.08-2.08,4.13-.69,7.91-.99,11.22-1.07,1.2,1.39,9.54,10.66,23.27,10.62.54,0,1.07-.01,1.6-.05l4.74,154.04Z"/>
      <path class="cls-10" d="M192.58,252.41c-16.64,4.08-38.86,7.85-65.14,7.79l-4.74-154.04c13.59-.76,21.52-10.54,22.5-11.8,3.29-.58,7.96-1.03,13.47-.41,5.33.6,9.64,2.01,12.66,3.27-.82,10.87-1.28,27.48,1.63,47.38,2.91,19.78,7.17,29.35,11.85,50.23,2.98,13.34,6.5,32.9,7.76,57.59Z"/>
    </g>
    <g id="Kittel">
      <g id="Rechts">
        <path class="cls-11" d="M232.58,167.46c7.26-7.4,14.52-14.8,21.78-22.2-3.21-2.26-10.58-7.78-19.37-13.63-43.92-29.26-55.58-39.27-73.7-37.8-1.71.14-6.6,2.29-8.27,6.56-1.71,4.37.82,9.59,3.14,14.42.6,1.24,2.2,4.52,4.62,7.62,9.5,12.15,33.86,24.33,42.97,29.02,6.77,3.48,16.77,8.82,28.83,16.02Z"/>
        <path class="cls-2" d="M226.32,363.49c-17.88,3.52-38.63,6.61-61.8,8.27-9.3-93.09-18.59-186.18-27.89-279.27,5.09-.37,10.6-.58,16.48-.51,7.01.08,13.5.54,19.4,1.2-1.39,9.43-2.62,23.31-1,39.87,1.97,20.13,7.17,34.24,11.71,47.35,7.92,22.87,15.54,47.74,22.34,74.51,9.94,39,16.48,75.49,20.76,108.57Z"/>
        <path class="cls-11" d="M137.4,86.35c-.55,3.65-1.37,7.69-2.55,12.02-1.07,3.91-2.29,7.45-3.52,10.61,4,16.08,8.01,32.15,12.01,48.23,3.09-14.5,6.17-28.99,9.26-43.49l-8.01-13.69,10.66-9.38-17.84-4.3Z"/>
        <path class="cls-11" d="M193.98,271.85l-21.26,2.43c-2.58.3-4.94-1.58-5.23-4.16l-3.42-29.85c9.52-.92,19.04-1.83,28.55-2.75,1.84,9.7,3.67,19.39,5.51,29.09.3,2.58-1.58,4.94-4.16,5.23Z"/>
      </g>
      <g id="Links">
        <path class="cls-11" d="M35.8,163.88c-10.12-5.32-20.25-10.64-30.37-15.96,12.65-11.13,23.73-20.12,32.38-26.89,5.69-4.45,13.88-10.71,25.73-16.53,11.46-5.63,17.42-6.46,22.72-5.93,2.92.29,14.03,1.4,16.01,7.27,3.16,9.38-18.66,25.83-32.94,36.6-.51.38-2.78,2.09-5.95,4.33-11.19,7.91-20.87,13.5-27.57,17.1Z"/>
        <path class="cls-2" d="M109.3,95.76c-5.25,92.03-10.5,184.06-15.75,276.1-21.46-1.46-40.84-4.16-57.76-7.31,1.9-28.41,5.22-59.44,10.64-92.59,5.49-33.53,12.34-64.3,19.7-92.07,4.1-10.3,8.53-24.38,10.64-41.51,1.92-15.58,1.36-29.09.18-39.48,3.85-1.14,8.39-2.2,13.54-2.85,7.27-.92,13.67-.77,18.8-.29Z"/>
        <path class="cls-11" d="M108.23,88.18c.66,3.46,1.51,7.18,2.62,11.12,1.17,4.16,2.47,7.97,3.8,11.42-3.04,15.49-6.08,30.97-9.12,46.46-4.03-13.8-8.05-27.6-12.08-41.4l7.81-13.81-10.8-9.22,17.78-4.56Z"/>
        <path class="cls-11" d="M60.11,273.81l21.32,1.81c2.59.22,4.89-1.72,5.11-4.31.37-9.98.75-19.96,1.12-29.94-9.49-.89-18.98-1.77-28.47-2.66-1.13,10-2.26,19.99-3.39,29.99-.22,2.59,1.72,4.89,4.31,5.11Z"/>
        <g id="Knöpfe">
          <circle class="cls-13" cx="98.26" cy="175.23" r="1.6"/>
          <circle class="cls-13" cx="96.57" cy="197.18" r="1.6"/>
          <circle class="cls-13" cx="95.52" cy="218.83" r="1.6"/>
          <circle class="cls-13" cx="94.33" cy="241.19" r="1.6"/>
          <circle class="cls-13" cx="93.38" cy="263.71" r="1.6"/>
          <circle class="cls-13" cx="91.96" cy="285.9" r="1.6"/>
          <circle class="cls-13" cx="90.72" cy="309.99" r="1.6"/>
          <circle class="cls-13" cx="89.25" cy="332.13" r="1.6"/>
        </g>
      </g>
      <g id="Unterarme">
        <g id="Links-2" data-name="Links">
          <path class="cls-5" d="M20.62,150.34c16.95,15.11,32.65,31.58,49.57,46.73,2.36,2.12,6.52,5.73,5.79,9.48-.73,3.74-6.14,6.75-9.5,5.97-.98-.23-2.56-1.11-3.95-2.21-.57-.45-1.01-.87-1.31-1.18-29.71-20.86-51.01-36.73-55.37-40.63-4.23-3.78-5.09-7.49-5.26-8.3-.19-.89-.43-2.13-.18-3.61.98-5.66,8.58-10.22,14.53-9.13,2.99.54,5,2.28,5.68,2.89Z"/>
          <path class="cls-11" d="M20.79,146.68l47.57,39.92c-2.63,2.07-5.85,4.94-9.11,8.74-3.71,4.32-6.27,8.44-7.99,11.64-24.65-19.84-42.44-34.93-47.57-39.92-1.23-1.19-3.11-3.65-3.58-7.05-.79-5.64,3.06-10.02,3.33-10.31,3.92-4.32,10.86-5.57,17.35-3.02Z"/>
        </g>
        <g id="Rechts-2" data-name="Rechts">
          <path class="cls-5" d="M239.53,145.94c-23.47,10.69-46.94,21.37-70.41,32.06-4.8-.13-8.91,3.28-9.34,7.92-.44,4.78,3.25,8.99,8.24,9.39,1.14.09,3.17-.3,5.06-.98.78-.28,1.4-.57,1.84-.79,24.77-7.53,49.54-15.08,74.31-22.6,1.42-.5,6.67-2.52,9.04-7.73.3-.66.94-2.1,1.04-4.01.35-6.33-5.4-13.45-12.61-14.35-1.31-.16-3.92-.28-7.18,1.11Z"/>
          <path class="cls-11" d="M252.34,171.25c-22.76,8.38-45.52,16.76-68.28,25.15-1.13-4.56-2.65-9.68-4.73-15.18-1.81-4.79-3.74-9.09-5.63-12.85,23.32-8.32,46.63-16.64,69.95-24.96,6.92-1.98,14.47,2.62,16.86,10.27l.04.14c2.39,7.65-1.29,15.46-8.21,17.44Z"/>
        </g>
      </g>
    </g>
  </g>
  <g id="Gesicht">
    <g id="Kopf">
      <path class="cls-5" d="M153.33,50.63c1.41,12.13-6.09,23.96-18.15,27.56-.4.11-.8.23-1.2.32v15.56c0,5.41-4.43,9.84-9.84,9.84h-2.21c-5.41,0-9.84-4.43-9.84-9.84v-16.83c0-.45.03-.89.09-1.33-6.46-3.39-11.72-9.04-14.45-16.24-.55.16-1.11.24-1.7.24-3.41,0-6.2-2.79-6.2-6.2v-2.33c0-2.52,1.52-4.69,3.68-5.65-3.68-14.52,4.78-29.61,19.25-33.93,2.67-.79,5.35-1.17,8-1.17,12.14,0,23.41,7.93,27.04,20.11l1.92,6.45c2.71.23,5.07,2.24,5.58,5.06l.42,2.29c.45,2.39-.57,4.72-2.4,6.1Z"/>
    </g>
    <g id="Nase">
      <path class="cls-6" d="M130.98,56.41c-.54,0-1.1-.1-1.65-.29-.07-.03-.11-.11-.09-.18.03-.07.11-.11.18-.09,1.15.41,2.33.37,3.22-.12.49-.27.82-.64.91-1.02.23-.95-.24-1.79-1.43-2.56l-.15-.1c-.6-.39-1.51-.99-2.1-2.13-.2-.39-.35-1-.45-1.41l-.05-.19c-.08-.5-.16-.9-.23-1.31-.08-.41-.15-.81-.23-1.3-.01-.08.04-.15.12-.16.07-.02.15.04.16.12.08.49.16.89.23,1.29.08.41.15.81.23,1.3l.05.18c.1.39.24.99.43,1.35.55,1.07,1.43,1.64,2,2.02l.15.1c1.3.84,1.81,1.78,1.55,2.86-.11.46-.49.9-1.05,1.21-.53.29-1.14.43-1.8.43Z"/>
    </g>
    <g id="Augen">
      <rect class="cls-6" x="114.97" y="38.74" width="4.5" height="5.28" rx="2.25" ry="2.25" transform="translate(-5.21 19.85) rotate(-9.47)"/>
      <rect class="cls-6" x="136.75" y="35.11" width="4.5" height="5.28" rx="2.25" ry="2.25" transform="translate(-4.32 23.38) rotate(-9.47)"/>
    </g>
    <g id="Mund_Bart" data-name="Mund + Bart">
      <path class="cls-13" d="M139.85,62.41c.32.95-1.54,2.74-3.51,3.59-4.33,1.87-10.11-.36-10.11-.36h0s3.12-2.53,6.31-3.56c3.07-1,6.91-.84,7.31.34Z"/>
      <path class="cls-1" d="M146.56,61.3c-.74.79-1.8,1.68-3.19,2.26-4.44,1.84-8.76-.88-9.78-1.57-.9,1.02-4.79,5.06-10.36,4.84-1.77-.07-3.25-.55-4.35-1.05,1.17-.35,2.78-.94,4.52-1.98,3.85-2.3,5.34-4.98,7.76-4.68.56.07,1.32.32,2.14,1.1.46-.98.98-1.44,1.42-1.68,1.86-.98,3.84,1.12,7.63,2.18,1.7.48,3.18.57,4.22.57Z"/>
    </g>
    <g id="Augenbrauen">
      <path class="cls-1" d="M133.73,32.01c.68-.52,1.97-1.38,3.81-1.77,2.31-.49,4.19.01,5.03.3,1.21-.89,1.42-1.49,1.35-1.88-.26-1.38-4.2-2.25-7.48-1.37-2.21.59-4.79,2.16-4.59,3.39.11.63.94,1.06,1.88,1.34Z"/>
      <path class="cls-1" d="M110.66,36.48c.61-.61,1.79-1.61,3.56-2.23,2.23-.78,4.16-.51,5.02-.33,1.09-1.03,1.22-1.65,1.1-2.04-.43-1.33-4.45-1.71-7.59-.43-2.12.86-4.49,2.74-4.13,3.93.18.61,1.07.93,2.04,1.1Z"/>
    </g>
    <g id="Schatten">
      <path class="cls-7" d="M94.74,49.7c-.44,0-1.06,1.77-.58,3.38.34,1.15,1.27,2.31,1.65,2.16.72-.29-.31-5.54-1.07-5.53Z"/>
      <path class="cls-7" d="M134.01,78.5c-1.82.47-4.2.91-6.99.96-3.3.06-6.07-.42-8.09-.94,5.02,4.45,10.04,8.89,15.06,13.34-.02-1.98-.02-3.97-.02-5.98,0-2.48.02-4.94.05-7.38Z"/>
    </g>
    <g id="Haare">
      <path class="cls-1" d="M149.92,36.29c0,.11-.1.46-.19.86-.15.78-1.75-6.44-4.52-11.62-.56-1.05-.88-1.85-1.38-2.7-.38-.62-.71-1.1-1.01-1.5-6.34,7.37-24.57,9.23-38,6.23-1.62,2.48-3.79,5.43-3.56,9.91.09,2.05.72,4.99,1.8,10.04.32,1.5.61,2.73.8,3.57-.3-.4-.74-.96-1.32-1.6-1.14-1.27-1.88-2.08-3.04-2.73-1.04-.57-1.99-.78-3.89-1.16-.9-.18-1.56-.24-2.13-.34,0,0-1.89-9.46-1.97-11.88-.06-1.66.01-6.79,1.83-10.6-1.45-1.12-2.56-2.39-3.25-3.8-.19-.39-2.21-4.52-.47-7.15,1.59-2.4,5.03-1.62,10.02-2.64,7.39-1.52,6.99-4.7,14.84-7.38,2.08-.72,9.78-3.17,18.53-.76,3.09.86,7.96,2.21,10.52,6.59,1.68,2.87,2.02,6.47,1.45,9.31,1.12,2.02,2.22,4.35,2.94,6.1,0,0,1.81,4.42,1.99,13.26Z"/>
    </g>
  </g>
  <g id="Icon:_Tabelle" data-name="Icon: Tabelle">
    <g id="Klemmmappe">
      <path class="cls-14" d="M139.62,119.24l-15.97,2.99-45.36,8.47-16.36,3.06,20.59,110.19,77.69-14.52-20.6-110.19ZM81.98,151.53l.04.2h0s-.04-.2-.04-.2h0Z"/>
      <rect class="cls-4" x="78.02" y="122.95" width="46.15" height="8.3" transform="translate(-21.63 20.73) rotate(-10.59)"/>
    </g>
    <g id="Tabelle">
      <path class="cls-4" d="M148.35,204.99l-12.45-66.61-.18-.96-.97.18-61.45,11.49-.97.18.19.97,12.45,66.61.18.96.96-.19,61.46-11.48.96-.19-.18-.96ZM146.19,198.71l-.13.02-26.76,5-1.03-5.51,26.89-5.01,1.03,5.5ZM85.6,165.57l24.7-4.62,1.03,5.5-24.7,4.62h0l-1.03-5.5h.01ZM85.42,164.6l-1.03-5.5,24.71-4.62,1.03,5.51-24.71,4.61ZM86.81,172.03l24.71-4.61,1.03,5.5-24.71,4.62h0l-1.03-5.5h.01ZM88.02,178.51l24.7-4.62,1.03,5.51-24.7,4.61h0s-1.03-5.5-1.03-5.5h0ZM89.23,184.98l24.71-4.62.94,5.04-24.7,4.62h-.02l-.94-5.04h0ZM90.35,190.99l24.7-4.61.95,5.04-24.71,4.61.19.96,24.7-4.61.94,5.06-24.7,4.61h-.01l-.95-5.05-.18-.96-.94-5.04h0ZM92.6,203.01l24.7-4.61,1.03,5.5-24.7,4.62h-.02l-1.03-5.51h.02ZM144.99,192.25l-.13.02-26.77,4.99-.94-5.05,26.89-5.02.95,5.07ZM143.85,186.21l-26.89,5.02-.94-5.04,26.89-5.02.94,5.04ZM142.72,180.2l-26.88,5.02-.94-5.04,26.88-5.02.94,5.04ZM141.61,174.19l-26.89,5.02-1.03-5.5,26.89-5.02,1.03,5.5ZM140.39,167.73l-26.88,5.02-1.03-5.51,26.88-5.02,1.03,5.51ZM139.19,161.25l-26.89,5.02-1.03-5.5,26.89-5.02,1.03,5.5ZM137.97,154.78l-26.88,5.02-1.03-5.5,26.88-5.02,1.03,5.5ZM136.77,148.31l-26.89,5.02-1.05-5.63,26.88-5.02,1.06,5.63ZM134.95,138.57l.59,3.15-26.88,5.02-.04-.2-.55-2.92v-.04s26.88-5.02,26.88-5.02ZM108.91,153.51l-24.7,4.62h0l-1.05-5.63h0l24.7-4.62,1.05,5.63ZM107.09,143.77v.05s.56,2.91.56,2.91l.04.2-24.71,4.62-.04-.21-.54-2.91v-.05s24.69-4.61,24.69-4.61ZM74.07,153.21l-.59-3.16,7.94-1.48v.05s.55,2.91.55,2.91l.04.2h0s-7.85,1.47-7.85,1.47l-.09.02ZM75.31,159.79l-1.05-5.62.08-.02,7.85-1.46h.02s1.05,5.62,1.05,5.62h0l-7.86,1.47h-.08ZM76.52,166.27l-1.04-5.51h.09s7.85-1.48,7.85-1.48h0l1.03,5.51h0l-7.85,1.47h-.08ZM77.73,172.73l-1.03-5.5h.08s7.86-1.48,7.86-1.48h0l1.03,5.5h0l-7.86,1.47h-.08ZM78.93,179.2l-1.03-5.5h.09s7.85-1.48,7.85-1.48h.01l1.03,5.5h0l-7.85,1.47h-.09ZM80.15,185.68l-1.03-5.51h.08s7.86-1.48,7.86-1.48h0l1.03,5.51h0l-7.86,1.47h-.08ZM81.26,191.68l-.94-5.04h.08s7.86-1.48,7.86-1.48h0l.95,5.04h-.02l-7.85,1.47h-.09ZM82.39,197.7l-.94-5.04h.08s7.86-1.48,7.86-1.48h0l.94,5.04h0l-7.86,1.47h-.08ZM83.52,203.72l-.94-5.06h.08s7.86-1.48,7.86-1.48h0l.94,5.05h-.01l-7.86,1.47-.08.02ZM84.73,210.19l-1.04-5.51.09-.02,7.85-1.46h.02s1.03,5.5,1.03,5.5h0l-7.86,1.47-.08.02ZM85.93,216.66l-1.03-5.5.08-.02,7.86-1.47h0l1.03,5.5-7.94,1.49ZM94.84,214.99h0l-1.03-5.5h0l24.7-4.62,1.03,5.51-24.7,4.61ZM120.51,210.2l-1.03-5.51,26.76-5,.13-.02,1.03,5.51-26.89,5.02Z"/>
      <g id="Spalten">
        <polygon class="cls-9" points="85.67 171.25 85.66 171.25 77.8 172.72 77.73 172.73 76.7 167.23 76.78 167.22 84.63 165.75 84.64 165.75 85.67 171.25"/>
        <polygon class="cls-9" points="135.53 141.72 108.66 146.75 108.62 146.55 108.07 143.63 108.06 143.59 134.95 138.57 135.53 141.72"/>
        <polygon class="cls-9" points="107.69 146.92 82.98 151.54 82.94 151.34 82.4 148.43 82.39 148.38 107.09 143.77 107.1 143.82 107.65 146.73 107.69 146.92"/>
        <polygon class="cls-9" points="93.88 215.17 85.93 216.66 84.91 211.15 84.98 211.13 92.84 209.67 92.85 209.67 93.88 215.17"/>
        <polygon class="cls-9" points="92.67 208.71 92.66 208.71 84.81 210.17 84.73 210.19 83.69 204.68 83.78 204.66 91.63 203.2 91.64 203.19 92.67 208.71"/>
        <polygon class="cls-9" points="91.46 202.23 91.45 202.23 83.59 203.7 83.52 203.72 82.57 198.66 82.65 198.65 90.51 197.18 90.52 197.18 91.46 202.23"/>
        <polygon class="cls-9" points="82.02 151.72 82.01 151.73 74.16 153.19 74.07 153.21 73.49 150.05 81.43 148.57 81.44 148.62 81.98 151.53 82.02 151.72"/>
        <polygon class="cls-9" points="83.25 158.31 83.24 158.31 75.39 159.78 75.31 159.79 74.26 154.17 74.34 154.15 82.18 152.69 82.2 152.68 83.25 158.31"/>
        <polygon class="cls-9" points="90.33 196.22 90.32 196.22 82.47 197.69 82.39 197.7 81.45 192.65 81.53 192.64 89.38 191.17 89.39 191.17 90.33 196.22"/>
        <polygon class="cls-9" points="89.22 190.2 89.2 190.2 81.35 191.67 81.26 191.68 80.32 186.64 80.4 186.63 88.26 185.16 88.27 185.16 89.22 190.2"/>
        <polygon class="cls-9" points="88.09 184.2 88.08 184.2 80.22 185.67 80.15 185.68 79.12 180.16 79.2 180.15 87.05 178.69 87.06 178.69 88.09 184.2"/>
        <polygon class="cls-9" points="86.87 177.73 86.86 177.73 79.02 179.19 78.93 179.2 77.9 173.7 77.99 173.69 85.84 172.22 85.85 172.22 86.87 177.73"/>
        <polygon class="cls-9" points="84.46 164.79 84.45 164.79 76.6 166.26 76.52 166.27 75.48 160.75 75.57 160.74 83.42 159.27 83.43 159.27 84.46 164.79"/>
      </g>
    </g>
  </g>
  <g id="Hände">
    <path class="cls-5" d="M162.8,177.73c2.05-.1,3.61-.05,4.1-.03,2.69.1,4.95.42,6.6.73,1.23,3.54,2.47,7.07,3.7,10.61-1.26,1.68-3.38,4.11-6.61,6.23-3.8,2.5-7.29,5.14-11.1,4.08-3.35-.93-5.13-4.14-5.24-4.35-1.78-3.31-1.37-5.24-1.72-6.84-.14-.67-3.25,1.88-8.66,3.01-1.39.29-4.35.87-5.4-.53-.37-.5-.39-1.09-.38-1.33.04-1.02.79-2.13,7.95-5.89,3.36-1.77,6.02-3,7.71-3.78.52-.24.79-.37.94-.43.83-.35,3.1-1.23,8.11-1.48Z"/>
    <path class="cls-5" d="M74.51,195.48c-1.82-.61-3.97-1.19-6.4-1.61-2.85-.49-5.42-.64-7.58-.64-.74,1.91-1.54,3.88-2.41,5.89-.89,2.04-1.79,4-2.69,5.87,1.36,2.07,4.09,4.09,7.79,6.85,5.32,3.96,10.51,5.14,12.59,5.52.84.15,13.1,3.36,15.62-1.7.85-1.71.23-3.62.1-4.01-.03-.07-.06-.16-.1-.25-.52-1.16-2.73-3.99-7.88-5.44,0,0-4.8-1.35-7.49-2.76-.24-.12-.3-.31-.3-.31-.41-2.47-.83-4.94-1.24-7.41Z"/>
  </g>
</svg>