<?xml version="1.0" encoding="UTF-8"?>
<svg id="G-0134_BUW_Schokokuchen" xmlns="http://www.w3.org/2000/svg" viewBox="0 0 820.06 437.39">
  <defs>
    <style>
      .cls-1 {
        fill: #42210b;
      }

      .cls-1, .cls-2, .cls-3, .cls-4, .cls-5, .cls-6, .cls-7, .cls-8, .cls-9 {
        stroke-width: 0px;
      }

      .cls-2 {
        fill: #a5678d;
      }

      .cls-3 {
        fill: #308fc9;
      }

      .cls-4 {
        fill: #873567;
      }

      .cls-5 {
        fill: #c39ab3;
      }

      .cls-6 {
        fill: #96cced;
      }

      .cls-7 {
        fill: #236289;
      }

      .cls-8 {
        fill: #f9dbc2;
      }

      .cls-9 {
        fill: #e1ccd9;
      }
    </style>
  </defs>
  <g id="Teller">
    <ellipse class="cls-6" cx="410.03" cy="318.05" rx="410.03" ry="119.34"/>
    <ellipse class="cls-3" cx="410.03" cy="308.61" rx="341.2" ry="99.3"/>
    <ellipse class="cls-7" cx="410.03" cy="308.61" rx="324.69" ry="94.5"/>
  </g>
  <g>
    <g id="Kuchen">
      <path class="cls-1" d="M587.13,67.97v210.5c-2.36,2.26-5.72,6.29-11.17,8.85-19.63,9.24-46.62,14.32-54.21,16.01-31.8,7.06-24.11,7.88-102.73,28.64-20.49,5.41-45.84,10.33-96.55,20.14-66.52,12.88-84.36,14.59-93.77,3.82-4.54-5.18-.59-6.89-2.25-47.7-.1-2.47-.2-4.88-.28-7.22-.37-9.56-.66-18.15-.88-25.87-.47-15.75-.66-27.89-.72-37.21-.09-12.92.1-20.45.26-24.73.03-.78.06-1.44.08-2.03.97-23.05,2.88-41.95,4.4-54.58l100.53-24.89,35.5-8.79s.01-.01.02-.01l73.62-18.23,89.47-22.16,58.68-14.53Z"/>
      <path class="cls-8" d="M587.13,147.38v20.01c-36.49,13.22-65.2,24.94-85.76,33.72-26.23,11.19-45.99,20.48-76.67,25.29-11.39,1.78-13.48,1.26-46.98,4.38-38.48,3.59-51.15,5.72-67.62,7.24-20.38,1.89-49.12,3.09-85.52-.09-.09-12.92.1-20.45.26-24.73,17.37-.12,40.23-.42,66.94-1.25,49.25-1.51,73.88-2.27,92.16-4.39,58.58-6.79,104.04-23.51,179.13-51.11,8.74-3.2,16.81-6.26,24.08-9.07Z"/>
      <path class="cls-8" d="M587.13,206.78v19.86c-9.33,3.35-20.77,7.72-33.63,13.18-34.64,14.71-36.55,19.09-60.66,28.13-31.83,11.93-60.75,16.37-72.27,18.07-15.89,2.35-25.96,2.78-51.17,7.04-17.57,2.98-30.13,5.73-33.24,6.38-18.7,3.92-50.82,6.36-109.98,1.56-.37-9.56-.66-18.15-.88-25.87,17.98-.37,32.88-.59,43.76-.72,61.85-.76,77.46.21,106.56-4.56.41-.07.07-.01,41.09-8.09,55.46-10.91,55.69-10.93,58.34-11.61,9.23-2.36,19.72-5.48,77.68-29.17,12.9-5.27,24.47-10.07,34.41-14.21Z"/>
      <path class="cls-5" d="M587.03,278.71c2.45.74,5.83,1.11,5.83,1.11,2.2.27,4.43.33,6.64.17,4.42-.31,8.79-1.46,12.77-3.42,3.03-1.49,6.27-2.77,7.85-5.95,1.47-2.96,1.56-6.5,1.29-9.73-.22-2.73-.76-5.44-1.47-8.09-15.4-57.94-5.78-119.1-3.54-179.01.16-4.3.24-8.82-1.69-12.67-2.46-4.92-7.67-7.75-12.63-10.14-44.6-21.43-93.84-30.8-142.09-41.76-17.72-4.03-37.33-8.06-53.24.73-10.75,5.94-17.75,16.71-26.21,25.62-16.47,17.35-38.7,27.77-59.56,39.48-35.59,19.98-68.48,44.73-97.73,73.2-2.43,2.37-5.04,5.31-4.57,8.67.35,2.49,2.32,4.42,4.29,6,6.78,5.45,14.73,9.29,21.57,14.65,9.12,7.14,12,17.86,13.02,21.63,4.06,14.95-2.69,22.91,2.77,28.1,5.08,4.83,16.8,3.53,20.65-2.06,2.2-3.2,1.28-7-2.64-19.83-7.85-25.64-9.37-28.22-7.83-32.58,4.14-11.67,20.87-16.46,30.57-8.76,1.77,1.4,3.34,3.22,3.82,5.42.63,2.91-.75,5.84-2.02,8.54-2.34,4.94-4.5,10.52-2.91,15.75,1.6,5.23,8.82,8.75,12.75,4.95,2.56-2.47,2.48-6.49,3.16-9.98,1.6-8.15,10.47-16.44,18-16.07,7.72.38,12.73,10.01,15.25,14.88,4.1,7.89,4.87,15.5,5.58,23.35,1.35,14.75-1.16,19.46,2.68,23.11,4.62,4.4,15.29,4.27,18.86-.57,3.99-5.42-3.08-13.8-11.47-42.95-2.78-9.65-3.58-14.85-.98-19.79,3.21-6.09,10.81-9.89,17.37-7.77,6.4,2.06,10.09,8.51,14.59,13.49,2.76,3.06,6.65,5.66,10.8,6.23,4.75.65,7.77-2.1,9.94-6.04,3.37-6.11,7.46-11.12,13.61-14.64,7.03-4.02,14.24-4.69,22.14-4.06,1.74.14,3.53.14,5.16-.46,6.17-2.26,3.49-10.46,4.54-15.34,1.54-7.19,10.92-10.74,17.63-7.74,6.19,2.76,9.69,9.42,10.39,15.92,1.01,9.36-5.39,11.69-6.14,23.28-.24,3.69-.97,14.85,6.33,19.67,5.13,3.39,12.85,2.73,17.68-1.16,7-5.65,5.54-16.2,5.16-18.97-1.69-12.28-10.1-13.44-11.56-24.67-.98-7.48,1.37-17.56,9.06-22.96,6.74-4.73,17.53-5.83,22.12-1.02,5.28,5.53-1.19,15.2,4.39,20.26,3.61,3.27,10.35,2.9,14.33,0,6.16-4.49,5.38-14.81,2.19-20.52-2.14-3.85-4.2-3.5-6.32-7.74-.32-.64-4.01-8.28-.65-14.71,3.59-6.87,13.29-8.66,19.95-7.34,12.54,2.48,17.79,16.66,18.83,19.78,4.56,13.59-.42,26.59-2,30.93-21.2,58.16-4.19,131.25,3.71,133.61Z"/>
      <path class="cls-9" d="M484.63,80.69c-13.51,10.44-19.84,3.22-58.56,10.9-37.19,7.38-30.99,13.97-65.29,19.8-13.84,2.35-30.78,3.99-33.1,12.53-.6,2.22-.29,5.18,1.38,7.05,6.42,7.13,29.55-5.48,47.29-12.91,42.28-17.72,52.84-5.6,128.13-27.26,16.12-4.64,40.47-12.34,41.42-24.56.31-3.94-1.88-7.5-2.8-9-5.61-9.15-18.48-13.17-27.69-11.29-15.42,3.15-13.55,21.43-30.78,34.75Z"/>
    </g>
    <g id="Beeren">
      <path class="cls-4" d="M457.81,30.17c2.85,7.74.69,14.73-.24,17.71-.9,2.9-4.54,14.66-16.22,19.15-11.98,4.61-22.84-2.12-25.42-3.72-2.78-1.73-8.44-5.35-11.44-12.73-3.32-8.18-1.15-15.5-.51-17.43.53-1.61,3.05-9.19,9.82-12.99,1.37-.77,1.48-.58,8.67-3.35,7.21-2.78,7.34-3.06,8.58-3.41,8.39-2.36,22.34,4.83,26.75,16.78Z"/>
      <path class="cls-4" d="M505.84,30.27c-.11,8.99-5.04,15.26-7.14,17.93-2.05,2.6-10.34,13.15-23.97,13.18-14,.03-22.42-11.05-24.43-13.69-2.16-2.84-6.51-8.73-6.68-17.42-.19-9.62,4.86-16.23,6.27-17.94,1.17-1.43,6.68-8.17,15.06-9.39,1.69-.25,1.73-.01,10.14-.03,8.42-.02,8.66-.26,10.07-.13,9.46.86,20.86,13.62,20.69,27.5Z"/>
      <path class="cls-2" d="M483.73,64.06c-1.58,6.47-6.18,10.17-8.14,11.76-1.91,1.54-9.65,7.77-19.5,5.52-10.11-2.31-14.34-11.71-15.35-13.95-1.09-2.41-3.24-7.39-1.92-13.69,1.46-6.98,6.22-10.9,7.51-11.91,1.08-.84,6.18-4.78,12.44-4.27,1.26.1,1.25.28,7.32,1.66,6.08,1.39,6.3,1.26,7.29,1.58,6.68,2.2,12.79,13.31,10.35,23.3Z"/>
      <path class="cls-1" d="M416.47,19.63c.3.25.79.39,4.16-.69,2.74-.87,3.65-1.36,4.29-1.76,1.1-.67,2.37-1.46,2.25-2.27-.12-.82-1.58-1.22-1.77-1.27-1.31-.34-2.06.16-5.21,1.28-2.83,1.01-3.58,1.08-4.02,1.95-.45.89-.37,2.2.31,2.75Z"/>
      <path class="cls-1" d="M467.87,3.43c.21.37.65.7,4.5.92,3.13.18,4.24.04,5.05-.11,1.38-.26,2.98-.56,3.17-1.43.2-.88-1.13-1.86-1.31-1.98-1.2-.86-2.16-.64-5.81-.73-3.28-.08-4.07-.3-4.86.42-.8.73-1.23,2.09-.76,2.92Z"/>
      <path class="cls-1" d="M461.65,38.59c.09.3.35.61,3.1,1.41,2.23.65,3.06.73,3.67.76,1.04.04,2.24.09,2.53-.51.29-.6-.51-1.53-.61-1.65-.72-.82-1.46-.82-4.07-1.49-2.35-.6-2.89-.89-3.58-.51-.7.39-1.24,1.31-1.03,1.98Z"/>
    </g>
  </g>
</svg>