<?xml version="1.0" encoding="UTF-8"?>
<svg id="G-0162_BUW_Durchblick_ORCID" xmlns="http://www.w3.org/2000/svg" viewBox="0 0 359.37 518.76">
  <defs>
    <style>
      .cls-1 {
        fill: #dec1a8;
      }

      .cls-1, .cls-2, .cls-3, .cls-4, .cls-5, .cls-6, .cls-7, .cls-8, .cls-9, .cls-10, .cls-11 {
        stroke-width: 0px;
      }

      .cls-2 {
        fill: #dddddc;
      }

      .cls-3 {
        fill: #64abd6;
      }

      .cls-4 {
        fill: #e6710a;
      }

      .cls-5 {
        fill: #000;
      }

      .cls-6 {
        fill: #fcd9bd;
      }

      .cls-7 {
        fill: #236289;
      }

      .cls-8 {
        fill: #ec9447;
      }

      .cls-9 {
        fill: #ccc;
      }

      .cls-10 {
        fill: #fff;
      }

      .cls-11 {
        fill: #f2b885;
      }
    </style>
  </defs>
  <g id="Köprer">
    <g id="Kittel:_Hinterteil" data-name="Kittel: Hinterteil">
      <path class="cls-9" d="M190.01,93.12c-8.16.65-16.33,1.3-24.5,1.94-.59-3.05-1.18-6.1-1.77-9.15,3.65-.95,8.12-1.8,13.26-2.17,5.61-.39,10.54-.09,14.51.42-.06.5-.13,1.01-.2,1.52-.36,2.57-.8,5.05-1.3,7.43Z"/>
      <path class="cls-9" d="M94.76,349.09c24.22,4.59,53.95,8.26,87.95,8.28,36.46.01,68.11-4.18,93.49-9.28-13.03-50.85-26.06-101.7-39.09-152.55l-112.51,1.35-29.83,152.21Z"/>
    </g>
    <g id="Körper">
      <path class="cls-6" d="M351.84,171.73c-2.79,2.35-7.72.57-10.57-.42-34.57-11.9-68.33-18.59-100.25-37.5-8.88-5.26-15.04-8.86-19.57-11.78.03,7.58.25,15.49.69,23.68.27,4.96.77,13.91,2.08,25.42,1.73,15.22,3.73,32.14,10.24,52.59,1.39,4.37,2.66,7.88,3.47,10.05.03.02.03.08.03.1.02,0,.02-.03.05-.03,4.71,19.63,8.9,41.88,11.7,66.42,2.4,20.78,3.44,40.14,3.62,57.74.24,1.2.34,2.45.27,3.75.77,1.98,1.14,4.15,1.03,6.39,4.58,23.65,8.53,49.1,11.49,76.2.61,5.56,1.82,13.82,2.36,24.85.45,9.18.39,17.27.14,23.82-.17,4.53,2.31,8.68,6.26,10.89,2.68,1.49,5.06,3.42,4.99,5.53-.13,4.29-10.32,7.9-18.67,7.29-3.36-.24-10.98-.79-13.61-6.51-1.43-3.12-.76-6.43.09-8.73.77-2.06.85-4.31.13-6.39-5.1-14.85-9.97-31.55-13.98-49.96-5.87-26.86-8.62-51.37-9.7-72.47h.03c-.68-1.85-.99-3.84-.9-5.91-.26-.66-.47-1.34-.64-2.04-5.75-9.83-11.56-20.95-16.93-33.4-11.41-26.53-17.5-51.2-20.77-71.51-1.11.28-2.16.52-3.14.73-1.72,19.78-5.73,43.48-14.27,69.21-4.28,12.87-9.12,24.44-14,34.73-.13.86-.32,1.69-.58,2.51.1,1.67-.06,3.29-.46,4.84.81,21.1.25,45.76-3.24,73.05-2.4,18.76-5.81,35.86-9.63,51.11-.39,1.56-.24,3.18.37,4.66.52,1.27.9,2.89.54,4.61-1.22,5.77-9.63,7.29-10.54,7.45-9.17,1.66-18.56-4.68-18.18-7.87.12-1.01,1.16-1.28,3.28-4.34.38-.56.72-1.09,1.01-1.58.68-1.13,1.01-2.42.98-3.74-.4-15.48-.45-31.57-.07-48.23.62-27.17,2.3-52.86,4.7-76.92-.33-2.38-.1-4.73.59-6.9-.06-.92-.04-1.83.04-2.7-1.31-17.56-1.93-36.93-1.33-57.84.7-24.69,2.96-47.22,5.97-67.18.03,0,.03.03.06.02,0-.02-.01-.07.02-.1.26-1.53.64-3.76,1.09-6.45,2.61-15.68,5.74-34.48,7.42-51.13,1.11-11,2.1-26.13,1.67-44.6-4.09,1.98-9.14,4.34-15.55,7.35-33.52,15.74-67.73,19.18-103.36,27.78-2.94.71-8.02,2.01-10.56-.59-2.55-2.59-1.98-8.46.45-10.68.71-.64,2.26-1.4,3.87-1.9.67-.2,1.23-.32,1.64-.39,19.28-7.01,38.58-14.01,57.86-21.02,14.6-9.49,30.17-17.99,30.17-17.99,6.71-4.51,16.41-10.21,28.93-15.04,3.37-1.3,7.75-2.98,13.73-4.5,11.21-2.85,15.54-1.98,34.38-3.59,15.87-1.35,26.5-2.53,26.5-2.53,7.08-.79,14.72-1.73,23.8,1.3,2.54.84,4.42,1.74,6.65,2.88,6.31,3.22,15.67,8.46,27.49,16.81,0,0,14.68,9.93,28.3,20.77,18.53,8.83,37.08,17.63,55.62,26.46.39.11.95.28,1.59.54,1.55.64,3.03,1.55,3.67,2.26,2.21,2.43,2.21,8.33-.56,10.67Z"/>
    </g>
    <g id="Schuhe">
      <path class="cls-7" d="M292.5,507.35c-7.78-2.24-13.76-5.07-19.87-6.76-.37.14-.76.3-1.19.45-2.68.98-6.57,2-11.32,2.07-5.24.05-9.47-1.09-12.27-2.11-.39-.14-.75-.29-1.09-.42-.82,1.81-1.75,4.14-2.41,6.88-.72,3.07-.95,5.81-.95,7.92v3.38h66.5v-3.38s-.54-3.16-17.4-8.04Z"/>
      <path class="cls-7" d="M144.06,507.47c-.64-2.74-1.57-5.07-2.41-6.88-.44.18-.93.37-1.48.56-2.79.98-6.87,2.02-11.87,1.97-5.51-.08-9.86-1.45-12.51-2.53-.33.1-.67.19-1,.3h-.01c-5.76,1.71-11.51,4.34-18.86,6.46-16.86,4.88-17.4,8.04-17.4,8.04v3.38h66.49v-3.38c0-2.11-.24-4.85-.95-7.92Z"/>
    </g>
    <g id="Hose">
      <path class="cls-8" d="M182.48,264.21c-4.23,27.3-8.37,54.61-12.44,81.94-7.37,49.57-14.46,99.18-21.26,148.83-5.24-1.19-11.58-2.23-18.79-2.6-6.6-.33-12.5-.04-17.5.51-5.12-43.04-7.81-95.78-3.11-155.56,3.75-47.88,11.47-90.23,20.22-126.01,13.44,2.65,29.71,4.83,48.22,5.18,1.45.03,2.88.05,4.29.05l.37,47.66Z"/>
      <path class="cls-4" d="M277.9,490.31c-5.61-.35-11.98-.43-18.94,0-7.44.47-14.14,1.44-19.96,2.58-11.32-47.6-22.9-95.14-34.74-142.6-7.17-28.71-14.43-57.4-21.79-86.08l-.37-47.66c18.71.05,35.12-1.81,48.61-4.2,11.54,32.4,22.61,69.88,31.11,112.01,12.71,62.91,16.35,119.39,16.08,165.95Z"/>
    </g>
    <g id="Oberteil">
      <path class="cls-11" d="M182.04,249.72c-.84,0-1.7-.01-2.54-.02-23.82-.32-44.06-3.89-59.5-7.79,1.51-13.12,3.81-30.52,7.38-50.95,3.72-21.28,5.89-29.13,7.39-43.55,1.61-15.51,1.83-32.69-.27-51.46,2.11-1.07,5.33-2.41,9.46-3.04,4.1-.63,7.55-.33,9.87.05,1.15,1.32,9.09,10.15,22.16,10.12.52,0,1.02-.01,1.52-.05l4.51,146.7Z"/>
      <path class="cls-8" d="M244.07,242.3c-15.85,3.88-37,7.47-62.03,7.41l-4.51-146.7c12.95-.73,20.49-10.03,21.43-11.24,3.13-.55,7.58-.98,12.83-.39,5.08.57,9.18,1.92,12.06,3.11-.78,10.35-1.22,26.17,1.56,45.12,2.77,18.84,6.83,27.95,11.29,47.83,2.84,12.7,6.19,31.33,7.39,54.84Z"/>
    </g>
    <g id="Kittel">
      <g id="Rechts">
        <path class="cls-9" d="M340.01,150.17c-1.87,2.91-4.11,6.95-5.98,12.04-1.65,4.47-2.54,8.48-3.04,11.63l-55.27-21.06c-.72-.44-1.5-.88-2.33-1.32-.75-.39-1.48-.75-2.18-1.07-16-7.28-28.43-12.58-38.41-16.19-4.42-1.6-14.82-5.42-24.35-13.97-.68-.61-1.27-1.2-1.81-1.76-5.31-5.49-13.77-16.99-11.01-23.68,3.21-7.79,19.33-8.41,29.47-6,2.11.5,4.01,1.15,7.54,2.66,12.49,5.37,22.84,12,33.15,19.54,6.75,4.93,15.28,11.58,24.78,20.05h0c9.61,3.39,27.28,10.16,49.44,19.13Z"/>
        <path class="cls-2" d="M276.2,348.09c-17.02,3.35-36.79,6.29-58.86,7.88l-26.43-268.17c5.02-1.27,12.3-2.46,20.99-1.67,5.17.47,9.62,1.53,13.19,2.66-1.46,9.51-2.75,23.37-1.1,39.85,1.88,18.78,6.59,31.91,11.16,45.1,7.54,21.78,14.8,45.46,21.28,70.96,9.46,37.14,15.7,71.89,19.77,103.39Z"/>
        <path class="cls-9" d="M191.52,84.16c-.53,3.47-1.3,7.32-2.43,11.45-1.02,3.72-2.18,7.1-3.36,10.1,3.81,15.31,7.63,30.62,11.44,45.93,2.94-13.81,5.88-27.61,8.82-41.42l-7.63-13.04,10.16-8.93-16.99-4.09Z"/>
        <path class="cls-9" d="M245.4,260.82l-20.24,2.32c-2.46.28-4.7-1.5-4.98-3.96l-3.25-28.43c9.06-.87,18.13-1.75,27.19-2.62,1.75,9.23,3.5,18.47,5.25,27.7.28,2.46-1.5,4.7-3.96,4.98Z"/>
      </g>
      <g id="Links">
        <path class="cls-9" d="M151.09,127.73c-.57.54-1.17,1.1-1.87,1.7-9.46,8.11-19.7,11.49-24.79,13.18-10.7,3.54-23.84,8.2-39.61,13.59l-56.52,15.57c-.2-3.19-.71-7.26-1.92-11.87-1.38-5.25-3.23-9.48-4.81-12.56,20.23-6.01,36.81-10.66,47.22-13.35,11.76-8.03,22.4-15.03,31.59-20.93,21.73-13.96,29.5-18.1,40.09-18,1.75.02,18.94.37,22.38,9.35,3.33,8.7-8.32,19.98-11.76,23.32Z"/>
        <path class="cls-2" d="M164.62,90.5l-14.86,265.56c-20.44-1.39-38.89-3.96-55-6.96,1.81-27.05,4.97-56.6,10.13-88.18,5.23-31.93,11.75-61.24,18.76-87.68,3.9-9.81,8.11-23.23,10.13-39.53,1.87-15.06,1.31-28.1.17-38.1,15.01-6.55,24.6-6.49,30.66-5.11Z"/>
        <path class="cls-9" d="M163.74,85.91c.62,3.29,1.44,6.84,2.49,10.59,1.12,3.96,2.35,7.59,3.62,10.87-2.89,14.75-5.79,29.49-8.68,44.24-3.83-13.14-7.67-26.29-11.5-39.43l7.44-13.15-10.29-8.78,16.93-4.35Z"/>
        <g id="Knöpfe">
          <circle class="cls-10" cx="154.24" cy="168.8" r="1.52"/>
          <circle class="cls-10" cx="152.64" cy="189.7" r="1.52"/>
          <circle class="cls-10" cx="151.63" cy="210.32" r="1.52"/>
          <circle class="cls-10" cx="150.5" cy="231.62" r="1.52"/>
          <circle class="cls-10" cx="149.6" cy="253.06" r="1.52"/>
          <circle class="cls-10" cx="148.25" cy="274.2" r="1.52"/>
          <circle class="cls-10" cx="147.06" cy="297.14" r="1.52"/>
          <circle class="cls-10" cx="145.67" cy="318.23" r="1.52"/>
        </g>
        <path class="cls-9" d="M117.91,262.69l20.3,1.72c2.47.21,4.66-1.64,4.87-4.1.36-9.5.71-19.01,1.07-28.51-9.04-.84-18.08-1.69-27.11-2.53-1.08,9.52-2.15,19.04-3.23,28.56-.21,2.47,1.64,4.66,4.1,4.87Z"/>
      </g>
    </g>
  </g>
  <g id="Gesicht">
    <g id="Haare">
      <path class="cls-9" d="M149.35,23.35c-.4.23-3.47,2.08-3.99,5.81-.42,2.99.96,6.02,3.54,7.8-.49.28-5.46,3.17-6.04,8.87-.49,4.85,2.41,9.68,7.25,11.85-.21.58-1.01,2.97.15,5.29,1.34,2.69,4.74,4.2,8.32,3.48.62,1.17,2.39,4.16,6.05,5.9,5.95,2.83,11.71-.09,12.4-.45.41.19,8.17,3.69,14.52-.76,3.04-2.13,4.34-5.09,4.84-6.5,1.07-.15,4.2-.72,6.93-3.38,2.97-2.88,3.53-6.33,3.65-7.36.23-.25,4.85-5.41,2.92-11.59-1.11-3.58-3.8-5.5-4.74-6.11.52-1.31,2.03-5.65.43-10.79-1.26-4.07-3.82-6.52-4.97-7.51-.42-1.17-1.58-3.95-4.45-6.22-2.72-2.15-5.51-2.69-6.74-2.86-5.85-.86-11.7-1.71-17.55-2.57-3.78,1.76-7.56,3.53-11.34,5.29-1.26.14-3.93.62-6.45,2.63-4.19,3.33-4.67,8.24-4.74,9.17Z"/>
    </g>
    <g id="Kopf">
      <path class="cls-6" d="M210.06,45.36v2.1c0,3.09-2.52,5.61-5.61,5.61-1.03,0-2-.28-2.83-.79-1.66,8.22-7.33,15.04-14.85,18.31.01.1.01.19.01.29v21.06c0,5.44-4.45,9.89-9.89,9.89s-9.9-4.45-9.9-9.89v-21.15c-7.65-3.16-13.45-9.95-15.23-18.19-.69.3-1.45.47-2.24.47-3.08,0-5.6-2.52-5.6-5.61v-2.1c0-3.08,2.52-5.61,5.6-5.61.58,0,1.14.09,1.67.25v-5.15c0-14,11.46-25.46,25.46-25.46,7.01,0,13.37,2.86,17.99,7.48,4.62,4.62,7.48,10.98,7.48,17.98v5.42c.71-.34,1.5-.52,2.33-.52,1.55,0,2.95.63,3.96,1.65,1.02,1.02,1.65,2.42,1.65,3.96Z"/>
    </g>
    <g id="Schatten">
      <path class="cls-1" d="M186.78,70.6c-1.71.74-4.25,1.62-7.41,1.96-3.34.36-6.12-.01-8-.41,5.14,3.93,10.28,7.86,15.42,11.79,0-4.45,0-8.89,0-13.34Z"/>
      <path class="cls-1" d="M205.28,43.85c.4,0,.96,1.6.53,3.05-.31,1.04-1.15,2.09-1.49,1.95-.65-.26.28-5.01.96-5Z"/>
      <path class="cls-1" d="M148.36,43.85c-.4,0-.96,1.6-.53,3.05.31,1.04,1.15,2.09,1.49,1.95.65-.26-.28-5.01-.96-5Z"/>
    </g>
    <g id="Augenbrauen">
      <path class="cls-9" d="M169.94,32.62c-.75-.2-2.13-.46-3.8-.14-2.09.4-3.48,1.48-4.08,2.01-1.32-.32-1.7-.74-1.78-1.1-.27-1.24,2.71-3.35,5.75-3.77,2.05-.28,4.76.12,5.01,1.21.13.56-.41,1.21-1.1,1.78Z"/>
      <path class="cls-9" d="M191.82,30.46c-.58-.52-1.68-1.38-3.31-1.86-2.04-.61-3.78-.28-4.55-.09-1.03-.89-1.17-1.44-1.08-1.79.33-1.22,3.94-1.73,6.84-.71,1.95.69,4.17,2.29,3.9,3.38-.14.56-.93.89-1.79,1.08Z"/>
    </g>
    <g id="Augen">
      <rect class="cls-5" x="164.43" y="35.1" width="4.07" height="4.78" rx="2.03" ry="2.03"/>
      <rect class="cls-5" x="184.4" y="35.1" width="4.07" height="4.78" rx="2.03" ry="2.03"/>
    </g>
    <g id="Mund">
      <path class="cls-10" d="M185,56.24c.33,3.51-1.84,6.79-5.12,7.83-3.45,1.1-7.28-.52-8.93-3.84,1.63.09,3.84.04,6.37-.55,3.52-.82,6.11-2.34,7.69-3.44Z"/>
    </g>
    <g id="Nase">
      <path class="cls-5" d="M177.13,52.99c-.67,0-1.38-.19-2.05-.56-.06-.03-.08-.11-.05-.17s.11-.08.17-.05c.97.54,2.02.67,2.89.37.47-.16.83-.45.97-.78.34-.82.05-1.63-.9-2.5l-.12-.11c-.48-.44-1.2-1.1-1.56-2.21-.12-.38-.17-.96-.2-1.33v-.16c-.01-.46-.02-.83-.03-1.2,0-.37-.01-.75-.01-1.19,0-.07.06-.12.12-.12s.12.06.12.12c0,.45,0,.82.01,1.19,0,.37.01.75.01,1.19v.16c.04.37.08.92.2,1.28.33,1.04,1.03,1.68,1.49,2.1l.12.11c1.03.94,1.35,1.85.96,2.78-.17.4-.57.73-1.11.92-.33.11-.68.17-1.05.17Z"/>
    </g>
    <g id="Haare-2" data-name="Haare">
      <path class="cls-9" d="M149.56,25.41c2.38,2.32,5.65,2.14,6.3,2.09,1.09,1.2,2.17,1.86,2.89,2.22,3.88,1.95,8.54.95,11.57-1.13,1.02-.7,1.73-1.44,2.16-1.93,1.38.47,3.93,1.11,6.91.39.73-.18,6.08-1.47,7.26-5.67.35-1.23.23-2.35.08-3.1.69.32,3.06,1.31,5.72.44,3.14-1.02,5.82-4.33,5.32-8.12-.42-3.12-2.88-5.7-6.13-6.35-.41-.59-2.32-3.22-6-4.02-3.64-.8-6.46.75-7.08,1.11-1.04-.41-4.44-1.62-8.57-.43-3.95,1.13-6.16,3.76-6.86,4.67-.36-.15-2.86-1.14-5.51.21-2.65,1.35-3.33,3.95-3.42,4.33-.73.28-4.43,1.79-6,5.77-.12.29-2.26,6,1.36,9.53Z"/>
    </g>
    <g id="Brille">
      <path class="cls-7" d="M199.99,31.64h-18.65c-1.81,0-3.28,1.47-3.28,3.28v1.07l-3.47.02v-1.09c0-1.81-1.47-3.28-3.28-3.28h-18.65c-1.81,0-3.28,1.47-3.28,3.28v5.15c0,1.81,1.47,3.28,3.28,3.28h18.65c1.81,0,3.28-1.47,3.28-3.28v-3.06l3.47-.02v3.08c0,1.81,1.47,3.28,3.28,3.28h18.65c1.81,0,3.28-1.47,3.28-3.28v-5.15c0-1.81-1.47-3.28-3.28-3.28ZM173.59,40.07c0,1.26-1.02,2.28-2.28,2.28h-18.65c-1.25,0-2.28-1.02-2.28-2.28v-5.15c0-1.26,1.03-2.28,2.28-2.28h18.65c1.26,0,2.28,1.02,2.28,2.28v5.15ZM202.27,40.07c0,1.26-1.02,2.28-2.28,2.28h-18.65c-1.26,0-2.28-1.02-2.28-2.28v-5.15c0-1.26,1.02-2.28,2.28-2.28h18.65c1.26,0,2.28,1.02,2.28,2.28v5.15Z"/>
    </g>
  </g>
  <g id="Schild">
    <rect class="cls-3" x="5.04" y="137.3" width="349.72" height="84.33" transform="translate(6.77 -6.54) rotate(2.12)"/>
    <g id="Text">
      <path class="cls-10" d="M23.48,165.08l-.17,4.73c.83-.9,1.8-1.33,2.91-1.29.57.02,1.08.15,1.52.37.45.23.78.51,1,.85.22.34.36.71.43,1.11.07.4.09,1.02.06,1.86l-.2,5.47-2.47-.09.18-4.93c.04-.98.01-1.6-.07-1.87-.08-.27-.24-.48-.47-.65-.23-.16-.53-.25-.88-.27-.41-.02-.78.07-1.11.26-.33.19-.58.48-.74.87-.16.4-.26.99-.29,1.77l-.17,4.67-2.47-.09.48-12.88,2.47.09Z"/>
      <path class="cls-10" d="M36.15,169.1l-.07,1.97-1.69-.06-.14,3.76c-.03.76-.03,1.21,0,1.33.03.13.1.23.21.32.11.09.25.13.41.14.23,0,.56-.06,1-.2l.14,1.92c-.58.22-1.24.32-1.96.3-.45-.02-.84-.11-1.2-.27-.35-.16-.61-.37-.77-.61-.16-.24-.26-.57-.31-.97-.04-.29-.05-.87-.01-1.74l.15-4.07-1.13-.04.07-1.97,1.13.04.07-1.85,2.53-1.35-.12,3.29,1.69.06Z"/>
      <path class="cls-10" d="M42.14,169.33l-.07,1.97-1.69-.06-.14,3.76c-.03.76-.03,1.21,0,1.33.03.13.1.23.21.32.11.09.25.13.41.14.23,0,.56-.06,1-.2l.14,1.92c-.58.22-1.24.32-1.96.3-.45-.02-.84-.11-1.2-.27-.35-.16-.61-.37-.76-.61-.16-.24-.26-.57-.31-.97-.04-.29-.05-.87-.01-1.74l.15-4.07-1.13-.04.07-1.97,1.13.04.07-1.85,2.53-1.35-.12,3.29,1.69.06Z"/>
      <path class="cls-10" d="M43.78,169.39l2.3.09-.05,1.37c.32-.46.73-.82,1.25-1.1.52-.27,1.09-.4,1.71-.38,1.08.04,1.99.5,2.71,1.38.72.88,1.06,2.07,1,3.59-.06,1.56-.48,2.75-1.28,3.59-.79.84-1.73,1.23-2.81,1.19-.51-.02-.98-.14-1.39-.36-.41-.22-.84-.59-1.28-1.1l-.17,4.7-2.47-.09.48-12.88ZM46.06,173.98c-.04,1.05.14,1.83.54,2.35s.89.78,1.49.81c.57.02,1.06-.19,1.46-.64.4-.45.62-1.19.65-2.24.04-.98-.13-1.71-.51-2.2-.38-.49-.85-.74-1.43-.77-.6-.02-1.11.19-1.53.64s-.64,1.13-.67,2.05Z"/>
      <path class="cls-10" d="M53.73,176.43l2.49-.29c.09.48.29.86.6,1.12.31.26.76.4,1.34.42.64.02,1.12-.08,1.45-.3.22-.16.34-.37.35-.65,0-.19-.05-.34-.16-.47-.12-.12-.39-.24-.81-.36-1.97-.51-3.22-.96-3.74-1.34-.72-.53-1.06-1.24-1.03-2.14.03-.81.37-1.48,1.03-2,.66-.53,1.66-.77,3-.72,1.28.05,2.22.29,2.82.73.6.44,1.01,1.07,1.21,1.89l-2.34.34c-.09-.37-.27-.65-.54-.86-.27-.2-.66-.31-1.18-.33-.65-.02-1.12.05-1.41.22-.19.12-.29.29-.3.49,0,.18.07.33.23.46.22.17.98.43,2.28.78,1.3.35,2.21.75,2.71,1.2.5.46.73,1.08.71,1.86-.03.85-.42,1.58-1.15,2.16-.74.59-1.81.86-3.21.8-1.27-.05-2.27-.34-2.99-.88-.72-.54-1.18-1.26-1.38-2.15Z"/>
      <path class="cls-10" d="M64.97,179.51l.09-2.47,2.47.09-.09,2.47-2.47-.09ZM65.23,172.65l.09-2.47,2.47.09-.09,2.47-2.47-.09Z"/>
      <path class="cls-10" d="M69.16,179.89l3.68-13.2,1.85.07-3.72,13.2-1.82-.07Z"/>
      <path class="cls-10" d="M74.16,180.07l3.68-13.2,1.85.07-3.72,13.2-1.82-.07Z"/>
      <path class="cls-10" d="M80.09,175.27c.03-.82.26-1.61.69-2.36s1.03-1.32,1.78-1.69c.75-.38,1.59-.55,2.5-.51,1.41.05,2.55.55,3.42,1.5.87.95,1.28,2.12,1.23,3.52-.05,1.41-.55,2.56-1.5,3.46-.94.89-2.11,1.32-3.49,1.26-.85-.03-1.66-.26-2.42-.67-.76-.42-1.33-1-1.71-1.76-.38-.76-.54-1.68-.5-2.75ZM82.62,175.5c-.04.93.16,1.64.58,2.15.42.51.95.77,1.6.8.64.02,1.19-.2,1.65-.68.45-.48.7-1.18.73-2.12.03-.91-.16-1.62-.58-2.13-.42-.51-.95-.77-1.59-.8-.64-.02-1.19.2-1.65.68-.46.48-.7,1.18-.74,2.1Z"/>
      <path class="cls-10" d="M93.83,180.58l-2.47-.09.35-9.33,2.29.08-.05,1.33c.42-.61.78-1.01,1.1-1.2.32-.19.68-.27,1.08-.26.56.02,1.1.2,1.61.53l-.84,2.12c-.41-.28-.79-.43-1.14-.45-.34-.01-.64.07-.89.25s-.45.52-.6,1.01c-.16.49-.26,1.53-.32,3.12l-.11,2.88Z"/>
      <path class="cls-10" d="M106.85,174.49l-2.45.35c-.06-.49-.24-.86-.52-1.12-.28-.26-.65-.39-1.12-.41-.61-.02-1.11.17-1.5.58-.38.41-.59,1.11-.63,2.11-.04,1.11.12,1.9.47,2.37.35.47.85.72,1.47.74.47.02.86-.1,1.17-.36.31-.26.54-.71.68-1.35l2.41.5c-.29,1.1-.81,1.93-1.54,2.47-.74.54-1.7.79-2.9.75-1.36-.05-2.44-.52-3.21-1.41-.78-.89-1.14-2.1-1.08-3.62.06-1.54.51-2.72,1.35-3.55.84-.83,1.96-1.22,3.35-1.16,1.14.04,2.03.32,2.68.83.65.51,1.11,1.28,1.36,2.29Z"/>
      <path class="cls-10" d="M108.48,181.13l.35-9.33,2.47.09-.35,9.33-2.47-.09ZM108.87,170.53l.08-2.28,2.47.09-.08,2.28-2.47-.09Z"/>
      <path class="cls-10" d="M122.03,181.63l-2.29-.08.05-1.37c-.4.52-.86.9-1.39,1.14-.53.24-1.05.35-1.58.33-1.07-.04-1.97-.51-2.71-1.4-.73-.89-1.07-2.11-1.01-3.66.06-1.58.48-2.77,1.25-3.56.77-.8,1.73-1.17,2.87-1.13,1.04.04,1.93.51,2.66,1.4l.17-4.64,2.47.09-.48,12.88ZM115.62,176.52c-.04,1,.07,1.72.33,2.18.38.66.92,1,1.63,1.03.57.02,1.06-.2,1.48-.67.42-.47.64-1.18.68-2.14.04-1.07-.12-1.85-.49-2.34-.37-.49-.86-.74-1.46-.76-.59-.02-1.08.19-1.5.64-.41.45-.64,1.14-.67,2.06Z"/>
      <path class="cls-10" d="M124.46,181.72l.09-2.47,2.47.09-.09,2.47-2.47-.09Z"/>
      <path class="cls-10" d="M129.07,177.09c.03-.82.26-1.61.69-2.36.43-.75,1.03-1.32,1.78-1.69.76-.38,1.59-.55,2.5-.51,1.41.05,2.55.55,3.42,1.5s1.28,2.12,1.22,3.52c-.05,1.41-.55,2.56-1.5,3.46-.94.89-2.11,1.32-3.49,1.26-.85-.03-1.66-.26-2.42-.67-.76-.42-1.33-1-1.71-1.76-.38-.76-.54-1.68-.5-2.75ZM131.59,177.31c-.04.93.16,1.64.58,2.15.42.51.95.77,1.6.8.64.02,1.19-.2,1.65-.68.46-.48.7-1.18.73-2.12.03-.91-.16-1.62-.58-2.13-.42-.51-.95-.77-1.59-.8-.64-.02-1.19.2-1.65.68-.46.48-.7,1.18-.74,2.1Z"/>
      <path class="cls-10" d="M142.81,182.4l-2.47-.09.35-9.33,2.29.08-.05,1.33c.42-.61.78-1.01,1.1-1.2.32-.19.68-.27,1.08-.26.56.02,1.1.2,1.61.53l-.84,2.12c-.41-.28-.79-.43-1.14-.45-.35-.01-.64.07-.89.25s-.45.52-.6,1.01c-.16.49-.26,1.53-.32,3.12l-.11,2.88Z"/>
      <path class="cls-10" d="M147.2,183.18l2.81.45c.04.33.13.56.3.69.23.18.59.29,1.1.3.64.02,1.13-.05,1.46-.24.22-.12.39-.32.51-.61.08-.2.14-.58.16-1.13l.05-1.36c-.77.98-1.72,1.45-2.85,1.41-1.25-.05-2.23-.61-2.92-1.7-.54-.86-.79-1.91-.74-3.16.06-1.56.48-2.74,1.26-3.54.78-.8,1.73-1.18,2.85-1.13,1.15.04,2.09.58,2.8,1.63l.05-1.31,2.31.09-.31,8.37c-.04,1.1-.16,1.92-.36,2.46-.2.54-.47.96-.81,1.25-.34.3-.79.53-1.34.68-.55.16-1.25.22-2.09.19-1.58-.06-2.69-.37-3.33-.94s-.95-1.27-.92-2.1c0-.08,0-.18.02-.3ZM149.6,177.79c-.04.99.13,1.72.5,2.2.37.47.83.72,1.39.74.6.02,1.12-.19,1.55-.65.43-.46.67-1.15.7-2.07.04-.97-.14-1.69-.52-2.17-.38-.48-.88-.74-1.48-.76-.59-.02-1.09.19-1.49.64-.4.45-.62,1.14-.65,2.08Z"/>
      <path class="cls-10" d="M157.11,183.15l3.68-13.2,1.85.07-3.72,13.2-1.82-.07Z"/>
      <path class="cls-10" d="M167.56,170.37c1.25.05,2.21.53,2.88,1.44.8,1.08,1.15,2.85,1.06,5.29-.09,2.44-.58,4.17-1.46,5.21-.73.85-1.72,1.26-2.96,1.21-1.25-.05-2.25-.57-2.98-1.56-.73-.99-1.05-2.72-.96-5.19.09-2.42.58-4.15,1.46-5.19.73-.85,1.72-1.26,2.96-1.21ZM167.48,172.41c-.3-.01-.57.07-.81.26-.24.18-.43.52-.58,1-.19.63-.32,1.7-.37,3.21-.06,1.51-.02,2.55.11,3.12.13.57.31.95.53,1.15.22.2.49.3.78.31.3.01.57-.07.81-.26.24-.18.44-.52.58-1,.19-.63.32-1.69.37-3.21.06-1.51.02-2.55-.11-3.12-.13-.57-.31-.96-.53-1.15-.22-.2-.49-.3-.78-.31Z"/>
      <path class="cls-10" d="M177.56,170.74c1.25.05,2.21.53,2.88,1.44.8,1.08,1.15,2.85,1.06,5.29-.09,2.44-.58,4.17-1.46,5.21-.73.85-1.72,1.26-2.96,1.21-1.25-.05-2.25-.57-2.98-1.56-.73-.99-1.05-2.72-.96-5.19.09-2.42.58-4.15,1.46-5.19.73-.85,1.72-1.26,2.96-1.21ZM177.48,172.78c-.3-.01-.57.07-.81.26-.24.18-.44.52-.58,1-.19.63-.32,1.7-.37,3.21-.06,1.51-.02,2.55.11,3.12.13.57.31.95.53,1.15.22.2.49.3.78.31.3.01.57-.07.81-.26s.44-.52.58-1c.19-.63.32-1.69.37-3.21.06-1.51.02-2.55-.11-3.12-.13-.57-.31-.96-.53-1.15-.22-.2-.49-.3-.78-.31Z"/>
      <path class="cls-10" d="M187.56,171.11c1.25.05,2.21.53,2.88,1.44.8,1.08,1.15,2.85,1.06,5.29-.09,2.44-.58,4.17-1.46,5.21-.73.85-1.72,1.26-2.96,1.21-1.25-.05-2.25-.57-2.98-1.56-.73-.99-1.05-2.72-.96-5.19.09-2.42.58-4.15,1.46-5.19.73-.85,1.72-1.26,2.96-1.21ZM187.49,173.16c-.3-.01-.57.07-.81.26-.24.18-.44.52-.58,1-.19.63-.32,1.7-.37,3.21-.06,1.51-.02,2.55.11,3.12.13.57.31.95.53,1.15.22.2.49.3.78.31.3.01.57-.07.81-.26.24-.18.44-.52.58-1,.19-.63.32-1.69.37-3.21.06-1.51.02-2.55-.11-3.12-.13-.57-.31-.96-.53-1.15-.22-.2-.49-.3-.78-.31Z"/>
      <path class="cls-10" d="M193.08,181.28l2.4-.18c.04.49.18.85.42,1.1s.56.37.96.39c.51.02.95-.2,1.33-.65.38-.46.64-1.42.79-2.89-.65.7-1.44,1.03-2.37.99-1.01-.04-1.87-.46-2.58-1.27-.71-.81-1.04-1.84-.99-3.09.05-1.31.47-2.34,1.28-3.11.8-.77,1.81-1.13,3.01-1.09,1.31.05,2.36.59,3.16,1.63.8,1.04,1.16,2.72,1.07,5.03-.09,2.35-.59,4.04-1.5,5.05-.91,1.01-2.07,1.49-3.46,1.44-1.01-.04-1.81-.34-2.41-.89-.6-.56-.97-1.37-1.11-2.45ZM198.86,176.09c.03-.8-.13-1.42-.48-1.87-.35-.45-.76-.69-1.24-.71-.46-.02-.84.15-1.16.5-.32.35-.49.93-.52,1.75-.03.83.11,1.45.42,1.85s.72.61,1.21.63c.47.02.88-.16,1.22-.52.34-.36.52-.91.55-1.63Z"/>
      <path class="cls-10" d="M203.29,181.2l.09-2.47,4.85.18-.09,2.47-4.85-.18Z"/>
      <path class="cls-10" d="M213.56,172.07c1.25.05,2.21.53,2.88,1.44.8,1.08,1.15,2.85,1.06,5.29-.09,2.44-.58,4.17-1.46,5.21-.73.85-1.72,1.26-2.96,1.21-1.25-.05-2.24-.57-2.98-1.56-.73-.99-1.05-2.72-.96-5.19.09-2.42.58-4.15,1.46-5.19.73-.85,1.72-1.26,2.96-1.21ZM213.49,174.12c-.3-.01-.57.07-.81.26-.24.18-.44.52-.58,1-.19.63-.32,1.7-.37,3.21-.06,1.51-.02,2.55.11,3.12.13.57.31.95.54,1.15.22.2.48.3.78.31.3.01.57-.07.81-.26.24-.18.43-.52.58-1,.19-.63.32-1.69.37-3.21.06-1.51.02-2.55-.11-3.12-.13-.57-.31-.96-.53-1.15-.22-.2-.49-.3-.78-.31Z"/>
      <path class="cls-10" d="M223.56,172.44c1.25.05,2.21.53,2.88,1.44.8,1.08,1.15,2.85,1.06,5.29-.09,2.44-.58,4.17-1.46,5.21-.73.85-1.72,1.26-2.96,1.21-1.25-.05-2.24-.57-2.98-1.56-.73-.99-1.05-2.72-.96-5.19.09-2.42.58-4.15,1.46-5.19.73-.85,1.72-1.26,2.96-1.21ZM223.49,174.49c-.3-.01-.57.07-.81.26-.24.18-.44.52-.58,1-.19.63-.32,1.7-.37,3.21-.06,1.51-.02,2.55.11,3.12.13.57.31.95.54,1.15.22.2.48.3.78.31s.57-.07.81-.26c.24-.18.43-.52.58-1,.19-.63.32-1.69.37-3.21.06-1.51.02-2.55-.11-3.12-.13-.57-.31-.96-.53-1.15-.22-.2-.49-.3-.78-.31Z"/>
      <path class="cls-10" d="M233.57,172.81c1.25.05,2.21.53,2.88,1.44.8,1.08,1.15,2.85,1.06,5.29-.09,2.44-.58,4.17-1.46,5.21-.73.85-1.72,1.26-2.96,1.21-1.25-.05-2.24-.57-2.98-1.56-.73-.99-1.05-2.72-.96-5.19.09-2.42.58-4.15,1.46-5.19.73-.85,1.72-1.26,2.96-1.21ZM233.49,174.86c-.3-.01-.57.07-.81.26-.24.18-.44.52-.58,1-.19.63-.32,1.7-.37,3.21-.06,1.51-.02,2.55.11,3.12.13.57.31.95.54,1.15.22.2.48.3.78.31.3.01.57-.07.81-.26.24-.18.44-.52.58-1,.19-.63.32-1.69.37-3.21.06-1.51.02-2.55-.11-3.12-.13-.57-.31-.96-.53-1.15-.22-.2-.48-.3-.78-.31Z"/>
      <path class="cls-10" d="M239.08,182.98l2.4-.18c.04.49.18.85.42,1.1.24.24.56.37.96.39.51.02.95-.2,1.33-.65.38-.46.64-1.42.79-2.89-.65.7-1.44,1.03-2.37.99-1.01-.04-1.87-.46-2.58-1.27-.71-.81-1.04-1.84-.99-3.09.05-1.31.47-2.34,1.28-3.11.8-.77,1.81-1.13,3.01-1.09,1.31.05,2.36.59,3.16,1.63.8,1.04,1.16,2.72,1.07,5.03-.09,2.35-.59,4.04-1.5,5.05-.91,1.01-2.07,1.49-3.47,1.44-1.01-.04-1.81-.34-2.41-.89-.6-.56-.97-1.37-1.1-2.45ZM244.87,177.8c.03-.8-.13-1.42-.48-1.87s-.76-.69-1.24-.71c-.46-.02-.84.15-1.16.5-.32.35-.49.93-.52,1.75-.03.83.11,1.45.42,1.85.31.4.72.61,1.21.63.47.02.88-.16,1.22-.52.34-.36.52-.91.55-1.63Z"/>
      <path class="cls-10" d="M249.3,182.9l.09-2.47,4.85.18-.09,2.47-4.85-.18Z"/>
      <path class="cls-10" d="M261.23,186.79l-2.47-.09.34-9.3c-.93.81-2.02,1.39-3.26,1.75l.08-2.24c.65-.19,1.37-.56,2.14-1.12.78-.56,1.32-1.23,1.63-2l2,.07-.48,12.93Z"/>
      <path class="cls-10" d="M273.34,184.94l-.08,2.29-8.65-.32c.13-.86.44-1.67.93-2.43.5-.76,1.46-1.75,2.89-2.98,1.15-1,1.86-1.67,2.12-2.03.36-.5.55-.99.57-1.49.02-.55-.11-.98-.4-1.29-.29-.31-.69-.47-1.21-.49-.52-.02-.93.12-1.25.42-.32.3-.51.81-.58,1.53l-2.45-.34c.2-1.35.69-2.31,1.49-2.87.79-.56,1.77-.82,2.93-.78,1.27.05,2.26.43,2.96,1.14.7.71,1.03,1.58,1,2.6-.02.58-.15,1.13-.37,1.64-.23.52-.58,1.05-1.05,1.61-.31.37-.87.9-1.68,1.58-.81.69-1.32,1.14-1.53,1.37-.22.23-.39.45-.53.67l4.9.18Z"/>
      <path class="cls-10" d="M279.57,174.52c1.25.05,2.21.53,2.88,1.44.8,1.08,1.15,2.85,1.06,5.29-.09,2.44-.58,4.17-1.46,5.21-.73.85-1.72,1.26-2.96,1.21-1.25-.05-2.25-.57-2.98-1.56s-1.05-2.72-.96-5.19c.09-2.42.58-4.15,1.46-5.19.73-.85,1.72-1.26,2.96-1.21ZM279.5,176.57c-.3-.01-.57.07-.81.26-.24.18-.44.52-.58,1-.19.63-.32,1.7-.37,3.21-.06,1.51-.02,2.55.11,3.12.13.57.31.95.54,1.15.22.2.49.3.78.31.3.01.57-.07.81-.26.24-.18.44-.52.58-1,.19-.63.32-1.69.37-3.21.06-1.51.02-2.55-.11-3.12-.13-.57-.31-.96-.53-1.15-.22-.2-.49-.3-.78-.31Z"/>
      <path class="cls-10" d="M293.35,185.68l-.08,2.29-8.65-.32c.13-.86.44-1.67.93-2.43.5-.76,1.46-1.75,2.89-2.98,1.15-1,1.86-1.67,2.12-2.03.36-.5.55-.99.57-1.49.02-.55-.11-.98-.4-1.29-.29-.31-.69-.47-1.21-.49-.51-.02-.93.12-1.25.42-.32.3-.51.81-.58,1.53l-2.45-.34c.2-1.35.69-2.31,1.49-2.87s1.77-.82,2.93-.78c1.27.05,2.26.43,2.96,1.14.7.71,1.03,1.58.99,2.6-.02.58-.15,1.13-.37,1.64-.23.52-.58,1.05-1.05,1.61-.31.37-.87.9-1.68,1.58-.81.69-1.32,1.14-1.53,1.37-.22.23-.39.45-.53.67l4.9.18Z"/>
      <path class="cls-10" d="M295.3,184.61l.09-2.47,4.85.18-.09,2.47-4.85-.18Z"/>
      <path class="cls-10" d="M301.08,185.28l2.4-.18c.04.49.18.85.42,1.1.24.24.56.37.96.39.51.02.95-.2,1.33-.65.38-.46.64-1.42.79-2.89-.65.7-1.44,1.03-2.37.99-1.01-.04-1.87-.46-2.58-1.27-.71-.81-1.04-1.84-.99-3.09.05-1.31.47-2.34,1.28-3.11.8-.77,1.81-1.13,3.01-1.09,1.31.05,2.36.59,3.16,1.63.8,1.04,1.16,2.72,1.07,5.03-.09,2.35-.59,4.04-1.5,5.05-.91,1.01-2.07,1.49-3.47,1.44-1.01-.04-1.81-.34-2.41-.89-.6-.56-.97-1.37-1.1-2.45ZM306.87,180.1c.03-.8-.13-1.42-.48-1.87-.35-.45-.76-.69-1.24-.71-.46-.02-.84.15-1.16.5s-.49.93-.52,1.75c-.03.83.11,1.45.42,1.85.31.4.72.61,1.21.63.47.02.88-.16,1.22-.52.34-.36.52-.91.55-1.63Z"/>
      <path class="cls-10" d="M319.34,186.64l-.08,2.29-8.65-.32c.12-.86.44-1.67.93-2.43s1.46-1.75,2.89-2.98c1.15-1,1.86-1.67,2.12-2.03.36-.5.55-.99.57-1.49.02-.55-.11-.98-.4-1.29-.29-.31-.69-.47-1.21-.49-.52-.02-.93.12-1.25.42-.32.3-.51.81-.58,1.53l-2.45-.34c.2-1.35.69-2.31,1.49-2.87s1.77-.82,2.93-.78c1.27.05,2.26.43,2.96,1.14.7.71,1.03,1.58.99,2.6-.02.58-.15,1.13-.37,1.64-.23.52-.58,1.05-1.05,1.61-.31.37-.87.9-1.68,1.58s-1.32,1.14-1.53,1.37c-.22.23-.39.45-.53.67l4.9.18Z"/>
      <path class="cls-10" d="M325.77,189.18l.1-2.59-5.27-.2.08-2.16,5.89-7.97,2.07.08-.3,8.17,1.6.06-.08,2.17-1.6-.06-.1,2.59-2.39-.09ZM325.94,184.42l.16-4.4-3.12,4.29,2.96.11Z"/>
      <path class="cls-10" d="M339.35,187.38l-.08,2.29-8.65-.32c.12-.86.44-1.67.93-2.43.5-.76,1.46-1.75,2.89-2.98,1.15-1,1.86-1.67,2.12-2.03.36-.5.55-.99.57-1.49.02-.55-.11-.98-.4-1.29-.29-.31-.69-.47-1.21-.49-.52-.02-.93.12-1.25.42s-.51.81-.58,1.53l-2.45-.34c.2-1.35.69-2.31,1.49-2.87.79-.56,1.77-.82,2.93-.78,1.27.05,2.26.43,2.96,1.14.7.71,1.03,1.58.99,2.6-.02.58-.15,1.13-.37,1.64-.23.52-.58,1.05-1.05,1.61-.31.37-.87.9-1.68,1.58-.81.69-1.32,1.14-1.53,1.37-.22.23-.39.45-.53.67l4.9.18Z"/>
    </g>
  </g>
  <g id="Hände">
    <path class="cls-6" d="M8.6,153.03c-1.39-.24-2.79-.26-4.03-.05-3.82.65-4.12,4.18-4.29,7.39-.15,2.66-.96,6.56,1.21,8.59,1.01.94,2.38,1.43,3.74,1.64,5.47.8,11.51-3,11.53-8.89,0-3.14-1.78-5.22-2.32-5.8-1.41-1.51-3.6-2.49-5.83-2.88Z"/>
    <path class="cls-6" d="M351.78,158.21c1.4-.1,2.8.02,4.02.36,3.73,1.03,3.67,4.58,3.52,7.79-.13,2.66.29,6.62-2.08,8.42-1.1.84-2.51,1.18-3.89,1.24-5.52.24-11.14-4.16-10.56-10.02.31-3.12,2.3-5.01,2.9-5.53,1.56-1.36,3.84-2.11,6.1-2.27Z"/>
  </g>
</svg>