<?xml version="1.0" encoding="UTF-8"?>
<svg id="G-0148_BUW_Gruppe_Love_Repositorium_Frau" xmlns="http://www.w3.org/2000/svg" viewBox="0 0 296.89 507">
  <defs>
    <style>
      .cls-1 {
        fill: #42210b;
      }

      .cls-1, .cls-2, .cls-3, .cls-4, .cls-5, .cls-6, .cls-7, .cls-8, .cls-9, .cls-10, .cls-11, .cls-12, .cls-13, .cls-14 {
        stroke-width: 0px;
      }

      .cls-2 {
        fill: #a5678d;
      }

      .cls-15 {
        fill: none;
        stroke: #000;
        stroke-linecap: round;
        stroke-miterlimit: 10;
        stroke-width: .25px;
      }

      .cls-3 {
        fill: #dddddc;
      }

      .cls-4 {
        fill: #64abd6;
      }

      .cls-5 {
        fill: #873567;
      }

      .cls-6 {
        fill: #c39ab3;
      }

      .cls-7 {
        fill: #000;
      }

      .cls-8 {
        fill: #b47d49;
      }

      .cls-9 {
        fill: #236289;
      }

      .cls-10 {
        fill: #b9ddf3;
      }

      .cls-11 {
        fill: #e4c769;
      }

      .cls-12 {
        fill: #fff;
      }

      .cls-13 {
        fill: #e1ccd9;
      }

      .cls-14 {
        fill: #dec1a8;
      }
    </style>
  </defs>
  <g id="Gesicht">
    <path class="cls-1" d="M144.13,33.32c.99-5.84,2.85-15.55,11.38-23.58,7.47-7.02,16.2-8.77,18.58-9.19,3.68-.64,11.66-1.46,20.45,2.25,10.84,4.56,15.91,13.13,17.74,16.33,12.3,21.52,2.58,52.39-8.67,55.02-.96.23-2.35.37-5.09.15-5.05-.39-8.03-2.42-17-2.6-13.55-.28-17.98,5.69-26.06,2.59-11.58-4.45-13.72-26.89-11.33-40.97Z"/>
    <g id="Kopf">
      <path class="cls-14" d="M210.1,39v1.97c0,2.88-2.36,5.25-5.25,5.25-.97,0-1.89-.27-2.67-.74-1.56,7.69-6.85,14.07-13.89,17.14.01.09.01.18.01.27v19.72c0,5.09-4.17,9.26-9.26,9.26s-9.26-4.17-9.26-9.26v-19.8c-7.16-2.96-12.6-9.31-14.27-17.03-.64.28-1.35.44-2.09.44-2.89,0-5.25-2.37-5.25-5.25v-1.97c0-2.89,2.36-5.25,5.25-5.25.54,0,1.06.08,1.55.24v-4.83c0-13.12,10.73-23.85,23.85-23.85,6.55,0,12.51,2.68,16.84,7.01,4.32,4.32,7,10.28,7,16.84v5.08c.67-.32,1.41-.49,2.19-.49,1.44,0,2.76.59,3.71,1.54.95.95,1.54,2.27,1.54,3.71Z"/>
    </g>
    <g id="Schatten">
      <path class="cls-8" d="M205.61,37.58c.37,0,.9,1.5.49,2.86-.29.98-1.08,1.96-1.39,1.83-.61-.25.26-4.69.9-4.68Z"/>
      <path class="cls-8" d="M188.18,62.66c-1.42.63-3.37,1.32-5.75,1.7-2.78.44-5.15.3-6.83.07,4.22,3.14,8.44,6.28,12.65,9.42,0-1.04,0-1.94,0-2.67,0-.6,0-.65,0-3.35,0-1.88,0-2.07,0-2.48-.01-1.14-.04-2.07-.07-2.69Z"/>
      <path class="cls-8" d="M152.32,37.58c-.37,0-.9,1.5-.49,2.86.29.98,1.08,1.96,1.39,1.83.61-.25-.26-4.69-.9-4.68Z"/>
    </g>
    <g id="Augenbrauen">
      <path class="cls-1" d="M192.37,28.85c-.64-.34-1.84-.88-3.43-.95-1.99-.09-3.49.59-4.16.95-1.13-.58-1.39-1.04-1.39-1.39.02-1.19,3.19-2.46,6.05-2.19,1.93.19,4.31,1.14,4.3,2.19,0,.54-.64,1.02-1.39,1.39Z"/>
      <path class="cls-1" d="M172.88,28.79c-.64-.34-1.84-.88-3.43-.95-1.99-.09-3.49.59-4.16.95-1.13-.58-1.39-1.04-1.39-1.39.02-1.19,3.19-2.46,6.05-2.19,1.93.19,4.31,1.14,4.3,2.19,0,.54-.64,1.02-1.39,1.39Z"/>
    </g>
    <g id="Augen">
      <rect class="cls-7" x="167.4" y="30.4" width="3.81" height="4.47" rx="1.9" ry="1.9"/>
      <rect class="cls-7" x="186.46" y="30.34" width="3.81" height="4.47" rx="1.9" ry="1.9"/>
    </g>
    <g id="Mund">
      <path class="cls-12" d="M171.66,50.34c.13.45,1.16,3.86,4.46,5.17,3.13,1.25,6.99.09,9.32-2.96-1.84.37-4.96.73-8.61-.16-2.17-.52-3.91-1.33-5.17-2.05Z"/>
    </g>
    <g id="Nase">
      <path class="cls-15" d="M179.23,37.47c0,.84.03,1.39.03,2.23.03.32.06.98.19,1.38.35,1.1,1.12,1.73,1.54,2.12,1.1,1,1.14,1.82.87,2.47-.36.86-2.05,1.39-3.77.44"/>
    </g>
    <g id="Haare">
      <path class="cls-1" d="M206.58,32.49c-.78-.06-1.56-.13-2.34-.19-2.11-.96-5.17-2.67-8.07-5.66-4.8-4.96-6.38-10.51-6.94-13.11-6.25,9.42-11.72,12.03-15.72,12.54-4.5.57-8.78-.97-12.53,2.12-2.13,1.75-2.53,3.72-5.42,5.37-2.35,1.33-4.76,1.55-6.4,1.54.2-3,.84-7.45,2.89-12.43.79-1.89,2.11-5.04,4.68-8.28,7.05-8.92,17.34-10.82,18.69-11.05,7.06-1.2,12.8.44,15.65,1.49-.04.21-.09.42-.13.63,2.52.66,8.59,2.77,12.74,8.92,5.48,8.13,3.26,16.83,2.9,18.11Z"/>
    </g>
  </g>
  <g id="Körper">
    <path class="cls-14" d="M258.34,490.57c-1.51-24.12-3.37-48.79-5.65-73.99-2.81-30.98-6.08-61.09-9.72-90.29-.01-.04-.01-.09-.02-.13.02-.08.02-.14.02-.22,0-.07,0-.15,0-.22.15-14.24-.03-26.24-.24-35.13-1.55-59.6-13.29-90.08-18.92-99.02-.32-.5-.61-.98-.84-1.34-.11-.22-.24-.4-.37-.58-4.87-9.72-9.73-19.44-14.59-29.17,3.11-26.83,6.22-53.67,9.33-80.5-10.71-.18-22.87.23-36.16,1.75-14.25,1.62-26.97,4.18-37.92,7,7,23.92,14,47.83,21,71.75l-18.67,29.17.12.1c-.16.13-.29.29-.42.45v.02c-.37.78-.82,1.53-.82,1.53-18.66,31.61-13.13,110.18-13.13,110.18.48,6.5,1.24,15.79,2.63,26.97,0,.31.01.62.03.92v.06c.01.26.04.52.07.77,0,.03.01.06.01.09-.62,29.69-.79,60.17-.45,91.39.25,23.07.77,45.71,1.53,67.92-.03.26-.05.52-.05.78-1.95.76-3.15,1.81-3.15,2.96,0,1.62,2.39,3.03,5.92,3.75,1.62.34,3.47.53,5.45.53s4.02-.21,5.69-.58c3.4-.74,5.69-2.12,5.69-3.7,0-1.05-.99-2.01-2.64-2.75.05-.28.08-.54.1-.77,1.11-8.02,2.84-20.48,4.93-35.76,2.11-15.42,3.43-22.69,4.74-34.8,3.63-33.58,4.1-64.15,3-90.81,5.16-36.68,10.31-73.39,15.47-110.07h.01s6.18,0,6.18,0c.18.19.4.35.63.48,8.34,36.08,16.66,72.16,25,108.23-.01-.17-.02-.33-.03-.5h.05c-.04-.43-.06-.87-.06-1.31,0-.66.04-1.32.13-1.96-.08.64-.12,1.3-.12,1.96,0,.44.03.89.05,1.31.03.38.07.76.13,1.13l-.15-.63c1.76,26.54,5.38,56.72,12.23,89.55,5.74,27.5,12.78,52.3,20.15,74.16-2.04.77-3.3,1.85-3.3,3.02,0,1.35,1.65,2.55,4.24,3.33,1.95.59,4.43.95,7.14.95,2.2,0,4.25-.23,5.98-.65,3.24-.74,5.39-2.09,5.39-3.63s-2.26-2.95-5.63-3.69ZM212.3,328.16h.02c.36,2.3,1.23,4.44,2.49,6.28-1.28-1.84-2.15-3.98-2.51-6.28Z"/>
    <path class="cls-14" d="M227.38,88.05c.44,1.2.64,2.49.64,2.49.13.83.18,1.67.16,2.49h-.02s.02.06.01.12c-.56,24.11-1.11,48.25-1.69,72.39,0,.08.02.2,0,.29,0,.31.01.65,0,.98-.27,3.57-2.53,6.77-6.04,8.04-4.82,1.75-10.18-.83-11.98-5.77-.29-.81-.48-1.63-.53-2.47,0,0-.02-.22-.04-.33-1.71-24.26-3.38-48.51-5.06-72.78,0-.31-.04-.65-.07-.95,0-.06-.01-.11,0-.17.34-5.13,3.24-9.66,7.58-11.53,8.27-3.57,16.22,4.91,17.05,7.2Z"/>
    <g id="Schuhe">
      <path class="cls-1" d="M158.06,504.03v2.97h-58.73v-2.97s.47-2.79,15.37-7.1c6.87-1.97,12.16-4.47,17.55-5.97,2.34.95,6.18,2.16,11.05,2.24,5.26.05,9.39-1.26,11.79-2.24.74,1.61,1.55,3.66,2.13,6.08.63,2.71.84,5.13.84,7Z"/>
      <path class="cls-1" d="M238.16,504.03v2.97h58.73v-2.97s-.47-2.79-15.37-7.1c-6.87-1.97-12.16-4.47-17.55-5.97-2.34.95-6.18,2.16-11.05,2.24-5.26.05-9.39-1.26-11.79-2.24-.74,1.61-1.55,3.66-2.13,6.08-.63,2.71-.84,5.13-.84,7Z"/>
    </g>
    <g id="Hose">
      <path class="cls-5" d="M261.17,472.69c-3.22-.59-8.34-1.13-14.44,0-5.19.97-9.22,2.78-11.89,4.25-4.05-17.77-9.9-44.5-16.15-77.32-5.85-30.74-8.04-45.69-12.55-70.46-4.56-25.08-11.63-60.82-22.18-104.41l-2.4-64.64,2.4.03c8.13-.02,16.27-.04,24.4-.06,14.35,18.26,21.75,34.75,25.78,46.02,7.11,19.84,9.08,39.86,12.84,79.92,1.3,13.9,2.38,25.77,3.21,35.21.7,7.69,1.37,15.4,2.03,23.13,3.67,43.33,6.63,86.13,8.94,128.34Z"/>
      <path class="cls-2" d="M183.96,224.75c-3.51,33.04-7.01,66.11-10.5,99.19-5.37,51.02-10.68,102.02-15.96,153.01-3.76-.97-8.51-1.85-14.02-2.12-5.83-.29-10.89.19-14.87.84-2.02-65.52-3.32-114.39-3.56-131.32-.1-7.19-.15-13.95-.15-13.95-.05-8.3-.05-19.59.15-32.73.58-37.28.84-55.94,4.08-70.58,3.48-15.7,11.77-40.04,34.42-67.09l18.02.11,2.4,64.64Z"/>
    </g>
    <g id="Oberteil">
      <path class="cls-13" d="M181.57,160.21c-5.98,0-12-.03-18-.03l-20.3-71.46c7.56-1.82,15.13-3.63,22.69-5.45,1.52,2.44,3.77,5.48,7.01,8.46,2.19,2.02,4.35,3.56,6.23,4.72.79,21.25,1.58,42.5,2.38,63.76Z"/>
      <path class="cls-6" d="M217.35,79.98l-9.3,80.29c-8.01-.03-16.03-.03-24.06-.05h-2.41l-2.38-63.76.14.13c1.82-1.8,3.77-3.94,5.7-6.44,2.58-3.32,4.55-6.53,6.05-9.35,4.17-.53,8.77-.92,13.74-1.05,4.48-.12,8.67-.02,12.51.23Z"/>
    </g>
  </g>
  <g id="Repositorium">
    <g id="Repositorium-2" data-name="Repositorium">
      <path class="cls-9" d="M31.13,124.55l-.58,2.55-.57,2.51c-3.2-1.55-4.86-2.81-4.68-3.7v-.02c.21-.89,2.25-1.32,5.83-1.34Z"/>
      <path class="cls-9" d="M189.38,163.13v.02c-.24.88-2.29,1.3-5.84,1.32l.57-2.51.58-2.55c3.22,1.56,4.89,2.83,4.69,3.72Z"/>
      <path class="cls-9" d="M16.34,189.74l-.58,2.54-.57,2.52c-3.05-1.48-4.7-2.7-4.7-3.58,0-.04,0-.09.01-.13v-.02c.21-.88,2.26-1.31,5.84-1.33Z"/>
      <path class="cls-9" d="M174.58,228.32v.02c-.23.87-2.28,1.3-5.83,1.32l.57-2.51.58-2.55c3.22,1.55,4.88,2.83,4.68,3.72Z"/>
      <path class="cls-4" d="M187.86,145.44l-3.17,13.97-.58,2.55-.57,2.51c-12.32.05-42.72-4.83-77.83-12.8-35.12-7.97-64.65-16.7-75.73-22.06l.57-2.51.58-2.55,3.18-13.98c11.1,5.37,40.62,14.1,75.72,22.07,35.11,7.97,65.5,12.85,77.83,12.8Z"/>
      <path class="cls-4" d="M173.07,210.62l-3.17,13.98-.58,2.55-.57,2.51c-12.32.05-42.72-4.83-77.84-12.8-35.11-7.97-64.63-16.69-75.72-22.06l.57-2.52.58-2.54,3.17-13.98c11.1,5.37,40.62,14.1,75.73,22.07,35.12,7.97,65.52,12.84,77.83,12.79Z"/>
      <path class="cls-10" d="M174.58,228.34l-10.47,46.13c-.9,3.96-40.68,2.16-85.99-8.12C32.81,256.06-.87,241.18.02,237.22l10.48-46.13s-.01.09-.01.13c0,.88,1.65,2.1,4.7,3.58,11.09,5.37,40.61,14.09,75.72,22.06,35.12,7.97,65.52,12.85,77.84,12.8,3.55-.02,5.6-.45,5.83-1.32Z"/>
      <path class="cls-10" d="M204.18,97.97l-10.48,46.13c-.21.89-2.26,1.32-5.84,1.34-12.33.05-42.72-4.83-77.83-12.8-35.1-7.97-64.62-16.7-75.72-22.07-3.22-1.55-4.89-2.83-4.69-3.72l10.47-46.13h0c-.79,3.97,35.17,15.5,80.41,25.77s82.65,15.4,83.66,11.48h.01Z"/>
      <path class="cls-10" d="M189.38,163.15l-10.48,46.14c-.2.88-2.25,1.32-5.83,1.33-12.31.05-42.71-4.82-77.83-12.79-35.11-7.97-64.63-16.7-75.73-22.07-3.22-1.56-4.89-2.83-4.69-3.72l10.48-46.13c-.18.89,1.48,2.15,4.68,3.7,11.08,5.36,40.61,14.09,75.73,22.06,35.11,7.97,65.51,12.85,77.83,12.8,3.55-.02,5.6-.44,5.83-1.32h.01Z"/>
      <path class="cls-9" d="M204.18,97.95v.02c-1.02,3.92-38.43-1.21-83.67-11.48s-81.2-21.8-80.41-25.77v-.02c.9-3.96,37.97,3.22,83.27,13.5,45.31,10.29,81.7,19.79,80.81,23.75Z"/>
    </g>
    <g id="Krone">
      <polygon class="cls-11" points="108.6 23.19 111.31 81.93 31.29 85.62 28.58 26.88 49.55 46.95 68.59 25.03 89.56 45.11 108.6 23.19"/>
      <circle class="cls-3" cx="50.37" cy="64.66" r="3.3"/>
      <circle class="cls-3" cx="90.35" cy="62.81" r="3.3"/>
      <circle class="cls-3" cx="70.37" cy="63.74" r="3.3"/>
    </g>
  </g>
  <g id="Arme">
    <path class="cls-14" d="M218.84,176.27c-1.37.29-2.74.27-4.02-.01h-.03c-22.96-.94-45.93-1.88-68.89-2.82-1.66.34-3.96.73-6.74.92-3.28.22-6.26.42-9.75-.39-4.07-.94-10.55-3.65-10.8-7.42-.02-.19-.08-1.32.62-2.29,1.22-1.71,3.9-1.67,7.62-1.56,1.74.05,4.1.23,6.88.78-.45-.19-1.15-.48-1.97-.91-1.99-1.03-3.31-1.73-3.47-2.87-.02-.13-.11-.8.3-1.32.33-.43,1.21-1.04,8.82.82,1.87.45,2.95.72,4.46,1.23,1.92.66,3.53,1.37,4.81,2,.37.03.74.05,1.11.07,10.99-1.11,22.35-2.07,34.05-2.85,11.6-.77,22.89-1.31,33.85-1.66l.1-.02c.43-.02.86-.03,1.29-.04h.24c4.08.18,7.71,3.08,8.62,7.27,1.1,5.01-2.09,9.97-7.1,11.07Z"/>
    <path class="cls-14" d="M45.56,146.54c-2.41,3.69-10.55,2.75-15.23,1.39-4-1.17-6.92-3.08-10.13-5.17,0,0-1.67-.91-3.63-2.57-1.21-1.03-1.8-1.73-2.23-2.58-.1-.2-.19-.4-.27-.59-.01-.01-.01-.03-.02-.05-.11-.32-.28-.88-.4-1.61h0c-.18-1.13-.23-2.65.29-4.34.23-.76,1.04-3.03,3.24-4.71,3.91-2.97,8.75-1.43,9.22-1.27-.24.09-.4.14-.53.22-.15.1-.24.15-.35.26-.15.14-.19.29-.22.39-.08.35-.16.7-.24,1.05.55.07,1.05.14,1.52.21.47.07,5.3.83,10.8,2.97,1.59.62,3.44,1.43,3.57,2.74.07.71-.38,1.28-.45,1.36-.54.66-1.44.86-4.49.78-1.07-.02-2.46-.08-4.09-.23,3.15,1.03,5.65,2.2,7.44,3.13,3.86,2.02,6.6,3.5,6.87,5.94.16,1.38-.55,2.5-.67,2.68Z"/>
  </g>
</svg>