<?xml version="1.0" encoding="UTF-8"?>
<svg id="G-0161_BUW_DOI_Vergabe_Repo" xmlns="http://www.w3.org/2000/svg" xmlns:xlink="http://www.w3.org/1999/xlink" viewBox="0 0 941.1 556.81">
  <defs>
    <style>
      .cls-1 {
        fill: #42210b;
      }

      .cls-1, .cls-2, .cls-3, .cls-4, .cls-5, .cls-6, .cls-7, .cls-8, .cls-9, .cls-10, .cls-11, .cls-12, .cls-13, .cls-14, .cls-15, .cls-16, .cls-17, .cls-18, .cls-19, .cls-20, .cls-21, .cls-22, .cls-23, .cls-24, .cls-25, .cls-26, .cls-27, .cls-28, .cls-29, .cls-30, .cls-31, .cls-32 {
        stroke-width: 0px;
      }

      .cls-2 {
        fill: #a5678d;
      }

      .cls-3 {
        fill: #206289;
      }

      .cls-4 {
        fill: #2c8ec8;
      }

      .cls-5 {
        fill: #dec1a8;
      }

      .cls-33 {
        stroke: #000;
        stroke-linecap: round;
        stroke-width: .25px;
      }

      .cls-33, .cls-34 {
        fill: none;
        stroke-miterlimit: 10;
      }

      .cls-6 {
        fill: #dddddc;
      }

      .cls-7 {
        fill: #64abd6;
      }

      .cls-8 {
        fill: #e6710a;
      }

      .cls-34 {
        stroke: #236289;
      }

      .cls-9 {
        fill: #e0bf70;
      }

      .cls-10 {
        fill: #873567;
      }

      .cls-11 {
        fill: #c39ab3;
      }

      .cls-12 {
        fill: #000;
      }

      .cls-13 {
        fill: #73bbe7;
      }

      .cls-14 {
        fill: #fcd9bd;
      }

      .cls-15 {
        fill: #96cced;
      }

      .cls-16 {
        fill: #b47d49;
      }

      .cls-17 {
        fill: #236289;
      }

      .cls-18 {
        fill: #b9ddf3;
      }

      .cls-19 {
        fill: url(#Unbenannter_Verlauf_4);
      }

      .cls-20 {
        fill: url(#Unbenannter_Verlauf_3);
      }

      .cls-21 {
        fill: #ec9447;
      }

      .cls-22 {
        fill: #b9ddf3;
      }

      .cls-23 {
        fill: #98c7e4;
      }

      .cls-24 {
        fill: #603813;
      }

      .cls-25 {
        fill: #ccc;
      }

      .cls-26 {
        fill: #cbe3f1;
      }

      .cls-27 {
        fill: #f9dbc2;
      }

      .cls-28 {
        fill: #08c;
      }

      .cls-29 {
        fill: #fff;
      }

      .cls-30 {
        fill: #e1ccd9;
      }

      .cls-31 {
        fill: #dec1a8;
      }

      .cls-32 {
        fill: #f2b885;
      }
    </style>
    <linearGradient id="Unbenannter_Verlauf_3" data-name="Unbenannter Verlauf 3" x1="590.14" y1="181.91" x2="963.07" y2="181.91" gradientUnits="userSpaceOnUse">
      <stop offset="0" stop-color="#ccc"/>
      <stop offset=".1" stop-color="rgba(206, 206, 206, .96)" stop-opacity=".96"/>
      <stop offset=".26" stop-color="rgba(211, 211, 211, .85)" stop-opacity=".85"/>
      <stop offset=".46" stop-color="rgba(221, 221, 221, .66)" stop-opacity=".66"/>
      <stop offset=".69" stop-color="rgba(234, 234, 234, .41)" stop-opacity=".41"/>
      <stop offset=".94" stop-color="rgba(250, 250, 250, .08)" stop-opacity=".08"/>
      <stop offset="1" stop-color="#fff" stop-opacity="0"/>
    </linearGradient>
    <linearGradient id="Unbenannter_Verlauf_4" data-name="Unbenannter Verlauf 4" x1="-12.28" y1="370.9" x2="367.25" y2="370.9" gradientUnits="userSpaceOnUse">
      <stop offset="0" stop-color="#fff" stop-opacity="0"/>
      <stop offset=".06" stop-color="rgba(250, 250, 250, .08)" stop-opacity=".08"/>
      <stop offset=".31" stop-color="rgba(234, 234, 234, .41)" stop-opacity=".41"/>
      <stop offset=".54" stop-color="rgba(221, 221, 221, .66)" stop-opacity=".66"/>
      <stop offset=".74" stop-color="rgba(211, 211, 211, .85)" stop-opacity=".85"/>
      <stop offset=".9" stop-color="rgba(206, 206, 206, .96)" stop-opacity=".96"/>
      <stop offset="1" stop-color="#ccc"/>
    </linearGradient>
  </defs>
  <g id="Hintergrund:_Rechts" data-name="Hintergrund: Rechts">
    <path class="cls-20" d="M941.1,0v363.82c-4.07-4.11-8.82-8.49-14.3-12.89-9.16-7.35-19.89-15.97-33.59-20.95-26.68-9.7-33.42,5.7-66.92-2.07-6.74-1.56-24.98-5.7-42.54-19.06-6.06-4.61-11.98-9.78-17.96-14.76-10.48-8.76-21.12-16.86-32.81-20.09-1.62-.46-3.23-.79-4.83-1.04-15.57-2.47-30.64,3.58-45.18,9.05-10.68,4-21.09,6.86-31.42,8.25-.22.03-.44.06-.66.09-.01,0-12.74,1.55-24.25.28-9.06-1.01-29.55-8.09-51.67-25.17-2.27-9.15-4.54-18.3-6.8-27.44,9.1-5.05,21.29-12.51,34.76-22.97,17.1-13.26,27.52-19.76,35.71-33.38,23.29-38.77,40.56-68.92,87.6-63.63,18.69,2.1,44.07-4.65,58.2-8.25,36.44-9.32,42.66-36.28,81.17-68.12,15.82-13.1,39.94-29.35,75.49-41.67Z"/>
  </g>
  <g id="Zenodo">
    <path class="cls-8" d="M897.11,143.73c-12.41.05-23.83,6.29-29.79,16.35-8.2,13.83-1.85,27.72-1.15,29.18-21.47-13.65-32.54-13.29-38.71-10.16-10.54,5.33-18,24.36-18.02,24.35,0,0,0,0,0,0-.85-2.35-6.2-16.33-22.02-22.84-19.15-7.89-36.58,2.19-38.06,3.08,0,0,9.94-12.26,7.86-20.77-3.09-12.66-35.45-19.2-35.45-19.2,0,0,20.55-.12,28.14-10.13,8.03-10.59,1.53-31.94,1.53-31.94,0,0,20.6,13.55,34.48,9.54,14.16-4.08,23.52-27.2,23.52-27.2,0,0,7.99,20.3,20.93,24.53,14.08,4.61,37.77-9.17,37.77-9.17-1.07,3.48-3.19,12.19.59,21.88,6.84,17.54,26.69,22.12,28.38,22.49Z"/>
    <path class="cls-21" d="M888.65,143.73c-11.21.05-21.53,5.69-26.92,14.77-7.4,12.49-1.67,25.04-1.03,26.36-19.39-12.34-29.4-12-34.98-9.18-9.52,4.82-16.27,22.01-16.28,22,0,0,0,0,0,0-.77-2.12-5.6-14.75-19.9-20.64-17.3-7.13-33.05,1.98-34.39,2.78,0,0,8.98-11.08,7.1-18.76-2.79-11.44-32.03-17.34-32.03-17.34,0,0,18.57-.11,25.42-9.15,7.25-9.57,1.38-28.86,1.38-28.86,0,0,18.61,12.24,31.15,8.62,12.79-3.69,21.25-24.57,21.25-24.57,0,0,7.22,18.34,18.91,22.16,12.72,4.16,34.13-8.28,34.13-8.28-.97,3.14-2.88,11.01.53,19.76,6.18,15.85,24.11,19.99,25.64,20.32Z"/>
    <g>
      <path class="cls-29" d="M757.84,148.24v-1.71l3.1-3.56c.51-.58.89-1,1.13-1.24-.25.02-.59.03-1.01.03l-2.92.02v-1.82h6.84v1.55l-3.17,3.65-1.12,1.21c.61-.04.99-.05,1.13-.05h3.39v1.93h-7.39Z"/>
      <path class="cls-29" d="M771.49,145.61l2.18.37c-.28.8-.72,1.41-1.33,1.83s-1.36.63-2.27.63c-1.44,0-2.5-.47-3.2-1.41-.55-.75-.82-1.7-.82-2.85,0-1.37.36-2.45,1.08-3.22.72-.78,1.62-1.17,2.72-1.17,1.23,0,2.2.41,2.92,1.22s1.05,2.06,1.02,3.74h-5.49c.02.65.19,1.16.53,1.52.34.36.76.54,1.26.54.34,0,.63-.09.87-.28.23-.19.41-.49.53-.9ZM771.62,143.39c-.02-.63-.18-1.12-.49-1.45s-.69-.5-1.14-.5c-.48,0-.87.17-1.18.52-.31.35-.46.82-.46,1.42h3.27Z"/>
      <path class="cls-29" d="M783.11,148.24h-2.19v-4.23c0-.89-.05-1.47-.14-1.73s-.25-.47-.46-.61c-.21-.15-.46-.22-.76-.22-.38,0-.72.1-1.02.31-.3.21-.51.48-.62.83-.11.34-.17.98-.17,1.9v3.75h-2.19v-8.28h2.03v1.22c.72-.94,1.63-1.4,2.73-1.4.48,0,.92.09,1.33.26.4.17.7.4.91.67.21.27.35.58.43.92.08.34.12.83.12,1.47v5.15Z"/>
      <path class="cls-29" d="M784.83,143.98c0-.73.18-1.43.54-2.11.36-.68.87-1.2,1.52-1.56s1.39-.54,2.2-.54c1.25,0,2.28.41,3.08,1.22.8.81,1.2,1.84,1.2,3.08s-.4,2.29-1.21,3.11c-.81.82-1.83,1.24-3.05,1.24-.76,0-1.48-.17-2.17-.51s-1.21-.85-1.57-1.51c-.36-.66-.54-1.47-.54-2.42ZM787.07,144.1c0,.82.19,1.45.58,1.89.39.44.87.65,1.44.65s1.05-.22,1.44-.65c.39-.44.58-1.07.58-1.9s-.19-1.43-.58-1.87c-.39-.44-.87-.65-1.44-.65s-1.05.22-1.44.65c-.39.44-.58,1.07-.58,1.89Z"/>
      <path class="cls-29" d="M802.68,148.24h-2.04v-1.22c-.34.47-.74.82-1.2,1.06s-.92.35-1.39.35c-.95,0-1.77-.38-2.44-1.15-.68-.77-1.02-1.84-1.02-3.21s.33-2.47.99-3.2,1.49-1.1,2.5-1.1c.92,0,1.73.38,2.4,1.15v-4.12h2.19v11.43ZM796.83,143.92c0,.88.12,1.52.37,1.92.35.57.85.86,1.48.86.5,0,.93-.21,1.29-.64s.53-1.07.53-1.92c0-.95-.17-1.64-.51-2.05-.34-.42-.78-.63-1.32-.63s-.96.21-1.31.62c-.35.41-.53,1.03-.53,1.85Z"/>
      <path class="cls-29" d="M804.33,143.98c0-.73.18-1.43.54-2.11.36-.68.87-1.2,1.52-1.56s1.39-.54,2.2-.54c1.25,0,2.28.41,3.08,1.22.8.81,1.2,1.84,1.2,3.08s-.4,2.29-1.21,3.11c-.81.82-1.83,1.24-3.05,1.24-.76,0-1.48-.17-2.17-.51s-1.21-.85-1.57-1.51c-.36-.66-.54-1.47-.54-2.42ZM806.58,144.1c0,.82.19,1.45.58,1.89.39.44.87.65,1.44.65s1.05-.22,1.44-.65c.39-.44.58-1.07.58-1.9s-.19-1.43-.58-1.87c-.39-.44-.87-.65-1.44-.65s-1.05.22-1.44.65c-.39.44-.58,1.07-.58,1.89Z"/>
      <path class="cls-29" d="M814.59,148.24v-2.19h2.19v2.19h-2.19Z"/>
      <path class="cls-29" d="M827.29,148.24v-2.3h-4.68v-1.92l4.96-7.26h1.84v7.25h1.42v1.93h-1.42v2.3h-2.12ZM827.29,144.02v-3.91l-2.63,3.91h2.63Z"/>
      <path class="cls-29" d="M831.9,145.3l2.18-.23c.06.49.25.89.55,1.17.31.29.66.43,1.06.43.46,0,.84-.19,1.16-.56.32-.37.48-.93.48-1.68,0-.7-.16-1.23-.47-1.58s-.72-.53-1.23-.53c-.63,0-1.19.28-1.69.83l-1.78-.26,1.12-5.95h5.79v2.05h-4.13l-.34,1.94c.49-.24.99-.37,1.5-.37.97,0,1.8.35,2.47,1.06s1.01,1.62,1.01,2.75c0,.94-.27,1.78-.82,2.52-.74,1.01-1.78,1.51-3.1,1.51-1.05,0-1.92-.28-2.58-.85s-1.06-1.33-1.19-2.28Z"/>
      <path class="cls-29" d="M848.18,139.61l-2.12.23c-.05-.44-.19-.76-.41-.97-.22-.21-.5-.31-.85-.31-.46,0-.85.21-1.17.62-.32.42-.52,1.28-.6,2.6.54-.64,1.22-.97,2.03-.97.92,0,1.7.35,2.35,1.04.65.7.98,1.6.98,2.7,0,1.17-.34,2.11-1.03,2.81-.69.71-1.57,1.06-2.64,1.06-1.15,0-2.1-.45-2.85-1.34s-1.11-2.37-1.11-4.41.39-3.6,1.16-4.53c.77-.93,1.78-1.39,3.02-1.39.87,0,1.59.24,2.16.73.57.49.93,1.19,1.09,2.12ZM843.21,144.39c0,.71.16,1.26.49,1.65s.7.58,1.12.58.74-.16,1.01-.48c.27-.32.41-.84.41-1.56s-.15-1.29-.44-1.63c-.29-.35-.66-.52-1.09-.52s-.78.17-1.07.5-.44.82-.44,1.46Z"/>
      <path class="cls-29" d="M849.63,139v-2.03h7.49v1.59c-.62.61-1.25,1.48-1.89,2.62-.64,1.14-1.13,2.35-1.46,3.63-.34,1.28-.5,2.43-.5,3.43h-2.11c.04-1.58.36-3.19.98-4.83s1.44-3.11,2.47-4.4h-4.98Z"/>
      <path class="cls-29" d="M860.39,142.07c-.57-.24-.98-.57-1.24-.99-.26-.42-.39-.88-.39-1.38,0-.85.3-1.56.89-2.11.59-.56,1.44-.83,2.54-.83s1.93.28,2.53.83c.6.56.9,1.26.9,2.11,0,.53-.14,1-.41,1.42-.28.41-.66.73-1.16.95.63.25,1.12.63,1.45,1.11s.5,1.05.5,1.69c0,1.06-.34,1.91-1.01,2.57-.67.66-1.57.99-2.69.99-1.04,0-1.9-.27-2.6-.82-.82-.64-1.22-1.53-1.22-2.65,0-.62.15-1.19.46-1.7.31-.52.79-.92,1.45-1.2ZM860.64,144.76c0,.6.15,1.07.46,1.41.31.34.7.51,1.16.51s.83-.16,1.12-.49.44-.79.44-1.41c0-.54-.15-.97-.45-1.29-.3-.32-.68-.49-1.15-.49-.54,0-.93.18-1.2.55-.26.37-.39.77-.39,1.2ZM860.84,139.87c0,.44.12.78.37,1.02.25.24.58.37.99.37s.75-.12,1-.37c.25-.25.38-.59.38-1.03,0-.41-.12-.74-.37-.99-.25-.25-.57-.37-.98-.37s-.76.12-1,.37c-.25.25-.38.58-.38.99Z"/>
    </g>
  </g>
  <g id="Repositorium">
    <g>
      <path class="cls-17" d="M555.09,229.6h0c-.03.84-1.78,1.64-4.96,2.37v-4.75c3.21.74,4.96,1.54,4.96,2.38Z"/>
      <path class="cls-17" d="M405.49,227.22v4.75c-3.18-.73-4.93-1.53-4.95-2.36h0c0-.85,1.75-1.65,4.95-2.39Z"/>
      <path class="cls-17" d="M405.49,288.62v4.75c-3.18-.73-4.93-1.53-4.95-2.36h0c0-.85,1.75-1.65,4.95-2.39Z"/>
      <path class="cls-17" d="M555.09,291h0c-.03.84-1.78,1.64-4.96,2.37v-4.75c3.21.74,4.96,1.54,4.96,2.38Z"/>
      <path class="cls-7" d="M550.13,214.05v17.92c-3.92.91-10.02,1.73-17.74,2.4-13.98,1.22-33.26,1.97-54.57,1.97-33.08,0-61.3-1.81-72.33-4.37v-17.92c11.03,2.55,39.25,4.36,72.33,4.36s61.28-1.81,72.31-4.36Z"/>
      <path class="cls-7" d="M550.13,275.45v17.92c-3.92.91-10.02,1.73-17.74,2.4-13.98,1.22-33.26,1.97-54.57,1.97-33.08,0-61.3-1.81-72.33-4.37v-17.92c11.03,2.55,39.25,4.36,72.33,4.36s61.28-1.81,72.31-4.36Z"/>
      <path class="cls-18" d="M555.09,291.01v43.46c0,3.72-33.2,10.2-75.88,10.2s-78.67-6.48-78.67-10.2v-43.46c.02.83,1.77,1.63,4.95,2.36,11.03,2.56,39.25,4.37,72.33,4.37,21.31,0,40.59-.75,54.57-1.97,7.72-.67,13.82-1.49,17.74-2.4,3.18-.73,4.93-1.53,4.96-2.36Z"/>
      <path class="cls-18" d="M555.09,168.21v43.46c0,.84-1.75,1.64-4.96,2.38-11.03,2.55-39.25,4.36-72.31,4.36s-61.3-1.81-72.33-4.36c-3.2-.74-4.95-1.54-4.95-2.38v-43.46c.11,3.72,34.66,6.73,77.28,6.73s77.16-3.01,77.27-6.73Z"/>
      <path class="cls-17" d="M555.09,168.2h0c-.11,3.73-34.66,6.74-77.27,6.74s-77.17-3.01-77.28-6.73h0c0-3.74,34.53-4.85,77.21-4.85s77.34,1.11,77.34,4.84Z"/>
    </g>
    <path class="cls-25" d="M472.53,145.46s-.01.01-.01.02v-.02h.01Z"/>
    <path class="cls-25" d="M472.52,145.49c-.03.21-.11.41-.24.61.08-.2.16-.41.24-.61Z"/>
    <g>
      <path class="cls-22" d="M378.64,222.18s-.05-.02-.08,0v-.02s.05.02.08.03Z"/>
      <path class="cls-18" d="M583.82,251.31c0,15.86-2.95,28.71-6.6,28.71-.05,0-.1,0-.15,0h-.03c-.2-.06-.41-.13-.61-.2-7.12-2.27-14.22-4.55-21.34-6.83v.09c0,.84-1.75,1.64-4.96,2.38-11.03,2.55-39.25,4.36-72.31,4.36s-61.3-1.81-72.33-4.36c-3.2-.74-4.95-1.54-4.95-2.38v.09c-7.33,2.37-14.65,4.74-21.98,7.11v-.23c3.57-.34,6.45-13.16,6.45-28.93,0-14.87-2.56-27.13-5.85-28.77,7.13,2.31,14.25,4.61,21.38,6.91v.36c.02.83,1.77,1.63,4.95,2.36,11.03,2.56,39.25,4.37,72.33,4.37,21.31,0,40.59-.75,54.57-1.97,7.72-.67,13.82-1.49,17.74-2.4,3.18-.73,4.93-1.53,4.96-2.36v-.17c7.33-2.35,14.65-4.7,21.98-7.04v.22c.05,0,.1,0,.15,0,3.65,0,6.6,12.85,6.6,28.7Z"/>
      <path class="cls-7" d="M385.01,251.11c0,15.77-2.88,28.59-6.45,28.93-.05.02-.1.02-.15.02-3.65,0-6.6-12.96-6.6-28.95s2.95-28.96,6.6-28.96c.05,0,.1,0,.15.02.01,0,.02-.01.03-.01.02,0,.03.01.05.02h.01c.16.05.33.11.49.16.01-.01.02-.01.02,0,3.29,1.64,5.85,13.9,5.85,28.77Z"/>
      <path class="cls-13" d="M379.14,222.34c-.16-.05-.33-.11-.49-.16.17,0,.33.07.49.16Z"/>
    </g>
  </g>
  <g id="Hintergrund:_Links" data-name="Hintergrund: Links">
    <path class="cls-19" d="M378.35,264.83c-8.13,5.33-19.12,12.92-31.54,22.7-19.37,15.25-30.07,22.26-36.49,32.74-19.09,31.18-34.74,63.09-78.59,64.4-23.31.69-49.08-8.37-68.51,3.7-17.94,11.14-9.89,28.49-23.94,59.23-17.83,38.99-52.67,60.72-88.78,83.24-12.47,7.77-29.32,17.16-50.49,25.97V209.25c9.47-.47,15.46-.84,16.27-1.05.23-.05.47-.11.47-.11,1.18-.33,2.33-.68,3.45-1.06,2.44-.78,4.73-1.63,6.9-2.52,2.66-1.1,5.22-2.23,7.78-3.38.37-.16.73-.31,1.1-.48,2.16-.97,4.31-1.94,6.48-2.91.87-.38,1.73-.77,2.6-1.15.23-.09.47-.18.69-.29,11.48-4.96,23.95-9.37,41.98-11.04,20.28-1.87,41.9,6.06,61.27,18.25,6.7,4.21,13.29,8.96,19.92,13.52,11.63,8.03,23.4,15.43,36.04,18.17,1.76.38,3.49.66,5.21.84,16.75,1.91,32.55-4.26,47.82-9.88,15.1-5.55,23.25-7.35,33.14-8.72,2.63-.37,14-1.86,26.59-1.06,27.43,1.75,49.19,13.63,60.52,20.96.05,9.16.08,18.32.12,27.49Z"/>
  </g>
  <g id="Icons">
    <ellipse class="cls-25" cx="774.4" cy="293.69" rx="75.22" ry="14.53"/>
    <g id="Diagramm">
      <g>
        <polygon class="cls-22" points="781.43 244.89 781.4 290.95 820.95 290.98 820.98 234.88 791.47 234.86 781.43 244.89"/>
        <polygon class="cls-13" points="781.43 244.89 791.46 244.9 791.47 234.86 781.43 244.89"/>
      </g>
      <g>
        <polygon class="cls-3" points="818.83 284.13 818.82 283.13 785.52 283.24 785.4 249.85 784.4 249.85 784.52 284.25 818.83 284.13"/>
        <rect class="cls-28" x="786.83" y="258.61" width="6.58" height="23.02" transform="translate(-.95 2.79) rotate(-.2)"/>
        <rect class="cls-15" x="794.78" y="262.95" width="6.58" height="18.66" transform="translate(-.95 2.81) rotate(-.2)"/>
        <rect class="cls-17" x="802.71" y="258.55" width="6.58" height="23.02" transform="translate(-.95 2.84) rotate(-.2)"/>
        <rect class="cls-13" x="810.65" y="254.58" width="6.58" height="26.97" transform="translate(-.94 2.87) rotate(-.2)"/>
        <polygon class="cls-17" points="786.57 256.08 787 256.98 793.38 253.89 801.92 256.78 808.55 251.57 808.93 252.04 809.44 250.23 807.56 250.39 807.91 250.81 801.72 255.66 793.31 252.81 786.57 256.08"/>
      </g>
    </g>
    <g id="Blatt">
      <g>
        <g id="Blatt-2" data-name="Blatt">
          <polygon class="cls-27" points="801.7 251.27 801.8 297.32 841.34 297.23 841.22 241.15 811.7 241.22 801.7 251.27"/>
        </g>
        <g id="Zeilen">
          <rect class="cls-8" x="804.56" y="248.52" width="33.82" height="1.03" transform="translate(-.56 1.84) rotate(-.13)"/>
          <rect class="cls-8" x="804.57" y="253.84" width="33.82" height="1.03" transform="translate(-.57 1.84) rotate(-.13)"/>
          <rect class="cls-8" x="804.59" y="258.75" width="33.82" height="1.03" transform="translate(-.58 1.84) rotate(-.13)"/>
          <rect class="cls-8" x="804.6" y="263.66" width="33.82" height="1.03" transform="translate(-.59 1.84) rotate(-.13)"/>
          <rect class="cls-8" x="804.61" y="268.57" width="33.82" height="1.03" transform="translate(-.6 1.84) rotate(-.13)"/>
          <rect class="cls-8" x="804.63" y="278.8" width="33.82" height="1.03" transform="translate(-.62 1.84) rotate(-.13)"/>
          <rect class="cls-8" x="804.62" y="273.68" width="33.82" height="1.03" transform="translate(-.61 1.84) rotate(-.13)"/>
          <rect class="cls-8" x="804.66" y="283.91" width="33.8" height="1.03" transform="translate(-.63 1.84) rotate(-.13)"/>
          <rect class="cls-8" x="804.65" y="288.92" width="33.82" height="1.03" transform="translate(-.65 1.84) rotate(-.13)"/>
        </g>
      </g>
      <polygon class="cls-32" points="801.7 251.27 811.73 251.25 811.7 241.22 801.7 251.27"/>
    </g>
    <g id="Tabelle">
      <g id="Blatt-3" data-name="Blatt">
        <g>
          <path class="cls-30" d="M736.16,242.88l10-.04-.04-10-9.96,10.05Z"/>
          <polygon class="cls-30" points="775.56 232.7 775.82 288.64 736.38 288.83 736.16 242.88 746.16 242.84 746.12 232.83 775.56 232.7"/>
        </g>
        <polygon class="cls-11" points="746.12 232.83 746.16 242.84 736.16 242.88 746.12 232.83"/>
      </g>
      <g id="Tabelle-2" data-name="Tabelle">
        <path class="cls-10" d="M772.59,245.89l-33.08.02h-1.11s0,1.11,0,1.11l.04,35.86v1.1s1.1,0,1.1,0l33.09-.02h1.1s0-1.11,0-1.11l-.03-35.87v-1.1s-1.11,0-1.11,0ZM744.6,248.31v-.98s0-.33,0-.33h12.7s0,.31,0,.31v.99s0,.1,0,.1h-12.72s0-.1,0-.1ZM744.58,249.53h.01s0-.1,0-.1h.01s0,.1,0,.1h12.72s0,2.43,0,2.43h-12.71s-.01,0-.01,0v-2.43ZM744.6,253.08l12.71-.02v2.38s-12.71,0-12.71,0h-.01s0-2.38,0-2.38h.01ZM744.61,272.37v-2.13s0,0,0,0l12.71-.02v2.12s-12.72.01-12.72.01ZM757.32,273.47v2.13s-12.71.02-12.71.02h-.01s0,0,0,0v-2.12s12.72-.02,12.72-.02ZM744.61,269.14h-.01s0-2.13,0-2.13h.01s12.72,0,12.72,0v2.12s-12.71.01-12.71.01ZM744.61,265.91h-.01s0-2.39,0-2.39h.01s12.71,0,12.71,0v2.38s-12.71.01-12.71.01ZM744.61,262.42h-.01s0-2.38,0-2.38h.01s12.72,0,12.72,0v2.37s-12.71.02-12.71.02ZM744.6,258.94h-.01s0-2.39,0-2.39h.01s12.71,0,12.71,0v2.38s-12.71.02-12.71.02ZM739.51,247.02h3.98s0,.31,0,.31v.99s0,.11,0,.11h-.01s-3.64,0-3.64,0h-.33s0-1.4,0-1.4ZM739.51,249.53h.34s3.64,0,3.64,0v2.45s0,0,0,0h-3.64s-.33,0-.33,0v-2.43ZM739.51,253.08h.33s3.65,0,3.65,0v2.38s0,0,0,0h-3.64s-.34,0-.34,0v-2.38ZM739.51,256.56h.34s3.64,0,3.64,0v2.38s-3.64,0-3.64,0h-.34s0-2.38,0-2.38ZM739.52,260.05h.33s3.65,0,3.65,0v2.37s-3.65,0-3.65,0h-.33s0-2.37,0-2.37ZM739.52,263.53h.33s3.65,0,3.65,0v2.38s-3.64,0-3.64,0h-.34s0-2.38,0-2.38ZM739.51,267.02h.34s3.65,0,3.65,0v2.12s-3.64,0-3.64,0h-.34s0-2.12,0-2.12ZM739.52,270.25h.34s3.65,0,3.65,0v2.12s0,0,0,0h-3.64s-.34,0-.34,0v-2.12ZM739.52,273.48h.34s3.65,0,3.65,0v2.13s0,0,0,0h-3.65s-.33,0-.33,0v-2.13ZM743.51,282.41v.47s-3.98,0-3.98,0v-2.67s.34,0,.34,0h3.64s.01,0,.01,0v2.2ZM743.52,279.1h-.01s-3.65,0-3.65,0h-.34s0-2.38,0-2.38h.34s3.64,0,3.64,0h.01s0,2.38,0,2.38ZM757.33,282.86h-12.71s0,0,0,0v-2.66s0,0,0,0l12.71-.02v2.67ZM757.33,279.09h-12.71s-.01,0-.01,0v-2.37s0,0,0,0l12.71-.02v2.38ZM772.61,282.86h-14.17s0-2.66,0-2.66h14.17s0,2.66,0,2.66ZM772.62,279.07l-14.17.02v-2.38s14.16,0,14.16,0v2.36ZM772.6,275.61h-14.17s0-2.14,0-2.14h14.17s0,2.14,0,2.14ZM772.61,272.35h-14.17s0-2.11,0-2.11h14.17s0,2.11,0,2.11ZM772.6,269.12h-14.17s0-2.12,0-2.12h14.18s0,2.12,0,2.12ZM772.6,265.89h-14.17s0-2.37,0-2.37h14.18s0,2.37,0,2.37ZM772.59,262.4h-14.17s0-2.37,0-2.37h14.18s0,2.37,0,2.37ZM772.59,258.92h-14.17s0-2.37,0-2.37h14.18s0,2.37,0,2.37ZM772.6,255.43h-14.18s0-2.36,0-2.36h14.18s0,2.36,0,2.36ZM772.62,248.4v.44s0,.56,0,.56v.11s-.02,0-.02,0v2.44s-14.18,0-14.18,0v-2.43s14.18,0,14.18,0v-.11s0-.56,0-.56v-.44s-14.18,0-14.18,0v-.11s0-.98,0-.98v-.32s14.17,0,14.17,0v1.41s.03,0,.03,0Z"/>
        <polygon class="cls-2" points="743.49 247.01 743.49 247.33 743.49 248.31 743.48 248.42 743.47 248.42 739.84 248.42 739.51 248.42 739.51 247.02 743.49 247.01"/>
        <polygon class="cls-2" points="772.59 246.99 772.59 248.4 758.41 248.41 758.41 248.3 758.41 247.32 758.4 247 772.59 246.99"/>
        <polygon class="cls-2" points="757.3 247.01 757.3 247.32 757.3 248.31 757.31 248.41 744.59 248.41 744.6 248.31 744.6 247.34 744.6 247.01 757.3 247.01"/>
        <polygon class="cls-2" points="743.48 249.53 743.49 251.97 743.48 251.97 739.84 251.97 739.51 251.97 739.51 249.53 739.85 249.53 743.48 249.53"/>
        <polygon class="cls-2" points="743.49 253.08 743.48 255.45 739.84 255.46 739.51 255.46 739.51 253.08 739.84 253.08 743.49 253.08"/>
        <polygon class="cls-2" points="743.49 256.56 743.49 258.94 739.84 258.94 739.51 258.94 739.51 256.56 739.85 256.56 743.49 256.56"/>
        <polygon class="cls-2" points="743.49 260.05 743.49 262.42 739.85 262.42 739.52 262.42 739.52 260.05 739.84 260.05 743.49 260.05"/>
        <polygon class="cls-2" points="743.49 263.53 743.5 265.91 739.85 265.91 739.51 265.91 739.52 263.53 739.85 263.53 743.49 263.53"/>
        <polygon class="cls-2" points="743.5 267.02 743.5 269.14 739.85 269.14 739.52 269.14 739.51 267.02 739.85 267.02 743.5 267.02"/>
        <polygon class="cls-2" points="743.5 270.25 743.51 272.37 743.5 272.37 739.86 272.37 739.52 272.37 739.52 270.25 739.85 270.25 743.5 270.25"/>
        <polygon class="cls-2" points="743.51 273.48 743.5 275.62 739.85 275.61 739.53 275.61 739.52 273.48 739.86 273.48 743.51 273.48"/>
        <polygon class="cls-2" points="743.5 276.73 743.51 279.11 739.86 279.1 739.52 279.11 739.53 276.72 739.87 276.72 743.5 276.73"/>
        <polygon class="cls-2" points="743.5 280.21 743.51 282.41 743.51 282.88 739.53 282.88 739.53 280.2 739.87 280.2 743.5 280.21"/>
      </g>
    </g>
    <g id="Tabelle-3" data-name="Tabelle">
      <g id="Blatt-4" data-name="Blatt">
        <g>
          <path class="cls-30" d="M722.74,246.92l10-.04-.04-10-9.96,10.05Z"/>
          <polygon class="cls-30" points="762.14 236.74 762.4 292.68 722.96 292.87 722.74 246.92 732.74 246.88 732.7 236.87 762.14 236.74"/>
        </g>
        <polygon class="cls-11" points="732.7 236.87 732.74 246.88 722.74 246.92 732.7 236.87"/>
      </g>
      <g id="Tabelle-4" data-name="Tabelle">
        <path class="cls-10" d="M759.17,249.93l-33.08.02h-1.11s0,1.11,0,1.11l.04,35.86v1.1s1.1,0,1.1,0l33.09-.02h1.1s0-1.11,0-1.11l-.03-35.87v-1.1s-1.11,0-1.11,0ZM731.18,252.35v-.98s0-.33,0-.33h12.7s0,.31,0,.31v.99s0,.1,0,.1h-12.72s0-.1,0-.1ZM731.16,253.57h.01s0-.1,0-.1h.01s0,.1,0,.1h12.72s0,2.43,0,2.43h-12.71s-.01,0-.01,0v-2.43ZM731.18,257.12l12.71-.02v2.38s-12.71,0-12.71,0h-.01s0-2.38,0-2.38h.01ZM731.19,276.42v-2.13s0,0,0,0l12.71-.02v2.12s-12.72.01-12.72.01ZM743.9,277.51v2.13s-12.71.02-12.71.02h-.01s0,0,0,0v-2.12s12.72-.02,12.72-.02ZM731.2,273.18h-.01s0-2.13,0-2.13h.01s12.72,0,12.72,0v2.12s-12.71.01-12.71.01ZM731.19,269.95h-.01s0-2.39,0-2.39h.01s12.71,0,12.71,0v2.38s-12.71.01-12.71.01ZM731.19,266.46h-.01s0-2.38,0-2.38h.01s12.72,0,12.72,0v2.37s-12.71.02-12.71.02ZM731.19,262.98h-.01s0-2.39,0-2.39h.01s12.71,0,12.71,0v2.38s-12.71.02-12.71.02ZM726.09,251.06h3.98s0,.31,0,.31v.99s0,.11,0,.11h-.01s-3.64,0-3.64,0h-.33s0-1.4,0-1.4ZM726.09,253.58h.34s3.64,0,3.64,0v2.45s0,0,0,0h-3.64s-.33,0-.33,0v-2.43ZM726.09,257.12h.33s3.65,0,3.65,0v2.38s0,0,0,0h-3.64s-.34,0-.34,0v-2.38ZM726.1,260.6h.34s3.64,0,3.64,0v2.38s-3.64,0-3.64,0h-.34s0-2.38,0-2.38ZM726.1,264.09h.33s3.65,0,3.65,0v2.37s-3.65,0-3.65,0h-.33s0-2.37,0-2.37ZM726.1,267.57h.33s3.65,0,3.65,0v2.38s-3.64,0-3.64,0h-.34s0-2.38,0-2.38ZM726.1,271.06h.34s3.65,0,3.65,0v2.12s-3.64,0-3.64,0h-.34s0-2.12,0-2.12ZM726.1,274.29h.34s3.65,0,3.65,0v2.12s0,0,0,0h-3.64s-.34,0-.34,0v-2.12ZM726.1,277.52h.34s3.65,0,3.65,0v2.13s0,0,0,0h-3.65s-.33,0-.33,0v-2.13ZM730.09,286.45v.47s-3.98,0-3.98,0v-2.67s.34,0,.34,0h3.64s.01,0,.01,0v2.2ZM730.1,283.15h-.01s-3.65,0-3.65,0h-.34s0-2.38,0-2.38h.34s3.64,0,3.64,0h.01s0,2.38,0,2.38ZM743.91,286.91h-12.71s0,0,0,0v-2.66s0,0,0,0l12.71-.02v2.67ZM743.91,283.13h-12.71s-.01,0-.01,0v-2.37s0,0,0,0l12.71-.02v2.38ZM759.19,286.9h-14.17s0-2.66,0-2.66h14.17s0,2.66,0,2.66ZM759.2,283.12l-14.17.02v-2.38s14.16,0,14.16,0v2.36ZM759.19,279.65h-14.17s0-2.14,0-2.14h14.17s0,2.14,0,2.14ZM759.19,276.39h-14.17s0-2.11,0-2.11h14.17s0,2.11,0,2.11ZM759.18,273.16h-14.17s0-2.12,0-2.12h14.18s0,2.12,0,2.12ZM759.18,269.93h-14.17s0-2.37,0-2.37h14.18s0,2.37,0,2.37ZM759.18,266.44h-14.17s0-2.37,0-2.37h14.18s0,2.37,0,2.37ZM759.17,262.96h-14.17s0-2.37,0-2.37h14.18s0,2.37,0,2.37ZM759.18,259.47h-14.18s0-2.36,0-2.36h14.18s0,2.36,0,2.36ZM759.2,252.44v.44s0,.56,0,.56v.11s-.02,0-.02,0v2.44s-14.18,0-14.18,0v-2.43s14.18,0,14.18,0v-.11s0-.56,0-.56v-.44s-14.18,0-14.18,0v-.11s0-.98,0-.98v-.32s14.17,0,14.17,0v1.41s.03,0,.03,0Z"/>
        <polygon class="cls-2" points="730.07 251.05 730.07 251.37 730.07 252.35 730.07 252.47 730.05 252.46 726.42 252.46 726.09 252.46 726.09 251.06 730.07 251.05"/>
        <polygon class="cls-2" points="759.17 251.03 759.18 252.44 744.99 252.45 744.99 252.34 744.99 251.36 744.98 251.04 759.17 251.03"/>
        <polygon class="cls-2" points="743.89 251.05 743.88 251.36 743.88 252.35 743.89 252.45 731.18 252.46 731.18 252.35 731.18 251.38 731.18 251.05 743.89 251.05"/>
        <polygon class="cls-2" points="730.06 253.57 730.07 256.01 730.06 256.02 726.42 256.01 726.09 256.01 726.09 253.58 726.43 253.57 730.06 253.57"/>
        <polygon class="cls-2" points="730.07 257.12 730.06 259.49 726.42 259.5 726.09 259.5 726.09 257.12 726.42 257.12 730.07 257.12"/>
        <polygon class="cls-2" points="730.07 260.6 730.07 262.98 726.43 262.98 726.09 262.98 726.1 260.6 726.43 260.6 730.07 260.6"/>
        <polygon class="cls-2" points="730.07 264.09 730.08 266.46 726.43 266.46 726.1 266.46 726.1 264.09 726.43 264.09 730.07 264.09"/>
        <polygon class="cls-2" points="730.08 267.57 730.08 269.95 726.43 269.95 726.1 269.95 726.1 267.57 726.43 267.57 730.08 267.57"/>
        <polygon class="cls-2" points="730.08 271.06 730.08 273.18 726.44 273.18 726.1 273.18 726.1 271.06 726.43 271.06 730.08 271.06"/>
        <polygon class="cls-2" points="730.08 274.29 730.09 276.41 730.08 276.42 726.44 276.41 726.1 276.41 726.1 274.29 726.44 274.29 730.08 274.29"/>
        <polygon class="cls-2" points="730.09 277.53 730.08 279.66 726.44 279.66 726.11 279.66 726.1 277.52 726.44 277.52 730.09 277.53"/>
        <polygon class="cls-2" points="730.08 280.77 730.09 283.15 726.44 283.15 726.1 283.15 726.11 280.77 726.45 280.77 730.08 280.77"/>
        <polygon class="cls-2" points="730.09 284.25 730.09 286.45 730.1 286.92 726.11 286.92 726.11 284.25 726.45 284.24 730.09 284.25"/>
      </g>
    </g>
    <g id="Tabelle-5" data-name="Tabelle">
      <g id="Blatt-5" data-name="Blatt">
        <g>
          <path class="cls-30" d="M710.44,252.24l10-.04-.04-10-9.96,10.05Z"/>
          <polygon class="cls-30" points="749.83 242.06 750.09 298 710.65 298.19 710.44 252.24 720.44 252.2 720.4 242.2 749.83 242.06"/>
        </g>
        <polygon class="cls-11" points="720.4 242.2 720.44 252.2 710.44 252.24 720.4 242.2"/>
      </g>
      <g id="Tabelle-6" data-name="Tabelle">
        <path class="cls-10" d="M746.87,255.25l-33.08.02h-1.11s0,1.11,0,1.11l.04,35.86v1.1s1.1,0,1.1,0l33.09-.02h1.1s0-1.11,0-1.11l-.03-35.87v-1.1s-1.11,0-1.11,0ZM718.88,257.68v-.98s0-.33,0-.33h12.7s0,.31,0,.31v.99s0,.1,0,.1h-12.72s0-.1,0-.1ZM718.86,258.89h.01s0-.1,0-.1h.01s0,.1,0,.1h12.72s0,2.43,0,2.43h-12.71s-.01,0-.01,0v-2.43ZM718.88,262.45l12.71-.02v2.38s-12.71,0-12.71,0h-.01s0-2.38,0-2.38h.01ZM718.89,281.74v-2.13s0,0,0,0l12.71-.02v2.12s-12.72.01-12.72.01ZM731.6,282.83v2.13s-12.71.02-12.71.02h-.01s0,0,0,0v-2.12s12.72-.02,12.72-.02ZM718.89,278.5h-.01s0-2.13,0-2.13h.01s12.72,0,12.72,0v2.12s-12.71.01-12.71.01ZM718.89,275.27h-.01s0-2.39,0-2.39h.01s12.71,0,12.71,0v2.38s-12.71.01-12.71.01ZM718.88,271.78h-.01s0-2.38,0-2.38h.01s12.72,0,12.72,0v2.37s-12.71.02-12.71.02ZM718.88,268.3h-.01s0-2.39,0-2.39h.01s12.71,0,12.71,0v2.38s-12.71.02-12.71.02ZM713.78,256.38h3.98s0,.31,0,.31v.99s0,.11,0,.11h-.01s-3.64,0-3.64,0h-.33s0-1.4,0-1.4ZM713.79,258.9h.34s3.64,0,3.64,0v2.45s0,0,0,0h-3.64s-.33,0-.33,0v-2.43ZM713.79,262.44h.33s3.65,0,3.65,0v2.38s0,0,0,0h-3.64s-.34,0-.34,0v-2.38ZM713.79,265.92h.34s3.64,0,3.64,0v2.38s-3.64,0-3.64,0h-.34s0-2.38,0-2.38ZM713.8,269.41h.33s3.65,0,3.65,0v2.37s-3.65,0-3.65,0h-.33s0-2.37,0-2.37ZM713.8,272.89h.33s3.65,0,3.65,0v2.38s-3.64,0-3.64,0h-.34s0-2.38,0-2.38ZM713.79,276.38h.34s3.65,0,3.65,0v2.12s-3.64,0-3.64,0h-.34s0-2.12,0-2.12ZM713.8,279.61h.34s3.65,0,3.65,0v2.12s0,0,0,0h-3.64s-.34,0-.34,0v-2.12ZM713.8,282.85h.34s3.65,0,3.65,0v2.13s0,0,0,0h-3.65s-.33,0-.33,0v-2.13ZM717.79,291.77v.47s-3.98,0-3.98,0v-2.67s.34,0,.34,0h3.64s.01,0,.01,0v2.2ZM717.8,288.47h-.01s-3.65,0-3.65,0h-.34s0-2.38,0-2.38h.34s3.64,0,3.64,0h.01s0,2.38,0,2.38ZM731.61,292.23h-12.71s0,0,0,0v-2.66s0,0,0,0l12.71-.02v2.67ZM731.61,288.45h-12.71s-.01,0-.01,0v-2.37s0,0,0,0l12.71-.02v2.38ZM746.89,292.22h-14.17s0-2.66,0-2.66h14.17s0,2.66,0,2.66ZM746.89,288.44l-14.17.02v-2.38s14.16,0,14.16,0v2.36ZM746.88,284.97h-14.17s0-2.14,0-2.14h14.17s0,2.14,0,2.14ZM746.88,281.71h-14.17s0-2.11,0-2.11h14.17s0,2.11,0,2.11ZM746.88,278.48h-14.17s0-2.12,0-2.12h14.18s0,2.12,0,2.12ZM746.88,275.25h-14.17s0-2.37,0-2.37h14.18s0,2.37,0,2.37ZM746.87,271.76h-14.17s0-2.37,0-2.37h14.18s0,2.37,0,2.37ZM746.87,268.28h-14.17s0-2.37,0-2.37h14.18s0,2.37,0,2.37ZM746.88,264.79h-14.18s0-2.36,0-2.36h14.18s0,2.36,0,2.36ZM746.89,257.76v.44s0,.56,0,.56v.11s-.02,0-.02,0v2.44s-14.18,0-14.18,0v-2.43s14.18,0,14.18,0v-.11s0-.56,0-.56v-.44s-14.18,0-14.18,0v-.11s0-.98,0-.98v-.32s14.17,0,14.17,0v1.41s.03,0,.03,0Z"/>
        <polygon class="cls-2" points="717.77 256.37 717.76 256.69 717.77 257.68 717.76 257.79 717.75 257.78 714.11 257.79 713.79 257.78 713.78 256.38 717.77 256.37"/>
        <polygon class="cls-2" points="746.87 256.35 746.87 257.77 732.69 257.78 732.69 257.66 732.69 256.69 732.68 256.36 746.87 256.35"/>
        <polygon class="cls-2" points="731.58 256.37 731.58 256.69 731.58 257.67 731.59 257.77 718.87 257.78 718.88 257.68 718.88 256.7 718.88 256.37 731.58 256.37"/>
        <polygon class="cls-2" points="717.76 258.89 717.76 261.33 717.75 261.34 714.12 261.33 713.79 261.33 713.79 258.9 714.12 258.89 717.76 258.89"/>
        <polygon class="cls-2" points="717.76 262.45 717.76 264.81 714.12 264.82 713.78 264.82 713.79 262.44 714.12 262.44 717.76 262.45"/>
        <polygon class="cls-2" points="717.77 265.92 717.77 268.3 714.12 268.3 713.79 268.3 713.79 265.92 714.13 265.92 717.77 265.92"/>
        <polygon class="cls-2" points="717.77 269.41 717.77 271.78 714.12 271.78 713.8 271.78 713.8 269.41 714.12 269.41 717.77 269.41"/>
        <polygon class="cls-2" points="717.77 272.89 717.78 275.27 714.13 275.27 713.79 275.27 713.8 272.89 714.12 272.89 717.77 272.89"/>
        <polygon class="cls-2" points="717.78 276.38 717.78 278.5 714.13 278.5 713.8 278.5 713.79 276.38 714.13 276.38 717.78 276.38"/>
        <polygon class="cls-2" points="717.78 279.61 717.79 281.74 717.77 281.74 714.14 281.73 713.8 281.73 713.8 279.61 714.13 279.61 717.78 279.61"/>
        <polygon class="cls-2" points="717.79 282.85 717.78 284.98 714.13 284.98 713.81 284.98 713.8 282.85 714.14 282.84 717.79 282.85"/>
        <polygon class="cls-2" points="717.78 286.09 717.78 288.47 714.14 288.47 713.8 288.47 713.81 286.09 714.14 286.09 717.78 286.09"/>
        <polygon class="cls-2" points="717.78 289.57 717.79 291.77 717.79 292.24 713.81 292.24 713.81 289.57 714.15 289.56 717.78 289.57"/>
      </g>
    </g>
  </g>
  <g id="Pfeile:_Rechts" data-name="Pfeile: Rechts">
    <path class="cls-2" d="M649.82,245.5l-1.58-4.35c-1.84,1.16-4.21,2.31-7.09,3.04-10.06,2.54-18.55-2.16-20.82-3.51.67-.46,1.46-1.13,2.2-2.06,1.66-2.07,2.08-4.28,2.21-5.41,1.93,1.33,4.55,2.8,7.85,3.85,5.77,1.84,10.99,1.53,14.49.93l-1.59-4.41,9.39,3.33-5.07,8.58Z"/>
    <path class="cls-32" d="M637.59,272.76l-.25-4.62c-2.09.57-4.69,1-7.67.87-10.37-.48-17.14-7.42-18.91-9.38.76-.25,1.72-.65,2.7-1.34,2.18-1.51,3.22-3.5,3.67-4.54,1.46,1.82,3.54,3.99,6.42,5.96,4.98,3.42,10.07,4.63,13.59,5.06l-.26-4.67,8.03,5.91-7.33,6.74Z"/>
    <path class="cls-13" d="M635.93,218.2l-.19-4.68c-3.48.77-8.41,2.47-13.05,6.37-2.66,2.23-4.52,4.6-5.79,6.55-.56-.98-1.79-2.86-4.11-4.15-1.04-.59-2.04-.9-2.82-1.07,1.57-2.12,7.64-9.69,17.91-11.17,2.95-.42,5.57-.26,7.71.11l-.19-4.62,7.95,6.01-7.42,6.66Z"/>
  </g>
  <g id="Links">
    <g id="Icons-2" data-name="Icons">
      <g id="Blatt-6" data-name="Blatt">
        <g>
          <g id="Blatt-7" data-name="Blatt">
            <polygon class="cls-27" points="308.32 251.21 303.64 295.69 341.83 299.7 347.52 245.54 319.02 242.54 308.32 251.21"/>
          </g>
          <g id="Zeilen-2" data-name="Zeilen">
            <rect class="cls-8" x="327.14" y="234.68" width="1" height="32.84" transform="translate(43.67 550.71) rotate(-84)"/>
            <rect class="cls-8" x="326.6" y="239.82" width="1" height="32.84" transform="translate(38.07 554.77) rotate(-84)"/>
            <rect class="cls-8" x="326.11" y="244.56" width="1" height="32.84" transform="translate(32.91 558.52) rotate(-84)"/>
            <rect class="cls-8" x="325.61" y="249.3" width="1" height="32.84" transform="translate(27.75 562.27) rotate(-84)"/>
            <rect class="cls-8" x="325.11" y="254.04" width="1" height="32.84" transform="translate(22.59 566.02) rotate(-84)"/>
            <rect class="cls-8" x="324.07" y="263.92" width="1" height="32.84" transform="translate(11.84 573.83) rotate(-84)"/>
            <rect class="cls-8" x="324.59" y="258.98" width="1" height="32.84" transform="translate(17.21 569.93) rotate(-84)"/>
            <rect class="cls-8" x="323.56" y="268.87" width="1" height="32.82" transform="translate(6.47 577.75) rotate(-84)"/>
            <rect class="cls-8" x="323.04" y="273.7" width="1" height="32.84" transform="translate(1.2 581.56) rotate(-84)"/>
          </g>
        </g>
        <polygon class="cls-32" points="308.32 251.21 318 252.23 319.02 242.54 308.32 251.21"/>
      </g>
      <g id="Tabelle-7" data-name="Tabelle">
        <g id="Tabelle-8" data-name="Tabelle">
          <g id="Blatt-8" data-name="Blatt">
            <g>
              <path class="cls-30" d="M263.92,221.6l8.92,1.49,1.49-8.92-10.41,7.43Z"/>
              <polygon class="cls-30" points="300.58 218.55 292.26 268.43 257.09 262.57 263.92 221.6 272.84 223.09 274.33 214.17 300.58 218.55"/>
            </g>
            <polygon class="cls-11" points="274.33 214.17 272.84 223.09 263.92 221.6 274.33 214.17"/>
          </g>
          <g id="Tabelle-9" data-name="Tabelle">
            <path class="cls-10" d="M295.92,229.85l-29.48-5.04-.99-.17-.17.99-5.45,31.96-.17.98.98.17,29.49,5.04.98.16.17-.98,5.46-31.96.17-.98-.99-.17ZM270.61,227.73l.15-.87.05-.29,11.32,1.94-.05.28-.15.88v.09s-11.34-1.94-11.34-1.94l.02-.09ZM270.41,228.81h.01v-.09h.02l-.02.09,11.33,1.94-.37,2.17-11.33-1.93h-.01s.37-2.18.37-2.18ZM269.88,231.98l11.33,1.93-.36,2.12-11.33-1.94h-.01l.36-2.12h0ZM266.94,249.17l.32-1.9h.01s11.33,1.94,11.33,1.94l-.33,1.89-11.33-1.93ZM278.1,252.09l-.32,1.9-11.33-1.93h0s.33-1.9.33-1.9l11.33,1.93ZM267.44,246.29h-.01l.32-1.9h.01l11.33,1.94-.33,1.89-11.32-1.93ZM267.93,243.41h-.01s.36-2.13.36-2.13h.01s11.33,1.94,11.33,1.94l-.36,2.12-11.33-1.93ZM268.46,240.3h-.01s.36-2.12.36-2.12h.01l11.33,1.94-.36,2.11-11.33-1.93ZM268.99,237.2h-.01s.36-2.13.36-2.13h.01s11.33,1.94,11.33,1.94l-.36,2.12-11.33-1.93ZM266.27,225.8l3.55.6-.05.28-.15.88-.02.1h-.01s-3.24-.56-3.24-.56l-.29-.05.21-1.25ZM265.89,228.04l.3.05,3.24.55-.37,2.18h-.01l-3.24-.56-.29-.05.37-2.17ZM265.35,231.2l.29.05,3.25.56-.36,2.12h-.01s-3.24-.56-3.24-.56l-.3-.05.37-2.12ZM264.82,234.3l.3.05,3.24.56-.36,2.12-3.25-.56-.3-.05.37-2.12ZM264.29,237.41l.29.05,3.25.56-.36,2.11-3.25-.56-.29-.05.36-2.11ZM263.76,240.51l.29.05,3.25.56-.36,2.12-3.25-.56-.3-.05.37-2.12ZM263.22,243.62l.3.05,3.25.56-.32,1.89-3.25-.56-.3-.05.32-1.89ZM262.73,246.5l.3.05,3.25.56-.32,1.89h-.01l-3.24-.56-.3-.05.32-1.89ZM262.24,249.38l.3.05,3.25.56-.32,1.9h-.01l-3.25-.56-.29-.05.32-1.9ZM264.43,257.94l-.07.42-3.55-.61.41-2.38.3.05,3.24.56h.01l-.34,1.96ZM264.94,255h-.01l-3.25-.56-.3-.05.37-2.12.3.05,3.24.56h.01l-.36,2.12ZM276.67,260.46l-11.33-1.93h0s.4-2.38.4-2.38h.01l11.33,1.93-.41,2.38ZM277.25,257.1l-11.33-1.93h-.01s.36-2.12.36-2.12h.01l11.33,1.93-.36,2.12ZM290.29,262.79l-12.63-2.16.41-2.38,12.63,2.16-.41,2.38ZM290.87,259.42l-12.63-2.15.36-2.12,12.62,2.17-.35,2.1ZM291.39,256.33l-12.62-2.17.32-1.9,12.63,2.16-.33,1.91ZM291.89,253.43l-12.63-2.16.32-1.89,12.63,2.16-.32,1.89ZM292.38,250.55l-12.63-2.16.32-1.9,12.64,2.16-.33,1.9ZM292.87,247.67l-12.63-2.16.36-2.12,12.64,2.16-.37,2.12ZM293.4,244.56l-12.63-2.16.36-2.12,12.64,2.16-.37,2.12ZM293.93,241.46l-12.63-2.16.36-2.12,12.64,2.16-.37,2.12ZM294.47,238.35l-12.64-2.16.36-2.11,12.64,2.16-.36,2.11ZM295.56,232.09l-.07.39-.08.5-.02.1h-.02l-.37,2.17-12.64-2.16.37-2.17,12.64,2.16v-.1s.1-.5.1-.5l.07-.39-12.64-2.16.02-.1.15-.87.04-.29,12.64,2.16-.21,1.26h.02Z"/>
            <polygon class="cls-2" points="269.82 226.4 269.77 226.68 269.62 227.56 269.6 227.66 269.59 227.65 266.35 227.1 266.06 227.05 266.27 225.8 269.82 226.4"/>
            <polygon class="cls-2" points="295.75 230.83 295.54 232.09 282.9 229.93 282.92 229.83 283.07 228.96 283.11 228.67 295.75 230.83"/>
            <polygon class="cls-2" points="282.13 228.51 282.08 228.79 281.93 229.67 281.92 229.76 270.59 227.82 270.61 227.73 270.76 226.86 270.81 226.57 282.13 228.51"/>
            <polygon class="cls-2" points="269.43 228.64 269.06 230.82 269.05 230.82 265.81 230.26 265.52 230.21 265.89 228.04 266.19 228.09 269.43 228.64"/>
            <polygon class="cls-2" points="268.89 231.81 268.52 233.92 265.28 233.37 264.98 233.32 265.35 231.2 265.64 231.25 268.89 231.81"/>
            <polygon class="cls-2" points="268.36 234.91 268 237.03 264.75 236.47 264.45 236.42 264.82 234.3 265.12 234.35 268.36 234.91"/>
            <polygon class="cls-2" points="267.83 238.02 267.47 240.13 264.22 239.57 263.93 239.52 264.29 237.41 264.58 237.46 267.83 238.02"/>
            <polygon class="cls-2" points="267.3 241.12 266.94 243.24 263.69 242.68 263.39 242.63 263.76 240.51 264.05 240.56 267.3 241.12"/>
            <polygon class="cls-2" points="266.77 244.23 266.45 246.12 263.2 245.56 262.9 245.51 263.22 243.62 263.52 243.67 266.77 244.23"/>
            <polygon class="cls-2" points="266.28 247.11 265.96 249 265.95 249 262.71 248.44 262.41 248.39 262.73 246.5 263.03 246.55 266.28 247.11"/>
            <polygon class="cls-2" points="265.79 249.99 265.46 251.89 262.21 251.33 261.92 251.28 262.24 249.38 262.54 249.43 265.79 249.99"/>
            <polygon class="cls-2" points="265.29 252.88 264.93 255 261.68 254.44 261.38 254.39 261.75 252.27 262.05 252.32 265.29 252.88"/>
            <polygon class="cls-2" points="264.76 255.98 264.43 257.94 264.36 258.36 260.81 257.75 261.22 255.37 261.52 255.42 264.76 255.98"/>
          </g>
        </g>
        <g id="Tabelle-10" data-name="Tabelle">
          <g id="Blatt-9" data-name="Blatt">
            <g>
              <path class="cls-30" d="M248.82,225.94l8.92,1.49,1.49-8.92-10.41,7.43Z"/>
              <polygon class="cls-30" points="285.48 222.89 277.16 272.77 241.99 266.91 248.82 225.94 257.74 227.43 259.23 218.51 285.48 222.89"/>
            </g>
            <polygon class="cls-11" points="259.23 218.51 257.74 227.43 248.82 225.94 259.23 218.51"/>
          </g>
          <g id="Tabelle-11" data-name="Tabelle">
            <path class="cls-10" d="M280.82,234.19l-29.48-5.04-.99-.17-.17.99-5.45,31.96-.17.98.98.17,29.49,5.04.98.16.17-.98,5.46-31.96.17-.98-.99-.17ZM255.51,232.07l.15-.87.05-.29,11.32,1.94-.05.28-.15.88v.09s-11.34-1.94-11.34-1.94l.02-.09ZM255.31,233.15h.01v-.09h.02l-.02.09,11.33,1.94-.37,2.17-11.33-1.93h-.01s.37-2.18.37-2.18ZM254.78,236.32l11.33,1.93-.36,2.12-11.33-1.94h-.01l.36-2.12h0ZM251.84,253.51l.32-1.9h.01s11.33,1.94,11.33,1.94l-.33,1.89-11.33-1.93ZM263,256.43l-.32,1.9-11.33-1.93h0s.33-1.9.33-1.9l11.33,1.93ZM252.34,250.63h-.01l.32-1.9h.01l11.33,1.94-.33,1.89-11.32-1.93ZM252.83,247.75h-.01s.36-2.13.36-2.13h.01s11.33,1.94,11.33,1.94l-.36,2.12-11.33-1.93ZM253.36,244.64h-.01s.36-2.12.36-2.12h.01l11.33,1.94-.36,2.11-11.33-1.93ZM253.89,241.54h-.01s.36-2.13.36-2.13h.01s11.33,1.94,11.33,1.94l-.36,2.12-11.33-1.93ZM251.17,230.14l3.55.6-.05.28-.15.88-.02.1h-.01s-3.24-.56-3.24-.56l-.29-.05.21-1.25ZM250.79,232.38l.3.05,3.24.55-.37,2.18h-.01l-3.24-.56-.29-.05.37-2.17ZM250.25,235.54l.29.05,3.25.56-.36,2.12h-.01s-3.24-.56-3.24-.56l-.3-.05.37-2.12ZM249.72,238.64l.3.05,3.24.56-.36,2.12-3.25-.56-.3-.05.37-2.12ZM249.19,241.75l.29.05,3.25.56-.36,2.11-3.25-.56-.29-.05.36-2.11ZM248.66,244.85l.29.05,3.25.56-.36,2.12-3.25-.56-.3-.05.37-2.12ZM248.12,247.96l.3.05,3.25.56-.32,1.89-3.25-.56-.3-.05.32-1.89ZM247.63,250.84l.3.05,3.25.56-.32,1.89h-.01l-3.24-.56-.3-.05.32-1.89ZM247.14,253.72l.3.05,3.25.56-.32,1.9h-.01l-3.25-.56-.29-.05.32-1.9ZM249.33,262.28l-.07.42-3.55-.61.41-2.38.3.05,3.24.56h.01l-.34,1.96ZM249.84,259.34h-.01l-3.25-.56-.3-.05.37-2.12.3.05,3.24.56h.01l-.36,2.12ZM261.57,264.8l-11.33-1.93h0s.4-2.38.4-2.38h.01l11.33,1.93-.41,2.38ZM262.15,261.44l-11.33-1.93h-.01s.36-2.12.36-2.12h.01l11.33,1.93-.36,2.12ZM275.19,267.13l-12.63-2.16.41-2.38,12.63,2.16-.41,2.38ZM275.77,263.76l-12.63-2.15.36-2.12,12.62,2.17-.35,2.1ZM276.29,260.67l-12.62-2.17.32-1.9,12.63,2.16-.33,1.91ZM276.79,257.77l-12.63-2.16.32-1.89,12.63,2.16-.32,1.89ZM277.28,254.89l-12.63-2.16.32-1.9,12.64,2.16-.33,1.9ZM277.77,252.01l-12.63-2.16.36-2.12,12.64,2.16-.37,2.12ZM278.3,248.9l-12.63-2.16.36-2.12,12.64,2.16-.37,2.12ZM278.83,245.8l-12.63-2.16.36-2.12,12.64,2.16-.37,2.12ZM279.37,242.69l-12.64-2.16.36-2.11,12.64,2.16-.36,2.11ZM280.46,236.43l-.07.39-.08.5-.02.1h-.02l-.37,2.17-12.64-2.16.37-2.17,12.64,2.16v-.1s.1-.5.1-.5l.07-.39-12.64-2.16.02-.1.15-.87.04-.29,12.64,2.16-.21,1.26h.02Z"/>
            <polygon class="cls-2" points="254.72 230.74 254.67 231.02 254.52 231.9 254.5 232 254.49 231.99 251.25 231.44 250.96 231.39 251.17 230.14 254.72 230.74"/>
            <polygon class="cls-2" points="280.65 235.17 280.44 236.43 267.8 234.27 267.82 234.17 267.97 233.3 268.01 233.01 280.65 235.17"/>
            <polygon class="cls-2" points="267.03 232.85 266.98 233.13 266.83 234.01 266.82 234.1 255.49 232.16 255.51 232.07 255.66 231.2 255.71 230.91 267.03 232.85"/>
            <polygon class="cls-2" points="254.33 232.98 253.96 235.16 253.95 235.16 250.71 234.6 250.42 234.55 250.79 232.38 251.09 232.43 254.33 232.98"/>
            <polygon class="cls-2" points="253.79 236.15 253.42 238.26 250.18 237.71 249.88 237.66 250.25 235.54 250.54 235.59 253.79 236.15"/>
            <polygon class="cls-2" points="253.26 239.25 252.9 241.37 249.65 240.81 249.35 240.76 249.72 238.64 250.02 238.69 253.26 239.25"/>
            <polygon class="cls-2" points="252.73 242.36 252.37 244.47 249.12 243.91 248.83 243.86 249.19 241.75 249.48 241.8 252.73 242.36"/>
            <polygon class="cls-2" points="252.2 245.46 251.84 247.58 248.59 247.02 248.29 246.97 248.66 244.85 248.95 244.9 252.2 245.46"/>
            <polygon class="cls-2" points="251.67 248.57 251.35 250.46 248.1 249.9 247.8 249.85 248.12 247.96 248.42 248.01 251.67 248.57"/>
            <polygon class="cls-2" points="251.18 251.45 250.86 253.34 250.85 253.34 247.61 252.78 247.31 252.73 247.63 250.84 247.93 250.89 251.18 251.45"/>
            <polygon class="cls-2" points="250.69 254.33 250.36 256.23 247.11 255.67 246.82 255.62 247.14 253.72 247.44 253.77 250.69 254.33"/>
            <polygon class="cls-2" points="250.19 257.22 249.83 259.34 246.58 258.78 246.28 258.73 246.65 256.61 246.95 256.66 250.19 257.22"/>
            <polygon class="cls-2" points="249.66 260.32 249.33 262.28 249.26 262.7 245.71 262.09 246.12 259.71 246.42 259.76 249.66 260.32"/>
          </g>
        </g>
        <g id="Tabelle-12" data-name="Tabelle">
          <g id="Blatt-10" data-name="Blatt">
            <g>
              <path class="cls-30" d="M234.27,231.67l8.92,1.49,1.49-8.92-10.41,7.43Z"/>
              <polygon class="cls-30" points="270.93 228.62 262.61 278.5 227.44 272.64 234.27 231.67 243.19 233.16 244.68 224.24 270.93 228.62"/>
            </g>
            <polygon class="cls-11" points="244.68 224.24 243.19 233.16 234.27 231.67 244.68 224.24"/>
          </g>
          <g id="Tabelle-13" data-name="Tabelle">
            <path class="cls-10" d="M266.27,239.92l-29.48-5.04-.99-.17-.17.99-5.45,31.96-.17.98.98.17,29.49,5.04.98.16.17-.98,5.46-31.96.17-.98-.99-.17ZM240.96,237.8l.15-.87.05-.29,11.32,1.94-.05.28-.15.88v.09s-11.34-1.94-11.34-1.94l.02-.09ZM240.76,238.88h.01v-.09h.02l-.02.09,11.33,1.94-.37,2.17-11.33-1.93h-.01s.37-2.18.37-2.18ZM240.23,242.05l11.33,1.93-.36,2.12-11.33-1.94h-.01l.36-2.12h0ZM237.29,259.24l.32-1.9h.01s11.33,1.94,11.33,1.94l-.33,1.89-11.33-1.93ZM248.45,262.16l-.32,1.9-11.33-1.93h0s.33-1.9.33-1.9l11.33,1.93ZM237.79,256.36h-.01l.32-1.9h.01l11.33,1.94-.33,1.89-11.32-1.93ZM238.28,253.48h-.01s.36-2.13.36-2.13h.01s11.33,1.94,11.33,1.94l-.36,2.12-11.33-1.93ZM238.81,250.37h-.01s.36-2.12.36-2.12h.01l11.33,1.94-.36,2.11-11.33-1.93ZM239.34,247.27h-.01s.36-2.13.36-2.13h.01s11.33,1.94,11.33,1.94l-.36,2.12-11.33-1.93ZM236.62,235.87l3.55.6-.05.28-.15.88-.02.1h-.01s-3.24-.56-3.24-.56l-.29-.05.21-1.25ZM236.24,238.11l.3.05,3.24.55-.37,2.18h-.01l-3.24-.56-.29-.05.37-2.17ZM235.7,241.27l.29.05,3.25.56-.36,2.12h-.01s-3.24-.56-3.24-.56l-.3-.05.37-2.12ZM235.17,244.37l.3.05,3.24.56-.36,2.12-3.25-.56-.3-.05.37-2.12ZM234.64,247.48l.29.05,3.25.56-.36,2.11-3.25-.56-.29-.05.36-2.11ZM234.11,250.58l.29.05,3.25.56-.36,2.12-3.25-.56-.3-.05.37-2.12ZM233.57,253.69l.3.05,3.25.56-.32,1.89-3.25-.56-.3-.05.32-1.89ZM233.08,256.57l.3.05,3.25.56-.32,1.89h-.01l-3.24-.56-.3-.05.32-1.89ZM232.59,259.45l.3.05,3.25.56-.32,1.9h-.01l-3.25-.56-.29-.05.32-1.9ZM234.78,268.01l-.07.42-3.55-.61.41-2.38.3.05,3.24.56h.01l-.34,1.96ZM235.29,265.07h-.01l-3.25-.56-.3-.05.37-2.12.3.05,3.24.56h.01l-.36,2.12ZM247.02,270.53l-11.33-1.93h0s.4-2.38.4-2.38h.01l11.33,1.93-.41,2.38ZM247.6,267.17l-11.33-1.93h-.01s.36-2.12.36-2.12h.01l11.33,1.93-.36,2.12ZM260.64,272.86l-12.63-2.16.41-2.38,12.63,2.16-.41,2.38ZM261.22,269.49l-12.63-2.15.36-2.12,12.62,2.17-.35,2.1ZM261.74,266.4l-12.62-2.17.32-1.9,12.63,2.16-.33,1.91ZM262.24,263.5l-12.63-2.16.32-1.89,12.63,2.16-.32,1.89ZM262.73,260.62l-12.63-2.16.32-1.9,12.64,2.16-.33,1.9ZM263.22,257.74l-12.63-2.16.36-2.12,12.64,2.16-.37,2.12ZM263.75,254.63l-12.63-2.16.36-2.12,12.64,2.16-.37,2.12ZM264.28,251.53l-12.63-2.16.36-2.12,12.64,2.16-.37,2.12ZM264.82,248.42l-12.64-2.16.36-2.11,12.64,2.16-.36,2.11ZM265.91,242.16l-.07.39-.08.5-.02.1h-.02l-.37,2.17-12.64-2.16.37-2.17,12.64,2.16v-.1s.1-.5.1-.5l.07-.39-12.64-2.16.02-.1.15-.87.04-.29,12.64,2.16-.21,1.26h.02Z"/>
            <polygon class="cls-2" points="240.17 236.47 240.12 236.75 239.97 237.63 239.95 237.73 239.94 237.72 236.7 237.17 236.41 237.12 236.62 235.87 240.17 236.47"/>
            <polygon class="cls-2" points="266.1 240.9 265.89 242.16 253.25 240 253.27 239.9 253.42 239.03 253.46 238.74 266.1 240.9"/>
            <polygon class="cls-2" points="252.48 238.58 252.43 238.86 252.28 239.74 252.27 239.83 240.94 237.89 240.96 237.8 241.11 236.93 241.16 236.64 252.48 238.58"/>
            <polygon class="cls-2" points="239.78 238.71 239.41 240.89 239.4 240.89 236.16 240.33 235.87 240.28 236.24 238.11 236.54 238.16 239.78 238.71"/>
            <polygon class="cls-2" points="239.24 241.88 238.87 243.99 235.63 243.44 235.33 243.39 235.7 241.27 235.99 241.32 239.24 241.88"/>
            <polygon class="cls-2" points="238.71 244.98 238.35 247.1 235.1 246.54 234.8 246.49 235.17 244.37 235.47 244.42 238.71 244.98"/>
            <polygon class="cls-2" points="238.18 248.09 237.82 250.2 234.57 249.64 234.28 249.59 234.64 247.48 234.93 247.53 238.18 248.09"/>
            <polygon class="cls-2" points="237.65 251.19 237.29 253.31 234.04 252.75 233.74 252.7 234.11 250.58 234.4 250.63 237.65 251.19"/>
            <polygon class="cls-2" points="237.12 254.3 236.8 256.19 233.55 255.63 233.25 255.58 233.57 253.69 233.87 253.74 237.12 254.3"/>
            <polygon class="cls-2" points="236.63 257.18 236.31 259.07 236.3 259.07 233.06 258.51 232.76 258.46 233.08 256.57 233.38 256.62 236.63 257.18"/>
            <polygon class="cls-2" points="236.14 260.06 235.81 261.96 232.56 261.4 232.27 261.35 232.59 259.45 232.89 259.5 236.14 260.06"/>
            <polygon class="cls-2" points="235.64 262.95 235.28 265.07 232.03 264.51 231.73 264.46 232.1 262.34 232.4 262.39 235.64 262.95"/>
            <polygon class="cls-2" points="235.11 266.05 234.78 268.01 234.71 268.43 231.16 267.82 231.57 265.44 231.87 265.49 235.11 266.05"/>
          </g>
        </g>
      </g>
      <g id="Diagramm-2" data-name="Diagramm">
        <g>
          <polygon class="cls-22" points="250.05 306.23 260.16 351.17 298.74 342.49 286.43 287.76 257.63 294.24 250.05 306.23"/>
          <polygon class="cls-13" points="250.05 306.23 259.83 304.03 257.63 294.24 250.05 306.23"/>
        </g>
        <g>
          <polygon class="cls-3" points="295.16 336.27 294.94 335.3 262.48 342.74 255.01 310.19 254.04 310.42 261.73 343.94 295.16 336.27"/>
          <rect class="cls-28" x="260.79" y="317.42" width="6.58" height="23.02" transform="translate(-66.86 67.37) rotate(-12.92)"/>
          <rect class="cls-15" x="269.02" y="319.95" width="6.58" height="18.66" transform="translate(-66.73 69.22) rotate(-12.92)"/>
          <rect class="cls-17" x="276.27" y="313.87" width="6.58" height="23.02" transform="translate(-65.67 70.74) rotate(-12.92)"/>
          <rect class="cls-13" x="283.57" y="308.19" width="6.58" height="26.97" transform="translate(-64.66 72.28) rotate(-12.92)"/>
          <polygon class="cls-17" points="257.52 316.01 258.14 316.8 263.69 312.38 272.65 313.32 277.97 306.78 278.45 307.15 278.55 305.27 276.74 305.84 277.18 306.17 272.22 312.26 263.38 311.34 257.52 316.01"/>
        </g>
      </g>
    </g>
    <g id="Pfeile:_Links" data-name="Pfeile: Links">
      <path class="cls-32" d="M353.57,239.99l2.51-3.95c-3.29-1.35-8.31-2.77-14.34-2.22-3.46.31-6.34,1.19-8.5,2.06.11-1.12.16-3.36-1-5.75-.52-1.08-1.15-1.9-1.7-2.49,2.5-.83,11.81-3.59,21.08,1.06,2.66,1.34,4.71,2.98,6.26,4.5l2.49-3.91,3.09,9.48-9.89,1.22Z"/>
      <path class="cls-13" d="M336.43,305.83l-.94,9.92-3.28-3.27c-1.17,1.82-2.83,3.88-5.13,5.77-8.02,6.57-17.7,5.92-20.33,5.66.4-.69.84-1.64,1.12-2.8.61-2.58.06-4.76-.3-5.83,2.31.38,5.31.6,8.75.15,6-.79,10.58-3.27,13.5-5.32l-3.31-3.3,9.92-.98Z"/>
      <path class="cls-2" d="M243.71,291.24l-7.03,7.06-.45-4.62c-2.07.67-4.65,1.21-7.63,1.2-10.37-.02-17.43-6.67-19.29-8.54.75-.28,1.69-.73,2.64-1.46,2.11-1.6,3.07-3.63,3.48-4.69,1.54,1.76,3.71,3.84,6.66,5.68,5.14,3.2,10.26,4.2,13.81,4.48l-.46-4.66,8.27,5.55Z"/>
    </g>
    <g id="Person:_Hinten" data-name="Person: Hinten">
      <g id="Gesicht">
        <g id="Kopf">
          <path class="cls-9" d="M103.4,197.69c.58,4.22-1.94,8.4-6.13,9.73-.13.04-.27.08-.4.11l.14,7.29c.05,2.09-1.63,3.84-3.73,3.89-2.1.04-3.85-1.64-3.89-3.74l-.16-8.12v-.06c-2.27-1.14-4.13-3.07-5.14-5.56-.18.06-.38.09-.59.1-1.19.02-2.18-.93-2.2-2.12l-.02-.81c-.01-.88.5-1.65,1.25-2-1.4-5.03,1.46-10.35,6.47-11.96.98-.31,1.98-.46,2.96-.46,4.16,0,8.05,2.66,9.38,6.82l.72,2.24c.94.06,1.78.75,1.98,1.72l.16.79c.17.83-.17,1.65-.8,2.14Z"/>
        </g>
        <g id="Augen">
          <rect class="cls-12" x="89.97" y="193.8" width="1.57" height="1.84" rx=".78" ry=".78" transform="translate(-34.32 20.05) rotate(-10.62)"/>
          <rect class="cls-12" x="97.53" y="192.38" width="1.57" height="1.84" rx=".78" ry=".78" transform="translate(-33.93 21.42) rotate(-10.62)"/>
        </g>
        <g id="Schatten">
          <path class="cls-16" d="M82.98,197.78c-.15,0-.36.62-.18,1.18.13.4.46.8.59.74.25-.11-.15-1.93-.41-1.92Z"/>
          <path class="cls-16" d="M96.86,207.54c-.63.18-1.46.35-2.43.38-1.15.05-2.12-.11-2.83-.27,1.78,1.51,3.56,3.03,5.34,4.54-.02-.69-.04-1.38-.05-2.08-.02-.87-.03-1.72-.03-2.57Z"/>
        </g>
        <g id="Nase">
          <path class="cls-33" d="M94.9,196.14c.06.34.12.56.18.9.04.13.1.39.18.54.23.42.59.62.78.74.52.32.6.65.54.93-.08.37-.72.72-1.49.46"/>
        </g>
        <g id="Augenbrauen">
          <path class="cls-1" d="M96.55,192.52c.15-.26.44-.71.98-1.09.67-.47,1.34-.57,1.65-.6.27-.45.25-.67.17-.79-.27-.41-1.65-.14-2.58.59-.63.49-1.24,1.35-1,1.71.12.19.45.21.79.17Z"/>
          <path class="cls-1" d="M88.8,193.94c.15-.26.44-.71.98-1.09.67-.47,1.34-.57,1.65-.6.27-.45.25-.67.17-.79-.27-.41-1.65-.14-2.58.59-.63.49-1.24,1.35-1,1.71.12.19.45.21.79.17Z"/>
        </g>
        <g id="Haare">
          <path class="cls-1" d="M102.12,192.72s-.04.16-.06.3c-.05.27-.66-2.23-1.66-4.02-.2-.36-.32-.64-.5-.93-.14-.21-.26-.38-.36-.51-2.16,2.6-8.46,3.38-13.15,2.44-.53.9-1.27,1.95-1.23,3.47.06,2.03,1.1,3.85,1.28,4.07-.14-.08-.77-.45-1.82-.82-1.19-.42-1.7-.42-2.11-.48,0,0-.72-3.28-.77-4.13-.03-.58-.04-2.37.57-3.71-.52-.38-.92-.81-1.17-1.3-.06-.13-.79-1.56-.21-2.49.54-.85,1.75-.6,3.48-.99,2.56-.58,2.4-1.69,5.11-2.68.73-.26,3.39-1.17,6.46-.39,1.08.28,2.79.72,3.71,2.23.6.98.75,2.23.57,3.22.4.7.8,1.51,1.07,2.12,0,0,.66,1.52.79,4.6Z"/>
        </g>
        <g id="Mund_Bart" data-name="Mund + Bart">
          <ellipse class="cls-29" cx="96.43" cy="202.5" rx="2.44" ry=".59" transform="translate(-47.53 30.51) rotate(-14.47)"/>
          <path class="cls-1" d="M101.12,201.46c-.25.28-.61.6-1.1.81-1.54.68-3.08-.26-3.42-.48-.31.36-1.63,1.8-3.57,1.76-.62,0-1.14-.17-1.53-.33.41-.13.96-.35,1.57-.73,1.32-.82,1.82-1.77,2.66-1.68.2.02.46.1.76.37.15-.35.33-.51.48-.6.64-.35,1.35.37,2.67.71.6.16,1.12.18,1.48.17Z"/>
        </g>
      </g>
      <g id="Krper">
        <g id="Kittel:_Hinterteil" data-name="Kittel: Hinterteil">
          <path class="cls-25" d="M125.3,307.15c-8.81,1.85-19.65,3.41-32.06,3.67-13.32.27-24.91-1.03-34.22-2.71,4.39-18.67,8.78-37.34,13.16-56.01l41.11-.33,12.01,55.38Z"/>
        </g>
        <g id="Krper-2" data-name="Krper">
          <path class="cls-9" d="M141.07,211.9c-.22,1.82-2.06,2.9-3.38,3.67-6.34,3.68-12.1,6.06-14.07,6.85-.26.1-.45.18-.58.23-5.39,2.13-9.96,3.83-13.63,5.14-.39,1.83-.84,4.46-.95,7.64-.03.91-.1,3.73.69,9.43,1.13,8.06,2.97,14.65,3.36,18.74.03.32.15,1.64.4,3.43.19,1.39.38,2.36.46,2.94.32,2.13.6,4.27.85,6.41.54,4.64.93,9.3,1.16,13.97.37,7.64.29,14.72-.07,21.14.04.32.05.64.03.97.28.79.38,1.65.28,2.53,1.05,8.77,1.85,18.15,2.28,28.07.26,6.08.36,11.96.33,17.61-.01.49.12.96.38,1.36.11.18.24.37.38.57.8,1.11,1.18,1.2,1.23,1.57.16,1.16-3.22,3.54-6.58,3.01-.34-.06-3.42-.55-3.91-2.65-.14-.63-.02-1.22.17-1.69.21-.54.25-1.14.1-1.7-1.51-5.55-2.88-11.77-3.89-18.6-1.48-9.95-1.86-18.95-1.71-26.66-.17-.56-.24-1.15-.21-1.75-.11-.3-.19-.61-.24-.93-1.86-3.72-3.71-7.92-5.37-12.58-3.31-9.34-4.95-17.97-5.71-25.18-.36-.07-.75-.15-1.16-.24-1.04,7.43-3.09,16.5-7.06,26.27-1.87,4.59-3.91,8.69-5.94,12.32-.06.26-.13.52-.22.77.05.75-.05,1.47-.27,2.15-.24,7.71-1.07,16.69-3.01,26.54-1.34,6.75-2.99,12.89-4.75,18.35-.24.77-.2,1.59.1,2.34.33.83.59,2.04.09,3.18-.91,2.11-3.69,2.37-4.92,2.48-3.05.29-6.79-.96-6.87-2.52-.04-.77.81-1.5,1.78-2.06,1.43-.84,2.3-2.37,2.21-4.02-.14-2.4-.22-5.35-.13-8.71.12-4.03.5-7.05.68-9.09.89-9.92,2.14-19.25,3.64-27.92-.05-.81.06-1.6.34-2.32-.04-.48-.01-.95.06-1.39-.06-6.43.18-13.51.9-21.12.42-4.49.99-8.97,1.72-13.42.33-2.06.7-4.11,1.1-6.16.55-2.8,1.33-4.78,1.49-5.26,1.61-4.83,3.25-14.54,4.06-22.52.72-7.12,1.11-16.17.29-26.66,3.91-1.13,9.28-2.25,15.73-2.37,6.36-.11,11.7.78,15.61,1.74,0,.08-.01.16-.01.25,2.75-1.61,3.54-1.81,13.14-4.92,0,0,7.99-2.59,14.9-4.07.15-.03.3-.05.3-.05,0,0,.63-.1,1.24.01,1.4.26,3.48,2.25,3.16,4.88Z"/>
        </g>
        <g id="Schuhe">
          <path class="cls-24" d="M54.23,366.4c2.82-.87,4.99-1.95,7.21-2.61.13.05.28.1.44.16.99.33,2.42.68,4.15.67,1.91-.02,3.45-.47,4.47-.86.14-.06.27-.11.39-.16.32.65.67,1.5.94,2.49.28,1.11.39,2.12.4,2.89l.02,1.23-24.29.49-.02-1.23s.18-1.16,6.3-3.07Z"/>
          <path class="cls-24" d="M108.45,365.36c.22-1.01.54-1.86.83-2.53.17.06.34.12.54.19,1.03.34,2.53.68,4.35.63,2.01-.07,3.59-.6,4.55-1.01.12.03.24.06.37.1h0c2.12.58,4.23,1.5,6.93,2.22,6.2,1.67,6.42,2.82,6.42,2.82l.02,1.23-24.29.49-.02-1.23c-.02-.77.05-1.78.29-2.9Z"/>
        </g>
        <g id="Hose">
          <path class="cls-4" d="M92.64,276.79c1.75,9.94,3.46,19.89,5.15,29.84,3.05,18.05,6.01,36.12,8.86,54.21,1.91-.47,4.21-.9,6.85-1.09,2.41-.17,4.57-.1,6.39.06,1.56-15.76,2.15-35.04,0-56.85-1.72-17.46-4.85-32.88-8.31-45.88-4.89,1.07-10.82,1.98-17.58,2.25-.53.02-1.05.04-1.57.05l.21,17.41Z"/>
          <path class="cls-7" d="M59.44,360.07c2.05-.17,4.37-.25,6.92-.14,2.72.12,5.18.42,7.31.8,3.79-17.47,7.67-34.92,11.64-52.35,2.41-10.54,4.85-21.07,7.33-31.6l-.21-17.41c-6.84.15-12.84-.41-17.79-1.18-3.98,11.92-7.75,25.69-10.54,41.14-4.18,23.07-5.1,43.73-4.66,60.74Z"/>
        </g>
        <g id="Oberteil">
          <path class="cls-23" d="M92.69,271.49c.31,0,.62-.02.93-.03,8.7-.29,16.06-1.75,21.68-3.28-.65-4.78-1.62-11.12-3.07-18.56-1.51-7.75-2.36-10.6-3.02-15.86-.7-5.65-.91-11.93-.28-18.8-.78-.38-1.96-.84-3.48-1.04-1.5-.2-2.76-.07-3.61.09-.41.49-3.25,3.77-8.02,3.86-.19,0-.37,0-.56,0l-.57,53.62Z"/>
          <path class="cls-26" d="M69.98,269.23c5.82,1.3,13.57,2.46,22.71,2.25l.57-53.62c-4.73-.17-7.56-3.52-7.91-3.95-1.15-.18-2.78-.3-4.69-.05-1.85.25-3.34.77-4.38,1.22.36,3.78.64,9.55-.24,16.49-.87,6.9-2.29,10.26-3.77,17.56-.95,4.66-2.03,11.49-2.3,20.09Z"/>
        </g>
        <g id="Kittel">
          <g id="Rechts">
            <path class="cls-9" d="M167.35,196.08c-.25.75-.54,1.82-.71,3.23-.02.39-.1,1.01-.39,1.71-.25.58-.61,1.44-1.47,1.85-.57.27-1.08.22-1.74.15-.41.24-.83.43-1.16.58-7.18,3.31-14.09,7.18-21.27,10.47-.29.13-1.14.5-2.19.37-2.2-.26-3.97-2.5-3.89-4.52.02-.61.21-1.07.3-1.28.7-1.67,2.29-2.33,2.73-2.5,7.42-2.45,14.85-4.92,22.28-7.37-.03-.74.06-2.49.8-4.5,1.13-3.08,3.72-5.59,4.98-4.55,1.05.87-1,2.22-1.42,4.65-.23,1.31.95,2.66,1.13,2.61.04-.02.04-.12.05-.21.04-.7.33-2.12,1.03-2.46.35-.17.87-.09,1.09.18.3.35.05.96-.15,1.59Z"/>
            <path class="cls-25" d="M160.19,206.65l-19.87,8.5c-.2.08-.4.15-.61.19h-.02c-5.22,2.86-10.94,5.88-17.12,9.01-.23.12-3.69,1.85-8.59,3.19-4.02,1.1-6.06,1.63-7.77.64-2.92-1.69-3.92-6.8-2.1-9.89.48-.81,1.23-1.71,4.82-3.32,4.41-1.96,8.08-3.01,10.46-3.66,5.56-1.52,6.92-1.64,11.42-3,2.36-.71,4.32-1.38,5.7-1.87.01-.01.02-.01.02-.01.02,0,.03-.02.05-.03,2.21-1.15,9.66-4.38,19.87-8.5.26,1.27.72,2.95,1.54,4.81.72,1.64,1.52,2.96,2.2,3.94Z"/>
            <path class="cls-6" d="M97.89,213.2l7.37,96.9c7.46-.66,14.18-1.73,20.04-2.95-.86-9.87-2.23-20.64-4.35-32.14-2.14-11.62-4.74-22.28-7.5-31.89-1.5-3.56-3.13-8.42-3.99-14.37-.79-5.49-.68-10.26-.34-13.92-5.53-2.28-9.03-2.19-11.24-1.64Z"/>
            <path class="cls-25" d="M98.18,211.52c-.42-.03-.83-.06-1.24-.09.02.9.04,1.81.06,2.71.2,0,.39.01.59.02.02.57,0,1.28-.17,2.08-.29,1.42-.87,2.49-1.32,3.16,1.17,5.37,2.33,10.73,3.5,16.1,1.3-4.83,2.61-9.66,3.91-14.49l-2.81-4.75,3.69-3.28-6.22-1.46Z"/>
            <path class="cls-25" d="M116.21,275.76l-7.4.78c-.9.09-1.71-.56-1.81-1.46-.2-3.47-.4-6.94-.6-10.41,3.3-.37,6.59-.75,9.89-1.12.46,3.47.92,6.94,1.39,10.41.09.9-.56,1.71-1.46,1.81Z"/>
          </g>
          <g id="Links-2" data-name="Links">
            <path class="cls-6" d="M88.27,212.41l-7.69,98.15c-8.07-.42-15.32-1.35-21.56-2.45,1.51-16.41,4.19-29.11,6.46-37.91,1.12-4.32,3.63-13.5,6.39-26.38.7-3.27,1.34-6.43,1.9-9.84l-.91-14.99c1.02-2.35,2.05-4.71,3.07-7.06,2.32-.38,4.29-.43,5.74-.39,1.17.03,3.6.11,6.6.87Z"/>
            <path class="cls-25" d="M88.02,211.08c.43,0,.86-.02,1.29-.03.02,1.06.05,2.12.07,3.18-.16,0-.32.02-.48.02.01.31.04.64.08.98.21,1.54.77,2.77,1.3,3.67-1.28,5.62-2.56,11.24-3.84,16.86-1.17-5.02-2.35-10.04-3.52-15.06l2.69-4.82-3.78-3.19,6.18-1.62Z"/>
            <path class="cls-25" d="M69.63,276.01l7.41.7c.9.08,1.71-.58,1.79-1.48l.98-10.41c-3.32-.25-6.63-.51-9.95-.76-.57,3.39-1.14,6.77-1.71,10.16-.08.9.58,1.71,1.48,1.79Z"/>
            <path class="cls-9" d="M130.47,230.43c-.1.78-.17,1.89-.07,3.3.05.39.1,1.02-.05,1.76-.13.61-.32,1.53-1.09,2.1-.39.3-.79.39-1.27.44-.06.01-.13.02-.2.03-.08.01-.16.01-.25.02-.12,0-.25.02-.4.02-.2.01-.44,0-.7-.04-.17-.03-.31-.05-.42-.08-.08,0-.16-.01-.24-.01-7.84-.31-15.68-.63-23.52-.95-.43-.04-1.99-.21-3.12-1.42-.07.01-.12.01-.15.01-5.82-2.68-8.46-4.02-13.06-6.81-2.66-1.61-5.69-3.04-10.85-6.41,0,0,0,0,0-.02-1.86-1.03-2.98-3.26-2.64-5.67.43-3.06,3.05-5.21,5.85-4.81.72.1,1.37.35,1.94.73,0-.01.01-.01.01-.02,7.29,4.27,14.23,9.55,20.94,15.54.17.04.33.09.48.15.15.06.3.14.44.23.27-.02.57,0,.9.05,6.79,1.21,13.58,2.42,20.36,3.64,0-.66.04-1.43.17-2.25.51-3.25,2.56-6.21,3.99-5.44,1.21.65-.54,2.37-.49,4.85.04,1.32,1.45,2.42,1.62,2.33.04-.02.02-.13.01-.21-.1-.7-.09-2.15.53-2.62.32-.23.84-.25,1.11-.03.36.29.24.93.16,1.59Z"/>
            <path class="cls-25" d="M122.19,239.08c-6.8-.43-13.6-.87-20.4-1.3-.45.01-.88-.08-1.28-.27-.02,0-.03,0-.05,0-1.6-.49-3.79-1.22-6.3-2.27-1.2-.5-6.03-2.55-12.03-6.52-2.2-1.46-4.72-3.28-7.26-6.08-1.99-2.2-2.44-3.29-2.57-4.35-.29-2.53,1.21-5.48,3.63-6.35,1.84-.65,3.71.07,4.38.33.51.2,1.41.77,3.2,1.89,1.03.65,2.18,1.41,2.31,1.5,0,0,.57.38,1.13.75,2.2,1.5,8.07,6.18,10,7.68,1.47,1.14,3.62,2.74,6.38,4.53,6.36.34,12.74.67,19.1,1.01-.17,1.32-.3,2.8-.35,4.42-.06,1.86,0,3.56.11,5.04Z"/>
            <g id="Knpfe">
              <circle class="cls-29" cx="83.84" cy="242.23" r=".56"/>
              <circle class="cls-29" cx="83.1" cy="249.85" r=".56"/>
              <circle class="cls-29" cx="82.58" cy="257.37" r=".56"/>
              <circle class="cls-29" cx="82.01" cy="265.14" r=".56"/>
              <circle class="cls-29" cx="81.52" cy="272.97" r=".56"/>
              <circle class="cls-29" cx="80.87" cy="280.68" r=".56"/>
              <circle class="cls-29" cx="80.27" cy="289.05" r=".56"/>
              <circle class="cls-29" cx="79.61" cy="296.74" r=".56"/>
            </g>
          </g>
        </g>
      </g>
    </g>
    <g id="Person:_Rechts" data-name="Person: Rechts">
      <g id="Krper-3" data-name="Krper">
        <g id="Kittel:_Hinterteil-2" data-name="Kittel: Hinterteil">
          <path class="cls-25" d="M152.3,245.5c2.99.18,5.97.35,8.96.53.19-1.12.39-2.24.58-3.36-1.34-.32-2.98-.6-4.86-.69-2.05-.1-3.85.04-5.3.26.03.18.05.37.08.55.15.94.33,1.84.53,2.71Z"/>
          <path class="cls-25" d="M188.97,338.31c-8.81,1.85-19.65,3.41-32.06,3.67-13.32.27-24.91-1.03-34.22-2.71,4.39-18.67,8.78-37.34,13.16-56.01l41.11-.33,12.01,55.38Z"/>
        </g>
        <g id="Krper-4" data-name="Krper">
          <path class="cls-14" d="M204.74,243.06c-.22,1.82-2.06,2.9-3.38,3.66-7.18,4.17-13.61,6.68-14.65,7.09-8.4,3.29-10.55,4.23-13.8,4.11-.29-.01-.65-.09-1.06-.24.03,2.88.12,5.85.28,8.91.03.58.27,5.16.69,9.43.81,8.11,2.34,15.76,3.53,20.97,1.25,7.28,2.26,15.5,2.7,24.52.38,7.64.29,14.72-.06,21.14h-.01c.05.32.06.66.04,1,.27.78.37,1.63.27,2.5,1.05,8.77,1.85,18.14,2.28,28.06.26,6.09.36,11.96.33,17.62-.01.48.12.95.38,1.36.11.18.24.37.38.57.8,1.1,1.18,1.2,1.23,1.56.17,1.16-3.22,3.55-6.58,3.01-.34-.05-3.42-.54-3.91-2.64-.14-.63-.02-1.23.17-1.69.21-.55.25-1.14.1-1.71-1.51-5.54-2.88-11.76-3.89-18.6-1.48-9.94-1.86-18.94-1.72-26.66h.01c-.17-.56-.24-1.15-.21-1.76-.11-.29-.19-.6-.24-.91-1.86-3.73-3.71-7.92-5.37-12.59-3.31-9.33-4.95-17.97-5.71-25.18-.36-.06-.75-.14-1.16-.24-1.04,7.44-3.09,16.5-7.06,26.28-1.87,4.58-3.91,8.69-5.94,12.32-.06.26-.13.52-.22.77.05.75-.05,1.47-.28,2.14h.01c-.24,7.72-1.07,16.69-3.01,26.55-1.34,6.75-2.99,12.89-4.75,18.35-.24.76-.2,1.59.1,2.34.33.83.59,2.03.09,3.18-.91,2.11-3.69,2.37-4.92,2.48-3.05.28-6.79-.96-6.87-2.53-.04-.77.81-1.49,1.78-2.05,1.43-.84,2.3-2.37,2.21-4.03-.14-2.39-.22-5.34-.13-8.7.12-4.03.5-7.06.68-9.09.89-9.93,2.15-19.25,3.64-27.92-.05-.81.07-1.61.34-2.33-.04-.48,0-.94.07-1.38h0c-.06-6.44.18-13.51.9-21.12.85-8.99,2.21-17.15,3.79-24.35.01,0,.01.01.02.01,0-.01,0-.03.01-.04,1.85-6.4,3.58-14.13,4.55-22.98,1.12-10.25.94-19.3.29-26.67,3.91-1.12,9.28-2.24,15.73-2.36,6.36-.12,11.7.78,15.61,1.74,0,.08-.01.16-.01.24,2.75-1.6,3.54-1.8,13.14-4.91,0,0,7.99-2.59,14.9-4.07.15-.03.3-.05.3-.05,0,0,.63-.11,1.24,0,1.4.25,3.48,2.25,3.16,4.88Z"/>
        </g>
        <g id="Schuhe-2" data-name="Schuhe">
          <path class="cls-24" d="M117.9,397.56c2.82-.87,4.99-1.95,7.21-2.61.13.05.28.1.44.16.99.33,2.42.68,4.15.67,1.91-.02,3.45-.47,4.47-.86.14-.06.27-.11.39-.16.32.65.67,1.5.94,2.49.28,1.11.39,2.12.4,2.89l.02,1.23-24.29.49-.02-1.23s.18-1.16,6.3-3.07Z"/>
          <path class="cls-24" d="M172.12,396.52c.22-1.01.54-1.86.83-2.53.17.06.34.12.54.19,1.03.34,2.53.68,4.35.63,2.01-.07,3.59-.6,4.55-1.01.12.03.24.06.37.1h0c2.12.58,4.23,1.5,6.93,2.22,6.2,1.67,6.42,2.82,6.42,2.82l.02,1.23-24.29.49-.02-1.23c-.02-.77.05-1.78.29-2.9Z"/>
        </g>
        <g id="Hose-2" data-name="Hose">
          <path class="cls-8" d="M156.31,307.94c1.75,9.94,3.46,19.89,5.15,29.84,3.05,18.05,6.01,36.12,8.86,54.21,1.91-.47,4.21-.9,6.85-1.09,2.41-.17,4.57-.1,6.39.06,1.56-15.76,2.15-35.04,0-56.85-1.72-17.46-4.85-32.88-8.31-45.88-4.89,1.07-10.82,1.98-17.58,2.25-.53.02-1.05.04-1.57.05l.21,17.41Z"/>
          <path class="cls-21" d="M123.11,391.23c2.05-.17,4.37-.25,6.92-.14,2.72.12,5.18.42,7.31.8,3.79-17.47,7.67-34.92,11.64-52.35,2.41-10.54,4.85-21.07,7.33-31.6l-.21-17.41c-6.84.15-12.84-.41-17.79-1.18-3.98,11.92-7.75,25.69-10.54,41.14-4.18,23.07-5.1,43.73-4.66,60.74Z"/>
        </g>
        <g id="Oberteil-2" data-name="Oberteil">
          <path class="cls-21" d="M156.36,302.65c.31,0,.62-.02.93-.03,8.7-.29,16.06-1.75,21.68-3.28-.65-4.78-1.62-11.12-3.07-18.56-1.51-7.75-2.36-10.6-3.02-15.86-.7-5.65-.91-11.93-.28-18.8-.78-.38-1.96-.84-3.48-1.04-1.5-.2-2.76-.07-3.61.09-.41.49-3.25,3.77-8.02,3.86-.19,0-.37,0-.56,0l-.57,53.62Z"/>
          <path class="cls-32" d="M133.65,300.39c5.82,1.3,13.57,2.46,22.71,2.25l.57-53.62c-4.73-.17-7.56-3.52-7.91-3.95-1.15-.18-2.78-.3-4.69-.05-1.85.25-3.34.77-4.38,1.22.36,3.78.64,9.55-.24,16.49-.87,6.9-2.29,10.26-3.77,17.56-.95,4.66-2.03,11.49-2.3,20.09Z"/>
        </g>
        <g id="Kittel-2" data-name="Kittel">
          <g id="Rechts-2" data-name="Rechts">
            <path class="cls-14" d="M231.02,227.24c-.25.74-.54,1.82-.71,3.22-.02.4-.1,1.02-.39,1.71-.25.58-.61,1.45-1.47,1.86-.57.27-1.09.22-1.75.15-.41.24-.82.43-1.15.58-7.18,3.3-14.09,7.17-21.27,10.46-.29.13-1.14.51-2.19.38-2.2-.26-3.97-2.51-3.89-4.52.02-.61.21-1.07.3-1.29.7-1.66,2.29-2.33,2.73-2.49,7.42-2.46,14.85-4.92,22.28-7.37-.03-.74.06-2.49.8-4.5,1.13-3.09,3.72-5.59,4.98-4.56,1.05.88-1,2.22-1.42,4.66-.23,1.31.95,2.66,1.13,2.6.04,0,.04-.12.05-.2.04-.71.33-2.13,1.03-2.47.35-.17.87-.09,1.09.19.3.35.05.95-.15,1.59Z"/>
            <path class="cls-25" d="M223.86,237.81l-19.87,8.49c-.2.09-.4.15-.61.2h-.02c-5.22,2.86-10.94,5.88-17.12,9-.23.13-3.69,1.85-8.59,3.19-4.02,1.1-6.06,1.63-7.77.65-2.92-1.69-3.92-6.8-2.09-9.89.47-.81,1.22-1.71,4.81-3.32,4.41-1.97,8.08-3.01,10.46-3.67,5.56-1.51,6.92-1.64,11.42-2.99,2.33-.7,4.27-1.36,5.64-1.85.05-.03.09-.05.13-.07,2.21-1.15,9.66-4.38,19.87-8.49.26,1.27.72,2.94,1.54,4.81.72,1.64,1.52,2.95,2.2,3.94Z"/>
            <path class="cls-6" d="M161.56,244.36l7.37,96.9c7.46-.66,14.18-1.73,20.04-2.95-.86-9.87-2.23-20.64-4.35-32.14-2.14-11.62-4.74-22.28-7.5-31.89-1.5-3.56-3.13-8.42-3.99-14.37-.79-5.49-.68-10.26-.34-13.92-5.53-2.28-9.03-2.19-11.24-1.64Z"/>
            <path class="cls-25" d="M161.85,242.67c-.2,1.21-.47,2.51-.83,3.89-.38,1.46-.8,2.79-1.24,4,1.17,5.37,2.33,10.73,3.5,16.1,1.3-4.83,2.61-9.66,3.91-14.49l-2.81-4.75,3.69-3.28-6.22-1.46Z"/>
            <path class="cls-25" d="M179.88,306.91l-7.4.78c-.9.09-1.71-.56-1.81-1.46-.2-3.47-.4-6.94-.6-10.41,3.3-.37,6.59-.75,9.89-1.12.46,3.47.92,6.94,1.39,10.41.09.9-.56,1.71-1.46,1.81Z"/>
          </g>
          <g id="links">
            <path class="cls-6" d="M151.94,243.57l-7.69,98.15c-8.07-.42-15.32-1.35-21.56-2.45,1.45-16.6,4.18-29.28,6.46-37.91,1.43-5.39,3.28-11.47,5.5-21.76,1.08-5.02,1.86-9.24,2.42-12.65l-1.01-16.56c-.13-.49-.55-2.23.31-4.14.95-2.14,2.81-2.98,3.23-3.16,2.32-.38,4.29-.44,5.74-.39,1.17.02,3.6.1,6.6.87Z"/>
            <path class="cls-25" d="M151.69,242.24c.22,1.26.53,2.66.97,4.16.4,1.35.85,2.58,1.3,3.67-1.28,5.62-2.56,11.24-3.84,16.86-1.17-5.02-2.35-10.04-3.52-15.06l2.69-4.82-3.78-3.19,6.18-1.62Z"/>
            <path class="cls-25" d="M133.3,307.16l7.41.7c.9.08,1.71-.58,1.79-1.48l.98-10.41c-3.32-.25-6.63-.51-9.95-.76-.57,3.39-1.14,6.77-1.71,10.16-.08.9.58,1.71,1.48,1.79Z"/>
            <path class="cls-14" d="M194.14,261.59c-.1.78-.17,1.89-.07,3.3.05.39.1,1.02-.05,1.75-.13.62-.32,1.54-1.08,2.11-.45.33-.92.41-1.48.47-.08.01-.17.01-.25.02-.12.01-.27.02-.42.02-.17,0-.33,0-.5-.03-.25-.02-.46-.06-.6-.09-.08,0-.16,0-.24,0-7.84-.32-15.68-.63-23.52-.95-.43-.04-1.98-.22-3.11-1.42-.07.01-.12.01-.16.01-5.82-2.68-8.46-4.02-13.06-6.81-2.66-1.62-5.69-3.04-10.85-6.41,0,0,.01,0,.01-.02-1.86-1.03-2.98-3.27-2.64-5.68.43-3.05,3.05-5.2,5.85-4.81.72.1,1.37.36,1.94.73,0,0,.01,0,.01-.01,7.29,4.26,14.24,9.55,20.94,15.53.17.04.33.09.48.16.16.07.32.14.46.23.26-.02.56,0,.88.04,6.79,1.22,13.58,2.43,20.36,3.64,0-.67.04-1.43.17-2.25.51-3.24,2.56-6.2,3.99-5.43,1.21.65-.54,2.37-.48,4.84.03,1.33,1.44,2.43,1.61,2.34.04-.02.02-.13.01-.22-.1-.69-.09-2.14.53-2.61.32-.24.84-.26,1.11-.04.36.29.24.93.16,1.6Z"/>
            <path class="cls-25" d="M185.86,270.24c-6.8-.43-13.6-.87-20.4-1.3-.53,0-1.04-.12-1.5-.37-.01.04-.02.07-.03.11-1.62-.5-3.82-1.23-6.36-2.29-1.2-.5-6.03-2.55-12.02-6.52-2.21-1.46-4.73-3.28-7.27-6.08-1.99-2.2-2.44-3.29-2.56-4.35-.3-2.53,1.2-5.48,3.62-6.34,1.84-.66,3.71.06,4.38.32.51.2,1.41.77,3.2,1.89,1.03.65,2.18,1.41,2.31,1.5,0,0,.57.38,1.13.75,2.2,1.5,8.07,6.19,10.01,7.69,1.46,1.13,3.6,2.72,6.36,4.51,6.45.34,12.92.68,19.37,1.02-.17,1.31-.3,2.79-.35,4.42-.06,1.86,0,3.55.11,5.04Z"/>
            <g id="Knpfe-2" data-name="Knpfe">
              <circle class="cls-29" cx="146.36" cy="285.37" r=".49"/>
              <circle class="cls-29" cx="145.7" cy="292.14" r=".49"/>
              <circle class="cls-29" cx="145.24" cy="298.82" r=".49"/>
              <circle class="cls-29" cx="144.73" cy="305.71" r=".49"/>
              <circle class="cls-29" cx="144.3" cy="312.66" r=".49"/>
              <circle class="cls-29" cx="143.73" cy="319.5" r=".49"/>
              <circle class="cls-29" cx="143.2" cy="326.93" r=".49"/>
              <circle class="cls-29" cx="142.61" cy="333.76" r=".49"/>
            </g>
          </g>
        </g>
      </g>
      <g id="Gesicht-2" data-name="Gesicht">
        <g id="Haare-2" data-name="Haare">
          <path class="cls-25" d="M166,218.88c.15.08,1.27.73,1.49,2.07.17,1.08-.3,2.19-1.23,2.85.18.1,2,1.11,2.25,3.17.21,1.75-.8,3.52-2.54,4.34.08.21.39,1.07-.02,1.92-.47.98-1.69,1.56-2.99,1.32-.21.43-.84,1.52-2.15,2.18-2.13,1.07-4.24.05-4.5-.07-.15.07-2.93,1.4-5.26-.17-1.12-.75-1.61-1.81-1.8-2.32-.39-.05-1.53-.23-2.54-1.17-1.1-1.02-1.32-2.27-1.38-2.64-.08-.09-1.79-1.92-1.14-4.17.38-1.3,1.34-2.02,1.67-2.25-.2-.47-.78-2.03-.23-3.91.43-1.48,1.33-2.39,1.74-2.76.14-.43.54-1.44,1.57-2.28.97-.8,1.98-1.02,2.42-1.08,2.11-.35,4.22-.71,6.34-1.06,1.38.61,2.76,1.22,4.15,1.83.46.04,1.43.2,2.36.91,1.54,1.18,1.75,2.95,1.78,3.29Z"/>
        </g>
        <g id="Kopf-2" data-name="Kopf">
          <path class="cls-14" d="M168.16,228.68c.03,1.11-.87,2.05-1.99,2.07-.29,0-.56-.05-.81-.15-.59,2.99-2.64,5.49-5.38,6.69v.03l.15,7.63c.04,1.97-1.54,3.62-3.51,3.66-1.97.04-3.62-1.54-3.66-3.51l-.15-7.63v-.11c-2.75-1.13-4.84-3.55-5.51-6.51-.3.18-.64.29-1.02.3-1.12.02-2.05-.87-2.07-1.99l-.02-.76v-.04c0-1.1.89-2.01,1.99-2.03.3-.01.59.05.85.17l-.04-1.97v-.18c0-4.99,4.03-9.12,9.04-9.22,5.07-.11,9.31,3.96,9.41,9.03l.04,1.87c.19-.06.39-.1.6-.1,1.11-.03,2.05.87,2.07,1.99v.76Z"/>
        </g>
        <g id="Schatten-2" data-name="Schatten">
          <path class="cls-5" d="M159.97,237.31c-.57.23-1.3.46-2.17.6-1.09.17-2.03.14-2.73.06.8.6,1.6,1.19,2.42,1.79.86.63,1.71,1.24,2.56,1.85-.03-1.43-.06-2.87-.09-4.3Z"/>
          <path class="cls-5" d="M145.91,227.81c-.14,0-.33.59-.17,1.11.12.37.43.75.55.7.23-.1-.14-1.81-.39-1.81Z"/>
          <path class="cls-5" d="M166.53,227.4c.14,0,.36.57.21,1.1-.1.38-.4.76-.53.72-.24-.09.07-1.82.31-1.82Z"/>
        </g>
        <g id="Augenbrauen-2" data-name="Augenbrauen">
          <path class="cls-25" d="M158.37,222.69c.27-.07.77-.17,1.37-.05.76.14,1.26.54,1.48.73.48-.12.62-.27.65-.4.1-.45-.98-1.21-2.08-1.36-.74-.1-1.72.04-1.81.44-.05.2.15.44.4.65Z"/>
          <path class="cls-25" d="M151.23,223.26c.23-.16.67-.42,1.28-.51.76-.12,1.37.08,1.64.19.41-.27.49-.46.47-.59-.06-.45-1.33-.81-2.42-.58-.73.15-1.61.62-1.56,1.03.02.21.29.36.59.47Z"/>
        </g>
        <g id="Augen-2" data-name="Augen">
          <rect class="cls-12" x="159.19" y="224.36" width="1.47" height="1.73" rx=".74" ry=".74" transform="translate(324.33 447.2) rotate(178.85)"/>
          <rect class="cls-12" x="151.96" y="224.51" width="1.47" height="1.73" rx=".74" ry=".74" transform="translate(309.87 447.64) rotate(178.85)"/>
        </g>
        <g id="Nase-2" data-name="Nase">
          <path class="cls-33" d="M156.38,227.33c0,.32,0,.54,0,.86,0,.12-.02.38-.06.53-.13.43-.42.68-.58.83-.42.4-.43.71-.32.96.15.33.8.52,1.46.14"/>
        </g>
        <g id="Mund_Bart-2" data-name="Mund + Bart">
          <ellipse class="cls-29" cx="156.36" cy="233.82" rx="2.4" ry="1.02" transform="translate(-4.65 3.18) rotate(-1.15)"/>
          <path class="cls-25" d="M164,233.39c-.5.34-1.18.71-2.04.9-2.74.62-5.01-1.04-5.53-1.45-.5.43-2.71,2.18-5.46,1.67-.87-.15-1.56-.49-2.07-.82.6-.09,1.43-.27,2.37-.66,2.07-.87,2.98-2.08,4.16-1.77.28.08.63.25.99.7.33-.46.68-.65.96-.74,1.15-.36,2.12.82,4.22,1.6.95.36,1.79.5,2.4.57Z"/>
        </g>
        <g id="Brille">
          <line class="cls-34" x1="157.03" y1="225.54" x2="155.6" y2="225.57"/>
          <rect class="cls-34" x="157.22" y="223.72" width="9.55" height="4.23" rx="1.1" ry="1.1" transform="translate(328.5 448.37) rotate(178.85)"/>
          <rect class="cls-34" x="145.91" y="223.95" width="9.55" height="4.23" rx="1.1" ry="1.1" transform="translate(305.87 449.05) rotate(178.85)"/>
        </g>
        <path class="cls-25" d="M165.96,220.73c-.85.86-2.03.82-2.27.8-.39.44-.77.69-1.03.82-1.39.74-3.09.41-4.2-.33-.37-.25-.64-.51-.79-.68-.49.18-1.42.43-2.5.19-.27-.06-2.21-.49-2.67-2-.13-.44-.1-.85-.05-1.12-.25.12-1.1.5-2.07.2-1.14-.35-2.14-1.53-1.98-2.9.13-1.13,1-2.08,2.17-2.35.14-.22.82-1.18,2.14-1.5,1.31-.32,2.34.22,2.57.35.37-.16,1.6-.62,3.1-.22,1.44.38,2.26,1.32,2.52,1.64.13-.06,1.03-.43,2,.04.97.47,1.23,1.41,1.27,1.54.27.1,1.62.62,2.21,2.05.04.11.86,2.16-.42,3.46Z"/>
      </g>
    </g>
    <g id="Person:_Links" data-name="Person: Links">
      <g id="Krper-5" data-name="Krper">
        <g id="Kittel:_Hinterteil-3" data-name="Kittel: Hinterteil">
          <path class="cls-25" d="M93.44,351.94c-7.82,1.64-17.43,3.03-28.46,3.26-11.82.24-22.11-.91-30.37-2.4,3.89-16.57,7.79-33.14,11.68-49.71l36.48-.29,10.66,49.15Z"/>
        </g>
        <g id="Krper-6" data-name="Krper">
          <path class="cls-31" d="M129.72,246.81c-.21-.25-.69-.32-1.01-.17-.65.31-.92,1.63-.95,2.28-.01.08-.01.18-.05.19-.17.05-1.25-1.2-1.04-2.41.39-2.25,2.28-3.49,1.31-4.3-1.16-.95-3.55,1.36-4.6,4.21-.66,1.8-.76,3.37-.75,4.09-.1.17-.17.34-.23.52-5.8,6.52-11.58,13.02-17.37,19.54-.35.39-3.52-.02-4.12-.03-1.47-.01-2.93-.02-4.4-.03-2.93-.02-5.85-.03-8.78-.05-2.68-.02-5.38.05-8.05,0-2.06-.04-3.96-.79-5.93-1.26-.28-.07-.56-.13-.85-.19-1.26-.23-2.53-.43-3.82-.6-.33-.04-.67-.08-1-.12-1.36-.16-2.72-.28-4.08-.36-.89-.06-1.75-.1-2.6-.12-.27,0-.53-.01-.79-.01h-.04c-2.02-.03-3.92.03-5.69.15-1.15.07-2.24.17-3.27.28.87,10.12,1.75,20.24,2.63,30.36-1.81,3.79-3.61,7.59-5.42,11.39-.05.07-.1.14-.14.22-.08.15-.19.33-.31.53-2.11,3.5-6.41,15.37-6.55,38.43-.02,3.65.02,7.3.11,10.94,0,.16.09.88.09,1.85,0,.54-.02.99-.04,1.37-.1,1.65-.31,3.03-.33,3.13-.07.44-.26,2.48-.64,6.58-.42,4.46-.81,8.92-1.18,13.39-.31,3.85-.61,7.69-.88,11.54-.68,9.76-1.22,19.31-1.61,28.65-1.3.31-2.16.86-2.15,1.47.01.6.86,1.11,2.12,1.37.67.14,1.46.22,2.31.2,1.05-.02,2.01-.18,2.76-.42.99-.33,1.62-.8,1.61-1.32-.01-.46-.51-.86-1.31-1.14,2.68-8.51,5.21-18.16,7.22-28.84,1.07-5.7,1.74-10.36,2.09-13.02,1.15-8.61,1.68-16.06,1.94-21.89,2.95-13.95,5.89-27.9,8.84-41.85.08-.06.16-.12.23-.19l2.4-.05c2.28,14.15,4.56,28.3,6.84,42.44-.22,10.32.2,22.14,1.86,35.09.6,4.68,1.17,7.48,2.1,13.42.93,5.9,1.69,10.7,2.18,13.79.01.09.03.19.05.3-.63.3-1.01.68-1,1.08.01.62.91,1.14,2.24,1.4.65.12,1.39.19,2.19.17.76-.02,1.47-.1,2.1-.24,1.36-.31,2.28-.87,2.27-1.5-.01-.45-.49-.84-1.25-1.13,0-.1-.01-.2-.02-.29.12-8.6.15-17.36.07-26.28-.11-12.07-.42-23.85-.89-35.32v-.03c.02-.17.03-.34.03-.52v-.18c.45-4.33.68-7.93.81-10.45,0,0,1.53-30.42-5.93-42.5,0,0-.18-.28-.33-.59-.05-.06-.1-.12-.17-.17l.05-.04-7.44-11.13c.87-3.19,1.74-6.39,2.6-9.6.62-2.28,1.23-4.57,1.84-6.84,4.1-.71,7.44-1.11,9.64-1.33,13.25-1.37,15.96-1.5,15.96-1.5,2.99-.14,5.88-.2,8.58-2.15,1.46-1.06,2.47-2.37,3.01-3.09,1.63-2.16,1.83-3.45,3.93-6.79.57-.89.98-1.47,1.72-2.52,2.67-3.76,5.74-7.39,7.94-9.88.28,0,.55-.06.82-.19.8-.38,1.13-1.18,1.36-1.71.27-.64.34-1.22.36-1.58.16-1.3.43-2.29.65-2.98.2-.59.42-1.15.15-1.47Z"/>
        </g>
        <g id="Schuhe-3" data-name="Schuhe">
          <path class="cls-1" d="M76.22,431.22l.02,1.15,22.71-.46-.02-1.15s-.2-1.07-6-2.63c-2.67-.71-4.74-1.64-6.83-2.17-.9.38-2.37.88-4.26.95-2.03.06-3.64-.42-4.58-.77-.27.63-.57,1.43-.78,2.37-.22,1.05-.29,1.99-.27,2.71Z"/>
          <path class="cls-1" d="M45.24,431.84l.02,1.15-22.71.46-.02-1.15s.16-1.08,5.89-2.87c2.64-.82,4.67-1.82,6.74-2.45.91.35,2.41.79,4.29.78,2.04-.02,3.62-.56,4.54-.96.3.61.63,1.4.87,2.33.27,1.04.37,1.98.38,2.7Z"/>
        </g>
        <g id="Hose-3" data-name="Hose">
          <path class="cls-2" d="M36.1,419.83c1.24-.25,3.22-.5,5.58-.11,2.01.34,3.59,1.01,4.63,1.55,1.43-6.9,3.48-17.28,5.65-30.02,2.02-11.93,2.75-17.73,4.31-27.34,1.57-9.73,4.02-23.61,7.77-40.54l.43-25.01-.93.03c-3.12.05-6.24.11-9.36.16-5.46,7.17-8.21,13.61-9.69,18-2.59,7.68-3.2,15.45-4.35,31-.4,5.39-.72,9.98-.97,13.64-.21,2.98-.41,5.96-.61,8.96-1.08,16.78-1.9,33.35-2.46,49.7Z"/>
          <path class="cls-10" d="M64.03,323.36c1.61,12.75,3.22,25.51,4.83,38.27,2.47,19.69,4.92,39.37,7.36,59.04,1.44-.4,3.28-.78,5.4-.93,2.25-.16,4.21-.01,5.76.21.27-25.35.4-44.26.36-50.8-.02-2.78-.05-5.4-.05-5.4-.04-3.21-.13-7.57-.31-12.66-.51-14.41-.76-21.62-2.12-27.26-1.47-6.04-4.86-15.39-13.83-25.67l-6.97.18-.43,25.01Z"/>
        </g>
        <g id="Oberteil-3" data-name="Oberteil">
          <path class="cls-11" d="M64.46,298.46c2.31-.05,4.64-.1,6.96-.15l7.3-27.79c-2.94-.64-5.88-1.29-8.82-1.93-.57.95-1.42,2.15-2.65,3.33-.83.8-1.65,1.41-2.37,1.87-.14,8.22-.28,16.45-.42,24.67Z"/>
          <path class="cls-30" d="M51.35,268.4c.96,10.1,1.92,20.19,2.88,30.29,3.1-.07,6.2-.13,9.3-.21l.93-.02.42-24.67-.05.05c-.72-.68-1.49-1.49-2.26-2.45-1.02-1.27-1.81-2.49-2.41-3.57-2.94.19-5.88.38-8.81.57Z"/>
        </g>
        <g id="Links-3" data-name="Links">
          <path class="cls-6" d="M60.57,267.87l-6.82,87.1c-7.17-.37-13.59-1.2-19.13-2.17,1.72-14.21,3.95-25.64,5.73-33.65,2.14-9.63,4.34-17.5,6.03-28.25l-.94-15.34c-.13-.57-.39-2.07.29-3.76.82-2.06,2.46-3.01,2.92-3.26,1.18-.38,2.59-.74,4.2-.95,3.13-.41,5.81-.11,7.72.28Z"/>
          <path class="cls-25" d="M62.37,273.64c-1.14,4.99-2.28,9.98-3.41,14.96-1.04-4.45-2.09-8.91-3.13-13.37l2.39-4.27-3.34-2.82h-.01s5.48-1.45,5.48-1.45c.32-.05.66-.09,1.02-.12l.03,1.43c-.27,0-.53-.01-.79-.01.1.51.23,1.05.38,1.61.07.26.14.52.22.79.36,1.2.76,2.28,1.16,3.25Z"/>
          <g id="Knpfe-3" data-name="Knpfe">
            <circle class="cls-29" cx="55.7" cy="300.04" r=".49"/>
            <circle class="cls-29" cx="55.04" cy="306.8" r=".49"/>
            <circle class="cls-29" cx="54.58" cy="313.48" r=".49"/>
            <circle class="cls-29" cx="54.08" cy="320.38" r=".49"/>
            <circle class="cls-29" cx="53.65" cy="327.32" r=".49"/>
            <circle class="cls-29" cx="53.07" cy="334.17" r=".49"/>
            <circle class="cls-29" cx="52.54" cy="341.6" r=".49"/>
            <circle class="cls-29" cx="51.95" cy="348.42" r=".49"/>
          </g>
          <path class="cls-25" d="M44.03,324.3l6.58.62c.8.08,1.51-.52,1.59-1.32l.87-9.24c-2.94-.22-5.89-.45-8.83-.67-.51,3.01-1.01,6.01-1.52,9.01-.08.8.52,1.51,1.32,1.59Z"/>
        </g>
        <g id="Rechts-3" data-name="Rechts">
          <path class="cls-25" d="M123.7,259.47c-4.41,6-8.82,11.99-13.24,17.99-.23.29-1.39,1.67-3.16,1.85-5.25.7-9.54,1.27-12.82,1.71-1.25.17-3.27.44-5.98.69-.87.08-1.61.13-3.57.28-5.17.4-5.37.87-6.2.41-1.98-1.1-2-4.47-2.01-6.14,0-.52.02-5.3,2.36-6.23.11-.04.27-.08.58-.15.75-.16,1.63-.2,3.96-.26,5.34-.15,8-.22,9.68-.19,3.26.06,7.35.25,12.09.74,3.91-5.21,7.83-10.42,11.74-15.64.72.88,1.75,1.97,3.17,3.01,1.25.91,2.44,1.52,3.4,1.93Z"/>
          <path class="cls-6" d="M69.11,268.57l6.54,85.99c6.62-.58,12.58-1.54,17.78-2.61-.38-4.38-.88-8.96-1.51-13.72-.39-2.94-1.15-8.32-2.35-14.8-3.14-17.02-7.57-32.43-8.87-40.93-.53-3.46-.98-7.02-.98-7.02-.24-1.85-.45-3.66-.64-5.45-4.91-2.03-8.02-1.94-9.97-1.46Z"/>
          <path class="cls-25" d="M71.61,271.29l2.49,4.21c-1.16,4.29-2.31,8.57-3.47,12.86-1.04-4.76-2.07-9.52-3.1-14.29.38-1.07.76-2.25,1.1-3.54.04-.16.08-.32.12-.48.13-.5.23-.98.33-1.45-.33-.04-.67-.08-1-.12v-.08l-.03-1.6c.47.09.91.18,1.32.28l5.51,1.3-1.13,1.01-2.14,1.9Z"/>
          <path class="cls-25" d="M85.37,324.08l-6.57.69c-.8.08-1.52-.5-1.6-1.3-.18-3.08-.35-6.16-.53-9.23,2.92-.33,5.85-.67,8.77-1,.41,3.08.82,6.16,1.23,9.24.08.8-.5,1.52-1.3,1.6Z"/>
        </g>
        <g id="Arme">
          <path class="cls-31" d="M97.21,301.9c-1.05,1.41-1.82,1.99-1.82,1.99-.67.53-1.63,1.32-2.85,2.39-.32.09-.73.16-1.21.18-.61.03-1.12-.05-1.5-.14-8.66-1.51-17.31-3.02-25.96-4.53h-.01c-.51-.01-1.03-.11-1.52-.34-1.8-.84-2.58-2.98-1.74-4.78.7-1.51,2.31-2.29,3.87-2.01.03,0,.06.01.09.02.16.04.32.08.48.12l.04.02c4.1,1.06,8.32,2.22,12.63,3.5,4.02,1.18,7.91,2.41,11.68,3.66.04-.22.1-.45.16-.68.17-.57.73-2.02,1.95-3.51,1.8-2.19,4.62-3.51,5.35-2.31.62,1.01-1.44,1.53-2.47,3.4-.55.99-.18,2.73.31,2.4,1.05-.68,2.23-1.21,2.68-.88.13.1.21.21.25.32.15.39-.15.83-.41,1.18Z"/>
          <path class="cls-25" d="M87.3,299.26c-.4,1.12-.78,2.39-1.11,3.79-.37,1.61-.59,3.1-.72,4.42-7.41-1.73-14.83-3.46-22.25-5.18-.91-.15-1.7-.59-2.28-1.21-1.6-1.31-3.45-3.01-5.34-5.11-.7-.78-3.1-3.5-5.69-7.66-.58-.94-3.14-5.13-5.07-11.06-.93-2.88-1.12-4.33-.45-5.69.76-1.57,2.5-2.73,4.26-3.02,0,0,1.23-.2,2.4.13,3.94,1.08,5.02,8.67,8.46,15.69,1.24,2.51,3.33,6.19,6.86,10.23,6.98,1.55,13.96,3.12,20.93,4.67Z"/>
        </g>
      </g>
      <g id="Gesicht-3" data-name="Gesicht">
        <g id="Haare-3" data-name="Haare">
          <path class="cls-1" d="M77.6,250.51c-.39-2.27-.97-5.59-3.73-8.52-.72-.76-3.19-3.32-7.3-3.99-3.6-.59-6.4.6-7.76,1.21-1.13.5-4.42,2.13-6.54,5.48-5.11,8.08.23,20.12,3.72,20.86.37.08.9.12,1.94.02,1.92-.19,3.03-.98,6.45-1.12,4.73-.19,7.6,1.7,9.93.78,3.75-1.48,4.17-9.75,3.31-14.72Z"/>
        </g>
        <g id="Kopf-3" data-name="Kopf">
          <path class="cls-31" d="M74.05,252.1c.81,4.04-1.54,8.15-5.55,9.43-.18.06-.36.11-.55.15l.1,5.12.03,1.6v.08c-.02.68-.46,1.26-1.08,1.47-.16.06-.32.1-.5.1l-3.45.07c-.45,0-.87-.18-1.17-.47-.28-.29-.47-.68-.47-1.11v-.54s-.04-1.43-.04-1.43l-.12-5.56c-2.2-1.06-4.01-2.91-4.92-5.33-.03.01-.05.01-.08.01-1.04.02-1.91-.81-1.93-1.85l-.02-.71c0-.61.27-1.16.72-1.5-1.44-4.7,1.19-9.73,5.88-11.23.9-.29,1.82-.43,2.72-.43,3.82,0,7.4,2.46,8.62,6.28l.73,2.28c.62.21,1.11.73,1.25,1.41l.14.69c.11.53-.02,1.06-.31,1.47Z"/>
        </g>
        <g id="Schatten-3" data-name="Schatten">
          <path class="cls-16" d="M67.94,261.68c-.55.16-1.27.3-2.13.34-1.01.04-1.85-.09-2.47-.24,1.56,1.33,3.12,2.65,4.67,3.98-.02-.6-.03-1.21-.04-1.82-.01-.76-.02-1.51-.03-2.25Z"/>
          <path class="cls-16" d="M55.79,252.58c-.13,0-.31.55-.16,1.03.11.35.4.7.52.65.22-.09-.13-1.69-.36-1.68Z"/>
        </g>
        <g id="Augenbrauen-3" data-name="Augenbrauen">
          <path class="cls-1" d="M63.51,248.21c-.26-.04-.73-.07-1.28.11-.69.22-1.11.64-1.29.84-.46-.05-.6-.18-.64-.3-.14-.4.77-1.23,1.77-1.5.68-.18,1.6-.15,1.73.2.07.18-.09.42-.3.64Z"/>
          <path class="cls-1" d="M67.59,247.88c.17-.2.5-.54,1.02-.78.65-.3,1.25-.28,1.52-.25.3-.35.32-.54.27-.65-.17-.39-1.4-.39-2.32.09-.62.32-1.28.96-1.14,1.31.07.18.35.25.65.27Z"/>
        </g>
        <g id="Augen-3" data-name="Augen">
          <rect class="cls-12" x="61.91" y="249.1" width="1.37" height="1.61" rx=".69" ry=".69" transform="translate(-44.97 15.81) rotate(-10.62)"/>
          <path class="cls-12" d="M69.36,249.46c-.37.07-.73-.18-.8-.55l-.04-.24c-.07-.37.18-.73.55-.8.37-.07.73.18.8.55l.04.24c.07.37-.18.73-.55.8Z"/>
        </g>
        <g id="Nase-3" data-name="Nase">
          <path class="cls-33" d="M66.22,251.15c.06.3.1.49.16.79.03.11.09.34.16.48.2.37.51.54.69.65.46.28.52.57.47.82-.07.33-.63.63-1.31.41"/>
        </g>
        <g id="Mund">
          <path class="cls-33" d="M64.63,256.91c.33.34.87.82,1.52,1.07.72.28,1.26.19,1.58.08"/>
        </g>
        <g id="Haare-4" data-name="Haare">
          <path class="cls-1" d="M73.92,248.37c-.11.06-.24.12-.39.15-.5.12-.92-.06-1.09-.15-.7-1.92-1.65-2.72-2.39-3.09-.83-.41-1.69-.44-2.75-1.26-.54-.43-.91-.89-1.13-1.2-.12.27-.53,1.18-1.52,2.26-2.19,2.39-3.72,2.23-5.2,4.14-.46.59-1.05,1.56-1.37,3.07-.29.14-.77-.54-1.23-.79-.34-.19-.91-.28-1.89.16-.38-.37-2.54-2.55-2.12-5.28.19-1.26.89-2.04,1.62-3.01,2.48-3.27,6.18-4.03,6.66-4.12,2.53-.48,4.61.07,5.65.42.96.26,2.86.92,4.52,2.64.55.57,2.56,2.81,2.63,6.06Z"/>
        </g>
      </g>
    </g>
  </g>
</svg>